999
motif-layout output
0
SECTION
2
HEADER
9
$INSUNITS
70
4
9
$MEASUREMENT
70
1
9
$EXTMIN
10
29.000000
20
35.000000
30
0.0
9
$EXTMAX
10
202.000000
20
192.602871
30
0.0
0
ENDSEC
0
SECTION
2
ENTITIES
0
LWPOLYLINE
8
0
90
5
70
0
10
68.555195
20
43.636110
10
67.893573
20
46.272220
10
64.946787
20
43.449020
10
62.000000
20
40.625820
10
62.000000
20
43.753890
0
LWPOLYLINE
8
0
90
3
70
0
10
32.003409
20
101.000000
10
34.998255
20
105.500000
10
31.999127
20
105.813360
0
LWPOLYLINE
8
0
90
5
70
0
10
36.319189
20
134.345507
10
40.138378
20
137.615921
10
37.319189
20
138.935968
10
34.500000
20
140.256015
10
38.385808
20
141.378007
0
LWPOLYLINE
8
0
90
3
70
0
10
41.500000
20
147.461640
10
47.500000
20
148.606436
10
43.707302
20
150.927186
0
LWPOLYLINE
8
0
90
9
70
0
10
51.985480
20
160.514980
10
48.607666
20
164.000000
10
54.326886
20
164.000000
10
60.046106
20
164.000000
10
58.372379
20
166.554430
10
56.698652
20
169.108861
10
62.038956
20
168.400444
10
67.379260
20
167.692028
10
65.148995
20
171.472046
0
LWPOLYLINE
8
0
90
3
70
0
10
80.644967
20
180.920610
10
83.282048
20
178.500000
10
82.641024
20
181.250000
0
LWPOLYLINE
8
0
90
3
70
0
10
81.374572
20
186.567814
10
80.749143
20
189.135629
10
86.457476
20
185.484052
0
LWPOLYLINE
8
0
90
3
70
0
10
105.691110
20
186.750000
10
107.752360
20
191.500000
10
108.974010
20
188.250000
0
LWPOLYLINE
8
0
90
7
70
0
10
126.480460
20
187.593570
10
128.422600
20
191.199911
10
129.510090
20
187.970043
10
130.597570
20
184.740176
10
133.765260
20
188.620088
10
136.932940
20
192.500000
10
136.966440
20
187.250000
0
LWPOLYLINE
8
0
90
3
70
0
10
152.181610
20
177.593931
10
155.263940
20
179.187863
10
154.612900
20
176.593931
0
LWPOLYLINE
8
0
90
3
70
0
10
196.825690
20
95.000000
10
191.651370
20
95.000000
10
194.049480
20
92.447330
0
LWPOLYLINE
8
0
90
3
70
0
10
109.909430
20
39.353460
10
107.655740
20
35.706910
10
105.906750
20
37.866840
0
LWPOLYLINE
8
0
90
78
70
0
10
105.906750
20
37.866840
10
105.493512
20
38.393342
10
105.087538
20
38.940743
10
104.702643
20
39.488247
10
104.352643
20
40.015058
10
104.051353
20
40.500381
10
103.812591
20
40.923420
10
103.650170
20
41.263380
10
103.457581
20
41.507068
10
103.160494
20
41.564931
10
102.764113
20
41.440197
10
102.273646
20
41.136093
10
101.694297
20
40.655846
10
101.031273
20
40.002683
10
100.289780
20
39.179830
10
99.234904
20
37.965850
10
98.442288
20
37.131070
10
97.832499
20
36.652857
10
97.326104
20
36.508583
10
96.843671
20
36.675616
10
96.305768
20
37.131325
10
95.632961
20
37.853080
10
95.047545
20
38.433874
10
94.453443
20
38.877621
10
93.824402
20
39.191603
10
93.134173
20
39.383104
10
92.356503
20
39.459407
10
91.465141
20
39.427795
10
90.433837
20
39.295550
10
89.485834
20
39.183875
10
88.570970
20
39.161619
10
87.690496
20
39.228550
10
86.845659
20
39.384437
10
86.037709
20
39.629045
10
85.267894
20
39.962144
10
84.537464
20
40.383500
10
83.617531
20
40.969764
10
82.925854
20
41.323623
10
82.396086
20
41.413773
10
81.961878
20
41.208909
10
81.556881
20
40.677726
10
81.114746
20
39.788922
10
80.569124
20
38.511190
10
80.208966
20
37.708634
10
79.829919
20
36.970568
10
79.446695
20
36.318490
10
79.074004
20
35.773896
10
78.726559
20
35.358285
10
78.419070
20
35.093154
10
78.166250
20
35.000000
10
77.934173
20
35.145500
10
77.685723
20
35.559617
10
77.430824
20
36.208772
10
77.179402
20
37.059389
10
76.941380
20
38.077891
10
76.726683
20
39.230700
10
76.545236
20
40.484240
10
76.365719
20
41.751931
10
76.156516
20
42.945016
10
75.927105
20
44.026653
10
75.686965
20
44.959999
10
75.445576
20
45.708212
10
75.212417
20
46.234450
10
74.996968
20
46.501870
10
74.752405
20
46.543731
10
74.436385
20
46.427992
10
74.065105
20
46.169864
10
73.654764
20
45.784555
10
73.221559
20
45.287275
10
72.781687
20
44.693234
10
72.351347
20
44.017640
10
71.496885
20
42.651880
10
70.791098
20
41.727691
10
70.207212
20
41.242380
10
69.718454
20
41.193258
10
69.298048
20
41.577633
10
68.919219
20
42.392814
10
68.555195
20
43.636110
0
LWPOLYLINE
8
0
90
106
70
0
10
62.000000
20
43.753890
10
61.924538
20
45.172340
10
61.707521
20
46.269501
10
61.362998
20
47.032603
10
60.905020
20
47.448873
10
60.347637
20
47.505542
10
59.704901
20
47.189838
10
58.990862
20
46.488990
10
58.184363
20
45.627599
10
57.514098
20
45.188981
10
56.954580
20
45.199208
10
56.480322
20
45.684352
10
56.065837
20
46.670484
10
55.685637
20
48.183676
10
55.314237
20
50.250000
10
55.027188
20
51.892110
10
54.738510
20
53.167614
10
54.425839
20
54.118052
10
54.066813
20
54.784968
10
53.639068
20
55.209903
10
53.120239
20
55.434399
10
52.487963
20
55.500000
10
51.877526
20
55.551778
10
51.386408
20
55.723613
10
50.999439
20
56.040258
10
50.701448
20
56.526467
10
50.477265
20
57.206991
10
50.311717
20
58.106585
10
50.189635
20
59.250000
10
49.990426
20
60.816565
10
49.692700
20
61.949561
10
49.303849
20
62.645015
10
48.831264
20
62.898957
10
48.282335
20
62.707415
10
47.664454
20
62.066416
10
46.985010
20
60.971990
10
46.405752
20
60.078785
10
45.843634
20
59.586207
10
45.304578
20
59.490793
10
44.794510
20
59.789076
10
44.319355
20
60.477594
10
43.885037
20
61.552880
10
43.497481
20
63.011470
10
43.262696
20
63.919221
10
42.988501
20
64.634789
10
42.654489
20
65.177321
10
42.240253
20
65.565962
10
41.725387
20
65.819858
10
41.089484
20
65.958156
10
40.312137
20
66.000000
10
39.476448
20
66.023955
10
38.865283
20
66.115452
10
38.457574
20
66.303935
10
38.232253
20
66.618852
10
38.168250
20
67.089647
10
38.244497
20
67.745768
10
38.439925
20
68.616660
10
38.961409
20
70.769376
10
39.371160
20
72.623570
10
39.667413
20
74.167336
10
39.848403
20
75.388768
10
39.912368
20
76.275959
10
39.857541
20
76.817006
10
39.682160
20
77.000000
10
39.457994
20
76.944318
10
39.070030
20
76.785839
10
38.543523
20
76.537412
10
37.903727
20
76.211887
10
37.175898
20
75.822114
10
36.385290
20
75.380941
10
35.557160
20
74.901220
10
34.061371
20
74.055659
10
33.015989
20
73.601242
10
32.394013
20
73.599212
10
32.168440
20
74.110810
10
32.312267
20
75.197278
10
32.798491
20
76.919858
10
33.600110
20
79.339790
10
34.289409
20
81.619349
10
34.664217
20
83.474847
10
34.727627
20
84.894016
10
34.482734
20
85.864592
10
33.932634
20
86.374309
10
33.080421
20
86.410900
10
31.929190
20
85.962100
10
30.723326
20
85.406135
10
29.889077
20
85.219240
10
29.428401
20
85.389566
10
29.343254
20
85.905260
10
29.635592
20
86.754475
10
30.307372
20
87.925358
10
31.360551
20
89.406060
10
32.572081
20
91.075075
10
33.385127
20
92.402767
10
33.800458
20
93.419952
10
33.818843
20
94.157450
10
33.441049
20
94.646079
10
32.667846
20
94.916656
10
31.500000
20
95.000000
10
30.334994
20
95.045280
10
29.571505
20
95.232567
10
29.216006
20
95.639029
10
29.274973
20
96.341835
10
29.754879
20
97.418153
10
30.662200
20
98.945152
10
32.003409
20
101.000000
0
LWPOLYLINE
8
0
90
50
70
0
10
31.999127
20
105.813360
10
31.313612
20
105.896340
10
30.683183
20
105.994527
10
30.126203
20
106.103382
10
29.661032
20
106.218366
10
29.306033
20
106.334941
10
29.079569
20
106.448568
10
29.000000
20
106.554710
10
29.095285
20
106.777365
10
29.366482
20
107.222615
10
29.791600
20
107.859034
10
30.348652
20
108.655193
10
31.015649
20
109.579665
10
31.770601
20
110.601023
10
32.591520
20
111.687840
10
33.835999
20
113.341302
10
34.709406
20
114.588950
10
35.237169
20
115.515255
10
35.444720
20
116.204689
10
35.357487
20
116.741725
10
35.000901
20
117.210835
10
34.400391
20
117.696490
10
33.944938
20
117.994435
10
33.433629
20
118.268438
10
32.888454
20
118.510518
10
32.331402
20
118.712696
10
31.784461
20
118.866989
10
31.269621
20
118.965417
10
30.808870
20
119.000000
10
29.878529
20
119.074724
10
29.318073
20
119.327027
10
29.139958
20
119.799100
10
29.356638
20
120.533138
10
29.980568
20
121.571333
10
31.024204
20
122.955879
10
32.500000
20
124.728970
10
33.958929
20
126.506413
10
35.005300
20
127.957245
10
35.644863
20
129.102189
10
35.883365
20
129.961968
10
35.726557
20
130.557305
10
35.180185
20
130.908923
10
34.250000
20
131.037547
10
33.821860
20
131.105363
10
33.624899
20
131.292003
10
33.665159
20
131.607121
10
33.948677
20
132.060375
10
34.481495
20
132.661420
10
35.269653
20
133.419912
10
36.319189
20
134.345507
0
LWPOLYLINE
8
0
90
15
70
0
10
38.385808
20
141.378007
10
40.105717
20
141.960142
10
41.270742
20
142.549482
10
41.880371
20
143.140431
10
41.934091
20
143.727394
10
41.431392
20
144.304776
10
40.371760
20
144.866984
10
38.754684
20
145.408422
10
37.587557
20
145.744662
10
36.863831
20
146.009477
10
36.629329
20
146.237138
10
36.929873
20
146.461914
10
37.811285
20
146.718076
10
39.319387
20
147.039895
10
41.500000
20
147.461640
0
LWPOLYLINE
8
0
90
29
70
0
10
43.707302
20
150.927186
10
42.849772
20
151.467016
10
42.079207
20
151.981523
10
41.416665
20
152.454336
10
40.883203
20
152.869082
10
40.499880
20
153.209391
10
40.287752
20
153.458891
10
40.267877
20
153.601210
10
40.528920
20
153.707491
10
41.116326
20
153.854422
10
41.986326
20
154.033945
10
43.095150
20
154.238008
10
44.399030
20
154.458554
10
45.854195
20
154.687529
10
47.416877
20
154.916877
10
48.985450
20
155.152117
10
50.457384
20
155.397861
10
51.787550
20
155.644693
10
52.930819
20
155.883199
10
53.842061
20
156.103965
10
54.476147
20
156.297576
10
54.787949
20
156.454616
10
54.829841
20
156.678583
10
54.695722
20
157.062678
10
54.402749
20
157.582040
10
53.968080
20
158.211811
10
53.408874
20
158.927131
10
52.742288
20
159.703140
10
51.985480
20
160.514980
0
LWPOLYLINE
8
0
90
43
70
0
10
65.148995
20
171.472046
10
64.646931
20
172.343596
10
64.200066
20
173.159651
10
63.820276
20
173.895324
10
63.519435
20
174.525731
10
63.309420
20
175.025989
10
63.202105
20
175.371211
10
63.209365
20
175.536515
10
63.380903
20
175.565307
10
63.741146
20
175.521996
10
64.264059
20
175.413200
10
64.923608
20
175.245538
10
65.693757
20
175.025628
10
66.548473
20
174.760088
10
67.461719
20
174.455536
10
69.221934
20
173.885000
10
70.513506
20
173.569375
10
71.371925
20
173.528114
10
71.832682
20
173.780670
10
71.931266
20
174.346496
10
71.703169
20
175.245046
10
71.183879
20
176.495774
10
70.748280
20
177.600132
10
70.613478
20
178.372943
10
70.799222
20
178.818850
10
71.325257
20
178.942494
10
72.211332
20
178.748517
10
73.477194
20
178.241560
10
75.142590
20
177.426264
10
76.538529
20
176.749077
10
77.567949
20
176.369318
10
78.253214
20
176.303216
10
78.616687
20
176.567003
10
78.680733
20
177.176909
10
78.467716
20
178.149165
10
78.000000
20
179.500000
10
77.526583
20
180.926645
10
77.342446
20
181.948356
10
77.444274
20
182.563353
10
77.828754
20
182.769857
10
78.492572
20
182.566088
10
79.432414
20
181.950265
10
80.644967
20
180.920610
0
LWPOLYLINE
8
0
90
8
70
0
10
82.641024
20
181.250000
10
82.477911
20
181.946697
10
82.295939
20
182.718654
10
82.102862
20
183.533314
10
81.906432
20
184.358118
10
81.714405
20
185.160508
10
81.534534
20
185.907926
10
81.374572
20
186.567814
0
LWPOLYLINE
8
0
90
29
70
0
10
86.457476
20
185.484052
10
88.759666
20
184.059596
10
90.519994
20
183.086967
10
91.762807
20
182.563683
10
92.512452
20
182.487262
10
92.793274
20
182.855221
10
92.629621
20
183.665079
10
92.045837
20
184.914354
10
91.588936
20
185.912279
10
91.488040
20
186.561499
10
91.766700
20
186.860159
10
92.448467
20
186.806400
10
93.556892
20
186.398366
10
95.115528
20
185.634200
10
97.147926
20
184.512045
10
98.170939
20
183.943050
10
99.166176
20
183.419162
10
100.100472
20
182.955688
10
100.940660
20
182.567933
10
101.653576
20
182.271203
10
102.206055
20
182.080805
10
102.564930
20
182.012045
10
102.863029
20
182.135320
10
103.242527
20
182.491465
10
103.684286
20
183.051472
10
104.169164
20
183.786336
10
104.678021
20
184.667050
10
105.191716
20
185.664607
10
105.691110
20
186.750000
0
LWPOLYLINE
8
0
90
43
70
0
10
108.974010
20
188.250000
10
109.274338
20
187.507143
10
109.591176
20
186.823980
10
109.912176
20
186.220408
10
110.224990
20
185.716327
10
110.517270
20
185.331633
10
110.776670
20
185.086224
10
110.990840
20
185.000000
10
111.423344
20
185.149765
10
111.834990
20
185.571758
10
112.210100
20
186.225026
10
112.533000
20
187.068616
10
112.788014
20
188.061575
10
112.959466
20
189.162949
10
113.031680
20
190.331787
10
113.055174
20
191.077758
10
113.120146
20
191.561206
10
113.256642
20
191.773681
10
113.494712
20
191.706733
10
113.864403
20
191.351912
10
114.395763
20
190.700767
10
115.118840
20
189.744850
10
116.077722
20
188.604560
10
116.921464
20
187.896044
10
117.638264
20
187.616319
10
118.216320
20
187.762404
10
118.643830
20
188.331314
10
118.908990
20
189.320069
10
119.000000
20
190.725684
10
119.070874
20
191.880047
10
119.270391
20
192.499307
10
119.578892
20
192.602871
10
119.976717
20
192.210146
10
120.444208
20
191.340538
10
120.961705
20
190.013456
10
121.509550
20
188.248304
10
122.088608
20
186.471742
10
122.679338
20
185.260406
10
123.300951
20
184.611768
10
123.972659
20
184.523295
10
124.713672
20
184.992458
10
125.543202
20
186.016726
10
126.480460
20
187.593570
0
LWPOLYLINE
8
0
90
36
70
0
10
136.966440
20
187.250000
10
137.066692
20
185.151063
10
137.334003
20
183.565387
10
137.763330
20
182.497659
10
138.349631
20
181.952568
10
139.087866
20
181.934802
10
139.972993
20
182.449050
10
140.999970
20
183.500000
10
141.742518
20
184.277436
10
142.403055
20
184.760412
10
142.940426
20
184.957710
10
143.313477
20
184.878110
10
143.481051
20
184.530394
10
143.401994
20
183.923344
10
143.035150
20
183.065741
10
142.428891
20
181.813418
10
142.089728
20
180.834950
10
142.012579
20
180.141561
10
142.192362
20
179.744476
10
142.623994
20
179.654921
10
143.302394
20
179.884119
10
144.222480
20
180.443296
10
145.472516
20
181.257855
10
146.443158
20
181.743085
10
147.149963
20
181.892435
10
147.608489
20
181.699352
10
147.834294
20
181.157286
10
147.842935
20
180.259686
10
147.649970
20
179.000000
10
147.452538
20
177.718863
10
147.474841
20
176.817012
10
147.754001
20
176.282930
10
148.327136
20
176.105098
10
149.231369
20
176.272000
10
150.503820
20
176.772117
10
152.181610
20
177.593931
0
LWPOLYLINE
8
0
90
183
70
0
10
154.612900
20
176.593931
10
154.412575
20
175.522515
10
154.430656
20
174.743947
10
154.677640
20
174.253776
10
155.164022
20
174.047551
10
155.900297
20
174.120823
10
156.896961
20
174.469142
10
158.164510
20
175.088058
10
158.864433
20
175.444715
10
159.365765
20
175.635734
10
159.687234
20
175.635891
10
159.847569
20
175.419967
10
159.865499
20
174.962739
10
159.759753
20
174.238984
10
159.549060
20
173.223483
10
159.329548
20
172.137714
10
159.273440
20
171.342847
10
159.459486
20
170.776901
10
159.966440
20
170.377890
10
160.873052
20
170.083831
10
162.258075
20
169.832740
10
164.200260
20
169.562634
10
165.965330
20
169.313192
10
167.239700
20
169.089828
10
168.064487
20
168.868515
10
168.480806
20
168.625224
10
168.529776
20
168.335928
10
168.252511
20
167.976599
10
167.690130
20
167.523209
10
166.963998
20
166.928405
10
166.586294
20
166.434698
10
166.587755
20
166.014015
10
166.999118
20
165.638278
10
167.851122
20
165.279414
10
169.174503
20
164.909346
10
171.000000
20
164.500000
10
172.782114
20
164.101875
10
174.090863
20
163.740279
10
174.965446
20
163.383971
10
175.445059
20
163.001712
10
175.568901
20
162.562258
10
175.376169
20
162.034370
10
174.906060
20
161.386806
10
174.375758
20
160.651096
10
174.158296
20
160.055378
10
174.286640
20
159.574154
10
174.793757
20
159.181928
10
175.712613
20
158.853200
10
177.076175
20
158.562474
10
178.917410
20
158.284252
10
179.850575
20
158.140676
10
180.708753
20
157.973165
10
181.466948
20
157.789320
10
182.100166
20
157.596745
10
182.583410
20
157.403039
10
182.891687
20
157.215805
10
183.000000
20
157.042645
10
182.933673
20
156.821702
10
182.744898
20
156.498472
10
182.448980
20
156.091582
10
182.061224
20
155.619661
10
181.596939
20
155.101338
10
181.071429
20
154.555242
10
180.500000
20
154.000000
10
179.928571
20
153.444346
10
179.403061
20
152.897077
10
178.938776
20
152.376917
10
178.551020
20
151.902588
10
178.255102
20
151.492815
10
178.066327
20
151.166321
10
178.000000
20
150.941829
10
178.146371
20
150.720241
10
178.562964
20
150.402009
10
179.216001
20
150.005189
10
180.071706
20
149.547833
10
181.096299
20
149.047994
10
182.256003
20
148.523727
10
183.517040
20
147.993085
10
185.876942
20
146.996263
10
187.630769
20
146.148162
10
188.825802
20
145.400718
10
189.509325
20
144.705865
10
189.728619
20
144.015537
10
189.530967
20
143.281669
10
188.963650
20
142.456195
10
188.710558
20
142.122761
10
188.522396
20
141.814983
10
188.401222
20
141.541915
10
188.349094
20
141.312608
10
188.368069
20
141.136112
10
188.460205
20
141.021480
10
188.627560
20
140.977764
10
188.893301
20
140.920405
10
189.265466
20
140.766946
10
189.723409
20
140.529584
10
190.246482
20
140.220522
10
190.814036
20
139.851958
10
191.405425
20
139.436091
10
192.000000
20
138.985123
10
192.737106
20
138.376549
10
193.271340
20
137.864605
10
193.609826
20
137.431619
10
193.759691
20
137.059919
10
193.728060
20
136.731831
10
193.522058
20
136.429683
10
193.148810
20
136.135802
10
192.813965
20
135.825629
10
192.699137
20
135.454282
10
192.817858
20
135.001223
10
193.183655
20
134.445912
10
193.810060
20
133.767810
10
194.710602
20
132.946379
10
195.898810
20
131.961078
10
196.836223
20
131.189919
10
197.698310
20
130.446375
10
198.459959
20
129.754739
10
199.096063
20
129.139306
10
199.581510
20
128.624367
10
199.891193
20
128.234218
10
200.000000
20
127.993150
10
199.933673
20
127.809302
10
199.744898
20
127.582008
10
199.448980
20
127.322356
10
199.061224
20
127.041436
10
198.596939
20
126.750336
10
198.071429
20
126.460146
10
197.500000
20
126.181954
10
196.310233
20
125.583715
10
195.547259
20
125.028373
10
195.221527
20
124.461783
10
195.343486
20
123.829798
10
195.923585
20
123.078270
10
196.972274
20
122.153053
10
198.500000
20
121.000000
10
200.000956
20
119.881873
10
201.038594
20
119.011949
10
201.630115
20
118.332339
10
201.792722
20
117.785154
10
201.543619
20
117.312503
10
200.900007
20
116.856499
10
199.879090
20
116.359250
10
199.273006
20
116.025811
10
198.769274
20
115.604522
10
198.360612
20
115.080847
10
198.039738
20
114.440250
10
197.799371
20
113.668192
10
197.632229
20
112.750138
10
197.531030
20
111.671550
10
197.501610
20
110.802484
10
197.517900
20
109.976464
10
197.576098
20
109.219605
10
197.672403
20
108.558023
10
197.803012
20
108.017833
10
197.964125
20
107.625151
10
198.151940
20
107.406090
10
198.636781
20
107.003287
10
198.911235
20
106.554746
10
198.985939
20
106.099725
10
198.871530
20
105.677482
10
198.578646
20
105.327275
10
198.117924
20
105.088362
10
197.500000
20
105.000000
10
196.730160
20
104.944777
10
196.267014
20
104.752621
10
196.123370
20
104.383800
10
196.312038
20
103.798581
10
196.845827
20
102.957233
10
197.737544
20
101.820023
10
199.000000
20
100.347220
10
199.685714
20
99.540626
10
200.316327
20
98.749515
10
200.873469
20
98.000716
10
201.338776
20
97.321057
10
201.693878
20
96.737366
10
201.920408
20
96.276471
10
202.000000
20
95.965200
10
201.862722
20
95.744583
10
201.472009
20
95.541694
10
200.859540
20
95.362442
10
200.056994
20
95.212738
10
199.096050
20
95.098490
10
198.008389
20
95.025607
10
196.825690
20
95.000000
0
LWPOLYLINE
8
0
90
169
70
0
10
194.049480
20
92.447330
10
194.789764
20
91.630366
10
195.315547
20
90.970204
10
195.634927
20
90.437844
10
195.756004
20
90.004287
10
195.686876
20
89.640531
10
195.435642
20
89.317579
10
195.010400
20
89.006430
10
194.559771
20
88.679929
10
194.267859
20
88.324232
10
194.137452
20
87.894119
10
194.171337
20
87.344374
10
194.372300
20
86.629779
10
194.743128
20
85.705117
10
195.286610
20
84.525170
10
196.194811
20
82.534510
10
196.737438
20
81.062014
10
196.888589
20
80.047748
10
196.622360
20
79.431782
10
195.912848
20
79.154184
10
194.734149
20
79.155020
10
193.060360
20
79.374360
10
192.147104
20
79.497701
10
191.282646
20
79.571345
10
190.494053
20
79.596202
10
189.808388
20
79.573179
10
189.252719
20
79.503186
10
188.854111
20
79.387130
10
188.639630
20
79.225920
10
188.566252
20
78.890612
10
188.569251
20
78.279046
10
188.643132
20
77.432308
10
188.782397
20
76.391483
10
188.981548
20
75.197655
10
189.235088
20
73.891909
10
189.537520
20
72.515330
10
189.842830
20
71.149521
10
190.104562
20
69.874420
10
190.316554
20
68.728628
10
190.472645
20
67.750745
10
190.566672
20
66.979372
10
190.592474
20
66.453110
10
190.543890
20
66.210560
10
190.403391
20
66.155008
10
190.167581
20
66.160970
10
189.851512
20
66.223895
10
189.470234
20
66.339229
10
189.038797
20
66.502419
10
188.572252
20
66.708914
10
188.085650
20
66.954160
10
187.354855
20
67.320143
10
186.817636
20
67.494123
10
186.444417
20
67.434705
10
186.205620
20
67.100496
10
186.071669
20
66.450101
10
186.012988
20
65.442127
10
186.000000
20
64.035180
10
185.932424
20
62.547397
10
185.740735
20
61.377510
10
185.441486
20
60.545620
10
185.051233
20
60.071824
10
184.586531
20
59.976223
10
184.063935
20
60.278915
10
183.500000
20
61.000000
10
182.958485
20
61.614779
10
182.323293
20
61.941014
10
181.658933
20
61.998378
10
181.029914
20
61.806547
10
180.500746
20
61.385192
10
180.135938
20
60.753989
10
180.000000
20
59.932610
10
179.970860
20
59.327324
10
179.876582
20
58.867455
10
179.706881
20
58.545261
10
179.451471
20
58.352999
10
179.100069
20
58.282925
10
178.642386
20
58.327296
10
178.068140
20
58.478370
10
177.428043
20
58.631368
10
176.921862
20
58.606739
10
176.522283
20
58.360958
10
176.201995
20
57.850496
10
175.933682
20
57.031828
10
175.690031
20
55.861425
10
175.443730
20
54.295760
10
175.012015
20
51.612950
10
174.580469
20
49.643018
10
174.123074
20
48.353131
10
173.613812
20
47.710452
10
173.026662
20
47.682149
10
172.335608
20
48.235387
10
171.514630
20
49.337330
10
170.701004
20
50.419227
10
169.958216
20
51.096372
10
169.306071
20
51.373125
10
168.764372
20
51.253847
10
168.352924
20
50.742898
10
168.091532
20
49.844639
10
168.000000
20
48.563430
10
167.857265
20
47.232960
10
167.437268
20
46.135041
10
166.752321
20
45.277667
10
165.814735
20
44.668833
10
164.636822
20
44.316534
10
163.230893
20
44.228764
10
161.609260
20
44.413520
10
160.671368
20
44.556682
10
159.820312
20
44.617711
10
159.054951
20
44.596435
10
158.374145
20
44.492681
10
157.776755
20
44.306274
10
157.261640
20
44.037041
10
156.827660
20
43.684810
10
156.454873
20
43.339857
10
155.996663
20
42.960875
10
155.475234
20
42.563642
10
154.912787
20
42.163937
10
154.331524
20
41.777536
10
153.753648
20
41.420218
10
153.201360
20
41.107760
10
152.700961
20
40.806421
10
152.270777
20
40.480751
10
151.921034
20
40.143959
10
151.661959
20
39.809260
10
151.503779
20
39.489864
10
151.456720
20
39.198983
10
151.531010
20
38.949830
10
151.750160
20
38.469592
10
151.705005
20
38.179233
10
151.409413
20
38.076593
10
150.877250
20
38.159509
10
150.122382
20
38.425823
10
149.158677
20
38.873374
10
148.000000
20
39.500000
10
146.441231
20
40.226638
10
144.798757
20
40.686228
10
143.106782
20
40.880179
10
141.399506
20
40.809897
10
139.711134
20
40.476791
10
138.075868
20
39.882270
10
136.527910
20
39.027740
10
135.425871
20
38.312232
10
134.594513
20
37.835984
10
133.946123
20
37.599681
10
133.392989
20
37.604010
10
132.847399
20
37.849655
10
132.221640
20
38.337303
10
131.428000
20
39.067640
10
130.726813
20
39.699343
10
130.155444
20
40.138655
10
129.681762
20
40.391198
10
129.273633
20
40.462592
10
128.898924
20
40.358459
10
128.525504
20
40.084417
10
128.121240
20
39.646090
10
127.288719
20
39.106379
10
125.999929
20
38.860017
10
124.347232
20
38.892723
10
122.422992
20
39.190217
10
120.319568
20
39.738221
10
118.129323
20
40.522455
10
115.944620
20
41.528640
10
114.575737
20
42.233850
10
113.575971
20
42.672570
10
112.825195
20
42.801504
10
112.203280
20
42.577356
10
111.590099
20
41.956830
10
110.865525
20
40.896630
10
109.909430
20
39.353460
0
LWPOLYLINE
8
0
90
43
70
1
10
95.901216
20
90.448920
10
97.531069
20
91.485886
10
99.285263
20
92.936483
10
101.069619
20
94.693604
10
102.789959
20
96.650139
10
104.352105
20
98.698981
10
105.661878
20
100.733021
10
106.625100
20
102.645150
10
107.372342
20
105.149380
10
107.833725
20
108.230494
10
108.015524
20
111.647599
10
107.924017
20
115.159801
10
107.565479
20
118.526206
10
106.946188
20
121.505920
10
106.072420
20
123.858050
10
104.153399
20
126.954442
10
101.752189
20
129.752360
10
98.968411
20
132.186654
10
95.901683
20
134.192178
10
92.651625
20
135.703785
10
89.317858
20
136.656326
10
86.000000
20
136.984654
10
84.262514
20
136.743324
10
82.079762
20
136.087081
10
79.646747
20
135.110215
10
77.158468
20
133.907018
10
74.809928
20
132.571780
10
72.796127
20
131.198792
10
71.312068
20
129.882345
10
67.694267
20
124.476191
10
65.690686
20
118.251699
10
65.229834
20
111.667696
10
66.240221
20
105.183010
10
68.650357
20
99.256467
10
72.388751
20
94.346894
10
77.383912
20
90.913120
10
79.773311
20
90.066927
10
82.546113
20
89.473220
10
85.523461
20
89.136483
10
88.526500
20
89.061201
10
91.376376
20
89.251857
10
93.894233
20
89.712935
10
95.901216
20
90.448920
0
LWPOLYLINE
8
0
90
29
70
1
10
93.000000
20
110.000000
10
91.660926
20
111.908415
10
91.129679
20
113.985044
10
91.330613
20
116.061560
10
92.188086
20
117.969640
10
93.626453
20
119.540956
10
95.570071
20
120.607185
10
97.943296
20
121.000000
10
99.322011
20
120.820598
10
100.592948
20
120.310531
10
101.718079
20
119.512006
10
102.659378
20
118.467232
10
103.378816
20
117.218416
10
103.838366
20
115.807766
10
104.000000
20
114.277490
10
103.803722
20
112.980714
10
103.257306
20
111.714858
10
102.424374
20
110.541367
10
101.368554
20
109.521689
10
100.153468
20
108.717271
10
98.842742
20
108.189559
10
97.500000
20
108.000000
10
96.875510
20
108.053061
10
96.198980
20
108.204082
10
95.497959
20
108.440816
10
94.800000
20
108.751020
10
94.132653
20
109.122449
10
93.523469
20
109.542857
10
93.000000
20
110.000000
0
LWPOLYLINE
8
0
90
29
70
1
10
141.615090
20
92.603650
10
146.361092
20
96.683476
10
149.989227
20
101.850828
10
152.437040
20
107.776377
10
153.642080
20
114.130794
10
153.541891
20
120.584749
10
152.074023
20
126.808914
10
149.176020
20
132.473960
10
144.333255
20
137.827632
10
138.774167
20
141.239803
10
132.866786
20
142.735256
10
126.979142
20
142.338774
10
121.479267
20
140.075141
10
116.735189
20
135.969141
10
113.114940
20
130.045557
10
110.686335
20
121.812964
10
110.315011
20
113.753640
10
111.807602
20
106.266006
10
114.970745
20
99.748483
10
119.611073
20
94.599492
10
125.535223
20
91.217454
10
132.549830
20
90.000790
10
134.075225
20
90.043424
10
135.464226
20
90.178677
10
136.752598
20
90.416819
10
137.976105
20
90.768119
10
139.170512
20
91.242844
10
140.371586
20
91.851265
10
141.615090
20
92.603650
0
LWPOLYLINE
8
0
90
22
70
1
10
120.985780
20
109.810430
10
119.525875
20
111.551351
10
118.866105
20
113.585840
10
118.933062
20
115.709275
10
119.653337
20
117.717032
10
120.953524
20
119.404488
10
122.760214
20
120.567018
10
125.000000
20
121.000000
10
127.221738
20
120.534179
10
129.010575
20
119.291572
10
130.289831
20
117.504463
10
130.982829
20
115.405138
10
131.012891
20
113.225879
10
130.303337
20
111.198972
10
128.777490
20
109.556700
10
127.574522
20
108.813218
10
126.441181
20
108.328354
10
125.353664
20
108.102883
10
124.288168
20
108.137581
10
123.220891
20
108.433221
10
122.128029
20
108.990579
10
120.985780
20
109.810430
0
ENDSEC
0
EOF