  0
SECTION
  2
HEADER
  9
$ACADVER
  1
AC1014
  9
$HANDSEED
  5
FFFF
  9
$INSUNITS
 70
     0
  9
$MEASUREMENT
 70
     1
  0
ENDSEC
  0
SECTION
  2
TABLES
  0
TABLE
  2
VPORT
  5
8
330
0
100
AcDbSymbolTable
 70
     4
  0
VPORT
  5
2E
330
8
100
AcDbSymbolTableRecord
100
AcDbViewportTableRecord
  2
*ACTIVE
 70
     0
 10
0.0
 20
0.0
 11
1.0
 21
1.0
 12
210.0
 22
148.5
 13
0.0
 23
0.0
 14
10.0
 24
10.0
 15
10.0
 25
10.0
 16
0.0
 26
0.0
 36
1.0
 17
0.0
 27
0.0
 37
0.0
 40
341.0
 41
1.24
 42
50.0
 43
0.0
 44
0.0
 50
0.0
 51
0.0
 71
     0
 72
   100
 73
     1
 74
     3
 75
     0
 76
     0
 77
     0
 78
     0
  0
ENDTAB
  0
TABLE
  2
LTYPE
  5
5
330
0
100
AcDbSymbolTable
 70
     1
  0
LTYPE
  5
14
330
5
100
AcDbSymbolTableRecord
100
AcDbLinetypeTableRecord
  2
BYBLOCK
 70
     0
  3

 72
    65
 73
     0
 40
0.0
  0
LTYPE
  5
15
330
5
100
AcDbSymbolTableRecord
100
AcDbLinetypeTableRecord
  2
BYLAYER
 70
     0
  3

 72
    65
 73
     0
 40
0.0
  0
LTYPE
  5
16
330
5
100
AcDbSymbolTableRecord
100
AcDbLinetypeTableRecord
  2
CONTINUOUS
 70
     0
  3
Solid line
 72
    65
 73
     0
 40
0.0
  0
ENDTAB
  0
TABLE
  2
LAYER
  5
2
100
AcDbSymbolTable
 70
2
  0
LAYER
  5
50
100
AcDbSymbolTableRecord
100
AcDbLayerTableRecord
  2
0
 70
0
  6
CONTINUOUS
  0
LAYER
  5
51
100
AcDbSymbolTableRecord
100
AcDbLayerTableRecord
  2
Image
 70
0
  6
CONTINUOUS
  0
ENDTAB
  0
TABLE
  2
STYLE
  5
3
330
0
100
AcDbSymbolTable
 70
     1
  0
STYLE
  5
11
330
3
100
AcDbSymbolTableRecord
100
AcDbTextStyleTableRecord
  2
STANDARD
 70
     0
 40
0.0
 41
1.0
 50
0.0
 71
     0
 42
2.5
  3
txt
  4

  0
ENDTAB
  0
TABLE
  2
VIEW
  5
6
330
0
100
AcDbSymbolTable
 70
     0
  0
ENDTAB
  0
TABLE
  2
UCS
  5
7
330
0
100
AcDbSymbolTable
 70
     0
  0
ENDTAB
  0
TABLE
  2
APPID
  5
9
330
0
100
AcDbSymbolTable
 70
     2
  0
APPID
  5
12
330
9
100
AcDbSymbolTableRecord
100
AcDbRegAppTableRecord
  2
ACAD
 70
     0
  0
ENDTAB
  0
TABLE
  2
DIMSTYLE
  5
A
330
0
100
AcDbSymbolTable
 70
     1
  0
DIMSTYLE
105
27
330
A
100
AcDbSymbolTableRecord
100
AcDbDimStyleTableRecord
  2
ISO-25
 70
     0
  3

  4

  5

  6

  7

 40
1.0
 41
2.5
 42
0.625
 43
3.75
 44
1.25
 45
0.0
 46
0.0
 47
0.0
 48
0.0
140
2.5
141
2.5
142
0.0
143
0.03937007874016
144
1.0
145
0.0
146
1.0
147
0.625
 71
     0
 72
     0
 73
     0
 74
     0
 75
     0
 76
     0
 77
     1
 78
     8
170
     0
171
     3
172
     1
173
     0
174
     0
175
     0
176
     0
177
     0
178
     0
270
     2
271
     2
272
     2
273
     2
274
     3
340
11
275
     0
280
     0
281
     0
282
     0
283
     0
284
     8
285
     0
286
     0
287
     3
288
     0
  0
ENDTAB
  0
TABLE
  2
BLOCK_RECORD
  5
1
330
0
100
AcDbSymbolTable
 70
     1
  0
BLOCK_RECORD
  5
1F
330
1
100
AcDbSymbolTableRecord
100
AcDbBlockTableRecord
  2
*MODEL_SPACE
  0
BLOCK_RECORD
  5
1B
330
1
100
AcDbSymbolTableRecord
100
AcDbBlockTableRecord
  2
*PAPER_SPACE
  0
ENDTAB
  0
ENDSEC
  0
SECTION
  2
BLOCKS
  0
BLOCK
  5
20
330
1F
100
AcDbEntity
  8
0
100
AcDbBlockBegin
  2
*MODEL_SPACE
 70
     0
 10
0.0
 20
0.0
 30
0.0
  3
*MODEL_SPACE
  1

  0
ENDBLK
  5
21
330
1F
100
AcDbEntity
  8
0
100
AcDbBlockEnd
  0
BLOCK
  5
1C
330
1B
100
AcDbEntity
 67
     1
  8
0
100
AcDbBlockBegin
  2
*PAPER_SPACE
  1

  0
ENDBLK
  5
1D
330
1B
100
AcDbEntity
 67
     1
  8
0
100
AcDbBlockEnd
  0
ENDSEC
  0
SECTION
  2
ENTITIES
  0
SPLINE
  5
100
100
AcDbEntity
  8
Image
 62
7
100
AcDbSpline
 70
8
 71
3
 72
8
 73
4
 74
0
 40
0
 40
0
 40
0
 40
0
 40
1
 40
1
 40
1
 40
1
 10
76.545236
 20
40.484240
 30
0.0
 10
76.168371
 20
43.500570
 30
0.0
 10
75.471650
 20
46.208500
 30
0.0
 10
74.996968
 20
46.501870
 30
0.0
  0
SPLINE
  5
101
100
AcDbEntity
  8
Image
 62
7
100
AcDbSpline
 70
8
 71
3
 72
8
 73
4
 74
0
 40
0
 40
0
 40
0
 40
0
 40
1
 40
1
 40
1
 40
1
 10
74.996968
 20
46.501870
 30
0.0
 10
74.522285
 20
46.795240
 30
0.0
 10
73.331756
 20
45.677340
 30
0.0
 10
72.351347
 20
44.017640
 30
0.0
  0
SPLINE
  5
102
100
AcDbEntity
  8
Image
 62
7
100
AcDbSpline
 70
8
 71
3
 72
8
 73
4
 74
0
 40
0
 40
0
 40
0
 40
0
 40
1
 40
1
 40
1
 40
1
 10
72.351347
 20
44.017640
 30
0.0
 10
70.163322
 20
40.313610
 30
0.0
 10
69.408139
 20
40.237710
 30
0.0
 10
68.555195
 20
43.636110
 30
0.0
  0
SPLINE
  5
103
100
AcDbEntity
  8
Image
 62
7
100
AcDbSpline
 70
8
 71
3
 72
8
 73
4
 74
0
 40
0
 40
0
 40
0
 40
0
 40
1
 40
1
 40
1
 40
1
 10
62.000000
 20
43.753890
 30
0.0
 10
62.000000
 20
47.428510
 30
0.0
 10
60.729212
 20
48.583570
 30
0.0
 10
58.990862
 20
46.488990
 30
0.0
  0
SPLINE
  5
104
100
AcDbEntity
  8
Image
 62
7
100
AcDbSpline
 70
8
 71
3
 72
8
 73
4
 74
0
 40
0
 40
0
 40
0
 40
0
 40
1
 40
1
 40
1
 40
1
 10
58.990862
 20
46.488990
 30
0.0
 10
56.930267
 20
44.006120
 30
0.0
 10
56.190396
 20
44.762980
 30
0.0
 10
55.314237
 20
50.250000
 30
0.0
  0
SPLINE
  5
105
100
AcDbEntity
  8
Image
 62
7
100
AcDbSpline
 70
8
 71
3
 72
8
 73
4
 74
0
 40
0
 40
0
 40
0
 40
0
 40
1
 40
1
 40
1
 40
1
 10
55.314237
 20
50.250000
 30
0.0
 10
54.628961
 20
54.541610
 30
0.0
 10
54.113022
 20
55.500000
 30
0.0
 10
52.487963
 20
55.500000
 30
0.0
  0
SPLINE
  5
106
100
AcDbEntity
  8
Image
 62
7
100
AcDbSpline
 70
8
 71
3
 72
8
 73
4
 74
0
 40
0
 40
0
 40
0
 40
0
 40
1
 40
1
 40
1
 40
1
 10
52.487963
 20
55.500000
 30
0.0
 10
50.912604
 20
55.500000
 30
0.0
 10
50.435583
 20
56.278320
 30
0.0
 10
50.189635
 20
59.250000
 30
0.0
  0
SPLINE
  5
107
100
AcDbEntity
  8
Image
 62
7
100
AcDbSpline
 70
8
 71
3
 72
8
 73
4
 74
0
 40
0
 40
0
 40
0
 40
0
 40
1
 40
1
 40
1
 40
1
 10
50.189635
 20
59.250000
 30
0.0
 10
49.845497
 20
63.408060
 30
0.0
 10
48.636452
 20
64.057740
 30
0.0
 10
46.985010
 20
60.971990
 30
0.0
  0
SPLINE
  5
108
100
AcDbEntity
  8
Image
 62
7
100
AcDbSpline
 70
8
 71
3
 72
8
 73
4
 74
0
 40
0
 40
0
 40
0
 40
0
 40
1
 40
1
 40
1
 40
1
 10
46.985010
 20
60.971990
 30
0.0
 10
45.618022
 20
58.417750
 30
0.0
 10
44.342615
 20
59.163600
 30
0.0
 10
43.497481
 20
63.011470
 30
0.0
  0
SPLINE
  5
109
100
AcDbEntity
  8
Image
 62
7
100
AcDbSpline
 70
8
 71
3
 72
8
 73
4
 74
0
 40
0
 40
0
 40
0
 40
0
 40
1
 40
1
 40
1
 40
1
 10
43.497481
 20
63.011470
 30
0.0
 10
42.979755
 20
65.368660
 30
0.0
 10
42.306837
 20
66.000000
 30
0.0
 10
40.312137
 20
66.000000
 30
0.0
  0
SPLINE
  5
10a
100
AcDbEntity
  8
Image
 62
7
100
AcDbSpline
 70
8
 71
3
 72
8
 73
4
 74
0
 40
0
 40
0
 40
0
 40
0
 40
1
 40
1
 40
1
 40
1
 10
40.312137
 20
66.000000
 30
0.0
 10
38.083864
 20
66.000000
 30
0.0
 10
37.861267
 20
66.311110
 30
0.0
 10
38.439925
 20
68.616660
 30
0.0
  0
SPLINE
  5
10b
100
AcDbEntity
  8
Image
 62
7
100
AcDbSpline
 70
8
 71
3
 72
8
 73
4
 74
0
 40
0
 40
0
 40
0
 40
0
 40
1
 40
1
 40
1
 40
1
 10
38.439925
 20
68.616660
 30
0.0
 10
39.785706
 20
73.978680
 30
0.0
 10
40.233402
 20
77.000000
 30
0.0
 10
39.682160
 20
77.000000
 30
0.0
  0
SPLINE
  5
10c
100
AcDbEntity
  8
Image
 62
7
100
AcDbSpline
 70
8
 71
3
 72
8
 73
4
 74
0
 40
0
 40
0
 40
0
 40
0
 40
1
 40
1
 40
1
 40
1
 10
39.682160
 20
77.000000
 30
0.0
 10
39.369848
 20
77.000000
 30
0.0
 10
37.513598
 20
76.055550
 30
0.0
 10
35.557160
 20
74.901220
 30
0.0
  0
SPLINE
  5
10d
100
AcDbEntity
  8
Image
 62
7
100
AcDbSpline
 70
8
 71
3
 72
8
 73
4
 74
0
 40
0
 40
0
 40
0
 40
0
 40
1
 40
1
 40
1
 40
1
 10
35.557160
 20
74.901220
 30
0.0
 10
31.520507
 20
72.519540
 30
0.0
 10
31.382707
 20
72.832070
 30
0.0
 10
33.600110
 20
79.339790
 30
0.0
  0
SPLINE
  5
10e
100
AcDbEntity
  8
Image
 62
7
100
AcDbSpline
 70
8
 71
3
 72
8
 73
4
 74
0
 40
0
 40
0
 40
0
 40
0
 40
1
 40
1
 40
1
 40
1
 10
33.600110
 20
79.339790
 30
0.0
 10
35.577790
 20
85.143960
 30
0.0
 10
34.961843
 20
87.585130
 30
0.0
 10
31.929190
 20
85.962100
 30
0.0
  0
SPLINE
  5
10f
100
AcDbEntity
  8
Image
 62
7
100
AcDbSpline
 70
8
 71
3
 72
8
 73
4
 74
0
 40
0
 40
0
 40
0
 40
0
 40
1
 40
1
 40
1
 40
1
 10
31.929190
 20
85.962100
 30
0.0
 10
28.683477
 20
84.225050
 30
0.0
 10
28.456647
 20
85.598850
 30
0.0
 10
31.360551
 20
89.406060
 30
0.0
  0
SPLINE
  5
110
100
AcDbEntity
  8
Image
 62
7
100
AcDbSpline
 70
8
 71
3
 72
8
 73
4
 74
0
 40
0
 40
0
 40
0
 40
0
 40
1
 40
1
 40
1
 40
1
 10
31.360551
 20
89.406060
 30
0.0
 10
34.652948
 20
93.722610
 30
0.0
 10
34.684791
 20
95.000000
 30
0.0
 10
31.500000
 20
95.000000
 30
0.0
  0
SPLINE
  5
111
100
AcDbEntity
  8
Image
 62
7
100
AcDbSpline
 70
8
 71
3
 72
8
 73
4
 74
0
 40
0
 40
0
 40
0
 40
0
 40
1
 40
1
 40
1
 40
1
 10
31.500000
 20
95.000000
 30
0.0
 10
28.318254
 20
95.000000
 30
0.0
 10
28.362681
 20
95.529510
 30
0.0
 10
32.003409
 20
101.000000
 30
0.0
  0
LWPOLYLINE
  5
112
100
AcDbEntity
  8
Image
 62
7
100
AcDbPolyline
 90
5
 70
0
 10
68.555195
 20
43.636110
 30
0.0
 10
67.893573
 20
46.272220
 30
0.0
 10
64.946787
 20
43.449020
 30
0.0
 10
62.000000
 20
40.625820
 30
0.0
 10
62.000000
 20
43.753890
 30
0.0
  0
SPLINE
  5
113
100
AcDbEntity
  8
Image
 62
7
100
AcDbSpline
 70
8
 71
3
 72
8
 73
4
 74
0
 40
0
 40
0
 40
0
 40
0
 40
1
 40
1
 40
1
 40
1
 10
31.999127
 20
105.813360
 30
0.0
 10
30.349607
 20
105.985710
 30
0.0
 10
29.000000
 20
106.319310
 30
0.0
 10
29.000000
 20
106.554710
 30
0.0
  0
SPLINE
  5
114
100
AcDbEntity
  8
Image
 62
7
100
AcDbSpline
 70
8
 71
3
 72
8
 73
4
 74
0
 40
0
 40
0
 40
0
 40
0
 40
1
 40
1
 40
1
 40
1
 10
29.000000
 20
106.554710
 30
0.0
 10
29.000000
 20
106.790100
 30
0.0
 10
30.616184
 20
109.100010
 30
0.0
 10
32.591520
 20
111.687840
 30
0.0
  0
SPLINE
  5
115
100
AcDbEntity
  8
Image
 62
7
100
AcDbSpline
 70
8
 71
3
 72
8
 73
4
 74
0
 40
0
 40
0
 40
0
 40
0
 40
1
 40
1
 40
1
 40
1
 10
32.591520
 20
111.687840
 30
0.0
 10
35.948002
 20
116.085070
 30
0.0
 10
36.066379
 20
116.478290
 30
0.0
 10
34.400391
 20
117.696490
 30
0.0
  0
SPLINE
  5
116
100
AcDbEntity
  8
Image
 62
7
100
AcDbSpline
 70
8
 71
3
 72
8
 73
4
 74
0
 40
0
 40
0
 40
0
 40
0
 40
1
 40
1
 40
1
 40
1
 10
34.400391
 20
117.696490
 30
0.0
 10
33.419933
 20
118.413420
 30
0.0
 10
31.803749
 20
119.000000
 30
0.0
 10
30.808870
 20
119.000000
 30
0.0
  0
SPLINE
  5
117
100
AcDbEntity
  8
Image
 62
7
100
AcDbSpline
 70
8
 71
3
 72
8
 73
4
 74
0
 40
0
 40
0
 40
0
 40
0
 40
1
 40
1
 40
1
 40
1
 10
30.808870
 20
119.000000
 30
0.0
 10
28.216229
 20
119.000000
 30
0.0
 10
28.542601
 20
120.105640
 30
0.0
 10
32.500000
 20
124.728970
 30
0.0
  0
SPLINE
  5
118
100
AcDbEntity
  8
Image
 62
7
100
AcDbSpline
 70
8
 71
3
 72
8
 73
4
 74
0
 40
0
 40
0
 40
0
 40
0
 40
1
 40
1
 40
1
 40
1
 10
32.500000
 20
124.728970
 30
0.0
 10
36.389955
 20
129.273503
 30
0.0
 10
36.863744
 20
130.981468
 30
0.0
 10
34.250000
 20
131.037547
 30
0.0
  0
SPLINE
  5
119
100
AcDbEntity
  8
Image
 62
7
100
AcDbSpline
 70
8
 71
3
 72
8
 73
4
 74
0
 40
0
 40
0
 40
0
 40
0
 40
1
 40
1
 40
1
 40
1
 10
34.250000
 20
131.037547
 30
0.0
 10
32.985994
 20
131.064667
 30
0.0
 10
33.560631
 20
131.983323
 30
0.0
 10
36.319189
 20
134.345507
 30
0.0
  0
LWPOLYLINE
  5
11a
100
AcDbEntity
  8
Image
 62
7
100
AcDbPolyline
 90
3
 70
0
 10
32.003409
 20
101.000000
 30
0.0
 10
34.998255
 20
105.500000
 30
0.0
 10
31.999127
 20
105.813360
 30
0.0
  0
SPLINE
  5
11b
100
AcDbEntity
  8
Image
 62
7
100
AcDbSpline
 70
8
 71
3
 72
8
 73
4
 74
0
 40
0
 40
0
 40
0
 40
0
 40
1
 40
1
 40
1
 40
1
 10
38.385808
 20
141.378007
 30
0.0
 10
43.045895
 20
142.723567
 30
0.0
 10
43.178612
 20
144.173650
 30
0.0
 10
38.754684
 20
145.408422
 30
0.0
  0
SPLINE
  5
11c
100
AcDbEntity
  8
Image
 62
7
100
AcDbSpline
 70
8
 71
3
 72
8
 73
4
 74
0
 40
0
 40
0
 40
0
 40
0
 40
1
 40
1
 40
1
 40
1
 10
38.754684
 20
145.408422
 30
0.0
 10
35.549724
 20
146.302965
 30
0.0
 10
35.591666
 20
146.334333
 30
0.0
 10
41.500000
 20
147.461640
 30
0.0
  0
LWPOLYLINE
  5
11d
100
AcDbEntity
  8
Image
 62
7
100
AcDbPolyline
 90
5
 70
0
 10
36.319189
 20
134.345507
 30
0.0
 10
40.138378
 20
137.615921
 30
0.0
 10
37.319189
 20
138.935968
 30
0.0
 10
34.500000
 20
140.256015
 30
0.0
 10
38.385808
 20
141.378007
 30
0.0
  0
SPLINE
  5
11e
100
AcDbEntity
  8
Image
 62
7
100
AcDbSpline
 70
8
 71
3
 72
8
 73
4
 74
0
 40
0
 40
0
 40
0
 40
0
 40
1
 40
1
 40
1
 40
1
 10
43.707302
 20
150.927186
 30
0.0
 10
41.621318
 20
152.203599
 30
0.0
 10
40.073577
 20
153.406910
 30
0.0
 10
40.267877
 20
153.601210
 30
0.0
  0
SPLINE
  5
11f
100
AcDbEntity
  8
Image
 62
7
100
AcDbSpline
 70
8
 71
3
 72
8
 73
4
 74
0
 40
0
 40
0
 40
0
 40
0
 40
1
 40
1
 40
1
 40
1
 10
40.267877
 20
153.601210
 30
0.0
 10
40.462177
 20
153.795511
 30
0.0
 10
43.679227
 20
154.387561
 30
0.0
 10
47.416877
 20
154.916877
 30
0.0
  0
SPLINE
  5
120
100
AcDbEntity
  8
Image
 62
7
100
AcDbSpline
 70
8
 71
3
 72
8
 73
4
 74
0
 40
0
 40
0
 40
0
 40
0
 40
1
 40
1
 40
1
 40
1
 10
47.416877
 20
154.916877
 30
0.0
 10
51.154527
 20
155.446194
 30
0.0
 10
54.471510
 20
156.138176
 30
0.0
 10
54.787949
 20
156.454616
 30
0.0
  0
SPLINE
  5
121
100
AcDbEntity
  8
Image
 62
7
100
AcDbSpline
 70
8
 71
3
 72
8
 73
4
 74
0
 40
0
 40
0
 40
0
 40
0
 40
1
 40
1
 40
1
 40
1
 10
54.787949
 20
156.454616
 30
0.0
 10
55.104389
 20
156.771056
 30
0.0
 10
53.843278
 20
158.598220
 30
0.0
 10
51.985480
 20
160.514980
 30
0.0
  0
LWPOLYLINE
  5
122
100
AcDbEntity
  8
Image
 62
7
100
AcDbPolyline
 90
3
 70
0
 10
41.500000
 20
147.461640
 30
0.0
 10
47.500000
 20
148.606436
 30
0.0
 10
43.707302
 20
150.927186
 30
0.0
  0
SPLINE
  5
123
100
AcDbEntity
  8
Image
 62
7
100
AcDbSpline
 70
8
 71
3
 72
8
 73
4
 74
0
 40
0
 40
0
 40
0
 40
0
 40
1
 40
1
 40
1
 40
1
 10
65.148995
 20
171.472046
 30
0.0
 10
63.922349
 20
173.551055
 30
0.0
 10
63.049516
 20
175.380067
 30
0.0
 10
63.209365
 20
175.536515
 30
0.0
  0
SPLINE
  5
124
100
AcDbEntity
  8
Image
 62
7
100
AcDbSpline
 70
8
 71
3
 72
8
 73
4
 74
0
 40
0
 40
0
 40
0
 40
0
 40
1
 40
1
 40
1
 40
1
 10
63.209365
 20
175.536515
 30
0.0
 10
63.369214
 20
175.692964
 30
0.0
 10
65.282774
 20
175.206523
 30
0.0
 10
67.461719
 20
174.455536
 30
0.0
  0
SPLINE
  5
125
100
AcDbEntity
  8
Image
 62
7
100
AcDbSpline
 70
8
 71
3
 72
8
 73
4
 74
0
 40
0
 40
0
 40
0
 40
0
 40
1
 40
1
 40
1
 40
1
 10
67.461719
 20
174.455536
 30
0.0
 10
72.143240
 20
172.842021
 30
0.0
 10
72.707675
 20
173.151406
 30
0.0
 10
71.183879
 20
176.495774
 30
0.0
  0
SPLINE
  5
126
100
AcDbEntity
  8
Image
 62
7
100
AcDbSpline
 70
8
 71
3
 72
8
 73
4
 74
0
 40
0
 40
0
 40
0
 40
0
 40
1
 40
1
 40
1
 40
1
 10
71.183879
 20
176.495774
 30
0.0
 10
69.831910
 20
179.463023
 30
0.0
 10
70.775183
 20
179.684738
 30
0.0
 10
75.142590
 20
177.426264
 30
0.0
  0
SPLINE
  5
127
100
AcDbEntity
  8
Image
 62
7
100
AcDbSpline
 70
8
 71
3
 72
8
 73
4
 74
0
 40
0
 40
0
 40
0
 40
0
 40
1
 40
1
 40
1
 40
1
 10
75.142590
 20
177.426264
 30
0.0
 10
78.844782
 20
175.511786
 30
0.0
 10
79.371093
 20
175.893751
 30
0.0
 10
78.000000
 20
179.500000
 30
0.0
  0
SPLINE
  5
128
100
AcDbEntity
  8
Image
 62
7
100
AcDbSpline
 70
8
 71
3
 72
8
 73
4
 74
0
 40
0
 40
0
 40
0
 40
0
 40
1
 40
1
 40
1
 40
1
 10
78.000000
 20
179.500000
 30
0.0
 10
76.555290
 20
183.299876
 30
0.0
 10
77.500093
 20
183.807329
 30
0.0
 10
80.644967
 20
180.920610
 30
0.0
  0
LWPOLYLINE
  5
129
100
AcDbEntity
  8
Image
 62
7
100
AcDbPolyline
 90
9
 70
0
 10
51.985480
 20
160.514980
 30
0.0
 10
48.607666
 20
164.000000
 30
0.0
 10
54.326886
 20
164.000000
 30
0.0
 10
60.046106
 20
164.000000
 30
0.0
 10
58.372379
 20
166.554430
 30
0.0
 10
56.698652
 20
169.108861
 30
0.0
 10
62.038956
 20
168.400444
 30
0.0
 10
67.379260
 20
167.692028
 30
0.0
 10
65.148995
 20
171.472046
 30
0.0
  0
SPLINE
  5
12a
100
AcDbEntity
  8
Image
 62
7
100
AcDbSpline
 70
8
 71
3
 72
8
 73
4
 74
0
 40
0
 40
0
 40
0
 40
0
 40
1
 40
1
 40
1
 40
1
 10
82.641024
 20
181.250000
 30
0.0
 10
82.288461
 20
182.762500
 30
0.0
 10
81.718557
 20
185.155516
 30
0.0
 10
81.374572
 20
186.567814
 30
0.0
  0
LWPOLYLINE
  5
12b
100
AcDbEntity
  8
Image
 62
7
100
AcDbPolyline
 90
3
 70
0
 10
80.644967
 20
180.920610
 30
0.0
 10
83.282048
 20
178.500000
 30
0.0
 10
82.641024
 20
181.250000
 30
0.0
  0
SPLINE
  5
12c
100
AcDbEntity
  8
Image
 62
7
100
AcDbSpline
 70
8
 71
3
 72
8
 73
4
 74
0
 40
0
 40
0
 40
0
 40
0
 40
1
 40
1
 40
1
 40
1
 10
86.457476
 20
185.484052
 30
0.0
 10
92.480359
 20
181.631261
 30
0.0
 10
93.879214
 20
181.488656
 30
0.0
 10
92.045837
 20
184.914354
 30
0.0
  0
SPLINE
  5
12d
100
AcDbEntity
  8
Image
 62
7
100
AcDbSpline
 70
8
 71
3
 72
8
 73
4
 74
0
 40
0
 40
0
 40
0
 40
0
 40
1
 40
1
 40
1
 40
1
 10
92.045837
 20
184.914354
 30
0.0
 10
90.582715
 20
187.648222
 30
0.0
 10
91.834625
 20
187.549506
 30
0.0
 10
97.147926
 20
184.512045
 30
0.0
  0
SPLINE
  5
12e
100
AcDbEntity
  8
Image
 62
7
100
AcDbSpline
 70
8
 71
3
 72
8
 73
4
 74
0
 40
0
 40
0
 40
0
 40
0
 40
1
 40
1
 40
1
 40
1
 10
97.147926
 20
184.512045
 30
0.0
 10
99.541567
 20
183.143670
 30
0.0
 10
101.979220
 20
182.018670
 30
0.0
 10
102.564930
 20
182.012045
 30
0.0
  0
SPLINE
  5
12f
100
AcDbEntity
  8
Image
 62
7
100
AcDbSpline
 70
8
 71
3
 72
8
 73
4
 74
0
 40
0
 40
0
 40
0
 40
0
 40
1
 40
1
 40
1
 40
1
 10
102.564930
 20
182.012045
 30
0.0
 10
103.150640
 20
182.005445
 30
0.0
 10
104.557430
 20
184.137500
 30
0.0
 10
105.691110
 20
186.750000
 30
0.0
  0
LWPOLYLINE
  5
130
100
AcDbEntity
  8
Image
 62
7
100
AcDbPolyline
 90
3
 70
0
 10
81.374572
 20
186.567814
 30
0.0
 10
80.749143
 20
189.135629
 30
0.0
 10
86.457476
 20
185.484052
 30
0.0
  0
SPLINE
  5
131
100
AcDbEntity
  8
Image
 62
7
100
AcDbSpline
 70
8
 71
3
 72
8
 73
4
 74
0
 40
0
 40
0
 40
0
 40
0
 40
1
 40
1
 40
1
 40
1
 10
108.974010
 20
188.250000
 30
0.0
 10
109.645910
 20
186.462500
 30
0.0
 10
110.553480
 20
185.000000
 30
0.0
 10
110.990840
 20
185.000000
 30
0.0
  0
SPLINE
  5
132
100
AcDbEntity
  8
Image
 62
7
100
AcDbSpline
 70
8
 71
3
 72
8
 73
4
 74
0
 40
0
 40
0
 40
0
 40
0
 40
1
 40
1
 40
1
 40
1
 10
110.990840
 20
185.000000
 30
0.0
 10
112.012160
 20
185.000000
 30
0.0
 10
112.991150
 20
187.557645
 30
0.0
 10
113.031680
 20
190.331787
 30
0.0
  0
SPLINE
  5
133
100
AcDbEntity
  8
Image
 62
7
100
AcDbSpline
 70
8
 71
3
 72
8
 73
4
 74
0
 40
0
 40
0
 40
0
 40
0
 40
1
 40
1
 40
1
 40
1
 10
113.031680
 20
190.331787
 30
0.0
 10
113.061480
 20
192.372090
 30
0.0
 10
113.184620
 20
192.337465
 30
0.0
 10
115.118840
 20
189.744850
 30
0.0
  0
SPLINE
  5
134
100
AcDbEntity
  8
Image
 62
7
100
AcDbSpline
 70
8
 71
3
 72
8
 73
4
 74
0
 40
0
 40
0
 40
0
 40
0
 40
1
 40
1
 40
1
 40
1
 10
115.118840
 20
189.744850
 30
0.0
 10
117.481380
 20
186.578116
 30
0.0
 10
119.000000
 20
186.961897
 30
0.0
 10
119.000000
 20
190.725684
 30
0.0
  0
SPLINE
  5
135
100
AcDbEntity
  8
Image
 62
7
100
AcDbSpline
 70
8
 71
3
 72
8
 73
4
 74
0
 40
0
 40
0
 40
0
 40
0
 40
1
 40
1
 40
1
 40
1
 10
119.000000
 20
190.725684
 30
0.0
 10
119.000000
 20
194.058578
 30
0.0
 10
120.211130
 20
192.862977
 30
0.0
 10
121.509550
 20
188.248304
 30
0.0
  0
SPLINE
  5
136
100
AcDbEntity
  8
Image
 62
7
100
AcDbSpline
 70
8
 71
3
 72
8
 73
4
 74
0
 40
0
 40
0
 40
0
 40
0
 40
1
 40
1
 40
1
 40
1
 10
121.509550
 20
188.248304
 30
0.0
 10
122.862010
 20
183.441593
 30
0.0
 10
124.152900
 20
183.271565
 30
0.0
 10
126.480460
 20
187.593570
 30
0.0
  0
LWPOLYLINE
  5
137
100
AcDbEntity
  8
Image
 62
7
100
AcDbPolyline
 90
3
 70
0
 10
105.691110
 20
186.750000
 30
0.0
 10
107.752360
 20
191.500000
 30
0.0
 10
108.974010
 20
188.250000
 30
0.0
  0
SPLINE
  5
138
100
AcDbEntity
  8
Image
 62
7
100
AcDbSpline
 70
8
 71
3
 72
8
 73
4
 74
0
 40
0
 40
0
 40
0
 40
0
 40
1
 40
1
 40
1
 40
1
 10
136.966440
 20
187.250000
 30
0.0
 10
137.001540
 20
181.757324
 30
0.0
 10
138.442120
 20
180.417984
 30
0.0
 10
140.999970
 20
183.500000
 30
0.0
  0
SPLINE
  5
139
100
AcDbEntity
  8
Image
 62
7
100
AcDbSpline
 70
8
 71
3
 72
8
 73
4
 74
0
 40
0
 40
0
 40
0
 40
0
 40
1
 40
1
 40
1
 40
1
 10
140.999970
 20
183.500000
 30
0.0
 10
142.796250
 20
185.664385
 30
0.0
 10
144.258880
 20
185.352296
 30
0.0
 10
143.035150
 20
183.065741
 30
0.0
  0
SPLINE
  5
13a
100
AcDbEntity
  8
Image
 62
7
100
AcDbSpline
 70
8
 71
3
 72
8
 73
4
 74
0
 40
0
 40
0
 40
0
 40
0
 40
1
 40
1
 40
1
 40
1
 10
143.035150
 20
183.065741
 30
0.0
 10
141.304980
 20
179.832887
 30
0.0
 10
141.797600
 20
178.744845
 30
0.0
 10
144.222480
 20
180.443296
 30
0.0
  0
SPLINE
  5
13b
100
AcDbEntity
  8
Image
 62
7
100
AcDbSpline
 70
8
 71
3
 72
8
 73
4
 74
0
 40
0
 40
0
 40
0
 40
0
 40
1
 40
1
 40
1
 40
1
 10
144.222480
 20
180.443296
 30
0.0
 10
147.477290
 20
182.723057
 30
0.0
 10
148.323330
 20
182.366796
 30
0.0
 10
147.649970
 20
179.000000
 30
0.0
  0
SPLINE
  5
13c
100
AcDbEntity
  8
Image
 62
7
100
AcDbSpline
 70
8
 71
3
 72
8
 73
4
 74
0
 40
0
 40
0
 40
0
 40
0
 40
1
 40
1
 40
1
 40
1
 10
147.649970
 20
179.000000
 30
0.0
 10
146.961810
 20
175.559220
 30
0.0
 10
147.765000
 20
175.310010
 30
0.0
 10
152.181610
 20
177.593931
 30
0.0
  0
LWPOLYLINE
  5
13d
100
AcDbEntity
  8
Image
 62
7
100
AcDbPolyline
 90
7
 70
0
 10
126.480460
 20
187.593570
 30
0.0
 10
128.422600
 20
191.199911
 30
0.0
 10
129.510090
 20
187.970043
 30
0.0
 10
130.597570
 20
184.740176
 30
0.0
 10
133.765260
 20
188.620088
 30
0.0
 10
136.932940
 20
192.500000
 30
0.0
 10
136.966440
 20
187.250000
 30
0.0
  0
SPLINE
  5
13e
100
AcDbEntity
  8
Image
 62
7
100
AcDbSpline
 70
8
 71
3
 72
8
 73
4
 74
0
 40
0
 40
0
 40
0
 40
0
 40
1
 40
1
 40
1
 40
1
 10
154.612900
 20
176.593931
 30
0.0
 10
153.898830
 20
173.748845
 30
0.0
 10
154.882700
 20
173.331687
 30
0.0
 10
158.164510
 20
175.088058
 30
0.0
  0
SPLINE
  5
13f
100
AcDbEntity
  8
Image
 62
7
100
AcDbSpline
 70
8
 71
3
 72
8
 73
4
 74
0
 40
0
 40
0
 40
0
 40
0
 40
1
 40
1
 40
1
 40
1
 10
158.164510
 20
175.088058
 30
0.0
 10
160.043920
 20
176.093887
 30
0.0
 10
160.148550
 20
175.952975
 30
0.0
 10
159.549060
 20
173.223483
 30
0.0
  0
SPLINE
  5
140
100
AcDbEntity
  8
Image
 62
7
100
AcDbSpline
 70
8
 71
3
 72
8
 73
4
 74
0
 40
0
 40
0
 40
0
 40
0
 40
1
 40
1
 40
1
 40
1
 10
159.549060
 20
173.223483
 30
0.0
 10
158.907480
 20
170.302424
 30
0.0
 10
158.957220
 20
170.263277
 30
0.0
 10
164.200260
 20
169.562634
 30
0.0
  0
SPLINE
  5
141
100
AcDbEntity
  8
Image
 62
7
100
AcDbSpline
 70
8
 71
3
 72
8
 73
4
 74
0
 40
0
 40
0
 40
0
 40
0
 40
1
 40
1
 40
1
 40
1
 10
164.200260
 20
169.562634
 30
0.0
 10
168.923220
 20
168.931490
 30
0.0
 10
169.303010
 20
168.709545
 30
0.0
 10
167.690130
 20
167.523209
 30
0.0
  0
SPLINE
  5
142
100
AcDbEntity
  8
Image
 62
7
100
AcDbSpline
 70
8
 71
3
 72
8
 73
4
 74
0
 40
0
 40
0
 40
0
 40
0
 40
1
 40
1
 40
1
 40
1
 10
167.690130
 20
167.523209
 30
0.0
 10
165.613230
 20
165.995548
 30
0.0
 10
166.130800
 20
165.522803
 30
0.0
 10
171.000000
 20
164.500000
 30
0.0
  0
SPLINE
  5
143
100
AcDbEntity
  8
Image
 62
7
100
AcDbSpline
 70
8
 71
3
 72
8
 73
4
 74
0
 40
0
 40
0
 40
0
 40
0
 40
1
 40
1
 40
1
 40
1
 10
171.000000
 20
164.500000
 30
0.0
 10
175.741010
 20
163.504124
 30
0.0
 10
176.296100
 20
163.061709
 30
0.0
 10
174.906060
 20
161.386806
 30
0.0
  0
SPLINE
  5
144
100
AcDbEntity
  8
Image
 62
7
100
AcDbSpline
 70
8
 71
3
 72
8
 73
4
 74
0
 40
0
 40
0
 40
0
 40
0
 40
1
 40
1
 40
1
 40
1
 10
174.906060
 20
161.386806
 30
0.0
 10
173.329350
 20
159.486992
 30
0.0
 10
174.038270
 20
158.938682
 30
0.0
 10
178.917410
 20
158.284252
 30
0.0
  0
SPLINE
  5
145
100
AcDbEntity
  8
Image
 62
7
100
AcDbSpline
 70
8
 71
3
 72
8
 73
4
 74
0
 40
0
 40
0
 40
0
 40
0
 40
1
 40
1
 40
1
 40
1
 10
178.917410
 20
158.284252
 30
0.0
 10
181.162840
 20
157.983077
 30
0.0
 10
183.000000
 20
157.424354
 30
0.0
 10
183.000000
 20
157.042645
 30
0.0
  0
SPLINE
  5
146
100
AcDbEntity
  8
Image
 62
7
100
AcDbSpline
 70
8
 71
3
 72
8
 73
4
 74
0
 40
0
 40
0
 40
0
 40
0
 40
1
 40
1
 40
1
 40
1
 10
183.000000
 20
157.042645
 30
0.0
 10
183.000000
 20
156.660936
 30
0.0
 10
181.875000
 20
155.291745
 30
0.0
 10
180.500000
 20
154.000000
 30
0.0
  0
SPLINE
  5
147
100
AcDbEntity
  8
Image
 62
7
100
AcDbSpline
 70
8
 71
3
 72
8
 73
4
 74
0
 40
0
 40
0
 40
0
 40
0
 40
1
 40
1
 40
1
 40
1
 10
180.500000
 20
154.000000
 30
0.0
 10
179.125000
 20
152.708255
 30
0.0
 10
178.000000
 20
151.332078
 30
0.0
 10
178.000000
 20
150.941829
 30
0.0
  0
SPLINE
  5
148
100
AcDbEntity
  8
Image
 62
7
100
AcDbSpline
 70
8
 71
3
 72
8
 73
4
 74
0
 40
0
 40
0
 40
0
 40
0
 40
1
 40
1
 40
1
 40
1
 10
178.000000
 20
150.941829
 30
0.0
 10
178.000000
 20
150.551581
 30
0.0
 10
180.482670
 20
149.224646
 30
0.0
 10
183.517040
 20
147.993085
 30
0.0
  0
SPLINE
  5
149
100
AcDbEntity
  8
Image
 62
7
100
AcDbSpline
 70
8
 71
3
 72
8
 73
4
 74
0
 40
0
 40
0
 40
0
 40
0
 40
1
 40
1
 40
1
 40
1
 10
183.517040
 20
147.993085
 30
0.0
 10
189.767340
 20
145.456273
 30
0.0
 10
190.681890
 20
144.526559
 30
0.0
 10
188.963650
 20
142.456195
 30
0.0
  0
SPLINE
  5
14a
100
AcDbEntity
  8
Image
 62
7
100
AcDbSpline
 70
8
 71
3
 72
8
 73
4
 74
0
 40
0
 40
0
 40
0
 40
0
 40
1
 40
1
 40
1
 40
1
 10
188.963650
 20
142.456195
 30
0.0
 10
188.298950
 20
141.655288
 30
0.0
 10
188.147710
 20
140.989994
 30
0.0
 10
188.627560
 20
140.977764
 30
0.0
  0
SPLINE
  5
14b
100
AcDbEntity
  8
Image
 62
7
100
AcDbSpline
 70
8
 71
3
 72
8
 73
4
 74
0
 40
0
 40
0
 40
0
 40
0
 40
1
 40
1
 40
1
 40
1
 10
188.627560
 20
140.977764
 30
0.0
 10
189.107400
 20
140.965534
 30
0.0
 10
190.625000
 20
140.068846
 30
0.0
 10
192.000000
 20
138.985123
 30
0.0
  0
SPLINE
  5
14c
100
AcDbEntity
  8
Image
 62
7
100
AcDbSpline
 70
8
 71
3
 72
8
 73
4
 74
0
 40
0
 40
0
 40
0
 40
0
 40
1
 40
1
 40
1
 40
1
 10
192.000000
 20
138.985123
 30
0.0
 10
193.962140
 20
137.438635
 30
0.0
 10
194.209300
 20
136.825625
 30
0.0
 10
193.148810
 20
136.135802
 30
0.0
  0
SPLINE
  5
14d
100
AcDbEntity
  8
Image
 62
7
100
AcDbSpline
 70
8
 71
3
 72
8
 73
4
 74
0
 40
0
 40
0
 40
0
 40
0
 40
1
 40
1
 40
1
 40
1
 10
193.148810
 20
136.135802
 30
0.0
 10
192.121340
 20
135.467459
 30
0.0
 10
192.780190
 20
134.467268
 30
0.0
 10
195.898810
 20
131.961078
 30
0.0
  0
SPLINE
  5
14e
100
AcDbEntity
  8
Image
 62
7
100
AcDbSpline
 70
8
 71
3
 72
8
 73
4
 74
0
 40
0
 40
0
 40
0
 40
0
 40
1
 40
1
 40
1
 40
1
 10
195.898810
 20
131.961078
 30
0.0
 10
198.154460
 20
130.148384
 30
0.0
 10
200.000000
 20
128.362817
 30
0.0
 10
200.000000
 20
127.993150
 30
0.0
  0
SPLINE
  5
14f
100
AcDbEntity
  8
Image
 62
7
100
AcDbSpline
 70
8
 71
3
 72
8
 73
4
 74
0
 40
0
 40
0
 40
0
 40
0
 40
1
 40
1
 40
1
 40
1
 10
200.000000
 20
127.993150
 30
0.0
 10
200.000000
 20
127.623484
 30
0.0
 10
198.875000
 20
126.808446
 30
0.0
 10
197.500000
 20
126.181954
 30
0.0
  0
SPLINE
  5
150
100
AcDbEntity
  8
Image
 62
7
100
AcDbSpline
 70
8
 71
3
 72
8
 73
4
 74
0
 40
0
 40
0
 40
0
 40
0
 40
1
 40
1
 40
1
 40
1
 10
197.500000
 20
126.181954
 30
0.0
 10
194.234080
 20
124.693900
 30
0.0
 10
194.368300
 20
123.998380
 30
0.0
 10
198.500000
 20
121.000000
 30
0.0
  0
SPLINE
  5
151
100
AcDbEntity
  8
Image
 62
7
100
AcDbSpline
 70
8
 71
3
 72
8
 73
4
 74
0
 40
0
 40
0
 40
0
 40
0
 40
1
 40
1
 40
1
 40
1
 10
198.500000
 20
121.000000
 30
0.0
 10
202.556150
 20
118.056440
 30
0.0
 10
202.688040
 20
117.612640
 30
0.0
 10
199.879090
 20
116.359250
 30
0.0
  0
SPLINE
  5
152
100
AcDbEntity
  8
Image
 62
7
100
AcDbSpline
 70
8
 71
3
 72
8
 73
4
 74
0
 40
0
 40
0
 40
0
 40
0
 40
1
 40
1
 40
1
 40
1
 10
199.879090
 20
116.359250
 30
0.0
 10
198.339820
 20
115.672410
 30
0.0
 10
197.695890
 20
114.386850
 30
0.0
 10
197.531030
 20
111.671550
 30
0.0
  0
SPLINE
  5
153
100
AcDbEntity
  8
Image
 62
7
100
AcDbSpline
 70
8
 71
3
 72
8
 73
4
 74
0
 40
0
 40
0
 40
0
 40
0
 40
1
 40
1
 40
1
 40
1
 10
197.531030
 20
111.671550
 30
0.0
 10
197.406100
 20
109.613820
 30
0.0
 10
197.685510
 20
107.694360
 30
0.0
 10
198.151940
 20
107.406090
 30
0.0
  0
SPLINE
  5
154
100
AcDbEntity
  8
Image
 62
7
100
AcDbSpline
 70
8
 71
3
 72
8
 73
4
 74
0
 40
0
 40
0
 40
0
 40
0
 40
1
 40
1
 40
1
 40
1
 10
198.151940
 20
107.406090
 30
0.0
 10
199.536960
 20
106.550110
 30
0.0
 10
199.116950
 20
105.000000
 30
0.0
 10
197.500000
 20
105.000000
 30
0.0
  0
SPLINE
  5
155
100
AcDbEntity
  8
Image
 62
7
100
AcDbSpline
 70
8
 71
3
 72
8
 73
4
 74
0
 40
0
 40
0
 40
0
 40
0
 40
1
 40
1
 40
1
 40
1
 10
197.500000
 20
105.000000
 30
0.0
 10
195.355860
 20
105.000000
 30
0.0
 10
195.611780
 20
104.206190
 30
0.0
 10
199.000000
 20
100.347220
 30
0.0
  0
SPLINE
  5
156
100
AcDbEntity
  8
Image
 62
7
100
AcDbSpline
 70
8
 71
3
 72
8
 73
4
 74
0
 40
0
 40
0
 40
0
 40
0
 40
1
 40
1
 40
1
 40
1
 10
199.000000
 20
100.347220
 30
0.0
 10
200.650000
 20
98.467970
 30
0.0
 10
202.000000
 20
96.496070
 30
0.0
 10
202.000000
 20
95.965200
 30
0.0
  0
SPLINE
  5
157
100
AcDbEntity
  8
Image
 62
7
100
AcDbSpline
 70
8
 71
3
 72
8
 73
4
 74
0
 40
0
 40
0
 40
0
 40
0
 40
1
 40
1
 40
1
 40
1
 10
202.000000
 20
95.965200
 30
0.0
 10
202.000000
 20
95.434340
 30
0.0
 10
199.671560
 20
95.000000
 30
0.0
 10
196.825690
 20
95.000000
 30
0.0
  0
LWPOLYLINE
  5
158
100
AcDbEntity
  8
Image
 62
7
100
AcDbPolyline
 90
3
 70
0
 10
152.181610
 20
177.593931
 30
0.0
 10
155.263940
 20
179.187863
 30
0.0
 10
154.612900
 20
176.593931
 30
0.0
  0
SPLINE
  5
159
100
AcDbEntity
  8
Image
 62
7
100
AcDbSpline
 70
8
 71
3
 72
8
 73
4
 74
0
 40
0
 40
0
 40
0
 40
0
 40
1
 40
1
 40
1
 40
1
 10
194.049480
 20
92.447330
 30
0.0
 10
196.033360
 20
90.335590
 30
0.0
 10
196.199340
 20
89.741230
 30
0.0
 10
195.010400
 20
89.006430
 30
0.0
  0
SPLINE
  5
15a
100
AcDbEntity
  8
Image
 62
7
100
AcDbSpline
 70
8
 71
3
 72
8
 73
4
 74
0
 40
0
 40
0
 40
0
 40
0
 40
1
 40
1
 40
1
 40
1
 10
195.010400
 20
89.006430
 30
0.0
 10
193.775930
 20
88.243490
 30
0.0
 10
193.814890
 20
87.611380
 30
0.0
 10
195.286610
 20
84.525170
 30
0.0
  0
SPLINE
  5
15b
100
AcDbEntity
  8
Image
 62
7
100
AcDbSpline
 70
8
 71
3
 72
8
 73
4
 74
0
 40
0
 40
0
 40
0
 40
0
 40
1
 40
1
 40
1
 40
1
 10
195.286610
 20
84.525170
 30
0.0
 10
197.812100
 20
79.229160
 30
0.0
 10
197.563620
 20
78.654260
 30
0.0
 10
193.060360
 20
79.374360
 30
0.0
  0
SPLINE
  5
15c
100
AcDbEntity
  8
Image
 62
7
100
AcDbSpline
 70
8
 71
3
 72
8
 73
4
 74
0
 40
0
 40
0
 40
0
 40
0
 40
1
 40
1
 40
1
 40
1
 10
193.060360
 20
79.374360
 30
0.0
 10
190.893550
 20
79.720840
 30
0.0
 10
188.904220
 20
79.654050
 30
0.0
 10
188.639630
 20
79.225920
 30
0.0
  0
SPLINE
  5
15d
100
AcDbEntity
  8
Image
 62
7
100
AcDbSpline
 70
8
 71
3
 72
8
 73
4
 74
0
 40
0
 40
0
 40
0
 40
0
 40
1
 40
1
 40
1
 40
1
 10
188.639630
 20
79.225920
 30
0.0
 10
188.375030
 20
78.797790
 30
0.0
 10
188.779080
 20
75.778030
 30
0.0
 10
189.537520
 20
72.515330
 30
0.0
  0
SPLINE
  5
15e
100
AcDbEntity
  8
Image
 62
7
100
AcDbSpline
 70
8
 71
3
 72
8
 73
4
 74
0
 40
0
 40
0
 40
0
 40
0
 40
1
 40
1
 40
1
 40
1
 10
189.537520
 20
72.515330
 30
0.0
 10
190.295960
 20
69.252640
 30
0.0
 10
190.748830
 20
66.415490
 30
0.0
 10
190.543890
 20
66.210560
 30
0.0
  0
SPLINE
  5
15f
100
AcDbEntity
  8
Image
 62
7
100
AcDbSpline
 70
8
 71
3
 72
8
 73
4
 74
0
 40
0
 40
0
 40
0
 40
0
 40
1
 40
1
 40
1
 40
1
 10
190.543890
 20
66.210560
 30
0.0
 10
190.338960
 20
66.005630
 30
0.0
 10
189.232750
 20
66.340250
 30
0.0
 10
188.085650
 20
66.954160
 30
0.0
  0
SPLINE
  5
160
100
AcDbEntity
  8
Image
 62
7
100
AcDbSpline
 70
8
 71
3
 72
8
 73
4
 74
0
 40
0
 40
0
 40
0
 40
0
 40
1
 40
1
 40
1
 40
1
 10
188.085650
 20
66.954160
 30
0.0
 10
186.131620
 20
67.999930
 30
0.0
 10
186.000000
 20
67.815720
 30
0.0
 10
186.000000
 20
64.035180
 30
0.0
  0
SPLINE
  5
161
100
AcDbEntity
  8
Image
 62
7
100
AcDbSpline
 70
8
 71
3
 72
8
 73
4
 74
0
 40
0
 40
0
 40
0
 40
0
 40
1
 40
1
 40
1
 40
1
 10
186.000000
 20
64.035180
 30
0.0
 10
186.000000
 20
60.208440
 30
0.0
 10
184.851200
 20
58.813710
 30
0.0
 10
183.500000
 20
61.000000
 30
0.0
  0
SPLINE
  5
162
100
AcDbEntity
  8
Image
 62
7
100
AcDbSpline
 70
8
 71
3
 72
8
 73
4
 74
0
 40
0
 40
0
 40
0
 40
0
 40
1
 40
1
 40
1
 40
1
 10
183.500000
 20
61.000000
 30
0.0
 10
182.395930
 20
62.786420
 30
0.0
 10
180.000000
 20
62.055730
 30
0.0
 10
180.000000
 20
59.932610
 30
0.0
  0
SPLINE
  5
163
100
AcDbEntity
  8
Image
 62
7
100
AcDbSpline
 70
8
 71
3
 72
8
 73
4
 74
0
 40
0
 40
0
 40
0
 40
0
 40
1
 40
1
 40
1
 40
1
 10
180.000000
 20
59.932610
 30
0.0
 10
180.000000
 20
58.344600
 30
0.0
 10
179.552040
 20
58.007400
 30
0.0
 10
178.068140
 20
58.478370
 30
0.0
  0
SPLINE
  5
164
100
AcDbEntity
  8
Image
 62
7
100
AcDbSpline
 70
8
 71
3
 72
8
 73
4
 74
0
 40
0
 40
0
 40
0
 40
0
 40
1
 40
1
 40
1
 40
1
 10
178.068140
 20
58.478370
 30
0.0
 10
176.397100
 20
59.008740
 30
0.0
 10
176.042770
 20
58.443970
 30
0.0
 10
175.443730
 20
54.295760
 30
0.0
  0
SPLINE
  5
165
100
AcDbEntity
  8
Image
 62
7
100
AcDbSpline
 70
8
 71
3
 72
8
 73
4
 74
0
 40
0
 40
0
 40
0
 40
0
 40
1
 40
1
 40
1
 40
1
 10
175.443730
 20
54.295760
 30
0.0
 10
174.415960
 20
47.178640
 30
0.0
 10
173.602060
 20
46.151510
 30
0.0
 10
171.514630
 20
49.337330
 30
0.0
  0
SPLINE
  5
166
100
AcDbEntity
  8
Image
 62
7
100
AcDbSpline
 70
8
 71
3
 72
8
 73
4
 74
0
 40
0
 40
0
 40
0
 40
0
 40
1
 40
1
 40
1
 40
1
 10
171.514630
 20
49.337330
 30
0.0
 10
169.548930
 20
52.337360
 30
0.0
 10
168.000000
 20
51.996300
 30
0.0
 10
168.000000
 20
48.563430
 30
0.0
  0
SPLINE
  5
167
100
AcDbEntity
  8
Image
 62
7
100
AcDbSpline
 70
8
 71
3
 72
8
 73
4
 74
0
 40
0
 40
0
 40
0
 40
0
 40
1
 40
1
 40
1
 40
1
 10
168.000000
 20
48.563430
 30
0.0
 10
168.000000
 20
45.193910
 30
0.0
 10
165.635150
 20
43.658260
 30
0.0
 10
161.609260
 20
44.413520
 30
0.0
  0
SPLINE
  5
168
100
AcDbEntity
  8
Image
 62
7
100
AcDbSpline
 70
8
 71
3
 72
8
 73
4
 74
0
 40
0
 40
0
 40
0
 40
0
 40
1
 40
1
 40
1
 40
1
 10
161.609260
 20
44.413520
 30
0.0
 10
159.318650
 20
44.843250
 30
0.0
 10
157.746510
 20
44.603650
 30
0.0
 10
156.827660
 20
43.684810
 30
0.0
  0
SPLINE
  5
169
100
AcDbEntity
  8
Image
 62
7
100
AcDbSpline
 70
8
 71
3
 72
8
 73
4
 74
0
 40
0
 40
0
 40
0
 40
0
 40
1
 40
1
 40
1
 40
1
 10
156.827660
 20
43.684810
 30
0.0
 10
156.074750
 20
42.931890
 30
0.0
 10
154.442910
 20
41.772220
 30
0.0
 10
153.201360
 20
41.107760
 30
0.0
  0
SPLINE
  5
16a
100
AcDbEntity
  8
Image
 62
7
100
AcDbSpline
 70
8
 71
3
 72
8
 73
4
 74
0
 40
0
 40
0
 40
0
 40
0
 40
1
 40
1
 40
1
 40
1
 10
153.201360
 20
41.107760
 30
0.0
 10
151.959800
 20
40.443300
 30
0.0
 10
151.208140
 20
39.472230
 30
0.0
 10
151.531010
 20
38.949830
 30
0.0
  0
SPLINE
  5
16b
100
AcDbEntity
  8
Image
 62
7
100
AcDbSpline
 70
8
 71
3
 72
8
 73
4
 74
0
 40
0
 40
0
 40
0
 40
0
 40
1
 40
1
 40
1
 40
1
 10
151.531010
 20
38.949830
 30
0.0
 10
152.361500
 20
37.606070
 30
0.0
 10
150.920260
 20
37.830630
 30
0.0
 10
148.000000
 20
39.500000
 30
0.0
  0
SPLINE
  5
16c
100
AcDbEntity
  8
Image
 62
7
100
AcDbSpline
 70
8
 71
3
 72
8
 73
4
 74
0
 40
0
 40
0
 40
0
 40
0
 40
1
 40
1
 40
1
 40
1
 10
148.000000
 20
39.500000
 30
0.0
 10
144.487130
 20
41.508140
 30
0.0
 10
140.011350
 20
41.323890
 30
0.0
 10
136.527910
 20
39.027740
 30
0.0
  0
SPLINE
  5
16d
100
AcDbEntity
  8
Image
 62
7
100
AcDbSpline
 70
8
 71
3
 72
8
 73
4
 74
0
 40
0
 40
0
 40
0
 40
0
 40
1
 40
1
 40
1
 40
1
 10
136.527910
 20
39.027740
 30
0.0
 10
133.572470
 20
37.079620
 30
0.0
 10
133.543910
 20
37.079850
 30
0.0
 10
131.428000
 20
39.067640
 30
0.0
  0
SPLINE
  5
16e
100
AcDbEntity
  8
Image
 62
7
100
AcDbSpline
 70
8
 71
3
 72
8
 73
4
 74
0
 40
0
 40
0
 40
0
 40
0
 40
1
 40
1
 40
1
 40
1
 10
131.428000
 20
39.067640
 30
0.0
 10
129.615450
 20
40.770440
 30
0.0
 10
129.125500
 20
40.856150
 30
0.0
 10
128.121240
 20
39.646090
 30
0.0
  0
SPLINE
  5
16f
100
AcDbEntity
  8
Image
 62
7
100
AcDbSpline
 70
8
 71
3
 72
8
 73
4
 74
0
 40
0
 40
0
 40
0
 40
0
 40
1
 40
1
 40
1
 40
1
 10
128.121240
 20
39.646090
 30
0.0
 10
126.782840
 20
38.033420
 30
0.0
 10
120.963960
 20
38.933040
 30
0.0
 10
115.944620
 20
41.528640
 30
0.0
  0
SPLINE
  5
170
100
AcDbEntity
  8
Image
 62
7
100
AcDbSpline
 70
8
 71
3
 72
8
 73
4
 74
0
 40
0
 40
0
 40
0
 40
0
 40
1
 40
1
 40
1
 40
1
 10
115.944620
 20
41.528640
 30
0.0
 10
112.226490
 20
43.451360
 30
0.0
 10
112.503860
 20
43.551330
 30
0.0
 10
109.909430
 20
39.353460
 30
0.0
  0
LWPOLYLINE
  5
171
100
AcDbEntity
  8
Image
 62
7
100
AcDbPolyline
 90
3
 70
0
 10
196.825690
 20
95.000000
 30
0.0
 10
191.651370
 20
95.000000
 30
0.0
 10
194.049480
 20
92.447330
 30
0.0
  0
SPLINE
  5
172
100
AcDbEntity
  8
Image
 62
7
100
AcDbSpline
 70
8
 71
3
 72
8
 73
4
 74
0
 40
0
 40
0
 40
0
 40
0
 40
1
 40
1
 40
1
 40
1
 10
105.906750
 20
37.866840
 30
0.0
 10
104.944800
 20
39.054790
 30
0.0
 10
103.929340
 20
40.583240
 30
0.0
 10
103.650170
 20
41.263380
 30
0.0
  0
SPLINE
  5
173
100
AcDbEntity
  8
Image
 62
7
100
AcDbSpline
 70
8
 71
3
 72
8
 73
4
 74
0
 40
0
 40
0
 40
0
 40
0
 40
1
 40
1
 40
1
 40
1
 10
103.650170
 20
41.263380
 30
0.0
 10
103.326760
 20
42.051290
 30
0.0
 10
102.107430
 20
41.295280
 30
0.0
 10
100.289780
 20
39.179830
 30
0.0
  0
SPLINE
  5
174
100
AcDbEntity
  8
Image
 62
7
100
AcDbSpline
 70
8
 71
3
 72
8
 73
4
 74
0
 40
0
 40
0
 40
0
 40
0
 40
1
 40
1
 40
1
 40
1
 10
100.289780
 20
39.179830
 30
0.0
 10
97.460652
 20
35.887210
 30
0.0
 10
97.422012
 20
35.876200
 30
0.0
 10
95.632961
 20
37.853080
 30
0.0
  0
SPLINE
  5
175
100
AcDbEntity
  8
Image
 62
7
100
AcDbSpline
 70
8
 71
3
 72
8
 73
4
 74
0
 40
0
 40
0
 40
0
 40
0
 40
1
 40
1
 40
1
 40
1
 10
95.632961
 20
37.853080
 30
0.0
 10
94.256708
 20
39.373820
 30
0.0
 10
93.023898
 20
39.715860
 30
0.0
 10
90.433837
 20
39.295550
 30
0.0
  0
SPLINE
  5
176
100
AcDbEntity
  8
Image
 62
7
100
AcDbSpline
 70
8
 71
3
 72
8
 73
4
 74
0
 40
0
 40
0
 40
0
 40
0
 40
1
 40
1
 40
1
 40
1
 10
90.433837
 20
39.295550
 30
0.0
 10
88.184137
 20
38.930470
 30
0.0
 10
86.194882
 20
39.297550
 30
0.0
 10
84.537464
 20
40.383500
 30
0.0
  0
SPLINE
  5
177
100
AcDbEntity
  8
Image
 62
7
100
AcDbSpline
 70
8
 71
3
 72
8
 73
4
 74
0
 40
0
 40
0
 40
0
 40
0
 40
1
 40
1
 40
1
 40
1
 10
84.537464
 20
40.383500
 30
0.0
 10
82.073048
 20
41.998240
 30
0.0
 10
82.014580
 20
41.970660
 30
0.0
 10
80.569124
 20
38.511190
 30
0.0
  0
SPLINE
  5
178
100
AcDbEntity
  8
Image
 62
7
100
AcDbSpline
 70
8
 71
3
 72
8
 73
4
 74
0
 40
0
 40
0
 40
0
 40
0
 40
1
 40
1
 40
1
 40
1
 10
80.569124
 20
38.511190
 30
0.0
 10
79.762235
 20
36.580040
 30
0.0
 10
78.680942
 20
35.000000
 30
0.0
 10
78.166250
 20
35.000000
 30
0.0
  0
SPLINE
  5
179
100
AcDbEntity
  8
Image
 62
7
100
AcDbSpline
 70
8
 71
3
 72
8
 73
4
 74
0
 40
0
 40
0
 40
0
 40
0
 40
1
 40
1
 40
1
 40
1
 10
78.166250
 20
35.000000
 30
0.0
 10
77.651558
 20
35.000000
 30
0.0
 10
76.922102
 20
37.467910
 30
0.0
 10
76.545236
 20
40.484240
 30
0.0
  0
LWPOLYLINE
  5
17a
100
AcDbEntity
  8
Image
 62
7
100
AcDbPolyline
 90
3
 70
0
 10
109.909430
 20
39.353460
 30
0.0
 10
107.655740
 20
35.706910
 30
0.0
 10
105.906750
 20
37.866840
 30
0.0
  0
SPLINE
  5
17b
100
AcDbEntity
  8
Image
 62
7
100
AcDbSpline
 70
8
 71
3
 72
8
 73
4
 74
0
 40
0
 40
0
 40
0
 40
0
 40
1
 40
1
 40
1
 40
1
 10
95.901216
 20
90.448920
 30
0.0
 10
99.485894
 20
92.302630
 30
0.0
 10
104.855140
 20
98.409050
 30
0.0
 10
106.625100
 20
102.645150
 30
0.0
  0
SPLINE
  5
17c
100
AcDbEntity
  8
Image
 62
7
100
AcDbSpline
 70
8
 71
3
 72
8
 73
4
 74
0
 40
0
 40
0
 40
0
 40
0
 40
1
 40
1
 40
1
 40
1
 10
106.625100
 20
102.645150
 30
0.0
 10
108.707050
 20
107.627960
 30
0.0
 10
108.403220
 20
119.289290
 30
0.0
 10
106.072420
 20
123.858050
 30
0.0
  0
SPLINE
  5
17d
100
AcDbEntity
  8
Image
 62
7
100
AcDbSpline
 70
8
 71
3
 72
8
 73
4
 74
0
 40
0
 40
0
 40
0
 40
0
 40
1
 40
1
 40
1
 40
1
 10
106.072420
 20
123.858050
 30
0.0
 10
102.234740
 20
131.380516
 30
0.0
 10
93.645624
 20
136.997474
 30
0.0
 10
86.000000
 20
136.984654
 30
0.0
  0
SPLINE
  5
17e
100
AcDbEntity
  8
Image
 62
7
100
AcDbSpline
 70
8
 71
3
 72
8
 73
4
 74
0
 40
0
 40
0
 40
0
 40
0
 40
1
 40
1
 40
1
 40
1
 10
86.000000
 20
136.984654
 30
0.0
 10
82.617010
 20
136.978954
 30
0.0
 10
74.005174
 20
132.814752
 30
0.0
 10
71.312068
 20
129.882345
 30
0.0
  0
SPLINE
  5
17f
100
AcDbEntity
  8
Image
 62
7
100
AcDbSpline
 70
8
 71
3
 72
8
 73
4
 74
0
 40
0
 40
0
 40
0
 40
0
 40
1
 40
1
 40
1
 40
1
 10
71.312068
 20
129.882345
 30
0.0
 10
60.931672
 20
118.579580
 30
0.0
 10
64.317910
 20
96.846630
 30
0.0
 10
77.383912
 20
90.913120
 30
0.0
  0
SPLINE
  5
180
100
AcDbEntity
  8
Image
 62
7
100
AcDbSpline
 70
8
 71
3
 72
8
 73
4
 74
0
 40
0
 40
0
 40
0
 40
0
 40
1
 40
1
 40
1
 40
1
 10
77.383912
 20
90.913120
 30
0.0
 10
82.372765
 20
88.647590
 30
0.0
 10
91.953386
 20
88.407410
 30
0.0
 10
95.901216
 20
90.448920
 30
0.0
  0
LWPOLYLINE
  5
181
100
AcDbEntity
  8
Image
 62
7
100
AcDbPolyline
 90
1
 70
1
 10
76.545236
 20
40.484240
 30
0.0
  0
SPLINE
  5
182
100
AcDbEntity
  8
Image
 62
7
100
AcDbSpline
 70
8
 71
3
 72
8
 73
4
 74
0
 40
0
 40
0
 40
0
 40
0
 40
1
 40
1
 40
1
 40
1
 10
93.000000
 20
110.000000
 30
0.0
 10
88.874197
 20
114.125800
 30
0.0
 10
91.963397
 20
121.000000
 30
0.0
 10
97.943296
 20
121.000000
 30
0.0
  0
SPLINE
  5
183
100
AcDbEntity
  8
Image
 62
7
100
AcDbSpline
 70
8
 71
3
 72
8
 73
4
 74
0
 40
0
 40
0
 40
0
 40
0
 40
1
 40
1
 40
1
 40
1
 10
97.943296
 20
121.000000
 30
0.0
 10
101.256460
 20
121.000000
 30
0.0
 10
104.000000
 20
117.954870
 30
0.0
 10
104.000000
 20
114.277490
 30
0.0
  0
SPLINE
  5
184
100
AcDbEntity
  8
Image
 62
7
100
AcDbSpline
 70
8
 71
3
 72
8
 73
4
 74
0
 40
0
 40
0
 40
0
 40
0
 40
1
 40
1
 40
1
 40
1
 10
104.000000
 20
114.277490
 30
0.0
 10
104.000000
 20
111.263400
 30
0.0
 10
100.620930
 20
108.000000
 30
0.0
 10
97.500000
 20
108.000000
 30
0.0
  0
SPLINE
  5
185
100
AcDbEntity
  8
Image
 62
7
100
AcDbSpline
 70
8
 71
3
 72
8
 73
4
 74
0
 40
0
 40
0
 40
0
 40
0
 40
1
 40
1
 40
1
 40
1
 10
97.500000
 20
108.000000
 30
0.0
 10
96.125000
 20
108.000000
 30
0.0
 10
94.100000
 20
108.900000
 30
0.0
 10
93.000000
 20
110.000000
 30
0.0
  0
LWPOLYLINE
  5
186
100
AcDbEntity
  8
Image
 62
7
100
AcDbPolyline
 90
1
 70
1
 10
95.901216
 20
90.448920
 30
0.0
  0
SPLINE
  5
187
100
AcDbEntity
  8
Image
 62
7
100
AcDbSpline
 70
8
 71
3
 72
8
 73
4
 74
0
 40
0
 40
0
 40
0
 40
0
 40
1
 40
1
 40
1
 40
1
 10
141.615090
 20
92.603650
 30
0.0
 10
153.944700
 20
100.598320
 30
0.0
 10
157.655090
 20
120.163970
 30
0.0
 10
149.176020
 20
132.473960
 30
0.0
  0
SPLINE
  5
188
100
AcDbEntity
  8
Image
 62
7
100
AcDbSpline
 70
8
 71
3
 72
8
 73
4
 74
0
 40
0
 40
0
 40
0
 40
0
 40
1
 40
1
 40
1
 40
1
 10
149.176020
 20
132.473960
 30
0.0
 10
138.998190
 20
147.250224
 30
0.0
 10
119.964810
 20
145.968490
 30
0.0
 10
113.114940
 20
130.045557
 30
0.0
  0
SPLINE
  5
189
100
AcDbEntity
  8
Image
 62
7
100
AcDbSpline
 70
8
 71
3
 72
8
 73
4
 74
0
 40
0
 40
0
 40
0
 40
0
 40
1
 40
1
 40
1
 40
1
 10
113.114940
 20
130.045557
 30
0.0
 10
104.897640
 20
110.943910
 30
0.0
 10
115.060610
 20
90.003520
 30
0.0
 10
132.549830
 20
90.000790
 30
0.0
  0
SPLINE
  5
18a
100
AcDbEntity
  8
Image
 62
7
100
AcDbSpline
 70
8
 71
3
 72
8
 73
4
 74
0
 40
0
 40
0
 40
0
 40
0
 40
1
 40
1
 40
1
 40
1
 10
132.549830
 20
90.000790
 30
0.0
 10
136.296030
 20
90.000200
 30
0.0
 10
138.636260
 20
90.672140
 30
0.0
 10
141.615090
 20
92.603650
 30
0.0
  0
LWPOLYLINE
  5
18b
100
AcDbEntity
  8
Image
 62
7
100
AcDbPolyline
 90
1
 70
1
 10
93.000000
 20
110.000000
 30
0.0
  0
SPLINE
  5
18c
100
AcDbEntity
  8
Image
 62
7
100
AcDbSpline
 70
8
 71
3
 72
8
 73
4
 74
0
 40
0
 40
0
 40
0
 40
0
 40
1
 40
1
 40
1
 40
1
 10
120.985780
 20
109.810430
 30
0.0
 10
116.588750
 20
113.370930
 30
0.0
 10
119.325650
 20
121.000000
 30
0.0
 10
125.000000
 20
121.000000
 30
0.0
  0
SPLINE
  5
18d
100
AcDbEntity
  8
Image
 62
7
100
AcDbSpline
 70
8
 71
3
 72
8
 73
4
 74
0
 40
0
 40
0
 40
0
 40
0
 40
1
 40
1
 40
1
 40
1
 10
125.000000
 20
121.000000
 30
0.0
 10
130.629470
 20
121.000000
 30
0.0
 10
133.349780
 20
112.759260
 30
0.0
 10
128.777490
 20
109.556700
 30
0.0
  0
SPLINE
  5
18e
100
AcDbEntity
  8
Image
 62
7
100
AcDbSpline
 70
8
 71
3
 72
8
 73
4
 74
0
 40
0
 40
0
 40
0
 40
0
 40
1
 40
1
 40
1
 40
1
 10
128.777490
 20
109.556700
 30
0.0
 10
125.870820
 20
107.520790
 30
0.0
 10
123.727160
 20
107.590600
 30
0.0
 10
120.985780
 20
109.810430
 30
0.0
  0
LWPOLYLINE
  5
18f
100
AcDbEntity
  8
Image
 62
7
100
AcDbPolyline
 90
1
 70
1
 10
141.615090
 20
92.603650
 30
0.0
  0
LWPOLYLINE
  5
190
100
AcDbEntity
  8
Image
 62
7
100
AcDbPolyline
 90
1
 70
1
 10
120.985780
 20
109.810430
 30
0.0
  0
ENDSEC
  0
SECTION
  2
OBJECTS
  0
DICTIONARY
  5
C
330
0
100
AcDbDictionary
  3
ACAD_GROUP
350
D
  3
ACAD_MLINESTYLE
350
17
  0
DICTIONARY
  5
D
330
C
100
AcDbDictionary
  0
DICTIONARY
  5
1A
330
C
100
AcDbDictionary
  0
DICTIONARY
  5
17
330
C
100
AcDbDictionary
  3
STANDARD
350
18
  0
DICTIONARY
  5
19
330
C
100
AcDbDictionary
  0
ENDSEC
  0
EOF
