<?xml version="1.0" encoding="UTF-8" standalone="no"?>
<svg version="1.1" viewBox="0 0 575 533" xmlns="http://www.w3.org/2000/svg">
  <path fill="#000000" fill-rule="evenodd" d="M 304.14 503.67 L 303.97 503.45 L 303.82 503.23 L 303.69 503.01 L 303.59 502.78 L 303.50 502.53 L 303.44 502.27 L 303.40 501.99 L 303.38 501.69 L 303.38 501.36 L 303.40 501.00 L 303.45 500.61 L 303.52 500.18 L 303.61 499.71 L 303.73 499.20 L 303.86 498.64 L 304.02 498.03 L 304.21 497.36 L 304.42 496.64 L 304.81 495.23 L 305.15 493.92 L 305.43 492.70 L 305.63 491.53 L 305.77 490.40 L 305.82 489.30 L 305.80 488.19 L 305.69 487.06 L 305.49 485.89 L 305.20 484.65 L 304.81 483.33 L 304.32 481.91 L 303.72 480.36 L 303.01 478.67 L 302.19 476.81 L 301.25 474.76 L 300.18 472.50 L 298.99 470.02 L 298.35 468.70 L 297.74 467.41 L 297.14 466.14 L 296.56 464.91 L 296.00 463.71 L 295.47 462.56 L 294.97 461.47 L 294.49 460.43 L 294.05 459.45 L 293.65 458.54 L 293.28 457.70 L 292.96 456.94 L 292.68 456.27 L 292.44 455.68 L 292.25 455.20 L 292.11 454.81 L 292.03 454.53 L 292.00 454.36 L 291.98 454.25 L 291.93 454.11 L 291.85 453.96 L 291.73 453.80 L 291.58 453.62 L 291.41 453.43 L 291.21 453.22 L 290.98 453.01 L 290.73 452.79 L 290.46 452.56 L 290.17 452.33 L 289.86 452.10 L 289.53 451.86 L 289.18 451.61 L 288.83 451.37 L 288.46 451.13 L 288.07 450.89 L 287.68 450.66 L 286.37 449.82 L 284.95 448.77 L 283.45 447.55 L 281.87 446.16 L 280.23 444.62 L 278.55 442.96 L 276.84 441.18 L 275.13 439.31 L 273.41 437.37 L 271.72 435.36 L 270.06 433.32 L 268.45 431.25 L 266.90 429.18 L 265.44 427.13 L 264.07 425.10 L 262.81 423.12 L 261.68 421.21 L 260.69 419.39 L 259.09 416.27 L 246.80 415.70 L 245.57 415.64 L 244.34 415.57 L 243.11 415.48 L 241.87 415.38 L 240.64 415.27 L 239.41 415.15 L 238.20 415.02 L 237.01 414.89 L 235.83 414.74 L 234.69 414.59 L 233.57 414.43 L 232.49 414.26 L 231.45 414.09 L 230.45 413.91 L 229.50 413.72 L 228.61 413.54 L 227.77 413.34 L 227.00 413.15 L 219.50 411.17 L 216.88 413.65 L 214.26 416.12 L 218.59 422.58 L 218.98 423.18 L 219.37 423.79 L 219.76 424.42 L 220.14 425.05 L 220.50 425.68 L 220.86 426.32 L 221.20 426.95 L 221.53 427.57 L 221.84 428.19 L 222.13 428.78 L 222.41 429.36 L 222.66 429.92 L 222.88 430.45 L 223.08 430.96 L 223.25 431.43 L 223.40 431.86 L 223.51 432.26 L 223.59 432.61 L 223.72 433.47 L 223.82 434.43 L 223.88 435.46 L 223.90 436.57 L 223.89 437.74 L 223.85 438.97 L 223.77 440.25 L 223.66 441.57 L 223.52 442.92 L 223.35 444.30 L 223.15 445.70 L 222.92 447.10 L 222.66 448.50 L 222.38 449.89 L 222.07 451.27 L 221.74 452.63 L 221.38 453.95 L 221.00 455.23 L 220.38 457.15 L 219.77 458.90 L 219.14 460.47 L 218.48 461.88 L 217.78 463.13 L 217.02 464.24 L 216.20 465.22 L 215.28 466.07 L 214.26 466.80 L 213.13 467.43 L 211.86 467.96 L 210.44 468.40 L 208.86 468.76 L 207.11 469.06 L 205.16 469.29 L 203.00 469.48 L 200.62 469.63 L 198.00 469.75 L 195.64 469.83 L 193.52 469.88 L 191.64 469.91 L 189.99 469.89 L 188.56 469.83 L 187.33 469.71 L 186.30 469.55 L 185.46 469.32 L 184.81 469.03 L 184.32 468.67 L 184.00 468.23 L 183.83 467.71 L 183.80 467.10 L 183.91 466.40 L 184.14 465.61 L 184.49 464.71 L 184.95 463.70 L 185.50 462.58 L 186.08 461.42 L 186.58 460.35 L 187.00 459.36 L 187.34 458.44 L 187.59 457.57 L 187.76 456.76 L 187.84 455.98 L 187.82 455.22 L 187.71 454.47 L 187.49 453.72 L 187.18 452.96 L 186.77 452.18 L 186.25 451.36 L 185.62 450.49 L 184.88 449.57 L 184.03 448.57 L 183.07 447.49 L 181.98 446.32 L 181.05 445.32 L 180.18 444.37 L 179.38 443.47 L 178.64 442.60 L 177.94 441.76 L 177.28 440.93 L 176.66 440.10 L 176.06 439.27 L 175.49 438.41 L 174.92 437.53 L 174.36 436.60 L 173.80 435.62 L 173.22 434.57 L 172.63 433.45 L 172.02 432.25 L 171.37 430.94 L 170.69 429.53 L 169.96 428.00 L 169.27 426.43 L 168.73 424.88 L 168.35 423.33 L 168.13 421.75 L 168.08 420.12 L 168.21 418.42 L 168.54 416.62 L 169.07 414.70 L 169.81 412.63 L 170.78 410.39 L 171.97 407.96 L 173.40 405.31 L 175.09 402.42 L 177.03 399.27 L 179.24 395.82 L 181.73 392.06 L 184.50 387.96 L 187.58 383.50 L 188.73 381.83 L 189.88 380.14 L 191.03 378.43 L 192.18 376.72 L 193.31 375.01 L 194.42 373.31 L 195.51 371.63 L 196.56 369.98 L 197.58 368.37 L 198.56 366.81 L 199.49 365.31 L 200.36 363.88 L 201.17 362.53 L 201.92 361.26 L 202.59 360.09 L 203.18 359.03 L 203.69 358.09 L 204.11 357.27 L 204.55 356.38 L 205.00 355.51 L 205.45 354.67 L 205.91 353.86 L 206.37 353.07 L 206.82 352.30 L 207.29 351.56 L 207.75 350.85 L 208.22 350.17 L 208.68 349.51 L 209.15 348.88 L 209.62 348.27 L 210.09 347.70 L 210.56 347.15 L 211.03 346.63 L 211.50 346.15 L 211.97 345.69 L 212.44 345.26 L 213.00 344.76 L 213.51 344.29 L 213.98 343.83 L 214.42 343.38 L 214.82 342.94 L 215.19 342.50 L 215.52 342.07 L 215.83 341.63 L 216.11 341.19 L 216.37 340.73 L 216.60 340.26 L 216.82 339.77 L 217.02 339.25 L 217.21 338.71 L 217.39 338.14 L 217.55 337.53 L 217.71 336.88 L 217.87 336.19 L 218.12 335.05 L 218.38 333.98 L 218.65 332.97 L 218.94 332.02 L 219.24 331.12 L 219.55 330.27 L 219.88 329.47 L 220.23 328.71 L 220.60 328.00 L 221.00 327.32 L 221.42 326.67 L 221.87 326.05 L 222.35 325.46 L 222.86 324.89 L 223.41 324.33 L 223.99 323.80 L 224.60 323.27 L 225.26 322.75 L 226.02 322.12 L 226.99 321.22 L 228.13 320.09 L 229.43 318.77 L 230.85 317.29 L 232.35 315.68 L 233.91 313.98 L 235.50 312.23 L 237.08 310.46 L 238.62 308.70 L 240.10 306.99 L 241.47 305.37 L 242.72 303.86 L 243.81 302.52 L 244.71 301.36 L 245.39 300.42 L 245.81 299.75 L 245.95 299.37 L 245.93 299.28 L 245.87 299.16 L 245.78 299.02 L 245.67 298.86 L 245.52 298.68 L 245.35 298.48 L 245.15 298.26 L 244.92 298.02 L 244.68 297.78 L 244.41 297.52 L 244.12 297.25 L 243.82 296.97 L 243.50 296.68 L 243.16 296.38 L 242.81 296.08 L 242.45 295.78 L 242.08 295.47 L 241.70 295.17 L 240.32 294.05 L 238.80 292.77 L 237.15 291.34 L 235.39 289.80 L 233.56 288.16 L 231.68 286.44 L 229.76 284.68 L 227.85 282.89 L 225.95 281.09 L 224.10 279.32 L 222.32 277.59 L 220.63 275.92 L 219.07 274.35 L 217.64 272.89 L 216.38 271.56 L 215.32 270.40 L 214.47 269.42 L 213.86 268.64 L 213.51 268.16 L 213.20 267.69 L 212.91 267.23 L 212.64 266.78 L 212.39 266.34 L 212.17 265.90 L 211.97 265.46 L 211.79 265.02 L 211.63 264.58 L 211.49 264.14 L 211.37 263.69 L 211.27 263.24 L 211.18 262.77 L 211.12 262.30 L 211.06 261.80 L 211.03 261.30 L 211.01 260.77 L 211.00 260.23 L 211.00 259.53 L 211.00 258.92 L 210.99 258.37 L 210.97 257.90 L 210.95 257.50 L 210.91 257.17 L 210.86 256.90 L 210.79 256.69 L 210.71 256.53 L 210.60 256.43 L 210.47 256.38 L 210.32 256.38 L 210.14 256.43 L 209.93 256.51 L 209.69 256.64 L 209.41 256.81 L 209.10 257.00 L 208.75 257.23 L 207.96 257.79 L 207.19 258.39 L 206.44 259.05 L 205.72 259.76 L 205.03 260.51 L 204.37 261.30 L 203.75 262.13 L 203.15 262.99 L 202.60 263.88 L 202.08 264.80 L 201.60 265.75 L 201.16 266.72 L 200.77 267.71 L 200.42 268.71 L 200.12 269.72 L 199.87 270.75 L 199.67 271.78 L 199.52 272.81 L 199.35 274.09 L 199.16 275.29 L 198.93 276.42 L 198.67 277.49 L 198.38 278.49 L 198.06 279.42 L 197.70 280.28 L 197.30 281.09 L 196.87 281.83 L 196.40 282.52 L 195.89 283.15 L 195.34 283.72 L 194.75 284.24 L 194.11 284.70 L 193.44 285.12 L 192.72 285.49 L 191.95 285.80 L 191.14 286.08 L 190.29 286.31 L 189.48 286.50 L 188.68 286.64 L 187.92 286.73 L 187.17 286.77 L 186.44 286.76 L 185.73 286.70 L 185.03 286.59 L 184.34 286.43 L 183.67 286.21 L 183.00 285.95 L 182.34 285.63 L 181.68 285.25 L 181.02 284.82 L 180.36 284.34 L 179.69 283.79 L 179.02 283.20 L 178.34 282.54 L 177.89 282.08 L 177.48 281.65 L 177.11 281.24 L 176.78 280.84 L 176.48 280.46 L 176.21 280.08 L 175.98 279.71 L 175.78 279.34 L 175.61 278.96 L 175.46 278.57 L 175.34 278.16 L 175.24 277.74 L 175.16 277.29 L 175.09 276.81 L 175.05 276.30 L 175.02 275.75 L 175.00 275.16 L 175.00 274.52 L 175.01 273.72 L 175.03 272.99 L 175.08 272.32 L 175.17 271.69 L 175.30 271.09 L 175.48 270.52 L 175.73 269.95 L 176.05 269.38 L 176.45 268.79 L 176.94 268.18 L 177.53 267.53 L 178.23 266.83 L 179.05 266.06 L 179.99 265.22 L 181.06 264.29 L 182.28 263.25 L 183.65 262.11 L 185.18 260.85 L 185.61 260.48 L 186.04 260.09 L 186.49 259.65 L 186.94 259.19 L 187.41 258.70 L 187.87 258.18 L 188.34 257.64 L 188.80 257.09 L 189.26 256.51 L 189.71 255.93 L 190.16 255.34 L 190.59 254.74 L 191.01 254.13 L 191.42 253.53 L 191.80 252.94 L 192.16 252.34 L 192.50 251.76 L 192.81 251.20 L 193.29 250.30 L 193.72 249.48 L 194.09 248.75 L 194.41 248.07 L 194.69 247.46 L 194.93 246.89 L 195.12 246.35 L 195.27 245.85 L 195.38 245.37 L 195.46 244.89 L 195.49 244.42 L 195.50 243.94 L 195.47 243.44 L 195.41 242.91 L 195.32 242.35 L 195.21 241.74 L 195.07 241.08 L 194.91 240.35 L 194.76 239.70 L 194.64 239.10 L 194.54 238.52 L 194.45 237.98 L 194.39 237.47 L 194.34 236.97 L 194.32 236.49 L 194.31 236.03 L 194.33 235.57 L 194.37 235.11 L 194.43 234.65 L 194.51 234.19 L 194.61 233.71 L 194.73 233.22 L 194.88 232.70 L 195.05 232.17 L 195.25 231.60 L 195.46 231.00 L 195.62 230.57 L 195.78 230.10 L 195.95 229.60 L 196.12 229.07 L 196.30 228.52 L 196.47 227.94 L 196.65 227.35 L 196.83 226.74 L 197.01 226.12 L 197.19 225.50 L 197.36 224.87 L 197.53 224.25 L 197.69 223.62 L 197.85 223.01 L 198.00 222.41 L 198.14 221.82 L 198.28 221.26 L 198.40 220.72 L 198.52 220.18 L 198.66 219.63 L 198.82 219.07 L 198.99 218.51 L 199.16 217.94 L 199.35 217.38 L 199.55 216.82 L 199.76 216.27 L 199.97 215.73 L 200.18 215.20 L 200.40 214.69 L 200.63 214.20 L 200.85 213.73 L 201.07 213.29 L 201.30 212.88 L 201.52 212.51 L 201.73 212.16 L 201.94 211.86 L 202.29 211.39 L 202.59 210.97 L 202.86 210.58 L 203.09 210.23 L 203.28 209.90 L 203.43 209.59 L 203.55 209.29 L 203.63 209.00 L 203.67 208.71 L 203.68 208.42 L 203.66 208.12 L 203.60 207.80 L 203.51 207.45 L 203.38 207.07 L 203.23 206.66 L 203.04 206.21 L 202.82 205.70 L 202.57 205.15 L 202.10 204.05 L 201.65 202.92 L 201.22 201.77 L 200.82 200.60 L 200.44 199.41 L 200.09 198.20 L 199.77 196.97 L 199.47 195.73 L 199.20 194.47 L 198.96 193.20 L 198.74 191.91 L 198.55 190.62 L 198.39 189.32 L 198.26 188.01 L 198.15 186.70 L 198.08 185.39 L 198.03 184.07 L 198.01 182.75 L 198.00 175.00 L 201.32 175.00 L 201.64 175.01 L 201.99 175.03 L 202.37 175.06 L 202.78 175.10 L 203.20 175.16 L 203.64 175.22 L 204.10 175.30 L 204.58 175.38 L 205.06 175.47 L 205.55 175.58 L 206.05 175.69 L 206.54 175.80 L 207.04 175.92 L 207.53 176.05 L 208.01 176.19 L 208.48 176.33 L 208.94 176.47 L 209.38 176.62 L 209.97 176.82 L 210.51 177.02 L 211.01 177.20 L 211.45 177.39 L 211.85 177.56 L 212.20 177.73 L 212.51 177.90 L 212.78 178.07 L 213.00 178.23 L 213.19 178.40 L 213.34 178.57 L 213.46 178.74 L 213.54 178.91 L 213.58 179.09 L 213.60 179.27 L 213.58 179.46 L 213.54 179.66 L 213.46 179.87 L 213.40 180.03 L 213.34 180.22 L 213.27 180.43 L 213.20 180.67 L 213.13 180.92 L 213.06 181.19 L 212.99 181.48 L 212.92 181.78 L 212.84 182.10 L 212.77 182.42 L 212.70 182.76 L 212.63 183.10 L 212.57 183.44 L 212.50 183.79 L 212.44 184.14 L 212.38 184.49 L 212.33 184.83 L 212.28 185.17 L 212.22 185.66 L 212.17 186.11 L 212.14 186.54 L 212.12 186.94 L 212.13 187.31 L 212.15 187.67 L 212.20 188.00 L 212.26 188.33 L 212.35 188.64 L 212.46 188.94 L 212.60 189.24 L 212.76 189.53 L 212.95 189.83 L 213.17 190.13 L 213.42 190.44 L 213.69 190.75 L 214.00 191.08 L 214.33 191.42 L 214.98 192.04 L 215.59 192.58 L 216.18 193.03 L 216.74 193.39 L 217.27 193.67 L 217.78 193.87 L 218.26 193.97 L 218.72 193.99 L 219.16 193.92 L 219.58 193.77 L 219.98 193.52 L 220.36 193.19 L 220.73 192.77 L 221.09 192.26 L 221.43 191.66 L 221.77 190.97 L 222.09 190.19 L 222.41 189.32 L 222.55 188.88 L 222.69 188.43 L 222.83 187.95 L 222.96 187.47 L 223.09 186.98 L 223.21 186.48 L 223.33 185.97 L 223.44 185.47 L 223.54 184.97 L 223.64 184.47 L 223.73 183.99 L 223.80 183.51 L 223.87 183.05 L 223.93 182.61 L 223.98 182.19 L 224.01 181.79 L 224.03 181.41 L 224.04 181.07 L 224.05 180.73 L 224.08 180.37 L 224.11 179.98 L 224.15 179.58 L 224.20 179.16 L 224.27 178.72 L 224.34 178.28 L 224.42 177.83 L 224.51 177.37 L 224.60 176.92 L 224.70 176.46 L 224.81 176.00 L 224.92 175.56 L 225.04 175.12 L 225.16 174.69 L 225.29 174.27 L 225.42 173.88 L 225.55 173.50 L 227.02 169.50 L 223.35 166.25 L 222.03 165.15 L 220.56 164.04 L 218.96 162.93 L 217.22 161.82 L 215.34 160.70 L 213.33 159.59 L 211.20 158.48 L 208.94 157.38 L 206.56 156.28 L 204.06 155.19 L 201.45 154.11 L 198.73 153.04 L 195.91 151.98 L 192.98 150.94 L 189.95 149.91 L 186.82 148.90 L 183.61 147.91 L 180.30 146.94 L 179.31 146.65 L 178.34 146.37 L 177.38 146.10 L 176.45 145.83 L 175.54 145.57 L 174.66 145.31 L 173.82 145.07 L 173.01 144.83 L 172.25 144.61 L 171.54 144.41 L 170.87 144.21 L 170.27 144.04 L 169.72 143.88 L 169.24 143.73 L 168.83 143.61 L 168.50 143.51 L 168.24 143.43 L 168.07 143.38 L 167.86 143.20 L 167.91 142.90 L 168.19 142.48 L 168.69 141.95 L 169.39 141.32 L 170.28 140.61 L 171.34 139.83 L 172.56 138.98 L 173.91 138.08 L 175.38 137.14 L 176.96 136.16 L 178.63 135.16 L 180.37 134.16 L 182.16 133.15 L 183.99 132.16 L 185.85 131.18 L 187.71 130.24 L 189.56 129.34 L 192.69 127.90 L 195.79 126.55 L 198.88 125.29 L 201.96 124.11 L 205.05 123.02 L 208.15 122.01 L 211.28 121.08 L 214.45 120.23 L 217.67 119.45 L 220.94 118.75 L 224.29 118.11 L 227.71 117.54 L 231.22 117.04 L 234.84 116.60 L 238.56 116.22 L 242.41 115.90 L 246.38 115.63 L 250.50 115.42 L 266.50 114.70 L 289.50 82.62 L 291.61 79.69 L 293.70 76.79 L 295.77 73.93 L 297.81 71.13 L 299.80 68.40 L 301.75 65.75 L 303.63 63.20 L 305.44 60.76 L 307.16 58.44 L 308.80 56.25 L 310.33 54.22 L 311.75 52.35 L 313.04 50.66 L 314.21 49.16 L 315.23 47.87 L 316.10 46.79 L 316.80 45.94 L 317.34 45.33 L 317.80 44.85 L 318.31 44.34 L 318.86 43.81 L 319.44 43.27 L 320.05 42.73 L 320.68 42.17 L 321.34 41.61 L 322.02 41.05 L 322.71 40.50 L 323.41 39.95 L 324.11 39.41 L 324.82 38.88 L 325.52 38.37 L 326.21 37.88 L 326.90 37.41 L 327.56 36.97 L 328.21 36.56 L 328.84 36.18 L 330.11 35.45 L 331.48 34.69 L 332.94 33.91 L 334.45 33.13 L 336.01 32.34 L 337.59 31.57 L 339.17 30.82 L 340.73 30.10 L 342.25 29.41 L 343.71 28.77 L 345.09 28.19 L 346.36 27.67 L 347.52 27.22 L 348.53 26.86 L 349.38 26.59 L 350.05 26.42 L 350.52 26.37 L 350.76 26.43 L 350.93 26.71 L 351.06 27.19 L 351.16 27.84 L 351.22 28.63 L 351.26 29.56 L 351.26 30.60 L 351.24 31.72 L 351.19 32.92 L 351.11 34.17 L 351.01 35.46 L 350.88 36.75 L 350.74 38.04 L 350.57 39.30 L 350.39 40.51 L 350.18 41.66 L 349.97 42.72 L 349.73 43.67 L 349.49 44.50 L 348.82 46.39 L 348.06 48.36 L 347.18 50.43 L 346.19 52.59 L 345.08 54.87 L 343.84 57.29 L 342.46 59.84 L 340.94 62.55 L 339.26 65.42 L 337.43 68.48 L 335.42 71.72 L 333.24 75.18 L 330.88 78.84 L 328.33 82.74 L 325.58 86.88 L 322.63 91.28 L 319.46 95.94 L 316.08 100.89 L 315.22 102.15 L 314.45 103.30 L 313.76 104.34 L 313.15 105.28 L 312.63 106.12 L 312.19 106.87 L 311.83 107.53 L 311.54 108.09 L 311.33 108.57 L 311.20 108.97 L 311.15 109.29 L 311.17 109.53 L 311.26 109.69 L 311.42 109.79 L 311.65 109.82 L 311.95 109.79 L 312.32 109.69 L 312.75 109.54 L 313.03 109.48 L 313.53 109.43 L 314.25 109.38 L 315.18 109.35 L 316.30 109.31 L 317.61 109.29 L 319.08 109.27 L 320.72 109.26 L 322.50 109.25 L 324.43 109.26 L 326.48 109.27 L 328.65 109.28 L 330.93 109.30 L 333.30 109.33 L 335.75 109.37 L 338.28 109.41 L 340.86 109.46 L 343.50 109.52 L 372.50 110.18 L 382.36 120.34 L 384.67 122.75 L 387.02 125.24 L 389.39 127.81 L 391.76 130.42 L 394.12 133.06 L 396.45 135.71 L 398.73 138.33 L 400.94 140.92 L 403.06 143.45 L 405.08 145.90 L 406.98 148.24 L 408.74 150.47 L 410.34 152.54 L 411.77 154.45 L 413.00 156.18 L 414.03 157.69 L 414.82 158.97 L 415.37 160.00 L 415.68 160.67 L 415.96 161.33 L 416.21 161.99 L 416.43 162.67 L 416.62 163.39 L 416.79 164.18 L 416.94 165.05 L 417.06 166.03 L 417.17 167.13 L 417.25 168.37 L 417.32 169.78 L 417.38 171.38 L 417.42 173.18 L 417.45 175.21 L 417.47 177.48 L 417.49 180.03 L 417.49 182.86 L 417.50 186.00 L 417.49 190.06 L 417.46 193.77 L 417.41 197.15 L 417.33 200.22 L 417.22 203.00 L 417.07 205.51 L 416.89 207.77 L 416.67 209.80 L 416.41 211.61 L 416.10 213.23 L 415.74 214.67 L 415.33 215.96 L 414.87 217.11 L 414.34 218.14 L 413.75 219.08 L 413.10 219.94 L 412.38 220.74 L 411.58 221.50 L 411.23 221.82 L 410.79 222.22 L 410.26 222.71 L 409.65 223.27 L 408.97 223.89 L 408.22 224.59 L 407.41 225.34 L 406.54 226.14 L 405.63 227.00 L 404.66 227.89 L 403.66 228.83 L 402.62 229.80 L 401.56 230.79 L 400.47 231.81 L 399.36 232.84 L 398.24 233.89 L 397.12 234.94 L 396.00 236.00 L 394.88 237.05 L 393.79 238.07 L 392.72 239.07 L 391.67 240.04 L 390.66 240.98 L 389.69 241.88 L 388.76 242.74 L 387.88 243.55 L 387.05 244.31 L 386.28 245.01 L 385.57 245.66 L 384.93 246.24 L 384.36 246.75 L 383.87 247.19 L 383.45 247.56 L 383.13 247.84 L 382.89 248.03 L 382.75 248.14 L 382.49 248.33 L 382.29 248.52 L 382.16 248.72 L 382.10 248.93 L 382.10 249.14 L 382.16 249.35 L 382.28 249.56 L 382.47 249.78 L 382.71 250.00 L 383.01 250.21 L 383.38 250.43 L 383.80 250.65 L 384.27 250.86 L 384.81 251.07 L 385.39 251.28 L 386.04 251.49 L 386.73 251.69 L 387.48 251.89 L 387.89 252.00 L 388.29 252.10 L 388.68 252.21 L 389.05 252.32 L 389.41 252.44 L 389.76 252.55 L 390.08 252.65 L 390.39 252.76 L 390.67 252.87 L 390.93 252.97 L 391.17 253.07 L 391.38 253.17 L 391.56 253.26 L 391.72 253.34 L 391.84 253.42 L 391.93 253.50 L 391.98 253.56 L 392.00 253.62 L 391.99 253.69 L 391.95 253.79 L 391.89 253.91 L 391.81 254.06 L 391.71 254.24 L 391.59 254.44 L 391.45 254.66 L 391.29 254.89 L 391.12 255.15 L 390.93 255.42 L 390.73 255.71 L 390.51 256.01 L 390.28 256.32 L 390.04 256.64 L 389.80 256.97 L 389.54 257.31 L 389.27 257.65 L 389.00 258.00 L 388.45 258.70 L 387.97 259.34 L 387.54 259.93 L 387.17 260.46 L 386.86 260.96 L 386.60 261.40 L 386.40 261.81 L 386.26 262.18 L 386.17 262.51 L 386.13 262.81 L 386.15 263.09 L 386.22 263.34 L 386.35 263.56 L 386.52 263.77 L 386.75 263.95 L 387.03 264.13 L 387.35 264.29 L 387.73 264.45 L 388.52 264.79 L 389.54 265.30 L 390.78 265.96 L 392.19 266.75 L 393.75 267.64 L 395.43 268.63 L 397.19 269.69 L 399.01 270.80 L 400.86 271.95 L 402.70 273.10 L 404.50 274.26 L 406.23 275.38 L 407.87 276.47 L 409.37 277.49 L 410.72 278.43 L 411.87 279.26 L 412.81 279.98 L 413.49 280.55 L 413.86 280.90 L 414.21 281.25 L 414.54 281.59 L 414.85 281.93 L 415.14 282.28 L 415.41 282.61 L 415.66 282.95 L 415.89 283.28 L 416.10 283.61 L 416.29 283.93 L 416.45 284.26 L 416.60 284.57 L 416.72 284.88 L 416.82 285.19 L 416.90 285.49 L 416.95 285.79 L 416.99 286.08 L 417.00 286.36 L 416.95 286.87 L 416.80 287.63 L 416.55 288.65 L 416.17 289.98 L 415.66 291.63 L 415.01 293.64 L 414.22 296.03 L 413.27 298.83 L 412.15 302.07 L 410.85 305.77 L 409.36 309.97 L 407.68 314.68 L 405.79 319.94 L 403.69 325.78 L 401.36 332.22 L 398.80 339.29 L 395.99 347.01 L 392.93 355.42 L 391.56 359.17 L 390.29 362.55 L 389.11 365.59 L 388.00 368.31 L 386.93 370.75 L 385.89 372.93 L 384.86 374.87 L 383.81 376.60 L 382.73 378.16 L 381.60 379.57 L 380.39 380.85 L 379.08 382.03 L 377.66 383.15 L 376.10 384.22 L 374.38 385.27 L 372.49 386.34 L 370.40 387.45 L 368.09 388.62 L 365.88 389.70 L 363.59 390.76 L 361.22 391.79 L 358.79 392.80 L 356.33 393.78 L 353.85 394.72 L 351.37 395.61 L 348.89 396.46 L 346.45 397.25 L 344.06 397.98 L 341.74 398.64 L 339.49 399.23 L 337.35 399.75 L 335.33 400.19 L 333.44 400.53 L 331.70 400.79 L 330.13 400.95 L 328.75 401.00 L 328.46 400.89 L 328.12 400.57 L 327.72 400.05 L 327.28 399.35 L 326.81 398.48 L 326.30 397.47 L 325.77 396.32 L 325.22 395.05 L 324.66 393.67 L 324.09 392.21 L 323.53 390.68 L 322.97 389.09 L 322.42 387.46 L 321.89 385.80 L 321.39 384.13 L 320.91 382.46 L 320.48 380.82 L 320.08 379.21 L 319.88 378.32 L 319.68 377.36 L 319.47 376.34 L 319.26 375.27 L 319.06 374.15 L 318.85 372.99 L 318.64 371.80 L 318.44 370.58 L 318.24 369.35 L 318.05 368.11 L 317.86 366.86 L 317.69 365.62 L 317.52 364.40 L 317.36 363.19 L 317.21 362.01 L 317.08 360.86 L 316.96 359.76 L 316.85 358.71 L 316.75 357.68 L 316.66 356.68 L 316.56 355.69 L 316.46 354.72 L 316.36 353.79 L 316.26 352.88 L 316.17 352.01 L 316.07 351.19 L 315.99 350.41 L 315.90 349.67 L 315.82 349.00 L 315.74 348.38 L 315.67 347.83 L 315.60 347.35 L 315.54 346.93 L 315.49 346.60 L 315.44 346.35 L 315.40 346.18 L 315.34 346.04 L 315.26 345.93 L 315.16 345.85 L 315.03 345.80 L 314.88 345.77 L 314.70 345.78 L 314.49 345.81 L 314.26 345.88 L 314.00 345.97 L 313.72 346.09 L 313.40 346.25 L 313.06 346.43 L 312.69 346.64 L 312.29 346.89 L 311.86 347.17 L 311.40 347.47 L 310.90 347.81 L 310.38 348.18 L 308.82 349.36 L 307.28 350.64 L 305.76 352.01 L 304.28 353.47 L 302.84 354.98 L 301.45 356.56 L 300.12 358.17 L 298.86 359.82 L 297.68 361.47 L 296.58 363.13 L 295.58 364.78 L 294.68 366.41 L 293.90 368.00 L 293.24 369.54 L 292.71 371.01 L 292.32 372.41 L 292.08 373.72 L 292.00 374.93 L 292.10 376.21 L 292.38 378.04 L 292.83 380.35 L 293.42 383.07 L 294.14 386.14 L 294.97 389.49 L 295.90 393.05 L 296.89 396.75 L 297.94 400.54 L 299.02 404.35 L 300.11 408.09 L 301.21 411.72 L 302.28 415.17 L 303.31 418.35 L 304.28 421.22 L 305.18 423.71 L 305.98 425.74 L 306.66 427.24 L 306.81 427.51 L 306.99 427.78 L 307.20 428.06 L 307.44 428.36 L 307.71 428.66 L 308.01 428.96 L 308.32 429.27 L 308.66 429.58 L 309.02 429.89 L 309.40 430.20 L 309.79 430.50 L 310.20 430.80 L 310.62 431.10 L 311.04 431.38 L 311.47 431.65 L 311.91 431.92 L 312.35 432.16 L 312.79 432.40 L 315.33 433.83 L 317.79 435.53 L 320.17 437.48 L 322.45 439.65 L 324.63 442.03 L 326.71 444.61 L 328.66 447.36 L 330.49 450.29 L 332.18 453.35 L 333.73 456.55 L 335.13 459.87 L 336.38 463.28 L 337.45 466.77 L 338.34 470.34 L 339.06 473.95 L 339.57 477.60 L 339.89 481.26 L 340.00 484.93 L 339.98 486.55 L 339.91 488.07 L 339.78 489.48 L 339.60 490.79 L 339.36 492.01 L 339.06 493.14 L 338.70 494.19 L 338.26 495.17 L 337.75 496.08 L 337.16 496.92 L 336.49 497.71 L 335.74 498.44 L 334.90 499.12 L 333.97 499.77 L 332.95 500.37 L 331.82 500.95 L 330.60 501.51 L 329.27 502.04 L 327.91 502.51 L 326.44 502.95 L 324.86 503.34 L 323.21 503.70 L 321.50 504.01 L 319.75 504.28 L 317.99 504.51 L 316.25 504.69 L 314.53 504.82 L 312.87 504.91 L 311.28 504.94 L 309.79 504.93 L 308.43 504.86 L 307.20 504.74 L 306.13 504.56 L 305.25 504.32 L 304.58 504.03 L 304.14 503.67 L 304.14 503.67 Z M 317.18 459.80 L 317.61 459.61 L 318.05 459.41 L 318.48 459.20 L 318.92 458.99 L 319.35 458.76 L 319.78 458.53 L 320.20 458.30 L 320.61 458.06 L 321.01 457.82 L 321.39 457.58 L 321.76 457.34 L 322.10 457.11 L 322.43 456.88 L 322.73 456.65 L 323.00 456.44 L 323.25 456.23 L 323.46 456.03 L 323.64 455.84 L 323.91 455.54 L 324.15 455.26 L 324.35 455.00 L 324.52 454.76 L 324.66 454.52 L 324.76 454.28 L 324.83 454.04 L 324.86 453.79 L 324.85 453.52 L 324.81 453.23 L 324.72 452.91 L 324.60 452.56 L 324.44 452.16 L 324.25 451.72 L 324.01 451.23 L 323.73 450.68 L 323.41 450.07 L 323.05 449.38 L 322.54 448.47 L 322.01 447.59 L 321.46 446.74 L 320.89 445.94 L 320.29 445.18 L 319.68 444.46 L 319.05 443.77 L 318.39 443.13 L 317.71 442.52 L 317.01 441.96 L 316.29 441.43 L 315.55 440.94 L 314.78 440.49 L 314.00 440.08 L 313.19 439.70 L 312.36 439.37 L 311.50 439.07 L 310.63 438.82 L 310.00 438.64 L 309.44 438.48 L 308.93 438.30 L 308.46 438.12 L 308.04 437.91 L 307.64 437.68 L 307.28 437.41 L 306.93 437.09 L 306.60 436.72 L 306.28 436.29 L 305.95 435.78 L 305.62 435.20 L 305.27 434.53 L 304.90 433.77 L 304.51 432.90 L 304.08 431.93 L 303.61 430.83 L 303.09 429.60 L 302.77 428.85 L 302.43 428.06 L 302.08 427.26 L 301.71 426.45 L 301.34 425.62 L 300.96 424.79 L 300.57 423.95 L 300.18 423.12 L 299.80 422.30 L 299.41 421.50 L 299.03 420.71 L 298.65 419.94 L 298.29 419.21 L 297.93 418.51 L 297.59 417.84 L 297.27 417.22 L 296.96 416.65 L 296.67 416.13 L 293.67 410.75 L 287.09 411.24 L 285.78 411.36 L 284.42 411.51 L 283.03 411.71 L 281.60 411.93 L 280.17 412.19 L 278.75 412.47 L 277.35 412.77 L 275.99 413.09 L 274.68 413.41 L 273.45 413.75 L 272.30 414.09 L 271.25 414.43 L 270.33 414.77 L 269.53 415.10 L 268.88 415.42 L 268.40 415.71 L 268.10 415.99 L 268.00 416.25 L 268.09 416.72 L 268.34 417.40 L 268.74 418.29 L 269.28 419.34 L 269.94 420.55 L 270.70 421.87 L 271.55 423.30 L 272.47 424.80 L 273.45 426.35 L 274.48 427.93 L 275.53 429.51 L 276.59 431.07 L 277.65 432.58 L 278.68 434.03 L 279.69 435.39 L 280.64 436.62 L 281.53 437.72 L 282.34 438.65 L 282.82 439.16 L 283.32 439.68 L 283.84 440.19 L 284.37 440.69 L 284.92 441.20 L 285.48 441.69 L 286.05 442.18 L 286.62 442.65 L 287.20 443.11 L 287.78 443.55 L 288.35 443.97 L 288.92 444.37 L 289.48 444.75 L 290.03 445.10 L 290.57 445.43 L 291.09 445.73 L 291.59 445.99 L 292.07 446.22 L 292.69 446.52 L 293.27 446.80 L 293.79 447.07 L 294.28 447.33 L 294.72 447.59 L 295.11 447.85 L 295.47 448.10 L 295.80 448.36 L 296.09 448.62 L 296.34 448.88 L 296.57 449.16 L 296.77 449.44 L 296.95 449.74 L 297.10 450.05 L 297.23 450.38 L 297.34 450.72 L 297.44 451.09 L 297.52 451.48 L 297.70 452.31 L 297.90 453.15 L 298.13 453.98 L 298.39 454.80 L 298.66 455.61 L 298.96 456.40 L 299.26 457.17 L 299.58 457.90 L 299.91 458.60 L 300.25 459.26 L 300.59 459.87 L 300.94 460.43 L 301.28 460.93 L 301.62 461.36 L 301.95 461.73 L 302.27 462.02 L 302.58 462.23 L 302.88 462.36 L 303.36 462.46 L 303.91 462.54 L 304.52 462.57 L 305.19 462.58 L 305.90 462.55 L 306.67 462.50 L 307.47 462.41 L 308.30 462.29 L 309.16 462.15 L 310.04 461.98 L 310.94 461.79 L 311.85 461.57 L 312.76 461.33 L 313.67 461.06 L 314.57 460.78 L 315.46 460.47 L 316.33 460.14 L 317.18 459.80 L 317.18 459.80 Z M 198.54 430.12 L 199.20 429.80 L 199.88 429.41 L 200.58 428.97 L 201.29 428.48 L 202.00 427.96 L 202.70 427.40 L 203.40 426.82 L 204.07 426.22 L 204.71 425.61 L 205.32 425.00 L 205.89 424.39 L 206.40 423.80 L 206.86 423.22 L 207.25 422.68 L 207.57 422.16 L 207.80 421.69 L 207.95 421.27 L 208.00 420.91 L 207.99 420.83 L 207.94 420.77 L 207.87 420.72 L 207.77 420.68 L 207.65 420.66 L 207.50 420.65 L 207.34 420.65 L 207.15 420.66 L 206.94 420.69 L 206.71 420.73 L 206.46 420.79 L 206.20 420.85 L 205.93 420.93 L 205.64 421.02 L 205.34 421.12 L 205.03 421.23 L 204.71 421.35 L 204.38 421.49 L 203.20 421.97 L 202.17 422.36 L 201.29 422.66 L 200.55 422.87 L 199.96 422.99 L 199.52 422.99 L 199.23 422.90 L 199.09 422.69 L 199.10 422.36 L 199.27 421.92 L 199.59 421.35 L 200.06 420.66 L 200.69 419.83 L 201.47 418.86 L 202.42 417.76 L 203.52 416.51 L 204.78 415.11 L 206.20 413.56 L 213.40 405.74 L 210.45 403.23 L 210.16 402.97 L 209.83 402.69 L 209.45 402.37 L 209.05 402.01 L 208.61 401.63 L 208.14 401.22 L 207.65 400.79 L 207.14 400.34 L 206.61 399.87 L 206.06 399.39 L 205.50 398.90 L 204.93 398.40 L 204.36 397.89 L 203.78 397.37 L 203.20 396.86 L 202.63 396.35 L 202.06 395.85 L 201.51 395.35 L 200.96 394.87 L 200.42 394.39 L 199.89 393.93 L 199.37 393.49 L 198.86 393.06 L 198.38 392.66 L 197.91 392.27 L 197.46 391.91 L 197.03 391.57 L 196.63 391.26 L 196.26 390.98 L 195.92 390.73 L 195.62 390.52 L 195.35 390.34 L 195.12 390.19 L 194.93 390.09 L 194.78 390.02 L 194.68 390.00 L 194.35 390.10 L 193.85 390.39 L 193.21 390.85 L 192.45 391.47 L 191.58 392.22 L 190.63 393.08 L 189.60 394.04 L 188.53 395.08 L 187.42 396.18 L 186.30 397.33 L 185.18 398.49 L 184.09 399.67 L 183.04 400.82 L 182.04 401.95 L 181.13 403.03 L 180.31 404.03 L 179.60 404.96 L 179.03 405.77 L 178.76 406.19 L 178.48 406.64 L 178.19 407.12 L 177.90 407.62 L 177.61 408.14 L 177.33 408.68 L 177.04 409.23 L 176.75 409.79 L 176.47 410.35 L 176.20 410.92 L 175.93 411.49 L 175.68 412.05 L 175.44 412.61 L 175.21 413.15 L 174.99 413.68 L 174.79 414.20 L 174.61 414.69 L 174.45 415.16 L 174.14 416.13 L 173.90 417.06 L 173.71 417.95 L 173.58 418.80 L 173.50 419.61 L 173.50 420.40 L 173.55 421.16 L 173.67 421.90 L 173.85 422.62 L 174.10 423.32 L 174.42 424.02 L 174.81 424.72 L 175.27 425.41 L 175.80 426.10 L 176.40 426.81 L 177.08 427.52 L 177.83 428.25 L 178.66 429.00 L 179.14 429.42 L 179.60 429.80 L 180.04 430.15 L 180.46 430.45 L 180.87 430.72 L 181.27 430.96 L 181.68 431.16 L 182.10 431.34 L 182.54 431.49 L 183.00 431.62 L 183.49 431.72 L 184.02 431.80 L 184.59 431.87 L 185.20 431.92 L 185.87 431.95 L 186.61 431.97 L 187.41 431.98 L 188.28 431.98 L 188.93 431.97 L 189.57 431.95 L 190.21 431.91 L 190.84 431.87 L 191.48 431.81 L 192.10 431.74 L 192.72 431.66 L 193.32 431.57 L 193.92 431.47 L 194.50 431.36 L 195.07 431.24 L 195.62 431.10 L 196.16 430.96 L 196.68 430.81 L 197.18 430.65 L 197.66 430.48 L 198.11 430.31 L 198.54 430.12 L 198.54 430.12 Z M 342.16 390.55 L 343.53 390.23 L 344.99 389.83 L 346.53 389.36 L 348.13 388.81 L 349.79 388.21 L 351.48 387.54 L 353.21 386.83 L 354.95 386.07 L 356.69 385.28 L 358.43 384.45 L 360.14 383.59 L 361.82 382.71 L 363.45 381.81 L 365.03 380.91 L 366.53 380.00 L 367.96 379.09 L 369.28 378.18 L 370.50 377.30 L 371.07 376.86 L 371.61 376.41 L 372.14 375.96 L 372.65 375.50 L 373.14 375.03 L 373.62 374.55 L 374.08 374.06 L 374.52 373.56 L 374.95 373.06 L 375.37 372.54 L 375.77 372.00 L 376.16 371.46 L 376.53 370.90 L 376.89 370.32 L 377.25 369.73 L 377.59 369.12 L 377.92 368.50 L 378.23 367.86 L 378.53 367.19 L 378.93 366.24 L 379.41 365.01 L 379.98 363.52 L 380.63 361.79 L 381.34 359.84 L 382.13 357.67 L 382.98 355.31 L 383.88 352.76 L 384.83 350.06 L 385.83 347.20 L 386.87 344.22 L 387.94 341.11 L 389.04 337.91 L 390.16 334.62 L 391.30 331.26 L 392.45 327.84 L 393.61 324.39 L 406.25 286.55 L 401.93 282.71 L 401.06 281.97 L 400.11 281.21 L 399.09 280.43 L 398.00 279.65 L 396.85 278.85 L 395.65 278.05 L 394.40 277.26 L 393.12 276.47 L 391.80 275.69 L 390.47 274.92 L 389.11 274.18 L 387.75 273.45 L 386.38 272.76 L 385.02 272.09 L 383.68 271.46 L 382.35 270.87 L 381.05 270.33 L 379.79 269.83 L 379.09 269.56 L 378.45 269.33 L 377.87 269.13 L 377.34 268.95 L 376.86 268.80 L 376.42 268.68 L 376.03 268.59 L 375.67 268.52 L 375.34 268.48 L 375.05 268.47 L 374.78 268.49 L 374.53 268.52 L 374.30 268.59 L 374.08 268.68 L 373.88 268.80 L 373.68 268.94 L 373.48 269.10 L 373.28 269.29 L 373.11 269.49 L 372.99 269.70 L 372.94 269.91 L 372.96 270.14 L 373.06 270.40 L 373.23 270.67 L 373.50 270.98 L 373.86 271.32 L 374.33 271.71 L 374.91 272.13 L 375.60 272.61 L 376.41 273.15 L 377.35 273.74 L 378.42 274.40 L 379.64 275.13 L 381.00 275.94 L 382.52 276.82 L 384.19 277.79 L 387.00 279.40 L 389.46 280.81 L 391.61 282.04 L 393.44 283.11 L 394.99 284.05 L 396.28 284.89 L 397.31 285.65 L 398.10 286.34 L 398.68 287.01 L 399.06 287.66 L 399.26 288.34 L 399.30 289.05 L 399.20 289.82 L 398.96 290.69 L 398.62 291.67 L 398.18 292.78 L 397.67 294.06 L 397.10 295.53 L 396.79 296.37 L 396.40 297.42 L 395.93 298.67 L 395.40 300.10 L 394.81 301.71 L 394.15 303.47 L 393.45 305.38 L 392.70 307.42 L 391.90 309.58 L 391.07 311.85 L 390.20 314.21 L 389.31 316.64 L 388.39 319.14 L 387.45 321.70 L 386.50 324.29 L 385.54 326.92 L 384.58 329.55 L 383.62 332.18 L 382.66 334.79 L 381.71 337.36 L 380.78 339.88 L 379.87 342.32 L 378.97 344.69 L 378.11 346.98 L 377.28 349.16 L 376.48 351.23 L 375.73 353.18 L 375.02 355.00 L 374.36 356.67 L 373.75 358.18 L 373.20 359.53 L 372.72 360.70 L 372.30 361.69 L 371.95 362.47 L 371.68 363.04 L 371.48 363.38 L 371.32 363.62 L 371.14 363.86 L 370.93 364.12 L 370.71 364.38 L 370.47 364.64 L 370.22 364.91 L 369.95 365.17 L 369.68 365.44 L 369.39 365.71 L 369.10 365.97 L 368.79 366.23 L 368.49 366.48 L 368.18 366.72 L 367.87 366.95 L 367.57 367.18 L 367.26 367.39 L 366.96 367.58 L 366.67 367.76 L 365.53 368.40 L 364.27 369.07 L 362.90 369.76 L 361.44 370.45 L 359.92 371.15 L 358.33 371.85 L 356.70 372.54 L 355.05 373.21 L 353.39 373.87 L 351.74 374.50 L 350.11 375.09 L 348.52 375.65 L 346.99 376.16 L 345.54 376.61 L 344.17 377.01 L 342.91 377.35 L 341.77 377.61 L 340.77 377.80 L 339.98 377.92 L 339.26 378.02 L 338.61 378.10 L 338.01 378.17 L 337.47 378.22 L 336.98 378.25 L 336.54 378.26 L 336.14 378.25 L 335.77 378.22 L 335.44 378.17 L 335.13 378.10 L 334.86 378.00 L 334.60 377.88 L 334.35 377.74 L 334.12 377.58 L 333.89 377.39 L 333.67 377.18 L 333.45 376.94 L 332.91 376.24 L 332.38 375.36 L 331.85 374.29 L 331.34 373.07 L 330.85 371.68 L 330.37 370.16 L 329.91 368.50 L 329.47 366.73 L 329.06 364.85 L 328.67 362.87 L 328.32 360.81 L 327.99 358.68 L 327.70 356.48 L 327.44 354.24 L 327.23 351.96 L 327.05 349.66 L 326.92 347.34 L 326.83 345.02 L 326.81 344.10 L 326.77 343.26 L 326.74 342.50 L 326.70 341.81 L 326.65 341.19 L 326.59 340.64 L 326.53 340.16 L 326.46 339.73 L 326.38 339.37 L 326.29 339.06 L 326.19 338.80 L 326.08 338.59 L 325.95 338.43 L 325.81 338.31 L 325.66 338.24 L 325.50 338.20 L 325.31 338.19 L 325.12 338.22 L 324.74 338.35 L 324.39 338.60 L 324.06 338.96 L 323.76 339.42 L 323.48 340.00 L 323.23 340.68 L 323.01 341.46 L 322.82 342.34 L 322.65 343.31 L 322.51 344.38 L 322.39 345.54 L 322.31 346.79 L 322.25 348.13 L 322.23 349.54 L 322.23 351.04 L 322.26 352.62 L 322.33 354.27 L 322.42 356.00 L 322.55 357.78 L 322.69 359.50 L 322.85 361.18 L 323.03 362.81 L 323.23 364.41 L 323.46 365.98 L 323.71 367.53 L 323.99 369.05 L 324.30 370.57 L 324.64 372.08 L 325.01 373.60 L 325.41 375.12 L 325.84 376.65 L 326.31 378.21 L 326.81 379.79 L 327.35 381.41 L 327.93 383.06 L 328.55 384.76 L 329.03 386.05 L 329.46 387.20 L 329.86 388.20 L 330.24 389.07 L 330.63 389.81 L 331.02 390.42 L 331.44 390.92 L 331.91 391.31 L 332.43 391.60 L 333.02 391.79 L 333.71 391.88 L 334.49 391.90 L 335.39 391.83 L 336.42 391.69 L 337.60 391.49 L 338.94 391.23 L 340.45 390.92 L 342.16 390.55 L 342.16 390.55 Z M 289.73 366.42 L 289.94 366.06 L 290.13 365.68 L 290.33 365.28 L 290.51 364.88 L 290.69 364.48 L 290.86 364.07 L 291.02 363.66 L 291.17 363.25 L 291.32 362.84 L 291.45 362.44 L 291.56 362.05 L 291.67 361.67 L 291.76 361.31 L 291.84 360.95 L 291.90 360.62 L 291.94 360.31 L 291.97 360.02 L 291.98 359.75 L 291.98 359.33 L 291.97 358.96 L 291.95 358.63 L 291.91 358.34 L 291.85 358.08 L 291.76 357.86 L 291.64 357.67 L 291.48 357.52 L 291.29 357.38 L 291.04 357.28 L 290.75 357.19 L 290.40 357.13 L 289.99 357.08 L 289.52 357.04 L 288.98 357.02 L 288.37 357.01 L 287.68 357.00 L 286.91 357.00 L 284.64 356.93 L 282.17 356.73 L 279.53 356.41 L 276.75 355.98 L 273.87 355.45 L 270.90 354.82 L 267.89 354.11 L 264.86 353.33 L 261.85 352.48 L 258.89 351.57 L 256.01 350.62 L 253.25 349.63 L 250.63 348.61 L 248.18 347.57 L 245.94 346.53 L 243.94 345.48 L 242.22 344.45 L 240.79 343.43 L 240.02 342.84 L 239.27 342.31 L 238.55 341.83 L 237.84 341.41 L 237.15 341.06 L 236.47 340.75 L 235.81 340.51 L 235.17 340.32 L 234.54 340.19 L 233.92 340.12 L 233.31 340.10 L 232.71 340.14 L 232.12 340.24 L 231.53 340.39 L 230.95 340.60 L 230.37 340.86 L 229.80 341.18 L 229.22 341.56 L 228.83 341.88 L 228.47 342.26 L 228.14 342.70 L 227.86 343.19 L 227.61 343.71 L 227.40 344.27 L 227.23 344.85 L 227.10 345.45 L 227.01 346.06 L 226.96 346.67 L 226.96 347.28 L 227.00 347.87 L 227.08 348.45 L 227.21 349.00 L 227.39 349.52 L 227.61 350.00 L 227.88 350.43 L 228.20 350.80 L 228.50 351.09 L 228.78 351.34 L 229.04 351.54 L 229.27 351.70 L 229.49 351.82 L 229.68 351.90 L 229.85 351.93 L 229.99 351.92 L 230.12 351.87 L 230.22 351.78 L 230.30 351.64 L 230.36 351.46 L 230.40 351.24 L 230.41 350.98 L 230.40 350.67 L 230.37 350.32 L 230.32 349.93 L 230.24 349.49 L 230.17 349.01 L 230.14 348.54 L 230.15 348.07 L 230.20 347.62 L 230.29 347.19 L 230.41 346.77 L 230.56 346.38 L 230.75 346.00 L 230.97 345.65 L 231.22 345.33 L 231.49 345.04 L 231.79 344.78 L 232.12 344.55 L 232.46 344.36 L 232.83 344.20 L 233.22 344.09 L 233.63 344.02 L 234.05 344.00 L 234.88 344.08 L 235.64 344.29 L 236.33 344.64 L 236.95 345.09 L 237.50 345.65 L 237.96 346.30 L 238.34 347.02 L 238.64 347.80 L 238.85 348.62 L 238.98 349.48 L 239.01 350.36 L 238.94 351.24 L 238.78 352.11 L 238.52 352.97 L 238.16 353.78 L 237.69 354.55 L 237.11 355.26 L 236.42 355.89 L 235.55 356.54 L 234.71 357.10 L 233.90 357.57 L 233.11 357.95 L 232.35 358.25 L 231.62 358.45 L 230.90 358.57 L 230.20 358.60 L 229.53 358.53 L 228.87 358.38 L 228.23 358.13 L 227.60 357.79 L 226.98 357.37 L 226.38 356.85 L 225.79 356.24 L 225.20 355.53 L 224.63 354.74 L 224.06 353.85 L 223.70 353.30 L 223.36 352.84 L 223.04 352.46 L 222.74 352.17 L 222.46 351.97 L 222.20 351.84 L 221.97 351.80 L 221.76 351.84 L 221.58 351.96 L 221.42 352.16 L 221.30 352.43 L 221.21 352.78 L 221.15 353.20 L 221.13 353.69 L 221.14 354.26 L 221.19 354.89 L 221.28 355.59 L 221.41 356.35 L 221.56 357.02 L 221.78 357.65 L 222.06 358.26 L 222.40 358.84 L 222.79 359.38 L 223.23 359.89 L 223.73 360.36 L 224.27 360.80 L 224.87 361.21 L 225.51 361.57 L 226.20 361.90 L 226.93 362.19 L 227.71 362.43 L 228.52 362.64 L 229.38 362.80 L 230.27 362.92 L 231.19 363.00 L 232.15 363.02 L 232.58 363.03 L 233.05 363.06 L 233.56 363.10 L 234.12 363.15 L 234.71 363.22 L 235.33 363.30 L 235.98 363.39 L 236.65 363.49 L 237.34 363.60 L 238.04 363.72 L 238.75 363.85 L 239.47 363.99 L 240.20 364.14 L 240.92 364.29 L 241.63 364.45 L 242.33 364.62 L 243.02 364.79 L 243.69 364.96 L 245.50 365.41 L 247.62 365.87 L 249.99 366.34 L 252.58 366.81 L 255.34 367.28 L 258.22 367.74 L 261.19 368.19 L 264.19 368.62 L 267.19 369.02 L 270.13 369.39 L 272.98 369.73 L 275.69 370.02 L 278.21 370.26 L 280.51 370.44 L 282.53 370.57 L 284.23 370.63 L 285.57 370.62 L 286.50 370.53 L 286.60 370.49 L 286.72 370.43 L 286.85 370.34 L 286.99 370.22 L 287.14 370.07 L 287.31 369.90 L 287.49 369.70 L 287.67 369.48 L 287.86 369.25 L 288.06 368.99 L 288.26 368.71 L 288.47 368.42 L 288.68 368.12 L 288.89 367.80 L 289.11 367.47 L 289.32 367.13 L 289.53 366.78 L 289.73 366.42 L 289.73 366.42 Z M 275.50 367.33 L 273.35 367.14 L 271.15 366.91 L 268.92 366.66 L 266.68 366.38 L 264.42 366.07 L 262.18 365.74 L 259.96 365.39 L 257.79 365.02 L 255.66 364.64 L 253.60 364.25 L 251.62 363.84 L 249.74 363.44 L 247.97 363.02 L 246.32 362.61 L 244.81 362.20 L 243.46 361.79 L 242.27 361.39 L 241.26 361.00 L 239.02 360.05 L 241.26 356.65 L 241.47 356.34 L 241.68 356.02 L 241.89 355.69 L 242.10 355.37 L 242.32 355.04 L 242.53 354.72 L 242.73 354.40 L 242.94 354.09 L 243.14 353.78 L 243.33 353.48 L 243.51 353.20 L 243.69 352.92 L 243.86 352.66 L 244.01 352.42 L 244.15 352.20 L 244.28 351.99 L 244.40 351.81 L 244.50 351.65 L 244.65 351.43 L 244.83 351.24 L 245.02 351.09 L 245.26 350.97 L 245.53 350.89 L 245.86 350.85 L 246.25 350.85 L 246.71 350.89 L 247.25 350.98 L 247.87 351.11 L 248.59 351.29 L 249.41 351.52 L 250.34 351.80 L 251.40 352.13 L 252.58 352.51 L 253.91 352.95 L 255.38 353.45 L 257.00 354.00 L 258.28 354.44 L 259.56 354.85 L 260.82 355.25 L 262.07 355.63 L 263.31 355.99 L 264.54 356.34 L 265.77 356.66 L 266.98 356.97 L 268.19 357.26 L 269.39 357.54 L 270.58 357.79 L 271.77 358.03 L 272.94 358.26 L 274.12 358.46 L 275.28 358.65 L 276.44 358.82 L 277.60 358.98 L 278.75 359.12 L 279.68 359.23 L 280.59 359.34 L 281.47 359.46 L 282.32 359.58 L 283.13 359.70 L 283.91 359.83 L 284.65 359.96 L 285.34 360.08 L 285.99 360.21 L 286.58 360.33 L 287.12 360.45 L 287.60 360.57 L 288.01 360.69 L 288.36 360.80 L 288.63 360.91 L 288.83 361.01 L 288.96 361.10 L 289.00 361.19 L 288.99 361.29 L 288.98 361.40 L 288.95 361.54 L 288.90 361.69 L 288.85 361.86 L 288.79 362.05 L 288.72 362.26 L 288.64 362.47 L 288.55 362.70 L 288.46 362.94 L 288.35 363.18 L 288.24 363.44 L 288.13 363.70 L 288.01 363.97 L 287.88 364.24 L 287.75 364.51 L 287.61 364.78 L 287.47 365.05 L 287.22 365.54 L 286.98 365.98 L 286.74 366.36 L 286.50 366.69 L 286.23 366.98 L 285.94 367.21 L 285.59 367.41 L 285.20 367.56 L 284.73 367.68 L 284.19 367.76 L 283.55 367.80 L 282.81 367.81 L 281.95 367.79 L 280.97 367.75 L 279.84 367.67 L 278.56 367.58 L 277.12 367.47 L 275.50 367.33 L 275.50 367.33 Z M 373.28 308.82 L 378.24 305.63 L 377.74 299.31 L 377.64 298.17 L 377.53 297.13 L 377.40 296.19 L 377.26 295.32 L 377.09 294.53 L 376.90 293.81 L 376.67 293.15 L 376.41 292.54 L 376.10 291.98 L 375.76 291.46 L 375.36 290.98 L 374.91 290.52 L 374.40 290.08 L 373.83 289.65 L 373.20 289.23 L 372.49 288.81 L 371.71 288.38 L 370.86 287.93 L 370.13 287.56 L 369.46 287.24 L 368.85 286.95 L 368.29 286.71 L 367.78 286.51 L 367.32 286.35 L 366.91 286.22 L 366.55 286.14 L 366.23 286.10 L 365.95 286.10 L 365.71 286.13 L 365.51 286.21 L 365.35 286.33 L 365.22 286.48 L 365.12 286.67 L 365.05 286.91 L 365.01 287.18 L 365.00 287.49 L 364.99 287.66 L 364.95 287.91 L 364.89 288.22 L 364.81 288.59 L 364.71 289.03 L 364.59 289.52 L 364.45 290.06 L 364.29 290.66 L 364.12 291.29 L 363.93 291.97 L 363.73 292.68 L 363.51 293.42 L 363.28 294.19 L 363.04 294.99 L 362.80 295.81 L 362.54 296.64 L 362.27 297.49 L 362.00 298.34 L 361.73 299.19 L 361.46 300.03 L 361.20 300.85 L 360.96 301.64 L 360.72 302.41 L 360.49 303.15 L 360.27 303.86 L 360.07 304.53 L 359.88 305.16 L 359.71 305.75 L 359.55 306.28 L 359.41 306.77 L 359.29 307.20 L 359.19 307.57 L 359.11 307.88 L 359.05 308.13 L 359.01 308.30 L 359.00 308.40 L 359.05 308.56 L 359.21 308.74 L 359.45 308.95 L 359.77 309.18 L 360.16 309.43 L 360.61 309.68 L 361.11 309.95 L 361.65 310.21 L 362.21 310.47 L 362.80 310.73 L 363.39 310.97 L 363.98 311.20 L 364.56 311.41 L 365.11 311.59 L 365.64 311.74 L 366.12 311.85 L 366.55 311.93 L 366.91 311.96 L 367.06 311.95 L 367.25 311.92 L 367.46 311.86 L 367.72 311.77 L 368.00 311.67 L 368.30 311.54 L 368.64 311.40 L 368.99 311.24 L 369.37 311.05 L 369.76 310.86 L 370.17 310.64 L 370.59 310.42 L 371.03 310.17 L 371.47 309.92 L 371.92 309.66 L 372.37 309.39 L 372.83 309.11 L 373.28 308.82 L 373.28 308.82 Z M 340.47 297.75 L 339.98 296.22 L 339.41 294.70 L 338.77 293.21 L 338.05 291.75 L 337.26 290.32 L 336.41 288.92 L 335.49 287.56 L 334.51 286.24 L 333.48 284.97 L 332.39 283.75 L 331.25 282.57 L 330.06 281.46 L 328.83 280.40 L 327.55 279.40 L 326.24 278.48 L 324.89 277.62 L 323.50 276.83 L 322.09 276.12 L 321.21 275.71 L 320.40 275.35 L 319.63 275.02 L 318.86 274.74 L 318.08 274.50 L 317.24 274.29 L 316.33 274.11 L 315.31 273.96 L 314.14 273.84 L 312.81 273.74 L 311.28 273.66 L 309.52 273.60 L 307.50 273.56 L 305.20 273.53 L 302.57 273.51 L 299.60 273.50 L 296.25 273.50 L 292.50 273.50 L 268.50 273.50 L 262.64 270.62 L 261.93 270.26 L 261.20 269.85 L 260.43 269.38 L 259.64 268.87 L 258.80 268.30 L 257.93 267.67 L 257.02 266.98 L 256.06 266.23 L 255.06 265.42 L 254.02 264.55 L 252.92 263.60 L 251.77 262.59 L 250.56 261.51 L 249.29 260.35 L 247.97 259.12 L 246.58 257.81 L 245.13 256.42 L 243.60 254.96 L 230.43 242.17 L 226.47 246.68 L 225.44 247.87 L 224.48 249.01 L 223.60 250.10 L 222.79 251.15 L 222.05 252.15 L 221.38 253.11 L 220.78 254.03 L 220.25 254.91 L 219.79 255.75 L 219.39 256.56 L 219.06 257.34 L 218.80 258.08 L 218.60 258.80 L 218.46 259.49 L 218.38 260.15 L 218.36 260.79 L 218.40 261.41 L 218.50 262.01 L 218.79 262.83 L 219.31 263.83 L 220.06 265.00 L 221.00 266.31 L 222.12 267.75 L 223.40 269.28 L 224.82 270.90 L 226.35 272.58 L 227.98 274.29 L 229.69 276.03 L 231.45 277.75 L 233.24 279.45 L 235.05 281.11 L 236.85 282.69 L 238.63 284.19 L 240.35 285.57 L 242.00 286.82 L 243.57 287.92 L 246.13 289.60 L 248.57 291.11 L 250.94 292.47 L 253.28 293.68 L 255.64 294.76 L 258.06 295.70 L 260.59 296.52 L 263.27 297.23 L 266.14 297.83 L 269.26 298.34 L 272.66 298.76 L 276.40 299.09 L 280.51 299.36 L 285.05 299.56 L 290.05 299.71 L 295.57 299.81 L 301.64 299.87 L 308.32 299.91 L 341.13 300.00 L 340.47 297.75 Z M 299.75 266.42 L 300.04 266.29 L 300.33 266.17 L 300.61 266.04 L 300.88 265.91 L 301.14 265.78 L 301.39 265.64 L 301.62 265.51 L 301.84 265.38 L 302.04 265.25 L 302.23 265.13 L 302.40 265.00 L 302.55 264.88 L 302.68 264.77 L 302.79 264.66 L 302.88 264.56 L 302.95 264.47 L 302.98 264.38 L 303.00 264.30 L 302.98 264.22 L 302.91 264.13 L 302.80 264.03 L 302.65 263.92 L 302.46 263.80 L 302.23 263.67 L 301.98 263.54 L 301.68 263.40 L 301.36 263.25 L 301.01 263.10 L 300.64 262.95 L 300.23 262.80 L 299.81 262.64 L 299.37 262.48 L 298.91 262.32 L 298.43 262.17 L 297.94 262.01 L 297.43 261.86 L 291.87 260.22 L 290.93 262.68 L 290.85 262.91 L 290.77 263.15 L 290.69 263.40 L 290.61 263.65 L 290.53 263.91 L 290.46 264.17 L 290.40 264.44 L 290.33 264.71 L 290.27 264.97 L 290.22 265.23 L 290.17 265.49 L 290.13 265.74 L 290.09 265.99 L 290.06 266.22 L 290.03 266.45 L 290.02 266.66 L 290.00 266.86 L 290.00 267.04 L 290.00 267.30 L 290.02 267.53 L 290.05 267.73 L 290.09 267.91 L 290.15 268.07 L 290.23 268.21 L 290.33 268.32 L 290.45 268.42 L 290.60 268.49 L 290.76 268.54 L 290.96 268.57 L 291.19 268.59 L 291.44 268.59 L 291.73 268.57 L 292.06 268.53 L 292.42 268.48 L 292.81 268.42 L 293.25 268.34 L 293.56 268.28 L 293.88 268.21 L 294.23 268.13 L 294.59 268.04 L 294.95 267.95 L 295.33 267.85 L 295.72 267.75 L 296.11 267.64 L 296.50 267.52 L 296.89 267.40 L 297.28 267.28 L 297.67 267.16 L 298.05 267.04 L 298.41 266.91 L 298.77 266.79 L 299.12 266.66 L 299.44 266.54 L 299.75 266.42 L 299.75 266.42 Z M 270.16 260.15 L 269.81 253.98 L 273.66 252.38 L 274.01 252.24 L 274.35 252.09 L 274.69 251.95 L 275.02 251.81 L 275.33 251.67 L 275.64 251.54 L 275.93 251.41 L 276.21 251.28 L 276.47 251.17 L 276.71 251.05 L 276.94 250.95 L 277.14 250.85 L 277.32 250.76 L 277.48 250.68 L 277.61 250.62 L 277.71 250.56 L 277.79 250.51 L 277.84 250.48 L 277.85 250.43 L 277.83 250.34 L 277.78 250.21 L 277.70 250.05 L 277.59 249.85 L 277.46 249.62 L 277.29 249.36 L 277.11 249.08 L 276.90 248.76 L 276.66 248.43 L 276.41 248.07 L 276.14 247.69 L 275.85 247.29 L 275.54 246.88 L 275.22 246.45 L 274.88 246.00 L 274.53 245.55 L 274.17 245.09 L 273.21 243.86 L 272.30 242.64 L 271.41 241.41 L 270.57 240.18 L 269.75 238.95 L 268.97 237.72 L 268.22 236.49 L 267.51 235.25 L 266.83 234.00 L 266.17 232.74 L 265.55 231.48 L 264.96 230.21 L 264.40 228.93 L 263.87 227.63 L 263.36 226.33 L 262.89 225.01 L 262.44 223.67 L 262.01 222.32 L 259.85 215.14 L 255.28 218.04 L 254.47 218.53 L 253.64 219.02 L 252.78 219.49 L 251.89 219.95 L 250.98 220.39 L 250.04 220.82 L 249.09 221.23 L 248.12 221.63 L 247.14 222.01 L 246.14 222.37 L 245.12 222.71 L 244.10 223.04 L 243.07 223.34 L 242.03 223.62 L 240.99 223.89 L 239.95 224.13 L 238.90 224.35 L 237.85 224.54 L 237.29 224.64 L 236.79 224.74 L 236.34 224.84 L 235.95 224.95 L 235.60 225.07 L 235.30 225.22 L 235.03 225.39 L 234.80 225.59 L 234.60 225.83 L 234.43 226.11 L 234.28 226.44 L 234.15 226.83 L 234.04 227.28 L 233.93 227.80 L 233.83 228.38 L 233.73 229.05 L 233.63 229.80 L 233.53 230.64 L 233.43 231.43 L 233.35 232.14 L 233.29 232.79 L 233.25 233.39 L 233.23 233.94 L 233.23 234.44 L 233.26 234.91 L 233.30 235.35 L 233.38 235.77 L 233.48 236.17 L 233.61 236.56 L 233.77 236.94 L 233.96 237.33 L 234.18 237.72 L 234.44 238.13 L 234.74 238.56 L 235.07 239.01 L 235.43 239.50 L 236.66 241.00 L 238.18 242.67 L 239.97 244.49 L 241.97 246.42 L 244.14 248.42 L 246.44 250.48 L 248.84 252.55 L 251.29 254.60 L 253.75 256.59 L 256.17 258.50 L 258.52 260.29 L 260.76 261.92 L 262.84 263.38 L 264.72 264.61 L 266.36 265.59 L 267.72 266.28 L 268.76 266.66 L 269.44 266.69 L 269.54 266.63 L 269.64 266.53 L 269.73 266.39 L 269.81 266.21 L 269.89 265.99 L 269.96 265.73 L 270.02 265.44 L 270.07 265.11 L 270.12 264.75 L 270.16 264.36 L 270.19 263.93 L 270.21 263.47 L 270.22 262.99 L 270.23 262.47 L 270.22 261.93 L 270.21 261.36 L 270.19 260.77 L 270.16 260.15 L 270.16 260.15 Z M 379.60 259.52 L 380.22 259.25 L 380.75 258.99 L 381.22 258.73 L 381.61 258.48 L 381.93 258.24 L 382.17 258.00 L 382.35 257.76 L 382.44 257.53 L 382.47 257.31 L 382.42 257.09 L 382.30 256.88 L 382.10 256.68 L 381.84 256.48 L 381.49 256.28 L 381.08 256.09 L 380.59 255.91 L 380.03 255.73 L 379.39 255.56 L 378.79 255.47 L 378.07 255.47 L 377.24 255.54 L 376.34 255.67 L 375.38 255.87 L 374.38 256.12 L 373.36 256.41 L 372.35 256.74 L 371.37 257.09 L 370.44 257.47 L 369.57 257.85 L 368.80 258.24 L 368.14 258.62 L 367.61 258.99 L 367.23 259.34 L 367.03 259.65 L 367.03 259.94 L 367.24 260.17 L 367.62 260.37 L 368.08 260.54 L 368.60 260.68 L 369.18 260.79 L 369.82 260.88 L 370.50 260.93 L 371.22 260.96 L 371.98 260.96 L 372.75 260.93 L 373.55 260.87 L 374.35 260.79 L 375.15 260.69 L 375.95 260.55 L 376.74 260.40 L 377.50 260.21 L 378.24 260.01 L 378.94 259.78 L 379.60 259.52 L 379.60 259.52 Z M 316.35 255.40 L 317.02 255.18 L 317.67 254.98 L 318.31 254.81 L 318.95 254.66 L 319.61 254.54 L 320.30 254.43 L 321.03 254.35 L 321.80 254.29 L 322.64 254.26 L 323.55 254.24 L 324.54 254.25 L 325.62 254.27 L 326.81 254.32 L 328.12 254.38 L 329.55 254.47 L 331.12 254.57 L 332.84 254.70 L 334.72 254.84 L 335.96 254.93 L 337.18 255.02 L 338.37 255.10 L 339.52 255.17 L 340.64 255.24 L 341.71 255.30 L 342.73 255.35 L 343.70 255.39 L 344.60 255.43 L 345.44 255.46 L 346.21 255.48 L 346.91 255.49 L 347.52 255.50 L 348.05 255.49 L 348.48 255.48 L 348.82 255.46 L 349.06 255.42 L 349.19 255.38 L 349.26 255.33 L 349.33 255.27 L 349.40 255.20 L 349.47 255.12 L 349.54 255.03 L 349.60 254.93 L 349.66 254.83 L 349.71 254.72 L 349.76 254.61 L 349.81 254.49 L 349.85 254.36 L 349.89 254.24 L 349.92 254.11 L 349.95 253.97 L 349.97 253.84 L 349.99 253.71 L 350.00 253.57 L 350.00 253.44 L 349.99 253.26 L 349.94 253.10 L 349.87 252.95 L 349.76 252.81 L 349.61 252.69 L 349.43 252.58 L 349.21 252.48 L 348.94 252.39 L 348.63 252.31 L 348.28 252.24 L 347.88 252.18 L 347.43 252.13 L 346.92 252.09 L 346.37 252.05 L 345.76 252.03 L 345.09 252.01 L 344.36 252.00 L 343.57 252.00 L 342.40 251.98 L 341.15 251.93 L 339.84 251.84 L 338.47 251.72 L 337.06 251.56 L 335.62 251.38 L 334.15 251.18 L 332.68 250.95 L 331.22 250.70 L 329.76 250.42 L 328.33 250.13 L 326.94 249.83 L 325.60 249.51 L 324.31 249.18 L 323.10 248.84 L 321.97 248.49 L 320.93 248.13 L 320.00 247.78 L 316.89 246.50 L 328.05 241.69 L 330.05 240.83 L 331.94 239.99 L 333.72 239.18 L 335.39 238.40 L 336.96 237.65 L 338.42 236.92 L 339.77 236.23 L 341.01 235.56 L 342.15 234.92 L 343.18 234.32 L 344.11 233.73 L 344.93 233.18 L 345.65 232.65 L 346.26 232.15 L 346.77 231.68 L 347.17 231.23 L 347.47 230.81 L 347.67 230.42 L 347.75 230.04 L 347.75 229.52 L 347.69 228.87 L 347.55 228.10 L 347.35 227.22 L 347.09 226.24 L 346.77 225.16 L 346.40 224.01 L 345.97 222.78 L 345.50 221.48 L 344.98 220.14 L 344.43 218.75 L 343.83 217.32 L 343.20 215.87 L 342.54 214.40 L 341.86 212.93 L 341.14 211.46 L 340.41 210.00 L 339.63 208.47 L 338.95 207.13 L 338.34 205.95 L 337.80 204.93 L 337.31 204.07 L 336.86 203.34 L 336.44 202.75 L 336.04 202.27 L 335.65 201.91 L 335.24 201.65 L 334.81 201.48 L 334.35 201.39 L 333.84 201.38 L 333.28 201.43 L 332.64 201.53 L 331.92 201.67 L 331.10 201.85 L 330.17 202.06 L 329.71 202.16 L 329.25 202.27 L 328.80 202.37 L 328.37 202.48 L 327.96 202.60 L 327.57 202.71 L 327.20 202.82 L 326.85 202.93 L 326.52 203.04 L 326.22 203.14 L 325.95 203.25 L 325.71 203.34 L 325.50 203.44 L 325.33 203.53 L 325.19 203.62 L 325.09 203.70 L 325.02 203.77 L 325.00 203.83 L 325.01 203.91 L 325.03 204.00 L 325.07 204.12 L 325.12 204.25 L 325.18 204.41 L 325.26 204.58 L 325.34 204.77 L 325.44 204.97 L 325.54 205.19 L 325.66 205.41 L 325.78 205.65 L 325.91 205.90 L 326.05 206.15 L 326.20 206.41 L 326.35 206.68 L 326.50 206.95 L 326.66 207.23 L 326.83 207.50 L 327.22 208.17 L 327.61 208.91 L 328.01 209.72 L 328.40 210.58 L 328.80 211.49 L 329.18 212.43 L 329.56 213.39 L 329.92 214.36 L 330.27 215.34 L 330.59 216.31 L 330.89 217.25 L 331.16 218.17 L 331.40 219.04 L 331.60 219.87 L 331.76 220.63 L 331.88 221.32 L 331.95 221.92 L 331.97 222.43 L 331.96 222.69 L 331.94 222.91 L 331.92 223.09 L 331.88 223.24 L 331.83 223.34 L 331.77 223.41 L 331.69 223.44 L 331.60 223.42 L 331.50 223.37 L 331.38 223.27 L 331.24 223.13 L 331.09 222.95 L 330.91 222.72 L 330.72 222.45 L 330.50 222.13 L 330.26 221.77 L 330.00 221.36 L 329.72 220.91 L 329.03 219.83 L 328.30 218.76 L 327.54 217.70 L 326.75 216.67 L 325.95 215.66 L 325.13 214.68 L 324.30 213.75 L 323.48 212.86 L 322.66 212.02 L 321.85 211.25 L 321.07 210.54 L 320.31 209.91 L 319.58 209.35 L 318.90 208.88 L 318.26 208.51 L 317.68 208.23 L 317.15 208.06 L 316.69 208.00 L 316.65 208.02 L 316.61 208.08 L 316.56 208.18 L 316.50 208.31 L 316.44 208.47 L 316.39 208.67 L 316.32 208.90 L 316.26 209.16 L 316.19 209.44 L 316.13 209.75 L 316.06 210.08 L 315.99 210.44 L 315.93 210.81 L 315.86 211.20 L 315.79 211.61 L 315.73 212.03 L 315.67 212.46 L 315.61 212.91 L 315.54 213.38 L 315.46 213.88 L 315.37 214.41 L 315.26 214.97 L 315.14 215.55 L 315.02 216.15 L 314.88 216.76 L 314.73 217.38 L 314.58 218.02 L 314.42 218.65 L 314.26 219.29 L 314.09 219.92 L 313.92 220.54 L 313.74 221.15 L 313.57 221.75 L 313.39 222.32 L 313.21 222.88 L 313.03 223.40 L 311.11 228.99 L 313.80 230.46 L 314.22 230.69 L 314.59 230.89 L 314.91 231.07 L 315.16 231.23 L 315.36 231.36 L 315.50 231.48 L 315.57 231.58 L 315.57 231.67 L 315.51 231.74 L 315.38 231.79 L 315.17 231.84 L 314.89 231.87 L 314.54 231.90 L 314.10 231.92 L 313.58 231.93 L 312.97 231.94 L 312.28 231.95 L 311.50 231.95 L 310.54 231.92 L 309.55 231.84 L 308.52 231.70 L 307.46 231.50 L 306.39 231.26 L 305.31 230.97 L 304.23 230.63 L 303.16 230.26 L 302.10 229.85 L 301.07 229.41 L 300.08 228.94 L 299.13 228.44 L 298.22 227.92 L 297.38 227.38 L 296.60 226.83 L 295.90 226.26 L 295.28 225.69 L 294.75 225.11 L 294.45 224.73 L 294.18 224.35 L 293.93 223.98 L 293.71 223.62 L 293.52 223.27 L 293.36 222.94 L 293.23 222.62 L 293.13 222.33 L 293.06 222.07 L 293.02 221.84 L 293.01 221.64 L 293.04 221.47 L 293.10 221.35 L 293.20 221.27 L 293.33 221.24 L 293.50 221.26 L 293.71 221.34 L 293.95 221.47 L 294.10 221.53 L 294.25 221.51 L 294.39 221.43 L 294.54 221.29 L 294.68 221.08 L 294.82 220.80 L 294.97 220.46 L 295.10 220.07 L 295.24 219.61 L 295.37 219.09 L 295.50 218.52 L 295.62 217.89 L 295.74 217.20 L 295.86 216.46 L 295.97 215.67 L 296.07 214.83 L 296.17 213.94 L 296.27 213.00 L 296.29 212.68 L 296.31 212.38 L 296.31 212.12 L 296.30 211.87 L 296.27 211.66 L 296.23 211.46 L 296.17 211.29 L 296.10 211.14 L 296.01 211.01 L 295.90 210.90 L 295.77 210.81 L 295.62 210.73 L 295.45 210.67 L 295.26 210.63 L 295.04 210.60 L 294.80 210.58 L 294.54 210.57 L 294.25 210.58 L 293.84 210.59 L 293.47 210.57 L 293.14 210.54 L 292.86 210.49 L 292.62 210.43 L 292.42 210.34 L 292.27 210.24 L 292.16 210.12 L 292.10 209.99 L 292.08 209.83 L 292.10 209.66 L 292.17 209.47 L 292.28 209.27 L 292.44 209.05 L 292.64 208.81 L 292.88 208.56 L 293.17 208.29 L 293.50 208.00 L 293.88 207.67 L 294.21 207.36 L 294.47 207.06 L 294.67 206.79 L 294.81 206.54 L 294.89 206.31 L 294.91 206.10 L 294.87 205.90 L 294.77 205.73 L 294.61 205.57 L 294.39 205.44 L 294.11 205.32 L 293.76 205.22 L 293.35 205.14 L 292.88 205.08 L 292.35 205.04 L 291.76 205.01 L 291.11 205.00 L 290.45 204.99 L 289.85 204.96 L 289.30 204.90 L 288.80 204.81 L 288.35 204.70 L 287.95 204.55 L 287.59 204.37 L 287.28 204.15 L 287.01 203.89 L 286.77 203.59 L 286.57 203.25 L 286.41 202.86 L 286.27 202.42 L 286.17 201.93 L 286.09 201.38 L 286.04 200.78 L 286.01 200.12 L 286.00 199.40 L 286.00 199.02 L 286.01 198.69 L 286.02 198.40 L 286.04 198.15 L 286.06 197.94 L 286.11 197.78 L 286.17 197.65 L 286.24 197.56 L 286.34 197.50 L 286.46 197.49 L 286.60 197.51 L 286.77 197.57 L 286.98 197.66 L 287.21 197.78 L 287.48 197.94 L 287.79 198.13 L 288.13 198.35 L 288.52 198.60 L 289.43 199.06 L 290.60 199.41 L 291.99 199.66 L 293.60 199.81 L 295.41 199.86 L 297.39 199.82 L 299.53 199.69 L 301.81 199.47 L 304.21 199.16 L 306.70 198.77 L 309.28 198.30 L 311.91 197.75 L 314.59 197.12 L 317.29 196.43 L 319.99 195.66 L 322.67 194.83 L 325.32 193.93 L 327.92 192.97 L 335.87 189.91 L 338.04 183.39 L 338.23 182.80 L 338.42 182.22 L 338.60 181.65 L 338.77 181.10 L 338.93 180.57 L 339.08 180.06 L 339.22 179.57 L 339.35 179.11 L 339.46 178.68 L 339.56 178.28 L 339.65 177.91 L 339.73 177.59 L 339.79 177.29 L 339.83 177.05 L 339.86 176.84 L 339.87 176.68 L 339.87 176.57 L 339.84 176.51 L 339.77 176.49 L 339.63 176.49 L 339.41 176.50 L 339.12 176.54 L 338.77 176.60 L 338.36 176.67 L 337.89 176.76 L 337.37 176.86 L 336.80 176.99 L 336.18 177.12 L 335.52 177.27 L 334.82 177.43 L 334.08 177.61 L 333.32 177.79 L 332.52 177.99 L 331.70 178.20 L 330.85 178.41 L 329.99 178.64 L 327.58 179.22 L 324.96 179.74 L 322.17 180.22 L 319.26 180.64 L 316.27 181.00 L 313.24 181.31 L 310.21 181.56 L 307.23 181.75 L 304.33 181.88 L 301.56 181.95 L 298.96 181.95 L 296.57 181.89 L 294.43 181.76 L 292.59 181.57 L 291.08 181.30 L 289.95 180.96 L 289.25 180.55 L 289.00 180.07 L 289.01 179.98 L 289.06 179.88 L 289.13 179.77 L 289.22 179.64 L 289.34 179.49 L 289.48 179.33 L 289.64 179.16 L 289.82 178.99 L 290.03 178.80 L 290.25 178.60 L 290.48 178.40 L 290.73 178.19 L 291.00 177.97 L 291.28 177.76 L 291.57 177.54 L 291.87 177.32 L 292.18 177.10 L 292.49 176.88 L 292.81 176.66 L 293.12 176.44 L 293.42 176.22 L 293.71 176.01 L 293.99 175.79 L 294.25 175.59 L 294.51 175.38 L 294.74 175.19 L 294.96 175.00 L 295.16 174.82 L 295.35 174.64 L 295.51 174.48 L 295.65 174.34 L 295.77 174.20 L 295.87 174.08 L 295.94 173.97 L 295.98 173.88 L 295.99 173.81 L 295.97 173.75 L 295.92 173.68 L 295.82 173.61 L 295.70 173.53 L 295.54 173.46 L 295.35 173.38 L 295.13 173.30 L 294.88 173.22 L 294.60 173.14 L 294.30 173.06 L 293.98 172.98 L 293.64 172.91 L 293.28 172.83 L 292.90 172.76 L 292.51 172.69 L 292.10 172.62 L 291.68 172.56 L 291.25 172.50 L 290.80 172.44 L 290.33 172.37 L 289.84 172.30 L 289.33 172.23 L 288.80 172.15 L 288.27 172.07 L 287.72 171.99 L 287.17 171.90 L 286.63 171.81 L 286.08 171.73 L 285.54 171.64 L 285.01 171.55 L 284.49 171.46 L 283.98 171.37 L 283.49 171.29 L 283.03 171.20 L 282.59 171.12 L 282.18 171.04 L 281.62 170.94 L 281.12 170.85 L 280.65 170.78 L 280.22 170.72 L 279.83 170.68 L 279.48 170.65 L 279.15 170.65 L 278.87 170.65 L 278.61 170.68 L 278.38 170.72 L 278.17 170.78 L 277.99 170.86 L 277.83 170.95 L 277.69 171.06 L 277.56 171.20 L 277.46 171.35 L 277.36 171.52 L 277.28 171.71 L 277.23 171.90 L 277.19 172.21 L 277.16 172.62 L 277.14 173.13 L 277.12 173.73 L 277.12 174.43 L 277.12 175.20 L 277.12 176.05 L 277.14 176.98 L 277.16 177.97 L 277.19 179.02 L 277.23 180.12 L 277.28 181.27 L 277.33 182.46 L 277.39 183.69 L 277.45 184.96 L 277.53 186.24 L 277.60 187.55 L 277.74 189.77 L 277.86 191.74 L 277.96 193.50 L 278.04 195.06 L 278.10 196.43 L 278.13 197.63 L 278.14 198.67 L 278.13 199.58 L 278.08 200.36 L 278.01 201.04 L 277.91 201.63 L 277.78 202.16 L 277.61 202.62 L 277.41 203.05 L 277.18 203.45 L 276.91 203.85 L 276.60 204.26 L 276.25 204.70 L 274.01 207.50 L 274.00 203.81 L 273.99 202.94 L 273.94 202.18 L 273.87 201.52 L 273.77 200.96 L 273.63 200.50 L 273.48 200.15 L 273.29 199.89 L 273.08 199.74 L 272.84 199.70 L 272.57 199.75 L 272.28 199.91 L 271.96 200.17 L 271.62 200.53 L 271.26 200.99 L 270.87 201.56 L 270.46 202.22 L 270.02 203.00 L 269.57 203.87 L 269.21 204.59 L 268.88 205.23 L 268.60 205.81 L 268.36 206.33 L 268.16 206.79 L 268.00 207.20 L 267.87 207.56 L 267.78 207.87 L 267.72 208.14 L 267.71 208.38 L 267.72 208.59 L 267.78 208.77 L 267.86 208.92 L 267.98 209.06 L 268.13 209.18 L 268.32 209.30 L 268.53 209.40 L 268.78 209.51 L 269.02 209.61 L 269.23 209.70 L 269.41 209.79 L 269.56 209.87 L 269.67 209.95 L 269.76 210.03 L 269.82 210.11 L 269.84 210.19 L 269.83 210.27 L 269.79 210.35 L 269.72 210.44 L 269.61 210.53 L 269.47 210.63 L 269.29 210.74 L 269.08 210.85 L 268.84 210.98 L 268.56 211.11 L 268.25 211.26 L 268.02 211.37 L 267.81 211.50 L 267.60 211.63 L 267.41 211.78 L 267.23 211.93 L 267.05 212.10 L 266.89 212.27 L 266.74 212.45 L 266.61 212.64 L 266.48 212.84 L 266.37 213.05 L 266.28 213.26 L 266.19 213.47 L 266.13 213.69 L 266.07 213.91 L 266.03 214.14 L 266.01 214.37 L 266.00 214.61 L 266.04 215.27 L 266.16 216.06 L 266.34 216.96 L 266.60 217.97 L 266.91 219.06 L 267.27 220.23 L 267.68 221.45 L 268.13 222.70 L 268.61 223.99 L 269.13 225.28 L 269.66 226.56 L 270.22 227.82 L 270.78 229.05 L 271.35 230.22 L 271.92 231.33 L 272.48 232.35 L 273.03 233.28 L 273.56 234.09 L 274.68 235.63 L 275.90 237.16 L 277.21 238.66 L 278.60 240.13 L 280.07 241.58 L 281.61 242.98 L 283.21 244.35 L 284.87 245.68 L 286.59 246.96 L 288.35 248.18 L 290.16 249.35 L 292.00 250.46 L 293.88 251.50 L 295.78 252.47 L 297.69 253.38 L 299.62 254.20 L 301.56 254.94 L 303.50 255.60 L 304.37 255.87 L 305.18 256.10 L 305.94 256.31 L 306.66 256.48 L 307.35 256.62 L 308.00 256.72 L 308.64 256.80 L 309.26 256.84 L 309.88 256.84 L 310.50 256.82 L 311.12 256.76 L 311.77 256.66 L 312.43 256.54 L 313.13 256.38 L 313.86 256.18 L 314.64 255.95 L 315.47 255.69 L 316.35 255.40 L 316.35 255.40 Z M 289.06 240.25 L 288.12 239.73 L 287.14 239.16 L 286.12 238.54 L 285.09 237.89 L 284.04 237.21 L 283.00 236.50 L 281.97 235.79 L 280.98 235.08 L 280.01 234.37 L 279.10 233.68 L 278.26 233.01 L 277.48 232.38 L 276.79 231.79 L 276.20 231.24 L 275.72 230.76 L 275.35 230.35 L 275.12 230.01 L 275.04 229.76 L 275.20 229.49 L 275.68 229.45 L 276.46 229.63 L 277.49 229.99 L 278.73 230.51 L 280.14 231.18 L 281.68 231.96 L 283.31 232.84 L 284.99 233.80 L 286.68 234.80 L 288.34 235.82 L 289.93 236.85 L 291.41 237.86 L 292.74 238.82 L 293.88 239.71 L 294.79 240.52 L 295.43 241.21 L 295.75 241.76 L 295.84 242.05 L 295.88 242.30 L 295.87 242.51 L 295.82 242.68 L 295.71 242.80 L 295.56 242.88 L 295.35 242.91 L 295.09 242.90 L 294.77 242.84 L 294.39 242.74 L 293.96 242.60 L 293.46 242.40 L 292.90 242.16 L 292.27 241.88 L 291.57 241.54 L 290.81 241.16 L 289.97 240.73 L 289.06 240.25 L 289.06 240.25 Z M 274.14 219.65 L 273.81 219.30 L 273.52 218.98 L 273.27 218.70 L 273.06 218.45 L 272.88 218.22 L 272.73 218.02 L 272.63 217.84 L 272.55 217.69 L 272.52 217.55 L 272.51 217.42 L 272.55 217.32 L 272.61 217.22 L 272.71 217.13 L 272.84 217.05 L 273.01 216.97 L 273.21 216.90 L 273.44 216.82 L 273.70 216.74 L 273.87 216.69 L 274.05 216.64 L 274.24 216.58 L 274.44 216.52 L 274.64 216.45 L 274.86 216.38 L 275.07 216.31 L 275.29 216.23 L 275.51 216.16 L 275.73 216.08 L 275.94 216.00 L 276.16 215.93 L 276.37 215.85 L 276.58 215.77 L 276.78 215.70 L 276.97 215.62 L 277.15 215.55 L 277.32 215.48 L 277.57 215.38 L 277.80 215.30 L 278.00 215.24 L 278.18 215.21 L 278.34 215.20 L 278.48 215.22 L 278.59 215.26 L 278.69 215.34 L 278.77 215.44 L 278.83 215.58 L 278.88 215.75 L 278.91 215.96 L 278.93 216.20 L 278.93 216.48 L 278.92 216.81 L 278.90 217.17 L 278.87 217.58 L 278.82 218.04 L 278.75 218.70 L 278.65 219.29 L 278.53 219.82 L 278.40 220.27 L 278.24 220.66 L 278.06 220.99 L 277.87 221.24 L 277.64 221.43 L 277.40 221.55 L 277.14 221.60 L 276.85 221.59 L 276.54 221.51 L 276.20 221.37 L 275.84 221.15 L 275.45 220.88 L 275.04 220.53 L 274.60 220.12 L 274.14 219.65 L 274.14 219.65 Z M 367.91 250.34 L 368.96 249.73 L 369.93 249.15 L 370.85 248.59 L 371.71 248.04 L 372.54 247.49 L 373.34 246.94 L 374.13 246.38 L 374.91 245.79 L 375.69 245.17 L 376.50 244.51 L 377.32 243.80 L 378.19 243.04 L 379.10 242.20 L 380.07 241.30 L 381.11 240.31 L 382.23 239.23 L 383.44 238.05 L 384.75 236.76 L 386.19 235.33 L 387.47 234.03 L 388.58 232.87 L 389.53 231.84 L 390.31 230.92 L 390.93 230.12 L 391.39 229.44 L 391.68 228.85 L 391.82 228.36 L 391.79 227.97 L 391.61 227.66 L 391.26 227.43 L 390.76 227.28 L 390.10 227.20 L 389.29 227.17 L 388.32 227.21 L 387.19 227.30 L 385.91 227.43 L 384.72 227.58 L 383.46 227.78 L 382.14 228.01 L 380.79 228.28 L 379.40 228.58 L 378.01 228.90 L 376.63 229.24 L 375.27 229.60 L 373.95 229.97 L 372.69 230.35 L 371.50 230.72 L 370.39 231.10 L 369.39 231.46 L 368.51 231.82 L 367.76 232.16 L 367.16 232.47 L 366.73 232.77 L 366.48 233.03 L 366.29 233.37 L 366.16 233.69 L 366.09 233.97 L 366.08 234.23 L 366.13 234.45 L 366.24 234.64 L 366.41 234.80 L 366.63 234.93 L 366.90 235.03 L 367.23 235.09 L 367.61 235.12 L 368.04 235.12 L 368.52 235.09 L 369.06 235.02 L 369.64 234.92 L 370.26 234.78 L 370.94 234.61 L 371.66 234.40 L 372.84 234.05 L 373.90 233.76 L 374.82 233.52 L 375.61 233.34 L 376.26 233.22 L 376.79 233.17 L 377.18 233.18 L 377.45 233.26 L 377.59 233.41 L 377.61 233.64 L 377.50 233.95 L 377.26 234.33 L 376.91 234.79 L 376.42 235.34 L 375.82 235.97 L 375.10 236.69 L 374.26 237.50 L 373.30 238.41 L 372.67 238.98 L 372.07 239.52 L 371.50 240.02 L 370.96 240.48 L 370.45 240.91 L 369.97 241.29 L 369.51 241.64 L 369.08 241.95 L 368.68 242.22 L 368.31 242.45 L 367.97 242.64 L 367.65 242.80 L 367.37 242.91 L 367.11 242.99 L 366.89 243.02 L 366.69 243.02 L 366.53 242.98 L 366.39 242.90 L 366.26 242.81 L 366.10 242.76 L 365.93 242.74 L 365.73 242.74 L 365.51 242.78 L 365.28 242.85 L 365.02 242.94 L 364.74 243.07 L 364.44 243.23 L 364.13 243.42 L 363.79 243.64 L 363.43 243.88 L 363.06 244.16 L 362.66 244.47 L 362.24 244.80 L 361.81 245.17 L 361.36 245.56 L 360.89 245.98 L 360.22 246.59 L 359.63 247.14 L 359.11 247.63 L 358.66 248.07 L 358.27 248.45 L 357.96 248.80 L 357.70 249.11 L 357.51 249.39 L 357.37 249.64 L 357.30 249.86 L 357.27 250.07 L 357.30 250.27 L 357.38 250.46 L 357.51 250.65 L 357.68 250.84 L 357.89 251.05 L 358.15 251.26 L 358.44 251.49 L 358.88 251.82 L 359.30 252.10 L 359.71 252.34 L 360.11 252.54 L 360.51 252.69 L 360.92 252.80 L 361.33 252.86 L 361.76 252.88 L 362.21 252.85 L 362.68 252.77 L 363.18 252.64 L 363.71 252.46 L 364.28 252.24 L 364.90 251.96 L 365.56 251.63 L 366.29 251.25 L 367.07 250.82 L 367.91 250.34 L 367.91 250.34 Z M 216.84 248.52 L 217.15 248.20 L 217.48 247.87 L 217.81 247.54 L 218.16 247.21 L 218.51 246.88 L 218.87 246.55 L 219.23 246.22 L 219.60 245.90 L 219.96 245.59 L 220.32 245.29 L 220.68 245.00 L 221.03 244.72 L 221.36 244.46 L 221.69 244.21 L 222.01 243.98 L 222.30 243.78 L 222.58 243.59 L 222.84 243.43 L 223.20 243.21 L 223.53 242.98 L 223.84 242.72 L 224.14 242.45 L 224.42 242.14 L 224.69 241.81 L 224.95 241.44 L 225.20 241.04 L 225.44 240.59 L 225.67 240.09 L 225.91 239.54 L 226.14 238.94 L 226.38 238.28 L 226.62 237.56 L 226.86 236.77 L 227.12 235.90 L 227.38 234.97 L 227.65 233.95 L 227.84 233.23 L 228.02 232.53 L 228.19 231.84 L 228.34 231.18 L 228.49 230.53 L 228.63 229.91 L 228.76 229.32 L 228.87 228.76 L 228.97 228.23 L 229.06 227.74 L 229.13 227.29 L 229.19 226.89 L 229.23 226.53 L 229.26 226.22 L 229.27 225.96 L 229.27 225.76 L 229.24 225.62 L 229.20 225.54 L 229.14 225.49 L 229.06 225.44 L 228.95 225.39 L 228.83 225.35 L 228.68 225.31 L 228.52 225.27 L 228.34 225.23 L 228.15 225.19 L 227.94 225.16 L 227.72 225.13 L 227.48 225.10 L 227.24 225.07 L 226.99 225.05 L 226.73 225.03 L 226.47 225.02 L 226.20 225.01 L 225.92 225.00 L 225.65 225.00 L 224.95 224.97 L 224.21 224.88 L 223.43 224.73 L 222.61 224.52 L 221.75 224.26 L 220.87 223.96 L 219.98 223.60 L 219.06 223.20 L 218.14 222.76 L 217.21 222.28 L 216.28 221.76 L 215.36 221.21 L 214.45 220.63 L 213.56 220.02 L 212.69 219.38 L 211.85 218.73 L 211.04 218.05 L 210.27 217.35 L 209.79 216.90 L 209.35 216.50 L 208.94 216.13 L 208.56 215.81 L 208.21 215.54 L 207.90 215.30 L 207.60 215.10 L 207.33 214.95 L 207.08 214.83 L 206.85 214.74 L 206.63 214.69 L 206.42 214.68 L 206.23 214.70 L 206.04 214.75 L 205.86 214.83 L 205.68 214.94 L 205.50 215.08 L 205.32 215.25 L 204.87 215.77 L 204.41 216.43 L 203.96 217.21 L 203.52 218.10 L 203.08 219.08 L 202.66 220.16 L 202.25 221.31 L 201.86 222.54 L 201.50 223.82 L 201.15 225.14 L 200.84 226.51 L 200.55 227.90 L 200.30 229.30 L 200.08 230.71 L 199.90 232.11 L 199.76 233.49 L 199.67 234.84 L 199.63 236.16 L 199.61 237.24 L 199.60 238.22 L 199.61 239.11 L 199.62 239.92 L 199.65 240.65 L 199.69 241.31 L 199.75 241.91 L 199.83 242.46 L 199.92 242.95 L 200.03 243.41 L 200.17 243.83 L 200.33 244.22 L 200.51 244.58 L 200.72 244.94 L 200.96 245.28 L 201.23 245.63 L 201.52 245.98 L 201.85 246.34 L 202.30 246.79 L 202.80 247.25 L 203.33 247.70 L 203.89 248.15 L 204.48 248.58 L 205.09 249.01 L 205.71 249.41 L 206.35 249.80 L 206.99 250.17 L 207.63 250.51 L 208.26 250.82 L 208.88 251.11 L 209.48 251.35 L 210.06 251.57 L 210.61 251.74 L 211.12 251.86 L 211.60 251.95 L 212.03 251.98 L 212.18 251.96 L 212.36 251.92 L 212.55 251.86 L 212.77 251.77 L 213.00 251.65 L 213.25 251.51 L 213.51 251.35 L 213.79 251.17 L 214.07 250.97 L 214.37 250.75 L 214.67 250.52 L 214.98 250.27 L 215.29 250.01 L 215.60 249.73 L 215.92 249.44 L 216.23 249.14 L 216.54 248.83 L 216.84 248.52 L 216.84 248.52 Z M 352.54 243.96 L 352.91 243.57 L 353.31 243.13 L 353.73 242.65 L 354.17 242.13 L 354.62 241.58 L 355.09 241.01 L 355.56 240.40 L 356.04 239.78 L 356.53 239.14 L 357.01 238.48 L 357.49 237.81 L 357.97 237.14 L 358.44 236.47 L 358.90 235.80 L 359.35 235.13 L 359.78 234.48 L 360.18 233.83 L 360.57 233.21 L 361.13 232.30 L 361.65 231.47 L 362.14 230.72 L 362.61 230.03 L 363.05 229.40 L 363.48 228.83 L 363.90 228.32 L 364.31 227.85 L 364.72 227.43 L 365.13 227.05 L 365.55 226.70 L 365.98 226.39 L 366.43 226.10 L 366.90 225.83 L 367.39 225.58 L 367.92 225.34 L 368.48 225.10 L 369.08 224.88 L 373.50 223.25 L 374.41 215.62 L 374.52 214.64 L 374.61 213.71 L 374.69 212.80 L 374.75 211.93 L 374.79 211.07 L 374.81 210.24 L 374.82 209.41 L 374.81 208.58 L 374.77 207.76 L 374.72 206.93 L 374.66 206.08 L 374.57 205.21 L 374.46 204.32 L 374.33 203.39 L 374.18 202.43 L 374.01 201.42 L 373.82 200.36 L 373.61 199.24 L 373.05 196.67 L 372.29 193.63 L 371.35 190.19 L 370.25 186.41 L 369.02 182.35 L 367.66 178.06 L 366.20 173.60 L 364.67 169.02 L 363.08 164.40 L 361.45 159.77 L 359.79 155.21 L 358.15 150.76 L 356.52 146.49 L 354.93 142.46 L 353.41 138.72 L 351.96 135.32 L 350.62 132.34 L 349.41 129.81 L 348.90 128.85 L 348.35 127.90 L 347.76 126.97 L 347.14 126.05 L 346.49 125.15 L 345.81 124.26 L 345.09 123.40 L 344.35 122.56 L 343.58 121.74 L 342.78 120.95 L 341.96 120.19 L 341.12 119.45 L 340.26 118.75 L 339.38 118.08 L 338.49 117.44 L 337.58 116.84 L 336.66 116.28 L 335.72 115.76 L 335.11 115.44 L 334.53 115.15 L 333.95 114.89 L 333.38 114.66 L 332.79 114.46 L 332.19 114.28 L 331.55 114.13 L 330.86 114.00 L 330.12 113.88 L 329.31 113.79 L 328.41 113.71 L 327.43 113.65 L 326.35 113.60 L 325.15 113.57 L 323.83 113.55 L 322.37 113.53 L 320.77 113.53 L 319.00 113.53 L 317.85 113.54 L 316.71 113.55 L 315.58 113.57 L 314.46 113.59 L 313.37 113.62 L 312.30 113.65 L 311.26 113.69 L 310.26 113.74 L 309.30 113.78 L 308.39 113.84 L 307.54 113.89 L 306.74 113.95 L 306.01 114.01 L 305.35 114.08 L 304.77 114.14 L 304.27 114.21 L 303.86 114.28 L 303.54 114.35 L 300.57 115.15 L 304.54 116.95 L 308.50 118.76 L 302.98 121.35 L 302.38 121.61 L 301.63 121.91 L 300.73 122.24 L 299.68 122.60 L 298.50 123.00 L 297.20 123.42 L 295.78 123.87 L 294.26 124.34 L 292.65 124.82 L 290.96 125.32 L 289.19 125.84 L 287.36 126.36 L 285.48 126.89 L 283.55 127.42 L 281.59 127.96 L 279.60 128.49 L 277.60 129.01 L 275.60 129.53 L 272.04 130.45 L 268.71 131.32 L 265.58 132.15 L 262.67 132.93 L 259.97 133.68 L 257.47 134.38 L 255.18 135.05 L 253.08 135.67 L 251.18 136.26 L 249.48 136.82 L 247.97 137.33 L 246.64 137.82 L 245.50 138.27 L 244.54 138.68 L 243.77 139.06 L 243.16 139.42 L 242.74 139.74 L 242.48 140.03 L 242.45 140.47 L 242.75 141.11 L 243.35 141.93 L 244.23 142.92 L 245.35 144.04 L 246.70 145.27 L 248.23 146.61 L 249.93 148.02 L 251.77 149.48 L 253.72 150.97 L 255.75 152.47 L 257.84 153.96 L 259.96 155.42 L 262.08 156.83 L 264.17 158.16 L 266.20 159.40 L 268.16 160.51 L 270.00 161.49 L 271.49 162.22 L 272.94 162.91 L 274.37 163.55 L 275.77 164.15 L 277.14 164.70 L 278.50 165.20 L 279.83 165.66 L 281.15 166.08 L 282.46 166.45 L 283.75 166.78 L 285.03 167.07 L 286.31 167.32 L 287.58 167.53 L 288.84 167.70 L 290.11 167.83 L 291.38 167.92 L 292.65 167.97 L 293.93 167.99 L 295.05 167.97 L 296.20 167.92 L 297.36 167.85 L 298.53 167.75 L 299.70 167.62 L 300.88 167.46 L 302.05 167.28 L 303.20 167.08 L 304.34 166.86 L 305.46 166.61 L 306.54 166.35 L 307.60 166.07 L 308.61 165.77 L 309.58 165.46 L 310.49 165.13 L 311.35 164.78 L 312.15 164.43 L 312.88 164.06 L 313.59 163.70 L 314.20 163.43 L 314.69 163.25 L 315.09 163.16 L 315.38 163.15 L 315.56 163.23 L 315.65 163.39 L 315.63 163.63 L 315.52 163.95 L 315.30 164.35 L 314.98 164.82 L 314.57 165.36 L 314.06 165.98 L 313.45 166.67 L 312.75 167.42 L 311.95 168.24 L 311.06 169.13 L 310.08 170.08 L 309.51 170.63 L 308.96 171.17 L 308.43 171.70 L 307.92 172.21 L 307.44 172.71 L 306.98 173.20 L 306.56 173.66 L 306.16 174.10 L 305.80 174.51 L 305.48 174.90 L 305.19 175.26 L 304.94 175.58 L 304.73 175.88 L 304.57 176.13 L 304.45 176.34 L 304.38 176.52 L 304.36 176.65 L 304.40 176.73 L 304.91 176.96 L 305.85 177.07 L 307.17 177.07 L 308.85 176.97 L 310.84 176.77 L 313.11 176.48 L 315.62 176.11 L 318.34 175.66 L 321.23 175.14 L 324.25 174.56 L 327.36 173.93 L 330.53 173.24 L 333.73 172.51 L 336.91 171.75 L 340.04 170.96 L 343.08 170.14 L 346.00 169.31 L 348.76 168.47 L 349.09 168.37 L 349.38 168.29 L 349.62 168.24 L 349.82 168.22 L 349.98 168.23 L 350.09 168.27 L 350.16 168.36 L 350.17 168.49 L 350.14 168.66 L 350.06 168.89 L 349.94 169.17 L 349.76 169.51 L 349.52 169.90 L 349.24 170.36 L 348.90 170.89 L 348.51 171.50 L 348.06 172.17 L 347.55 172.93 L 347.23 173.42 L 346.90 173.94 L 346.57 174.49 L 346.23 175.06 L 345.90 175.66 L 345.56 176.27 L 345.23 176.89 L 344.91 177.53 L 344.59 178.17 L 344.28 178.80 L 343.99 179.44 L 343.70 180.07 L 343.43 180.69 L 343.18 181.30 L 342.94 181.89 L 342.73 182.45 L 342.54 182.99 L 342.37 183.51 L 342.05 184.58 L 341.79 185.61 L 341.59 186.62 L 341.46 187.60 L 341.38 188.58 L 341.36 189.54 L 341.41 190.50 L 341.53 191.46 L 341.71 192.44 L 341.96 193.43 L 342.28 194.44 L 342.68 195.49 L 343.14 196.57 L 343.68 197.69 L 344.29 198.86 L 344.98 200.09 L 345.75 201.37 L 346.60 202.73 L 346.91 203.21 L 347.21 203.69 L 347.50 204.16 L 347.78 204.61 L 348.06 205.06 L 348.31 205.48 L 348.56 205.89 L 348.79 206.28 L 349.00 206.65 L 349.20 207.00 L 349.38 207.31 L 349.53 207.60 L 349.67 207.86 L 349.79 208.09 L 349.88 208.28 L 349.95 208.44 L 349.99 208.55 L 350.00 208.63 L 349.99 208.68 L 349.96 208.72 L 349.91 208.76 L 349.84 208.79 L 349.76 208.82 L 349.66 208.84 L 349.54 208.85 L 349.41 208.86 L 349.27 208.86 L 349.11 208.85 L 348.94 208.84 L 348.76 208.82 L 348.57 208.80 L 348.37 208.77 L 348.16 208.73 L 347.95 208.69 L 347.73 208.64 L 347.50 208.59 L 347.26 208.53 L 347.04 208.49 L 346.82 208.45 L 346.60 208.43 L 346.40 208.41 L 346.21 208.40 L 346.03 208.40 L 345.87 208.41 L 345.71 208.43 L 345.57 208.46 L 345.44 208.49 L 345.33 208.54 L 345.23 208.59 L 345.15 208.65 L 345.09 208.72 L 345.04 208.80 L 345.01 208.88 L 345.00 208.98 L 345.02 209.11 L 345.07 209.32 L 345.16 209.61 L 345.28 209.97 L 345.43 210.40 L 345.62 210.89 L 345.83 211.44 L 346.06 212.04 L 346.32 212.70 L 346.60 213.40 L 346.91 214.15 L 347.23 214.93 L 347.58 215.75 L 347.93 216.60 L 348.31 217.47 L 348.69 218.37 L 349.09 219.29 L 349.50 220.22 L 349.91 221.15 L 350.31 222.07 L 350.69 222.97 L 351.07 223.85 L 351.42 224.70 L 351.77 225.53 L 352.09 226.32 L 352.40 227.07 L 352.68 227.78 L 352.94 228.44 L 353.17 229.06 L 353.38 229.62 L 353.57 230.12 L 353.72 230.56 L 353.84 230.93 L 353.93 231.23 L 353.98 231.46 L 354.00 231.60 L 353.95 231.91 L 353.79 232.25 L 353.54 232.64 L 353.19 233.06 L 352.76 233.51 L 352.23 233.99 L 351.63 234.51 L 350.94 235.04 L 350.18 235.60 L 349.35 236.18 L 348.46 236.77 L 347.50 237.38 L 346.48 238.00 L 345.41 238.62 L 344.29 239.25 L 343.12 239.89 L 341.91 240.52 L 340.65 241.15 L 340.05 241.45 L 339.46 241.75 L 338.89 242.04 L 338.34 242.34 L 337.81 242.62 L 337.30 242.90 L 336.82 243.17 L 336.37 243.43 L 335.95 243.68 L 335.57 243.92 L 335.22 244.14 L 334.91 244.35 L 334.64 244.54 L 334.42 244.71 L 334.24 244.86 L 334.11 244.98 L 334.03 245.09 L 334.00 245.17 L 334.02 245.24 L 334.06 245.31 L 334.13 245.39 L 334.24 245.47 L 334.36 245.55 L 334.51 245.63 L 334.69 245.71 L 334.88 245.79 L 335.10 245.88 L 335.34 245.96 L 335.59 246.04 L 335.86 246.12 L 336.15 246.20 L 336.44 246.27 L 336.76 246.34 L 337.08 246.41 L 337.41 246.48 L 337.75 246.54 L 338.09 246.59 L 338.44 246.65 L 338.78 246.71 L 339.12 246.78 L 339.45 246.84 L 339.78 246.90 L 340.09 246.96 L 340.40 247.02 L 340.69 247.08 L 340.97 247.14 L 341.24 247.19 L 341.48 247.25 L 341.71 247.30 L 341.92 247.35 L 342.10 247.39 L 342.26 247.43 L 342.39 247.47 L 342.50 247.50 L 343.09 247.68 L 343.66 247.82 L 344.23 247.92 L 344.78 247.98 L 345.33 247.99 L 345.87 247.96 L 346.41 247.88 L 346.94 247.76 L 347.48 247.60 L 348.01 247.38 L 348.55 247.13 L 349.10 246.82 L 349.64 246.47 L 350.20 246.06 L 350.77 245.61 L 351.34 245.11 L 351.93 244.56 L 352.54 243.96 L 352.54 243.96 Z M 260.00 200.88 L 260.00 191.76 L 255.25 195.54 L 254.20 196.39 L 253.15 197.26 L 252.10 198.14 L 251.06 199.04 L 250.03 199.93 L 249.04 200.82 L 248.07 201.69 L 247.15 202.55 L 246.28 203.37 L 245.47 204.16 L 244.72 204.90 L 244.05 205.59 L 243.45 206.22 L 242.95 206.78 L 242.55 207.27 L 242.25 207.68 L 242.06 207.99 L 242.00 208.21 L 242.01 208.28 L 242.04 208.35 L 242.09 208.42 L 242.15 208.48 L 242.23 208.55 L 242.33 208.61 L 242.45 208.66 L 242.57 208.72 L 242.71 208.77 L 242.87 208.81 L 243.03 208.85 L 243.20 208.89 L 243.39 208.92 L 243.58 208.95 L 243.78 208.97 L 243.99 208.99 L 244.21 209.00 L 244.43 209.00 L 244.69 208.99 L 244.95 208.96 L 245.22 208.90 L 245.49 208.83 L 245.76 208.74 L 246.03 208.62 L 246.31 208.49 L 246.59 208.34 L 246.87 208.17 L 247.15 207.98 L 247.43 207.77 L 247.71 207.54 L 247.99 207.30 L 248.26 207.04 L 248.53 206.76 L 248.81 206.47 L 249.07 206.15 L 249.34 205.83 L 251.82 202.65 L 255.16 206.20 L 255.47 206.52 L 255.77 206.84 L 256.07 207.14 L 256.37 207.44 L 256.66 207.73 L 256.95 208.00 L 257.22 208.26 L 257.49 208.51 L 257.74 208.74 L 257.98 208.95 L 258.21 209.15 L 258.41 209.32 L 258.61 209.48 L 258.78 209.61 L 258.93 209.71 L 259.06 209.79 L 259.17 209.85 L 259.25 209.87 L 259.32 209.85 L 259.38 209.75 L 259.45 209.58 L 259.51 209.34 L 259.57 209.05 L 259.63 208.69 L 259.68 208.27 L 259.73 207.80 L 259.78 207.28 L 259.82 206.72 L 259.86 206.11 L 259.90 205.46 L 259.93 204.77 L 259.95 204.05 L 259.97 203.29 L 259.99 202.51 L 260.00 201.71 L 260.00 200.88 L 260.00 200.88 Z M 254.53 189.32 L 254.77 188.95 L 254.98 188.62 L 255.16 188.31 L 255.31 188.03 L 255.44 187.78 L 255.53 187.54 L 255.60 187.32 L 255.64 187.12 L 255.65 186.92 L 255.63 186.72 L 255.58 186.53 L 255.50 186.33 L 255.40 186.13 L 255.26 185.92 L 255.10 185.70 L 254.90 185.46 L 254.68 185.20 L 254.42 184.92 L 254.26 184.74 L 254.10 184.57 L 253.94 184.41 L 253.78 184.25 L 253.62 184.10 L 253.46 183.95 L 253.31 183.81 L 253.16 183.68 L 253.01 183.56 L 252.87 183.45 L 252.74 183.35 L 252.61 183.26 L 252.50 183.19 L 252.39 183.12 L 252.29 183.07 L 252.20 183.03 L 252.12 183.01 L 252.06 183.00 L 251.91 183.11 L 251.66 183.43 L 251.33 183.92 L 250.93 184.58 L 250.48 185.37 L 249.97 186.26 L 249.43 187.24 L 248.88 188.28 L 248.31 189.35 L 247.75 190.43 L 247.21 191.50 L 246.70 192.53 L 246.23 193.50 L 245.82 194.38 L 245.48 195.14 L 245.22 195.78 L 245.06 196.25 L 245.00 196.53 L 245.07 196.66 L 245.28 196.66 L 245.60 196.55 L 246.03 196.35 L 246.55 196.05 L 247.14 195.68 L 247.79 195.24 L 248.48 194.74 L 249.21 194.21 L 249.94 193.64 L 250.68 193.05 L 251.40 192.45 L 252.08 191.86 L 252.72 191.28 L 253.31 190.72 L 253.81 190.20 L 254.22 189.73 L 254.53 189.32 L 254.53 189.32 Z M 242.69 189.42 L 243.11 188.26 L 243.49 187.19 L 243.82 186.20 L 244.11 185.31 L 244.34 184.49 L 244.54 183.75 L 244.68 183.09 L 244.78 182.51 L 244.84 181.99 L 244.85 181.54 L 244.81 181.15 L 244.73 180.83 L 244.60 180.56 L 244.43 180.35 L 244.22 180.19 L 243.96 180.08 L 243.66 180.02 L 243.31 180.00 L 242.96 180.10 L 242.44 180.40 L 241.78 180.87 L 241.00 181.49 L 240.12 182.23 L 239.16 183.08 L 238.16 184.01 L 237.12 185.00 L 236.08 186.02 L 235.04 187.06 L 234.05 188.10 L 233.12 189.10 L 232.26 190.05 L 231.52 190.93 L 230.89 191.71 L 230.42 192.37 L 230.12 192.89 L 230.01 193.25 L 230.02 193.32 L 230.06 193.38 L 230.13 193.45 L 230.22 193.51 L 230.34 193.57 L 230.48 193.63 L 230.64 193.68 L 230.82 193.73 L 231.01 193.78 L 231.23 193.82 L 231.46 193.86 L 231.71 193.90 L 231.97 193.93 L 232.24 193.95 L 232.53 193.97 L 232.82 193.99 L 233.13 194.00 L 233.44 194.00 L 233.76 194.00 L 234.07 194.02 L 234.38 194.04 L 234.68 194.07 L 234.98 194.10 L 235.26 194.14 L 235.54 194.19 L 235.81 194.25 L 236.06 194.31 L 236.30 194.38 L 236.53 194.45 L 236.73 194.52 L 236.92 194.60 L 237.09 194.69 L 237.24 194.77 L 237.36 194.86 L 237.46 194.96 L 237.53 195.05 L 237.75 195.36 L 237.98 195.60 L 238.21 195.76 L 238.45 195.85 L 238.70 195.87 L 238.96 195.81 L 239.23 195.68 L 239.50 195.48 L 239.78 195.20 L 240.08 194.85 L 240.37 194.43 L 240.68 193.93 L 241.00 193.37 L 241.32 192.72 L 241.65 192.01 L 241.99 191.22 L 242.34 190.36 L 242.69 189.42 L 242.69 189.42 Z M 233.81 179.98 L 234.35 179.31 L 234.83 178.70 L 235.25 178.13 L 235.61 177.61 L 235.90 177.13 L 236.14 176.70 L 236.31 176.30 L 236.41 175.94 L 236.46 175.61 L 236.44 175.32 L 236.36 175.05 L 236.22 174.80 L 236.02 174.58 L 235.76 174.38 L 235.43 174.20 L 235.05 174.03 L 234.60 173.88 L 234.09 173.73 L 233.76 173.67 L 233.45 173.65 L 233.15 173.69 L 232.86 173.77 L 232.58 173.91 L 232.32 174.10 L 232.06 174.35 L 231.81 174.66 L 231.57 175.03 L 231.33 175.45 L 231.10 175.94 L 230.88 176.50 L 230.65 177.12 L 230.43 177.80 L 230.22 178.56 L 230.00 179.38 L 229.78 180.28 L 229.56 181.25 L 229.44 181.84 L 229.36 182.36 L 229.32 182.79 L 229.32 183.15 L 229.35 183.44 L 229.43 183.64 L 229.55 183.77 L 229.71 183.82 L 229.91 183.79 L 230.16 183.68 L 230.45 183.50 L 230.79 183.23 L 231.18 182.89 L 231.61 182.47 L 232.08 181.97 L 232.61 181.38 L 233.18 180.72 L 233.81 179.98 L 233.81 179.98 Z M 286.48 112.02 L 286.72 111.78 L 287.06 111.41 L 287.52 110.85 L 288.10 110.10 L 288.85 109.12 L 289.76 107.89 L 290.87 106.37 L 292.18 104.54 L 293.74 102.38 L 295.54 99.85 L 297.61 96.93 L 299.97 93.59 L 302.64 89.80 L 305.64 85.54 L 308.99 80.77 L 312.71 75.48 L 316.81 69.64 L 321.33 63.21 L 324.25 59.04 L 326.86 55.31 L 329.17 52.01 L 331.20 49.11 L 332.97 46.58 L 334.48 44.39 L 335.77 42.53 L 336.85 40.95 L 337.73 39.64 L 338.43 38.57 L 338.98 37.71 L 339.38 37.04 L 339.66 36.53 L 339.84 36.15 L 339.92 35.88 L 339.93 35.70 L 339.88 35.57 L 339.80 35.47 L 339.53 35.35 L 339.11 35.37 L 338.55 35.51 L 337.86 35.77 L 337.06 36.13 L 336.17 36.59 L 335.19 37.14 L 334.14 37.77 L 333.03 38.47 L 331.88 39.23 L 330.71 40.05 L 329.52 40.90 L 328.34 41.79 L 327.16 42.71 L 326.02 43.64 L 324.92 44.57 L 323.88 45.51 L 322.90 46.43 L 321.92 47.46 L 320.67 48.86 L 319.18 50.62 L 317.45 52.72 L 315.51 55.14 L 313.36 57.86 L 311.03 60.86 L 308.52 64.12 L 305.85 67.63 L 303.04 71.36 L 300.09 75.29 L 297.03 79.40 L 293.87 83.69 L 290.62 88.11 L 287.31 92.67 L 283.93 97.33 L 280.51 102.08 L 277.06 106.90 L 271.78 114.31 L 278.51 113.68 L 279.12 113.62 L 279.73 113.55 L 280.33 113.48 L 280.93 113.40 L 281.50 113.31 L 282.07 113.22 L 282.61 113.13 L 283.13 113.03 L 283.62 112.93 L 284.09 112.83 L 284.53 112.73 L 284.93 112.62 L 285.30 112.52 L 285.62 112.42 L 285.91 112.31 L 286.15 112.21 L 286.34 112.11 L 286.48 112.02 L 286.48 112.02 Z M 315.28 94.88 L 319.38 88.67 L 323.11 83.00 L 326.47 77.85 L 329.48 73.18 L 332.16 68.96 L 334.53 65.16 L 336.61 61.76 L 338.40 58.71 L 339.94 55.99 L 341.23 53.58 L 342.29 51.42 L 343.14 49.51 L 343.80 47.79 L 344.29 46.26 L 344.61 44.86 L 344.79 43.58 L 344.85 42.38 L 344.80 41.23 L 344.75 40.70 L 344.69 40.25 L 344.62 39.89 L 344.53 39.61 L 344.40 39.44 L 344.23 39.37 L 344.02 39.42 L 343.74 39.60 L 343.41 39.91 L 343.00 40.37 L 342.51 40.97 L 341.92 41.74 L 341.25 42.67 L 340.46 43.78 L 339.56 45.07 L 338.54 46.55 L 337.39 48.24 L 336.10 50.14 L 334.76 52.09 L 333.28 54.25 L 331.66 56.60 L 329.92 59.12 L 328.06 61.80 L 326.09 64.63 L 324.04 67.57 L 321.91 70.62 L 319.70 73.76 L 317.45 76.98 L 315.15 80.25 L 312.82 83.56 L 310.47 86.89 L 308.11 90.22 L 305.75 93.55 L 303.41 96.84 L 301.10 100.09 L 298.83 103.27 L 298.39 103.89 L 297.97 104.50 L 297.55 105.09 L 297.15 105.68 L 296.77 106.24 L 296.40 106.79 L 296.05 107.31 L 295.72 107.81 L 295.42 108.28 L 295.14 108.72 L 294.89 109.13 L 294.66 109.50 L 294.47 109.83 L 294.30 110.13 L 294.17 110.37 L 294.08 110.57 L 294.02 110.72 L 294.00 110.82 L 294.02 110.89 L 294.09 110.95 L 294.21 111.00 L 294.36 111.03 L 294.56 111.06 L 294.79 111.08 L 295.06 111.09 L 295.36 111.10 L 295.69 111.09 L 296.05 111.07 L 296.44 111.05 L 296.85 111.02 L 297.29 110.97 L 297.75 110.92 L 298.23 110.86 L 298.72 110.80 L 299.23 110.72 L 299.75 110.64 L 305.50 109.67 L 315.28 94.88 Z"/>
</svg>
