<svg xmlns="http://www.w3.org/2000/svg" viewBox="0 0 944.00 1022.00"
     data-anchor="477.00,1020.00" data-source="Kodama trio hybride.png">
  <!-- Axes du motif. L'epaisseur est appliquee par l'outil, en mm : le
       stroke-width ci-dessous n'est qu'un rendu de controle. -->
  <g fill="none" stroke="#000" stroke-width="2" stroke-linecap="round" stroke-linejoin="round">
    <path d="M558.00,507.00L600.00,484.00L626.00,460.00L648.00,428.00L672.00,368.00L683.00,309.00L684.00,259.00L678.00,206.00L662.00,145.00L619.00,67.00L589.00,38.00L555.00,17.00L518.00,5.00L468.00,2.00L429.00,9.00L396.00,23.00L346.00,64.00L313.00,112.00L286.00,179.00L272.00,259.00L274.00,330.00L295.00,405.00L330.00,460.00L390.00,507.00L354.00,546.00L337.00,579.00L309.00,739.00L298.00,735.00L284.00,701.00L256.00,665.00"/>
    <path d="M565.00,507.00L596.00,540.00L617.00,581.00L629.00,591.00L640.00,647.00L635.00,655.00L641.00,711.00L638.00,778.00L653.00,778.00L666.00,746.00L689.00,720.00L666.00,689.00L650.00,653.00L641.00,648.00"/>
    <path d="M584.00,623.00L599.00,720.00L599.00,809.00L620.00,807.00L639.00,780.00"/>
    <path d="M776.00,737.00L810.00,737.00L832.00,784.00L841.00,872.00L833.00,897.00L819.00,902.00"/>
    <path d="M811.00,737.00L855.00,722.00L898.00,695.00L925.00,661.00L939.00,623.00L942.00,574.00L932.00,529.00L907.00,480.00L875.00,445.00L834.00,422.00L792.00,412.00L741.00,414.00L694.00,431.00L664.00,456.00L644.00,490.00L635.00,522.00L634.00,583.00L629.00,590.00"/>
    <path d="M307.00,741.00L314.00,789.00L309.00,796.00L309.00,841.00L302.00,868.00L290.00,877.00L281.00,874.00L282.00,813.00L272.00,747.00"/>
    <path d="M649.00,781.00L643.00,872.00L648.00,889.00L658.00,897.00L669.00,892.00L670.00,836.00L680.00,787.00"/>
    <path d="M315.00,790.00L335.00,808.00L353.00,812.00"/>
    <path d="M353.00,812.00L379.00,967.00L372.00,1000.00L381.00,1012.00L410.00,1020.00L445.00,1017.00L464.00,1004.00L467.00,885.00L476.00,874.00L486.00,888.00L490.00,1005.00L525.00,1020.00L553.00,1019.00L578.00,1008.00L583.00,993.00L575.00,961.00L600.00,812.00"/>
    <path d="M668.00,897.00L680.00,977.00L675.00,1004.00L682.00,1012.00L710.00,1017.00L732.00,1010.00L743.00,993.00L743.00,939.00"/>
    <path d="M499.00,570.00L505.00,579.00L505.00,630.00L450.00,630.00L450.00,579.00L455.00,570.00L426.00,540.00L426.00,519.00L432.00,511.00L431.00,416.00L443.00,412.00L464.00,386.00L476.00,381.00L500.00,387.00L521.00,413.00L531.00,410.00L533.00,392.00L575.00,343.00L575.00,305.00L552.00,285.00L545.00,270.00L547.00,253.00L559.00,238.00L588.00,235.00L606.00,254.00L604.00,280.00L575.00,304.00"/>
    <path d="M432.00,413.00L427.00,388.00L388.00,347.00L387.00,301.00L360.00,280.00L354.00,266.00L359.00,243.00L380.00,229.00L403.00,234.00L414.00,247.00L414.00,274.00L389.00,299.00"/>
    <path d="M530.00,412.00L531.00,533.00L494.00,574.00L465.00,576.00L455.00,571.00"/>
    <path d="M442.00,413.00L461.00,437.00L474.00,443.00L500.00,438.00L520.00,413.00"/>
    <path d="M237.00,669.00L257.00,664.00L276.00,648.00L310.00,600.00L320.00,532.00L308.00,483.00L275.00,430.00L222.00,385.00L168.00,363.00L108.00,361.00L63.00,379.00L25.00,419.00L6.00,466.00L2.00,526.00L14.00,582.00L36.00,624.00L73.00,662.00L119.00,686.00"/>
    <path d="M372.00,623.00L357.00,705.00L353.00,812.00"/>
    <path d="M119.00,686.00L141.00,686.00"/>
    <path d="M119.00,686.00L85.00,755.00L77.00,847.00L88.00,882.00L100.00,889.00L110.00,887.00L129.00,757.00"/>
    <path d="M109.00,889.00L125.00,971.00L119.00,999.00L131.00,1013.00L158.00,1017.00L185.00,1007.00L195.00,989.00L197.00,922.00"/>
    <path d="M195.00,990.00L210.00,1010.00L224.00,1015.00L252.00,1015.00L269.00,1007.00L272.00,995.00L264.00,970.00L281.00,879.00"/>
    <path d="M801.00,796.00L812.00,891.00L819.00,902.00"/>
    <path d="M819.00,902.00L805.00,976.00L809.00,1007.00L792.00,1016.00L769.00,1016.00L755.00,1011.00L743.00,994.00"/>
    <path d="M403.83,260.90L402.84,266.84L399.97,272.14L395.54,276.22L390.02,278.64L384.02,279.13L378.18,277.66L373.13,274.36L369.43,269.61L367.48,263.91L367.48,257.89L369.43,252.19L373.13,247.43L378.18,244.14L384.02,242.66L390.02,243.16L395.54,245.58L399.97,249.66L402.84,254.96L403.83,260.90"/>
    <path d="M594.63,264.71L593.64,270.63L590.79,275.91L586.37,279.97L580.88,282.38L574.90,282.88L569.08,281.40L564.05,278.12L560.37,273.38L558.42,267.71L558.42,261.71L560.37,256.03L564.05,251.30L569.08,248.01L574.90,246.54L580.88,247.04L586.37,249.45L590.79,253.51L593.64,258.79L594.63,264.71"/>
    <path d="M499.44,412.76L498.45,418.66L495.61,423.92L491.21,427.97L485.74,430.37L479.78,430.86L473.98,429.39L468.98,426.13L465.31,421.41L463.37,415.75L463.37,409.78L465.31,404.12L468.98,399.40L473.98,396.13L479.78,394.67L485.74,395.16L491.21,397.56L495.61,401.61L498.45,406.87L499.44,412.76"/>
    <path d="M252.94,507.93L252.04,513.30L249.45,518.09L245.44,521.78L240.45,523.97L235.03,524.41L229.75,523.08L225.19,520.10L221.84,515.80L220.07,510.65L220.07,505.20L221.84,500.05L225.19,495.75L229.75,492.77L235.03,491.44L240.45,491.89L245.44,494.07L249.45,497.76L252.04,502.55L252.94,507.93"/>
    <path d="M115.39,523.04L113.84,532.38L109.33,540.70L102.37,547.11L93.70,550.91L84.27,551.70L75.09,549.37L67.17,544.20L61.36,536.73L58.28,527.78L58.28,518.31L61.36,509.36L67.17,501.89L75.09,496.71L84.27,494.39L93.70,495.17L102.37,498.97L109.33,505.38L113.84,513.71L115.39,523.04"/>
    <path d="M726.77,574.79L725.22,584.07L720.74,592.35L713.81,598.73L705.19,602.51L695.81,603.28L686.69,600.97L678.81,595.83L673.03,588.40L669.97,579.50L669.97,570.09L673.03,561.18L678.81,553.76L686.69,548.61L695.81,546.30L705.19,547.08L713.81,550.86L720.74,557.23L725.22,565.51L726.77,574.79"/>
    <path d="M213.44,623.00L212.51,628.57L209.82,633.54L205.67,637.37L200.50,639.64L194.87,640.10L189.39,638.72L184.66,635.63L181.19,631.17L179.36,625.83L179.36,620.18L181.19,614.84L184.66,610.38L189.39,607.29L194.87,605.90L200.50,606.37L205.67,608.64L209.82,612.46L212.51,617.43L213.44,623.00"/>
    <path d="M873.28,632.02L872.40,637.33L869.84,642.06L865.88,645.70L860.95,647.87L855.59,648.31L850.38,646.99L845.87,644.05L842.57,639.80L840.82,634.71L840.82,629.33L842.57,624.25L845.87,620.00L850.38,617.06L855.59,615.74L860.95,616.18L865.88,618.34L869.84,621.99L872.40,626.72L873.28,632.02"/>
    <path d="M769.21,696.39L768.34,701.63L765.81,706.30L761.89,709.90L757.03,712.04L751.73,712.48L746.58,711.17L742.13,708.27L738.86,704.07L737.14,699.04L737.14,693.73L738.86,688.70L742.13,684.51L746.58,681.60L751.73,680.30L757.03,680.73L761.89,682.87L765.81,686.47L768.34,691.14L769.21,696.39"/>
  </g>
</svg>
