  0
SECTION
  2
HEADER
  9
$ACADVER
  1
AC1014
  9
$HANDSEED
  5
FFFF
  9
$INSUNITS
 70
     0
  9
$MEASUREMENT
 70
     1
  0
ENDSEC
  0
SECTION
  2
TABLES
  0
TABLE
  2
VPORT
  5
8
330
0
100
AcDbSymbolTable
 70
     4
  0
VPORT
  5
2E
330
8
100
AcDbSymbolTableRecord
100
AcDbViewportTableRecord
  2
*ACTIVE
 70
     0
 10
0.0
 20
0.0
 11
1.0
 21
1.0
 12
210.0
 22
148.5
 13
0.0
 23
0.0
 14
10.0
 24
10.0
 15
10.0
 25
10.0
 16
0.0
 26
0.0
 36
1.0
 17
0.0
 27
0.0
 37
0.0
 40
341.0
 41
1.24
 42
50.0
 43
0.0
 44
0.0
 50
0.0
 51
0.0
 71
     0
 72
   100
 73
     1
 74
     3
 75
     0
 76
     0
 77
     0
 78
     0
  0
ENDTAB
  0
TABLE
  2
LTYPE
  5
5
330
0
100
AcDbSymbolTable
 70
     1
  0
LTYPE
  5
14
330
5
100
AcDbSymbolTableRecord
100
AcDbLinetypeTableRecord
  2
BYBLOCK
 70
     0
  3

 72
    65
 73
     0
 40
0.0
  0
LTYPE
  5
15
330
5
100
AcDbSymbolTableRecord
100
AcDbLinetypeTableRecord
  2
BYLAYER
 70
     0
  3

 72
    65
 73
     0
 40
0.0
  0
LTYPE
  5
16
330
5
100
AcDbSymbolTableRecord
100
AcDbLinetypeTableRecord
  2
CONTINUOUS
 70
     0
  3
Solid line
 72
    65
 73
     0
 40
0.0
  0
ENDTAB
  0
TABLE
  2
LAYER
  5
2
100
AcDbSymbolTable
 70
2
  0
LAYER
  5
50
100
AcDbSymbolTableRecord
100
AcDbLayerTableRecord
  2
0
 70
0
  6
CONTINUOUS
  0
LAYER
  5
51
100
AcDbSymbolTableRecord
100
AcDbLayerTableRecord
  2
Image
 70
0
  6
CONTINUOUS
  0
ENDTAB
  0
TABLE
  2
STYLE
  5
3
330
0
100
AcDbSymbolTable
 70
     1
  0
STYLE
  5
11
330
3
100
AcDbSymbolTableRecord
100
AcDbTextStyleTableRecord
  2
STANDARD
 70
     0
 40
0.0
 41
1.0
 50
0.0
 71
     0
 42
2.5
  3
txt
  4

  0
ENDTAB
  0
TABLE
  2
VIEW
  5
6
330
0
100
AcDbSymbolTable
 70
     0
  0
ENDTAB
  0
TABLE
  2
UCS
  5
7
330
0
100
AcDbSymbolTable
 70
     0
  0
ENDTAB
  0
TABLE
  2
APPID
  5
9
330
0
100
AcDbSymbolTable
 70
     2
  0
APPID
  5
12
330
9
100
AcDbSymbolTableRecord
100
AcDbRegAppTableRecord
  2
ACAD
 70
     0
  0
ENDTAB
  0
TABLE
  2
DIMSTYLE
  5
A
330
0
100
AcDbSymbolTable
 70
     1
  0
DIMSTYLE
105
27
330
A
100
AcDbSymbolTableRecord
100
AcDbDimStyleTableRecord
  2
ISO-25
 70
     0
  3

  4

  5

  6

  7

 40
1.0
 41
2.5
 42
0.625
 43
3.75
 44
1.25
 45
0.0
 46
0.0
 47
0.0
 48
0.0
140
2.5
141
2.5
142
0.0
143
0.03937007874016
144
1.0
145
0.0
146
1.0
147
0.625
 71
     0
 72
     0
 73
     0
 74
     0
 75
     0
 76
     0
 77
     1
 78
     8
170
     0
171
     3
172
     1
173
     0
174
     0
175
     0
176
     0
177
     0
178
     0
270
     2
271
     2
272
     2
273
     2
274
     3
340
11
275
     0
280
     0
281
     0
282
     0
283
     0
284
     8
285
     0
286
     0
287
     3
288
     0
  0
ENDTAB
  0
TABLE
  2
BLOCK_RECORD
  5
1
330
0
100
AcDbSymbolTable
 70
     1
  0
BLOCK_RECORD
  5
1F
330
1
100
AcDbSymbolTableRecord
100
AcDbBlockTableRecord
  2
*MODEL_SPACE
  0
BLOCK_RECORD
  5
1B
330
1
100
AcDbSymbolTableRecord
100
AcDbBlockTableRecord
  2
*PAPER_SPACE
  0
ENDTAB
  0
ENDSEC
  0
SECTION
  2
BLOCKS
  0
BLOCK
  5
20
330
1F
100
AcDbEntity
  8
0
100
AcDbBlockBegin
  2
*MODEL_SPACE
 70
     0
 10
0.0
 20
0.0
 30
0.0
  3
*MODEL_SPACE
  1

  0
ENDBLK
  5
21
330
1F
100
AcDbEntity
  8
0
100
AcDbBlockEnd
  0
BLOCK
  5
1C
330
1B
100
AcDbEntity
 67
     1
  8
0
100
AcDbBlockBegin
  2
*PAPER_SPACE
  1

  0
ENDBLK
  5
1D
330
1B
100
AcDbEntity
 67
     1
  8
0
100
AcDbBlockEnd
  0
ENDSEC
  0
SECTION
  2
ENTITIES
  0
SPLINE
  5
100
100
AcDbEntity
  8
Image
 62
7
100
AcDbSpline
 70
8
 71
3
 72
8
 73
4
 74
0
 40
0
 40
0
 40
0
 40
0
 40
1
 40
1
 40
1
 40
1
 10
559.500000
 20
171.779200
 30
0.0
 10
556.585180
 20
173.430200
 30
0.0
 10
544.451240
 20
174.641700
 30
0.0
 10
522.500000
 20
175.473700
 30
0.0
  0
SPLINE
  5
101
100
AcDbEntity
  8
Image
 62
7
100
AcDbSpline
 70
8
 71
3
 72
8
 73
4
 74
0
 40
0
 40
0
 40
0
 40
0
 40
1
 40
1
 40
1
 40
1
 10
522.500000
 20
175.473700
 30
0.0
 10
518.100000
 20
175.640400
 30
0.0
 10
512.580520
 20
176.296300
 30
0.0
 10
510.234490
 20
176.931200
 30
0.0
  0
SPLINE
  5
102
100
AcDbEntity
  8
Image
 62
7
100
AcDbSpline
 70
8
 71
3
 72
8
 73
4
 74
0
 40
0
 40
0
 40
0
 40
0
 40
1
 40
1
 40
1
 40
1
 10
510.234490
 20
176.931200
 30
0.0
 10
507.189790
 20
177.755100
 30
0.0
 10
504.900140
 20
177.788600
 30
0.0
 10
502.234490
 20
177.048300
 30
0.0
  0
SPLINE
  5
103
100
AcDbEntity
  8
Image
 62
7
100
AcDbSpline
 70
8
 71
3
 72
8
 73
4
 74
0
 40
0
 40
0
 40
0
 40
0
 40
1
 40
1
 40
1
 40
1
 10
502.234490
 20
177.048300
 30
0.0
 10
496.174410
 20
175.365300
 30
0.0
 10
489.743940
 20
175.834500
 30
0.0
 10
481.880900
 20
178.533500
 30
0.0
  0
SPLINE
  5
104
100
AcDbEntity
  8
Image
 62
7
100
AcDbSpline
 70
8
 71
3
 72
8
 73
4
 74
0
 40
0
 40
0
 40
0
 40
0
 40
1
 40
1
 40
1
 40
1
 10
481.880900
 20
178.533500
 30
0.0
 10
471.694420
 20
182.029900
 30
0.0
 10
465.513860
 20
183.916100
 30
0.0
 10
458.590310
 20
185.641300
 30
0.0
  0
SPLINE
  5
105
100
AcDbEntity
  8
Image
 62
7
100
AcDbSpline
 70
8
 71
3
 72
8
 73
4
 74
0
 40
0
 40
0
 40
0
 40
0
 40
1
 40
1
 40
1
 40
1
 10
458.590310
 20
185.641300
 30
0.0
 10
455.339980
 20
186.451200
 30
0.0
 10
451.424830
 20
187.763200
 30
0.0
 10
449.889970
 20
188.556900
 30
0.0
  0
SPLINE
  5
106
100
AcDbEntity
  8
Image
 62
7
100
AcDbSpline
 70
8
 71
3
 72
8
 73
4
 74
0
 40
0
 40
0
 40
0
 40
0
 40
1
 40
1
 40
1
 40
1
 10
449.889970
 20
188.556900
 30
0.0
 10
448.355110
 20
189.350600
 30
0.0
 10
445.591970
 20
190.000000
 30
0.0
 10
443.749660
 20
190.000000
 30
0.0
  0
SPLINE
  5
107
100
AcDbEntity
  8
Image
 62
7
100
AcDbSpline
 70
8
 71
3
 72
8
 73
4
 74
0
 40
0
 40
0
 40
0
 40
0
 40
1
 40
1
 40
1
 40
1
 10
443.749660
 20
190.000000
 30
0.0
 10
441.907350
 20
190.000000
 30
0.0
 10
439.972500
 20
190.414100
 30
0.0
 10
439.450000
 20
190.920300
 30
0.0
  0
SPLINE
  5
108
100
AcDbEntity
  8
Image
 62
7
100
AcDbSpline
 70
8
 71
3
 72
8
 73
4
 74
0
 40
0
 40
0
 40
0
 40
0
 40
1
 40
1
 40
1
 40
1
 10
439.450000
 20
190.920300
 30
0.0
 10
437.117760
 20
193.179600
 30
0.0
 10
420.777770
 20
200.849200
 30
0.0
 10
415.895140
 20
201.976400
 30
0.0
  0
SPLINE
  5
109
100
AcDbEntity
  8
Image
 62
7
100
AcDbSpline
 70
8
 71
3
 72
8
 73
4
 74
0
 40
0
 40
0
 40
0
 40
0
 40
1
 40
1
 40
1
 40
1
 10
415.895140
 20
201.976400
 30
0.0
 10
412.927810
 20
202.661400
 30
0.0
 10
408.925000
 20
204.145300
 30
0.0
 10
407.000000
 20
205.273900
 30
0.0
  0
SPLINE
  5
10a
100
AcDbEntity
  8
Image
 62
7
100
AcDbSpline
 70
8
 71
3
 72
8
 73
4
 74
0
 40
0
 40
0
 40
0
 40
0
 40
1
 40
1
 40
1
 40
1
 10
407.000000
 20
205.273900
 30
0.0
 10
405.075000
 20
206.402500
 30
0.0
 10
399.421300
 20
209.423200
 30
0.0
 10
394.436230
 20
211.986500
 30
0.0
  0
SPLINE
  5
10b
100
AcDbEntity
  8
Image
 62
7
100
AcDbSpline
 70
8
 71
3
 72
8
 73
4
 74
0
 40
0
 40
0
 40
0
 40
0
 40
1
 40
1
 40
1
 40
1
 10
394.436230
 20
211.986500
 30
0.0
 10
384.351830
 20
217.171900
 30
0.0
 10
371.355130
 20
225.624200
 30
0.0
 10
366.606450
 20
230.085300
 30
0.0
  0
SPLINE
  5
10c
100
AcDbEntity
  8
Image
 62
7
100
AcDbSpline
 70
8
 71
3
 72
8
 73
4
 74
0
 40
0
 40
0
 40
0
 40
0
 40
1
 40
1
 40
1
 40
1
 10
366.606450
 20
230.085300
 30
0.0
 10
364.897900
 20
231.690400
 30
0.0
 10
362.902280
 20
232.778400
 30
0.0
 10
362.171730
 20
232.503200
 30
0.0
  0
SPLINE
  5
10d
100
AcDbEntity
  8
Image
 62
7
100
AcDbSpline
 70
8
 71
3
 72
8
 73
4
 74
0
 40
0
 40
0
 40
0
 40
0
 40
1
 40
1
 40
1
 40
1
 10
362.171730
 20
232.503200
 30
0.0
 10
361.441180
 20
232.227900
 30
0.0
 10
359.479310
 20
233.366800
 30
0.0
 10
357.812010
 20
235.034100
 30
0.0
  0
SPLINE
  5
10e
100
AcDbEntity
  8
Image
 62
7
100
AcDbSpline
 70
8
 71
3
 72
8
 73
4
 74
0
 40
0
 40
0
 40
0
 40
0
 40
1
 40
1
 40
1
 40
1
 10
357.812010
 20
235.034100
 30
0.0
 10
356.144720
 20
236.701400
 30
0.0
 10
353.148690
 20
239.288300
 30
0.0
 10
351.154180
 20
240.782800
 30
0.0
  0
SPLINE
  5
10f
100
AcDbEntity
  8
Image
 62
7
100
AcDbSpline
 70
8
 71
3
 72
8
 73
4
 74
0
 40
0
 40
0
 40
0
 40
0
 40
1
 40
1
 40
1
 40
1
 10
351.154180
 20
240.782800
 30
0.0
 10
349.159670
 20
242.277300
 30
0.0
 10
346.396550
 20
244.484300
 30
0.0
 10
345.013900
 20
245.687400
 30
0.0
  0
SPLINE
  5
110
100
AcDbEntity
  8
Image
 62
7
100
AcDbSpline
 70
8
 71
3
 72
8
 73
4
 74
0
 40
0
 40
0
 40
0
 40
0
 40
1
 40
1
 40
1
 40
1
 10
345.013900
 20
245.687400
 30
0.0
 10
343.631260
 20
246.890400
 30
0.0
 10
340.566740
 20
249.171200
 30
0.0
 10
338.203870
 20
250.755800
 30
0.0
  0
SPLINE
  5
111
100
AcDbEntity
  8
Image
 62
7
100
AcDbSpline
 70
8
 71
3
 72
8
 73
4
 74
0
 40
0
 40
0
 40
0
 40
0
 40
1
 40
1
 40
1
 40
1
 10
338.203870
 20
250.755800
 30
0.0
 10
335.840990
 20
252.340500
 30
0.0
 10
330.440990
 20
256.827900
 30
0.0
 10
326.203870
 20
260.728000
 30
0.0
  0
SPLINE
  5
112
100
AcDbEntity
  8
Image
 62
7
100
AcDbSpline
 70
8
 71
3
 72
8
 73
4
 74
0
 40
0
 40
0
 40
0
 40
0
 40
1
 40
1
 40
1
 40
1
 10
326.203870
 20
260.728000
 30
0.0
 10
321.966740
 20
264.628100
 30
0.0
 10
317.192880
 20
268.908900
 30
0.0
 10
315.595300
 20
270.241000
 30
0.0
  0
SPLINE
  5
113
100
AcDbEntity
  8
Image
 62
7
100
AcDbSpline
 70
8
 71
3
 72
8
 73
4
 74
0
 40
0
 40
0
 40
0
 40
0
 40
1
 40
1
 40
1
 40
1
 10
315.595300
 20
270.241000
 30
0.0
 10
313.997710
 20
271.573000
 30
0.0
 10
312.611840
 20
273.731900
 30
0.0
 10
312.515580
 20
275.038500
 30
0.0
  0
SPLINE
  5
114
100
AcDbEntity
  8
Image
 62
7
100
AcDbSpline
 70
8
 71
3
 72
8
 73
4
 74
0
 40
0
 40
0
 40
0
 40
0
 40
1
 40
1
 40
1
 40
1
 10
312.515580
 20
275.038500
 30
0.0
 10
312.386260
 20
276.793800
 30
0.0
 10
311.527100
 20
277.625000
 30
0.0
 10
309.225510
 20
278.221400
 30
0.0
  0
SPLINE
  5
115
100
AcDbEntity
  8
Image
 62
7
100
AcDbSpline
 70
8
 71
3
 72
8
 73
4
 74
0
 40
0
 40
0
 40
0
 40
0
 40
1
 40
1
 40
1
 40
1
 10
309.225510
 20
278.221400
 30
0.0
 10
306.037030
 20
279.047600
 30
0.0
 10
286.336520
 20
297.722700
 30
0.0
 10
280.681630
 20
305.279500
 30
0.0
  0
SPLINE
  5
116
100
AcDbEntity
  8
Image
 62
7
100
AcDbSpline
 70
8
 71
3
 72
8
 73
4
 74
0
 40
0
 40
0
 40
0
 40
0
 40
1
 40
1
 40
1
 40
1
 10
280.681630
 20
305.279500
 30
0.0
 10
279.131530
 20
307.351000
 30
0.0
 10
276.868100
 20
310.048000
 30
0.0
 10
275.651800
 20
311.272900
 30
0.0
  0
SPLINE
  5
117
100
AcDbEntity
  8
Image
 62
7
100
AcDbSpline
 70
8
 71
3
 72
8
 73
4
 74
0
 40
0
 40
0
 40
0
 40
0
 40
1
 40
1
 40
1
 40
1
 10
275.651800
 20
311.272900
 30
0.0
 10
274.435490
 20
312.497800
 30
0.0
 10
272.778760
 20
314.448100
 30
0.0
 10
271.970170
 20
315.607000
 30
0.0
  0
SPLINE
  5
118
100
AcDbEntity
  8
Image
 62
7
100
AcDbSpline
 70
8
 71
3
 72
8
 73
4
 74
0
 40
0
 40
0
 40
0
 40
0
 40
1
 40
1
 40
1
 40
1
 10
271.970170
 20
315.607000
 30
0.0
 10
271.161580
 20
316.765800
 30
0.0
 10
268.475000
 20
320.086800
 30
0.0
 10
266.000000
 20
322.987100
 30
0.0
  0
SPLINE
  5
119
100
AcDbEntity
  8
Image
 62
7
100
AcDbSpline
 70
8
 71
3
 72
8
 73
4
 74
0
 40
0
 40
0
 40
0
 40
0
 40
1
 40
1
 40
1
 40
1
 10
266.000000
 20
322.987100
 30
0.0
 10
260.513990
 20
329.415600
 30
0.0
 10
257.223440
 20
333.976300
 30
0.0
 10
243.362450
 20
354.362500
 30
0.0
  0
SPLINE
  5
11a
100
AcDbEntity
  8
Image
 62
7
100
AcDbSpline
 70
8
 71
3
 72
8
 73
4
 74
0
 40
0
 40
0
 40
0
 40
0
 40
1
 40
1
 40
1
 40
1
 10
243.362450
 20
354.362500
 30
0.0
 10
237.430570
 20
363.086900
 30
0.0
 10
231.976470
 20
370.455500
 30
0.0
 10
231.242220
 20
370.737300
 30
0.0
  0
SPLINE
  5
11b
100
AcDbEntity
  8
Image
 62
7
100
AcDbSpline
 70
8
 71
3
 72
8
 73
4
 74
0
 40
0
 40
0
 40
0
 40
0
 40
1
 40
1
 40
1
 40
1
 10
231.242220
 20
370.737300
 30
0.0
 10
230.507970
 20
371.019100
 30
0.0
 10
228.745380
 20
373.555900
 30
0.0
 10
227.325360
 20
376.374800
 30
0.0
  0
SPLINE
  5
11c
100
AcDbEntity
  8
Image
 62
7
100
AcDbSpline
 70
8
 71
3
 72
8
 73
4
 74
0
 40
0
 40
0
 40
0
 40
0
 40
1
 40
1
 40
1
 40
1
 10
227.325360
 20
376.374800
 30
0.0
 10
225.905340
 20
379.193700
 30
0.0
 10
223.921770
 20
382.665600
 30
0.0
 10
222.917430
 20
384.090200
 30
0.0
  0
SPLINE
  5
11d
100
AcDbEntity
  8
Image
 62
7
100
AcDbSpline
 70
8
 71
3
 72
8
 73
4
 74
0
 40
0
 40
0
 40
0
 40
0
 40
1
 40
1
 40
1
 40
1
 10
222.917430
 20
384.090200
 30
0.0
 10
221.913080
 20
385.514900
 30
0.0
 10
218.679810
 20
391.364900
 30
0.0
 10
215.732380
 20
397.090200
 30
0.0
  0
SPLINE
  5
11e
100
AcDbEntity
  8
Image
 62
7
100
AcDbSpline
 70
8
 71
3
 72
8
 73
4
 74
0
 40
0
 40
0
 40
0
 40
0
 40
1
 40
1
 40
1
 40
1
 10
215.732380
 20
397.090200
 30
0.0
 10
212.784950
 20
402.815600
 30
0.0
 10
209.380070
 20
409.075000
 30
0.0
 10
208.165980
 20
411.000000
 30
0.0
  0
SPLINE
  5
11f
100
AcDbEntity
  8
Image
 62
7
100
AcDbSpline
 70
8
 71
3
 72
8
 73
4
 74
0
 40
0
 40
0
 40
0
 40
0
 40
1
 40
1
 40
1
 40
1
 10
208.165980
 20
411.000000
 30
0.0
 10
206.951890
 20
412.925000
 30
0.0
 10
205.673410
 20
415.594900
 30
0.0
 10
205.324920
 20
416.933000
 30
0.0
  0
SPLINE
  5
120
100
AcDbEntity
  8
Image
 62
7
100
AcDbSpline
 70
8
 71
3
 72
8
 73
4
 74
0
 40
0
 40
0
 40
0
 40
0
 40
1
 40
1
 40
1
 40
1
 10
205.324920
 20
416.933000
 30
0.0
 10
204.976430
 20
418.271200
 30
0.0
 10
203.642180
 20
420.912000
 30
0.0
 10
202.359900
 20
422.801600
 30
0.0
  0
SPLINE
  5
121
100
AcDbEntity
  8
Image
 62
7
100
AcDbSpline
 70
8
 71
3
 72
8
 73
4
 74
0
 40
0
 40
0
 40
0
 40
0
 40
1
 40
1
 40
1
 40
1
 10
202.359900
 20
422.801600
 30
0.0
 10
201.077630
 20
424.691100
 30
0.0
 10
200.273650
 20
426.633700
 30
0.0
 10
200.573270
 20
427.118500
 30
0.0
  0
SPLINE
  5
122
100
AcDbEntity
  8
Image
 62
7
100
AcDbSpline
 70
8
 71
3
 72
8
 73
4
 74
0
 40
0
 40
0
 40
0
 40
0
 40
1
 40
1
 40
1
 40
1
 10
200.573270
 20
427.118500
 30
0.0
 10
200.872890
 20
427.603300
 30
0.0
 10
200.718400
 20
428.000000
 30
0.0
 10
200.229950
 20
428.000000
 30
0.0
  0
SPLINE
  5
123
100
AcDbEntity
  8
Image
 62
7
100
AcDbSpline
 70
8
 71
3
 72
8
 73
4
 74
0
 40
0
 40
0
 40
0
 40
0
 40
1
 40
1
 40
1
 40
1
 10
200.229950
 20
428.000000
 30
0.0
 10
199.741510
 20
428.000000
 30
0.0
 10
198.307310
 20
430.362500
 30
0.0
 10
197.042840
 20
433.250000
 30
0.0
  0
SPLINE
  5
124
100
AcDbEntity
  8
Image
 62
7
100
AcDbSpline
 70
8
 71
3
 72
8
 73
4
 74
0
 40
0
 40
0
 40
0
 40
0
 40
1
 40
1
 40
1
 40
1
 10
197.042840
 20
433.250000
 30
0.0
 10
195.778370
 20
436.137500
 30
0.0
 10
192.952330
 20
440.951900
 30
0.0
 10
191.871900
 20
444.390500
 30
0.0
  0
SPLINE
  5
125
100
AcDbEntity
  8
Image
 62
7
100
AcDbSpline
 70
8
 71
3
 72
8
 73
4
 74
0
 40
0
 40
0
 40
0
 40
0
 40
1
 40
1
 40
1
 40
1
 10
191.871900
 20
444.390500
 30
0.0
 10
188.078420
 20
456.463700
 30
0.0
 10
190.354170
 20
450.106700
 30
0.0
 10
185.753940
 20
458.965200
 30
0.0
  0
SPLINE
  5
126
100
AcDbEntity
  8
Image
 62
7
100
AcDbSpline
 70
8
 71
3
 72
8
 73
4
 74
0
 40
0
 40
0
 40
0
 40
0
 40
1
 40
1
 40
1
 40
1
 10
185.753940
 20
458.965200
 30
0.0
 10
182.676220
 20
464.891900
 30
0.0
 10
182.782470
 20
467.337500
 30
0.0
 10
182.029680
 20
468.346100
 30
0.0
  0
SPLINE
  5
127
100
AcDbEntity
  8
Image
 62
7
100
AcDbSpline
 70
8
 71
3
 72
8
 73
4
 74
0
 40
0
 40
0
 40
0
 40
0
 40
1
 40
1
 40
1
 40
1
 10
182.029680
 20
468.346100
 30
0.0
 10
180.689450
 20
470.141800
 30
0.0
 10
178.133200
 20
476.426000
 30
0.0
 10
174.892430
 20
486.144500
 30
0.0
  0
SPLINE
  5
128
100
AcDbEntity
  8
Image
 62
7
100
AcDbSpline
 70
8
 71
3
 72
8
 73
4
 74
0
 40
0
 40
0
 40
0
 40
0
 40
1
 40
1
 40
1
 40
1
 10
174.892430
 20
486.144500
 30
0.0
 10
173.296780
 20
490.929500
 30
0.0
 10
171.207070
 20
496.975000
 30
0.0
 10
170.108250
 20
500.000000
 30
0.0
  0
SPLINE
  5
129
100
AcDbEntity
  8
Image
 62
7
100
AcDbSpline
 70
8
 71
3
 72
8
 73
4
 74
0
 40
0
 40
0
 40
0
 40
0
 40
1
 40
1
 40
1
 40
1
 10
170.108250
 20
500.000000
 30
0.0
 10
169.009430
 20
503.025000
 30
0.0
 10
167.369340
 20
508.425000
 30
0.0
 10
166.463610
 20
512.000000
 30
0.0
  0
SPLINE
  5
12a
100
AcDbEntity
  8
Image
 62
7
100
AcDbSpline
 70
8
 71
3
 72
8
 73
4
 74
0
 40
0
 40
0
 40
0
 40
0
 40
1
 40
1
 40
1
 40
1
 10
166.463610
 20
512.000000
 30
0.0
 10
165.557880
 20
515.575000
 30
0.0
 10
163.707020
 20
521.806800
 30
0.0
 10
162.350600
 20
525.848500
 30
0.0
  0
SPLINE
  5
12b
100
AcDbEntity
  8
Image
 62
7
100
AcDbSpline
 70
8
 71
3
 72
8
 73
4
 74
0
 40
0
 40
0
 40
0
 40
0
 40
1
 40
1
 40
1
 40
1
 10
162.350600
 20
525.848500
 30
0.0
 10
160.739820
 20
530.648100
 30
0.0
 10
160.980050
 20
534.213300
 30
0.0
 10
160.521640
 20
536.098540
 30
0.0
  0
SPLINE
  5
12c
100
AcDbEntity
  8
Image
 62
7
100
AcDbSpline
 70
8
 71
3
 72
8
 73
4
 74
0
 40
0
 40
0
 40
0
 40
0
 40
1
 40
1
 40
1
 40
1
 10
160.521640
 20
536.098540
 30
0.0
 10
157.034410
 20
550.440160
 30
0.0
 10
160.003910
 20
539.070270
 30
0.0
 10
158.649570
 20
543.354300
 30
0.0
  0
SPLINE
  5
12d
100
AcDbEntity
  8
Image
 62
7
100
AcDbSpline
 70
8
 71
3
 72
8
 73
4
 74
0
 40
0
 40
0
 40
0
 40
0
 40
1
 40
1
 40
1
 40
1
 10
158.649570
 20
543.354300
 30
0.0
 10
158.057330
 20
545.227680
 30
0.0
 10
156.577860
 20
548.898910
 30
0.0
 10
156.114880
 20
551.830920
 30
0.0
  0
SPLINE
  5
12e
100
AcDbEntity
  8
Image
 62
7
100
AcDbSpline
 70
8
 71
3
 72
8
 73
4
 74
0
 40
0
 40
0
 40
0
 40
0
 40
1
 40
1
 40
1
 40
1
 10
156.114880
 20
551.830920
 30
0.0
 10
151.260950
 20
582.570630
 30
0.0
 10
154.154160
 20
555.533270
 30
0.0
 10
152.489450
 20
567.619680
 30
0.0
  0
SPLINE
  5
12f
100
AcDbEntity
  8
Image
 62
7
100
AcDbSpline
 70
8
 71
3
 72
8
 73
4
 74
0
 40
0
 40
0
 40
0
 40
0
 40
1
 40
1
 40
1
 40
1
 10
152.489450
 20
567.619680
 30
0.0
 10
152.119750
 20
570.303860
 30
0.0
 10
151.411080
 20
574.113090
 30
0.0
 10
150.914620
 20
576.084650
 30
0.0
  0
SPLINE
  5
130
100
AcDbEntity
  8
Image
 62
7
100
AcDbSpline
 70
8
 71
3
 72
8
 73
4
 74
0
 40
0
 40
0
 40
0
 40
0
 40
1
 40
1
 40
1
 40
1
 10
150.914620
 20
576.084650
 30
0.0
 10
148.712720
 20
584.828870
 30
0.0
 10
144.816010
 20
607.361530
 30
0.0
 10
143.925340
 20
616.500000
 30
0.0
  0
SPLINE
  5
131
100
AcDbEntity
  8
Image
 62
7
100
AcDbSpline
 70
8
 71
3
 72
8
 73
4
 74
0
 40
0
 40
0
 40
0
 40
0
 40
1
 40
1
 40
1
 40
1
 10
143.925340
 20
616.500000
 30
0.0
 10
143.389300
 20
622.000000
 30
0.0
 10
142.496630
 20
629.650000
 30
0.0
 10
141.941630
 20
633.500000
 30
0.0
  0
SPLINE
  5
132
100
AcDbEntity
  8
Image
 62
7
100
AcDbSpline
 70
8
 71
3
 72
8
 73
4
 74
0
 40
0
 40
0
 40
0
 40
0
 40
1
 40
1
 40
1
 40
1
 10
141.941630
 20
633.500000
 30
0.0
 10
140.975290
 20
640.203540
 30
0.0
 10
140.218010
 20
646.090440
 30
0.0
 10
137.985970
 20
664.250000
 30
0.0
  0
SPLINE
  5
133
100
AcDbEntity
  8
Image
 62
7
100
AcDbSpline
 70
8
 71
3
 72
8
 73
4
 74
0
 40
0
 40
0
 40
0
 40
0
 40
1
 40
1
 40
1
 40
1
 10
137.985970
 20
664.250000
 30
0.0
 10
136.577190
 20
675.711710
 30
0.0
 10
135.261170
 20
694.562690
 30
0.0
 10
134.024180
 20
721.000000
 30
0.0
  0
SPLINE
  5
134
100
AcDbEntity
  8
Image
 62
7
100
AcDbSpline
 70
8
 71
3
 72
8
 73
4
 74
0
 40
0
 40
0
 40
0
 40
0
 40
1
 40
1
 40
1
 40
1
 10
134.024180
 20
721.000000
 30
0.0
 10
133.445150
 20
733.375000
 30
0.0
 10
132.865340
 20
744.388550
 30
0.0
 10
132.735700
 20
745.474560
 30
0.0
  0
SPLINE
  5
135
100
AcDbEntity
  8
Image
 62
7
100
AcDbSpline
 70
8
 71
3
 72
8
 73
4
 74
0
 40
0
 40
0
 40
0
 40
0
 40
1
 40
1
 40
1
 40
1
 10
132.735700
 20
745.474560
 30
0.0
 10
132.598070
 20
746.627600
 30
0.0
 10
133.124080
 20
747.500350
 30
0.0
 10
134.000000
 20
747.572250
 30
0.0
  0
SPLINE
  5
136
100
AcDbEntity
  8
Image
 62
7
100
AcDbSpline
 70
8
 71
3
 72
8
 73
4
 74
0
 40
0
 40
0
 40
0
 40
0
 40
1
 40
1
 40
1
 40
1
 10
134.000000
 20
747.572250
 30
0.0
 10
134.825000
 20
747.639950
 30
0.0
 10
136.237420
 20
747.763910
 30
0.0
 10
137.138710
 20
747.847690
 30
0.0
  0
SPLINE
  5
137
100
AcDbEntity
  8
Image
 62
7
100
AcDbSpline
 70
8
 71
3
 72
8
 73
4
 74
0
 40
0
 40
0
 40
0
 40
0
 40
1
 40
1
 40
1
 40
1
 10
137.138710
 20
747.847690
 30
0.0
 10
138.189470
 20
747.945390
 30
0.0
 10
139.026490
 20
749.327650
 30
0.0
 10
139.471610
 20
751.700380
 30
0.0
  0
SPLINE
  5
138
100
AcDbEntity
  8
Image
 62
7
100
AcDbSpline
 70
8
 71
3
 72
8
 73
4
 74
0
 40
0
 40
0
 40
0
 40
0
 40
1
 40
1
 40
1
 40
1
 10
139.471610
 20
751.700380
 30
0.0
 10
139.853420
 20
753.735590
 30
0.0
 10
140.833900
 20
755.889280
 30
0.0
 10
141.650460
 20
756.486360
 30
0.0
  0
SPLINE
  5
139
100
AcDbEntity
  8
Image
 62
7
100
AcDbSpline
 70
8
 71
3
 72
8
 73
4
 74
0
 40
0
 40
0
 40
0
 40
0
 40
1
 40
1
 40
1
 40
1
 10
141.650460
 20
756.486360
 30
0.0
 10
142.845530
 20
757.360220
 30
0.0
 10
142.606820
 20
757.548830
 30
0.0
 10
140.426550
 20
757.453390
 30
0.0
  0
SPLINE
  5
13a
100
AcDbEntity
  8
Image
 62
7
100
AcDbSpline
 70
8
 71
3
 72
8
 73
4
 74
0
 40
0
 40
0
 40
0
 40
0
 40
1
 40
1
 40
1
 40
1
 10
140.426550
 20
757.453390
 30
0.0
 10
137.082850
 20
757.307020
 30
0.0
 10
134.847230
 20
754.456880
 30
0.0
 10
135.629940
 20
751.338310
 30
0.0
  0
SPLINE
  5
13b
100
AcDbEntity
  8
Image
 62
7
100
AcDbSpline
 70
8
 71
3
 72
8
 73
4
 74
0
 40
0
 40
0
 40
0
 40
0
 40
1
 40
1
 40
1
 40
1
 10
135.629940
 20
751.338310
 30
0.0
 10
136.104830
 20
749.446190
 30
0.0
 10
135.818210
 20
749.000000
 30
0.0
 10
134.127910
 20
749.000000
 30
0.0
  0
SPLINE
  5
13c
100
AcDbEntity
  8
Image
 62
7
100
AcDbSpline
 70
8
 71
3
 72
8
 73
4
 74
0
 40
0
 40
0
 40
0
 40
0
 40
1
 40
1
 40
1
 40
1
 10
134.127910
 20
749.000000
 30
0.0
 10
132.085320
 20
749.000000
 30
0.0
 10
132.051850
 20
749.293770
 30
0.0
 10
132.618420
 20
762.250000
 30
0.0
  0
SPLINE
  5
13d
100
AcDbEntity
  8
Image
 62
7
100
AcDbSpline
 70
8
 71
3
 72
8
 73
4
 74
0
 40
0
 40
0
 40
0
 40
0
 40
1
 40
1
 40
1
 40
1
 10
132.618420
 20
762.250000
 30
0.0
 10
132.937090
 20
769.537500
 30
0.0
 10
133.140000
 20
776.850000
 30
0.0
 10
133.069330
 20
778.500000
 30
0.0
  0
SPLINE
  5
13e
100
AcDbEntity
  8
Image
 62
7
100
AcDbSpline
 70
8
 71
3
 72
8
 73
4
 74
0
 40
0
 40
0
 40
0
 40
0
 40
1
 40
1
 40
1
 40
1
 10
133.069330
 20
778.500000
 30
0.0
 10
132.998630
 20
780.150000
 30
0.0
 10
132.803030
 20
791.586380
 30
0.0
 10
132.634600
 20
803.914190
 30
0.0
  0
SPLINE
  5
13f
100
AcDbEntity
  8
Image
 62
7
100
AcDbSpline
 70
8
 71
3
 72
8
 73
4
 74
0
 40
0
 40
0
 40
0
 40
0
 40
1
 40
1
 40
1
 40
1
 10
132.634600
 20
803.914190
 30
0.0
 10
132.347780
 20
824.908130
 30
0.0
 10
132.449980
 20
826.449980
 30
0.0
 10
134.247520
 20
828.247520
 30
0.0
  0
SPLINE
  5
140
100
AcDbEntity
  8
Image
 62
7
100
AcDbSpline
 70
8
 71
3
 72
8
 73
4
 74
0
 40
0
 40
0
 40
0
 40
0
 40
1
 40
1
 40
1
 40
1
 10
134.247520
 20
828.247520
 30
0.0
 10
135.303050
 20
829.303050
 30
0.0
 10
135.945290
 20
830.388040
 30
0.0
 10
135.674730
 20
830.658610
 30
0.0
  0
SPLINE
  5
141
100
AcDbEntity
  8
Image
 62
7
100
AcDbSpline
 70
8
 71
3
 72
8
 73
4
 74
0
 40
0
 40
0
 40
0
 40
0
 40
1
 40
1
 40
1
 40
1
 10
135.674730
 20
830.658610
 30
0.0
 10
135.404160
 20
830.929170
 30
0.0
 10
135.574410
 20
832.516060
 30
0.0
 10
136.053070
 20
834.185030
 30
0.0
  0
SPLINE
  5
142
100
AcDbEntity
  8
Image
 62
7
100
AcDbSpline
 70
8
 71
3
 72
8
 73
4
 74
0
 40
0
 40
0
 40
0
 40
0
 40
1
 40
1
 40
1
 40
1
 10
136.053070
 20
834.185030
 30
0.0
 10
136.701060
 20
836.444470
 30
0.0
 10
136.541700
 20
837.601160
 30
0.0
 10
135.429100
 20
838.713750
 30
0.0
  0
SPLINE
  5
143
100
AcDbEntity
  8
Image
 62
7
100
AcDbSpline
 70
8
 71
3
 72
8
 73
4
 74
0
 40
0
 40
0
 40
0
 40
0
 40
1
 40
1
 40
1
 40
1
 10
135.429100
 20
838.713750
 30
0.0
 10
134.219480
 20
839.923380
 30
0.0
 10
134.026730
 20
842.331040
 30
0.0
 10
134.417180
 20
851.354000
 30
0.0
  0
SPLINE
  5
144
100
AcDbEntity
  8
Image
 62
7
100
AcDbSpline
 70
8
 71
3
 72
8
 73
4
 74
0
 40
0
 40
0
 40
0
 40
0
 40
1
 40
1
 40
1
 40
1
 10
134.417180
 20
851.354000
 30
0.0
 10
135.997300
 20
887.869440
 30
0.0
 10
138.469470
 20
911.464180
 30
0.0
 10
144.019530
 20
943.000000
 30
0.0
  0
SPLINE
  5
145
100
AcDbEntity
  8
Image
 62
7
100
AcDbSpline
 70
8
 71
3
 72
8
 73
4
 74
0
 40
0
 40
0
 40
0
 40
0
 40
1
 40
1
 40
1
 40
1
 10
144.019530
 20
943.000000
 30
0.0
 10
145.035890
 20
948.775000
 30
0.0
 10
146.131770
 20
956.134820
 30
0.0
 10
146.454820
 20
959.355160
 30
0.0
  0
SPLINE
  5
146
100
AcDbEntity
  8
Image
 62
7
100
AcDbSpline
 70
8
 71
3
 72
8
 73
4
 74
0
 40
0
 40
0
 40
0
 40
0
 40
1
 40
1
 40
1
 40
1
 10
146.454820
 20
959.355160
 30
0.0
 10
146.777870
 20
962.575490
 30
0.0
 10
147.494340
 20
966.055170
 30
0.0
 10
148.046970
 20
967.087770
 30
0.0
  0
SPLINE
  5
147
100
AcDbEntity
  8
Image
 62
7
100
AcDbSpline
 70
8
 71
3
 72
8
 73
4
 74
0
 40
0
 40
0
 40
0
 40
0
 40
1
 40
1
 40
1
 40
1
 10
148.046970
 20
967.087770
 30
0.0
 10
148.599600
 20
968.120370
 30
0.0
 10
149.501290
 20
972.685550
 30
0.0
 10
150.050730
 20
977.232610
 30
0.0
  0
SPLINE
  5
148
100
AcDbEntity
  8
Image
 62
7
100
AcDbSpline
 70
8
 71
3
 72
8
 73
4
 74
0
 40
0
 40
0
 40
0
 40
0
 40
1
 40
1
 40
1
 40
1
 10
150.050730
 20
977.232610
 30
0.0
 10
151.213460
 20
986.855200
 30
0.0
 10
154.898630
 20
1003.998270
 30
0.0
 10
156.151060
 20
1005.610770
 30
0.0
  0
SPLINE
  5
149
100
AcDbEntity
  8
Image
 62
7
100
AcDbSpline
 70
8
 71
3
 72
8
 73
4
 74
0
 40
0
 40
0
 40
0
 40
0
 40
1
 40
1
 40
1
 40
1
 10
156.151060
 20
1005.610770
 30
0.0
 10
156.625560
 20
1006.221690
 30
0.0
 10
157.285580
 20
1010.181970
 30
0.0
 10
157.981990
 20
1014.357940
 30
0.0
  0
SPLINE
  5
14a
100
AcDbEntity
  8
Image
 62
7
100
AcDbSpline
 70
8
 71
3
 72
8
 73
4
 74
0
 40
0
 40
0
 40
0
 40
0
 40
1
 40
1
 40
1
 40
1
 10
157.981990
 20
1014.357940
 30
0.0
 10
161.886320
 20
1037.769940
 30
0.0
 10
159.861360
 20
1023.420930
 30
0.0
 10
162.015180
 20
1030.899340
 30
0.0
  0
SPLINE
  5
14b
100
AcDbEntity
  8
Image
 62
7
100
AcDbSpline
 70
8
 71
3
 72
8
 73
4
 74
0
 40
0
 40
0
 40
0
 40
0
 40
1
 40
1
 40
1
 40
1
 10
162.015180
 20
1030.899340
 30
0.0
 10
162.023180
 20
1032.329710
 30
0.0
 10
162.472840
 20
1035.569880
 30
0.0
 10
163.369770
 20
1037.980400
 30
0.0
  0
SPLINE
  5
14c
100
AcDbEntity
  8
Image
 62
7
100
AcDbSpline
 70
8
 71
3
 72
8
 73
4
 74
0
 40
0
 40
0
 40
0
 40
0
 40
1
 40
1
 40
1
 40
1
 10
163.369770
 20
1037.980400
 30
0.0
 10
167.780850
 20
1049.835320
 30
0.0
 10
162.193800
 20
1036.374330
 30
0.0
 10
165.888220
 20
1045.418500
 30
0.0
  0
SPLINE
  5
14d
100
AcDbEntity
  8
Image
 62
7
100
AcDbSpline
 70
8
 71
3
 72
8
 73
4
 74
0
 40
0
 40
0
 40
0
 40
0
 40
1
 40
1
 40
1
 40
1
 10
166.483180
 20
1047.959250
 30
0.0
 10
168.569800
 20
1056.870090
 30
0.0
 10
176.042440
 20
1079.363380
 30
0.0
 10
178.954830
 20
1085.500000
 30
0.0
  0
SPLINE
  5
14e
100
AcDbEntity
  8
Image
 62
7
100
AcDbSpline
 70
8
 71
3
 72
8
 73
4
 74
0
 40
0
 40
0
 40
0
 40
0
 40
1
 40
1
 40
1
 40
1
 10
178.954830
 20
1085.500000
 30
0.0
 10
179.998940
 20
1087.700000
 30
0.0
 10
181.799330
 20
1092.199860
 30
0.0
 10
182.954830
 20
1095.500000
 30
0.0
  0
SPLINE
  5
14f
100
AcDbEntity
  8
Image
 62
7
100
AcDbSpline
 70
8
 71
3
 72
8
 73
4
 74
0
 40
0
 40
0
 40
0
 40
0
 40
1
 40
1
 40
1
 40
1
 10
182.954830
 20
1095.500000
 30
0.0
 10
185.015420
 20
1101.385110
 30
0.0
 10
203.519330
 20
1133.375450
 30
0.0
 10
202.398850
 20
1131.599560
 30
0.0
  0
SPLINE
  5
150
100
AcDbEntity
  8
Image
 62
7
100
AcDbSpline
 70
8
 71
3
 72
8
 73
4
 74
0
 40
0
 40
0
 40
0
 40
0
 40
1
 40
1
 40
1
 40
1
 10
202.398850
 20
1131.599560
 30
0.0
 10
200.693230
 20
1128.896250
 30
0.0
 10
200.999250
 20
1137.428680
 30
0.0
 10
205.318940
 20
1145.500000
 30
0.0
  0
SPLINE
  5
151
100
AcDbEntity
  8
Image
 62
7
100
AcDbSpline
 70
8
 71
3
 72
8
 73
4
 74
0
 40
0
 40
0
 40
0
 40
0
 40
1
 40
1
 40
1
 40
1
 10
205.318940
 20
1145.500000
 30
0.0
 10
209.157240
 20
1152.671840
 30
0.0
 10
209.957580
 20
1153.564010
 30
0.0
 10
213.050230
 20
1154.118360
 30
0.0
  0
SPLINE
  5
152
100
AcDbEntity
  8
Image
 62
7
100
AcDbSpline
 70
8
 71
3
 72
8
 73
4
 74
0
 40
0
 40
0
 40
0
 40
0
 40
1
 40
1
 40
1
 40
1
 10
213.050230
 20
1154.118360
 30
0.0
 10
216.197400
 20
1154.682480
 30
0.0
 10
216.253170
 20
1154.748260
 30
0.0
 10
213.686020
 20
1154.868360
 30
0.0
  0
LWPOLYLINE
  5
153
100
AcDbEntity
  8
Image
 62
7
100
AcDbPolyline
 90
2
 70
0
 10
165.888220
 20
1045.418500
 30
0.0
 10
166.483180
 20
1047.959250
 30
0.0
  0
SPLINE
  5
154
100
AcDbEntity
  8
Image
 62
7
100
AcDbSpline
 70
8
 71
3
 72
8
 73
4
 74
0
 40
0
 40
0
 40
0
 40
0
 40
1
 40
1
 40
1
 40
1
 10
212.811660
 20
1158.750000
 30
0.0
 10
213.878450
 20
1160.812500
 30
0.0
 10
215.805820
 20
1164.750000
 30
0.0
 10
217.094710
 20
1167.500000
 30
0.0
  0
SPLINE
  5
155
100
AcDbEntity
  8
Image
 62
7
100
AcDbSpline
 70
8
 71
3
 72
8
 73
4
 74
0
 40
0
 40
0
 40
0
 40
0
 40
1
 40
1
 40
1
 40
1
 10
217.094710
 20
1167.500000
 30
0.0
 10
218.383600
 20
1170.250000
 30
0.0
 10
220.558860
 20
1174.300000
 30
0.0
 10
221.928620
 20
1176.500000
 30
0.0
  0
SPLINE
  5
156
100
AcDbEntity
  8
Image
 62
7
100
AcDbSpline
 70
8
 71
3
 72
8
 73
4
 74
0
 40
0
 40
0
 40
0
 40
0
 40
1
 40
1
 40
1
 40
1
 10
221.928620
 20
1176.500000
 30
0.0
 10
223.298380
 20
1178.700000
 30
0.0
 10
225.714140
 20
1182.975000
 30
0.0
 10
227.296960
 20
1186.000000
 30
0.0
  0
SPLINE
  5
157
100
AcDbEntity
  8
Image
 62
7
100
AcDbSpline
 70
8
 71
3
 72
8
 73
4
 74
0
 40
0
 40
0
 40
0
 40
0
 40
1
 40
1
 40
1
 40
1
 10
227.296960
 20
1186.000000
 30
0.0
 10
228.879790
 20
1189.025000
 30
0.0
 10
230.810490
 20
1192.210430
 30
0.0
 10
231.587410
 20
1193.078740
 30
0.0
  0
SPLINE
  5
158
100
AcDbEntity
  8
Image
 62
7
100
AcDbSpline
 70
8
 71
3
 72
8
 73
4
 74
0
 40
0
 40
0
 40
0
 40
0
 40
1
 40
1
 40
1
 40
1
 10
231.587410
 20
1193.078740
 30
0.0
 10
232.364340
 20
1193.947050
 30
0.0
 10
233.000000
 20
1194.995790
 30
0.0
 10
233.000000
 20
1195.409270
 30
0.0
  0
SPLINE
  5
159
100
AcDbEntity
  8
Image
 62
7
100
AcDbSpline
 70
8
 71
3
 72
8
 73
4
 74
0
 40
0
 40
0
 40
0
 40
0
 40
1
 40
1
 40
1
 40
1
 10
233.000000
 20
1195.409270
 30
0.0
 10
233.000000
 20
1197.221280
 30
0.0
 10
258.701880
 20
1233.011530
 30
0.0
 10
264.662660
 20
1239.500000
 30
0.0
  0
SPLINE
  5
15a
100
AcDbEntity
  8
Image
 62
7
100
AcDbSpline
 70
8
 71
3
 72
8
 73
4
 74
0
 40
0
 40
0
 40
0
 40
0
 40
1
 40
1
 40
1
 40
1
 10
264.662660
 20
1239.500000
 30
0.0
 10
265.673190
 20
1240.600000
 30
0.0
 10
268.525000
 20
1243.964110
 30
0.0
 10
271.000000
 20
1246.975800
 30
0.0
  0
SPLINE
  5
15b
100
AcDbEntity
  8
Image
 62
7
100
AcDbSpline
 70
8
 71
3
 72
8
 73
4
 74
0
 40
0
 40
0
 40
0
 40
0
 40
1
 40
1
 40
1
 40
1
 10
271.000000
 20
1246.975800
 30
0.0
 10
276.856800
 20
1254.102610
 30
0.0
 10
305.973030
 20
1283.209320
 30
0.0
 10
313.024200
 20
1288.986250
 30
0.0
  0
SPLINE
  5
15c
100
AcDbEntity
  8
Image
 62
7
100
AcDbSpline
 70
8
 71
3
 72
8
 73
4
 74
0
 40
0
 40
0
 40
0
 40
0
 40
1
 40
1
 40
1
 40
1
 10
313.024200
 20
1288.986250
 30
0.0
 10
316.035890
 20
1291.453690
 30
0.0
 10
318.725000
 20
1293.746680
 30
0.0
 10
319.000000
 20
1294.081780
 30
0.0
  0
SPLINE
  5
15d
100
AcDbEntity
  8
Image
 62
7
100
AcDbSpline
 70
8
 71
3
 72
8
 73
4
 74
0
 40
0
 40
0
 40
0
 40
0
 40
1
 40
1
 40
1
 40
1
 10
319.000000
 20
1294.081780
 30
0.0
 10
319.275000
 20
1294.416880
 30
0.0
 10
322.270250
 20
1296.571260
 30
0.0
 10
325.656100
 20
1298.869280
 30
0.0
  0
SPLINE
  5
15e
100
AcDbEntity
  8
Image
 62
7
100
AcDbSpline
 70
8
 71
3
 72
8
 73
4
 74
0
 40
0
 40
0
 40
0
 40
0
 40
1
 40
1
 40
1
 40
1
 10
325.656100
 20
1298.869280
 30
0.0
 10
329.041960
 20
1301.167300
 30
0.0
 10
333.572590
 20
1304.724310
 30
0.0
 10
335.724180
 20
1306.773750
 30
0.0
  0
SPLINE
  5
15f
100
AcDbEntity
  8
Image
 62
7
100
AcDbSpline
 70
8
 71
3
 72
8
 73
4
 74
0
 40
0
 40
0
 40
0
 40
0
 40
1
 40
1
 40
1
 40
1
 10
335.724180
 20
1306.773750
 30
0.0
 10
341.144790
 20
1311.937020
 30
0.0
 10
359.745770
 20
1325.398040
 30
0.0
 10
366.177510
 20
1328.811990
 30
0.0
  0
SPLINE
  5
160
100
AcDbEntity
  8
Image
 62
7
100
AcDbSpline
 70
8
 71
3
 72
8
 73
4
 74
0
 40
0
 40
0
 40
0
 40
0
 40
1
 40
1
 40
1
 40
1
 10
366.177510
 20
1328.811990
 30
0.0
 10
369.104880
 20
1330.365830
 30
0.0
 10
373.292930
 20
1332.731290
 30
0.0
 10
375.484300
 20
1334.068580
 30
0.0
  0
SPLINE
  5
161
100
AcDbEntity
  8
Image
 62
7
100
AcDbSpline
 70
8
 71
3
 72
8
 73
4
 74
0
 40
0
 40
0
 40
0
 40
0
 40
1
 40
1
 40
1
 40
1
 10
375.484300
 20
1334.068580
 30
0.0
 10
384.236230
 20
1339.409460
 30
0.0
 10
406.510390
 20
1351.000000
 30
0.0
 10
408.022320
 20
1351.000000
 30
0.0
  0
SPLINE
  5
162
100
AcDbEntity
  8
Image
 62
7
100
AcDbSpline
 70
8
 71
3
 72
8
 73
4
 74
0
 40
0
 40
0
 40
0
 40
0
 40
1
 40
1
 40
1
 40
1
 10
408.022320
 20
1351.000000
 30
0.0
 10
408.604590
 20
1351.000000
 30
0.0
 10
410.300260
 20
1351.881520
 30
0.0
 10
411.790490
 20
1352.958930
 30
0.0
  0
SPLINE
  5
163
100
AcDbEntity
  8
Image
 62
7
100
AcDbSpline
 70
8
 71
3
 72
8
 73
4
 74
0
 40
0
 40
0
 40
0
 40
0
 40
1
 40
1
 40
1
 40
1
 10
411.790490
 20
1352.958930
 30
0.0
 10
413.280720
 20
1354.036340
 30
0.0
 10
416.750000
 20
1355.658850
 30
0.0
 10
419.500000
 20
1356.564520
 30
0.0
  0
SPLINE
  5
164
100
AcDbEntity
  8
Image
 62
7
100
AcDbSpline
 70
8
 71
3
 72
8
 73
4
 74
0
 40
0
 40
0
 40
0
 40
0
 40
1
 40
1
 40
1
 40
1
 10
419.500000
 20
1356.564520
 30
0.0
 10
422.250000
 20
1357.470180
 30
0.0
 10
426.875840
 20
1359.288660
 30
0.0
 10
429.779640
 20
1360.605590
 30
0.0
  0
SPLINE
  5
165
100
AcDbEntity
  8
Image
 62
7
100
AcDbSpline
 70
8
 71
3
 72
8
 73
4
 74
0
 40
0
 40
0
 40
0
 40
0
 40
1
 40
1
 40
1
 40
1
 10
429.779640
 20
1360.605590
 30
0.0
 10
432.683430
 20
1361.922510
 30
0.0
 10
435.510890
 20
1363.000000
 30
0.0
 10
436.062880
 20
1363.000000
 30
0.0
  0
SPLINE
  5
166
100
AcDbEntity
  8
Image
 62
7
100
AcDbSpline
 70
8
 71
3
 72
8
 73
4
 74
0
 40
0
 40
0
 40
0
 40
0
 40
1
 40
1
 40
1
 40
1
 10
436.062880
 20
1363.000000
 30
0.0
 10
436.614860
 20
1363.000000
 30
0.0
 10
439.353110
 20
1364.158720
 30
0.0
 10
442.147870
 20
1365.574930
 30
0.0
  0
SPLINE
  5
167
100
AcDbEntity
  8
Image
 62
7
100
AcDbSpline
 70
8
 71
3
 72
8
 73
4
 74
0
 40
0
 40
0
 40
0
 40
0
 40
1
 40
1
 40
1
 40
1
 10
442.147870
 20
1365.574930
 30
0.0
 10
450.085250
 20
1369.597100
 30
0.0
 10
479.460600
 20
1378.852860
 30
0.0
 10
499.500000
 20
1383.645760
 30
0.0
  0
SPLINE
  5
168
100
AcDbEntity
  8
Image
 62
7
100
AcDbSpline
 70
8
 71
3
 72
8
 73
4
 74
0
 40
0
 40
0
 40
0
 40
0
 40
1
 40
1
 40
1
 40
1
 10
499.500000
 20
1383.645760
 30
0.0
 10
520.382090
 20
1388.640220
 30
0.0
 10
583.972490
 20
1391.045380
 30
0.0
 10
618.500000
 20
1388.146670
 30
0.0
  0
SPLINE
  5
169
100
AcDbEntity
  8
Image
 62
7
100
AcDbSpline
 70
8
 71
3
 72
8
 73
4
 74
0
 40
0
 40
0
 40
0
 40
0
 40
1
 40
1
 40
1
 40
1
 10
618.500000
 20
1388.146670
 30
0.0
 10
645.718970
 20
1385.861530
 30
0.0
 10
652.710150
 20
1385.080010
 30
0.0
 10
659.499630
 20
1383.563480
 30
0.0
  0
SPLINE
  5
16a
100
AcDbEntity
  8
Image
 62
7
100
AcDbSpline
 70
8
 71
3
 72
8
 73
4
 74
0
 40
0
 40
0
 40
0
 40
0
 40
1
 40
1
 40
1
 40
1
 10
659.499630
 20
1383.563480
 30
0.0
 10
663.349420
 20
1382.703560
 30
0.0
 10
668.299420
 20
1381.977320
 30
0.0
 10
670.499630
 20
1381.949590
 30
0.0
  0
SPLINE
  5
16b
100
AcDbEntity
  8
Image
 62
7
100
AcDbSpline
 70
8
 71
3
 72
8
 73
4
 74
0
 40
0
 40
0
 40
0
 40
0
 40
1
 40
1
 40
1
 40
1
 10
670.499630
 20
1381.949590
 30
0.0
 10
672.699830
 20
1381.921890
 30
0.0
 10
678.325000
 20
1380.997920
 30
0.0
 10
683.000000
 20
1379.896370
 30
0.0
  0
SPLINE
  5
16c
100
AcDbEntity
  8
Image
 62
7
100
AcDbSpline
 70
8
 71
3
 72
8
 73
4
 74
0
 40
0
 40
0
 40
0
 40
0
 40
1
 40
1
 40
1
 40
1
 10
683.000000
 20
1379.896370
 30
0.0
 10
687.675000
 20
1378.794810
 30
0.0
 10
695.550000
 20
1377.005050
 30
0.0
 10
700.500000
 20
1375.919120
 30
0.0
  0
SPLINE
  5
16d
100
AcDbEntity
  8
Image
 62
7
100
AcDbSpline
 70
8
 71
3
 72
8
 73
4
 74
0
 40
0
 40
0
 40
0
 40
0
 40
1
 40
1
 40
1
 40
1
 10
700.500000
 20
1375.919120
 30
0.0
 10
720.257130
 20
1371.584810
 30
0.0
 10
731.667540
 20
1368.627390
 30
0.0
 10
735.000000
 20
1366.977210
 30
0.0
  0
SPLINE
  5
16e
100
AcDbEntity
  8
Image
 62
7
100
AcDbSpline
 70
8
 71
3
 72
8
 73
4
 74
0
 40
0
 40
0
 40
0
 40
0
 40
1
 40
1
 40
1
 40
1
 10
735.000000
 20
1366.977210
 30
0.0
 10
736.925000
 20
1366.023990
 30
0.0
 10
740.075000
 20
1364.915690
 30
0.0
 10
742.000000
 20
1364.514340
 30
0.0
  0
SPLINE
  5
16f
100
AcDbEntity
  8
Image
 62
7
100
AcDbSpline
 70
8
 71
3
 72
8
 73
4
 74
0
 40
0
 40
0
 40
0
 40
0
 40
1
 40
1
 40
1
 40
1
 10
742.000000
 20
1364.514340
 30
0.0
 10
747.309980
 20
1363.407230
 30
0.0
 10
762.867190
 20
1358.096860
 30
0.0
 10
768.500000
 20
1355.468700
 30
0.0
  0
SPLINE
  5
170
100
AcDbEntity
  8
Image
 62
7
100
AcDbSpline
 70
8
 71
3
 72
8
 73
4
 74
0
 40
0
 40
0
 40
0
 40
0
 40
1
 40
1
 40
1
 40
1
 10
768.500000
 20
1355.468700
 30
0.0
 10
771.250000
 20
1354.185600
 30
0.0
 10
775.659810
 20
1352.428010
 30
0.0
 10
778.299570
 20
1351.562930
 30
0.0
  0
SPLINE
  5
171
100
AcDbEntity
  8
Image
 62
7
100
AcDbSpline
 70
8
 71
3
 72
8
 73
4
 74
0
 40
0
 40
0
 40
0
 40
0
 40
1
 40
1
 40
1
 40
1
 10
778.299570
 20
1351.562930
 30
0.0
 10
780.939330
 20
1350.697860
 30
0.0
 10
784.764330
 20
1349.146310
 30
0.0
 10
786.799570
 20
1348.115050
 30
0.0
  0
SPLINE
  5
172
100
AcDbEntity
  8
Image
 62
7
100
AcDbSpline
 70
8
 71
3
 72
8
 73
4
 74
0
 40
0
 40
0
 40
0
 40
0
 40
1
 40
1
 40
1
 40
1
 10
786.799570
 20
1348.115050
 30
0.0
 10
788.834810
 20
1347.083790
 30
0.0
 10
793.476860
 20
1345.054400
 30
0.0
 10
797.115250
 20
1343.605300
 30
0.0
  0
SPLINE
  5
173
100
AcDbEntity
  8
Image
 62
7
100
AcDbSpline
 70
8
 71
3
 72
8
 73
4
 74
0
 40
0
 40
0
 40
0
 40
0
 40
1
 40
1
 40
1
 40
1
 10
797.115250
 20
1343.605300
 30
0.0
 10
806.882350
 20
1339.715240
 30
0.0
 10
863.851070
 20
1310.814420
 30
0.0
 10
869.573900
 20
1306.846270
 30
0.0
  0
SPLINE
  5
174
100
AcDbEntity
  8
Image
 62
7
100
AcDbSpline
 70
8
 71
3
 72
8
 73
4
 74
0
 40
0
 40
0
 40
0
 40
0
 40
1
 40
1
 40
1
 40
1
 10
869.573900
 20
1306.846270
 30
0.0
 10
872.283260
 20
1304.967640
 30
0.0
 10
877.875000
 20
1301.694580
 30
0.0
 10
882.000000
 20
1299.572800
 30
0.0
  0
SPLINE
  5
175
100
AcDbEntity
  8
Image
 62
7
100
AcDbSpline
 70
8
 71
3
 72
8
 73
4
 74
0
 40
0
 40
0
 40
0
 40
0
 40
1
 40
1
 40
1
 40
1
 10
882.000000
 20
1299.572800
 30
0.0
 10
886.125000
 20
1297.451020
 30
0.0
 10
890.052310
 20
1295.282500
 30
0.0
 10
890.727360
 20
1294.753860
 30
0.0
  0
SPLINE
  5
176
100
AcDbEntity
  8
Image
 62
7
100
AcDbSpline
 70
8
 71
3
 72
8
 73
4
 74
0
 40
0
 40
0
 40
0
 40
0
 40
1
 40
1
 40
1
 40
1
 10
890.727360
 20
1294.753860
 30
0.0
 10
891.402410
 20
1294.225210
 30
0.0
 10
894.552410
 20
1292.450000
 30
0.0
 10
897.727360
 20
1290.808930
 30
0.0
  0
SPLINE
  5
177
100
AcDbEntity
  8
Image
 62
7
100
AcDbSpline
 70
8
 71
3
 72
8
 73
4
 74
0
 40
0
 40
0
 40
0
 40
0
 40
1
 40
1
 40
1
 40
1
 10
897.727360
 20
1290.808930
 30
0.0
 10
900.902310
 20
1289.167860
 30
0.0
 10
904.210430
 20
1287.189510
 30
0.0
 10
905.078740
 20
1286.412590
 30
0.0
  0
SPLINE
  5
178
100
AcDbEntity
  8
Image
 62
7
100
AcDbSpline
 70
8
 71
3
 72
8
 73
4
 74
0
 40
0
 40
0
 40
0
 40
0
 40
1
 40
1
 40
1
 40
1
 10
905.078740
 20
1286.412590
 30
0.0
 10
905.947050
 20
1285.635660
 30
0.0
 10
906.968490
 20
1285.000000
 30
0.0
 10
907.348610
 20
1285.000000
 30
0.0
  0
SPLINE
  5
179
100
AcDbEntity
  8
Image
 62
7
100
AcDbSpline
 70
8
 71
3
 72
8
 73
4
 74
0
 40
0
 40
0
 40
0
 40
0
 40
1
 40
1
 40
1
 40
1
 10
907.348610
 20
1285.000000
 30
0.0
 10
907.728730
 20
1285.000000
 30
0.0
 10
909.943300
 20
1283.780700
 30
0.0
 10
912.269870
 20
1282.290450
 30
0.0
  0
SPLINE
  5
17a
100
AcDbEntity
  8
Image
 62
7
100
AcDbSpline
 70
8
 71
3
 72
8
 73
4
 74
0
 40
0
 40
0
 40
0
 40
0
 40
1
 40
1
 40
1
 40
1
 10
912.269870
 20
1282.290450
 30
0.0
 10
914.596440
 20
1280.800200
 30
0.0
 10
918.975000
 20
1278.285860
 30
0.0
 10
922.000000
 20
1276.703040
 30
0.0
  0
SPLINE
  5
17b
100
AcDbEntity
  8
Image
 62
7
100
AcDbSpline
 70
8
 71
3
 72
8
 73
4
 74
0
 40
0
 40
0
 40
0
 40
0
 40
1
 40
1
 40
1
 40
1
 10
922.000000
 20
1276.703040
 30
0.0
 10
925.025000
 20
1275.120210
 30
0.0
 10
928.210430
 20
1273.189510
 30
0.0
 10
929.078740
 20
1272.412590
 30
0.0
  0
SPLINE
  5
17c
100
AcDbEntity
  8
Image
 62
7
100
AcDbSpline
 70
8
 71
3
 72
8
 73
4
 74
0
 40
0
 40
0
 40
0
 40
0
 40
1
 40
1
 40
1
 40
1
 10
929.078740
 20
1272.412590
 30
0.0
 10
929.947050
 20
1271.635660
 30
0.0
 10
930.968490
 20
1271.000000
 30
0.0
 10
931.348610
 20
1271.000000
 30
0.0
  0
SPLINE
  5
17d
100
AcDbEntity
  8
Image
 62
7
100
AcDbSpline
 70
8
 71
3
 72
8
 73
4
 74
0
 40
0
 40
0
 40
0
 40
0
 40
1
 40
1
 40
1
 40
1
 10
931.348610
 20
1271.000000
 30
0.0
 10
931.728730
 20
1271.000000
 30
0.0
 10
933.943300
 20
1269.780700
 30
0.0
 10
936.269870
 20
1268.290450
 30
0.0
  0
SPLINE
  5
17e
100
AcDbEntity
  8
Image
 62
7
100
AcDbSpline
 70
8
 71
3
 72
8
 73
4
 74
0
 40
0
 40
0
 40
0
 40
0
 40
1
 40
1
 40
1
 40
1
 10
936.269870
 20
1268.290450
 30
0.0
 10
938.596440
 20
1266.800200
 30
0.0
 10
942.804280
 20
1264.369370
 30
0.0
 10
945.620610
 20
1262.888600
 30
0.0
  0
SPLINE
  5
17f
100
AcDbEntity
  8
Image
 62
7
100
AcDbSpline
 70
8
 71
3
 72
8
 73
4
 74
0
 40
0
 40
0
 40
0
 40
0
 40
1
 40
1
 40
1
 40
1
 10
945.620610
 20
1262.888600
 30
0.0
 10
948.436950
 20
1261.407840
 30
0.0
 10
953.044840
 20
1258.577140
 30
0.0
 10
955.860360
 20
1256.598150
 30
0.0
  0
SPLINE
  5
180
100
AcDbEntity
  8
Image
 62
7
100
AcDbSpline
 70
8
 71
3
 72
8
 73
4
 74
0
 40
0
 40
0
 40
0
 40
0
 40
1
 40
1
 40
1
 40
1
 10
955.860360
 20
1256.598150
 30
0.0
 10
958.675880
 20
1254.619170
 30
0.0
 10
961.256340
 20
1253.000000
 30
0.0
 10
961.594720
 20
1253.000000
 30
0.0
  0
SPLINE
  5
181
100
AcDbEntity
  8
Image
 62
7
100
AcDbSpline
 70
8
 71
3
 72
8
 73
4
 74
0
 40
0
 40
0
 40
0
 40
0
 40
1
 40
1
 40
1
 40
1
 10
961.594720
 20
1253.000000
 30
0.0
 10
961.933100
 20
1253.000000
 30
0.0
 10
964.210270
 20
1251.650000
 30
0.0
 10
966.655110
 20
1250.000000
 30
0.0
  0
SPLINE
  5
182
100
AcDbEntity
  8
Image
 62
7
100
AcDbSpline
 70
8
 71
3
 72
8
 73
4
 74
0
 40
0
 40
0
 40
0
 40
0
 40
1
 40
1
 40
1
 40
1
 10
966.655110
 20
1250.000000
 30
0.0
 10
969.099940
 20
1248.350000
 30
0.0
 10
971.349940
 20
1247.000000
 30
0.0
 10
971.655110
 20
1247.000000
 30
0.0
  0
SPLINE
  5
183
100
AcDbEntity
  8
Image
 62
7
100
AcDbSpline
 70
8
 71
3
 72
8
 73
4
 74
0
 40
0
 40
0
 40
0
 40
0
 40
1
 40
1
 40
1
 40
1
 10
971.655110
 20
1247.000000
 30
0.0
 10
971.960270
 20
1247.000000
 30
0.0
 10
974.210270
 20
1245.650000
 30
0.0
 10
976.655110
 20
1244.000000
 30
0.0
  0
SPLINE
  5
184
100
AcDbEntity
  8
Image
 62
7
100
AcDbSpline
 70
8
 71
3
 72
8
 73
4
 74
0
 40
0
 40
0
 40
0
 40
0
 40
1
 40
1
 40
1
 40
1
 10
976.655110
 20
1244.000000
 30
0.0
 10
979.099940
 20
1242.350000
 30
0.0
 10
981.311650
 20
1241.000000
 30
0.0
 10
981.570000
 20
1241.000000
 30
0.0
  0
SPLINE
  5
185
100
AcDbEntity
  8
Image
 62
7
100
AcDbSpline
 70
8
 71
3
 72
8
 73
4
 74
0
 40
0
 40
0
 40
0
 40
0
 40
1
 40
1
 40
1
 40
1
 10
981.570000
 20
1241.000000
 30
0.0
 10
981.828360
 20
1241.000000
 30
0.0
 10
983.943300
 20
1239.776480
 30
0.0
 10
986.269870
 20
1238.281060
 30
0.0
  0
SPLINE
  5
186
100
AcDbEntity
  8
Image
 62
7
100
AcDbSpline
 70
8
 71
3
 72
8
 73
4
 74
0
 40
0
 40
0
 40
0
 40
0
 40
1
 40
1
 40
1
 40
1
 10
986.269870
 20
1238.281060
 30
0.0
 10
988.596440
 20
1236.785640
 30
0.0
 10
992.300000
 20
1234.617450
 30
0.0
 10
994.500000
 20
1233.462860
 30
0.0
  0
SPLINE
  5
187
100
AcDbEntity
  8
Image
 62
7
100
AcDbSpline
 70
8
 71
3
 72
8
 73
4
 74
0
 40
0
 40
0
 40
0
 40
0
 40
1
 40
1
 40
1
 40
1
 10
994.500000
 20
1233.462860
 30
0.0
 10
996.700000
 20
1232.308260
 30
0.0
 10
1001.200000
 20
1229.609080
 30
0.0
 10
1004.500000
 20
1227.464690
 30
0.0
  0
SPLINE
  5
188
100
AcDbEntity
  8
Image
 62
7
100
AcDbSpline
 70
8
 71
3
 72
8
 73
4
 74
0
 40
0
 40
0
 40
0
 40
0
 40
1
 40
1
 40
1
 40
1
 10
1004.500000
 20
1227.464690
 30
0.0
 10
1007.800000
 20
1225.320290
 30
0.0
 10
1013.875000
 20
1221.811590
 30
0.0
 10
1018.000000
 20
1219.667580
 30
0.0
  0
SPLINE
  5
189
100
AcDbEntity
  8
Image
 62
7
100
AcDbSpline
 70
8
 71
3
 72
8
 73
4
 74
0
 40
0
 40
0
 40
0
 40
0
 40
1
 40
1
 40
1
 40
1
 10
1018.000000
 20
1219.667580
 30
0.0
 10
1022.125000
 20
1217.523570
 30
0.0
 10
1026.210400
 20
1215.146270
 30
0.0
 10
1027.078700
 20
1214.384690
 30
0.0
  0
SPLINE
  5
18a
100
AcDbEntity
  8
Image
 62
7
100
AcDbSpline
 70
8
 71
3
 72
8
 73
4
 74
0
 40
0
 40
0
 40
0
 40
0
 40
1
 40
1
 40
1
 40
1
 10
1027.078700
 20
1214.384690
 30
0.0
 10
1027.947000
 20
1213.623110
 30
0.0
 10
1029.197400
 20
1213.000000
 30
0.0
 10
1029.857300
 20
1213.000000
 30
0.0
  0
SPLINE
  5
18b
100
AcDbEntity
  8
Image
 62
7
100
AcDbSpline
 70
8
 71
3
 72
8
 73
4
 74
0
 40
0
 40
0
 40
0
 40
0
 40
1
 40
1
 40
1
 40
1
 10
1029.857300
 20
1213.000000
 30
0.0
 10
1031.059100
 20
1213.000000
 30
0.0
 10
1038.128200
 20
1209.411740
 30
0.0
 10
1047.500000
 20
1204.044600
 30
0.0
  0
SPLINE
  5
18c
100
AcDbEntity
  8
Image
 62
7
100
AcDbSpline
 70
8
 71
3
 72
8
 73
4
 74
0
 40
0
 40
0
 40
0
 40
0
 40
1
 40
1
 40
1
 40
1
 10
1047.500000
 20
1204.044600
 30
0.0
 10
1050.250000
 20
1202.469700
 30
0.0
 10
1053.090900
 20
1201.140390
 30
0.0
 10
1053.813000
 20
1201.090580
 30
0.0
  0
SPLINE
  5
18d
100
AcDbEntity
  8
Image
 62
7
100
AcDbSpline
 70
8
 71
3
 72
8
 73
4
 74
0
 40
0
 40
0
 40
0
 40
0
 40
1
 40
1
 40
1
 40
1
 10
1053.813000
 20
1201.090580
 30
0.0
 10
1054.535200
 20
1201.040780
 30
0.0
 10
1057.910200
 20
1199.676420
 30
0.0
 10
1061.313000
 20
1198.058700
 30
0.0
  0
SPLINE
  5
18e
100
AcDbEntity
  8
Image
 62
7
100
AcDbSpline
 70
8
 71
3
 72
8
 73
4
 74
0
 40
0
 40
0
 40
0
 40
0
 40
1
 40
1
 40
1
 40
1
 10
1061.313000
 20
1198.058700
 30
0.0
 10
1072.513000
 20
1192.734220
 30
0.0
 10
1117.273100
 20
1178.319400
 30
0.0
 10
1135.500000
 20
1174.167050
 30
0.0
  0
SPLINE
  5
18f
100
AcDbEntity
  8
Image
 62
7
100
AcDbSpline
 70
8
 71
3
 72
8
 73
4
 74
0
 40
0
 40
0
 40
0
 40
0
 40
1
 40
1
 40
1
 40
1
 10
1135.500000
 20
1174.167050
 30
0.0
 10
1190.281900
 20
1161.686930
 30
0.0
 10
1223.568300
 20
1159.492390
 30
0.0
 10
1281.500000
 20
1164.541390
 30
0.0
  0
SPLINE
  5
190
100
AcDbEntity
  8
Image
 62
7
100
AcDbSpline
 70
8
 71
3
 72
8
 73
4
 74
0
 40
0
 40
0
 40
0
 40
0
 40
1
 40
1
 40
1
 40
1
 10
1281.500000
 20
1164.541390
 30
0.0
 10
1288.615700
 20
1165.161550
 30
0.0
 10
1298.302700
 20
1167.083940
 30
0.0
 10
1299.623300
 20
1168.137960
 30
0.0
  0
SPLINE
  5
191
100
AcDbEntity
  8
Image
 62
7
100
AcDbSpline
 70
8
 71
3
 72
8
 73
4
 74
0
 40
0
 40
0
 40
0
 40
0
 40
1
 40
1
 40
1
 40
1
 10
1299.623300
 20
1168.137960
 30
0.0
 10
1300.241000
 20
1168.631060
 30
0.0
 10
1301.415300
 20
1168.777870
 30
0.0
 10
1302.232700
 20
1168.464190
 30
0.0
  0
SPLINE
  5
192
100
AcDbEntity
  8
Image
 62
7
100
AcDbSpline
 70
8
 71
3
 72
8
 73
4
 74
0
 40
0
 40
0
 40
0
 40
0
 40
1
 40
1
 40
1
 40
1
 10
1302.232700
 20
1168.464190
 30
0.0
 10
1303.596000
 20
1167.941040
 30
0.0
 10
1318.137200
 20
1171.220920
 30
0.0
 10
1329.000000
 20
1174.501760
 30
0.0
  0
SPLINE
  5
193
100
AcDbEntity
  8
Image
 62
7
100
AcDbSpline
 70
8
 71
3
 72
8
 73
4
 74
0
 40
0
 40
0
 40
0
 40
0
 40
1
 40
1
 40
1
 40
1
 10
1329.000000
 20
1174.501760
 30
0.0
 10
1331.475000
 20
1175.249280
 30
0.0
 10
1336.200000
 20
1176.641020
 30
0.0
 10
1339.500000
 20
1177.594520
 30
0.0
  0
SPLINE
  5
194
100
AcDbEntity
  8
Image
 62
7
100
AcDbSpline
 70
8
 71
3
 72
8
 73
4
 74
0
 40
0
 40
0
 40
0
 40
0
 40
1
 40
1
 40
1
 40
1
 10
1339.500000
 20
1177.594520
 30
0.0
 10
1342.800000
 20
1178.548030
 30
0.0
 10
1345.950000
 20
1179.653640
 30
0.0
 10
1346.500000
 20
1180.051440
 30
0.0
  0
SPLINE
  5
195
100
AcDbEntity
  8
Image
 62
7
100
AcDbSpline
 70
8
 71
3
 72
8
 73
4
 74
0
 40
0
 40
0
 40
0
 40
0
 40
1
 40
1
 40
1
 40
1
 10
1346.500000
 20
1180.051440
 30
0.0
 10
1347.050000
 20
1180.449230
 30
0.0
 10
1351.775000
 20
1182.207360
 30
0.0
 10
1357.000000
 20
1183.958390
 30
0.0
  0
SPLINE
  5
196
100
AcDbEntity
  8
Image
 62
7
100
AcDbSpline
 70
8
 71
3
 72
8
 73
4
 74
0
 40
0
 40
0
 40
0
 40
0
 40
1
 40
1
 40
1
 40
1
 10
1357.000000
 20
1183.958390
 30
0.0
 10
1362.225000
 20
1185.709410
 30
0.0
 10
1369.650000
 20
1188.659940
 30
0.0
 10
1373.500000
 20
1190.515110
 30
0.0
  0
SPLINE
  5
197
100
AcDbEntity
  8
Image
 62
7
100
AcDbSpline
 70
8
 71
3
 72
8
 73
4
 74
0
 40
0
 40
0
 40
0
 40
0
 40
1
 40
1
 40
1
 40
1
 10
1373.500000
 20
1190.515110
 30
0.0
 10
1377.350000
 20
1192.370290
 30
0.0
 10
1382.750000
 20
1194.621470
 30
0.0
 10
1385.500000
 20
1195.517740
 30
0.0
  0
SPLINE
  5
198
100
AcDbEntity
  8
Image
 62
7
100
AcDbSpline
 70
8
 71
3
 72
8
 73
4
 74
0
 40
0
 40
0
 40
0
 40
0
 40
1
 40
1
 40
1
 40
1
 10
1385.500000
 20
1195.517740
 30
0.0
 10
1388.250000
 20
1196.414010
 30
0.0
 10
1394.168500
 20
1198.914180
 30
0.0
 10
1398.652300
 20
1201.073660
 30
0.0
  0
SPLINE
  5
199
100
AcDbEntity
  8
Image
 62
7
100
AcDbSpline
 70
8
 71
3
 72
8
 73
4
 74
0
 40
0
 40
0
 40
0
 40
0
 40
1
 40
1
 40
1
 40
1
 10
1398.652300
 20
1201.073660
 30
0.0
 10
1403.136100
 20
1203.233150
 30
0.0
 10
1407.197600
 20
1205.000000
 30
0.0
 10
1407.677800
 20
1205.000000
 30
0.0
  0
SPLINE
  5
19a
100
AcDbEntity
  8
Image
 62
7
100
AcDbSpline
 70
8
 71
3
 72
8
 73
4
 74
0
 40
0
 40
0
 40
0
 40
0
 40
1
 40
1
 40
1
 40
1
 10
1407.677800
 20
1205.000000
 30
0.0
 10
1408.158000
 20
1205.000000
 30
0.0
 10
1411.239500
 20
1206.335880
 30
0.0
 10
1414.525500
 20
1207.968620
 30
0.0
  0
SPLINE
  5
19b
100
AcDbEntity
  8
Image
 62
7
100
AcDbSpline
 70
8
 71
3
 72
8
 73
4
 74
0
 40
0
 40
0
 40
0
 40
0
 40
1
 40
1
 40
1
 40
1
 10
1414.525500
 20
1207.968620
 30
0.0
 10
1417.811500
 20
1209.601360
 30
0.0
 10
1420.955000
 20
1210.951360
 30
0.0
 10
1421.511000
 20
1210.968620
 30
0.0
  0
SPLINE
  5
19c
100
AcDbEntity
  8
Image
 62
7
100
AcDbSpline
 70
8
 71
3
 72
8
 73
4
 74
0
 40
0
 40
0
 40
0
 40
0
 40
1
 40
1
 40
1
 40
1
 10
1421.511000
 20
1210.968620
 30
0.0
 10
1422.067100
 20
1210.985920
 30
0.0
 10
1426.117100
 20
1212.788610
 30
0.0
 10
1430.511000
 20
1214.974690
 30
0.0
  0
SPLINE
  5
19d
100
AcDbEntity
  8
Image
 62
7
100
AcDbSpline
 70
8
 71
3
 72
8
 73
4
 74
0
 40
0
 40
0
 40
0
 40
0
 40
1
 40
1
 40
1
 40
1
 10
1430.511000
 20
1214.974690
 30
0.0
 10
1434.905000
 20
1217.160770
 30
0.0
 10
1439.009300
 20
1218.960770
 30
0.0
 10
1439.631700
 20
1218.974690
 30
0.0
  0
SPLINE
  5
19e
100
AcDbEntity
  8
Image
 62
7
100
AcDbSpline
 70
8
 71
3
 72
8
 73
4
 74
0
 40
0
 40
0
 40
0
 40
0
 40
1
 40
1
 40
1
 40
1
 10
1439.631700
 20
1218.974690
 30
0.0
 10
1440.254200
 20
1218.988590
 30
0.0
 10
1445.282600
 20
1221.250000
 30
0.0
 10
1450.805900
 20
1224.000000
 30
0.0
  0
SPLINE
  5
19f
100
AcDbEntity
  8
Image
 62
7
100
AcDbSpline
 70
8
 71
3
 72
8
 73
4
 74
0
 40
0
 40
0
 40
0
 40
0
 40
1
 40
1
 40
1
 40
1
 10
1450.805900
 20
1224.000000
 30
0.0
 10
1456.329200
 20
1226.750000
 30
0.0
 10
1461.530900
 20
1229.000000
 30
0.0
 10
1462.365100
 20
1229.000000
 30
0.0
  0
SPLINE
  5
1a0
100
AcDbEntity
  8
Image
 62
7
100
AcDbSpline
 70
8
 71
3
 72
8
 73
4
 74
0
 40
0
 40
0
 40
0
 40
0
 40
1
 40
1
 40
1
 40
1
 10
1462.365100
 20
1229.000000
 30
0.0
 10
1463.199400
 20
1229.000000
 30
0.0
 10
1464.132100
 20
1229.404780
 30
0.0
 10
1464.437900
 20
1229.899520
 30
0.0
  0
SPLINE
  5
1a1
100
AcDbEntity
  8
Image
 62
7
100
AcDbSpline
 70
8
 71
3
 72
8
 73
4
 74
0
 40
0
 40
0
 40
0
 40
0
 40
1
 40
1
 40
1
 40
1
 10
1464.437900
 20
1229.899520
 30
0.0
 10
1464.743700
 20
1230.394260
 30
0.0
 10
1467.357700
 20
1231.365680
 30
0.0
 10
1470.246900
 20
1232.058250
 30
0.0
  0
SPLINE
  5
1a2
100
AcDbEntity
  8
Image
 62
7
100
AcDbSpline
 70
8
 71
3
 72
8
 73
4
 74
0
 40
0
 40
0
 40
0
 40
0
 40
1
 40
1
 40
1
 40
1
 10
1470.246900
 20
1232.058250
 30
0.0
 10
1473.136100
 20
1232.750810
 30
0.0
 10
1476.857900
 20
1234.079580
 30
0.0
 10
1478.517500
 20
1235.011060
 30
0.0
  0
SPLINE
  5
1a3
100
AcDbEntity
  8
Image
 62
7
100
AcDbSpline
 70
8
 71
3
 72
8
 73
4
 74
0
 40
0
 40
0
 40
0
 40
0
 40
1
 40
1
 40
1
 40
1
 10
1478.517500
 20
1235.011060
 30
0.0
 10
1480.177100
 20
1235.942550
 30
0.0
 10
1484.452100
 20
1237.708400
 30
0.0
 10
1488.017500
 20
1238.935190
 30
0.0
  0
SPLINE
  5
1a4
100
AcDbEntity
  8
Image
 62
7
100
AcDbSpline
 70
8
 71
3
 72
8
 73
4
 74
0
 40
0
 40
0
 40
0
 40
0
 40
1
 40
1
 40
1
 40
1
 10
1488.017500
 20
1238.935190
 30
0.0
 10
1491.582900
 20
1240.161970
 30
0.0
 10
1497.650000
 20
1242.676910
 30
0.0
 10
1501.500000
 20
1244.523930
 30
0.0
  0
SPLINE
  5
1a5
100
AcDbEntity
  8
Image
 62
7
100
AcDbSpline
 70
8
 71
3
 72
8
 73
4
 74
0
 40
0
 40
0
 40
0
 40
0
 40
1
 40
1
 40
1
 40
1
 10
1501.500000
 20
1244.523930
 30
0.0
 10
1505.350000
 20
1246.370950
 30
0.0
 10
1513.450000
 20
1249.500870
 30
0.0
 10
1519.500000
 20
1251.479290
 30
0.0
  0
SPLINE
  5
1a6
100
AcDbEntity
  8
Image
 62
7
100
AcDbSpline
 70
8
 71
3
 72
8
 73
4
 74
0
 40
0
 40
0
 40
0
 40
0
 40
1
 40
1
 40
1
 40
1
 10
1519.500000
 20
1251.479290
 30
0.0
 10
1525.550000
 20
1253.457710
 30
0.0
 10
1531.400000
 20
1255.497120
 30
0.0
 10
1532.500000
 20
1256.011300
 30
0.0
  0
SPLINE
  5
1a7
100
AcDbEntity
  8
Image
 62
7
100
AcDbSpline
 70
8
 71
3
 72
8
 73
4
 74
0
 40
0
 40
0
 40
0
 40
0
 40
1
 40
1
 40
1
 40
1
 10
1532.500000
 20
1256.011300
 30
0.0
 10
1534.528800
 20
1256.959640
 30
0.0
 10
1542.208500
 20
1258.958520
 30
0.0
 10
1554.000000
 20
1261.607300
 30
0.0
  0
SPLINE
  5
1a8
100
AcDbEntity
  8
Image
 62
7
100
AcDbSpline
 70
8
 71
3
 72
8
 73
4
 74
0
 40
0
 40
0
 40
0
 40
0
 40
1
 40
1
 40
1
 40
1
 10
1554.000000
 20
1261.607300
 30
0.0
 10
1557.575000
 20
1262.410380
 30
0.0
 10
1561.855100
 20
1263.697410
 30
0.0
 10
1563.511300
 20
1264.467370
 30
0.0
  0
SPLINE
  5
1a9
100
AcDbEntity
  8
Image
 62
7
100
AcDbSpline
 70
8
 71
3
 72
8
 73
4
 74
0
 40
0
 40
0
 40
0
 40
0
 40
1
 40
1
 40
1
 40
1
 10
1563.511300
 20
1264.467370
 30
0.0
 10
1567.789800
 20
1266.456390
 30
0.0
 10
1599.311800
 20
1272.657270
 30
0.0
 10
1614.057300
 20
1274.410570
 30
0.0
  0
SPLINE
  5
1aa
100
AcDbEntity
  8
Image
 62
7
100
AcDbSpline
 70
8
 71
3
 72
8
 73
4
 74
0
 40
0
 40
0
 40
0
 40
0
 40
1
 40
1
 40
1
 40
1
 10
1614.057300
 20
1274.410570
 30
0.0
 10
1645.216000
 20
1278.115460
 30
0.0
 10
1681.840100
 20
1277.052610
 30
0.0
 10
1714.225600
 20
1271.503630
 30
0.0
  0
SPLINE
  5
1ab
100
AcDbEntity
  8
Image
 62
7
100
AcDbSpline
 70
8
 71
3
 72
8
 73
4
 74
0
 40
0
 40
0
 40
0
 40
0
 40
1
 40
1
 40
1
 40
1
 10
1714.225600
 20
1271.503630
 30
0.0
 10
1726.676400
 20
1269.370290
 30
0.0
 10
1747.548700
 20
1262.099850
 30
0.0
 10
1761.374100
 20
1255.080450
 30
0.0
  0
SPLINE
  5
1ac
100
AcDbEntity
  8
Image
 62
7
100
AcDbSpline
 70
8
 71
3
 72
8
 73
4
 74
0
 40
0
 40
0
 40
0
 40
0
 40
1
 40
1
 40
1
 40
1
 10
1761.374100
 20
1255.080450
 30
0.0
 10
1773.657000
 20
1248.844160
 30
0.0
 10
1780.812000
 20
1243.913630
 30
0.0
 10
1789.425500
 20
1235.750000
 30
0.0
  0
SPLINE
  5
1ad
100
AcDbEntity
  8
Image
 62
7
100
AcDbSpline
 70
8
 71
3
 72
8
 73
4
 74
0
 40
0
 40
0
 40
0
 40
0
 40
1
 40
1
 40
1
 40
1
 10
1789.425500
 20
1235.750000
 30
0.0
 10
1792.182000
 20
1233.137500
 30
0.0
 10
1794.727700
 20
1231.000000
 30
0.0
 10
1795.082600
 20
1231.000000
 30
0.0
  0
SPLINE
  5
1ae
100
AcDbEntity
  8
Image
 62
7
100
AcDbSpline
 70
8
 71
3
 72
8
 73
4
 74
0
 40
0
 40
0
 40
0
 40
0
 40
1
 40
1
 40
1
 40
1
 10
1795.082600
 20
1231.000000
 30
0.0
 10
1795.810900
 20
1231.000000
 30
0.0
 10
1798.924100
 20
1226.403660
 30
0.0
 10
1804.328700
 20
1217.349270
 30
0.0
  0
SPLINE
  5
1af
100
AcDbEntity
  8
Image
 62
7
100
AcDbSpline
 70
8
 71
3
 72
8
 73
4
 74
0
 40
0
 40
0
 40
0
 40
0
 40
1
 40
1
 40
1
 40
1
 10
1804.328700
 20
1217.349270
 30
0.0
 10
1806.630800
 20
1213.492400
 30
0.0
 10
1808.000000
 20
1209.930820
 30
0.0
 10
1808.000000
 20
1207.799270
 30
0.0
  0
SPLINE
  5
1b0
100
AcDbEntity
  8
Image
 62
7
100
AcDbSpline
 70
8
 71
3
 72
8
 73
4
 74
0
 40
0
 40
0
 40
0
 40
0
 40
1
 40
1
 40
1
 40
1
 10
1808.000000
 20
1207.799270
 30
0.0
 10
1808.000000
 20
1205.929670
 30
0.0
 10
1808.494900
 20
1203.905100
 30
0.0
 10
1809.099800
 20
1203.300230
 30
0.0
  0
SPLINE
  5
1b1
100
AcDbEntity
  8
Image
 62
7
100
AcDbSpline
 70
8
 71
3
 72
8
 73
4
 74
0
 40
0
 40
0
 40
0
 40
0
 40
1
 40
1
 40
1
 40
1
 10
1809.099800
 20
1203.300230
 30
0.0
 10
1809.742800
 20
1202.657220
 30
0.0
 10
1810.199200
 20
1198.317080
 30
0.0
 10
1810.198700
 20
1192.850230
 30
0.0
  0
SPLINE
  5
1b2
100
AcDbEntity
  8
Image
 62
7
100
AcDbSpline
 70
8
 71
3
 72
8
 73
4
 74
0
 40
0
 40
0
 40
0
 40
0
 40
1
 40
1
 40
1
 40
1
 10
1810.198700
 20
1192.850230
 30
0.0
 10
1810.198700
 20
1180.143800
 30
0.0
 10
1810.283700
 20
1180.702110
 30
0.0
 10
1807.724100
 20
1176.889550
 30
0.0
  0
SPLINE
  5
1b3
100
AcDbEntity
  8
Image
 62
7
100
AcDbSpline
 70
8
 71
3
 72
8
 73
4
 74
0
 40
0
 40
0
 40
0
 40
0
 40
1
 40
1
 40
1
 40
1
 10
1807.724100
 20
1176.889550
 30
0.0
 10
1806.472400
 20
1175.025300
 30
0.0
 10
1804.816200
 20
1171.559910
 30
0.0
 10
1804.043800
 20
1169.188690
 30
0.0
  0
SPLINE
  5
1b4
100
AcDbEntity
  8
Image
 62
7
100
AcDbSpline
 70
8
 71
3
 72
8
 73
4
 74
0
 40
0
 40
0
 40
0
 40
0
 40
1
 40
1
 40
1
 40
1
 10
1804.043800
 20
1169.188690
 30
0.0
 10
1803.271400
 20
1166.817480
 30
0.0
 10
1801.847500
 20
1164.453570
 30
0.0
 10
1800.879600
 20
1163.935560
 30
0.0
  0
SPLINE
  5
1b5
100
AcDbEntity
  8
Image
 62
7
100
AcDbSpline
 70
8
 71
3
 72
8
 73
4
 74
0
 40
0
 40
0
 40
0
 40
0
 40
1
 40
1
 40
1
 40
1
 10
1800.879600
 20
1163.935560
 30
0.0
 10
1799.911700
 20
1163.417550
 30
0.0
 10
1797.671600
 20
1160.977170
 30
0.0
 10
1795.901600
 20
1158.512480
 30
0.0
  0
SPLINE
  5
1b6
100
AcDbEntity
  8
Image
 62
7
100
AcDbSpline
 70
8
 71
3
 72
8
 73
4
 74
0
 40
0
 40
0
 40
0
 40
0
 40
1
 40
1
 40
1
 40
1
 10
1795.901600
 20
1158.512480
 30
0.0
 10
1793.413800
 20
1155.048260
 30
0.0
 10
1791.868200
 20
1153.894260
 30
0.0
 10
1789.091700
 20
1153.427720
 30
0.0
  0
SPLINE
  5
1b7
100
AcDbEntity
  8
Image
 62
7
100
AcDbSpline
 70
8
 71
3
 72
8
 73
4
 74
0
 40
0
 40
0
 40
0
 40
0
 40
1
 40
1
 40
1
 40
1
 10
1789.091700
 20
1153.427720
 30
0.0
 10
1787.116300
 20
1153.095790
 30
0.0
 10
1784.082000
 20
1152.188770
 30
0.0
 10
1782.348900
 20
1151.412110
 30
0.0
  0
SPLINE
  5
1b8
100
AcDbEntity
  8
Image
 62
7
100
AcDbSpline
 70
8
 71
3
 72
8
 73
4
 74
0
 40
0
 40
0
 40
0
 40
0
 40
1
 40
1
 40
1
 40
1
 10
1782.348900
 20
1151.412110
 30
0.0
 10
1780.615700
 20
1150.635450
 30
0.0
 10
1778.140600
 20
1150.000000
 30
0.0
 10
1776.848500
 20
1150.000000
 30
0.0
  0
SPLINE
  5
1b9
100
AcDbEntity
  8
Image
 62
7
100
AcDbSpline
 70
8
 71
3
 72
8
 73
4
 74
0
 40
0
 40
0
 40
0
 40
0
 40
1
 40
1
 40
1
 40
1
 10
1776.848500
 20
1150.000000
 30
0.0
 10
1775.556400
 20
1150.000000
 30
0.0
 10
1771.349400
 20
1149.301850
 30
0.0
 10
1767.499600
 20
1148.448560
 30
0.0
  0
SPLINE
  5
1ba
100
AcDbEntity
  8
Image
 62
7
100
AcDbSpline
 70
8
 71
3
 72
8
 73
4
 74
0
 40
0
 40
0
 40
0
 40
0
 40
1
 40
1
 40
1
 40
1
 10
1767.499600
 20
1148.448560
 30
0.0
 10
1759.857000
 20
1146.754590
 30
0.0
 10
1748.081500
 20
1145.388450
 30
0.0
 10
1729.500000
 20
1144.040000
 30
0.0
  0
SPLINE
  5
1bb
100
AcDbEntity
  8
Image
 62
7
100
AcDbSpline
 70
8
 71
3
 72
8
 73
4
 74
0
 40
0
 40
0
 40
0
 40
0
 40
1
 40
1
 40
1
 40
1
 10
1729.500000
 20
1144.040000
 30
0.0
 10
1722.900000
 20
1143.561040
 30
0.0
 10
1714.125000
 20
1142.215420
 30
0.0
 10
1710.000000
 20
1141.049730
 30
0.0
  0
SPLINE
  5
1bc
100
AcDbEntity
  8
Image
 62
7
100
AcDbSpline
 70
8
 71
3
 72
8
 73
4
 74
0
 40
0
 40
0
 40
0
 40
0
 40
1
 40
1
 40
1
 40
1
 10
1710.000000
 20
1141.049730
 30
0.0
 10
1705.875000
 20
1139.884040
 30
0.0
 10
1698.535300
 20
1138.528470
 30
0.0
 10
1693.689500
 20
1138.037350
 30
0.0
  0
SPLINE
  5
1bd
100
AcDbEntity
  8
Image
 62
7
100
AcDbSpline
 70
8
 71
3
 72
8
 73
4
 74
0
 40
0
 40
0
 40
0
 40
0
 40
1
 40
1
 40
1
 40
1
 10
1693.689500
 20
1138.037350
 30
0.0
 10
1688.843700
 20
1137.546230
 30
0.0
 10
1684.292900
 20
1136.658050
 30
0.0
 10
1683.576600
 20
1136.063610
 30
0.0
  0
SPLINE
  5
1be
100
AcDbEntity
  8
Image
 62
7
100
AcDbSpline
 70
8
 71
3
 72
8
 73
4
 74
0
 40
0
 40
0
 40
0
 40
0
 40
1
 40
1
 40
1
 40
1
 10
1683.576600
 20
1136.063610
 30
0.0
 10
1682.860400
 20
1135.469170
 30
0.0
 10
1679.625100
 20
1134.495110
 30
0.0
 10
1676.387200
 20
1133.899020
 30
0.0
  0
SPLINE
  5
1bf
100
AcDbEntity
  8
Image
 62
7
100
AcDbSpline
 70
8
 71
3
 72
8
 73
4
 74
0
 40
0
 40
0
 40
0
 40
0
 40
1
 40
1
 40
1
 40
1
 10
1676.387200
 20
1133.899020
 30
0.0
 10
1673.149200
 20
1133.302930
 30
0.0
 10
1670.050000
 20
1132.450790
 30
0.0
 10
1669.500000
 20
1132.005380
 30
0.0
  0
SPLINE
  5
1c0
100
AcDbEntity
  8
Image
 62
7
100
AcDbSpline
 70
8
 71
3
 72
8
 73
4
 74
0
 40
0
 40
0
 40
0
 40
0
 40
1
 40
1
 40
1
 40
1
 10
1669.500000
 20
1132.005380
 30
0.0
 10
1668.950000
 20
1131.559970
 30
0.0
 10
1666.475000
 20
1130.672710
 30
0.0
 10
1664.000000
 20
1130.033690
 30
0.0
  0
SPLINE
  5
1c1
100
AcDbEntity
  8
Image
 62
7
100
AcDbSpline
 70
8
 71
3
 72
8
 73
4
 74
0
 40
0
 40
0
 40
0
 40
0
 40
1
 40
1
 40
1
 40
1
 10
1664.000000
 20
1130.033690
 30
0.0
 10
1661.525000
 20
1129.394670
 30
0.0
 10
1656.715900
 20
1127.550670
 30
0.0
 10
1653.313000
 20
1125.935920
 30
0.0
  0
SPLINE
  5
1c2
100
AcDbEntity
  8
Image
 62
7
100
AcDbSpline
 70
8
 71
3
 72
8
 73
4
 74
0
 40
0
 40
0
 40
0
 40
0
 40
1
 40
1
 40
1
 40
1
 10
1653.313000
 20
1125.935920
 30
0.0
 10
1649.910200
 20
1124.321160
 30
0.0
 10
1646.732200
 20
1123.000000
 30
0.0
 10
1646.250800
 20
1123.000000
 30
0.0
  0
SPLINE
  5
1c3
100
AcDbEntity
  8
Image
 62
7
100
AcDbSpline
 70
8
 71
3
 72
8
 73
4
 74
0
 40
0
 40
0
 40
0
 40
0
 40
1
 40
1
 40
1
 40
1
 10
1646.250800
 20
1123.000000
 30
0.0
 10
1645.769500
 20
1123.000000
 30
0.0
 10
1643.512900
 20
1122.100000
 30
0.0
 10
1641.236100
 20
1121.000000
 30
0.0
  0
SPLINE
  5
1c4
100
AcDbEntity
  8
Image
 62
7
100
AcDbSpline
 70
8
 71
3
 72
8
 73
4
 74
0
 40
0
 40
0
 40
0
 40
0
 40
1
 40
1
 40
1
 40
1
 10
1641.236100
 20
1121.000000
 30
0.0
 10
1638.959400
 20
1119.900000
 30
0.0
 10
1636.701100
 20
1119.000000
 30
0.0
 10
1636.217800
 20
1119.000000
 30
0.0
  0
SPLINE
  5
1c5
100
AcDbEntity
  8
Image
 62
7
100
AcDbSpline
 70
8
 71
3
 72
8
 73
4
 74
0
 40
0
 40
0
 40
0
 40
0
 40
1
 40
1
 40
1
 40
1
 10
1636.217800
 20
1119.000000
 30
0.0
 10
1634.740400
 20
1119.000000
 30
0.0
 10
1626.876700
 20
1114.711180
 30
0.0
 10
1619.500000
 20
1109.882230
 30
0.0
  0
SPLINE
  5
1c6
100
AcDbEntity
  8
Image
 62
7
100
AcDbSpline
 70
8
 71
3
 72
8
 73
4
 74
0
 40
0
 40
0
 40
0
 40
0
 40
1
 40
1
 40
1
 40
1
 10
1619.500000
 20
1109.882230
 30
0.0
 10
1615.650000
 20
1107.361930
 30
0.0
 10
1612.032700
 20
1105.119900
 30
0.0
 10
1611.461500
 20
1104.899930
 30
0.0
  0
SPLINE
  5
1c7
100
AcDbEntity
  8
Image
 62
7
100
AcDbSpline
 70
8
 71
3
 72
8
 73
4
 74
0
 40
0
 40
0
 40
0
 40
0
 40
1
 40
1
 40
1
 40
1
 10
1611.461500
 20
1104.899930
 30
0.0
 10
1608.019400
 20
1103.574300
 30
0.0
 10
1588.901900
 20
1087.979590
 30
0.0
 10
1585.988900
 20
1084.121220
 30
0.0
  0
SPLINE
  5
1c8
100
AcDbEntity
  8
Image
 62
7
100
AcDbSpline
 70
8
 71
3
 72
8
 73
4
 74
0
 40
0
 40
0
 40
0
 40
0
 40
1
 40
1
 40
1
 40
1
 10
1585.988900
 20
1084.121220
 30
0.0
 10
1579.606400
 20
1075.667320
 30
0.0
 10
1570.290000
 20
1067.276990
 30
0.0
 10
1566.494900
 20
1066.565020
 30
0.0
  0
SPLINE
  5
1c9
100
AcDbEntity
  8
Image
 62
7
100
AcDbSpline
 70
8
 71
3
 72
8
 73
4
 74
0
 40
0
 40
0
 40
0
 40
0
 40
1
 40
1
 40
1
 40
1
 10
1566.494900
 20
1066.565020
 30
0.0
 10
1561.938700
 20
1065.710280
 30
0.0
 10
1550.069300
 20
1054.067120
 30
0.0
 10
1539.293000
 20
1039.881640
 30
0.0
  0
SPLINE
  5
1ca
100
AcDbEntity
  8
Image
 62
7
100
AcDbSpline
 70
8
 71
3
 72
8
 73
4
 74
0
 40
0
 40
0
 40
0
 40
0
 40
1
 40
1
 40
1
 40
1
 10
1539.293000
 20
1039.881640
 30
0.0
 10
1526.684800
 20
1023.284730
 30
0.0
 10
1526.000000
 20
1022.101750
 30
0.0
 10
1526.000000
 20
1016.917900
 30
0.0
  0
SPLINE
  5
1cb
100
AcDbEntity
  8
Image
 62
7
100
AcDbSpline
 70
8
 71
3
 72
8
 73
4
 74
0
 40
0
 40
0
 40
0
 40
0
 40
1
 40
1
 40
1
 40
1
 10
1526.000000
 20
1016.917900
 30
0.0
 10
1526.000000
 20
1013.286260
 30
0.0
 10
1525.309300
 20
1011.360410
 30
0.0
 10
1522.765700
 20
1007.900040
 30
0.0
  0
SPLINE
  5
1cc
100
AcDbEntity
  8
Image
 62
7
100
AcDbSpline
 70
8
 71
3
 72
8
 73
4
 74
0
 40
0
 40
0
 40
0
 40
0
 40
1
 40
1
 40
1
 40
1
 10
1522.765700
 20
1007.900040
 30
0.0
 10
1520.986800
 20
1005.480020
 30
0.0
 10
1519.028500
 20
1002.600000
 30
0.0
 10
1518.413800
 20
1001.500000
 30
0.0
  0
SPLINE
  5
1cd
100
AcDbEntity
  8
Image
 62
7
100
AcDbSpline
 70
8
 71
3
 72
8
 73
4
 74
0
 40
0
 40
0
 40
0
 40
0
 40
1
 40
1
 40
1
 40
1
 10
1518.413800
 20
1001.500000
 30
0.0
 10
1517.799100
 20
1000.400000
 30
0.0
 10
1514.754600
 20
995.380330
 30
0.0
 10
1511.648100
 20
990.345170
 30
0.0
  0
SPLINE
  5
1ce
100
AcDbEntity
  8
Image
 62
7
100
AcDbSpline
 70
8
 71
3
 72
8
 73
4
 74
0
 40
0
 40
0
 40
0
 40
0
 40
1
 40
1
 40
1
 40
1
 10
1511.648100
 20
990.345170
 30
0.0
 10
1508.541600
 20
985.310020
 30
0.0
 10
1506.000000
 20
980.085310
 30
0.0
 10
1506.000000
 20
978.734720
 30
0.0
  0
SPLINE
  5
1cf
100
AcDbEntity
  8
Image
 62
7
100
AcDbSpline
 70
8
 71
3
 72
8
 73
4
 74
0
 40
0
 40
0
 40
0
 40
0
 40
1
 40
1
 40
1
 40
1
 10
1506.000000
 20
978.734720
 30
0.0
 10
1506.000000
 20
977.384130
 30
0.0
 10
1504.943200
 20
974.721820
 30
0.0
 10
1503.651600
 20
972.818490
 30
0.0
  0
SPLINE
  5
1d0
100
AcDbEntity
  8
Image
 62
7
100
AcDbSpline
 70
8
 71
3
 72
8
 73
4
 74
0
 40
0
 40
0
 40
0
 40
0
 40
1
 40
1
 40
1
 40
1
 10
1503.651600
 20
972.818490
 30
0.0
 10
1502.359900
 20
970.915160
 30
0.0
 10
1500.498500
 20
966.014860
 30
0.0
 10
1499.515000
 20
961.928940
 30
0.0
  0
SPLINE
  5
1d1
100
AcDbEntity
  8
Image
 62
7
100
AcDbSpline
 70
8
 71
3
 72
8
 73
4
 74
0
 40
0
 40
0
 40
0
 40
0
 40
1
 40
1
 40
1
 40
1
 10
1499.515000
 20
961.928940
 30
0.0
 10
1498.531500
 20
957.843030
 30
0.0
 10
1497.376500
 20
954.050000
 30
0.0
 10
1496.948400
 20
953.500000
 30
0.0
  0
SPLINE
  5
1d2
100
AcDbEntity
  8
Image
 62
7
100
AcDbSpline
 70
8
 71
3
 72
8
 73
4
 74
0
 40
0
 40
0
 40
0
 40
0
 40
1
 40
1
 40
1
 40
1
 10
1496.948400
 20
953.500000
 30
0.0
 10
1496.520300
 20
952.950000
 30
0.0
 10
1496.119500
 20
952.167220
 30
0.0
 10
1496.057700
 20
951.760500
 30
0.0
  0
SPLINE
  5
1d3
100
AcDbEntity
  8
Image
 62
7
100
AcDbSpline
 70
8
 71
3
 72
8
 73
4
 74
0
 40
0
 40
0
 40
0
 40
0
 40
1
 40
1
 40
1
 40
1
 10
1496.057700
 20
951.760500
 30
0.0
 10
1495.995700
 20
951.353770
 30
0.0
 10
1495.758600
 20
950.453770
 30
0.0
 10
1495.530300
 20
949.760500
 30
0.0
  0
SPLINE
  5
1d4
100
AcDbEntity
  8
Image
 62
7
100
AcDbSpline
 70
8
 71
3
 72
8
 73
4
 74
0
 40
0
 40
0
 40
0
 40
0
 40
1
 40
1
 40
1
 40
1
 10
1495.530300
 20
949.760500
 30
0.0
 10
1492.677300
 20
941.093680
 30
0.0
 10
1492.000000
 20
938.631260
 30
0.0
 10
1492.000000
 20
936.925210
 30
0.0
  0
SPLINE
  5
1d5
100
AcDbEntity
  8
Image
 62
7
100
AcDbSpline
 70
8
 71
3
 72
8
 73
4
 74
0
 40
0
 40
0
 40
0
 40
0
 40
1
 40
1
 40
1
 40
1
 10
1492.000000
 20
936.925210
 30
0.0
 10
1492.000000
 20
935.822520
 30
0.0
 10
1491.163100
 20
933.250750
 30
0.0
 10
1490.140400
 20
931.210160
 30
0.0
  0
SPLINE
  5
1d6
100
AcDbEntity
  8
Image
 62
7
100
AcDbSpline
 70
8
 71
3
 72
8
 73
4
 74
0
 40
0
 40
0
 40
0
 40
0
 40
1
 40
1
 40
1
 40
1
 10
1490.140400
 20
931.210160
 30
0.0
 10
1489.117700
 20
929.169570
 30
0.0
 10
1487.977900
 20
925.527890
 30
0.0
 10
1487.607400
 20
923.117520
 30
0.0
  0
SPLINE
  5
1d7
100
AcDbEntity
  8
Image
 62
7
100
AcDbSpline
 70
8
 71
3
 72
8
 73
4
 74
0
 40
0
 40
0
 40
0
 40
0
 40
1
 40
1
 40
1
 40
1
 10
1487.607400
 20
923.117520
 30
0.0
 10
1486.881700
 20
918.396190
 30
0.0
 10
1482.952800
 20
912.031240
 30
0.0
 10
1476.578400
 20
905.250000
 30
0.0
  0
LWPOLYLINE
  5
1d8
100
AcDbEntity
  8
Image
 62
7
100
AcDbPolyline
 90
3
 70
0
 10
213.686020
 20
1154.868360
 30
0.0
 10
210.872030
 20
1155.000000
 30
0.0
 10
212.811660
 20
1158.750000
 30
0.0
  0
SPLINE
  5
1d9
100
AcDbEntity
  8
Image
 62
7
100
AcDbSpline
 70
8
 71
3
 72
8
 73
4
 74
0
 40
0
 40
0
 40
0
 40
0
 40
1
 40
1
 40
1
 40
1
 10
1452.791600
 20
901.000000
 30
0.0
 10
1440.263700
 20
901.000000
 30
0.0
 10
1433.000000
 20
900.632980
 30
0.0
 10
1433.000000
 20
900.000000
 30
0.0
  0
SPLINE
  5
1da
100
AcDbEntity
  8
Image
 62
7
100
AcDbSpline
 70
8
 71
3
 72
8
 73
4
 74
0
 40
0
 40
0
 40
0
 40
0
 40
1
 40
1
 40
1
 40
1
 10
1433.000000
 20
900.000000
 30
0.0
 10
1433.000000
 20
899.428570
 30
0.0
 10
1430.000000
 20
899.000000
 30
0.0
 10
1426.000000
 20
899.000000
 30
0.0
  0
SPLINE
  5
1db
100
AcDbEntity
  8
Image
 62
7
100
AcDbSpline
 70
8
 71
3
 72
8
 73
4
 74
0
 40
0
 40
0
 40
0
 40
0
 40
1
 40
1
 40
1
 40
1
 10
1426.000000
 20
899.000000
 30
0.0
 10
1422.000000
 20
899.000000
 30
0.0
 10
1419.000000
 20
899.428570
 30
0.0
 10
1419.000000
 20
900.000000
 30
0.0
  0
SPLINE
  5
1dc
100
AcDbEntity
  8
Image
 62
7
100
AcDbSpline
 70
8
 71
3
 72
8
 73
4
 74
0
 40
0
 40
0
 40
0
 40
0
 40
1
 40
1
 40
1
 40
1
 10
1419.000000
 20
900.000000
 30
0.0
 10
1419.000000
 20
900.646460
 30
0.0
 10
1407.333300
 20
901.000000
 30
0.0
 10
1386.000000
 20
901.000000
 30
0.0
  0
SPLINE
  5
1dd
100
AcDbEntity
  8
Image
 62
7
100
AcDbSpline
 70
8
 71
3
 72
8
 73
4
 74
0
 40
0
 40
0
 40
0
 40
0
 40
1
 40
1
 40
1
 40
1
 10
1386.000000
 20
901.000000
 30
0.0
 10
1364.666700
 20
901.000000
 30
0.0
 10
1353.000000
 20
901.353540
 30
0.0
 10
1353.000000
 20
902.000000
 30
0.0
  0
SPLINE
  5
1de
100
AcDbEntity
  8
Image
 62
7
100
AcDbSpline
 70
8
 71
3
 72
8
 73
4
 74
0
 40
0
 40
0
 40
0
 40
0
 40
1
 40
1
 40
1
 40
1
 10
1353.000000
 20
902.000000
 30
0.0
 10
1353.000000
 20
902.550000
 30
0.0
 10
1352.100000
 20
903.000000
 30
0.0
 10
1351.000000
 20
903.000000
 30
0.0
  0
SPLINE
  5
1df
100
AcDbEntity
  8
Image
 62
7
100
AcDbSpline
 70
8
 71
3
 72
8
 73
4
 74
0
 40
0
 40
0
 40
0
 40
0
 40
1
 40
1
 40
1
 40
1
 10
1351.000000
 20
903.000000
 30
0.0
 10
1349.222200
 20
903.000000
 30
0.0
 10
1349.000000
 20
903.666670
 30
0.0
 10
1349.000000
 20
909.000000
 30
0.0
  0
SPLINE
  5
1e0
100
AcDbEntity
  8
Image
 62
7
100
AcDbSpline
 70
8
 71
3
 72
8
 73
4
 74
0
 40
0
 40
0
 40
0
 40
0
 40
1
 40
1
 40
1
 40
1
 10
1349.000000
 20
909.000000
 30
0.0
 10
1349.000000
 20
912.333330
 30
0.0
 10
1348.555600
 20
915.000000
 30
0.0
 10
1348.000000
 20
915.000000
 30
0.0
  0
SPLINE
  5
1e1
100
AcDbEntity
  8
Image
 62
7
100
AcDbSpline
 70
8
 71
3
 72
8
 73
4
 74
0
 40
0
 40
0
 40
0
 40
0
 40
1
 40
1
 40
1
 40
1
 10
1348.000000
 20
915.000000
 30
0.0
 10
1347.450000
 20
915.000000
 30
0.0
 10
1347.000000
 20
916.133330
 30
0.0
 10
1347.000000
 20
917.518520
 30
0.0
  0
SPLINE
  5
1e2
100
AcDbEntity
  8
Image
 62
7
100
AcDbSpline
 70
8
 71
3
 72
8
 73
4
 74
0
 40
0
 40
0
 40
0
 40
0
 40
1
 40
1
 40
1
 40
1
 10
1347.000000
 20
917.518520
 30
0.0
 10
1347.000000
 20
920.347720
 30
0.0
 10
1335.165000
 20
933.000000
 30
0.0
 10
1332.518500
 20
933.000000
 30
0.0
  0
SPLINE
  5
1e3
100
AcDbEntity
  8
Image
 62
7
100
AcDbSpline
 70
8
 71
3
 72
8
 73
4
 74
0
 40
0
 40
0
 40
0
 40
0
 40
1
 40
1
 40
1
 40
1
 10
1332.518500
 20
933.000000
 30
0.0
 10
1331.683300
 20
933.000000
 30
0.0
 10
1331.000000
 20
933.450000
 30
0.0
 10
1331.000000
 20
934.000000
 30
0.0
  0
SPLINE
  5
1e4
100
AcDbEntity
  8
Image
 62
7
100
AcDbSpline
 70
8
 71
3
 72
8
 73
4
 74
0
 40
0
 40
0
 40
0
 40
0
 40
1
 40
1
 40
1
 40
1
 10
1331.000000
 20
934.000000
 30
0.0
 10
1331.000000
 20
934.550000
 30
0.0
 10
1329.044700
 20
935.000000
 30
0.0
 10
1326.655000
 20
935.000000
 30
0.0
  0
SPLINE
  5
1e5
100
AcDbEntity
  8
Image
 62
7
100
AcDbSpline
 70
8
 71
3
 72
8
 73
4
 74
0
 40
0
 40
0
 40
0
 40
0
 40
1
 40
1
 40
1
 40
1
 10
1326.655000
 20
935.000000
 30
0.0
 10
1322.350400
 20
935.000000
 30
0.0
 10
1319.000000
 20
937.113420
 30
0.0
 10
1319.000000
 20
939.828740
 30
0.0
  0
SPLINE
  5
1e6
100
AcDbEntity
  8
Image
 62
7
100
AcDbSpline
 70
8
 71
3
 72
8
 73
4
 74
0
 40
0
 40
0
 40
0
 40
0
 40
1
 40
1
 40
1
 40
1
 10
1319.000000
 20
939.828740
 30
0.0
 10
1319.000000
 20
940.472930
 30
0.0
 10
1318.550000
 20
941.000000
 30
0.0
 10
1318.000000
 20
941.000000
 30
0.0
  0
SPLINE
  5
1e7
100
AcDbEntity
  8
Image
 62
7
100
AcDbSpline
 70
8
 71
3
 72
8
 73
4
 74
0
 40
0
 40
0
 40
0
 40
0
 40
1
 40
1
 40
1
 40
1
 10
1318.000000
 20
941.000000
 30
0.0
 10
1317.450000
 20
941.000000
 30
0.0
 10
1317.000000
 20
941.684780
 30
0.0
 10
1317.000000
 20
942.521740
 30
0.0
  0
SPLINE
  5
1e8
100
AcDbEntity
  8
Image
 62
7
100
AcDbSpline
 70
8
 71
3
 72
8
 73
4
 74
0
 40
0
 40
0
 40
0
 40
0
 40
1
 40
1
 40
1
 40
1
 10
1317.000000
 20
942.521740
 30
0.0
 10
1317.000000
 20
944.502280
 30
0.0
 10
1306.502300
 20
955.000000
 30
0.0
 10
1304.521700
 20
955.000000
 30
0.0
  0
SPLINE
  5
1e9
100
AcDbEntity
  8
Image
 62
7
100
AcDbSpline
 70
8
 71
3
 72
8
 73
4
 74
0
 40
0
 40
0
 40
0
 40
0
 40
1
 40
1
 40
1
 40
1
 10
1304.521700
 20
955.000000
 30
0.0
 10
1303.684800
 20
955.000000
 30
0.0
 10
1302.996500
 20
955.337500
 30
0.0
 10
1302.992200
 20
955.750000
 30
0.0
  0
SPLINE
  5
1ea
100
AcDbEntity
  8
Image
 62
7
100
AcDbSpline
 70
8
 71
3
 72
8
 73
4
 74
0
 40
0
 40
0
 40
0
 40
0
 40
1
 40
1
 40
1
 40
1
 10
1302.992200
 20
955.750000
 30
0.0
 10
1302.965200
 20
958.340280
 30
0.0
 10
1287.974300
 20
960.385470
 30
0.0
 10
1286.500000
 20
958.000000
 30
0.0
  0
SPLINE
  5
1eb
100
AcDbEntity
  8
Image
 62
7
100
AcDbSpline
 70
8
 71
3
 72
8
 73
4
 74
0
 40
0
 40
0
 40
0
 40
0
 40
1
 40
1
 40
1
 40
1
 10
1286.500000
 20
958.000000
 30
0.0
 10
1286.160100
 20
957.450000
 30
0.0
 10
1284.360100
 20
957.000000
 30
0.0
 10
1282.500000
 20
957.000000
 30
0.0
  0
SPLINE
  5
1ec
100
AcDbEntity
  8
Image
 62
7
100
AcDbSpline
 70
8
 71
3
 72
8
 73
4
 74
0
 40
0
 40
0
 40
0
 40
0
 40
1
 40
1
 40
1
 40
1
 10
1282.500000
 20
957.000000
 30
0.0
 10
1280.639900
 20
957.000000
 30
0.0
 10
1278.839900
 20
956.550000
 30
0.0
 10
1278.500000
 20
956.000000
 30
0.0
  0
SPLINE
  5
1ed
100
AcDbEntity
  8
Image
 62
7
100
AcDbSpline
 70
8
 71
3
 72
8
 73
4
 74
0
 40
0
 40
0
 40
0
 40
0
 40
1
 40
1
 40
1
 40
1
 10
1278.500000
 20
956.000000
 30
0.0
 10
1278.160100
 20
955.450000
 30
0.0
 10
1275.460100
 20
955.000000
 30
0.0
 10
1272.500000
 20
955.000000
 30
0.0
  0
SPLINE
  5
1ee
100
AcDbEntity
  8
Image
 62
7
100
AcDbSpline
 70
8
 71
3
 72
8
 73
4
 74
0
 40
0
 40
0
 40
0
 40
0
 40
1
 40
1
 40
1
 40
1
 10
1272.500000
 20
955.000000
 30
0.0
 10
1269.539900
 20
955.000000
 30
0.0
 10
1266.839900
 20
954.550000
 30
0.0
 10
1266.500000
 20
954.000000
 30
0.0
  0
SPLINE
  5
1ef
100
AcDbEntity
  8
Image
 62
7
100
AcDbSpline
 70
8
 71
3
 72
8
 73
4
 74
0
 40
0
 40
0
 40
0
 40
0
 40
1
 40
1
 40
1
 40
1
 10
1266.500000
 20
954.000000
 30
0.0
 10
1266.121000
 20
953.386820
 30
0.0
 10
1258.080800
 20
953.000000
 30
0.0
 10
1245.714500
 20
953.000000
 30
0.0
  0
LWPOLYLINE
  5
1f0
100
AcDbEntity
  8
Image
 62
7
100
AcDbPolyline
 90
3
 70
0
 10
1476.578400
 20
905.250000
 30
0.0
 10
1472.583400
 20
901.000000
 30
0.0
 10
1452.791600
 20
901.000000
 30
0.0
  0
SPLINE
  5
1f1
100
AcDbEntity
  8
Image
 62
7
100
AcDbSpline
 70
8
 71
3
 72
8
 73
4
 74
0
 40
0
 40
0
 40
0
 40
0
 40
1
 40
1
 40
1
 40
1
 10
1218.273500
 20
945.775030
 30
0.0
 10
1213.717000
 20
941.248890
 30
0.0
 10
1211.000000
 20
937.743200
 30
0.0
 10
1211.000000
 20
936.390040
 30
0.0
  0
SPLINE
  5
1f2
100
AcDbEntity
  8
Image
 62
7
100
AcDbSpline
 70
8
 71
3
 72
8
 73
4
 74
0
 40
0
 40
0
 40
0
 40
0
 40
1
 40
1
 40
1
 40
1
 10
1211.000000
 20
936.390040
 30
0.0
 10
1211.000000
 20
935.202030
 30
0.0
 10
1209.903700
 20
933.511700
 30
0.0
 10
1208.563800
 20
932.633760
 30
0.0
  0
SPLINE
  5
1f3
100
AcDbEntity
  8
Image
 62
7
100
AcDbSpline
 70
8
 71
3
 72
8
 73
4
 74
0
 40
0
 40
0
 40
0
 40
0
 40
1
 40
1
 40
1
 40
1
 10
1208.563800
 20
932.633760
 30
0.0
 10
1203.352200
 20
929.219000
 30
0.0
 10
1198.862800
 20
927.000000
 30
0.0
 10
1197.165800
 20
927.000000
 30
0.0
  0
SPLINE
  5
1f4
100
AcDbEntity
  8
Image
 62
7
100
AcDbSpline
 70
8
 71
3
 72
8
 73
4
 74
0
 40
0
 40
0
 40
0
 40
0
 40
1
 40
1
 40
1
 40
1
 10
1197.165800
 20
927.000000
 30
0.0
 10
1195.281000
 20
927.000000
 30
0.0
 10
1189.000000
 20
921.121380
 30
0.0
 10
1189.000000
 20
919.357380
 30
0.0
  0
SPLINE
  5
1f5
100
AcDbEntity
  8
Image
 62
7
100
AcDbSpline
 70
8
 71
3
 72
8
 73
4
 74
0
 40
0
 40
0
 40
0
 40
0
 40
1
 40
1
 40
1
 40
1
 10
1189.000000
 20
919.357380
 30
0.0
 10
1189.000000
 20
918.781310
 30
0.0
 10
1188.100000
 20
917.495490
 30
0.0
 10
1187.000000
 20
916.500000
 30
0.0
  0
SPLINE
  5
1f6
100
AcDbEntity
  8
Image
 62
7
100
AcDbSpline
 70
8
 71
3
 72
8
 73
4
 74
0
 40
0
 40
0
 40
0
 40
0
 40
1
 40
1
 40
1
 40
1
 10
1187.000000
 20
916.500000
 30
0.0
 10
1185.900000
 20
915.504510
 30
0.0
 10
1185.000000
 20
913.661330
 30
0.0
 10
1185.000000
 20
912.404030
 30
0.0
  0
SPLINE
  5
1f7
100
AcDbEntity
  8
Image
 62
7
100
AcDbSpline
 70
8
 71
3
 72
8
 73
4
 74
0
 40
0
 40
0
 40
0
 40
0
 40
1
 40
1
 40
1
 40
1
 10
1185.000000
 20
912.404030
 30
0.0
 10
1185.000000
 20
911.146730
 30
0.0
 10
1184.550000
 20
909.839920
 30
0.0
 10
1184.000000
 20
909.500000
 30
0.0
  0
SPLINE
  5
1f8
100
AcDbEntity
  8
Image
 62
7
100
AcDbSpline
 70
8
 71
3
 72
8
 73
4
 74
0
 40
0
 40
0
 40
0
 40
0
 40
1
 40
1
 40
1
 40
1
 10
1184.000000
 20
909.500000
 30
0.0
 10
1182.671300
 20
908.678810
 30
0.0
 10
1182.671300
 20
883.321190
 30
0.0
 10
1184.000000
 20
882.500000
 30
0.0
  0
SPLINE
  5
1f9
100
AcDbEntity
  8
Image
 62
7
100
AcDbSpline
 70
8
 71
3
 72
8
 73
4
 74
0
 40
0
 40
0
 40
0
 40
0
 40
1
 40
1
 40
1
 40
1
 10
1184.000000
 20
882.500000
 30
0.0
 10
1184.651300
 20
882.097450
 30
0.0
 10
1185.000000
 20
857.342620
 30
0.0
 10
1185.000000
 20
811.500000
 30
0.0
  0
SPLINE
  5
1fa
100
AcDbEntity
  8
Image
 62
7
100
AcDbSpline
 70
8
 71
3
 72
8
 73
4
 74
0
 40
0
 40
0
 40
0
 40
0
 40
1
 40
1
 40
1
 40
1
 10
1185.000000
 20
811.500000
 30
0.0
 10
1185.000000
 20
765.657380
 30
0.0
 10
1185.348700
 20
740.902550
 30
0.0
 10
1186.000000
 20
740.500000
 30
0.0
  0
SPLINE
  5
1fb
100
AcDbEntity
  8
Image
 62
7
100
AcDbSpline
 70
8
 71
3
 72
8
 73
4
 74
0
 40
0
 40
0
 40
0
 40
0
 40
1
 40
1
 40
1
 40
1
 10
1186.000000
 20
740.500000
 30
0.0
 10
1186.638800
 20
740.105170
 30
0.0
 10
1187.000000
 20
725.879440
 30
0.0
 10
1187.000000
 20
701.110460
 30
0.0
  0
LWPOLYLINE
  5
1fc
100
AcDbEntity
  8
Image
 62
7
100
AcDbPolyline
 90
3
 70
0
 10
1245.714500
 20
953.000000
 30
0.0
 10
1225.547000
 20
953.000000
 30
0.0
 10
1218.273500
 20
945.775030
 30
0.0
  0
SPLINE
  5
1fd
100
AcDbEntity
  8
Image
 62
7
100
AcDbSpline
 70
8
 71
3
 72
8
 73
4
 74
0
 40
0
 40
0
 40
0
 40
0
 40
1
 40
1
 40
1
 40
1
 10
1189.444800
 20
657.509880
 30
0.0
 10
1192.593100
 20
651.291080
 30
0.0
 10
1200.712100
 20
643.000000
 30
0.0
 10
1203.653400
 20
643.000000
 30
0.0
  0
SPLINE
  5
1fe
100
AcDbEntity
  8
Image
 62
7
100
AcDbSpline
 70
8
 71
3
 72
8
 73
4
 74
0
 40
0
 40
0
 40
0
 40
0
 40
1
 40
1
 40
1
 40
1
 10
1203.653400
 20
643.000000
 30
0.0
 10
1204.879100
 20
643.000000
 30
0.0
 10
1206.160100
 20
642.550000
 30
0.0
 10
1206.500000
 20
642.000000
 30
0.0
  0
SPLINE
  5
1ff
100
AcDbEntity
  8
Image
 62
7
100
AcDbSpline
 70
8
 71
3
 72
8
 73
4
 74
0
 40
0
 40
0
 40
0
 40
0
 40
1
 40
1
 40
1
 40
1
 10
1206.500000
 20
642.000000
 30
0.0
 10
1206.839900
 20
641.450000
 30
0.0
 10
1208.891500
 20
641.000000
 30
0.0
 10
1211.059000
 20
641.000000
 30
0.0
  0
SPLINE
  5
200
100
AcDbEntity
  8
Image
 62
7
100
AcDbSpline
 70
8
 71
3
 72
8
 73
4
 74
0
 40
0
 40
0
 40
0
 40
0
 40
1
 40
1
 40
1
 40
1
 10
1211.059000
 20
641.000000
 30
0.0
 10
1214.723500
 20
641.000000
 30
0.0
 10
1215.000000
 20
640.800400
 30
0.0
 10
1215.000000
 20
638.154990
 30
0.0
  0
SPLINE
  5
201
100
AcDbEntity
  8
Image
 62
7
100
AcDbSpline
 70
8
 71
3
 72
8
 73
4
 74
0
 40
0
 40
0
 40
0
 40
0
 40
1
 40
1
 40
1
 40
1
 10
1215.000000
 20
638.154990
 30
0.0
 10
1215.000000
 20
636.579970
 30
0.0
 10
1215.892800
 20
634.502020
 30
0.0
 10
1217.000000
 20
633.500000
 30
0.0
  0
SPLINE
  5
202
100
AcDbEntity
  8
Image
 62
7
100
AcDbSpline
 70
8
 71
3
 72
8
 73
4
 74
0
 40
0
 40
0
 40
0
 40
0
 40
1
 40
1
 40
1
 40
1
 10
1217.000000
 20
633.500000
 30
0.0
 10
1218.100000
 20
632.504510
 30
0.0
 10
1219.000000
 20
631.181900
 30
0.0
 10
1219.000000
 20
630.560850
 30
0.0
  0
SPLINE
  5
203
100
AcDbEntity
  8
Image
 62
7
100
AcDbSpline
 70
8
 71
3
 72
8
 73
4
 74
0
 40
0
 40
0
 40
0
 40
0
 40
1
 40
1
 40
1
 40
1
 10
1219.000000
 20
630.560850
 30
0.0
 10
1219.000000
 20
628.518450
 30
0.0
 10
1229.474800
 20
619.000000
 30
0.0
 10
1231.722400
 20
619.000000
 30
0.0
  0
SPLINE
  5
204
100
AcDbEntity
  8
Image
 62
7
100
AcDbSpline
 70
8
 71
3
 72
8
 73
4
 74
0
 40
0
 40
0
 40
0
 40
0
 40
1
 40
1
 40
1
 40
1
 10
1231.722400
 20
619.000000
 30
0.0
 10
1232.910200
 20
619.000000
 30
0.0
 10
1234.160100
 20
618.550000
 30
0.0
 10
1234.500000
 20
618.000000
 30
0.0
  0
SPLINE
  5
205
100
AcDbEntity
  8
Image
 62
7
100
AcDbSpline
 70
8
 71
3
 72
8
 73
4
 74
0
 40
0
 40
0
 40
0
 40
0
 40
1
 40
1
 40
1
 40
1
 10
1234.500000
 20
618.000000
 30
0.0
 10
1235.343900
 20
616.634490
 30
0.0
 10
1300.656100
 20
616.634490
 30
0.0
 10
1301.500000
 20
618.000000
 30
0.0
  0
SPLINE
  5
206
100
AcDbEntity
  8
Image
 62
7
100
AcDbSpline
 70
8
 71
3
 72
8
 73
4
 74
0
 40
0
 40
0
 40
0
 40
0
 40
1
 40
1
 40
1
 40
1
 10
1301.500000
 20
618.000000
 30
0.0
 10
1301.839900
 20
618.550000
 30
0.0
 10
1303.447600
 20
619.000000
 30
0.0
 10
1305.072600
 20
619.000000
 30
0.0
  0
SPLINE
  5
207
100
AcDbEntity
  8
Image
 62
7
100
AcDbSpline
 70
8
 71
3
 72
8
 73
4
 74
0
 40
0
 40
0
 40
0
 40
0
 40
1
 40
1
 40
1
 40
1
 10
1305.072600
 20
619.000000
 30
0.0
 10
1306.697600
 20
619.000000
 30
0.0
 10
1309.033500
 20
619.560960
 30
0.0
 10
1310.263600
 20
620.246580
 30
0.0
  0
SPLINE
  5
208
100
AcDbEntity
  8
Image
 62
7
100
AcDbSpline
 70
8
 71
3
 72
8
 73
4
 74
0
 40
0
 40
0
 40
0
 40
0
 40
1
 40
1
 40
1
 40
1
 10
1310.263600
 20
620.246580
 30
0.0
 10
1314.820900
 20
622.786820
 30
0.0
 10
1322.165000
 20
630.654120
 30
0.0
 10
1324.580700
 20
635.583680
 30
0.0
  0
SPLINE
  5
209
100
AcDbEntity
  8
Image
 62
7
100
AcDbSpline
 70
8
 71
3
 72
8
 73
4
 74
0
 40
0
 40
0
 40
0
 40
0
 40
1
 40
1
 40
1
 40
1
 10
1324.580700
 20
635.583680
 30
0.0
 10
1327.065400
 20
640.654070
 30
0.0
 10
1332.738900
 20
645.000000
 30
0.0
 10
1336.873400
 20
645.000000
 30
0.0
  0
SPLINE
  5
20a
100
AcDbEntity
  8
Image
 62
7
100
AcDbSpline
 70
8
 71
3
 72
8
 73
4
 74
0
 40
0
 40
0
 40
0
 40
0
 40
1
 40
1
 40
1
 40
1
 10
1336.873400
 20
645.000000
 30
0.0
 10
1338.632500
 20
645.000000
 30
0.0
 10
1349.598400
 20
655.858270
 30
0.0
 10
1351.755800
 20
659.736430
 30
0.0
  0
SPLINE
  5
20b
100
AcDbEntity
  8
Image
 62
7
100
AcDbSpline
 70
8
 71
3
 72
8
 73
4
 74
0
 40
0
 40
0
 40
0
 40
0
 40
1
 40
1
 40
1
 40
1
 10
1351.755800
 20
659.736430
 30
0.0
 10
1352.440100
 20
660.966470
 30
0.0
 10
1353.000000
 20
662.788970
 30
0.0
 10
1353.000000
 20
663.786430
 30
0.0
  0
SPLINE
  5
20c
100
AcDbEntity
  8
Image
 62
7
100
AcDbSpline
 70
8
 71
3
 72
8
 73
4
 74
0
 40
0
 40
0
 40
0
 40
0
 40
1
 40
1
 40
1
 40
1
 10
1353.000000
 20
663.786430
 30
0.0
 10
1353.000000
 20
664.783890
 30
0.0
 10
1353.424200
 20
666.027500
 30
0.0
 10
1353.942700
 20
666.550000
 30
0.0
  0
SPLINE
  5
20d
100
AcDbEntity
  8
Image
 62
7
100
AcDbSpline
 70
8
 71
3
 72
8
 73
4
 74
0
 40
0
 40
0
 40
0
 40
0
 40
1
 40
1
 40
1
 40
1
 10
1353.942700
 20
666.550000
 30
0.0
 10
1354.461200
 20
667.072500
 30
0.0
 10
1355.023700
 20
669.975000
 30
0.0
 10
1355.192700
 20
673.000000
 30
0.0
  0
LWPOLYLINE
  5
20e
100
AcDbEntity
  8
Image
 62
7
100
AcDbPolyline
 90
3
 70
0
 10
1187.000000
 20
701.110460
 30
0.0
 10
1187.000000
 20
662.338960
 30
0.0
 10
1189.444800
 20
657.509880
 30
0.0
  0
SPLINE
  5
20f
100
AcDbEntity
  8
Image
 62
7
100
AcDbSpline
 70
8
 71
3
 72
8
 73
4
 74
0
 40
0
 40
0
 40
0
 40
0
 40
1
 40
1
 40
1
 40
1
 10
1399.500000
 20
678.803920
 30
0.0
 10
1449.118400
 20
679.146660
 30
0.0
 10
1459.450000
 20
678.700820
 30
0.0
 10
1460.618400
 20
676.166470
 30
0.0
  0
SPLINE
  5
210
100
AcDbEntity
  8
Image
 62
7
100
AcDbSpline
 70
8
 71
3
 72
8
 73
4
 74
0
 40
0
 40
0
 40
0
 40
0
 40
1
 40
1
 40
1
 40
1
 10
1460.618400
 20
676.166470
 30
0.0
 10
1462.132000
 20
672.883520
 30
0.0
 10
1463.084700
 20
653.926710
 30
0.0
 10
1463.491500
 20
619.000000
 30
0.0
  0
SPLINE
  5
211
100
AcDbEntity
  8
Image
 62
7
100
AcDbSpline
 70
8
 71
3
 72
8
 73
4
 74
0
 40
0
 40
0
 40
0
 40
0
 40
1
 40
1
 40
1
 40
1
 10
1463.491500
 20
619.000000
 30
0.0
 10
1463.718900
 20
599.475000
 30
0.0
 10
1464.412700
 20
579.675000
 30
0.0
 10
1465.033100
 20
575.000000
 30
0.0
  0
SPLINE
  5
212
100
AcDbEntity
  8
Image
 62
7
100
AcDbSpline
 70
8
 71
3
 72
8
 73
4
 74
0
 40
0
 40
0
 40
0
 40
0
 40
1
 40
1
 40
1
 40
1
 10
1465.033100
 20
575.000000
 30
0.0
 10
1467.517400
 20
556.281860
 30
0.0
 10
1472.094800
 20
538.113360
 30
0.0
 10
1477.060400
 20
527.260900
 30
0.0
  0
SPLINE
  5
213
100
AcDbEntity
  8
Image
 62
7
100
AcDbSpline
 70
8
 71
3
 72
8
 73
4
 74
0
 40
0
 40
0
 40
0
 40
0
 40
1
 40
1
 40
1
 40
1
 10
1477.060400
 20
527.260900
 30
0.0
 10
1478.127200
 20
524.929400
 30
0.0
 10
1479.000000
 20
522.678500
 30
0.0
 10
1479.000000
 20
522.258800
 30
0.0
  0
SPLINE
  5
214
100
AcDbEntity
  8
Image
 62
7
100
AcDbSpline
 70
8
 71
3
 72
8
 73
4
 74
0
 40
0
 40
0
 40
0
 40
0
 40
1
 40
1
 40
1
 40
1
 10
1479.000000
 20
522.258800
 30
0.0
 10
1479.000000
 20
521.839200
 30
0.0
 10
1481.691900
 20
516.096800
 30
0.0
 10
1484.982000
 20
509.497900
 30
0.0
  0
SPLINE
  5
215
100
AcDbEntity
  8
Image
 62
7
100
AcDbSpline
 70
8
 71
3
 72
8
 73
4
 74
0
 40
0
 40
0
 40
0
 40
0
 40
1
 40
1
 40
1
 40
1
 10
1484.982000
 20
509.497900
 30
0.0
 10
1488.272000
 20
502.899100
 30
0.0
 10
1490.972000
 20
496.746000
 30
0.0
 10
1490.982000
 20
495.824400
 30
0.0
  0
SPLINE
  5
216
100
AcDbEntity
  8
Image
 62
7
100
AcDbSpline
 70
8
 71
3
 72
8
 73
4
 74
0
 40
0
 40
0
 40
0
 40
0
 40
1
 40
1
 40
1
 40
1
 10
1490.982000
 20
495.824400
 30
0.0
 10
1491.006000
 20
493.587000
 30
0.0
 10
1522.417400
 20
462.118900
 30
0.0
 10
1529.157600
 20
457.579800
 30
0.0
  0
SPLINE
  5
217
100
AcDbEntity
  8
Image
 62
7
100
AcDbSpline
 70
8
 71
3
 72
8
 73
4
 74
0
 40
0
 40
0
 40
0
 40
0
 40
1
 40
1
 40
1
 40
1
 10
1529.157600
 20
457.579800
 30
0.0
 10
1532.081200
 20
455.610900
 30
0.0
 10
1535.604300
 20
453.998100
 30
0.0
 10
1536.986700
 20
453.995800
 30
0.0
  0
SPLINE
  5
218
100
AcDbEntity
  8
Image
 62
7
100
AcDbSpline
 70
8
 71
3
 72
8
 73
4
 74
0
 40
0
 40
0
 40
0
 40
0
 40
1
 40
1
 40
1
 40
1
 10
1536.986700
 20
453.995800
 30
0.0
 10
1540.948100
 20
453.985800
 30
0.0
 10
1557.523300
 20
444.689100
 30
0.0
 10
1563.470800
 20
439.135900
 30
0.0
  0
SPLINE
  5
219
100
AcDbEntity
  8
Image
 62
7
100
AcDbSpline
 70
8
 71
3
 72
8
 73
4
 74
0
 40
0
 40
0
 40
0
 40
0
 40
1
 40
1
 40
1
 40
1
 10
1563.470800
 20
439.135900
 30
0.0
 10
1565.136900
 20
437.580300
 30
0.0
 10
1568.297000
 20
435.000900
 30
0.0
 10
1570.493200
 20
433.403800
 30
0.0
  0
SPLINE
  5
21a
100
AcDbEntity
  8
Image
 62
7
100
AcDbSpline
 70
8
 71
3
 72
8
 73
4
 74
0
 40
0
 40
0
 40
0
 40
0
 40
1
 40
1
 40
1
 40
1
 10
1570.493200
 20
433.403800
 30
0.0
 10
1576.240400
 20
429.224600
 30
0.0
 10
1587.709700
 20
417.451400
 30
0.0
 10
1589.686600
 20
413.701800
 30
0.0
  0
SPLINE
  5
21b
100
AcDbEntity
  8
Image
 62
7
100
AcDbSpline
 70
8
 71
3
 72
8
 73
4
 74
0
 40
0
 40
0
 40
0
 40
0
 40
1
 40
1
 40
1
 40
1
 10
1589.686600
 20
413.701800
 30
0.0
 10
1590.915700
 20
411.370500
 30
0.0
 10
1591.493800
 20
407.128900
 30
0.0
 10
1591.813000
 20
398.100600
 30
0.0
  0
SPLINE
  5
21c
100
AcDbEntity
  8
Image
 62
7
100
AcDbSpline
 70
8
 71
3
 72
8
 73
4
 74
0
 40
0
 40
0
 40
0
 40
0
 40
1
 40
1
 40
1
 40
1
 10
1591.813000
 20
398.100600
 30
0.0
 10
1592.251900
 20
385.686200
 30
0.0
 10
1591.251800
 20
377.759800
 30
0.0
 10
1588.456800
 20
371.500000
 30
0.0
  0
SPLINE
  5
21d
100
AcDbEntity
  8
Image
 62
7
100
AcDbSpline
 70
8
 71
3
 72
8
 73
4
 74
0
 40
0
 40
0
 40
0
 40
0
 40
1
 40
1
 40
1
 40
1
 10
1588.456800
 20
371.500000
 30
0.0
 10
1587.720100
 20
369.850000
 30
0.0
 10
1586.648300
 20
366.700000
 30
0.0
 10
1586.075200
 20
364.500000
 30
0.0
  0
SPLINE
  5
21e
100
AcDbEntity
  8
Image
 62
7
100
AcDbSpline
 70
8
 71
3
 72
8
 73
4
 74
0
 40
0
 40
0
 40
0
 40
0
 40
1
 40
1
 40
1
 40
1
 10
1586.075200
 20
364.500000
 30
0.0
 10
1585.502000
 20
362.300000
 30
0.0
 10
1583.850300
 20
359.150000
 30
0.0
 10
1582.404700
 20
357.500000
 30
0.0
  0
SPLINE
  5
21f
100
AcDbEntity
  8
Image
 62
7
100
AcDbSpline
 70
8
 71
3
 72
8
 73
4
 74
0
 40
0
 40
0
 40
0
 40
0
 40
1
 40
1
 40
1
 40
1
 10
1582.404700
 20
357.500000
 30
0.0
 10
1580.959000
 20
355.850000
 30
0.0
 10
1578.589100
 20
352.931200
 30
0.0
 10
1577.138100
 20
351.013800
 30
0.0
  0
SPLINE
  5
220
100
AcDbEntity
  8
Image
 62
7
100
AcDbSpline
 70
8
 71
3
 72
8
 73
4
 74
0
 40
0
 40
0
 40
0
 40
0
 40
1
 40
1
 40
1
 40
1
 10
1577.138100
 20
351.013800
 30
0.0
 10
1571.390500
 20
343.418400
 30
0.0
 10
1558.100400
 20
332.532900
 30
0.0
 10
1553.139300
 20
331.357000
 30
0.0
  0
SPLINE
  5
221
100
AcDbEntity
  8
Image
 62
7
100
AcDbSpline
 70
8
 71
3
 72
8
 73
4
 74
0
 40
0
 40
0
 40
0
 40
0
 40
1
 40
1
 40
1
 40
1
 10
1553.139300
 20
331.357000
 30
0.0
 10
1551.687700
 20
331.012900
 30
0.0
 10
1549.825000
 20
330.174600
 30
0.0
 10
1549.000000
 20
329.494200
 30
0.0
  0
SPLINE
  5
222
100
AcDbEntity
  8
Image
 62
7
100
AcDbSpline
 70
8
 71
3
 72
8
 73
4
 74
0
 40
0
 40
0
 40
0
 40
0
 40
1
 40
1
 40
1
 40
1
 10
1549.000000
 20
329.494200
 30
0.0
 10
1543.391000
 20
324.867900
 30
0.0
 10
1527.206600
 20
321.889700
 30
0.0
 10
1498.239800
 20
320.153300
 30
0.0
  0
SPLINE
  5
223
100
AcDbEntity
  8
Image
 62
7
100
AcDbSpline
 70
8
 71
3
 72
8
 73
4
 74
0
 40
0
 40
0
 40
0
 40
0
 40
1
 40
1
 40
1
 40
1
 10
1498.239800
 20
320.153300
 30
0.0
 10
1475.950400
 20
318.817100
 30
0.0
 10
1457.868900
 20
321.135200
 30
0.0
 10
1449.129700
 20
326.449200
 30
0.0
  0
SPLINE
  5
224
100
AcDbEntity
  8
Image
 62
7
100
AcDbSpline
 70
8
 71
3
 72
8
 73
4
 74
0
 40
0
 40
0
 40
0
 40
0
 40
1
 40
1
 40
1
 40
1
 10
1449.129700
 20
326.449200
 30
0.0
 10
1444.282500
 20
329.396600
 30
0.0
 10
1442.666000
 20
329.858500
 30
0.0
 10
1437.500000
 20
329.772000
 30
0.0
  0
SPLINE
  5
225
100
AcDbEntity
  8
Image
 62
7
100
AcDbSpline
 70
8
 71
3
 72
8
 73
4
 74
0
 40
0
 40
0
 40
0
 40
0
 40
1
 40
1
 40
1
 40
1
 10
1437.500000
 20
329.772000
 30
0.0
 10
1433.222400
 20
329.700000
 30
0.0
 10
1430.094700
 20
330.319100
 30
0.0
 10
1426.604600
 20
331.927000
 30
0.0
  0
SPLINE
  5
226
100
AcDbEntity
  8
Image
 62
7
100
AcDbSpline
 70
8
 71
3
 72
8
 73
4
 74
0
 40
0
 40
0
 40
0
 40
0
 40
1
 40
1
 40
1
 40
1
 10
1426.604600
 20
331.927000
 30
0.0
 10
1423.912200
 20
333.167500
 30
0.0
 10
1420.345300
 20
334.355100
 30
0.0
 10
1418.678200
 20
334.566000
 30
0.0
  0
SPLINE
  5
227
100
AcDbEntity
  8
Image
 62
7
100
AcDbSpline
 70
8
 71
3
 72
8
 73
4
 74
0
 40
0
 40
0
 40
0
 40
0
 40
1
 40
1
 40
1
 40
1
 10
1418.678200
 20
334.566000
 30
0.0
 10
1417.011100
 20
334.777000
 30
0.0
 10
1414.264100
 20
336.269100
 30
0.0
 10
1412.573600
 20
337.881700
 30
0.0
  0
SPLINE
  5
228
100
AcDbEntity
  8
Image
 62
7
100
AcDbSpline
 70
8
 71
3
 72
8
 73
4
 74
0
 40
0
 40
0
 40
0
 40
0
 40
1
 40
1
 40
1
 40
1
 10
1412.573600
 20
337.881700
 30
0.0
 10
1409.219400
 20
341.081500
 30
0.0
 10
1404.031900
 20
343.637400
 30
0.0
 10
1394.000000
 20
347.032900
 30
0.0
  0
SPLINE
  5
229
100
AcDbEntity
  8
Image
 62
7
100
AcDbSpline
 70
8
 71
3
 72
8
 73
4
 74
0
 40
0
 40
0
 40
0
 40
0
 40
1
 40
1
 40
1
 40
1
 10
1394.000000
 20
347.032900
 30
0.0
 10
1390.425000
 20
348.242900
 30
0.0
 10
1387.072500
 20
349.630500
 30
0.0
 10
1386.550000
 20
350.116500
 30
0.0
  0
SPLINE
  5
22a
100
AcDbEntity
  8
Image
 62
7
100
AcDbSpline
 70
8
 71
3
 72
8
 73
4
 74
0
 40
0
 40
0
 40
0
 40
0
 40
1
 40
1
 40
1
 40
1
 10
1386.550000
 20
350.116500
 30
0.0
 10
1386.027500
 20
350.602400
 30
0.0
 10
1384.955000
 20
351.000000
 30
0.0
 10
1384.166600
 20
351.000000
 30
0.0
  0
SPLINE
  5
22b
100
AcDbEntity
  8
Image
 62
7
100
AcDbSpline
 70
8
 71
3
 72
8
 73
4
 74
0
 40
0
 40
0
 40
0
 40
0
 40
1
 40
1
 40
1
 40
1
 10
1384.166600
 20
351.000000
 30
0.0
 10
1383.378200
 20
351.000000
 30
0.0
 10
1379.642600
 20
352.575000
 30
0.0
 10
1375.865400
 20
354.500000
 30
0.0
  0
SPLINE
  5
22c
100
AcDbEntity
  8
Image
 62
7
100
AcDbSpline
 70
8
 71
3
 72
8
 73
4
 74
0
 40
0
 40
0
 40
0
 40
0
 40
1
 40
1
 40
1
 40
1
 10
1375.865400
 20
354.500000
 30
0.0
 10
1372.088100
 20
356.425000
 30
0.0
 10
1368.422600
 20
358.000000
 30
0.0
 10
1367.719900
 20
358.000000
 30
0.0
  0
SPLINE
  5
22d
100
AcDbEntity
  8
Image
 62
7
100
AcDbSpline
 70
8
 71
3
 72
8
 73
4
 74
0
 40
0
 40
0
 40
0
 40
0
 40
1
 40
1
 40
1
 40
1
 10
1367.719900
 20
358.000000
 30
0.0
 10
1367.017200
 20
358.000000
 30
0.0
 10
1362.540200
 20
360.025000
 30
0.0
 10
1357.771000
 20
362.500000
 30
0.0
  0
SPLINE
  5
22e
100
AcDbEntity
  8
Image
 62
7
100
AcDbSpline
 70
8
 71
3
 72
8
 73
4
 74
0
 40
0
 40
0
 40
0
 40
0
 40
1
 40
1
 40
1
 40
1
 10
1357.771000
 20
362.500000
 30
0.0
 10
1353.001800
 20
364.975000
 30
0.0
 10
1348.545000
 20
367.000000
 30
0.0
 10
1347.866900
 20
367.000000
 30
0.0
  0
SPLINE
  5
22f
100
AcDbEntity
  8
Image
 62
7
100
AcDbSpline
 70
8
 71
3
 72
8
 73
4
 74
0
 40
0
 40
0
 40
0
 40
0
 40
1
 40
1
 40
1
 40
1
 10
1347.866900
 20
367.000000
 30
0.0
 10
1347.188800
 20
367.000000
 30
0.0
 10
1342.212600
 20
369.250000
 30
0.0
 10
1336.808700
 20
372.000000
 30
0.0
  0
SPLINE
  5
230
100
AcDbEntity
  8
Image
 62
7
100
AcDbSpline
 70
8
 71
3
 72
8
 73
4
 74
0
 40
0
 40
0
 40
0
 40
0
 40
1
 40
1
 40
1
 40
1
 10
1336.808700
 20
372.000000
 30
0.0
 10
1331.404800
 20
374.750000
 30
0.0
 10
1326.515400
 20
377.000000
 30
0.0
 10
1325.943400
 20
377.000000
 30
0.0
  0
SPLINE
  5
231
100
AcDbEntity
  8
Image
 62
7
100
AcDbSpline
 70
8
 71
3
 72
8
 73
4
 74
0
 40
0
 40
0
 40
0
 40
0
 40
1
 40
1
 40
1
 40
1
 10
1325.943400
 20
377.000000
 30
0.0
 10
1325.371400
 20
377.000000
 30
0.0
 10
1323.040600
 20
377.900000
 30
0.0
 10
1320.763900
 20
379.000000
 30
0.0
  0
SPLINE
  5
232
100
AcDbEntity
  8
Image
 62
7
100
AcDbSpline
 70
8
 71
3
 72
8
 73
4
 74
0
 40
0
 40
0
 40
0
 40
0
 40
1
 40
1
 40
1
 40
1
 10
1320.763900
 20
379.000000
 30
0.0
 10
1318.487100
 20
380.100000
 30
0.0
 10
1316.214900
 20
381.000000
 30
0.0
 10
1315.714500
 20
381.000000
 30
0.0
  0
SPLINE
  5
233
100
AcDbEntity
  8
Image
 62
7
100
AcDbSpline
 70
8
 71
3
 72
8
 73
4
 74
0
 40
0
 40
0
 40
0
 40
0
 40
1
 40
1
 40
1
 40
1
 10
1315.714500
 20
381.000000
 30
0.0
 10
1315.214100
 20
381.000000
 30
0.0
 10
1311.136100
 20
382.766900
 30
0.0
 10
1306.652300
 20
384.926300
 30
0.0
  0
SPLINE
  5
234
100
AcDbEntity
  8
Image
 62
7
100
AcDbSpline
 70
8
 71
3
 72
8
 73
4
 74
0
 40
0
 40
0
 40
0
 40
0
 40
1
 40
1
 40
1
 40
1
 10
1306.652300
 20
384.926300
 30
0.0
 10
1302.168500
 20
387.085800
 30
0.0
 10
1296.250000
 20
389.593400
 30
0.0
 10
1293.500000
 20
390.498700
 30
0.0
  0
SPLINE
  5
235
100
AcDbEntity
  8
Image
 62
7
100
AcDbSpline
 70
8
 71
3
 72
8
 73
4
 74
0
 40
0
 40
0
 40
0
 40
0
 40
1
 40
1
 40
1
 40
1
 10
1293.500000
 20
390.498700
 30
0.0
 10
1290.750000
 20
391.404100
 30
0.0
 10
1287.150000
 20
392.760600
 30
0.0
 10
1285.500000
 20
393.513200
 30
0.0
  0
SPLINE
  5
236
100
AcDbEntity
  8
Image
 62
7
100
AcDbSpline
 70
8
 71
3
 72
8
 73
4
 74
0
 40
0
 40
0
 40
0
 40
0
 40
1
 40
1
 40
1
 40
1
 10
1285.500000
 20
393.513200
 30
0.0
 10
1281.539900
 20
395.319600
 30
0.0
 10
1267.293200
 20
399.998300
 30
0.0
 10
1265.728900
 20
400.006200
 30
0.0
  0
SPLINE
  5
237
100
AcDbEntity
  8
Image
 62
7
100
AcDbSpline
 70
8
 71
3
 72
8
 73
4
 74
0
 40
0
 40
0
 40
0
 40
0
 40
1
 40
1
 40
1
 40
1
 10
1265.728900
 20
400.006200
 30
0.0
 10
1265.053000
 20
400.006200
 30
0.0
 10
1263.242100
 20
400.668400
 30
0.0
 10
1261.704700
 20
401.470400
 30
0.0
  0
SPLINE
  5
238
100
AcDbEntity
  8
Image
 62
7
100
AcDbSpline
 70
8
 71
3
 72
8
 73
4
 74
0
 40
0
 40
0
 40
0
 40
0
 40
1
 40
1
 40
1
 40
1
 10
1261.704700
 20
401.470400
 30
0.0
 10
1260.167200
 20
402.272300
 30
0.0
 10
1256.342200
 20
403.401100
 30
0.0
 10
1253.204700
 20
403.978800
 30
0.0
  0
SPLINE
  5
239
100
AcDbEntity
  8
Image
 62
7
100
AcDbSpline
 70
8
 71
3
 72
8
 73
4
 74
0
 40
0
 40
0
 40
0
 40
0
 40
1
 40
1
 40
1
 40
1
 10
1253.204700
 20
403.978800
 30
0.0
 10
1250.067100
 20
404.556600
 30
0.0
 10
1245.700000
 20
405.677900
 30
0.0
 10
1243.500000
 20
406.470700
 30
0.0
  0
SPLINE
  5
23a
100
AcDbEntity
  8
Image
 62
7
100
AcDbSpline
 70
8
 71
3
 72
8
 73
4
 74
0
 40
0
 40
0
 40
0
 40
0
 40
1
 40
1
 40
1
 40
1
 10
1243.500000
 20
406.470700
 30
0.0
 10
1241.300000
 20
407.263500
 30
0.0
 10
1237.646100
 20
407.932000
 30
0.0
 10
1235.380300
 20
407.956100
 30
0.0
  0
SPLINE
  5
23b
100
AcDbEntity
  8
Image
 62
7
100
AcDbSpline
 70
8
 71
3
 72
8
 73
4
 74
0
 40
0
 40
0
 40
0
 40
0
 40
1
 40
1
 40
1
 40
1
 10
1235.380300
 20
407.956100
 30
0.0
 10
1233.114400
 20
407.980100
 30
0.0
 10
1228.443300
 20
408.900000
 30
0.0
 10
1225.000000
 20
410.000000
 30
0.0
  0
SPLINE
  5
23c
100
AcDbEntity
  8
Image
 62
7
100
AcDbSpline
 70
8
 71
3
 72
8
 73
4
 74
0
 40
0
 40
0
 40
0
 40
0
 40
1
 40
1
 40
1
 40
1
 10
1225.000000
 20
410.000000
 30
0.0
 10
1219.482800
 20
411.762500
 30
0.0
 10
1215.985900
 20
412.000000
 30
0.0
 10
1195.549200
 20
412.000000
 30
0.0
  0
SPLINE
  5
23d
100
AcDbEntity
  8
Image
 62
7
100
AcDbSpline
 70
8
 71
3
 72
8
 73
4
 74
0
 40
0
 40
0
 40
0
 40
0
 40
1
 40
1
 40
1
 40
1
 10
1195.549200
 20
412.000000
 30
0.0
 10
1176.145200
 20
412.000000
 30
0.0
 10
1170.830900
 20
411.673500
 30
0.0
 10
1163.000000
 20
410.000000
 30
0.0
  0
SPLINE
  5
23e
100
AcDbEntity
  8
Image
 62
7
100
AcDbSpline
 70
8
 71
3
 72
8
 73
4
 74
0
 40
0
 40
0
 40
0
 40
0
 40
1
 40
1
 40
1
 40
1
 10
1163.000000
 20
410.000000
 30
0.0
 10
1157.852600
 20
408.900000
 30
0.0
 10
1150.422600
 20
408.000000
 30
0.0
 10
1146.489000
 20
408.000000
 30
0.0
  0
SPLINE
  5
23f
100
AcDbEntity
  8
Image
 62
7
100
AcDbSpline
 70
8
 71
3
 72
8
 73
4
 74
0
 40
0
 40
0
 40
0
 40
0
 40
1
 40
1
 40
1
 40
1
 10
1146.489000
 20
408.000000
 30
0.0
 10
1139.371300
 20
408.000000
 30
0.0
 10
1130.263500
 20
405.854700
 30
0.0
 10
1121.000000
 20
401.996100
 30
0.0
  0
SPLINE
  5
240
100
AcDbEntity
  8
Image
 62
7
100
AcDbSpline
 70
8
 71
3
 72
8
 73
4
 74
0
 40
0
 40
0
 40
0
 40
0
 40
1
 40
1
 40
1
 40
1
 10
1121.000000
 20
401.996100
 30
0.0
 10
1118.525000
 20
400.965200
 30
0.0
 10
1114.881700
 20
399.861900
 30
0.0
 10
1112.903700
 20
399.544400
 30
0.0
  0
SPLINE
  5
241
100
AcDbEntity
  8
Image
 62
7
100
AcDbSpline
 70
8
 71
3
 72
8
 73
4
 74
0
 40
0
 40
0
 40
0
 40
0
 40
1
 40
1
 40
1
 40
1
 10
1112.903700
 20
399.544400
 30
0.0
 10
1110.925800
 20
399.226800
 30
0.0
 10
1107.464300
 20
398.076500
 30
0.0
 10
1105.211500
 20
396.988100
 30
0.0
  0
SPLINE
  5
242
100
AcDbEntity
  8
Image
 62
7
100
AcDbSpline
 70
8
 71
3
 72
8
 73
4
 74
0
 40
0
 40
0
 40
0
 40
0
 40
1
 40
1
 40
1
 40
1
 10
1105.211500
 20
396.988100
 30
0.0
 10
1102.958800
 20
395.899700
 30
0.0
 10
1097.975500
 20
394.563800
 30
0.0
 10
1094.137600
 20
394.019500
 30
0.0
  0
SPLINE
  5
243
100
AcDbEntity
  8
Image
 62
7
100
AcDbSpline
 70
8
 71
3
 72
8
 73
4
 74
0
 40
0
 40
0
 40
0
 40
0
 40
1
 40
1
 40
1
 40
1
 10
1094.137600
 20
394.019500
 30
0.0
 10
1086.498900
 20
392.936200
 30
0.0
 10
1085.381600
 20
392.554900
 30
0.0
 10
1073.193700
 20
386.872600
 30
0.0
  0
SPLINE
  5
244
100
AcDbEntity
  8
Image
 62
7
100
AcDbSpline
 70
8
 71
3
 72
8
 73
4
 74
0
 40
0
 40
0
 40
0
 40
0
 40
1
 40
1
 40
1
 40
1
 10
1073.193700
 20
386.872600
 30
0.0
 10
1068.625200
 20
384.742700
 30
0.0
 10
1064.456600
 20
383.000000
 30
0.0
 10
1063.930100
 20
383.000000
 30
0.0
  0
SPLINE
  5
245
100
AcDbEntity
  8
Image
 62
7
100
AcDbSpline
 70
8
 71
3
 72
8
 73
4
 74
0
 40
0
 40
0
 40
0
 40
0
 40
1
 40
1
 40
1
 40
1
 10
1063.930100
 20
383.000000
 30
0.0
 10
1062.358200
 20
383.000000
 30
0.0
 10
1059.295800
 20
380.964500
 30
0.0
 10
1046.291000
 20
371.275500
 30
0.0
  0
SPLINE
  5
246
100
AcDbEntity
  8
Image
 62
7
100
AcDbSpline
 70
8
 71
3
 72
8
 73
4
 74
0
 40
0
 40
0
 40
0
 40
0
 40
1
 40
1
 40
1
 40
1
 10
1046.291000
 20
371.275500
 30
0.0
 10
1039.481300
 20
366.202000
 30
0.0
 10
1032.242500
 20
361.265400
 30
0.0
 10
1030.204800
 20
360.305200
 30
0.0
  0
SPLINE
  5
247
100
AcDbEntity
  8
Image
 62
7
100
AcDbSpline
 70
8
 71
3
 72
8
 73
4
 74
0
 40
0
 40
0
 40
0
 40
0
 40
1
 40
1
 40
1
 40
1
 10
1030.204800
 20
360.305200
 30
0.0
 10
1028.167200
 20
359.345000
 30
0.0
 10
1024.250000
 20
356.860500
 30
0.0
 10
1021.500000
 20
354.784000
 30
0.0
  0
SPLINE
  5
248
100
AcDbEntity
  8
Image
 62
7
100
AcDbSpline
 70
8
 71
3
 72
8
 73
4
 74
0
 40
0
 40
0
 40
0
 40
0
 40
1
 40
1
 40
1
 40
1
 10
1021.500000
 20
354.784000
 30
0.0
 10
1018.750000
 20
352.707500
 30
0.0
 10
1016.182500
 20
351.006700
 30
0.0
 10
1015.794400
 20
351.004300
 30
0.0
  0
SPLINE
  5
249
100
AcDbEntity
  8
Image
 62
7
100
AcDbSpline
 70
8
 71
3
 72
8
 73
4
 74
0
 40
0
 40
0
 40
0
 40
0
 40
1
 40
1
 40
1
 40
1
 10
1015.794400
 20
351.004300
 30
0.0
 10
1015.406300
 20
351.004300
 30
0.0
 10
1013.388500
 20
349.846100
 30
0.0
 10
1011.310300
 20
348.435800
 30
0.0
  0
SPLINE
  5
24a
100
AcDbEntity
  8
Image
 62
7
100
AcDbSpline
 70
8
 71
3
 72
8
 73
4
 74
0
 40
0
 40
0
 40
0
 40
0
 40
1
 40
1
 40
1
 40
1
 10
1011.310300
 20
348.435800
 30
0.0
 10
1009.232100
 20
347.025500
 30
0.0
 10
1005.949600
 20
345.126400
 30
0.0
 10
1004.015900
 20
344.215500
 30
0.0
  0
SPLINE
  5
24b
100
AcDbEntity
  8
Image
 62
7
100
AcDbSpline
 70
8
 71
3
 72
8
 73
4
 74
0
 40
0
 40
0
 40
0
 40
0
 40
1
 40
1
 40
1
 40
1
 10
1004.015900
 20
344.215500
 30
0.0
 10
1002.082100
 20
343.304600
 30
0.0
 10
998.250000
 20
340.860500
 30
0.0
 10
995.500000
 20
338.784000
 30
0.0
  0
SPLINE
  5
24c
100
AcDbEntity
  8
Image
 62
7
100
AcDbSpline
 70
8
 71
3
 72
8
 73
4
 74
0
 40
0
 40
0
 40
0
 40
0
 40
1
 40
1
 40
1
 40
1
 10
995.500000
 20
338.784000
 30
0.0
 10
992.750000
 20
336.707500
 30
0.0
 10
990.050000
 20
335.004600
 30
0.0
 10
989.500000
 20
334.999700
 30
0.0
  0
SPLINE
  5
24d
100
AcDbEntity
  8
Image
 62
7
100
AcDbSpline
 70
8
 71
3
 72
8
 73
4
 74
0
 40
0
 40
0
 40
0
 40
0
 40
1
 40
1
 40
1
 40
1
 10
989.500000
 20
334.999700
 30
0.0
 10
988.950000
 20
334.999700
 30
0.0
 10
987.150000
 20
333.726600
 30
0.0
 10
985.500000
 20
332.181500
 30
0.0
  0
SPLINE
  5
24e
100
AcDbEntity
  8
Image
 62
7
100
AcDbSpline
 70
8
 71
3
 72
8
 73
4
 74
0
 40
0
 40
0
 40
0
 40
0
 40
1
 40
1
 40
1
 40
1
 10
985.500000
 20
332.181500
 30
0.0
 10
981.095730
 20
328.057200
 30
0.0
 10
972.012560
 20
322.000000
 30
0.0
 10
970.232180
 20
322.000000
 30
0.0
  0
SPLINE
  5
24f
100
AcDbEntity
  8
Image
 62
7
100
AcDbSpline
 70
8
 71
3
 72
8
 73
4
 74
0
 40
0
 40
0
 40
0
 40
0
 40
1
 40
1
 40
1
 40
1
 10
970.232180
 20
322.000000
 30
0.0
 10
969.383310
 20
322.000000
 30
0.0
 10
967.296310
 20
320.960200
 30
0.0
 10
965.594390
 20
319.689400
 30
0.0
  0
SPLINE
  5
250
100
AcDbEntity
  8
Image
 62
7
100
AcDbSpline
 70
8
 71
3
 72
8
 73
4
 74
0
 40
0
 40
0
 40
0
 40
0
 40
1
 40
1
 40
1
 40
1
 10
965.594390
 20
319.689400
 30
0.0
 10
961.686510
 20
316.771300
 30
0.0
 10
955.559730
 20
314.037400
 30
0.0
 10
946.000000
 20
310.945900
 30
0.0
  0
SPLINE
  5
251
100
AcDbEntity
  8
Image
 62
7
100
AcDbSpline
 70
8
 71
3
 72
8
 73
4
 74
0
 40
0
 40
0
 40
0
 40
0
 40
1
 40
1
 40
1
 40
1
 10
946.000000
 20
310.945900
 30
0.0
 10
941.875000
 20
309.612000
 30
0.0
 10
935.286170
 20
306.378400
 30
0.0
 10
931.358160
 20
303.760300
 30
0.0
  0
SPLINE
  5
252
100
AcDbEntity
  8
Image
 62
7
100
AcDbSpline
 70
8
 71
3
 72
8
 73
4
 74
0
 40
0
 40
0
 40
0
 40
0
 40
1
 40
1
 40
1
 40
1
 10
931.358160
 20
303.760300
 30
0.0
 10
927.430140
 20
301.142100
 30
0.0
 10
923.830140
 20
298.987200
 30
0.0
 10
923.358160
 20
298.971600
 30
0.0
  0
SPLINE
  5
253
100
AcDbEntity
  8
Image
 62
7
100
AcDbSpline
 70
8
 71
3
 72
8
 73
4
 74
0
 40
0
 40
0
 40
0
 40
0
 40
1
 40
1
 40
1
 40
1
 10
923.358160
 20
298.971600
 30
0.0
 10
922.886170
 20
298.955600
 30
0.0
 10
920.611660
 20
297.261700
 30
0.0
 10
918.303690
 20
295.206600
 30
0.0
  0
SPLINE
  5
254
100
AcDbEntity
  8
Image
 62
7
100
AcDbSpline
 70
8
 71
3
 72
8
 73
4
 74
0
 40
0
 40
0
 40
0
 40
0
 40
1
 40
1
 40
1
 40
1
 10
918.303690
 20
295.206600
 30
0.0
 10
915.995730
 20
293.151400
 30
0.0
 10
912.243470
 20
290.351700
 30
0.0
 10
909.965570
 20
288.985000
 30
0.0
  0
SPLINE
  5
255
100
AcDbEntity
  8
Image
 62
7
100
AcDbSpline
 70
8
 71
3
 72
8
 73
4
 74
0
 40
0
 40
0
 40
0
 40
0
 40
1
 40
1
 40
1
 40
1
 10
909.965570
 20
288.985000
 30
0.0
 10
907.687660
 20
287.618200
 30
0.0
 10
900.504080
 20
283.012500
 30
0.0
 10
894.001870
 20
278.750000
 30
0.0
  0
SPLINE
  5
256
100
AcDbEntity
  8
Image
 62
7
100
AcDbSpline
 70
8
 71
3
 72
8
 73
4
 74
0
 40
0
 40
0
 40
0
 40
0
 40
1
 40
1
 40
1
 40
1
 10
894.001870
 20
278.750000
 30
0.0
 10
887.499660
 20
274.487500
 30
0.0
 10
881.896020
 20
271.000000
 30
0.0
 10
881.549340
 20
271.000000
 30
0.0
  0
SPLINE
  5
257
100
AcDbEntity
  8
Image
 62
7
100
AcDbSpline
 70
8
 71
3
 72
8
 73
4
 74
0
 40
0
 40
0
 40
0
 40
0
 40
1
 40
1
 40
1
 40
1
 10
881.549340
 20
271.000000
 30
0.0
 10
880.881710
 20
271.000000
 30
0.0
 10
878.571640
 20
269.402900
 30
0.0
 10
868.169910
 20
261.750000
 30
0.0
  0
SPLINE
  5
258
100
AcDbEntity
  8
Image
 62
7
100
AcDbSpline
 70
8
 71
3
 72
8
 73
4
 74
0
 40
0
 40
0
 40
0
 40
0
 40
1
 40
1
 40
1
 40
1
 10
868.169910
 20
261.750000
 30
0.0
 10
864.619040
 20
259.137500
 30
0.0
 10
860.090680
 20
256.556900
 30
0.0
 10
858.106890
 20
256.015300
 30
0.0
  0
SPLINE
  5
259
100
AcDbEntity
  8
Image
 62
7
100
AcDbSpline
 70
8
 71
3
 72
8
 73
4
 74
0
 40
0
 40
0
 40
0
 40
0
 40
1
 40
1
 40
1
 40
1
 10
858.106890
 20
256.015300
 30
0.0
 10
856.123100
 20
255.473700
 30
0.0
 10
852.936640
 20
253.686500
 30
0.0
 10
851.025870
 20
252.043800
 30
0.0
  0
SPLINE
  5
25a
100
AcDbEntity
  8
Image
 62
7
100
AcDbSpline
 70
8
 71
3
 72
8
 73
4
 74
0
 40
0
 40
0
 40
0
 40
0
 40
1
 40
1
 40
1
 40
1
 10
851.025870
 20
252.043800
 30
0.0
 10
849.115100
 20
250.401000
 30
0.0
 10
846.190100
 20
248.548700
 30
0.0
 10
844.525870
 20
247.927600
 30
0.0
  0
SPLINE
  5
25b
100
AcDbEntity
  8
Image
 62
7
100
AcDbSpline
 70
8
 71
3
 72
8
 73
4
 74
0
 40
0
 40
0
 40
0
 40
0
 40
1
 40
1
 40
1
 40
1
 10
844.525870
 20
247.927600
 30
0.0
 10
839.031210
 20
245.876700
 30
0.0
 10
836.548260
 20
244.536200
 30
0.0
 10
832.213630
 20
241.280700
 30
0.0
  0
SPLINE
  5
25c
100
AcDbEntity
  8
Image
 62
7
100
AcDbSpline
 70
8
 71
3
 72
8
 73
4
 74
0
 40
0
 40
0
 40
0
 40
0
 40
1
 40
1
 40
1
 40
1
 10
832.213630
 20
241.280700
 30
0.0
 10
829.856130
 20
239.510100
 30
0.0
 10
826.031130
 20
237.207000
 30
0.0
 10
823.713630
 20
236.162600
 30
0.0
  0
SPLINE
  5
25d
100
AcDbEntity
  8
Image
 62
7
100
AcDbSpline
 70
8
 71
3
 72
8
 73
4
 74
0
 40
0
 40
0
 40
0
 40
0
 40
1
 40
1
 40
1
 40
1
 10
823.713630
 20
236.162600
 30
0.0
 10
821.396130
 20
235.118300
 30
0.0
 10
818.150000
 20
233.067800
 30
0.0
 10
816.500000
 20
231.606100
 30
0.0
  0
SPLINE
  5
25e
100
AcDbEntity
  8
Image
 62
7
100
AcDbSpline
 70
8
 71
3
 72
8
 73
4
 74
0
 40
0
 40
0
 40
0
 40
0
 40
1
 40
1
 40
1
 40
1
 10
816.500000
 20
231.606100
 30
0.0
 10
814.850000
 20
230.144300
 30
0.0
 10
812.375000
 20
228.670600
 30
0.0
 10
811.000000
 20
228.331100
 30
0.0
  0
SPLINE
  5
25f
100
AcDbEntity
  8
Image
 62
7
100
AcDbSpline
 70
8
 71
3
 72
8
 73
4
 74
0
 40
0
 40
0
 40
0
 40
0
 40
1
 40
1
 40
1
 40
1
 10
811.000000
 20
228.331100
 30
0.0
 10
808.012140
 20
227.593400
 30
0.0
 10
799.981630
 20
223.647300
 30
0.0
 10
795.049820
 20
220.493200
 30
0.0
  0
SPLINE
  5
260
100
AcDbEntity
  8
Image
 62
7
100
AcDbSpline
 70
8
 71
3
 72
8
 73
4
 74
0
 40
0
 40
0
 40
0
 40
0
 40
1
 40
1
 40
1
 40
1
 10
795.049820
 20
220.493200
 30
0.0
 10
793.097420
 20
219.244600
 30
0.0
 10
789.606740
 20
217.945600
 30
0.0
 10
787.292750
 20
217.606500
 30
0.0
  0
SPLINE
  5
261
100
AcDbEntity
  8
Image
 62
7
100
AcDbSpline
 70
8
 71
3
 72
8
 73
4
 74
0
 40
0
 40
0
 40
0
 40
0
 40
1
 40
1
 40
1
 40
1
 10
787.292750
 20
217.606500
 30
0.0
 10
784.978760
 20
217.267400
 30
0.0
 10
781.124490
 20
215.666600
 30
0.0
 10
778.727700
 20
214.049000
 30
0.0
  0
SPLINE
  5
262
100
AcDbEntity
  8
Image
 62
7
100
AcDbSpline
 70
8
 71
3
 72
8
 73
4
 74
0
 40
0
 40
0
 40
0
 40
0
 40
1
 40
1
 40
1
 40
1
 10
778.727700
 20
214.049000
 30
0.0
 10
775.887130
 20
212.131900
 30
0.0
 10
770.562700
 20
210.173400
 30
0.0
 10
763.434940
 20
208.423700
 30
0.0
  0
SPLINE
  5
263
100
AcDbEntity
  8
Image
 62
7
100
AcDbSpline
 70
8
 71
3
 72
8
 73
4
 74
0
 40
0
 40
0
 40
0
 40
0
 40
1
 40
1
 40
1
 40
1
 10
763.434940
 20
208.423700
 30
0.0
 10
756.913660
 20
206.822900
 30
0.0
 10
750.648330
 20
204.581100
 30
0.0
 10
747.912450
 20
202.869700
 30
0.0
  0
SPLINE
  5
264
100
AcDbEntity
  8
Image
 62
7
100
AcDbSpline
 70
8
 71
3
 72
8
 73
4
 74
0
 40
0
 40
0
 40
0
 40
0
 40
1
 40
1
 40
1
 40
1
 10
747.912450
 20
202.869700
 30
0.0
 10
745.389300
 20
201.291400
 30
0.0
 10
742.239300
 20
199.998100
 30
0.0
 10
740.912450
 20
199.995700
 30
0.0
  0
SPLINE
  5
265
100
AcDbEntity
  8
Image
 62
7
100
AcDbSpline
 70
8
 71
3
 72
8
 73
4
 74
0
 40
0
 40
0
 40
0
 40
0
 40
1
 40
1
 40
1
 40
1
 10
740.912450
 20
199.995700
 30
0.0
 10
739.585600
 20
199.995700
 30
0.0
 10
736.475000
 20
198.645300
 30
0.0
 10
734.000000
 20
197.000000
 30
0.0
  0
SPLINE
  5
266
100
AcDbEntity
  8
Image
 62
7
100
AcDbSpline
 70
8
 71
3
 72
8
 73
4
 74
0
 40
0
 40
0
 40
0
 40
0
 40
1
 40
1
 40
1
 40
1
 10
734.000000
 20
197.000000
 30
0.0
 10
730.302720
 20
194.542200
 30
0.0
 10
728.466370
 20
194.007800
 30
0.0
 10
723.705520
 20
194.004300
 30
0.0
  0
SPLINE
  5
267
100
AcDbEntity
  8
Image
 62
7
100
AcDbSpline
 70
8
 71
3
 72
8
 73
4
 74
0
 40
0
 40
0
 40
0
 40
0
 40
1
 40
1
 40
1
 40
1
 10
723.705520
 20
194.004300
 30
0.0
 10
715.128310
 20
193.994300
 30
0.0
 10
705.275340
 20
191.197000
 30
0.0
 10
700.198570
 20
187.321800
 30
0.0
  0
SPLINE
  5
268
100
AcDbEntity
  8
Image
 62
7
100
AcDbSpline
 70
8
 71
3
 72
8
 73
4
 74
0
 40
0
 40
0
 40
0
 40
0
 40
1
 40
1
 40
1
 40
1
 10
700.198570
 20
187.321800
 30
0.0
 10
697.804730
 20
185.494500
 30
0.0
 10
694.673250
 20
183.705100
 30
0.0
 10
693.239720
 20
183.345300
 30
0.0
  0
SPLINE
  5
269
100
AcDbEntity
  8
Image
 62
7
100
AcDbSpline
 70
8
 71
3
 72
8
 73
4
 74
0
 40
0
 40
0
 40
0
 40
0
 40
1
 40
1
 40
1
 40
1
 10
693.239720
 20
183.345300
 30
0.0
 10
691.806190
 20
182.985500
 30
0.0
 10
689.478310
 20
182.088400
 30
0.0
 10
688.066650
 20
181.351700
 30
0.0
  0
SPLINE
  5
26a
100
AcDbEntity
  8
Image
 62
7
100
AcDbSpline
 70
8
 71
3
 72
8
 73
4
 74
0
 40
0
 40
0
 40
0
 40
0
 40
1
 40
1
 40
1
 40
1
 10
688.066650
 20
181.351700
 30
0.0
 10
686.609800
 20
180.591500
 30
0.0
 10
682.343690
 20
180.009700
 30
0.0
 10
678.200340
 20
180.006200
 30
0.0
  0
SPLINE
  5
26b
100
AcDbEntity
  8
Image
 62
7
100
AcDbSpline
 70
8
 71
3
 72
8
 73
4
 74
0
 40
0
 40
0
 40
0
 40
0
 40
1
 40
1
 40
1
 40
1
 10
678.200340
 20
180.006200
 30
0.0
 10
673.143690
 20
180.006200
 30
0.0
 10
669.917290
 20
179.462300
 30
0.0
 10
667.700340
 20
178.250000
 30
0.0
  0
SPLINE
  5
26c
100
AcDbEntity
  8
Image
 62
7
100
AcDbSpline
 70
8
 71
3
 72
8
 73
4
 74
0
 40
0
 40
0
 40
0
 40
0
 40
1
 40
1
 40
1
 40
1
 10
667.700340
 20
178.250000
 30
0.0
 10
665.040820
 20
176.795700
 30
0.0
 10
660.613260
 20
176.382200
 30
0.0
 10
641.500000
 20
175.803100
 30
0.0
  0
SPLINE
  5
26d
100
AcDbEntity
  8
Image
 62
7
100
AcDbSpline
 70
8
 71
3
 72
8
 73
4
 74
0
 40
0
 40
0
 40
0
 40
0
 40
1
 40
1
 40
1
 40
1
 10
641.500000
 20
175.803100
 30
0.0
 10
628.850000
 20
175.419800
 30
0.0
 10
611.975000
 20
174.616400
 30
0.0
 10
604.000000
 20
174.017800
 30
0.0
  0
SPLINE
  5
26e
100
AcDbEntity
  8
Image
 62
7
100
AcDbSpline
 70
8
 71
3
 72
8
 73
4
 74
0
 40
0
 40
0
 40
0
 40
0
 40
1
 40
1
 40
1
 40
1
 10
604.000000
 20
174.017800
 30
0.0
 10
596.025000
 20
173.419100
 30
0.0
 10
583.762500
 20
172.684500
 30
0.0
 10
576.750000
 20
172.385200
 30
0.0
  0
SPLINE
  5
26f
100
AcDbEntity
  8
Image
 62
7
100
AcDbSpline
 70
8
 71
3
 72
8
 73
4
 74
0
 40
0
 40
0
 40
0
 40
0
 40
1
 40
1
 40
1
 40
1
 10
576.750000
 20
172.385200
 30
0.0
 10
569.737500
 20
172.085900
 30
0.0
 10
564.000000
 20
171.426800
 30
0.0
 10
564.000000
 20
170.920500
 30
0.0
  0
SPLINE
  5
270
100
AcDbEntity
  8
Image
 62
7
100
AcDbSpline
 70
8
 71
3
 72
8
 73
4
 74
0
 40
0
 40
0
 40
0
 40
0
 40
1
 40
1
 40
1
 40
1
 10
564.000000
 20
170.920500
 30
0.0
 10
564.000000
 20
169.624700
 30
0.0
 10
562.950490
 20
169.824900
 30
0.0
 10
559.500000
 20
171.779200
 30
0.0
  0
LWPOLYLINE
  5
271
100
AcDbEntity
  8
Image
 62
7
100
AcDbPolyline
 90
3
 70
0
 10
1355.192700
 20
673.000000
 30
0.0
 10
1355.500000
 20
678.500000
 30
0.0
 10
1399.500000
 20
678.803920
 30
0.0
  0
SPLINE
  5
272
100
AcDbEntity
  8
Image
 62
7
100
AcDbSpline
 70
8
 71
3
 72
8
 73
4
 74
0
 40
0
 40
0
 40
0
 40
0
 40
1
 40
1
 40
1
 40
1
 10
525.629950
 20
312.106300
 30
0.0
 10
531.844650
 20
317.906600
 30
0.0
 10
533.382150
 20
325.715400
 30
0.0
 10
529.481570
 20
331.668500
 30
0.0
  0
SPLINE
  5
273
100
AcDbEntity
  8
Image
 62
7
100
AcDbSpline
 70
8
 71
3
 72
8
 73
4
 74
0
 40
0
 40
0
 40
0
 40
0
 40
1
 40
1
 40
1
 40
1
 10
529.481570
 20
331.668500
 30
0.0
 10
527.230670
 20
335.103800
 30
0.0
 10
519.169450
 20
340.000000
 30
0.0
 10
515.764380
 20
340.000000
 30
0.0
  0
SPLINE
  5
274
100
AcDbEntity
  8
Image
 62
7
100
AcDbSpline
 70
8
 71
3
 72
8
 73
4
 74
0
 40
0
 40
0
 40
0
 40
0
 40
1
 40
1
 40
1
 40
1
 10
515.764380
 20
340.000000
 30
0.0
 10
511.580580
 20
340.000000
 30
0.0
 10
505.262570
 20
336.408400
 30
0.0
 10
503.520610
 20
333.039800
 30
0.0
  0
SPLINE
  5
275
100
AcDbEntity
  8
Image
 62
7
100
AcDbSpline
 70
8
 71
3
 72
8
 73
4
 74
0
 40
0
 40
0
 40
0
 40
0
 40
1
 40
1
 40
1
 40
1
 10
503.520610
 20
333.039800
 30
0.0
 10
500.382020
 20
326.970500
 30
0.0
 10
502.247690
 20
317.899600
 30
0.0
 10
507.668090
 20
312.874800
 30
0.0
  0
SPLINE
  5
276
100
AcDbEntity
  8
Image
 62
7
100
AcDbSpline
 70
8
 71
3
 72
8
 73
4
 74
0
 40
0
 40
0
 40
0
 40
0
 40
1
 40
1
 40
1
 40
1
 10
507.668090
 20
312.874800
 30
0.0
 10
511.426570
 20
309.390600
 30
0.0
 10
512.640700
 20
308.991000
 30
0.0
 10
518.282630
 20
309.381600
 30
0.0
  0
SPLINE
  5
277
100
AcDbEntity
  8
Image
 62
7
100
AcDbSpline
 70
8
 71
3
 72
8
 73
4
 74
0
 40
0
 40
0
 40
0
 40
0
 40
1
 40
1
 40
1
 40
1
 10
518.282630
 20
309.381600
 30
0.0
 10
521.629520
 20
309.613300
 30
0.0
 10
523.835190
 20
310.431300
 30
0.0
 10
525.629950
 20
312.106300
 30
0.0
  0
LWPOLYLINE
  5
278
100
AcDbEntity
  8
Image
 62
7
100
AcDbPolyline
 90
1
 70
1
 10
559.500000
 20
171.779200
 30
0.0
  0
SPLINE
  5
279
100
AcDbEntity
  8
Image
 62
7
100
AcDbSpline
 70
8
 71
3
 72
8
 73
4
 74
0
 40
0
 40
0
 40
0
 40
0
 40
1
 40
1
 40
1
 40
1
 10
805.695670
 20
405.956000
 30
0.0
 10
809.276110
 20
408.139100
 30
0.0
 10
811.184310
 20
410.781300
 30
0.0
 10
813.055120
 20
416.146000
 30
0.0
  0
SPLINE
  5
27a
100
AcDbEntity
  8
Image
 62
7
100
AcDbSpline
 70
8
 71
3
 72
8
 73
4
 74
0
 40
0
 40
0
 40
0
 40
0
 40
1
 40
1
 40
1
 40
1
 10
813.055120
 20
416.146000
 30
0.0
 10
815.317740
 20
422.634300
 30
0.0
 10
810.525720
 20
429.500300
 30
0.0
 10
801.633570
 20
432.510800
 30
0.0
  0
SPLINE
  5
27b
100
AcDbEntity
  8
Image
 62
7
100
AcDbSpline
 70
8
 71
3
 72
8
 73
4
 74
0
 40
0
 40
0
 40
0
 40
0
 40
1
 40
1
 40
1
 40
1
 10
801.633570
 20
432.510800
 30
0.0
 10
796.256030
 20
434.331400
 30
0.0
 10
793.108240
 20
433.925300
 30
0.0
 10
788.795910
 20
430.854700
 30
0.0
  0
SPLINE
  5
27c
100
AcDbEntity
  8
Image
 62
7
100
AcDbSpline
 70
8
 71
3
 72
8
 73
4
 74
0
 40
0
 40
0
 40
0
 40
0
 40
1
 40
1
 40
1
 40
1
 10
788.795910
 20
430.854700
 30
0.0
 10
784.313800
 20
427.663100
 30
0.0
 10
782.696020
 20
423.588600
 30
0.0
 10
783.465540
 20
417.429500
 30
0.0
  0
SPLINE
  5
27d
100
AcDbEntity
  8
Image
 62
7
100
AcDbSpline
 70
8
 71
3
 72
8
 73
4
 74
0
 40
0
 40
0
 40
0
 40
0
 40
1
 40
1
 40
1
 40
1
 10
783.465540
 20
417.429500
 30
0.0
 10
784.039210
 20
412.838000
 30
0.0
 10
784.710700
 20
411.599600
 30
0.0
 10
788.541000
 20
408.069000
 30
0.0
  0
SPLINE
  5
27e
100
AcDbEntity
  8
Image
 62
7
100
AcDbSpline
 70
8
 71
3
 72
8
 73
4
 74
0
 40
0
 40
0
 40
0
 40
0
 40
1
 40
1
 40
1
 40
1
 10
788.541000
 20
408.069000
 30
0.0
 10
792.420130
 20
404.493300
 30
0.0
 10
793.533900
 20
404.000500
 30
0.0
 10
797.727660
 20
404.003700
 30
0.0
  0
SPLINE
  5
27f
100
AcDbEntity
  8
Image
 62
7
100
AcDbSpline
 70
8
 71
3
 72
8
 73
4
 74
0
 40
0
 40
0
 40
0
 40
0
 40
1
 40
1
 40
1
 40
1
 10
797.727660
 20
404.003700
 30
0.0
 10
800.692300
 20
404.003700
 30
0.0
 10
803.710480
 20
404.745600
 30
0.0
 10
805.695670
 20
405.956000
 30
0.0
  0
LWPOLYLINE
  5
280
100
AcDbEntity
  8
Image
 62
7
100
AcDbPolyline
 90
1
 70
1
 10
525.629950
 20
312.106300
 30
0.0
  0
SPLINE
  5
281
100
AcDbEntity
  8
Image
 62
7
100
AcDbSpline
 70
8
 71
3
 72
8
 73
4
 74
0
 40
0
 40
0
 40
0
 40
0
 40
1
 40
1
 40
1
 40
1
 10
420.500000
 20
498.000000
 30
0.0
 10
420.839920
 20
498.550000
 30
0.0
 10
422.088520
 20
499.000000
 30
0.0
 10
423.274670
 20
499.000000
 30
0.0
  0
SPLINE
  5
282
100
AcDbEntity
  8
Image
 62
7
100
AcDbSpline
 70
8
 71
3
 72
8
 73
4
 74
0
 40
0
 40
0
 40
0
 40
0
 40
1
 40
1
 40
1
 40
1
 10
423.274670
 20
499.000000
 30
0.0
 10
426.179850
 20
499.000000
 30
0.0
 10
435.000000
 20
507.766000
 30
0.0
 10
435.000000
 20
510.653400
 30
0.0
  0
SPLINE
  5
283
100
AcDbEntity
  8
Image
 62
7
100
AcDbSpline
 70
8
 71
3
 72
8
 73
4
 74
0
 40
0
 40
0
 40
0
 40
0
 40
1
 40
1
 40
1
 40
1
 10
435.000000
 20
510.653400
 30
0.0
 10
435.000000
 20
511.879100
 30
0.0
 10
435.450000
 20
513.160100
 30
0.0
 10
436.000000
 20
513.500000
 30
0.0
  0
SPLINE
  5
284
100
AcDbEntity
  8
Image
 62
7
100
AcDbSpline
 70
8
 71
3
 72
8
 73
4
 74
0
 40
0
 40
0
 40
0
 40
0
 40
1
 40
1
 40
1
 40
1
 10
436.000000
 20
513.500000
 30
0.0
 10
437.711150
 20
514.557600
 30
0.0
 10
436.999170
 20
523.272400
 30
0.0
 10
434.937920
 20
526.500000
 30
0.0
  0
SPLINE
  5
285
100
AcDbEntity
  8
Image
 62
7
100
AcDbSpline
 70
8
 71
3
 72
8
 73
4
 74
0
 40
0
 40
0
 40
0
 40
0
 40
1
 40
1
 40
1
 40
1
 10
434.937920
 20
526.500000
 30
0.0
 10
433.884180
 20
528.150000
 30
0.0
 10
432.729170
 20
530.175000
 30
0.0
 10
432.371240
 20
531.000000
 30
0.0
  0
SPLINE
  5
286
100
AcDbEntity
  8
Image
 62
7
100
AcDbSpline
 70
8
 71
3
 72
8
 73
4
 74
0
 40
0
 40
0
 40
0
 40
0
 40
1
 40
1
 40
1
 40
1
 10
432.371240
 20
531.000000
 30
0.0
 10
432.013300
 20
531.825000
 30
0.0
 10
429.436220
 20
534.862500
 30
0.0
 10
426.644380
 20
537.750000
 30
0.0
  0
LWPOLYLINE
  5
287
100
AcDbEntity
  8
Image
 62
7
100
AcDbPolyline
 90
1
 70
1
 10
805.695670
 20
405.956000
 30
0.0
  0
SPLINE
  5
288
100
AcDbEntity
  8
Image
 62
7
100
AcDbSpline
 70
8
 71
3
 72
8
 73
4
 74
0
 40
0
 40
0
 40
0
 40
0
 40
1
 40
1
 40
1
 40
1
 10
414.906600
 20
543.000000
 30
0.0
 10
410.205030
 20
543.000000
 30
0.0
 10
407.878590
 20
542.558640
 30
0.0
 10
407.000000
 20
541.500000
 30
0.0
  0
SPLINE
  5
289
100
AcDbEntity
  8
Image
 62
7
100
AcDbSpline
 70
8
 71
3
 72
8
 73
4
 74
0
 40
0
 40
0
 40
0
 40
0
 40
1
 40
1
 40
1
 40
1
 10
407.000000
 20
541.500000
 30
0.0
 10
406.315310
 20
540.675000
 30
0.0
 10
405.228900
 20
540.000000
 30
0.0
 10
404.585760
 20
540.000000
 30
0.0
  0
SPLINE
  5
28a
100
AcDbEntity
  8
Image
 62
7
100
AcDbSpline
 70
8
 71
3
 72
8
 73
4
 74
0
 40
0
 40
0
 40
0
 40
0
 40
1
 40
1
 40
1
 40
1
 10
404.585760
 20
540.000000
 30
0.0
 10
402.469540
 20
540.000000
 30
0.0
 10
395.256190
 20
531.577900
 30
0.0
 10
394.003170
 20
527.644000
 30
0.0
  0
SPLINE
  5
28b
100
AcDbEntity
  8
Image
 62
7
100
AcDbSpline
 70
8
 71
3
 72
8
 73
4
 74
0
 40
0
 40
0
 40
0
 40
0
 40
1
 40
1
 40
1
 40
1
 10
394.003170
 20
527.644000
 30
0.0
 10
393.327650
 20
525.523200
 30
0.0
 10
392.968040
 20
521.118600
 30
0.0
 10
393.204030
 20
517.856000
 30
0.0
  0
SPLINE
  5
28c
100
AcDbEntity
  8
Image
 62
7
100
AcDbSpline
 70
8
 71
3
 72
8
 73
4
 74
0
 40
0
 40
0
 40
0
 40
0
 40
1
 40
1
 40
1
 40
1
 10
393.204030
 20
517.856000
 30
0.0
 10
393.619600
 20
512.110900
 30
0.0
 10
393.835830
 20
511.717500
 30
0.0
 10
400.066560
 20
505.371700
 30
0.0
  0
SPLINE
  5
28d
100
AcDbEntity
  8
Image
 62
7
100
AcDbSpline
 70
8
 71
3
 72
8
 73
4
 74
0
 40
0
 40
0
 40
0
 40
0
 40
1
 40
1
 40
1
 40
1
 10
400.066560
 20
505.371700
 30
0.0
 10
403.604950
 20
501.768000
 30
0.0
 10
407.400000
 20
498.438600
 30
0.0
 10
408.500000
 20
497.973100
 30
0.0
  0
SPLINE
  5
28e
100
AcDbEntity
  8
Image
 62
7
100
AcDbSpline
 70
8
 71
3
 72
8
 73
4
 74
0
 40
0
 40
0
 40
0
 40
0
 40
1
 40
1
 40
1
 40
1
 10
408.500000
 20
497.973100
 30
0.0
 10
411.316960
 20
496.781100
 30
0.0
 10
419.758340
 20
496.800000
 30
0.0
 10
420.500000
 20
498.000100
 30
0.0
  0
LWPOLYLINE
  5
28f
100
AcDbEntity
  8
Image
 62
7
100
AcDbPolyline
 90
3
 70
0
 10
426.644380
 20
537.750000
 30
0.0
 10
421.568320
 20
543.000000
 30
0.0
 10
414.906600
 20
543.000000
 30
0.0
  0
SPLINE
  5
290
100
AcDbEntity
  8
Image
 62
7
100
AcDbSpline
 70
8
 71
3
 72
8
 73
4
 74
0
 40
0
 40
0
 40
0
 40
0
 40
1
 40
1
 40
1
 40
1
 10
717.520100
 20
615.881980
 30
0.0
 10
721.359040
 20
616.917070
 30
0.0
 10
726.458330
 20
618.054720
 30
0.0
 10
728.851850
 20
618.410080
 30
0.0
  0
SPLINE
  5
291
100
AcDbEntity
  8
Image
 62
7
100
AcDbSpline
 70
8
 71
3
 72
8
 73
4
 74
0
 40
0
 40
0
 40
0
 40
0
 40
1
 40
1
 40
1
 40
1
 10
728.851850
 20
618.410080
 30
0.0
 10
734.376570
 20
619.230350
 30
0.0
 10
741.751750
 20
625.928380
 30
0.0
 10
745.447320
 20
633.481840
 30
0.0
  0
LWPOLYLINE
  5
292
100
AcDbEntity
  8
Image
 62
7
100
AcDbPolyline
 90
1
 70
1
 10
420.500000
 20
498.000100
 30
0.0
  0
SPLINE
  5
293
100
AcDbEntity
  8
Image
 62
7
100
AcDbSpline
 70
8
 71
3
 72
8
 73
4
 74
0
 40
0
 40
0
 40
0
 40
0
 40
1
 40
1
 40
1
 40
1
 10
744.000000
 20
900.406340
 30
0.0
 10
742.075000
 20
903.611720
 30
0.0
 10
738.959450
 20
907.419090
 30
0.0
 10
737.076550
 20
908.867150
 30
0.0
  0
LWPOLYLINE
  5
294
100
AcDbEntity
  8
Image
 62
7
100
AcDbPolyline
 90
5
 70
0
 10
745.447320
 20
633.481840
 30
0.0
 10
748.029870
 20
638.760390
 30
0.0
 10
747.764930
 20
766.669390
 30
0.0
 10
747.500000
 20
894.578380
 30
0.0
 10
744.000000
 20
900.406340
 30
0.0
  0
SPLINE
  5
295
100
AcDbEntity
  8
Image
 62
7
100
AcDbSpline
 70
8
 71
3
 72
8
 73
4
 74
0
 40
0
 40
0
 40
0
 40
0
 40
1
 40
1
 40
1
 40
1
 10
712.289590
 20
911.500000
 30
0.0
 10
698.506000
 20
911.500000
 30
0.0
 10
690.673080
 20
911.127920
 30
0.0
 10
690.213040
 20
910.451320
 30
0.0
  0
SPLINE
  5
296
100
AcDbEntity
  8
Image
 62
7
100
AcDbSpline
 70
8
 71
3
 72
8
 73
4
 74
0
 40
0
 40
0
 40
0
 40
0
 40
1
 40
1
 40
1
 40
1
 10
690.213040
 20
910.451320
 30
0.0
 10
689.820870
 20
909.874540
 30
0.0
 10
687.475000
 20
908.812650
 30
0.0
 10
685.000000
 20
908.091560
 30
0.0
  0
SPLINE
  5
297
100
AcDbEntity
  8
Image
 62
7
100
AcDbSpline
 70
8
 71
3
 72
8
 73
4
 74
0
 40
0
 40
0
 40
0
 40
0
 40
1
 40
1
 40
1
 40
1
 10
685.000000
 20
908.091560
 30
0.0
 10
677.734570
 20
905.974790
 30
0.0
 10
675.392180
 20
904.344910
 30
0.0
 10
672.484220
 20
899.382870
 30
0.0
  0
SPLINE
  5
298
100
AcDbEntity
  8
Image
 62
7
100
AcDbSpline
 70
8
 71
3
 72
8
 73
4
 74
0
 40
0
 40
0
 40
0
 40
0
 40
1
 40
1
 40
1
 40
1
 10
672.484220
 20
899.382870
 30
0.0
 10
669.953690
 20
895.064830
 30
0.0
 10
669.796130
 20
894.182230
 30
0.0
 10
670.469980
 20
888.099210
 30
0.0
  0
SPLINE
  5
299
100
AcDbEntity
  8
Image
 62
7
100
AcDbSpline
 70
8
 71
3
 72
8
 73
4
 74
0
 40
0
 40
0
 40
0
 40
0
 40
1
 40
1
 40
1
 40
1
 10
670.469980
 20
888.099210
 30
0.0
 10
670.872040
 20
884.469640
 30
0.0
 10
671.100500
 20
880.825000
 30
0.0
 10
670.977670
 20
880.000000
 30
0.0
  0
SPLINE
  5
29a
100
AcDbEntity
  8
Image
 62
7
100
AcDbSpline
 70
8
 71
3
 72
8
 73
4
 74
0
 40
0
 40
0
 40
0
 40
0
 40
1
 40
1
 40
1
 40
1
 10
670.977670
 20
880.000000
 30
0.0
 10
670.854840
 20
879.175000
 30
0.0
 10
670.575840
 20
824.256650
 30
0.0
 10
670.357680
 20
757.959220
 30
0.0
  0
SPLINE
  5
29b
100
AcDbEntity
  8
Image
 62
7
100
AcDbSpline
 70
8
 71
3
 72
8
 73
4
 74
0
 40
0
 40
0
 40
0
 40
0
 40
1
 40
1
 40
1
 40
1
 10
670.357680
 20
757.959220
 30
0.0
 10
669.985230
 20
644.775820
 30
0.0
 10
670.069020
 20
637.078500
 30
0.0
 10
671.730510
 20
631.849070
 30
0.0
  0
SPLINE
  5
29c
100
AcDbEntity
  8
Image
 62
7
100
AcDbSpline
 70
8
 71
3
 72
8
 73
4
 74
0
 40
0
 40
0
 40
0
 40
0
 40
1
 40
1
 40
1
 40
1
 10
671.730510
 20
631.849070
 30
0.0
 10
674.244690
 20
623.935840
 30
0.0
 10
679.735970
 20
617.928810
 30
0.0
 10
686.740520
 20
615.429310
 30
0.0
  0
SPLINE
  5
29d
100
AcDbEntity
  8
Image
 62
7
100
AcDbSpline
 70
8
 71
3
 72
8
 73
4
 74
0
 40
0
 40
0
 40
0
 40
0
 40
1
 40
1
 40
1
 40
1
 10
686.740520
 20
615.429310
 30
0.0
 10
692.470310
 20
613.384700
 30
0.0
 10
709.169000
 20
613.630290
 30
0.0
 10
717.520100
 20
615.881980
 30
0.0
  0
LWPOLYLINE
  5
29e
100
AcDbEntity
  8
Image
 62
7
100
AcDbPolyline
 90
3
 70
0
 10
737.076550
 20
908.867150
 30
0.0
 10
733.653100
 20
911.500000
 30
0.0
 10
712.289590
 20
911.500000
 30
0.0
  0
SPLINE
  5
29f
100
AcDbEntity
  8
Image
 62
7
100
AcDbSpline
 70
8
 71
3
 72
8
 73
4
 74
0
 40
0
 40
0
 40
0
 40
0
 40
1
 40
1
 40
1
 40
1
 10
961.883980
 20
614.959500
 30
0.0
 10
963.872790
 20
615.487220
 30
0.0
 10
967.212600
 20
616.187320
 30
0.0
 10
969.305780
 20
616.515270
 30
0.0
  0
SPLINE
  5
2a0
100
AcDbEntity
  8
Image
 62
7
100
AcDbSpline
 70
8
 71
3
 72
8
 73
4
 74
0
 40
0
 40
0
 40
0
 40
0
 40
1
 40
1
 40
1
 40
1
 10
969.305780
 20
616.515270
 30
0.0
 10
972.217240
 20
616.971430
 30
0.0
 10
974.516950
 20
618.516950
 30
0.0
 10
979.092250
 20
623.092250
 30
0.0
  0
SPLINE
  5
2a1
100
AcDbEntity
  8
Image
 62
7
100
AcDbSpline
 70
8
 71
3
 72
8
 73
4
 74
0
 40
0
 40
0
 40
0
 40
0
 40
1
 40
1
 40
1
 40
1
 10
979.092250
 20
623.092250
 30
0.0
 10
982.381640
 20
626.381640
 30
0.0
 10
984.836490
 20
629.455550
 30
0.0
 10
984.547480
 20
629.923170
 30
0.0
  0
SPLINE
  5
2a2
100
AcDbEntity
  8
Image
 62
7
100
AcDbSpline
 70
8
 71
3
 72
8
 73
4
 74
0
 40
0
 40
0
 40
0
 40
0
 40
1
 40
1
 40
1
 40
1
 10
984.547480
 20
629.923170
 30
0.0
 10
984.258480
 20
630.390790
 30
0.0
 10
984.680160
 20
631.319590
 30
0.0
 10
985.484550
 20
631.987180
 30
0.0
  0
SPLINE
  5
2a3
100
AcDbEntity
  8
Image
 62
7
100
AcDbSpline
 70
8
 71
3
 72
8
 73
4
 74
0
 40
0
 40
0
 40
0
 40
0
 40
1
 40
1
 40
1
 40
1
 10
985.484550
 20
631.987180
 30
0.0
 10
986.288940
 20
632.654760
 30
0.0
 10
987.215720
 20
634.632960
 30
0.0
 10
987.544060
 20
636.383170
 30
0.0
  0
SPLINE
  5
2a4
100
AcDbEntity
  8
Image
 62
7
100
AcDbSpline
 70
8
 71
3
 72
8
 73
4
 74
0
 40
0
 40
0
 40
0
 40
0
 40
1
 40
1
 40
1
 40
1
 10
987.544060
 20
636.383170
 30
0.0
 10
988.094380
 20
639.316610
 30
0.0
 10
988.657240
 20
639.713200
 30
0.0
 10
994.744300
 20
641.456460
 30
0.0
  0
SPLINE
  5
2a5
100
AcDbEntity
  8
Image
 62
7
100
AcDbSpline
 70
8
 71
3
 72
8
 73
4
 74
0
 40
0
 40
0
 40
0
 40
0
 40
1
 40
1
 40
1
 40
1
 10
994.744300
 20
641.456460
 30
0.0
 10
1000.305000
 20
643.048970
 30
0.0
 10
1002.258600
 20
644.258600
 30
0.0
 10
1007.118000
 20
649.118000
 30
0.0
  0
SPLINE
  5
2a6
100
AcDbEntity
  8
Image
 62
7
100
AcDbSpline
 70
8
 71
3
 72
8
 73
4
 74
0
 40
0
 40
0
 40
0
 40
0
 40
1
 40
1
 40
1
 40
1
 10
1007.118000
 20
649.118000
 30
0.0
 10
1011.007700
 20
653.007700
 30
0.0
 10
1013.083700
 20
655.965890
 30
0.0
 10
1013.487500
 20
658.194220
 30
0.0
  0
SPLINE
  5
2a7
100
AcDbEntity
  8
Image
 62
7
100
AcDbSpline
 70
8
 71
3
 72
8
 73
4
 74
0
 40
0
 40
0
 40
0
 40
0
 40
1
 40
1
 40
1
 40
1
 10
1013.487500
 20
658.194220
 30
0.0
 10
1014.088600
 20
661.511660
 30
0.0
 10
1013.655000
 20
728.043670
 30
0.0
 10
1012.252400
 20
847.685020
 30
0.0
  0
LWPOLYLINE
  5
2a8
100
AcDbEntity
  8
Image
 62
7
100
AcDbPolyline
 90
1
 70
1
 10
717.520100
 20
615.881980
 30
0.0
  0
SPLINE
  5
2a9
100
AcDbEntity
  8
Image
 62
7
100
AcDbSpline
 70
8
 71
3
 72
8
 73
4
 74
0
 40
0
 40
0
 40
0
 40
0
 40
1
 40
1
 40
1
 40
1
 10
1008.903400
 20
914.685020
 30
0.0
 10
1007.475200
 20
916.233260
 30
0.0
 10
1005.639100
 20
918.503600
 30
0.0
 10
1004.823100
 20
919.730230
 30
0.0
  0
SPLINE
  5
2aa
100
AcDbEntity
  8
Image
 62
7
100
AcDbSpline
 70
8
 71
3
 72
8
 73
4
 74
0
 40
0
 40
0
 40
0
 40
0
 40
1
 40
1
 40
1
 40
1
 10
1004.823100
 20
919.730230
 30
0.0
 10
1001.716200
 20
924.400450
 30
0.0
 10
993.935160
 20
929.299820
 30
0.0
 10
988.848700
 20
929.788560
 30
0.0
  0
SPLINE
  5
2ab
100
AcDbEntity
  8
Image
 62
7
100
AcDbSpline
 70
8
 71
3
 72
8
 73
4
 74
0
 40
0
 40
0
 40
0
 40
0
 40
1
 40
1
 40
1
 40
1
 10
988.848700
 20
929.788560
 30
0.0
 10
984.509910
 20
930.205460
 30
0.0
 10
984.000000
 20
930.509760
 30
0.0
 10
984.000000
 20
932.682090
 30
0.0
  0
SPLINE
  5
2ac
100
AcDbEntity
  8
Image
 62
7
100
AcDbSpline
 70
8
 71
3
 72
8
 73
4
 74
0
 40
0
 40
0
 40
0
 40
0
 40
1
 40
1
 40
1
 40
1
 10
984.000000
 20
932.682090
 30
0.0
 10
984.000000
 20
936.249760
 30
0.0
 10
980.574520
 20
943.124630
 30
0.0
 10
977.330390
 20
946.067860
 30
0.0
  0
SPLINE
  5
2ad
100
AcDbEntity
  8
Image
 62
7
100
AcDbSpline
 70
8
 71
3
 72
8
 73
4
 74
0
 40
0
 40
0
 40
0
 40
0
 40
1
 40
1
 40
1
 40
1
 10
977.330390
 20
946.067860
 30
0.0
 10
969.771200
 20
952.925900
 30
0.0
 10
967.060010
 20
953.398080
 30
0.0
 10
935.000000
 20
953.440170
 30
0.0
  0
SPLINE
  5
2ae
100
AcDbEntity
  8
Image
 62
7
100
AcDbSpline
 70
8
 71
3
 72
8
 73
4
 74
0
 40
0
 40
0
 40
0
 40
0
 40
1
 40
1
 40
1
 40
1
 10
935.000000
 20
953.440170
 30
0.0
 10
897.388520
 20
953.489570
 30
0.0
 10
889.259690
 20
952.165820
 30
0.0
 10
882.292530
 20
944.857210
 30
0.0
  0
SPLINE
  5
2af
100
AcDbEntity
  8
Image
 62
7
100
AcDbSpline
 70
8
 71
3
 72
8
 73
4
 74
0
 40
0
 40
0
 40
0
 40
0
 40
1
 40
1
 40
1
 40
1
 10
882.292530
 20
944.857210
 30
0.0
 10
879.025120
 20
941.429670
 30
0.0
 10
876.000000
 20
934.538830
 30
0.0
 10
876.000000
 20
930.523640
 30
0.0
  0
SPLINE
  5
2b0
100
AcDbEntity
  8
Image
 62
7
100
AcDbSpline
 70
8
 71
3
 72
8
 73
4
 74
0
 40
0
 40
0
 40
0
 40
0
 40
1
 40
1
 40
1
 40
1
 10
876.000000
 20
930.523640
 30
0.0
 10
876.000000
 20
928.576170
 30
0.0
 10
875.053480
 20
928.075830
 30
0.0
 10
868.409440
 20
926.511190
 30
0.0
  0
SPLINE
  5
2b1
100
AcDbEntity
  8
Image
 62
7
100
AcDbSpline
 70
8
 71
3
 72
8
 73
4
 74
0
 40
0
 40
0
 40
0
 40
0
 40
1
 40
1
 40
1
 40
1
 10
868.409440
 20
926.511190
 30
0.0
 10
861.771610
 20
924.948000
 30
0.0
 10
860.228570
 20
924.133340
 30
0.0
 10
856.115840
 20
920.020600
 30
0.0
  0
SPLINE
  5
2b2
100
AcDbEntity
  8
Image
 62
7
100
AcDbSpline
 70
8
 71
3
 72
8
 73
4
 74
0
 40
0
 40
0
 40
0
 40
0
 40
1
 40
1
 40
1
 40
1
 10
856.115840
 20
920.020600
 30
0.0
 10
848.836290
 20
912.741060
 30
0.0
 10
847.726090
 20
907.807110
 30
0.0
 10
848.460770
 20
886.000000
 30
0.0
  0
SPLINE
  5
2b3
100
AcDbEntity
  8
Image
 62
7
100
AcDbSpline
 70
8
 71
3
 72
8
 73
4
 74
0
 40
0
 40
0
 40
0
 40
0
 40
1
 40
1
 40
1
 40
1
 10
848.460770
 20
886.000000
 30
0.0
 10
848.785040
 20
876.375000
 30
0.0
 10
849.481030
 20
830.250000
 30
0.0
 10
850.007430
 20
783.500000
 30
0.0
  0
SPLINE
  5
2b4
100
AcDbEntity
  8
Image
 62
7
100
AcDbSpline
 70
8
 71
3
 72
8
 73
4
 74
0
 40
0
 40
0
 40
0
 40
0
 40
1
 40
1
 40
1
 40
1
 10
850.007430
 20
783.500000
 30
0.0
 10
850.533830
 20
736.750000
 30
0.0
 10
851.215600
 20
689.099000
 30
0.0
 10
851.522470
 20
677.608890
 30
0.0
  0
LWPOLYLINE
  5
2b5
100
AcDbEntity
  8
Image
 62
7
100
AcDbPolyline
 90
3
 70
0
 10
1012.252400
 20
847.685020
 30
0.0
 10
1011.500000
 20
911.870030
 30
0.0
 10
1008.903400
 20
914.685020
 30
0.0
  0
SPLINE
  5
2b6
100
AcDbEntity
  8
Image
 62
7
100
AcDbSpline
 70
8
 71
3
 72
8
 73
4
 74
0
 40
0
 40
0
 40
0
 40
0
 40
1
 40
1
 40
1
 40
1
 10
855.511390
 20
651.548810
 30
0.0
 10
860.832650
 20
643.531990
 30
0.0
 10
866.393990
 20
639.038290
 30
0.0
 10
871.871340
 20
638.329560
 30
0.0
  0
SPLINE
  5
2b7
100
AcDbEntity
  8
Image
 62
7
100
AcDbSpline
 70
8
 71
3
 72
8
 73
4
 74
0
 40
0
 40
0
 40
0
 40
0
 40
1
 40
1
 40
1
 40
1
 10
871.871340
 20
638.329560
 30
0.0
 10
877.331070
 20
637.623120
 30
0.0
 10
880.000000
 20
635.624210
 30
0.0
 10
880.000000
 20
632.241560
 30
0.0
  0
SPLINE
  5
2b8
100
AcDbEntity
  8
Image
 62
7
100
AcDbSpline
 70
8
 71
3
 72
8
 73
4
 74
0
 40
0
 40
0
 40
0
 40
0
 40
1
 40
1
 40
1
 40
1
 10
880.000000
 20
632.241560
 30
0.0
 10
880.000000
 20
629.508880
 30
0.0
 10
892.018440
 20
616.722110
 30
0.0
 10
896.136960
 20
615.072980
 30
0.0
  0
SPLINE
  5
2b9
100
AcDbEntity
  8
Image
 62
7
100
AcDbSpline
 70
8
 71
3
 72
8
 73
4
 74
0
 40
0
 40
0
 40
0
 40
0
 40
1
 40
1
 40
1
 40
1
 10
896.136960
 20
615.072980
 30
0.0
 10
899.255050
 20
613.824430
 30
0.0
 10
957.229190
 20
613.724370
 30
0.0
 10
961.883980
 20
614.959500
 30
0.0
  0
LWPOLYLINE
  5
2ba
100
AcDbEntity
  8
Image
 62
7
100
AcDbPolyline
 90
3
 70
0
 10
851.522470
 20
677.608890
 30
0.0
 10
852.080420
 20
656.717780
 30
0.0
 10
855.511390
 20
651.548810
 30
0.0
  0
SPLINE
  5
2bb
100
AcDbEntity
  8
Image
 62
7
100
AcDbSpline
 70
8
 71
3
 72
8
 73
4
 74
0
 40
0
 40
0
 40
0
 40
0
 40
1
 40
1
 40
1
 40
1
 10
1454.000000
 20
680.000000
 30
0.0
 10
1454.000000
 20
680.550000
 30
0.0
 10
1454.648400
 20
681.000000
 30
0.0
 10
1455.441000
 20
681.000000
 30
0.0
  0
SPLINE
  5
2bc
100
AcDbEntity
  8
Image
 62
7
100
AcDbSpline
 70
8
 71
3
 72
8
 73
4
 74
0
 40
0
 40
0
 40
0
 40
0
 40
1
 40
1
 40
1
 40
1
 10
1455.441000
 20
681.000000
 30
0.0
 10
1456.233500
 20
681.000000
 30
0.0
 10
1457.160100
 20
680.550000
 30
0.0
 10
1457.500000
 20
680.000000
 30
0.0
  0
SPLINE
  5
2bd
100
AcDbEntity
  8
Image
 62
7
100
AcDbSpline
 70
8
 71
3
 72
8
 73
4
 74
0
 40
0
 40
0
 40
0
 40
0
 40
1
 40
1
 40
1
 40
1
 10
1457.500000
 20
680.000000
 30
0.0
 10
1457.839900
 20
679.450000
 30
0.0
 10
1457.191500
 20
679.000000
 30
0.0
 10
1456.059000
 20
679.000000
 30
0.0
  0
SPLINE
  5
2be
100
AcDbEntity
  8
Image
 62
7
100
AcDbSpline
 70
8
 71
3
 72
8
 73
4
 74
0
 40
0
 40
0
 40
0
 40
0
 40
1
 40
1
 40
1
 40
1
 10
1456.059000
 20
679.000000
 30
0.0
 10
1454.926600
 20
679.000000
 30
0.0
 10
1454.000000
 20
679.450000
 30
0.0
 10
1454.000000
 20
680.000000
 30
0.0
  0
LWPOLYLINE
  5
2bf
100
AcDbEntity
  8
Image
 62
7
100
AcDbPolyline
 90
1
 70
1
 10
961.883980
 20
614.959500
 30
0.0
  0
SPLINE
  5
2c0
100
AcDbEntity
  8
Image
 62
7
100
AcDbSpline
 70
8
 71
3
 72
8
 73
4
 74
0
 40
0
 40
0
 40
0
 40
0
 40
1
 40
1
 40
1
 40
1
 10
1260.000000
 20
1164.776430
 30
0.0
 10
1260.000000
 20
1166.257440
 30
0.0
 10
1263.736400
 20
1166.653250
 30
0.0
 10
1271.000000
 20
1165.941710
 30
0.0
  0
LWPOLYLINE
  5
2c1
100
AcDbEntity
  8
Image
 62
7
100
AcDbPolyline
 90
1
 70
1
 10
1454.000000
 20
680.000000
 30
0.0
  0
SPLINE
  5
2c2
100
AcDbEntity
  8
Image
 62
7
100
AcDbSpline
 70
8
 71
3
 72
8
 73
4
 74
0
 40
0
 40
0
 40
0
 40
0
 40
1
 40
1
 40
1
 40
1
 10
1270.331800
 20
1165.152490
 30
0.0
 10
1266.389300
 20
1165.068590
 30
0.0
 10
1262.451800
 20
1164.726860
 30
0.0
 10
1261.581800
 20
1164.393010
 30
0.0
  0
SPLINE
  5
2c3
100
AcDbEntity
  8
Image
 62
7
100
AcDbSpline
 70
8
 71
3
 72
8
 73
4
 74
0
 40
0
 40
0
 40
0
 40
0
 40
1
 40
1
 40
1
 40
1
 10
1261.581800
 20
1164.393010
 30
0.0
 10
1260.711800
 20
1164.059170
 30
0.0
 10
1260.000000
 20
1164.231710
 30
0.0
 10
1260.000000
 20
1164.776430
 30
0.0
  0
LWPOLYLINE
  5
2c4
100
AcDbEntity
  8
Image
 62
7
100
AcDbPolyline
 90
3
 70
0
 10
1271.000000
 20
1165.941710
 30
0.0
 10
1277.500000
 20
1165.304970
 30
0.0
 10
1270.331800
 20
1165.152490
 30
0.0
  0
SPLINE
  5
2c5
100
AcDbEntity
  8
Image
 62
7
100
AcDbSpline
 70
8
 71
3
 72
8
 73
4
 74
0
 40
0
 40
0
 40
0
 40
0
 40
1
 40
1
 40
1
 40
1
 10
1293.000000
 20
1169.000000
 30
0.0
 10
1294.955700
 20
1170.263860
 30
0.0
 10
1297.718900
 20
1170.263860
 30
0.0
 10
1298.500000
 20
1169.000000
 30
0.0
  0
SPLINE
  5
2c6
100
AcDbEntity
  8
Image
 62
7
100
AcDbSpline
 70
8
 71
3
 72
8
 73
4
 74
0
 40
0
 40
0
 40
0
 40
0
 40
1
 40
1
 40
1
 40
1
 10
1298.500000
 20
1169.000000
 30
0.0
 10
1298.871200
 20
1168.399330
 30
0.0
 10
1297.597000
 20
1168.006110
 30
0.0
 10
1295.309000
 20
1168.015310
 30
0.0
  0
SPLINE
  5
2c7
100
AcDbEntity
  8
Image
 62
7
100
AcDbSpline
 70
8
 71
3
 72
8
 73
4
 74
0
 40
0
 40
0
 40
0
 40
0
 40
1
 40
1
 40
1
 40
1
 10
1295.309000
 20
1168.015310
 30
0.0
 10
1292.481500
 20
1168.026710
 30
0.0
 10
1291.886500
 20
1168.280410
 30
0.0
 10
1293.000000
 20
1169.000000
 30
0.0
  0
LWPOLYLINE
  5
2c8
100
AcDbEntity
  8
Image
 62
7
100
AcDbPolyline
 90
1
 70
1
 10
1260.000000
 20
1164.776430
 30
0.0
  0
LWPOLYLINE
  5
2c9
100
AcDbEntity
  8
Image
 62
7
100
AcDbPolyline
 90
1
 70
1
 10
1293.000000
 20
1169.000000
 30
0.0
  0
ENDSEC
  0
SECTION
  2
OBJECTS
  0
DICTIONARY
  5
C
330
0
100
AcDbDictionary
  3
ACAD_GROUP
350
D
  3
ACAD_MLINESTYLE
350
17
  0
DICTIONARY
  5
D
330
C
100
AcDbDictionary
  0
DICTIONARY
  5
1A
330
C
100
AcDbDictionary
  0
DICTIONARY
  5
17
330
C
100
AcDbDictionary
  3
STANDARD
350
18
  0
DICTIONARY
  5
19
330
C
100
AcDbDictionary
  0
ENDSEC
  0
EOF
