<?xml version="1.0" standalone="no"?>
<!DOCTYPE svg PUBLIC "-//W3C//DTD SVG 20010904//EN"
 "http://www.w3.org/TR/2001/REC-SVG-20010904/DTD/svg10.dtd">
<svg version="1.0" xmlns="http://www.w3.org/2000/svg"
 width="224.983588pt" height="109.497042pt" viewBox="0 0 224.983588 109.497042"
 preserveAspectRatio="xMidYMid meet">
<metadata>
Created by potrace 1.16, written by Peter Selinger 2001-2019
</metadata>
<g transform="translate(0.034771,167.240228) scale(0.100000,-0.100000)"
fill="#000000" stroke="none">
<path d="M490 1669 c-235 -21 -434 -202 -481 -438 -38 -196 40 -411 193 -532
108 -85 210 -120 351 -120 133 -1 227 28 337 102 54 36 176 157 216 213 l21
29 23 -34 c75 -107 213 -223 316 -267 152 -64 342 -59 484 13 302 153 394 544
192 818 -105 142 -260 218 -445 218 -133 1 -227 -28 -337 -102 -54 -36 -176
-157 -216 -213 l-20 -28 -19 28 c-10 16 -50 62 -89 103 -161 166 -316 229
-526 210z m206 -220 c103 -39 190 -117 279 -251 45 -68 43 -82 -17 -172 -91
-134 -215 -224 -342 -247 -158 -29 -316 52 -388 199 -29 59 -33 76 -33 147 1
93 28 165 89 232 41 46 136 100 198 113 58 12 149 3 214 -21z m1079 17 c119
-31 197 -93 247 -193 28 -57 32 -75 32 -147 0 -67 -4 -90 -26 -136 -52 -112
-152 -189 -274 -211 -165 -31 -348 71 -472 263 -54 84 -52 98 30 208 133 179
304 259 463 216z"/>
<path d="M400 1135 l0 -55 171 0 170 0 -3 53 -3 52 -167 3 -168 2 0 -55z"/>
<path d="M1630 1245 l0 -54 -57 -3 -58 -3 -3 -52 -3 -52 58 -3 58 -3 3 -52 3
-53 55 0 54 0 0 55 0 55 55 0 55 0 0 55 0 55 -55 0 -55 0 0 55 0 55 -55 0 -55
0 0 -55z"/>
</g>
</svg>
