<?xml version="1.0" standalone="no"?>
<!DOCTYPE svg PUBLIC "-//W3C//DTD SVG 20010904//EN"
 "http://www.w3.org/TR/2001/REC-SVG-20010904/DTD/svg10.dtd">
<svg version="1.0" xmlns="http://www.w3.org/2000/svg"
 width="139.855519pt" height="306.922739pt" viewBox="0 0 139.855519 306.922739"
 preserveAspectRatio="xMidYMid meet">
<metadata>
Created by potrace 1.16, written by Peter Selinger 2001-2019
</metadata>
<g transform="translate(-56.011239,326.944826) scale(0.100000,-0.100000)"
fill="#000000" stroke="none">
<path d="M1326 3254 c-4 -10 -13 -13 -26 -9 -32 10 -59 -3 -53 -26 4 -12 -3
-30 -18 -47 -20 -22 -20 -24 -2 -9 31 27 39 3 9 -28 -24 -24 -25 -29 -21 -128
3 -56 5 -120 5 -143 0 -95 18 -186 41 -210 12 -13 19 -27 16 -31 -10 -10 -47
28 -47 48 0 10 -7 24 -15 33 -13 12 -21 13 -40 4 -14 -6 -25 -16 -25 -21 0 -5
12 -2 28 7 21 14 20 11 -8 -14 -22 -19 -40 -28 -50 -24 -8 4 -40 10 -70 14
-30 5 -62 11 -70 14 -11 5 -16 1 -16 -14 0 -11 6 -20 13 -20 7 0 10 -7 7 -15
-3 -8 12 -50 35 -94 41 -79 42 -91 10 -91 -27 0 -33 -18 -14 -46 9 -14 15 -27
13 -29 -2 -2 -24 30 -48 71 -40 68 -51 79 -124 123 -45 27 -82 55 -82 62 -1 8
-2 29 -3 47 -1 38 -16 42 -25 7 -4 -14 -10 -23 -15 -21 -5 3 -18 -17 -30 -46
-30 -71 -27 -114 4 -71 11 15 13 12 19 -23 9 -60 1 -125 -21 -169 -19 -36 -19
-45 -8 -89 7 -27 11 -59 9 -70 -2 -12 -9 -55 -14 -96 -10 -70 -20 -103 -20
-67 0 10 -4 17 -10 17 -5 0 -10 -6 -10 -12 0 -19 15 -39 26 -36 5 1 22 -5 37
-13 28 -15 28 -16 11 -34 -18 -17 -18 -18 4 -33 21 -14 32 -40 11 -27 -6 4 0
-15 13 -41 14 -27 24 -64 24 -81 -1 -18 3 -33 8 -33 4 0 6 12 3 26 -3 16 -1
22 5 16 9 -9 -7 -206 -18 -224 -3 -5 4 -21 15 -37 21 -29 21 -29 2 -75 l-20
-45 25 -36 c32 -48 31 -88 -7 -197 -32 -95 -32 -96 -43 -171 -6 -35 -4 -47 6
-47 10 0 9 -3 -2 -10 -8 -5 -11 -12 -8 -15 11 -11 25 3 63 60 38 57 111 127
156 151 15 7 31 24 35 36 3 13 33 51 66 85 50 53 65 83 42 83 -3 0 -3 -4 1 -9
3 -6 -23 -33 -57 -61 -35 -29 -75 -66 -89 -82 -34 -40 -43 -25 -33 55 4 34 7
105 7 157 0 151 33 180 209 180 203 0 316 67 448 263 29 43 54 76 56 74 6 -5
-24 -66 -50 -102 -31 -44 -77 -115 -73 -115 1 0 35 32 75 71 40 39 75 70 77
68 2 -2 -1 -27 -7 -56 -12 -60 -52 -108 -68 -83 -8 12 -10 11 -10 -5 0 -33
-48 -58 -260 -136 -144 -53 -217 -89 -259 -128 -40 -38 -35 -49 10 -26 57 30
138 54 253 75 61 12 135 28 165 36 29 8 56 13 59 10 10 -10 -102 -53 -198 -76
-101 -24 -177 -57 -201 -86 -13 -16 -12 -17 6 -10 51 21 279 66 331 66 3 0 3
-12 0 -27 -5 -25 -4 -25 14 7 20 37 26 36 11 -2 -4 -13 -11 -36 -15 -51 -11
-46 12 -22 25 26 13 50 27 70 46 63 7 -3 13 -1 13 4 0 6 5 10 10 10 15 0 1
-24 -59 -99 -38 -47 -51 -58 -51 -43 0 35 -20 35 -32 1 -11 -31 -12 -32 -20
-10 -9 27 -30 24 -34 -5 -2 -11 -7 -31 -12 -45 -9 -24 -9 -23 -16 9 -7 30 -26
46 -26 20 0 -6 -2 -9 -5 -6 -9 8 6 38 16 32 5 -3 9 0 9 5 0 15 -15 14 -27 -1
-15 -19 -23 -59 -11 -52 11 7 6 -14 -19 -76 l-13 -35 4 31 c3 18 -1 40 -10 52
-11 16 -11 21 -1 25 9 4 9 6 0 6 -18 1 -43 -53 -48 -105 -3 -25 -11 -57 -19
-71 -13 -25 -13 -23 -8 26 2 28 1 51 -4 50 -20 -3 -28 2 -15 10 8 5 9 11 3 15
-13 8 -56 -50 -49 -67 2 -7 -2 -28 -9 -47 -14 -35 -14 -35 -8 -4 7 41 -5 91
-17 72 -7 -10 -9 -8 -9 7 -1 20 -1 20 -15 1 -18 -23 -20 -14 -4 17 8 14 8 19
1 12 -15 -14 -45 -88 -33 -80 15 9 14 4 -9 -46 l-19 -44 5 50 c6 46 4 51 -15
52 -16 1 -23 -7 -32 -38 -8 -24 -15 -35 -20 -28 -4 8 -9 4 -14 -10 -3 -11 -3
-26 1 -32 5 -8 3 -9 -6 -4 -9 6 -12 4 -8 -6 3 -8 -1 -28 -8 -44 -12 -25 -13
-26 -10 -6 3 13 -4 44 -15 68 -17 37 -18 47 -7 60 12 15 11 15 -10 2 -24 -15
-35 -43 -53 -136 -7 -38 -17 -63 -24 -63 -7 0 -16 -7 -19 -16 -9 -25 -6 -30 7
-13 10 13 12 -10 12 -116 1 -102 5 -142 19 -179 13 -33 23 -46 32 -42 12 5 12
2 3 -17 -7 -12 -20 -34 -31 -49 -15 -22 -17 -31 -7 -49 8 -16 8 -20 -1 -14
-16 10 -50 -24 -50 -49 0 -12 5 -38 11 -59 9 -33 14 -38 32 -33 20 5 20 4 -3
-14 -14 -11 -22 -20 -18 -20 12 0 146 80 158 95 7 8 17 15 23 15 5 0 -8 -14
-29 -31 -22 -17 -40 -32 -42 -34 -2 -1 4 -5 12 -8 9 -4 15 -1 13 6 -1 7 5 12
13 12 8 0 16 4 17 9 0 4 14 22 30 38 15 17 22 27 14 23 -10 -5 -12 -4 -7 4 4
6 11 9 16 6 5 -3 30 20 55 52 37 47 44 63 38 83 -4 14 -8 45 -9 70 -1 25 -9
62 -18 82 -9 21 -16 43 -16 50 1 7 15 -22 32 -66 18 -43 38 -80 45 -83 16 -6
55 26 47 39 -3 4 0 7 8 6 7 -2 12 3 10 10 -1 8 2 11 7 8 16 -10 261 259 261
288 0 4 -21 -18 -47 -51 -26 -32 -83 -94 -126 -138 l-80 -80 98 111 c53 62
105 125 115 141 26 43 43 136 35 193 -4 31 -2 63 8 91 8 24 17 57 21 73 6 26
5 28 -8 17 -28 -24 -17 0 22 48 104 124 190 279 176 316 -4 11 -2 14 9 9 15
-6 29 20 33 61 14 142 23 204 32 222 17 30 15 73 -2 73 -7 0 -21 -11 -30 -25
-9 -14 -21 -25 -28 -25 -6 0 10 22 36 50 25 27 47 59 47 72 1 13 2 39 3 60 1
20 7 42 13 50 27 33 65 178 68 259 1 46 6 95 10 108 6 16 5 22 -2 18 -12 -8
-23 24 -23 70 0 25 -7 36 -30 50 -16 9 -30 23 -30 31 0 7 5 10 12 6 8 -5 9 -2
5 10 -4 10 -10 35 -13 57 -4 21 -10 37 -14 34 -4 -3 -10 11 -12 29 -2 20 0 32
5 29 27 -17 -5 21 -57 66 -47 40 -62 49 -73 40 -7 -7 -15 -10 -17 -8 -20 22
-74 98 -71 101 2 2 -13 15 -35 28 -34 21 -39 30 -46 74 -3 28 -12 54 -18 58
-14 9 -15 31 -2 40 6 4 7 11 2 15 -5 4 -11 2 -13 -5 -4 -10 -10 -9 -27 5 -16
13 -15 11 4 -10 l25 -29 -30 13 c-16 7 -37 19 -46 26 -21 18 -46 16 -53 -3z
m146 -164 l27 -103 -25 -51 c-39 -79 -178 -286 -189 -283 -18 6 -35 76 -36
150 -1 40 -6 118 -11 174 -10 100 -9 102 16 140 15 21 26 52 26 70 0 38 4 39
45 14 26 -15 33 -29 48 -92 9 -41 17 -84 17 -97 0 -33 -33 -92 -70 -127 -34
-32 -66 -85 -52 -85 5 0 19 11 31 24 12 13 43 32 68 41 37 14 48 25 64 62 10
25 19 50 19 57 0 7 -16 47 -35 89 -19 42 -35 87 -35 100 0 14 -9 31 -22 39
-12 8 -18 19 -14 26 4 8 21 2 53 -16 47 -28 47 -28 75 -132z m-56 -108 c-17
-16 -18 -16 -5 5 7 12 15 20 18 17 3 -2 -3 -12 -13 -22z m7 -32 c-3 -11 -10
-23 -16 -27 -5 -3 -8 -2 -5 3 3 5 8 17 11 27 9 24 16 22 10 -3z m263 -22 c4
-7 3 -8 -5 -4 -6 4 -18 2 -26 -4 -9 -8 -15 -8 -15 -2 0 9 15 19 32 21 4 1 10
-4 14 -11z m8 -36 c22 -17 25 -49 3 -35 -6 4 -8 0 -5 -9 4 -8 -7 -39 -24 -69
-34 -59 -39 -56 -52 32 -6 40 -4 49 18 72 30 32 31 32 60 9z m-112 -244 c-4
-4 -6 18 -4 52 3 43 1 60 -8 60 -9 0 -11 -19 -8 -70 l4 -71 -67 -85 c-37 -47
-70 -81 -73 -75 -3 5 -3 16 0 25 3 9 -5 26 -20 41 l-26 26 64 85 c64 84 64 85
80 62 9 -12 16 -18 16 -12 0 5 -5 15 -11 21 -15 15 -3 47 12 37 8 -4 9 -3 5 5
-10 15 13 43 27 34 6 -3 7 -1 3 5 -4 7 -4 18 1 25 4 7 9 -25 11 -72 2 -46 -1
-88 -6 -93z m-347 -22 l23 -30 -34 -53 c-19 -29 -34 -56 -34 -59 0 -3 -10 -19
-21 -36 l-21 -29 -17 24 c-9 14 -28 40 -42 59 -14 18 -38 54 -53 81 l-27 47
63 0 c55 1 68 4 98 30 30 24 36 26 39 12 2 -9 14 -30 26 -46z m-515 -16 c-16
-40 -23 -33 -9 9 6 18 14 30 17 27 2 -3 -1 -19 -8 -36z m1094 24 c9 -3 13 -11
10 -16 -4 -6 -10 -5 -15 3 -6 10 -9 7 -9 -11 0 -14 -5 -32 -10 -40 -7 -11 -10
-6 -10 21 0 46 6 54 34 43z m-945 -108 c33 -19 62 -45 74 -66 11 -19 42 -75
68 -124 l49 -88 -21 -49 c-23 -52 -30 -57 -52 -35 -7 8 -39 30 -70 50 -52 33
-57 40 -57 72 0 28 -7 42 -31 63 -67 56 -73 66 -74 122 -1 30 -5 77 -10 104
l-8 50 39 -34 c21 -18 63 -47 93 -65z m894 42 c-3 -24 -9 -47 -14 -52 -7 -8
-3 51 7 82 8 26 12 10 7 -30z m-45 -45 c-12 -59 -17 -77 -23 -72 -4 4 10 79
20 107 10 28 12 9 3 -35z m-33 -40 c-7 -47 -11 -53 -371 -408 -200 -198 -359
-354 -353 -347 9 9 8 12 0 12 -7 0 -18 -15 -26 -34 -8 -19 -33 -50 -55 -69
-29 -25 -43 -45 -47 -71 -3 -20 -10 -36 -14 -36 -13 0 -11 43 7 140 l15 85
-47 93 c-30 61 -43 97 -37 103 6 6 37 4 87 -7 l77 -17 -6 -39 c-8 -48 6 -49
28 -2 12 24 22 34 32 30 8 -3 15 -1 15 3 0 5 -6 11 -12 14 -10 4 -10 7 -1 18
10 10 17 10 37 -1 25 -13 25 -13 7 -39 -20 -28 -81 -144 -81 -155 0 -19 22 2
67 67 106 151 268 330 468 515 l120 112 16 -32 c18 -35 20 -33 34 42 6 29 30
67 43 69 2 1 0 -20 -3 -46z m-305 -17 c0 -5 8 -14 17 -21 15 -11 10 -21 -53
-101 -38 -48 -74 -95 -80 -103 -10 -12 -15 -8 -33 27 l-22 43 57 82 c84 121
84 121 100 99 7 -9 14 -21 14 -26z m251 -22 c-9 -28 -9 -29 -10 -3 -1 14 2 29
6 32 11 12 13 2 4 -29z m-525 -59 c15 -10 14 -16 -8 -59 l-24 -48 -14 59 c-7
32 -17 62 -22 68 -13 15 -9 23 15 27 14 2 25 -4 30 -16 4 -11 15 -24 23 -31z
m722 -22 c-11 -53 -23 -68 -30 -35 -2 9 -15 -14 -27 -53 -13 -38 -34 -92 -46
-120 -36 -83 -129 -147 -335 -230 -228 -92 -316 -148 -404 -253 -88 -106 -89
-110 -79 -244 11 -162 -4 -269 -47 -329 -17 -24 -40 -59 -52 -76 -11 -18 -21
-33 -23 -33 -6 0 26 151 45 208 26 83 25 105 -5 150 -14 20 -25 45 -25 54 0
20 81 179 110 215 10 13 22 37 25 54 4 16 11 26 17 23 5 -4 29 12 51 34 48 46
217 173 372 281 59 40 149 106 200 146 51 40 96 71 99 67 3 -3 6 0 6 7 0 7 4
9 10 6 6 -4 7 1 3 11 -4 12 -3 15 5 10 7 -4 12 -2 12 5 0 6 10 21 23 33 40 38
97 108 97 119 0 6 2 8 4 6 2 -2 -1 -28 -6 -56z m-1038 -66 c11 -36 26 -69 33
-74 6 -5 51 -27 100 -48 48 -21 87 -39 87 -40 0 -8 -51 -115 -55 -115 -2 0 -2
7 1 15 4 10 -18 30 -71 65 -43 27 -81 50 -86 50 -5 0 -9 8 -9 18 0 26 -11 34
-27 21 -10 -9 -17 -2 -33 32 -23 53 -25 76 -6 120 27 65 34 61 66 -44z m40 31
c0 -6 -6 -5 -15 2 -8 7 -15 14 -15 16 0 2 7 1 15 -2 8 -4 15 -11 15 -16z
m1007 -70 c-3 -7 -5 -2 -5 12 0 14 2 19 5 13 2 -7 2 -19 0 -25z m-597 -37 c0
-6 -163 -231 -195 -269 -6 -7 -45 23 -45 34 0 11 151 247 178 277 15 17 17 17
39 -7 13 -14 23 -29 23 -35z m561 32 c-12 -20 -14 -14 -5 12 4 9 9 14 11 11 3
-2 0 -13 -6 -23z m-1071 -97 c-14 -14 -24 0 -16 21 6 15 8 15 16 3 6 -9 5 -19
0 -24z m133 -93 c76 -73 88 -94 67 -117 -10 -10 -107 21 -112 36 -3 7 -24 16
-49 22 l-44 11 -3 63 -3 62 31 0 c25 0 47 -15 113 -77z m883 -61 c-19 -37 -43
-58 -43 -37 0 8 5 11 10 8 6 -4 8 1 4 11 -5 11 1 28 15 45 27 33 36 16 14 -27z
m0 -122 c-9 -22 -16 -42 -16 -45 1 -3 -4 -13 -10 -23 -8 -13 -9 -11 -4 13 4
23 3 26 -5 15 -15 -21 -14 -7 2 21 40 75 60 86 33 19z m-982 -6 c3 -8 2 -12
-4 -9 -6 3 -10 10 -10 16 0 14 7 11 14 -7z m926 13 c0 -2 -11 -14 -25 -27 -14
-13 -25 -21 -25 -17 0 3 10 15 22 27 21 19 28 24 28 17z m-4 -125 c-18 -16
-18 -16 -6 6 6 13 14 21 18 18 3 -4 -2 -14 -12 -24z m-319 -9 c2 -6 -10 -27
-26 -46 -38 -42 -93 -59 -181 -55 l-65 3 73 38 c76 40 170 77 186 73 6 -1 11
-7 13 -13z m346 -118 c-3 -9 -8 -14 -10 -11 -3 3 -2 9 2 15 9 16 15 13 8 -4z
m-250 -407 c-5 -45 -23 -59 -23 -18 0 18 21 73 26 68 1 -2 0 -24 -3 -50z m-57
-111 l-14 -52 -1 72 c-1 89 10 125 21 70 5 -25 3 -56 -6 -90z m-45 33 c5 0 9
-12 9 -26 0 -14 -4 -23 -9 -19 -6 3 -13 -15 -17 -40 -8 -57 -21 -66 -30 -20
-4 23 0 59 12 101 16 57 19 62 22 35 2 -17 7 -31 13 -31z m-91 -75 c-4 -38
-15 -86 -26 -105 l-19 -35 -3 34 c-3 28 45 189 53 179 1 -2 -1 -34 -5 -73z
m-98 -81 c-6 -49 -8 -93 -5 -99 3 -5 -1 -3 -10 5 -23 21 -24 87 -2 143 10 26
20 46 22 43 2 -2 0 -44 -5 -92z m-93 -69 c-8 -38 -13 -77 -12 -85 1 -11 -3 -9
-13 4 -21 30 -17 116 9 183 l22 58 3 -45 c2 -25 -2 -76 -9 -115z m-72 113 c-3
-8 -6 -5 -6 6 -1 11 2 17 5 13 3 -3 4 -12 1 -19z m420 -45 c-14 -45 -18 -36
-10 22 4 35 8 44 13 30 4 -11 2 -34 -3 -52z m-137 29 c0 -10 -6 -27 -14 -38
-13 -17 -13 -15 -3 19 13 41 17 46 17 19z m-93 -49 c-3 -10 -5 -2 -5 17 0 19
2 27 5 18 2 -10 2 -26 0 -35z m-218 -141 l-13 -73 -21 48 c-26 58 -26 63 11
139 l29 60 3 -50 c2 -28 -2 -84 -9 -124z m380 56 c-12 -32 -23 -57 -24 -56 -2
2 7 44 18 93 18 72 23 83 25 56 2 -18 -6 -60 -19 -93z m-483 -18 c-1 -66 -2
-120 -3 -120 -2 0 -12 18 -23 39 l-20 40 22 80 c12 45 22 81 23 81 0 0 1 -54
1 -120z m234 45 c-7 -20 -14 -35 -15 -33 -2 2 -1 23 2 46 4 28 9 40 15 34 7
-7 6 -23 -2 -47z m181 -70 c-11 -44 -20 -71 -20 -59 -1 22 15 123 26 164 l7
25 3 -25 c2 -14 -5 -61 -16 -105z m-394 68 c-3 -10 -5 -4 -5 12 0 17 2 24 5
18 2 -7 2 -21 0 -30z m120 0 c-3 -10 -5 -4 -5 12 0 17 2 24 5 18 2 -7 2 -21 0
-30z m255 -8 c-2 -14 -8 -28 -13 -30 -4 -3 -6 -13 -3 -23 2 -9 0 -7 -7 4 -9
17 -8 27 6 48 21 32 23 32 17 1z m161 -6 c-3 -15 -30 -57 -60 -93 -41 -50 -70
-74 -113 -95 l-58 -27 21 26 c15 18 25 23 30 16 5 -7 16 -2 32 17 13 15 30 27
38 27 8 0 26 21 41 48 28 48 70 111 73 108 1 0 -1 -13 -4 -27z m-214 -62 c-2
-81 -17 -97 -18 -19 -1 47 3 71 9 67 6 -3 10 -25 9 -48z m-208 16 c-12 -20
-14 -14 -5 12 4 9 9 14 11 11 3 -2 0 -13 -6 -23z m142 -7 c7 -17 5 -28 -13
-88 -8 -27 -18 -48 -23 -48 -9 0 0 127 10 143 7 11 20 8 26 -7z m-94 -86 c0
-10 -3 -8 -9 5 -12 27 -12 43 0 25 5 -8 9 -22 9 -30z m-18 -99 l-5 -26 -6 30
c-4 17 -4 48 -1 70 l5 40 6 -44 c4 -24 4 -55 1 -70z m42 77 c-3 -15 -9 -25
-14 -23 -4 3 -3 17 3 30 14 31 18 28 11 -7z m-213 -63 c0 -24 2 -27 11 -15 8
11 8 9 3 -10 -5 -14 -8 -36 -7 -49 1 -18 -1 -20 -8 -10 -6 10 -9 3 -9 -21 -1
-70 -17 -5 -24 95 l-7 100 21 -30 c11 -16 20 -43 20 -60z m88 -42 c-10 -60
-13 -64 -19 -38 -9 40 -11 109 -3 130 6 14 8 13 21 -4 11 -17 12 -31 1 -88z
m199 -1 c-29 -30 -33 -31 -44 -15 -7 9 -13 24 -13 32 0 12 2 13 9 3 9 -15 19
-6 47 48 l18 35 7 -35 c7 -31 4 -39 -24 -68z m-123 -64 c5 -2 14 12 21 31 l11
33 12 -27 c7 -15 10 -35 7 -45 -8 -24 -70 -66 -127 -86 l-46 -15 -11 -63 c-6
-34 -11 -74 -11 -87 0 -17 -10 -30 -29 -42 -16 -9 -31 -17 -34 -17 -8 0 -30
90 -23 97 4 4 21 2 38 -5 41 -15 45 -10 18 28 -25 35 -25 37 25 114 34 53 38
56 50 39 13 -16 16 -13 42 45 l28 62 10 -30 c5 -16 14 -31 19 -32z m26 -133
c-7 -8 -17 -15 -23 -15 -6 0 -2 7 9 15 25 19 30 19 14 0z"/>
<path d="M1662 2880 c0 -14 2 -19 5 -12 2 6 2 18 0 25 -3 6 -5 1 -5 -13z"/>
<path d="M1656 2835 c-3 -9 -5 -29 -5 -43 1 -20 3 -17 9 13 8 43 7 57 -4 30z"/>
<path d="M1632 2800 c0 -19 2 -27 5 -17 2 9 2 25 0 35 -3 9 -5 1 -5 -18z"/>
<path d="M1661 2473 c0 -12 -4 -30 -7 -40 -5 -17 -5 -17 6 0 6 10 9 28 7 40
-4 22 -4 22 -6 0z"/>
<path d="M1670 2195 c0 -8 2 -15 4 -15 2 0 6 7 10 15 3 8 1 15 -4 15 -6 0 -10
-7 -10 -15z"/>
<path d="M1730 2015 c-7 -9 -11 -17 -9 -20 3 -2 10 5 17 15 14 24 10 26 -8 5z"/>
<path d="M1661 3006 c-16 -19 -11 -29 8 -17 7 5 12 14 9 21 -3 9 -8 7 -17 -4z"/>
<path d="M1780 2963 c-38 -7 -45 -20 -19 -33 41 -21 59 -52 59 -102 0 -27 4
-48 8 -48 5 0 21 13 36 29 l28 29 -22 66 c-23 70 -24 71 -90 59z m53 -33 c5
-4 7 -16 5 -27 -3 -17 -7 -15 -36 14 l-33 34 28 -7 c15 -4 32 -10 36 -14z m22
-99 c3 -5 1 -12 -5 -16 -5 -3 -10 1 -10 9 0 18 6 21 15 7z"/>
<path d="M1090 2890 c-14 -65 -30 -90 -59 -90 -21 0 -36 -15 -45 -47 -7 -22
-5 -23 57 -23 43 0 68 5 76 14 15 18 11 198 -5 203 -6 2 -17 -22 -24 -57z m17
-57 c-3 -10 -5 -2 -5 17 0 19 2 27 5 18 2 -10 2 -26 0 -35z m-52 -59 c-31 -24
-55 -36 -55 -27 1 22 28 41 60 42 11 0 10 -4 -5 -15z m55 -8 c0 -3 -4 -8 -10
-11 -5 -3 -10 -1 -10 4 0 6 5 11 10 11 6 0 10 -2 10 -4z"/>
<path d="M832 2843 c-17 -33 -35 -124 -26 -133 5 -5 28 -12 51 -16 51 -8 64
10 38 49 -9 14 -15 29 -13 33 4 15 -23 84 -32 84 -5 0 -13 -8 -18 -17z m53
-105 c12 -24 12 -28 0 -28 -24 0 -45 12 -39 22 3 5 11 5 19 -2 11 -9 11 -4 1
24 -15 43 -30 61 -21 25 4 -18 1 -30 -11 -40 -16 -13 -17 -12 -10 15 4 15 10
42 13 59 l6 30 14 -39 c8 -21 20 -51 28 -66z"/>
<path d="M1038 2693 c12 -2 30 -2 40 0 9 3 -1 5 -23 4 -22 0 -30 -2 -17 -4z"/>
<path d="M1881 2444 c0 -11 3 -14 6 -6 3 7 2 16 -1 19 -3 4 -6 -2 -5 -13z"/>
<path d="M583 2083 c4 -55 2 -74 -9 -84 -18 -15 -19 -79 -1 -79 7 0 27 13 45
30 l32 29 -30 82 c-16 45 -33 85 -36 88 -4 3 -4 -26 -1 -66z m26 -124 c-23
-18 -24 -18 -27 3 -2 11 1 25 7 31 6 6 11 25 12 42 1 28 1 27 16 -14 15 -43
15 -44 -8 -62z"/>
<path d="M1891 2136 c-7 -8 -23 -17 -36 -20 -21 -5 -24 -13 -30 -81 -4 -42 -5
-79 -2 -82 13 -12 35 7 41 35 4 16 27 48 51 72 50 49 57 75 23 84 -32 8 -34 8
-47 -8z m44 -16 c11 -17 -5 -32 -21 -19 -11 9 -15 7 -20 -7 -4 -11 -15 -28
-24 -39 -10 -11 -20 -29 -23 -40 -3 -12 -5 -5 -6 17 -1 49 7 68 30 68 11 0 22
7 25 15 7 17 30 20 39 5z"/>
<path d="M660 2075 c0 -8 2 -15 4 -15 2 0 6 7 10 15 3 8 1 15 -4 15 -6 0 -10
-7 -10 -15z"/>
<path d="M1620 1758 c0 -9 -5 -18 -12 -20 -8 -3 -8 -9 -1 -22 9 -16 11 -14 17
14 3 18 4 35 1 38 -3 3 -5 -2 -5 -10z"/>
<path d="M771 1694 c0 -11 3 -14 6 -6 3 7 2 16 -1 19 -3 4 -6 -2 -5 -13z"/>
<path d="M676 1670 c-5 -24 -15 -147 -15 -204 -1 -30 15 -66 27 -65 14 1 72
99 72 121 -1 13 -18 57 -40 98 -34 66 -39 72 -44 50z m34 -85 c5 3 8 -8 8 -25
-1 -17 2 -33 5 -36 4 -4 0 -16 -8 -28 -20 -28 -19 -45 1 -20 15 18 15 17 1 -6
-8 -14 -22 -26 -31 -28 -13 -3 -15 3 -11 30 3 18 8 65 12 103 5 46 9 59 11 37
2 -18 7 -30 12 -27z m28 -50 c-3 -3 -9 2 -12 12 -6 14 -5 15 5 6 7 -7 10 -15
7 -18z"/>
<path d="M1697 1460 c-22 -53 -40 -80 -73 -107 -43 -36 -71 -87 -54 -98 5 -3
11 -1 15 5 3 5 14 10 24 10 10 0 29 9 42 21 13 12 36 31 50 43 24 19 27 30 33
109 4 48 3 87 -1 87 -4 0 -21 -32 -36 -70z m10 -87 c-3 -10 -5 -2 -5 17 0 19
2 27 5 18 2 -10 2 -26 0 -35z m-58 -49 c-19 -18 -40 -34 -46 -34 -24 0 -13 18
22 39 20 11 38 28 42 38 5 12 8 13 11 4 2 -7 -11 -28 -29 -47z"/>
<path d="M1556 1414 c-9 -24 -7 -28 9 -14 17 14 20 30 6 30 -5 0 -12 -7 -15
-16z"/>
<path d="M941 1364 c0 -11 3 -14 6 -6 3 7 2 16 -1 19 -3 4 -6 -2 -5 -13z"/>
<path d="M935 1235 c-4 -31 -5 -58 -2 -61 2 -3 8 20 12 51 3 31 4 59 2 62 -3
2 -9 -21 -12 -52z"/>
<path d="M710 685 c0 -25 -3 -45 -8 -45 -4 0 -13 -9 -20 -20 -11 -18 -9 -25
15 -57 l27 -35 28 33 c15 18 28 39 28 47 0 21 -50 122 -61 122 -5 0 -9 -20 -9
-45z m34 -102 l-18 -34 -17 22 c-13 18 -14 27 -6 41 13 20 32 25 21 6 -4 -8
-3 -10 2 -5 5 5 10 13 10 18 3 22 5 23 16 5 8 -15 7 -27 -8 -53z"/>
<path d="M795 499 c-8 -19 -25 -46 -36 -61 -25 -31 -18 -48 20 -48 27 0 29 4
40 61 15 75 1 103 -24 48z m-9 -73 c1 -17 -2 -23 -12 -19 -10 4 -11 10 -3 24
13 24 14 24 15 -5z"/>
<path d="M1130 495 c-20 -24 -6 -28 15 -5 10 11 13 20 8 20 -6 0 -16 -7 -23
-15z"/>
</g>
</svg>
