<?xml version="1.0" standalone="no"?>
<!DOCTYPE svg PUBLIC "-//W3C//DTD SVG 20010904//EN"
 "http://www.w3.org/TR/2001/REC-SVG-20010904/DTD/svg10.dtd">
<svg version="1.0" xmlns="http://www.w3.org/2000/svg"
 width="385.298871pt" height="425.173537pt" viewBox="0 0 385.298871 425.173537"
 preserveAspectRatio="xMidYMid meet">
<metadata>
Created by potrace 1.16, written by Peter Selinger 2001-2019
</metadata>
<g transform="translate(-21.150349,445.871917) scale(0.100000,-0.100000)"
fill="#000000" stroke="none">
<path d="M770 4453 c-195 -32 -398 -185 -487 -365 -55 -111 -66 -155 -71 -284
-5 -141 14 -231 76 -349 50 -96 181 -228 282 -283 207 -114 486 -106 681 19
61 39 139 106 139 119 0 7 -156 130 -164 130 -3 0 -29 -18 -58 -40 -168 -127
-442 -113 -586 29 -95 94 -135 196 -135 346 1 151 46 263 144 348 233 204 576
133 715 -149 36 -71 39 -85 42 -178 3 -84 0 -112 -18 -165 -11 -35 -20 -65
-18 -66 19 -18 164 -125 170 -125 5 0 20 26 34 58 82 185 73 419 -23 605 -51
99 -181 229 -280 280 -102 53 -205 77 -322 76 -53 -1 -107 -4 -121 -6z"/>
<path d="M3250 4450 c-137 -29 -274 -112 -367 -222 -143 -168 -204 -400 -158
-596 18 -76 54 -162 67 -162 6 0 48 23 95 51 66 40 83 55 77 68 -26 62 -33 96
-34 167 0 135 52 265 144 357 103 103 288 151 434 113 105 -28 226 -124 290
-228 140 -232 17 -573 -238 -663 -158 -56 -356 -22 -467 79 -22 20 -46 36 -52
36 -13 0 -156 -94 -165 -108 -3 -5 18 -31 47 -59 278 -269 712 -255 974 31 65
71 107 143 144 246 19 55 23 85 23 200 1 114 -3 147 -22 210 -71 226 -240 397
-462 465 -65 20 -264 29 -330 15z"/>
<path d="M805 4057 c-61 -25 -94 -47 -124 -86 -107 -135 -66 -334 85 -411 39
-20 63 -25 119 -24 73 1 146 21 152 41 2 6 -33 40 -78 74 -99 75 -154 128
-161 157 -9 34 14 67 49 70 44 4 83 -16 187 -98 49 -38 93 -70 97 -70 16 0 31
73 24 116 -14 96 -68 174 -150 216 -48 25 -156 33 -200 15z"/>
<path d="M3315 4058 c-84 -31 -142 -89 -170 -167 -22 -64 -18 -181 7 -181 5 0
39 24 76 53 145 116 195 138 237 105 54 -42 22 -93 -130 -211 -49 -38 -91 -73
-93 -77 -4 -11 69 -38 126 -46 152 -20 295 108 295 266 0 99 -60 197 -148 242
-47 25 -155 33 -200 16z"/>
<path d="M835 3850 c-43 -48 -56 -38 1063 -869 111 -83 152 -119 152 -135 1
-11 0 -462 0 -1001 -1 -879 1 -982 15 -1002 22 -31 51 -29 72 4 17 26 18 87
18 1022 l0 996 100 70 c186 132 619 438 780 551 382 269 459 337 413 365 -28
18 -56 6 -148 -64 -109 -84 -1132 -816 -1190 -852 -5 -3 -177 121 -382 276
-539 408 -573 435 -676 518 -105 85 -181 141 -192 141 -4 0 -15 -9 -25 -20z"/>
<path d="M1991 3118 c-25 -13 -46 -28 -48 -33 -3 -10 137 -118 159 -123 18 -4
170 108 165 122 -7 25 -82 51 -157 54 -64 3 -82 0 -119 -20z"/>
<path d="M1840 2931 c-18 -74 10 -162 74 -229 35 -38 102 -76 116 -67 6 3 10
52 10 108 l0 102 -90 68 c-49 37 -92 67 -94 67 -2 0 -9 -22 -16 -49z"/>
<path d="M2258 2908 l-88 -61 0 -109 c0 -109 0 -109 23 -102 92 28 164 120
181 229 7 42 -4 97 -20 102 -5 1 -48 -25 -96 -59z"/>
<path d="M1955 1554 c-33 -8 -96 -32 -140 -54 -359 -178 -491 -615 -290 -960
53 -90 173 -206 260 -252 105 -55 211 -81 325 -81 128 0 197 16 309 70 164 78
289 226 347 408 116 364 -93 756 -460 862 -43 13 -89 23 -102 23 -23 0 -24 -2
-26 -90 -1 -49 -2 -98 -2 -107 -1 -13 14 -22 59 -33 33 -9 74 -23 90 -32 86
-45 174 -142 221 -243 25 -54 28 -71 29 -165 0 -101 -2 -108 -37 -182 -78
-163 -263 -287 -430 -288 -224 0 -413 162 -449 388 -36 221 114 460 324 514
l47 12 0 113 c0 62 -3 113 -7 112 -5 0 -35 -7 -68 -15z"/>
<path d="M2179 1148 c0 -2 -1 -68 -3 -148 -3 -158 -13 -196 -53 -207 -39 -9
-71 12 -82 54 -6 21 -11 95 -11 166 0 108 -2 127 -15 127 -48 0 -143 -90 -166
-156 -21 -61 -16 -152 10 -207 48 -99 168 -167 270 -153 139 19 241 132 241
266 0 57 -22 122 -55 166 -31 40 -132 109 -136 92z"/>
</g>
</svg>
