<?xml version="1.0" standalone="no"?><!DOCTYPE svg PUBLIC "-//W3C//DTD SVG 20010904//EN" "http://www.w3.org/TR/2001/REC-SVG-20010904/DTD/svg10.dtd"><svg xmlns="http://www.w3.org/2000/svg" version="1.0" width="16mm" height="14.0977mm" viewBox="0 0 492.413752 433.869323" preserveAspectRatio="xMidYMid meet">
<metadata>
Created by potrace 1.16, written by Peter Selinger 2001-2019
</metadata>
<g transform="translate(-32.000000,486.964001) scale(0.100000,-0.100000)" fill="#000000" stroke="none">
<path d="M2400 4850 c-58 -31 -84 -81 -89 -167 -6 -121 35 -194 125 -223 48 -16 126 -7 170 21 123 75 103 328 -29 378 -45 17 -137 13 -177 -9z m157 -65 c49 -34 58 -183 13 -230 -27 -29 -75 -37 -117 -20 -37 16 -48 34 -57 97 -9 61 8 122 41 147 31 25 89 28 120 6z"/>
<path d="M4424 4651 c-77 -35 -108 -101 -102 -215 6 -126 71 -191 189 -190 66 1 114 26 143 75 l19 32 -24 18 c-33 26 -46 24 -63 -10 -18 -33 -34 -41 -85 -41 -74 0 -114 75 -96 180 11 63 42 93 99 94 41 1 51 -3 73 -28 21 -25 27 -27 49 -17 37 17 40 38 10 70 -49 51 -140 65 -212 32z"/>
<path d="M4730 4454 l0 -205 41 3 41 3 2 90 1 90 88 3 87 3 0 -96 0 -95 40 0 40 0 0 205 0 205 -40 0 -40 0 0 -75 0 -75 -90 0 -90 0 0 75 0 75 -40 0 -40 0 0 -206z"/>
<path d="M2427 4424 c-4 -4 -7 -177 -7 -385 l0 -377 -32 -20 c-18 -11 -49 -29 -68 -39 -19 -11 -110 -64 -202 -117 -167 -97 -168 -98 -168 -133 l0 -35 27 17 c14 10 40 26 57 35 17 10 99 57 181 106 83 48 180 105 216 126 l67 38 83 -48 c46 -27 218 -127 381 -221 l297 -173 -2 -441 -2 -442 -87 -52 c-47 -28 -106 -62 -130 -76 -23 -13 -103 -59 -175 -101 -123 -72 -133 -80 -133 -107 0 -16 3 -29 6 -29 7 0 386 217 491 281 l65 39 342 -105 c188 -58 347 -105 354 -105 9 0 12 10 10 28 -3 30 13 23 -263 107 -66 20 -187 58 -270 84 l-150 47 -3 423 c-2 287 1 427 8 436 6 7 21 15 33 18 26 5 272 80 475 143 140 44 143 46 140 72 -2 15 -7 26 -13 26 -5 -1 -153 -45 -327 -98 -174 -53 -322 -96 -329 -96 -12 0 -101 49 -339 188 -80 47 -197 115 -260 151 l-115 67 -5 384 -5 385 -25 0 -25 0 -3 -361 -2 -362 -25 -4 -25 -5 -2 366 c-3 321 -5 366 -18 369 -9 1 -19 0 -23 -4z"/>
<path d="M5142 4344 c-31 -21 -19 -34 25 -27 28 5 35 3 31 -8 -2 -8 -14 -15 -26 -17 -26 -4 -30 -32 -4 -32 24 0 42 -19 35 -36 -7 -20 -40 -17 -52 4 -8 14 -12 15 -23 4 -23 -23 3 -47 53 -47 36 0 45 4 56 25 10 20 10 29 -1 45 -10 15 -10 26 -2 44 8 20 7 26 -13 42 -28 23 -49 24 -79 3z"/>
<path d="M4392 4213 c-5 -10 -21 -56 -36 -103 -14 -47 -44 -141 -66 -210 -22 -69 -40 -128 -40 -132 0 -5 12 -8 28 -8 27 0 28 4 95 221 38 121 66 226 63 234 -7 20 -33 19 -44 -2z"/>
<path d="M989 4100 c-97 -29 -150 -146 -120 -267 25 -97 84 -143 186 -143 65 0 105 18 134 59 28 40 26 58 -9 76 -29 15 -30 15 -45 -15 -19 -36 -43 -50 -87 -50 -45 0 -75 23 -88 68 -25 90 -1 178 54 203 36 17 92 3 114 -28 18 -25 19 -25 50 -9 39 20 39 26 6 65 -37 45 -124 63 -195 41z"/>
<path d="M320 3885 l0 -205 45 0 44 0 3 93 3 92 83 2 82 1 0 -94 0 -94 45 0 45 0 0 205 0 205 -45 0 -45 0 0 -75 0 -75 -85 0 -85 0 0 75 0 75 -45 0 -45 0 0 -205z"/>
<path d="M753 3778 c-35 -17 -29 -38 10 -35 36 2 54 -16 20 -21 -31 -4 -29 -28 2 -36 28 -7 34 -33 10 -42 -8 -4 -22 -1 -30 6 -8 7 -22 9 -31 6 -15 -6 -15 -8 1 -26 21 -23 84 -27 103 -8 14 14 16 64 3 73 -5 3 -7 21 -4 40 5 31 3 36 -21 45 -32 12 -34 12 -63 -2z"/>
<path d="M4014 3717 c-2 -7 -3 -100 -2 -207 l3 -195 40 0 40 0 0 133 c0 72 2 132 5 132 3 0 42 -60 87 -132 l81 -133 42 0 42 0 -1 205 -1 205 -37 0 -38 0 -5 -128 -5 -128 -70 116 c-38 64 -76 123 -83 131 -17 18 -91 19 -98 1z"/>
<path d="M1052 3598 c2 -17 51 -50 207 -141 112 -65 207 -115 212 -110 26 26 -8 55 -192 163 -195 113 -233 128 -227 88z"/>
<path d="M1544 3455 c-3 -6 -3 -98 -2 -205 l3 -195 30 -1 c17 0 35 1 40 3 6 2 9 53 7 133 -2 72 1 130 5 130 4 0 33 -42 63 -93 102 -171 105 -175 150 -175 l40 -1 0 209 0 208 -37 -2 -38 -2 -5 -129 -5 -130 -64 105 c-95 158 -91 153 -140 154 -24 1 -45 -3 -47 -9z"/>
<path d="M4320 3282 c0 -9 72 -105 305 -409 55 -72 83 -117 79 -125 -5 -7 -29 -40 -54 -72 -25 -33 -95 -126 -157 -208 l-111 -148 36 1 c34 0 42 6 91 72 30 40 104 137 164 216 104 136 109 146 96 167 -8 12 -53 73 -101 136 -48 62 -131 172 -185 243 -87 115 -102 130 -131 133 -17 2 -32 -1 -32 -6z"/>
<path d="M3373 3153 c-10 -4 -13 -93 -13 -398 0 -337 2 -394 15 -399 8 -3 21 2 30 10 13 13 15 68 15 393 0 403 -1 413 -47 394z"/>
<path d="M1680 2693 l0 -318 -163 -94 c-225 -132 -460 -271 -474 -283 -13 -11 -1 -48 16 -48 4 0 52 26 107 59 540 320 507 302 519 278 13 -26 45 -4 -340 -232 -190 -112 -260 -158 -260 -171 0 -36 37 -24 177 59 79 46 220 130 315 185 95 56 177 102 182 102 10 0 350 -194 441 -251 47 -30 64 -26 58 12 -3 24 2 21 -406 259 l-112 65 0 347 0 348 -30 0 -30 0 0 -317z"/>
<path d="M4430 2563 c-90 -120 -167 -224 -173 -230 -7 -10 -1 -13 24 -13 33 0 41 9 193 212 158 210 169 232 129 245 -6 2 -84 -94 -173 -214z"/>
<path d="M4060 2065 c0 -107 0 -198 0 -202 0 -5 18 -9 40 -11 l39 -3 3 137 3 138 84 -137 84 -137 44 0 43 0 0 205 0 205 -40 0 -39 0 -3 -132 -3 -133 -80 133 -80 132 -47 0 -48 0 0 -195z"/>
<path d="M2330 1870 l0 -211 38 3 37 3 5 138 5 138 79 -131 c44 -72 85 -135 92 -141 7 -6 28 -9 46 -7 l33 3 3 208 2 207 -40 0 -40 0 0 -132 c0 -98 -3 -129 -11 -121 -6 6 -44 65 -84 130 l-72 118 -46 3 -47 3 0 -211z"/>
<path d="M815 2020 c-100 -22 -152 -109 -142 -235 5 -74 25 -115 73 -152 52 -39 151 -44 209 -11 131 77 119 345 -18 386 -51 16 -90 20 -122 12z m97 -81 c68 -36 62 -226 -8 -258 -92 -41 -149 17 -142 147 3 66 6 77 31 98 30 26 84 32 119 13z"/>
<path d="M2472 1333 l3 -268 22 -3 c16 -2 24 3 28 20 3 13 4 133 3 268 l-3 245 -28 3 -27 3 2 -268z"/>
<path d="M2415 1003 c-76 -40 -104 -94 -105 -199 0 -132 64 -203 183 -204 73 0 121 20 147 62 27 44 25 53 -12 69 -27 11 -32 11 -36 -1 -12 -35 -51 -60 -96 -60 -37 0 -48 5 -69 29 -45 55 -43 185 5 228 33 29 100 24 137 -11 l30 -28 30 22 31 22 -20 28 c-39 54 -160 78 -225 43z"/>
<path d="M3008 1012 c-28 -3 -28 -4 -28 -78 l0 -74 -85 0 -85 0 0 75 0 75 -45 0 -45 0 0 -206 0 -205 43 3 42 3 3 93 3 92 84 0 85 0 0 -95 0 -95 40 0 40 0 0 208 c0 161 -3 209 -12 208 -7 0 -25 -2 -40 -4z"/>
<path d="M3123 698 c-13 -6 -23 -15 -23 -19 0 -15 20 -20 38 -10 21 11 48 -1 38 -18 -4 -6 -16 -11 -27 -11 -10 0 -19 -7 -19 -15 0 -9 9 -15 24 -15 32 0 43 -37 13 -46 -14 -4 -25 -1 -34 12 -10 13 -16 15 -24 7 -17 -17 -4 -41 26 -49 62 -15 108 27 79 73 -12 19 -12 27 -2 44 11 18 10 23 -11 40 -26 21 -45 23 -78 7z"/>
</g>
</svg>