<?xml version="1.0" standalone="no"?>
<!DOCTYPE svg PUBLIC "-//W3C//DTD SVG 20010904//EN"
 "http://www.w3.org/TR/2001/REC-SVG-20010904/DTD/svg10.dtd">
<svg version="1.0" xmlns="http://www.w3.org/2000/svg"
 width="160.319061pt" height="220.903064pt" viewBox="0 0 160.319061 220.903064"
 preserveAspectRatio="xMidYMid meet">
<metadata>
Created by potrace 1.16, written by Peter Selinger 2001-2019
</metadata>
<g transform="translate(-90.305891,245.351470) scale(0.100000,-0.100000)"
fill="#000000" stroke="none">
<path d="M1981 2418 c-7 -25 -22 -60 -32 -77 -16 -27 -23 -30 -46 -25 -16 3
-38 18 -51 33 l-23 26 12 -28 c7 -16 30 -37 51 -48 73 -37 73 -80 0 -130 -41
-28 -52 -31 -95 -26 -27 4 -62 13 -79 22 -45 22 -48 18 -10 -11 20 -16 32 -34
32 -50 0 -13 5 -32 11 -42 9 -14 5 -34 -20 -93 -46 -111 -72 -134 -124 -108
-21 10 -21 10 -3 -5 11 -9 32 -16 47 -16 47 0 54 -21 41 -112 -6 -45 -19 -91
-27 -104 -8 -13 -24 -47 -35 -76 -18 -47 -60 -108 -75 -108 -10 0 -4 35 10 54
10 13 15 41 13 85 l-1 66 -6 -60 c-7 -61 -19 -92 -44 -114 -12 -9 -20 -3 -45
35 -17 25 -32 49 -34 53 -2 4 -21 14 -43 23 -31 12 -41 23 -48 49 -6 22 -5 40
2 51 16 25 14 30 -8 16 -16 -10 -25 -7 -54 15 -53 40 -53 33 -2 -16 31 -30 45
-52 45 -70 0 -28 23 -57 46 -57 9 0 29 -13 45 -29 25 -25 29 -37 29 -84 0 -44
-6 -62 -32 -102 -27 -40 -45 -54 -107 -83 l-75 -34 -18 22 c-10 13 -18 40 -19
64 -1 40 -1 40 -10 11 -6 -21 -4 -44 7 -78 9 -26 13 -54 10 -62 -3 -8 -38 -41
-79 -73 -63 -50 -87 -62 -148 -77 -41 -10 -78 -22 -84 -27 -9 -9 14 -6 67 8 9
3 47 0 85 -7 59 -10 73 -17 111 -54 23 -23 42 -52 42 -63 0 -14 19 -35 54 -62
50 -38 54 -44 60 -93 5 -46 3 -54 -16 -71 -36 -29 -99 -15 -165 35 -53 41 -54
41 -114 35 -44 -5 -65 -4 -76 6 -14 11 -15 11 -11 -2 3 -11 25 -16 80 -20 65
-4 79 -9 109 -35 19 -17 49 -37 67 -44 33 -14 40 -25 22 -36 -5 -3 -10 -11
-10 -17 0 -6 11 -2 24 11 13 12 39 24 58 27 29 5 38 2 51 -16 16 -22 14 -35
-10 -113 l-15 -47 -53 0 c-30 0 -57 -4 -60 -10 -3 -6 4 -10 17 -10 24 0 24 -1
21 -101 -3 -119 5 -128 12 -15 6 92 17 116 50 116 20 0 30 11 55 60 27 54 32
59 46 46 8 -8 31 -18 52 -22 52 -9 104 -38 138 -74 16 -17 43 -40 60 -51 18
-10 51 -48 75 -84 23 -36 44 -63 47 -61 2 3 -15 35 -37 72 -23 37 -41 78 -41
90 0 13 -4 26 -10 29 -22 14 -8 25 33 25 127 1 309 74 429 174 160 133 279
327 334 546 29 113 27 301 -4 400 -28 88 -75 169 -132 227 -48 49 -162 109
-225 119 -25 3 -45 11 -45 16 0 17 91 51 103 39 6 -6 30 -11 54 -11 24 0 60
-7 80 -15 42 -18 99 -20 109 -4 4 8 -3 9 -25 4 -23 -5 -48 0 -87 15 -30 13
-64 20 -76 17 -32 -9 -48 9 -41 46 3 18 11 38 17 46 9 11 8 13 -4 9 -8 -2 -19
-18 -24 -36 -9 -27 -18 -34 -75 -51 -59 -18 -67 -19 -83 -5 -9 9 -20 35 -23
57 -4 23 -15 60 -25 82 -21 50 -18 174 6 248 9 26 14 52 12 59 -3 7 -10 -9
-17 -34z m-30 -280 c10 -19 58 -165 59 -178 0 -3 -15 -6 -33 -7 -17 -1 -46 -5
-64 -8 -31 -6 -33 -4 -62 53 -16 32 -37 64 -46 72 -9 7 -20 20 -25 29 -7 14
-1 16 43 13 45 -3 55 0 76 22 30 32 37 32 52 4z m-116 -173 c18 -46 19 -43
-36 -150 -23 -43 -57 -85 -71 -85 -4 0 -8 15 -8 34 0 18 -5 48 -11 65 -10 28
-8 39 9 74 11 23 30 64 42 91 20 47 21 48 40 31 11 -10 27 -36 35 -60z m250
-100 c134 -41 237 -162 276 -325 34 -139 2 -345 -77 -503 -188 -376 -578 -547
-831 -365 -62 45 -67 55 -58 123 l7 57 41 -40 c86 -83 198 -114 313 -87 100
23 178 70 270 160 252 249 307 610 124 809 -63 68 -136 99 -237 100 l-82 1 41
43 c40 40 45 42 103 42 33 0 82 -7 110 -15z m-255 -285 c0 -25 3 -68 6 -97 l7
-52 128 -3 129 -3 -92 -70 c-50 -38 -104 -81 -121 -95 l-29 -26 16 -130 c9
-71 16 -134 16 -138 0 -5 -37 25 -82 66 -46 41 -88 77 -95 81 -6 4 -51 -26
-103 -68 -51 -42 -94 -74 -96 -72 -2 2 15 60 39 130 34 106 40 130 29 145 -34
47 -35 57 -10 108 21 45 27 49 63 54 39 5 42 8 110 122 73 123 84 129 85 48z
m-303 -178 c5 -38 -17 -104 -57 -175 -17 -31 -30 -68 -30 -88 0 -19 -10 -55
-22 -79 -25 -50 -23 -49 -127 -30 -49 8 -77 8 -112 0 -52 -13 -89 -6 -89 15 0
13 98 105 112 105 4 0 15 14 24 31 12 23 36 40 98 69 78 37 84 42 131 115 26
41 53 74 59 72 5 -2 11 -17 13 -35z m-242 -393 c75 -19 108 -97 64 -153 -25
-32 -30 -32 -79 -1 -28 18 -40 32 -40 48 0 13 -13 36 -30 52 -36 34 -37 43 -7
55 30 12 41 12 92 -1z"/>
</g>
</svg>
