<?xml version="1.0" standalone="no"?>
<!DOCTYPE svg PUBLIC "-//W3C//DTD SVG 20010904//EN"
 "http://www.w3.org/TR/2001/REC-SVG-20010904/DTD/svg10.dtd">
<svg version="1.0" xmlns="http://www.w3.org/2000/svg"
 width="309.634746pt" height="308.905819pt" viewBox="0 0 309.634746 308.905819"
 preserveAspectRatio="xMidYMid meet">
<metadata>
Created by potrace 1.16, written by Peter Selinger 2001-2019
</metadata>
<g transform="translate(-123.685882,333.924675) scale(0.100000,-0.100000)"
fill="#000000" stroke="none">
<path d="M2660 3333 c-489 -50 -903 -294 -1166 -689 -343 -515 -343 -1190 1
-1707 239 -361 614 -602 1045 -673 125 -20 381 -18 515 5 640 109 1147 620
1261 1271 25 141 23 374 -5 522 -79 436 -341 816 -721 1051 -267 164 -632 251
-930 220z m407 -214 c796 -172 1263 -979 1013 -1749 -63 -192 -177 -377 -325
-526 -195 -196 -425 -321 -696 -380 -100 -21 -323 -29 -434 -15 -579 71 -1050
504 -1165 1071 -159 780 383 1527 1175 1620 110 13 322 3 432 -21z"/>
<path d="M2405 3061 c-31 -13 -71 -57 -148 -161 -87 -118 -262 -292 -389 -388
-99 -74 -138 -113 -138 -139 0 -17 28 -13 132 20 37 11 71 17 75 13 5 -4 10
-105 13 -224 3 -119 9 -223 14 -231 13 -21 81 -9 156 27 90 44 189 56 365 45
l140 -8 3 -54 c6 -107 17 -101 -184 -101 -199 0 -362 20 -468 56 -38 13 -73
24 -78 24 -4 0 -8 -185 -8 -411 l0 -412 73 5 c39 3 87 12 105 22 41 21 72 70
72 114 l0 32 240 -2 240 -3 3 -115 c3 -89 8 -125 24 -160 26 -59 81 -106 146
-124 81 -23 499 -39 689 -26 221 15 268 31 339 121 l32 41 -31 24 c-38 30 -58
84 -73 194 -6 47 -12 87 -15 89 -10 10 -40 -31 -70 -95 -69 -151 -107 -160
-576 -140 l-208 9 0 95 0 95 44 -6 c24 -4 106 0 182 8 171 19 215 13 264 -31
30 -28 46 -34 81 -34 51 0 145 43 161 74 7 13 9 71 5 167 -3 81 -2 163 3 183
4 20 24 54 44 76 20 22 36 48 36 57 0 9 -21 36 -47 60 -46 43 -158 123 -173
123 -7 0 -35 -19 -110 -77 -55 -42 -103 -49 -280 -35 -80 6 -160 8 -178 5
l-33 -5 3 78 3 79 145 8 c222 12 253 8 298 -36 21 -20 47 -37 57 -37 11 0 55
16 97 37 l78 38 0 175 0 175 45 43 c25 23 45 50 45 60 0 24 -91 111 -164 157
-68 43 -86 40 -126 -19 -43 -63 -72 -70 -244 -61 -83 4 -159 7 -168 7 -10 0
-18 1 -18 3 0 14 186 93 233 99 32 4 62 14 70 24 15 16 13 23 -19 80 -44 78
-100 138 -139 148 -21 5 -39 2 -65 -13 -19 -11 -57 -33 -85 -49 -44 -25 -62
-29 -147 -32 -108 -5 -208 4 -208 19 0 5 30 24 67 41 37 18 69 38 71 44 6 22
-50 74 -112 104 -66 33 -155 47 -191 31z m455 -306 c0 -3 -39 -51 -87 -105
l-88 -100 -233 0 -233 0 98 79 c54 43 109 91 122 105 l24 26 199 0 c109 0 198
-2 198 -5z m-230 -370 l0 -35 -220 0 -220 0 0 35 0 35 220 0 220 0 0 -35z
m690 0 l0 -35 -220 0 -220 0 0 35 0 35 220 0 220 0 0 -35z m-690 -200 l0 -35
-220 0 -220 0 0 35 0 35 220 0 220 0 0 -35z m690 0 l0 -35 -220 0 -220 0 0 35
0 35 220 0 220 0 0 -35z m-690 -495 l0 -40 -245 0 -245 0 0 40 0 40 245 0 245
0 0 -40z m740 0 l0 -40 -245 0 -245 0 0 40 0 40 245 0 245 0 0 -40z m-740
-220 l0 -40 -245 0 -245 0 0 40 0 40 245 0 245 0 0 -40z m740 0 l0 -40 -245 0
-245 0 0 40 0 40 245 0 245 0 0 -40z"/>
</g>
</svg>
