<?xml version="1.0" standalone="no"?><!DOCTYPE svg PUBLIC "-//W3C//DTD SVG 20010904//EN" "http://www.w3.org/TR/2001/REC-SVG-20010904/DTD/svg10.dtd"><svg xmlns="http://www.w3.org/2000/svg" version="1.0" width="16mm" height="9.6767mm" viewBox="0 0 287.674387 173.983964" preserveAspectRatio="xMidYMid meet">
<metadata>
Created by potrace 1.16, written by Peter Selinger 2001-2019
</metadata>
<g transform="translate(-0.152891,174.646597) scale(0.100000,-0.100000)" fill="#000000" stroke="none">
<path d="M1320 1583 c-58 -91 -106 -170 -108 -175 -2 -4 98 -8 222 -8 124 0 226 3 225 8 -1 13 -214 335 -224 338 -6 2 -57 -71 -115 -163z"/>
<path d="M3 1554 c3 -10 18 -62 32 -114 50 -182 55 -198 70 -204 8 -3 179 -29 380 -57 l365 -52 0 -42 0 -42 -52 -6 c-29 -3 -176 -16 -326 -28 -150 -13 -277 -26 -283 -30 -7 -4 11 -47 51 -120 86 -156 81 -152 138 -128 65 26 482 179 488 179 4 0 34 -63 34 -73 0 -2 -94 -70 -210 -153 -115 -82 -210 -152 -210 -155 0 -6 174 -129 183 -129 3 0 71 74 152 165 130 145 149 163 167 154 10 -6 22 -17 25 -25 3 -8 -25 -88 -61 -177 -36 -90 -66 -169 -66 -175 0 -13 15 -17 110 -31 51 -7 67 -6 76 4 5 8 20 74 33 147 29 171 28 168 57 168 37 0 91 26 103 48 17 32 13 77 -9 104 -10 14 -45 35 -77 46 -187 68 -241 239 -159 498 14 43 23 80 21 82 -2 3 -15 -2 -27 -10 -22 -14 -47 -48 -92 -120 -9 -16 -25 -28 -37 -28 -12 0 -209 70 -438 156 -229 87 -422 159 -430 162 -9 4 -12 -1 -8 -14z"/>
<path d="M2445 1409 c-231 -87 -431 -158 -445 -157 -18 2 -32 15 -49 46 -38 71 -128 149 -106 95 60 -156 74 -320 35 -410 -29 -69 -92 -125 -169 -153 -71 -26 -101 -58 -101 -107 0 -45 36 -81 90 -89 22 -4 44 -14 49 -23 4 -9 19 -78 31 -153 13 -75 26 -141 29 -146 7 -10 175 9 188 21 4 4 -23 83 -60 175 -37 92 -67 174 -67 183 0 9 11 21 24 27 23 10 32 1 171 -154 81 -90 150 -164 152 -164 3 0 45 28 93 62 72 51 86 65 77 77 -7 8 -97 74 -202 149 -104 74 -194 138 -199 142 -4 4 -2 25 5 45 11 29 18 35 34 32 11 -3 131 -46 267 -97 136 -51 254 -90 261 -87 20 8 150 249 138 257 -6 3 -131 16 -278 29 -148 12 -294 25 -325 28 l-58 6 0 42 0 43 73 10 c39 6 206 30 371 53 164 24 304 48 310 55 7 7 29 76 50 154 20 78 40 148 43 156 3 8 1 14 -3 13 -5 0 -198 -72 -429 -160z"/>
<path d="M1192 1377 c-5 -6 -51 -77 -101 -157 l-92 -145 212 -3 c117 -1 214 0 216 2 5 5 -203 302 -217 311 -4 3 -12 -1 -18 -8z"/>
<path d="M1560 1246 c-55 -80 -103 -152 -106 -160 -5 -14 18 -16 206 -16 184 0 211 2 206 15 -10 27 -191 305 -198 305 -4 0 -52 -65 -108 -144z"/>
<path d="M1433 898 c-6 -7 -54 -99 -107 -205 l-96 -192 75 -52 c70 -49 75 -55 75 -90 0 -24 -5 -39 -15 -43 -11 -4 -15 -21 -15 -59 0 -42 10 -76 43 -152 24 -53 47 -97 52 -98 5 -1 26 40 47 92 42 105 53 206 23 217 -9 4 -15 19 -15 42 0 32 8 44 71 102 l70 66 -99 192 c-74 144 -102 189 -109 180z"/>
<path d="M1213 368 c-4 -7 -28 -51 -53 -98 l-45 -85 -127 -3 c-128 -3 -128 -3 -128 -27 0 -18 19 -37 86 -85 47 -34 87 -60 90 -57 3 3 -2 19 -10 36 -30 57 -24 62 56 59 66 -3 73 -5 78 -26 l5 -23 48 30 c39 26 47 36 47 61 0 23 -4 30 -20 30 -28 0 -25 11 20 81 42 65 48 87 28 107 -16 16 -64 15 -75 0z"/>
<path d="M1587 359 c-18 -25 -15 -35 34 -114 l38 -60 -24 -3 c-20 -3 -25 -9 -25 -33 0 -24 8 -35 48 -60 l47 -30 5 23 c5 21 12 23 78 26 79 3 81 2 57 -55 -8 -20 -13 -38 -10 -41 3 -3 40 22 82 55 58 44 79 67 81 86 l3 27 -123 0 -123 0 -50 98 c-42 82 -54 97 -77 100 -18 2 -31 -4 -41 -19z"/>
</g>
</svg>