<?xml version="1.0" standalone="no"?><!DOCTYPE svg PUBLIC "-//W3C//DTD SVG 20010904//EN" "http://www.w3.org/TR/2001/REC-SVG-20010904/DTD/svg10.dtd"><svg xmlns="http://www.w3.org/2000/svg" version="1.0" width="12.7672mm" height="16mm" viewBox="0 0 178.703955 223.954485" preserveAspectRatio="xMidYMid meet">
<metadata>
Created by potrace 1.16, written by Peter Selinger 2001-2019
</metadata>
<g transform="translate(-23.198424,224.454485) scale(0.100000,-0.100000)" fill="#000000" stroke="none">
<path d="M575 2232 c-27 -7 -70 -18 -94 -23 -25 -5 -52 -16 -61 -24 -9 -8 -28 -15 -43 -15 -35 0 -59 -26 -56 -64 1 -17 -2 -44 -6 -59 -5 -18 -3 -33 4 -40 6 -6 11 -25 11 -41 0 -17 7 -40 15 -50 8 -11 15 -28 15 -37 0 -23 45 -108 71 -134 11 -11 29 -32 40 -47 11 -16 27 -28 34 -28 8 0 19 -9 25 -21 7 -11 26 -26 43 -34 l31 -13 -30 -15 c-50 -26 -115 -96 -140 -152 -14 -30 -27 -83 -31 -121 -6 -65 -8 -70 -55 -113 -127 -117 -154 -317 -60 -447 17 -23 42 -85 61 -149 55 -189 104 -267 200 -322 25 -14 80 -48 122 -74 42 -27 96 -56 120 -66 24 -9 67 -36 95 -59 76 -61 131 -79 244 -79 81 0 103 4 150 26 31 14 72 40 91 57 19 17 61 42 93 56 32 14 84 44 116 65 31 21 75 48 98 60 88 45 158 128 187 222 55 178 70 218 96 258 94 145 72 323 -55 446 -49 48 -53 55 -59 111 -4 32 -14 80 -23 106 -18 54 -86 135 -141 169 -36 22 -36 23 -12 31 13 5 33 17 44 28 25 23 81 79 105 105 26 27 70 112 70 134 0 9 5 22 11 28 14 14 31 87 30 128 0 17 0 47 0 67 0 40 -28 68 -66 68 -12 0 -26 5 -33 12 -6 6 -30 15 -54 19 -24 4 -63 13 -88 19 -62 16 -154 20 -220 10 -119 -19 -151 -27 -168 -43 -10 -10 -26 -17 -35 -17 -25 0 -90 -70 -119 -128 l-26 -52 -28 56 c-30 59 -93 124 -121 124 -9 0 -25 7 -35 17 -18 16 -74 30 -151 38 -20 2 -43 7 -49 11 -21 13 -111 11 -163 -4z m119 -77 c28 -15 51 -12 41 6 -10 15 9 10 35 -11 31 -24 38 -25 42 -4 2 14 8 12 35 -10 29 -24 34 -26 39 -11 6 14 12 11 41 -17 25 -25 36 -30 42 -20 6 10 15 5 36 -20 80 -95 87 -220 14 -259 -17 -9 -32 -3 -92 39 -40 27 -110 69 -157 92 -84 42 -210 94 -210 86 0 -2 44 -28 98 -56 103 -55 233 -144 276 -189 l26 -27 -23 -35 c-42 -62 -117 -99 -204 -99 -34 0 -41 3 -37 15 5 12 -2 15 -32 16 -36 0 -94 17 -66 18 25 2 11 20 -25 32 -53 17 -59 21 -37 29 16 6 13 10 -23 28 -46 24 -63 42 -39 42 26 0 18 13 -22 40 -28 18 -33 25 -19 28 24 5 22 11 -15 49 -30 31 -31 33 -10 33 28 0 28 8 -3 32 -28 22 -32 38 -10 38 19 0 19 30 -1 58 -15 22 -15 22 31 22 42 0 46 2 40 20 -5 16 -2 20 17 20 13 0 37 -4 55 -9 37 -11 48 -4 30 17 -10 13 -9 15 5 9 9 -3 34 -9 55 -13 35 -6 37 -6 24 9 -18 22 2 23 43 2z m821 5 c-15 -24 8 -27 51 -9 25 12 48 18 51 15 4 -3 1 -6 -5 -6 -7 0 -12 -7 -12 -16 0 -11 5 -14 18 -9 9 3 29 9 45 12 22 4 26 3 21 -10 -5 -14 2 -15 53 -10 53 6 57 5 44 -10 -12 -15 -9 -17 38 -17 l51 0 -20 -40 -20 -40 27 0 27 0 -32 -33 c-38 -39 -40 -47 -10 -47 21 0 20 -2 -10 -33 -36 -37 -41 -52 -14 -43 9 3 0 -9 -20 -28 -42 -37 -46 -46 -20 -46 9 0 -4 -13 -30 -28 -35 -21 -45 -31 -37 -39 9 -9 1 -15 -30 -24 -28 -8 -40 -17 -39 -28 2 -12 -8 -17 -42 -21 -35 -4 -45 -9 -44 -22 1 -15 -5 -16 -45 -12 -111 14 -170 44 -205 103 l-20 35 55 49 c53 48 182 132 267 176 73 37 40 34 -49 -5 -95 -41 -202 -101 -271 -151 l-47 -34 -33 30 c-30 26 -33 35 -33 83 1 39 9 67 29 105 34 62 66 95 74 75 3 -10 17 -2 43 24 29 28 39 33 39 21 0 -21 14 -22 30 -1 17 19 56 41 46 25 -17 -26 7 -29 42 -6 40 28 46 30 37 15z m-245 -592 c109 -55 130 -131 52 -183 -83 -55 -240 -59 -341 -8 -95 48 -105 104 -29 166 92 74 204 83 318 25z m-420 -24 c0 -48 -292 -294 -350 -294 -16 0 -12 81 7 135 22 66 92 135 158 157 68 23 185 24 185 2z m756 -25 c63 -30 104 -72 128 -132 17 -40 29 -123 21 -137 -9 -15 -69 14 -144 69 -70 53 -221 202 -221 219 0 6 15 12 33 14 60 8 122 -4 183 -33z m-95 -224 c180 -92 219 -354 66 -449 -115 -71 -287 -8 -357 131 -36 70 -40 176 -10 238 51 106 181 140 301 80z m-541 -5 c143 -73 146 -294 6 -417 -164 -144 -380 -61 -380 147 0 77 24 138 79 198 77 86 206 117 295 72z m846 -131 c64 -39 114 -136 114 -220 0 -54 -26 -130 -58 -168 -24 -29 -31 -32 -49 -23 -27 15 -59 91 -73 175 -21 116 -5 257 28 257 2 0 20 -9 38 -21z m-1319 -29 c7 -19 12 -55 12 -80 1 -69 -28 -210 -53 -260 -29 -58 -55 -63 -89 -18 -83 111 -60 292 46 369 50 36 68 34 84 -11z m734 -302 c22 -6 57 -27 79 -46 104 -88 114 -221 24 -321 -55 -61 -108 -83 -196 -84 -188 0 -313 178 -233 333 23 45 83 97 129 114 50 18 145 20 197 4z m541 -99 c42 -50 49 -189 13 -259 -54 -107 -161 -180 -262 -180 -45 0 -58 4 -80 26 -24 24 -25 31 -20 89 9 114 74 225 175 298 82 60 138 68 174 26z m-1143 -33 c136 -69 234 -252 191 -356 -34 -82 -201 -47 -295 62 -47 55 -80 161 -71 226 12 91 78 117 175 68z m616 -407 c33 -6 76 -20 97 -30 50 -25 50 -54 1 -102 -112 -113 -283 -120 -413 -17 -67 53 -63 87 18 122 82 37 192 47 297 27z"/>
</g>
</svg>