<?xml version="1.0" standalone="no"?><!DOCTYPE svg PUBLIC "-//W3C//DTD SVG 20010904//EN" "http://www.w3.org/TR/2001/REC-SVG-20010904/DTD/svg10.dtd"><svg xmlns="http://www.w3.org/2000/svg" version="1.0" width="16mm" height="11.6891mm" viewBox="0 0 193.000000 141.000000" preserveAspectRatio="xMidYMid meet">
<metadata>
Created by potrace 1.16, written by Peter Selinger 2001-2019
</metadata>
<g transform="translate(-16.000000,183.000000) scale(0.100000,-0.100000)" fill="#000000" stroke="none">
<path d="M510 1740 l0 -90 85 0 85 0 0 -85 0 -85 -85 0 -85 0 0 -90 0 -90 -90 0 -90 0 0 -85 0 -85 -85 0 -85 0 0 -265 0 -265 90 0 90 0 0 175 0 175 85 0 85 0 0 -175 0 -175 85 0 85 0 0 -90 0 -90 180 0 180 0 0 90 0 90 -175 0 -175 0 0 85 0 85 435 0 435 0 0 -85 0 -85 -175 0 -175 0 0 -90 0 -90 180 0 180 0 0 90 0 90 85 0 85 0 0 175 0 175 85 0 85 0 0 -175 0 -175 90 0 90 0 0 265 0 265 -85 0 -85 0 0 85 0 85 -90 0 -90 0 0 90 0 90 -85 0 -85 0 0 85 0 85 85 0 85 0 0 90 0 90 -90 0 -90 0 0 -90 0 -90 -85 0 -85 0 0 -85 0 -85 -265 0 -265 0 0 85 0 85 -85 0 -85 0 0 90 0 90 -90 0 -90 0 0 -90z m350 -525 l0 -85 -85 0 -85 0 0 85 0 85 85 0 85 0 0 -85z m700 0 l0 -85 -85 0 -85 0 0 85 0 85 85 0 85 0 0 -85z"/>
</g>
</svg>