<?xml version="1.0" standalone="no"?>
<!DOCTYPE svg PUBLIC "-//W3C//DTD SVG 20010904//EN"
 "http://www.w3.org/TR/2001/REC-SVG-20010904/DTD/svg10.dtd">
<svg version="1.0" xmlns="http://www.w3.org/2000/svg"
 width="308.949742pt" height="346.684111pt" viewBox="0 0 308.949742 346.684111"
 preserveAspectRatio="xMidYMid meet">
<metadata>
Created by potrace 1.16, written by Peter Selinger 2001-2019
</metadata>
<g transform="translate(-126.194378,446.000000) scale(0.100000,-0.100000)"
fill="#000000" stroke="none">
<path d="M3900 4446 c-67 -19 -102 -40 -167 -100 -95 -88 -126 -168 -143 -376
-6 -69 -15 -179 -21 -245 -32 -389 -205 -705 -474 -870 -22 -14 -15 -3 26 41
143 150 274 381 323 569 26 100 45 250 56 445 14 235 25 303 60 379 21 45 41
69 76 93 45 33 46 33 18 36 -65 8 -236 -67 -319 -140 -88 -78 -123 -162 -165
-400 -45 -252 -93 -385 -192 -526 -47 -66 -158 -186 -165 -178 -3 3 5 15 17
28 73 77 181 284 226 433 38 126 40 296 5 403 -13 39 -38 93 -56 118 l-32 45
-5 -133 c-6 -151 -31 -246 -92 -340 -53 -83 -164 -183 -271 -244 -49 -28 -49
-27 32 49 101 96 177 197 205 273 19 51 22 81 22 219 1 88 -3 169 -7 179 -7
17 -12 12 -32 -32 -34 -73 -103 -138 -188 -177 -40 -18 -148 -54 -242 -80
-223 -62 -287 -83 -363 -116 -196 -88 -321 -199 -400 -356 -105 -205 -116
-598 -25 -876 l25 -79 24 42 c54 96 168 214 269 281 119 78 262 100 390 58 68
-23 74 -29 51 -48 -7 -6 -26 -39 -42 -74 -26 -55 -29 -73 -29 -162 0 -89 3
-106 28 -157 59 -120 226 -218 417 -243 30 -4 61 -11 69 -15 9 -5 -78 -69
-275 -200 -159 -106 -384 -258 -501 -337 -116 -78 -217 -143 -222 -143 -14 0
-14 87 -1 294 6 87 8 162 4 165 -3 3 -14 -5 -23 -18 -77 -112 -404 -673 -491
-843 -25 -48 -41 -90 -37 -94 3 -4 24 4 44 18 33 21 191 110 408 228 169 92
289 158 375 205 90 50 139 76 390 207 58 31 125 67 150 80 25 13 106 57 180
98 74 40 189 103 255 140 66 37 149 83 185 102 267 143 466 261 575 343 369
278 528 594 526 1045 0 191 -37 340 -125 505 -69 131 -75 180 -50 415 l5 55
-37 -40 c-104 -113 -174 -383 -174 -675 0 -77 3 -140 8 -140 4 0 15 36 25 81
29 129 76 219 114 219 21 0 46 -48 60 -114 17 -84 17 -337 -2 -424 -61 -294
-242 -525 -547 -699 -82 -47 -274 -120 -285 -109 -3 3 19 26 48 53 76 68 121
116 192 206 192 242 237 397 332 1132 37 284 82 441 148 513 l20 22 -69 -1
c-38 0 -89 -6 -114 -13z"/>
</g>
</svg>
