<?xml version="1.0" encoding="UTF-8" standalone="no"?><svg xmlns="http://www.w3.org/2000/svg" xmlns:xlink="http://www.w3.org/1999/xlink" width="14.2536mm" height="16mm" viewBox="25.6827 53.6693 13.3635 15.0008" version="1.2" baseProfile="tiny">
<title>SVG Generator</title>
<desc>Generated with Qt</desc>
<defs>
</defs>
<g fill="none" stroke="black" stroke-width="1" fill-rule="evenodd" stroke-linecap="square" stroke-linejoin="bevel">

<g fill="#000000" fill-opacity="1" stroke="#000000" stroke-opacity="1" stroke-width="1" stroke-linecap="square" stroke-linejoin="bevel" transform="matrix(0.00432669,0,0,-0.00432671,20.2207,72.9664)" font-family="Microsoft YaHei, Helvetica, Tahoma, Arial, PingFang SC, Hiragino Sans GB, Heiti SC, STXihei, SimHei, WenQuanYi Micro Hei" font-size="9" font-weight="400" font-style="normal">
<path vector-effect="non-scaling-stroke" fill-rule="nonzero" d="M3900,4446 C3833,4427 3798,4406 3733,4346 C3638,4258 3607,4178 3590,3970 C3584,3901 3575,3791 3569,3725 C3537,3336 3364,3020 3095,2855 C3073,2841 3080,2852 3121,2896 C3264,3046 3395,3277 3444,3465 C3470,3565 3489,3715 3500,3910 C3514,4145 3525,4213 3560,4289 C3581,4334 3601,4358 3636,4382 C3681,4415 3682,4415 3654,4418 C3589,4426 3418,4351 3335,4278 C3247,4200 3212,4116 3170,3878 C3125,3626 3077,3493 2978,3352 C2931,3286 2820,3166 2813,3174 C2810,3177 2818,3189 2830,3202 C2903,3279 3011,3486 3056,3635 C3094,3761 3096,3931 3061,4038 C3048,4077 3023,4131 3005,4156 L2973,4201 L2968,4068 C2962,3917 2937,3822 2876,3728 C2823,3645 2712,3545 2605,3484 C2556,3456 2556,3457 2637,3533 C2738,3629 2814,3730 2842,3806 C2861,3857 2864,3887 2864,4025 C2865,4113 2861,4194 2857,4204 C2850,4221 2845,4216 2825,4172 C2791,4099 2722,4034 2637,3995 C2597,3977 2489,3941 2395,3915 C2172,3853 2108,3832 2032,3799 C1836,3711 1711,3600 1632,3443 C1527,3238 1516,2845 1607,2567 L1632,2488 L1656,2530 C1710,2626 1824,2744 1925,2811 C2044,2889 2187,2911 2315,2869 C2383,2846 2389,2840 2366,2821 C2359,2815 2340,2782 2324,2747 C2298,2692 2295,2674 2295,2585 C2295,2496 2298,2479 2323,2428 C2382,2308 2549,2210 2740,2185 C2770,2181 2801,2174 2809,2170 C2818,2165 2731,2101 2534,1970 C2375,1864 2150,1712 2033,1633 C1917,1555 1816,1490 1811,1490 C1797,1490 1797,1577 1810,1784 C1816,1871 1818,1946 1814,1949 C1811,1952 1800,1944 1791,1931 C1714,1819 1387,1258 1300,1088 C1275,1040 1259,998 1263,994 C1266,990 1287,998 1307,1012 C1340,1033 1498,1122 1715,1240 C1884,1332 2004,1398 2090,1445 C2180,1495 2229,1521 2480,1652 C2538,1683 2605,1719 2630,1732 C2655,1745 2736,1789 2810,1830 C2884,1870 2999,1933 3065,1970 C3131,2007 3214,2053 3250,2072 C3517,2215 3716,2333 3825,2415 C4194,2693 4353,3009 4351,3460 C4351,3651 4314,3800 4226,3965 C4157,4096 4151,4145 4176,4380 L4181,4435 L4144,4395 C4040,4282 3970,4012 3970,3720 C3970,3643 3973,3580 3978,3580 C3982,3580 3993,3616 4003,3661 C4032,3790 4079,3880 4117,3880 C4138,3880 4163,3832 4177,3766 C4194,3682 4194,3429 4175,3342 C4114,3048 3933,2817 3628,2643 C3546,2596 3354,2523 3343,2534 C3340,2537 3362,2560 3391,2587 C3467,2655 3512,2703 3583,2793 C3775,3035 3820,3190 3915,3925 C3952,4209 3997,4366 4063,4438 L4083,4460 L4014,4459 C3976,4459 3925,4453 3900,4446 "/>
</g>

<g fill="none" stroke="#000000" stroke-opacity="1" stroke-width="1" stroke-linecap="square" stroke-linejoin="bevel" transform="matrix(1,0,0,1,0,0)" font-family="Microsoft YaHei, Helvetica, Tahoma, Arial, PingFang SC, Hiragino Sans GB, Heiti SC, STXihei, SimHei, WenQuanYi Micro Hei" font-size="9" font-weight="400" font-style="normal">
</g>

<g fill="#000000" fill-opacity="1" stroke="#000000" stroke-opacity="1" stroke-width="1" stroke-linecap="square" stroke-linejoin="bevel" transform="matrix(1,0,0,1,0,0)" font-family="Microsoft YaHei, Helvetica, Tahoma, Arial, PingFang SC, Hiragino Sans GB, Heiti SC, STXihei, SimHei, WenQuanYi Micro Hei" font-size="9" font-weight="400" font-style="normal">
<path vector-effect="non-scaling-stroke" fill-rule="evenodd" d="M36.8652,54.3965 C35.9731,55.0881 36.3416,56.3658 36.1078,57.3352 C35.8921,58.8444 35.1002,60.4516 33.666,61.1113 C33.0773,61.2329 32.8529,60.3836 33.3496,60.1035 C34.4779,58.9682 34.8751,57.3571 34.8803,55.7996 C34.8314,55.5285 35.1669,54.4334 34.7461,55.1172 C34.2739,56.4142 34.3108,57.9476 33.3066,59.0176 C33.0456,59.4299 32.3379,60.1013 31.9453,59.459 C31.7259,58.8397 32.5197,58.4453 32.6424,57.8799 C33.0947,57.0716 32.5855,57.736 32.248,57.9767 C31.9143,58.3312 31.0696,58.766 30.8613,58.0625 C30.8139,57.402 31.6757,57.1557 31.902,56.5914 C32.3833,55.894 31.8709,56.0479 31.3652,56.3105 C29.9781,56.7469 28.1345,57.0052 27.6055,58.5977 C27.3841,59.3538 27.3293,60.3774 27.5254,61.0234 C28.3097,60.0829 29.8473,59.5465 30.8926,60.3594 C31.2495,60.9108 30.4295,61.3875 30.6595,61.981 C30.8263,62.8922 31.9383,62.9218 32.6445,63.1563 C33.1666,63.518 32.671,64.1568 32.2386,64.3296 C31.6993,64.7073 31.1478,65.0671 30.6035,65.4375 C32.6192,64.3003 34.736,63.3179 36.6337,61.9877 C37.2452,61.5074 37.7886,60.9141 38.1133,60.2012 C37.3116,61.3669 36.0215,62.2962 34.6113,62.498 C34.0388,62.4119 34.1032,61.6296 34.5547,61.4063 C35.712,60.4545 36.2976,59.0203 36.4341,57.555 C36.6186,56.4796 36.6726,55.3742 36.9746,54.3184 L36.8932,54.3765 L36.8652,54.3965"/>
</g>

<g fill="none" stroke="#000000" stroke-opacity="1" stroke-width="1" stroke-linecap="square" stroke-linejoin="bevel" transform="matrix(1,0,0,1,0,0)" font-family="Microsoft YaHei, Helvetica, Tahoma, Arial, PingFang SC, Hiragino Sans GB, Heiti SC, STXihei, SimHei, WenQuanYi Micro Hei" font-size="9" font-weight="400" font-style="normal">
</g>

<g fill="#000000" fill-opacity="1" stroke="#000000" stroke-opacity="1" stroke-width="1" stroke-linecap="square" stroke-linejoin="bevel" transform="matrix(1,0,0,1,0,0)" font-family="Microsoft YaHei, Helvetica, Tahoma, Arial, PingFang SC, Hiragino Sans GB, Heiti SC, STXihei, SimHei, WenQuanYi Micro Hei" font-size="9" font-weight="400" font-style="normal">
<path vector-effect="non-scaling-stroke" fill-rule="evenodd" d="M27.3574,66.5898 C27.0851,67.0642 26.5603,67.7844 27.4023,67.1621 C27.9326,67.0255 27.6919,66.8988 27.5371,66.5664 C27.5184,66.2063 27.5126,66.3583 27.3574,66.5898 "/>
</g>

<g fill="none" stroke="#000000" stroke-opacity="1" stroke-width="1" stroke-linecap="square" stroke-linejoin="bevel" transform="matrix(1,0,0,1,0,0)" font-family="Microsoft YaHei, Helvetica, Tahoma, Arial, PingFang SC, Hiragino Sans GB, Heiti SC, STXihei, SimHei, WenQuanYi Micro Hei" font-size="9" font-weight="400" font-style="normal">
</g>
</g>
</svg>