<?xml version="1.0" standalone="no"?>
<!DOCTYPE svg PUBLIC "-//W3C//DTD SVG 20010904//EN"
 "http://www.w3.org/TR/2001/REC-SVG-20010904/DTD/svg10.dtd">
<svg version="1.0" xmlns="http://www.w3.org/2000/svg"
 width="295.794048pt" height="487.889689pt" viewBox="0 0 295.794048 487.889689"
 preserveAspectRatio="xMidYMid meet">
<metadata>
Created by potrace 1.16, written by Peter Selinger 2001-2019
</metadata>
<g transform="translate(-43.616624,504.000000) scale(0.100000,-0.100000)"
fill="#000000" stroke="none">
<path d="M1423 4803 l2 -238 493 0 492 -1 0 226 c0 125 -3 230 -7 234 -7 7
-63 -49 -63 -63 0 -4 -27 -29 -60 -54 -51 -40 -67 -47 -104 -47 -56 0 -124 35
-195 100 -30 28 -56 50 -57 50 -1 0 -20 -17 -41 -38 -40 -40 -126 -102 -146
-106 -7 -2 -28 -6 -48 -10 -28 -6 -46 -3 -80 15 -44 22 -123 96 -155 143 -9
14 -20 26 -25 26 -5 0 -8 -107 -6 -237z"/>
<path d="M2579 4693 c-5 -16 -17 -48 -27 -73 -20 -54 -74 -152 -110 -199 -36
-48 -133 -140 -154 -147 -10 -3 -18 -10 -18 -15 0 -6 -4 -8 -9 -4 -6 3 -15 -3
-20 -14 -7 -12 -26 -21 -56 -25 -25 -4 -45 -11 -45 -16 0 -16 44 -23 144 -22
106 2 142 11 255 69 40 20 69 29 76 23 12 -10 213 -7 265 4 41 9 110 53 118
76 10 29 35 50 59 50 44 0 91 37 132 103 12 19 32 38 46 41 41 10 97 54 127
99 55 82 79 77 -372 77 l-400 0 -11 -27z"/>
<path d="M438 4694 c-9 -9 22 -66 56 -102 30 -33 97 -72 122 -72 7 0 20 -15
29 -34 9 -19 24 -41 33 -49 27 -24 91 -57 111 -57 10 0 32 -18 50 -40 55 -69
92 -80 267 -80 150 0 153 -1 211 -30 32 -17 90 -37 128 -45 71 -15 210 -20
239 -9 26 10 18 31 -14 38 -88 17 -243 154 -325 287 -30 49 -55 96 -55 104 0
8 -8 33 -17 55 l-18 40 -406 0 c-223 0 -408 -3 -411 -6z"/>
<path d="M1901 4253 c-8 -16 -18 -37 -24 -48 -75 -141 -126 -253 -121 -267 3
-9 18 -31 33 -47 35 -38 41 -66 41 -201 l0 -107 -50 -7 c-27 -4 -52 -11 -55
-15 -3 -5 -23 -12 -45 -16 -22 -4 -42 -11 -46 -16 -3 -5 -12 -9 -19 -9 -42 0
-243 -157 -279 -218 -6 -10 -26 -44 -43 -73 -43 -71 -83 -193 -91 -277 l-7
-67 -146 -3 c-121 -2 -148 0 -159 13 -7 8 -21 15 -31 15 -9 0 -27 14 -39 30
-25 35 -32 36 -87 7 -23 -12 -99 -51 -168 -87 l-126 -65 33 -27 c18 -16 36
-28 41 -28 9 0 34 -12 192 -94 79 -41 110 -45 118 -17 2 11 24 29 47 41 36 19
65 23 194 27 l151 6 16 -45 c14 -38 15 -50 3 -84 -20 -60 -32 -170 -21 -191
15 -27 155 -153 171 -153 4 0 24 -11 44 -25 66 -45 145 -25 169 42 25 67 63
226 63 261 0 35 -40 93 -76 112 -52 26 -84 51 -84 66 0 12 29 14 170 14 94 0
170 -3 171 -7 5 -42 2 -376 -3 -380 -5 -2 -8 -13 -8 -24 0 -10 -6 -19 -14 -19
-18 0 -142 -121 -192 -185 -110 -144 -146 -278 -125 -456 20 -162 78 -262 262
-451 l87 -88 1 -216 c2 -241 -6 -284 -62 -338 l-30 -29 49 -93 c27 -52 52 -94
56 -94 4 0 13 -18 19 -40 7 -22 15 -40 19 -40 5 0 11 -11 14 -25 4 -14 14 -34
23 -44 15 -18 18 -16 51 52 19 40 39 79 43 87 5 8 28 56 53 105 l45 90 -27 30
c-50 55 -56 74 -34 99 35 37 83 144 93 208 11 66 6 174 -9 205 -5 10 -20 41
-33 68 -13 28 -36 68 -51 90 l-27 40 -2 425 c-1 234 -1 431 0 438 0 6 8 12 16
12 9 0 18 7 21 15 4 8 10 15 15 15 31 0 278 171 335 232 74 80 155 223 166
293 3 19 12 20 190 23 l187 2 47 -45 c41 -41 48 -44 63 -32 9 7 54 33 101 57
47 23 105 54 130 69 25 14 54 31 65 37 11 6 20 15 19 20 -1 9 -121 76 -199
110 -22 10 -64 30 -93 46 l-54 28 -24 -29 c-45 -54 -82 -63 -251 -66 l-153 -2
0 53 c0 29 -4 55 -9 58 -4 3 -11 27 -14 53 -5 42 -38 128 -67 173 -5 8 -17 29
-26 47 -9 18 -51 68 -94 111 -100 100 -205 160 -330 187 l-55 12 0 84 c0 123
12 191 39 222 13 15 28 27 35 27 20 0 11 27 -46 139 -32 62 -71 136 -86 166
-31 61 -47 68 -66 28z m-70 -1148 c1 -96 2 -183 3 -192 1 -24 -79 -34 -239
-31 l-120 3 1 30 c1 84 53 177 142 255 49 44 161 103 205 109 4 1 8 -78 8
-174z m229 155 c0 -5 9 -10 20 -10 47 0 178 -122 221 -205 22 -42 51 -134 44
-144 -1 -3 -74 -6 -162 -6 l-158 0 0 180 c0 99 1 183 3 188 5 11 32 9 32 -3z
m256 -593 c-21 -52 -104 -156 -148 -185 -70 -47 -113 -72 -124 -72 -7 0 -12
38 -13 113 -1 61 -2 119 -3 127 -4 51 -8 50 152 50 l150 0 -14 -33z m-472
-967 c0 -110 -3 -202 -6 -206 -18 -17 -78 158 -78 225 0 31 65 181 78 181 4 0
7 -90 6 -200z"/>
</g>
</svg>
