<?xml version="1.0" standalone="no"?>
<!DOCTYPE svg PUBLIC "-//W3C//DTD SVG 20010904//EN"
 "http://www.w3.org/TR/2001/REC-SVG-20010904/DTD/svg10.dtd">
<svg version="1.0" xmlns="http://www.w3.org/2000/svg"
 width="327.271262pt" height="334.963515pt" viewBox="0 0 327.271262 334.963515"
 preserveAspectRatio="xMidYMid meet">
<metadata>
Created by potrace 1.16, written by Peter Selinger 2001-2019
</metadata>
<g transform="translate(-15.704345,347.321639) scale(0.100000,-0.100000)"
fill="#000000" stroke="none">
<path d="M1570 3470 c-84 -8 -210 -33 -231 -46 -8 -5 -21 -9 -29 -11 -23 -3
-90 -37 -90 -45 0 -5 -8 -8 -18 -8 -10 0 -22 -3 -26 -7 -4 -5 -13 -8 -19 -8
-7 -1 -11 -6 -9 -13 1 -7 -4 -12 -12 -12 -7 0 -21 -10 -30 -22 -9 -13 -14 -17
-10 -10 4 10 1 13 -12 10 -11 -2 -20 -13 -22 -25 -4 -25 -32 -39 -44 -21 -5 9
-8 6 -8 -10 0 -15 -7 -26 -20 -29 -11 -3 -20 -9 -20 -14 0 -5 -9 -9 -20 -9
-11 0 -19 -6 -18 -12 2 -7 -5 -12 -14 -10 -10 2 -18 -2 -18 -8 0 -6 -5 -8 -10
-5 -6 4 -34 -16 -63 -43 -109 -104 -130 -122 -144 -122 -8 0 -12 -4 -9 -9 6
-9 -86 -81 -104 -81 -6 0 -15 -11 -20 -24 -5 -13 -18 -27 -29 -31 -12 -3 -21
-10 -21 -15 0 -5 -6 -7 -14 -4 -9 3 -17 -3 -21 -15 -3 -11 -17 -29 -30 -39
-13 -10 -26 -35 -30 -55 -4 -20 -14 -42 -22 -49 -8 -7 -19 -21 -24 -33 -6 -11
-15 -29 -22 -40 -32 -52 -41 -71 -39 -82 2 -7 -1 -13 -5 -13 -10 0 -25 -36
-51 -125 -26 -87 -33 -124 -39 -200 -9 -128 -13 -164 -28 -285 -9 -69 -17
-152 -18 -185 -1 -73 9 -230 16 -242 3 -4 8 -44 12 -88 7 -89 32 -181 71 -258
8 -16 14 -39 14 -52 0 -13 5 -27 10 -30 6 -4 19 -23 29 -43 19 -38 141 -172
156 -172 10 0 172 -165 185 -189 5 -10 24 -28 42 -40 35 -25 103 -104 103
-121 0 -6 6 -14 13 -19 7 -4 12 -14 10 -22 -2 -9 4 -13 15 -11 9 2 17 -2 17
-8 0 -5 6 -10 14 -10 8 0 20 -12 27 -27 7 -16 31 -42 53 -58 23 -17 45 -41 51
-53 5 -12 18 -22 28 -22 19 0 58 -20 69 -35 4 -5 21 -8 38 -7 17 2 38 -2 45
-8 8 -7 24 -10 35 -7 11 3 20 1 20 -3 0 -5 19 -11 43 -15 65 -11 80 -24 27
-25 -36 0 -41 -3 -27 -11 12 -7 68 -7 180 0 89 5 174 8 190 6 15 -2 27 0 27 5
0 4 71 8 158 9 86 0 173 6 192 11 19 6 50 13 69 15 30 5 88 31 101 46 16 19
60 31 114 32 33 0 64 5 68 11 11 17 64 -16 60 -37 -2 -9 1 -17 6 -17 17 0 42
36 42 61 1 33 52 83 78 75 22 -7 196 73 231 106 11 10 23 18 27 18 16 0 141
101 156 127 9 15 44 57 78 93 71 75 100 113 100 132 0 7 17 31 38 54 35 38 64
86 76 127 4 12 16 17 46 17 50 0 80 15 80 39 0 26 -23 33 -49 15 -18 -13 -23
-13 -35 -1 -20 20 -4 41 24 32 15 -5 20 -3 16 3 -4 6 1 15 11 20 15 9 15 12 3
27 -11 14 -11 18 0 25 9 5 11 21 8 48 -4 27 -1 48 9 62 8 11 17 36 19 56 2 19
11 53 19 77 17 48 20 187 5 187 -10 0 -15 -54 -11 -125 1 -22 -4 -48 -11 -58
-12 -16 -13 -13 -10 23 2 23 1 84 -3 137 -5 71 -10 93 -20 89 -15 -5 -25 42
-25 122 0 28 -4 52 -10 52 -5 0 -10 -8 -10 -17 0 -9 -2 -14 -5 -11 -10 10 -14
157 -5 163 5 3 6 13 3 23 -6 15 -5 15 10 3 28 -22 47 -7 40 33 -4 24 -1 40 9
49 10 10 14 36 14 81 -1 47 3 66 12 66 6 0 12 5 12 11 0 6 -6 9 -14 6 -20 -8
-27 18 -20 74 6 41 4 49 -10 49 -9 0 -16 5 -16 10 0 6 -11 15 -25 20 -14 5
-28 16 -31 25 -4 11 -14 13 -33 8 -23 -6 -25 -5 -12 11 18 21 6 34 -19 19 -16
-11 -21 -7 -41 25 -13 20 -22 41 -21 45 5 17 -46 90 -115 167 -13 14 -23 29
-23 35 0 5 -14 26 -30 45 -16 19 -30 40 -30 47 0 26 -76 121 -87 109 -4 -3
-16 3 -28 14 -12 11 -76 57 -142 103 -75 52 -118 87 -115 96 5 14 -38 58 -77
79 -14 7 -37 10 -53 7 -34 -8 -44 -5 -40 12 2 7 -2 13 -8 13 -6 0 -8 -4 -5
-10 16 -26 -38 -4 -261 108 -24 12 -47 29 -50 37 -4 8 -10 15 -16 15 -5 0 -6
-5 -2 -11 8 -14 -38 -1 -47 13 -20 31 -321 62 -469 48z m110 -300 c-13 -8 -12
-10 3 -10 10 0 16 -4 13 -9 -4 -5 -1 -11 6 -13 16 -6 24 -123 8 -133 -12 -8
-50 22 -50 39 0 6 5 3 11 -6 12 -22 39 -24 39 -3 0 8 -3 15 -7 15 -5 0 -21 11
-37 25 -16 14 -40 25 -54 25 -16 0 -22 4 -19 14 3 7 1 18 -5 24 -24 24 0 42
54 42 38 0 49 -3 38 -10z m197 -3 c4 -7 21 -18 36 -25 24 -10 31 -10 43 3 20
19 28 19 20 0 -7 -19 21 -32 36 -17 12 12 90 3 101 -12 6 -8 10 -7 14 1 3 10
13 9 41 -3 20 -9 53 -21 72 -26 19 -6 41 -15 47 -20 16 -13 7 -29 -12 -21 -10
3 -15 -1 -15 -12 0 -9 5 -13 10 -10 17 11 11 -7 -7 -21 -24 -18 -33 -17 -33 1
0 8 -4 15 -10 15 -5 0 -10 -9 -10 -20 0 -11 -7 -20 -15 -20 -8 0 -15 -4 -15
-9 0 -5 -19 -18 -42 -29 -41 -19 -138 -79 -167 -104 -10 -8 -21 -9 -43 0 -16
6 -36 8 -44 5 -23 -9 -80 61 -81 100 0 20 1 23 4 10 5 -27 23 -31 24 -5 0 9 2
32 5 50 2 18 -1 32 -6 32 -6 0 -8 12 -4 28 26 123 33 138 51 109z m-700 -179
c0 -13 4 -41 7 -63 3 -22 8 -59 10 -83 2 -24 6 -45 9 -48 2 -2 2 -48 -1 -101
-4 -70 -2 -94 7 -89 15 10 14 -13 -4 -64 -8 -23 -15 -54 -16 -69 0 -22 -2 -23
-8 -7 -4 11 -18 21 -32 23 -54 9 -505 9 -517 0 -19 -15 -4 23 21 50 10 12 16
26 13 32 -4 6 4 13 18 17 14 3 27 15 30 30 4 13 11 24 16 24 6 0 10 9 10 20 0
11 5 20 10 20 6 0 10 8 11 18 0 10 3 12 6 5 7 -18 23 -16 23 1 0 8 8 21 18 28
10 7 17 23 16 36 -1 12 5 23 12 23 8 1 18 2 23 3 13 1 51 43 51 54 0 5 11 14
25 20 14 6 25 16 25 22 0 5 7 10 16 10 10 0 14 6 10 15 -5 13 2 16 29 15 3 -1
13 6 21 15 9 8 22 15 30 15 9 0 22 7 30 15 9 8 26 15 39 15 13 0 27 5 30 10 9
14 10 13 12 -12z m216 -27 c15 -8 27 -17 27 -20 0 -14 58 -69 81 -76 28 -9
136 -113 140 -135 1 -8 0 -26 -4 -40 -3 -14 -9 -42 -12 -62 -3 -21 -11 -38
-17 -38 -16 0 -37 -32 -38 -57 0 -28 -4 -30 -70 -34 -30 -2 -58 -8 -62 -14 -7
-9 -14 127 -9 164 2 7 -4 11 -11 9 -9 -4 -12 -22 -10 -65 2 -37 0 -63 -7 -67
-7 -5 -11 9 -11 41 0 26 -7 68 -16 92 -8 24 -18 89 -21 143 -5 89 -8 98 -26
98 -17 0 -19 5 -13 42 7 46 25 65 41 45 6 -6 22 -18 38 -26z m1163 -86 c83
-77 79 -74 157 -156 89 -94 177 -207 177 -226 0 -3 14 -22 30 -43 17 -21 30
-43 30 -48 0 -6 9 -17 21 -25 27 -20 23 -63 -6 -59 -11 1 -51 5 -90 9 -38 3
-73 10 -76 15 -4 6 -36 7 -78 2 -40 -4 -68 -11 -64 -15 5 -5 64 -13 131 -19
137 -12 202 -28 117 -29 -27 -1 -88 4 -135 10 -47 5 -125 14 -175 19 -49 5
-97 11 -105 13 -90 23 -93 35 -10 34 34 0 66 5 72 11 9 9 -5 12 -59 12 l-71 0
-6 73 c-12 147 -3 316 23 405 13 45 29 82 35 82 7 0 43 -29 82 -65z m-245 -89
c5 -6 9 -17 9 -25 0 -14 -1 -14 -10 -1 -12 19 -12 22 -10 -152 1 -149 -6 -179
-32 -123 -6 14 -15 25 -19 25 -5 0 -23 17 -41 37 -18 20 -48 52 -66 71 -18 18
-32 37 -30 42 6 16 78 90 88 90 5 0 10 5 10 10 0 6 7 10 15 10 8 0 28 17 43
39 27 38 27 38 30 12 2 -14 8 -30 13 -35z m-391 21 c0 -5 -4 -5 -10 -2 -5 3
-10 14 -10 23 0 15 2 15 10 2 5 -8 10 -19 10 -23z m-4 -315 c-5 -13 1 -22 16
-30 20 -9 17 -11 -25 -11 -41 -1 -48 2 -45 17 2 9 12 17 22 17 11 0 21 6 24
13 2 6 6 12 9 12 2 0 2 -8 -1 -18z m-53 -69 c-7 -2 -21 -2 -30 0 -10 3 -4 5
12 5 17 0 24 -2 18 -5z m80 -10 c-7 -2 -19 -2 -25 0 -7 3 -2 5 12 5 14 0 19
-2 13 -5z m-50 -60 c-7 -2 -19 -2 -25 0 -7 3 -2 5 12 5 14 0 19 -2 13 -5z
m-693 -61 c3 -1 -1 -6 -8 -10 -10 -7 -10 -15 -2 -36 5 -15 10 -36 10 -48 0
-27 -71 -117 -92 -118 -10 0 -18 -7 -18 -16 0 -20 -28 -43 -52 -44 -10 0 -20
-11 -24 -25 -5 -21 -9 -23 -25 -14 -10 5 -19 15 -19 21 0 15 -44 55 -70 63
-11 3 -20 11 -20 17 0 6 6 6 15 -2 13 -11 14 -10 9 4 -3 9 -12 15 -20 14 -16
-3 -74 33 -74 45 0 14 -44 46 -62 47 -21 0 -25 36 -6 42 8 3 4 9 -10 17 -12 6
-22 15 -22 20 0 9 94 30 155 34 38 2 324 -8 335 -11z m1797 -8 c-3 -3 -12 -4
-19 -1 -8 3 -5 6 6 6 11 1 17 -2 13 -5z m-1422 -22 c30 -21 80 -106 76 -129
-1 -6 6 -18 16 -25 20 -15 38 -40 53 -75 5 -13 16 -23 24 -23 9 0 13 -6 10
-14 -4 -11 4 -16 28 -18 23 -2 33 -8 33 -20 0 -10 10 -25 23 -33 15 -11 22
-26 22 -50 0 -19 5 -37 11 -41 6 -3 8 -15 6 -26 -3 -11 2 -27 13 -38 11 -11
15 -22 10 -25 -4 -3 -12 -20 -16 -37 -9 -45 -35 -83 -45 -67 -10 17 -42 2 -35
-16 3 -8 1 -15 -4 -15 -6 0 -10 7 -10 15 0 8 -6 15 -14 15 -7 0 -17 10 -21 23
-18 51 -22 78 -14 83 15 9 10 71 -6 78 -9 3 -15 18 -15 37 0 35 -20 99 -31 99
-3 0 -18 12 -34 26 -32 30 -82 31 -77 2 2 -11 -3 -18 -14 -18 -9 0 -39 -22
-66 -50 -27 -27 -51 -50 -53 -50 -2 0 -9 18 -15 40 -14 52 -35 54 -27 3 5 -26
3 -33 -3 -23 -5 8 -10 22 -10 31 0 9 -7 20 -16 23 -12 5 -15 21 -12 91 2 60 6
85 15 85 7 0 13 5 13 10 0 6 7 10 15 10 9 0 26 9 38 21 12 11 32 25 45 30 12
5 22 15 22 24 0 15 34 55 48 55 4 0 12 -4 17 -8z m520 -2 c21 0 26 -3 16 -9
-9 -6 2 -11 37 -16 42 -5 56 -14 94 -53 54 -56 76 -94 59 -100 -16 -5 -14 -32
3 -38 8 -3 14 -15 14 -27 0 -12 2 -78 5 -147 5 -123 -3 -102 -17 45 -8 79 -25
112 -27 50 -2 -75 2 -180 12 -285 21 -241 21 -250 10 -250 -6 0 -11 5 -11 10
0 6 -5 10 -11 10 -6 0 -9 -7 -5 -15 3 -9 0 -15 -9 -15 -8 0 -15 -7 -15 -15 0
-8 -4 -15 -10 -15 -5 0 -10 -7 -10 -16 0 -8 -4 -12 -10 -9 -5 3 -10 1 -10 -4
0 -6 -18 -18 -40 -27 -22 -9 -40 -22 -40 -30 0 -8 -6 -14 -14 -14 -27 0 -46
12 -46 30 0 12 -8 18 -25 18 -14 0 -25 -5 -25 -11 0 -7 -4 -7 -12 1 -15 15
-28 16 -28 2 0 -5 7 -10 15 -10 8 0 15 -4 15 -10 0 -5 5 -10 11 -10 5 0 7 5 3
11 -4 7 1 9 12 7 11 -2 18 -10 17 -16 -2 -7 5 -12 14 -12 22 0 12 -10 -16 -15
-12 -2 -19 0 -16 5 3 5 -22 10 -57 10 -89 1 -108 3 -108 12 0 4 -7 8 -15 8 -8
0 -15 4 -15 8 0 4 -18 13 -40 19 -22 5 -40 7 -40 2 0 -4 6 -9 13 -12 26 -9 0
-15 -38 -8 -35 6 -37 8 -17 15 34 11 26 23 -15 21 -21 -1 -46 2 -55 7 -10 5
-18 5 -18 1 0 -4 -13 -8 -30 -8 -16 0 -30 3 -30 6 0 4 -13 9 -30 13 -17 3 -30
12 -30 20 0 8 -9 17 -19 21 -12 4 -18 12 -14 20 3 8 -2 18 -11 21 -9 3 -16 12
-16 20 0 8 -5 14 -11 14 -8 0 -10 38 -7 133 5 153 22 210 30 104 5 -61 9 -69
44 -102 21 -20 54 -43 73 -52 35 -16 92 -55 119 -80 7 -7 25 -16 40 -19 47
-10 52 -13 46 -27 -10 -26 40 -38 91 -21 25 9 45 20 45 25 0 4 7 6 15 3 9 -4
15 0 15 10 0 10 6 13 15 10 8 -4 15 -2 15 4 0 6 -6 13 -12 15 -13 5 16 11 40
8 6 -1 12 3 12 9 0 6 8 10 18 8 12 -2 16 3 15 17 -1 11 9 42 22 69 21 44 24
76 6 76 -3 0 -7 39 -8 88 -3 84 -15 129 -40 145 -7 4 -13 19 -13 32 0 18 -7
26 -25 31 -14 3 -26 14 -27 23 -1 9 -2 23 -3 31 -1 23 -15 41 -26 35 -5 -4 -9
1 -9 9 0 9 -4 16 -9 16 -5 0 -13 9 -16 21 -4 11 -13 18 -20 15 -15 -5 -84 66
-102 106 l-12 27 52 3 c29 2 95 2 147 0 52 -2 109 -3 125 -2z m-1512 -70 c8 0
17 6 20 13 4 12 66 -40 67 -57 0 -5 11 -19 25 -32 14 -13 30 -35 35 -49 5 -14
16 -25 24 -25 9 0 22 -12 30 -27 8 -16 26 -38 41 -51 17 -15 24 -29 21 -39 -4
-9 0 -26 9 -39 8 -13 12 -31 8 -40 -5 -14 -3 -16 11 -11 10 4 15 3 11 -3 -3
-6 -15 -10 -26 -10 -30 0 -59 -18 -59 -38 -1 -16 -30 -64 -30 -48 0 4 -15 -4
-34 -19 -26 -20 -40 -24 -65 -19 -37 8 -107 -21 -114 -46 -2 -9 -24 -22 -48
-29 -57 -16 -109 -42 -109 -53 0 -4 -9 -8 -19 -8 -17 0 -19 7 -19 64 0 35 -3
69 -6 75 -4 5 -2 41 5 78 6 37 11 97 11 133 0 39 4 68 11 72 9 6 9 10 -1 16
-10 7 -10 11 3 22 8 7 15 19 15 26 0 8 5 14 10 14 6 0 10 5 10 10 0 6 11 21
25 34 14 13 25 30 25 39 0 9 5 19 10 22 6 4 8 15 5 25 -4 12 2 24 16 33 20 14
23 14 44 -9 12 -13 29 -24 38 -24z m1995 39 c-2 -6 3 -14 10 -16 6 -3 12 -1
12 4 0 9 98 9 150 -1 19 -3 75 -8 124 -11 73 -3 93 -8 110 -25 18 -18 18 -20
3 -20 -9 0 -17 -4 -17 -10 0 -5 -7 -10 -15 -10 -11 0 -13 -8 -8 -30 4 -20 2
-30 -7 -30 -7 0 -10 -7 -6 -15 3 -9 -14 -34 -44 -65 -28 -28 -50 -58 -50 -67
0 -9 -6 -13 -15 -9 -9 3 -18 -1 -21 -8 -3 -8 -13 -12 -24 -9 -27 7 -121 110
-114 126 3 8 -13 33 -35 58 -23 24 -41 47 -41 52 0 5 -9 7 -20 4 -24 -6 -41
13 -34 40 3 11 1 24 -5 27 -21 13 -11 26 19 26 17 0 29 -5 28 -11z m10 -124
c-3 -3 -9 2 -12 12 -6 14 -5 15 5 6 7 -7 10 -15 7 -18z m57 -55 c16 -17 16
-20 3 -15 -9 4 -19 13 -22 21 -7 19 -2 18 19 -6z m56 -112 c16 -29 2 -21 -22
15 -17 23 -18 28 -6 18 10 -8 23 -23 28 -33z m-1507 -44 c3 -9 6 -42 6 -74 0
-37 5 -60 13 -63 6 -3 3 -6 -8 -7 -20 -1 -20 -1 -1 -15 11 -8 17 -17 14 -21
-4 -3 -27 13 -52 37 -35 32 -45 47 -40 62 4 11 1 23 -7 28 -11 8 -9 14 11 29
14 11 30 24 35 29 15 14 22 13 29 -5z m1307 -28 c15 -13 32 -26 36 -28 14 -6
83 -96 83 -108 0 -7 -18 10 -41 39 -39 49 -78 74 -45 29 56 -78 66 -96 60
-111 -3 -10 -12 -17 -20 -17 -8 0 -14 -7 -14 -15 0 -8 -7 -15 -15 -15 -8 0
-15 -4 -15 -9 0 -5 -8 -11 -17 -15 -10 -3 -26 -11 -35 -18 -9 -7 -19 -10 -22
-7 -3 3 -8 67 -12 143 -5 111 -3 140 7 147 19 12 17 12 50 -15z m644 -39 c19
-54 26 -151 17 -241 l-7 -78 -54 58 c-29 33 -80 87 -113 122 l-59 63 39 32
c22 18 49 39 62 47 12 8 29 20 38 27 31 23 63 10 77 -30z m-1741 -207 c6 -115
6 -116 -16 -117 -16 -2 -19 0 -9 6 7 5 10 14 6 20 -13 21 -16 69 -5 76 16 10
12 35 -7 36 -17 1 -17 2 0 6 13 3 17 15 17 50 0 82 7 41 14 -77z m1531 90 c7
0 15 -7 19 -15 5 -13 2 -13 -19 1 -14 9 -24 24 -24 33 1 14 2 13 6 -1 2 -10
10 -18 18 -18z m-1893 -41 c26 -28 52 -48 58 -44 7 4 10 1 8 -8 -2 -8 23 -44
55 -80 57 -65 71 -92 42 -81 -18 7 -20 -7 -4 -23 18 -18 3 -62 -20 -56 -18 4
-36 -20 -27 -36 3 -4 -21 -8 -52 -8 -88 0 -156 -6 -167 -14 -5 -4 -31 -6 -58
-5 -26 0 -47 -2 -47 -5 0 -3 -15 -6 -32 -7 -18 0 -61 -4 -96 -8 -69 -7 -85 0
-71 31 22 48 99 153 119 160 8 3 4 -5 -9 -19 -14 -15 -19 -26 -13 -26 16 0 82
68 92 96 5 13 21 29 34 34 26 10 48 41 44 62 -2 6 2 12 7 13 14 1 52 24 40 25
-9 0 34 48 44 49 3 1 26 -22 53 -50z m2061 -144 c26 -25 44 -45 40 -45 -8 0
-93 78 -93 86 0 9 8 3 53 -41z m-333 20 c7 -8 18 -15 26 -15 7 0 19 -9 27 -20
7 -10 37 -45 66 -77 73 -82 74 -82 74 -109 0 -13 5 -24 13 -24 7 0 15 -3 17
-7 3 -5 -40 -9 -94 -11 -78 -2 -99 0 -99 11 0 9 -14 14 -42 15 -24 1 -96 7
-160 13 l-118 12 23 22 c12 11 54 48 93 81 92 76 106 89 122 108 16 20 36 20
52 1z m-1972 -15 c-7 -10 -14 -17 -17 -15 -4 4 18 35 25 35 2 0 -1 -9 -8 -20z
m2322 -70 c13 -11 19 -20 13 -20 -5 0 -18 9 -28 20 -10 11 -16 20 -13 20 3 0
15 -9 28 -20z m-829 -69 c-12 -12 -21 -18 -21 -14 0 10 33 44 37 39 3 -2 -5
-14 -16 -25z m-56 -61 c-3 -5 -12 -10 -18 -10 -7 0 -6 4 3 10 19 12 23 12 15
0z m-562 -7 c-7 -2 -19 -2 -25 0 -7 3 -2 5 12 5 14 0 19 -2 13 -5z m1684 -15
c-3 -8 -6 -5 -6 6 -1 11 2 17 5 13 3 -3 4 -12 1 -19z m-707 -28 c10 -6 2 -7
-25 -3 -49 7 -58 13 -19 13 16 0 36 -5 44 -10z m-627 -37 c-7 -2 -19 -2 -25 0
-7 3 -2 5 12 5 14 0 19 -2 13 -5z m-118 -79 l80 -7 -40 -13 c-22 -8 -48 -18
-58 -24 -28 -17 -102 -1 -152 32 -25 16 -45 33 -45 38 0 4 30 2 68 -6 37 -7
103 -16 147 -20z m-690 -8 c-4 -11 -6 -40 -5 -63 0 -23 -5 -51 -12 -62 -11
-18 -10 -23 9 -36 17 -12 20 -21 14 -38 -10 -27 -9 -118 2 -134 4 -6 3 -14 -3
-18 -6 -4 -10 -54 -10 -120 0 -65 -4 -116 -10 -120 -7 -4 -7 -12 0 -25 16 -29
12 -70 -6 -70 -35 0 -58 17 -174 131 -47 46 -117 105 -155 131 -78 52 -315
280 -315 303 0 8 -4 15 -8 15 -4 0 -14 15 -22 33 -7 17 -15 35 -18 40 -2 4 10
7 27 7 16 0 33 5 36 10 10 16 35 12 29 -5 -7 -17 21 -21 31 -5 3 6 13 10 22
10 12 0 14 -7 8 -36 -6 -35 -5 -36 17 -30 13 3 28 6 33 6 15 0 70 51 67 61 -2
10 12 12 21 3 3 -4 -4 -15 -16 -25 l-22 -18 23 -1 c12 0 22 5 22 10 0 6 7 10
15 10 8 0 15 6 15 14 0 18 26 27 56 20 25 -6 35 10 12 19 -7 3 5 4 27 3 22 0
43 -5 48 -11 4 -6 11 -4 17 5 8 12 13 13 30 3 25 -16 50 -17 50 -2 0 8 17 10
55 5 31 -3 55 -2 55 3 0 5 9 7 21 4 16 -4 19 -11 14 -27z m284 -44 c105 -112
135 -142 143 -142 5 0 14 -11 20 -25 6 -14 15 -25 20 -25 17 0 7 25 -24 57
-18 18 -28 33 -22 33 13 -1 64 -47 64 -60 0 -5 5 -10 10 -10 6 0 10 -4 10 -10
0 -5 -5 -10 -10 -10 -6 0 -22 -11 -36 -25 -14 -14 -29 -25 -34 -25 -6 0 -10
-7 -10 -16 0 -13 5 -12 26 5 28 22 44 27 44 12 0 -5 -9 -11 -21 -14 -12 -3
-18 -10 -14 -16 3 -6 0 -11 -7 -11 -8 0 -25 -13 -40 -30 -14 -16 -29 -26 -33
-22 -5 4 -5 -1 -2 -10 4 -11 1 -18 -6 -18 -7 0 -32 -18 -55 -40 -44 -42 -62
-50 -62 -25 0 8 -4 15 -9 15 -5 0 -12 11 -15 25 -3 13 -15 29 -26 35 -11 6
-18 15 -15 19 3 5 -1 23 -9 41 -10 24 -11 40 -3 60 9 22 7 33 -7 55 -16 24
-16 28 -2 44 16 17 22 41 10 41 -3 0 -15 -5 -26 -11 -20 -11 -20 -9 -16 47 3
33 9 68 13 78 6 14 5 17 -3 12 -7 -4 -12 -3 -12 3 0 12 35 18 80 13 26 -3 46
-16 79 -50z m776 -1 c17 -1 37 -7 45 -12 16 -9 18 -8 -29 -13 -8 0 -16 -7 -18
-13 -3 -9 7 -13 32 -13 35 0 36 -2 31 -27 -9 -47 -10 -108 -3 -121 5 -6 3 -21
-3 -33 -14 -25 -3 -142 11 -133 6 3 7 -27 3 -78 -4 -46 -11 -84 -15 -86 -5 -2
-9 -10 -9 -18 0 -19 -13 -18 -42 6 -14 10 -28 17 -31 13 -4 -3 -10 3 -14 13
-3 10 -15 25 -25 32 -10 7 -18 20 -18 28 0 8 -4 13 -9 10 -15 -9 -52 39 -45
59 5 13 3 16 -7 13 -14 -6 -77 35 -92 59 -4 7 -18 23 -31 36 -13 12 -26 30
-29 39 -6 17 23 58 42 58 6 0 11 5 11 11 0 5 14 15 30 20 17 6 30 14 30 19 0
4 14 13 30 20 18 8 30 20 30 31 0 12 7 19 19 19 11 0 22 4 25 9 3 4 17 6 31 3
25 -4 35 11 15 23 -5 3 -10 16 -10 28 0 12 4 17 8 12 4 -6 21 -12 37 -14z
m420 0 c16 -7 9 -10 -30 -15 -27 -4 -59 -11 -70 -16 -19 -8 -18 -9 5 -11 14
-1 34 -3 46 -4 11 -1 50 2 85 7 111 15 119 16 119 5 0 -6 18 -7 48 -3 26 4 65
9 86 12 38 4 39 4 22 -15 -10 -11 -16 -24 -13 -28 3 -5 -12 -29 -34 -52 -21
-24 -39 -45 -39 -47 0 -9 -127 -132 -160 -154 -19 -14 -42 -32 -52 -40 -9 -8
-29 -25 -45 -37 -15 -12 -42 -33 -59 -47 -17 -13 -43 -28 -60 -32 -16 -4 -36
-14 -44 -23 -13 -13 -16 3 -26 150 -12 175 -9 239 11 239 7 0 18 21 24 46 11
41 14 45 39 42 21 -2 26 1 24 15 -2 14 5 17 50 16 29 0 62 -4 73 -8z m-840
-27 c18 -7 17 -9 -9 -19 -25 -10 -32 -9 -47 6 -11 11 -19 21 -19 24 0 6 50 -1
75 -11z m492 -236 c-3 -8 -6 -5 -6 6 -1 11 2 17 5 13 3 -3 4 -12 1 -19z m-469
-115 c58 -45 162 -156 168 -180 4 -13 13 -23 21 -23 15 0 103 -82 103 -97 0
-19 -231 -69 -354 -76 -70 -4 -79 -3 -83 14 -4 16 -15 19 -59 19 -41 0 -54 4
-54 15 0 8 -5 15 -11 15 -5 0 -7 -4 -4 -10 4 -6 -5 -10 -20 -10 -20 0 -26 -4
-21 -15 6 -18 5 -18 -52 -4 -45 10 -72 29 -72 49 0 12 55 68 115 118 l40 33
-35 -7 c-19 -3 -33 -4 -30 -1 20 20 192 127 204 127 9 0 21 9 28 20 7 11 18
20 25 20 7 0 13 5 13 10 0 19 42 10 78 -17z m1072 -137 c0 -2 -7 -9 -15 -16
-12 -10 -15 -10 -15 4 0 9 7 16 15 16 8 0 15 -2 15 -4z"/>
<path d="M1856 2981 c-4 -5 -2 -12 3 -15 5 -4 12 -2 15 3 4 5 2 12 -3 15 -5 4
-12 2 -15 -3z"/>
<path d="M1856 2882 c-3 -6 -1 -14 5 -17 15 -10 25 3 12 16 -7 7 -13 7 -17 1z"/>
<path d="M690 2550 c0 -5 5 -10 10 -10 6 0 10 5 10 10 0 6 -4 10 -10 10 -5 0
-10 -4 -10 -10z"/>
<path d="M2510 2340 c0 -5 5 -10 10 -10 6 0 10 5 10 10 0 6 -4 10 -10 10 -5 0
-10 -4 -10 -10z"/>
<path d="M960 2080 c0 -5 5 -10 10 -10 6 0 10 5 10 10 0 6 -4 10 -10 10 -5 0
-10 -4 -10 -10z"/>
<path d="M985 2050 c3 -5 10 -10 16 -10 5 0 9 5 9 10 0 6 -7 10 -16 10 -8 0
-12 -4 -9 -10z"/>
<path d="M1440 2130 c0 -5 5 -10 10 -10 6 0 10 5 10 10 0 6 -4 10 -10 10 -5 0
-10 -4 -10 -10z"/>
<path d="M1390 1992 c0 -25 16 -37 23 -18 3 8 -1 20 -9 26 -11 10 -14 9 -14
-8z"/>
<path d="M1780 1956 c0 -9 5 -16 10 -16 6 0 10 4 10 9 0 6 -4 13 -10 16 -5 3
-10 -1 -10 -9z"/>
<path d="M2140 1780 c0 -5 5 -10 10 -10 6 0 10 5 10 10 0 6 -4 10 -10 10 -5 0
-10 -4 -10 -10z"/>
<path d="M1520 1442 c0 -12 67 -28 77 -18 10 9 2 14 -39 21 -25 5 -38 3 -38
-3z"/>
<path d="M1625 1430 c-3 -5 -1 -10 4 -10 6 0 11 5 11 10 0 6 -2 10 -4 10 -3 0
-8 -4 -11 -10z"/>
<path d="M1660 1430 c0 -5 7 -10 15 -10 8 0 15 5 15 10 0 6 -7 10 -15 10 -8 0
-15 -4 -15 -10z"/>
<path d="M1730 1430 c0 -5 5 -10 11 -10 5 0 7 5 4 10 -3 6 -8 10 -11 10 -2 0
-4 -4 -4 -10z"/>
<path d="M1810 1350 c0 -5 5 -10 10 -10 6 0 10 5 10 10 0 6 -4 10 -10 10 -5 0
-10 -4 -10 -10z"/>
<path d="M1866 1341 c-3 -5 8 -11 25 -13 29 -5 45 3 32 16 -9 9 -51 7 -57 -3z"/>
<path d="M1946 1341 c-4 -5 -2 -12 3 -15 5 -4 12 -2 15 3 4 5 2 12 -3 15 -5 4
-12 2 -15 -3z"/>
<path d="M2090 1320 c0 -5 4 -10 9 -10 6 0 13 5 16 10 3 6 -1 10 -9 10 -9 0
-16 -4 -16 -10z"/>
<path d="M1930 1306 c0 -2 7 -6 15 -10 8 -3 15 -1 15 4 0 6 -7 10 -15 10 -8 0
-15 -2 -15 -4z"/>
<path d="M470 1670 c0 -5 7 -10 15 -10 8 0 15 5 15 10 0 6 -7 10 -15 10 -8 0
-15 -4 -15 -10z"/>
<path d="M2735 1960 c3 -5 8 -10 11 -10 2 0 4 5 4 10 0 6 -5 10 -11 10 -5 0
-7 -4 -4 -10z"/>
<path d="M680 1390 c0 -5 5 -10 10 -10 6 0 10 5 10 10 0 6 -4 10 -10 10 -5 0
-10 -4 -10 -10z"/>
<path d="M700 1355 c0 -8 5 -15 10 -15 6 0 10 7 10 15 0 8 -4 15 -10 15 -5 0
-10 -7 -10 -15z"/>
<path d="M1105 1360 c-3 -5 3 -10 15 -10 12 0 18 5 15 10 -3 6 -10 10 -15 10
-5 0 -12 -4 -15 -10z"/>
<path d="M1025 1350 c-3 -5 1 -10 10 -10 9 0 13 5 10 10 -3 6 -8 10 -10 10 -2
0 -7 -4 -10 -10z"/>
<path d="M2533 1363 c-22 -8 -14 -23 12 -23 14 0 25 4 25 9 0 11 -21 19 -37
14z"/>
<path d="M2665 1340 c3 -5 8 -10 11 -10 2 0 4 5 4 10 0 6 -5 10 -11 10 -5 0
-7 -4 -4 -10z"/>
<path d="M2780 1330 c0 -5 7 -10 16 -10 8 0 12 5 9 10 -3 6 -10 10 -16 10 -5
0 -9 -4 -9 -10z"/>
<path d="M2870 1320 c0 -5 17 -10 38 -10 27 0 33 3 22 10 -20 13 -60 13 -60 0z"/>
<path d="M860 1120 c0 -5 7 -10 15 -10 8 0 15 5 15 10 0 6 -7 10 -15 10 -8 0
-15 -4 -15 -10z"/>
<path d="M1050 1120 c0 -5 20 -10 45 -10 25 0 45 5 45 10 0 6 -20 10 -45 10
-25 0 -45 -4 -45 -10z"/>
<path d="M928 1113 c7 -3 16 -2 19 1 4 3 -2 6 -13 5 -11 0 -14 -3 -6 -6z"/>
<path d="M1182 949 c2 -6 8 -10 13 -10 5 0 11 4 13 10 2 6 -4 11 -13 11 -9 0
-15 -5 -13 -11z"/>
<path d="M1160 550 c0 -5 5 -10 10 -10 6 0 10 5 10 10 0 6 -4 10 -10 10 -5 0
-10 -4 -10 -10z"/>
<path d="M1375 1140 c3 -5 8 -10 11 -10 2 0 4 5 4 10 0 6 -5 10 -11 10 -5 0
-7 -4 -4 -10z"/>
<path d="M1415 1140 c-18 -8 -17 -9 8 -9 16 -1 26 3 22 9 -3 6 -7 10 -8 9 -1
0 -11 -4 -22 -9z"/>
<path d="M2300 610 c0 -5 5 -10 10 -10 6 0 10 5 10 10 0 6 -4 10 -10 10 -5 0
-10 -4 -10 -10z"/>
<path d="M1618 619 c-10 -5 -18 -14 -18 -19 0 -17 15 -11 28 10 14 23 13 23
-10 9z"/>
<path d="M2152 3388 c5 -15 28 -23 28 -10 0 5 -7 13 -16 16 -10 4 -14 1 -12
-6z"/>
<path d="M980 3236 c0 -9 5 -16 10 -16 6 0 10 4 10 9 0 6 -4 13 -10 16 -5 3
-10 -1 -10 -9z"/>
<path d="M845 3180 c-3 -5 -1 -10 4 -10 6 0 11 5 11 10 0 6 -2 10 -4 10 -3 0
-8 -4 -11 -10z"/>
<path d="M786 3142 c-3 -6 -1 -14 5 -17 15 -10 25 3 12 16 -7 7 -13 7 -17 1z"/>
<path d="M825 3140 c4 -6 11 -8 16 -5 14 9 11 15 -7 15 -8 0 -12 -5 -9 -10z"/>
<path d="M680 3060 c0 -5 5 -10 10 -10 6 0 10 5 10 10 0 6 -4 10 -10 10 -5 0
-10 -4 -10 -10z"/>
<path d="M517 2873 c-4 -3 -7 -11 -7 -17 0 -6 5 -5 12 2 6 6 9 14 7 17 -3 3
-9 2 -12 -2z"/>
<path d="M3370 1975 c0 -8 5 -15 10 -15 6 0 10 7 10 15 0 8 -4 15 -10 15 -5 0
-10 -7 -10 -15z"/>
<path d="M3330 1950 c0 -19 3 -21 12 -12 9 9 9 15 0 24 -9 9 -12 7 -12 -12z"/>
</g>
</svg>
