<?xml version="1.0" standalone="no"?><!DOCTYPE svg PUBLIC "-//W3C//DTD SVG 20010904//EN" "http://www.w3.org/TR/2001/REC-SVG-20010904/DTD/svg10.dtd"><svg xmlns="http://www.w3.org/2000/svg" version="1.0" width="15.6638mm" height="16mm" viewBox="0 0 289.988792 296.212733" preserveAspectRatio="xMidYMid meet">
<metadata>
Created by potrace 1.16, written by Peter Selinger 2001-2019
</metadata>
<g transform="translate(-4.000000,299.968730) scale(0.100000,-0.100000)" fill="#000000" stroke="none">
<path d="M2855 2958 c-201 -103 -414 -178 -505 -178 -36 0 -36 -1 -68 -79 -42 -103 -100 -190 -173 -263 -32 -33 -59 -61 -59 -63 0 -1 26 5 59 15 92 29 205 50 268 50 l59 0 -1 58 c0 43 5 64 22 88 27 38 110 79 218 107 l84 22 -6 42 c-5 40 -3 44 48 95 30 29 73 62 96 73 35 16 43 25 43 48 0 15 -1 27 -2 27 -2 0 -39 -19 -83 -42z"/>
<path d="M40 2958 c0 -17 11 -29 43 -46 54 -28 136 -108 143 -139 4 -13 3 -34 0 -48 -5 -21 -2 -25 21 -31 160 -35 225 -64 273 -121 29 -35 31 -43 28 -94 l-4 -56 100 -7 c91 -5 226 -32 255 -50 23 -15 9 8 -40 62 -61 69 -123 172 -159 267 l-27 70 -76 6 c-101 9 -244 57 -407 137 -74 37 -138 69 -142 70 -4 2 -8 -7 -8 -20z"/>
<path d="M1270 2296 c-187 -27 -332 -71 -480 -146 l-60 -30 -121 90 c-66 49 -127 90 -135 90 -24 0 -16 -33 30 -114 83 -144 93 -198 34 -182 -13 3 -81 48 -153 100 -71 52 -152 111 -180 130 -62 46 -85 47 -85 5 0 -37 25 -73 174 -254 63 -77 115 -146 116 -154 0 -19 -39 -10 -167 40 -175 69 -229 54 -136 -39 45 -44 176 -148 195 -154 5 -2 -3 -53 -17 -113 -62 -262 -70 -479 -24 -658 10 -37 12 -38 42 -32 42 9 93 40 140 84 41 39 45 55 21 89 -14 21 -14 25 15 61 17 21 31 42 31 47 0 4 -12 25 -26 46 -30 42 -33 32 39 120 33 39 37 49 28 66 -6 12 -16 33 -21 47 l-10 27 67 -37 c38 -20 70 -39 72 -41 3 -2 -10 -20 -28 -38 -38 -39 -36 -55 11 -105 l31 -33 -24 -19 -24 -19 38 -36 38 -35 -36 -41 c-19 -23 -35 -45 -35 -50 0 -19 194 -75 205 -58 2 3 -5 26 -17 49 -30 60 -37 212 -14 301 29 114 69 186 150 266 114 115 262 175 467 189 177 13 342 -30 491 -128 175 -114 266 -236 315 -419 24 -91 27 -121 27 -253 0 -168 -5 -186 -79 -340 -84 -174 -232 -296 -457 -378 -113 -40 -114 -41 -283 -45 -148 -3 -182 -1 -259 17 -134 32 -203 69 -293 159 -82 81 -122 128 -167 201 -52 81 -117 277 -146 436 -16 86 -18 93 -19 50 -1 -69 16 -224 35 -320 31 -163 77 -273 159 -384 101 -137 217 -222 360 -265 141 -42 181 -48 347 -48 148 -1 172 1 261 26 220 61 320 116 469 255 161 152 222 249 299 484 41 123 52 218 45 382 -8 186 -27 307 -71 439 l-36 109 72 65 c82 75 152 159 143 173 -8 14 -50 1 -176 -58 -65 -30 -128 -53 -140 -51 -25 3 -34 32 -24 73 5 20 96 149 116 165 16 13 40 56 40 72 0 33 -38 19 -144 -52 -122 -81 -168 -105 -190 -97 -38 15 -4 122 65 207 29 34 39 80 19 80 -24 0 -79 -30 -144 -78 -38 -29 -74 -52 -81 -52 -7 0 -39 12 -71 26 -185 82 -437 118 -634 90z m-841 -888 c14 -24 14 -28 -3 -47 -47 -52 -119 -3 -82 54 23 34 64 31 85 -7z"/>
<path d="M1454 1638 c-14 -29 -41 -78 -58 -108 -116 -198 -187 -330 -181 -340 3 -5 20 -17 38 -26 30 -16 31 -16 54 12 13 16 23 32 23 37 0 4 71 7 158 7 l159 0 13 -25 c17 -31 27 -31 64 -2 l29 24 -36 62 c-21 34 -37 64 -37 66 0 2 -15 30 -33 62 -19 32 -62 109 -97 171 -34 61 -64 112 -66 112 -2 0 -15 -24 -30 -52z"/>
<path d="M850 1277 c0 -9 4 -18 8 -21 8 -5 55 -82 127 -207 37 -64 43 -74 47 -69 23 29 168 285 168 296 0 5 -79 11 -175 13 -153 3 -175 1 -175 -12z"/>
<path d="M1788 1248 c11 -18 45 -78 77 -133 31 -55 60 -104 65 -108 4 -5 14 3 21 17 17 30 116 201 137 234 l14 22 -167 0 -167 0 20 -32z"/>
<path d="M1783 1069 c-18 -12 -33 -23 -33 -26 0 -2 10 -21 22 -43 26 -44 32 -27 -69 -210 l-58 -105 -48 -3 -48 -3 3 -47 3 -47 283 -3 c192 -1 282 1 282 8 0 6 -43 84 -96 173 -53 89 -118 198 -144 242 -26 43 -51 80 -56 82 -5 1 -24 -7 -41 -18z"/>
<path d="M1122 1055 c-7 -14 -59 -105 -116 -203 -93 -159 -146 -255 -146 -265 0 -1 126 -4 280 -6 l280 -3 0 35 c0 54 -8 67 -44 67 -29 0 -35 7 -80 88 -28 48 -65 111 -83 140 l-34 53 21 29 c27 37 26 41 -15 68 -44 28 -49 28 -63 -3z"/>
<path d="M1320 524 c0 -3 29 -49 63 -102 35 -54 69 -108 76 -120 6 -12 16 -22 20 -22 9 0 151 230 151 244 0 3 -70 6 -155 6 -85 0 -155 -3 -155 -6z"/>
</g>
</svg>