<?xml version="1.0" standalone="no"?><!DOCTYPE svg PUBLIC "-//W3C//DTD SVG 20010904//EN" "http://www.w3.org/TR/2001/REC-SVG-20010904/DTD/svg10.dtd"><svg xmlns="http://www.w3.org/2000/svg" version="1.0" width="16mm" height="14.0573mm" viewBox="0 0 510.653606 448.649803" preserveAspectRatio="xMidYMid meet">
<metadata>
Created by potrace 1.16, written by Peter Selinger 2001-2019
</metadata>
<g transform="translate(-0.113748,448.728004) scale(0.100000,-0.100000)" fill="#000000" stroke="none">
<path d="M2490 4484 c-81 -32 -178 -94 -261 -168 -17 -16 -58 -36 -89 -46 -195 -59 -324 -204 -409 -460 -18 -57 -27 -68 -68 -95 -146 -92 -352 -299 -505 -506 -35 -47 -118 -188 -118 -200 0 -6 -4 -8 -9 -5 -5 3 -8 0 -8 -7 1 -6 -14 -43 -32 -82 -101 -213 -173 -484 -187 -703 -7 -98 -8 -102 -28 -96 -12 4 -96 42 -188 85 -92 43 -202 91 -245 105 -143 49 -307 43 -332 -12 -24 -54 -5 -88 66 -113 70 -25 173 -74 173 -81 0 -5 -29 -29 -64 -54 -35 -25 -87 -67 -116 -93 -49 -45 -52 -49 -47 -87 10 -71 26 -78 155 -69 128 10 133 6 78 -54 -65 -73 -88 -156 -53 -190 30 -30 120 -23 194 15 l61 31 85 -39 c92 -43 176 -64 219 -55 29 7 73 -12 100 -41 9 -11 35 -70 57 -132 79 -221 206 -443 357 -621 129 -153 184 -205 336 -319 285 -213 610 -342 968 -383 157 -18 434 -6 587 25 399 81 760 278 1038 567 277 289 455 626 536 1014 16 77 29 141 29 143 0 1 7 2 16 2 9 0 32 9 50 21 49 30 46 63 -12 119 -42 42 -45 48 -40 85 3 22 5 47 5 56 1 15 18 17 124 21 135 4 176 17 191 60 13 37 -9 84 -54 114 -30 20 -123 48 -267 79 -17 4 -23 13 -23 31 0 13 -7 59 -16 101 l-15 76 33 25 c62 47 157 150 164 177 19 76 -126 98 -261 39 -6 -2 -17 13 -24 33 -48 137 -178 363 -294 513 -64 83 -252 270 -342 342 -320 252 -722 401 -1130 417 -178 7 -183 13 -42 53 39 10 83 27 99 36 52 30 74 114 42 160 -20 29 -53 28 -115 -4 -64 -34 -81 -27 -128 51 -53 85 -98 118 -169 122 -31 1 -64 0 -72 -3z m133 -34 c14 -11 43 -48 65 -83 46 -71 85 -111 125 -126 24 -9 27 -8 25 6 -4 23 59 65 92 61 22 -3 25 -7 24 -41 -2 -60 -38 -90 -142 -117 -48 -13 -103 -33 -123 -46 l-36 -22 -26 26 c-45 44 -42 16 8 -68 l47 -80 10 -153 10 -152 99 -201 c110 -224 122 -270 100 -386 -14 -72 -55 -180 -82 -220 -34 -47 -19 -54 21 -10 31 35 80 116 86 142 0 3 4 12 7 20 3 8 13 42 23 75 9 33 23 66 32 73 24 19 176 15 286 -8 121 -25 316 -106 320 -132 1 -4 -123 -95 -274 -203 -151 -108 -324 -232 -385 -275 -222 -161 -416 -300 -640 -460 -126 -91 -282 -201 -345 -247 -63 -45 -120 -86 -127 -92 -13 -12 -17 -7 -58 63 -23 41 -26 52 -16 69 12 18 10 19 -41 12 -102 -14 -179 -56 -316 -172 -77 -66 -230 -153 -268 -153 -8 0 -14 9 -14 22 0 17 -3 19 -12 10 -18 -18 -10 -88 17 -146 30 -64 31 -72 6 -86 -50 -26 -77 -14 -183 83 -132 119 -164 142 -172 122 -14 -39 -119 -6 -274 85 -44 26 -53 28 -50 13 2 -14 -14 -24 -77 -46 -99 -35 -139 -33 -143 5 -3 21 9 40 52 87 31 34 56 70 56 81 0 23 7 24 44 10 36 -13 32 -4 -7 20 -27 17 -50 20 -155 20 -130 0 -162 8 -162 41 0 21 13 35 105 114 109 93 115 97 142 80 35 -23 27 -1 -15 44 -36 38 -151 100 -214 116 -34 9 -46 41 -24 64 13 13 36 16 109 15 119 -1 213 -32 471 -158 185 -90 254 -118 325 -130 34 -6 34 -6 16 14 -17 19 -16 21 58 92 95 92 204 224 334 404 57 78 121 158 144 179 36 33 45 36 77 30 l36 -7 -26 34 c-57 76 -128 208 -144 267 -17 69 -14 121 13 206 25 78 48 120 153 270 116 167 130 193 175 332 44 135 93 219 171 293 75 70 179 117 286 129 64 7 69 9 41 16 -18 4 -33 11 -33 15 0 20 113 107 184 141 92 45 149 51 189 19z m377 -1005 c234 -38 439 -129 628 -280 45 -37 82 -70 82 -74 0 -4 -20 -22 -44 -39 -37 -27 -46 -30 -56 -17 -35 42 -180 101 -320 130 -88 18 -256 25 -300 13 -21 -6 -26 -4 -27 11 -2 30 -64 202 -86 238 l-19 33 24 0 c12 0 66 -7 118 -15z m1888 -687 c7 -7 12 -16 12 -21 0 -6 -58 -67 -130 -137 -108 -105 -135 -138 -161 -194 -24 -52 -30 -75 -26 -103 9 -53 27 -66 27 -19 0 37 1 38 28 33 15 -4 71 -16 126 -27 259 -53 316 -81 316 -154 0 -39 -49 -49 -232 -48 -151 2 -158 1 -184 -21 -33 -29 -26 -46 43 -102 93 -76 144 -131 137 -149 -4 -10 -13 -15 -21 -12 -8 3 -11 1 -8 -4 4 -6 -12 -10 -38 -10 -49 0 -135 39 -262 120 -63 40 -76 45 -125 44 -35 -1 -90 -15 -154 -38 -93 -34 -186 -48 -186 -27 0 5 14 18 31 29 17 11 27 22 21 26 -18 11 -106 -23 -165 -63 -72 -49 -154 -81 -210 -81 -48 0 -59 6 -76 37 -27 53 -3 137 65 221 43 53 61 88 50 100 -3 3 -12 -3 -20 -13 -13 -18 -16 -18 -74 18 -69 42 -72 43 -72 19 0 -10 21 -31 51 -50 27 -19 49 -37 47 -40 -80 -154 -104 -239 -78 -286 38 -71 160 -57 310 35 40 25 53 28 70 19 11 -6 49 -13 85 -17 59 -5 64 -8 60 -27 -71 -346 -194 -584 -410 -796 -106 -105 -169 -154 -285 -219 -402 -229 -842 -235 -1277 -18 -115 57 -116 58 -39 121 77 63 166 158 209 224 30 45 46 61 57 56 89 -39 368 -95 470 -93 91 1 106 15 25 23 -245 25 -338 47 -483 116 -71 34 -112 48 -126 44 -12 -4 -7 4 14 18 19 13 89 63 155 110 66 46 172 121 235 166 63 45 147 104 185 131 39 28 147 104 240 170 94 66 211 150 260 185 50 36 135 98 190 138 55 39 123 88 150 108 241 177 345 248 351 238 4 -6 -4 -19 -17 -30 l-24 -19 40 4 c22 2 70 12 108 22 70 19 96 14 63 -11 -19 -14 -19 -14 2 -14 30 0 168 74 297 161 138 92 201 118 281 119 34 0 65 -5 72 -12z m-3147 -984 c20 -32 34 -64 32 -71 -3 -7 -58 -51 -124 -97 l-118 -85 -26 80 c-36 116 -35 121 33 168 56 38 137 73 157 67 6 -1 26 -29 46 -62z m515 -522 c-3 -5 10 -16 29 -25 24 -11 35 -24 35 -38 0 -30 -54 -99 -174 -218 l-104 -105 -54 42 c-29 23 -65 52 -80 64 l-27 23 187 132 c103 73 188 133 190 133 2 0 1 -4 -2 -8z"/>
<path d="M2336 4031 c-7 -11 89 -101 109 -101 18 0 19 4 4 33 -30 58 -95 97 -113 68z"/>
<path d="M2006 3999 c-38 -30 -62 -79 -44 -90 8 -6 17 -3 26 8 22 30 62 94 62 98 0 11 -19 4 -44 -16z"/>
<path d="M2011 3841 c-7 -5 -16 -32 -19 -60 -8 -85 46 -135 83 -77 12 18 13 30 5 50 -13 34 -13 59 -1 51 19 -11 23 17 5 30 -22 16 -53 19 -73 6z"/>
<path d="M2324 3815 c-19 -29 -29 -94 -20 -129 5 -21 13 -26 36 -26 25 0 30 5 39 38 6 20 11 49 11 64 0 14 6 28 13 31 17 6 -21 47 -44 47 -10 0 -26 -11 -35 -25z"/>
<path d="M2222 3384 c-16 -11 -34 -14 -58 -10 -39 8 -44 -4 -13 -35 15 -15 28 -19 47 -14 35 9 62 33 62 57 0 22 -9 23 -38 2z"/>
<path d="M2121 3116 c-45 -48 -28 -180 25 -205 75 -34 130 67 90 162 -29 69 -74 86 -115 43z"/>
<path d="M2232 2734 c-34 -18 -49 -21 -74 -13 -43 12 -49 2 -15 -27 39 -33 81 -31 118 5 26 27 40 63 22 60 -5 -1 -27 -12 -51 -25z"/>
</g>
</svg>