<?xml version="1.0" standalone="no"?>
<!DOCTYPE svg PUBLIC "-//W3C//DTD SVG 20010904//EN"
 "http://www.w3.org/TR/2001/REC-SVG-20010904/DTD/svg10.dtd">
<svg version="1.0" xmlns="http://www.w3.org/2000/svg"
 width="433.140719pt" height="639.829208pt" viewBox="0 0 433.140719 639.829208"
 preserveAspectRatio="xMidYMid meet">
<metadata>
Created by potrace 1.16, written by Peter Selinger 2001-2019
</metadata>
<g transform="translate(-10.003726,647.984884) scale(0.100000,-0.100000)"
fill="#000000" stroke="none">
<path d="M1828 6472 c9 -6 7 -11 -10 -19 -44 -20 -250 -196 -379 -324 -43 -43
-99 -142 -99 -176 0 -17 -30 -110 -45 -139 -5 -11 -27 -35 -47 -53 -72 -63
-118 -126 -121 -167 -3 -34 -16 -52 -92 -132 -49 -51 -125 -119 -169 -149
-125 -87 -375 -281 -433 -336 -67 -63 -94 -133 -68 -173 22 -33 60 -47 117
-40 49 5 146 50 194 88 73 60 249 156 262 144 15 -16 -155 -149 -294 -231
-152 -89 -282 -209 -374 -347 -62 -94 -85 -193 -59 -266 11 -32 34 -48 44 -32
4 6 0 10 -8 10 -19 0 -27 22 -27 73 1 71 19 127 64 196 81 122 188 214 386
329 260 150 299 177 340 234 55 75 32 123 -54 116 -54 -5 -161 -47 -211 -83
-115 -83 -245 -138 -245 -104 0 25 117 129 300 267 41 31 66 35 87 14 27 -28
107 -56 142 -49 17 4 45 0 63 -7 20 -8 41 -10 53 -5 34 13 36 11 34 -43 -2
-64 -39 -155 -88 -219 -20 -26 -69 -71 -109 -100 -225 -167 -299 -233 -409
-365 -91 -110 -122 -175 -123 -255 0 -50 4 -62 37 -107 53 -71 117 -103 225
-109 74 -5 91 -3 152 22 145 58 198 108 311 291 100 162 289 373 399 445 33
22 53 39 46 39 -32 0 -141 -75 -207 -142 -78 -79 -88 -91 -224 -281 -136 -191
-209 -257 -327 -296 -58 -20 -64 -20 -139 -5 -123 25 -173 68 -173 149 0 34
40 121 83 181 53 74 246 244 374 330 94 62 185 162 228 248 39 77 40 82 43
201 l4 121 64 20 c35 10 64 22 64 26 0 10 60 28 95 28 18 0 49 -7 68 -15 20
-8 47 -15 59 -15 22 1 22 1 4 15 -18 14 -16 15 26 15 70 0 138 12 131 22 -3 7
12 8 43 4 27 -4 69 -3 94 3 40 9 50 8 90 -14 98 -54 152 -77 209 -88 53 -11
64 -18 90 -54 25 -34 82 -84 154 -135 16 -12 16 -17 2 -64 -9 -32 -14 -86 -13
-145 2 -121 -8 -138 -125 -236 -50 -42 -103 -94 -117 -115 -17 -27 -26 -34
-28 -23 -2 9 0 24 4 33 15 36 15 62 -2 69 -9 3 -20 0 -25 -8 -5 -8 -9 -11 -9
-8 0 3 -13 42 -29 86 -16 44 -32 103 -36 131 -8 58 1 71 88 123 40 24 47 33
47 59 0 18 -6 33 -15 36 -9 4 -13 13 -10 24 4 12 -6 28 -31 49 -45 40 -58 31
-60 -40 -2 -65 -3 -69 -12 -69 -5 0 -9 23 -9 50 0 45 -4 55 -39 92 -33 34
-101 76 -109 66 -1 -2 2 -44 6 -95 9 -89 1 -143 -19 -143 -30 0 -58 71 -39 98
7 8 4 19 -7 31 -12 13 -17 32 -15 55 4 46 -4 53 -38 31 -54 -36 -63 -55 -60
-126 2 -55 8 -73 30 -103 16 -20 24 -36 18 -36 -14 0 -61 64 -61 83 0 9 -9 22
-20 30 -10 7 -24 26 -30 41 -15 42 -43 30 -56 -24 -13 -54 -6 -78 41 -133 19
-22 35 -46 35 -53 0 -23 31 -44 63 -44 56 0 106 -20 142 -55 45 -45 52 -87 30
-169 -10 -36 -15 -72 -11 -81 4 -12 2 -16 -7 -12 -8 3 -20 1 -28 -4 -11 -8 -9
-13 13 -30 18 -13 30 -33 33 -57 12 -67 47 -166 72 -199 l24 -32 -23 -6 c-13
-3 -106 -11 -208 -18 -174 -12 -185 -14 -182 -32 2 -10 11 -24 20 -31 12 -9
-7 -13 -89 -18 -250 -18 -524 -65 -672 -116 -45 -15 -103 -31 -130 -35 -26 -4
-47 -11 -47 -16 0 -4 24 -11 53 -15 l52 -7 -85 -22 c-47 -12 -119 -31 -160
-43 -119 -34 -320 -82 -346 -82 -13 0 -24 -4 -24 -9 0 -15 60 -34 106 -33 36
0 43 -2 34 -13 -6 -7 -23 -16 -38 -20 -49 -12 -149 -84 -166 -120 -22 -46 -21
-48 21 -26 21 10 55 26 76 35 36 14 34 11 -39 -62 -81 -81 -114 -125 -114
-154 0 -27 18 -22 106 24 l78 41 -41 -47 c-23 -26 -60 -78 -82 -116 -39 -66
-42 -76 -48 -170 -4 -63 -2 -100 4 -100 5 0 22 17 37 38 l28 37 -8 -45 c-4
-25 -8 -54 -10 -65 -1 -11 -8 -51 -14 -90 -29 -182 -32 -215 -26 -280 11 -137
40 -245 64 -245 5 0 13 35 17 77 11 114 17 124 39 58 11 -30 22 -55 26 -55 3
0 16 -17 28 -38 28 -51 113 -129 149 -138 33 -8 162 -111 198 -159 27 -35 107
-75 149 -75 14 0 54 -15 90 -34 35 -19 87 -37 115 -41 34 -5 70 -19 102 -41
60 -40 110 -55 177 -53 40 2 61 -4 108 -32 58 -33 61 -33 174 -32 63 1 120 -3
125 -7 6 -5 38 -18 72 -29 73 -25 169 -27 237 -7 41 13 54 13 94 0 77 -23 253
-18 334 10 l68 23 14 -21 c27 -42 100 -107 155 -138 52 -30 64 -33 176 -38
l120 -6 -37 -17 c-21 -9 -51 -17 -69 -17 -24 0 -30 -4 -25 -15 4 -11 -1 -15
-19 -15 -31 0 -33 -17 -2 -23 23 -4 22 -5 -53 -33 -12 -5 -11 -8 5 -14 20 -7
20 -7 -2 -14 -12 -4 -33 -4 -47 0 -20 5 -26 2 -26 -10 0 -9 1 -16 3 -16 1 0
19 -6 41 -14 l38 -13 -61 -52 c-79 -65 -116 -84 -228 -115 -113 -32 -183 -62
-183 -78 0 -6 -11 -24 -25 -38 -14 -15 -28 -43 -32 -63 -5 -33 -3 -37 15 -37
11 0 24 5 27 10 3 6 15 10 26 10 10 0 19 3 19 8 0 25 182 93 195 72 2 -3 -11
-22 -29 -41 -58 -59 -85 -136 -71 -198 6 -27 35 -45 35 -22 0 5 16 16 36 26
19 9 38 24 42 33 11 30 103 142 117 142 18 0 27 -44 15 -75 -6 -15 -10 -39 -9
-53 0 -15 -2 -37 -5 -50 -10 -42 29 -126 40 -85 3 12 24 33 45 47 21 15 39 34
39 42 0 9 10 46 21 83 12 36 23 72 25 79 6 22 29 7 32 -21 2 -15 9 -27 16 -27
19 0 52 41 60 73 8 35 -26 104 -57 116 -13 5 -28 15 -35 23 -17 21 14 50 89
89 62 31 82 32 59 4 -7 -9 -10 -18 -7 -22 4 -3 17 7 29 22 38 48 50 61 43 47
-5 -10 -2 -13 11 -10 10 2 28 19 39 39 17 31 22 34 33 23 22 -24 29 -16 29 36
1 64 31 114 103 171 136 109 132 249 -8 281 -33 7 -48 14 -37 16 11 2 35 11
53 19 31 15 34 14 55 -4 45 -39 109 -74 158 -85 48 -11 54 -16 94 -78 47 -72
105 -130 154 -151 31 -13 32 -16 25 -54 -4 -22 -8 -85 -9 -141 -1 -100 -1
-101 -37 -145 -43 -53 -91 -144 -95 -179 -1 -14 -10 -29 -20 -35 -37 -20 -106
-102 -132 -154 -21 -44 -35 -59 -76 -80 -27 -14 -73 -49 -102 -77 -33 -33 -64
-54 -85 -58 -55 -10 -133 -51 -170 -90 -26 -27 -47 -38 -75 -42 -82 -9 -175
-37 -213 -65 -35 -26 -48 -29 -108 -28 -50 1 -82 -5 -120 -21 -43 -19 -61 -21
-100 -14 -26 4 -83 8 -127 9 -44 0 -109 8 -145 17 -36 9 -94 22 -130 28 -143
25 -206 39 -233 49 -16 6 -44 11 -62 11 -19 0 -64 12 -99 26 -51 21 -73 38
-108 81 -119 147 -136 170 -147 191 -13 25 -31 29 -31 8 0 -8 9 -36 20 -62 11
-26 19 -49 17 -51 -6 -5 -75 107 -104 170 -29 60 -53 76 -46 29 9 -60 25 -145
30 -161 3 -9 -3 -5 -14 9 -18 23 -52 90 -75 150 -23 58 -60 241 -65 323 -7
109 -23 102 -32 -15 l-7 -83 -7 60 c-4 33 -12 125 -17 205 -13 204 -50 339
-107 391 l-26 24 7 -29 c8 -31 26 -232 25 -276 0 -16 -8 -3 -25 40 -62 162
-135 271 -228 341 -103 78 -136 78 -64 1 49 -52 124 -159 117 -167 -3 -2 -25
26 -49 62 -25 37 -90 112 -145 168 -92 93 -107 104 -196 143 -130 57 -176 57
-106 0 23 -17 38 -41 45 -70 13 -47 34 -216 52 -423 7 -71 14 -133 16 -137 2
-3 10 -39 18 -80 8 -40 18 -81 21 -91 4 -10 -21 12 -55 48 -35 36 -70 65 -78
65 -12 0 -12 -4 1 -24 19 -29 65 -112 119 -216 67 -129 108 -189 176 -262 66
-70 66 -70 28 -54 -21 9 -47 16 -58 16 -15 0 -11 -7 19 -32 21 -18 40 -36 43
-39 3 -4 41 -29 84 -57 84 -53 84 -54 1 -68 -99 -17 -98 -41 3 -48 179 -14
251 -31 387 -91 17 -7 43 -17 59 -21 l28 -7 -31 -13 c-39 -16 -40 -28 -2 -21
30 6 147 -8 196 -23 17 -5 74 -23 129 -40 54 -17 110 -37 125 -44 14 -7 58
-24 96 -36 39 -13 78 -30 87 -38 9 -7 38 -16 65 -18 26 -3 89 -16 138 -29 120
-32 225 -45 435 -52 189 -6 382 8 454 34 22 8 105 25 183 38 79 13 147 26 153
30 5 3 31 10 58 15 26 4 119 33 207 64 150 51 216 82 323 149 23 15 42 24 42
19 0 -4 -29 -39 -65 -77 -35 -38 -62 -71 -60 -73 2 -2 39 16 83 41 88 49 303
219 369 290 76 82 145 207 199 359 35 99 37 109 42 270 2 92 8 165 13 162 5
-2 14 -22 20 -44 7 -21 17 -41 24 -44 9 -3 9 15 -2 77 -7 45 -20 125 -29 177
-16 102 -45 202 -76 263 -11 22 -18 40 -16 42 2 2 21 -12 43 -31 63 -54 70
-46 25 31 -16 28 -37 66 -48 85 -11 19 -52 71 -91 115 -67 75 -78 100 -32 76
11 -6 26 -11 34 -11 13 0 13 4 4 25 -7 14 -16 25 -21 25 -5 0 -41 29 -80 64
-39 35 -88 72 -109 83 -43 24 -33 33 39 33 24 0 44 3 44 8 0 7 -138 53 -215
71 l-40 9 40 3 c22 1 53 2 68 1 48 -2 29 31 -30 50 -41 14 -63 15 -109 8 -32
-5 -60 -8 -62 -6 -2 3 1 13 6 23 17 32 2 44 -22 18 -23 -25 -47 -36 -101 -49
-26 -6 -23 -3 18 23 49 32 67 70 25 54 -13 -4 -100 -7 -195 -5 -95 2 -198 -2
-229 -7 -69 -13 -79 -8 -30 16 89 42 -49 30 -194 -17 -123 -40 -129 -41 -189
-16 -31 13 -128 47 -216 76 -140 47 -170 53 -239 53 -73 -1 -80 -3 -108 -30
l-29 -30 13 -81 c8 -45 14 -82 13 -82 -12 0 -82 45 -105 69 -34 34 -56 41 -46
14 6 -16 6 -16 -12 0 -23 21 -36 22 -28 2 8 -22 -61 -20 -100 4 -25 15 -32 27
-36 63 -8 70 -56 167 -86 175 -14 3 -37 12 -51 19 -29 15 -135 19 -129 5 9
-25 73 -91 87 -91 10 0 26 -18 39 -45 27 -56 28 -70 2 -29 -26 40 -113 99
-168 114 -53 14 -139 -4 -180 -37 -26 -20 -26 -22 -7 -28 11 -4 41 -16 66 -27
26 -11 53 -18 60 -16 26 9 119 -50 119 -75 0 -6 -32 -8 -84 -3 -87 6 -116 2
-116 -18 0 -6 -12 -22 -25 -35 -14 -13 -25 -28 -26 -35 0 -6 -2 -19 -4 -28 -3
-17 4 -21 62 -33 21 -4 40 -1 56 10 14 9 58 18 105 22 79 6 81 5 75 -15 -3
-14 -21 -27 -52 -38 -61 -23 -66 -28 -39 -46 34 -22 105 -29 122 -12 8 8 25
14 38 14 12 0 46 12 75 26 51 26 89 27 80 1 -2 -6 -9 -11 -15 -10 -6 2 -35 -8
-64 -22 -159 -73 -353 -45 -541 76 -54 35 -88 48 -206 79 -28 7 -45 18 -48 31
-3 10 -10 19 -16 19 -6 0 -7 3 -3 7 4 4 -27 40 -68 79 -42 40 -76 79 -76 87 0
8 14 44 30 79 18 39 35 98 42 148 l12 83 112 73 c62 41 143 106 180 144 82 83
114 100 259 134 61 15 144 36 185 47 41 12 127 31 190 44 141 29 485 141 594
194 45 22 113 64 151 93 73 55 207 138 223 138 16 0 202 99 261 139 70 48 82
62 115 133 17 36 35 59 49 64 47 14 107 47 107 58 0 6 14 23 32 38 l33 27 -33
1 -33 0 30 43 c92 133 258 226 375 212 62 -8 89 6 195 103 56 51 64 64 71 105
5 37 3 50 -10 62 -23 21 -24 20 -55 -27 -32 -49 -78 -93 -117 -114 -24 -13
-28 -13 -28 0 0 8 29 35 65 60 35 26 71 56 80 68 20 29 20 97 0 104 -8 4 -15
11 -15 16 0 6 -15 23 -32 39 -37 32 -93 48 -111 30 -8 -8 -8 -11 1 -11 7 0 12
-9 12 -20 0 -13 -5 -18 -15 -13 -9 3 -14 8 -11 11 13 12 -18 41 -60 56 -37 13
-55 14 -87 5 l-39 -10 19 -22 c11 -12 33 -49 49 -81 l28 -59 -44 -39 -44 -39
-14 26 c-7 15 -11 29 -8 32 3 3 1 13 -4 22 -6 12 -2 31 11 61 11 23 17 45 15
48 -3 2 -27 -3 -53 -12 -57 -19 -126 -73 -119 -92 3 -7 1 -16 -4 -19 -17 -11
-11 -22 40 -78 27 -30 50 -64 50 -76 0 -34 -57 -88 -151 -142 -49 -28 -112
-69 -140 -91 -35 -27 -47 -33 -39 -19 9 17 8 21 -4 21 -8 0 -18 -9 -21 -21 -5
-15 -14 -19 -33 -17 -20 2 -28 -2 -30 -17 -7 -35 -33 -83 -49 -89 -12 -5 -14
1 -9 36 3 24 11 59 17 78 5 19 12 53 15 74 3 22 13 53 22 70 l16 31 9 -32 c6
-18 15 -33 21 -33 13 0 46 140 49 207 2 41 2 41 22 24 46 -42 47 -41 40 80 -7
110 -15 165 -30 202 -6 13 -2 17 15 17 19 0 21 4 16 26 -4 14 -18 49 -32 77
-14 29 -27 67 -29 85 -2 18 -8 39 -15 47 -9 11 -7 12 8 8 35 -9 33 14 -4 59
-20 23 -41 46 -48 50 -6 5 3 5 20 2 44 -8 53 19 14 43 -19 11 -25 20 -18 24
22 14 -1 38 -49 51 l-48 14 29 15 c50 24 44 39 -16 39 -54 0 -154 29 -231 66
l-38 18 43 17 c56 22 58 35 6 42 -24 2 -70 18 -103 33 l-60 28 45 11 c25 5 53
15 64 21 15 9 9 12 -39 17 -45 4 -142 30 -163 43 -2 1 14 18 35 37 21 20 35
38 31 42 -3 3 -33 1 -67 -6 -74 -14 -208 -4 -177 15 34 20 80 65 73 72 -3 4
-19 2 -34 -4 -15 -6 -70 -16 -120 -22 -51 -6 -105 -15 -120 -21 -27 -10 -27
-10 -9 10 10 11 27 23 37 26 38 12 20 28 -23 21 -33 -4 -39 -3 -25 5 47 28 -8
40 -70 14 -29 -12 -33 -13 -24 -1 19 22 -3 27 -45 11 l-39 -16 25 21 c14 11
40 27 59 35 56 25 131 85 131 106 0 25 -11 24 -90 -5 -206 -76 -402 -146 -407
-146 -4 0 4 12 18 26 l24 27 -30 -7 c-16 -4 -55 -18 -85 -32 l-54 -25 23 25
c39 42 5 39 -50 -4 -28 -22 -54 -38 -57 -36 -7 7 90 117 129 146 77 57 159
149 159 177 0 9 -15 13 -47 13 -29 0 -43 -4 -35 -8z m137 -382 c-16 -11 -34
-20 -40 -20 -5 0 4 9 20 20 17 11 35 20 40 20 6 0 -3 -9 -20 -20z m-111 -77
c-60 -59 -87 -75 -35 -21 30 32 57 56 59 53 2 -2 -9 -17 -24 -32z m196 -33
c-8 -5 -19 -10 -25 -10 -5 0 -3 5 5 10 8 5 20 10 25 10 6 0 3 -5 -5 -10z m-43
-16 c-3 -3 -12 -4 -19 -1 -8 3 -5 6 6 6 11 1 17 -2 13 -5z m-407 -17 c0 -2 -9
-14 -20 -27 -11 -13 -20 -19 -20 -15 0 5 7 17 17 27 15 17 23 22 23 15z m289
-21 c-9 -8 -99 -44 -99 -40 0 6 81 43 94 44 5 0 7 -2 5 -4z m-345 -38 c-25
-43 -47 -68 -62 -68 -11 0 -3 12 24 39 42 43 49 48 38 29z m526 -38 c-6 -11
-13 -20 -16 -20 -2 0 0 9 6 20 6 11 13 20 16 20 2 0 0 -9 -6 -20z m-370 -30
c-34 -28 -68 -41 -55 -20 3 6 12 10 18 10 7 0 23 9 37 20 39 31 39 23 0 -10z
m295 -92 c-61 -88 -144 -178 -165 -178 -7 0 8 18 33 40 25 23 76 83 113 135
37 53 69 93 72 91 2 -3 -22 -42 -53 -88z m232 52 c42 0 51 -3 47 -15 -4 -10 0
-15 12 -15 9 0 41 -8 70 -17 68 -21 128 -81 148 -146 17 -56 8 -61 -16 -9 -38
82 -136 162 -198 162 -11 0 -23 7 -26 15 -4 10 -20 15 -49 15 -29 0 -47 6 -56
18 -11 14 -11 15 1 5 8 -7 38 -13 67 -13z m-202 -154 c-37 -16 -101 -29 -91
-19 10 10 76 31 101 32 14 0 11 -4 -10 -13z m-34 -56 c-18 -17 -36 -30 -40
-30 -7 1 61 60 69 60 3 0 -10 -14 -29 -30z m598 -89 c12 -35 21 -69 21 -75 -1
-14 -49 85 -49 102 -1 18 -19 14 -23 -5 -3 -16 -6 -15 -16 4 -11 19 -10 22 2
17 10 -4 17 3 22 21 8 33 14 25 43 -64z m-569 75 c0 -2 -7 -6 -15 -10 -8 -3
-15 -1 -15 4 0 6 7 10 15 10 8 0 15 -2 15 -4z m-675 -31 c-40 -24 -85 -33 -85
-16 0 12 69 40 100 40 22 1 21 -2 -15 -24z m617 -18 c-6 -7 -30 -23 -54 -36
-52 -29 -43 -17 15 21 48 31 53 33 39 15z m734 -84 c32 -54 59 -100 61 -102 1
-2 9 2 17 8 19 16 -8 -77 -47 -162 -15 -32 -27 -62 -27 -67 0 -5 -4 -12 -10
-15 -6 -4 -6 5 1 22 6 15 22 64 35 107 l24 80 -29 60 c-38 77 -69 115 -80 97
-7 -11 -9 -11 -13 -1 -4 13 2 70 7 70 2 0 29 -44 61 -97z m-806 2 c0 -2 -10
-10 -22 -16 -21 -11 -22 -11 -9 4 13 16 31 23 31 12z m104 -53 c3 -5 31 -15
63 -22 32 -7 53 -15 46 -17 -15 -5 -121 26 -128 38 -4 5 -2 9 4 9 5 0 12 -4
15 -8z m-135 -6 c-2 -2 -14 -9 -26 -15 -19 -10 -22 -9 -17 4 4 8 15 15 27 15
11 0 18 -2 16 -4z m-964 -77 c-9 -17 -19 -28 -22 -25 -6 6 23 56 32 56 3 0 -2
-14 -10 -31z m1320 1 c3 -6 -1 -7 -9 -4 -18 7 -21 14 -7 14 6 0 13 -4 16 -10z
m84 -59 c-6 -2 -18 4 -27 13 -15 15 -15 15 10 4 15 -7 23 -15 17 -17z m116
-65 c17 -13 28 -26 25 -29 -3 -3 -25 13 -50 34 -47 42 -27 38 25 -5z m353 -42
c-9 -33 -16 -41 -34 -41 -23 0 -23 0 7 44 17 24 32 43 34 41 2 -2 -1 -22 -7
-44z m-91 -76 c-3 -8 -6 -5 -6 6 -1 11 2 17 5 13 3 -3 4 -12 1 -19z m70 -10
c-3 -7 -5 -2 -5 12 0 14 2 19 5 13 2 -7 2 -19 0 -25z m-7 -61 c-3 -24 -23 -75
-44 -113 -39 -70 -189 -275 -225 -308 -11 -10 -18 -23 -15 -27 3 -5 0 -9 -5
-9 -6 0 -11 3 -11 6 0 6 66 97 140 194 27 36 50 68 50 72 0 3 18 37 39 75 22
38 44 88 50 111 15 55 30 54 21 -1z m-684 18 c-11 -8 -29 -15 -40 -14 -15 0
-10 4 14 13 46 18 48 18 26 1z m1865 3 c4 -51 -5 -85 -28 -108 l-26 -25 23 33
c18 27 21 41 16 73 -4 24 -2 39 4 39 5 0 10 -6 11 -12z m-2096 -16 c-3 -3 -11
0 -18 7 -9 10 -8 11 6 5 10 -3 15 -9 12 -12z m702 -39 c-3 -10 -5 -2 -5 17 0
19 2 27 5 18 2 -10 2 -26 0 -35z m1489 12 c-11 -8 -31 -14 -45 -14 l-26 2 25
4 c14 3 29 9 35 14 5 5 14 9 20 9 5 0 1 -7 -9 -15z m-1836 -5 c-19 -13 -30
-13 -30 0 0 6 10 10 23 10 18 0 19 -2 7 -10z m-470 -55 c-7 -9 -15 -13 -17
-11 -7 7 7 26 19 26 6 0 6 -6 -2 -15z m1917 -1 c-3 -3 -12 -4 -19 -1 -8 3 -5
6 6 6 11 1 17 -2 13 -5z m436 -121 c-7 -2 -19 -2 -25 0 -7 3 -2 5 12 5 14 0
19 -2 13 -5z m-1555 -240 c-14 -16 -34 -41 -44 -58 -10 -16 -21 -32 -24 -35
-3 -3 -12 -18 -19 -35 -7 -16 -16 -25 -18 -18 -7 18 68 139 97 157 36 22 37
20 8 -11z m-14 -105 c-4 -7 -13 -20 -20 -28 -21 -26 -66 -112 -60 -117 2 -3
22 8 43 23 l38 28 -37 -40 c-21 -21 -57 -50 -80 -63 l-43 -24 20 24 c11 13 23
26 26 29 11 9 49 89 52 110 2 12 17 32 33 45 33 28 38 30 28 13z m500 -59
c-51 -88 -126 -189 -141 -189 -20 0 -25 20 -6 27 22 7 63 43 63 55 0 5 17 32
39 61 21 29 46 67 56 85 9 19 19 32 21 29 3 -2 -12 -33 -32 -68z m106 -99 c-6
-11 -13 -20 -16 -20 -2 0 0 9 6 20 6 11 13 20 16 20 2 0 0 -9 -6 -20z m-382
-252 c-47 -86 -208 -238 -298 -282 l-35 -17 26 23 c14 13 50 43 80 68 95 79
161 144 201 198 47 63 58 67 26 10z m-347 -259 c-12 -19 -21 -28 -21 -21 0 21
-18 14 -79 -32 -90 -66 -314 -145 -411 -146 -24 0 -23 1 9 21 41 25 35 34 -16
20 -86 -24 -215 -52 -338 -75 -127 -23 -223 -57 -388 -137 -57 -27 -59 -28
-64 -9 -3 11 -7 20 -10 20 -10 0 -150 -99 -167 -119 -11 -11 -24 -21 -30 -21
-23 0 127 124 224 185 l44 28 -27 -33 c-16 -18 -24 -37 -20 -41 5 -5 49 11 99
35 195 94 299 126 550 166 72 12 156 27 187 34 32 7 57 11 57 9 0 -2 -12 -15
-27 -28 -16 -13 -25 -27 -21 -31 4 -3 49 8 100 26 92 31 185 78 303 150 33 20
61 36 63 34 2 -1 -6 -17 -17 -35z m3 -50 c-2 -4 -12 -9 -23 -12 -13 -3 -18 -1
-14 8 2 8 13 13 23 12 10 -1 17 -4 14 -8z m-1068 -392 c-104 -67 -149 -101
-203 -153 -34 -33 -58 -53 -53 -45 22 41 156 153 225 189 44 23 61 28 31 9z
m-523 -134 c-80 -92 -146 -183 -171 -235 -79 -167 -93 -207 -103 -298 l-8 -65
3 80 c4 101 21 151 104 300 50 89 87 141 146 202 43 46 81 83 83 83 3 0 -22
-30 -54 -67z m1067 -421 c0 -5 -7 -17 -16 -28 -14 -17 -15 -17 -10 -1 3 10 6
23 6 28 0 5 5 9 10 9 6 0 10 -4 10 -8z m-240 -52 c6 -11 8 -20 6 -20 -3 0 -10
9 -16 20 -6 11 -8 20 -6 20 3 0 10 -9 16 -20z m-602 -190 c20 -16 32 -30 27
-30 -16 0 -101 82 -115 110 -8 17 -3 14 19 -12 18 -21 48 -51 69 -68z m-528
16 c0 -3 -5 -5 -12 -3 -6 1 -16 -11 -22 -26 -13 -36 13 -141 60 -244 38 -84
31 -96 -14 -23 -52 84 -76 219 -56 319 l6 31 19 -24 c11 -13 19 -27 19 -30z
m1088 -41 c6 -14 10 -25 8 -25 -2 0 -11 11 -20 25 -9 14 -13 25 -8 25 5 0 14
-11 20 -25z m1272 6 c-8 -5 -26 -11 -40 -15 -21 -5 -20 -3 5 9 32 15 60 20 35
6z m-210 -29 c0 -4 -51 -23 -112 -41 -62 -19 -126 -40 -143 -49 l-30 -15 19
22 c11 11 25 21 33 21 8 0 28 8 46 17 35 18 141 51 170 52 9 1 17 -3 17 -7z
m120 -5 c-156 -69 -162 -71 -141 -38 5 7 13 11 18 8 5 -3 36 5 69 18 58 24
103 34 54 12z m-1504 -84 c-6 -7 -111 37 -136 57 -16 12 5 6 57 -17 45 -20 81
-39 79 -40z m1153 53 c-11 -9 -90 -16 -84 -6 3 5 25 10 47 10 23 0 39 -2 37
-4z m-244 -71 c-16 -8 -37 -14 -45 -14 -8 0 -1 7 15 14 17 8 37 14 45 14 8 0
2 -7 -15 -14z m-765 -49 c0 -12 -5 -7 -19 24 -11 24 -11 24 3 6 9 -11 16 -24
16 -30z m630 35 c0 -16 -28 -20 -47 -6 -17 13 -16 14 15 15 17 0 32 -4 32 -9z
m60 -11 c0 -5 -4 -10 -9 -10 -5 0 -18 -3 -28 -6 -16 -6 -16 -5 2 9 23 19 35
21 35 7z m1215 -50 c130 -10 202 -30 294 -81 31 -18 73 -41 93 -51 20 -11 42
-25 47 -32 6 -7 -28 7 -75 32 -179 92 -327 125 -544 121 -63 -1 -133 -1 -155
1 -35 2 -37 3 -15 10 35 11 213 11 355 0z m-241 -58 c3 -5 -34 -15 -82 -22
-105 -15 -623 -144 -652 -162 -11 -7 -20 -16 -20 -20 0 -5 -22 -8 -50 -8 -27
0 -50 4 -50 8 0 5 39 19 88 32 48 13 134 38 192 57 111 36 250 70 390 96 152
29 176 31 184 19z m-1528 -177 c38 -59 104 -115 141 -119 24 -3 51 -31 40 -43
-3 -3 -29 8 -57 23 -64 35 -132 109 -171 186 -34 67 -38 88 -7 38 12 -19 36
-57 54 -85z m2385 -120 c17 -34 33 -82 35 -106 l4 -44 -21 60 c-25 69 -83 160
-143 224 -37 40 -34 38 26 -13 50 -43 76 -75 99 -121z m-1557 79 c9 -3 16 -10
16 -14 0 -10 -130 -47 -210 -60 -72 -11 -275 -6 -342 9 -24 5 -55 12 -70 16
-16 3 -28 10 -28 16 0 6 6 6 18 0 23 -12 352 -21 427 -11 33 4 87 13 120 20
47 10 56 14 40 21 -16 6 -16 8 -3 8 9 1 23 -2 32 -5z m711 -151 l18 -28 -21
19 c-12 11 -22 23 -22 28 0 14 7 9 25 -19z m72 21 c-3 -3 -12 -4 -19 -1 -8 3
-5 6 6 6 11 1 17 -2 13 -5z m83 -19 c33 -19 21 -19 -21 0 -19 8 -27 14 -19 14
8 0 26 -6 40 -14z m-90 -51 c0 -2 -9 0 -20 6 -11 6 -20 13 -20 16 0 2 9 0 20
-6 11 -6 20 -13 20 -16z m-1870 -9 c33 -19 21 -19 -21 0 -19 8 -27 14 -19 14
8 0 26 -6 40 -14z m1158 -10 c-3 -3 -9 2 -12 12 -6 14 -5 15 5 6 7 -7 10 -15
7 -18z m1002 -5 c8 -5 11 -10 5 -10 -5 0 -17 5 -25 10 -8 5 -10 10 -5 10 6 0
17 -5 25 -10z m-1865 -29 c18 -11 18 -11 -5 -5 -13 4 -70 10 -125 15 l-100 7
105 -2 c61 -1 114 -8 125 -15z m858 -25 c32 -9 7 -11 -140 -11 -147 0 -185 -3
-217 -18 -21 -9 -48 -17 -60 -16 -42 1 111 51 179 58 80 9 182 3 238 -13z
m-525 -6 c77 -17 57 -23 -39 -10 -46 5 -115 10 -154 11 -53 1 -64 3 -45 10 32
11 168 4 238 -11z m2199 -225 c-6 -132 -24 -196 -107 -369 -22 -46 -40 -86
-40 -90 0 -19 23 2 71 64 29 39 55 70 57 70 6 0 -6 -48 -25 -97 -16 -43 -33
-57 -33 -28 0 8 -4 15 -10 15 -5 0 -10 -4 -10 -9 0 -12 -63 -51 -83 -51 -13 0
-10 9 13 44 67 99 134 329 147 503 7 94 -4 110 -54 76 -44 -31 -50 -33 -50
-18 0 7 12 16 26 19 17 3 36 21 56 53 l30 48 8 -55 c5 -30 6 -109 4 -175z
m-454 208 c-7 -2 -19 -2 -25 0 -7 3 -2 5 12 5 14 0 19 -2 13 -5z m96 -72 c10
-14 22 -37 25 -51 4 -14 -4 -6 -19 20 -15 25 -34 54 -43 65 -16 19 -16 19 1 6
10 -8 26 -26 36 -40z m-3211 -206 c10 -27 29 -74 40 -102 12 -29 18 -53 13
-53 -8 0 -81 182 -81 203 0 17 7 5 28 -48z m50 -27 c100 -183 283 -433 386
-528 133 -123 201 -192 161 -164 -112 81 -270 244 -372 384 -64 89 -232 380
-219 380 2 0 22 -33 44 -72z m3261 -22 c-1 -19 -2 -19 -6 -1 -3 10 -12 31 -20
45 l-15 25 21 -24 c12 -13 20 -33 20 -45z m-3231 -159 c7 -16 8 -26 3 -23 -5
3 -14 20 -20 38 -13 38 0 26 17 -15z m172 -332 c64 -95 144 -200 184 -244 35
-38 37 -42 12 -27 -56 35 -119 120 -228 306 -74 128 -110 198 -123 241 -3 13
22 -32 57 -101 35 -69 79 -148 98 -175z m2979 146 c-11 -32 -51 -76 -84 -93
-11 -6 -1 9 21 33 23 24 47 54 53 67 16 31 22 27 10 -7z m224 -131 c-35 -55
-107 -136 -153 -171 -96 -73 -176 -127 -200 -133 -24 -7 -24 -6 5 19 44 37 51
43 89 69 53 36 154 123 216 187 30 32 57 57 58 58 2 1 -5 -13 -15 -29z m-377
-49 c-21 -40 -64 -89 -90 -102 -14 -8 -10 0 13 22 19 19 44 51 58 72 28 44 40
49 19 8z m-1106 -31 c18 -12 2 -12 -25 0 -13 6 -15 9 -5 9 8 0 22 -4 30 -9z
m231 -46 c17 -8 29 -18 26 -20 -3 -3 -20 4 -38 15 -40 25 -31 28 12 5z m909
-199 c18 3 37 8 42 11 4 3 8 1 8 -4 0 -31 -238 -190 -424 -284 -81 -41 -256
-111 -262 -105 -2 2 56 32 129 66 162 78 315 165 421 240 81 56 86 78 10 46
-50 -20 -52 -14 -7 18 22 16 40 22 43 16 4 -5 22 -7 40 -4z m-2560 -56 l25
-21 -33 19 c-19 10 -39 24 -45 32 -10 12 -9 12 8 3 11 -6 31 -21 45 -33z
m1985 -109 c-11 -5 -27 -9 -35 -9 -9 0 -8 4 5 9 11 5 27 9 35 9 9 0 8 -4 -5
-9z m-110 -56 c-21 -17 -84 -50 -75 -41 3 4 21 17 40 31 38 26 68 35 35 10z
m-1172 -11 c-13 -2 -33 -2 -45 0 -13 2 -3 4 22 4 25 0 35 -2 23 -4z m210 -40
c-7 -2 -21 -2 -30 0 -10 3 -4 5 12 5 17 0 24 -2 18 -5z m127 -23 c8 -5 11 -10
5 -10 -5 0 -17 5 -25 10 -8 5 -10 10 -5 10 6 0 17 -5 25 -10z m225 -71 c14
-14 -16 -10 -50 6 l-30 14 35 -6 c19 -3 39 -10 45 -14z"/>
</g>
</svg>
