<?xml version="1.0" standalone="no"?>
<!DOCTYPE svg PUBLIC "-//W3C//DTD SVG 20010904//EN"
 "http://www.w3.org/TR/2001/REC-SVG-20010904/DTD/svg10.dtd">
<svg version="1.0" xmlns="http://www.w3.org/2000/svg"
 width="342.520886pt" height="405.876014pt" viewBox="0 0 342.520886 405.876014"
 preserveAspectRatio="xMidYMid meet">
<metadata>
Created by potrace 1.16, written by Peter Selinger 2001-2019
</metadata>
<g transform="translate(-78.632034,452.916388) scale(0.100000,-0.100000)"
fill="#000000" stroke="none">
<path d="M2471 4521 c-10 -7 -13 -30 -12 -87 1 -42 4 -80 6 -84 3 -4 0 -80 -5
-169 -7 -115 -14 -169 -25 -184 -17 -25 -19 -60 -5 -88 9 -15 22 -19 70 -19
48 0 61 4 70 19 18 34 11 71 -17 98 -16 15 -22 23 -14 18 12 -7 13 1 7 46 -4
30 -7 142 -7 250 1 196 1 197 -22 203 -28 7 -29 7 -46 -3z"/>
<path d="M2250 3738 c-73 -128 -172 -298 -218 -378 -46 -80 -129 -224 -184
-320 -55 -96 -110 -191 -121 -210 -21 -34 -20 -34 33 13 30 27 95 75 145 107
49 33 98 65 107 72 9 7 105 166 212 354 l196 341 0 77 c0 43 -5 87 -12 99 -6
12 -14 35 -17 50 -5 25 -21 2 -141 -205z m-73 -236 c-276 -481 -306 -532 -318
-532 -6 0 -2 15 9 33 19 30 300 519 441 766 36 63 67 109 69 103 2 -7 -88
-173 -201 -370z"/>
<path d="M2610 3950 c-1 -14 -7 -36 -15 -50 -9 -16 -14 -54 -15 -105 l0 -80
196 -340 c107 -187 203 -346 212 -353 9 -7 58 -39 107 -72 50 -32 115 -80 145
-107 l54 -48 -26 45 c-40 71 -284 493 -358 620 -37 63 -114 196 -170 295 -57
99 -109 189 -116 200 -14 19 -14 19 -14 -5z"/>
<path d="M2454 3678 c1 -112 -2 -229 -7 -260 l-7 -58 60 0 60 0 -7 58 c-5 31
-8 148 -8 260 l0 202 -46 0 -46 0 1 -202z m23 135 c-3 -10 -5 -2 -5 17 0 19 2
27 5 18 2 -10 2 -26 0 -35z"/>
<path d="M2419 3322 c-23 -30 -25 -80 -3 -110 13 -19 24 -22 84 -22 60 0 71 3
84 22 22 31 20 80 -4 111 -17 22 -27 25 -81 24 -52 -1 -64 -5 -80 -25z"/>
<path d="M2440 2988 c0 -106 -3 -224 -7 -261 l-6 -68 73 3 72 3 -6 59 c-3 32
-6 148 -6 257 l0 199 -60 0 -60 0 0 -192z m27 90 c-2 -18 -4 -6 -4 27 0 33 2
48 4 33 2 -15 2 -42 0 -60z"/>
<path d="M2275 3075 c-357 -79 -652 -336 -776 -676 -49 -135 -62 -210 -62
-369 -1 -119 3 -162 22 -240 50 -201 146 -374 288 -515 132 -131 281 -219 459
-270 124 -36 120 -37 114 40 -3 36 -3 65 1 65 3 0 18 18 33 40 35 53 51 195
43 382 -5 121 -9 142 -31 185 -35 65 -35 136 -1 187 34 50 50 193 42 386 -6
130 -9 150 -32 195 -29 56 -28 97 7 152 15 25 22 62 28 155 5 68 10 131 10
141 0 12 -9 17 -32 18 l-33 1 30 7 c29 6 30 8 33 69 l3 62 -43 -1 c-24 -1 -70
-7 -103 -14z m68 -132 c-7 -2 -19 -2 -25 0 -7 3 -2 5 12 5 14 0 19 -2 13 -5z
m-46 -9 c-3 -3 -12 -4 -19 -1 -8 3 -5 6 6 6 11 1 17 -2 13 -5z m-72 -101 c-4
-10 -11 -43 -15 -73 l-7 -55 -2 47 c0 26 4 59 11 73 13 28 24 35 13 8z m-66
-42 c-6 -16 -14 -51 -19 -78 l-8 -48 -1 43 c0 23 6 58 13 77 18 42 29 47 15 6z
m-79 -53 c-24 -55 -42 -174 -35 -231 5 -37 4 -39 -6 -17 -6 14 -12 59 -12 100
-1 67 2 82 32 138 39 71 51 77 21 10z m-94 -60 c-36 -82 -49 -165 -44 -281 5
-98 5 -100 -9 -62 -24 67 -28 195 -9 257 17 51 75 153 82 145 3 -2 -7 -29 -20
-59z m-122 -51 c-59 -125 -76 -197 -81 -352 -4 -105 -1 -156 10 -205 9 -36 14
-66 12 -68 -7 -8 -56 160 -66 231 -21 140 11 259 108 400 25 37 48 67 49 67 2
0 -13 -33 -32 -73z m-200 -187 c-58 -154 -68 -209 -67 -380 0 -151 11 -222 56
-355 4 -11 -11 16 -32 60 -76 153 -104 360 -66 491 18 62 71 173 112 236 14
21 27 38 28 38 1 0 -13 -40 -31 -90z m633 -1326 c-3 -3 -12 -4 -19 -1 -8 3 -5
6 6 6 11 1 17 -2 13 -5z"/>
<path d="M2580 3032 l0 -59 81 -12 c372 -57 663 -311 776 -678 25 -81 27 -101
27 -258 0 -156 -3 -177 -27 -258 -107 -350 -367 -590 -729 -671 -24 -5 -26
-11 -30 -61 -4 -66 -6 -65 117 -30 181 53 327 139 461 274 139 139 227 296
281 500 22 82 26 118 26 246 0 104 -5 172 -16 221 -95 415 -387 717 -795 820
-52 13 -112 24 -133 24 l-39 0 0 -58z"/>
<path d="M2580 2913 c2 -127 19 -244 41 -279 30 -49 30 -110 -1 -160 -21 -35
-24 -54 -28 -199 -5 -192 9 -324 40 -366 13 -17 23 -49 26 -82 3 -44 -1 -62
-24 -107 -27 -52 -29 -62 -32 -212 -5 -191 9 -305 44 -358 24 -36 26 -37 64
-29 203 46 405 179 536 353 63 84 129 223 156 331 31 125 31 313 0 439 -40
159 -115 298 -226 415 -142 148 -295 235 -489 276 -103 22 -107 22 -107 -22z"/>
<path d="M2399 2618 c-24 -39 -21 -108 6 -138 15 -17 31 -20 97 -20 78 0 78 0
98 33 25 41 25 83 0 125 -20 32 -20 32 -100 32 -80 0 -80 0 -101 -32z m-2 -70
c-3 -8 -6 -5 -6 6 -1 11 2 17 5 13 3 -3 4 -12 1 -19z m183 -28 c0 -5 -2 -10
-4 -10 -3 0 -8 5 -11 10 -3 6 -1 10 4 10 6 0 11 -4 11 -10z"/>
<path d="M2427 2443 c-2 -5 0 -53 5 -108 8 -94 6 -183 -9 -333 l-5 -63 81 2
82 2 -8 76 c-10 93 -10 354 0 399 l7 32 -75 0 c-40 0 -76 -3 -78 -7z m30 -90
c-2 -16 -4 -5 -4 22 0 28 2 40 4 28 2 -13 2 -35 0 -50z"/>
<path d="M1250 2003 c-101 -175 -202 -349 -225 -388 -133 -224 -228 -398 -235
-429 -17 -78 26 -157 107 -197 l48 -24 638 -3 c601 -2 696 1 595 24 -50 10
-184 69 -237 103 l-48 31 -446 0 c-487 0 -477 -1 -477 57 0 16 86 176 215 399
l215 373 4 114 c3 62 12 144 21 182 8 37 14 70 11 72 -2 2 -86 -139 -186 -314z
m-13 -141 c-80 -141 -199 -354 -266 -472 -67 -118 -126 -228 -130 -245 l-9
-30 -1 30 c0 17 7 46 17 66 41 85 527 928 530 919 2 -6 -61 -126 -141 -268z
m-366 -789 c13 -16 12 -17 -3 -4 -10 7 -18 15 -18 17 0 8 8 3 21 -13z"/>
<path d="M3563 2305 c15 -52 27 -147 33 -249 7 -122 -2 -98 124 -316 263 -454
310 -539 310 -563 0 -58 10 -57 -476 -57 l-444 0 -43 -27 c-58 -36 -179 -91
-233 -104 -24 -6 -47 -15 -50 -20 -7 -12 1220 -11 1270 1 51 11 115 57 139 98
12 20 19 51 19 83 -1 56 -2 58 -199 399 -49 85 -167 290 -263 455 -169 295
-198 341 -187 300z"/>
<path d="M2397 1905 c-39 -39 -45 -125 -11 -173 14 -20 23 -22 114 -22 97 0
100 1 117 27 25 38 24 114 -3 150 -20 27 -25 28 -111 31 -71 2 -94 -1 -106
-13z m-10 -112 c-3 -10 -5 -2 -5 17 0 19 2 27 5 18 2 -10 2 -26 0 -35z m230 0
c-3 -10 -5 -2 -5 17 0 19 2 27 5 18 2 -10 2 -26 0 -35z m-157 -53 c0 -5 -4
-10 -10 -10 -5 0 -10 5 -10 10 0 6 5 10 10 10 6 0 10 -4 10 -10z"/>
<path d="M2415 1653 c10 -63 7 -342 -3 -415 l-9 -58 100 0 c85 0 98 2 93 15
-25 65 -32 407 -10 483 6 22 5 22 -86 22 l-92 0 7 -47z m43 -63 l0 -45 -9 40
c-4 22 -8 51 -8 65 0 23 1 23 9 5 5 -11 8 -40 8 -65z"/>
<path d="M2381 1144 c-45 -57 -46 -141 -3 -194 16 -20 26 -22 122 -21 101 1
106 2 126 27 40 50 37 132 -7 188 -20 25 -25 26 -119 26 -94 0 -99 -1 -119
-26z m-14 -116 c-3 -7 -5 -2 -5 12 0 14 2 19 5 13 2 -7 2 -19 0 -25z m233 -24
c0 -8 -5 -12 -10 -9 -6 4 -8 11 -5 16 9 14 15 11 15 -7z m-100 -14 c0 -5 -4
-10 -10 -10 -5 0 -10 5 -10 10 0 6 5 10 10 10 6 0 10 -4 10 -10z m-40 -24 c0
-11 -19 -15 -25 -6 -3 5 1 10 9 10 9 0 16 -2 16 -4z"/>
<path d="M2396 858 c-3 -29 -6 -88 -6 -130 0 -67 3 -79 21 -92 19 -13 20 -20
14 -80 -7 -65 -7 -66 20 -76 35 -13 91 -13 117 1 18 10 19 17 13 76 -6 59 -5
66 14 79 17 13 21 26 21 77 0 34 -3 94 -8 132 l-7 70 -6 -55 -6 -55 -3 55 -3
55 -7 -40 -7 -40 -3 40 c-2 36 -3 37 -10 15 -8 -24 -8 -24 -9 -2 -1 21 -5 22
-70 22 l-68 0 -7 -52z m161 -333 c-4 -8 -12 -15 -19 -14 -10 0 -10 2 0 6 6 2
12 12 12 21 0 8 3 13 6 9 4 -3 4 -13 1 -22z"/>
</g>
</svg>
