<?xml version="1.0" standalone="no"?><!DOCTYPE svg PUBLIC "-//W3C//DTD SVG 20010904//EN" "http://www.w3.org/TR/2001/REC-SVG-20010904/DTD/svg10.dtd"><svg xmlns="http://www.w3.org/2000/svg" version="1.0" width="13.4243mm" height="16mm" viewBox="0 0 228.031615 271.783369" preserveAspectRatio="xMidYMid meet">
<metadata>
Created by potrace 1.16, written by Peter Selinger 2001-2019
</metadata>
<g transform="translate(-43.105367,285.923377) scale(0.100000,-0.100000)" fill="#000000" stroke="none">
<path d="M1454 2805 c-248 -119 -539 -221 -831 -293 l-192 -47 4 -120 c3 -66 7 -203 10 -305 6 -207 34 -469 66 -617 112 -515 477 -976 974 -1228 l105 -54 88 46 c180 94 301 182 451 327 219 214 338 393 449 678 22 57 50 139 61 183 43 170 70 498 71 865 l1 244 -110 23 c-290 58 -665 183 -954 317 -42 20 -78 36 -80 35 -1 0 -52 -25 -113 -54z m-7 -106 c-3 -12 2 -23 13 -29 25 -13 34 -45 20 -70 -7 -12 -14 -20 -17 -17 -2 3 1 14 9 26 18 30 0 43 -64 45 -62 3 -74 8 -81 35 -5 20 -4 20 23 0 38 -29 74 -22 78 14 2 15 8 25 14 21 5 -3 8 -15 5 -25z m268 21 c-3 -6 -3 -19 0 -30 8 -26 45 -26 79 1 28 22 34 14 12 -16 -10 -14 -25 -18 -63 -17 -56 2 -79 -14 -70 -48 3 -11 1 -18 -4 -14 -16 9 -10 50 11 69 11 10 17 22 14 27 -8 12 3 38 16 38 6 0 8 -5 5 -10z m-229 -172 c5 -7 3 -8 -6 -3 -8 5 -18 1 -27 -10 -10 -15 -13 -16 -13 -4 0 29 32 40 46 17z m222 -25 c2 -21 9 -33 23 -36 19 -5 27 -37 9 -37 -5 0 -10 5 -10 11 0 6 -10 9 -22 7 -18 -2 -24 -11 -29 -43 -3 -22 -7 -31 -9 -20 -4 34 1 59 16 76 27 30 16 66 -19 60 -5 -1 -5 3 -2 9 14 22 40 5 43 -27z m262 -28 c63 -23 172 -58 241 -76 l127 -34 -31 -42 c-30 -42 -30 -43 -10 -60 26 -23 83 -98 112 -145 12 -21 28 -38 34 -38 7 0 32 12 56 25 l44 26 -6 -158 c-14 -345 -50 -571 -113 -715 -15 -35 -31 -67 -34 -71 -4 -5 -31 -1 -61 7 -81 24 -94 22 -112 -21 -9 -21 -32 -63 -51 -93 l-36 -55 65 -60 c36 -33 65 -64 65 -68 0 -14 -77 -122 -137 -194 -108 -129 -299 -301 -315 -285 -5 5 -19 51 -32 103 l-24 94 -166 3 -165 2 -7 -27 c-19 -86 -47 -183 -53 -183 -4 0 -38 25 -76 55 -100 79 -250 237 -322 338 l-61 87 65 63 66 64 -45 74 c-25 41 -48 84 -52 97 -5 15 -13 21 -22 18 -29 -11 -136 -37 -140 -34 -1 2 -17 35 -34 73 -37 83 -74 221 -89 331 -29 209 -50 534 -36 534 3 0 23 -9 45 -20 22 -11 43 -20 48 -20 5 0 30 30 55 68 25 37 60 83 77 103 l30 36 -31 39 -30 39 23 6 c215 63 289 87 375 120 57 22 107 38 111 35 5 -3 24 -46 41 -96 l33 -90 178 0 c205 0 181 -13 225 118 23 67 31 82 44 76 9 -4 68 -26 131 -49z m-491 -69 c-1 -32 -3 -29 -13 17 -7 31 -39 37 -54 11 -6 -11 -11 -13 -16 -5 -9 15 1 30 28 41 28 11 56 -21 55 -64z"/>
<path d="M1217 2346 c-124 -45 -238 -158 -319 -321 -36 -70 -75 -200 -83 -272 -7 -54 -5 -62 11 -67 31 -9 286 -57 288 -54 1 2 6 16 12 33 14 43 67 75 112 69 37 -4 37 -4 85 73 27 43 76 119 109 170 57 88 59 93 44 115 -38 54 -8 132 55 145 38 7 37 19 -3 43 -37 23 -101 26 -138 7 -57 -29 -90 -131 -60 -188 9 -16 0 -37 -53 -121 -63 -100 -66 -102 -113 -113 -58 -13 -96 -36 -114 -69 -11 -21 -18 -24 -49 -19 -20 3 -40 9 -44 13 -13 12 31 157 75 245 51 102 94 163 182 253 71 73 72 82 3 58z"/>
<path d="M1943 2284 c92 -94 156 -185 198 -286 38 -87 70 -196 61 -202 -4 -2 -23 -6 -44 -10 -32 -6 -38 -3 -57 22 -25 35 -77 62 -120 62 -29 0 -37 8 -101 107 -54 83 -67 110 -59 124 14 27 11 96 -6 129 -36 69 -123 92 -192 50 -41 -24 -42 -36 -3 -43 44 -9 70 -40 70 -85 0 -21 -7 -47 -15 -60 -15 -21 -11 -29 97 -189 l113 -168 43 3 c37 3 47 -1 77 -31 19 -19 35 -42 35 -51 0 -21 11 -20 170 13 158 32 152 25 120 156 -62 265 -249 498 -425 531 l-39 7 77 -79z"/>
<path d="M1449 1933 c-68 -108 -125 -200 -127 -205 -2 -4 111 -8 252 -8 174 0 256 3 256 11 0 5 -28 54 -63 107 -35 53 -91 141 -126 195 -35 53 -64 97 -66 97 -1 0 -58 -89 -126 -197z m234 -35 c-4 -7 -30 -46 -56 -87 l-49 -74 -54 81 c-30 45 -54 84 -54 87 0 3 50 5 110 5 86 0 109 -3 103 -12z"/>
<path d="M1517 1540 c-31 -49 -57 -94 -57 -100 0 -13 27 -13 32 0 4 12 71 -46 81 -70 6 -13 8 -13 14 0 12 29 76 81 87 70 13 -13 26 -13 26 0 0 12 -113 190 -121 190 -3 0 -31 -40 -62 -90z"/>
<path d="M2260 1589 c-61 -38 -157 -69 -242 -78 -90 -10 -108 -7 -108 19 0 10 -8 28 -18 40 -25 31 -44 18 -36 -25 8 -42 -18 -134 -53 -186 -14 -21 -50 -55 -80 -75 -45 -30 -54 -40 -49 -58 3 -11 6 -24 6 -28 0 -5 16 -8 35 -8 30 0 35 -3 35 -25 0 -13 5 -46 11 -74 9 -42 15 -51 41 -60 37 -13 98 -15 98 -3 0 5 -12 19 -26 33 -41 37 -70 112 -65 167 2 23 17 12 102 -73 92 -92 117 -102 177 -71 31 16 68 54 60 61 -3 3 -31 12 -63 20 -69 18 -142 56 -193 101 -31 27 -34 33 -20 39 23 9 95 2 193 -20 47 -11 92 -16 108 -12 29 8 87 78 87 107 0 15 -7 15 -77 4 -106 -18 -234 -18 -258 0 -31 22 -12 46 37 46 108 1 303 45 328 75 15 18 26 105 14 105 -5 0 -25 -10 -44 -21z"/>
<path d="M850 1561 c0 -23 7 -47 18 -59 30 -35 174 -69 312 -75 58 -2 65 -4 68 -23 5 -36 -43 -48 -156 -40 -53 4 -117 12 -141 17 -24 5 -46 8 -48 5 -10 -10 11 -50 44 -87 35 -38 37 -39 87 -33 28 3 74 12 101 19 67 19 157 23 162 9 8 -23 -112 -100 -201 -129 l-87 -28 23 -25 c30 -32 71 -52 105 -52 22 0 47 19 116 90 48 50 93 88 99 84 25 -16 -17 -138 -61 -178 -31 -28 -26 -36 22 -36 58 0 84 20 92 72 14 96 14 97 48 100 26 2 33 8 35 30 3 22 -4 32 -36 52 -94 59 -144 143 -147 246 -1 48 -5 64 -15 62 -20 -5 -39 -34 -40 -61 0 -24 0 -24 -84 -18 -88 6 -209 41 -268 77 -45 27 -48 26 -48 -19z"/>
<path d="M1543 1283 c-18 -19 -33 -43 -33 -52 0 -10 -11 -30 -24 -44 -24 -25 -24 -27 -6 -37 10 -5 28 -31 41 -56 18 -38 20 -52 12 -78 -15 -45 -9 -130 10 -159 9 -15 22 -47 29 -72 l12 -45 14 47 c8 26 21 57 30 68 17 22 19 84 6 181 -5 35 -1 46 29 85 l34 45 -23 28 c-13 15 -24 33 -24 41 0 10 -68 88 -73 84 -1 -1 -17 -17 -34 -36z m73 -89 c9 -35 -27 -74 -50 -54 -16 12 -22 61 -9 73 3 4 17 7 29 7 17 0 25 -7 30 -26z"/>
<path d="M1426 1028 c-29 -52 -46 -73 -71 -84 -41 -17 -51 -48 -22 -74 26 -25 37 -25 37 0 0 13 7 20 20 20 21 0 27 -15 10 -25 -34 -21 23 -35 61 -15 23 13 25 55 4 64 -13 5 -11 15 14 64 31 62 32 91 2 109 -15 9 -22 1 -55 -59z"/>
<path d="M1687 1079 c-24 -14 -21 -51 9 -110 24 -47 24 -52 8 -63 -12 -9 -15 -20 -10 -39 6 -24 11 -27 48 -27 33 0 39 3 30 12 -19 19 -14 28 13 28 19 0 25 -5 25 -21 0 -20 2 -20 23 -6 35 23 29 58 -17 83 -29 16 -48 39 -72 84 -39 74 -35 71 -57 59z"/>
</g>
</svg>