<?xml version="1.0" standalone="no"?><!DOCTYPE svg PUBLIC "-//W3C//DTD SVG 20010904//EN" "http://www.w3.org/TR/2001/REC-SVG-20010904/DTD/svg10.dtd"><svg xmlns="http://www.w3.org/2000/svg" version="1.0" width="15.9417mm" height="16mm" viewBox="0 0 361.608069 362.930116" preserveAspectRatio="xMidYMid meet">
<metadata>
Created by potrace 1.16, written by Peter Selinger 2001-2019
</metadata>
<g transform="translate(-91.382720,471.948176) scale(0.100000,-0.100000)" fill="#000000" stroke="none">
<path d="M2521 4704 c-199 -27 -394 -86 -576 -173 -524 -252 -891 -714 -994 -1251 -121 -632 53 -1205 499 -1649 347 -344 822 -542 1300 -541 284 1 604 88 864 237 568 327 916 935 916 1603 0 526 -224 1009 -624 1349 -402 342 -891 492 -1385 425z m479 -168 c383 -66 709 -238 955 -503 187 -202 333 -492 396 -788 21 -97 24 -136 24 -335 0 -198 -3 -238 -23 -330 -65 -298 -195 -555 -389 -775 -86 -97 -200 -201 -210 -191 -3 3 5 14 18 25 32 26 17 38 -27 22 -19 -7 -54 -11 -77 -9 -35 2 -42 0 -45 -17 -10 -68 -24 -86 -35 -44 -8 29 -38 21 -55 -14 -13 -27 -15 -28 -33 -11 -18 17 -14 44 11 59 6 3 10 13 10 21 0 10 -12 14 -40 14 -22 0 -40 5 -40 10 0 6 18 10 40 10 22 0 40 4 40 10 0 18 -43 32 -86 27 -54 -6 -57 5 -7 24 l37 15 -35 22 c-51 31 -97 39 -105 18 -4 -9 -20 -30 -36 -46 -23 -23 -28 -35 -22 -52 10 -28 10 -58 0 -80 -6 -14 -3 -18 14 -18 27 0 21 -24 -7 -28 -13 -2 -35 9 -55 27 -22 21 -28 31 -17 31 9 0 24 9 33 19 17 19 16 21 -28 69 -25 27 -46 54 -46 61 0 6 -13 11 -30 11 -19 0 -30 5 -30 14 0 20 -19 31 -33 17 -7 -7 -14 -7 -23 0 -20 16 -32 4 -64 -67 -16 -35 -37 -67 -46 -71 -9 -3 -37 -1 -62 6 -31 8 -48 9 -56 1 -5 -5 -32 -10 -58 -10 -37 0 -50 4 -55 18 -4 9 -11 20 -16 23 -5 4 -2 20 7 37 31 60 8 73 -36 20 l-27 -33 -1 38 c0 50 -22 49 -56 -3 -15 -22 -32 -40 -38 -40 -6 0 -22 16 -34 36 -32 49 -45 32 -27 -36 8 -30 15 -56 15 -57 0 -2 -9 -3 -19 -3 -11 0 -34 18 -53 40 -29 35 -41 42 -96 52 -61 11 -63 11 -91 -16 l-29 -27 -22 31 c-17 24 -28 31 -46 27 -18 -3 -24 0 -24 14 0 11 5 19 10 19 6 0 10 5 10 10 0 13 -117 13 -125 0 -5 -8 -11 -8 -20 0 -11 9 -17 6 -30 -14 -10 -14 -26 -26 -36 -26 -13 0 -19 -7 -19 -24 0 -14 -4 -28 -10 -31 -5 -3 -10 -15 -10 -26 0 -17 3 -18 21 -9 29 16 46 7 51 -29 5 -35 1 -37 -39 -17 -64 32 -90 40 -126 37 -36 -3 -38 -2 -28 17 6 12 16 24 21 27 15 10 12 35 -5 35 -8 0 -27 -13 -41 -29 -22 -25 -29 -28 -45 -18 -15 9 -23 7 -43 -12 -35 -33 -67 -22 -116 42 -22 28 -63 75 -91 103 -56 56 -60 80 -19 101 14 7 51 13 82 13 31 0 105 9 165 21 59 11 148 22 198 23 107 3 137 15 229 89 55 44 81 57 129 68 56 12 89 31 98 58 3 8 12 8 36 -1 28 -11 37 -9 81 15 27 15 62 27 76 27 46 0 95 -27 117 -65 28 -46 49 -46 49 0 0 50 -32 108 -73 129 -27 15 -48 18 -101 14 -36 -3 -66 -3 -66 0 0 3 7 14 17 24 20 22 52 23 117 3 70 -21 88 -20 84 8 -4 30 -103 82 -185 97 -70 14 -115 0 -121 -35 -7 -36 -71 -92 -112 -99 -22 -3 -43 -12 -47 -19 -4 -8 -16 -16 -26 -20 -9 -4 -21 -17 -26 -31 -10 -26 -45 -36 -136 -40 -78 -3 -97 23 -50 69 21 22 33 25 92 25 81 0 133 13 183 46 51 34 67 66 50 98 -12 23 -10 28 21 60 18 20 39 36 45 36 7 0 26 12 43 26 28 23 36 25 86 19 54 -7 55 -7 55 18 0 37 -23 50 -98 50 -51 1 -77 -4 -108 -20 -43 -23 -54 -21 -54 6 0 23 76 51 138 51 45 0 52 3 52 20 0 35 -121 71 -172 51 -39 -15 -121 -80 -136 -108 -12 -21 -11 -28 5 -51 11 -17 18 -46 18 -79 0 -57 -6 -63 -83 -78 -18 -4 -47 -20 -63 -36 -25 -25 -38 -29 -83 -29 -40 0 -57 5 -71 20 -29 32 -69 26 -94 -15 -11 -19 -24 -35 -28 -35 -30 1 -60 60 -69 133 l-6 55 27 -6 c27 -5 27 -4 21 29 -25 117 -22 129 37 172 22 15 39 82 30 117 -6 22 -4 23 10 12 26 -22 29 -63 12 -170 -18 -113 -13 -139 17 -95 50 72 88 167 88 220 0 42 4 54 20 63 52 28 49 -22 -12 -200 -53 -153 -52 -150 -40 -150 15 0 48 49 78 114 13 29 31 59 39 66 8 7 24 42 35 79 11 36 27 77 35 91 14 24 14 23 15 -32 0 -32 4 -58 8 -58 5 0 20 39 35 88 42 139 58 145 72 28 l7 -61 21 40 c16 31 21 60 22 128 2 93 5 103 30 94 12 -5 15 -23 15 -85 0 -57 4 -83 14 -91 15 -12 18 -2 28 99 5 47 32 27 73 -56 22 -45 46 -89 54 -98 31 -36 418 -276 447 -276 4 0 59 -51 123 -113 82 -80 134 -122 176 -143 57 -27 67 -29 180 -28 134 1 195 15 195 44 0 29 -46 67 -130 106 -41 20 -95 46 -119 58 -42 20 -181 154 -274 264 -54 64 -103 153 -112 205 -10 52 6 69 61 66 24 -2 46 -1 49 2 9 9 -22 74 -51 109 -15 17 -56 51 -91 75 l-64 43 76 25 c71 24 78 25 117 11 29 -10 60 -13 100 -8 l59 7 37 -40 c27 -29 52 -45 93 -57 31 -9 62 -23 69 -31 7 -8 20 -15 29 -15 9 -1 34 -8 56 -16 36 -14 115 -32 310 -70 39 -7 106 -16 150 -20 73 -6 125 -23 125 -42 0 -4 -17 -6 -38 -4 -26 3 -44 -1 -55 -12 -14 -15 -16 -14 -19 6 -2 17 -10 23 -28 23 -20 0 -27 -8 -40 -43 -9 -23 -24 -51 -33 -62 -10 -12 -12 -22 -6 -26 11 -7 48 15 80 48 20 21 21 21 14 3 -22 -58 -21 -59 31 -30 27 16 61 37 77 47 44 31 35 -5 -10 -39 -67 -50 -78 -79 -24 -63 47 13 71 30 81 56 6 14 25 31 42 39 18 7 49 30 68 49 31 33 35 43 38 106 4 64 1 75 -37 154 -61 126 -129 191 -256 246 -61 26 -125 63 -165 94 -36 29 -155 114 -265 189 -157 107 -209 148 -242 192 -37 48 -47 55 -77 55 -45 0 -52 10 -70 93 -4 17 -13 27 -24 27 -40 0 -94 23 -141 60 l-49 39 -81 -29 c-45 -17 -92 -30 -104 -30 -12 0 -40 -11 -62 -25 -28 -17 -55 -24 -88 -25 -35 0 -67 -10 -116 -35 -37 -19 -78 -35 -92 -35 -13 0 -46 14 -74 30 -57 34 -83 37 -92 13 -4 -11 4 -25 25 -43 19 -15 32 -36 32 -49 0 -12 5 -31 11 -43 17 -31 3 -34 -54 -9 -115 50 -135 55 -162 37 -35 -23 -31 -38 20 -75 58 -41 83 -77 66 -94 -20 -20 -93 -12 -150 16 -58 30 -91 34 -91 13 0 -8 11 -53 25 -100 14 -47 25 -88 25 -91 0 -9 -35 -5 -79 11 -103 36 -121 -26 -32 -110 41 -39 39 -49 -9 -41 -37 6 -40 5 -40 -16 0 -12 10 -33 22 -46 32 -34 13 -41 -37 -13 -64 35 -75 19 -40 -59 16 -34 25 -64 22 -68 -4 -3 -22 8 -42 25 -60 53 -80 20 -53 -85 10 -43 10 -48 -11 -64 -19 -16 -24 -16 -52 -2 -41 21 -56 6 -35 -35 29 -56 11 -75 -20 -23 -22 38 -34 31 -34 -19 0 -71 -37 -61 -73 20 -22 51 -19 55 -52 -62 -8 -32 -20 -58 -24 -58 -5 0 -34 23 -64 50 -82 75 -102 67 -99 -38 l2 -63 -50 27 c-27 15 -59 37 -71 51 -22 22 -22 26 -10 86 47 229 113 396 241 607 112 184 270 349 450 470 201 135 447 229 685 260 50 6 97 13 105 15 35 9 352 -5 430 -19z m137 -591 c46 -126 18 -260 -64 -303 -30 -16 -53 -15 -75 5 -28 25 -22 50 26 101 61 65 66 90 27 135 -44 49 -39 86 14 116 34 19 49 8 72 -54z m244 -152 c9 -18 44 -63 79 -99 112 -120 120 -192 29 -250 -36 -22 -45 -24 -69 -14 -37 15 -105 84 -121 122 -11 26 -10 31 10 44 25 18 27 57 9 144 -6 31 -8 65 -5 74 11 28 50 16 68 -21z m348 -374 c12 -11 21 -25 19 -31 -2 -5 -38 -11 -81 -13 -87 -3 -106 7 -81 43 21 31 110 31 143 1z m-2185 -719 c19 -22 38 -51 42 -64 4 -16 11 -23 20 -19 15 6 19 -24 7 -65 -6 -23 -8 -22 -54 24 -54 53 -59 64 -29 64 27 0 25 8 -10 50 -54 62 -32 71 24 10z m49 -335 c26 -25 37 -44 37 -65 0 -41 -14 -45 -50 -13 -23 20 -33 40 -37 71 -3 23 -2 42 3 42 5 0 26 -16 47 -35z m-349 -74 c-4 -18 5 -55 25 -105 17 -43 31 -82 31 -87 0 -42 -70 59 -95 139 -17 50 -17 54 0 72 24 26 46 15 39 -19z m155 -35 c12 -13 35 -26 50 -29 38 -8 63 -34 56 -58 -3 -10 1 -31 9 -47 18 -36 6 -52 -40 -52 -43 0 -82 33 -110 94 -44 94 -22 152 35 92z m311 3 c9 -16 8 -26 -5 -45 -8 -13 -17 -24 -19 -24 -3 0 -4 20 -4 45 0 48 11 58 28 24z m400 -620 c0 -18 5 -20 26 -16 22 4 25 2 21 -15 -5 -16 -2 -19 17 -16 21 4 33 -3 50 -30 6 -11 0 -12 -31 -6 -21 4 -47 13 -59 21 -16 10 -28 11 -52 2 -38 -13 -62 -6 -62 17 0 12 7 15 26 11 16 -3 27 0 30 9 2 8 6 21 9 29 7 23 25 18 25 -6z"/>
<path d="M3427 3173 c-16 -18 -49 -103 -40 -103 15 0 65 46 79 71 23 46 -5 69 -39 32z"/>
<path d="M3464 3108 c-20 -35 -39 -67 -42 -72 -2 -4 6 -5 19 -1 39 11 89 70 89 105 0 48 -25 36 -66 -32z"/>
<path d="M3524 3078 c-37 -50 -43 -64 -30 -66 36 -7 124 82 112 113 -11 29 -37 14 -82 -47z"/>
<path d="M3623 3097 c-37 -43 -77 -107 -70 -113 3 -3 27 7 52 22 57 33 89 79 74 106 -14 25 -23 23 -56 -15z"/>
<path d="M3687 3065 c-34 -49 -36 -55 -18 -55 33 0 83 49 79 78 -5 41 -21 35 -61 -23z"/>
<path d="M3800 3071 c-5 -11 -10 -37 -10 -58 0 -22 -5 -44 -11 -50 -19 -19 8 -25 38 -9 27 13 97 119 86 130 -3 2 -16 1 -29 -4 -15 -6 -24 -6 -24 0 0 18 -39 10 -50 -9z"/>
<path d="M3146 2871 c-41 -40 -46 -76 -11 -76 23 0 65 59 65 91 0 31 -8 29 -54 -15z"/>
<path d="M3252 2783 c-31 -31 -43 -75 -23 -88 12 -7 49 40 57 71 11 44 -1 50 -34 17z"/>
<path d="M3468 2767 c-7 -8 -26 -35 -43 -61 l-30 -48 -5 33 -5 34 -32 -49 c-35 -53 -42 -86 -19 -86 19 0 46 27 47 48 0 9 5 4 9 -12 7 -23 5 -32 -7 -41 -14 -10 -14 -13 2 -28 25 -26 45 -21 87 23 57 61 51 82 -15 55 -16 -7 -14 2 12 53 32 62 38 92 22 92 -5 0 -16 -6 -23 -13z"/>
<path d="M3318 2739 c-30 -29 -38 -45 -38 -73 0 -20 3 -36 8 -36 4 0 22 20 40 45 23 31 32 52 30 72 l-3 28 -37 -36z"/>
<path d="M3534 2638 c-47 -54 -71 -105 -56 -120 9 -9 17 -10 30 -2 23 14 83 115 80 133 -5 26 -25 22 -54 -11z"/>
<path d="M3570 2558 c-36 -64 -37 -78 -6 -78 18 0 27 -8 35 -30 5 -16 13 -30 16 -30 9 0 55 102 55 122 0 23 -18 32 -35 18 -13 -11 -14 -8 -9 19 10 51 -21 39 -56 -21z"/>
</g>
</svg>