<?xml version="1.0" standalone="no"?><!DOCTYPE svg PUBLIC "-//W3C//DTD SVG 20010904//EN" "http://www.w3.org/TR/2001/REC-SVG-20010904/DTD/svg10.dtd"><svg xmlns="http://www.w3.org/2000/svg" version="1.0" width="16mm" height="15.9337mm" viewBox="0 0 407.626901 405.938742" preserveAspectRatio="xMidYMid meet">
<metadata>
Created by potrace 1.16, written by Peter Selinger 2001-2019
</metadata>
<g transform="translate(-19.675789,426.423487) scale(0.100000,-0.100000)" fill="#000000" stroke="none">
<path d="M2302 4263 c-7 -3 -21 -22 -31 -43 -16 -33 -16 -40 -4 -44 17 -7 73 32 73 51 0 15 -11 11 -45 -16 -15 -12 -14 -9 4 11 24 27 26 48 3 41z"/>
<path d="M1795 4241 c-22 -10 -53 -22 -70 -26 -46 -10 -107 -81 -128 -148 -16 -51 -24 -61 -71 -91 -51 -33 -96 -79 -96 -99 0 -5 20 9 45 32 24 22 46 41 49 41 10 0 -29 -102 -49 -127 -21 -25 -23 -26 -39 -10 -21 21 -36 21 -62 3 -28 -22 -7 -52 36 -49 30 1 31 -1 25 -25 -12 -50 -78 -102 -128 -102 -60 0 -77 88 -31 156 32 46 50 61 86 68 33 7 84 53 93 85 9 29 -13 19 -24 -11 -5 -14 -30 -29 -72 -44 -80 -30 -79 -30 -69 4 32 108 104 205 149 200 46 -5 32 -68 -16 -68 -21 0 -15 17 8 23 24 6 21 30 -4 35 -19 4 -51 -42 -43 -63 8 -22 49 -18 80 6 22 17 27 28 24 58 -3 32 -6 36 -35 39 -58 6 -139 -96 -174 -218 -8 -29 -28 -61 -56 -88 -24 -24 -43 -51 -43 -59 0 -12 -3 -13 -14 -4 -21 17 -45 3 -68 -43 -16 -29 -23 -36 -26 -23 -6 30 -20 18 -51 -45 -29 -60 -31 -61 -31 -29 l0 34 -44 -39 c-24 -22 -54 -58 -67 -80 -14 -25 -28 -40 -36 -37 -8 3 -19 -9 -28 -31 -20 -48 -19 -63 3 -36 21 25 32 17 50 -37 15 -46 -2 -51 -48 -14 -21 17 -43 31 -49 31 -6 0 -13 -16 -17 -35 -4 -25 -11 -35 -25 -35 -23 0 -39 -28 -40 -72 -1 -31 -3 -29 -31 32 -54 113 -50 239 9 318 29 38 21 59 -8 24 -28 -35 -59 -146 -59 -213 0 -70 30 -154 90 -254 40 -67 42 -68 34 -30 -4 22 -8 65 -8 95 -1 44 2 55 16 58 11 2 23 -8 33 -28 16 -31 12 -56 -7 -44 -13 8 -28 -15 -21 -33 3 -7 11 -13 19 -13 32 0 46 90 19 126 -16 21 -19 50 -7 58 5 3 25 -7 46 -21 30 -22 41 -25 55 -16 16 10 21 -4 55 -146 39 -161 61 -230 50 -156 -17 115 -57 300 -80 373 -24 74 -25 86 -13 109 l14 26 5 -44 c3 -24 9 -50 13 -56 13 -21 44 -15 65 14 l19 26 12 -77 c6 -42 18 -138 27 -214 10 -75 21 -141 26 -147 4 -5 6 10 3 35 -3 25 -14 126 -25 225 -11 99 -25 198 -30 219 -7 31 -4 50 12 93 11 30 24 51 28 46 15 -15 39 -197 50 -368 10 -174 27 -326 37 -335 3 -3 3 24 -1 60 -4 36 -11 157 -16 270 -5 112 -15 237 -22 276 -13 80 -1 150 28 161 29 11 63 -48 44 -77 -9 -13 -11 -13 -20 0 -7 11 -12 12 -21 3 -15 -15 -5 -43 15 -43 27 0 47 45 45 97 -3 56 10 84 50 112 41 30 43 27 16 -21 -33 -57 -34 -134 -4 -167 17 -19 29 -22 56 -18 65 11 143 91 143 146 0 35 58 96 88 93 13 -2 33 5 44 15 20 18 21 17 15 -2 -3 -11 -22 -81 -43 -155 -20 -74 -46 -173 -59 -220 -31 -113 -38 -146 -30 -138 7 7 11 21 110 363 80 281 81 282 128 306 41 22 87 65 87 82 0 6 -14 -3 -31 -20 -27 -29 -83 -52 -95 -40 -10 10 58 117 93 147 46 41 79 53 104 39 27 -14 20 -43 -11 -47 -22 -2 -23 -1 -7 8 21 13 22 26 2 34 -9 3 -25 -4 -36 -15 -26 -26 -10 -49 36 -49 38 0 65 26 65 63 0 47 -49 59 -115 28z m-106 -113 c-17 -29 -36 -65 -42 -80 -11 -26 -34 -44 -45 -34 -10 11 31 103 60 133 50 51 63 41 27 -19z m-59 -158 c0 -45 -49 -103 -77 -93 -30 11 -9 83 27 96 25 9 50 8 50 -3z m-210 -180 c0 -5 -6 -10 -14 -10 -8 0 -18 5 -21 10 -3 6 3 10 14 10 12 0 21 -4 21 -10z m-439 -250 c4 -54 -9 -82 -34 -78 -33 5 -36 72 -6 104 27 29 37 22 40 -26z"/>
<path d="M2637 4249 c-58 -14 -131 -55 -188 -105 -39 -35 -57 -44 -73 -39 -46 14 -196 17 -243 6 -51 -13 -138 -59 -129 -68 3 -3 11 -1 18 4 15 12 105 43 124 43 7 0 -1 -13 -17 -29 -33 -33 -39 -78 -12 -88 9 -4 34 3 56 15 36 20 41 21 52 6 8 -12 22 -15 43 -12 l31 4 -32 -44 c-18 -24 -83 -94 -146 -154 -62 -61 -109 -109 -103 -107 28 10 194 166 283 265 61 69 109 114 125 118 15 4 28 5 30 3 5 -5 -222 -272 -359 -422 l-101 -110 113 110 c62 61 151 154 199 208 49 55 98 100 112 104 13 3 60 -1 105 -10 91 -19 151 -22 160 -7 4 6 -6 10 -22 10 l-28 0 25 20 c26 20 106 37 118 25 4 -3 -13 -25 -36 -47 -24 -22 -42 -42 -39 -44 2 -2 26 10 53 28 61 38 103 51 121 37 10 -9 10 -16 1 -33 -20 -37 -75 -66 -62 -32 7 18 -9 28 -30 20 -24 -9 -19 -33 9 -46 21 -10 33 -8 68 9 23 11 49 33 57 48 14 25 13 28 -10 47 -18 14 -33 18 -57 13 -27 -5 -32 -3 -27 10 4 8 1 15 -6 15 -49 0 95 73 165 84 39 6 39 6 18 -10 -30 -21 -29 -50 1 -69 29 -19 72 -11 86 15 14 27 12 38 -10 60 -15 15 -33 20 -77 20 -63 0 -115 -20 -187 -70 -25 -17 -58 -33 -75 -36 -26 -6 -29 -4 -24 14 4 17 -1 23 -21 28 -15 3 -40 4 -55 1 -20 -4 -31 -2 -35 8 -6 17 -58 20 -86 5 -15 -8 -17 -6 -13 10 4 15 0 20 -16 20 -12 0 -32 -5 -44 -11 -12 -5 4 15 36 46 69 65 142 105 194 105 28 0 34 3 23 10 -8 5 -17 9 -20 9 -3 -1 -22 -5 -43 -10z m421 -182 c4 -34 -22 -47 -46 -23 -15 15 -15 16 5 16 27 0 40 19 22 32 -12 8 -11 9 1 5 8 -2 16 -16 18 -30z m-823 -9 c-39 -47 -73 -64 -92 -45 -12 12 -11 18 12 45 22 26 34 32 67 32 l40 0 -27 -32z m124 -4 c-32 -35 -80 -56 -96 -42 -36 29 5 68 70 68 l50 0 -24 -26z m211 -12 c0 -32 -35 -54 -91 -58 l-52 -4 24 26 c44 48 119 70 119 36z m105 -12 c3 -5 -7 -23 -22 -40 -26 -28 -32 -31 -66 -25 -20 4 -37 11 -37 16 0 5 3 9 8 9 4 0 20 11 36 25 29 25 70 33 81 15z"/>
<path d="M2227 4234 c-3 -3 -3 -12 -1 -19 3 -7 1 -23 -6 -34 -7 -15 -8 -21 0 -21 13 0 41 61 34 72 -6 10 -18 10 -27 2z"/>
<path d="M3110 3999 c-117 -23 -208 -85 -196 -135 5 -18 1 -23 -22 -29 -37 -9 -72 -44 -72 -72 0 -35 46 -73 87 -73 45 0 89 41 73 69 -14 28 -49 37 -67 18 -19 -19 -10 -49 12 -41 10 4 14 13 10 23 -5 14 -4 14 11 -1 22 -21 11 -48 -18 -48 -64 0 -93 73 -42 107 14 9 50 19 80 21 64 5 83 22 25 22 -33 0 -41 4 -41 18 0 22 32 53 77 76 47 24 180 49 225 43 21 -3 38 -1 38 4 0 11 -119 10 -180 -2z"/>
<path d="M1704 3929 c-8 -14 11 -33 25 -25 6 4 11 14 11 22 0 16 -26 19 -36 3z"/>
<path d="M1096 3921 c-4 -5 -3 -29 1 -53 l7 -43 7 45 c6 43 -2 73 -15 51z"/>
<path d="M1126 3905 c-9 -24 -7 -63 3 -69 5 -3 11 7 13 22 3 15 7 33 9 41 6 20 -17 25 -25 6z"/>
<path d="M3060 3880 c0 -5 12 -10 26 -10 42 0 23 -23 -44 -51 l-61 -25 47 -17 c26 -10 80 -42 121 -72 40 -30 88 -57 106 -61 21 -4 35 -13 38 -25 3 -11 20 -25 37 -33 18 -7 29 -16 24 -18 -22 -13 -324 -107 -361 -113 -24 -4 -43 -10 -43 -15 0 -4 8 -6 18 -4 89 20 213 52 344 91 141 41 161 44 188 33 16 -7 30 -16 30 -20 0 -8 -69 -28 -115 -33 l-30 -3 35 -10 c22 -7 51 -7 77 -2 33 8 48 6 75 -9 l33 -18 -42 -3 c-62 -5 -74 -32 -33 -73 17 -18 30 -33 28 -34 -7 -6 -258 -26 -398 -32 -82 -3 -150 -10 -150 -15 0 -5 43 -7 98 -4 53 3 149 8 212 11 63 3 167 10 230 17 102 10 119 9 148 -6 17 -9 32 -21 32 -25 0 -5 -15 -19 -34 -31 -40 -24 -47 -38 -34 -62 8 -16 2 -18 -59 -18 -37 0 -113 7 -167 15 -55 8 -101 13 -103 11 -13 -13 282 -56 383 -56 40 0 77 -6 96 -16 29 -15 30 -17 12 -27 -22 -14 -365 -16 -434 -4 -29 5 -41 5 -35 -2 13 -12 193 -31 300 -31 l85 0 21 -42 c31 -62 57 -96 82 -109 21 -11 21 -11 6 7 -34 40 -32 43 22 37 37 -4 53 -2 59 7 13 21 -8 54 -53 83 -33 22 -37 27 -19 27 12 0 22 6 22 14 0 16 -51 56 -72 56 -8 1 -7 4 5 11 27 16 20 46 -17 74 -18 14 -33 33 -32 42 0 9 -14 27 -32 39 -23 16 -28 23 -17 26 21 4 -67 113 -110 137 -16 9 -32 17 -35 19 -2 2 2 7 9 12 11 6 6 13 -20 29 -19 12 -41 21 -49 21 -11 1 -10 3 4 11 10 6 56 14 101 17 74 4 88 2 139 -21 64 -30 67 -18 3 15 -57 29 -153 34 -251 14 -101 -21 -139 -20 -159 2 -15 16 -15 20 -1 40 10 14 26 22 45 22 26 0 29 -3 23 -24 -7 -29 12 -44 32 -24 43 42 -53 87 -121 56 -14 -6 -25 -15 -25 -20 0 -13 -28 -9 -63 9 l-32 16 48 13 c48 12 77 29 77 45 0 18 -41 49 -65 49 -15 0 -25 6 -25 14 0 8 -6 16 -12 19 -28 10 52 29 129 31 68 1 86 -2 110 -20 34 -25 37 -58 7 -62 -12 -2 -24 3 -27 11 -3 9 1 14 11 13 9 0 17 6 17 14 0 22 -59 20 -63 -2 -9 -44 78 -77 112 -42 37 37 -3 86 -85 103 -57 12 -168 2 -223 -19 -15 -5 -39 -10 -53 -10 -21 0 -23 3 -14 14 10 12 6 17 -26 25 -48 14 -63 14 -63 1z m130 -79 c0 -11 -12 -23 -30 -31 -25 -10 -36 -9 -75 6 l-45 19 27 12 c16 7 49 12 76 13 39 0 47 -3 47 -19z m87 -47 c8 -21 -7 -34 -49 -43 -27 -6 -40 -4 -58 11 -26 21 -26 21 15 36 45 16 85 14 92 -4z m378 -346 l28 -33 -37 -7 c-37 -8 -86 8 -101 32 -11 18 16 40 50 40 25 0 40 -8 60 -32z m113 -164 c12 -8 22 -21 22 -28 0 -24 -72 -34 -100 -16 -13 9 -10 14 15 35 35 29 34 29 63 9z m72 -180 c45 -18 70 -51 46 -60 -34 -13 -69 1 -93 39 -27 43 -18 47 47 21z"/>
<path d="M1054 3859 c-3 -6 -2 -14 4 -18 6 -4 15 -18 21 -31 l10 -25 0 27 c2 48 -18 74 -35 47z"/>
<path d="M900 3756 c0 -32 21 -85 27 -68 3 6 9 10 14 6 5 -3 9 3 9 13 0 10 3 29 7 42 4 18 2 22 -8 19 -8 -3 -17 -18 -20 -34 -6 -27 -7 -27 -8 9 -1 40 -21 53 -21 13z"/>
<path d="M864 3708 c-4 -6 -2 -14 5 -16 7 -2 17 -16 23 -31 11 -25 12 -25 15 -4 5 24 -12 63 -27 63 -5 0 -12 -5 -16 -12z"/>
<path d="M3542 3683 c-41 -5 -32 -23 13 -23 41 0 67 9 59 21 -5 9 -12 9 -72 2z"/>
<path d="M3650 3540 c0 -5 23 -10 51 -10 31 0 48 4 44 10 -3 6 -26 10 -51 10 -24 0 -44 -4 -44 -10z"/>
<path d="M593 3161 c-61 -97 -84 -155 -90 -222 -5 -46 -9 -58 -26 -63 -17 -4 -19 -11 -15 -65 2 -33 1 -58 -3 -55 -4 2 -15 1 -24 -2 -12 -5 -16 -17 -14 -51 2 -29 -2 -47 -10 -53 -10 -5 -12 -20 -8 -49 4 -31 2 -41 -9 -41 -17 0 -17 -5 -5 -48 l10 -32 -29 20 c-58 41 -119 135 -130 199 -8 46 -8 46 -9 8 -2 -72 70 -185 168 -261 74 -58 94 -126 38 -126 -38 0 -76 52 -45 62 7 3 9 12 5 22 -6 15 -10 16 -22 6 -26 -22 -18 -60 21 -96 57 -55 113 -39 99 27 l-7 32 73 -57 c41 -32 133 -107 204 -167 124 -105 126 -107 45 -28 -47 44 -137 125 -200 178 -159 133 -200 174 -200 201 0 20 4 18 50 -20 62 -52 65 -37 5 30 -48 54 -60 100 -26 100 19 0 71 -42 71 -58 0 -6 -8 -9 -17 -8 -26 2 -22 -28 3 -32 48 -7 37 62 -17 118 -45 46 -52 80 -16 80 25 0 67 -26 67 -41 0 -5 -7 -9 -16 -9 -9 0 -14 -7 -12 -17 5 -24 25 -27 37 -4 14 25 0 63 -33 94 -31 29 -40 107 -12 107 16 0 66 -60 66 -78 0 -7 3 -12 8 -12 4 0 7 17 7 37 0 99 97 11 189 -171 32 -64 61 -115 63 -112 5 5 -95 207 -131 264 -27 44 -90 102 -110 102 -8 0 -20 -10 -28 -21 l-14 -22 -18 28 c-15 22 -16 35 -9 74 l9 46 16 -37 c30 -68 93 -56 91 17 -1 24 3 35 13 35 8 0 21 14 28 30 12 31 13 30 81 -122 82 -186 177 -380 181 -375 2 2 -20 56 -50 119 -81 171 -236 544 -236 568 0 33 -13 22 -57 -49z m67 -99 c0 -29 -3 -33 -22 -30 -16 2 -26 14 -34 37 -10 29 -8 40 9 69 l20 34 13 -39 c8 -21 14 -53 14 -71z m-58 -49 c23 -50 21 -78 -7 -78 -13 0 -26 13 -38 36 -17 35 -17 39 0 74 10 20 19 31 21 23 2 -7 13 -32 24 -55z"/>
<path d="M3906 3128 c18 -20 40 -60 49 -90 23 -70 41 -98 65 -98 20 0 20 0 0 20 -11 11 -20 26 -20 33 0 33 -61 133 -92 151 l-33 20 31 -36z"/>
<path d="M3995 3041 c3 -5 21 -15 40 -21 41 -14 70 -9 40 7 -29 15 -87 25 -80 14z"/>
<path d="M377 2993 c-12 -11 -8 -30 14 -57 27 -34 31 -30 15 17 -14 42 -20 50 -29 40z"/>
<path d="M340 2967 c0 -7 14 -26 31 -43 34 -31 35 -27 4 23 -21 34 -35 42 -35 20z"/>
<path d="M3335 2970 c20 -10 189 -41 433 -80 67 -11 135 -26 150 -34 38 -20 64 -51 60 -73 -4 -25 -54 -29 -79 -7 -21 19 -25 35 -7 32 19 -4 21 29 3 36 -43 16 -48 -38 -7 -76 15 -14 40 -30 56 -35 36 -11 82 -88 92 -153 l7 -45 -30 40 c-78 106 -176 112 -202 12 -26 -104 41 -237 119 -237 33 0 50 17 50 50 0 60 -70 98 -78 41 -5 -30 13 -50 30 -33 8 8 8 15 -3 28 -12 14 -11 16 6 13 22 -5 34 -54 17 -71 -18 -18 -60 1 -88 37 -21 29 -27 46 -26 89 1 139 99 167 169 49 23 -40 27 -56 25 -114 -3 -69 21 -142 54 -170 27 -22 26 0 -1 33 -25 30 -27 37 -21 92 3 32 6 74 6 92 0 22 5 34 13 34 18 0 120 -107 141 -147 21 -42 20 -50 -3 -29 -26 24 -54 17 -65 -17 -8 -22 -6 -32 11 -55 46 -62 108 -49 106 23 -1 51 -41 111 -127 193 -42 40 -76 76 -76 82 0 13 -40 97 -63 131 -16 24 -16 27 -2 32 26 11 17 54 -20 91 -32 32 -33 35 -15 41 11 4 20 10 20 15 0 14 -57 70 -71 70 -8 0 -3 -7 9 -16 25 -17 28 -30 9 -37 -22 -8 -399 42 -597 79 -22 4 -23 3 -5 -6z m889 -667 c21 8 21 -7 0 -28 -21 -20 -44 -3 -44 33 0 24 1 25 14 7 8 -11 19 -16 30 -12z"/>
<path d="M340 2895 c0 -8 9 -15 20 -15 11 0 23 -7 26 -15 4 -8 10 -12 16 -9 12 7 -30 54 -49 54 -7 0 -13 -7 -13 -15z"/>
<path d="M4062 2793 c13 -16 74 -14 71 2 -2 6 -21 10 -43 11 -32 0 -37 -2 -28 -13z"/>
<path d="M4115 2750 c46 -21 65 -24 65 -10 0 9 -64 30 -90 29 -8 0 3 -9 25 -19z"/>
<path d="M4080 2740 c0 -5 6 -10 14 -10 7 0 19 -7 26 -15 16 -19 41 -20 34 -1 -3 8 -19 19 -36 25 -38 13 -38 13 -38 1z"/>
<path d="M250 2517 c0 -18 42 -57 61 -57 11 1 11 3 -2 13 -9 7 -21 22 -28 35 -13 24 -31 30 -31 9z"/>
<path d="M220 2496 c0 -12 60 -56 77 -56 10 0 -40 51 -59 61 -13 7 -18 6 -18 -5z"/>
<path d="M232 2428 c4 -12 69 -31 77 -22 3 2 -4 11 -15 19 -24 18 -67 20 -62 3z"/>
<path d="M3593 2210 c15 -19 63 -87 108 -150 46 -63 125 -168 176 -233 70 -90 93 -126 93 -148 0 -38 -11 -32 -56 34 l-36 52 6 -35 c3 -19 15 -47 26 -62 29 -40 37 -86 16 -94 -19 -7 -52 18 -59 47 -4 14 0 19 15 19 28 0 19 34 -10 38 -20 3 -22 -1 -22 -36 0 -25 9 -52 25 -76 45 -67 25 -128 -30 -92 -31 20 -35 57 -5 49 24 -6 28 18 5 37 -12 10 -18 10 -31 -1 -22 -18 -13 -84 16 -114 17 -18 20 -30 15 -54 -4 -17 -11 -34 -17 -37 -16 -10 -46 31 -54 73 l-7 36 -11 -33 c-14 -44 -27 -46 -64 -15 -36 30 -49 64 -73 200 l-19 100 5 -81 c6 -101 29 -188 60 -236 29 -43 72 -60 90 -35 10 14 13 11 23 -17 15 -41 15 -65 -2 -95 -13 -23 -13 -23 -19 14 -8 46 -23 65 -53 65 -20 0 -26 -8 -36 -43 -7 -27 -19 -47 -32 -53 -11 -5 -23 -20 -27 -34 l-6 -25 -12 30 c-7 16 -30 84 -51 150 -33 105 -54 176 -101 343 -7 23 -14 40 -16 38 -2 -2 3 -27 11 -57 74 -278 103 -381 138 -487 27 -83 38 -132 33 -149 -5 -22 -8 -24 -20 -12 -23 24 -124 344 -178 564 -4 17 -5 18 -6 2 -1 -26 72 -318 114 -453 37 -118 43 -162 23 -182 -20 -20 -48 -14 -60 12 -14 33 -5 56 21 49 16 -4 21 -1 21 15 0 44 -41 38 -60 -9 -12 -27 -10 -50 5 -104 8 -26 -30 -76 -50 -69 -19 8 -35 58 -24 75 6 10 9 10 9 2 0 -18 19 -16 27 3 3 8 -1 22 -10 31 -13 14 -17 13 -36 -6 -18 -18 -21 -32 -19 -86 2 -69 -14 -104 -32 -75 -8 13 -15 69 -11 93 0 4 -3 7 -8 7 -14 0 -23 -35 -15 -64 7 -29 -11 -89 -32 -107 -12 -10 -17 -8 -29 7 -8 10 -15 31 -15 46 0 21 4 25 20 21 22 -6 39 22 23 38 -30 30 -73 -34 -70 -104 1 -32 -3 -52 -15 -63 -16 -16 -17 -15 -25 12 -4 16 -8 135 -7 264 l1 235 -13 -140 c-7 -77 -13 -170 -13 -206 -1 -77 -6 -83 -101 -127 -36 -16 -81 -46 -99 -66 -36 -37 -34 -50 2 -19 20 17 20 17 14 0 -4 -10 -7 -24 -7 -31 0 -14 -42 -66 -53 -66 -14 0 -6 79 23 217 17 79 44 207 60 285 17 78 28 143 26 145 -2 3 -7 -11 -11 -29 -4 -18 -26 -114 -50 -213 -24 -99 -53 -222 -64 -273 -21 -97 -49 -155 -82 -173 -26 -14 -39 -4 -39 31 0 31 13 44 45 45 25 0 32 30 9 39 -24 9 -72 -39 -80 -81 -7 -37 -43 -68 -90 -78 l-29 -6 28 21 c34 27 77 99 77 129 0 34 -52 81 -90 81 -68 0 -140 -55 -140 -106 0 -13 -4 -24 -10 -24 -5 0 -24 -13 -43 -29 -32 -29 -33 -29 -45 -10 -14 21 -48 18 -89 -7 -13 -8 -23 -12 -23 -8 0 16 134 254 233 414 11 17 16 30 13 30 -9 0 -150 -222 -236 -372 -83 -146 -84 -147 -124 -154 -44 -7 -101 -32 -93 -41 3 -2 14 0 25 6 24 13 132 15 132 2 0 -13 -93 -97 -129 -116 -40 -20 -90 -16 -105 8 -9 14 -7 21 7 32 11 7 26 11 35 8 12 -5 11 -8 -7 -15 -25 -9 -24 -31 3 -36 46 -9 63 52 19 69 -53 20 -112 -26 -99 -77 8 -30 47 -41 100 -26 27 7 47 7 59 1 40 -22 114 27 176 119 18 25 29 32 55 32 19 0 53 7 76 15 45 16 190 21 190 7 0 -16 -55 -86 -94 -119 -41 -37 -63 -43 -45 -14 18 28 4 51 -30 51 -63 0 -100 -74 -51 -100 49 -26 163 54 219 152 16 27 47 61 72 77 37 26 46 28 59 16 20 -18 68 2 98 40 21 26 22 26 22 6 0 -30 13 -26 48 13 26 30 32 33 42 20 18 -21 33 -17 65 16 22 22 32 27 42 19 10 -9 21 -3 48 24 19 19 35 43 36 53 0 16 2 15 9 -4 13 -31 26 -28 52 13 18 27 28 33 46 28 29 -7 59 19 67 59 l7 30 16 -23 c44 -63 -19 -239 -85 -239 -30 0 -41 27 -20 48 20 19 35 9 17 -13 -10 -12 -9 -16 5 -21 25 -10 53 21 39 44 -26 41 -96 11 -96 -41 0 -59 54 -76 98 -32 39 39 65 110 73 199 9 97 23 130 52 121 25 -8 52 14 69 56 9 20 19 29 36 29 25 0 54 34 54 63 0 13 6 17 22 15 16 -2 24 4 29 22 4 14 7 19 8 11 1 -8 13 2 29 22 15 19 47 59 71 89 45 54 75 112 86 161 3 15 12 27 20 27 18 0 35 39 35 81 0 22 5 29 20 29 23 0 40 28 40 67 0 17 8 33 20 41 14 8 20 23 20 48 0 20 4 33 10 29 12 -8 24 39 17 68 -6 21 -5 21 13 -3 11 -14 34 -54 52 -90 27 -52 33 -77 33 -127 0 -64 9 -74 20 -22 15 65 -33 188 -111 290 -71 92 -70 181 1 135 28 -18 33 -51 10 -60 -22 -8 -19 -36 4 -36 21 0 31 19 31 57 0 28 -58 93 -83 93 -28 0 -49 -31 -43 -62 3 -15 4 -28 2 -28 -6 0 -133 157 -203 250 -39 52 -88 113 -108 135 -35 37 -35 37 -12 5z m130 -932 c30 -23 31 -62 3 -94 -24 -27 -25 -28 -26 -7 0 12 -4 25 -10 28 -17 11 -9 85 9 85 4 0 15 -6 24 -12z m-42 -127 c8 -19 5 -29 -13 -48 l-22 -24 -13 23 c-26 48 -7 112 25 86 8 -7 18 -23 23 -37z m-578 -499 c-24 -50 -59 -52 -56 -3 1 24 10 40 35 61 l33 28 3 -24 c2 -14 -5 -41 -15 -62z m-80 -9 c-7 -46 -28 -83 -48 -83 -39 0 -29 82 13 105 39 21 41 19 35 -22z m-393 -18 c87 -45 13 -174 -108 -190 -26 -3 -61 -12 -78 -20 -47 -20 -104 -29 -104 -16 0 6 27 38 60 72 l61 62 20 -22 c30 -32 64 -25 64 14 0 25 -4 30 -27 33 -46 5 -27 47 32 71 35 14 47 13 80 -4z m-105 -96 c12 -19 -5 -23 -22 -6 -16 16 -16 17 -1 17 9 0 20 -5 23 -11z m-185 -72 c0 -39 -31 -59 -86 -55 l-49 3 37 38 c26 27 44 37 67 37 26 0 31 -4 31 -23z m-76 -99 c-39 -68 -110 -126 -139 -114 -18 7 103 126 128 126 12 0 16 -4 11 -12z m156 -78 c0 -5 -4 -10 -10 -10 -5 0 -10 -7 -10 -15 0 -8 5 -15 12 -15 6 0 9 -2 6 -5 -3 -3 -13 -3 -22 1 -16 6 -22 35 -9 47 10 11 33 8 33 -3z"/>
<path d="M350 1972 c0 -8 9 -21 20 -30 16 -14 23 -40 34 -132 8 -63 13 -116 11 -118 -8 -9 -76 30 -118 68 -52 46 -71 81 -61 112 9 29 48 20 52 -12 3 -24 3 -24 -12 -5 -17 23 -41 9 -30 -18 10 -26 45 -32 61 -11 19 27 16 42 -16 75 -33 32 -48 35 -75 16 -59 -43 26 -163 162 -230 53 -26 129 -131 111 -153 -14 -17 0 -43 42 -78 25 -21 28 -27 15 -32 -24 -9 -19 -22 18 -46 29 -19 34 -27 29 -50 -4 -21 1 -34 26 -58 17 -18 31 -40 31 -50 0 -18 53 -70 71 -70 15 0 10 -20 -7 -27 -22 -8 -56 28 -100 108 -39 71 -74 109 -101 109 -8 0 -13 -6 -10 -12 2 -7 8 -13 13 -13 20 0 34 -18 60 -76 29 -64 102 -139 135 -139 30 0 71 -22 58 -31 -29 -17 92 -145 172 -181 48 -22 49 -23 22 -29 l-28 -6 25 -11 c14 -5 52 -34 85 -62 68 -58 118 -87 172 -98 26 -6 38 -13 38 -25 0 -26 23 -37 76 -37 44 0 46 -1 41 -25 -3 -20 1 -27 24 -35 15 -6 37 -10 48 -8 13 2 25 -5 31 -17 8 -14 23 -21 52 -23 32 -2 41 -7 36 -18 -3 -10 2 -14 18 -14 23 0 23 -1 -6 -25 -57 -47 -131 -77 -180 -73 -51 4 -61 -6 -14 -16 59 -12 157 30 282 119 53 38 111 54 136 38 18 -12 17 -53 -2 -65 -20 -13 -47 -9 -47 7 0 9 -9 15 -21 15 -15 0 -20 -5 -17 -22 2 -19 10 -24 41 -26 32 -3 43 2 72 31 19 19 35 42 35 51 0 19 -42 48 -61 42 -73 -23 -73 -18 2 52 66 62 149 135 304 270 28 24 43 40 35 36 -18 -9 -247 -196 -380 -310 -110 -94 -150 -119 -150 -94 0 5 21 25 46 45 57 42 35 47 -27 5 -52 -35 -109 -41 -109 -12 0 18 19 40 49 57 10 6 12 4 7 -4 -12 -19 14 -44 30 -30 19 16 17 36 -4 48 -20 11 -83 -8 -112 -34 -10 -9 -29 -15 -42 -13 -32 4 -36 41 -6 62 20 14 23 14 31 1 9 -17 33 -20 42 -5 4 6 1 18 -6 26 -15 18 -74 11 -100 -12 -18 -17 -47 -18 -84 -4 -38 14 -19 35 47 51 l51 13 -32 13 c-38 16 -42 54 -9 78 21 14 109 50 261 106 107 39 52 29 -89 -16 -157 -51 -212 -78 -234 -118 -14 -26 -14 -29 8 -45 l23 -18 -39 -10 c-30 -8 -51 -7 -88 4 l-49 15 44 11 c56 14 72 37 47 65 -10 11 -31 23 -46 26 -16 4 -30 14 -33 26 -3 12 -17 22 -37 25 -17 4 -28 10 -23 14 15 14 288 108 446 154 32 10 57 19 55 22 -3 2 -24 -2 -49 -10 -24 -8 -80 -24 -124 -36 -44 -13 -160 -49 -258 -81 -168 -55 -181 -57 -210 -44 -27 11 -29 13 -10 14 75 3 100 61 38 87 -19 8 -35 20 -35 26 0 6 -9 21 -20 33 l-20 21 162 18 c242 26 380 45 387 52 3 4 -12 4 -34 0 -22 -3 -130 -13 -240 -22 -110 -8 -242 -21 -293 -28 -82 -11 -97 -10 -129 4 -21 9 -33 19 -27 23 6 3 103 16 215 27 112 12 247 27 299 35 l95 14 -80 -6 c-396 -29 -410 -29 -430 -18 -11 6 -34 37 -51 69 -31 58 -93 129 -129 148 -14 7 -11 1 10 -22 23 -26 26 -31 10 -25 -11 4 -39 12 -61 17 -23 5 -50 19 -60 30 l-19 21 155 -6 c85 -4 231 -13 324 -22 93 -9 171 -13 174 -10 3 3 -1 5 -9 5 -8 0 -70 7 -139 15 -69 8 -201 22 -294 30 -92 9 -178 20 -190 27 -79 40 -73 102 7 75 25 -8 27 -13 22 -39 -6 -27 -5 -29 16 -26 57 8 20 66 -60 94 -25 9 -53 19 -61 23 -20 10 -60 81 -60 106 1 19 1 19 19 -2 62 -74 170 -98 210 -47 26 33 26 57 2 109 -39 86 -137 128 -163 70 -16 -36 3 -75 37 -75 14 0 25 4 25 9 0 10 -21 29 -35 30 -16 2 -12 23 7 35 62 39 139 -95 92 -162 -49 -70 -204 36 -204 140 0 55 -29 136 -60 171 -16 18 -30 26 -30 19z m371 -662 c10 -6 25 -23 34 -39 l14 -29 -36 8 c-19 5 -41 6 -48 4 -19 -8 -59 30 -52 49 7 19 57 23 88 7z m88 -120 l32 -40 -36 0 c-70 0 -140 48 -104 71 8 5 28 9 45 9 24 0 38 -9 63 -40z m95 -141 c33 -15 40 -36 16 -49 -35 -19 -68 -12 -90 19 l-20 30 32 4 c18 2 34 5 35 5 1 1 13 -3 27 -9z m97 -85 c11 -14 10 -18 -6 -30 -27 -20 -61 -17 -96 9 l-31 22 39 6 c66 11 80 9 94 -7z m142 -123 c16 -16 -11 -41 -44 -41 -15 0 -45 10 -66 22 l-38 23 30 7 c38 9 104 3 118 -11z m83 -56 c16 -41 -65 -62 -110 -27 l-24 17 42 11 c60 16 86 16 92 -1z"/>
<path d="M4080 1771 c0 -4 8 -15 18 -24 21 -19 56 -23 50 -6 -4 13 -68 41 -68 30z"/>
<path d="M4110 1700 c17 -22 36 -40 41 -40 14 0 11 7 -22 45 -43 48 -58 44 -19 -5z"/>
<path d="M4070 1719 c0 -3 9 -23 19 -45 16 -33 21 -36 27 -21 5 13 -1 27 -20 45 -14 15 -26 24 -26 21z"/>
<path d="M360 1546 c0 -9 14 -20 33 -25 30 -10 29 -10 -10 -5 -25 3 -43 2 -43 -4 0 -11 34 -22 70 -22 39 0 36 33 -3 50 -18 7 -35 15 -39 18 -5 2 -8 -3 -8 -12z"/>
<path d="M394 1469 c-3 -6 -2 -15 4 -21 6 -6 12 -6 16 1 4 6 18 11 32 11 14 0 22 4 19 10 -8 13 -62 13 -71 -1z"/>
<path d="M3904 1289 c2 -36 1 -39 -11 -23 -7 10 -16 14 -20 11 -4 -4 -1 -13 5 -19 7 -7 12 -25 12 -40 0 -36 20 -37 21 0 0 26 1 26 9 5 10 -24 30 -31 30 -10 0 6 -9 23 -20 37 -21 27 -27 51 -8 32 17 -17 38 -15 38 3 0 8 -7 15 -15 15 -9 0 -18 7 -21 15 -11 29 -22 15 -20 -26z"/>
<path d="M490 1240 c0 -17 31 -31 62 -28 19 2 26 6 18 9 -53 20 -80 26 -80 19z"/>
<path d="M1173 603 c-21 -3 -33 -10 -33 -20 0 -12 6 -14 28 -8 25 6 68 37 47 33 -6 0 -25 -3 -42 -5z"/>
<path d="M1175 567 c-29 -15 -35 -22 -22 -25 9 -2 34 7 55 19 34 21 36 21 20 3 -18 -20 -24 -44 -12 -44 3 0 19 14 34 30 15 17 23 30 17 30 -7 0 -21 2 -32 4 -11 2 -38 -5 -60 -17z"/>
<path d="M2124 499 c-10 -17 13 -36 27 -22 12 12 4 33 -11 33 -5 0 -12 -5 -16 -11z"/>
<path d="M2787 413 c-13 -13 -7 -73 7 -73 10 0 14 12 13 40 -2 39 -7 47 -20 33z"/>
<path d="M1613 394 c-33 -14 -44 -34 -19 -34 7 0 26 9 42 21 16 11 11 5 -11 -15 -34 -31 -37 -36 -19 -36 13 0 32 14 48 34 21 29 23 35 10 40 -9 3 -16 6 -17 5 -1 0 -17 -7 -34 -15z"/>
<path d="M1680 373 c-13 -16 -17 -30 -11 -36 13 -13 31 0 31 22 0 9 5 22 12 29 8 8 9 12 1 12 -6 0 -21 -12 -33 -27z"/>
<path d="M2726 383 c-3 -10 -11 -26 -18 -35 -15 -21 -4 -35 16 -19 12 10 14 9 9 -8 -3 -12 -1 -21 5 -21 15 0 19 9 26 60 5 33 4 41 -3 30 -7 -10 -11 -11 -11 -2 0 18 -17 15 -24 -5z"/>
</g>
</svg>