<?xml version="1.0" standalone="no"?><!DOCTYPE svg PUBLIC "-//W3C//DTD SVG 20010904//EN" "http://www.w3.org/TR/2001/REC-SVG-20010904/DTD/svg10.dtd"><svg xmlns="http://www.w3.org/2000/svg" version="1.0" width="16mm" height="14.1051mm" viewBox="0 0 510.000000 449.600246" preserveAspectRatio="xMidYMid meet">
<metadata>
Created by potrace 1.16, written by Peter Selinger 2001-2019
</metadata>
<g transform="translate(-40.000000,489.991884) scale(0.100000,-0.100000)" fill="#000000" stroke="none">
<path d="M1835 4773 c0 -221 -16 -966 -21 -1000 -3 -23 -13 -37 -34 -48 -49 -26 -60 -20 -60 29 l0 45 -31 -11 c-33 -11 -34 -13 -44 -70 -4 -28 -13 -42 -35 -53 -39 -20 -40 -20 -40 20 0 42 -5 43 -42 8 -20 -19 -28 -37 -28 -60 0 -21 -5 -33 -13 -33 -8 0 -22 -9 -32 -20 -25 -27 -44 -26 -38 3 4 21 3 20 -21 -6 -18 -20 -26 -39 -26 -65 l0 -36 38 36 c81 80 234 147 406 178 47 9 64 15 54 21 -9 5 -23 21 -33 36 l-18 28 29 -26 c37 -34 60 -45 109 -53 38 -7 94 1 140 20 18 7 18 6 6 -9 -12 -15 -10 -17 20 -17 54 0 172 -36 276 -85 96 -45 112 -46 113 -8 0 39 25 118 46 149 26 38 21 53 -17 54 -23 0 -33 -16 -59 -93 -12 -38 -28 -71 -36 -74 -8 -3 -25 2 -39 11 l-25 16 19 48 c10 26 26 64 35 85 14 32 14 38 2 43 -27 10 -58 -18 -85 -79 l-28 -62 -49 3 c-27 2 -53 8 -58 12 -5 5 9 36 33 70 22 34 41 66 41 70 0 4 -15 10 -34 12 -32 3 -35 1 -45 -33 -13 -43 -44 -85 -74 -100 -15 -8 -11 1 14 27 20 22 40 49 43 61 12 38 -101 396 -290 920 -33 90 -61 163 -64 163 -3 0 -5 -57 -5 -127z"/>
<path d="M4058 4890 c-38 -80 -237 -654 -303 -871 -50 -168 -53 -184 -41 -213 50 -118 256 -150 346 -54 19 21 20 33 19 287 -3 420 -14 867 -21 851z"/>
<path d="M3643 3862 c-18 -2 -33 -6 -33 -10 0 -4 18 -34 40 -67 22 -33 40 -66 40 -72 0 -9 -18 -13 -55 -13 l-55 0 -30 60 c-28 55 -53 80 -79 80 -17 0 -13 -20 20 -100 l31 -74 -22 -18 c-42 -34 -44 -32 -90 95 -22 57 -34 66 -74 51 -14 -5 -13 -9 4 -32 20 -25 43 -93 55 -164 3 -21 9 -38 12 -38 4 0 54 22 112 49 110 51 206 81 260 81 41 0 39 10 -7 38 -43 27 -82 79 -82 110 0 25 -6 28 -47 24z"/>
<path d="M4189 3798 c0 -2 -1 -20 -3 -41 -4 -48 -8 -51 -50 -37 -25 8 -36 18 -36 31 0 28 -11 24 -43 -16 l-27 -34 37 -6 c167 -28 321 -91 418 -171 l57 -46 -7 34 c-10 45 -34 90 -44 83 -5 -3 -7 -15 -4 -26 5 -19 3 -20 -13 -10 -36 21 -64 49 -64 66 0 25 -28 73 -49 85 -25 13 -34 0 -25 -35 7 -30 -6 -32 -46 -8 -22 12 -30 26 -35 60 -5 34 -12 46 -36 58 -16 9 -29 14 -30 13z"/>
<path d="M2626 3739 c-49 -57 -57 -90 -50 -187 6 -77 4 -90 -13 -111 -17 -21 -22 -22 -43 -11 -14 7 -47 35 -76 61 -57 55 -144 97 -254 125 -112 28 -354 26 -470 -4 -108 -28 -216 -79 -269 -128 -23 -20 -69 -82 -103 -136 -33 -54 -64 -100 -68 -103 -5 -3 -20 0 -35 7 -35 16 -43 6 -66 -83 -29 -109 -41 -276 -29 -399 12 -130 16 -140 44 -140 31 0 73 -34 107 -89 40 -62 37 -75 -4 -15 -35 52 -88 94 -120 94 -29 0 -346 -171 -497 -269 -127 -82 -280 -193 -280 -204 0 -6 21 -7 53 -3 28 3 169 15 312 26 361 27 579 51 587 64 12 18 9 106 -6 171 -17 69 -13 88 4 24 27 -101 249 -355 388 -444 162 -104 286 -135 537 -135 199 0 206 -3 240 -68 14 -28 15 -42 6 -83 -25 -114 -79 -173 -228 -247 l-92 -46 44 -19 44 -19 61 33 c68 36 147 116 179 181 40 83 46 183 16 260 -12 31 -77 39 -288 37 -195 -2 -205 -1 -292 25 -397 120 -597 476 -556 989 9 108 8 136 -6 189 -9 35 -16 91 -17 126 -1 60 1 65 31 93 55 49 73 49 245 4 65 -17 72 -17 230 4 208 27 264 26 379 -3 164 -42 278 -105 375 -207 86 -92 160 -241 184 -373 7 -41 8 -31 4 49 -4 80 -11 114 -35 170 -40 96 -120 197 -216 275 -102 81 -130 115 -113 135 16 20 69 19 157 -2 40 -9 75 -14 78 -11 3 3 -10 31 -29 63 -47 77 -53 128 -31 240 9 49 16 99 14 109 -4 17 -8 15 -33 -15z m-635 -141 c30 -37 25 -82 -15 -115 -19 -15 -44 -49 -55 -75 -33 -77 -108 -95 -141 -34 -14 27 -39 185 -32 205 9 24 66 40 145 41 70 0 81 -3 98 -22z m-290 -65 c15 -40 23 -117 15 -149 -7 -26 -8 -27 -66 -21 -33 3 -76 13 -97 24 -31 15 -38 23 -36 46 4 59 79 127 141 127 26 0 34 -5 43 -27z m565 -14 c96 -40 107 -49 99 -81 -4 -17 -16 -29 -33 -33 -29 -8 -341 -22 -347 -16 -8 7 43 96 68 119 31 29 95 53 122 45 11 -3 52 -18 91 -34z"/>
<path d="M1836 3552 c-16 -3 -18 -10 -12 -55 8 -60 19 -75 40 -58 14 12 56 89 56 103 0 8 -60 14 -84 10z"/>
<path d="M1614 3469 c-16 -17 -16 -22 -4 -29 24 -16 30 -12 30 20 0 36 -1 36 -26 9z"/>
<path d="M2125 3480 c-12 -4 -26 -14 -32 -21 -9 -12 2 -14 70 -11 123 4 128 6 85 25 -40 18 -90 21 -123 7z"/>
<path d="M3240 3744 c1 -16 7 -56 15 -89 27 -112 18 -177 -36 -265 -26 -42 -27 -45 -9 -48 10 -2 42 4 71 12 66 20 133 21 148 2 18 -22 -10 -59 -99 -128 -149 -118 -240 -262 -260 -411 -13 -98 -13 -127 0 -127 6 0 10 18 10 39 0 50 47 182 91 257 19 32 67 91 107 131 59 59 92 82 175 123 112 54 244 90 335 90 31 0 132 -9 223 -21 l166 -21 101 26 c55 14 114 26 129 26 32 0 94 -40 105 -68 13 -32 8 -109 -11 -183 -17 -65 -18 -87 -9 -164 13 -112 5 -305 -17 -409 -60 -289 -212 -484 -453 -582 -132 -53 -163 -58 -378 -55 -120 1 -218 -2 -242 -8 -35 -10 -41 -16 -52 -56 -18 -65 -9 -160 22 -228 34 -72 115 -155 189 -190 55 -28 56 -28 97 -10 l42 18 -96 49 c-155 79 -224 166 -224 282 0 34 7 51 31 79 l31 35 178 0 c246 0 366 28 525 122 137 81 379 350 405 450 15 55 65 150 93 176 12 11 38 24 57 29 46 12 52 37 53 248 0 140 -3 187 -21 265 -26 111 -39 129 -79 111 -32 -15 -30 -17 -101 102 -70 118 -132 172 -248 220 -116 47 -206 61 -374 61 -126 -1 -170 -5 -234 -23 -113 -30 -179 -63 -239 -119 -71 -67 -95 -79 -116 -58 -13 14 -15 35 -13 113 3 114 -6 148 -53 193 l-35 34 0 -30z m874 -138 c19 -8 36 -18 40 -24 9 -15 -14 -173 -31 -205 -33 -64 -98 -53 -137 24 -13 26 -40 63 -60 82 -42 40 -46 71 -15 111 19 24 26 26 95 26 41 0 90 -6 108 -14z m-288 -79 c31 -20 76 -84 88 -122 6 -20 3 -20 -157 -14 -180 7 -217 16 -217 53 0 31 14 42 112 81 91 37 122 37 174 2z m506 -3 c34 -33 58 -75 58 -102 0 -26 -60 -52 -135 -59 l-62 -6 -7 35 c-6 33 4 111 20 152 11 29 87 17 126 -20z"/>
<path d="M4020 3552 c-39 -6 -41 -14 -12 -67 36 -66 58 -70 67 -13 3 24 9 50 11 59 5 18 -23 27 -66 21z"/>
<path d="M3658 3478 c-49 -17 -30 -28 51 -28 44 0 87 -3 95 -6 12 -5 15 -2 10 9 -12 32 -99 46 -156 25z"/>
<path d="M4260 3461 c0 -24 12 -32 30 -21 11 7 11 11 1 24 -18 22 -31 20 -31 -3z"/>
<path d="M2706 3680 c-18 -63 -21 -175 -6 -215 5 -14 23 -43 39 -63 45 -56 49 -86 16 -108 -26 -17 -30 -17 -97 0 -38 10 -71 16 -74 13 -3 -2 35 -44 83 -93 102 -103 157 -182 192 -274 22 -59 25 -85 31 -280 3 -118 11 -226 17 -240 28 -66 73 -59 92 14 6 25 11 121 11 213 0 193 10 248 68 363 28 58 62 101 146 188 60 61 103 112 97 112 -7 0 -41 -7 -77 -16 -116 -29 -150 17 -79 108 55 70 62 142 29 296 -8 38 -8 38 -60 13 -109 -53 -252 -55 -353 -5 l-60 30 -15 -56z m133 -29 c28 -19 39 -41 21 -41 -20 0 -120 51 -120 62 0 15 70 1 99 -21z m325 20 c5 -8 -124 -74 -131 -67 -11 11 16 41 51 57 45 20 72 24 80 10z m-346 -65 c15 -8 36 -23 46 -35 19 -21 19 -21 0 -21 -21 0 -93 31 -127 55 -21 15 -20 15 16 15 21 0 50 -6 65 -14z m327 -11 c-45 -28 -104 -50 -112 -42 -19 20 60 67 112 67 l40 -1 -40 -24z m-352 -46 c27 -14 77 -60 77 -71 0 -30 -137 34 -148 70 -5 15 41 16 71 1z m387 3 c0 -11 -39 -47 -69 -62 -34 -17 -81 -30 -81 -22 0 16 34 55 64 73 31 19 86 26 86 11z m-300 -217 c20 -25 8 -50 -25 -50 -31 0 -43 20 -31 51 7 18 40 18 56 -1z m201 -1 c17 -21 0 -49 -31 -49 -31 0 -48 28 -31 49 8 9 21 16 31 16 10 0 23 -7 31 -16z m-194 -90 c9 -24 -10 -49 -38 -49 -24 0 -36 23 -25 51 7 19 55 18 63 -2z m192 2 c9 -11 10 -20 1 -36 -13 -25 -47 -24 -63 2 -22 34 36 66 62 34z m-198 -102 c17 -21 0 -49 -31 -49 -31 0 -48 28 -31 49 8 9 21 16 31 16 10 0 23 -7 31 -16z m204 -4 c8 -27 -12 -52 -39 -48 -21 3 -32 28 -22 54 8 22 54 18 61 -6z"/>
<path d="M1323 3453 c-25 -5 -73 -73 -73 -105 0 -22 1 -21 29 7 24 26 79 108 69 104 -2 -1 -13 -4 -25 -6z"/>
<path d="M4569 3429 c32 -54 78 -105 87 -96 11 10 -46 117 -62 117 -7 0 -20 3 -29 6 -13 5 -13 1 4 -27z"/>
<path d="M1455 3270 c-24 -26 -24 -95 -1 -174 14 -48 16 -85 10 -239 -8 -214 3 -320 47 -452 40 -118 79 -184 160 -269 81 -86 163 -136 289 -178 95 -31 96 -31 320 -32 201 -1 229 -3 264 -20 54 -27 76 -68 76 -141 0 -166 -96 -332 -232 -401 -32 -16 -46 -29 -41 -37 5 -9 4 -9 -8 0 -19 15 -163 73 -182 73 -34 0 -119 -246 -167 -480 -31 -151 -84 -509 -77 -516 2 -2 19 17 38 44 18 26 104 135 189 242 184 230 263 334 315 413 l39 58 -19 36 c-11 19 -41 54 -67 78 -27 24 -40 41 -30 39 28 -8 124 64 178 132 86 111 125 203 145 344 6 41 14 81 18 88 4 6 34 40 66 73 65 67 135 107 178 103 44 -4 123 -61 181 -129 50 -59 53 -66 59 -131 12 -145 77 -283 183 -389 33 -34 78 -70 100 -80 l39 -19 -42 -42 c-23 -23 -49 -56 -58 -74 -17 -32 -16 -32 26 -93 69 -99 154 -212 284 -372 66 -82 151 -190 188 -239 47 -62 67 -83 67 -68 0 41 -50 372 -76 497 -46 230 -131 476 -167 483 -9 2 -53 -12 -98 -32 -71 -30 -83 -33 -96 -20 -8 7 -20 14 -27 14 -28 0 -132 91 -164 143 -56 93 -75 153 -76 243 -1 97 12 127 69 157 37 21 54 22 260 23 244 0 290 8 422 69 186 86 312 243 375 470 20 73 23 103 24 335 0 204 4 267 17 316 25 90 19 142 -17 166 -20 13 -71 8 -131 -12 -72 -25 -184 -26 -350 -4 -149 20 -265 14 -360 -19 -233 -80 -365 -209 -448 -437 -16 -43 -21 -93 -27 -235 -8 -201 -23 -265 -72 -311 -26 -25 -35 -28 -99 -28 -68 0 -73 2 -100 32 -45 51 -60 117 -69 317 -6 140 -12 192 -27 235 -67 185 -170 300 -343 386 -146 72 -265 87 -470 59 -154 -21 -274 -19 -345 5 -75 26 -117 26 -140 0z m225 -130 c28 -11 76 -21 108 -22 l57 -2 -50 -4 c-35 -3 -70 3 -116 19 -108 37 -143 12 -112 -79 12 -36 16 -99 18 -277 2 -171 6 -248 18 -299 38 -159 110 -254 248 -326 72 -38 208 -78 274 -81 29 -2 29 -2 3 -6 -42 -7 -196 34 -273 72 -140 69 -212 160 -257 322 -19 69 -22 105 -23 303 -2 178 -5 236 -18 279 -10 30 -17 61 -17 68 0 22 38 53 65 53 13 0 47 -9 75 -20z m602 -13 c153 -56 249 -140 318 -280 22 -45 47 -113 55 -152 18 -84 19 -227 4 -344 -12 -86 -12 -86 20 -158 30 -70 40 -136 22 -148 -6 -3 -8 9 -4 29 4 25 -2 50 -22 93 -45 98 -47 108 -29 233 36 248 -16 442 -155 581 -76 75 -156 119 -275 149 -95 24 -143 25 -259 4 -49 -8 -94 -13 -100 -10 -7 2 -3 5 8 6 11 1 52 8 90 15 102 21 243 13 327 -18z m1658 18 l65 -14 -60 7 c-327 37 -563 -92 -660 -361 -43 -116 -50 -212 -30 -367 l18 -136 -23 -49 c-77 -169 -53 -217 81 -165 28 12 53 19 56 17 7 -7 -109 -47 -137 -47 -35 0 -60 23 -60 56 0 13 16 61 34 107 l35 83 -14 80 c-60 333 64 629 311 746 117 55 256 70 384 43z m398 -1 c26 -18 28 -54 6 -115 -12 -34 -16 -96 -18 -279 -3 -250 -9 -294 -60 -406 -55 -120 -208 -231 -356 -258 -19 -4 2 6 46 22 199 70 290 165 341 356 13 47 17 114 18 291 1 192 4 239 19 283 10 29 15 64 12 77 -8 31 -46 42 -94 26 -65 -21 -68 -21 -27 -1 49 24 83 25 113 4z m-295 -21 c-7 -2 -19 -2 -25 0 -7 3 -2 5 12 5 14 0 19 -2 13 -5z m110 -10 c-18 -2 -48 -2 -65 0 -18 2 -4 4 32 4 36 0 50 -2 33 -4z m-1942 -13 c30 -5 91 -28 135 -50 227 -111 330 -380 240 -626 -14 -39 -26 -87 -26 -106 0 -41 27 -147 42 -165 18 -22 3 -25 -41 -7 -55 22 -199 14 -289 -15 -35 -12 -74 -21 -85 -20 -12 0 9 9 46 19 198 53 315 174 363 376 20 84 13 165 -21 266 -58 171 -177 274 -362 313 -86 18 -122 18 -201 0 -133 -32 -241 -102 -302 -197 -49 -74 -67 -131 -85 -255 l-15 -98 5 85 c2 47 12 112 22 145 23 74 29 198 12 254 -7 22 -10 43 -8 46 3 2 27 -2 54 -11 61 -18 116 -12 251 26 106 30 179 36 265 20z m1740 -19 c154 -42 199 -46 259 -26 28 9 53 15 56 13 2 -3 -3 -25 -12 -49 -19 -54 -13 -168 16 -273 35 -124 22 -263 -34 -374 -28 -55 -94 -132 -139 -164 -20 -13 -6 5 34 48 132 138 172 277 134 459 -21 98 -59 171 -125 236 -66 66 -133 103 -238 130 -90 23 -124 23 -217 4 -205 -43 -335 -179 -379 -398 -13 -62 -14 -91 -6 -143 35 -219 161 -358 374 -414 39 -10 59 -19 44 -19 -14 -1 -55 8 -90 20 -88 29 -243 37 -286 15 -48 -25 -53 -20 -30 32 32 71 35 174 9 236 -101 231 7 526 232 636 137 67 237 75 398 31z m-1767 -329 c94 -55 110 -188 32 -266 -108 -107 -296 -32 -296 118 0 134 147 216 264 148z m1720 -1 c66 -41 97 -152 61 -220 -32 -63 -121 -109 -182 -95 -117 28 -177 145 -127 250 41 85 163 117 248 65z m-2230 -366 c15 -29 57 -86 94 -126 56 -61 60 -68 25 -41 -41 32 -82 79 -114 132 -24 37 -59 138 -58 163 0 12 7 0 14 -26 7 -27 25 -72 39 -102z m1200 -171 c10 -4 16 -18 16 -35 0 -22 -6 -30 -25 -35 -43 -11 -73 34 -43 64 13 13 28 15 52 6z m204 -6 c7 -7 12 -22 12 -35 0 -27 -42 -42 -65 -23 -28 23 -11 70 25 70 9 0 21 -5 28 -12z m-1088 -86 c-10 -4 -113 35 -136 52 -10 8 18 0 62 -17 45 -18 78 -33 74 -35z m2056 53 c-22 -17 -120 -55 -139 -54 -7 0 15 10 48 22 33 13 69 28 80 35 28 16 34 14 11 -3z m-2003 -62 c-7 -2 -19 -2 -25 0 -7 3 -2 5 12 5 14 0 19 -2 13 -5z m1840 0 c-7 -2 -19 -2 -25 0 -7 3 -2 5 12 5 14 0 19 -2 13 -5z m-1331 -44 c29 -11 71 -25 93 -30 l40 -8 -45 4 c-25 2 -66 13 -92 25 -33 14 -60 19 -90 16 -35 -4 -38 -4 -13 3 46 13 50 13 107 -10z m970 0 c50 -8 50 -8 -14 -3 -37 2 -78 9 -90 14 -24 10 -26 10 104 -11z m323 1 c-16 -4 -46 -8 -65 -7 l-35 0 40 7 c22 4 51 7 65 7 22 1 22 0 -5 -7z m-1447 -7 c-10 -2 -28 -2 -40 0 -13 2 -5 4 17 4 22 1 32 -1 23 -4z m-110 -10 c-21 -2 -57 -2 -80 0 -24 2 -7 4 37 4 44 0 63 -2 43 -4z m1410 0 c-21 -2 -57 -2 -80 0 -24 2 -7 4 37 4 44 0 63 -2 43 -4z"/>
<path d="M2062 2638 c-7 -7 -12 -21 -12 -33 0 -47 62 -63 81 -21 22 47 -33 90 -69 54z"/>
<path d="M3770 2629 c-15 -28 12 -72 42 -67 29 4 48 38 37 66 -11 30 -64 31 -79 1z"/>
<path d="M4682 2603 c-64 -31 -114 -122 -132 -240 -7 -43 -8 -84 -2 -104 l8 -34 95 -12 c52 -6 245 -23 429 -38 184 -14 354 -29 377 -32 25 -3 43 -2 43 4 0 12 -127 106 -271 201 -116 76 -476 272 -499 272 -8 0 -30 -8 -48 -17z"/>
<path d="M1391 2201 c-6 -11 -11 -30 -11 -43 0 -17 -22 -40 -88 -90 -49 -37 -136 -114 -194 -171 -119 -118 -353 -385 -345 -394 6 -6 -12 -12 462 142 198 64 378 122 400 129 39 13 40 14 38 58 -3 93 -68 189 -177 260 -33 21 -55 38 -49 38 19 0 129 -77 156 -110 44 -52 78 -128 84 -187 5 -45 11 -58 41 -84 l35 -31 -60 -61 c-85 -87 -145 -164 -233 -299 -76 -116 -226 -395 -217 -404 5 -5 293 159 362 206 22 15 112 68 200 116 88 49 186 109 217 132 l58 43 -29 57 c-40 79 -95 136 -171 178 -36 19 -54 32 -40 28 91 -25 176 -105 228 -217 37 -78 37 -78 71 -73 55 8 173 70 218 114 68 66 112 171 91 217 -19 42 -51 49 -233 50 -143 1 -182 5 -248 23 -174 50 -266 109 -389 250 -47 53 -103 107 -126 120 -40 22 -41 22 -51 3z"/>
<path d="M4462 2200 c-18 -11 -59 -48 -90 -83 -128 -140 -181 -185 -265 -227 -139 -68 -215 -84 -412 -85 -211 -1 -234 -10 -235 -90 0 -39 57 -140 104 -183 51 -47 152 -99 208 -109 35 -5 35 -5 70 70 20 41 53 94 74 117 43 47 119 100 143 100 9 -1 -4 -11 -27 -24 -79 -41 -192 -174 -192 -226 0 -22 89 -83 263 -181 84 -47 193 -111 242 -141 116 -73 319 -187 324 -182 6 6 -104 222 -161 317 -80 131 -167 251 -263 360 -47 53 -80 97 -73 97 27 1 55 45 61 99 13 109 88 216 191 274 27 15 51 25 53 23 3 -3 -13 -14 -34 -24 -68 -35 -138 -106 -166 -169 -33 -74 -45 -141 -26 -147 8 -2 174 -56 369 -119 513 -167 519 -169 529 -165 13 5 -206 256 -338 388 -64 64 -154 144 -201 179 -71 54 -85 69 -88 95 -4 49 -21 59 -60 36z"/>
<path d="M2899 1992 c-102 -66 -142 -125 -157 -229 -13 -97 -54 -208 -105 -284 -36 -54 -138 -158 -187 -191 l-25 -17 23 -16 c29 -21 52 -66 52 -103 0 -26 16 -38 178 -144 97 -63 198 -127 224 -142 l48 -28 62 35 c35 20 135 83 223 140 148 97 160 107 166 140 6 37 32 84 58 104 14 12 12 16 -14 35 -16 11 -61 53 -100 92 -105 107 -162 227 -186 389 -11 71 -17 88 -51 129 -35 43 -134 118 -155 118 -5 0 -29 -13 -54 -28z m5 -374 c22 -35 -27 -74 -59 -48 -18 15 -20 56 -2 64 22 9 50 1 61 -16z m166 2 c8 -14 8 -26 0 -40 -19 -35 -80 -20 -80 20 0 40 61 55 80 20z m-179 -160 c25 -14 25 -56 -1 -70 -45 -24 -86 44 -42 69 21 13 20 13 43 1z m167 -2 c17 -17 15 -53 -3 -68 -24 -20 -65 3 -65 34 0 37 43 59 68 34z m-144 -180 c15 -24 -3 -52 -37 -56 -33 -4 -53 28 -37 59 14 25 58 23 74 -3z m150 0 c15 -24 -3 -52 -37 -56 -33 -4 -53 28 -37 59 14 25 58 23 74 -3z m-156 -130 c34 -34 -6 -90 -48 -68 -35 19 -20 80 20 80 9 0 21 -5 28 -12z m146 -4 c22 -21 20 -40 -6 -58 -19 -13 -25 -14 -43 -2 -26 18 -30 40 -10 60 21 20 39 20 59 0z"/>
</g>
</svg>