<?xml version="1.0" encoding="UTF-8" standalone="no"?><!-- Created with Inkscape (http://www.inkscape.org/) --><svg xmlns:inkscape="http://www.inkscape.org/namespaces/inkscape" xmlns:sodipodi="http://sodipodi.sourceforge.net/DTD/sodipodi-0.dtd" xmlns="http://www.w3.org/2000/svg" xmlns:svg="http://www.w3.org/2000/svg" version="1.1" id="svg1" width="20mm" height="17.7211mm" viewBox="0 0 588 521" sodipodi:docname="majora mask.svg" inkscape:version="1.4.2 (f4327f4, 2025-05-13)">
  <defs id="defs1"/>
  <sodipodi:namedview id="namedview1" pagecolor="#ffffff" bordercolor="#000000" borderopacity="0.25" inkscape:showpageshadow="2" inkscape:pageopacity="0.0" inkscape:pagecheckerboard="0" inkscape:deskcolor="#d1d1d1" inkscape:zoom="1.5489443" inkscape:cx="294.07125" inkscape:cy="260.5" inkscape:window-width="1920" inkscape:window-height="1009" inkscape:window-x="-8" inkscape:window-y="-8" inkscape:window-maximized="1" inkscape:current-layer="g1"/>
  <g inkscape:groupmode="layer" inkscape:label="Image" id="g1">
    <path style="fill:#000000" d="m 191.49403,478.36172 c 0.2688,-1.57395 1.42435,-9.61172 2.56789,-17.86172 4.09832,-29.567 9.70936,-53.72835 16.12658,-69.44176 4.2216,-10.33712 4.20646,-10.32594 10.8115,-7.98577 12.69925,4.49936 22.78317,11.73998 26.5826,19.08726 1.42306,2.75189 1.32043,3.09475 -2.72396,9.09995 -5.79459,8.60395 -11.05063,15.4954 -26.87742,35.24032 -7.49461,9.35 -16.63017,20.98777 -20.30124,25.86172 -5.22831,6.94144 -6.56877,8.2416 -6.18595,6 z m 203.70089,-2.54144 C 393.5461,473.44412 383.58196,460.7 373.05239,447.5 351.81776,420.88001 342,407.17755 342,404.16079 c 0,-3.14748 9.28632,-12.50175 15.92207,-16.03857 5.53054,-2.94775 17.12164,-7.47158 17.61483,-6.87481 2.61989,3.17015 9.08878,21.16894 12.49032,34.75259 4.21566,16.83476 11.74923,62.55688 10.51137,63.79474 -0.19019,0.1902 -1.69484,-1.59831 -3.34367,-3.97446 z M 283.32149,429.75 c -5.54974,-3.4375 -15.30173,-9.625 -21.67109,-13.75 -11.31898,-7.33054 -11.58143,-7.58394 -11.61552,-11.2152 -0.0255,-2.71713 -0.88872,-4.68767 -3.21318,-7.33509 l -3.1783,-3.61988 3.4283,-2.57183 c 15.5949,-11.69895 25.4954,-29.65582 28.42303,-51.55186 0.54944,-4.10929 1.4524,-5.61061 6.32312,-10.51321 3.12518,-3.14564 7.36965,-6.60323 9.43215,-7.68354 3.7276,-1.95247 3.7724,-1.95245 7.5,0.002 2.0625,1.08168 6.5625,4.74234 10,8.13481 5.17024,5.1025 6.253,6.74558 6.26736,9.51071 0.0575,11.07429 6.51997,28.31308 14.23319,37.96753 4.96501,6.21457 12.67468,13.58579 16.50909,15.78435 1.60328,0.91928 1.56269,1.12447 -0.51535,2.605 -2.92217,2.08195 -5.24429,6.62738 -5.24429,10.26542 0,2.57719 -1.21019,3.65702 -11.54311,10.29966 C 306.93585,429.91443 296.73704,436 295.07191,436 c -0.91298,0 -6.20067,-2.8125 -11.75042,-6.25 z M 290.8,412.8 c 2.88913,-2.88913 0.67204,-7.8 -3.52144,-7.8 -3.47368,0 -5.19544,4.32937 -2.78224,6.99594 2.04918,2.26431 4.52733,2.58041 6.30368,0.80406 z m 15,0 c 0.66,-0.66 1.2,-2.145 1.2,-3.3 0,-1.155 -0.54,-2.64 -1.2,-3.3 -0.66,-0.66 -2.145,-1.2 -3.3,-1.2 -1.155,0 -2.64,0.54 -3.3,1.2 -0.66,0.66 -1.2,2.145 -1.2,3.3 0,1.155 0.54,2.64 1.2,3.3 0.66,0.66 2.145,1.2 3.3,1.2 1.155,0 2.64,-0.54 3.3,-1.2 z m -14.56531,-15.22706 c 1.59355,-2.32723 0.74885,-5.62332 -1.73063,-6.75304 -2.06233,-0.93966 -2.84409,-0.82215 -4.5,0.67642 -2.59171,2.34548 -2.54879,5.00873 0.11074,6.87154 2.14412,1.50179 4.78184,1.15918 6.11989,-0.79492 z m 15,0 c 1.59355,-2.32723 0.74885,-5.62332 -1.73063,-6.75304 -2.06233,-0.93966 -2.84409,-0.82215 -4.5,0.67642 -2.59171,2.34548 -2.54879,5.00873 0.11074,6.87154 2.14412,1.50179 4.78184,1.15918 6.11989,-0.79492 z m -15.21447,-16.61071 c 1.51119,-2.82369 0.3182,-5.83919 -2.59986,-6.57157 -2.9768,-0.74713 -5.42036,1.07044 -5.42036,4.03178 0,4.53314 5.94573,6.41599 8.02022,2.53979 z m 16,0 c 1.51119,-2.82369 0.3182,-5.83919 -2.59986,-6.57157 -2.9768,-0.74713 -5.42036,1.07044 -5.42036,4.03178 0,4.53314 5.94573,6.41599 8.02022,2.53979 z m -17.95448,-15.99741 c 3.02015,-1.61634 2.59609,-6.70615 -0.68321,-8.2003 -2.31016,-1.05257 -2.8385,-0.91964 -4.5,1.13222 -2.36842,2.92487 -2.35483,3.63096 0.11747,6.10326 2.31292,2.31292 2.4854,2.34577 5.06574,0.96482 z m 16.71175,-0.52152 C 306.99987,363.58711 308,362.16004 308,361.27204 308,359.28391 305.14494,356 303.41644,356 301.53519,356 299,358.87017 299,361 c 0,1.8176 2.44976,5 3.84892,5 0.38834,0 1.7062,-0.70052 2.92857,-1.5567 z m -179.19378,54.24868 c 9.40422,-19.04985 15.56067,-29.70248 23.80601,-41.19198 5.68438,-7.92091 18.0402,-22.75926 22.03551,-26.46287 l 2.65686,-2.46287 7.20895,2.42419 c 5.99077,2.01455 8.23298,3.44463 13.26889,8.46287 7.26072,7.23526 11.34292,14.74589 9.33181,17.16913 -2.15244,2.59352 -11.85898,8.84218 -25.22142,16.23646 -6.91431,3.82613 -17.20621,9.84847 -22.8709,13.38298 -5.66468,3.53451 -15.57943,9.39811 -22.03277,13.03023 l -11.73336,6.60384 z M 457,420.24258 c -5.225,-3.00041 -15.575,-9.16673 -23,-13.70295 -7.425,-4.53622 -18.225,-10.83874 -24,-14.00561 -11.51543,-6.31477 -23.06674,-13.70458 -24.92823,-15.94754 -0.93967,-1.13224 -0.73139,-2.34461 0.98961,-5.76028 5.1334,-10.18825 13.28667,-17.2576 23.68341,-20.53489 l 5.28668,-1.66647 4.07296,3.93758 c 12.82929,12.40285 29.36676,36.05024 40.74424,58.26129 4.03548,7.87804 7.18291,14.44756 6.99428,14.59893 -0.18862,0.15137 -4.61795,-2.17966 -9.84295,-5.18006 z M 235.66667,388.33333 C 234.56406,387.23073 234.91318,386 236.32856,386 c 1.86912,0 9.91911,-5.47522 13.66515,-9.29438 1.72933,-1.76309 5.01183,-6.96869 7.29443,-11.56801 3.86126,-7.78021 4.17785,-9.05084 4.54739,-18.25129 l 0.39719,-9.8889 -3.87842,-3.87841 c -5.51022,-5.51022 -11.18492,-6.51402 -31.74556,-5.61545 -14.36932,0.62799 -17.04916,0.47991 -24.818,-1.37135 -31.16915,-7.42739 -49.09439,-28.11179 -54.27749,-62.63221 -1.77167,-11.79964 -1.91062,-22.71414 -0.44166,-34.69112 0.9519,-7.76117 0.8446,-9.48 -1.00282,-16.06379 -2.49583,-8.89463 -2.68977,-15.98123 -0.49734,-18.17366 2.14261,-2.14262 7.93894,-1.97622 14.92857,0.42857 6.95745,2.39371 15.62124,2.53574 30.5,0.5 15.42012,-2.10981 28.03515,-1.91707 36.99273,0.5652 22.70281,6.29127 39.27201,21.62825 47.16725,43.6595 1.63527,4.56313 2.2356,9.55331 2.86024,23.7753 0.87934,20.02139 2.29855,26.48873 6.89174,31.40576 2.72919,2.9216 3.30469,3.09424 10.31494,3.09424 6.4232,0 7.70193,-0.30344 9.48181,-2.25 5.51624,-6.0328 6.98044,-12.27551 7.78825,-33.20551 0.51997,-13.47229 1.02451,-17.19212 3.24189,-23.9012 6.79479,-20.5589 22.11344,-34.85064 45.06277,-42.04193 9.80406,-3.07216 21.35927,-3.40532 38.19838,-1.10136 14.87876,2.03574 23.54255,1.89371 30.5,-0.5 7.07984,-2.43582 13.74457,-2.61516 15.56731,-0.41889 1.78292,2.14828 1.53288,9.8444 -0.55254,17.0071 -1.10394,3.79166 -1.59454,8.24287 -1.36799,12.41179 0.90497,16.6533 0.14935,40.63179 -1.49222,47.35343 -5.64654,23.12058 -17.87556,39.6081 -36.02387,48.56843 -13.77014,6.79871 -18.31197,7.61718 -40.55908,7.30904 -21.80086,-0.30196 -27.73443,0.70902 -33.28878,5.67183 -2.81975,2.51945 -3.21687,3.54995 -3.58283,9.2973 -1.10307,17.32339 8.95797,35.85711 23.21046,42.75662 4.85613,2.35082 5.21349,4.04335 0.85371,4.04335 -6.85201,0 -19.82649,-13.4293 -26.26285,-27.18349 -3.20294,-6.84451 -5.95482,-17.85616 -5.98396,-23.94478 -0.0147,-3.07468 -1.02732,-4.71911 -6.63674,-10.7778 -8.46418,-9.1421 -14.04598,-12.53628 -19.42884,-11.81429 -5.10396,0.68459 -12.02248,5.69718 -18.67678,13.53165 -4.54784,5.35443 -5.27704,6.79491 -5.28978,10.44963 -0.0388,11.12417 -6.2241,26.61972 -14.91133,37.35613 -6.93796,8.5745 -16.67231,14.4512 -19.40722,11.71628 z m 32.76823,-70.30858 c 2.24117,-0.85209 2.5651,-1.55706 2.5651,-5.58239 0,-2.97026 -1.10564,-7.12624 -3.11193,-11.69738 l -3.11193,-7.09024 1.36193,-7.57737 c 1.84524,-10.26636 1.56181,-27.90949 -0.57957,-36.07737 -2.74119,-10.45577 -8.02785,-20.35956 -14.64251,-27.43065 -15.50848,-16.57862 -32.67266,-20.9019 -62.27794,-15.68646 l -12.86194,2.26584 -7.05858,-2.61637 c -12.80514,-4.74641 -17.51479,-0.59496 -13.15053,11.59191 1.22038,3.40783 1.62361,9.57386 1.82296,27.87573 0.27585,25.32544 1.29284,31.52324 7.02931,42.83864 5.29052,10.43574 19.45661,20.40361 35.08073,24.68431 8.0907,2.21669 31.25875,3.06733 42.33205,1.55427 7.64942,-1.04522 9.13797,-0.98428 12.66795,0.51863 3.41104,1.45227 8.18922,2.9288 10.6849,3.30179 0.3767,0.0563 1.8392,-0.3365 3.25,-0.87289 z M 255.5,313.84516 c -4.70042,-1.92321 -5.61394,-1.97104 -15.24665,-0.79818 -13.44936,1.63756 -31.37707,0.74295 -41.23702,-2.05777 -15.61575,-4.43565 -29.1047,-14.11396 -33.83334,-24.2754 -5.41234,-11.63066 -8.07651,-32.89739 -6.41575,-51.21381 0.90094,-9.93638 0.80911,-11.50581 -0.9497,-16.23108 -1.07089,-2.87709 -1.80543,-6.70209 -1.63231,-8.5 0.28989,-3.01054 0.62131,-3.29406 4.19294,-3.58693 2.38797,-0.19581 5.81071,0.51335 8.90749,1.84555 5.5183,2.37391 8.35053,2.29343 24.71434,-0.70225 27.84661,-5.09783 53.78503,6.12355 64.39821,27.85969 6.91605,14.16432 8.68672,26.71277 6.0971,43.20925 -1.9398,12.35697 -1.70212,15.17864 1.92429,22.84423 1.48421,3.13736 2.5804,7.219 2.5804,9.60803 V 316 l -4.25,-0.0545 c -2.3375,-0.03 -6.5,-0.97513 -9.25,-2.10031 z M 229,308.22959 c 3.025,-1.11722 9.26492,-2.29087 13.8665,-2.60813 7.1278,-0.49142 9.09402,-0.26385 13.28043,1.53709 2.70266,1.16266 5.11229,1.91556 5.35473,1.67312 0.24244,-0.24244 -0.55535,-2.44125 -1.77288,-4.88624 -3.47777,-6.98389 -3.57797,-17.43616 -0.26153,-27.28085 9.82344,-29.1604 -7.8268,-59.75988 -38.18039,-66.19173 -9.77231,-2.07073 -13.52108,-1.83963 -25.28897,1.55899 -13.90022,4.01445 -21.11217,4.68769 -27.38873,2.55674 -2.68165,-0.91044 -5.08659,-1.44448 -5.34433,-1.18675 -0.25773,0.25773 0.30877,2.80903 1.25888,5.66955 2.0601,6.20239 1.47151,16.36257 -1.58738,27.40093 -2.31657,8.35963 -2.49243,18.97248 -0.44466,26.83439 4.46525,17.14325 18.46969,31.36544 35.62066,36.17451 7.52316,2.10947 23.54496,1.46024 30.88767,-1.25162 z m -32.86714,-1.79005 c -4.05193,-1.38013 -8.5931,-3.1433 -10.0915,-3.91815 -5.32789,-2.75516 -15.04159,-13.80239 -18.80461,-21.38617 -3.23302,-6.51564 -3.70071,-8.42467 -4.05641,-16.5575 -0.22113,-5.056 0.13091,-11.76001 0.78231,-14.8978 5.34051,-25.72509 30.26141,-41.56105 57.60369,-36.60422 20.00679,3.627 33.50059,17.74946 37.95254,39.7207 1.51748,7.48907 1.52032,8.72271 0.0366,15.91106 -3.3218,16.09406 -11.00834,27.12984 -23.4499,33.66769 -13.31054,6.99449 -27.21847,8.40863 -39.97277,4.06439 z m 20.76836,-29.88846 c 9.68607,-5.00886 12.94148,-17.31927 6.90834,-26.12406 -4.64592,-6.78027 -15.63578,-9.63673 -22.80753,-5.92807 -8.20212,4.24148 -11.57993,16.70128 -6.77218,24.98067 4.2957,7.3976 15.36438,10.85005 22.67137,7.07146 z m -10.86139,-14.00309 c -1.47031,-1.77161 -0.54691,-5.13943 1.63914,-5.97829 1.46961,-0.56394 6.32103,1.75323 6.32103,3.01909 0,3.76433 -5.57267,5.83597 -7.96017,2.9592 z m 127.56657,53.88326 c 7.04245,-2.43073 7.84085,-2.50446 14.8592,-1.37228 10.97639,1.77068 34.08785,0.71667 43.3554,-1.97725 21.77937,-6.33089 33.59664,-17.54866 38.71788,-36.7537 2.60974,-9.78673 3.85855,-27.5471 2.8294,-40.2394 -0.80594,-9.93947 -0.69588,-12.06279 0.85322,-16.46161 4.70836,-13.36986 0.25161,-17.97385 -12.68532,-13.10441 l -6.8808,2.58993 -16.65728,-2.69999 c -16.29889,-2.64191 -16.85553,-2.66657 -25.87191,-1.14629 -13.12956,2.21381 -22.51778,6.90043 -31.01642,15.48344 -15.41474,15.56776 -21.02763,37.31822 -16.95403,65.69841 1.14723,7.99253 1.13248,8.10475 -2,15.21951 -4.1294,9.37907 -4.18278,15.07055 -0.15574,16.6035 2.63067,1.0014 4.00634,0.78333 11.6064,-1.83986 z M 321,312.08979 c 0,-2.26857 1.25917,-6.57187 2.99921,-10.25 3.46281,-7.31975 3.66666,-10.72329 1.46263,-24.42008 -1.81663,-11.28932 -0.86794,-21.26896 3.17695,-33.41971 6.05063,-18.17592 19.21635,-29.97569 39.12765,-35.06814 9.71822,-2.48551 16.56589,-2.44177 33.45066,0.21364 l 13.7171,2.15725 5.62188,-2.15138 C 423.64812,207.96812 427.90663,207 430.01943,207 c 3.20803,0 3.90215,0.37101 4.20949,2.25 0.20242,1.2375 -0.27722,4.275 -1.06585,6.75 -1.04325,3.27407 -1.48914,10.76586 -1.63675,27.5 -0.2254,25.55473 -1.26675,32.42465 -6.54399,43.1717 -9.87951,20.11953 -39.97871,30.6709 -75.23568,26.37413 -9.68367,-1.18016 -10.53713,-1.13331 -15.53367,0.8527 C 331.30512,315.05434 327.14262,316 324.96298,316 321.02134,316 321,315.97895 321,312.08979 Z m 70.69015,-2.49536 c 22.37448,-5.957 37.46783,-25.52524 37.38948,-48.47475 -0.0162,-4.74082 -0.72993,-11.09468 -1.5861,-14.11968 -3.02689,-10.69454 -3.71022,-20.5965 -1.87318,-27.14369 0.91217,-3.25094 1.44095,-6.12835 1.17506,-6.39423 -0.26589,-0.26589 -2.4102,0.19637 -4.76515,1.02724 -5.70027,2.01118 -10.98943,1.88105 -20.03026,-0.49277 -21.27076,-5.58502 -20.50496,-5.47477 -29.27664,-4.21476 -9.92946,1.42633 -22.93036,7.42521 -28.78898,13.28383 -5.33988,5.33988 -10.51306,13.38047 -13.17231,20.47351 -1.83285,4.88877 -2.22603,7.93929 -2.18606,16.96087 0.0423,9.54727 0.41963,11.98471 2.85726,18.45617 2.37832,6.31399 2.71315,8.36883 2.18582,13.4141 -0.3425,3.27686 -1.72201,8.35908 -3.06559,11.29383 -1.34357,2.93474 -2.13025,5.33567 -1.74818,5.3354 0.38208,-2.8e-4 2.98504,-0.87104 5.78437,-1.93501 6.17839,-2.34831 17.78147,-1.91044 26.41031,0.99665 3.025,1.01913 6.4,2.04509 7.5,2.27991 4.59207,0.98028 18.37004,0.53669 23.19015,-0.74662 z M 367,307.4807 c -19.00876,-5.23399 -30.6867,-16.90559 -35.49999,-35.48066 -2.08261,-8.03705 -2.08261,-14.96303 0,-23.00008 5.87539,-22.67387 21.26587,-35.22095 44.99999,-36.6862 7.97728,-0.49249 9.8966,-0.25325 16.89015,2.10528 10.32652,3.48257 15.27243,6.47359 21.37561,12.9268 5.68036,6.00614 8.37884,10.78062 10.56013,18.68426 5.2981,19.19699 1.33315,35.00046 -12.2771,48.93399 -5.37671,5.50441 -7.9806,7.29661 -14.54879,10.0136 -9.7103,4.01675 -22.35374,5.02141 -31.5,2.50301 z m 21.32881,-30.84473 c 9.55806,-3.99361 13.23237,-17.05577 7.28161,-25.88609 C 391.99528,245.38536 387.49828,243 381,243 c -4.27726,0 -6.5483,0.56882 -9.07832,2.2738 -9.50274,6.40389 -11.36303,18.2945 -4.19496,26.81328 4.7348,5.62699 13.42799,7.54642 20.60209,4.54889 z M 377.71406,263.38073 C 376.26905,261.93571 377.05386,258.04154 379,257 c 3.05849,-1.63685 6.20147,0.42816 5.80993,3.81726 -0.25092,2.17195 -0.88797,2.73936 -3.34587,2.98013 -1.66977,0.16357 -3.35727,-0.0239 -3.75,-0.41666 z m -89.5428,42.96428 c 2.38121,-2.15496 2.31883,-4.59151 -0.17532,-6.84869 C 285.0482,296.82866 281,298.8149 281,302.92887 c 0,4.5176 3.90085,6.37583 7.17126,3.41614 z M 308.59196,305.5 c 1.51741,-2.31587 1.51741,-2.68413 0,-5 -1.9747,-3.01377 -3.92316,-3.1688 -6.56928,-0.52268 -2.12637,2.12637 -1.82512,4.65096 0.80819,6.77268 2.32686,1.87481 3.94346,1.52406 5.76109,-1.25 z m -84.86007,76.11131 -2.76812,-1.22626 6.23262,-2.94252 c 15.3556,-7.24964 22.54268,-14.44904 24.88847,-24.9311 1.44241,-6.44537 0.76536,-9.52832 -3.02383,-13.76914 l -2.897,-3.24229 -19.33201,-0.17258 C 210.8151,335.18443 206.12814,334.79587 199.5,333.06152 183.77177,328.946 169.726,320.6608 157.4358,308.24906 c -9.43593,-9.52924 -20.18675,-24.21209 -22.366,-30.54619 -4.0873,-11.87993 -9.33794,-19.15539 -14.52681,-20.12883 -3.01037,-0.56475 -3.57042,-1.13893 -4.25483,-4.3622 C 115.85467,251.17033 115.523,241.625 115.55111,232 c 0.0432,-14.78618 0.40859,-18.94963 2.3563,-26.8479 2.48249,-10.06687 2.36572,-9.9621 8.97331,-8.05137 0.87285,0.25241 3.60003,-3.24612 7.41416,-9.51115 7.56542,-12.42683 11.96655,-16.70964 22.13693,-21.54176 8.03431,-3.81724 22.10328,-7.84606 23.2822,-6.66714 0.34063,0.34063 -0.0609,0.61932 -0.89236,0.61932 -0.83142,0 -2.25382,0.82006 -3.16088,1.82235 -1.44259,1.59404 -1.51846,2.86507 -0.60562,10.14513 1.12606,8.98048 2.85206,13.37731 5.88946,15.00288 4.58667,2.45471 7.93861,0.29779 11.94581,-7.68692 1.16386,-2.31911 3.05274,-4.71784 4.1975,-5.3305 1.14477,-0.61266 2.72863,-2.66298 3.5197,-4.55627 1.52393,-3.64729 0.99715,-5.72185 -2.48612,-9.79082 -1.5794,-1.84496 -1.37486,-1.87876 7.8785,-1.30189 17.18264,1.07121 29.90103,5.91176 40.0515,15.24338 9.68474,8.90347 12.13364,7.187 11.85094,-8.3065 -0.19879,-10.89447 0.51991,-13.43707 4.99692,-17.67793 2.9067,-2.75338 3.10064,-2.80417 3.10064,-0.81205 0,1.16877 -0.71944,5.19046 -1.59876,8.93709 -2.39736,10.21478 -1.49231,18.03466 2.9076,25.12248 1.94099,3.12674 3.38075,5.83332 3.19946,6.0146 -0.18128,0.18129 -3.66102,-0.60518 -7.73274,-1.74771 -8.58019,-2.4076 -12.66564,-2.6094 -15.20698,-0.75112 -2.78492,2.03638 -1.22294,5.00447 5.74897,10.9243 20.85428,17.70731 27.44747,27.82725 29.71334,45.60721 0.7115,5.5831 0.99562,10.44911 0.63138,10.81336 C 283.29802,252.03531 283,250.95573 283,249.272 c 0,-1.68373 -0.95124,-6.14623 -2.11388,-9.91666 -7.8539,-25.47034 -26.31396,-42.75513 -52.82109,-49.45822 -6.95079,-1.7577 -10.34363,-2.01638 -21.41229,-1.63247 -7.234,0.2509 -18.01776,1.06319 -23.9639,1.80508 -10.7015,1.33522 -10.91981,1.32065 -21.52269,-1.43652 -11.9006,-3.09463 -14.18584,-2.93562 -19.29837,1.34282 -3.35944,2.81135 -3.3674,2.83903 -3.21521,11.17115 0.0839,4.59405 0.84709,10.55582 1.69594,13.24838 1.28041,4.06144 1.36173,6.36161 0.47728,13.5 -1.34287,10.83843 -0.52904,31.15325 1.66673,41.60444 7.102,33.80341 25.94223,54.37786 57.2181,62.48495 7.12106,1.84587 10.48612,2.06345 28.43317,1.83848 13.71567,-0.17193 21.22133,0.12123 23.00819,0.89868 3.54307,1.54156 5.15932,6.76282 4.68607,15.13821 -0.68983,12.20836 -9.15443,24.71914 -20.67412,30.55661 -5.60624,2.8409 -7.31276,3.01919 -11.43204,1.19438 z M 169.75,185.36971 c 2.03482,-0.54531 2.24265,-1.18953 2.17315,-6.73634 -0.0423,-3.37335 -0.6167,-7.93337 -1.27651,-10.13337 -0.97892,-3.26398 -1.7085,-4.05897 -3.96505,-4.32047 C 160.66088,163.48183 151,172.52624 151,178.86047 c 0,2.43917 4.11228,4.86643 10.3264,6.09515 5.55792,1.09897 5.81993,1.11185 8.4236,0.41409 z M 161,176.12244 c 0,-0.48265 0.675,-1.43775 1.5,-2.12244 1.2532,-1.04007 1.5,-0.89568 1.5,0.87756 0,1.21995 -0.63782,2.12244 -1.5,2.12244 -0.825,0 -1.5,-0.3949 -1.5,-0.87756 z m 65.67764,5.81744 c 8.20548,-1.11205 10.65388,-2.66331 10.1101,-6.40559 -0.56037,-3.85643 -18.15188,-11.31146 -23.95349,-10.15114 -5.81214,1.16243 -11.91606,7.73369 -14.27399,15.36685 -0.69027,2.23456 -0.62301,2.25 9.79999,2.25 5.77227,0 14.01509,-0.47706 18.31739,-1.06012 z m -15.73404,-7.51813 c 2.80759,-2.07544 10.46281,-2.4387 13.5564,-0.64329 1.67013,0.96928 0.92794,1.16799 -4.5,1.20479 -3.575,0.0242 -7.625,0.31424 -9,0.64446 l -2.5,0.60041 z M 355,380.42517 c -14.88101,-8.435 -23.40818,-25.21827 -20.00993,-39.38376 0.96739,-4.03255 1.82565,-5.42921 3.87621,-6.30788 1.73216,-0.74223 9.65116,-1.05247 23.13372,-0.90631 24.16551,0.26198 30.59825,-0.92035 46,-8.45472 7.97044,-3.89906 10.87286,-6.03399 18.02677,-13.2599 18.19467,-18.37782 24.98451,-40.63666 23.66163,-77.56894 -0.47055,-13.13701 -0.27917,-18.41894 0.83494,-23.04366 0.79498,-3.3 1.45245,-8.72831 1.46104,-12.06291 0.0137,-5.322 -0.32044,-6.38351 -2.73438,-8.68638 -5.22857,-4.98801 -7.50127,-5.23058 -20.05062,-2.14006 -11.1278,2.74044 -11.46424,2.76261 -22,1.4498 -18.62837,-2.3212 -35.23733,-2.51104 -43.47632,-0.49694 -15.24591,3.72699 -25.41378,9.11274 -35.54218,18.82609 -7.98273,7.6556 -14.18858,17.59573 -18.17429,29.1104 l -3.11528,9 0.65474,-7 c 1.18211,-12.63832 8.87484,-26.64131 19.58389,-35.64836 2.84566,-2.3934 8.14306,-7.20288 11.772,-10.68772 l 6.59806,-6.33608 -2.36078,-1.91392 c -2.99476,-2.42789 -6.36726,-2.41197 -15.33227,0.0724 -3.94225,1.09245 -7.31533,1.83867 -7.49574,1.65827 -0.1804,-0.18041 1.25077,-3.35693 3.18039,-7.05895 4.10755,-7.8804 4.5846,-14.57472 1.88918,-26.51038 -0.89057,-3.94357 -1.34333,-7.44601 -1.00613,-7.78321 1.02264,-1.02263 4.45086,2.71609 6.64324,7.24494 1.81,3.73897 1.9855,5.37743 1.40511,13.11784 -0.59927,7.99211 -0.46607,9.08633 1.38111,11.34521 l 2.04435,2.5 3.4597,-1.84496 c 1.90284,-1.01473 5.11645,-3.59333 7.14136,-5.73022 6.93995,-7.32374 21.32442,-12.54976 37.48086,-13.61716 l 9.43037,-0.62303 -2.18037,3.06206 c -2.9719,4.17364 -2.80785,8.35312 0.45598,11.61695 1.45,1.45 2.98779,2.63636 3.4173,2.63636 0.42951,0 1.5627,2.04705 2.51821,4.54901 3.19255,8.35958 9.28225,10.78993 13.74548,5.48569 2.45545,-2.91813 3.00717,-5.01286 4.25007,-16.13609 0.58746,-5.25745 0.45817,-5.73332 -2.10562,-7.75 -3.40725,-2.68014 -1.93142,-2.70556 7.37371,-0.12698 10.27946,2.84859 19.60349,7.65054 25.1334,12.9439 2.60541,2.49396 7.26973,8.88247 10.36515,14.19669 l 5.62804,9.66221 3.5181,-1.07973 c 1.93495,-0.59386 3.78654,-0.81129 4.11464,-0.48319 1.43972,1.43972 4.34335,15.45777 5.3782,25.96471 1.10506,11.21981 0.004,32.21836 -1.77933,33.9455 -0.38154,0.36944 -2.25369,1.06916 -4.16033,1.55492 -4.37513,1.11466 -10.75944,10.02831 -13.44622,18.77336 -3.75154,12.21062 -24.85248,36.5371 -39.74253,45.81767 -15.87821,9.89645 -28.48574,13.05723 -51.02217,12.79155 -18.50247,-0.21813 -22.27556,0.59821 -25.49468,5.51599 -4.14461,6.33164 -0.51295,19.12175 7.57855,26.69041 2.58017,2.41344 8.59799,6.32396 13.37293,8.69004 8.60316,4.26303 8.65823,4.31413 6.08692,5.64815 -3.72993,1.9351 -6.26891,1.66065 -11.36618,-1.22864 z M 434.62095,183.0025 c 5.33686,-2.29985 5.76281,-3.14828 3.86313,-7.69483 C 435.65797,168.54382 429.68905,164 423.62994,164 c -2.94625,0 -4.44581,3.54828 -5.30483,12.55242 -0.76186,7.98573 0.80589,9.83218 7.54029,8.88073 2.54903,-0.36013 6.48903,-1.45393 8.75555,-2.43065 z m -8.27587,-7.54563 c -0.32569,-0.84872 -0.32244,-1.81284 0.007,-2.1425 0.71222,-0.71223 3.6477,1.54756 3.6477,2.80807 0,1.50909 -3.03233,0.9569 -3.65492,-0.66557 z M 392,181.96676 c 0,-1.96472 -4.81067,-10.47479 -7.15101,-12.65015 -2.57988,-2.398 -6.94843,-4.31661 -9.82865,-4.31661 -2.64699,0 -17.61966,5.85496 -20.09176,7.85675 -2.62047,2.12193 -1.77554,6.73671 1.42083,7.76021 6.71714,2.15085 35.65059,3.24633 35.65059,1.3498 z m -21,-6.92158 c -6.23989,-0.49461 -6.99595,-0.7304 -4.5,-1.40336 1.65,-0.44488 3.61069,-1.00065 4.35709,-1.23505 1.77683,-0.55801 8.88748,1.37091 9.6597,2.6204 0.33069,0.53506 0.0122,0.89176 -0.70777,0.79267 -0.71996,-0.0991 -4.68402,-0.44768 -8.80902,-0.77466 z M 207.95118,374.85207 c -2.00506,-6.07539 -7.93358,-14.8252 -12.96029,-19.12787 -4.93943,-4.22797 -13.66151,-7.83121 -19.13938,-7.90681 -5.1306,-0.0708 -7.43275,-2.86826 -8.85028,-10.75439 -2.31571,-12.8829 -9.89409,-22.60764 -22.07682,-28.32945 -3.78664,-1.77845 -6.89371,-3.71004 -6.90461,-4.29242 -0.0109,-0.58238 0.60064,-1.90738 1.35897,-2.94445 1.33333,-1.82344 1.47337,-1.82631 4.25,-0.087 1.57917,0.9892 8.49623,7.52205 15.37123,14.51744 9.17669,9.33738 14.09519,13.53097 18.5,15.77336 14.48932,7.3762 29.88022,10.57424 46.35353,9.63171 5.97216,-0.3417 12.05972,-0.31979 13.52791,0.0487 3.75239,0.94179 6.6187,4.13352 6.61777,7.36911 -0.001,4.49046 -5.33372,14.43154 -9.99635,18.6359 -4.35294,3.92509 -15.91282,9.84123 -21.57917,11.04382 -2.9162,0.61891 -3.14897,0.43272 -4.47251,-3.57765 z m 165.49755,2.20331 c -14.35476,-5.11096 -22.22524,-12.17353 -26.03889,-23.36596 -3.68688,-10.8204 -0.32741,-12.79616 21.32706,-12.54278 14.10934,0.16509 16.7671,-0.0844 25.33293,-2.37779 10.63752,-2.84811 21.28193,-7.83258 27.58488,-12.91722 2.28509,-1.84339 7.95955,-7.62663 12.60991,-12.85163 9.06947,-10.19018 15.15956,-14.52291 16.79034,-11.94531 1.93544,3.05914 0.82143,4.50441 -5.99318,7.7753 -11.60104,5.56829 -20.49997,17.22986 -21.74674,28.49796 -0.75108,6.78805 -3.85113,10.28682 -9.30387,10.50048 -12.39214,0.48557 -25.92995,11.91818 -31.55549,26.64844 -0.95007,2.48772 -2.22876,4.49025 -2.84154,4.45006 -0.61278,-0.0402 -3.38721,-0.88238 -6.16541,-1.87155 z M 76.165001,369.24837 C 102.25393,338.26174 118.03631,322.42723 134.12315,311.0988 l 4.62316,-3.25565 5.87684,2.98841 c 3.23227,1.64363 7.77045,4.62281 10.08485,6.6204 4.65458,4.01743 9.89676,13.70542 10.84801,20.04804 l 0.59992,4 -40.82797,13.28211 C 72.098574,372.09865 74.314115,371.44672 76.165001,369.24837 Z M 510.5,369.50557 c -2.2,-0.7351 -22.45,-7.29747 -45,-14.58305 -22.55,-7.28558 -41.07535,-13.28646 -41.16745,-13.3353 -0.0921,-0.0488 0.24849,-2.31525 0.75687,-5.03649 2.02561,-10.84256 8.85728,-19.45461 20.26976,-25.55221 l 6.28596,-3.35853 8.42743,6.3884 c 11.3309,8.58937 27.74922,24.67133 41.31808,40.47161 11.65799,13.57518 14.1025,16.55262 13.48179,16.42105 C 514.6676,370.87763 512.7,370.24066 510.5,369.50557 Z M 46.575209,301.36843 c 16.396851,-12.81786 65.582961,-41.36739 71.270421,-41.36813 2.3531,-3e-4 7.51466,3.08871 9.96378,5.96298 4.66755,5.47779 8.97319,21.87371 7.57716,28.85388 -0.57398,2.86989 -0.8013,2.97004 -9.23752,4.0697 -4.75698,0.62007 -17.42405,1.80384 -28.14905,2.6306 -10.725,0.82677 -27.375,2.1758 -37,2.99786 -9.625,0.82206 -18.141156,1.49241 -18.924791,1.48966 -0.783635,-0.003 1.241365,-2.08919 4.5,-4.63655 z M 540.5,305.48287 c -0.55,-0.19758 -10.9,-1.0755 -23,-1.95093 -26.81357,-1.93997 -41.04646,-3.18725 -53.37895,-4.67778 l -9.37895,-1.13357 0.53707,-9.11029 c 0.29539,-5.01067 1.26598,-11.1605 2.15685,-13.66631 2.16431,-6.08762 7.03111,-11.8032 11.91057,-13.9878 l 3.98807,-1.78551 8.58267,4.56155 c 29.75376,15.81365 43.34443,24.07878 63.57947,38.6657 l 4.99681,3.60207 -4.49681,-0.079 c -2.47324,-0.0434 -4.9468,-0.2406 -5.4968,-0.43818 z M 291.85507,280.81068 c -0.85449,-1.54224 -1.50777,-9.29445 -1.9644,-23.31068 -0.7564,-23.21781 -1.5286,-27.10964 -7.73702,-38.99386 -2.49851,-4.78268 -6.81526,-10.28682 -13.65365,-17.40931 -9.51331,-9.90853 -9.82966,-10.37456 -6.5,-9.57552 1.925,0.46195 5.92265,0.87114 8.88367,0.9093 8.67031,0.11175 9.41328,-3.87062 2.40124,-12.87087 -3.70433,-4.75467 -3.78044,-5.02544 -3.78265,-13.45603 -0.001,-4.73204 0.61331,-10.7219 1.36568,-13.31079 l 1.36795,-4.70708 4.63205,2.32016 c 11.25311,5.63658 23.65207,5.87895 34.76293,0.67955 l 6.3285,-2.96146 1.52032,5.11946 c 1.72659,5.81407 2.01129,17.33489 0.52497,21.24419 -0.54743,1.43986 -2.29472,4.28166 -3.88285,6.3151 -7.74417,9.91562 -2.51724,14.87411 11.27024,10.69142 l 4.89205,-1.4841 -9.12035,9.42761 c -10.41648,10.7674 -16.0311,18.90171 -19.21589,27.83945 -1.91905,5.38559 -2.30553,9.11529 -2.87268,27.72278 -0.48111,15.78454 -1.04591,22.29751 -2.12462,24.5 -1.87494,3.82825 -5.34542,4.46932 -7.09549,1.31068 z m -4.45123,-69.11671 c 3.74977,-2.74189 -0.23634,-9.54247 -4.15384,-7.08673 -2.46343,1.54424 -2.82811,5.49686 -0.65384,7.08673 C 283.57851,212.41229 284.66024,213 285,213 c 0.33976,0 1.42149,-0.58771 2.40384,-1.30603 z M 307.8,211.8 c 2.44481,-2.44481 0.77744,-7.8 -2.42857,-7.8 -1.64416,0 -4.37143,2.80748 -4.37143,4.5 0,1.69252 2.72727,4.5 4.37143,4.5 0.67571,0 1.76857,-0.54 2.42857,-1.2 z M 289,198.66482 c 0,-1.24565 -0.54,-2.80482 -1.2,-3.46482 -0.93333,-0.93333 -0.93333,-1.46667 0,-2.4 3.62175,-3.62175 -1.10357,-9.64522 -4.88319,-6.22472 -2.32789,2.10672 -2.42618,3.77249 -0.34538,5.85329 1.42857,1.42857 1.42857,1.71429 0,3.14286 -2.06219,2.06219 -1.98312,3.01688 0.45149,5.45149 1.60672,1.60672 2.42968,1.80522 4,0.96481 C 288.11031,201.40578 289,199.91047 289,198.66482 Z m 19.62261,0.7027 c 0.33107,-1.31911 0.0468,-3.06098 -0.63339,-3.88051 -0.97881,-1.1794 -0.97881,-1.79462 0,-2.97402 1.53083,-1.84454 0.57701,-6.08173 -1.55303,-6.8991 C 302.4722,184.09276 299.142,189.742 302.2,192.8 c 0.93333,0.93333 0.93333,1.46667 0,2.4 -1.73018,1.73018 -1.47534,5.54653 0.44203,6.61955 2.4824,1.38921 5.30716,0.23107 5.98058,-2.45203 z M 287,173.40121 c 0,-2.28762 -5.45105,-7.06494 -9.63796,-8.44674 -2.92893,-0.96664 -3.8275,-0.91758 -5.01908,0.274 -1.26857,1.26857 -1.00461,1.79223 2.09516,4.15653 3.6901,2.81458 9.15495,5.50832 11.31188,5.57586 0.6875,0.0215 1.25,-0.68032 1.25,-1.55965 z m 21.72829,0.0679 C 312.9456,171.70696 319,167.31423 319,166.0165 c 0,-1.72327 -3.90449,-2.08325 -7.28329,-0.67149 -3.71934,1.55404 -8.71671,6.36684 -8.71671,8.39477 0,1.65006 1.27548,1.58978 5.72829,-0.27072 z M 288,165.95455 c 0,-0.575 -1.13946,-2.18492 -2.53213,-3.57759 -2.22891,-2.22891 -2.28879,-2.4549 -0.5,-1.88716 1.45283,0.46111 2.03213,0.19816 2.03213,-0.92241 0,-1.58446 -3.36655,-5.54724 -4.75,-5.59125 -0.4125,-0.0131 -2.40993,-0.40951 -4.43873,-0.88087 -4.70557,-1.09326 -6.27709,1.32344 -2.04217,3.14048 l 2.7309,1.17172 -3.25,0.35962 c -1.7875,0.1978 -3.25,0.74441 -3.25,1.21471 0,1.13994 6.36939,5.02494 10.88228,6.63762 4.49213,1.60527 5.11772,1.64623 5.11772,0.33513 z m 25.25,-3.2213 c 7.05093,-3.69334 7.38348,-5.17665 1,-4.46035 l -4.75,0.53301 3.81436,-1.95987 c 4.37582,-2.24834 4.43172,-4.51762 0.0984,-3.99424 C 308.46318,153.44962 303,157.05435 303,159.72238 c 0,1.00134 0.65482,1.2127 2.25,0.72625 2.12469,-0.64794 2.09685,-0.52334 -0.5,2.23733 -1.5125,1.60791 -2.75,3.24493 -2.75,3.63781 0,1.22669 5.25595,-0.45079 11.25,-3.59052 z m -7.17105,85.68342 c 0.048,-1.16495 0.28494,-1.4019 0.60416,-0.60417 0.28887,0.72187 0.25335,1.58437 -0.0789,1.91667 -0.33229,0.33229 -0.56864,-0.25834 -0.52522,-1.3125 z M 125.00428,185.80902 c 0.007,-2.27383 5.4182,-9.30275 7.27686,-9.4531 1.70818,-0.13818 1.70818,-0.0331 0,2.56473 -4.38022,6.66155 -7.28511,9.41136 -7.27686,6.88837 z m 337.40933,-0.97149 c -1.14752,-1.28564 -3.04405,-3.73458 -4.21452,-5.44208 l -2.12813,-3.10454 2.22593,0.42551 c 2.50602,0.47906 6.98455,6.63215 6.51187,8.94673 -0.24064,1.17837 -0.76903,0.99624 -2.39515,-0.82562 z M 183.6632,176.56471 c -0.27627,-0.71996 -0.8146,-3.39154 -1.1963,-5.93686 -0.68831,-4.59 -0.67057,-4.62774 2.16956,-4.6142 1.57495,0.008 3.81748,0.26969 4.98341,0.58261 l 2.11986,0.56894 -2.30943,4.78722 c -2.37342,4.91987 -4.87985,6.92441 -5.7671,4.61229 z M 403.24743,175.75 c -0.54861,-0.6875 -1.77114,-2.77222 -2.71675,-4.6327 -2.01334,-3.96126 -1.09066,-5.07697 4.21932,-5.10199 3.54742,-0.0167 3.72521,0.47648 2.60815,7.23469 -0.62617,3.78833 -2.28005,4.79416 -4.11072,2.5 z M 137,170.47939 C 137,168.10952 139.77784,162 140.85535,162 c 0.52658,0 0.70221,0.9759 0.39029,2.16867 -0.46053,1.76106 -0.23608,2.04164 1.19414,1.49281 3.90065,-1.49682 7.45041,-5.2026 7.50489,-7.83475 0.0625,-3.01883 4.71239,-9.15671 6.22751,-8.22032 0.54443,0.33648 0.71464,1.70838 0.37825,3.04867 -0.96707,3.85312 0.22028,4.50254 4.36558,2.38777 3.29993,-1.6835 3.88338,-2.51053 4.37925,-6.20747 0.54151,-4.0373 2.67943,-6.83538 5.22268,-6.83538 0.66683,0 0.97462,1.1353 0.74555,2.75 -0.21457,1.5125 0.20087,3.50421 0.92319,4.42603 1.19689,1.52744 1.64058,1.54219 5.00472,0.16642 2.17751,-0.8905 3.81796,-2.303 4,-3.44417 0.26292,-1.64818 0.72201,-1.41375 3.10123,1.58358 L 187.08526,151 h -2.43315 c -4.64213,0 -22.18976,5.13106 -29.41975,8.60255 -3.99721,1.91927 -9.73471,5.49903 -12.75,7.95502 C 138.80217,170.55512 137,171.51559 137,170.47939 Z m 311,-2.73098 c -2.475,-2.2287 -8.23238,-5.8148 -12.79419,-7.96911 C 427.12092,155.96122 410.21368,151 405.28701,151 h -2.45654 l 2.74699,-2.91044 c 2.67906,-2.83847 2.78626,-2.86286 4.33477,-0.98622 0.87327,1.05833 3.01776,2.32729 4.76552,2.81992 3.55929,1.00323 4.32225,0.11974 4.32225,-5.00505 0,-3.30734 0.0237,-3.32018 3.33849,-1.80984 1.89622,0.86397 2.57007,2.13182 3.05605,5.75 0.50449,3.75592 1.13682,4.88015 3.31382,5.89163 4.36634,2.02869 5.29164,1.60254 5.29164,-2.43709 v -3.68709 l 3,2.87418 c 2.12671,2.03752 3,3.81894 3,6.1197 0,2.29089 0.54949,3.41992 1.86812,3.83844 1.02746,0.32611 2.6722,1.48143 3.65498,2.56739 2.3107,2.55329 3.4769,2.50365 3.4769,-0.14797 0,-1.7563 0.2542,-1.91148 1.47354,-0.89952 1.37204,1.13869 3.22283,7.6791 2.3965,8.46889 -0.20352,0.19452 -2.39504,-1.46981 -4.87004,-3.69852 z m -205.19447,-6.26172 c -9.58607,-4.68158 -19.34191,-8.19167 -26.59378,-9.56827 l -6.28825,-1.19368 2.83087,-1.72156 c 3.98177,-2.42146 7.95772,-7.41585 8.74037,-10.97923 C 222.076,135.3775 222.58592,135 225.57946,135 c 1.88129,0 3.42054,0.37674 3.42054,0.83721 0,0.46046 -1.8,3.35088 -4,6.42314 -4.92766,6.8814 -5.03464,8.45492 -0.63099,9.28105 6.26411,1.17516 7.93557,0.36043 10.63099,-5.18192 3.14849,-6.47394 4.755,-8.35948 7.12244,-8.35948 2.44458,0 2.40933,0.27221 -1.12426,8.68241 -1.651,3.9295 -2.73992,7.82703 -2.41982,8.66119 0.32009,0.83416 1.89313,1.97371 3.49563,2.53235 3.41753,1.19136 3.54045,1.02826 6.86983,-9.11509 1.21661,-3.70652 2.60625,-6.98279 3.08811,-7.28059 0.48185,-0.2978 1.98191,-0.26392 3.33347,0.0753 l 2.45738,0.61677 -2.35098,3.46436 c -1.29304,1.9054 -2.87793,6.02912 -3.52197,9.16383 -2.25843,10.99237 -1.48492,10.42679 -9.1443,6.68616 z m 95.95178,-4.70136 c -0.93424,-4.51806 -2.66468,-9.52134 -3.84543,-11.11838 -1.74569,-2.36118 -1.8913,-3.06559 -0.77934,-3.77002 3.44035,-2.1795 4.5281,-0.73266 9.31483,12.38976 1.51261,4.14667 2.03398,4.69857 3.89935,4.12761 5.54689,-1.6978 5.72676,-3.13324 1.57731,-12.58739 -1.69178,-3.85457 -2.83774,-7.24654 -2.54657,-7.53771 0.29117,-0.29116 1.7009,-0.23536 3.13273,0.124 2.01165,0.50489 3.2756,2.15175 5.5612,7.24592 l 2.95787,6.59253 5.04423,-0.48469 c 7.1311,-0.68521 7.57856,-1.59281 3.62493,-7.35274 -1.85522,-2.70282 -3.91216,-5.92672 -4.57096,-7.16422 -1.13028,-2.12311 -1.00965,-2.25 2.13889,-2.25 3.04676,0 3.51665,0.4259 5.40739,4.90116 1.37933,3.26478 3.45662,5.90512 6.22174,7.90817 l 4.15106,3.00701 -4.27327,0.71209 c -7.33467,1.22225 -16.7578,4.48447 -26.18196,9.06403 -4.98859,2.42415 -9.08485,4.40754 -9.10278,4.40754 -0.0179,0 -0.79699,-3.6966 -1.73122,-8.21467 z M 190.5,149.49706 c -2.2,-0.77833 -5.08163,-2.66404 -6.40363,-4.19047 l -2.40363,-2.77532 0.64128,-27.01564 c 0.35271,-14.85859 0.9444,-39.752258 1.31487,-55.319248 l 0.67359,-28.303617 6.3766,17.303617 c 8.50121,23.068986 21.41047,61.453308 25.65351,76.278038 2.64486,9.24084 3.20821,12.55056 2.46773,14.49817 -3.32482,8.74495 -17.26863,13.43443 -28.32032,9.52447 z m 192.38507,0.12332 c -5.37182,-1.91968 -9.45845,-5.17622 -10.91826,-8.7005 -1.1035,-2.6641 -1.03011,-4.1993 0.49127,-10.27595 2.28059,-9.10911 20.80139,-64.66039 27.84781,-83.526744 l 5.37187,-14.382814 0.64845,17.882814 c 0.35666,9.835548 0.95054,34.390371 1.31974,54.566274 0.61893,33.82346 0.53588,36.89009 -1.0653,39.33379 -3.66816,5.59833 -15.3,8.10338 -23.69558,5.10313 z" id="path1"/>
  </g>
</svg>