<?xml version="1.0" standalone="no"?><!DOCTYPE svg PUBLIC "-//W3C//DTD SVG 20010904//EN" "http://www.w3.org/TR/2001/REC-SVG-20010904/DTD/svg10.dtd"><svg xmlns="http://www.w3.org/2000/svg" version="1.0" width="15.6044mm" height="16mm" viewBox="0 0 528.857138 542.266102" preserveAspectRatio="xMidYMid meet">
<metadata>
Created by potrace 1.16, written by Peter Selinger 2001-2019
</metadata>
<g transform="translate(-13.147839,547.939841) scale(0.100000,-0.100000)" fill="#000000" stroke="none">
<path d="M5331 5461 c-27 -49 -12 -118 26 -127 52 -13 84 72 47 124 -19 27 -60 29 -73 3z m53 -17 c11 -28 6 -71 -9 -84 -12 -10 -16 -8 -25 15 -13 33 -13 42 0 66 13 23 26 24 34 3z"/>
<path d="M1057 5452 c-22 -25 -21 -64 2 -93 19 -23 19 -24 40 -5 28 26 29 91 2 106 -25 13 -25 13 -44 -8z m43 -48 c0 -28 -4 -35 -17 -32 -22 4 -29 44 -13 63 18 22 30 9 30 -31z"/>
<path d="M2180 5451 c-24 -45 -3 -111 35 -111 25 0 48 47 41 84 -9 47 -56 64 -76 27z m48 -41 c4 -41 -12 -60 -27 -31 -13 24 -4 74 13 68 6 -2 12 -18 14 -37z"/>
<path d="M3753 5463 c-18 -7 -16 -23 2 -23 11 0 15 -12 15 -50 0 -27 5 -50 10 -50 6 0 10 28 10 65 0 65 -4 72 -37 58z"/>
<path d="M3966 5449 c-26 -38 -4 -109 34 -109 36 0 53 53 35 110 -8 27 -50 26 -69 -1z m52 -39 c4 -38 -14 -63 -28 -40 -11 18 -13 64 -3 74 14 14 28 -1 31 -34z"/>
<path d="M4430 5455 c-10 -12 -10 -15 1 -15 10 0 14 -13 14 -45 0 -25 5 -45 10 -45 14 0 13 112 -1 117 -6 2 -17 -3 -24 -12z"/>
<path d="M4897 5459 c-9 -6 -15 -15 -12 -20 4 -5 11 -7 16 -4 5 4 9 -16 9 -45 0 -32 4 -49 10 -45 11 7 14 125 3 125 -5 0 -16 -5 -26 -11z"/>
<path d="M606 5445 c-20 -20 -21 -55 -2 -81 24 -32 51 -7 51 47 0 49 -20 63 -49 34z m34 -35 c0 -20 -5 -30 -15 -30 -15 0 -21 40 -8 53 14 15 23 6 23 -23z"/>
<path d="M840 5449 c-10 -6 -12 -11 -4 -16 6 -5 10 -21 10 -37 -1 -16 5 -31 12 -33 8 -3 12 9 12 41 0 48 -8 60 -30 45z"/>
<path d="M1965 5451 c-3 -5 -1 -12 5 -16 5 -3 10 -24 10 -46 0 -21 5 -39 10 -39 6 0 10 25 10 55 0 41 -4 55 -14 55 -8 0 -17 -4 -21 -9z"/>
<path d="M2853 5453 c-18 -7 -16 -78 3 -93 21 -19 47 9 47 50 0 39 -20 56 -50 43z m27 -43 c0 -16 -4 -30 -10 -30 -5 0 -10 14 -10 30 0 17 5 30 10 30 6 0 10 -13 10 -30z"/>
<path d="M3295 5451 c-3 -6 -1 -11 4 -11 6 0 11 -20 11 -45 0 -48 19 -63 22 -17 4 68 2 77 -14 80 -9 2 -19 -2 -23 -7z"/>
<path d="M3519 5436 c-14 -30 -4 -75 18 -83 24 -9 56 34 48 66 -12 46 -49 55 -66 17z m41 -25 c0 -17 -4 -33 -10 -36 -11 -7 -25 39 -15 54 12 21 25 11 25 -18z"/>
<path d="M4644 5436 c-9 -35 -1 -68 19 -80 36 -23 67 23 53 80 -5 19 -13 24 -36 24 -23 0 -31 -5 -36 -24z m48 -13 c6 -27 -2 -55 -15 -50 -7 2 -14 11 -15 21 -8 37 21 65 30 29z"/>
<path d="M162 5438 c-17 -17 -15 -57 3 -64 25 -10 44 13 36 43 -8 31 -22 38 -39 21z m15 -45 c-3 -10 -5 -4 -5 12 0 17 2 24 5 18 2 -7 2 -21 0 -30z"/>
<path d="M1285 5440 c-3 -5 -1 -10 4 -10 6 0 11 -16 11 -36 0 -21 4 -33 10 -29 16 10 12 85 -4 85 -8 0 -18 -4 -21 -10z"/>
<path d="M1510 5434 c-17 -19 -2 -67 22 -72 25 -5 43 35 29 64 -12 28 -33 31 -51 8z m30 -31 c0 -20 -3 -24 -11 -16 -7 7 -9 19 -6 27 10 24 17 19 17 -11z"/>
<path d="M3069 5429 c-13 -26 2 -69 25 -69 21 0 39 37 32 66 -8 30 -41 32 -57 3z m41 -25 c0 -31 -23 -28 -28 4 -2 15 2 22 12 22 11 0 16 -9 16 -26z"/>
<path d="M2401 5428 c0 -7 4 -22 9 -33 7 -17 9 -15 9 13 1 17 -3 32 -9 32 -5 0 -10 -6 -9 -12z"/>
<path d="M154 5269 c-3 -6 -1 -16 5 -22 6 -6 11 -28 11 -49 0 -21 5 -38 10 -38 6 0 10 27 10 60 0 46 -3 60 -14 60 -8 0 -18 -5 -22 -11z"/>
<path d="M604 5268 c-4 -6 -2 -14 4 -16 7 -2 12 -24 12 -53 0 -27 5 -49 10 -49 6 0 10 28 10 65 0 50 -3 65 -14 65 -8 0 -18 -5 -22 -12z"/>
<path d="M3074 5268 c-4 -6 -2 -14 4 -16 7 -2 12 -23 12 -48 0 -24 5 -44 10 -44 6 0 10 27 10 60 0 46 -3 60 -14 60 -8 0 -18 -5 -22 -12z"/>
<path d="M3297 5262 c-31 -35 -12 -102 28 -102 33 0 47 77 19 104 -20 20 -27 20 -47 -2z m39 -58 c-4 -13 -11 -24 -16 -24 -11 0 -14 63 -3 74 12 11 25 -24 19 -50z"/>
<path d="M3524 5269 c-3 -6 -2 -14 4 -18 6 -3 12 -27 14 -51 2 -25 7 -44 12 -42 7 2 10 40 7 107 -1 17 -27 20 -37 4z"/>
<path d="M1274 5246 c-8 -35 2 -72 22 -80 28 -11 45 13 42 58 -3 36 -6 41 -30 44 -22 3 -29 -2 -34 -22z m46 -26 c0 -33 -17 -49 -26 -26 -8 22 4 68 16 61 6 -3 10 -19 10 -35z"/>
<path d="M1515 5254 c-28 -28 -13 -84 22 -84 18 0 36 38 29 65 -7 29 -31 38 -51 19z m26 -51 c-9 -17 -10 -17 -16 0 -4 9 -4 25 0 35 6 16 7 16 16 0 7 -12 7 -24 0 -35z"/>
<path d="M2388 5245 c-8 -19 -8 -31 0 -50 19 -42 62 -25 62 25 0 50 -43 67 -62 25z m42 -25 c0 -16 -5 -30 -10 -30 -14 0 -24 26 -16 45 10 26 26 16 26 -15z"/>
<path d="M2845 5255 c-3 -8 -7 -21 -9 -27 -7 -24 13 -58 33 -58 33 0 45 39 27 86 -7 19 -45 18 -51 -1z m35 -35 c0 -16 -4 -30 -9 -30 -12 0 -19 21 -13 43 7 28 22 20 22 -13z"/>
<path d="M3752 5258 c-26 -26 -8 -88 25 -88 23 0 38 46 25 75 -13 27 -31 32 -50 13z m33 -38 c0 -13 -6 -25 -12 -27 -9 -3 -13 6 -13 27 0 21 4 30 13 28 6 -3 12 -15 12 -28z"/>
<path d="M4661 5261 c-9 -6 -10 -11 -2 -15 6 -4 11 -23 11 -42 0 -19 5 -34 10 -34 6 0 10 23 10 50 0 51 -4 57 -29 41z"/>
<path d="M381 5239 c-12 -35 -2 -61 23 -57 17 2 21 10 21 38 0 42 -30 55 -44 19z m29 -19 c0 -11 -4 -20 -10 -20 -5 0 -10 9 -10 20 0 11 5 20 10 20 6 0 10 -9 10 -20z"/>
<path d="M832 5247 c-30 -35 11 -93 42 -61 19 18 20 28 6 55 -12 22 -33 25 -48 6z m30 -51 c-2 -5 -9 -1 -14 8 -5 9 -6 21 -2 28 9 14 25 -22 16 -36z"/>
<path d="M1068 5255 c-7 -8 4 -75 13 -75 12 0 12 67 0 74 -4 3 -10 3 -13 1z"/>
<path d="M1960 5241 c-14 -27 -13 -37 6 -55 22 -22 33 -20 44 8 19 52 -25 94 -50 47z m40 -21 c0 -22 -16 -35 -25 -20 -9 14 4 52 16 45 5 -4 9 -15 9 -25z"/>
<path d="M2197 5223 c9 -58 23 -64 23 -10 0 34 -4 47 -14 47 -11 0 -13 -9 -9 -37z"/>
<path d="M3977 5254 c-13 -13 -7 -61 8 -74 23 -19 47 6 43 44 -2 22 -9 32 -23 34 -12 2 -24 0 -28 -4z m33 -39 c0 -14 -4 -25 -10 -25 -5 0 -10 11 -10 25 0 14 5 25 10 25 6 0 10 -11 10 -25z"/>
<path d="M4900 5245 c-17 -21 -4 -67 18 -63 22 4 29 63 8 71 -8 3 -20 -1 -26 -8z m23 -20 c4 -8 2 -17 -3 -20 -6 -4 -10 3 -10 14 0 25 6 27 13 6z"/>
<path d="M5350 5246 c-16 -20 -9 -60 12 -64 24 -5 42 32 28 58 -13 24 -23 25 -40 6z m23 -21 c4 -8 2 -17 -3 -20 -6 -4 -10 3 -10 14 0 25 6 27 13 6z"/>
<path d="M4434 5236 c-8 -22 3 -49 19 -43 6 2 12 14 12 27 0 27 -22 39 -31 16z"/>
<path d="M1955 5080 c-6 -9 1 -14 18 -11 4 0 7 -24 7 -55 0 -34 4 -53 10 -49 6 3 10 33 10 66 0 52 -2 59 -19 59 -11 0 -23 -4 -26 -10z"/>
<path d="M2392 5078 c-17 -17 -15 -83 3 -98 22 -19 49 -8 58 25 17 59 -25 109 -61 73z m43 -28 c9 -27 -3 -60 -21 -60 -9 0 -14 11 -14 33 0 48 23 66 35 27z"/>
<path d="M156 5065 c-9 -9 -16 -25 -16 -35 0 -22 28 -52 43 -47 22 7 31 35 22 63 -12 34 -28 40 -49 19z m34 -35 c0 -10 -4 -21 -9 -24 -12 -8 -22 20 -15 39 8 19 24 9 24 -15z"/>
<path d="M1062 5068 c-29 -29 -3 -98 33 -84 21 8 21 82 -1 90 -20 8 -18 8 -32 -6z m32 -23 c6 -18 -2 -45 -15 -45 -5 0 -9 14 -9 30 0 32 14 40 24 15z"/>
<path d="M1510 5061 c-13 -26 -13 -54 2 -69 19 -19 37 -14 50 13 22 49 -27 102 -52 56z m31 -48 c-9 -17 -10 -17 -16 0 -4 9 -4 25 0 35 6 16 7 16 16 0 7 -12 7 -24 0 -35z"/>
<path d="M3070 5059 c-15 -27 -9 -59 13 -73 15 -9 21 -7 33 8 17 24 18 58 2 74 -18 18 -36 15 -48 -9z m40 -29 c0 -25 -18 -36 -26 -16 -8 21 3 49 16 41 5 -3 10 -15 10 -25z"/>
<path d="M3307 5074 c-8 -8 4 -77 14 -88 5 -6 9 9 9 36 0 44 -10 65 -23 52z"/>
<path d="M3526 5063 c-11 -29 -6 -74 9 -79 23 -9 45 15 45 47 0 38 -42 64 -54 32z m34 -33 c0 -10 -4 -21 -9 -24 -10 -7 -20 23 -14 42 6 17 23 4 23 -18z"/>
<path d="M4437 5074 c-7 -8 3 -77 14 -88 5 -6 9 12 9 42 0 47 -7 62 -23 46z"/>
<path d="M4648 5055 c-15 -32 3 -75 31 -75 33 0 45 39 27 86 -9 23 -45 16 -58 -11z m42 -25 c0 -16 -4 -30 -10 -30 -5 0 -10 14 -10 30 0 17 5 30 10 30 6 0 10 -13 10 -30z"/>
<path d="M5345 5071 c-3 -5 -1 -12 5 -16 5 -3 10 -22 10 -41 0 -19 5 -34 10 -34 6 0 10 23 10 50 0 37 -4 50 -14 50 -8 0 -17 -4 -21 -9z"/>
<path d="M1284 5056 c-11 -28 1 -61 22 -64 24 -3 36 23 27 58 -6 23 -41 27 -49 6z m36 -26 c0 -11 -4 -20 -9 -20 -11 0 -22 26 -14 34 12 12 23 5 23 -14z"/>
<path d="M2197 5063 c-11 -10 -8 -61 3 -68 16 -10 40 14 40 40 0 13 -7 26 -16 29 -19 7 -19 7 -27 -1z m20 -45 c-3 -7 -5 -2 -5 12 0 14 2 19 5 13 2 -7 2 -19 0 -25z"/>
<path d="M3757 5063 c-12 -12 -7 -61 7 -66 29 -11 48 37 24 61 -14 14 -22 15 -31 5z m23 -34 c0 -11 -4 -18 -10 -14 -5 3 -7 12 -3 20 7 21 13 19 13 -6z"/>
<path d="M4888 5053 c-4 -51 11 -77 38 -66 15 6 26 46 18 67 -9 22 -54 21 -56 -1z m42 -24 c0 -20 -15 -26 -24 -10 -8 13 4 42 15 35 5 -3 9 -14 9 -25z"/>
<path d="M604 5046 c-3 -8 -1 -24 5 -35 16 -28 41 -16 41 20 0 22 -5 29 -20 29 -11 0 -23 -6 -26 -14z m36 -17 c0 -5 -4 -9 -10 -9 -5 0 -10 7 -10 16 0 8 5 12 10 9 6 -3 10 -10 10 -16z"/>
<path d="M2854 5044 c3 -9 6 -22 6 -30 0 -8 5 -14 10 -14 6 0 10 14 10 30 0 21 -5 30 -16 30 -11 0 -14 -5 -10 -16z"/>
<path d="M5106 4898 c-23 -32 -20 -94 4 -118 11 -11 25 -20 30 -20 25 0 50 41 50 83 0 69 -51 102 -84 55z m55 -25 c14 -37 2 -83 -22 -83 -19 0 -24 18 -20 65 4 51 26 61 42 18z"/>
<path d="M605 4896 c-19 -14 -26 -64 -12 -99 7 -20 47 -23 65 -5 17 17 15 84 -4 102 -19 20 -25 20 -49 2z m41 -30 c8 -35 1 -60 -19 -64 -14 -3 -17 4 -17 36 0 55 24 74 36 28z"/>
<path d="M2839 4894 c-7 -9 -14 -33 -14 -54 0 -65 47 -93 79 -48 43 61 -19 157 -65 102z m46 -55 c0 -32 -4 -44 -15 -44 -16 0 -26 54 -16 82 12 30 31 6 31 -38z"/>
<path d="M3530 4899 c-11 -8 -12 -12 -2 -16 7 -3 12 -25 12 -60 0 -39 4 -53 13 -50 15 5 17 129 2 134 -5 1 -17 -2 -25 -8z"/>
<path d="M4900 4889 c-12 -8 -12 -12 -2 -16 7 -3 12 -23 12 -49 0 -28 4 -43 10 -39 12 7 14 102 2 109 -4 2 -14 0 -22 -5z"/>
<path d="M2390 4874 c0 -8 5 -12 10 -9 6 4 10 -10 10 -34 0 -23 5 -41 10 -41 6 0 10 23 10 50 0 43 -3 50 -20 50 -11 0 -20 -7 -20 -16z"/>
<path d="M3755 4874 c-28 -28 -13 -79 21 -72 14 2 20 13 22 39 3 42 -18 58 -43 33z m28 -46 c-10 -21 -12 -21 -18 -5 -10 25 2 54 17 39 8 -8 8 -18 1 -34z"/>
<path d="M4655 4880 c-3 -5 -1 -10 4 -10 6 0 11 -18 11 -40 0 -22 5 -40 10 -40 6 0 10 23 10 50 0 37 -4 50 -14 50 -8 0 -18 -4 -21 -10z"/>
<path d="M5353 4882 c-40 -25 -14 -104 28 -82 22 12 26 59 7 78 -14 14 -19 14 -35 4z m27 -42 c0 -22 -17 -35 -23 -18 -6 19 4 49 14 42 5 -3 9 -14 9 -24z"/>
<path d="M152 4863 c-12 -22 2 -63 21 -63 22 0 39 26 35 52 -4 29 -43 37 -56 11z m29 -36 c-8 -8 -11 -3 -11 19 1 25 2 27 11 11 8 -14 8 -22 0 -30z"/>
<path d="M1064 4864 c3 -9 6 -27 6 -40 0 -14 4 -22 10 -19 6 3 10 22 10 41 0 25 -4 34 -16 34 -11 0 -14 -5 -10 -16z"/>
<path d="M1515 4863 c4 -10 7 -28 6 -40 -1 -23 18 -33 20 -10 1 6 2 24 3 40 2 21 -1 27 -17 27 -14 0 -17 -4 -12 -17z"/>
<path d="M1964 4866 c-11 -28 0 -61 21 -61 16 0 20 7 20 35 0 25 -5 36 -18 38 -9 2 -20 -3 -23 -12z m31 -36 c-5 -8 -11 -8 -17 -2 -6 6 -7 16 -3 22 5 8 11 8 17 2 6 -6 7 -16 3 -22z"/>
<path d="M2194 4864 c3 -9 6 -27 6 -40 0 -13 5 -24 10 -24 6 0 10 18 10 40 0 30 -4 40 -16 40 -11 0 -14 -5 -10 -16z"/>
<path d="M3071 4866 c-17 -20 3 -69 27 -64 12 2 18 14 20 41 3 31 0 37 -16 37 -11 0 -25 -6 -31 -14z m39 -26 c0 -25 -18 -36 -26 -16 -8 21 3 49 16 41 5 -3 10 -15 10 -25z"/>
<path d="M3301 4861 c-14 -26 -4 -51 20 -51 24 0 36 27 22 48 -15 24 -31 25 -42 3z m29 -22 c0 -11 -4 -17 -10 -14 -5 3 -10 13 -10 21 0 8 5 14 10 14 6 0 10 -9 10 -21z"/>
<path d="M4204 4865 c-9 -23 5 -65 21 -65 23 0 38 36 25 60 -13 24 -38 26 -46 5z m36 -19 c0 -8 -4 -18 -10 -21 -5 -3 -10 3 -10 14 0 12 5 21 10 21 6 0 10 -6 10 -14z"/>
<path d="M4437 4873 c-4 -3 -7 -19 -7 -35 0 -21 5 -28 19 -28 22 0 34 25 26 51 -6 19 -26 25 -38 12z m23 -35 c0 -16 -3 -19 -11 -11 -6 6 -8 16 -5 22 11 17 16 13 16 -11z"/>
<path d="M604 4705 c-17 -13 -17 -14 -1 -15 14 0 17 -9 17 -50 0 -27 5 -50 10 -50 6 0 10 28 10 65 0 68 -4 74 -36 50z"/>
<path d="M381 4696 c-17 -21 -10 -77 12 -90 15 -9 21 -7 33 9 20 26 14 64 -12 82 -18 12 -23 11 -33 -1z m34 -44 c0 -31 -19 -28 -23 4 -3 18 0 25 10 22 7 -3 13 -14 13 -26z"/>
<path d="M1062 4698 c-16 -16 -15 -73 2 -87 35 -29 69 32 41 75 -17 27 -26 29 -43 12z m33 -48 c0 -13 -6 -25 -12 -27 -9 -3 -13 6 -13 27 0 21 4 30 13 28 6 -3 12 -15 12 -28z"/>
<path d="M1736 4701 c-4 -5 -2 -12 4 -16 5 -3 10 -24 10 -45 0 -46 20 -65 21 -21 1 17 1 43 2 58 1 28 -25 45 -37 24z"/>
<path d="M3074 4699 c-4 -7 -2 -15 4 -17 7 -2 12 -21 12 -43 0 -21 5 -39 11 -39 14 0 7 102 -8 107 -6 2 -15 -2 -19 -8z"/>
<path d="M3522 4698 c-17 -17 -15 -74 4 -93 21 -20 35 -15 54 18 28 49 -20 113 -58 75z m42 -24 c9 -23 -3 -56 -17 -51 -22 7 -21 67 2 67 5 0 12 -7 15 -16z"/>
<path d="M4657 4692 c-29 -32 -14 -92 23 -92 35 0 47 62 19 97 -15 17 -23 16 -42 -5z m33 -42 c0 -16 -4 -30 -10 -30 -5 0 -10 14 -10 30 0 17 5 30 10 30 6 0 10 -13 10 -30z"/>
<path d="M5346 4691 c-35 -38 1 -113 38 -82 23 19 21 78 -3 90 -14 8 -22 6 -35 -8z m34 -35 c0 -14 -4 -27 -9 -31 -12 -7 -25 31 -16 45 11 18 25 10 25 -14z"/>
<path d="M1517 4694 c-6 -6 -2 -38 9 -73 10 -30 27 7 20 43 -7 35 -15 43 -29 30z"/>
<path d="M2408 4695 c-3 -6 -3 -28 1 -50 6 -34 8 -36 12 -15 6 29 -4 79 -13 65z"/>
<path d="M2851 4686 c-7 -8 -11 -27 -9 -43 2 -22 8 -28 28 -28 20 0 26 6 28 28 3 27 -12 57 -28 57 -4 0 -13 -6 -19 -14z m29 -31 c0 -14 -4 -25 -10 -25 -5 0 -10 11 -10 25 0 14 5 25 10 25 6 0 10 -11 10 -25z"/>
<path d="M3757 4694 c-8 -8 3 -66 14 -78 5 -6 9 10 9 37 0 43 -7 56 -23 41z"/>
<path d="M4205 4691 c-3 -5 -1 -12 5 -16 5 -3 10 -22 10 -41 0 -21 4 -33 10 -29 16 10 13 95 -4 95 -8 0 -17 -4 -21 -9z"/>
<path d="M2197 4683 c-4 -3 -7 -19 -7 -35 0 -21 5 -28 19 -28 26 0 34 15 27 46 -6 23 -25 32 -39 17z m20 -35 c-3 -8 -6 -5 -6 6 -1 11 2 17 5 13 3 -3 4 -12 1 -19z"/>
<path d="M4438 4685 c-8 -8 3 -65 13 -65 5 0 9 16 9 35 0 32 -8 43 -22 30z"/>
<path d="M5115 4670 c-6 -20 10 -60 24 -60 18 0 33 31 27 55 -8 30 -42 34 -51 5z m35 -20 c0 -11 -4 -20 -10 -20 -5 0 -10 9 -10 20 0 11 5 20 10 20 6 0 10 -9 10 -20z"/>
<path d="M380 4510 c-12 -8 -12 -10 3 -16 12 -4 17 -16 16 -33 -3 -43 0 -63 11 -56 6 3 10 31 10 61 0 55 -8 64 -40 44z"/>
<path d="M610 4509 c-12 -8 -12 -12 -2 -16 7 -2 12 -22 12 -44 0 -21 5 -39 10 -39 12 0 14 97 2 104 -4 2 -14 0 -22 -5z"/>
<path d="M1064 4505 c-11 -8 -14 -15 -6 -15 7 0 12 -14 12 -34 0 -19 5 -38 10 -41 6 -4 10 15 10 49 0 31 -1 56 -3 56 -2 0 -12 -7 -23 -15z"/>
<path d="M2185 4510 c-3 -5 1 -10 9 -10 11 0 14 -11 13 -45 -1 -24 3 -45 8 -45 6 0 11 25 13 55 3 49 1 55 -17 55 -11 0 -23 -4 -26 -10z"/>
<path d="M2845 4511 c-3 -6 -1 -11 4 -11 6 0 11 -20 11 -44 0 -25 5 -48 10 -51 6 -4 10 13 10 44 0 28 0 54 1 59 0 12 -29 14 -36 3z"/>
<path d="M3080 4509 c-11 -8 -12 -12 -2 -16 7 -2 12 -22 12 -44 0 -24 4 -38 10 -34 12 7 13 74 2 92 -5 8 -12 9 -22 2z"/>
<path d="M4194 4496 c-16 -66 17 -116 55 -82 39 35 25 106 -20 106 -22 0 -30 -6 -35 -24z m56 -31 c0 -24 -22 -49 -33 -38 -4 3 -7 21 -7 38 0 17 3 35 7 38 11 11 33 -14 33 -38z"/>
<path d="M2392 4498 c-16 -16 -15 -50 2 -74 12 -15 18 -17 33 -8 21 13 27 36 19 70 -7 26 -34 32 -54 12z m36 -39 c-1 -13 -7 -23 -13 -22 -13 3 -18 30 -11 50 10 24 29 1 24 -28z"/>
<path d="M2629 4506 c-8 -9 3 -86 12 -86 5 0 9 20 9 45 0 40 -7 54 -21 41z"/>
<path d="M3525 4500 c-3 -5 -1 -10 4 -10 6 0 11 -16 11 -35 0 -19 5 -35 10 -35 6 0 10 20 10 45 0 33 -4 45 -14 45 -8 0 -18 -4 -21 -10z"/>
<path d="M3755 4501 c-3 -5 -1 -12 4 -15 4 -3 7 -19 5 -36 -2 -16 1 -30 6 -30 6 0 10 20 10 45 0 42 -11 58 -25 36z"/>
<path d="M5351 4501 c-9 -6 -10 -11 -2 -15 6 -4 11 -21 11 -37 0 -18 4 -28 10 -24 12 7 14 72 2 79 -4 2 -14 1 -21 -3z"/>
<path d="M1517 4494 c-4 -4 -7 -20 -7 -36 0 -25 4 -29 23 -26 17 2 22 10 22 33 0 29 -22 45 -38 29z m20 -46 c-3 -7 -5 -2 -5 12 0 14 2 19 5 13 2 -7 2 -19 0 -25z"/>
<path d="M1737 4494 c-12 -13 -8 -51 8 -64 21 -18 47 5 43 39 -3 26 -35 41 -51 25z m33 -29 c0 -14 -4 -25 -10 -25 -5 0 -10 11 -10 25 0 14 5 25 10 25 6 0 10 -11 10 -25z"/>
<path d="M4425 4481 c-6 -21 9 -61 24 -61 16 0 33 29 29 52 -4 31 -44 37 -53 9z m35 -18 c0 -20 -3 -24 -11 -16 -7 7 -9 19 -6 27 10 24 17 19 17 -11z"/>
<path d="M4664 4484 c3 -9 6 -24 6 -35 0 -10 5 -19 10 -19 6 0 10 16 10 35 0 25 -4 35 -16 35 -11 0 -14 -5 -10 -16z"/>
<path d="M5128 4465 c2 -14 6 -25 7 -25 1 0 5 11 7 25 3 16 1 25 -7 25 -8 0 -10 -9 -7 -25z"/>
<path d="M606 4325 c-20 -20 -21 -78 -1 -95 39 -32 82 28 55 77 -19 33 -33 38 -54 18z m39 -51 c0 -19 -5 -29 -15 -29 -16 0 -25 28 -16 51 10 25 31 10 31 -22z"/>
<path d="M1507 4322 c-27 -29 -22 -78 9 -99 26 -16 27 -16 45 6 23 28 24 59 3 89 -18 27 -36 28 -57 4z m41 -53 c-2 -19 -7 -33 -13 -32 -12 3 -19 49 -10 71 10 26 27 -2 23 -39z"/>
<path d="M2186 4318 c-29 -41 -13 -98 28 -98 34 0 53 48 34 87 -17 36 -42 40 -62 11z m44 -43 c0 -24 -5 -35 -14 -35 -17 0 -24 17 -18 47 7 37 32 28 32 -12z"/>
<path d="M3976 4324 c-19 -18 -21 -75 -4 -92 17 -17 55 -15 62 4 16 41 -2 104 -29 104 -7 0 -21 -7 -29 -16z m42 -57 c-2 -12 -10 -22 -18 -22 -19 0 -25 41 -9 61 11 14 13 13 21 -1 5 -8 8 -26 6 -38z"/>
<path d="M1729 4303 c-12 -32 6 -78 31 -78 8 0 20 11 28 25 18 33 2 80 -28 80 -13 0 -24 -10 -31 -27z m45 -9 c7 -19 -1 -54 -14 -54 -12 0 -21 31 -15 51 8 23 21 24 29 3z"/>
<path d="M2400 4319 c-12 -8 -12 -12 -2 -16 6 -2 12 -20 12 -39 0 -19 5 -34 10 -34 12 0 14 87 2 94 -4 2 -14 0 -22 -5z"/>
<path d="M3745 4320 c-13 -21 -8 -72 9 -88 33 -33 66 15 52 74 -5 17 -13 24 -31 24 -13 0 -27 -5 -30 -10z m43 -42 c-4 -46 -28 -49 -28 -4 0 26 4 36 16 36 11 0 14 -8 12 -32z"/>
<path d="M4202 4318 c-17 -17 -15 -73 3 -88 34 -28 74 24 56 73 -11 29 -38 36 -59 15z m38 -44 c0 -24 -4 -34 -12 -32 -24 8 -22 68 2 68 5 0 10 -16 10 -36z"/>
<path d="M4431 4316 c-7 -8 -11 -30 -9 -48 2 -25 8 -34 25 -36 31 -4 48 33 34 71 -12 30 -32 35 -50 13z m35 -51 c-4 -14 -11 -23 -16 -20 -11 7 -13 48 -3 59 13 13 26 -13 19 -39z"/>
<path d="M391 4311 c-7 -5 -11 -21 -9 -37 4 -39 42 -41 46 -3 3 29 -17 52 -37 40z m19 -37 c0 -8 -5 -12 -10 -9 -6 4 -8 11 -5 16 9 14 15 11 15 -7z"/>
<path d="M1062 4308 c-30 -30 1 -94 33 -68 16 13 19 38 9 64 -7 19 -25 21 -42 4z m28 -33 c0 -14 -4 -25 -10 -25 -5 0 -10 11 -10 25 0 14 5 25 10 25 6 0 10 -11 10 -25z"/>
<path d="M2614 4296 c-9 -38 4 -68 29 -64 18 2 22 10 22 43 0 34 -4 40 -22 43 -17 3 -24 -3 -29 -22z m36 -21 c0 -14 -4 -25 -10 -25 -5 0 -10 11 -10 25 0 14 5 25 10 25 6 0 10 -11 10 -25z"/>
<path d="M3527 4313 c-10 -9 -8 -55 2 -72 11 -16 39 -8 47 14 10 26 -5 65 -25 65 -10 0 -21 -3 -24 -7z m33 -38 c0 -14 -4 -25 -10 -25 -5 0 -10 11 -10 25 0 14 5 25 10 25 6 0 10 -11 10 -25z"/>
<path d="M5120 4300 c-15 -27 -3 -60 20 -60 10 0 21 9 25 20 7 21 -10 60 -25 60 -5 0 -14 -9 -20 -20z m30 -26 c0 -8 -4 -14 -10 -14 -5 0 -10 9 -10 21 0 11 5 17 10 14 6 -3 10 -13 10 -21z"/>
<path d="M5347 4313 c-15 -14 -7 -71 10 -77 17 -7 43 16 43 37 0 31 -35 58 -53 40z m26 -33 c3 -11 1 -23 -4 -26 -5 -3 -9 6 -9 20 0 31 6 34 13 6z"/>
<path d="M3075 4290 c-9 -29 12 -55 32 -38 8 6 13 21 11 32 -4 28 -35 33 -43 6z m22 -22 c-3 -8 -6 -5 -6 6 -1 11 2 17 5 13 3 -3 4 -12 1 -19z"/>
<path d="M4655 4289 c-5 -14 -1 -27 10 -38 15 -15 17 -15 30 2 17 23 8 57 -15 57 -10 0 -22 -10 -25 -21z m35 -8 c0 -6 -4 -13 -10 -16 -5 -3 -10 1 -10 9 0 9 5 16 10 16 6 0 10 -4 10 -9z"/>
<path d="M833 4143 c-18 -7 -16 -23 2 -23 11 0 15 -12 15 -50 0 -27 5 -50 10 -50 6 0 10 28 10 65 0 65 -4 72 -37 58z"/>
<path d="M1050 4131 c-16 -30 -12 -76 8 -94 23 -21 27 -21 46 -1 19 18 21 85 4 102 -18 18 -46 14 -58 -7z m45 -41 c0 -35 -21 -53 -31 -26 -9 23 5 68 19 63 7 -2 12 -19 12 -37z"/>
<path d="M1736 4131 c-42 -47 8 -133 52 -89 13 13 16 67 4 84 -14 20 -40 23 -56 5z m40 -26 c7 -29 -1 -55 -16 -55 -6 0 -13 7 -16 15 -8 20 4 65 16 65 5 0 12 -11 16 -25z"/>
<path d="M3072 4138 c-18 -23 -23 -55 -12 -82 8 -22 15 -27 38 -24 24 3 27 7 30 46 4 60 -28 94 -56 60z m38 -54 c0 -22 -5 -34 -14 -34 -18 0 -25 30 -15 59 12 31 29 17 29 -25z"/>
<path d="M4649 4134 c-28 -33 -9 -114 27 -114 24 0 44 31 44 69 0 56 -40 82 -71 45z m46 -25 c9 -28 -3 -71 -18 -66 -13 4 -22 51 -13 73 8 20 24 17 31 -7z"/>
<path d="M375 4128 c-8 -26 -9 -44 -2 -70 8 -30 34 -37 55 -16 16 16 16 70 0 86 -16 16 -47 15 -53 0z m40 -43 c0 -16 -6 -30 -12 -32 -9 -3 -13 7 -13 32 0 25 4 35 13 33 6 -3 12 -17 12 -33z"/>
<path d="M602 4128 c-16 -16 -15 -60 1 -82 19 -27 54 -13 59 23 8 58 -27 92 -60 59z m38 -44 c0 -24 -4 -34 -12 -32 -24 8 -22 68 2 68 5 0 10 -16 10 -36z"/>
<path d="M1511 4131 c-8 -5 -9 -10 -3 -12 6 -2 13 -22 15 -44 6 -63 27 -56 27 9 0 57 -8 66 -39 47z"/>
<path d="M2392 4128 c-17 -17 -15 -73 4 -89 33 -27 64 21 50 77 -7 26 -34 32 -54 12z m38 -44 c0 -45 -24 -42 -28 4 -2 24 1 32 12 32 12 0 16 -10 16 -36z"/>
<path d="M2608 4115 c-8 -18 -8 -32 2 -55 29 -70 91 -7 64 64 -10 25 -53 20 -66 -9z m47 -28 c0 -39 -19 -38 -23 2 -3 24 0 32 10 29 7 -3 13 -17 13 -31z"/>
<path d="M3760 4129 c-10 -7 -11 -12 -4 -15 6 -3 10 -20 8 -39 -1 -19 2 -37 7 -41 5 -3 9 19 9 50 0 31 -1 56 -2 56 -2 0 -10 -5 -18 -11z"/>
<path d="M5109 4114 c-24 -65 35 -117 61 -54 10 23 10 37 2 55 -16 34 -50 33 -63 -1z m46 -5 c9 -13 -3 -59 -14 -59 -13 0 -20 25 -14 49 6 23 18 27 28 10z"/>
<path d="M5342 4128 c-17 -17 -15 -73 3 -88 23 -19 52 -3 58 33 8 55 -28 88 -61 55z m36 -40 c-3 -34 -20 -42 -26 -13 -5 22 5 45 18 45 7 0 10 -14 8 -32z"/>
<path d="M2190 4116 c-15 -19 -5 -65 16 -73 21 -8 35 15 32 52 -3 34 -28 44 -48 21z m30 -32 c0 -14 -4 -23 -10 -19 -5 3 -10 15 -10 26 0 10 5 19 10 19 6 0 10 -12 10 -26z"/>
<path d="M3533 4123 c-18 -7 -16 -58 2 -73 32 -26 63 38 33 68 -13 13 -16 13 -35 5z m27 -32 c0 -11 -4 -23 -10 -26 -6 -4 -10 5 -10 19 0 14 5 26 10 26 6 0 10 -9 10 -19z"/>
<path d="M3988 4125 c-7 -8 4 -75 13 -75 12 0 12 67 0 74 -4 3 -10 3 -13 1z"/>
<path d="M4212 4118 c-18 -18 -15 -65 5 -72 19 -8 43 17 43 44 0 16 -18 40 -30 40 -3 0 -11 -5 -18 -12z m28 -33 c0 -14 -4 -25 -10 -25 -5 0 -10 11 -10 25 0 14 5 25 10 25 6 0 10 -11 10 -25z"/>
<path d="M1513 3963 c-18 -7 -16 -23 3 -23 13 0 15 -11 13 -57 -2 -32 1 -58 7 -58 5 0 10 33 12 73 3 73 -1 79 -35 65z"/>
<path d="M1745 3955 c-14 -10 -17 -17 -8 -22 6 -5 13 -29 15 -53 2 -25 8 -44 13 -43 13 3 19 98 8 118 -8 13 -11 14 -28 0z"/>
<path d="M3757 3959 c-10 -6 -15 -15 -12 -20 4 -5 11 -7 16 -4 5 4 9 -18 9 -49 0 -31 5 -56 10 -56 12 0 14 126 2 134 -4 2 -15 0 -25 -5z"/>
<path d="M1052 3948 c-31 -31 -1 -128 35 -114 8 3 17 6 19 6 15 0 24 56 14 86 -12 36 -44 46 -68 22z m48 -47 c0 -42 -16 -63 -31 -40 -10 17 -12 63 -2 72 18 19 33 5 33 -32z"/>
<path d="M3073 3953 c-18 -7 -16 -23 2 -23 11 0 15 -12 15 -45 0 -25 5 -45 10 -45 6 0 10 27 10 60 0 60 -5 67 -37 53z"/>
<path d="M3980 3949 c-11 -8 -12 -12 -2 -16 7 -3 12 -23 12 -50 0 -31 4 -43 13 -40 15 5 17 109 2 114 -5 1 -17 -2 -25 -8z"/>
<path d="M5117 3953 c-11 -10 -8 -25 2 -18 6 3 11 -17 13 -47 4 -73 22 -67 26 10 3 55 1 62 -16 62 -10 0 -22 -3 -25 -7z"/>
<path d="M5350 3949 c-12 -8 -12 -12 -2 -16 7 -3 12 -23 12 -49 0 -24 5 -44 10 -44 12 0 14 107 2 114 -4 2 -14 0 -22 -5z"/>
<path d="M832 3938 c-26 -26 -8 -88 25 -88 23 0 38 46 25 75 -13 27 -31 32 -50 13z m38 -38 c0 -10 -5 -22 -10 -25 -13 -8 -24 20 -16 41 8 20 26 9 26 -16z"/>
<path d="M617 3933 c-2 -4 -2 -24 1 -43 l6 -35 7 35 c7 32 -2 62 -14 43z"/>
<path d="M1296 3903 c9 -52 14 -54 14 -5 0 23 -5 42 -10 42 -7 0 -8 -14 -4 -37z"/>
<path d="M2199 3935 c-8 -8 3 -75 12 -75 5 0 9 18 9 40 0 36 -8 49 -21 35z"/>
<path d="M2394 3926 c-11 -28 0 -61 21 -61 16 0 20 7 20 35 0 25 -5 36 -18 38 -9 2 -20 -3 -23 -12z m36 -25 c0 -11 -4 -23 -10 -26 -6 -4 -10 5 -10 19 0 14 5 26 10 26 6 0 10 -9 10 -19z"/>
<path d="M2627 3903 c9 -58 23 -64 23 -10 0 34 -4 47 -14 47 -11 0 -13 -9 -9 -37z"/>
<path d="M4206 3931 c-4 -5 -2 -12 4 -16 5 -3 10 -17 10 -31 0 -13 5 -24 11 -24 14 0 7 72 -8 77 -6 2 -14 0 -17 -6z"/>
<path d="M4894 3926 c-11 -28 0 -61 21 -61 16 0 20 7 20 35 0 25 -5 36 -18 38 -9 2 -20 -3 -23 -12z m28 -38 c-9 -9 -12 -7 -12 12 0 19 3 21 12 12 9 -9 9 -15 0 -24z"/>
<path d="M390 3900 c0 -16 5 -30 10 -30 6 0 10 14 10 30 0 17 -4 30 -10 30 -5 0 -10 -13 -10 -30z"/>
<path d="M3534 3916 c-8 -22 3 -49 19 -43 6 2 12 14 12 27 0 27 -22 39 -31 16z"/>
<path d="M4663 3916 c4 -10 7 -24 7 -32 0 -9 4 -13 8 -10 13 8 7 49 -8 54 -9 3 -11 -1 -7 -12z"/>
<path d="M1063 3773 c-18 -6 -16 -23 1 -23 11 0 14 -13 13 -52 0 -32 4 -53 11 -56 9 -3 12 17 12 67 0 71 -4 78 -37 64z"/>
<path d="M4196 3758 c-32 -45 -14 -118 28 -118 32 0 46 20 48 68 2 67 -43 97 -76 50z m52 -40 c3 -39 -23 -74 -34 -45 -11 29 -11 52 -2 70 14 27 33 15 36 -25z"/>
<path d="M1282 3758 c-17 -17 -15 -83 3 -98 23 -19 49 -7 59 28 16 58 -26 106 -62 70z m42 -24 c8 -22 -4 -66 -18 -61 -22 7 -20 77 3 77 5 0 12 -7 15 -16z"/>
<path d="M605 3750 c-3 -5 -1 -10 4 -10 6 0 11 -18 11 -40 0 -22 5 -40 10 -40 6 0 10 23 10 50 0 37 -4 50 -14 50 -8 0 -18 -4 -21 -10z"/>
<path d="M2187 3753 c-4 -3 -7 -23 -7 -44 0 -27 5 -41 19 -48 37 -20 70 56 39 87 -13 13 -41 16 -51 5z m38 -33 c7 -21 0 -40 -16 -40 -5 0 -9 14 -9 30 0 34 15 40 25 10z"/>
<path d="M2610 3740 c-12 -22 -4 -64 15 -80 31 -26 64 23 51 75 -8 31 -50 35 -66 5z m45 -30 c0 -13 -6 -25 -12 -27 -9 -3 -13 6 -13 27 0 21 4 30 13 28 6 -3 12 -15 12 -28z"/>
<path d="M3074 3748 c-4 -6 -2 -14 4 -16 7 -2 13 -20 13 -40 1 -37 1 -37 8 -7 12 53 -5 96 -25 63z"/>
<path d="M3302 3751 c-16 -10 -19 -68 -5 -82 19 -19 48 -5 54 26 9 50 -15 78 -49 56z m31 -23 c5 -18 -3 -48 -14 -48 -5 0 -9 14 -9 30 0 30 15 41 23 18z"/>
<path d="M3530 3749 c-12 -8 -12 -12 -2 -16 6 -2 12 -20 12 -39 0 -21 4 -33 10 -29 12 7 14 82 2 89 -4 2 -14 0 -22 -5z"/>
<path d="M4895 3750 c-3 -5 -1 -10 4 -10 6 0 11 -20 11 -46 0 -27 4 -43 10 -39 6 3 10 28 10 56 0 36 -4 49 -14 49 -8 0 -18 -4 -21 -10z"/>
<path d="M384 3736 c-10 -25 0 -61 18 -64 19 -4 32 29 23 58 -7 23 -33 27 -41 6z m26 -28 c0 -16 -3 -19 -11 -11 -6 6 -8 16 -5 22 11 17 16 13 16 -11z"/>
<path d="M833 3738 c-11 -18 -11 -30 -1 -50 12 -25 37 -22 47 5 15 40 -24 78 -46 45z m24 -40 c-3 -7 -5 -2 -5 12 0 14 2 19 5 13 2 -7 2 -19 0 -25z"/>
<path d="M1516 3718 c13 -72 26 -76 31 -7 2 33 0 39 -17 39 -16 0 -19 -5 -14 -32z"/>
<path d="M1737 3744 c-13 -13 -7 -61 8 -74 23 -19 47 6 43 44 -2 22 -9 32 -23 34 -12 2 -24 0 -28 -4z m33 -34 c0 -16 -4 -30 -10 -30 -5 0 -10 14 -10 30 0 17 5 30 10 30 6 0 10 -13 10 -30z"/>
<path d="M3984 3734 c3 -9 6 -27 6 -40 0 -13 5 -24 10 -24 6 0 10 18 10 40 0 30 -4 40 -16 40 -11 0 -14 -5 -10 -16z"/>
<path d="M4657 3744 c-13 -13 -7 -61 8 -74 23 -19 47 6 43 44 -2 22 -9 32 -23 34 -12 2 -24 0 -28 -4z m33 -29 c0 -14 -4 -25 -10 -25 -5 0 -10 11 -10 25 0 14 5 25 10 25 6 0 10 -11 10 -25z"/>
<path d="M5122 3708 c2 -21 8 -33 18 -33 10 0 16 12 18 33 3 27 0 32 -18 32 -18 0 -21 -5 -18 -32z m28 3 c0 -6 -4 -13 -10 -16 -5 -3 -10 1 -10 9 0 9 5 16 10 16 6 0 10 -4 10 -9z"/>
<path d="M2616 3574 c-20 -20 -21 -88 -1 -104 22 -19 65 -4 66 23 6 85 -24 122 -65 81z m44 -55 c0 -32 -3 -40 -17 -37 -19 4 -25 32 -12 65 13 34 29 19 29 -28z"/>
<path d="M1290 3569 c-12 -8 -12 -12 -2 -16 7 -2 12 -22 12 -44 0 -21 5 -39 10 -39 12 0 14 97 2 104 -4 2 -14 0 -22 -5z"/>
<path d="M1741 3566 c-7 -8 -11 -32 -9 -53 3 -33 6 -38 27 -38 34 0 49 46 27 80 -19 29 -29 31 -45 11z m33 -61 c-9 -22 -21 -18 -26 9 -7 33 14 54 24 26 4 -11 5 -27 2 -35z"/>
<path d="M1955 3570 c-3 -5 1 -10 9 -10 12 0 16 -11 16 -50 0 -27 5 -50 10 -50 6 0 10 27 10 60 0 53 -2 60 -19 60 -11 0 -23 -4 -26 -10z"/>
<path d="M4663 3565 c-39 -28 -26 -95 18 -95 33 0 46 59 21 90 -16 19 -19 20 -39 5z m27 -45 c0 -16 -4 -30 -10 -30 -5 0 -10 14 -10 30 0 17 5 30 10 30 6 0 10 -13 10 -30z"/>
<path d="M1066 3528 c10 -64 24 -70 24 -10 0 40 -4 52 -15 52 -12 0 -14 -8 -9 -42z"/>
<path d="M1507 3563 c-4 -3 -7 -23 -7 -44 0 -29 5 -39 20 -44 39 -12 62 31 44 79 -6 16 -45 22 -57 9z m38 -43 c0 -13 -6 -25 -12 -27 -9 -3 -13 6 -13 27 0 21 4 30 13 28 6 -3 12 -15 12 -28z"/>
<path d="M3074 3559 c-3 -6 -2 -14 4 -18 6 -3 12 -20 15 -36 3 -22 4 -17 6 18 1 45 -10 60 -25 36z"/>
<path d="M3295 3560 c-3 -5 -1 -10 4 -10 6 0 11 -15 11 -34 0 -19 5 -38 10 -41 6 -4 10 13 10 44 0 38 -4 51 -14 51 -8 0 -18 -4 -21 -10z"/>
<path d="M4210 3555 c-16 -20 -8 -69 12 -73 20 -4 41 32 33 57 -8 25 -31 33 -45 16z m30 -36 c0 -10 -4 -19 -10 -19 -5 0 -10 12 -10 26 0 14 4 23 10 19 6 -3 10 -15 10 -26z"/>
<path d="M4890 3544 c-7 -17 -7 -32 0 -45 24 -43 69 -3 50 45 -5 14 -16 26 -25 26 -9 0 -20 -12 -25 -26z m35 -35 c-7 -20 -8 -21 -17 -5 -5 9 -7 24 -4 33 10 26 29 -1 21 -28z"/>
<path d="M387 3554 c-13 -13 -7 -62 7 -67 20 -8 38 17 34 45 -3 22 -27 35 -41 22z m23 -36 c0 -16 -3 -19 -11 -11 -6 6 -8 16 -5 22 11 17 16 13 16 -11z"/>
<path d="M840 3526 c0 -19 5 -38 10 -41 6 -4 10 10 10 34 0 23 -4 41 -10 41 -5 0 -10 -15 -10 -34z"/>
<path d="M2197 3554 c-13 -13 -7 -62 7 -67 20 -8 38 17 34 45 -3 22 -27 35 -41 22z m23 -35 c0 -11 -4 -18 -10 -14 -5 3 -7 12 -3 20 7 21 13 19 13 -6z"/>
<path d="M3534 3544 c3 -9 6 -27 6 -40 0 -14 4 -22 10 -19 6 3 10 22 10 41 0 25 -4 34 -16 34 -11 0 -14 -5 -10 -16z"/>
<path d="M3977 3553 c-13 -12 -7 -50 9 -63 22 -19 49 9 40 44 -6 25 -33 35 -49 19z m33 -34 c0 -11 -4 -17 -10 -14 -5 3 -10 13 -10 21 0 8 5 14 10 14 6 0 10 -9 10 -21z"/>
<path d="M5114 3535 c-11 -44 38 -77 51 -35 9 29 -4 60 -25 60 -13 0 -22 -9 -26 -25z m36 -15 c0 -11 -4 -20 -10 -20 -5 0 -10 9 -10 20 0 11 5 20 10 20 6 0 10 -9 10 -20z"/>
<path d="M834 3385 c-17 -12 -17 -14 -3 -20 12 -4 16 -18 15 -47 0 -25 4 -43 12 -46 9 -3 12 13 12 57 0 66 -7 77 -36 56z"/>
<path d="M1052 3388 c-29 -29 -6 -128 29 -128 19 0 49 41 49 68 0 54 -47 91 -78 60z m43 -54 c0 -28 -4 -39 -15 -39 -16 0 -26 45 -16 72 11 28 31 7 31 -33z"/>
<path d="M3066 3378 c-31 -44 -13 -108 29 -108 42 0 60 64 29 108 -8 12 -21 22 -29 22 -8 0 -21 -10 -29 -22z m54 -44 c0 -23 -12 -44 -26 -44 -19 0 -28 44 -14 71 12 22 13 22 26 4 8 -10 14 -24 14 -31z"/>
<path d="M5110 3385 c-21 -25 -16 -83 9 -108 l22 -22 23 27 c36 41 20 118 -24 118 -10 0 -23 -7 -30 -15z m45 -51 c0 -28 -4 -39 -15 -39 -16 0 -26 45 -16 72 11 28 31 7 31 -33z"/>
<path d="M1282 3378 c-16 -16 -15 -70 2 -94 30 -40 78 25 57 79 -11 29 -38 36 -59 15z m40 -26 c7 -24 -9 -65 -22 -57 -11 7 -14 58 -3 68 11 12 20 8 25 -11z"/>
<path d="M1973 3379 c-42 -16 -26 -99 18 -99 19 0 29 20 29 60 0 35 -18 50 -47 39z m27 -50 c0 -20 -4 -29 -12 -27 -15 5 -22 33 -14 54 9 24 26 6 26 -27z"/>
<path d="M2623 3382 c-21 -14 -26 -60 -9 -87 9 -14 21 -25 26 -25 19 0 40 33 40 64 0 46 -26 68 -57 48z m32 -47 c0 -16 -6 -30 -12 -32 -9 -3 -13 7 -13 32 0 25 4 35 13 33 6 -3 12 -17 12 -33z"/>
<path d="M4898 3379 c-18 -10 -24 -52 -12 -83 7 -19 35 -21 52 -4 23 23 9 99 -17 98 -4 0 -14 -5 -23 -11z m32 -50 c0 -19 -5 -29 -15 -29 -15 0 -22 50 -9 63 12 12 24 -4 24 -34z"/>
<path d="M3531 3366 c-20 -24 -10 -70 16 -74 17 -3 24 3 29 24 11 44 -21 79 -45 50z m29 -37 c0 -10 -4 -19 -10 -19 -5 0 -10 12 -10 26 0 14 4 23 10 19 6 -3 10 -15 10 -26z"/>
<path d="M387 3338 c9 -51 23 -57 23 -10 0 30 -4 42 -15 42 -11 0 -13 -8 -8 -32z"/>
<path d="M1740 3351 c-13 -25 -3 -51 20 -51 10 0 21 7 24 16 7 17 -10 54 -24 54 -5 0 -14 -9 -20 -19z m30 -15 c0 -8 -4 -18 -10 -21 -5 -3 -10 3 -10 14 0 12 5 21 10 21 6 0 10 -6 10 -14z"/>
<path d="M2198 3365 c-8 -8 3 -65 13 -65 5 0 9 16 9 35 0 32 -8 43 -22 30z"/>
<path d="M3308 3365 c-2 -3 -3 -18 0 -35 5 -34 22 -31 22 5 0 23 -12 39 -22 30z"/>
<path d="M4207 3363 c-13 -12 -7 -50 9 -64 14 -11 18 -10 30 6 8 11 12 26 9 33 -3 8 -5 18 -5 23 0 10 -33 12 -43 2z m33 -28 c0 -8 -4 -17 -10 -20 -6 -4 -10 5 -10 20 0 15 4 24 10 20 6 -3 10 -12 10 -20z"/>
<path d="M1520 3330 c0 -16 5 -30 10 -30 6 0 10 14 10 30 0 17 -4 30 -10 30 -5 0 -10 -13 -10 -30z"/>
<path d="M3988 3330 c3 -21 8 -28 14 -22 12 12 7 44 -8 49 -7 2 -9 -8 -6 -27z"/>
<path d="M4664 3344 c3 -9 6 -22 6 -30 0 -8 5 -14 10 -14 6 0 9 14 8 30 -1 18 -8 30 -16 30 -9 0 -12 -6 -8 -16z"/>
<path d="M3527 3218 c-38 -30 -43 -102 -9 -140 35 -41 82 -2 82 67 0 32 -6 51 -20 65 -23 23 -30 24 -53 8z m41 -39 c11 -30 2 -80 -15 -86 -29 -11 -44 48 -23 88 14 25 29 24 38 -2z"/>
<path d="M820 3191 c-14 -27 -13 -84 2 -99 18 -18 56 -14 68 7 25 47 5 111 -35 111 -14 0 -29 -8 -35 -19z m50 -52 c0 -26 -4 -39 -14 -39 -18 0 -27 36 -15 67 13 34 29 19 29 -28z"/>
<path d="M1507 3192 c-38 -41 -5 -122 42 -107 29 9 39 67 17 100 -20 30 -37 32 -59 7z m41 -52 c-5 -49 -28 -51 -28 -2 0 21 3 42 7 46 13 12 24 -12 21 -44z"/>
<path d="M2620 3200 c-11 -7 -12 -12 -3 -18 6 -4 13 -27 15 -51 2 -25 9 -46 16 -49 10 -3 12 11 10 59 -3 64 -11 76 -38 59z"/>
<path d="M4210 3199 c-11 -8 -12 -12 -2 -16 7 -3 12 -24 12 -54 0 -27 5 -49 10 -49 6 0 10 28 10 65 0 66 -4 73 -30 54z"/>
<path d="M154 3189 c-3 -6 -1 -15 6 -19 6 -4 11 -16 10 -26 -4 -34 0 -54 10 -54 6 0 10 25 10 55 0 41 -4 55 -14 55 -8 0 -18 -5 -22 -11z"/>
<path d="M2197 3192 c-15 -3 -16 -6 -6 -19 7 -8 13 -27 13 -41 1 -47 21 -39 24 10 3 49 -2 57 -31 50z"/>
<path d="M2844 3188 c-4 -6 -2 -14 4 -16 7 -2 12 -21 12 -43 0 -21 5 -39 10 -39 6 0 10 25 10 55 0 41 -4 55 -14 55 -8 0 -18 -5 -22 -12z"/>
<path d="M4900 3189 c-12 -8 -12 -12 -2 -16 7 -2 12 -22 12 -44 0 -24 4 -38 10 -34 12 7 14 92 2 99 -4 2 -14 0 -22 -5z"/>
<path d="M1060 3171 c-14 -27 -13 -46 5 -61 32 -26 63 38 33 68 -17 17 -26 15 -38 -7z m30 -26 c0 -14 -4 -25 -10 -25 -5 0 -10 11 -10 25 0 14 5 25 10 25 6 0 10 -11 10 -25z"/>
<path d="M1285 3180 c-3 -5 -1 -10 4 -10 6 0 11 -16 11 -35 0 -19 5 -35 10 -35 6 0 10 20 10 45 0 33 -4 45 -14 45 -8 0 -18 -4 -21 -10z"/>
<path d="M1960 3181 c0 -6 5 -11 10 -11 6 0 10 -16 10 -35 0 -19 4 -35 10 -35 5 0 9 19 7 42 -1 32 -7 44 -19 46 -10 2 -18 -1 -18 -7z"/>
<path d="M3077 3183 c-4 -3 -3 -11 2 -17 5 -6 11 -24 14 -41 3 -22 4 -17 6 18 1 44 -6 57 -22 40z"/>
<path d="M3303 3183 c-15 -5 -17 -51 -4 -71 5 -8 17 -12 27 -10 15 2 19 12 19 43 0 40 -12 51 -42 38z m27 -38 c0 -14 -4 -25 -10 -25 -11 0 -14 33 -3 43 11 11 13 8 13 -18z"/>
<path d="M5129 3185 c-8 -8 3 -85 12 -85 12 0 12 77 0 84 -4 3 -10 4 -12 1z"/>
<path d="M388 3175 c-8 -8 3 -65 13 -65 5 0 9 16 9 35 0 32 -8 43 -22 30z"/>
<path d="M3987 3173 c-11 -10 -8 -51 4 -59 19 -11 38 18 28 44 -8 22 -20 28 -32 15z m23 -27 c0 -3 -4 -8 -10 -11 -5 -3 -10 -1 -10 4 0 6 5 11 10 11 6 0 10 -2 10 -4z"/>
<path d="M4664 3154 c3 -9 6 -21 6 -26 0 -19 14 1 15 22 1 11 -5 20 -13 20 -9 0 -12 -6 -8 -16z"/>
<path d="M1962 3021 c-31 -19 -31 -113 0 -133 38 -23 68 8 68 71 0 62 -28 88 -68 62z m44 -35 c10 -41 1 -71 -21 -71 -15 0 -21 8 -23 33 -5 53 32 85 44 38z"/>
<path d="M3290 3000 c-28 -53 7 -129 48 -104 21 13 29 89 11 110 -17 20 -47 17 -59 -6z m45 -45 c0 -42 -19 -58 -30 -25 -9 29 3 72 18 67 7 -2 12 -21 12 -42z"/>
<path d="M3980 3010 c-11 -7 -12 -12 -3 -18 6 -4 13 -28 15 -52 4 -64 23 -51 23 17 0 58 -8 70 -35 53z"/>
<path d="M156 2994 c-35 -34 -5 -105 35 -84 31 17 21 100 -12 100 -4 0 -15 -7 -23 -16z m34 -40 c0 -27 -15 -32 -24 -9 -7 19 3 47 15 39 5 -3 9 -16 9 -30z"/>
<path d="M2838 2985 c-17 -38 0 -80 32 -80 18 0 27 8 34 27 13 36 -6 78 -34 78 -12 0 -25 -10 -32 -25z m43 -5 c5 -36 1 -60 -10 -60 -13 0 -22 30 -16 51 7 20 24 26 26 9z"/>
<path d="M3066 2995 c-20 -53 4 -103 44 -90 18 6 21 13 18 53 -3 42 -6 47 -29 50 -17 2 -29 -3 -33 -13z m44 -41 c0 -45 -24 -42 -28 4 -2 24 1 32 12 32 12 0 16 -10 16 -36z"/>
<path d="M3530 2995 c-9 -10 -9 -15 -1 -15 6 0 11 -16 11 -35 0 -19 5 -35 10 -35 12 0 13 87 1 94 -5 3 -14 -1 -21 -9z"/>
<path d="M4200 2984 c-13 -34 -13 -47 3 -68 21 -29 57 -5 57 37 0 56 -42 78 -60 31z m40 -30 c0 -26 -17 -33 -26 -9 -8 20 3 48 16 40 5 -3 10 -17 10 -31z"/>
<path d="M830 2981 c-13 -25 3 -71 24 -71 24 0 40 38 27 66 -13 29 -37 31 -51 5z m33 -32 c-4 -13 -9 -17 -16 -10 -12 12 -1 45 12 37 5 -3 7 -15 4 -27z"/>
<path d="M2617 2994 c-10 -10 -9 -56 2 -72 5 -8 17 -12 27 -10 29 5 27 82 -1 86 -12 2 -24 0 -28 -4z m33 -39 c0 -14 -4 -25 -10 -25 -5 0 -10 11 -10 25 0 14 5 25 10 25 6 0 10 -11 10 -25z"/>
<path d="M5126 2987 c-25 -18 -15 -67 14 -67 26 0 38 46 18 66 -12 12 -17 12 -32 1z m20 -44 c-11 -11 -19 6 -11 24 8 17 8 17 12 0 3 -10 2 -21 -1 -24z"/>
<path d="M1520 2961 c0 -17 5 -33 10 -36 6 -4 10 8 10 29 0 20 -4 36 -10 36 -5 0 -10 -13 -10 -29z"/>
<path d="M2193 2978 c-16 -19 3 -60 24 -56 24 4 25 61 2 66 -9 1 -21 -3 -26 -10z m24 -30 c-3 -8 -6 -5 -6 6 -1 11 2 17 5 13 3 -3 4 -12 1 -19z"/>
<path d="M4657 2984 c-12 -13 -8 -51 8 -64 21 -18 47 5 43 39 -3 26 -35 41 -51 25z m33 -30 c0 -8 -4 -14 -10 -14 -5 0 -10 9 -10 21 0 11 5 17 10 14 6 -3 10 -13 10 -21z"/>
<path d="M384 2965 c-7 -18 3 -35 22 -35 8 0 14 10 14 25 0 27 -27 35 -36 10z"/>
<path d="M1070 2955 c0 -14 5 -25 10 -25 6 0 10 11 10 25 0 14 -4 25 -10 25 -5 0 -10 -11 -10 -25z"/>
<path d="M3758 2968 c-7 -19 2 -38 18 -38 8 0 14 10 14 25 0 26 -24 35 -32 13z"/>
<path d="M3969 2819 c-35 -35 -12 -119 32 -119 23 0 49 37 49 70 0 31 -26 70 -46 70 -8 0 -24 -10 -35 -21z m47 -23 c9 -36 1 -71 -16 -71 -8 0 -16 11 -18 24 -5 30 6 71 18 71 5 0 12 -11 16 -24z"/>
<path d="M830 2815 c-16 -19 -17 -82 -2 -97 18 -18 56 -4 66 25 19 52 -33 109 -64 72z m40 -45 c0 -29 -4 -40 -15 -40 -10 0 -15 10 -15 33 0 19 3 37 7 40 15 16 23 5 23 -33z"/>
<path d="M1057 2823 c-11 -11 -8 -23 7 -23 9 0 13 -13 12 -47 -1 -29 4 -48 12 -50 9 -4 12 13 12 61 0 57 -2 66 -18 66 -10 0 -22 -3 -25 -7z"/>
<path d="M2187 2812 c-32 -36 -14 -102 27 -102 27 0 36 17 36 64 0 53 -32 72 -63 38z m41 -54 c-5 -37 -28 -33 -28 5 0 18 3 37 7 41 10 10 25 -21 21 -46z"/>
<path d="M3070 2815 c-10 -12 -10 -15 4 -15 13 0 16 -11 16 -50 0 -27 5 -50 10 -50 6 0 10 28 10 65 0 67 -13 83 -40 50z"/>
<path d="M5109 2814 c-16 -19 -15 -79 1 -99 15 -19 44 -19 58 -2 14 16 18 65 8 95 -9 26 -47 30 -67 6z m46 -50 c0 -28 -4 -39 -15 -39 -16 0 -26 45 -16 72 11 28 31 7 31 -33z"/>
<path d="M1512 2808 c-24 -24 -11 -88 17 -88 39 0 55 54 25 84 -19 19 -26 20 -42 4z m34 -54 c-3 -8 -10 -14 -16 -14 -11 0 -14 43 -3 54 10 10 26 -23 19 -40z"/>
<path d="M1962 2808 c-17 -17 -15 -73 4 -89 27 -22 49 1 49 52 0 36 -3 44 -20 47 -11 1 -26 -3 -33 -10z m36 -40 c-3 -34 -20 -42 -26 -13 -5 22 5 45 18 45 7 0 10 -14 8 -32z"/>
<path d="M2621 2806 c-7 -8 -11 -30 -9 -48 4 -44 42 -53 60 -14 21 48 -21 99 -51 62z m35 -52 c-3 -8 -10 -14 -16 -14 -11 0 -14 43 -3 54 10 10 26 -23 19 -40z"/>
<path d="M2839 2793 c-18 -49 7 -92 46 -77 21 8 30 51 16 80 -15 33 -49 32 -62 -3z m47 -17 c3 -23 -5 -46 -17 -46 -12 0 -23 46 -14 60 10 16 28 7 31 -14z"/>
<path d="M3290 2801 c-15 -29 -12 -56 9 -75 24 -22 48 -11 56 24 12 56 -40 97 -65 51z m43 -29 c-2 -38 -3 -42 -13 -42 -5 0 -10 16 -10 36 0 24 4 34 12 32 7 -3 12 -14 11 -26z"/>
<path d="M3524 2808 c-4 -6 -2 -14 4 -16 7 -2 12 -19 12 -38 0 -19 5 -34 10 -34 6 0 10 23 10 50 0 37 -4 50 -14 50 -8 0 -18 -5 -22 -12z"/>
<path d="M4425 2810 c-20 -33 0 -100 31 -100 29 0 46 74 22 98 -15 15 -45 16 -53 2z m40 -45 c0 -16 -6 -30 -12 -32 -9 -3 -13 7 -13 32 0 25 4 35 13 33 6 -3 12 -17 12 -33z"/>
<path d="M382 2793 c-14 -25 3 -65 25 -61 25 5 25 71 1 76 -9 2 -21 -5 -26 -15z m28 -30 c0 -20 -3 -24 -11 -16 -7 7 -9 19 -6 27 10 24 17 19 17 -11z"/>
<path d="M3750 2790 c-14 -26 4 -63 28 -58 21 4 29 57 10 69 -20 13 -26 11 -38 -11z m30 -27 c0 -20 -3 -24 -11 -16 -7 7 -9 19 -6 27 10 24 17 19 17 -11z"/>
<path d="M4211 2801 c-9 -6 -10 -11 -2 -15 6 -4 11 -18 11 -32 0 -32 15 -31 18 2 3 35 -10 55 -27 45z"/>
<path d="M4665 2797 c-24 -18 -14 -67 15 -67 23 0 35 33 20 60 -13 24 -11 24 -35 7z m25 -33 c0 -8 -4 -14 -10 -14 -5 0 -10 9 -10 21 0 11 5 17 10 14 6 -3 10 -13 10 -21z"/>
<path d="M160 2765 c0 -20 4 -26 18 -23 9 2 17 12 17 23 0 11 -8 21 -17 23 -14 3 -18 -3 -18 -23z"/>
<path d="M1517 2639 c-10 -6 -15 -15 -12 -20 4 -5 10 -7 13 -5 4 2 7 -18 7 -46 0 -32 5 -53 13 -55 9 -4 12 13 12 61 0 69 -5 80 -33 65z"/>
<path d="M4434 2635 c-16 -12 -17 -16 -5 -24 8 -5 14 -27 15 -52 1 -24 6 -44 14 -47 9 -3 12 14 12 62 0 71 -7 83 -36 61z"/>
<path d="M2180 2621 c-31 -60 20 -134 59 -87 16 20 17 72 1 91 -17 21 -47 19 -60 -4z m50 -41 c0 -27 -15 -48 -26 -37 -10 10 -11 42 -2 60 12 24 28 12 28 -23z"/>
<path d="M3526 2621 c-20 -22 -21 -65 0 -85 21 -22 31 -20 50 9 31 48 -13 117 -50 76z m36 -42 c-2 -13 -8 -28 -12 -33 -11 -11 -25 39 -15 54 12 19 30 4 27 -21z"/>
<path d="M3753 2633 c-18 -7 -16 -23 3 -23 9 0 14 -8 13 -17 -4 -43 2 -84 11 -78 6 3 10 33 10 66 0 59 -5 66 -37 52z"/>
<path d="M380 2611 c-20 -38 -6 -81 27 -81 21 0 34 46 21 75 -13 30 -33 32 -48 6z m31 -48 c-9 -17 -10 -17 -16 0 -4 9 -4 25 0 35 6 16 7 16 16 0 7 -12 7 -24 0 -35z"/>
<path d="M1971 2621 c-10 -6 -10 -10 -1 -16 6 -4 10 -20 8 -36 -1 -16 2 -30 7 -31 12 -4 20 71 8 83 -4 4 -14 4 -22 0z"/>
<path d="M2390 2614 c0 -8 5 -12 10 -9 6 4 10 -12 10 -40 0 -28 4 -44 10 -40 6 3 10 28 10 56 0 42 -3 49 -20 49 -11 0 -20 -7 -20 -16z"/>
<path d="M4213 2623 c-19 -7 -17 -82 2 -89 36 -14 62 55 33 84 -13 13 -16 13 -35 5z m27 -49 c0 -24 -14 -32 -25 -14 -9 14 4 52 16 45 5 -4 9 -17 9 -31z"/>
<path d="M4662 2618 c-31 -31 0 -105 33 -78 25 21 14 90 -15 90 -3 0 -11 -5 -18 -12z m28 -43 c0 -14 -4 -25 -10 -25 -5 0 -10 11 -10 25 0 14 5 25 10 25 6 0 10 -11 10 -25z"/>
<path d="M5127 2623 c-7 -14 5 -93 14 -93 12 0 12 87 0 95 -5 3 -11 2 -14 -2z"/>
<path d="M5352 2622 c-37 -24 -12 -109 25 -86 22 13 29 60 12 80 -13 16 -19 17 -37 6z m28 -42 c0 -10 -4 -22 -10 -25 -6 -4 -10 7 -10 25 0 18 4 29 10 25 6 -3 10 -15 10 -25z"/>
<path d="M839 2616 c-11 -12 4 -76 17 -76 11 0 14 10 11 37 -4 34 -16 51 -28 39z"/>
<path d="M1055 2600 c-9 -30 4 -60 26 -60 24 0 33 21 25 55 -8 31 -42 34 -51 5z m35 -26 c0 -14 -4 -23 -10 -19 -5 3 -10 15 -10 26 0 10 5 19 10 19 6 0 10 -12 10 -26z"/>
<path d="M2629 2615 c-8 -8 3 -75 12 -75 5 0 9 18 9 40 0 36 -8 49 -21 35z"/>
<path d="M2850 2605 c-10 -12 -10 -21 -2 -40 14 -30 28 -32 42 -5 8 14 8 26 0 40 -13 24 -23 25 -40 5z m30 -30 c0 -8 -4 -15 -10 -15 -5 0 -10 7 -10 15 0 8 5 15 10 15 6 0 10 -7 10 -15z"/>
<path d="M3304 2604 c3 -9 6 -27 6 -40 0 -13 5 -24 10 -24 6 0 10 18 10 40 0 30 -4 40 -16 40 -11 0 -14 -5 -10 -16z"/>
<path d="M3988 2615 c-7 -8 4 -75 13 -75 12 0 12 67 0 74 -4 3 -10 3 -13 1z"/>
<path d="M160 2580 c0 -16 5 -30 10 -30 6 0 10 14 10 30 0 17 -4 30 -10 30 -5 0 -10 -13 -10 -30z"/>
<path d="M3451 2574 c0 -11 3 -14 6 -6 3 7 2 16 -1 19 -3 4 -6 -2 -5 -13z"/>
<path d="M140 2425 c-21 -55 -2 -99 40 -93 54 7 52 110 -3 116 -21 3 -29 -2 -37 -23z m50 -35 c0 -29 -4 -40 -15 -40 -11 0 -15 11 -15 40 0 29 4 40 15 40 11 0 15 -11 15 -40z"/>
<path d="M383 2443 c-7 -2 -13 -9 -13 -15 0 -6 7 -8 15 -4 12 4 15 -4 15 -44 0 -28 5 -50 10 -50 6 0 10 27 10 60 0 60 -5 67 -37 53z"/>
<path d="M832 2443 c-9 -3 -10 -9 -3 -17 5 -6 11 -29 13 -50 2 -22 9 -41 16 -44 9 -3 12 13 12 57 0 61 -5 68 -38 54z"/>
<path d="M2398 2439 c-23 -13 -24 -81 -2 -100 34 -28 73 36 50 82 -13 27 -25 32 -48 18z m30 -46 c-3 -42 -21 -51 -26 -15 -4 29 4 52 18 52 7 0 10 -15 8 -37z"/>
<path d="M3971 2436 c-17 -21 -10 -87 12 -100 27 -17 51 5 55 48 4 41 -11 66 -38 66 -10 0 -23 -6 -29 -14z m44 -46 c0 -38 -20 -52 -30 -21 -8 27 3 63 18 58 7 -2 12 -19 12 -37z"/>
<path d="M4420 2431 c-31 -59 16 -131 58 -89 13 13 16 66 6 92 -9 22 -51 20 -64 -3z m48 -38 c-3 -41 -23 -55 -33 -24 -9 28 3 61 21 61 11 0 14 -9 12 -37z"/>
<path d="M5117 2432 c-22 -24 -22 -54 1 -82 34 -42 76 10 56 69 -12 32 -35 38 -57 13z m38 -22 c7 -23 -2 -60 -15 -60 -13 0 -22 37 -15 60 3 11 10 20 15 20 5 0 12 -9 15 -20z"/>
<path d="M605 2430 c-3 -5 -1 -10 4 -10 6 0 11 -18 11 -40 0 -22 5 -40 10 -40 6 0 10 23 10 50 0 37 -4 50 -14 50 -8 0 -18 -4 -21 -10z"/>
<path d="M2608 2415 c-22 -49 25 -98 60 -63 13 13 16 47 6 72 -10 26 -53 20 -66 -9z m49 -39 c-4 -9 -11 -16 -17 -16 -11 0 -14 53 -3 64 11 10 27 -30 20 -48z"/>
<path d="M3532 2428 c-14 -14 -15 -57 -2 -78 7 -12 13 -12 27 -4 22 13 29 60 12 80 -14 17 -21 18 -37 2z m28 -38 c0 -16 -4 -30 -9 -30 -13 0 -21 27 -15 45 10 25 24 17 24 -15z"/>
<path d="M1514 2416 c-11 -28 0 -61 21 -61 16 0 20 7 20 35 0 25 -5 36 -18 38 -9 2 -20 -3 -23 -12z m23 -38 c-3 -7 -5 -2 -5 12 0 14 2 19 5 13 2 -7 2 -19 0 -25z"/>
<path d="M1962 2418 c-16 -16 -15 -44 3 -62 30 -30 66 15 44 56 -11 21 -30 23 -47 6z m38 -28 c0 -24 -16 -34 -24 -15 -7 19 3 47 15 39 5 -3 9 -14 9 -24z"/>
<path d="M2197 2393 c9 -58 23 -64 23 -10 0 34 -4 47 -14 47 -11 0 -13 -9 -9 -37z"/>
<path d="M2857 2393 c9 -58 23 -64 23 -10 0 34 -4 47 -14 47 -11 0 -13 -9 -9 -37z"/>
<path d="M3759 2423 c-3 -21 4 -59 12 -67 5 -6 9 6 9 32 0 23 -4 42 -10 42 -5 0 -10 -3 -11 -7z"/>
<path d="M5345 2420 c-3 -5 -1 -10 5 -10 6 0 10 -6 9 -12 -3 -27 1 -48 11 -48 6 0 10 18 10 40 0 28 -4 40 -14 40 -8 0 -18 -4 -21 -10z"/>
<path d="M1064 2405 c-9 -21 3 -45 21 -45 10 0 15 10 15 30 0 32 -26 43 -36 15z m26 -15 c0 -5 -4 -10 -10 -10 -5 0 -10 5 -10 10 0 6 5 10 10 10 6 0 10 -4 10 -10z"/>
<path d="M3308 2390 c2 -16 8 -30 13 -30 5 0 9 14 9 30 0 18 -5 30 -13 30 -9 0 -12 -10 -9 -30z"/>
<path d="M4207 2413 c-11 -10 -8 -38 4 -50 18 -18 39 -3 39 28 0 21 -5 29 -18 29 -10 0 -22 -3 -25 -7z m25 -35 c-9 -9 -12 -7 -12 12 0 19 3 21 12 12 9 -9 9 -15 0 -24z"/>
<path d="M1512 2268 c-17 -17 -15 -28 4 -28 13 0 15 -10 12 -55 -2 -44 0 -55 12 -55 12 0 15 13 14 63 -1 34 -2 68 -3 75 -1 15 -23 16 -39 0z"/>
<path d="M2617 2267 c-26 -18 -33 -81 -13 -112 20 -30 61 -33 76 -6 17 32 12 96 -8 114 -22 20 -33 21 -55 4z m47 -42 c9 -37 -3 -77 -23 -73 -16 3 -27 57 -17 84 9 23 33 16 40 -11z"/>
<path d="M4887 2262 c-20 -22 -23 -102 -5 -120 16 -16 40 -15 62 1 24 17 24 91 1 117 -22 25 -37 25 -58 2z m49 -37 c13 -52 -23 -104 -40 -59 -8 21 -8 69 1 77 14 15 33 6 39 -18z"/>
<path d="M5113 2258 c-27 -34 -22 -99 10 -119 37 -25 79 49 55 98 -14 31 -49 42 -65 21z m47 -60 c0 -32 -3 -39 -17 -36 -20 4 -27 29 -19 63 10 40 36 20 36 -27z"/>
<path d="M370 2234 c-14 -36 -13 -49 8 -74 16 -19 22 -21 40 -11 17 9 22 21 22 49 0 62 -51 88 -70 36z m45 -34 c0 -37 -20 -52 -28 -20 -7 27 3 62 17 57 6 -2 11 -19 11 -37z"/>
<path d="M602 2248 c-17 -17 -15 -83 3 -98 21 -17 54 -3 61 27 14 55 -30 105 -64 71z m46 -39 c3 -29 -12 -54 -27 -45 -12 8 -15 59 -4 70 12 12 28 0 31 -25z"/>
<path d="M3291 2246 c-17 -21 -10 -87 12 -100 37 -24 68 29 53 90 -7 28 -46 33 -65 10z m44 -46 c0 -38 -20 -52 -30 -21 -8 27 3 63 18 58 7 -2 12 -19 12 -37z"/>
<path d="M3761 2250 c-11 -6 -12 -12 -3 -22 6 -7 9 -26 8 -41 -2 -15 0 -30 4 -32 12 -7 18 29 11 68 -5 28 -9 34 -20 27z"/>
<path d="M3980 2249 c-11 -8 -12 -12 -2 -16 7 -2 12 -22 12 -44 0 -26 5 -39 13 -39 10 0 13 14 11 48 -3 71 -4 72 -34 51z"/>
<path d="M5335 2250 c-12 -20 -9 -78 5 -95 34 -41 84 15 64 73 -10 29 -56 44 -69 22z m45 -51 c0 -28 -4 -39 -12 -37 -24 8 -22 78 2 78 5 0 10 -18 10 -41z"/>
<path d="M152 2238 c-23 -23 -4 -88 27 -88 25 0 39 47 25 84 -7 19 -35 21 -52 4z m38 -38 c0 -22 -17 -35 -23 -18 -6 19 4 49 14 42 5 -3 9 -14 9 -24z"/>
<path d="M1067 2243 c-7 -13 5 -83 14 -83 12 0 12 77 0 85 -5 3 -12 2 -14 -2z"/>
<path d="M1960 2230 c-18 -33 -5 -70 25 -70 18 0 26 7 31 27 13 49 -34 84 -56 43z m40 -30 c0 -10 -5 -22 -10 -25 -13 -8 -24 20 -16 41 8 20 26 9 26 -16z"/>
<path d="M2186 2234 c-24 -62 29 -118 56 -59 8 19 8 31 0 50 -13 28 -47 34 -56 9z m38 -19 c7 -19 -3 -47 -15 -39 -12 7 -12 54 0 54 5 0 11 -7 15 -15z"/>
<path d="M4200 2225 c-16 -43 9 -82 42 -64 18 10 23 43 12 73 -10 25 -43 19 -54 -9z m40 -19 c0 -14 -4 -27 -9 -31 -12 -7 -25 31 -16 45 11 18 25 10 25 -14z"/>
<path d="M4432 2238 c-15 -15 -16 -60 -1 -75 6 -6 20 -8 30 -6 17 5 19 13 17 47 -3 43 -22 58 -46 34z m33 -18 c9 -14 -4 -52 -16 -45 -12 8 -12 55 0 55 6 0 13 -5 16 -10z"/>
<path d="M837 2234 c-13 -13 -7 -62 7 -67 20 -8 38 17 34 45 -3 22 -27 35 -41 22z m20 -46 c-3 -7 -5 -2 -5 12 0 14 2 19 5 13 2 -7 2 -19 0 -25z"/>
<path d="M2401 2226 c-18 -21 -9 -51 14 -51 24 0 32 36 12 53 -11 10 -17 9 -26 -2z m22 -31 c-7 -21 -13 -19 -13 6 0 11 4 18 10 14 5 -3 7 -12 3 -20z"/>
<path d="M2844 2214 c-9 -35 18 -63 40 -44 19 15 21 41 4 58 -19 19 -37 14 -44 -14z m36 -14 c0 -11 -4 -20 -10 -20 -5 0 -10 9 -10 20 0 11 5 20 10 20 6 0 10 -9 10 -20z"/>
<path d="M3537 2233 c-8 -13 4 -63 14 -57 5 3 7 17 5 31 -6 29 -12 38 -19 26z"/>
<path d="M1064 2065 c-18 -14 -18 -14 0 -15 14 0 17 -5 12 -25 -7 -29 2 -75 15 -75 11 0 12 117 0 124 -4 3 -17 -1 -27 -9z"/>
<path d="M4434 2065 c-15 -11 -16 -14 -4 -15 11 0 15 -12 15 -47 0 -28 5 -48 13 -50 9 -4 12 12 12 56 0 66 -7 78 -36 56z"/>
<path d="M382 2058 c-7 -7 -12 -29 -12 -50 0 -47 28 -68 54 -39 29 32 16 101 -19 101 -6 0 -16 -5 -23 -12z m33 -43 c0 -16 -6 -30 -12 -32 -9 -3 -13 7 -13 32 0 25 4 35 13 33 6 -3 12 -17 12 -33z"/>
<path d="M601 2051 c-23 -42 0 -109 33 -98 24 8 41 54 30 84 -12 35 -48 43 -63 14z m42 -22 c7 -26 -2 -51 -17 -46 -21 7 -19 67 3 67 5 0 11 -9 14 -21z"/>
<path d="M3296 2054 c-23 -23 -20 -70 6 -88 20 -14 24 -14 40 1 20 18 24 73 6 91 -16 16 -33 15 -52 -4z m39 -14 c9 -15 -5 -71 -16 -64 -12 7 -12 74 0 74 6 0 13 -5 16 -10z"/>
<path d="M3738 2045 c-22 -48 22 -114 56 -86 19 16 21 82 4 99 -20 20 -48 14 -60 -13z m50 -32 c-3 -40 -22 -55 -31 -23 -7 29 3 60 20 60 10 0 13 -10 11 -37z"/>
<path d="M3970 2051 c-16 -31 -12 -66 10 -86 19 -17 21 -17 40 0 22 20 27 74 8 93 -18 18 -46 14 -58 -7z m44 -17 c7 -19 -1 -54 -14 -54 -12 0 -19 26 -13 49 6 25 18 27 27 5z"/>
<path d="M167 2053 c-8 -15 -2 -73 8 -73 11 0 14 69 3 76 -3 2 -9 1 -11 -3z"/>
<path d="M824 2036 c-8 -33 -2 -57 18 -69 26 -17 50 9 46 52 -3 31 -7 36 -30 39 -22 3 -29 -2 -34 -22z m46 -21 c0 -27 -15 -41 -25 -25 -10 16 4 62 15 55 6 -3 10 -17 10 -30z"/>
<path d="M1504 2036 c-8 -34 -2 -57 19 -70 15 -9 21 -7 33 8 8 11 14 29 14 41 0 46 -55 63 -66 21z m41 -6 c9 -14 -4 -52 -16 -45 -12 8 -12 55 0 55 6 0 13 -5 16 -10z"/>
<path d="M2615 2050 c-3 -5 -2 -10 4 -10 5 0 11 -17 13 -37 4 -52 20 -43 22 12 1 36 -2 45 -16 45 -9 0 -20 -4 -23 -10z"/>
<path d="M2847 2053 c-11 -10 -8 -81 3 -88 17 -11 48 5 53 26 12 45 -29 90 -56 62z m36 -25 c2 -7 0 -21 -5 -32 -12 -23 -28 -4 -21 25 6 22 19 25 26 7z"/>
<path d="M3525 2050 c-3 -5 -1 -10 4 -10 6 0 11 -18 11 -40 0 -22 5 -40 10 -40 6 0 10 23 10 50 0 37 -4 50 -14 50 -8 0 -18 -4 -21 -10z"/>
<path d="M5344 2047 c-12 -32 0 -72 23 -75 43 -6 42 78 -1 86 -9 2 -19 -3 -22 -11z m36 -32 c0 -8 -4 -17 -10 -20 -6 -4 -10 5 -10 20 0 15 4 24 10 20 6 -3 10 -12 10 -20z"/>
<path d="M1972 2019 c3 -43 18 -47 18 -5 0 20 -5 36 -10 36 -6 0 -9 -14 -8 -31z"/>
<path d="M2198 2045 c-8 -8 3 -65 13 -65 5 0 9 16 9 35 0 32 -8 43 -22 30z"/>
<path d="M4204 2035 c-9 -23 5 -65 21 -65 20 0 35 32 28 58 -6 25 -41 30 -49 7z m36 -20 c0 -8 -4 -17 -10 -20 -6 -4 -10 5 -10 20 0 15 4 24 10 20 6 -3 10 -12 10 -20z"/>
<path d="M4895 2040 c-3 -5 -1 -10 5 -10 7 0 9 -8 5 -19 -3 -11 -1 -22 5 -26 6 -4 10 7 10 29 0 35 -12 47 -25 26z"/>
<path d="M5128 2045 c-8 -8 4 -65 13 -65 12 0 12 57 0 64 -4 3 -10 3 -13 1z"/>
<path d="M4432 1884 c-17 -11 -22 -25 -22 -58 0 -47 13 -66 46 -66 45 0 57 107 15 130 -13 6 -24 4 -39 -6z m38 -60 c0 -38 -3 -45 -17 -42 -32 6 -30 88 2 88 11 0 15 -11 15 -46z"/>
<path d="M1740 1879 c-11 -8 -12 -12 -2 -16 7 -3 12 -24 12 -54 0 -38 4 -49 15 -49 13 0 15 11 13 62 -3 63 -12 76 -38 57z"/>
<path d="M1956 1868 c-9 -12 -16 -32 -16 -43 0 -26 27 -65 45 -65 8 0 22 11 31 25 28 43 6 105 -36 105 -5 0 -16 -10 -24 -22z m54 -43 c0 -6 -6 -20 -14 -31 -15 -20 -15 -20 -29 26 -2 8 0 24 6 34 9 19 10 19 23 1 8 -10 14 -24 14 -30z"/>
<path d="M376 1871 c-4 -5 0 -13 7 -18 7 -4 13 -23 13 -42 -1 -20 5 -36 12 -39 10 -3 12 9 10 49 -2 41 -7 55 -20 57 -9 2 -19 -1 -22 -7z"/>
<path d="M832 1868 c-7 -7 -12 -29 -12 -49 0 -29 5 -39 20 -44 29 -9 50 12 50 49 0 32 -15 56 -35 56 -6 0 -16 -5 -23 -12z m38 -49 c0 -20 -4 -29 -12 -27 -15 5 -22 33 -14 54 9 24 26 6 26 -27z"/>
<path d="M1280 1860 c-25 -47 9 -110 44 -81 9 8 16 28 16 45 0 53 -39 75 -60 36z m40 -36 c0 -24 -4 -34 -12 -32 -24 8 -22 68 2 68 5 0 10 -16 10 -36z"/>
<path d="M2850 1865 c-9 -10 -9 -15 -1 -15 6 0 11 -15 11 -34 0 -19 5 -38 10 -41 6 -4 10 15 10 49 0 57 -8 68 -30 41z"/>
<path d="M5110 1850 c-17 -41 0 -83 32 -78 30 4 46 48 30 83 -16 35 -47 32 -62 -5z m44 -6 c7 -19 -1 -54 -14 -54 -12 0 -21 31 -15 51 8 23 21 24 29 3z"/>
<path d="M605 1860 c-3 -5 -1 -10 4 -10 6 0 11 -16 11 -35 0 -19 5 -35 10 -35 6 0 10 20 10 45 0 33 -4 45 -14 45 -8 0 -18 -4 -21 -10z"/>
<path d="M1518 1865 c-8 -9 7 -80 17 -80 14 0 13 77 -1 82 -5 2 -13 1 -16 -2z"/>
<path d="M3294 1846 c-10 -40 -1 -61 26 -61 27 0 43 38 28 68 -13 26 -46 21 -54 -7z m36 -21 c0 -14 -4 -25 -10 -25 -5 0 -10 11 -10 25 0 14 5 25 10 25 6 0 10 -11 10 -25z"/>
<path d="M3752 1858 c-17 -17 -15 -53 3 -68 31 -26 60 13 44 58 -9 24 -29 28 -47 10z m33 -33 c0 -10 -6 -20 -12 -22 -8 -3 -13 5 -13 22 0 17 5 25 13 23 6 -3 12 -13 12 -23z"/>
<path d="M4894 1856 c-10 -27 1 -71 18 -74 24 -5 40 31 28 62 -10 28 -37 35 -46 12z m32 -42 c-5 -13 -10 -14 -18 -6 -6 6 -8 18 -4 28 5 13 10 14 18 6 6 -6 8 -18 4 -28z"/>
<path d="M154 1835 c-8 -31 7 -50 31 -41 22 8 16 60 -7 64 -12 2 -19 -5 -24 -23z m23 -17 c-3 -8 -6 -5 -6 6 -1 11 2 17 5 13 3 -3 4 -12 1 -19z"/>
<path d="M1064 1844 c3 -9 6 -24 6 -35 0 -10 5 -19 10 -19 6 0 10 16 10 35 0 25 -4 35 -16 35 -11 0 -14 -5 -10 -16z"/>
<path d="M2203 1853 c-15 -5 -17 -32 -4 -52 8 -12 12 -12 25 -2 9 8 16 17 16 20 0 15 -26 38 -37 34z m14 -35 c-3 -8 -6 -5 -6 6 -1 11 2 17 5 13 3 -3 4 -12 1 -19z"/>
<path d="M2616 1842 c-10 -30 4 -53 28 -50 31 4 30 62 -1 66 -14 2 -23 -3 -27 -16z m34 -17 c0 -8 -4 -15 -8 -15 -5 0 -9 7 -9 15 0 8 4 15 9 15 4 0 8 -7 8 -15z"/>
<path d="M3533 1846 c4 -10 7 -27 7 -37 0 -11 4 -18 9 -14 14 8 6 58 -9 63 -9 3 -11 -1 -7 -12z"/>
<path d="M4213 1846 c4 -10 7 -26 7 -37 0 -10 4 -19 10 -19 14 0 5 63 -10 68 -9 3 -11 -1 -7 -12z"/>
<path d="M4433 1703 c-7 -2 -13 -11 -13 -19 0 -7 6 -11 14 -8 11 4 14 -7 12 -52 -1 -38 3 -59 12 -61 9 -4 12 15 12 71 0 76 -4 83 -37 69z"/>
<path d="M4887 1692 c-34 -38 -13 -132 30 -132 22 0 43 38 43 78 0 63 -39 92 -73 54z m53 -51 c0 -35 -15 -55 -34 -48 -19 8 -22 67 -4 85 17 17 38 -4 38 -37z"/>
<path d="M610 1689 c-11 -8 -12 -12 -2 -16 7 -3 12 -23 12 -48 0 -24 5 -47 10 -50 6 -4 10 18 10 59 0 67 -4 74 -30 55z"/>
<path d="M833 1693 c-18 -7 -16 -23 2 -23 8 0 14 -3 14 -7 -1 -5 -1 -27 0 -50 2 -70 21 -49 21 22 0 65 -4 72 -37 58z"/>
<path d="M1506 1684 c-32 -32 -9 -114 32 -114 17 0 42 42 42 72 0 28 -23 58 -45 58 -7 0 -21 -7 -29 -16z m42 -44 c5 -43 -14 -62 -27 -28 -11 30 -3 70 13 65 6 -2 12 -18 14 -37z"/>
<path d="M2193 1693 c-17 -6 -17 -23 0 -23 10 0 13 -14 13 -47 -1 -29 4 -48 12 -50 9 -4 12 13 12 61 0 66 -4 73 -37 59z"/>
<path d="M4199 1684 c-16 -19 -15 -79 1 -99 41 -49 92 35 60 96 -13 23 -43 25 -61 3z m49 -40 c3 -34 -11 -60 -27 -50 -12 8 -15 68 -4 80 13 13 28 -1 31 -30z"/>
<path d="M145 1680 c-3 -5 1 -10 9 -10 12 0 16 -11 16 -45 0 -25 5 -45 10 -45 6 0 10 25 10 55 0 48 -3 55 -19 55 -11 0 -23 -4 -26 -10z"/>
<path d="M387 1678 c-25 -13 -23 -74 3 -88 16 -8 22 -6 35 14 17 26 12 71 -9 79 -7 3 -20 1 -29 -5z m29 -54 c-3 -8 -10 -14 -16 -14 -11 0 -14 43 -3 54 10 10 26 -23 19 -40z"/>
<path d="M1048 1665 c-23 -51 20 -106 57 -75 18 15 20 71 3 88 -20 20 -48 14 -60 -13z m50 -27 c-3 -35 -22 -48 -32 -22 -9 24 2 54 20 54 11 0 14 -9 12 -32z"/>
<path d="M1730 1671 c-15 -29 -12 -56 8 -81 l19 -23 21 21 c24 24 29 71 10 90 -18 18 -46 14 -58 -7z m45 -37 c0 -19 -5 -29 -15 -29 -16 0 -25 28 -16 51 10 25 31 10 31 -22z"/>
<path d="M1279 1659 c-15 -28 3 -69 30 -69 23 0 35 31 27 66 -8 30 -41 32 -57 3z m41 -24 c0 -26 -14 -33 -25 -15 -9 14 1 40 15 40 5 0 10 -11 10 -25z"/>
<path d="M2852 1668 c-30 -30 1 -94 33 -68 25 20 13 80 -15 80 -3 0 -11 -5 -18 -12z m28 -27 c0 -11 -4 -23 -10 -26 -6 -4 -10 5 -10 19 0 14 5 26 10 26 6 0 10 -9 10 -19z"/>
<path d="M3304 1664 c3 -9 6 -29 6 -45 0 -16 5 -29 10 -29 6 0 10 20 10 45 0 35 -4 45 -16 45 -11 0 -14 -5 -10 -16z"/>
<path d="M3527 1674 c-12 -12 -8 -71 6 -83 10 -8 18 -7 31 2 25 19 18 81 -9 85 -12 2 -24 0 -28 -4z m33 -40 c0 -24 -14 -32 -25 -14 -9 14 4 52 16 45 5 -4 9 -17 9 -31z"/>
<path d="M4655 1670 c-3 -5 -1 -10 4 -10 6 0 11 -16 11 -35 0 -19 5 -35 10 -35 6 0 10 20 10 45 0 33 -4 45 -14 45 -8 0 -18 -4 -21 -10z"/>
<path d="M5129 1676 c-8 -9 3 -86 12 -86 5 0 9 20 9 45 0 40 -7 54 -21 41z"/>
<path d="M1975 1640 c3 -44 15 -49 15 -7 0 21 -4 37 -9 37 -5 0 -8 -14 -6 -30z"/>
<path d="M2630 1634 c0 -21 4 -33 10 -29 6 3 10 19 10 36 0 16 -4 29 -10 29 -5 0 -10 -16 -10 -36z"/>
<path d="M3082 1640 c1 -44 18 -48 18 -6 0 20 -4 36 -9 36 -5 0 -9 -14 -9 -30z"/>
<path d="M3754 1656 c-9 -24 0 -51 18 -54 19 -4 35 38 23 57 -9 16 -35 13 -41 -3z m26 -18 c0 -18 -2 -20 -9 -8 -6 8 -7 18 -5 22 9 14 14 9 14 -14z"/>
<path d="M1294 1504 c-13 -11 -15 -17 -6 -20 7 -4 12 -25 12 -55 0 -27 5 -49 10 -49 6 0 10 30 10 70 0 39 -1 70 -3 70 -2 0 -12 -7 -23 -16z"/>
<path d="M844 1500 c-37 -14 -41 -67 -9 -99 24 -24 49 -2 53 46 3 46 -12 65 -44 53z m24 -52 c-3 -34 -20 -42 -26 -13 -5 22 5 45 18 45 7 0 10 -14 8 -32z"/>
<path d="M1730 1490 c-27 -50 8 -119 48 -94 21 13 28 79 11 100 -17 20 -47 17 -59 -6z m48 -48 c-2 -14 -9 -27 -15 -30 -17 -5 -27 22 -19 54 6 22 9 24 22 13 8 -7 14 -24 12 -37z"/>
<path d="M1962 1498 c-33 -42 -19 -108 23 -108 29 0 48 36 40 77 -7 39 -42 56 -63 31z m38 -48 c0 -29 -4 -40 -15 -40 -10 0 -15 10 -15 33 0 19 3 37 7 40 15 16 23 5 23 -33z"/>
<path d="M2845 1499 c-4 -6 -3 -14 3 -18 6 -3 12 -26 14 -50 2 -25 9 -46 16 -49 10 -3 12 11 10 59 -2 50 -7 64 -20 67 -9 2 -19 -2 -23 -9z"/>
<path d="M605 1490 c-3 -5 -1 -10 4 -10 6 0 11 -20 11 -45 0 -25 5 -45 10 -45 6 0 10 25 10 55 0 41 -4 55 -14 55 -8 0 -18 -4 -21 -10z"/>
<path d="M1067 1493 c-7 -14 5 -93 14 -93 5 0 9 23 9 50 0 44 -11 65 -23 43z"/>
<path d="M2615 1490 c-15 -25 -13 -69 5 -85 24 -22 48 -13 56 20 10 42 -3 75 -31 75 -13 0 -27 -4 -30 -10z m40 -45 c0 -16 -6 -30 -12 -32 -9 -3 -13 7 -13 32 0 25 4 35 13 33 6 -3 12 -17 12 -33z"/>
<path d="M3080 1489 c-11 -8 -12 -12 -2 -16 6 -2 12 -20 12 -39 0 -20 4 -33 9 -30 6 4 5 86 -3 93 -1 1 -8 -3 -16 -8z"/>
<path d="M3763 1494 c-7 -3 -10 -18 -6 -42 9 -59 23 -62 23 -4 0 29 -1 52 -2 51 -2 0 -8 -3 -15 -5z"/>
<path d="M4199 1476 c-7 -14 -9 -36 -5 -51 5 -21 12 -26 34 -23 29 3 39 29 28 74 -8 32 -43 32 -57 0z m39 -28 c-3 -34 -20 -42 -26 -13 -5 22 5 45 18 45 7 0 10 -14 8 -32z"/>
<path d="M4431 1486 c-28 -34 11 -108 40 -79 17 17 15 73 -2 84 -19 12 -25 11 -38 -5z m35 -38 c-4 -31 -26 -35 -26 -5 0 13 3 27 6 30 12 12 24 -4 20 -25z"/>
<path d="M389 1485 c-8 -8 3 -75 12 -75 5 0 9 18 9 40 0 36 -8 49 -21 35z"/>
<path d="M2197 1484 c-4 -4 -7 -23 -7 -41 0 -30 3 -34 23 -31 18 2 22 9 22 38 0 33 -20 51 -38 34z m23 -36 c0 -18 -2 -20 -9 -8 -6 8 -7 18 -5 22 9 14 14 9 14 -14z"/>
<path d="M3297 1484 c-15 -15 -7 -63 12 -73 25 -14 44 8 39 46 -3 27 -34 44 -51 27z m33 -39 c0 -14 -4 -25 -10 -25 -5 0 -10 11 -10 25 0 14 5 25 10 25 6 0 10 -11 10 -25z"/>
<path d="M3533 1469 c4 -13 7 -32 7 -41 0 -10 5 -18 11 -18 15 0 6 73 -10 78 -10 4 -12 -1 -8 -19z"/>
<path d="M4654 1465 c-8 -34 1 -55 25 -55 22 0 35 30 26 60 -9 29 -43 26 -51 -5z m36 -14 c0 -11 -4 -23 -10 -26 -6 -4 -10 5 -10 19 0 14 5 26 10 26 6 0 10 -9 10 -19z"/>
<path d="M4897 1483 c-4 -3 -3 -11 2 -17 5 -6 11 -22 14 -36 3 -16 5 -10 6 18 1 39 -6 51 -22 35z"/>
<path d="M5120 1476 c-18 -23 -8 -61 17 -64 24 -4 38 25 28 58 -7 23 -28 26 -45 6z m30 -31 c0 -14 -4 -25 -10 -25 -5 0 -10 11 -10 25 0 14 5 25 10 25 6 0 10 -11 10 -25z"/>
<path d="M157 1465 c-9 -22 3 -46 22 -43 10 2 16 13 16 28 0 28 -29 40 -38 15z m20 -27 c-3 -8 -6 -5 -6 6 -1 11 2 17 5 13 3 -3 4 -12 1 -19z"/>
<path d="M1520 1450 c0 -16 5 -30 10 -30 6 0 10 14 10 30 0 17 -4 30 -10 30 -5 0 -10 -13 -10 -30z"/>
<path d="M1737 1318 c-42 -31 -24 -123 23 -123 49 0 65 101 20 125 -23 12 -23 13 -43 -2z m38 -59 c0 -32 -4 -44 -15 -44 -16 0 -26 54 -16 82 12 30 31 6 31 -38z"/>
<path d="M2830 1311 c-25 -48 0 -131 40 -131 26 0 50 38 50 78 0 49 -16 72 -50 72 -19 0 -33 -7 -40 -19z m58 -54 c3 -42 1 -47 -17 -47 -18 0 -21 6 -21 51 0 43 3 50 18 47 13 -2 18 -15 20 -51z"/>
<path d="M4191 1311 c-18 -33 -13 -96 9 -116 45 -41 96 30 73 102 -12 36 -66 46 -82 14z m54 -51 c0 -34 -4 -45 -17 -48 -21 -4 -33 35 -24 74 5 17 12 24 24 22 13 -3 17 -14 17 -48z"/>
<path d="M4892 1308 c-14 -14 -16 -76 -3 -96 13 -21 44 -10 59 21 23 48 -22 109 -56 75z m36 -54 c-5 -42 -28 -43 -28 -1 0 18 3 37 7 41 12 12 25 -11 21 -40z"/>
<path d="M5124 1305 c-11 -8 -14 -15 -6 -15 8 0 12 -16 12 -45 0 -25 5 -45 10 -45 6 0 10 27 10 60 0 33 -1 60 -3 60 -2 0 -12 -7 -23 -15z"/>
<path d="M377 1303 c-13 -12 -7 -81 8 -93 32 -27 65 20 51 75 -5 18 -13 25 -30 25 -12 0 -26 -3 -29 -7z m41 -56 c-2 -12 -7 -22 -13 -22 -12 0 -19 41 -10 63 6 16 7 16 16 -1 6 -10 9 -28 7 -40z"/>
<path d="M838 1299 c-20 -11 -23 -41 -8 -70 25 -46 74 7 52 56 -13 27 -19 29 -44 14z m32 -39 c0 -10 -5 -22 -10 -25 -13 -8 -24 20 -16 41 8 20 26 9 26 -16z"/>
<path d="M1285 1301 c-3 -5 -1 -12 5 -16 5 -3 10 -22 10 -41 0 -19 5 -34 10 -34 6 0 10 23 10 50 0 37 -4 50 -14 50 -8 0 -17 -4 -21 -9z"/>
<path d="M2190 1302 c0 -5 3 -12 8 -16 4 -4 8 -21 8 -37 2 -47 3 -51 14 -44 6 3 10 28 10 56 0 42 -3 49 -20 49 -11 0 -20 -4 -20 -8z"/>
<path d="M2621 1301 c-9 -6 -10 -11 -2 -15 6 -4 11 -23 11 -42 0 -19 5 -34 10 -34 6 0 10 23 10 50 0 51 -4 57 -29 41z"/>
<path d="M611 1286 c-19 -23 -10 -61 14 -61 16 0 20 7 20 34 0 38 -15 50 -34 27z m29 -32 c0 -8 -4 -14 -10 -14 -5 0 -10 9 -10 21 0 11 5 17 10 14 6 -3 10 -13 10 -21z"/>
<path d="M1967 1293 c-4 -3 -2 -12 4 -19 6 -8 9 -20 6 -29 -4 -8 -2 -17 3 -20 6 -4 10 11 10 34 0 38 -8 50 -23 34z"/>
<path d="M3074 1286 c-11 -28 0 -61 21 -61 16 0 20 7 20 35 0 25 -5 36 -18 38 -9 2 -20 -3 -23 -12z m28 -41 c-12 -22 -27 -2 -18 22 5 12 10 13 17 6 7 -7 8 -17 1 -28z"/>
<path d="M3297 1294 c-13 -13 -7 -61 8 -74 23 -19 47 6 43 44 -2 22 -9 32 -23 34 -12 2 -24 0 -28 -4z m33 -40 c0 -14 -4 -23 -10 -19 -5 3 -10 15 -10 26 0 10 5 19 10 19 6 0 10 -12 10 -26z"/>
<path d="M3754 1284 c3 -9 6 -27 6 -40 0 -13 5 -24 10 -24 6 0 10 18 10 40 0 30 -4 40 -16 40 -11 0 -14 -5 -10 -16z"/>
<path d="M4437 1263 c9 -58 23 -64 23 -10 0 34 -4 47 -14 47 -11 0 -13 -9 -9 -37z"/>
<path d="M4663 1286 c4 -10 7 -29 7 -42 0 -13 5 -24 11 -24 15 0 6 73 -10 78 -10 3 -12 0 -8 -12z"/>
<path d="M3534 1274 c3 -9 6 -23 6 -32 0 -10 3 -13 10 -6 11 11 2 54 -12 54 -6 0 -7 -7 -4 -16z"/>
<path d="M602 1118 c-17 -17 -15 -74 4 -92 21 -22 31 -20 50 9 33 51 -14 123 -54 83z m41 -21 c8 -21 -4 -68 -17 -64 -13 4 -20 42 -12 63 7 18 22 18 29 1z"/>
<path d="M2610 1111 c-22 -43 -2 -101 35 -101 31 0 48 83 23 108 -18 18 -46 14 -58 -7z m48 -45 c-2 -15 -7 -28 -13 -29 -12 -2 -19 38 -10 60 9 25 27 1 23 -31z"/>
<path d="M3072 1118 c-19 -19 -15 -86 6 -97 29 -16 52 5 52 47 0 38 -14 62 -35 62 -6 0 -16 -5 -23 -12z m36 -45 c-3 -42 -21 -51 -26 -15 -4 29 4 52 18 52 7 0 10 -15 8 -37z"/>
<path d="M4426 1108 c-21 -29 -20 -51 2 -78 34 -42 76 10 56 69 -12 34 -38 38 -58 9z m39 -38 c0 -36 -18 -51 -29 -25 -8 23 4 67 18 62 6 -2 11 -19 11 -37z"/>
<path d="M843 1113 c-8 -3 -9 -12 -4 -26 5 -12 7 -30 6 -39 -2 -10 3 -18 11 -18 10 0 14 12 14 39 0 41 -6 51 -27 44z"/>
<path d="M1278 1095 c-8 -19 -8 -31 0 -50 27 -59 80 -3 56 59 -9 25 -43 19 -56 -9z m42 -25 c0 -31 -16 -41 -26 -15 -8 19 2 45 16 45 5 0 10 -13 10 -30z"/>
<path d="M1747 1113 c-7 -14 5 -93 14 -93 5 0 9 23 9 50 0 44 -11 65 -23 43z"/>
<path d="M2187 1113 c-9 -8 -9 -56 -1 -77 9 -25 43 -19 56 9 8 19 8 31 0 50 -11 23 -40 33 -55 18z m41 -46 c2 -19 -1 -27 -12 -27 -11 0 -16 10 -16 31 0 38 24 35 28 -4z"/>
<path d="M2845 1111 c-3 -5 -1 -12 5 -16 5 -3 10 -22 10 -41 0 -19 5 -34 10 -34 6 0 10 23 10 50 0 37 -4 50 -14 50 -8 0 -17 -4 -21 -9z"/>
<path d="M3295 1110 c-3 -5 -1 -10 4 -10 6 0 11 -18 11 -41 0 -27 4 -39 12 -37 10 4 12 25 9 83 -1 17 -26 20 -36 5z"/>
<path d="M3752 1108 c-17 -17 -15 -53 3 -72 30 -30 58 3 45 54 -7 28 -29 37 -48 18z m36 -44 c-5 -28 -28 -29 -28 -1 0 13 3 27 7 31 10 10 25 -10 21 -30z"/>
<path d="M4200 1110 c0 -5 5 -10 10 -10 6 0 10 -18 10 -40 0 -22 5 -40 10 -40 6 0 10 23 10 50 0 43 -3 50 -20 50 -11 0 -20 -4 -20 -10z"/>
<path d="M4648 1096 c-8 -20 -8 -32 0 -51 22 -48 66 -21 60 37 -4 44 -42 53 -60 14z m42 -26 c0 -33 -15 -41 -22 -12 -6 21 1 42 13 42 5 0 9 -13 9 -30z"/>
<path d="M4890 1096 c-18 -48 14 -91 45 -60 18 18 19 38 5 65 -15 26 -39 24 -50 -5z m40 -26 c0 -25 -18 -36 -26 -16 -8 21 3 49 16 41 5 -3 10 -15 10 -25z"/>
<path d="M3988 1094 c-3 -5 -2 -20 2 -34 4 -18 8 -21 12 -10 6 17 -6 58 -14 44z"/>
<path d="M5124 1086 c-8 -22 3 -49 19 -43 6 2 12 14 12 27 0 27 -22 39 -31 16z m26 -16 c0 -5 -4 -10 -10 -10 -5 0 -10 5 -10 10 0 6 5 10 10 10 6 0 10 -4 10 -10z"/>
<path d="M1293 947 c-26 -11 -30 -27 -8 -27 11 0 15 -13 15 -54 0 -30 5 -58 10 -61 6 -4 10 14 11 47 0 29 2 63 3 76 3 28 -3 32 -31 19z"/>
<path d="M1733 938 c-19 -25 -23 -52 -13 -83 12 -36 40 -49 66 -31 21 16 24 87 5 110 -16 19 -45 21 -58 4z m42 -54 c0 -29 -4 -40 -17 -42 -15 -3 -18 4 -18 36 0 21 3 42 7 46 15 15 28 -3 28 -40z"/>
<path d="M4430 935 c-10 -12 -10 -15 1 -15 10 0 14 -14 14 -50 0 -74 20 -61 23 15 2 51 0 65 -11 65 -8 0 -20 -7 -27 -15z"/>
<path d="M5335 916 c-20 -47 -4 -96 31 -96 46 0 62 86 22 114 -32 22 -37 20 -53 -18z m49 -20 c7 -30 -2 -58 -18 -53 -18 6 -20 77 -3 77 8 0 18 -11 21 -24z"/>
<path d="M596 924 c-10 -26 -7 -79 6 -92 30 -30 68 -1 68 52 0 41 -10 56 -40 56 -16 0 -30 -7 -34 -16z m49 -45 c0 -24 -5 -34 -15 -34 -16 0 -25 37 -16 62 10 26 31 8 31 -28z"/>
<path d="M2196 927 c-23 -17 -18 -76 7 -91 38 -23 64 55 29 87 -15 14 -21 15 -36 4z m29 -47 c0 -13 -6 -25 -12 -27 -9 -3 -13 6 -13 27 0 21 4 30 13 28 6 -3 12 -15 12 -28z"/>
<path d="M2842 928 c-15 -15 -16 -63 -2 -89 24 -43 70 -12 70 48 0 32 -16 53 -40 53 -9 0 -21 -5 -28 -12z m43 -48 c0 -18 -5 -35 -12 -37 -14 -5 -28 40 -19 63 10 27 31 9 31 -26z"/>
<path d="M4656 924 c-22 -21 -20 -67 3 -88 18 -17 20 -17 40 3 30 30 16 100 -21 101 -4 0 -14 -7 -22 -16z m34 -39 c0 -34 -12 -46 -25 -24 -9 14 3 59 15 59 6 0 10 -16 10 -35z"/>
<path d="M3295 920 c-3 -5 -1 -10 4 -10 6 0 11 -15 11 -34 0 -19 5 -38 10 -41 6 -4 10 13 10 44 0 38 -4 51 -14 51 -8 0 -18 -4 -21 -10z"/>
<path d="M3750 920 c0 -5 5 -10 10 -10 6 0 10 -6 9 -12 -1 -7 -1 -26 0 -42 2 -45 14 -22 16 29 1 37 -2 45 -17 45 -10 0 -18 -4 -18 -10z"/>
<path d="M3982 918 c-19 -19 -15 -66 7 -77 24 -13 44 8 44 45 0 37 -29 54 -51 32z m28 -33 c0 -14 -4 -25 -10 -25 -5 0 -10 11 -10 25 0 14 5 25 10 25 6 0 10 -11 10 -25z"/>
<path d="M4896 921 c-4 -5 -2 -12 4 -16 5 -3 10 -23 10 -43 1 -30 3 -34 11 -19 20 34 -5 112 -25 78z"/>
<path d="M5127 924 c-7 -8 3 -77 14 -88 5 -6 9 12 9 42 0 47 -7 62 -23 46z"/>
<path d="M839 913 c-3 -21 4 -59 12 -67 5 -6 9 6 9 32 0 23 -4 42 -10 42 -5 0 -10 -3 -11 -7z"/>
<path d="M2628 915 c-8 -8 4 -65 13 -65 12 0 12 57 0 64 -4 3 -10 3 -13 1z"/>
<path d="M3074 905 c-9 -23 5 -65 21 -65 16 0 30 42 21 65 -3 8 -12 15 -21 15 -9 0 -18 -7 -21 -15z m23 -37 c-3 -7 -5 -2 -5 12 0 14 2 19 5 13 2 -7 2 -19 0 -25z"/>
<path d="M4205 900 c-9 -27 3 -60 21 -60 21 0 38 49 23 66 -16 20 -37 17 -44 -6z m35 -14 c0 -8 -4 -18 -10 -21 -5 -3 -10 3 -10 14 0 12 5 21 10 21 6 0 10 -6 10 -14z"/>
<path d="M3461 884 c0 -11 3 -14 6 -6 3 7 2 16 -1 19 -3 4 -6 -2 -5 -13z"/>
<path d="M4646 754 c-18 -18 -21 -85 -6 -115 16 -30 68 -26 80 7 31 81 -23 160 -74 108z m52 -54 c4 -47 -10 -72 -30 -52 -12 12 -13 75 -2 93 13 21 29 1 32 -41z"/>
<path d="M2843 748 c-27 -34 -19 -110 12 -122 26 -9 59 28 59 67 0 55 -44 89 -71 55z m42 -54 c0 -28 -4 -39 -15 -39 -16 0 -26 45 -16 72 11 28 31 7 31 -33z"/>
<path d="M3295 741 c-3 -5 -1 -12 5 -16 5 -3 10 -24 10 -46 0 -21 5 -39 10 -39 12 0 12 0 14 63 2 39 -1 47 -15 47 -10 0 -20 -4 -24 -9z"/>
<path d="M4890 730 c-25 -47 9 -110 44 -81 9 8 16 28 16 45 0 53 -39 75 -60 36z m40 -35 c0 -24 -5 -35 -15 -35 -15 0 -22 50 -8 63 15 15 23 5 23 -28z"/>
<path d="M152 728 c-6 -6 -12 -21 -12 -33 0 -47 55 -63 66 -18 11 44 -26 79 -54 51z m38 -38 c0 -29 -17 -33 -22 -5 -3 13 -3 27 0 29 9 10 22 -5 22 -24z"/>
<path d="M1280 715 c-12 -33 3 -65 30 -65 13 0 22 9 26 27 13 52 -38 86 -56 38z m40 -19 c0 -14 -4 -27 -9 -31 -12 -7 -25 31 -16 45 11 18 25 10 25 -14z"/>
<path d="M1735 730 c-3 -5 -1 -10 4 -10 6 0 11 -16 11 -35 0 -19 5 -35 10 -35 6 0 10 20 10 45 0 33 -4 45 -14 45 -8 0 -18 -4 -21 -10z"/>
<path d="M2622 728 c-13 -13 -15 -37 -6 -62 9 -24 43 -19 53 7 16 43 -18 84 -47 55z m28 -33 c0 -14 -4 -25 -10 -25 -11 0 -14 33 -3 43 11 11 13 8 13 -18z"/>
<path d="M3082 733 c-8 -3 -10 -9 -3 -16 5 -7 11 -25 14 -42 3 -22 4 -17 6 18 0 26 0 47 -1 46 -2 0 -9 -3 -16 -6z"/>
<path d="M3748 714 c-14 -30 -1 -59 27 -59 22 0 35 33 24 63 -11 30 -37 28 -51 -4z m37 -4 c9 -14 -4 -52 -16 -45 -12 8 -12 55 0 55 6 0 13 -5 16 -10z"/>
<path d="M3972 723 c-12 -23 -7 -52 12 -72 15 -14 17 -14 32 0 31 32 21 89 -16 89 -11 0 -23 -8 -28 -17z m38 -33 c0 -16 -4 -30 -10 -30 -5 0 -10 14 -10 30 0 17 5 30 10 30 6 0 10 -13 10 -30z"/>
<path d="M4205 730 c-3 -5 -1 -10 4 -10 6 0 11 -16 11 -35 0 -19 5 -35 10 -35 6 0 10 20 10 45 0 33 -4 45 -14 45 -8 0 -18 -4 -21 -10z"/>
<path d="M5353 733 c-19 -7 -16 -72 2 -79 35 -14 61 46 33 74 -13 13 -16 13 -35 5z m27 -38 c0 -8 -4 -17 -10 -20 -6 -4 -10 5 -10 20 0 15 4 24 10 20 6 -3 10 -12 10 -20z"/>
<path d="M838 695 c2 -20 9 -34 14 -33 5 2 9 7 9 11 -1 4 -1 18 -1 32 0 14 -6 25 -13 25 -9 0 -12 -11 -9 -35z"/>
<path d="M2190 711 c-14 -27 4 -64 28 -59 12 2 17 13 17 38 0 41 -27 53 -45 21z m30 -18 c0 -20 -3 -24 -11 -16 -7 7 -9 19 -6 27 10 24 17 19 17 -11z"/>
<path d="M5114 705 c-9 -36 17 -65 41 -45 23 19 15 64 -12 68 -17 3 -24 -3 -29 -23z m36 -10 c0 -14 -4 -25 -10 -25 -5 0 -10 11 -10 25 0 14 5 25 10 25 6 0 10 -11 10 -25z"/>
<path d="M163 563 c-15 -6 -17 -33 -3 -33 6 0 10 -21 10 -46 0 -27 4 -43 10 -39 12 7 14 112 3 118 -5 2 -14 2 -20 0z"/>
<path d="M1966 557 c-17 -12 -25 -75 -12 -95 13 -21 56 -14 65 11 20 53 -16 111 -53 84z m34 -52 c0 -24 -5 -35 -15 -35 -10 0 -15 11 -15 35 0 24 5 35 15 35 10 0 15 -11 15 -35z"/>
<path d="M3297 552 c-39 -43 -4 -127 42 -102 29 15 30 94 2 110 -25 13 -25 13 -44 -8z m38 -47 c0 -16 -5 -30 -11 -32 -13 -4 -28 43 -18 58 11 19 29 3 29 -26z"/>
<path d="M3750 555 c-10 -12 -10 -15 4 -15 13 0 16 -11 16 -50 0 -28 5 -50 10 -50 15 0 8 122 -6 127 -6 2 -17 -3 -24 -12z"/>
<path d="M1729 533 c-14 -38 2 -78 32 -78 17 0 26 8 33 27 21 60 -42 111 -65 51z m49 -22 c5 -29 -13 -50 -29 -34 -15 15 -3 66 14 60 7 -2 14 -14 15 -26z"/>
<path d="M2845 551 c-3 -5 -1 -12 5 -16 5 -3 10 -24 10 -46 0 -21 5 -39 10 -39 6 0 10 25 10 55 0 41 -4 55 -14 55 -8 0 -17 -4 -21 -9z"/>
<path d="M5350 549 c-12 -8 -12 -12 -2 -16 6 -2 12 -20 12 -39 0 -19 5 -34 10 -34 12 0 14 87 2 94 -4 2 -14 0 -22 -5z"/>
<path d="M830 531 c-13 -25 3 -71 24 -71 24 0 40 38 27 66 -13 29 -37 31 -51 5z m30 -28 c0 -21 -3 -24 -9 -14 -5 8 -7 20 -4 28 8 21 13 15 13 -14z"/>
<path d="M1286 541 c-4 -5 -2 -12 4 -16 5 -3 10 -20 10 -38 0 -22 3 -28 11 -20 13 13 8 75 -8 80 -6 2 -14 0 -17 -6z"/>
<path d="M2194 534 c3 -9 6 -29 6 -45 0 -16 5 -29 10 -29 6 0 10 20 10 45 0 35 -4 45 -16 45 -11 0 -14 -5 -10 -16z"/>
<path d="M2403 529 c4 -13 7 -34 7 -47 0 -13 4 -21 9 -18 14 9 8 79 -8 84 -10 3 -12 -1 -8 -19z"/>
<path d="M3987 539 c-23 -13 -22 -56 1 -68 23 -12 42 3 42 35 0 29 -20 45 -43 33z m23 -34 c0 -8 -4 -15 -10 -15 -5 0 -10 7 -10 15 0 8 5 15 10 15 6 0 10 -7 10 -15z"/>
<path d="M4204 526 c-8 -35 -1 -60 18 -64 25 -5 43 35 29 64 -14 31 -39 31 -47 0z m36 -27 c0 -10 -4 -19 -10 -19 -5 0 -10 12 -10 26 0 14 4 23 10 19 6 -3 10 -15 10 -26z"/>
<path d="M4655 540 c-3 -5 -1 -10 4 -10 6 0 11 -16 11 -35 0 -19 5 -35 10 -35 6 0 10 20 10 45 0 33 -4 45 -14 45 -8 0 -18 -4 -21 -10z"/>
<path d="M3082 510 c1 -44 18 -48 18 -6 0 20 -4 36 -9 36 -5 0 -9 -14 -9 -30z"/>
<path d="M4901 528 c1 -7 5 -24 9 -38 7 -22 8 -21 9 13 1 20 -3 37 -9 37 -5 0 -10 -6 -9 -12z"/>
<path d="M4654 369 c-4 -7 -2 -15 4 -17 7 -2 12 -24 12 -54 0 -35 4 -48 13 -45 8 2 12 24 12 63 0 47 -3 59 -17 62 -9 2 -20 -3 -24 -9z"/>
<path d="M369 343 c-20 -52 20 -103 56 -73 15 13 20 56 9 84 -10 27 -53 20 -65 -11z m49 -25 c-4 -46 -28 -49 -28 -4 0 26 4 36 16 36 11 0 14 -8 12 -32z"/>
<path d="M1970 359 c-12 -8 -12 -12 -2 -16 7 -2 12 -22 12 -44 0 -24 4 -38 10 -34 12 7 14 92 2 99 -4 2 -14 0 -22 -5z"/>
<path d="M2192 363 c-9 -3 -10 -9 -3 -17 6 -7 12 -26 14 -42 5 -48 22 -38 25 16 3 50 -2 57 -36 43z"/>
<path d="M2389 346 c-22 -48 13 -103 47 -75 8 6 14 26 14 43 0 55 -41 76 -61 32z m39 -28 c-3 -34 -20 -42 -26 -13 -5 22 5 45 18 45 7 0 10 -14 8 -32z"/>
<path d="M3300 359 c-11 -8 -12 -12 -2 -16 6 -2 12 -20 12 -38 0 -33 15 -56 22 -35 5 17 -3 100 -11 100 -3 0 -13 -5 -21 -11z"/>
<path d="M4896 354 c-20 -20 -20 -58 -1 -78 33 -33 69 21 46 70 -12 28 -24 30 -45 8z m32 -45 c-1 -13 -7 -23 -13 -22 -13 3 -18 30 -11 50 10 24 29 1 24 -28z"/>
<path d="M830 352 c0 -5 3 -12 8 -16 4 -4 7 -19 7 -34 0 -14 6 -27 13 -29 8 -3 12 9 12 41 0 39 -3 46 -20 46 -11 0 -20 -4 -20 -8z"/>
<path d="M1062 348 c-28 -28 -2 -88 33 -74 12 4 15 16 13 43 -3 40 -23 54 -46 31z m28 -33 c0 -14 -4 -25 -10 -25 -5 0 -10 11 -10 25 0 14 5 25 10 25 6 0 10 -11 10 -25z"/>
<path d="M1292 352 c-8 -2 -10 -8 -3 -15 5 -7 11 -23 13 -37 3 -22 4 -23 9 -5 8 28 -4 63 -19 57z"/>
<path d="M2844 336 c-7 -31 3 -66 20 -66 41 0 49 82 9 88 -17 3 -24 -3 -29 -22z m36 -21 c0 -14 -4 -25 -10 -25 -5 0 -10 11 -10 25 0 14 5 25 10 25 6 0 10 -11 10 -25z"/>
<path d="M3750 350 c0 -5 4 -10 8 -10 5 0 7 -16 6 -35 -2 -19 1 -35 6 -35 6 0 10 20 10 45 0 33 -4 45 -15 45 -8 0 -15 -4 -15 -10z"/>
<path d="M5347 353 c-14 -13 -7 -71 9 -77 22 -8 44 11 44 38 0 34 -34 59 -53 39z m24 -50 c-9 -16 -10 -14 -11 12 0 21 3 26 11 18 8 -8 8 -16 0 -30z"/>
<path d="M160 335 c-17 -21 6 -61 26 -44 18 15 18 45 0 52 -8 3 -20 0 -26 -8z m17 -27 c-3 -8 -6 -5 -6 6 -1 11 2 17 5 13 3 -3 4 -12 1 -19z"/>
<path d="M3988 344 c-3 -2 -3 -16 0 -29 5 -28 22 -24 22 5 0 19 -13 34 -22 24z"/>
<path d="M4208 339 c6 -7 12 -23 12 -36 0 -13 5 -23 11 -23 6 0 9 14 7 32 -2 24 -9 34 -23 36 -16 3 -18 1 -7 -9z"/>
<path d="M1748 314 c3 -15 8 -22 14 -16 9 9 1 42 -12 42 -4 0 -5 -12 -2 -26z"/>
<path d="M380 180 c-36 -36 -19 -120 25 -120 26 0 48 47 41 85 -9 47 -38 63 -66 35z m40 -36 c4 -10 3 -30 -1 -43 -8 -19 -12 -21 -24 -11 -16 13 -19 38 -9 65 8 20 25 15 34 -11z"/>
<path d="M3739 179 c-14 -27 -14 -86 0 -103 21 -25 50 -26 66 -3 17 25 20 80 5 108 -14 26 -56 25 -71 -2z m61 -48 c0 -35 -15 -55 -34 -48 -19 8 -22 67 -4 85 17 17 38 -4 38 -37z"/>
<path d="M1282 178 c-32 -41 -19 -108 21 -108 31 0 47 18 47 53 0 56 -40 88 -68 55z m43 -28 c9 -27 -3 -60 -21 -60 -9 0 -14 11 -14 33 0 48 23 66 35 27z"/>
<path d="M1742 168 c-14 -14 -15 -57 -2 -78 7 -12 13 -12 27 -4 22 13 29 60 12 80 -14 17 -21 18 -37 2z m28 -43 c0 -14 -4 -25 -10 -25 -5 0 -10 11 -10 25 0 14 5 25 10 25 6 0 10 -11 10 -25z"/>
<path d="M2844 156 c-10 -42 -1 -71 23 -74 39 -6 53 67 19 90 -20 14 -36 8 -42 -16z m36 -26 c0 -16 -4 -30 -9 -30 -13 0 -21 27 -15 45 10 25 24 17 24 -15z"/>
<path d="M3294 155 c-14 -21 -15 -31 -6 -50 26 -56 85 -10 63 48 -13 34 -36 35 -57 2z m36 -25 c0 -16 -4 -30 -10 -30 -5 0 -10 14 -10 30 0 17 5 30 10 30 6 0 10 -13 10 -30z"/>
<path d="M3982 168 c-15 -15 -16 -74 -2 -83 6 -3 19 -3 30 0 32 10 23 95 -10 95 -3 0 -11 -5 -18 -12z m28 -43 c0 -14 -4 -25 -10 -25 -5 0 -10 11 -10 25 0 14 5 25 10 25 6 0 10 -11 10 -25z"/>
<path d="M5338 155 c-16 -36 4 -78 35 -73 17 2 23 11 25 36 6 58 -38 85 -60 37z m42 -31 c0 -23 -14 -32 -24 -16 -8 13 5 52 15 46 5 -3 9 -16 9 -30z"/>
<path d="M162 130 c-1 -29 3 -40 14 -40 11 0 14 9 12 37 -4 51 -25 54 -26 3z"/>
<path d="M830 145 c-13 -33 -3 -55 25 -55 28 0 41 30 25 60 -15 27 -38 25 -50 -5z m27 -32 c-3 -10 -5 -4 -5 12 0 17 2 24 5 18 2 -7 2 -21 0 -30z"/>
<path d="M1064 154 c3 -9 6 -27 6 -40 0 -13 5 -24 10 -24 6 0 10 18 10 40 0 30 -4 40 -16 40 -11 0 -14 -5 -10 -16z"/>
<path d="M2198 165 c-7 -8 4 -75 13 -75 12 0 12 67 0 74 -4 3 -10 3 -13 1z"/>
<path d="M2394 156 c-3 -8 -4 -25 -2 -38 4 -31 44 -37 53 -9 12 40 -36 85 -51 47z m36 -25 c0 -23 -16 -36 -25 -21 -9 14 1 40 15 40 5 0 10 -9 10 -19z"/>
<path d="M4207 163 c-4 -3 -7 -19 -7 -35 0 -34 25 -47 48 -25 13 13 13 21 4 42 -11 24 -31 32 -45 18z m33 -32 c0 -11 -4 -23 -10 -26 -6 -4 -10 5 -10 19 0 14 5 26 10 26 6 0 10 -9 10 -19z"/>
<path d="M4668 165 c-7 -8 4 -75 13 -75 12 0 12 67 0 74 -4 3 -10 3 -13 1z"/>
<path d="M4896 145 c-7 -20 3 -45 19 -45 7 0 15 7 19 15 7 20 -3 45 -19 45 -7 0 -15 -7 -19 -15z m21 -27 c-3 -8 -6 -5 -6 6 -1 11 2 17 5 13 3 -3 4 -12 1 -19z"/>
</g>
</svg>