<?xml version="1.0" standalone="no"?><!DOCTYPE svg PUBLIC "-//W3C//DTD SVG 20010904//EN" "http://www.w3.org/TR/2001/REC-SVG-20010904/DTD/svg10.dtd"><svg xmlns="http://www.w3.org/2000/svg" version="1.0" width="7.4599mm" height="16mm" viewBox="0 0 231.253386 495.991172" preserveAspectRatio="xMidYMid meet">
<metadata>
Created by potrace 1.16, written by Peter Selinger 2001-2019
</metadata>
<g transform="translate(-161.363451,525.082359) scale(0.100000,-0.100000)" fill="#000000" stroke="none">
<path d="M3440 5243 c-92 -33 -209 -193 -290 -396 -40 -104 -95 -313 -120 -462 -23 -139 -50 -410 -50 -502 l0 -63 38 19 c92 47 284 111 336 111 5 0 -19 -18 -52 -40 -34 -22 -62 -45 -62 -51 0 -7 8 -6 23 3 25 17 97 43 142 53 28 6 29 6 12 -13 -9 -10 -17 -22 -17 -26 0 -21 183 36 294 91 37 19 70 32 73 29 11 -11 -89 -96 -148 -124 l-64 -31 50 -1 c73 -1 175 -25 235 -55 l53 -27 -6 189 c-19 572 -111 1044 -235 1208 -59 78 -143 113 -212 88z"/>
<path d="M1975 5202 c-79 -48 -135 -148 -204 -365 -126 -397 -185 -882 -145 -1184 l6 -42 47 23 c64 32 137 55 222 69 l74 13 -36 22 c-20 12 -53 25 -75 30 l-39 8 56 21 c69 27 156 43 228 43 l56 0 -31 16 c-42 21 -89 72 -102 112 l-11 33 42 -27 c71 -44 248 -123 247 -111 0 1 -9 31 -20 65 -11 35 -20 91 -20 125 l0 61 28 -38 c40 -54 164 -150 255 -197 43 -22 81 -39 83 -36 15 14 -48 405 -92 564 -80 300 -228 605 -358 742 -67 71 -148 91 -211 53z"/>
<path d="M2610 3646 c-238 -44 -481 -178 -628 -347 l-31 -35 72 14 c128 26 250 -10 338 -99 68 -70 112 -163 153 -325 51 -203 96 -311 162 -384 127 -140 259 -19 335 309 39 168 81 261 156 341 62 68 111 99 199 131 76 28 218 30 283 6 24 -10 46 -15 49 -13 9 9 -184 193 -241 230 -117 76 -246 130 -385 162 -95 21 -367 27 -462 10z"/>
<path d="M1962 3182 c-104 -37 -152 -96 -212 -259 -94 -260 -94 -521 2 -734 68 -151 72 -155 130 -170 32 -9 106 -14 183 -14 147 0 195 11 336 76 131 60 224 81 359 81 160 0 226 -15 485 -110 63 -24 84 -26 210 -26 159 -1 205 12 313 85 55 36 61 45 90 116 63 161 78 262 62 416 -13 125 -46 265 -87 363 -28 69 -29 69 -107 109 -78 40 -80 40 -190 40 -103 0 -116 -2 -171 -29 -128 -63 -208 -188 -246 -380 -50 -260 -137 -425 -253 -480 -68 -32 -157 -17 -231 40 -75 57 -166 232 -200 384 -40 180 -48 209 -84 285 -84 176 -240 260 -389 207z m8 -302 c29 15 141 12 193 -6 96 -33 191 -152 216 -272 15 -73 14 -122 -5 -202 l-17 -67 42 -62 c23 -33 38 -61 34 -61 -4 0 -36 10 -70 22 l-62 21 -33 -33 c-85 -84 -228 -110 -333 -59 -69 33 -131 98 -168 177 -30 62 -32 75 -32 172 1 124 22 191 84 261 l38 44 -4 85 -5 85 52 -57 c43 -48 55 -56 70 -48z m1771 -65 l-11 -64 34 -49 c42 -57 55 -89 67 -162 18 -108 -21 -226 -101 -309 -116 -120 -324 -136 -455 -35 -35 27 -49 32 -67 25 -13 -4 -40 -11 -62 -15 l-39 -7 22 28 c54 70 53 65 28 114 -18 37 -22 60 -22 144 0 87 3 107 27 157 34 73 98 137 173 174 51 24 72 29 140 29 55 0 95 -6 129 -19 l48 -19 47 47 c25 25 48 41 49 36 2 -6 -1 -40 -7 -75z"/>
<path d="M1955 2715 c-89 -31 -149 -145 -125 -236 25 -94 97 -149 195 -149 101 0 173 57 196 156 28 122 -74 245 -201 244 -14 -1 -43 -7 -65 -15z"/>
<path d="M3404 2671 c-102 -46 -148 -180 -96 -277 20 -38 90 -93 127 -100 129 -24 238 54 253 181 3 35 -1 57 -21 98 -51 103 -161 144 -263 98z"/>
<path d="M2621 2025 c-50 -9 -112 -32 -185 -69 -160 -79 -203 -91 -321 -91 -88 0 -107 3 -153 26 -28 14 -52 23 -52 20 0 -16 156 -184 226 -242 258 -217 517 -318 735 -289 102 14 238 58 333 108 159 83 376 276 485 431 l43 62 -53 -29 c-93 -51 -154 -67 -264 -67 -116 0 -174 13 -303 67 -177 74 -352 100 -491 73z m255 -99 c101 -47 155 -126 162 -237 5 -87 -22 -153 -90 -214 -182 -164 -488 -39 -488 201 0 109 81 222 187 260 63 22 170 18 229 -10z"/>
<path d="M2725 1800 c-77 -17 -115 -65 -115 -148 0 -47 4 -57 38 -94 35 -37 45 -42 93 -45 63 -5 107 17 139 69 64 105 -35 244 -155 218z"/>
<path d="M3651 1433 c-28 -32 -51 -62 -50 -68 0 -5 10 -23 23 -39 l24 -29 47 59 c56 71 70 101 54 120 -21 26 -47 14 -98 -43z"/>
<path d="M2101 1413 c-68 -34 -157 -186 -256 -438 -99 -250 -139 -400 -116 -434 20 -30 65 0 186 122 66 67 182 196 258 287 120 145 137 169 137 201 0 34 18 61 47 70 17 6 -15 75 -56 122 -65 74 -140 100 -200 70z"/>
<path d="M1907 1403 c-17 -16 -5 -65 22 -95 16 -18 31 -31 33 -28 2 3 16 24 31 47 l27 42 -29 20 c-28 21 -71 28 -84 14z"/>
<path d="M3363 1386 c-75 -36 -149 -146 -98 -146 24 0 65 -46 65 -73 0 -13 -11 -34 -25 -47 l-24 -23 21 -40 c29 -58 157 -261 249 -397 80 -119 157 -205 191 -216 78 -24 70 129 -27 556 -68 299 -129 399 -247 407 -41 3 -65 -2 -105 -21z"/>
<path d="M2745 1236 c-17 -7 -45 -30 -63 -50 -26 -30 -31 -41 -21 -52 7 -9 9 -26 4 -46 -13 -54 -9 -167 10 -273 25 -146 100 -435 124 -483 52 -102 91 -19 145 303 50 296 56 387 30 437 -14 27 -15 38 -5 65 15 40 -3 73 -54 97 -40 19 -129 20 -170 2z"/>
<path d="M3150 1199 c-144 -37 -192 -75 -156 -124 19 -26 71 -23 185 11 123 37 160 75 113 117 -23 21 -49 21 -142 -4z"/>
<path d="M2342 1188 c-20 -20 -14 -56 12 -73 13 -9 72 -28 131 -42 122 -30 158 -26 163 18 4 38 -25 57 -133 84 -108 28 -155 31 -173 13z"/>
</g>
</svg>