<?xml version="1.0" standalone="no"?>
<!DOCTYPE svg PUBLIC "-//W3C//DTD SVG 20010904//EN"
 "http://www.w3.org/TR/2001/REC-SVG-20010904/DTD/svg10.dtd">
<svg version="1.0" xmlns="http://www.w3.org/2000/svg"
 width="406.469097pt" height="649.446337pt" viewBox="0 0 406.469097 649.446337"
 preserveAspectRatio="xMidYMid meet">
<metadata>
Created by potrace 1.16, written by Peter Selinger 2001-2019
</metadata>
<g transform="translate(-21.165220,666.628266) scale(0.100000,-0.100000)"
fill="#000000" stroke="none">
<path d="M2010 6664 c-14 -2 -59 -9 -100 -15 -374 -54 -704 -218 -1004 -500
-335 -316 -541 -707 -632 -1199 -98 -530 -79 -1356 52 -2270 129 -898 368
-1549 737 -2010 91 -113 125 -147 210 -211 273 -205 605 -298 1016 -286 305 9
512 61 739 186 113 62 197 129 312 248 148 152 232 261 325 418 249 424 404
992 529 1945 72 548 95 949 76 1343 -25 512 -106 888 -268 1232 -114 241 -185
348 -336 504 -182 186 -337 297 -581 416 -341 167 -456 195 -815 200 -129 2
-246 2 -260 -1z m-660 -1326 c-11 -198 -23 -364 -26 -369 -6 -11 -411 -12
-417 -1 -8 12 32 162 70 266 77 210 172 365 308 501 l80 80 3 -58 c2 -32 -6
-220 -18 -419z m1805 454 c48 -30 145 -131 187 -196 52 -79 130 -241 162 -336
39 -114 76 -249 76 -276 l0 -24 -199 0 c-151 0 -201 3 -209 13 -13 15 -28 185
-42 465 -5 103 -13 229 -16 280 -4 52 -3 92 2 92 5 0 23 -8 39 -18z m295
-1190 c179 -62 260 -141 260 -253 0 -81 -42 -132 -140 -170 -49 -19 -70 -21
-190 -16 -150 5 -211 21 -297 81 -100 69 -133 205 -70 287 26 35 94 75 151 90
52 14 225 2 286 -19z m-2092 -7 c118 -35 178 -134 138 -229 -36 -86 -99 -126
-269 -170 -197 -51 -377 -43 -426 20 -43 55 -19 179 50 258 57 65 101 88 214
112 120 27 223 29 293 9z m-29 -617 c-25 -46 -102 -118 -145 -134 -83 -32
-179 -1 -260 83 -66 70 -68 69 91 37 110 -22 201 -18 260 10 63 31 68 31 54 4z
m2053 -37 c46 -1 152 20 205 40 26 10 26 8 -12 -32 -54 -56 -140 -110 -185
-116 -25 -4 -52 2 -83 15 -48 22 -147 106 -147 126 0 8 27 5 88 -10 48 -13
108 -23 134 -23z m-2136 -270 c23 -10 44 -23 47 -28 11 -17 32 -570 42 -1083
l6 -305 -60 65 c-109 117 -201 298 -292 574 -83 252 -121 421 -126 566 -5 154
6 185 77 212 66 25 250 24 306 -1z m2308 -6 c41 -15 51 -24 68 -63 38 -84 7
-301 -83 -581 -84 -265 -206 -544 -290 -666 -34 -50 -87 -101 -95 -92 -9 8 15
1287 25 1342 6 37 10 42 61 63 48 20 67 22 160 18 64 -2 124 -11 154 -21z
m-831 -2092 c86 -3 157 -10 157 -15 0 -25 -67 -102 -123 -141 -124 -87 -234
-116 -452 -118 -347 -3 -565 69 -678 222 -32 42 -32 46 -9 52 27 7 931 8 1105
0z m-644 -563 c134 -24 243 -26 314 -5 66 18 145 26 152 14 10 -15 -88 -78
-154 -99 -130 -41 -330 -16 -433 55 -50 34 -49 43 2 54 3 0 56 -8 119 -19z"/>
</g>
</svg>
