<?xml version="1.0" standalone="no"?>
<!DOCTYPE svg PUBLIC "-//W3C//DTD SVG 20010904//EN"
 "http://www.w3.org/TR/2001/REC-SVG-20010904/DTD/svg10.dtd">
<svg version="1.0" xmlns="http://www.w3.org/2000/svg"
 width="291.881669pt" height="251.894930pt" viewBox="0 0 291.881669 251.894930"
 preserveAspectRatio="xMidYMid meet">
<metadata>
Created by potrace 1.16, written by Peter Selinger 2001-2019
</metadata>
<g transform="translate(-81.111255,345.994441) scale(0.100000,-0.100000)"
fill="#000000" stroke="none">
<path d="M1105 3441 c-68 -31 -115 -96 -115 -157 0 -16 -6 -24 -17 -24 -43 -1
-103 -40 -134 -87 -27 -43 -30 -55 -27 -109 4 -69 34 -120 92 -155 40 -24 151
-27 184 -3 12 8 29 14 36 12 8 -2 87 -70 177 -153 l164 -150 -187 -5 c-172 -5
-189 -7 -208 -26 -11 -11 -23 -36 -26 -55 -5 -29 -1 -41 19 -65 l25 -29 188
-5 187 -5 14 -69 c18 -86 41 -147 86 -228 39 -69 131 -181 190 -229 20 -17 37
-36 36 -42 0 -11 -206 -201 -344 -320 -55 -46 -56 -47 -85 -32 -16 9 -49 18
-74 21 -150 21 -254 -136 -183 -276 18 -37 33 -50 84 -75 59 -28 64 -33 77
-80 16 -54 62 -107 109 -124 66 -25 164 -4 209 46 46 50 60 141 33 205 l-14
35 77 74 76 74 9 -50 c36 -216 106 -316 263 -375 208 -77 508 -36 632 88 53
53 88 129 109 241 l19 93 76 -71 77 -72 -15 -41 c-47 -135 37 -258 178 -258
86 0 153 56 178 148 6 25 18 45 28 48 95 28 152 95 152 179 -1 94 -50 163
-133 186 -47 12 -116 5 -143 -16 -11 -8 -24 -15 -31 -15 -7 0 -79 62 -160 137
-82 76 -172 159 -201 185 l-52 46 50 42 c65 54 163 177 199 249 33 66 60 145
76 221 l11 55 188 5 188 5 24 28 c31 36 31 78 0 114 l-24 28 -188 5 -187 5
168 155 168 156 41 -20 c163 -81 335 86 256 248 -24 50 -59 80 -115 99 -32 11
-39 20 -55 67 -29 85 -103 140 -188 140 -49 0 -130 -58 -159 -114 -20 -38 -20
-111 0 -158 l15 -36 -114 -103 c-62 -57 -117 -105 -121 -106 -5 -2 -16 9 -25
24 -34 58 -138 167 -199 210 -152 106 -262 143 -444 150 -185 7 -307 -22 -452
-108 -69 -41 -190 -154 -240 -223 -20 -28 -38 -53 -39 -55 -4 -5 -53 37 -153
131 l-84 78 11 39 c16 53 15 126 -2 160 -31 60 -115 111 -181 111 -11 0 -38
-9 -60 -19z m152 -52 c65 -40 83 -124 44 -200 l-22 -41 83 -77 c46 -41 107
-98 136 -126 l53 -50 -25 -55 c-14 -30 -31 -79 -39 -108 -7 -29 -16 -54 -19
-55 -4 -1 -79 66 -168 148 -89 83 -166 151 -170 153 -4 2 -24 -8 -44 -22 -20
-13 -50 -27 -66 -31 -72 -16 -153 48 -165 129 -13 82 60 166 145 166 28 0 30
2 30 40 0 50 19 89 60 124 41 34 116 36 167 5z m2193 -5 c41 -35 60 -74 60
-124 0 -38 1 -40 31 -40 49 0 106 -38 129 -85 24 -49 25 -74 6 -119 -36 -86
-147 -118 -219 -63 -19 15 -39 27 -44 27 -5 0 -83 -70 -173 -155 -91 -85 -167
-151 -171 -147 -3 4 -13 36 -23 72 -10 36 -26 84 -36 107 l-18 42 138 128
c138 126 139 128 121 148 -40 43 -44 113 -11 174 33 63 152 83 210 35z m-970
-119 c68 -21 162 -66 220 -105 97 -64 225 -212 256 -292 6 -17 -31 -18 -685
-18 -465 0 -691 3 -691 10 0 29 91 148 168 222 67 64 109 93 176 126 139 69
206 83 366 78 87 -3 154 -10 190 -21z m958 -711 c26 -18 28 -41 5 -66 -15 -17
-65 -18 -1171 -18 -1061 0 -1157 1 -1174 17 -22 20 -23 41 -1 65 15 17 65 18
1167 18 1026 0 1154 -2 1174 -16z m-408 -141 c0 -29 -36 -154 -58 -205 -91
-206 -277 -364 -508 -430 -114 -32 -289 -32 -394 1 -239 74 -420 234 -509 449
-27 65 -51 154 -51 187 0 13 103 15 760 15 717 0 760 -1 760 -17z m-1206 -615
c-36 -69 -56 -146 -61 -239 l-6 -96 -108 -98 -107 -99 21 -31 c33 -46 31 -130
-5 -177 -87 -114 -263 -47 -260 99 l1 43 -46 0 c-41 0 -50 5 -89 44 -39 39
-44 48 -44 90 0 26 7 60 15 76 43 82 153 104 224 44 l30 -25 218 200 c120 111
221 201 226 201 4 0 0 -14 -9 -32z m1086 -148 c63 -57 143 -131 177 -164 l62
-59 30 26 c96 81 241 15 241 -108 0 -83 -60 -145 -139 -145 l-41 0 0 -47 c0
-158 -198 -211 -271 -73 -25 46 -24 93 3 146 l21 44 -64 58 c-35 32 -82 75
-105 95 l-41 37 -6 93 c-3 63 -14 117 -31 167 -43 121 -43 119 5 74 24 -22 96
-87 159 -144z m-956 125 l68 -29 -6 -70 c-4 -38 -8 -72 -11 -74 -15 -15 -175
70 -175 94 0 22 41 115 49 112 4 -2 38 -16 75 -33z m735 -14 c11 -27 21 -56
21 -64 0 -26 -159 -111 -175 -95 -3 2 -7 35 -11 74 l-6 69 68 32 c38 17 72 32
75 32 4 1 16 -21 28 -48z m-491 -47 l52 -7 0 -68 0 -69 -32 0 c-18 0 -64 3
-102 7 l-68 6 6 65 c4 36 10 70 13 75 3 5 22 6 42 3 20 -3 60 -9 89 -12z m275
9 c3 -5 8 -38 11 -74 l7 -66 -100 -9 -101 -9 0 71 0 71 68 10 c90 13 110 14
115 6z m-615 -107 c20 -13 61 -32 90 -42 58 -21 60 -26 46 -128 -8 -54 -15
-56 -83 -22 -82 42 -111 72 -111 116 0 40 10 100 16 100 3 0 21 -11 42 -24z
m876 -7 c19 -97 6 -122 -95 -178 -76 -42 -85 -41 -93 15 -14 105 -13 107 59
132 36 13 75 32 88 43 30 25 34 24 41 -12z m-228 -150 c8 -90 14 -85 -120 -95
l-96 -7 0 87 0 86 58 1 c31 0 75 4 97 8 22 4 43 5 47 2 4 -3 10 -40 14 -82z
m-310 71 l54 0 0 -86 0 -87 -95 7 c-133 9 -129 6 -122 88 3 37 9 73 13 79 4 7
23 9 52 5 25 -3 69 -6 98 -6z m-144 -195 c47 -9 133 -15 218 -15 180 0 269 17
383 74 101 50 97 55 73 -81 -42 -233 -168 -323 -457 -323 -237 0 -343 50 -419
199 -21 43 -49 166 -50 222 l0 27 88 -44 c52 -26 118 -50 164 -59z"/>
<path d="M1856 3073 c-25 -21 -64 -62 -86 -92 -32 -43 -38 -56 -29 -68 7 -7
18 -13 24 -11 25 6 177 178 171 193 -9 24 -30 18 -80 -22z"/>
<path d="M2700 3055 c-13 -16 -18 -8 70 -118 44 -56 75 -71 86 -42 8 19 -19
60 -79 124 -53 55 -59 58 -77 36z"/>
<path d="M1933 3007 c-57 -60 -77 -92 -69 -113 10 -26 33 -14 78 39 69 81 79
99 66 114 -16 20 -21 17 -75 -40z"/>
<path d="M2554 3015 c-4 -8 1 -25 10 -38 9 -12 26 -37 39 -54 42 -62 97 -52
63 11 -41 76 -98 117 -112 81z"/>
<path d="M2037 2960 c-40 -43 -47 -74 -21 -84 22 -9 96 71 92 99 -5 34 -33 28
-71 -15z"/>
<path d="M2542 2385 c-99 -31 -152 -103 -152 -205 0 -78 17 -117 70 -163 136
-116 351 -21 352 157 1 103 -58 182 -158 212 -56 17 -57 17 -112 -1z"/>
<path d="M1885 2373 c-79 -41 -119 -108 -118 -199 1 -72 18 -110 74 -157 106
-92 269 -58 328 68 22 48 28 126 12 168 -16 40 -73 99 -116 118 -50 23 -139
24 -180 2z"/>
<path d="M2230 1943 c-81 -32 -54 -103 40 -103 76 0 114 45 71 84 -20 19 -85
30 -111 19z"/>
</g>
</svg>
