<?xml version="1.0" standalone="no"?><!DOCTYPE svg PUBLIC "-//W3C//DTD SVG 20010904//EN" "http://www.w3.org/TR/2001/REC-SVG-20010904/DTD/svg10.dtd"><svg xmlns="http://www.w3.org/2000/svg" version="1.0" width="10.7117mm" height="16mm" viewBox="0 0 327.831487 489.677747" preserveAspectRatio="xMidYMid meet">
<metadata>
Created by potrace 1.16, written by Peter Selinger 2001-2019
</metadata>
<g transform="translate(-12.795341,536.249076) scale(0.100000,-0.100000)" fill="#000000" stroke="none">
<path d="M275 5360 l-120 -5 -2 -780 c-1 -429 -4 -818 -7 -865 -4 -69 -9 -831 -18 -2735 0 -88 3 -235 7 -327 l7 -166 87 -8 c47 -4 180 -8 296 -8 116 1 689 2 1275 4 586 1 1182 1 1325 -1 l260 -3 1 1209 c1 666 6 1595 12 2065 12 906 11 1595 -2 1607 -4 5 -447 8 -984 9 -538 0 -1211 3 -1497 5 -286 2 -574 2 -640 -1z m634 -32 c1 -5 9 -1 17 9 13 17 13 17 14 -2 1 -18 2 -18 13 -4 10 13 35 16 137 17 71 0 130 -4 137 -10 7 -5 16 -7 22 -4 5 4 12 -4 14 -16 l4 -23 8 23 c6 18 10 20 21 11 9 -7 14 -7 14 -1 0 6 189 9 555 8 514 -1 555 -2 555 -18 0 -9 5 -20 10 -23 6 -4 10 5 10 20 0 31 20 24 21 -8 1 -21 1 -21 8 2 7 26 31 41 31 20 0 -10 3 -10 12 -1 7 7 43 12 90 12 72 0 79 -2 88 -22 9 -23 9 -23 10 2 0 20 2 22 11 10 8 -11 12 -12 16 -2 3 9 46 12 164 12 l159 0 2 -42 1 -43 4 43 c5 47 22 58 24 15 l2 -28 4 28 c4 28 23 38 23 12 0 -8 5 -15 10 -15 6 0 10 6 10 14 0 10 24 14 113 14 61 1 119 -3 127 -8 13 -8 15 -53 17 -297 1 -208 -2 -290 -10 -295 -9 -6 -8 -11 3 -18 13 -9 13 -11 0 -21 -11 -8 -12 -12 -2 -16 17 -7 15 -23 -3 -23 -8 0 -15 -4 -15 -10 0 -5 7 -10 15 -10 13 0 15 -29 15 -199 0 -141 -3 -200 -11 -203 -9 -3 -9 -10 0 -26 10 -18 9 -23 -3 -28 -14 -5 -14 -8 1 -22 15 -15 14 -17 -8 -23 -21 -5 -22 -7 -6 -14 24 -10 21 -23 -5 -28 l-23 -4 23 -8 c22 -7 22 -11 24 -179 4 -291 4 -286 -9 -286 -7 0 -13 -4 -13 -10 0 -5 6 -10 13 -10 8 0 7 -4 -3 -10 -13 -9 -13 -12 3 -21 26 -15 21 -27 -15 -31 -29 -4 -30 -5 -13 -13 46 -20 56 -54 17 -56 -12 0 -11 -3 6 -9 17 -7 21 -15 18 -32 -3 -13 -8 -80 -12 -150 -5 -109 -8 -128 -23 -129 -14 -1 -14 -2 2 -6 24 -6 22 -43 -3 -43 -11 0 -20 -4 -20 -10 0 -5 9 -10 20 -10 21 0 28 -19 8 -21 -10 0 -10 -2 0 -6 7 -2 12 -22 12 -44 0 -30 -4 -39 -17 -40 -14 -1 -15 -2 -2 -6 13 -3 15 -43 17 -308 l2 -305 -31 0 c-37 0 -29 -19 9 -21 l27 -1 -30 -8 -30 -8 28 -1 27 -1 0 -199 c0 -150 -3 -201 -12 -204 -9 -4 -9 -8 -3 -14 15 -12 15 -43 -1 -43 -20 0 -17 -20 4 -21 11 -1 9 -4 -8 -9 -15 -5 -19 -8 -8 -9 9 -1 19 -9 21 -18 3 -10 5 -179 6 -376 1 -310 -1 -357 -14 -357 -8 0 -15 -4 -15 -10 0 -5 7 -10 16 -10 14 0 15 -31 13 -275 l-3 -275 -148 0 c-125 0 -148 2 -148 15 0 20 -17 19 -29 -2 -8 -14 -12 -15 -25 -4 -11 9 -16 10 -16 2 0 -14 -176 -15 -185 -1 -4 6 -11 8 -16 5 -5 -4 -9 -1 -9 4 0 6 -4 11 -10 11 -5 0 -10 -6 -10 -14 0 -13 -59 -15 -394 -16 -369 -1 -394 1 -401 17 -7 17 -8 17 -15 -2 -7 -16 -9 -14 -10 15 l-2 35 -10 -32 -11 -33 -200 0 c-194 0 -199 0 -194 20 7 28 -9 25 -17 -2 l-7 -23 -11 25 c-9 21 -12 22 -15 7 -3 -9 -9 -15 -14 -12 -5 4 -9 1 -9 -4 0 -7 -95 -11 -295 -10 -187 0 -295 4 -295 11 0 5 -7 3 -15 -6 -12 -12 -52 -15 -220 -16 -190 0 -205 1 -206 17 0 16 -2 15 -9 -2 -7 -17 -9 -17 -9 -2 -1 21 -21 23 -21 2 0 -8 -6 -12 -14 -9 -8 3 -11 15 -8 30 2 14 0 24 -7 24 -6 0 -11 -12 -11 -26 l0 -26 -92 8 c-51 3 -95 8 -97 10 -3 2 -7 124 -9 270 -4 220 -2 268 9 275 12 8 12 11 -1 19 -10 6 -11 10 -2 10 6 0 12 5 12 10 0 6 -7 10 -16 10 -13 0 -15 7 -10 31 3 17 6 285 6 595 0 495 2 564 15 564 8 0 15 5 15 10 0 6 -7 10 -15 10 -18 0 -20 26 -2 33 9 4 9 8 -1 15 -8 5 -12 20 -10 33 2 20 8 23 30 21 16 -2 28 1 28 7 0 6 -14 11 -31 11 -20 0 -29 4 -26 13 2 6 12 11 21 9 9 -2 24 2 34 7 14 8 10 10 -20 11 -27 0 -38 4 -38 15 0 8 7 15 15 15 8 0 15 5 15 10 0 6 -6 10 -14 10 -12 0 -15 56 -16 365 0 201 2 412 6 471 6 95 9 107 28 114 l21 9 -21 0 c-19 1 -21 7 -23 101 -2 85 0 100 13 100 9 0 16 5 16 10 0 6 -7 10 -16 10 -26 0 -13 45 14 46 33 2 40 14 9 14 -15 0 -27 5 -27 10 0 6 5 10 11 10 8 0 8 4 -1 14 -9 11 -10 82 -6 283 4 239 7 269 22 280 16 12 16 13 2 13 -9 0 -17 8 -17 18 -13 888 -13 935 0 943 8 5 33 9 57 9 37 0 42 -3 43 -22 1 -22 1 -22 9 2 5 17 8 19 9 8 1 -10 6 -18 11 -18 6 0 10 8 11 18 0 14 2 14 9 -3 7 -16 9 -17 9 -3 1 13 12 18 49 21 83 7 517 -6 521 -15z"/>
<path d="M264 5069 c-3 -6 5 -21 19 -33 21 -16 34 -48 61 -146 19 -69 44 -170 55 -225 23 -110 48 -227 56 -262 3 -14 13 -23 24 -23 23 0 28 14 71 195 18 72 39 155 47 185 l16 55 32 -141 c42 -179 73 -281 87 -290 27 -17 37 13 130 381 50 202 67 254 86 272 32 30 20 43 -39 43 -54 0 -76 -21 -44 -43 15 -12 14 -24 -24 -171 -22 -87 -42 -160 -44 -162 -5 -6 -44 144 -62 240 -15 79 -12 95 18 96 4 0 7 6 7 14 0 18 -46 25 -144 21 -84 -3 -112 -16 -77 -34 27 -15 51 -62 51 -101 0 -17 -12 -82 -27 -143 l-27 -112 -13 45 c-8 25 -20 74 -28 110 -7 36 -19 91 -26 124 -12 57 -12 59 12 77 20 16 22 20 9 29 -21 14 -217 13 -226 -1z"/>
<path d="M1404 5065 c-4 -8 6 -24 22 -39 34 -29 35 -37 25 -348 -7 -209 -8 -218 -30 -242 -13 -13 -20 -29 -16 -35 10 -17 145 -14 145 2 0 8 -11 20 -25 27 l-25 13 0 235 c0 130 2 233 4 231 10 -12 160 -278 206 -364 82 -155 89 -166 114 -163 21 3 21 6 26 316 l5 313 25 19 c14 11 28 20 31 20 4 0 4 -29 2 -64 -3 -36 -2 -73 1 -83 7 -17 8 -17 22 1 8 11 14 32 14 47 0 33 53 81 84 77 21 -3 21 -6 24 -291 l2 -288 -36 -15 c-19 -8 -34 -20 -31 -27 5 -17 269 -17 274 0 3 7 -7 15 -22 19 -14 3 -30 14 -35 24 -6 11 -10 135 -10 295 0 306 -1 303 65 272 29 -14 35 -23 45 -72 16 -78 34 -67 38 23 3 73 8 80 43 62 18 -10 19 -24 19 -264 0 -139 -3 -268 -7 -286 -4 -21 -16 -38 -34 -49 -16 -9 -27 -20 -26 -26 2 -6 80 -10 207 -10 l204 0 6 25 c4 14 10 60 14 103 6 65 4 77 -8 77 -9 0 -20 -16 -27 -42 -25 -95 -58 -122 -140 -116 l-44 3 -3 133 c-2 123 -1 132 16 132 18 0 42 -36 42 -63 0 -7 5 -29 11 -49 21 -76 29 -37 29 137 0 96 -4 175 -9 175 -12 0 -21 -26 -21 -60 0 -54 -34 -101 -61 -84 -5 3 -9 63 -9 135 l0 129 43 0 c23 0 53 -6 66 -13 29 -15 61 -72 61 -109 0 -17 5 -28 14 -28 21 0 25 20 19 109 l-6 81 -420 0 c-230 -1 -422 1 -425 4 -11 11 -128 6 -140 -6 -18 -18 -15 -27 12 -37 15 -6 25 -20 30 -41 9 -49 7 -335 -3 -324 -5 5 -37 63 -71 129 -103 197 -143 270 -154 277 -6 4 -46 8 -89 8 -59 0 -79 -3 -83 -15z"/>
<path d="M2788 5074 c-15 -14 -8 -25 21 -35 16 -6 32 -20 35 -32 3 -12 6 -138 6 -279 0 -279 1 -271 -55 -304 -11 -6 -15 -15 -11 -22 5 -8 50 -12 149 -12 117 0 149 4 182 19 54 25 99 74 131 146 25 53 27 71 27 165 0 90 -4 115 -27 175 -37 95 -60 130 -104 157 -34 21 -51 23 -192 26 -85 2 -158 0 -162 -4z m261 -70 c49 -41 65 -112 66 -284 0 -171 -19 -245 -68 -268 -57 -27 -57 -29 -57 281 0 156 3 287 7 290 11 11 20 8 52 -19z"/>
<path d="M1132 5053 c-12 -22 -48 -143 -97 -323 -68 -250 -76 -275 -96 -292 -10 -9 -19 -20 -19 -26 0 -10 115 -23 136 -15 23 9 16 24 -16 36 -24 9 -30 17 -26 32 2 11 10 46 16 78 l12 58 65 -3 65 -3 23 -73 23 -73 -30 -15 c-24 -12 -27 -18 -17 -30 8 -10 34 -14 94 -14 46 0 90 3 99 6 20 8 20 24 1 38 -9 6 -29 63 -46 126 -49 185 -120 442 -131 478 -11 36 -41 44 -56 15z m18 -395 c0 -5 -21 -8 -46 -8 -33 0 -45 4 -42 13 3 6 13 43 24 82 l18 70 23 -75 c13 -41 23 -78 23 -82z"/>
<path d="M563 4302 l-101 -3 -5 -57 c-3 -31 -5 -489 -4 -1017 l2 -960 405 -6 c610 -10 2223 -10 2232 -1 14 14 46 1039 51 1615 3 332 1 399 -10 409 -26 21 -1984 37 -2570 20z m477 -18 c0 -3 -24 -32 -53 -64 -61 -67 -122 -185 -147 -282 -16 -60 -24 -73 -79 -123 -33 -32 -72 -66 -85 -76 -33 -26 -105 -135 -154 -234 l-40 -79 -7 84 c-10 122 -12 753 -2 768 6 9 75 12 288 12 153 0 279 -3 279 -6z m1297 -27 c33 -49 84 -139 94 -163 l8 -22 -62 17 c-46 13 -63 23 -65 37 -4 23 -43 103 -54 110 -15 9 -8 -16 17 -66 l25 -50 -29 0 c-26 0 -29 4 -35 40 -3 22 -11 40 -17 40 -6 0 -7 -13 -3 -35 4 -24 2 -35 -5 -35 -7 0 -10 4 -7 8 2 4 1 14 -5 22 -7 12 -9 11 -10 -5 0 -11 -3 -14 -6 -7 -2 6 -9 10 -14 7 -4 -3 -25 3 -46 13 -21 11 -83 30 -138 42 -86 20 -124 23 -277 22 -165 -1 -184 -3 -285 -32 -133 -37 -330 -133 -402 -195 -29 -25 -68 -53 -85 -62 -17 -8 -41 -25 -53 -36 -35 -31 -39 -13 -15 61 30 92 91 199 153 266 l51 56 622 0 621 0 22 -33z m784 3 c11 -16 4 -149 -12 -240 -5 -30 -21 -136 -35 -235 -47 -336 -117 -661 -146 -679 -27 -17 -32 0 -11 36 19 31 37 105 46 187 13 110 -36 306 -97 391 -31 43 -34 54 -45 171 -15 161 -26 201 -70 250 -75 84 -212 68 -258 -31 -10 -22 -21 -40 -24 -40 -3 0 -19 28 -35 62 -16 34 -41 79 -56 100 -16 21 -28 41 -28 44 0 4 171 5 381 2 320 -3 382 -6 390 -18z m-1412 -107 c9 -16 10 -16 11 -1 0 34 267 20 433 -23 37 -10 38 -11 31 -47 -4 -25 -3 -34 4 -27 5 6 12 19 14 30 2 11 10 20 18 20 8 0 13 -7 11 -15 -2 -8 -5 -24 -8 -35 -4 -19 -3 -19 9 -2 38 54 36 53 57 40 12 -7 28 -13 36 -13 15 0 15 -2 1 -22 -21 -30 -20 -44 1 -27 11 10 14 10 9 2 -13 -22 12 -14 28 9 13 19 20 20 56 12 l41 -9 3 -120 c2 -69 10 -146 19 -180 8 -33 19 -82 22 -110 l7 -50 -52 75 c-160 230 -298 330 -519 376 -200 43 -369 31 -551 -36 -139 -52 -195 -91 -419 -291 -126 -113 -208 -167 -294 -194 l-42 -13 51 -1 c55 -1 137 20 197 50 20 11 37 18 37 16 0 -2 -24 -55 -54 -118 -56 -117 -76 -195 -75 -283 l0 -51 18 55 c28 86 122 244 108 180 -3 -14 -11 -55 -17 -93 -17 -110 -67 -219 -133 -294 -11 -13 -18 -25 -15 -28 11 -11 106 69 151 127 l49 63 -7 -40 c-4 -22 -9 -48 -12 -57 -8 -31 12 -19 26 15 13 29 14 30 18 10 2 -12 -3 -33 -13 -48 -36 -55 5 -187 87 -279 41 -47 124 -96 161 -96 9 0 20 -5 24 -12 5 -7 3 -8 -6 -3 -8 5 -11 3 -8 -6 5 -15 68 -44 68 -31 0 5 -10 14 -22 21 -23 11 -23 11 2 6 24 -6 24 -5 6 9 -11 9 -17 16 -13 16 3 0 37 -23 74 -52 l68 -51 -60 6 c-54 6 -83 11 -210 37 -22 4 -53 13 -70 18 -16 6 -57 18 -90 27 -33 10 -82 29 -110 43 -45 22 -48 26 -31 36 10 6 28 19 40 28 l21 17 -21 21 -20 21 -52 -27 c-28 -14 -57 -24 -64 -21 -8 3 -2 9 15 16 38 15 34 23 -7 15 -28 -5 -43 0 -78 24 -56 38 -121 109 -147 159 -27 55 -51 162 -51 234 0 86 27 230 56 294 l24 56 29 -16 c34 -17 41 -18 41 -7 0 4 -14 13 -30 19 l-31 12 32 53 c18 29 53 77 77 106 38 46 48 53 70 47 22 -5 24 -4 13 9 -20 24 -2 19 36 -10 40 -30 43 -21 6 19 l-28 28 33 30 c31 28 35 29 51 15 25 -22 34 -20 20 6 -10 18 -8 24 12 40 65 51 66 52 99 28 35 -25 53 -20 24 7 -11 10 -15 15 -10 11 19 -15 27 -8 15 13 -6 12 -7 19 -1 15 5 -3 12 0 15 8 9 22 207 115 302 141 106 29 142 31 167 8 20 -18 25 -4 6 15 -9 9 -9 12 -1 12 7 0 19 -10 29 -22 16 -23 16 -23 9 7 -4 16 -4 27 0 23 3 -3 18 0 33 8 40 21 128 18 141 -3z m991 2 c32 -17 62 -62 80 -120 8 -26 15 -165 20 -400 7 -340 17 -477 41 -552 12 -38 36 -59 26 -24 -4 16 -1 22 11 20 55 -5 69 1 85 39 31 73 50 161 102 467 l53 310 1 -274 c1 -296 5 -275 -46 -254 -27 11 -11 -19 18 -35 l31 -17 -6 -110 c-3 -60 -6 -130 -6 -154 0 -42 -1 -43 -27 -36 -16 3 -40 18 -55 32 -15 15 -31 23 -35 19 -11 -11 54 -64 87 -71 l27 -6 -4 -167 c-2 -92 -6 -186 -9 -209 -5 -43 -6 -43 -46 -43 -22 0 -80 -14 -130 -31 -99 -35 -166 -36 -226 -5 -18 9 -33 12 -37 6 -9 -14 34 -33 105 -45 62 -11 68 -10 133 17 38 16 96 31 132 35 l65 6 0 -74 c0 -41 -3 -104 -7 -141 l-6 -68 -153 0 -152 0 -48 68 c-26 37 -49 69 -51 71 -1 2 -6 1 -9 -2 -4 -4 -1 -14 7 -24 8 -9 -10 2 -39 25 -30 23 -64 42 -75 42 -19 -1 -18 -3 8 -16 32 -17 165 -143 165 -156 0 -5 -132 -8 -294 -8 l-295 0 15 28 c16 30 19 82 5 82 -5 0 -11 8 -14 18 -3 15 -5 15 -11 -3 -4 -11 -18 -43 -31 -71 l-23 -51 -59 -5 c-125 -12 -190 0 -303 56 -116 56 -122 64 -109 145 19 128 181 132 424 11 113 -56 125 -60 210 -66 126 -8 159 4 203 78 18 31 49 98 68 150 31 82 38 85 18 8 l-6 -25 18 25 c18 23 19 48 19 345 -1 186 -6 360 -13 415 -7 52 -17 136 -22 185 -6 50 -19 125 -30 167 -33 130 -24 303 18 352 47 53 124 71 182 41z m-1008 -182 c36 -38 86 -97 110 -133 56 -82 158 -255 158 -268 0 -6 -12 -20 -27 -32 -31 -24 -58 -60 -45 -60 4 0 27 16 49 35 l41 35 28 -70 c40 -102 48 -99 40 9 l-7 92 33 -3 c38 -4 46 -16 93 -155 17 -51 35 -96 40 -100 4 -5 5 43 2 105 -6 112 -5 114 14 96 32 -29 33 -8 0 26 -17 18 -40 62 -54 103 -14 40 -32 89 -41 110 -9 20 -14 37 -12 37 5 0 87 -145 105 -185 51 -117 111 -352 111 -434 0 -21 3 -41 7 -45 18 -17 -29 -311 -58 -369 -37 -72 -136 -170 -226 -223 -39 -23 -44 -24 -69 -11 l-28 15 64 32 c191 96 278 239 268 439 -2 50 -6 93 -9 95 -3 3 -58 -13 -124 -35 -174 -59 -278 -79 -472 -90 -163 -9 -215 -7 -420 17 l-53 7 0 -54 c0 -111 53 -221 144 -306 59 -55 162 -113 201 -113 35 0 49 -15 36 -39 -7 -11 -14 -21 -18 -21 -3 0 -56 24 -118 54 -89 44 -121 65 -161 109 -82 89 -157 270 -190 457 -16 89 -19 260 -4 260 6 0 10 -12 10 -26 0 -14 9 -62 21 -107 40 -162 79 -230 53 -94 -28 145 -13 356 35 509 42 135 151 333 171 311 4 -4 21 -51 38 -104 51 -162 149 -339 242 -440 45 -48 44 -42 -8 40 -54 85 -139 269 -161 349 -11 40 -23 103 -27 141 l-6 70 38 6 c22 4 53 11 69 15 17 5 35 9 40 9 6 1 40 -29 77 -66z m313 -195 c31 -57 65 -120 76 -140 l20 -38 -33 0 -33 0 -41 123 c-22 67 -44 130 -48 140 -5 9 -6 17 -3 17 3 0 31 -46 62 -102z m861 -120 c-6 -4 -19 -8 -28 -8 -19 0 -24 32 -12 65 5 13 11 9 29 -17 16 -23 19 -35 11 -40z m43 -75 c21 -62 42 -206 33 -232 -2 -6 -16 -11 -30 -11 -15 0 -34 -5 -42 -10 -11 -7 -4 -10 28 -10 23 0 42 -4 42 -10 0 -5 -15 -10 -34 -10 -19 0 -38 -4 -41 -10 -4 -6 10 -10 34 -10 38 0 39 -1 32 -27 -6 -22 -15 -29 -41 -33 -27 -4 -31 -7 -19 -16 8 -7 23 -14 34 -16 17 -4 14 -8 -15 -21 -19 -9 -28 -16 -18 -17 11 0 15 -6 11 -20 -3 -12 -10 -19 -16 -17 -20 6 -28 61 -36 247 -8 178 -3 225 19 190 9 -13 10 -13 11 0 0 10 3 9 10 -5 7 -14 8 -8 4 25 -7 52 -7 52 -29 44 -10 -4 -15 -13 -12 -21 3 -8 1 -11 -4 -8 -28 17 1 54 50 64 3 1 16 -29 29 -66z m-396 -145 c12 -9 19 -33 23 -83 l5 -70 -24 65 c-14 36 -28 73 -32 83 -8 20 4 22 28 5z m7 -212 c0 -8 7 -19 15 -26 8 -7 15 -24 15 -39 -1 -25 -2 -24 -16 9 -30 66 -34 81 -24 75 6 -3 10 -12 10 -19z m26 -263 c1 -77 -1 -144 -5 -149 -3 -5 -26 -25 -50 -44 l-43 -33 -19 24 c-13 17 -19 19 -19 8 0 -8 5 -20 11 -26 8 -8 8 -13 0 -17 -6 -4 -11 -2 -11 3 0 6 -5 11 -11 11 -6 0 -9 -6 -6 -14 10 -24 -19 -40 -42 -24 -19 13 -17 17 43 70 82 74 127 157 134 247 4 62 2 69 -24 101 l-29 35 35 -26 35 -27 1 -139z m-52 135 c33 -47 7 -162 -54 -247 -27 -37 -136 -131 -152 -131 -3 0 3 18 15 40 12 22 26 40 30 40 4 0 28 15 52 33 30 21 48 44 55 67 14 48 14 47 -17 64 -24 13 -25 15 -7 16 24 0 62 25 52 35 -3 4 -16 2 -27 -5 -26 -14 -26 -6 0 31 11 16 25 27 30 24 5 -4 9 1 9 9 0 31 -31 15 -61 -31 -31 -49 -32 -28 -1 32 25 51 51 58 76 23z m-228 -34 c10 -40 -2 -175 -19 -215 -13 -32 -19 -36 -41 -32 -21 4 -24 8 -15 19 18 22 3 27 -25 9 -30 -20 -74 -12 -56 10 6 7 7 16 2 19 -5 3 -15 -3 -24 -13 -14 -16 -32 -18 -169 -17 -85 1 -159 -2 -166 -6 -6 -5 -49 -13 -95 -18 -45 -5 -110 -18 -142 -29 -76 -27 -92 -26 -121 4 -29 32 -42 17 -15 -18 l20 -25 -25 -16 c-33 -22 -48 -20 -73 7 -29 30 -72 156 -72 208 0 41 0 41 33 36 288 -51 613 -26 882 67 55 19 103 35 107 35 4 1 11 -11 14 -25z m-1720 -193 c56 -65 182 -161 294 -223 59 -33 246 -92 330 -104 25 -3 72 -13 104 -21 34 -9 82 -13 110 -10 59 5 108 -19 132 -65 15 -28 14 -31 -6 -45 -12 -8 -25 -26 -30 -39 -5 -13 -17 -24 -26 -24 -10 0 -26 -7 -36 -17 -10 -9 -39 -23 -65 -32 -42 -14 -103 -16 -465 -13 l-418 4 1 366 0 367 20 -51 c10 -28 35 -70 55 -93z m541 77 c40 -53 93 -154 93 -180 0 -4 -7 -5 -15 -2 -8 4 -15 14 -15 23 0 32 -58 137 -90 164 -44 38 -74 33 -78 -12 -2 -18 2 -39 8 -45 9 -8 11 -2 8 24 -2 24 1 35 12 37 17 4 80 -50 80 -67 0 -8 -11 -9 -32 -5 -27 6 -31 5 -20 -6 7 -7 24 -14 39 -15 15 0 29 -6 31 -12 2 -6 -8 -10 -24 -9 -39 3 -40 -19 -5 -75 21 -34 44 -53 81 -71 28 -13 53 -20 56 -15 7 12 24 0 24 -18 0 -8 -7 -14 -15 -14 -32 0 -122 50 -157 86 -97 103 -131 274 -53 274 17 0 37 -16 72 -62z m1275 -81 c-31 -30 -38 -14 -16 40 l18 48 10 -33 c8 -28 6 -36 -12 -55z m66 57 c2 -11 -5 -31 -15 -43 -18 -22 -18 -22 -20 24 -2 39 1 46 15 43 9 -2 18 -13 20 -24z m-1324 -104 c15 -6 26 -17 26 -29 0 -21 16 -37 44 -42 22 -5 44 -35 33 -46 -15 -14 -94 37 -115 76 -31 55 -30 57 12 41z m1013 -12 c7 -6 13 -19 13 -29 0 -11 5 -19 10 -19 6 0 10 9 10 20 0 15 7 20 29 20 17 0 32 -4 35 -9 8 -12 -72 -109 -118 -144 -19 -15 -68 -41 -107 -58 -70 -30 -73 -30 -113 -15 -64 24 -179 21 -227 -6 l-39 -22 -68 22 c-80 27 -176 89 -179 117 -2 11 0 14 3 8 9 -20 22 -15 26 9 2 12 14 28 28 34 51 25 207 64 255 64 28 1 60 6 72 13 27 15 351 11 370 -5z m-1250 -64 c5 -16 -62 -48 -83 -40 -15 6 -12 11 22 31 40 25 55 27 61 9z m1663 12 c0 -12 -63 -182 -70 -190 -5 -5 -27 -10 -50 -12 -22 -2 -73 -20 -112 -40 -69 -35 -73 -36 -99 -20 -15 9 -39 16 -53 16 -19 0 -26 5 -26 20 0 14 19 28 73 53 39 19 86 37 102 41 17 4 39 16 50 26 23 20 166 109 178 110 4 0 7 -2 7 -4z m-191 -60 c9 -11 6 -18 -15 -35 -30 -24 -54 -27 -73 -8 -11 10 -14 9 -18 -2 -8 -20 -41 -51 -55 -51 -21 0 76 90 107 99 42 13 41 13 54 -3z m-242 -213 c-3 -2 -18 2 -33 10 l-28 14 30 16 c28 15 29 15 32 -10 2 -14 1 -27 -1 -30z m343 34 c0 -28 -56 -67 -110 -77 -83 -16 -200 2 -200 31 0 22 33 20 70 -5 45 -30 50 -31 50 -13 0 8 28 28 63 45 65 33 127 42 127 19z m-850 -121 c26 -50 39 -60 130 -101 l55 -24 -96 0 -96 -1 -15 73 c-8 39 -18 80 -23 91 -6 14 -5 18 6 14 8 -2 25 -26 39 -52z m-47 -18 c2 -7 -2 -26 -9 -43 -7 -16 -15 -38 -18 -47 -3 -10 -15 -18 -27 -18 -16 0 -19 4 -14 18 4 9 12 31 17 47 12 34 27 55 38 55 5 0 10 -6 13 -12z m587 -83 c-6 -15 -13 -25 -16 -23 -2 3 1 17 7 32 16 34 23 27 9 -9z m-668 0 c-4 -22 -9 -25 -51 -25 l-46 1 31 13 c18 8 35 19 38 25 14 22 33 12 28 -14z m98 0 c0 -14 -4 -25 -10 -25 -11 0 -14 33 -3 43 11 11 13 8 13 -18z"/>
<path d="M1066 4148 c-13 -63 -15 -88 -7 -88 4 0 13 24 19 53 l11 52 -6 -55 c-6 -63 4 -62 18 1 8 32 7 44 -3 50 -21 14 -27 11 -32 -13z"/>
<path d="M1127 4147 c-4 -10 -7 -28 -7 -40 1 -20 2 -20 11 -4 6 10 9 28 7 40 -3 20 -4 20 -11 4z"/>
<path d="M1157 4154 c-4 -4 -7 -19 -6 -33 l0 -26 10 24 c10 26 8 47 -4 35z"/>
<path d="M2425 3821 c-6 -11 9 -23 19 -14 9 9 7 23 -3 23 -6 0 -12 -4 -16 -9z"/>
<path d="M2370 3809 c1 -17 59 -83 67 -75 4 3 -2 15 -12 26 -18 20 -18 21 -1 14 16 -6 17 -4 7 14 -15 28 -37 42 -27 17 7 -18 6 -18 -14 0 -15 14 -20 15 -20 4z"/>
<path d="M920 2941 c0 -5 5 -13 10 -16 6 -3 10 -2 10 4 0 5 -4 13 -10 16 -5 3 -10 2 -10 -4z"/>
<path d="M890 2933 c1 -14 30 -47 36 -41 6 7 -17 48 -28 48 -5 0 -8 -3 -8 -7z"/>
<path d="M860 2913 c0 -12 38 -48 45 -41 3 2 -6 15 -20 28 -14 13 -25 19 -25 13z"/>
<path d="M930 2829 c0 -9 7 -22 15 -29 19 -16 19 0 0 26 -12 16 -14 16 -15 3z"/>
<path d="M880 2811 c0 -4 6 -16 14 -27 12 -15 17 -17 27 -6 10 9 10 15 1 24 -14 14 -42 20 -42 9z"/>
<path d="M1002 2690 c-18 -22 -29 -40 -24 -40 14 0 65 57 61 69 -2 5 -19 -8 -37 -29z"/>
<path d="M1032 2671 c-12 -17 -19 -31 -14 -31 14 0 44 38 40 50 -2 6 -14 -3 -26 -19z"/>
<path d="M2715 3630 c-50 -23 -87 -24 -125 -5 -17 9 -30 11 -30 6 0 -15 55 -41 87 -41 34 0 113 35 113 50 0 5 -1 10 -2 9 -2 0 -21 -9 -43 -19z"/>
<path d="M2690 3325 c-8 -2 -33 -7 -54 -10 -47 -8 -32 -25 22 -25 32 0 102 24 102 34 0 6 -43 6 -70 1z"/>
<path d="M2745 2964 c-23 -9 -57 -13 -80 -10 l-40 6 40 -20 c22 -11 49 -20 60 -20 27 0 88 38 80 50 -8 12 -11 12 -60 -6z"/>
<path d="M2978 2684 c-16 -8 -28 -10 -28 -5 0 5 -41 -4 -90 -20 -100 -32 -163 -36 -217 -14 -44 18 -48 19 -34 1 34 -41 154 -44 254 -6 28 11 53 18 55 16 2 -2 -6 -7 -17 -11 -18 -5 -30 -25 -16 -25 13 0 135 65 135 72 0 11 -11 9 -42 -8z"/>
<path d="M1328 3540 c-38 -7 -77 -28 -115 -63 -41 -37 -24 -38 28 -2 63 43 83 49 158 43 43 -3 71 -12 101 -32 42 -28 72 -27 35 1 -56 43 -142 65 -207 53z"/>
<path d="M2005 3331 c-31 -18 -85 -76 -85 -90 0 -20 16 -18 49 8 77 61 126 66 210 25 28 -15 54 -24 57 -21 11 10 -17 47 -54 72 -46 32 -131 35 -177 6z"/>
<path d="M1368 3301 c-45 -15 -87 -50 -109 -92 -29 -58 -14 -66 37 -19 71 65 124 76 194 40 49 -25 60 -25 60 -1 0 44 -119 91 -182 72z"/>
<path d="M1676 3259 c5 -13 9 -47 9 -76 0 -40 -5 -57 -22 -75 -13 -14 -23 -30 -23 -36 0 -14 87 -59 96 -49 3 3 -3 22 -15 41 -19 30 -20 40 -12 79 12 50 -4 127 -28 135 -10 3 -11 -1 -5 -19z"/>
<path d="M2226 3199 c-27 -15 -41 -18 -49 -10 -16 16 -28 13 -25 -6 2 -10 -7 -19 -25 -24 -21 -6 -29 -3 -38 12 -11 22 -31 16 -22 -6 6 -18 -34 -20 -84 -6 -18 5 -35 6 -38 1 -7 -11 17 -19 81 -26 30 -4 57 -11 60 -16 3 -5 11 -3 17 5 15 18 67 31 67 17 0 -5 5 -10 10 -10 6 0 10 6 10 13 0 7 20 23 45 35 25 12 45 26 45 32 0 14 -9 12 -54 -11z"/>
<path d="M1760 3050 c0 -5 7 -10 15 -10 8 0 15 5 15 10 0 6 -7 10 -15 10 -8 0 -15 -4 -15 -10z"/>
<path d="M2888 3455 c2 -25 8 -45 13 -45 11 0 11 16 3 59 -10 46 -20 37 -16 -14z"/>
<path d="M2866 3453 c9 -38 14 -42 14 -10 0 14 -5 29 -10 32 -7 4 -8 -3 -4 -22z"/>
<path d="M2840 3451 c0 -12 5 -21 10 -21 6 0 10 6 10 14 0 8 -4 18 -10 21 -5 3 -10 -3 -10 -14z"/>
<path d="M463 2163 c-22 -4 -33 -33 -13 -33 13 0 13 -167 0 -175 -22 -14 4 -25 56 -25 47 0 59 4 79 26 21 22 25 37 25 84 0 50 -4 62 -29 89 -16 17 -38 31 -49 31 -11 0 -26 2 -34 4 -7 2 -23 1 -35 -1z m81 -55 c31 -44 14 -148 -24 -148 -18 0 -20 6 -20 78 0 97 12 116 44 70z"/>
<path d="M721 2162 c-60 -3 -63 -4 -57 -25 15 -51 19 -167 6 -182 -19 -23 -6 -29 66 -29 70 0 84 9 84 52 0 27 -11 28 -35 2 -28 -31 -59 -22 -63 18 -2 23 1 32 11 32 8 0 18 -7 21 -16 10 -25 26 -6 26 31 0 37 -16 56 -26 31 -12 -30 -34 -18 -34 19 0 43 25 47 60 10 27 -29 44 -20 35 18 -10 37 -22 42 -94 39z"/>
<path d="M1071 2161 c-12 -8 -12 -12 -2 -25 10 -12 12 -42 9 -110 -4 -93 -3 -95 20 -101 41 -10 91 6 117 37 40 47 30 147 -17 185 -19 15 -110 25 -127 14z m107 -62 c18 -35 11 -119 -11 -133 -27 -17 -32 1 -29 89 4 80 15 92 40 44z"/>
<path d="M1518 2141 c-58 -52 -47 -184 17 -213 61 -27 107 20 106 108 -1 107 -62 159 -123 105z m68 -36 c17 -42 18 -117 2 -133 -17 -17 -45 -15 -52 4 -12 31 -6 120 10 142 20 29 22 28 40 -13z"/>
<path d="M1725 2161 c-20 -5 -28 -12 -25 -22 11 -34 11 -171 0 -184 -18 -21 -6 -31 35 -29 43 2 53 10 37 26 -7 7 -12 21 -11 33 0 14 5 9 15 -17 18 -42 37 -53 66 -37 18 10 18 12 5 27 -9 10 -20 30 -26 45 -9 24 -8 33 9 54 26 33 25 55 -2 80 -28 24 -62 32 -103 24z m69 -46 c8 -21 -3 -45 -20 -45 -9 0 -14 11 -14 30 0 32 23 42 34 15z"/>
<path d="M925 2148 c-2 -7 -14 -49 -26 -93 -11 -44 -27 -90 -35 -102 -13 -21 -12 -23 11 -29 14 -3 32 -4 40 0 17 6 21 26 5 26 -5 0 -10 11 -10 25 0 21 5 25 31 25 30 0 31 -1 25 -35 l-7 -35 42 0 c35 0 40 2 34 18 -4 9 -23 61 -43 115 -32 90 -55 119 -67 85z"/>
<path d="M2161 2128 c-5 -18 -17 -62 -26 -98 -9 -36 -24 -73 -32 -82 -14 -16 -14 -18 0 -24 29 -11 52 0 53 26 1 45 4 50 23 50 22 0 34 -24 26 -51 -4 -13 1 -19 26 -24 39 -9 58 7 35 30 -9 9 -16 22 -16 28 0 30 -55 177 -66 177 -7 0 -17 -15 -23 -32z m24 -88 c3 -5 1 -10 -4 -10 -6 0 -11 5 -11 10 0 6 2 10 4 10 3 0 8 -4 11 -10z"/>
<path d="M2315 2151 c-3 -5 -1 -12 5 -16 15 -9 13 -168 -2 -183 -20 -20 8 -32 73 -32 54 0 56 1 72 35 20 43 21 45 4 45 -7 0 -18 -9 -25 -20 -7 -11 -22 -20 -33 -20 -21 0 -21 4 -17 100 l4 100 -38 0 c-20 0 -39 -4 -43 -9z"/>
<path d="M2558 2065 c3 -69 1 -99 -9 -111 -10 -13 -10 -17 2 -25 16 -10 41 -11 63 -3 13 5 14 9 5 20 -7 9 -10 48 -7 114 l4 100 -31 0 -31 0 4 -95z"/>
<path d="M2716 2151 c-3 -4 1 -26 9 -47 8 -22 24 -72 36 -112 12 -40 26 -71 31 -70 6 2 26 46 45 98 18 52 38 99 43 104 19 19 10 26 -30 26 -36 0 -39 -2 -29 -18 8 -13 7 -26 -4 -52 l-14 -35 -11 38 c-6 21 -9 44 -6 51 8 20 -59 36 -70 17z"/>
<path d="M2918 2155 c-4 -4 -3 -17 3 -27 6 -12 9 -59 7 -112 l-3 -91 65 0 c64 0 64 0 74 33 12 44 0 52 -30 18 -33 -34 -48 -29 -52 17 -3 40 12 51 21 16 9 -33 27 -12 27 31 0 41 -16 62 -26 36 -10 -26 -24 -18 -24 13 0 42 19 49 46 18 32 -37 47 -35 39 6 -4 17 -9 34 -12 37 -7 8 -128 12 -135 5z"/>
<path d="M3120 2123 c-16 -20 -20 -38 -18 -72 3 -42 5 -46 28 -46 24 0 25 2 22 53 -2 40 1 52 12 52 16 0 26 -21 26 -54 0 -12 -18 -65 -41 -116 -90 -208 -89 -360 1 -360 40 0 70 38 70 87 0 24 -7 48 -16 57 -18 19 -20 19 -45 6 -23 -13 -25 -43 -4 -64 19 -18 19 -36 1 -36 -20 0 -36 24 -43 63 -6 42 14 108 70 232 30 64 42 103 42 136 0 82 -61 118 -105 62z"/>
<path d="M276 2108 c-28 -39 -20 -108 21 -194 33 -69 38 -90 41 -170 4 -95 -9 -147 -31 -125 -8 8 -6 14 7 24 22 16 18 46 -7 61 -15 9 -22 7 -38 -13 -26 -32 -24 -67 6 -96 30 -31 37 -31 71 -2 54 47 50 191 -11 327 -18 41 -36 85 -40 98 -7 24 11 82 25 82 17 0 20 -34 5 -57 -13 -19 -14 -27 -4 -39 28 -34 59 -3 59 60 0 60 -72 90 -104 44z"/>
<path d="M505 1840 c-4 -6 -2 -17 5 -25 8 -9 11 -83 9 -247 l-2 -233 29 0 29 0 -2 80 c-2 83 0 79 22 -42 3 -18 12 -33 20 -33 12 0 27 64 39 165 1 17 4 -9 5 -57 0 -53 -3 -88 -9 -88 -5 0 -10 -7 -10 -15 0 -12 13 -15 55 -15 42 0 55 3 55 15 0 8 -4 15 -10 15 -15 0 -13 443 1 457 6 6 8 16 5 22 -9 15 -73 14 -82 -1 -4 -6 -15 -63 -24 -127 l-16 -116 -18 113 c-9 63 -20 120 -23 128 -6 16 -69 19 -78 4z"/>
<path d="M792 1823 c-30 -44 -42 -91 -48 -188 -9 -136 26 -276 77 -308 42 -26 87 18 110 108 6 24 8 20 5 -20 -1 -27 -6 -58 -10 -67 -7 -16 -3 -18 33 -18 29 0 41 4 41 14 0 8 -4 18 -10 21 -6 4 -10 62 -9 143 1 128 1 134 14 97 12 -35 68 -219 81 -267 3 -10 11 -18 18 -18 16 0 26 131 26 343 0 91 4 147 10 147 15 0 13 -447 -2 -452 -6 -2 -9 -12 -5 -21 5 -12 18 -17 51 -17 47 0 66 14 47 33 -6 6 -11 46 -10 97 l0 85 25 -70 c16 -47 22 -80 18 -102 l-6 -33 125 0 126 0 14 63 c8 34 12 67 10 74 -9 24 -32 0 -48 -48 -12 -36 -22 -49 -36 -49 -18 0 -19 8 -19 107 0 66 4 103 9 98 5 -6 11 -28 13 -50 2 -27 8 -40 18 -40 12 0 15 18 15 105 0 87 -3 105 -15 105 -10 0 -16 -12 -18 -38 -2 -24 -8 -37 -15 -34 -8 2 -13 36 -15 95 -3 87 -2 92 17 92 16 0 23 -10 32 -45 12 -49 27 -65 40 -44 11 18 13 14 32 -58 24 -89 24 -279 0 -305 -24 -26 -4 -38 65 -38 39 0 52 4 52 14 0 8 -4 17 -9 20 -4 3 -11 58 -15 123 -6 113 -5 122 24 212 16 52 37 105 45 118 12 18 13 24 3 28 -16 6 -47 9 -70 7 -25 -3 -22 -32 3 -32 15 0 19 -5 15 -17 -3 -10 -13 -45 -22 -78 l-18 -60 -17 74 c-17 70 -17 75 -1 87 16 12 16 13 -3 21 -11 4 -94 8 -184 8 -127 0 -165 -3 -169 -13 -2 -7 5 -16 17 -19 12 -3 21 -6 21 -8 0 -1 -14 -31 -30 -66 l-30 -64 2 85 3 85 -68 0 c-77 0 -99 -7 -79 -27 8 -8 12 -46 11 -117 l0 -106 -35 110 c-19 61 -38 117 -43 125 -9 16 -101 27 -101 12 0 -5 9 -17 20 -27 15 -14 20 -31 20 -69 l-1 -51 -17 51 c-27 78 -48 104 -82 104 -20 0 -34 -8 -48 -27z m558 -245 c0 -119 -4 -208 -9 -208 -5 0 -30 62 -55 137 l-46 138 42 88 c61 128 68 111 68 -155z m-482 171 c13 -58 12 -339 -2 -371 -12 -27 -35 -22 -43 10 -10 35 -10 359 0 395 11 42 30 28 45 -34z m639 -1 c-3 -8 -6 -5 -6 6 -1 11 2 17 5 13 3 -3 4 -12 1 -19z"/>
<path d="M1819 1833 c0 -5 0 -111 1 -236 1 -157 -3 -233 -10 -242 -20 -25 0 -35 65 -35 60 0 67 2 99 35 46 46 60 110 54 251 -7 169 -50 234 -154 234 -30 0 -54 -3 -55 -7z m127 -130 c12 -53 15 -99 11 -152 -6 -82 -32 -181 -47 -181 -6 0 -10 85 -10 216 0 188 2 215 14 204 8 -6 23 -46 32 -87z"/>
<path d="M2157 1833 c-3 -5 0 -39 5 -78 13 -95 5 -379 -11 -399 -23 -27 -2 -36 85 -36 80 0 84 1 84 22 0 21 1 21 28 -5 35 -34 90 -37 118 -6 15 17 20 44 26 157 4 75 4 174 1 218 -4 55 -2 83 6 88 8 5 11 -52 11 -210 0 -185 -2 -220 -16 -235 -24 -27 -8 -39 51 -39 59 0 75 12 51 39 -12 14 -16 40 -16 119 0 56 4 102 9 102 11 0 21 -25 21 -55 0 -26 15 -41 25 -26 9 15 10 184 1 199 -11 19 -26 4 -26 -27 0 -15 -7 -36 -15 -47 -13 -17 -14 -9 -15 84 0 82 3 102 14 102 23 0 45 -28 52 -65 3 -18 12 -36 19 -39 21 -8 19 -335 -1 -343 -19 -7 -18 -29 2 -37 55 -21 141 9 95 34 -19 10 -21 20 -21 110 0 55 4 102 10 105 12 7 30 -36 30 -71 0 -30 16 -31 24 -1 10 36 7 197 -4 197 -14 0 -30 -35 -30 -65 0 -17 -5 -25 -12 -23 -15 5 -22 93 -13 156 8 53 30 56 52 5 26 -63 37 -72 43 -32 8 54 50 -179 50 -275 0 -69 -3 -83 -22 -103 -19 -20 -20 -25 -8 -33 21 -13 107 -12 115 1 4 5 0 18 -9 28 -13 14 -16 40 -16 122 0 84 6 125 31 214 48 177 48 159 4 152 -47 -8 -55 -15 -33 -31 16 -11 16 -17 0 -77 l-16 -64 -14 60 c-10 45 -11 64 -2 78 6 11 9 22 5 25 -8 8 -486 13 -498 5 -6 -3 0 -13 12 -22 21 -16 22 -19 15 -223 -4 -114 -10 -212 -15 -219 -4 -6 -13 -9 -21 -6 -12 4 -16 37 -21 149 -10 203 -9 296 3 303 20 12 -2 25 -43 25 l-42 0 3 -173 c3 -150 1 -181 -16 -233 -14 -45 -24 -60 -40 -62 -22 -3 -22 -3 -22 212 0 126 4 217 10 221 5 3 7 12 3 20 -5 16 -88 22 -96 8z m680 -55 c-3 -8 -6 -5 -6 6 -1 11 2 17 5 13 3 -3 4 -12 1 -19z"/>
<path d="M1712 1628 c-17 -17 -15 -43 4 -58 22 -19 49 9 40 44 -7 28 -25 33 -44 14z"/>
<path d="M2067 1623 c-13 -12 -7 -61 8 -67 16 -6 45 18 45 38 0 25 -37 46 -53 29z"/>
<path d="M3123 1545 c-60 -42 -56 -204 8 -385 32 -88 39 -154 20 -173 -17 -17 -26 1 -12 27 17 30 11 60 -12 64 -29 6 -47 -17 -47 -59 0 -66 56 -102 94 -60 31 34 25 121 -17 244 -30 87 -37 122 -37 183 0 74 11 114 31 114 6 0 6 -7 -1 -19 -23 -44 -8 -78 29 -66 46 14 47 110 2 134 -26 14 -32 14 -58 -4z"/>
<path d="M273 1538 c-28 -13 -37 -39 -28 -78 8 -37 40 -57 61 -39 17 14 18 51 2 67 -6 6 -8 15 -4 19 9 10 23 -13 36 -57 23 -82 2 -250 -47 -365 -47 -110 -65 -194 -58 -265 7 -80 29 -126 68 -146 28 -15 32 -15 56 4 61 45 22 211 -43 186 -35 -14 -26 -104 11 -104 7 0 13 -11 13 -25 0 -38 -29 -31 -47 13 -28 64 -21 172 17 272 62 161 71 195 77 286 6 102 -7 179 -39 219 -21 27 -40 30 -75 13z"/>
<path d="M550 1285 c-7 -8 -12 -27 -12 -41 0 -24 -2 -25 -42 -19 l-41 7 33 -32 c27 -27 32 -40 32 -80 0 -53 -8 -67 -25 -43 -14 19 -45 11 -45 -11 0 -20 30 -48 46 -42 9 3 14 -6 16 -27 3 -29 6 -32 38 -32 29 0 38 5 50 30 9 17 31 45 49 63 27 27 32 38 26 60 -3 15 -9 41 -12 57 -7 36 -18 44 -58 45 -29 1 -29 2 -7 11 34 13 27 63 -9 67 -14 2 -31 -4 -39 -13z m30 -180 c0 -14 -4 -25 -10 -25 -11 0 -14 33 -3 43 11 11 13 8 13 -18z m50 8 c0 -5 -5 -15 -10 -23 -8 -12 -10 -11 -10 8 0 12 5 22 10 22 6 0 10 -3 10 -7z m-50 -87 c0 -8 -4 -17 -8 -20 -4 -2 -8 4 -8 15 0 10 4 19 8 19 4 0 8 -6 8 -14z"/>
<path d="M752 1198 c-20 -20 -13 -29 23 -26 45 3 55 -9 26 -31 -26 -20 -21 -41 10 -41 14 0 19 -5 17 -17 -3 -14 -13 -18 -46 -16 -36 2 -43 -1 -40 -15 2 -12 15 -18 45 -20 51 -4 89 26 78 61 -4 12 -8 38 -8 57 -2 26 -8 37 -27 47 -32 16 -63 16 -78 1z"/>
<path d="M1126 1189 c-22 -17 -26 -29 -26 -68 0 -56 21 -81 67 -81 39 0 63 28 63 72 0 50 -8 66 -41 83 -35 19 -31 19 -63 -6z m68 -35 c10 -25 7 -72 -5 -79 -5 -4 -21 -4 -35 -1 -43 11 -29 96 17 96 9 0 20 -7 23 -16z"/>
<path d="M1651 1193 c-14 -12 -24 -34 -28 -60 -5 -37 -2 -46 25 -73 37 -36 43 -37 79 -6 23 20 28 32 28 70 0 50 -15 71 -56 81 -17 4 -33 0 -48 -12z m63 -29 c34 -33 9 -99 -35 -92 -20 2 -25 9 -27 41 -5 59 28 86 62 51z"/>
<path d="M1810 1178 c-26 -42 -25 -79 1 -112 47 -59 127 -8 115 74 -11 71 -82 94 -116 38z m78 -10 c26 -26 7 -98 -26 -98 -25 0 -42 20 -42 48 0 51 38 80 68 50z"/>
<path d="M2175 1185 c-49 -49 -25 -135 38 -135 71 0 89 124 22 150 -34 13 -32 14 -60 -15z m64 -19 c7 -8 11 -30 9 -48 -3 -29 -6 -33 -33 -33 -27 0 -30 4 -33 33 -3 35 11 62 33 62 7 0 18 -6 24 -14z"/>
<path d="M2347 1193 c-8 -10 -18 -34 -22 -53 -9 -47 23 -90 66 -90 59 0 87 93 42 142 -21 23 -65 23 -86 1z m71 -25 c7 -7 12 -24 12 -38 0 -32 -17 -50 -46 -50 -29 0 -40 32 -24 71 13 30 37 38 58 17z"/>
<path d="M2530 1192 c-13 -11 -23 -33 -27 -60 -5 -36 -2 -47 17 -67 29 -30 49 -31 84 -4 36 28 37 89 1 124 -29 30 -45 31 -75 7z m58 -24 c7 -7 12 -26 12 -43 0 -34 -15 -55 -41 -55 -31 0 -40 67 -13 94 19 19 26 20 42 4z"/>
<path d="M956 1178 c-37 -33 -43 -76 -16 -111 29 -36 74 -34 103 5 18 24 19 32 8 67 -11 37 -34 61 -60 61 -5 0 -21 -10 -35 -22z m59 -63 c0 -33 -4 -41 -22 -43 -33 -5 -49 32 -28 64 25 38 50 27 50 -21z"/>
<path d="M1482 1193 c-18 -7 -42 -57 -42 -87 0 -32 52 -76 80 -69 31 8 60 51 60 89 0 55 -48 87 -98 67z m58 -44 c24 -44 -10 -96 -47 -73 -23 14 -26 34 -14 67 13 33 46 36 61 6z"/>
<path d="M2690 1120 c0 -6 32 -10 76 -10 47 0 73 4 69 10 -3 6 -37 10 -76 10 -39 0 -69 -4 -69 -10z"/>
<path d="M2011 1091 c-8 -5 -10 -18 -5 -34 7 -30 14 -33 32 -15 26 26 4 67 -27 49z"/>
<path d="M1306 1072 c-6 -11 4 -52 13 -52 13 0 31 24 31 42 0 18 -34 26 -44 10z"/>
<path d="M2227 803 c1 -117 3 -128 20 -128 16 0 18 8 16 60 l-3 60 18 -60 c9 -33 22 -59 27 -58 6 1 20 32 32 70 l22 68 0 -52 c1 -28 -3 -55 -9 -58 -26 -16 -4 -25 61 -25 53 0 70 3 66 13 -2 6 0 23 5 37 9 24 10 24 23 6 8 -11 12 -29 9 -43 -6 -23 -5 -23 68 -23 41 0 78 3 81 7 4 3 0 14 -9 24 -8 9 -14 28 -12 41 4 22 5 22 16 -7 24 -60 23 -60 123 -62 115 -3 124 0 109 27 -6 11 -10 42 -8 68 l3 47 38 -72 c27 -54 43 -73 57 -73 19 0 20 7 20 116 0 88 3 115 13 112 15 -6 22 -184 7 -202 -16 -20 -1 -26 67 -26 70 0 77 6 71 62 l-4 33 -13 -32 c-15 -38 -51 -47 -51 -13 0 11 7 20 15 20 12 0 15 13 15 56 0 47 -3 55 -16 50 -12 -5 -15 0 -12 21 4 36 26 40 38 7 14 -35 34 -18 24 20 -6 25 -9 26 -85 28 -43 0 -85 1 -91 2 -10 1 -12 -17 -10 -64 l4 -65 -34 65 -33 65 -45 -1 c-115 -3 -113 -3 -105 -21 13 -31 12 -183 -1 -201 -11 -15 -13 -15 -17 -2 -27 82 -27 82 -12 103 20 29 19 70 -2 96 -13 16 -33 24 -74 28 -58 6 -83 -7 -60 -30 13 -13 15 -193 2 -201 -5 -3 -22 47 -38 112 -32 130 -49 147 -70 72 -7 -25 -20 -74 -30 -109 -10 -35 -24 -66 -32 -69 -9 -3 -11 2 -8 14 3 11 7 62 9 114 2 92 2 95 -20 98 -32 5 -47 -11 -62 -63 -7 -25 -16 -45 -20 -45 -4 0 -11 17 -15 37 -10 56 -22 73 -53 73 l-27 0 2 -127z m623 -9 c0 -67 -4 -103 -10 -99 -6 3 -10 50 -10 106 0 59 4 99 10 99 6 0 10 -42 10 -106z m-172 58 c2 -24 -1 -32 -12 -32 -12 0 -16 10 -16 36 0 45 24 42 28 -4z"/>
</g>
</svg>