<?xml version="1.0" standalone="no"?>
<!DOCTYPE svg PUBLIC "-//W3C//DTD SVG 20010904//EN"
 "http://www.w3.org/TR/2001/REC-SVG-20010904/DTD/svg10.dtd">
<svg version="1.0" xmlns="http://www.w3.org/2000/svg"
 width="264.351629pt" height="283.651435pt" viewBox="0 0 264.351629 283.651435"
 preserveAspectRatio="xMidYMid meet">
<metadata>
Created by potrace 1.16, written by Peter Selinger 2001-2019
</metadata>
<g transform="translate(-8.517734,291.835208) scale(0.100000,-0.100000)"
fill="#000000" stroke="none">
<path d="M1295 2909 c-458 -66 -867 -365 -1071 -784 -109 -224 -139 -359 -139
-625 0 -266 30 -401 139 -625 190 -389 544 -667 976 -767 121 -27 382 -35 515
-14 214 33 432 121 609 247 167 119 385 366 402 455 13 69 5 75 -516 396 -267
164 -485 303 -485 308 0 5 218 144 485 308 428 263 487 303 503 335 26 51 17
81 -56 184 -215 303 -570 523 -937 578 -103 16 -328 18 -425 4z m68 -568 c35
-14 95 -69 114 -105 9 -18 17 -57 17 -91 1 -77 -35 -143 -97 -179 -55 -32 -88
-40 -141 -32 -199 30 -246 302 -68 396 40 21 133 27 175 11z"/>
</g>
</svg>
