<?xml version="1.0" standalone="no"?><!DOCTYPE svg PUBLIC "-//W3C//DTD SVG 20010904//EN" "http://www.w3.org/TR/2001/REC-SVG-20010904/DTD/svg10.dtd"><svg xmlns="http://www.w3.org/2000/svg" version="1.0" width="14.0969mm" height="16mm" viewBox="0 0 487.825442 553.681062" preserveAspectRatio="xMidYMid meet">
<metadata>
Created by potrace 1.16, written by Peter Selinger 2001-2019
</metadata>
<g transform="translate(-33.038767,553.681062) scale(0.100000,-0.100000)" fill="#000000" stroke="none">
<path d="M2525 5534 c-789 -59 -1384 -381 -1767 -954 -79 -119 -199 -356 -253 -504 -82 -223 -144 -509 -165 -761 -12 -157 -13 -3169 -1 -3235 11 -53 40 -80 88 -80 53 0 98 50 413 454 157 201 287 365 290 365 3 0 139 -170 302 -379 285 -362 300 -380 355 -406 51 -25 70 -28 154 -29 87 0 101 3 154 30 55 28 74 50 353 405 162 206 298 375 302 375 4 0 108 -128 232 -285 394 -502 364 -466 426 -497 50 -25 68 -28 153 -28 86 0 101 3 154 30 55 28 74 50 353 405 162 206 298 375 302 375 4 0 140 -169 301 -375 222 -283 306 -383 343 -407 78 -53 140 -40 175 36 15 33 16 169 19 1526 2 953 -1 1553 -7 1665 -39 656 -286 1247 -687 1646 -337 335 -760 532 -1314 610 -100 14 -561 27 -675 18z m-564 -1760 c179 -53 320 -194 373 -373 21 -72 21 -220 0 -292 -53 -181 -202 -327 -379 -374 -124 -32 -279 -14 -395 45 -103 53 -208 175 -252 295 -32 88 -33 274 0 360 62 167 215 305 381 344 62 15 213 12 272 -5z m1884 2 c177 -47 324 -188 377 -361 31 -98 30 -235 -1 -327 -58 -172 -202 -308 -372 -353 -81 -22 -214 -19 -295 6 -264 81 -428 354 -373 621 6 29 28 89 49 134 63 132 193 239 337 279 63 17 215 18 278 1z"/>
</g>
</svg>