<?xml version="1.0" standalone="no"?>
<!DOCTYPE svg PUBLIC "-//W3C//DTD SVG 20010904//EN"
 "http://www.w3.org/TR/2001/REC-SVG-20010904/DTD/svg10.dtd">
<svg version="1.0" xmlns="http://www.w3.org/2000/svg"
 width="354.275111pt" height="446.381270pt" viewBox="0 0 354.275111 446.381270"
 preserveAspectRatio="xMidYMid meet">
<metadata>
Created by potrace 1.16, written by Peter Selinger 2001-2019
</metadata>
<g transform="translate(-46.094119,446.930958) scale(0.100000,-0.100000)"
fill="#000000" stroke="none">
<path d="M1370 4457 c-15 -8 -34 -11 -45 -6 -33 13 -119 10 -140 -5 -11 -7
-46 -15 -77 -18 -36 -3 -65 -11 -78 -23 -13 -12 -39 -19 -79 -21 -56 -3 -131
-30 -146 -54 -3 -5 -20 -10 -37 -10 -44 0 -113 -36 -126 -66 -15 -31 -15 -79
-2 -105 8 -14 7 -27 -5 -48 -20 -40 -19 -90 4 -125 14 -20 17 -39 14 -67 -5
-32 0 -49 26 -90 21 -34 31 -63 31 -90 0 -31 8 -47 35 -78 19 -21 35 -46 35
-55 0 -33 42 -97 80 -124 23 -15 44 -41 50 -59 13 -38 56 -77 104 -94 22 -8
39 -24 50 -46 12 -25 31 -41 71 -59 l55 -26 -58 -38 c-204 -131 -314 -318
-328 -555 -6 -103 -22 -141 -71 -175 -94 -64 -197 -213 -239 -345 -66 -205
-33 -417 92 -591 30 -41 57 -87 60 -102 3 -15 25 -88 49 -162 24 -74 51 -165
60 -203 53 -212 231 -424 422 -503 19 -8 81 -46 138 -85 96 -65 231 -137 315
-169 19 -7 51 -28 70 -45 95 -88 199 -149 318 -188 57 -18 90 -22 217 -22 127
0 160 4 217 22 117 38 220 99 318 187 19 18 71 47 115 66 96 41 210 105 285
160 30 22 79 52 109 66 224 105 383 297 440 532 10 42 37 133 60 201 23 68 41
132 41 141 0 9 15 37 33 61 59 76 89 131 120 214 28 74 31 90 31 210 0 113 -3
140 -26 207 -47 141 -145 282 -242 349 -46 31 -63 76 -70 179 -14 230 -118
410 -312 539 l-73 49 57 29 c40 20 61 37 71 59 10 23 24 35 51 43 40 12 96 67
106 104 3 12 23 34 44 49 39 27 80 91 80 124 0 9 16 34 35 55 29 32 35 47 35
83 0 25 5 48 10 51 22 14 51 88 49 123 -1 21 5 51 14 69 21 40 22 102 2 131
-12 16 -13 27 -5 41 14 28 12 77 -5 110 -16 31 -77 61 -125 61 -16 0 -32 5
-35 10 -15 24 -90 51 -146 54 -40 2 -66 9 -79 21 -13 12 -42 20 -78 23 -31 3
-66 11 -77 18 -21 15 -107 18 -140 5 -11 -5 -30 -2 -45 6 -34 17 -82 16 -128
-3 -25 -10 -51 -13 -79 -9 -32 5 -55 1 -89 -14 -26 -12 -66 -21 -91 -21 -50 0
-87 -16 -122 -54 -17 -18 -35 -26 -57 -26 -84 0 -212 -155 -291 -349 -9 -23
-11 -20 -33 38 -57 153 -197 311 -275 311 -21 0 -40 9 -56 26 -36 38 -72 54
-126 54 -30 0 -64 8 -88 21 -30 15 -50 19 -82 14 -27 -4 -59 0 -88 9 -56 19
-92 20 -125 3z m24 -158 c32 -16 62 -26 67 -23 13 8 11 38 -3 52 -33 33 64
-14 112 -54 32 -27 33 -27 47 -8 8 10 12 27 9 36 -3 15 -1 16 17 7 12 -6 41
-30 65 -53 42 -40 44 -40 58 -22 8 11 11 29 8 40 -3 12 25 -9 67 -52 66 -67
74 -72 86 -56 7 9 14 22 16 28 5 13 2 16 62 -59 71 -87 127 -213 133 -296 3
-39 -1 -82 -8 -104 -14 -43 -71 -110 -110 -130 -25 -13 -30 -11 -98 39 -134
102 -326 213 -492 286 -126 56 -301 122 -307 116 -3 -3 31 -23 75 -45 264
-133 564 -334 685 -458 l37 -39 -31 -62 c-63 -128 -200 -196 -419 -209 l-105
-6 24 20 c13 11 21 24 18 30 -4 5 -39 13 -79 16 -40 4 -88 12 -106 18 -32 11
-33 12 -13 26 12 8 21 17 21 21 0 4 -34 18 -75 31 -42 14 -83 30 -93 37 -15
11 -13 14 18 26 l34 14 -78 42 c-43 24 -90 51 -104 62 l-25 20 36 0 c20 0 38
4 41 9 4 5 -22 29 -57 54 -35 25 -69 52 -76 61 -12 14 -10 16 17 16 17 0 33 4
37 9 3 5 -20 33 -51 63 -31 29 -60 60 -65 70 -8 15 -5 16 23 12 18 -3 40 0 48
5 12 8 3 21 -48 70 -34 32 -62 64 -62 70 0 7 13 9 39 5 22 -4 41 -2 45 4 3 6
-11 45 -33 86 l-39 76 99 0 c54 0 99 3 99 7 0 4 -10 18 -22 31 l-23 24 80 -6
c44 -3 97 -8 118 -12 31 -5 37 -3 37 12 0 9 -7 26 -17 36 -20 23 -14 23 75 -2
39 -11 79 -20 87 -20 22 0 19 20 -7 48 l-23 24 35 -7 c19 -4 61 -20 94 -36z
m1628 6 c-2 -19 -2 -35 1 -35 3 0 33 13 68 29 35 16 77 32 93 35 l28 7 -21
-27 c-34 -43 -14 -50 80 -25 46 11 85 19 87 16 3 -3 -3 -14 -13 -25 -30 -33
-7 -46 56 -32 28 7 78 12 112 12 l61 0 -29 -30 -29 -30 102 0 c56 0 102 -2
102 -5 0 -3 -14 -27 -31 -54 -16 -28 -31 -63 -32 -78 -2 -26 0 -28 36 -27 20
1 37 -3 37 -9 0 -6 -27 -37 -61 -70 -52 -52 -58 -62 -44 -70 9 -5 30 -6 46 -3
16 3 29 2 29 -2 0 -4 -29 -36 -65 -72 -35 -35 -62 -67 -59 -72 3 -4 19 -8 36
-8 l31 0 -23 -25 c-13 -14 -47 -41 -77 -62 -56 -39 -56 -53 2 -53 l30 0 -30
-24 c-16 -14 -58 -38 -92 -55 -68 -34 -83 -48 -59 -56 51 -16 51 -17 1 -40
-27 -13 -72 -29 -98 -35 -50 -13 -56 -27 -18 -46 22 -11 22 -12 -11 -23 -18
-6 -66 -14 -106 -18 -40 -3 -75 -10 -78 -15 -3 -5 2 -19 13 -30 l18 -21 -100
6 c-205 13 -345 78 -409 191 -43 74 -43 77 24 142 123 119 332 260 598 404 73
40 132 74 130 76 -8 8 -250 -90 -383 -155 -156 -75 -284 -152 -405 -242 l-81
-60 -47 34 c-53 37 -75 71 -93 139 -24 90 31 246 133 377 50 63 68 75 68 42 0
-41 24 -31 90 40 56 60 69 70 70 52 0 -29 10 -53 21 -53 5 0 28 18 51 41 23
22 50 45 60 50 15 8 18 6 18 -13 0 -13 4 -29 9 -37 8 -12 13 -12 33 3 45 33
112 76 118 76 3 0 4 -16 2 -35z m-662 -1109 c198 -48 350 -174 350 -288 0 -36
-28 -90 -63 -120 -38 -34 -140 -76 -219 -92 -281 -57 -591 42 -639 203 -10 35
-10 46 6 82 37 81 186 182 316 214 72 17 181 18 249 1z m-654 -89 c15 -15 -36
-93 -114 -173 -239 -247 -569 -478 -603 -423 -14 23 2 160 28 239 31 96 70
155 146 226 68 63 156 108 252 130 64 14 277 15 291 1z m1427 -31 c99 -33 169
-78 230 -146 87 -97 136 -225 140 -364 l2 -71 -39 2 c-107 7 -572 385 -661
537 -40 69 -24 76 145 72 81 -3 123 -10 183 -30z m-300 -427 c115 -17 207 -67
303 -163 65 -65 90 -98 123 -167 160 -332 -15 -679 -344 -680 -137 -1 -263 51
-372 155 -112 106 -179 241 -190 385 -19 264 139 457 395 480 7 0 46 -4 85
-10z m-990 -34 c123 -37 207 -110 260 -223 27 -58 31 -81 35 -174 4 -90 1
-117 -18 -175 -37 -113 -80 -183 -160 -263 -197 -198 -475 -226 -648 -65 -68
63 -106 127 -127 216 -19 80 -19 135 0 223 57 269 291 473 545 475 36 1 87 -6
113 -14z m1771 -294 c151 -104 235 -279 223 -466 -8 -132 -47 -232 -119 -311
-75 -82 -125 -50 -188 118 -89 240 -98 626 -16 680 22 15 58 7 100 -21z
m-2644 -3 c75 -81 56 -447 -37 -693 -27 -71 -86 -145 -115 -145 -24 0 -107 96
-134 155 -111 242 -38 531 170 671 59 40 87 43 116 12z m1393 -633 c253 -53
429 -289 390 -521 -35 -201 -204 -359 -424 -395 -226 -37 -458 80 -552 278
-30 64 -32 74 -32 184 0 113 1 116 38 191 100 204 342 314 580 263z m1097
-183 c47 -23 74 -67 95 -153 34 -138 19 -313 -35 -420 -53 -103 -180 -228
-285 -282 -120 -60 -272 -75 -357 -33 -104 50 -105 252 -3 473 42 90 100 167
199 261 160 152 289 203 386 154z m-2245 -87 c125 -55 269 -184 339 -305 84
-143 118 -349 71 -429 -38 -65 -64 -76 -178 -75 -86 1 -112 5 -165 27 -232 96
-382 320 -384 572 -1 93 20 171 55 203 51 48 164 51 262 7z m1310 -830 c76
-20 163 -60 192 -87 105 -98 -180 -330 -433 -354 -155 -14 -345 58 -466 177
-73 71 -84 102 -53 146 33 47 198 114 330 133 93 14 360 4 430 -15z"/>
</g>
</svg>
