<?xml version="1.0" standalone="no"?><!DOCTYPE svg PUBLIC "-//W3C//DTD SVG 20010904//EN" "http://www.w3.org/TR/2001/REC-SVG-20010904/DTD/svg10.dtd"><svg xmlns="http://www.w3.org/2000/svg" version="1.0" width="16mm" height="11.7767mm" viewBox="0 0 481.000000 354.035557" preserveAspectRatio="xMidYMid meet">
<metadata>
Created by potrace 1.16, written by Peter Selinger 2001-2019
</metadata>
<g transform="translate(-12.000000,372.035557) scale(0.100000,-0.100000)" fill="#000000" stroke="none">
<path d="M920 3475 l0 -245 240 0 240 0 0 -235 0 -235 -240 0 -240 0 0 -160 0 -160 -42 -2 c-24 -2 -95 -3 -158 -3 l-115 0 -3 -243 -2 -242 -240 0 -240 0 0 -645 0 -645 240 0 240 0 0 399 0 398 95 7 c53 3 125 3 160 0 l65 -7 0 -398 0 -399 240 0 240 0 0 -240 0 -240 485 0 485 0 0 245 0 245 -480 0 -480 0 0 155 0 155 1115 0 1115 0 0 -155 0 -155 -480 0 -480 0 0 -245 0 -245 485 0 485 0 0 240 0 240 160 0 160 0 0 403 0 402 238 0 237 0 3 -403 2 -402 240 0 240 0 0 645 0 645 -237 2 -238 3 -3 236 -2 237 -119 7 c-66 4 -124 4 -131 0 -6 -4 -60 -3 -120 0 l-110 8 0 158 0 159 -160 0 -160 0 0 235 0 235 240 0 240 0 0 245 0 245 -242 -2 -243 -3 -3 -237 -2 -238 -238 -2 -237 -3 -3 -237 -2 -238 -635 0 -635 0 -2 238 -3 237 -237 3 -238 2 -2 238 -3 237 -242 3 -243 2 0 -245z m960 -1285 l0 -240 -235 0 -235 0 0 240 0 240 235 0 235 0 0 -240z m1760 0 l0 -240 -235 0 -235 0 0 240 0 240 235 0 235 0 0 -240z"/>
</g>
</svg>