<?xml version="1.0" standalone="no"?>
<!DOCTYPE svg PUBLIC "-//W3C//DTD SVG 20010904//EN"
 "http://www.w3.org/TR/2001/REC-SVG-20010904/DTD/svg10.dtd">
<svg version="1.0" xmlns="http://www.w3.org/2000/svg"
 width="397.742995pt" height="460.795700pt" viewBox="0 0 397.742995 460.795700"
 preserveAspectRatio="xMidYMid meet">
<metadata>
Created by potrace 1.16, written by Peter Selinger 2001-2019
</metadata>
<g transform="translate(-13.063420,467.871829) scale(0.100000,-0.100000)"
fill="#000000" stroke="none">
<path d="M1185 4666 c-39 -17 -234 -203 -289 -275 -23 -31 -75 -108 -114 -173
-213 -344 -284 -540 -397 -1088 -32 -157 -44 -237 -40 -265 10 -66 19 -69 89
-31 101 56 164 70 306 70 115 0 266 -18 460 -56 118 -22 401 -130 404 -153 0
-5 -30 -13 -69 -18 -38 -4 -110 -14 -160 -22 -49 -8 -136 -17 -193 -20 -170
-11 -214 -20 -335 -74 -146 -65 -326 -123 -447 -145 -86 -16 -96 -16 -135 -1
-24 8 -51 25 -60 35 -10 11 -21 20 -25 20 -4 0 -17 -22 -30 -49 -21 -45 -22
-59 -16 -143 26 -365 193 -955 399 -1414 165 -367 140 -327 332 -520 93 -94
191 -184 216 -202 84 -57 191 -87 227 -63 10 6 -34 56 -160 182 -251 252 -271
281 -438 660 -194 436 -248 633 -257 930 -9 272 3 288 304 408 82 33 213 77
289 97 76 20 192 51 257 70 143 41 170 42 97 5 -188 -96 -470 -314 -540 -418
-31 -46 -32 -51 -27 -123 10 -136 139 -502 277 -785 72 -148 134 -250 282
-461 l57 -81 73 -21 c95 -28 164 -36 232 -27 44 5 56 10 56 24 0 31 -24 51
-100 84 -150 65 -195 107 -292 271 -145 244 -213 426 -283 757 l-27 126 20 45
c10 24 60 96 110 159 95 120 179 194 320 282 80 50 252 141 252 132 0 -2 -19
-96 -42 -207 -39 -191 -41 -213 -42 -378 -1 -307 56 -511 204 -724 46 -67 103
-116 118 -101 3 3 8 52 9 108 l3 102 66 3 66 3 -7 -60 c-8 -71 2 -161 18 -161
20 0 112 105 152 175 86 147 121 254 151 458 21 139 14 327 -16 472 -30 143
-60 299 -60 308 0 5 53 -19 118 -53 113 -59 267 -163 344 -232 52 -46 196
-234 220 -287 l20 -44 -22 -106 c-61 -289 -128 -487 -218 -651 -73 -132 -136
-236 -161 -264 -35 -39 -150 -113 -218 -141 -62 -25 -97 -65 -75 -87 23 -23
185 -16 275 11 l77 24 108 156 c178 255 265 424 390 756 74 199 112 329 119
416 5 61 3 72 -21 113 -34 58 -203 210 -314 282 -48 31 -100 66 -117 78 -16
11 -61 38 -100 58 -78 42 -69 48 27 18 35 -11 127 -36 203 -55 214 -55 239
-63 399 -127 169 -67 225 -97 260 -139 37 -43 46 -89 46 -224 -1 -265 -59
-508 -206 -852 -80 -186 -172 -383 -216 -460 -48 -86 -191 -248 -349 -396 -83
-78 -101 -100 -89 -107 37 -24 146 6 227 61 27 18 125 110 218 203 191 192
169 157 325 506 167 372 322 864 365 1158 9 59 20 121 25 137 4 17 11 73 15
126 6 86 4 102 -15 148 -13 28 -24 51 -27 51 -2 0 -25 -16 -51 -36 -45 -35
-49 -36 -107 -29 -128 14 -319 72 -509 155 -121 53 -180 66 -346 75 -58 4
-141 13 -185 20 -44 8 -115 17 -157 21 -43 4 -78 11 -78 15 0 12 55 39 192 93
95 38 149 52 295 77 98 16 236 35 306 41 159 15 250 0 369 -60 85 -43 91 -42
103 19 7 37 -13 145 -90 494 -83 377 -184 614 -413 970 -60 93 -296 328 -346
345 -21 7 -40 9 -43 6 -13 -12 23 -70 79 -129 109 -113 229 -314 293 -492 114
-313 185 -546 215 -708 12 -60 19 -111 17 -113 -2 -2 -69 -16 -148 -30 -303
-53 -450 -102 -857 -281 -12 -5 -12 -2 0 16 22 37 176 160 298 239 63 41 126
82 140 92 14 9 53 36 88 59 34 24 62 50 62 59 0 10 -38 143 -84 297 -47 154
-103 343 -126 420 -22 77 -54 167 -69 200 -32 68 -105 146 -164 176 -31 16
-120 48 -135 49 -12 0 18 -63 50 -104 50 -67 74 -145 104 -350 14 -92 33 -209
44 -260 10 -50 23 -141 30 -203 14 -135 9 -147 -82 -225 -35 -29 -125 -115
-201 -190 -76 -76 -142 -136 -148 -133 -5 4 -9 17 -9 31 0 36 -46 169 -81 234
-39 73 -117 172 -132 167 -8 -2 -14 -44 -18 -123 -3 -77 -11 -129 -21 -147
l-15 -29 -28 24 c-28 24 -28 28 -34 148 -4 78 -10 125 -17 127 -17 6 -88 -84
-133 -168 -40 -76 -81 -193 -81 -234 0 -13 -4 -26 -9 -30 -6 -3 -72 56 -148
132 -76 76 -172 168 -213 204 l-75 66 3 94 c1 53 17 178 37 284 19 105 39 228
45 275 13 99 37 204 56 241 7 15 28 46 47 71 37 48 57 104 35 96 -7 -3 -38
-13 -68 -23 -60 -19 -100 -46 -156 -103 -61 -63 -85 -121 -179 -447 -26 -88
-73 -247 -106 -354 -32 -106 -59 -202 -59 -213 0 -13 43 -47 153 -118 83 -54
193 -128 242 -164 91 -67 199 -165 191 -174 -3 -2 -63 21 -134 52 -265 114
-449 171 -706 217 -87 16 -161 31 -164 34 -7 6 24 158 60 295 28 110 90 296
176 536 60 166 180 367 291 486 99 107 109 150 26 114z"/>
</g>
</svg>
