<?xml version="1.0" standalone="no"?>
<!DOCTYPE svg PUBLIC "-//W3C//DTD SVG 20010904//EN"
 "http://www.w3.org/TR/2001/REC-SVG-20010904/DTD/svg10.dtd">
<svg version="1.0" xmlns="http://www.w3.org/2000/svg"
 width="319.887506pt" height="513.530474pt" viewBox="0 0 319.887506 513.530474"
 preserveAspectRatio="xMidYMid meet">
<metadata>
Created by potrace 1.16, written by Peter Selinger 2001-2019
</metadata>
<g transform="translate(-21.112494,535.000000) scale(0.100000,-0.100000)"
fill="#000000" stroke="none">
<path d="M1772 5288 c-443 -691 -786 -1409 -1030 -2158 -241 -738 -400 -1523
-491 -2420 -24 -234 -44 -490 -39 -495 2 -2 47 51 100 118 294 372 539 648
848 958 405 406 761 690 972 777 77 31 221 42 296 22 189 -52 371 -223 551
-520 116 -193 291 -572 387 -841 26 -73 44 -106 44 -80 0 12 -48 285 -85 486
-8 44 -42 226 -75 405 -92 496 -152 778 -239 1120 -223 880 -501 1572 -904
2250 -104 175 -277 440 -287 440 -4 0 -26 -28 -48 -62z m68 -729 c5 -35 16
-127 25 -204 8 -77 22 -189 30 -250 8 -60 31 -245 51 -410 20 -165 40 -302 44
-305 5 -3 87 -32 184 -65 97 -33 176 -63 176 -67 0 -5 -4 -8 -8 -8 -4 0 -77
-37 -162 -83 l-155 -83 2 -54 c1 -30 8 -116 16 -190 8 -74 14 -136 12 -138 -1
-2 -51 81 -110 183 -70 122 -111 183 -117 177 -6 -6 -59 -93 -119 -194 -75
-126 -109 -175 -109 -158 0 23 20 210 36 332 l6 46 -163 82 c-90 45 -167 85
-171 89 -4 4 74 33 173 66 141 47 183 64 188 80 4 11 41 291 82 622 41 331 75
600 77 598 2 -1 7 -31 12 -66z"/>
</g>
</svg>
