<?xml version="1.0" standalone="no"?><!DOCTYPE svg PUBLIC "-//W3C//DTD SVG 20010904//EN" "http://www.w3.org/TR/2001/REC-SVG-20010904/DTD/svg10.dtd"><svg xmlns="http://www.w3.org/2000/svg" version="1.0" width="13.2261mm" height="16mm" viewBox="0 0 332.886556 402.701370" preserveAspectRatio="xMidYMid meet">
<metadata>
Created by potrace 1.16, written by Peter Selinger 2001-2019
</metadata>
<g transform="translate(-57.000000,424.701370) scale(0.100000,-0.100000)" fill="#000000" stroke="none">
<path d="M2129 4237 c-68 -19 -130 -60 -186 -121 -154 -168 -118 -452 73 -573 77 -49 141 -66 236 -61 175 8 310 118 354 288 59 233 -114 467 -354 477 -43 1 -97 -3 -123 -10z m162 -178 c89 -30 143 -106 143 -199 -2 -211 -288 -277 -385 -88 -12 24 -19 58 -19 96 0 80 37 139 111 176 58 28 97 32 150 15z"/>
<path d="M2075 2978 c-82 -150 -179 -327 -216 -393 -92 -167 -428 -779 -599 -1090 -78 -143 -154 -280 -168 -305 -13 -25 -101 -184 -195 -355 -93 -171 -205 -374 -248 -452 -44 -78 -79 -146 -79 -152 0 -8 131 -11 445 -11 293 0 445 3 445 10 0 6 -50 109 -110 230 -61 121 -110 227 -110 235 0 8 138 271 306 583 168 312 390 723 492 914 140 259 190 344 198 335 6 -7 165 -284 354 -617 189 -333 419 -739 513 -903 l169 -298 -87 -212 c-48 -117 -94 -224 -102 -240 -11 -22 -11 -28 -1 -32 7 -3 194 -4 415 -3 l402 3 -60 110 c-149 270 -295 537 -339 615 -26 47 -135 245 -243 440 -107 195 -367 668 -577 1050 -211 382 -397 721 -414 752 -17 32 -33 58 -36 58 -3 0 -72 -123 -155 -272z"/>
</g>
</svg>