<?xml version="1.0" standalone="no"?>
<!DOCTYPE svg PUBLIC "-//W3C//DTD SVG 20010904//EN"
 "http://www.w3.org/TR/2001/REC-SVG-20010904/DTD/svg10.dtd">
<svg version="1.0" xmlns="http://www.w3.org/2000/svg"
 width="435.513531pt" height="377.829988pt" viewBox="0 0 435.513531 377.829988"
 preserveAspectRatio="xMidYMid meet">
<metadata>
Created by potrace 1.16, written by Peter Selinger 2001-2019
</metadata>
<g transform="translate(-2.986469,414.462405) scale(0.100000,-0.100000)"
fill="#000000" stroke="none">
<path d="M2783 4142 c-18 -11 -19 -44 -2 -55 22 -14 49 -2 49 22 0 23 -30 43
-47 33z"/>
<path d="M1410 4033 c0 -6 17 -49 39 -95 21 -45 48 -103 58 -128 11 -25 37
-83 58 -130 21 -47 48 -107 60 -135 13 -27 42 -93 65 -145 90 -205 82 -192
121 -178 16 5 32 14 35 19 5 8 -26 71 -109 219 -28 50 -233 425 -280 510 -33
61 -47 80 -47 63z"/>
<path d="M2692 4028 c-26 -26 -5 -88 29 -88 37 0 59 19 59 50 0 43 -58 68 -88
38z"/>
<path d="M2597 3882 c-39 -43 -8 -112 49 -112 31 0 63 43 56 75 -9 50 -74 72
-105 37z"/>
<path d="M2314 3809 c-102 -39 -190 -151 -202 -256 -5 -51 4 -54 40 -13 46 52
120 32 98 -26 -15 -40 -66 -66 -145 -75 -52 -5 -84 -15 -105 -30 -16 -13 -30
-25 -30 -29 0 -3 14 -11 30 -17 37 -14 40 -45 5 -61 -14 -6 -25 -16 -25 -22 0
-6 4 -9 9 -5 26 16 231 25 328 15 263 -28 469 -126 653 -310 199 -199 291
-412 306 -705 4 -66 7 -121 8 -122 5 -6 93 33 110 49 50 45 71 118 47 157 -7
11 -11 10 -20 -7 -27 -50 -101 -29 -101 29 0 38 24 85 51 99 17 10 24 7 43
-15 l23 -27 7 36 c8 43 -14 97 -50 120 -13 9 -46 21 -73 27 -62 13 -101 42
-101 75 0 30 14 31 35 2 16 -23 16 -23 30 -4 29 38 19 83 -29 134 -54 58 -71
95 -55 124 11 20 39 21 82 3 24 -10 23 30 -3 73 -24 40 -61 55 -117 49 -31 -3
-43 -1 -43 8 0 8 -11 27 -25 43 -21 25 -24 34 -15 57 5 14 10 46 10 70 0 34
-5 47 -22 60 -22 15 -23 15 -26 -12 -6 -44 -21 -57 -43 -37 -31 28 -25 80 15
120 28 28 41 34 78 34 47 0 68 -13 68 -42 0 -28 24 -21 43 11 44 74 26 175
-36 208 -42 21 -123 12 -173 -20 -33 -20 -48 -23 -94 -20 -49 4 -58 2 -79 -21
-15 -15 -27 -45 -31 -73 -9 -55 -7 -61 16 -42 14 11 18 11 30 -5 29 -40 -35
-93 -104 -87 -7 0 -17 12 -22 26 -5 14 -23 34 -40 43 -37 21 -33 37 10 35 l32
-1 -4 54 c-3 34 -12 61 -24 75 -19 21 -85 59 -103 59 -5 0 -8 -22 -8 -50 2
-60 -25 -97 -65 -86 -32 8 -107 82 -115 114 -15 62 38 168 97 192 l32 13 -24
13 c-34 19 -125 16 -184 -7z"/>
<path d="M37 3733 c-13 -12 -7 -44 9 -50 20 -7 45 22 37 43 -5 14 -35 19 -46
7z"/>
<path d="M1091 3711 c-13 -23 10 -47 34 -37 20 7 19 42 -1 50 -22 8 -22 8 -33
-13z"/>
<path d="M122 3670 c-16 -26 -15 -45 3 -60 22 -19 64 -4 71 25 12 49 -48 77
-74 35z"/>
<path d="M1155 3627 c-18 -29 -12 -53 17 -61 36 -9 60 11 56 47 -2 26 -8 33
-30 35 -19 2 -31 -3 -43 -21z"/>
<path d="M236 3598 c-20 -29 -20 -52 0 -72 21 -21 57 -20 77 2 22 24 21 55 -1
75 -26 23 -58 21 -76 -5z"/>
<path d="M1245 3534 c-20 -21 -16 -73 7 -88 11 -7 26 -7 45 0 51 18 41 104
-13 104 -12 0 -30 -7 -39 -16z"/>
<path d="M3567 3503 c-16 -15 -6 -52 15 -59 28 -9 52 20 37 47 -10 19 -39 25
-52 12z"/>
<path d="M420 3470 c0 -4 16 -21 36 -36 20 -16 136 -109 258 -208 403 -326
555 -446 563 -446 4 0 23 23 42 51 19 27 47 64 62 82 16 18 29 34 29 37 0 3
-30 21 -68 40 -62 32 -112 59 -367 195 -49 26 -151 79 -225 118 -74 39 -179
94 -232 123 -54 29 -98 49 -98 44z"/>
<path d="M3446 3437 c-22 -16 -18 -65 5 -80 47 -29 101 32 64 73 -21 23 -44
25 -69 7z"/>
<path d="M3280 3340 c-41 -41 -14 -110 42 -110 55 0 81 83 36 114 -30 21 -54
20 -78 -4z"/>
<path d="M1380 3346 c0 -6 149 -259 159 -269 6 -6 30 7 65 33 l57 41 -85 64
c-145 110 -196 144 -196 131z"/>
<path d="M2164 2893 c-56 -91 -265 -429 -395 -638 -64 -104 -133 -215 -152
-245 -57 -92 -82 -138 -76 -144 4 -4 947 -8 1317 -6 13 0 22 6 22 15 0 8 -37
74 -83 147 -46 73 -139 223 -206 333 -68 110 -134 216 -146 235 -35 56 -126
201 -177 284 -26 42 -52 76 -58 76 -5 0 -26 -26 -46 -57z m336 -523 c-6 -12
-47 -78 -90 -148 -44 -70 -101 -162 -127 -205 -64 -104 -71 -113 -76 -107 -4
4 -258 413 -291 468 -6 9 56 12 294 12 300 0 301 0 290 -20z"/>
<path d="M1762 2863 c2 -10 10 -18 18 -18 8 0 16 8 18 18 2 12 -3 17 -18 17
-15 0 -20 -5 -18 -17z"/>
<path d="M2625 2840 c-4 -7 -3 -16 3 -22 14 -14 45 -2 40 15 -6 16 -34 21 -43
7z"/>
<path d="M1687 2763 c-14 -13 -7 -53 11 -62 37 -20 70 27 40 57 -13 13 -41 16
-51 5z"/>
<path d="M2674 2746 c-12 -31 0 -51 31 -51 27 0 30 3 30 30 0 25 -4 30 -28 33
-17 2 -29 -2 -33 -12z"/>
<path d="M1569 2631 c-33 -33 -36 -58 -14 -101 37 -72 155 -45 155 36 0 46 -9
63 -41 79 -42 22 -67 18 -100 -14z"/>
<path d="M2755 2635 c-38 -21 -45 -32 -45 -76 0 -49 37 -83 87 -82 72 2 108
84 61 137 -30 33 -66 40 -103 21z"/>
<path d="M688 2550 c12 -5 91 -27 175 -49 84 -22 179 -47 212 -55 32 -9 64
-16 71 -16 9 0 39 109 31 115 -1 1 -117 5 -257 8 -166 4 -247 3 -232 -3z"/>
<path d="M3526 2464 c-37 -36 -7 -104 45 -104 45 0 75 42 60 83 -15 39 -75 51
-105 21z"/>
<path d="M1517 2436 c-24 -24 -10 -56 24 -56 33 0 48 23 32 49 -14 22 -38 25
-56 7z"/>
<path d="M2864 2419 c-20 -23 -11 -51 20 -57 41 -8 63 48 27 68 -26 13 -25 13
-47 -11z"/>
<path d="M3712 2428 c-28 -28 -3 -88 37 -88 10 0 26 9 36 20 27 30 10 74 -30
78 -17 2 -36 -3 -43 -10z"/>
<path d="M3862 2393 c-13 -24 3 -53 29 -53 24 0 36 27 22 49 -15 23 -40 25
-51 4z"/>
<path d="M1070 2289 c-30 -16 -65 -44 -77 -62 -32 -47 -34 -137 -2 -137 5 0 9
7 9 15 0 8 10 19 21 26 29 15 66 -3 75 -35 8 -33 -13 -92 -39 -111 -19 -13
-23 -13 -42 5 -30 29 -35 25 -35 -24 0 -63 45 -110 115 -120 80 -12 143 -62
115 -90 -8 -8 -16 -4 -29 12 -14 19 -19 21 -28 10 -34 -42 -21 -97 33 -141 67
-56 84 -137 28 -137 -14 0 -34 5 -45 10 -17 10 -19 7 -19 -24 0 -27 8 -41 37
-66 33 -29 41 -32 90 -28 39 3 53 1 53 -8 0 -7 12 -24 26 -37 24 -22 25 -27
15 -63 -16 -59 -13 -91 11 -114 30 -27 38 -25 38 10 0 34 22 49 45 30 19 -16
19 -79 0 -104 -24 -32 -68 -56 -101 -56 -31 0 -64 25 -64 49 0 23 -25 6 -42
-30 -31 -60 -20 -142 25 -180 48 -40 136 -33 201 16 26 19 39 22 77 18 25 -3
55 0 66 6 27 14 53 71 53 116 0 32 -2 36 -15 25 -20 -17 -45 -5 -45 20 0 31
47 70 84 70 25 0 36 -7 49 -30 10 -16 29 -33 43 -36 36 -9 27 -39 -11 -39 -29
0 -30 -1 -27 -43 3 -56 24 -86 76 -112 62 -30 66 -27 66 35 0 47 3 57 25 71
31 20 50 14 109 -41 l48 -45 -4 -59 c-5 -68 -36 -124 -81 -144 -32 -14 -30
-29 4 -38 112 -32 261 50 324 178 26 54 46 153 31 153 -4 0 -22 -16 -40 -35
-37 -39 -79 -47 -94 -17 -26 48 45 109 145 123 99 14 152 57 93 77 -40 14 -40
46 0 67 38 19 39 30 3 20 -136 -37 -401 -32 -548 10 -451 128 -764 518 -777
968 -2 49 -5 90 -8 91 -3 2 -30 -10 -60 -25z"/>
<path d="M2943 2294 c-8 -21 13 -42 28 -27 13 13 5 43 -11 43 -6 0 -13 -7 -17
-16z"/>
<path d="M1444 2289 c-9 -15 12 -33 30 -26 9 4 16 13 16 22 0 17 -35 21 -46 4z"/>
<path d="M722 2094 c-48 -33 -17 -114 44 -114 51 0 75 84 32 114 -12 9 -29 16
-38 16 -9 0 -26 -7 -38 -16z"/>
<path d="M550 2072 c-47 -38 5 -111 56 -77 28 18 32 56 8 79 -20 21 -37 20
-64 -2z"/>
<path d="M3246 2034 c-4 -31 -5 -58 -4 -60 4 -3 423 -7 478 -4 32 2 -411 120
-451 120 -12 0 -18 -14 -23 -56z"/>
<path d="M420 2055 c-19 -23 -8 -50 20 -50 16 0 26 6 28 18 4 18 -14 47 -28
47 -4 0 -13 -7 -20 -15z"/>
<path d="M3106 1691 c-16 -27 -42 -63 -58 -80 -16 -17 -28 -37 -26 -43 4 -12
43 -32 508 -270 173 -88 352 -180 396 -204 45 -24 84 -41 87 -38 3 4 -18 25
-47 48 -94 72 -126 98 -336 262 -382 299 -480 374 -488 374 -4 0 -20 -22 -36
-49z"/>
<path d="M2169 1655 c-84 -46 -33 -181 62 -160 30 7 69 51 69 80 0 32 -30 73
-61 84 -39 13 -38 13 -70 -4z"/>
<path d="M2009 1593 c-36 -8 -27 -73 9 -73 39 0 57 52 25 68 -10 5 -25 7 -34
5z"/>
<path d="M2357 1594 c-12 -12 -8 -51 7 -63 24 -20 58 4 54 37 -2 20 -9 28 -28
30 -14 2 -29 0 -33 -4z"/>
<path d="M1881 1566 c-14 -17 -7 -36 14 -36 22 0 29 20 13 36 -13 13 -16 13
-27 0z"/>
<path d="M2494 1569 c-3 -6 0 -17 8 -25 13 -13 16 -13 27 0 7 8 10 20 6 26 -8
13 -32 13 -41 -1z"/>
<path d="M2818 1407 c-26 -18 -46 -36 -44 -42 3 -13 267 -207 274 -201 8 9
-155 271 -169 273 -8 0 -35 -13 -61 -30z"/>
<path d="M2610 1285 c-41 -15 -41 -19 10 -105 59 -101 318 -555 369 -648 25
-45 47 -79 49 -74 2 8 -16 49 -113 257 -18 39 -62 133 -98 210 -35 77 -85 183
-110 236 -24 53 -48 105 -51 117 -8 25 -9 25 -56 7z"/>
<path d="M1070 1180 c-51 -51 4 -127 71 -100 16 7 32 23 35 35 6 23 -10 64
-30 77 -20 14 -56 8 -76 -12z"/>
<path d="M3102 1088 c-7 -7 -12 -24 -12 -38 0 -33 17 -50 50 -50 45 0 66 32
50 75 -8 20 -17 25 -43 25 -18 0 -38 -5 -45 -12z"/>
<path d="M935 1044 c-16 -16 -13 -46 7 -71 17 -21 56 -15 73 11 35 53 -35 105
-80 60z"/>
<path d="M4133 1020 c-32 -13 -48 -47 -35 -75 15 -32 47 -40 78 -20 49 32 12
116 -43 95z"/>
<path d="M3223 979 c-31 -11 -32 -64 -2 -79 16 -9 25 -8 40 6 40 36 11 92 -38
73z"/>
<path d="M843 934 c-7 -18 6 -45 24 -51 6 -2 18 3 27 12 12 12 13 21 6 36 -13
23 -48 25 -57 3z"/>
<path d="M4236 911 c-18 -19 -18 -22 -2 -46 21 -33 53 -32 68 1 23 49 -30 85
-66 45z"/>
<path d="M3294 865 c-7 -17 2 -45 14 -45 20 0 43 26 36 43 -8 21 -43 22 -50 2z"/>
<path d="M4344 836 c-9 -24 4 -48 23 -44 12 2 18 12 18 28 0 29 -32 41 -41 16z"/>
<path d="M1833 750 c-23 -9 -37 -45 -31 -76 5 -26 49 -48 80 -41 53 14 58 90
8 117 -22 12 -28 12 -57 0z"/>
<path d="M1766 564 c-23 -22 -20 -60 6 -78 12 -9 26 -16 30 -16 14 0 48 39 48
55 0 19 -35 55 -54 55 -8 0 -22 -7 -30 -16z"/>
<path d="M1722 418 c-17 -17 -15 -36 7 -47 27 -15 56 9 47 37 -8 24 -35 29
-54 10z"/>
</g>
</svg>
