<?xml version="1.0" standalone="no"?><!DOCTYPE svg PUBLIC "-//W3C//DTD SVG 20010904//EN" "http://www.w3.org/TR/2001/REC-SVG-20010904/DTD/svg10.dtd"><svg xmlns="http://www.w3.org/2000/svg" version="1.0" width="16mm" height="12.0853mm" viewBox="0 0 173.433757 131.000000" preserveAspectRatio="xMidYMid meet">
<metadata>
Created by potrace 1.16, written by Peter Selinger 2001-2019
</metadata>
<g transform="translate(-216.860068,366.000000) scale(0.100000,-0.100000)" fill="#000000" stroke="none">
<path d="M2984 3645 c-4 -9 4 -23 20 -36 14 -11 47 -48 73 -82 57 -76 60 -78 98 -75 l30 3 3 74 c2 41 -1 78 -5 82 -7 7 -183 49 -205 49 -5 0 -11 -7 -14 -15z"/>
<path d="M2891 3603 c-5 -10 -17 -45 -26 -78 -10 -33 -20 -65 -22 -71 -2 -7 16 -31 41 -54 57 -53 76 -94 76 -162 0 -43 -6 -64 -30 -101 -40 -64 -39 -91 9 -138 21 -22 43 -39 48 -39 19 0 73 64 98 116 67 141 50 276 -52 434 -36 55 -95 110 -119 110 -7 0 -18 -8 -23 -17z"/>
<path d="M3266 3529 c4 -41 7 -75 8 -75 0 -1 29 -5 62 -8 75 -7 86 3 82 71 -3 46 -5 49 -41 61 -21 6 -56 15 -78 18 l-39 7 6 -74z"/>
<path d="M2560 3540 c-6 -12 -31 -71 -56 -133 -45 -112 -46 -112 -42 -217 l3 -105 -55 -7 c-30 -5 -97 -14 -148 -20 -51 -7 -93 -17 -93 -23 -1 -17 64 -33 178 -45 152 -16 150 -15 164 -55 15 -39 26 -42 89 -20 23 8 53 15 66 15 12 0 26 4 29 10 12 19 -16 88 -53 131 -49 56 -64 94 -64 161 -1 65 25 121 76 166 33 28 56 37 126 44 20 2 26 9 28 36 4 39 -7 44 -135 67 -109 19 -100 19 -113 -5z"/>
<path d="M3452 3503 l3 -58 52 -3 c49 -3 53 -1 59 22 9 38 -1 55 -48 76 -66 30 -69 28 -66 -37z"/>
<path d="M3197 3413 c-22 -3 -41 -11 -44 -20 -3 -8 0 -61 8 -117 17 -131 17 -134 -30 -246 l-40 -95 -53 -5 c-58 -6 -93 -22 -172 -78 -67 -48 -67 -48 -63 -110 3 -43 10 -59 35 -85 29 -29 32 -39 32 -92 0 -109 -4 -105 124 -105 74 0 116 4 124 12 7 7 12 43 12 90 0 74 2 80 30 108 34 33 119 55 176 44 21 -4 53 -21 73 -40 35 -32 36 -35 39 -117 l4 -85 45 -6 c57 -8 151 -8 179 0 20 5 22 14 25 82 3 59 9 84 26 107 56 80 83 143 83 197 0 46 -6 63 -45 123 -24 39 -56 89 -71 112 l-26 43 26 46 c27 48 33 79 17 89 -6 3 -28 39 -51 80 l-41 75 -192 -2 c-106 -1 -209 -3 -230 -5z"/>
<path d="M2711 3357 c-86 -44 -91 -177 -9 -227 90 -55 198 10 198 119 0 37 -6 49 -39 82 -33 34 -45 39 -82 39 -24 0 -55 -6 -68 -13z"/>
<path d="M3720 3144 c0 -26 67 -124 85 -124 20 0 108 111 97 122 -5 5 -48 12 -96 15 -80 5 -86 4 -86 -13z"/>
<path d="M2635 2893 c-38 -14 -73 -30 -76 -35 -4 -6 -3 -22 1 -37 6 -24 10 -26 66 -25 78 1 104 15 104 57 0 18 -6 40 -12 49 -12 15 -19 14 -83 -9z"/>
<path d="M2653 2761 c-57 -14 -63 -18 -63 -42 0 -40 22 -52 86 -47 63 5 74 16 74 71 0 43 -1 43 -97 18z"/>
<path d="M2660 2641 c-39 -5 -45 -9 -48 -33 -3 -22 2 -28 32 -38 20 -6 46 -10 58 -8 26 3 48 41 41 69 -6 20 -8 20 -83 10z"/>
<path d="M2559 2533 c-81 -7 -122 -82 -68 -126 19 -15 33 -18 72 -13 35 5 53 3 69 -9 30 -20 61 -19 81 3 20 22 23 107 5 119 -14 8 -100 33 -108 31 -3 -1 -26 -3 -51 -5z"/>
<path d="M2862 2428 c-7 -7 -12 -24 -12 -39 0 -26 4 -28 53 -34 28 -3 97 -5 152 -3 94 3 100 4 103 25 2 12 -2 31 -8 42 -10 20 -20 21 -143 21 -90 0 -137 -4 -145 -12z"/>
<path d="M3432 2428 c-7 -7 -12 -27 -12 -45 l0 -33 155 0 c147 0 155 1 155 19 0 11 -4 31 -10 45 l-10 26 -133 0 c-90 0 -137 -4 -145 -12z"/>
</g>
</svg>