<?xml version="1.0" standalone="no"?><!DOCTYPE svg PUBLIC "-//W3C//DTD SVG 20010904//EN" "http://www.w3.org/TR/2001/REC-SVG-20010904/DTD/svg10.dtd"><svg xmlns="http://www.w3.org/2000/svg" version="1.0" width="16mm" height="11.3097mm" viewBox="0 0 148.235943 104.781580" preserveAspectRatio="xMidYMid meet">
<metadata>
Created by potrace 1.16, written by Peter Selinger 2001-2019
</metadata>
<g transform="translate(-226.329231,347.880132) scale(0.100000,-0.100000)" fill="#000000" stroke="none">
<path d="M3563 3473 c-7 -2 -13 -11 -13 -19 0 -8 -13 -17 -29 -20 -36 -8 -44 -25 -25 -53 19 -26 46 -27 69 -1 12 13 31 20 55 20 24 0 43 -7 55 -20 24 -27 39 -25 60 6 13 20 14 28 4 40 -7 8 -18 13 -25 10 -7 -3 -22 7 -33 22 -18 25 -21 26 -45 12 -20 -10 -29 -11 -38 -2 -13 13 -16 13 -35 5z"/>
<path d="M2670 3411 c0 -51 32 -67 63 -33 30 33 16 52 -39 52 -17 0 -24 -6 -24 -19z"/>
<path d="M2740 3344 c0 -20 4 -25 16 -20 9 3 20 6 25 6 15 0 10 27 -7 34 -27 11 -34 7 -34 -20z"/>
<path d="M3593 3343 c-17 -2 -37 -11 -44 -20 -11 -13 -10 -17 6 -29 10 -8 28 -14 40 -14 20 0 20 -3 13 -90 -10 -126 -46 -178 -169 -242 -53 -28 -64 -62 -26 -79 32 -15 85 13 151 77 72 72 88 117 84 236 l-3 98 28 11 c15 6 27 16 27 21 0 8 -65 41 -72 36 -2 0 -17 -3 -35 -5z"/>
<path d="M2750 3300 c-15 -28 -6 -39 31 -38 34 1 48 21 29 43 -18 21 -47 19 -60 -5z"/>
<path d="M3254 3266 c-9 -25 0 -61 17 -64 9 -1 27 6 40 17 l24 21 -25 20 c-30 23 -49 25 -56 6z"/>
<path d="M2759 3241 c-25 -20 -20 -36 13 -44 13 -2 31 -8 41 -12 16 -7 18 -3 15 25 -4 42 -37 57 -69 31z"/>
<path d="M2270 3235 c-13 -15 -9 -27 30 -102 52 -97 61 -107 93 -99 27 6 94 87 103 123 10 39 -2 51 -73 66 -129 29 -138 30 -153 12z"/>
<path d="M3186 3242 c-2 -4 2 -16 10 -26 11 -16 16 -17 29 -6 23 19 18 40 -9 40 -14 0 -27 -3 -30 -8z"/>
<path d="M3131 3206 c-9 -11 -6 -19 20 -36 25 -19 33 -20 40 -9 5 8 7 20 4 27 -3 8 -5 18 -5 23 0 14 -46 11 -59 -5z"/>
<path d="M2662 3154 c-34 -38 -49 -40 -129 -18 -18 5 -25 1 -33 -21 -5 -14 -21 -41 -35 -59 -29 -39 -31 -49 -8 -67 9 -8 22 -29 30 -47 11 -26 18 -32 31 -26 9 4 40 9 68 12 66 5 101 -22 119 -93 12 -49 13 -50 75 -73 35 -12 90 -25 121 -29 54 -5 58 -8 64 -34 13 -60 84 -86 145 -54 29 15 48 54 36 73 -3 5 24 16 60 25 81 20 196 75 191 90 -6 19 -49 20 -115 3 -89 -24 -259 -21 -352 5 -68 19 -197 85 -187 96 3 2 27 -3 53 -11 89 -28 225 -46 353 -46 170 0 195 18 85 59 -49 19 -49 19 -52 67 -3 50 -27 89 -61 97 -9 2 -4 3 12 1 22 -3 27 0 27 19 0 44 -43 62 -75 31 -9 -9 -13 -24 -10 -35 4 -12 2 -19 -8 -19 -19 0 -53 -40 -61 -73 -5 -22 -1 -32 19 -52 l26 -24 -63 15 c-35 8 -84 24 -110 35 -41 19 -51 20 -78 9 -17 -7 -33 -10 -36 -7 -3 3 3 8 13 11 10 3 26 19 36 35 41 70 3 141 -76 141 -37 0 -48 -5 -75 -36z"/>
<path d="M2538 2906 c-52 -39 -41 -127 19 -152 62 -26 123 12 123 78 0 53 -35 88 -87 88 -21 0 -46 -6 -55 -14z"/>
<path d="M2478 2765 c-21 -46 24 -83 64 -53 16 12 15 16 -17 47 l-34 33 -13 -27z"/>
<path d="M2284 2738 c10 -52 42 -59 66 -13 17 31 6 45 -37 45 -35 0 -35 -1 -29 -32z"/>
<path d="M2422 2738 c-20 -20 -14 -47 12 -54 37 -9 46 1 33 36 -12 32 -26 37 -45 18z"/>
<path d="M2367 2718 c-14 -8 -16 -13 -6 -24 17 -20 39 -17 39 5 0 26 -11 32 -33 19z"/>
<path d="M3014 2608 c-7 -11 15 -48 29 -49 37 -4 57 11 57 42 0 13 -9 16 -41 15 -22 0 -43 -4 -45 -8z"/>
<path d="M3086 2555 c-10 -8 -24 -16 -30 -18 -19 -6 14 -37 40 -37 28 0 43 36 23 56 -12 11 -17 10 -33 -1z"/>
<path d="M3120 2495 c-15 -18 -5 -35 21 -35 20 0 23 8 13 34 -8 20 -18 20 -34 1z"/>
<path d="M3177 2503 c-10 -9 -8 -46 3 -63 7 -12 12 -12 34 -1 14 8 28 21 31 29 9 25 -48 55 -68 35z"/>
</g>
</svg>