<?xml version="1.0" standalone="no"?>
<!DOCTYPE svg PUBLIC "-//W3C//DTD SVG 20010904//EN"
 "http://www.w3.org/TR/2001/REC-SVG-20010904/DTD/svg10.dtd">
<svg version="1.0" xmlns="http://www.w3.org/2000/svg"
 width="128.772851pt" height="175.842051pt" viewBox="0 0 128.772851 175.842051"
 preserveAspectRatio="xMidYMid meet">
<metadata>
Created by potrace 1.16, written by Peter Selinger 2001-2019
</metadata>
<g transform="translate(-233.227149,387.891828) scale(0.100000,-0.100000)"
fill="#000000" stroke="none">
<path d="M2793 3873 c-18 -7 -16 -44 4 -117 14 -49 18 -104 18 -281 0 -215 -1
-222 -29 -307 -24 -74 -26 -92 -17 -119 15 -45 14 -69 -7 -108 -17 -31 -17
-38 -4 -85 10 -35 15 -104 15 -221 1 -184 -11 -270 -57 -404 -18 -54 -22 -79
-15 -93 26 -49 90 8 134 121 33 83 45 78 45 -16 0 -65 8 -78 40 -68 49 16 58
90 23 187 l-17 47 46 49 c63 67 81 106 81 173 0 45 -6 68 -30 111 l-31 54 34
22 c19 12 34 18 34 12 0 -17 30 -11 63 12 18 12 33 22 34 23 2 1 -6 20 -17 43
-25 52 -25 75 2 130 l21 45 -33 30 -34 30 -18 -23 c-16 -20 -18 -21 -18 -3 0
10 -7 28 -15 40 -14 21 -14 25 10 63 32 51 48 129 36 181 -9 41 -47 103 -82
135 -25 23 -24 41 7 109 40 87 22 165 -37 165 -19 0 -21 -7 -34 -113 -4 -27
-9 -47 -11 -44 -3 3 -12 31 -21 63 -18 73 -57 150 -78 158 -19 7 -24 7 -42 -1z
m197 -382 c55 -39 65 -112 18 -127 -30 -9 -50 20 -42 62 5 26 1 35 -17 48 -21
14 -25 14 -46 1 -20 -14 -23 -14 -23 -1 0 22 41 47 65 40 11 -3 31 -14 45 -23z
m-4 -906 c28 -43 -38 -115 -105 -115 -24 0 -51 26 -51 48 1 15 2 15 11 0 13
-24 56 -23 69 1 5 11 10 33 10 49 0 16 3 32 7 36 12 12 45 2 59 -19z"/>
<path d="M3031 3633 c-18 -32 -29 -63 -26 -70 14 -39 69 -16 100 41 18 32 18
36 2 60 -26 39 -42 32 -76 -31z"/>
<path d="M3110 3545 c-45 -33 -55 -51 -34 -63 47 -26 110 32 80 73 -10 14 -15
13 -46 -10z"/>
<path d="M3116 3447 c-21 -16 -18 -50 5 -55 9 -2 24 4 33 13 38 38 5 74 -38
42z"/>
<path d="M2582 3101 c-10 -6 -4 -14 20 -33 18 -14 43 -28 56 -32 19 -6 23 -14
20 -39 -3 -29 -6 -32 -38 -32 -32 0 -35 3 -40 35 -3 24 -13 38 -30 47 -37 19
-158 16 -199 -5 -57 -28 -51 -42 18 -42 96 0 176 -43 164 -88 -6 -25 32 -51
50 -33 16 16 48 14 61 -4 16 -21 56 -8 56 19 0 11 9 32 20 46 24 30 26 87 4
118 -28 40 -126 67 -162 43z"/>
<path d="M3426 3071 c-3 -5 -21 -12 -40 -15 -18 -4 -46 -18 -61 -31 l-27 -25
-27 23 c-16 13 -43 30 -61 37 -30 13 -34 12 -50 -11 -10 -13 -21 -34 -23 -47
-6 -32 8 -91 26 -109 21 -22 70 -8 106 29 l31 32 24 -23 c40 -38 154 -60 195
-39 44 23 39 40 -10 33 -52 -8 -131 2 -156 20 -15 11 -11 12 27 5 100 -20 240
-5 240 24 0 35 -91 48 -220 33 -63 -7 -64 -7 -36 9 16 9 66 19 115 23 l86 7
-32 17 c-34 18 -98 23 -107 8z"/>
<path d="M3059 2544 c-11 -14 -10 -19 10 -36 30 -23 57 -20 53 7 -8 44 -39 58
-63 29z"/>
<path d="M3020 2466 c0 -22 40 -66 61 -66 27 0 27 55 0 70 -28 14 -61 12 -61
-4z"/>
<path d="M2948 2419 c-8 -23 36 -129 53 -129 43 0 54 61 20 109 -23 31 -65 43
-73 20z"/>
</g>
</svg>
