<?xml version="1.0" standalone="no"?>
<!DOCTYPE svg PUBLIC "-//W3C//DTD SVG 20010904//EN"
 "http://www.w3.org/TR/2001/REC-SVG-20010904/DTD/svg10.dtd">
<svg version="1.0" xmlns="http://www.w3.org/2000/svg"
 width="144.143839pt" height="146.901976pt" viewBox="0 0 144.143839 146.901976"
 preserveAspectRatio="xMidYMid meet">
<metadata>
Created by potrace 1.16, written by Peter Selinger 2001-2019
</metadata>
<g transform="translate(-237.856161,365.000000) scale(0.100000,-0.100000)"
fill="#000000" stroke="none">
<path d="M2381 3632 c-6 -12 -1 -42 19 -102 30 -92 50 -110 104 -96 34 8 33
18 -5 61 -22 24 -26 35 -16 35 9 0 23 3 33 7 12 4 15 3 10 -5 -12 -19 23 -79
54 -92 61 -25 130 19 130 83 0 24 3 28 12 19 7 -7 21 -12 31 -12 17 0 15 -5
-12 -32 -17 -17 -31 -37 -31 -44 0 -17 35 -27 69 -19 24 5 32 16 51 68 31 86
37 135 16 143 -20 8 -102 -22 -126 -46 -17 -17 -19 -17 -37 1 -11 11 -35 22
-54 25 -28 5 -41 1 -66 -20 -28 -24 -32 -24 -44 -10 -15 18 -92 54 -114 54 -8
0 -19 -8 -24 -18z"/>
<path d="M3002 3493 c-54 -26 -72 -75 -73 -200 -2 -93 -6 -118 -30 -181 -28
-71 -28 -74 -14 -129 8 -32 15 -80 15 -108 0 -60 14 -90 25 -54 10 30 45 82
52 75 3 -3 -2 -23 -11 -46 -9 -22 -16 -54 -16 -70 0 -17 -6 -39 -12 -50 -10
-15 -10 -22 -1 -31 10 -10 26 -8 72 6 57 17 63 17 121 1 47 -13 65 -15 75 -6
12 10 12 15 -1 35 -9 14 -14 38 -11 57 l4 33 13 -32 c8 -18 17 -33 20 -33 3 1
17 27 32 59 32 72 64 96 131 96 45 0 52 -4 82 -38 28 -32 36 -36 63 -31 28 6
37 1 76 -40 44 -44 75 -56 102 -38 19 12 104 155 104 174 0 16 -11 18 -93 18
l-92 0 -25 71 c-42 124 -168 226 -283 230 -31 1 -30 2 8 9 44 8 137 -11 143
-29 2 -6 14 -11 27 -11 21 0 24 6 30 68 9 87 -6 143 -45 176 -51 43 -138 46
-174 7 -12 -13 -36 -98 -36 -127 0 -2 -22 -4 -50 -4 l-50 0 0 34 c0 106 -82
156 -178 109z"/>
<path d="M2596 3377 c-10 -7 -26 -38 -36 -67 l-19 -55 -45 3 -46 4 0 -46 0
-46 50 0 c45 0 50 -2 50 -22 0 -13 3 -33 6 -45 6 -20 3 -23 -24 -23 -60 0 -72
-17 -55 -78 6 -25 20 -26 81 -7 19 6 24 2 38 -30 17 -42 16 -45 -29 -60 -41
-13 -46 -43 -14 -81 l24 -27 37 28 37 28 28 -34 c30 -35 29 -52 -3 -79 -26
-20 -19 -48 16 -66 34 -18 40 -15 73 40 8 14 16 15 45 6 19 -5 47 -10 62 -10
22 0 28 5 28 23 0 33 -26 65 -59 72 -72 16 -154 102 -192 204 -23 63 -39 183
-29 221 5 20 9 10 19 -45 24 -135 88 -233 169 -254 49 -14 62 -9 62 22 0 48
-13 67 -65 96 -43 24 -58 41 -79 83 -14 29 -31 80 -36 113 -16 88 -29 124 -50
135 -23 13 -23 13 -44 -3z"/>
<path d="M3333 2870 c-30 -12 -54 -52 -58 -95 -2 -20 -9 -43 -16 -51 -9 -11
-9 -18 -1 -26 9 -9 26 -7 69 6 54 17 59 17 115 0 45 -13 61 -15 71 -5 9 9 9
16 -1 31 -6 11 -12 34 -12 51 0 47 -56 99 -106 98 -22 0 -49 -4 -61 -9z"/>
<path d="M3006 2684 c-19 -18 -20 -49 -5 -93 13 -36 42 -52 82 -44 35 7 48 24
57 74 6 34 4 45 -11 60 -24 24 -101 26 -123 3z"/>
<path d="M3325 2680 c-21 -23 -16 -93 9 -118 19 -19 84 -18 104 2 8 8 17 35
20 62 4 38 1 50 -13 61 -29 20 -99 17 -120 -7z"/>
<path d="M3028 2519 c-34 -20 -13 -108 26 -110 21 0 21 0 0 -9 -12 -5 -25 -14
-29 -20 -11 -18 4 -59 27 -71 18 -10 24 -8 40 11 22 27 23 53 4 69 -13 11 -12
15 5 32 24 24 27 94 3 103 -23 9 -57 7 -76 -5z"/>
<path d="M3352 2519 c-24 -9 -29 -40 -12 -83 8 -21 16 -26 45 -26 29 0 37 5
45 26 14 36 12 84 -2 85 -7 1 -22 3 -33 4 -11 1 -31 -2 -43 -6z"/>
<path d="M3353 2393 c-20 -7 -15 -51 7 -73 25 -25 56 -13 66 27 10 38 -30 64
-73 46z"/>
<path d="M3003 2275 c-3 -9 1 -32 9 -53 12 -32 18 -37 51 -40 35 -3 38 -1 56
39 27 60 20 69 -50 69 -44 0 -61 -4 -66 -15z"/>
<path d="M3327 2283 c-12 -11 -8 -42 9 -74 13 -26 20 -30 52 -27 32 3 38 8 50
40 21 56 12 68 -51 68 -30 0 -57 -3 -60 -7z"/>
</g>
</svg>
