<?xml version="1.0" standalone="no"?>
<!DOCTYPE svg PUBLIC "-//W3C//DTD SVG 20010904//EN"
 "http://www.w3.org/TR/2001/REC-SVG-20010904/DTD/svg10.dtd">
<svg version="1.0" xmlns="http://www.w3.org/2000/svg"
 width="335.687738pt" height="150.684356pt" viewBox="0 0 335.687738 150.684356"
 preserveAspectRatio="xMidYMid meet">
<metadata>
Created by potrace 1.16, written by Peter Selinger 2001-2019
</metadata>
<g transform="translate(-32.115598,275.361668) scale(0.100000,-0.100000)"
fill="#000000" stroke="none">
<path d="M1940 2750 c-136 -24 -479 -190 -633 -308 -92 -70 -104 -95 -111
-242 -4 -73 -2 -147 4 -179 5 -30 7 -57 4 -60 -3 -3 -85 -9 -182 -13 -97 -3
-206 -11 -241 -17 l-65 -10 -43 44 c-52 52 -87 62 -139 40 -22 -9 -65 -17 -96
-18 -50 -2 -62 -6 -90 -34 -31 -32 -32 -34 -19 -65 8 -18 13 -50 12 -71 -1
-27 5 -44 21 -60 13 -13 28 -35 35 -49 7 -15 25 -35 40 -45 15 -9 45 -32 66
-50 32 -29 44 -33 91 -33 32 0 79 10 117 24 75 28 160 43 283 51 l90 5 -43
-31 c-24 -17 -62 -37 -84 -45 -60 -21 -87 -50 -87 -94 0 -51 29 -86 78 -94 22
-3 45 -13 53 -22 12 -14 67 -53 152 -108 23 -15 48 -19 116 -19 74 0 96 4 161
32 51 22 116 38 200 52 144 22 183 34 340 99 98 41 129 49 210 56 105 8 140 8
217 -2 69 -8 122 17 192 90 30 32 67 60 89 67 20 7 53 22 72 34 27 17 67 26
170 38 180 22 229 37 292 93 41 38 55 45 77 39 84 -20 118 -18 170 11 48 25
212 156 219 174 3 8 -39 14 -166 26 -40 4 -79 12 -85 19 -7 7 -69 27 -137 44
-92 24 -146 32 -205 32 -44 0 -141 1 -215 2 -134 4 -135 3 -214 -30 -75 -32
-82 -34 -162 -27 -105 8 -160 -6 -205 -52 -48 -49 -59 -45 -59 24 0 79 -24
174 -62 245 -38 71 -128 163 -192 197 -25 14 -45 27 -44 30 2 3 25 49 53 102
27 53 47 99 45 101 -12 11 -49 14 -90 7z m50 -38 c0 -4 -23 -48 -51 -96 -27
-49 -49 -89 -47 -91 2 -1 26 -14 53 -28 116 -58 208 -174 240 -302 23 -92 26
-190 5 -190 -11 0 -16 14 -17 55 -4 96 -13 135 -48 208 -52 109 -154 208 -243
235 l-40 12 60 93 c33 52 57 96 54 99 -14 14 -120 -27 -312 -122 -225 -112
-343 -189 -389 -255 -36 -51 -47 -44 -12 9 41 62 91 105 179 153 46 25 110 60
143 79 101 57 335 148 383 148 23 1 42 -3 42 -7z m-606 -394 c25 -118 41 -178
49 -178 4 0 27 13 50 28 23 16 78 43 121 62 l79 34 40 -44 c43 -49 123 -202
133 -256 9 -50 -2 -83 -31 -90 -30 -7 -31 -25 -5 -82 l19 -43 40 26 c53 36
105 32 109 -7 3 -24 0 -28 -22 -28 -14 0 -26 5 -26 10 0 6 7 10 15 10 17 0 20
16 6 25 -11 6 -81 -33 -81 -46 0 -5 -8 -9 -18 -9 -10 0 -100 -20 -200 -45
-100 -25 -199 -45 -220 -45 -56 0 -121 45 -170 119 -45 68 -61 123 -43 145 9
11 8 33 -4 93 -11 54 -14 99 -10 146 11 107 15 115 80 157 70 45 83 48 89 18z
m705 -169 c16 -47 14 -59 -13 -59 -19 0 -25 7 -30 35 -12 60 24 79 43 24z
m906 -23 c32 -14 65 -59 53 -72 -3 -3 -47 -8 -97 -11 -79 -5 -91 -4 -91 10 0
8 -11 29 -25 45 -18 22 -22 32 -13 35 28 11 140 6 173 -7z m-194 -27 c16 -17
29 -37 29 -44 0 -7 -19 -17 -42 -23 -40 -10 -44 -9 -63 13 -11 13 -33 29 -50
36 l-30 11 35 18 c53 29 87 25 121 -11z m469 2 l105 -28 -40 -13 c-22 -7 -53
-20 -70 -30 -37 -22 -57 -16 -49 14 9 36 -20 51 -89 48 -64 -2 -107 15 -70 29
36 15 110 8 213 -20z m-770 -31 c11 -7 1 -10 -36 -10 -28 0 -71 -7 -94 -15
-53 -19 -55 -19 -40 0 24 29 138 46 170 25z m669 4 c18 -4 31 -13 31 -21 0
-12 -7 -14 -27 -8 -16 3 -46 9 -68 13 -40 6 -40 6 -10 13 17 3 33 7 36 8 4 0
21 -2 38 -5z m-506 -10 c61 -11 74 -63 15 -64 -9 0 -34 11 -54 25 -20 14 -46
25 -58 26 -19 1 -18 2 4 9 33 10 47 11 93 4z m-555 -52 c2 -32 -1 -44 -13 -49
-22 -8 -35 13 -35 60 0 34 3 38 23 35 18 -2 23 -10 25 -46z m1422 17 c52 -6
96 -12 98 -14 8 -7 -140 -121 -183 -141 -57 -27 -72 -29 -126 -12 -58 17 -51
38 14 38 56 0 117 28 117 54 0 33 -31 48 -89 43 -31 -3 -66 -8 -78 -12 -40
-13 -27 20 15 38 60 25 65 27 102 22 19 -2 78 -9 130 -16z m-617 -10 c48 -13
97 -77 97 -126 0 -74 -56 -140 -139 -163 -46 -12 -50 -6 -19 28 44 47 71 110
63 150 -8 43 -63 102 -96 103 -21 1 -20 2 6 9 43 11 46 11 88 -1z m281 -12
c22 -12 48 -34 58 -48 18 -24 19 -27 2 -68 -12 -30 -32 -53 -71 -81 -52 -37
-78 -45 -198 -65 l-40 -7 26 29 c70 75 78 126 33 198 -16 25 -33 45 -39 46
-35 4 53 17 115 18 60 1 83 -4 114 -22z m-836 -27 c38 -24 39 -26 7 -32 -13
-3 -23 -1 -22 5 1 6 -13 15 -30 20 -18 5 -33 14 -33 18 0 16 44 9 78 -11z
m-1705 -20 c18 -16 42 -47 52 -70 17 -39 35 -53 35 -28 0 7 11 1 25 -13 38
-38 44 -113 13 -159 -24 -36 -90 -80 -120 -80 -13 0 -16 7 -11 34 3 19 1 36
-6 40 -17 11 -13 46 6 46 14 0 13 3 -5 23 -18 19 -22 35 -22 90 0 36 -4 69
-10 72 -6 4 -10 -6 -10 -22 0 -36 -16 -53 -51 -53 -34 0 -59 32 -59 74 0 76
98 104 163 46z m1817 20 c-20 -13 -53 -13 -45 0 3 6 18 10 33 10 21 0 24 -2
12 -10z m395 -14 c50 -51 45 -101 -18 -177 -47 -58 -128 -112 -199 -133 -52
-15 -52 -17 -8 49 44 65 64 138 57 211 -7 72 -8 71 86 73 49 1 62 -3 82 -23z
m561 2 c13 -21 -35 -48 -86 -48 -46 0 -60 10 -60 40 0 18 135 26 146 8z
m-2969 -4 c19 -5 21 -9 12 -26 -8 -15 -8 -27 0 -45 17 -38 14 -43 -32 -43 -30
0 -50 6 -65 20 -29 27 -28 36 7 71 30 30 40 33 78 23z m1948 -33 c-39 -15 -80
-23 -70 -13 10 10 42 18 75 20 8 0 6 -3 -5 -7z m-1307 -49 c41 -60 50 -108 28
-150 -22 -43 -44 -52 -123 -52 -37 0 -99 -7 -138 -15 -97 -21 -98 -20 -70 21
41 61 25 151 -34 191 l-33 22 27 7 c36 9 165 21 245 23 l65 1 33 -48z m122 40
c0 -4 -5 -13 -11 -19 -17 -17 0 -80 37 -135 19 -27 34 -54 34 -59 0 -5 -15 -9
-34 -9 -18 0 -55 -3 -81 -6 l-47 -7 22 43 c26 52 22 87 -20 153 l-30 47 65 0
c36 0 65 -4 65 -8z m1215 -11 c-14 -12 -85 -22 -85 -11 0 5 12 11 28 13 51 8
66 7 57 -2z m-97 -46 c51 -57 55 -163 9 -233 -40 -60 -149 -132 -199 -132 -18
0 -15 6 19 35 101 86 69 220 -54 235 l-48 5 105 63 c57 34 112 62 121 62 9 0
31 -16 47 -35z m150 0 c7 -14 12 -54 12 -89 l0 -64 -36 -6 c-19 -4 -42 -10
-50 -13 -11 -4 -14 6 -14 48 0 31 -9 72 -19 96 l-19 42 21 4 c12 2 38 5 58 6
29 1 38 -4 47 -24z m-1915 -54 c35 -14 34 -27 -5 -52 -65 -40 -197 -9 -206 48
-3 20 1 21 90 18 51 -2 105 -8 121 -14z m35 -94 c5 -44 -14 -67 -56 -67 -45 0
-117 32 -131 57 -9 18 -6 19 48 15 40 -3 67 1 87 11 37 20 48 17 52 -16z
m1552 18 c36 -19 50 -43 50 -87 0 -53 -32 -94 -100 -128 -83 -42 -281 -122
-287 -117 -2 3 0 22 6 42 15 55 -10 126 -65 185 l-44 48 42 10 c24 6 103 17
176 24 94 9 132 16 132 25 0 18 54 17 90 -2z m320 -55 c0 -9 -12 -13 -72 -25
-35 -6 -17 13 20 23 50 13 52 13 52 2z m-1861 -66 c-15 -18 -60 -18 -85 1 -18
14 -17 14 14 15 23 0 41 8 55 25 l22 24 3 -25 c2 -14 -2 -32 -9 -40z m730 37
l44 -29 -45 -7 c-38 -6 -50 -3 -83 19 -21 14 -47 26 -59 27 -21 0 -21 1 -1 9
43 18 99 11 144 -19z m381 -13 c47 -32 85 -110 84 -171 -1 -73 -16 -83 -178
-112 -76 -13 -143 -22 -147 -19 -5 3 -9 20 -9 37 0 47 -42 130 -89 175 l-40
39 142 32 c78 18 147 35 152 36 27 9 55 3 85 -17z m725 2 c-11 -5 -33 -8 -50
-8 -29 0 -29 0 -5 8 14 4 36 8 50 8 23 1 23 0 5 -8z m-1210 -23 c22 -12 51
-40 65 -61 23 -35 25 -37 30 -16 l5 23 31 -26 c41 -35 86 -136 82 -185 -3 -32
-8 -40 -43 -57 -57 -28 -205 -28 -255 0 l-35 20 28 3 c42 5 32 22 -13 22 -50
0 -130 37 -109 51 8 5 21 9 30 9 8 0 24 6 34 14 17 12 9 13 -67 9 -83 -6 -87
-5 -113 21 -53 53 -5 116 103 132 40 6 55 18 30 26 -6 2 4 12 23 21 49 24 125
22 174 -6z m1175 -22 c-21 -15 -47 -25 -68 -25 -34 0 -35 1 -18 19 16 18 38
24 100 29 15 2 11 -4 -14 -23z m158 -4 c-6 -10 -35 -33 -64 -50 -45 -28 -59
-32 -110 -29 l-59 3 60 13 c33 8 76 24 95 37 74 48 97 56 78 26z m-248 -50 c0
-10 -25 -21 -48 -21 -15 1 -14 3 2 15 22 17 46 20 46 6z"/>
<path d="M1259 2259 c-11 -11 -18 -23 -15 -26 3 -3 13 2 22 11 31 32 56 16 83
-53 14 -35 27 -58 29 -52 5 16 -26 101 -46 124 -20 23 -47 22 -73 -4z"/>
<path d="M1582 2159 c-41 -21 -75 -59 -52 -59 5 0 10 4 10 10 0 5 18 19 40 30
56 29 85 19 123 -42 32 -51 50 -52 24 -1 -18 34 -55 69 -82 77 -12 3 -38 -3
-63 -15z"/>
<path d="M1280 2145 c0 -8 -4 -15 -10 -15 -5 0 -9 -10 -7 -22 1 -13 -2 -22 -8
-21 -6 1 -9 -28 -8 -73 1 -84 24 -137 62 -142 41 -6 61 24 61 92 0 105 -11
168 -28 161 -10 -4 -12 0 -8 11 4 12 1 14 -14 9 -11 -4 -20 -2 -20 4 0 6 -4
11 -10 11 -5 0 -10 -7 -10 -15z m59 -67 c11 -35 18 -165 9 -173 -3 -3 -8 22
-11 55 -5 61 -18 87 -48 99 -12 4 -14 12 -8 29 13 34 45 28 58 -10z"/>
<path d="M1566 2065 c-3 -8 -12 -12 -21 -9 -10 4 -14 2 -10 -8 3 -8 2 -32 -3
-54 -5 -22 -5 -70 -1 -109 7 -57 14 -75 38 -99 36 -36 72 -30 102 17 18 28 19
42 14 112 -4 44 -11 82 -16 83 -5 2 -9 13 -9 25 0 11 -3 17 -7 14 -10 -11 -32
13 -26 29 6 17 -9 18 -25 2 -9 -9 -12 -9 -12 0 0 17 -17 15 -24 -3z m58 -44
c55 -61 61 -216 8 -236 -21 -8 -24 -2 -12 29 23 62 -5 151 -51 163 -22 6 -22
4 -9 37 11 31 40 34 64 7z m-57 -168 c-3 -10 -5 -4 -5 12 0 17 2 24 5 18 2 -7
2 -21 0 -30z"/>
<path d="M1348 1833 c-21 -5 -24 -36 -5 -51 7 -6 19 -7 26 -3 9 6 7 10 -8 14
-12 3 -21 10 -21 17 0 7 8 9 20 5 14 -5 20 -2 20 9 0 16 -2 17 -32 9z"/>
<path d="M1380 1741 c0 -6 15 -7 34 -4 19 3 36 1 40 -6 10 -16 26 -14 26 4 0
11 -12 15 -50 15 -27 0 -50 -4 -50 -9z"/>
</g>
</svg>
