<?xml version="1.0" standalone="no"?><!DOCTYPE svg PUBLIC "-//W3C//DTD SVG 20010904//EN" "http://www.w3.org/TR/2001/REC-SVG-20010904/DTD/svg10.dtd"><svg xmlns="http://www.w3.org/2000/svg" version="1.0" width="16mm" height="10.825mm" viewBox="0 0 415.298144 280.976260" preserveAspectRatio="xMidYMid meet">
<metadata>
Created by potrace 1.16, written by Peter Selinger 2001-2019
</metadata>
<g transform="translate(-13.178444,364.976260) scale(0.100000,-0.100000)" fill="#000000" stroke="none">
<path d="M1021 3639 c-24 -4 -49 -13 -56 -19 -7 -6 -19 -47 -26 -91 l-13 -80 -126 7 c-81 4 -150 3 -193 -5 -76 -13 -444 -144 -465 -165 -23 -23 -10 -39 77 -88 73 -41 86 -45 118 -38 33 8 40 5 83 -31 26 -22 71 -49 99 -59 80 -31 138 -26 285 25 71 25 132 47 135 50 2 3 4 24 3 48 -3 66 5 72 108 75 182 8 526 -95 574 -171 19 -31 156 -332 156 -345 0 -6 -81 -11 -217 -14 -188 -4 -230 -8 -302 -28 -94 -26 -195 -88 -336 -206 -44 -36 -149 -120 -233 -186 -123 -96 -159 -130 -182 -172 -40 -70 -93 -131 -138 -156 -68 -39 -77 -61 -76 -185 1 -60 18 -272 38 -470 51 -499 44 -488 289 -493 130 -2 157 0 187 15 43 22 60 57 67 132 l5 58 62 -1 c53 -1 69 3 107 28 l44 30 1105 0 1105 1 65 -33 c56 -29 72 -32 113 -27 26 3 47 2 47 -2 0 -4 5 -37 11 -73 18 -112 50 -130 241 -130 187 0 235 26 258 137 21 105 93 868 84 898 -16 57 -32 78 -93 123 -50 37 -75 65 -105 116 -44 75 -63 93 -320 298 -394 316 -396 317 -753 325 -123 3 -223 8 -223 10 0 3 15 37 33 77 19 39 56 120 82 179 54 120 60 126 187 176 133 54 253 82 379 88 147 7 159 2 159 -70 l0 -52 103 -37 c139 -51 189 -62 251 -55 60 6 98 23 170 75 40 30 56 35 91 33 33 -2 55 6 106 35 140 81 143 76 -127 175 -234 85 -272 92 -436 85 l-136 -6 -11 51 c-6 27 -11 60 -11 73 0 36 -21 53 -78 65 -99 20 -92 25 -152 -114 l-53 -125 -116 -36 c-173 -53 -303 -101 -355 -130 -78 -44 -192 -237 -252 -427 l-18 -57 -238 2 -239 3 -28 80 c-39 109 -65 164 -122 261 -55 93 -90 127 -169 162 -54 24 -281 101 -360 122 -54 14 -64 28 -120 157 -53 120 -54 121 -149 102z m67 -51 c7 -7 12 -31 12 -54 0 -40 -1 -42 -37 -48 -76 -12 -76 -12 -70 44 3 28 9 55 12 60 9 14 69 12 83 -2z m2326 0 c3 -7 7 -35 10 -62 l6 -49 -52 7 c-29 4 -56 13 -60 19 -7 11 -1 72 9 90 7 12 83 8 87 -5z m-2250 -145 c9 -25 14 -49 11 -52 -6 -6 -130 17 -167 31 -16 6 -28 14 -28 18 0 11 38 20 87 20 31 0 46 5 55 19 16 26 23 20 42 -36z m2194 17 c27 0 57 -6 67 -14 18 -13 16 -15 -32 -29 -28 -8 -76 -18 -107 -22 l-57 -7 21 51 c11 29 20 55 20 58 0 4 9 -3 20 -15 16 -17 32 -22 68 -22z m-2509 -67 c0 -5 -15 -28 -33 -53 -27 -37 -43 -48 -97 -67 -94 -32 -241 -47 -334 -34 -70 10 -145 33 -145 45 0 8 238 83 315 99 72 16 296 23 294 10z m2995 -7 c130 -25 326 -89 326 -106 0 -22 -116 -44 -225 -43 -188 2 -331 47 -353 113 -6 16 -16 30 -21 30 -6 0 -11 5 -11 10 0 15 197 12 284 -4z m-2124 -261 c67 -35 126 -132 174 -283 14 -46 26 -85 26 -88 0 -10 -48 -3 -57 9 -5 6 -15 32 -22 57 -21 74 -91 206 -143 271 -51 63 -47 69 22 34z m1045 17 c-55 -39 -148 -197 -190 -321 -20 -61 -24 -66 -53 -69 l-31 -3 33 98 c58 173 104 245 179 282 40 20 84 29 62 13z m-335 -426 c0 -2 2 -10 5 -18 4 -11 -37 -12 -231 -10 -206 2 -234 5 -224 17 10 12 51 15 231 15 121 0 219 -2 219 -4z m-502 -18 c-4 -10 -78 -14 -309 -18 -287 -6 -307 -7 -354 -28 -49 -23 -141 -90 -289 -210 -103 -85 -225 -172 -240 -172 -6 0 -2 7 9 16 11 8 29 22 40 32 11 9 72 55 135 102 63 47 149 111 190 144 91 72 143 105 184 118 75 24 641 38 634 16z m1013 3 c186 -10 217 -21 349 -126 47 -37 137 -105 200 -151 107 -78 224 -175 190 -158 -35 17 -133 88 -211 151 -160 131 -268 211 -316 234 -46 22 -59 23 -338 26 -300 4 -340 7 -330 23 7 12 238 12 456 1z m187 -156 c42 -44 102 -107 132 -141 30 -33 68 -74 84 -92 l30 -32 -1170 0 c-643 0 -1164 4 -1159 8 6 4 77 80 158 169 86 94 158 163 170 166 12 2 395 3 850 3 l828 -1 77 -80z m172 -54 c19 -14 37 -28 40 -31 3 -3 30 -23 60 -45 30 -22 88 -65 129 -97 l74 -58 -41 0 c-22 0 -53 5 -68 10 -25 10 -206 185 -279 270 l-30 34 40 -29 c22 -16 56 -40 75 -54z m-2130 12 c-208 -219 -243 -246 -312 -241 l-41 3 139 105 c76 57 163 124 192 147 76 61 86 53 22 -14z m1313 -297 c32 -9 71 -23 85 -31 24 -13 -15 -14 -358 -15 -218 0 -380 4 -375 9 19 16 101 42 165 51 102 14 414 5 483 -14z m-744 -47 c-41 -29 -109 -81 -152 -116 -129 -106 -125 -105 -315 -114 -92 -4 -261 -8 -376 -8 l-209 -1 6 58 c6 68 40 169 65 195 10 10 41 22 68 26 27 5 260 9 518 10 l470 1 -75 -51z m1836 41 c53 -6 74 -14 87 -31 23 -28 58 -143 61 -200 l2 -44 -175 -3 c-259 -4 -569 12 -606 31 -16 9 -64 45 -106 80 -42 36 -107 86 -145 113 -37 26 -72 51 -77 56 -13 11 871 10 959 -2z m-2906 -149 c-22 -79 -38 -150 -35 -157 4 -10 298 -13 1575 -12 864 0 1573 3 1576 8 2 4 -14 71 -35 149 -22 78 -40 146 -40 151 0 16 63 -9 90 -35 14 -14 41 -49 60 -77 19 -29 68 -79 109 -113 49 -39 78 -71 83 -90 9 -32 1 -222 -12 -290 -4 -22 -8 -31 -9 -19 -2 33 -22 44 -81 44 l-55 0 3 45 c4 50 -19 127 -50 165 -19 23 -24 24 -226 31 -265 10 -2608 10 -2851 0 l-184 -7 -23 -29 c-27 -33 -54 -113 -54 -158 0 -21 6 -31 23 -35 13 -4 -9 -9 -58 -12 l-80 -5 -5 -50 -5 -50 -8 45 c-12 73 -20 284 -13 324 6 30 18 45 74 86 45 32 86 73 120 122 28 40 62 79 74 87 21 13 70 30 75 27 1 -1 -16 -67 -38 -145z m2076 -13 l118 -93 -326 -3 c-179 -1 -474 -1 -657 0 l-331 3 111 83 c60 46 113 88 116 93 3 5 186 9 428 9 l423 0 118 -92z m-1781 -254 c10 -27 7 -99 -6 -112 -13 -13 -291 -18 -322 -6 -12 5 -16 20 -16 63 0 32 3 61 7 64 3 4 79 7 169 7 138 0 163 -2 168 -16z m434 4 c7 -7 12 -33 12 -58 0 -25 -5 -51 -12 -58 -13 -13 -321 -18 -352 -6 -12 5 -16 20 -16 63 0 32 3 61 7 64 12 13 348 8 361 -5z m1980 0 c7 -7 12 -33 12 -58 0 -25 -5 -51 -12 -58 -13 -13 -321 -18 -352 -6 -12 5 -16 20 -16 63 0 32 3 61 7 64 12 13 348 8 361 -5z m410 0 c7 -7 12 -33 12 -58 0 -25 -5 -51 -12 -58 -14 -14 -305 -17 -327 -3 -14 9 -18 102 -5 122 8 14 318 11 332 -3z m-2675 -175 c-100 -2 -266 -2 -370 0 -103 1 -21 2 182 2 204 0 288 -1 188 -2z m2580 0 c-106 -2 -280 -2 -385 0 -106 1 -20 2 192 2 212 0 298 -1 193 -2z m287 -81 c0 -61 -75 -94 -220 -98 -139 -4 -162 1 -154 32 13 51 1 54 -251 54 l-233 0 -6 -23 c-3 -12 -3 -32 0 -43 6 -21 2 -22 -193 -29 -110 -4 -225 -4 -256 0 l-56 7 -3 52 -3 51 -395 0 -395 0 -3 -52 c-2 -33 -8 -53 -15 -54 -7 0 -32 -3 -56 -6 -25 -3 -135 -2 -245 2 l-201 7 0 41 0 42 -231 3 c-215 2 -232 1 -248 -16 -13 -15 -14 -25 -7 -44 l10 -26 -137 2 c-106 2 -147 6 -179 20 -44 19 -73 52 -73 86 l0 20 1775 0 1775 0 0 -28z m35 -77 c-9 -27 -22 -59 -30 -71 l-15 -23 -33 22 -32 21 40 21 c22 11 49 34 60 51 11 18 21 31 22 30 1 -1 -4 -24 -12 -51z m-3547 -32 l40 -20 -28 -16 c-15 -10 -32 -17 -38 -17 -9 0 -52 101 -52 123 0 7 9 -2 19 -19 10 -17 37 -40 59 -51z m-27 -169 c57 -120 126 -162 287 -171 87 -5 93 -7 98 -30 10 -40 -4 -95 -31 -122 -24 -25 -30 -26 -143 -26 -128 0 -196 15 -212 46 -18 32 -38 166 -44 294 -5 94 -4 115 5 95 6 -14 25 -53 40 -86z m1217 96 c120 0 152 -3 152 -13 0 -11 -96 -15 -527 -21 -538 -7 -649 -2 -718 30 -26 12 30 13 455 9 267 -3 554 -5 638 -5z m2183 -6 c-65 -29 -196 -37 -526 -30 -176 3 -407 6 -512 6 -164 0 -193 2 -193 15 0 16 62 17 900 22 332 2 362 1 331 -13z m184 -21 c-2 -21 -6 -83 -10 -138 -8 -122 -30 -228 -53 -248 -38 -33 -223 -49 -304 -27 -51 14 -68 42 -68 111 l0 56 98 6 c164 9 235 53 292 182 15 33 30 68 33 78 10 28 16 19 12 -20z m-3489 -15 l49 -23 613 2 612 1 0 -39 0 -39 398 2 397 3 3 37 3 38 568 -7 c586 -6 653 -3 724 34 16 8 35 12 43 9 13 -5 13 -10 -1 -35 -36 -70 -104 -113 -206 -131 -45 -8 -513 -10 -1574 -8 l-1510 3 -56 22 c-54 23 -106 67 -128 110 -25 49 -8 55 65 21z"/>
</g>
</svg>