<?xml version="1.0" standalone="no"?>
<!DOCTYPE svg PUBLIC "-//W3C//DTD SVG 20010904//EN"
 "http://www.w3.org/TR/2001/REC-SVG-20010904/DTD/svg10.dtd">
<svg version="1.0" xmlns="http://www.w3.org/2000/svg"
 width="429.985181pt" height="373.545679pt" viewBox="0 0 429.985181 373.545679"
 preserveAspectRatio="xMidYMid meet">
<metadata>
Created by potrace 1.16, written by Peter Selinger 2001-2019
</metadata>
<g transform="translate(-57.024579,468.454528) scale(0.100000,-0.100000)"
fill="#000000" stroke="none">
<path d="M2560 4675 c-525 -64 -1005 -367 -1308 -825 -68 -103 -169 -313 -210
-435 -25 -75 -67 -239 -88 -344 -4 -18 -9 -22 -27 -17 -62 18 -126 26 -163 20
-66 -10 -139 -57 -170 -109 -26 -44 -26 -50 -21 -163 5 -120 18 -175 91 -365
37 -96 155 -323 220 -420 303 -460 760 -818 1246 -976 333 -107 771 -122 1115
-37 211 52 419 145 580 259 88 63 269 237 312 301 16 23 30 43 33 46 15 14
110 174 139 234 89 185 141 331 191 539 l29 117 67 68 c249 250 352 671 209
857 -65 86 -167 124 -284 106 -38 -6 -76 -13 -84 -17 -11 -4 -19 6 -27 33 -26
78 -132 278 -209 391 -267 393 -650 641 -1115 721 -153 27 -382 33 -526 16z
m560 -168 c506 -112 868 -405 1101 -892 65 -136 99 -237 137 -410 26 -115 27
-132 27 -405 0 -276 -1 -288 -27 -390 -53 -209 -123 -404 -189 -527 -232 -428
-577 -673 -1079 -765 -171 -31 -497 -31 -665 0 -371 69 -703 234 -1007 501
-237 208 -405 427 -548 716 -76 154 -100 217 -136 349 -36 133 -32 215 12 235
46 21 97 13 184 -29 48 -24 94 -40 109 -38 24 3 27 9 39 83 58 350 140 588
280 813 134 215 369 443 583 567 191 110 346 164 614 215 28 5 140 7 250 5
168 -3 218 -7 315 -28z m1547 -1144 c72 -53 79 -200 18 -378 -34 -99 -111
-239 -153 -278 l-24 -22 4 125 c7 167 -5 284 -42 418 -16 62 -30 119 -30 126
0 38 179 45 227 9z"/>
<path d="M2765 3613 c28 -111 238 -335 386 -411 l53 -27 -2 -80 c-3 -108 26
-182 81 -208 36 -18 38 -18 74 0 60 29 83 85 83 200 l0 94 35 15 c20 8 57 37
84 64 l48 49 19 -21 c11 -11 43 -36 72 -55 l52 -34 0 -72 c0 -129 38 -210 102
-215 73 -6 112 76 107 230 l-3 86 41 45 c50 55 70 91 84 157 8 39 8 54 -1 65
-22 26 -34 16 -64 -50 -45 -101 -118 -155 -209 -155 -56 0 -129 59 -164 135
-27 60 -44 56 -97 -23 -25 -38 -63 -82 -83 -98 -33 -25 -49 -29 -116 -33 -138
-6 -244 54 -434 246 -124 124 -162 149 -148 96z m1135 -427 c0 -23 -19 -66
-29 -66 -5 0 -14 13 -19 30 -9 24 -8 31 6 40 25 14 42 12 42 -4z m-527 -38 c7
-25 -10 -61 -26 -55 -12 4 -28 63 -19 72 13 13 40 3 45 -17z"/>
<path d="M1461 3455 c-60 -19 -89 -50 -108 -114 -40 -139 26 -353 166 -536 63
-83 281 -301 308 -307 32 -8 63 18 63 54 0 25 -19 50 -120 152 -183 185 -282
327 -325 468 -16 49 -16 62 -5 102 14 50 39 74 102 96 30 11 50 11 104 1 142
-26 363 -117 497 -204 86 -56 131 -71 164 -55 35 17 38 29 13 61 -63 80 -372
229 -575 278 -93 22 -220 24 -284 4z"/>
<path d="M2683 2871 c-45 -28 -58 -96 -49 -276 18 -394 115 -730 268 -930 63
-82 174 -188 227 -214 67 -35 169 -52 269 -46 121 7 191 42 292 145 192 196
317 449 431 875 22 83 44 158 49 167 6 10 10 24 10 33 0 8 14 42 31 76 35 69
47 135 30 168 -18 32 -29 26 -55 -33 -22 -49 -29 -56 -90 -85 -126 -59 -194
-73 -386 -78 -188 -5 -289 7 -542 62 -139 31 -163 39 -258 82 -96 45 -167 73
-183 73 -7 0 -26 -9 -44 -19z m341 -217 c61 -14 116 -27 123 -29 12 -4 -11
-93 -63 -243 -36 -105 -43 -113 -66 -68 -31 61 -118 323 -118 357 0 12 -1 12
124 -17z m1015 -86 c-24 -75 -92 -232 -119 -273 -14 -21 -20 -25 -24 -15 -19
59 -27 97 -41 180 -12 75 -12 97 -2 106 6 7 55 23 107 37 52 14 96 26 96 26 1
1 -7 -27 -17 -61z m-591 6 c8 -6 -36 -90 -56 -107 -20 -18 -21 -18 -37 13 -9
18 -23 50 -30 71 l-14 39 67 -6 c37 -4 69 -8 70 -10z m278 -16 c8 -9 -67 -119
-77 -112 -8 5 -39 98 -39 117 0 10 105 5 116 -5z m-824 -348 c30 0 44 -7 74
-40 43 -46 65 -50 105 -16 27 23 31 24 72 11 258 -78 367 -176 413 -371 30
-129 -5 -223 -101 -269 -50 -25 -61 -26 -127 -20 -86 8 -153 36 -225 94 -96
78 -217 261 -273 416 -32 87 -59 193 -51 200 3 4 22 4 41 1 19 -3 52 -6 72 -6z"/>
</g>
</svg>
