<?xml version="1.0" standalone="no"?>
<!DOCTYPE svg PUBLIC "-//W3C//DTD SVG 20010904//EN"
 "http://www.w3.org/TR/2001/REC-SVG-20010904/DTD/svg10.dtd">
<svg version="1.0" xmlns="http://www.w3.org/2000/svg"
 width="316.469914pt" height="377.718082pt" viewBox="0 0 316.469914 377.718082"
 preserveAspectRatio="xMidYMid meet">
<metadata>
Created by potrace 1.16, written by Peter Selinger 2001-2019
</metadata>
<g transform="translate(-64.387761,412.904895) scale(0.100000,-0.100000)"
fill="#000000" stroke="none">
<path d="M1983 4111 c-7 -11 -17 -59 -23 -108 -14 -117 -26 -157 -63 -223 -33
-59 -253 -389 -321 -480 -22 -30 -41 -56 -42 -58 -1 -1 -17 13 -37 33 -19 19
-42 35 -51 35 -40 0 -185 -170 -268 -315 -65 -113 -133 -292 -158 -412 -19
-98 -50 -389 -50 -480 0 -32 -4 -43 -15 -43 -9 0 -27 -12 -42 -26 -24 -25 -25
-28 -18 -112 7 -97 56 -302 119 -499 5 -16 -1 -22 -35 -33 -59 -20 -122 -80
-149 -142 -88 -204 -75 -527 28 -688 94 -147 219 -183 702 -201 387 -14 1181
-6 1442 15 465 38 585 52 612 69 90 60 153 391 112 593 -26 132 -56 215 -91
252 -28 31 -38 35 -84 36 -41 1 -51 4 -47 16 2 8 22 67 44 131 52 149 75 285
76 429 0 144 -15 179 -75 180 l-26 0 -6 143 c-7 165 -26 275 -68 404 -54 164
-163 354 -285 493 -77 88 -115 114 -178 120 l-51 5 -62 95 c-59 90 -93 143
-152 235 -143 225 -284 366 -466 467 -153 84 -248 108 -272 69z m228 -201
c112 -75 214 -164 257 -223 99 -135 210 -306 333 -512 17 -29 40 -98 74 -218
20 -73 43 -97 94 -97 38 0 38 1 70 72 l31 71 26 -24 c74 -69 201 -311 240
-456 35 -129 44 -395 20 -573 -13 -98 -13 -118 -1 -136 13 -21 53 -34 102 -34
23 0 23 -2 17 -52 -35 -298 -219 -537 -533 -694 -92 -45 -264 -95 -396 -115
-115 -16 -428 -14 -552 5 -334 51 -586 190 -764 425 -66 86 -144 248 -171 353
l-23 88 22 22 c17 16 34 22 77 22 31 1 56 4 56 7 0 4 -7 26 -15 49 -49 138
-60 211 -60 390 1 156 3 186 27 277 32 122 90 259 162 380 66 111 100 162 106
162 3 1 20 -25 37 -57 40 -70 49 -82 91 -111 32 -22 34 -23 48 -5 37 47 45 66
69 159 35 135 89 243 186 371 162 214 249 364 249 432 0 28 24 72 39 72 5 0
41 -22 82 -50z m-1174 -2847 c13 -43 17 -91 16 -188 0 -132 -11 -194 -39 -230
-15 -20 -16 -19 -48 16 -43 46 -66 142 -66 271 1 107 12 168 42 217 l21 34 28
-31 c16 -17 36 -58 46 -89z"/>
<path d="M2165 3512 c-109 -79 -156 -230 -122 -394 12 -54 37 -117 84 -210
l68 -133 0 -87 c0 -49 3 -87 7 -85 4 1 32 20 62 41 92 67 147 172 148 282 0
76 -10 110 -77 244 -68 137 -77 167 -84 275 -5 81 -8 90 -26 93 -12 2 -39 -10
-60 -26z"/>
<path d="M1520 2101 c-162 -53 -239 -244 -156 -386 36 -60 61 -83 125 -113 77
-36 148 -34 227 6 70 35 84 49 119 121 64 127 10 286 -120 353 -43 23 -152 33
-195 19z m158 -57 c215 -89 150 -414 -83 -414 -130 0 -232 122 -210 252 22
131 171 213 293 162z"/>
<path d="M1572 1867 c-47 -50 -14 -127 54 -127 24 0 39 8 54 27 57 73 -45 167
-108 100z"/>
<path d="M2830 2098 c-36 -10 -86 -43 -120 -81 -62 -66 -81 -192 -42 -279 40
-92 142 -160 240 -161 182 -1 315 179 258 349 -45 136 -195 212 -336 172z
m202 -73 c79 -52 116 -165 83 -251 -49 -129 -179 -180 -301 -119 -71 36 -106
89 -112 174 -5 76 13 124 66 174 65 62 188 72 264 22z"/>
<path d="M2835 1865 c-32 -31 -33 -74 -2 -103 49 -46 127 -14 127 52 0 68 -77
100 -125 51z"/>
<path d="M1796 1506 c-36 -33 -38 -39 -34 -80 10 -89 111 -192 226 -232 72
-25 227 -44 351 -44 258 1 430 119 408 282 -11 80 -56 97 -207 79 -58 -8 -168
-16 -245 -18 -119 -4 -155 -1 -240 17 -55 12 -127 24 -161 27 -58 5 -62 4 -98
-31z m546 -207 c19 -12 44 -37 56 -55 l21 -33 -29 -6 c-49 -11 -320 20 -320
36 0 13 66 63 102 76 47 18 129 9 170 -18z"/>
<path d="M1415 1427 c-30 -30 -35 -42 -35 -80 0 -77 53 -117 155 -117 68 0
114 18 135 53 30 48 26 100 -9 139 -28 32 -32 33 -120 36 l-91 4 -35 -35z"/>
<path d="M2884 1426 c-27 -27 -34 -42 -34 -72 0 -89 65 -132 184 -121 69 6
106 30 122 78 15 44 2 87 -36 122 -28 25 -37 27 -116 27 -84 0 -87 -1 -120
-34z"/>
<path d="M3734 2638 c-73 -110 -152 -270 -159 -321 -5 -30 -2 -63 9 -101 18
-60 32 -77 43 -49 4 10 38 72 75 138 96 170 111 212 106 308 -3 43 -9 82 -15
88 -8 8 -25 -11 -59 -63z"/>
<path d="M646 1913 c56 -250 97 -363 150 -417 34 -33 124 -81 124 -66 0 6 -9
39 -19 73 -97 318 -111 348 -193 407 -53 38 -70 39 -62 3z"/>
</g>
</svg>
