<?xml version="1.0" standalone="no"?>
<!DOCTYPE svg PUBLIC "-//W3C//DTD SVG 20010904//EN"
 "http://www.w3.org/TR/2001/REC-SVG-20010904/DTD/svg10.dtd">
<svg version="1.0" xmlns="http://www.w3.org/2000/svg"
 width="440.854079pt" height="340.117640pt" viewBox="0 0 440.854079 340.117640"
 preserveAspectRatio="xMidYMid meet">
<metadata>
Created by potrace 1.16, written by Peter Selinger 2001-2019
</metadata>
<g transform="translate(-55.359805,445.553843) scale(0.100000,-0.100000)"
fill="#000000" stroke="none">
<path d="M2330 4454 c-25 -2 -94 -9 -155 -15 -437 -43 -754 -185 -948 -421
-43 -52 -148 -254 -202 -388 -21 -52 -41 -98 -45 -102 -3 -5 -42 19 -87 51
-105 77 -117 80 -121 21 -7 -98 59 -419 123 -599 21 -57 38 -114 38 -126 0
-22 -62 -135 -73 -135 -4 0 -35 24 -71 54 -113 93 -150 80 -61 -21 100 -115
98 -108 65 -224 l-15 -57 -107 -1 c-58 -1 -110 -6 -115 -11 -15 -15 30 -30
109 -37 85 -7 125 -32 125 -77 0 -29 -36 -55 -137 -101 -65 -29 -91 -49 -75
-59 5 -3 52 8 103 24 52 16 106 30 120 30 40 0 59 -30 75 -121 36 -203 45
-234 96 -334 l52 -100 7 -205 c4 -113 12 -222 17 -242 18 -69 44 -102 93 -118
25 -9 60 -28 78 -43 40 -33 68 -35 73 -5 2 19 13 25 55 33 29 5 59 17 67 25 8
8 47 80 86 159 100 202 158 301 178 301 63 0 240 -23 268 -35 19 -8 61 -34 92
-59 123 -95 213 -119 431 -114 l145 3 48 -60 c95 -117 103 -133 103 -199 l0
-61 93 -7 c51 -3 99 -11 107 -18 11 -10 22 -7 50 10 41 26 73 65 109 137 20
41 33 54 62 63 42 14 125 6 158 -15 30 -19 182 -55 230 -55 36 0 44 5 65 35
25 38 51 121 51 166 0 28 25 85 42 95 6 4 20 -6 32 -21 21 -26 23 -27 52 -13
16 9 57 18 92 21 80 6 104 23 132 93 28 68 22 77 85 -143 24 -83 48 -160 54
-171 16 -30 85 -53 177 -59 l83 -6 29 47 c51 80 91 200 118 356 14 79 16 139
11 347 -4 185 -3 255 6 266 7 8 44 35 82 60 122 80 234 199 260 277 52 157
-16 293 -188 379 -48 24 -115 47 -162 56 -43 9 -85 21 -92 27 -18 14 -29 58
-63 249 -73 402 -146 571 -328 755 -283 288 -746 424 -1492 438 -135 2 -265 2
-290 0z m-204 -262 c33 -18 104 -77 104 -87 0 -3 -108 -5 -240 -5 -132 0 -240
4 -240 9 0 10 52 51 89 70 60 32 238 40 287 13z m1692 -126 c187 -51 314 -170
422 -396 37 -76 86 -247 98 -341 l8 -67 -270 -5 c-342 -6 -460 -26 -696 -113
-136 -51 -221 -94 -230 -118 -4 -12 -5 -35 -3 -52 6 -41 -14 -72 -83 -125 -54
-41 -69 -74 -40 -85 8 -3 61 6 118 21 115 30 227 37 252 16 22 -19 88 -15 171
9 257 75 579 114 747 90 l86 -12 10 -56 c30 -158 67 -431 86 -632 17 -181 18
-180 -96 -180 -56 0 -78 4 -78 13 0 6 5 53 11 102 11 98 -2 242 -27 303 -22
54 -42 40 -68 -47 -25 -86 -23 -101 19 -101 39 0 40 -2 24 -81 -5 -30 -12
-106 -14 -171 -4 -150 -25 -189 -108 -203 -66 -12 -67 -8 -67 221 0 111 -4
205 -9 208 -5 3 -15 -1 -22 -10 -7 -8 -26 -21 -44 -28 -17 -7 -56 -34 -86 -58
-77 -63 -95 -71 -140 -64 -46 7 -42 25 -40 -184 2 -178 -7 -227 -68 -347 -21
-43 -47 -105 -57 -138 -21 -71 -37 -93 -56 -78 -23 18 -141 53 -180 53 -21 0
-67 -11 -102 -24 l-65 -25 -5 32 c-3 18 -7 80 -10 138 -2 58 -13 169 -23 247
-19 156 -22 128 32 322 17 60 9 69 -25 28 -35 -42 -56 -100 -75 -212 -30 -177
-100 -251 -300 -316 -38 -12 -123 -45 -187 -71 -65 -27 -128 -49 -141 -49 -13
0 -43 15 -66 33 -97 73 -104 77 -147 77 -42 0 -58 -9 -88 -52 -13 -18 -18 -19
-50 -8 -39 13 -106 81 -106 108 0 22 25 47 58 57 13 4 38 20 56 36 24 21 48
30 87 35 63 7 162 -10 179 -32 29 -34 151 -6 171 40 10 20 8 30 -10 60 -12 19
-37 44 -55 55 -42 27 -138 51 -198 51 -47 0 -48 1 -37 22 6 12 16 27 20 32 5
6 18 23 30 39 49 65 191 117 319 117 44 0 134 -12 220 -30 80 -16 157 -30 173
-30 25 0 27 3 27 40 0 60 -23 104 -91 175 l-61 64 38 45 c20 25 49 49 63 55
14 5 76 12 137 15 109 5 164 17 164 35 0 14 -39 21 -140 22 -117 1 -141 7
-160 42 -13 24 -13 28 1 42 9 9 68 31 132 50 164 47 227 81 182 99 -14 5 -125
-15 -240 -44 -70 -17 -104 -13 -131 17 -38 41 -28 62 54 115 73 49 92 78 48
78 -24 0 -123 -36 -140 -52 -21 -17 -64 -7 -95 22 -37 36 -37 35 -11 92 39 89
115 478 108 557 -3 33 -6 36 -35 39 -32 3 -33 4 -33 51 0 26 3 82 6 123 l7 75
166 81 c163 80 277 121 396 141 33 6 71 13 85 15 47 9 245 -3 298 -18z m-1998
-225 c0 -46 -28 -191 -61 -311 -25 -93 -59 -140 -102 -140 -32 0 -92 -21 -194
-68 -82 -37 -108 -60 -55 -48 170 37 692 31 872 -10 24 -5 24 -5 6 14 -28 32
-144 89 -225 111 -94 26 -123 44 -116 74 2 12 18 94 35 181 34 176 48 212 88
227 52 21 462 -22 625 -65 l82 -21 3 -115 c3 -156 -1 -163 -153 -266 -66 -45
-140 -93 -165 -107 -25 -13 -65 -36 -90 -50 l-45 -25 -120 21 c-100 17 -165
20 -395 21 -164 0 -313 -5 -368 -12 l-93 -13 -62 33 c-34 18 -84 54 -111 80
-58 55 -58 52 5 223 54 149 89 200 156 225 84 31 330 76 436 79 l47 1 0 -39z
m-670 -208 c-18 -49 -44 -109 -57 -135 -25 -47 -53 -70 -53 -44 0 20 85 226
112 271 20 35 23 37 26 18 2 -13 -11 -62 -28 -110z m1690 -326 c-30 -178 -55
-266 -84 -296 l-24 -24 -34 20 c-22 13 -34 28 -36 46 -2 19 -11 29 -27 33 -15
4 -31 21 -43 45 l-19 38 46 53 c74 84 236 238 239 227 2 -5 -6 -69 -18 -142z
m-1914 90 c52 -58 139 -170 182 -234 34 -52 34 -53 17 -80 -33 -50 -98 -123
-110 -123 -23 0 -63 110 -111 308 -47 196 -45 204 22 129z m485 -393 c6 -141
16 -184 58 -254 30 -51 79 -79 157 -92 189 -29 282 24 431 246 38 55 98 131
134 168 73 75 99 83 154 49 38 -22 86 -37 147 -46 79 -10 99 -54 57 -121 -11
-19 -19 -44 -17 -56 3 -22 6 -23 111 -23 100 0 110 -2 132 -24 14 -13 25 -27
25 -32 0 -4 -25 -27 -55 -50 -83 -62 -72 -103 15 -59 58 30 63 25 32 -30 -34
-62 -27 -76 56 -105 64 -22 92 -39 57 -34 -36 5 -75 -10 -75 -30 0 -21 19 -31
55 -31 39 0 39 -19 0 -56 -46 -43 -90 -66 -118 -62 -17 2 -23 11 -27 43 -10
78 -68 81 -295 14 -378 -111 -547 -146 -745 -153 -136 -5 -290 7 -452 34 -237
40 -301 18 -251 -87 22 -47 184 -210 258 -260 254 -171 516 -233 728 -175 92
26 117 27 117 6 0 -18 -58 -44 -99 -44 -23 0 -33 -7 -43 -27 -19 -39 -63 -49
-159 -35 -226 33 -455 156 -711 384 -85 76 -190 209 -208 263 -15 46 -6 82 23
91 61 18 75 75 32 139 -15 20 -24 39 -22 41 2 2 19 -7 37 -21 43 -32 50 -31
50 3 0 16 -14 45 -35 71 -38 48 -35 71 11 71 31 0 51 23 68 79 33 111 113 215
231 299 35 25 104 53 120 48 6 -1 13 -63 16 -142z m3174 -136 c95 -47 149
-135 149 -238 0 -83 -28 -144 -99 -217 -50 -52 -75 -65 -75 -40 0 6 -14 118
-30 247 -37 291 -36 283 -7 275 12 -4 40 -16 62 -27z m-1910 -468 c10 -16
-144 -160 -169 -160 -9 0 -7 114 3 128 19 31 151 56 166 32z m-233 -85 c21
-46 -14 -109 -124 -220 l-98 -100 0 147 0 147 73 22 c39 11 77 22 82 24 31 11
56 3 67 -20z m-1334 -57 c7 -7 12 -36 12 -66 0 -47 -2 -53 -15 -42 -17 14 -65
94 -65 109 0 15 53 14 68 -1z m1062 -55 c16 -73 16 -189 1 -227 -35 -87 -173
-144 -372 -153 -102 -5 -126 -3 -190 17 -95 29 -162 63 -188 96 -18 23 -21 39
-20 118 1 50 4 105 8 121 l6 30 185 2 c128 1 230 8 330 23 79 12 146 23 149
26 2 2 21 4 42 4 l38 0 11 -57z m-829 -4 c11 -39 10 -239 -1 -239 -16 0 -134
104 -147 131 -16 30 -17 146 -2 151 6 2 41 -1 77 -7 58 -10 67 -14 73 -36z
m2696 -227 c-9 -48 -21 -127 -27 -177 -13 -111 -37 -193 -61 -205 -25 -14
-152 -23 -168 -12 -11 8 -12 18 -3 53 6 24 16 82 22 128 6 47 20 101 30 120
34 66 209 219 218 191 2 -6 -3 -50 -11 -98z m-2835 -148 c162 -51 388 -171
388 -205 0 -9 -15 -39 -33 -65 -19 -27 -62 -104 -96 -171 -64 -125 -111 -182
-154 -184 -59 -3 -96 5 -135 28 -55 31 -102 103 -102 155 0 63 25 72 210 78
169 5 178 8 207 63 14 27 13 32 -4 56 -50 66 -143 101 -273 101 -97 0 -102 3
-139 79 -46 96 -16 111 131 65z m1942 -270 c7 -77 12 -140 11 -142 -1 -1 -12
26 -25 60 -12 35 -26 67 -30 71 -4 4 -10 -46 -13 -112 -5 -89 -13 -136 -31
-186 -13 -36 -27 -69 -31 -73 -12 -13 -145 -15 -160 -2 -8 6 -33 46 -55 87
-23 42 -52 89 -65 105 -14 16 -25 33 -25 37 0 4 26 20 57 35 97 48 184 109
267 189 44 42 81 75 83 73 2 -2 10 -66 17 -142z m1380 100 c-10 -62 -64 -244
-84 -284 -25 -49 -69 -80 -112 -80 -75 0 -88 14 -133 137 -38 107 -40 104 66
118 62 8 155 54 209 103 25 23 48 41 52 42 5 0 5 -16 2 -36z"/>
<path d="M3505 3954 c-11 -3 -31 -7 -44 -10 -23 -5 -23 -8 -18 -72 5 -74 93
-419 112 -440 6 -7 36 -14 67 -16 68 -3 272 18 310 33 26 10 27 13 22 58 -12
99 -36 231 -56 308 -11 44 -22 90 -25 102 -3 12 -12 25 -22 29 -19 8 -316 15
-346 8z m198 -292 c71 -33 132 -83 160 -131 18 -30 18 -30 -5 -36 -38 -8 -190
-25 -229 -25 -36 0 -37 1 -54 61 -9 34 -19 86 -22 117 l-6 55 46 -5 c25 -3 74
-19 110 -36z"/>
<path d="M3953 3863 c4 -37 21 -145 39 -241 36 -197 23 -180 151 -206 98 -21
107 -17 107 45 0 84 -58 224 -136 329 -47 63 -129 140 -149 140 -16 0 -17 -8
-12 -67z"/>
<path d="M3225 3885 c-74 -26 -151 -64 -198 -99 -53 -38 -57 -58 -57 -264 0
-104 3 -210 6 -236 10 -68 25 -73 131 -36 48 17 129 45 178 61 115 40 184 77
191 103 9 39 -82 388 -123 469 -17 34 -37 34 -128 2z m153 -272 c12 -27 26
-68 32 -92 17 -67 3 -76 -120 -76 -115 0 -130 7 -110 56 17 41 134 159 158
159 12 0 26 -16 40 -47z"/>
<path d="M3425 2063 c-116 -17 -170 -44 -200 -104 -20 -37 -19 -75 4 -124 38
-83 100 -115 243 -122 119 -7 174 6 219 53 28 29 33 43 37 93 7 91 -30 141
-131 178 -45 16 -139 30 -172 26z"/>
<path d="M2191 1692 c-14 -26 13 -64 42 -60 28 4 34 34 11 59 -22 24 -40 24
-53 1z"/>
<path d="M2316 1691 c-9 -14 4 -40 26 -52 25 -14 41 0 36 32 -2 17 -10 25 -30
27 -14 2 -29 -1 -32 -7z"/>
<path d="M2074 1625 c-8 -20 2 -44 22 -52 21 -8 59 30 51 51 -8 21 -66 21 -73
1z"/>
<path d="M2022 3723 c-55 -233 -61 -293 -27 -293 15 0 34 55 61 170 35 152 50
166 155 156 90 -8 160 -35 178 -67 13 -24 11 -43 -17 -195 -18 -93 -32 -177
-32 -187 0 -49 88 -18 116 41 9 20 28 81 41 136 36 154 41 166 67 166 12 0 59
-18 104 -40 l82 -39 0 29 c0 55 -21 128 -43 148 -12 11 -44 27 -71 36 -42 14
-80 21 -231 41 -16 2 -75 6 -130 9 -55 4 -128 9 -162 12 l-61 5 -30 -128z"/>
<path d="M1580 3833 c-175 -27 -250 -46 -250 -65 0 -10 -15 -8 167 -16 103 -5
156 -11 165 -20 16 -16 14 -83 -7 -207 -9 -52 -14 -99 -10 -105 13 -21 44 11
65 67 26 69 82 323 75 341 -4 12 -140 15 -205 5z"/>
<path d="M2128 2950 c-50 -51 -75 -100 -50 -100 28 0 148 133 136 151 -11 18
-30 7 -86 -51z"/>
<path d="M1218 2980 c-37 -23 4 -51 94 -63 48 -7 57 8 26 40 -28 27 -93 40
-120 23z"/>
<path d="M2241 2925 c-66 -21 -115 -75 -147 -161 -18 -51 -25 -83 -20 -106 14
-75 112 -148 198 -148 109 0 248 117 248 209 0 55 -17 85 -82 147 -81 79 -108
87 -197 59z m102 -48 c73 -31 137 -125 123 -182 -9 -36 -56 -86 -101 -106
-137 -63 -280 35 -226 155 21 47 67 98 114 126 38 24 48 24 90 7z"/>
<path d="M2204 2735 c-21 -51 -18 -118 6 -140 25 -23 50 -13 52 22 7 133 -24
198 -58 118z"/>
<path d="M1223 2886 c-79 -28 -122 -102 -123 -209 0 -108 44 -175 130 -198 60
-16 107 -6 167 34 33 22 50 42 57 66 21 74 -46 266 -104 296 -39 20 -89 25
-127 11z m90 -55 c58 -22 110 -210 74 -265 -20 -29 -78 -50 -119 -42 -130 26
-165 199 -58 290 33 27 62 32 103 17z"/>
<path d="M1237 2735 c-32 -31 -33 -139 -3 -181 11 -15 17 -16 29 -6 22 19 30
77 17 137 -13 62 -22 72 -43 50z"/>
<path d="M1609 2601 c-67 -21 -129 -72 -129 -107 0 -44 106 -56 260 -29 134
24 163 42 139 87 -19 35 -86 58 -169 57 -41 0 -87 -4 -101 -8z"/>
<path d="M1714 2145 c-11 -28 12 -228 30 -263 41 -78 45 -11 11 180 -15 85
-29 115 -41 83z"/>
</g>
</svg>
