<?xml version="1.0" standalone="no"?><!DOCTYPE svg PUBLIC "-//W3C//DTD SVG 20010904//EN" "http://www.w3.org/TR/2001/REC-SVG-20010904/DTD/svg10.dtd"><svg xmlns="http://www.w3.org/2000/svg" version="1.0" width="9.6986mm" height="10mm" viewBox="0 0 100.650204 103.777809" preserveAspectRatio="xMidYMid meet">
<metadata>
Created by potrace 1.16, written by Peter Selinger 2001-2019
</metadata>
<g transform="translate(-98.374001,201.798696) scale(0.100000,-0.100000)" fill="#000000" stroke="none">
<path d="M1400 2009 c-30 -5 -87 -25 -127 -45 -315 -158 -388 -584 -143 -834 103 -104 214 -150 359 -150 179 1 342 97 438 260 60 100 81 285 47 401 -55 186 -202 326 -381 364 -75 16 -112 17 -193 4z m221 -59 c167 -51 288 -192 320 -370 34 -190 -61 -399 -224 -495 -55 -31 -172 -65 -228 -65 -109 0 -223 47 -309 126 -67 63 -99 113 -130 204 -29 85 -25 236 9 319 93 231 334 352 562 281z"/>
<path d="M1474 1705 c-10 -15 -26 -25 -40 -25 -31 0 -40 -17 -20 -39 9 -10 16 -35 16 -59 0 -45 12 -53 45 -28 17 12 24 12 47 0 25 -13 29 -13 34 1 4 8 4 24 1 35 -3 11 3 26 14 36 26 23 24 33 -10 45 -15 6 -33 21 -39 34 -15 32 -27 31 -48 0z"/>
<path d="M1612 1475 c-9 -18 -19 -25 -41 -25 -40 0 -48 -16 -22 -44 12 -13 21 -36 21 -54 0 -34 9 -39 41 -22 14 8 25 6 43 -6 31 -20 49 -10 43 25 -4 19 2 33 20 53 27 28 25 33 -22 40 -11 2 -26 16 -33 31 -16 34 -35 35 -50 2z"/>
<path d="M1346 1465 c-11 -17 -26 -25 -46 -25 -35 0 -39 -19 -10 -45 16 -14 19 -26 14 -51 -7 -39 8 -51 37 -30 19 13 25 13 50 0 45 -23 52 -19 45 25 -5 33 -3 42 15 55 28 19 18 46 -16 46 -17 0 -29 8 -37 25 -6 14 -17 25 -23 25 -7 0 -20 -11 -29 -25z"/>
</g>
</svg>