<?xml version="1.0" standalone="no"?><!DOCTYPE svg PUBLIC "-//W3C//DTD SVG 20010904//EN" "http://www.w3.org/TR/2001/REC-SVG-20010904/DTD/svg10.dtd"><svg xmlns="http://www.w3.org/2000/svg" version="1.0" width="9.7583mm" height="10mm" viewBox="0 0 100.932244 103.432536" preserveAspectRatio="xMidYMid meet">
<metadata>
Created by potrace 1.16, written by Peter Selinger 2001-2019
</metadata>
<g transform="translate(-99.010739,201.994807) scale(0.100000,-0.100000)" fill="#000000" stroke="none">
<path d="M1338 1997 c-164 -56 -293 -199 -333 -369 -62 -263 73 -519 322 -615 92 -35 218 -37 316 -4 250 84 396 337 347 602 -5 30 -28 91 -50 135 -63 128 -179 224 -315 260 -80 22 -209 17 -287 -9z m273 -33 c137 -41 236 -123 294 -246 131 -277 -12 -598 -300 -673 -234 -61 -472 75 -550 313 -13 42 -16 78 -13 165 3 105 6 117 40 187 99 205 327 314 529 254z"/>
<path d="M1322 1815 c-13 -14 -33 -25 -47 -25 -29 0 -31 -11 -9 -45 11 -17 14 -36 10 -55 -6 -33 0 -36 38 -19 20 10 30 9 49 -4 30 -19 37 -14 37 28 0 18 9 41 21 54 18 19 19 25 8 32 -8 5 -22 9 -32 9 -9 0 -23 11 -29 25 -6 14 -14 25 -18 25 -3 0 -16 -11 -28 -25z"/>
<path d="M1595 1797 c-12 -19 -26 -27 -46 -27 -39 0 -45 -17 -18 -46 20 -22 22 -28 12 -54 -14 -37 -2 -45 34 -26 24 12 32 12 53 0 37 -20 40 -18 40 24 0 26 7 45 20 57 26 24 25 35 -2 35 -14 0 -34 13 -49 32 l-26 31 -18 -26z"/>
<path d="M1200 1585 c-8 -14 -25 -28 -39 -32 -41 -9 -44 -14 -21 -38 19 -21 21 -28 12 -54 -13 -37 -4 -44 36 -29 25 10 34 9 56 -5 40 -26 49 -22 41 19 -5 30 -2 41 17 61 19 20 20 25 8 33 -8 5 -24 10 -35 10 -14 0 -25 10 -32 30 -14 37 -25 38 -43 5z"/>
<path d="M1455 1576 c-10 -14 -30 -27 -50 -30 -40 -8 -43 -16 -15 -41 16 -14 19 -26 14 -56 -7 -43 -5 -45 34 -25 24 12 30 12 47 0 33 -24 45 -17 45 25 0 28 6 42 22 53 26 17 17 38 -18 38 -17 0 -27 8 -34 24 -13 36 -27 40 -45 12z"/>
<path d="M1712 1565 c-7 -14 -20 -25 -31 -25 -11 0 -26 -3 -35 -6 -14 -5 -14 -9 3 -30 15 -18 18 -34 13 -66 -5 -38 -3 -41 14 -33 34 14 71 17 78 6 16 -25 36 -11 36 25 0 27 7 41 25 56 14 11 25 24 25 29 0 5 -11 9 -25 9 -25 0 -65 31 -65 50 0 20 -27 9 -38 -15z"/>
<path d="M1335 1360 c-4 -12 -15 -20 -28 -20 -12 0 -29 -4 -37 -10 -12 -7 -12 -12 4 -29 14 -15 17 -29 12 -56 -8 -39 3 -44 48 -24 19 9 29 8 47 -5 34 -23 42 -20 35 15 -5 25 0 38 20 62 l27 32 -37 8 c-20 5 -41 18 -47 28 -13 25 -36 24 -44 -1z"/>
<path d="M1576 1345 c-11 -17 -26 -25 -46 -25 -35 0 -36 -2 -14 -35 10 -15 15 -38 12 -60 -4 -38 4 -43 46 -24 19 9 29 8 47 -5 34 -23 39 -20 39 22 0 28 7 45 25 62 29 27 24 40 -15 40 -20 0 -35 8 -46 25 -9 14 -20 25 -24 25 -4 0 -15 -11 -24 -25z"/>
</g>
</svg>