<?xml version="1.0" standalone="no"?><!DOCTYPE svg PUBLIC "-//W3C//DTD SVG 20010904//EN" "http://www.w3.org/TR/2001/REC-SVG-20010904/DTD/svg10.dtd"><svg xmlns="http://www.w3.org/2000/svg" version="1.0" width="9.7886mm" height="10mm" viewBox="0 0 100.886824 103.065200" preserveAspectRatio="xMidYMid meet">
<metadata>
Created by potrace 1.16, written by Peter Selinger 2001-2019
</metadata>
<g transform="translate(-101.113176,201.840713) scale(0.100000,-0.100000)" fill="#000000" stroke="none">
<path d="M1360 1998 c-132 -47 -231 -134 -295 -260 -44 -89 -59 -162 -53 -273 12 -209 145 -386 344 -456 83 -29 221 -28 310 1 211 70 354 273 354 502 0 194 -119 381 -297 466 -73 35 -85 37 -188 40 -94 2 -120 -1 -175 -20z m271 -34 c157 -47 258 -143 315 -300 29 -79 33 -211 8 -295 -97 -331 -497 -449 -747 -219 -70 64 -112 138 -138 240 -20 76 -21 94 -11 168 32 243 222 418 458 421 33 1 85 -6 115 -15z"/>
<path d="M1496 1575 c-11 -17 -26 -25 -46 -25 -33 0 -38 -14 -15 -44 8 -11 15 -35 15 -53 0 -35 9 -40 41 -23 14 8 27 7 48 -5 33 -17 46 -7 36 26 -5 14 0 28 15 44 26 28 21 41 -19 50 -20 4 -31 14 -35 31 -8 31 -19 30 -40 -1z"/>
</g>
</svg>