<?xml version="1.0" standalone="no"?><!DOCTYPE svg PUBLIC "-//W3C//DTD SVG 20010904//EN" "http://www.w3.org/TR/2001/REC-SVG-20010904/DTD/svg10.dtd"><svg xmlns="http://www.w3.org/2000/svg" version="1.0" width="9.7486mm" height="10mm" viewBox="0 0 101.134310 103.742107" preserveAspectRatio="xMidYMid meet">
<metadata>
Created by potrace 1.16, written by Peter Selinger 2001-2019
</metadata>
<g transform="translate(-96.873780,207.838540) scale(0.100000,-0.100000)" fill="#000000" stroke="none">
<path d="M1360 2061 c-276 -74 -446 -362 -375 -634 47 -180 173 -313 353 -372 42 -13 76 -16 155 -13 122 6 185 28 275 96 195 149 263 390 173 619 -26 67 -45 96 -101 155 -79 85 -138 121 -246 148 -94 24 -148 24 -234 1z m280 -60 c71 -27 164 -102 213 -171 98 -141 105 -368 14 -523 -36 -60 -135 -150 -201 -181 -210 -99 -469 -17 -585 185 -91 160 -85 358 18 516 55 86 170 168 268 193 62 15 211 5 273 -19z"/>
<path d="M1325 1770 c-4 -12 -19 -22 -41 -26 -35 -6 -43 -21 -21 -43 6 -6 12 -29 12 -49 0 -32 3 -36 20 -33 33 5 69 4 93 -4 20 -7 22 -4 22 26 0 19 7 43 15 53 17 22 4 46 -25 46 -9 0 -22 11 -28 25 -14 30 -38 33 -47 5z"/>
<path d="M1581 1763 c-7 -14 -25 -24 -51 -28 -45 -8 -49 -14 -20 -40 17 -16 20 -26 14 -62 -7 -48 -5 -49 38 -27 25 13 36 14 50 5 25 -16 38 -6 38 28 0 16 10 37 25 51 29 27 24 40 -15 40 -19 0 -35 9 -48 27 -19 26 -20 26 -31 6z"/>
<path d="M1353 1506 c-12 -14 -30 -26 -41 -26 -30 0 -36 -17 -18 -45 9 -13 16 -37 16 -53 0 -38 8 -44 35 -26 18 12 29 13 44 5 37 -20 53 -14 46 17 -4 21 -1 33 15 47 27 24 26 45 -2 45 -14 0 -34 13 -49 31 l-26 32 -20 -27z"/>
<path d="M1598 1505 c-6 -14 -19 -25 -29 -25 -49 0 -66 -30 -28 -51 18 -9 20 -17 15 -51 -6 -39 -6 -40 16 -33 31 10 69 10 91 1 14 -7 17 -3 17 27 0 19 7 40 15 47 25 20 18 47 -13 53 -17 4 -33 16 -40 31 -15 33 -29 33 -44 1z"/>
</g>
</svg>