<?xml version="1.0" standalone="no"?><!DOCTYPE svg PUBLIC "-//W3C//DTD SVG 20010904//EN" "http://www.w3.org/TR/2001/REC-SVG-20010904/DTD/svg10.dtd"><svg xmlns="http://www.w3.org/2000/svg" version="1.0" width="9.7451mm" height="10mm" viewBox="0 0 100.859409 103.497395" preserveAspectRatio="xMidYMid meet">
<metadata>
Created by potrace 1.16, written by Peter Selinger 2001-2019
</metadata>
<g transform="translate(-99.842910,201.962988) scale(0.100000,-0.100000)" fill="#000000" stroke="none">
<path d="M1358 2001 c-403 -129 -490 -679 -146 -924 197 -141 465 -118 636 52 127 128 184 310 149 478 -41 191 -171 340 -344 393 -84 26 -215 26 -295 1z m245 -36 c140 -29 267 -138 322 -275 27 -68 30 -85 30 -190 0 -111 -2 -117 -37 -192 -103 -219 -331 -326 -549 -258 -334 103 -438 541 -188 791 115 115 262 158 422 124z"/>
<path d="M1385 1686 c-10 -14 -30 -27 -50 -30 -40 -8 -42 -15 -16 -47 14 -17 17 -33 13 -58 -5 -32 -4 -34 19 -26 30 9 58 9 87 0 20 -7 22 -4 22 31 0 25 7 45 22 61 l21 23 -32 6 c-21 5 -37 16 -47 35 -18 35 -19 35 -39 5z"/>
<path d="M1556 1515 c-10 -16 -26 -25 -41 -25 -28 0 -33 -21 -10 -40 11 -9 13 -23 9 -51 -7 -43 -1 -46 41 -27 21 9 31 9 46 0 30 -19 39 -14 39 20 0 18 9 41 21 54 25 26 18 44 -17 44 -16 0 -28 8 -36 25 -6 14 -17 25 -23 25 -7 0 -20 -11 -29 -25z"/>
</g>
</svg>