<?xml version="1.0" standalone="no"?><!DOCTYPE svg PUBLIC "-//W3C//DTD SVG 20010904//EN" "http://www.w3.org/TR/2001/REC-SVG-20010904/DTD/svg10.dtd"><svg xmlns="http://www.w3.org/2000/svg" version="1.0" width="9.7238mm" height="10mm" viewBox="0 0 101.068016 103.938406" preserveAspectRatio="xMidYMid meet">
<metadata>
Created by potrace 1.16, written by Peter Selinger 2001-2019
</metadata>
<g transform="translate(-104.931999,204.950195) scale(0.100000,-0.100000)" fill="#000000" stroke="none">
<path d="M1444 2040 c-122 -24 -268 -137 -331 -256 -60 -113 -80 -273 -49 -390 59 -222 264 -383 486 -384 138 0 268 58 369 165 161 173 187 438 62 640 -36 58 -128 146 -187 177 -97 52 -233 71 -350 48z m264 -62 c147 -54 259 -179 290 -323 22 -99 23 -132 8 -205 -34 -163 -124 -284 -261 -351 -68 -33 -74 -34 -191 -34 -119 0 -121 0 -197 38 -98 48 -165 115 -212 209 -89 182 -61 397 72 539 135 145 317 192 491 127z"/>
<path d="M1557 1836 c-11 -16 -27 -26 -42 -26 -33 0 -41 -18 -17 -43 15 -17 18 -28 11 -51 -11 -39 -6 -42 37 -27 31 11 38 11 54 -4 26 -24 40 -11 40 36 0 26 5 42 15 45 24 10 17 31 -12 39 -16 3 -37 18 -49 32 l-20 25 -17 -26z"/>
<path d="M1356 1665 c-10 -15 -26 -25 -41 -25 -34 0 -41 -18 -16 -44 16 -17 20 -30 15 -54 -7 -35 -1 -38 41 -22 20 8 32 6 48 -5 32 -22 37 -19 37 23 0 28 7 45 25 62 27 26 20 40 -22 40 -13 0 -30 11 -39 25 -9 14 -20 25 -24 25 -4 0 -15 -11 -24 -25z"/>
<path d="M1760 1640 c-15 -22 -29 -30 -51 -30 -34 0 -35 -3 -9 -39 14 -21 18 -37 13 -65 l-6 -37 36 17 c33 16 37 16 61 1 40 -27 49 -22 41 22 -6 34 -3 41 20 59 32 25 25 42 -16 42 -22 0 -32 6 -39 24 -14 37 -27 39 -50 6z"/>
<path d="M1548 1610 c-13 -23 -24 -30 -48 -30 -35 0 -37 -8 -10 -43 15 -18 18 -33 14 -56 -7 -35 8 -41 37 -15 17 15 20 14 48 -5 33 -24 47 -15 37 24 -4 16 1 32 19 53 32 39 32 42 -9 42 -29 0 -36 5 -45 30 -13 38 -22 38 -43 0z"/>
<path d="M1427 1430 c-14 -23 -25 -30 -48 -30 -34 0 -38 -19 -9 -45 13 -12 20 -31 20 -57 0 -44 3 -45 32 -18 21 19 21 19 49 0 23 -17 49 -26 49 -17 0 1 -4 17 -9 35 -9 29 -7 34 20 54 38 28 37 36 -6 44 -26 4 -40 15 -51 35 -18 36 -25 36 -47 -1z"/>
<path d="M1651 1430 c-7 -23 -16 -30 -35 -30 -35 0 -42 -18 -17 -44 18 -19 21 -30 15 -65 -7 -45 3 -52 31 -21 23 25 30 25 65 0 34 -24 41 -18 29 23 -9 29 -6 35 21 58 16 14 30 28 30 31 0 4 -18 9 -39 13 -31 5 -42 13 -51 36 -16 37 -35 37 -49 -1z"/>
</g>
</svg>