<?xml version="1.0" standalone="no"?><!DOCTYPE svg PUBLIC "-//W3C//DTD SVG 20010904//EN" "http://www.w3.org/TR/2001/REC-SVG-20010904/DTD/svg10.dtd"><svg xmlns="http://www.w3.org/2000/svg" version="1.0" width="9.7101mm" height="10mm" viewBox="0 0 100.767188 103.775655" preserveAspectRatio="xMidYMid meet">
<metadata>
Created by potrace 1.16, written by Peter Selinger 2001-2019
</metadata>
<g transform="translate(-101.986652,203.692491) scale(0.100000,-0.100000)" fill="#000000" stroke="none">
<path d="M1450 2034 c-147 -29 -290 -129 -362 -254 -91 -158 -91 -373 2 -530 116 -197 338 -291 555 -235 194 51 345 222 377 428 37 243 -108 488 -338 567 -58 21 -185 33 -234 24z m263 -86 c103 -50 176 -122 225 -225 37 -77 37 -80 37 -203 0 -124 0 -126 -37 -203 -70 -146 -196 -243 -351 -269 -315 -52 -593 262 -511 577 45 174 157 294 329 351 25 9 75 13 135 11 86 -2 103 -6 173 -39z"/>
<path d="M1508 1810 c-16 -19 -36 -30 -52 -30 -31 0 -34 -20 -7 -44 15 -13 18 -26 14 -58 l-6 -40 41 21 c35 18 42 19 52 6 21 -26 40 -18 40 17 0 18 9 41 21 54 25 26 18 44 -16 44 -17 0 -29 9 -40 30 -9 17 -17 30 -18 30 -1 0 -14 -13 -29 -30z"/>
<path d="M1304 1645 c-11 -17 -25 -25 -45 -25 -38 0 -46 -17 -20 -44 16 -17 19 -30 14 -59 -6 -40 -1 -43 43 -27 20 8 32 7 50 -5 36 -23 43 -19 37 24 -5 34 -2 41 21 56 33 22 34 45 1 45 -25 0 -65 31 -65 50 0 18 -19 10 -36 -15z"/>
<path d="M1710 1637 c-19 -31 -27 -37 -56 -37 -41 0 -41 -3 -10 -41 20 -24 23 -34 16 -59 -11 -38 1 -45 41 -25 29 16 32 16 53 -4 26 -25 36 -19 36 22 0 17 11 45 25 62 27 37 24 45 -16 45 -23 0 -32 8 -48 37 l-19 38 -22 -38z"/>
<path d="M1370 1420 c-14 -19 -30 -30 -46 -30 -29 0 -31 -20 -4 -45 16 -14 19 -26 14 -52 -7 -36 0 -40 40 -22 20 10 30 9 50 -5 35 -22 36 -21 36 23 0 31 6 43 27 59 29 21 24 42 -10 42 -28 0 -41 9 -56 38 -16 29 -25 28 -51 -8z"/>
<path d="M1625 1410 c-12 -23 -22 -30 -45 -30 -35 0 -41 -24 -10 -40 17 -9 19 -17 14 -52 -7 -40 -6 -41 17 -33 30 9 58 9 87 0 20 -7 22 -4 22 26 0 20 9 42 22 56 19 20 20 25 8 33 -8 5 -23 10 -32 10 -10 0 -24 14 -33 30 -9 17 -20 30 -25 30 -5 0 -16 -13 -25 -30z"/>
</g>
</svg>