<?xml version="1.0" standalone="no"?><!DOCTYPE svg PUBLIC "-//W3C//DTD SVG 20010904//EN" "http://www.w3.org/TR/2001/REC-SVG-20010904/DTD/svg10.dtd"><svg xmlns="http://www.w3.org/2000/svg" version="1.0" width="9.6032mm" height="16mm" viewBox="0 0 210.012472 349.902962" preserveAspectRatio="xMidYMid meet">
<metadata>
Created by potrace 1.16, written by Peter Selinger 2001-2019
</metadata>
<g transform="translate(0.012472,349.902962) scale(0.100000,-0.100000)" fill="#000000" stroke="none">
<path d="M1530 3482 c-19 -9 -45 -33 -58 -52 -21 -30 -23 -44 -19 -98 4 -47 12 -73 30 -99 44 -62 177 -170 267 -218 113 -60 175 -121 175 -173 0 -42 -25 -81 -68 -106 -39 -22 -54 -20 -53 5 1 30 -17 34 -29 7 -15 -34 -46 -33 -90 2 -34 27 -44 30 -78 25 -36 -7 -41 -4 -79 37 -37 40 -39 46 -34 86 5 41 4 45 -40 87 -25 25 -48 45 -50 45 -2 0 -4 -14 -4 -31 0 -28 -2 -30 -16 -18 -9 7 -34 50 -55 95 -31 66 -45 85 -73 98 -33 16 -56 20 -56 12 0 -3 14 -18 30 -34 17 -17 30 -40 30 -51 0 -28 -14 -26 -34 4 -19 30 -59 51 -146 79 -68 22 -73 28 -115 126 l-15 35 3 -58 c2 -56 -6 -74 -18 -38 -7 22 -43 57 -51 48 -3 -3 3 -25 13 -49 24 -54 84 -108 121 -108 33 0 102 -31 121 -53 12 -16 11 -16 -24 -1 -21 8 -72 22 -114 30 -42 8 -88 19 -102 25 -32 12 -66 71 -75 127 -3 23 -10 39 -15 36 -14 -9 -10 -87 6 -118 9 -16 13 -31 10 -34 -6 -6 -56 27 -72 47 -11 15 -12 15 -13 0 0 -8 16 -34 35 -57 41 -47 106 -75 217 -94 47 -8 79 -19 97 -34 32 -28 14 -31 -37 -5 -20 10 -61 24 -90 30 -29 6 -68 18 -88 26 -69 29 -271 -22 -361 -91 -47 -36 -41 -44 20 -28 78 21 90 16 21 -10 -109 -40 -169 -84 -215 -155 -36 -56 -39 -84 -7 -54 23 21 61 43 73 43 4 0 -13 -23 -38 -50 -49 -54 -77 -121 -77 -182 0 -43 12 -49 28 -15 8 16 11 18 11 5 2 -46 -62 -60 -153 -33 -66 20 -92 19 -117 -6 -27 -27 -21 -81 21 -163 37 -73 38 -93 3 -109 -16 -6 -30 -14 -33 -17 -3 -3 -14 -10 -25 -16 -11 -6 -22 -22 -24 -35 -3 -23 -2 -23 16 -6 11 9 34 17 51 17 22 0 39 8 54 25 24 28 53 33 61 11 3 -8 19 -17 36 -21 17 -4 33 -11 36 -16 8 -12 95 -12 95 0 0 5 -12 19 -27 32 -25 19 -26 21 -5 15 23 -8 31 7 11 20 -8 5 -6 10 5 16 14 8 12 13 -15 35 -33 28 -28 29 -141 -4 -12 -4 -24 9 -43 47 -60 118 15 142 154 49 71 -47 96 -79 105 -134 9 -49 44 -102 96 -144 39 -31 55 -29 44 6 -3 11 3 8 16 -10 22 -28 107 -77 134 -77 22 0 186 -48 238 -70 56 -24 62 -24 54 -5 -9 24 11 18 106 -32 104 -55 203 -140 229 -198 19 -41 26 -135 11 -135 -5 0 -14 17 -20 38 -17 56 -82 152 -133 196 -24 21 -69 50 -99 65 -50 24 -66 26 -181 26 -107 0 -123 2 -108 13 22 15 25 32 6 32 -8 0 -41 -14 -74 -30 -55 -28 -128 -95 -175 -161 -16 -23 -16 -23 -8 21 5 25 12 53 15 63 4 9 3 17 -2 17 -20 0 -62 -57 -74 -100 -15 -54 -38 -92 -50 -84 -20 12 -31 -55 -27 -178 3 -101 1 -129 -10 -133 -13 -5 -11 -18 5 -63 4 -8 -5 -12 -24 -12 -17 0 -38 -9 -47 -19 -15 -16 -16 -25 -6 -62 7 -24 21 -56 31 -70 39 -55 13 -109 -53 -109 -23 0 -44 -8 -62 -25 -32 -29 -36 -51 -6 -35 13 7 20 7 20 1 0 -6 -9 -15 -20 -21 -23 -12 -27 -35 -5 -26 54 22 52 21 33 2 -10 -9 -18 -21 -18 -26 0 -17 18 -20 30 -5 7 8 22 15 34 15 11 0 38 13 59 29 34 26 44 29 106 26 38 -1 73 -5 79 -9 6 -3 17 0 24 8 10 10 19 11 32 4 23 -13 29 -6 13 16 -8 12 -31 18 -72 21 -71 6 -105 33 -128 103 -8 26 -18 55 -22 64 -14 35 34 19 97 -33 124 -99 229 -136 413 -146 104 -5 130 -3 194 15 41 12 77 19 80 17 3 -3 -16 -27 -40 -53 -25 -26 -71 -77 -102 -113 -45 -52 -75 -76 -148 -115 -180 -96 -252 -192 -253 -333 0 -99 27 -162 98 -229 57 -54 142 -92 205 -92 51 0 98 -17 142 -52 20 -15 42 -28 49 -28 29 0 -18 170 -62 225 -12 15 -45 43 -74 61 -115 74 -152 179 -100 289 32 70 82 109 223 176 159 75 201 104 261 185 49 66 66 103 77 177 8 53 29 36 22 -19 -6 -55 6 -56 27 -3 22 56 32 159 17 187 -9 17 -7 27 8 54 42 73 73 198 73 293 0 169 -60 290 -203 414 -115 100 -152 124 -271 177 -57 25 -128 57 -158 71 l-55 25 45 14 c56 17 162 18 178 2 7 -7 12 -20 12 -29 0 -25 26 -42 55 -35 27 7 35 26 10 26 -8 0 -15 7 -15 15 0 8 -14 30 -31 50 -31 35 -31 37 -19 75 7 22 9 46 5 57 -5 10 -7 22 -6 27 1 4 -3 14 -10 22 -6 7 -8 18 -4 24 10 16 -11 12 -25 -5 -7 -8 -10 -25 -6 -39 8 -34 -8 -41 -22 -11 -7 14 -16 25 -22 25 -7 0 -9 9 -4 22 6 20 5 21 -9 10 -11 -10 -14 -23 -10 -43 3 -17 1 -29 -5 -29 -6 0 -12 10 -15 23 -3 20 -4 20 -12 4 -11 -26 19 -85 50 -97 39 -15 31 -35 -15 -35 -26 0 -44 6 -52 17 -8 11 -38 22 -73 29 -33 6 -75 19 -93 30 -42 24 -50 24 -54 -3 -3 -15 -9 -2 -17 35 -18 81 -1 130 63 178 52 40 102 58 180 66 37 4 55 1 63 -8 9 -12 3 -13 -37 -11 -42 3 -53 0 -75 -22 -34 -34 -25 -46 32 -46 34 0 60 -9 105 -36 60 -37 100 -42 152 -19 16 7 17 6 7 -13 -7 -12 -18 -22 -26 -22 -8 0 -15 -4 -15 -10 0 -15 53 -12 94 5 32 13 40 14 64 1 15 -8 36 -23 46 -35 18 -20 18 -22 3 -39 -21 -23 -21 -41 -1 -70 20 -29 27 -28 41 8 14 36 33 39 33 6 0 -19 8 -27 34 -36 19 -6 42 -23 51 -37 l17 -25 20 20 c11 11 21 33 22 50 1 17 5 34 9 38 17 17 6 55 -18 66 -14 6 -25 20 -25 30 0 16 -3 17 -20 8 -26 -14 -40 -5 -40 25 0 13 -11 32 -25 44 l-26 20 58 -6 c82 -7 86 -9 73 -34 -16 -29 -7 -33 28 -15 28 15 30 14 41 -10 14 -32 28 -23 37 21 l6 35 30 -25 c76 -64 215 -55 296 19 41 36 62 90 62 154 0 103 -46 183 -134 233 -73 40 -91 63 -90 110 2 43 -9 44 -24 0 -16 -45 14 -100 77 -140 91 -59 132 -127 132 -218 0 -83 -33 -130 -110 -158 -87 -30 -191 -12 -191 34 0 9 -4 21 -10 27 -6 6 17 18 68 33 42 13 87 33 99 44 46 41 55 137 19 192 -9 13 -88 72 -175 130 -226 149 -280 219 -252 323 15 58 49 94 104 109 l42 11 -45 1 c-25 1 -61 -7 -80 -17z m-1223 -1238 c-3 -3 -12 -4 -19 -1 -8 3 -5 6 6 6 11 1 17 -2 13 -5z m622 -596 c63 -20 223 -213 208 -252 -3 -8 -23 -18 -44 -22 l-38 -7 39 -17 38 -18 -52 -12 c-33 -8 -80 -10 -129 -6 -83 7 -83 5 -10 -46 24 -18 24 -18 -21 -12 -71 9 -163 58 -213 114 -49 55 -57 59 -57 33 -1 -16 -2 -16 -12 2 -6 10 -11 45 -11 76 0 145 133 219 302 167z"/>
</g>
<path d="M 87.529 283.574 L 87.254 283.909 L 86.214 285.278 L 85.964 285.635 L 85.036 287.083 L 84.83 287.433 L 84.012 288.946 L 83.868 289.232 L 83.14 290.79 L 83.019 291.069 L 82.379 292.665 L 82.252 293.015 L 81.722 294.651 L 81.61 295.044 L 81.204 296.714 L 81.119 297.138 L 80.846 298.836 L 80.792 299.294 L 80.663 301.009 L 80.648 301.492 L 80.671 303.211 L 80.701 303.71 L 80.881 305.42 L 80.956 305.917 L 81.292 307.603 L 81.413 308.089 L 81.902 309.737 L 82.061 310.198 L 82.695 311.796 L 82.886 312.222 L 83.654 313.76 L 83.869 314.15 L 84.76 315.621 L 84.986 315.965 L 85.985 317.365 L 86.221 317.672 L 87.316 318.997 L 87.55 319.262 L 88.729 320.514 L 88.959 320.745 L 90.211 321.925 L 90.435 322.124 L 91.749 323.233 L 91.966 323.407 L 93.335 324.448 L 93.538 324.595 L 94.953 325.572 L 95.076 325.655 L 96.425 326.533 L 97.645 327.402 L 98.815 328.311 L 99.946 329.262 L 100.935 330.18 L 101.659 330.988 L 102.279 331.909 L 102.937 333.087 L 103.566 334.374 L 104.187 335.789 L 104.755 337.215 L 105.293 338.692 L 105.593 339.592 L 104.12 338.865 L 103.731 338.692 L 102.134 338.053 L 101.725 337.908 L 100.083 337.398 L 99.653 337.283 L 97.975 336.908 L 97.533 336.829 L 95.83 336.593 L 95.401 336.55 L 93.685 336.449 L 93.532 336.442 L 92.042 336.396 L 90.789 336.248 L 89.478 335.99 L 88.151 335.638 L 86.785 335.19 L 85.454 334.674 L 84.119 334.082 L 82.795 333.419 L 81.517 332.706 L 80.258 331.927 L 79.048 331.099 L 77.9 330.229 L 76.789 329.297 L 75.718 328.299 L 74.652 327.226 L 73.665 326.147 L 72.728 325.021 L 71.902 323.91 L 71.144 322.751 L 70.485 321.58 L 69.909 320.368 L 69.421 319.123 L 69.017 317.836 L 68.692 316.501 L 68.44 315.099 L 68.262 313.69 L 68.144 312.181 L 68.089 310.706 L 68.091 309.211 L 68.16 307.745 L 68.296 306.3 L 68.501 304.891 L 68.784 303.495 L 69.136 302.158 L 69.574 300.828 L 70.08 299.562 L 70.677 298.302 L 71.343 297.094 L 72.093 295.91 L 72.912 294.766 L 73.819 293.632 L 74.782 292.546 L 75.811 291.485 L 76.901 290.454 L 78.044 289.454 L 79.242 288.474 L 80.474 287.532 L 81.722 286.632 L 83.072 285.71 L 84.378 284.863 L 85.809 283.977 L 87.117 283.201 L 88.567 282.375 L 88.631 282.34 Z M 120.493 45.244 L 121.869 46.226 L 123.175 46.913 L 124.617 47.226 L 126.09 47.143 L 127.487 46.668 L 128.583 45.921 L 129.22 47.212 L 129.272 47.313 L 130.065 48.839 L 130.119 48.941 L 130.944 50.45 L 131.017 50.58 L 131.883 52.066 L 132.014 52.279 L 132.947 53.724 L 133.477 54.416 L 134.622 55.688 L 135.748 56.641 L 137.088 57.259 L 139.083 57.483 L 140.315 57.393 L 141.759 57.088 L 142.843 56.525 L 142.914 56.594 L 143.815 57.531 L 144.104 57.912 L 144.103 58.352 L 143.945 59.773 L 143.935 59.875 L 143.777 61.587 L 143.769 62.497 L 143.897 64.207 L 144.339 65.988 L 145.024 67.556 L 145.654 68.64 L 146.683 70.017 L 146.959 70.356 L 148.095 71.647 L 148.183 71.745 L 149.35 73.008 L 149.421 73.084 L 150.612 74.325 L 150.863 74.57 L 152.13 75.731 L 153.141 76.464 L 154.631 77.303 L 156.003 77.847 L 156.898 77.99 L 158.602 78.12 L 159.867 78.07 L 161.44 77.823 L 162.546 77.702 L 162.947 77.728 L 163.235 77.839 L 164.024 78.352 L 165.217 79.266 L 165.311 79.337 L 166.698 80.353 L 167.157 80.655 L 168.638 81.526 L 169.442 81.914 L 169.943 82.107 L 169.773 82.575 L 169.713 83.347 L 169.358 83.414 L 168.035 84.067 L 166.934 85.05 L 166.137 86.291 L 166.104 86.397 L 165.201 86.275 L 165.108 86.275 L 164.615 85.485 L 163.527 84.488 L 162.593 83.966 L 161.043 83.291 L 159.715 82.904 L 158.017 82.635 L 157.753 82.6 L 156.043 82.414 L 155.951 82.405 L 154.248 82.249 L 154.248 82.248 L 152.536 82.088 L 149.168 81.74 L 149.137 81.737 L 147.459 81.573 L 145.984 81.629 L 144.579 82.077 L 143.344 82.884 L 142.37 83.993 L 141.728 85.321 L 141.465 86.773 L 141.6 88.242 L 142.122 89.622 L 142.994 90.812 L 143.592 91.347 L 144.955 92.396 L 145.897 93.13 L 146.337 93.622 L 146.489 93.885 L 146.636 94.553 L 146.863 96.061 L 147.277 97.477 L 148.245 98.948 L 149.365 100.166 L 150.501 101.107 L 151.847 101.71 L 153.832 101.914 L 154.638 101.848 L 154.99 102.298 L 156.427 103.582 L 157.351 104.151 L 157.115 104.567 L 156.511 106.176 L 156.181 107.793 L 155.001 107.028 L 154.248 106.619 L 152.678 105.921 L 152.517 105.853 L 152.332 105.778 L 152.29 105.355 L 151.947 103.92 L 151.233 102.629 L 149.824 101.309 L 148.599 100.515 L 147.264 99.887 L 146.044 99.679 L 146.074 98.793 L 145.728 97.359 L 144.95 95.989 L 143.896 94.634 L 143.475 94.154 L 142.269 92.93 L 141.763 92.476 L 140.414 91.411 L 140.053 91.149 L 138.621 90.197 L 138.204 89.946 L 136.693 89.125 L 135.762 88.726 L 134.132 88.2 L 131.941 87.96 L 130.24 88.12 L 128.984 88.389 L 128.426 88.58 L 128.161 87.991 L 127.681 87.336 L 127.083 86.636 L 125.982 85.654 L 124.658 85.001 L 123.209 84.727 L 121.738 84.85 L 120.834 85.136 L 119.453 85.708 L 118.339 86.066 L 117.341 86.261 L 116.415 86.309 L 115.483 86.22 L 114.485 85.983 L 113.369 85.582 L 112.179 85.032 L 110.928 84.354 L 109.548 83.531 L 109.448 83.472 L 107.952 82.622 L 107.747 82.512 L 107.711 82.494 L 107.951 82.387 L 109.09 81.449 L 109.937 80.24 L 110.43 78.85 L 110.532 77.378 L 110.238 75.932 L 109.223 74.172 L 108.146 72.919 L 107.042 71.94 L 105.291 71.17 L 103.628 70.766 L 102.464 70.613 L 100.745 70.573 L 100.256 70.584 L 98.54 70.698 L 98.31 70.718 L 96.601 70.904 L 96.455 70.922 L 94.751 71.154 L 94.571 71.181 L 92.875 71.47 L 92.664 71.511 L 90.982 71.866 L 90.732 71.925 L 89.067 72.359 L 88.786 72.44 L 87.148 72.962 L 86.85 73.066 L 85.244 73.682 L 84.931 73.814 L 83.367 74.528 L 83.063 74.678 L 81.546 75.488 L 81.265 75.649 L 79.799 76.547 L 79.552 76.707 L 78.136 77.683 L 77.942 77.823 L 76.57 78.86 L 76.361 79.027 L 75.041 80.13 L 74.744 80.398 L 73.509 81.594 L 73.162 81.962 L 72.043 83.267 L 71.673 83.75 L 70.706 85.171 L 70.345 85.784 L 69.571 87.318 L 69.278 88.016 L 68.723 89.643 L 68.532 90.355 L 68.201 92.041 L 68.113 92.697 L 67.988 94.412 L 67.976 94.959 L 68.023 96.677 L 68.053 97.118 L 68.239 98.828 L 68.288 99.178 L 68.584 100.872 L 68.63 101.104 L 68.999 102.784 L 69.051 103.001 L 69.488 104.664 L 69.989 105.915 L 70.774 107.338 L 71.654 108.522 L 72.819 109.427 L 74.184 109.988 L 75.649 110.164 L 77.107 109.941 L 78.453 109.336 L 79.043 108.846 L 79.232 108.951 L 79.72 109.19 L 81.299 109.871 L 81.649 110.008 L 83.271 110.579 L 83.506 110.656 L 85.152 111.153 L 85.353 111.209 L 87.018 111.643 L 87.227 111.694 L 88.907 112.062 L 88.955 112.072 L 90.508 112.398 L 91.519 112.665 L 91.186 112.768 L 89.543 113.279 L 88.207 113.903 L 87.086 114.862 L 86.262 116.086 L 85.795 117.486 L 85.72 118.96 L 86.185 120.749 L 86.47 121.38 L 87.254 122.631 L 88.343 123.626 L 89.19 124.107 L 92.318 125.529 L 93.86 126.232 L 95.421 126.952 L 95.439 126.96 L 97.004 127.675 L 97.018 127.681 L 98.584 128.391 L 98.595 128.396 L 100.163 129.103 L 100.169 129.106 L 101.738 129.811 L 101.744 129.813 L 103.313 130.516 L 103.32 130.52 L 104.891 131.221 L 104.9 131.225 L 106.472 131.923 L 106.479 131.926 L 108.052 132.622 L 108.064 132.627 L 109.638 133.319 L 111.135 133.991 L 112.7 134.706 L 114.151 135.385 L 115.699 136.133 L 117.089 136.832 L 118.506 137.581 L 119.913 138.367 L 121.26 139.169 L 122.574 140.002 L 123.877 140.88 L 125.179 141.808 L 126.467 142.77 L 127.708 143.734 L 128.998 144.769 L 130.287 145.829 L 131.605 146.934 L 132.886 148.023 L 134.151 149.111 L 135.407 150.2 L 136.664 151.313 L 137.85 152.401 L 139.039 153.537 L 140.104 154.596 L 141.27 155.811 L 142.306 156.943 L 143.353 158.15 L 144.335 159.347 L 145.302 160.598 L 146.202 161.842 L 147.057 163.108 L 147.864 164.398 L 148.626 165.718 L 149.328 167.047 L 149.991 168.426 L 150.585 169.795 L 151.14 171.223 L 151.619 172.613 L 152.062 174.079 L 152.444 175.543 L 152.777 177.044 L 153.051 178.521 L 153.281 180.049 L 153.463 181.597 L 153.598 183.157 L 153.687 184.698 L 153.735 186.303 L 153.742 187.822 L 153.697 189.373 L 153.6 190.931 L 153.457 192.468 L 153.266 194.067 L 153.041 195.614 L 152.774 197.184 L 152.478 198.711 L 152.128 200.319 L 151.763 201.832 L 151.341 203.418 L 150.898 204.938 L 150.426 206.424 L 149.906 207.918 L 149.362 209.35 L 148.763 210.785 L 148.135 212.148 L 147.446 213.49 L 146.645 214.955 L 146.423 215.411 L 145.742 216.988 L 145.309 218.74 L 145.18 220.436 L 145.268 221.909 L 145.555 222.879 L 146.042 224.098 L 146.251 224.973 L 146.342 226.075 L 146.352 227.431 L 146.285 228.903 L 146.171 230.219 L 145.951 230.204 L 143.954 230.729 L 142.754 231.304 L 141.522 232.115 L 140.552 233.226 L 139.868 234.705 L 139.388 236.353 L 139.241 237.002 L 138.975 238.633 L 138.695 240.192 L 138.375 241.654 L 137.999 243.047 L 137.565 244.348 L 137.05 245.62 L 136.445 246.877 L 135.75 248.135 L 134.968 249.405 L 134.111 250.691 L 133.183 252.006 L 132.263 253.259 L 131.261 254.57 L 130.292 255.769 L 129.302 256.908 L 128.301 257.964 L 127.245 258.975 L 126.158 259.915 L 124.996 260.822 L 123.784 261.684 L 122.525 262.509 L 121.183 263.328 L 119.791 264.128 L 118.355 264.916 L 116.901 265.685 L 115.472 266.417 L 113.967 267.168 L 112.423 267.925 L 110.929 268.647 L 110.929 268.646 L 109.376 269.386 L 109.376 269.387 L 107.831 270.12 L 107.798 270.136 L 106.249 270.884 L 106.21 270.902 L 104.667 271.662 L 104.614 271.689 L 103.379 272.314 L 103.866 271.836 L 104.006 271.693 L 105.188 270.444 L 105.293 270.33 L 106.439 269.048 L 106.493 268.987 L 107.605 267.705 L 108.738 266.41 L 109.844 265.158 L 110.972 263.892 L 112.122 262.613 L 113.245 261.374 L 114.383 260.13 L 115.552 258.868 L 116.698 257.653 L 116.755 257.592 L 117.916 256.323 L 118.019 256.207 L 119.143 254.906 L 119.279 254.743 L 120.352 253.399 L 120.795 252.754 L 121.659 251.281 L 122.227 249.919 L 122.41 248.455 L 122.195 246.996 L 121.597 245.647 L 120.661 244.507 L 119.454 243.658 L 118.064 243.164 L 116.868 243.048 L 115.254 243.07 L 114.248 243.178 L 112.562 243.518 L 112.384 243.557 L 110.71 243.953 L 110.582 243.984 L 108.919 244.42 L 108.822 244.447 L 107.17 244.913 L 105.636 245.326 L 104.156 245.681 L 102.712 245.965 L 101.306 246.165 L 99.855 246.293 L 98.359 246.358 L 96.804 246.371 L 95.16 246.348 L 93.496 246.3 L 91.867 246.237 L 90.167 246.16 L 88.488 246.066 L 86.898 245.957 L 85.218 245.82 L 83.622 245.667 L 81.971 245.481 L 80.407 245.28 L 78.757 245.034 L 77.246 244.776 L 75.647 244.467 L 74.087 244.125 L 72.572 243.752 L 71.069 243.334 L 69.611 242.883 L 68.109 242.368 L 66.661 241.819 L 65.251 241.232 L 63.87 240.604 L 62.444 239.9 L 61.1 239.184 L 59.715 238.391 L 58.396 237.588 L 57.08 236.736 L 55.743 235.822 L 54.447 234.893 L 53.157 233.928 L 51.846 232.907 L 50.564 231.879 L 50.435 231.778 L 49.062 230.743 L 48.877 230.61 L 47.462 229.633 L 47.224 229.477 L 45.76 228.575 L 45.394 228.369 L 43.865 227.582 L 43.121 227.266 L 41.496 226.714 L 40.639 226.548 L 41.717 225.887 L 42.722 224.807 L 43.402 223.498 L 43.605 222.779 L 43.901 221.37 L 44.007 219.898 L 43.73 218.494 L 43.223 216.996 L 43.308 216.889 L 43.801 215.792 L 44.324 214.171 L 44.566 212.985 L 44.721 211.272 L 44.741 210.947 L 44.794 209.228 L 44.796 209.085 L 44.804 207.366 L 44.804 207.287 L 44.787 205.567 L 44.786 205.516 L 44.753 203.796 L 44.752 203.761 L 44.708 202.042 L 44.708 202.023 L 44.658 200.304 L 44.619 198.616 L 44.6 196.959 L 44.603 195.313 L 44.63 193.784 L 44.692 192.089 L 44.782 190.585 L 44.924 189.064 L 45.062 188.074 L 45.847 187.632 L 47.154 186.565 L 48.323 185.244 L 49.239 183.79 L 49.533 183.261 L 50.283 181.714 L 50.436 181.367 L 50.502 181.202 L 50.555 181.231 L 51.993 181.562 L 53.467 181.498 L 55.25 180.839 L 56.164 180.305 L 57.326 179.395 L 57.851 178.767 L 58.793 177.451 L 59.752 176.205 L 60.723 175.018 L 61.753 173.83 L 62.824 172.659 L 63.914 171.529 L 65.011 170.447 L 66.191 169.346 L 67.369 168.303 L 68.539 167.328 L 69.774 166.363 L 70.966 165.5 L 72.199 164.686 L 73.38 163.996 L 74.33 163.526 L 75.223 164.293 L 76.461 165.095 L 78.336 165.595 L 80.049 165.736 L 80.304 165.751 L 82.023 165.812 L 82.118 165.814 L 83.838 165.845 L 83.889 165.846 L 85.609 165.861 L 85.635 165.861 L 87.354 165.868 L 87.37 165.868 L 90.787 165.872 L 92.472 165.881 L 94.145 165.9 L 95.818 165.94 L 97.347 166.006 L 98.827 166.122 L 100.133 166.3 L 101.292 166.566 L 102.463 166.962 L 103.734 167.505 L 105.032 168.134 L 106.367 168.867 L 107.674 169.642 L 108.994 170.474 L 110.321 171.358 L 111.586 172.255 L 112.729 173.131 L 113.792 174.048 L 114.804 175.033 L 115.836 176.139 L 116.828 177.284 L 117.813 178.499 L 118.751 179.725 L 119.676 181.002 L 120.596 182.345 L 121.432 183.636 L 122.25 184.976 L 123.003 186.299 L 123.716 187.662 L 124.31 188.931 L 124.827 190.23 L 125.293 191.682 L 125.442 192.091 L 126.096 193.68 L 126.894 195.028 L 127.944 196.332 L 129.016 197.346 L 130.32 198.036 L 131.761 198.352 L 133.234 198.272 L 134.632 197.801 L 135.853 196.972 L 137.079 195.374 L 137.805 193.941 L 138.288 192.547 L 138.387 191.779 L 138.484 190.063 L 138.489 189.557 L 138.427 187.839 L 138.406 187.524 L 138.245 185.812 L 138.214 185.549 L 137.97 183.846 L 137.925 183.578 L 137.597 181.89 L 137.523 181.563 L 137.092 179.898 L 136.949 179.433 L 136.372 177.814 L 136.097 177.173 L 135.319 175.641 L 135.025 175.132 L 134.086 173.691 L 133.852 173.36 L 132.809 171.993 L 132.617 171.755 L 131.499 170.448 L 131.335 170.265 L 130.16 169.01 L 130.021 168.867 L 128.8 167.655 L 128.673 167.533 L 127.414 166.361 L 127.301 166.259 L 126.01 165.123 L 125.902 165.03 L 124.582 163.928 L 124.479 163.844 L 123.132 162.774 L 123.035 162.699 L 121.665 161.66 L 121.572 161.591 L 120.18 160.581 L 120.083 160.512 L 118.669 159.532 L 118.572 159.467 L 117.138 158.518 L 117.046 158.458 L 115.593 157.538 L 115.491 157.475 L 114.018 156.587 L 113.916 156.527 L 112.424 155.671 L 112.313 155.609 L 110.802 154.788 L 110.726 154.747 L 109.202 153.95 L 109.175 153.936 L 107.646 153.147 L 107.601 153.124 L 106.066 152.35 L 105.988 152.312 L 104.44 151.562 L 104.297 151.495 L 102.728 150.79 L 102.364 150.642 L 100.75 150.052 L 99.309 149.737 L 97.708 149.845 L 96.255 150.162 L 94.869 150.669 L 94.496 150.935 L 93.978 150.717 L 93.814 150.651 L 92.209 150.035 L 92.081 149.987 L 90.46 149.411 L 90.384 149.385 L 88.755 148.833 L 88.701 148.815 L 87.067 148.28 L 87.021 148.265 L 85.381 147.744 L 85.344 147.733 L 83.701 147.224 L 83.666 147.213 L 82.02 146.715 L 81.986 146.705 L 80.337 146.218 L 80.301 146.207 L 78.648 145.731 L 78.61 145.72 L 76.954 145.256 L 76.906 145.243 L 75.245 144.794 L 75.179 144.777 L 73.514 144.349 L 73.415 144.324 L 71.742 143.927 L 71.484 143.873 L 69.793 143.557 L 69.618 143.527 L 68.448 143.347 L 67.54 143.02 L 66.313 142.463 L 64.994 141.778 L 63.689 141.033 L 62.439 140.254 L 61.218 139.417 L 60.177 138.618 L 59.396 137.897 L 58.579 136.877 L 57.51 135.86 L 55.604 134.983 L 54.671 134.756 L 53.204 134.604 L 51.749 134.849 L 50.931 135.232 L 49.94 134.264 L 48.978 133.218 L 48.088 132.135 L 47.276 131.016 L 46.55 129.868 L 45.936 128.727 L 45.421 127.558 L 45.034 126.416 L 44.723 125.057 L 44.373 123.417 L 44.23 122.883 L 43.703 121.247 L 43.464 120.633 L 42.744 119.072 L 42.409 118.455 L 41.495 116.999 L 41.122 116.476 L 40.044 115.138 L 39.697 114.747 L 38.495 113.517 L 38.202 113.238 L 36.912 112.1 L 36.685 111.91 L 35.336 110.844 L 35.162 110.713 L 33.771 109.701 L 33.642 109.61 L 32.223 108.639 L 32.13 108.577 L 30.691 107.635 L 30.567 107.556 L 29.481 106.886 L 30.271 106.738 L 31.309 106.435 L 32.9 105.794 L 34.385 104.9 L 35.691 103.797 L 36.679 102.702 L 37.163 101.832 L 37.852 100.275 L 38.261 98.858 L 38.319 98.009 L 38.302 96.3 L 38.088 94.84 L 37.492 93.49 L 36.557 92.349 L 35.35 91.5 L 35.172 91.436 L 35.26 91.099 L 35.697 89.798 L 36.226 88.492 L 36.819 87.249 L 37.502 86.005 L 38.251 84.805 L 39.067 83.642 L 39.956 82.509 L 40.989 81.328 L 42.096 80.09 L 42.211 79.957 L 43.316 78.638 L 43.495 78.412 L 44.528 77.038 L 45.247 75.75 L 45.596 74.317 L 45.549 72.842 L 45.044 71.3 L 44.689 70.593 L 43.855 69.376 L 43.415 69.005 L 43.918 68.559 L 45.037 67.669 L 46.219 66.82 L 47.454 66.021 L 48.754 65.255 L 50.079 64.543 L 51.486 63.847 L 52.881 63.208 L 54.382 62.567 L 55.847 61.982 L 57.404 61.395 L 57.464 61.372 L 59.066 60.746 L 59.25 60.67 L 60.828 59.986 L 62.049 59.255 L 63.238 58.313 L 64.26 57.249 L 64.961 55.951 L 65.289 54.512 L 65.22 53.039 L 64.768 51.663 L 65.924 51.244 L 67.427 50.742 L 68.914 50.285 L 70.49 49.84 L 71.995 49.454 L 73.562 49.093 L 75.098 48.782 L 76.601 48.522 L 78.145 48.304 L 79.641 48.149 L 81.094 48.06 L 82.479 48.049 L 83.715 48.126 L 84.733 48.294 L 85.879 48.67 L 87.442 49.23 L 87.611 49.287 L 89.248 49.814 L 89.375 49.854 L 91.025 50.341 L 91.155 50.377 L 92.816 50.823 L 92.978 50.864 L 94.652 51.259 L 94.687 51.267 L 96.233 51.621 L 97.712 52.031 L 99.152 52.484 L 100.589 52.987 L 101.942 53.521 L 103.336 54.176 L 103.356 54.185 L 104.915 54.91 L 105.29 55.068 L 106.899 55.675 L 108.626 56.023 L 110.269 56.084 L 111.737 55.94 L 113.114 55.408 L 114.297 54.527 L 115.203 53.362 L 115.763 51.997 L 115.939 50.532 L 115.716 49.074 L 115.214 47.9 L 114.926 47.398 L 115.342 47.294 L 116.196 46.992 L 117.508 46.317 L 118.591 45.316 L 119.332 44.119 Z M 30.998 253.343 L 29.93 253.96 L 29.74 254.047 L 29.451 253.632 L 29.462 253.537 L 29.431 253.34 L 30.221 253.305 L 31.045 253.206 L 31.254 253.165 Z M 39.207 249.121 L 39.162 249.127 L 38.691 249.234 L 39.013 248.875 Z M 82.368 177.975 L 82.02 177.978 L 81.832 177.982 L 81.741 177.984 L 81.692 177.985 L 81.577 177.988 L 81.532 177.989 L 81.184 178.001 L 81.137 178.003 L 81.021 178.008 L 80.974 178.01 L 80.742 178.022 L 80.739 178.022 L 80.624 178.028 L 80.58 178.031 L 80.464 178.038 L 80.417 178.041 L 80.32 178.048 L 80.232 178.053 L 80.134 178.059 L 80.019 178.068 L 79.907 178.077 L 79.903 178.077 L 79.788 178.086 L 79.745 178.09 L 79.629 178.1 L 79.578 178.105 L 79.468 178.116 L 79.468 178.115 L 79.352 178.126 L 79.347 178.127 L 79.232 178.138 L 79.19 178.142 L 79.074 178.154 L 79.023 178.159 L 78.678 178.198 L 78.631 178.204 L 78.516 178.218 L 78.194 178.26 L 77.964 178.292 L 77.917 178.299 L 77.687 178.333 L 77.634 178.341 L 77.52 178.359 L 77.413 178.376 L 77.359 178.384 L 77.245 178.403 L 77.199 178.411 L 77.085 178.431 L 76.978 178.45 L 76.97 178.451 L 76.856 178.471 L 76.811 178.479 L 76.697 178.5 L 76.651 178.509 L 76.537 178.531 L 76.528 178.533 L 76.415 178.555 L 76.379 178.562 L 76.151 178.608 L 76.096 178.619 L 75.983 178.643 L 75.948 178.651 L 75.834 178.676 L 75.824 178.678 L 75.711 178.703 L 75.666 178.713 L 75.327 178.791 L 75.227 178.815 L 75.126 178.84 L 75.013 178.868 L 75.002 178.871 L 74.846 178.91 L 74.734 178.939 L 74.701 178.948 L 74.588 178.978 L 74.565 178.984 L 74.454 179.014 L 74.422 179.023 L 74.31 179.054 L 74.266 179.066 L 74.154 179.098 L 74.142 179.102 L 74.031 179.134 L 74 179.143 L 73.888 179.176 L 73.875 179.179 L 73.764 179.212 L 73.721 179.225 L 73.61 179.259 L 73.596 179.264 L 73.486 179.298 L 73.457 179.307 L 73.346 179.342 L 73.289 179.36 L 73.069 179.432 L 73.027 179.446 L 72.917 179.483 L 72.875 179.497 L 72.765 179.535 L 72.75 179.54 L 72.641 179.578 L 72.546 179.611 L 72.447 179.646 L 72.229 179.726 L 72.214 179.732 L 72.106 179.772 L 72.039 179.797 L 71.93 179.839 L 71.93 179.84 L 71.848 179.871 L 71.766 179.903 L 71.658 179.946 L 71.641 179.952 L 71.534 179.995 L 71.51 180.005 L 71.402 180.049 L 71.386 180.056 L 71.279 180.1 L 71.239 180.116 L 71.132 180.161 L 71.075 180.186 L 70.986 180.225 L 70.986 180.224 L 70.879 180.27 L 70.822 180.295 L 70.61 180.389 L 70.553 180.415 L 70.448 180.463 L 70.409 180.481 L 70.304 180.53 L 70.265 180.548 L 70.055 180.648 L 70.037 180.657 L 69.933 180.707 L 69.857 180.744 L 69.649 180.848 L 69.63 180.857 L 69.527 180.909 L 69.452 180.948 L 69.246 181.056 L 69.227 181.066 L 69.125 181.12 L 69.088 181.14 L 68.986 181.195 L 68.95 181.215 L 68.848 181.271 L 68.792 181.302 L 68.59 181.416 L 68.534 181.448 L 68.454 181.494 L 68.353 181.552 L 68.277 181.597 L 68.178 181.656 L 68.164 181.664 L 68.064 181.724 L 68.043 181.736 L 67.944 181.796 L 67.889 181.83 L 67.791 181.891 L 67.778 181.899 L 67.679 181.961 L 67.637 181.988 L 67.54 182.05 L 67.528 182.058 L 67.43 182.121 L 67.375 182.157 L 67.278 182.221 L 67.256 182.235 L 67.16 182.299 L 67.128 182.321 L 66.936 182.451 L 66.882 182.488 L 66.787 182.554 L 66.755 182.576 L 66.66 182.643 L 66.607 182.681 L 66.325 182.885 L 66.241 182.947 L 66.148 183.017 L 66.125 183.034 L 65.941 183.174 L 65.912 183.197 L 65.82 183.268 L 65.768 183.308 L 65.677 183.38 L 65.625 183.422 L 65.445 183.568 L 65.417 183.591 L 65.327 183.665 L 65.304 183.684 L 65.215 183.758 L 65.164 183.801 L 64.988 183.951 L 64.934 183.997 L 64.846 184.074 L 64.826 184.092 L 64.74 184.168 L 64.71 184.194 L 64.623 184.272 L 64.6 184.293 L 64.514 184.371 L 64.465 184.416 L 64.295 184.574 L 64.246 184.62 L 64.162 184.7 L 64.139 184.723 L 64.056 184.803 L 64.031 184.826 L 63.948 184.907 L 63.925 184.931 L 63.842 185.013 L 63.794 185.06 L 63.737 185.118 L 63.655 185.2 L 63.562 185.295 L 63.322 185.547 L 63.253 185.621 L 63.177 185.704 L 63.098 185.79 L 63.051 185.842 L 62.974 185.928 L 62.953 185.952 L 62.799 186.126 L 62.732 186.203 L 62.582 186.379 L 62.562 186.402 L 62.487 186.491 L 62.445 186.542 L 62.371 186.632 L 62.348 186.66 L 62.275 186.75 L 62.252 186.779 L 62.18 186.869 L 62.161 186.892 L 62.089 186.983 L 62.049 187.035 L 61.907 187.219 L 61.884 187.248 L 61.814 187.34 L 61.774 187.393 L 61.705 187.486 L 61.689 187.509 L 61.62 187.603 L 61.575 187.665 L 61.53 187.728 L 61.462 187.822 L 61.402 187.907 L 61.336 188.002 L 61.321 188.024 L 61.233 188.152 L 61.168 188.248 L 61.146 188.28 L 61.082 188.376 L 61.068 188.398 L 61.004 188.495 L 60.982 188.528 L 60.919 188.625 L 60.884 188.68 L 60.76 188.876 L 60.725 188.931 L 60.664 189.03 L 60.643 189.064 L 60.583 189.163 L 60.571 189.184 L 60.49 189.319 L 60.431 189.419 L 60.411 189.454 L 60.353 189.554 L 60.321 189.61 L 60.207 189.812 L 60.187 189.848 L 60.131 189.949 L 60.1 190.005 L 60.045 190.107 L 60.034 190.127 L 59.979 190.23 L 59.951 190.284 L 59.898 190.386 L 59.878 190.425 L 59.835 190.509 L 59.782 190.612 L 59.753 190.669 L 59.701 190.773 L 59.664 190.849 L 59.623 190.933 L 59.572 191.038 L 59.544 191.097 L 59.495 191.201 L 59.478 191.237 L 59.429 191.343 L 59.42 191.364 L 59.372 191.469 L 59.346 191.526 L 59.252 191.738 L 59.227 191.795 L 59.181 191.902 L 59.164 191.942 L 59.119 192.049 L 59.103 192.089 L 59.015 192.303 L 58.992 192.36 L 58.949 192.468 L 58.932 192.508 L 58.848 192.724 L 58.811 192.822 L 58.691 193.149 L 58.661 193.233 L 58.623 193.342 L 58.618 193.357 L 58.58 193.467 L 58.571 193.495 L 58.534 193.604 L 58.529 193.618 L 58.492 193.728 L 58.46 193.827 L 58.443 193.881 L 58.407 193.991 L 58.375 194.091 L 58.341 194.202 L 58.328 194.245 L 58.262 194.467 L 58.259 194.48 L 58.226 194.592 L 58.204 194.666 L 58.173 194.777 L 58.17 194.79 L 58.139 194.902 L 58.127 194.945 L 58.097 195.057 L 58.085 195.102 L 58.056 195.214 L 58.053 195.225 L 58.024 195.338 L 58.016 195.371 L 57.988 195.483 L 57.974 195.538 L 57.92 195.764 L 57.91 195.809 L 57.884 195.922 L 57.874 195.967 L 57.849 196.08 L 57.839 196.125 L 57.815 196.238 L 57.813 196.248 L 57.789 196.362 L 57.782 196.398 L 57.759 196.511 L 57.757 196.52 L 57.734 196.634 L 57.716 196.725 L 57.702 196.802 L 57.682 196.907 L 57.665 196.998 L 57.645 197.112 L 57.644 197.12 L 57.624 197.235 L 57.617 197.273 L 57.598 197.387 L 57.591 197.433 L 57.573 197.547 L 57.572 197.555 L 57.554 197.67 L 57.547 197.715 L 57.531 197.824 L 57.514 197.938 L 57.506 197.991 L 57.49 198.106 L 57.463 198.313 L 57.435 198.543 L 57.429 198.595 L 57.417 198.706 L 57.416 198.706 L 57.403 198.821 L 57.398 198.868 L 57.386 198.983 L 57.381 199.034 L 57.37 199.15 L 57.371 199.15 L 57.36 199.26 L 57.355 199.311 L 57.345 199.423 L 57.335 199.538 L 57.331 199.589 L 57.322 199.705 L 57.319 199.749 L 57.311 199.864 L 57.308 199.914 L 57.287 200.262 L 57.284 200.309 L 57.278 200.425 L 57.276 200.47 L 57.271 200.585 L 57.269 200.634 L 57.257 200.982 L 57.256 201.029 L 57.253 201.145 L 57.252 201.192 L 57.248 201.424 L 57.247 201.471 L 57.246 201.587 L 57.246 202.029 L 57.248 202.261 L 57.249 202.308 L 57.251 202.424 L 57.253 202.539 L 57.254 202.586 L 57.26 202.818 L 57.261 202.865 L 57.273 203.213 L 57.275 203.26 L 57.29 203.608 L 57.292 203.658 L 57.298 203.773 L 57.301 203.817 L 57.305 203.886 L 57.311 204.002 L 57.314 204.049 L 57.321 204.165 L 57.324 204.215 L 57.332 204.327 L 57.348 204.559 L 57.348 204.562 L 57.356 204.677 L 57.359 204.721 L 57.368 204.837 L 57.372 204.884 L 57.382 205 L 57.382 205.004 L 57.392 205.115 L 57.402 205.231 L 57.402 205.235 L 57.412 205.35 L 57.416 205.392 L 57.427 205.508 L 57.432 205.559 L 57.456 205.785 L 57.468 205.901 L 57.468 205.905 L 57.48 206.02 L 57.485 206.067 L 57.498 206.182 L 57.504 206.229 L 57.546 206.574 L 57.551 206.614 L 57.566 206.73 L 57.567 206.742 L 57.582 206.856 L 57.588 206.896 L 57.62 207.126 L 57.627 207.173 L 57.661 207.403 L 57.669 207.456 L 57.686 207.562 L 57.704 207.677 L 57.712 207.731 L 57.731 207.845 L 57.739 207.891 L 57.758 207.997 L 57.778 208.112 L 57.779 208.12 L 57.799 208.234 L 57.816 208.325 L 57.838 208.439 L 57.84 208.448 L 57.862 208.561 L 57.869 208.597 L 57.892 208.711 L 57.901 208.756 L 57.925 208.87 L 57.927 208.88 L 57.951 208.993 L 57.971 209.083 L 58.023 209.309 L 58.044 209.398 L 58.072 209.511 L 58.086 209.566 L 58.115 209.678 L 58.127 209.723 L 58.157 209.835 L 58.169 209.878 L 58.2 209.99 L 58.228 210.09 L 58.261 210.201 L 58.292 210.301 L 58.327 210.411 L 58.355 210.496 L 58.392 210.606 L 58.426 210.705 L 58.465 210.814 L 58.534 210.994 L 58.577 211.102 L 58.616 211.199 L 58.661 211.306 L 58.765 211.538 L 58.815 211.643 L 58.97 211.943 L 59.082 212.145 L 59.09 212.161 L 59.147 212.263 L 59.159 212.283 L 59.273 212.485 L 59.305 212.541 L 59.351 212.621 L 59.409 212.722 L 59.441 212.777 L 59.5 212.877 L 59.513 212.898 L 59.572 212.997 L 59.613 213.066 L 59.674 213.165 L 59.744 213.275 L 59.807 213.372 L 59.865 213.459 L 59.93 213.555 L 60.027 213.694 L 60.095 213.788 L 60.321 214.079 L 60.395 214.168 L 60.976 214.767 L 61.063 214.844 L 62.289 215.664 L 63.547 216.097 L 63.655 216.12 L 65.127 216.23 L 66.167 216.023 L 66.231 216.093 L 66.285 216.153 L 66.341 216.216 L 66.385 216.266 L 66.463 216.352 L 66.496 216.389 L 66.517 216.413 L 66.594 216.499 L 66.65 216.562 L 66.694 216.612 L 66.772 216.698 L 66.794 216.722 L 66.872 216.807 L 66.874 216.809 L 66.951 216.893 L 67.029 216.978 L 67.098 217.052 L 67.178 217.136 L 67.211 217.172 L 67.257 217.221 L 67.337 217.305 L 67.383 217.353 L 67.464 217.436 L 67.498 217.472 L 67.591 217.567 L 67.626 217.602 L 67.707 217.685 L 67.965 217.943 L 68.048 218.024 L 68.107 218.082 L 68.154 218.128 L 68.214 218.186 L 68.297 218.267 L 68.345 218.313 L 68.429 218.393 L 68.454 218.417 L 68.538 218.496 L 68.539 218.495 L 68.622 218.574 L 68.647 218.598 L 68.817 218.756 L 68.842 218.779 L 68.927 218.857 L 68.951 218.879 L 69.123 219.035 L 69.149 219.058 L 69.232 219.133 L 69.319 219.211 L 69.349 219.237 L 69.435 219.313 L 69.455 219.331 L 69.543 219.408 L 69.546 219.41 L 69.633 219.486 L 69.656 219.507 L 69.832 219.659 L 69.86 219.682 L 70.036 219.832 L 70.087 219.875 L 70.148 219.926 L 70.237 220.001 L 70.265 220.024 L 70.354 220.098 L 70.377 220.117 L 70.467 220.191 L 70.495 220.214 L 70.765 220.433 L 70.794 220.456 L 70.878 220.524 L 70.969 220.597 L 70.998 220.62 L 71.089 220.692 L 71.118 220.714 L 71.202 220.78 L 71.294 220.852 L 71.301 220.857 L 71.392 220.928 L 71.415 220.946 L 71.507 221.017 L 71.536 221.04 L 71.72 221.18 L 71.743 221.197 L 71.929 221.337 L 71.959 221.36 L 72.238 221.567 L 72.261 221.583 L 72.355 221.652 L 72.363 221.658 L 72.456 221.726 L 72.479 221.743 L 72.573 221.811 L 72.626 221.849 L 72.721 221.916 L 72.762 221.946 L 72.793 221.968 L 72.887 222.035 L 72.909 222.051 L 73.004 222.118 L 73.036 222.14 L 73.099 222.184 L 73.194 222.251 L 73.248 222.288 L 73.344 222.354 L 73.354 222.361 L 73.439 222.419 L 73.567 222.507 L 73.855 222.702 L 74.08 222.852 L 74.102 222.866 L 74.296 222.994 L 74.329 223.016 L 74.523 223.142 L 74.545 223.156 L 74.643 223.219 L 74.676 223.24 L 74.719 223.267 L 74.816 223.33 L 74.905 223.387 L 74.99 223.44 L 75.089 223.502 L 75.089 223.501 L 75.221 223.585 L 75.299 223.633 L 75.397 223.694 L 75.452 223.728 L 75.551 223.788 L 75.616 223.828 L 75.65 223.849 L 75.749 223.909 L 75.77 223.921 L 75.87 223.981 L 75.884 223.989 L 75.983 224.048 L 76.004 224.061 L 76.104 224.12 L 76.182 224.166 L 76.223 224.191 L 76.324 224.25 L 76.404 224.297 L 76.439 224.317 L 76.639 224.433 L 76.659 224.445 L 76.76 224.503 L 76.796 224.523 L 77.2 224.751 L 77.236 224.771 L 77.337 224.827 L 77.357 224.838 L 77.439 224.883 L 77.54 224.939 L 77.596 224.97 L 77.698 225.025 L 77.764 225.061 L 77.8 225.081 L 77.902 225.136 L 77.939 225.156 L 78.024 225.201 L 78.127 225.256 L 78.246 225.319 L 78.265 225.329 L 78.471 225.437 L 78.508 225.456 L 78.817 225.615 L 78.855 225.635 L 78.958 225.687 L 78.958 225.686 L 79.044 225.73 L 79.081 225.749 L 79.185 225.801 L 79.204 225.811 L 79.307 225.862 L 79.43 225.923 L 79.534 225.974 L 79.552 225.983 L 79.657 226.034 L 79.677 226.043 L 79.743 226.075 L 79.847 226.126 L 79.903 226.153 L 80.008 226.203 L 80.047 226.221 L 80.113 226.252 L 80.218 226.302 L 80.257 226.32 L 80.467 226.418 L 80.506 226.436 L 80.59 226.475 L 80.696 226.524 L 80.717 226.533 L 80.822 226.581 L 80.879 226.607 L 80.985 226.654 L 81.052 226.684 L 81.091 226.702 L 81.303 226.796 L 81.343 226.813 L 81.532 226.895 L 81.532 226.896 L 81.639 226.943 L 81.702 226.97 L 81.808 227.015 L 81.825 227.022 L 82.146 227.157 L 82.186 227.173 L 82.4 227.261 L 82.416 227.268 L 82.524 227.312 L 82.615 227.349 L 82.672 227.372 L 82.888 227.458 L 82.928 227.475 L 83.36 227.643 L 83.402 227.658 L 83.51 227.699 L 83.525 227.705 L 83.634 227.746 L 83.675 227.762 L 83.784 227.802 L 83.877 227.836 L 83.892 227.842 L 84.11 227.922 L 84.167 227.942 L 84.262 227.976 L 84.371 228.015 L 84.413 228.03 L 84.522 228.068 L 84.537 228.073 L 84.632 228.106 L 84.741 228.144 L 84.798 228.163 L 85.128 228.274 L 85.17 228.288 L 85.39 228.36 L 85.404 228.365 L 85.515 228.401 L 85.544 228.41 L 85.654 228.445 L 85.668 228.449 L 85.779 228.484 L 85.822 228.498 L 86.155 228.6 L 86.198 228.613 L 86.42 228.679 L 86.464 228.691 L 86.575 228.723 L 86.587 228.727 L 86.699 228.759 L 86.798 228.787 L 86.854 228.803 L 87.078 228.865 L 87.121 228.877 L 87.345 228.937 L 87.39 228.949 L 87.614 229.007 L 87.625 229.01 L 87.738 229.039 L 87.771 229.047 L 87.883 229.075 L 87.938 229.089 L 88.051 229.116 L 88.108 229.13 L 88.208 229.154 L 88.276 229.17 L 88.389 229.197 L 88.479 229.217 L 88.547 229.232 L 88.66 229.258 L 88.76 229.28 L 88.858 229.301 L 88.932 229.317 L 89.032 229.338 L 89.091 229.35 L 89.204 229.374 L 89.259 229.385 L 89.373 229.408 L 89.418 229.417 L 89.646 229.461 L 89.692 229.47 L 89.806 229.491 L 89.851 229.499 L 90.193 229.559 L 90.247 229.568 L 90.362 229.587 L 90.514 229.611 L 90.522 229.612 L 90.637 229.63 L 90.676 229.636 L 90.79 229.653 L 90.796 229.654 L 90.911 229.671 L 91.004 229.684 L 91.073 229.693 L 91.188 229.709 L 91.533 229.754 L 91.648 229.77 L 91.993 229.815 L 92.108 229.831 L 92.545 229.888 L 92.66 229.902 L 92.89 229.932 L 93.35 229.988 L 93.397 229.994 L 93.512 230.007 L 93.517 230.007 L 93.628 230.019 L 93.628 230.02 L 93.743 230.033 L 93.836 230.042 L 93.909 230.049 L 94.025 230.061 L 94.114 230.07 L 94.229 230.08 L 94.28 230.084 L 94.396 230.093 L 94.44 230.096 L 94.555 230.104 L 94.605 230.107 L 94.721 230.114 L 94.862 230.121 L 94.978 230.125 L 95.119 230.128 L 95.235 230.129 L 95.517 230.124 L 95.633 230.119 L 95.965 230.095 L 96.08 230.083 L 96.928 229.926 L 97.04 229.896 L 98.4 229.326 L 99.341 228.625 L 99.423 228.549 L 100.36 227.409 L 100.958 226.06 L 101.174 224.601 L 101.137 224.157 L 101.178 224.156 L 101.526 224.147 L 101.573 224.146 L 102.037 224.13 L 102.039 224.13 L 102.154 224.126 L 102.199 224.124 L 102.315 224.119 L 102.362 224.117 L 102.478 224.111 L 102.547 224.108 L 102.594 224.106 L 102.826 224.094 L 102.829 224.094 L 102.944 224.088 L 102.988 224.085 L 103.336 224.064 L 103.386 224.061 L 103.501 224.053 L 103.73 224.037 L 103.781 224.034 L 103.896 224.025 L 104.124 224.007 L 104.175 224.003 L 104.29 223.993 L 104.402 223.983 L 104.406 223.983 L 104.521 223.973 L 104.563 223.969 L 104.679 223.958 L 104.684 223.957 L 104.914 223.935 L 104.956 223.931 L 105.072 223.919 L 105.076 223.919 L 105.191 223.907 L 105.238 223.902 L 105.353 223.889 L 105.353 223.888 L 105.464 223.876 L 105.469 223.876 L 105.584 223.863 L 105.631 223.857 L 105.976 223.815 L 106.183 223.788 L 106.298 223.772 L 106.367 223.763 L 106.46 223.75 L 106.528 223.74 L 106.643 223.724 L 106.696 223.716 L 106.81 223.699 L 106.849 223.693 L 106.964 223.675 L 106.972 223.674 L 107.124 223.65 L 107.239 223.631 L 107.247 223.63 L 107.475 223.592 L 107.513 223.585 L 107.628 223.565 L 107.681 223.556 L 107.909 223.514 L 107.955 223.505 L 108.183 223.461 L 108.237 223.45 L 108.341 223.429 L 108.455 223.406 L 108.51 223.395 L 108.623 223.371 L 108.658 223.363 L 108.772 223.338 L 108.782 223.336 L 108.895 223.311 L 108.94 223.301 L 109.053 223.275 L 109.098 223.265 L 109.211 223.238 L 109.505 223.17 L 109.55 223.16 L 109.663 223.133 L 109.844 223.091 L 109.854 223.089 L 109.966 223.063 L 111.086 222.805 L 111.131 222.795 L 111.244 222.768 L 112.555 222.466 L 112.6 222.456 L 112.713 222.429 L 114.024 222.127 L 114.069 222.117 L 114.182 222.09 L 114.363 222.048 L 115.743 221.526 L 116.627 220.928 L 116.668 220.894 L 117.666 219.808 L 118.338 218.494 L 118.633 217.049 L 118.532 215.577 L 118.04 214.186 L 117.863 213.933 L 118.1 213.613 L 118.165 213.517 L 118.45 213.047 L 118.505 212.945 L 118.804 212.29 L 118.845 212.182 L 119.003 211.7 L 119.034 211.588 L 119.133 211.166 L 119.155 211.052 L 119.208 210.723 L 119.223 210.608 L 119.259 210.233 L 119.266 210.118 L 119.275 209.88 L 119.277 209.764 L 119.275 209.482 L 119.271 209.366 L 119.261 209.178 L 119.253 209.062 L 119.237 208.871 L 119.225 208.756 L 119.202 208.57 L 119.186 208.455 L 119.156 208.263 L 119.136 208.149 L 119.119 208.058 L 119.097 207.944 L 119.077 207.844 L 119.053 207.731 L 119.012 207.552 L 118.984 207.439 L 118.97 207.384 L 118.941 207.272 L 118.917 207.184 L 118.886 207.072 L 118.858 206.972 L 118.825 206.861 L 118.798 206.775 L 118.763 206.664 L 118.745 206.607 L 118.709 206.497 L 118.681 206.413 L 118.643 206.303 L 118.623 206.246 L 118.584 206.137 L 118.569 206.095 L 118.529 205.986 L 118.507 205.93 L 118.466 205.822 L 118.434 205.74 L 118.391 205.632 L 118.385 205.615 L 118.342 205.508 L 118.309 205.428 L 118.219 205.214 L 118.177 205.117 L 118.036 204.799 L 117.992 204.703 L 117.894 204.493 L 117.876 204.454 L 117.826 204.349 L 117.799 204.293 L 117.697 204.085 L 117.626 203.943 L 117.597 203.886 L 117.544 203.783 L 117.501 203.699 L 117.481 203.66 L 117.428 203.558 L 117.419 203.54 L 117.365 203.437 L 117.355 203.418 L 117.292 203.299 L 117.237 203.196 L 117.195 203.12 L 117.139 203.019 L 117.094 202.937 L 117.083 202.917 L 117.027 202.816 L 117.019 202.8 L 116.962 202.698 L 116.95 202.678 L 116.893 202.577 L 116.882 202.557 L 116.825 202.457 L 116.816 202.441 L 116.758 202.34 L 116.746 202.32 L 116.688 202.22 L 116.668 202.185 L 116.491 201.885 L 116.478 201.864 L 116.419 201.765 L 116.411 201.751 L 116.351 201.651 L 116.339 201.63 L 116.279 201.531 L 116.258 201.497 L 116.197 201.398 L 116.184 201.377 L 116.123 201.279 L 116.075 201.201 L 116.062 201.18 L 116.001 201.082 L 115.993 201.069 L 115.931 200.97 L 115.917 200.949 L 115.793 200.753 L 115.78 200.732 L 115.718 200.635 L 115.71 200.623 L 115.647 200.525 L 115.633 200.503 L 115.507 200.309 L 115.458 200.233 L 115.422 200.178 L 115.358 200.081 L 115.344 200.059 L 115.28 199.963 L 115.166 199.791 L 115.13 199.737 L 115.082 199.666 L 115.023 199.577 L 115.001 199.545 L 114.871 199.353 L 114.783 199.225 L 114.74 199.161 L 114.703 199.107 L 114.637 199.012 L 114.586 198.938 L 114.571 198.916 L 114.439 198.726 L 114.417 198.694 L 114.35 198.599 L 114.306 198.536 L 114.284 198.504 L 114.217 198.409 L 114.201 198.387 L 114.15 198.315 L 114.083 198.22 L 114.045 198.167 L 114.001 198.106 L 113.948 198.031 L 113.91 197.978 L 113.706 197.696 L 113.689 197.673 L 113.621 197.58 L 113.57 197.509 L 113.547 197.478 L 113.478 197.384 L 113.462 197.361 L 113.347 197.206 L 113.341 197.198 L 113.272 197.104 L 113.256 197.081 L 113.187 196.988 L 113.164 196.958 L 113.117 196.895 L 113.048 196.802 L 113.008 196.749 L 112.965 196.693 L 112.909 196.617 L 112.886 196.587 L 112.816 196.494 L 112.799 196.471 L 112.659 196.287 L 112.654 196.28 L 112.583 196.187 L 112.518 196.102 L 112.495 196.073 L 112.447 196.01 L 112.377 195.918 L 112.354 195.889 L 112.283 195.797 L 112.265 195.774 L 112.194 195.683 L 112.141 195.614 L 112.101 195.562 L 112.029 195.471 L 111.998 195.431 L 111.98 195.408 L 111.909 195.317 L 111.887 195.288 L 111.455 194.742 L 111.436 194.719 L 111.364 194.629 L 111.36 194.623 L 111.287 194.532 L 111.268 194.509 L 111.195 194.419 L 111.146 194.358 L 111.123 194.329 L 111.055 194.245 L 110.996 194.171 L 110.954 194.12 L 110.88 194.03 L 110.811 193.946 L 110.757 193.879 L 110.734 193.851 L 110.66 193.761 L 110.591 193.677 L 110.587 193.672 L 110.513 193.582 L 110.494 193.559 L 110.42 193.47 L 110.365 193.403 L 110.346 193.38 L 110.198 193.202 L 110.175 193.174 L 110.1 193.085 L 110.049 193.024 L 110.026 192.996 L 109.951 192.907 L 109.931 192.884 L 109.878 192.822 L 109.825 192.758 L 109.782 192.707 L 109.727 192.642 L 109.652 192.553 L 109.632 192.53 L 109.557 192.442 L 109.534 192.414 L 109.458 192.326 L 109.406 192.266 L 109.383 192.238 L 109.307 192.15 L 109.255 192.09 L 109.232 192.062 L 109.08 191.886 L 109.059 191.863 L 109.003 191.799 L 109.004 191.799 L 108.928 191.711 L 108.907 191.688 L 108.831 191.601 L 108.808 191.575 L 108.775 191.537 L 108.699 191.449 L 108.655 191.4 L 108.578 191.313 L 108.525 191.252 L 108.502 191.226 L 108.425 191.139 L 108.404 191.115 L 108.327 191.029 L 108.194 190.879 L 108.173 190.855 L 108.096 190.769 L 108.073 190.743 L 107.995 190.657 L 107.962 190.62 L 107.918 190.57 L 107.684 190.312 L 107.63 190.252 L 107.562 190.177 L 107.497 190.107 L 107.372 189.969 L 107.327 189.92 L 107.248 189.835 L 107.193 189.775 L 107.17 189.75 L 106.696 189.24 L 106.65 189.191 L 106.57 189.107 L 106.515 189.048 L 106.513 189.047 L 106.433 188.962 L 106.411 188.938 L 106.331 188.854 L 106.276 188.795 L 106.252 188.77 L 106.172 188.686 L 106.149 188.662 L 106.068 188.578 L 106.011 188.519 L 105.931 188.435 L 105.885 188.387 L 105.804 188.304 L 105.746 188.244 L 105.666 188.162 L 105.643 188.137 L 105.481 187.971 L 105.457 187.948 L 105.375 187.865 L 105.317 187.807 L 105.318 187.806 L 105.237 187.723 L 104.651 187.137 L 104.568 187.056 L 104.486 186.974 L 104.071 186.569 L 103.975 186.477 L 103.904 186.408 L 103.856 186.362 L 103.604 186.122 L 103.579 186.098 L 103.495 186.019 L 103.494 186.02 L 103.411 185.941 L 103.41 185.939 L 103.326 185.86 L 103.302 185.838 L 102.962 185.522 L 102.937 185.499 L 102.852 185.421 L 102.768 185.344 L 102.742 185.32 L 102.656 185.242 L 102.63 185.219 L 102.57 185.165 L 102.398 185.009 L 102.348 184.965 L 102.285 184.909 L 102.199 184.832 L 102.175 184.811 L 102.001 184.657 L 101.975 184.634 L 101.888 184.558 L 101.865 184.537 L 101.777 184.461 L 101.777 184.462 L 101.713 184.406 L 101.69 184.385 L 101.602 184.309 L 101.574 184.286 L 101.486 184.211 L 101.463 184.191 L 101.374 184.116 L 101.309 184.061 L 101.286 184.041 L 101.197 183.966 L 101.169 183.943 L 101.108 183.892 L 101.019 183.817 L 100.963 183.771 L 100.874 183.698 L 100.789 183.628 L 100.761 183.605 L 100.491 183.386 L 100.439 183.344 L 100.166 183.128 L 100.137 183.106 L 100.046 183.035 L 100.023 183.017 L 99.839 182.875 L 99.81 182.852 L 99.718 182.782 L 99.695 182.765 L 99.602 182.695 L 99.572 182.672 L 99.293 182.465 L 99.239 182.426 L 99.051 182.29 L 98.998 182.252 L 98.903 182.185 L 98.871 182.163 L 98.808 182.119 L 98.713 182.052 L 98.627 181.993 L 98.339 181.798 L 98.285 181.762 L 98.188 181.698 L 98.155 181.676 L 98.058 181.613 L 98.003 181.578 L 97.807 181.454 L 97.773 181.432 L 97.675 181.371 L 97.654 181.358 L 97.555 181.297 L 97.465 181.243 L 97.265 181.125 L 97.23 181.105 L 97.13 181.047 L 97.054 181.003 L 96.952 180.946 L 96.9 180.918 L 96.799 180.863 L 96.779 180.852 L 96.677 180.797 L 96.621 180.767 L 96.518 180.713 L 96.424 180.665 L 96.282 180.594 L 96.178 180.543 L 96.122 180.516 L 96.017 180.466 L 95.939 180.43 L 95.834 180.382 L 95.777 180.356 L 95.671 180.309 L 95.574 180.267 L 95.467 180.222 L 95.37 180.183 L 95.262 180.14 L 95.18 180.108 L 95.072 180.067 L 94.974 180.03 L 94.865 179.991 L 94.71 179.938 L 94.599 179.902 L 94.527 179.88 L 94.417 179.846 L 94.403 179.841 L 94.292 179.807 L 94.249 179.794 L 94.138 179.761 L 94.125 179.758 L 94.026 179.729 L 94.026 179.728 L 93.915 179.695 L 93.871 179.683 L 93.76 179.651 L 93.748 179.647 L 93.636 179.615 L 93.537 179.587 L 93.525 179.583 L 93.413 179.551 L 93.382 179.542 L 93.271 179.511 L 93.258 179.508 L 93.146 179.477 L 93.103 179.465 L 92.655 179.345 L 92.61 179.333 L 92.498 179.304 L 92.487 179.301 L 92.374 179.272 L 92.273 179.246 L 92.117 179.207 L 92.106 179.204 L 91.88 179.148 L 91.846 179.14 L 91.734 179.113 L 91.724 179.11 L 91.611 179.083 L 91.566 179.073 L 91.498 179.057 L 91.385 179.03 L 91.34 179.02 L 91.227 178.994 L 91.182 178.984 L 91.109 178.968 L 91.001 178.943 L 90.956 178.933 L 90.843 178.908 L 90.788 178.896 L 90.684 178.874 L 90.571 178.85 L 90.561 178.848 L 90.457 178.826 L 90.344 178.802 L 90.289 178.791 L 90.175 178.768 L 90.071 178.747 L 90.017 178.736 L 89.903 178.714 L 89.834 178.7 L 89.743 178.682 L 89.629 178.661 L 89.561 178.648 L 89.515 178.639 L 89.287 178.597 L 89.242 178.589 L 89.014 178.549 L 88.96 178.54 L 88.891 178.529 L 88.785 178.51 L 88.731 178.501 L 88.616 178.482 L 88.464 178.458 L 88.456 178.457 L 88.349 178.44 L 88.235 178.422 L 88.182 178.414 L 88.067 178.397 L 87.959 178.381 L 87.953 178.38 L 87.838 178.363 L 87.791 178.356 L 87.561 178.324 L 87.446 178.309 L 87.331 178.293 L 87.239 178.281 L 86.779 178.225 L 86.732 178.219 L 86.617 178.206 L 86.612 178.206 L 86.496 178.193 L 86.454 178.188 L 86.224 178.164 L 86.173 178.159 L 86.057 178.148 L 86.057 178.149 L 85.947 178.138 L 85.942 178.137 L 85.826 178.126 L 85.784 178.122 L 85.669 178.112 L 85.665 178.112 L 85.549 178.102 L 85.506 178.098 L 85.391 178.089 L 85.387 178.089 L 85.155 178.071 L 85.111 178.068 L 84.996 178.06 L 84.993 178.06 L 84.877 178.052 L 84.83 178.049 L 84.717 178.042 L 84.602 178.035 L 84.552 178.032 L 84.436 178.026 L 84.367 178.022 L 84.273 178.017 L 83.925 178.002 L 83.88 178 L 83.765 177.996 L 83.763 177.996 L 83.647 177.992 L 83.6 177.991 L 83.252 177.982 L 83.205 177.981 L 83.089 177.979 L 83.042 177.978 L 82.926 177.977 L 82.857 177.976 L 82.763 177.975 Z M 36.023 227.495 L 36.019 227.48 L 36.093 227.454 L 36.102 227.453 Z M 23.251 127.078 L 22.721 126.913 L 22.696 126.878 L 23.138 126.751 Z" fill="#000000" fill-rule="nonzero" stroke="none" data-offset="0.25mm"/></svg>