<?xml version="1.0" standalone="no"?><!DOCTYPE svg PUBLIC "-//W3C//DTD SVG 20010904//EN" "http://www.w3.org/TR/2001/REC-SVG-20010904/DTD/svg10.dtd"><svg xmlns="http://www.w3.org/2000/svg" version="1.0" width="16mm" height="14.1194mm" viewBox="0 0 140.007307 123.550898" preserveAspectRatio="xMidYMid meet">
<metadata>
Created by potrace 1.16, written by Peter Selinger 2001-2019
</metadata>
<g transform="translate(-74.915690,156.258194) scale(0.100000,-0.100000)" fill="#000000" stroke="none">
<path d="M1615 1536 l30 -26 -30 7 c-49 13 -136 6 -153 -11 -14 -14 -13 -16 9 -26 23 -10 22 -10 -6 -6 -17 3 -37 1 -45 -5 -10 -6 0 -9 33 -9 30 0 46 -4 42 -10 -3 -5 -18 -10 -33 -10 -26 0 -62 -19 -112 -59 -23 -18 -23 -20 -7 -27 15 -5 16 -9 5 -16 -9 -7 -6 -8 10 -5 17 4 10 -7 -30 -44 -56 -52 -59 -70 -8 -44 17 9 39 14 48 10 13 -5 10 -11 -16 -31 -18 -14 -30 -29 -27 -34 3 -5 31 -12 63 -16 45 -6 52 -9 32 -14 l-25 -7 28 -12 c16 -6 35 -11 43 -11 8 0 13 -4 9 -10 -4 -6 -15 -6 -31 0 -28 11 -44 6 -44 -14 0 -8 20 -19 45 -25 25 -6 48 -18 51 -26 4 -8 12 -15 20 -15 9 0 14 -11 14 -27 0 -23 -5 -28 -25 -29 -14 -1 -25 3 -25 10 0 6 -11 24 -25 39 -41 44 -133 31 -124 -18 5 -22 65 -40 72 -21 3 7 9 7 18 -3 9 -9 9 -11 2 -7 -19 10 -16 -9 3 -25 12 -10 15 -25 11 -57 -4 -41 -4 -42 14 -27 15 14 23 15 53 5 39 -13 43 -22 21 -60 -8 -14 -14 -37 -15 -51 0 -25 26 -59 47 -59 5 0 15 -11 21 -25 11 -25 45 -34 56 -16 4 5 -3 7 -14 4 -22 -6 -43 28 -22 35 22 7 34 40 22 62 -6 11 -16 18 -22 14 -7 -4 -6 -9 2 -14 7 -4 9 -16 5 -29 -13 -40 -85 -17 -85 28 0 28 52 89 87 101 47 16 99 -8 112 -52 5 -18 10 -27 10 -20 1 19 39 14 50 -6 6 -10 7 -29 4 -42 -4 -16 -3 -21 5 -16 29 18 3 79 -38 88 -35 7 -40 42 -5 36 13 -3 22 -2 20 3 -8 13 33 36 61 35 19 -1 39 -15 67 -49 38 -44 40 -49 30 -82 -13 -42 1 -38 15 5 9 24 7 33 -9 54 -23 29 -23 30 -3 50 24 24 89 21 108 -5 8 -12 25 -27 38 -33 32 -16 44 -57 28 -95 -15 -38 -41 -54 -74 -45 -33 8 -42 38 -22 69 20 31 40 32 54 3 8 -17 11 -18 11 -7 1 23 -25 42 -49 36 -22 -6 -27 12 -9 30 7 7 8 13 0 17 -10 7 -14 -5 -26 -76 -4 -28 -14 -41 -40 -57 -48 -28 -63 -62 -41 -95 9 -14 16 -34 16 -44 0 -27 48 -46 83 -33 29 11 46 54 31 78 -11 18 -27 19 -33 2 -2 -7 1 -9 8 -5 17 11 24 -19 11 -44 -9 -17 -19 -20 -48 -18 -32 3 -37 7 -40 31 -2 15 -7 27 -11 27 -21 0 -18 42 6 70 27 33 48 37 77 15 26 -20 61 -19 81 1 15 15 17 15 30 -2 21 -27 23 -89 4 -109 -15 -15 -10 -29 5 -16 11 9 15 9 19 -1 3 -7 6 7 6 32 1 27 -7 61 -18 83 -13 26 -17 49 -14 77 6 41 -16 90 -39 90 -7 0 -22 12 -33 26 -16 20 -30 26 -63 27 -33 2 -42 6 -42 20 0 10 -13 32 -29 48 -25 25 -33 28 -55 19 -22 -8 -30 -4 -73 40 -26 27 -56 50 -66 50 -27 0 -12 17 22 23 51 11 120 83 126 132 1 6 9 28 19 49 14 31 15 44 6 60 -7 15 -9 16 -5 3 3 -10 1 -15 -5 -12 -6 3 -10 29 -10 56 0 51 -17 95 -43 118 -13 10 -14 6 -10 -30 4 -30 3 -40 -5 -35 -7 4 -12 13 -12 21 0 8 -5 17 -12 21 -8 5 -9 2 -5 -9 4 -10 9 -23 13 -31 3 -9 -8 -7 -40 8 -30 13 -50 31 -60 53 -9 18 -23 33 -31 33 -9 0 -13 -5 -10 -10 3 -6 -11 0 -32 11 l-38 22 30 -27z m-45 -258 c-20 -44 -17 -65 4 -36 7 10 17 13 25 9 9 -6 10 -11 2 -15 -6 -4 -11 -13 -11 -19 0 -7 7 -4 15 7 17 22 35 13 35 -19 0 -35 10 -54 26 -48 8 3 11 9 8 14 -3 5 -10 7 -15 4 -5 -4 -9 6 -9 21 0 15 -10 38 -22 51 -27 29 -18 40 15 19 19 -13 31 -14 53 -6 l29 10 -27 -24 c-33 -30 -36 -40 -8 -31 16 5 19 3 13 -11 -4 -12 -3 -15 6 -10 7 5 18 1 26 -10 10 -14 10 -21 2 -26 -8 -5 -6 -8 6 -8 12 0 17 8 18 28 2 24 2 24 6 4 5 -27 -14 -55 -34 -48 -7 3 -13 -1 -13 -9 0 -19 -44 -41 -99 -50 -34 -6 -42 -4 -36 6 6 9 3 11 -10 6 -9 -4 -24 -2 -31 4 -16 13 -19 49 -5 49 5 0 12 11 15 25 7 28 -10 69 -25 60 -5 -4 -9 1 -9 10 0 12 5 15 16 11 12 -5 15 -2 10 10 -5 12 28 63 41 64 1 0 -6 -19 -17 -42z m200 -58 c0 -5 -2 -10 -4 -10 -3 0 -8 5 -11 10 -3 6 -1 10 4 10 6 0 11 -4 11 -10z m-223 -42 c-3 -8 -6 -5 -6 6 -1 11 2 17 5 13 3 -3 4 -12 1 -19z m-27 -68 c0 -5 -7 -10 -16 -10 -8 0 -12 5 -9 10 3 6 10 10 16 10 5 0 9 -4 9 -10z m-30 -21 c10 -6 5 -7 -15 -3 -16 4 -34 11 -40 16 -11 12 31 1 55 -13z m59 -35 c-14 -17 -30 -9 -23 11 3 7 12 11 20 8 11 -4 12 -9 3 -19z m151 1 c0 -28 -21 -33 -40 -10 -7 8 -17 12 -24 8 -7 -4 -8 -3 -1 5 9 9 30 17 58 21 4 0 7 -10 7 -24z m-311 -8 c-2 -1 -13 -9 -24 -17 -19 -14 -19 -14 -6 3 7 9 18 17 24 17 6 0 8 -1 6 -3z m234 -29 c14 -18 28 -43 32 -55 5 -19 2 -23 -17 -24 -13 -1 -27 -1 -31 0 -5 1 -6 -3 -3 -8 4 -5 2 -12 -3 -15 -13 -8 -61 51 -61 75 0 31 19 59 40 59 10 0 30 -15 43 -32z m187 -59 c0 -27 -2 -29 -21 -19 -11 7 -27 9 -35 6 -16 -6 -18 20 -7 74 l6 33 29 -32 c18 -20 28 -42 28 -62z m105 -9 c12 -23 13 -34 3 -55 -13 -30 -20 -31 -42 -6 -11 12 -14 21 -7 26 6 3 10 14 10 23 -1 15 -2 15 -6 0 -6 -24 -23 -23 -23 2 0 11 6 20 13 20 8 0 7 4 -3 10 -12 8 -9 10 12 10 20 0 31 -8 43 -30z m-368 -8 c11 -15 23 -37 27 -50 6 -18 3 -22 -13 -22 -11 0 -23 5 -26 11 -6 8 -14 89 -10 89 1 0 10 -12 22 -28z m176 -36 c12 -30 -17 -35 -33 -6 -9 17 -8 20 9 20 10 0 21 -6 24 -14z m-236 -2 c-3 -3 -12 -4 -19 -1 -8 3 -5 6 6 6 11 1 17 -2 13 -5z"/>
<path d="M1590 1180 c0 -5 5 -10 11 -10 5 0 7 5 4 10 -3 6 -8 10 -11 10 -2 0 -4 -4 -4 -10z"/>
<path d="M1560 1129 c0 -5 5 -7 10 -4 6 3 10 8 10 11 0 2 -4 4 -10 4 -5 0 -10 -5 -10 -11z"/>
<path d="M1327 1234 c-16 -9 -27 -18 -24 -20 3 -3 20 4 38 15 39 24 28 28 -14 5z"/>
<path d="M1394 865 c-12 -8 -27 -28 -34 -45 -7 -16 -16 -30 -21 -30 -5 0 -15 -13 -24 -30 -8 -16 -24 -34 -34 -40 -11 -5 -111 -13 -223 -16 -112 -4 -239 -10 -283 -14 -54 -5 -23 -6 95 -4 146 4 218 6 404 14 4 0 23 16 41 36 31 34 33 35 40 15 3 -12 10 -21 15 -21 6 0 5 11 0 26 -13 33 6 91 32 100 10 3 18 10 18 15 0 12 -2 12 -26 -6z"/>
<path d="M768 663 c18 -2 45 -2 60 0 15 2 0 4 -33 4 -33 0 -45 -2 -27 -4z"/>
<path d="M915 650 c22 -4 99 -11 170 -15 174 -8 173 -8 196 -59 10 -24 26 -49 34 -56 8 -7 15 -18 15 -25 0 -7 16 -27 35 -44 38 -33 88 -41 126 -21 15 9 26 6 52 -13 17 -14 43 -28 56 -32 13 -4 33 -18 45 -32 19 -21 30 -24 103 -26 71 -1 86 2 110 21 16 12 42 28 58 35 17 8 36 21 44 30 7 10 24 17 38 17 13 0 34 5 46 11 26 14 110 100 103 106 -2 3 -23 -16 -46 -41 -43 -46 -111 -78 -119 -55 -2 6 -16 -4 -31 -23 -27 -32 -30 -33 -96 -31 -65 2 -71 4 -96 35 -15 18 -36 42 -46 53 -10 11 -22 31 -25 44 -8 31 19 88 45 97 11 3 17 8 15 11 -9 8 -46 -17 -59 -40 -6 -12 -14 -40 -17 -62 -5 -31 -11 -41 -31 -46 l-25 -7 27 -1 c15 -1 30 3 33 9 9 14 45 -11 45 -33 0 -9 -11 -22 -24 -27 -13 -5 -27 -14 -31 -19 -3 -6 -24 -11 -47 -11 -32 0 -47 7 -75 35 -29 29 -34 40 -29 65 4 23 1 32 -14 40 -13 7 -20 21 -20 39 0 30 32 67 49 56 6 -3 11 -1 11 5 0 23 -45 4 -60 -25 -8 -16 -25 -38 -37 -48 -17 -13 -23 -28 -22 -55 l1 -37 8 38 c10 55 23 63 51 35 46 -46 22 -118 -39 -118 -33 0 -92 46 -92 71 0 12 -8 23 -20 26 -24 6 -34 34 -25 73 7 31 39 43 48 18 2 -7 8 -10 12 -6 4 4 4 11 0 17 -8 14 -62 14 -70 1 -5 -8 -11 -7 -21 1 -9 7 -63 13 -142 15 -70 2 -156 5 -192 8 -52 4 -57 3 -25 -4z m897 -271 c22 -6 47 -8 57 -5 9 4 5 -2 -8 -13 -29 -22 -87 -34 -110 -22 -9 5 -29 7 -44 4 -18 -4 -34 0 -47 12 -28 25 -26 30 22 53 42 19 43 19 67 1 13 -10 41 -24 63 -30z"/>
<path d="M1773 629 c9 -5 17 -19 17 -29 0 -10 -8 -24 -17 -30 -16 -10 -16 -10 2 -8 36 6 27 79 -9 78 -6 0 -3 -5 7 -11z"/>
</g>
</svg>