<?xml version="1.0" standalone="no"?><!DOCTYPE svg PUBLIC "-//W3C//DTD SVG 20010904//EN" "http://www.w3.org/TR/2001/REC-SVG-20010904/DTD/svg10.dtd"><svg xmlns="http://www.w3.org/2000/svg" version="1.0" width="14.5598mm" height="16mm" viewBox="0 0 341.745264 375.548343" preserveAspectRatio="xMidYMid meet">
<metadata>
Created by potrace 1.16, written by Peter Selinger 2001-2019
</metadata>
<g transform="translate(-105.000000,464.996224) scale(0.100000,-0.100000)" fill="#000000" stroke="none">
<path d="M2734 4643 c-25 -18 -37 -86 -43 -243 l-6 -165 -70 -6 c-38 -3 -78 -10 -88 -14 -19 -8 -32 -47 -23 -70 7 -19 63 -54 97 -61 22 -5 28 -13 32 -44 7 -54 32 -86 88 -112 l48 -23 0 -70 c0 -52 -2 -66 -10 -52 -15 26 -47 21 -87 -14 -28 -25 -41 -30 -66 -26 -17 3 -50 9 -73 12 -47 8 -94 -5 -129 -37 -17 -15 -30 -18 -57 -13 -20 4 -42 3 -49 -1 -20 -13 -277 -4 -333 11 -27 8 -110 19 -184 25 -74 7 -158 18 -188 26 -30 8 -56 14 -59 14 -3 0 -3 -18 1 -40 8 -45 -1 -50 -45 -23 -27 15 -33 15 -104 -1 -91 -22 -114 -17 -169 33 -49 45 -78 61 -106 61 -31 0 -26 -15 22 -67 37 -41 39 -45 17 -38 -14 4 -29 11 -34 16 -13 12 -66 12 -66 0 0 -6 4 -12 10 -16 5 -3 6 -13 3 -21 -3 -9 6 -27 22 -43 19 -21 23 -30 13 -34 -20 -7 4 -27 38 -31 16 -2 52 2 81 9 54 13 65 8 38 -15 -21 -17 -20 -64 1 -56 9 3 20 6 24 6 5 0 32 20 60 45 30 27 60 45 75 45 13 0 37 8 54 17 16 10 32 15 35 12 4 -3 7 -31 9 -62 3 -72 5 -73 162 -68 66 2 136 4 155 3 86 0 359 -22 467 -37 185 -24 169 -17 176 -83 3 -31 19 -90 36 -130 17 -40 35 -89 40 -107 l9 -34 -100 -67 c-54 -37 -121 -87 -148 -111 -26 -23 -56 -43 -66 -43 -11 0 -84 -14 -164 -30 -189 -39 -256 -39 -353 0 -86 34 -112 37 -125 13 -9 -15 -12 -14 -43 5 -19 11 -45 32 -58 46 -14 14 -30 26 -37 26 -30 0 -19 -95 16 -143 16 -21 19 -32 11 -40 -7 -7 0 -23 25 -54 l35 -43 -36 0 c-33 0 -36 -2 -29 -22 18 -60 51 -113 113 -180 37 -41 74 -84 82 -95 15 -21 85 -60 167 -92 72 -29 187 -50 278 -52 71 -2 85 1 144 31 72 37 185 117 244 174 38 37 39 38 57 19 19 -19 18 -19 -32 -37 -40 -15 -72 -40 -144 -111 -51 -51 -101 -97 -110 -102 -16 -9 -16 -13 1 -61 10 -29 22 -52 27 -52 4 0 22 7 38 16 30 15 30 15 19 -5 -8 -15 -7 -26 2 -41 7 -11 16 -20 20 -20 5 0 8 -8 8 -18 0 -20 50 -62 73 -62 8 0 20 7 27 15 22 26 40 18 40 -19 0 -19 4 -38 10 -41 15 -9 64 21 80 49 7 14 16 26 20 26 12 0 29 -99 60 -355 38 -312 54 -533 46 -652 -6 -91 -2 -109 23 -94 11 7 12 54 9 227 -4 185 -11 261 -43 486 -21 147 -36 270 -32 274 3 4 17 -1 31 -9 28 -19 28 -17 51 -282 35 -403 45 -508 49 -513 3 -3 17 3 31 12 14 9 25 15 25 13 0 -2 -13 -28 -30 -58 -38 -69 -43 -149 -9 -149 17 0 20 4 15 23 -7 29 10 93 35 126 27 37 36 89 16 97 -8 3 -24 1 -35 -5 -18 -10 -20 -3 -36 132 -13 117 -66 680 -66 705 0 4 11 9 24 10 20 1 23 -2 18 -20 -5 -20 -2 -21 36 -16 51 7 91 39 126 100 15 26 45 63 68 82 40 35 41 37 46 110 5 88 1 110 -33 161 -21 30 -23 36 -8 31 32 -13 100 -70 122 -104 14 -22 28 -32 37 -28 9 3 24 -5 38 -21 23 -26 46 -25 46 2 0 12 7 10 33 -5 81 -51 316 -91 341 -59 11 14 162 69 191 69 9 0 18 7 21 15 4 9 19 15 41 15 45 0 42 25 -7 51 -19 11 -27 19 -19 19 9 0 22 6 28 14 6 7 24 16 39 20 15 3 38 16 52 29 28 25 100 112 100 121 0 2 -32 8 -70 12 -39 4 -73 11 -76 15 -3 5 5 27 17 49 12 22 20 43 16 46 -11 12 -240 9 -281 -4 l-39 -11 -70 65 c-80 74 -188 131 -262 140 -108 12 -117 15 -169 64 -28 27 -86 65 -131 87 -47 23 -81 46 -83 56 -2 9 14 56 36 104 22 49 45 115 52 148 17 89 19 92 46 99 38 10 292 33 439 41 105 6 293 -2 460 -18 21 -2 27 17 13 44 -4 9 -2 28 5 43 11 25 16 27 67 25 64 -3 130 -23 182 -56 21 -12 42 -23 47 -23 16 0 23 38 12 59 -15 28 -15 28 29 34 56 7 92 32 88 60 -4 23 -7 24 -48 12 -21 -5 -20 -3 8 14 34 22 57 64 47 89 -3 8 -12 11 -20 8 -10 -3 -15 1 -15 14 0 34 -19 31 -65 -11 -41 -38 -56 -44 -175 -74 l-130 -32 0 44 c0 47 -4 49 -60 33 -18 -5 -102 -17 -184 -25 -83 -9 -165 -20 -183 -26 -19 -6 -61 -7 -101 -4 -39 4 -116 2 -175 -5 -102 -11 -107 -11 -136 9 -16 12 -34 21 -41 21 -6 0 -20 10 -29 22 -17 20 -21 21 -76 10 -95 -19 -138 -16 -170 13 -25 24 -28 25 -51 10 l-24 -15 0 44 c0 59 17 96 44 96 21 0 82 36 121 71 19 17 24 17 105 1 75 -15 85 -20 88 -40 3 -18 35 -42 56 -42 5 0 46 97 46 108 0 5 -12 14 -27 21 -24 11 -29 10 -45 -9 l-17 -21 -86 17 c-47 10 -85 22 -85 26 0 4 24 15 54 23 70 21 106 49 106 83 0 53 -33 72 -121 72 l-62 0 7 53 c4 28 23 121 43 206 34 145 35 154 19 166 -19 15 -323 21 -342 8z m180 -391 c2 -4 1 -14 -3 -21 -7 -10 -28 -11 -95 -6 -80 7 -104 16 -73 28 20 9 165 8 171 -1z m22 -93 c50 -13 65 -33 60 -79 -5 -42 -9 -45 -59 -31 -50 14 -175 18 -229 8 -37 -8 -38 -7 -38 23 0 39 29 67 77 75 21 4 43 8 48 10 23 8 99 4 141 -6z m-126 -154 c0 -37 -14 -44 -49 -25 -13 6 -17 17 -14 35 4 20 11 25 34 25 26 0 29 -3 29 -35z m-90 9 c0 -8 -4 -12 -10 -9 -5 3 -10 10 -10 16 0 5 5 9 10 9 6 0 10 -7 10 -16z m188 -11 c-2 -23 -8 -29 -35 -31 -29 -3 -33 0 -33 21 0 31 7 37 42 37 26 0 29 -3 26 -27z m-68 -64 c39 -1 42 -2 18 -9 -27 -8 -94 2 -106 16 -4 4 4 4 18 1 14 -4 45 -7 70 -8z m-38 -1900 c-4 -26 -6 -29 -14 -15 -10 18 -4 46 10 46 5 0 6 -14 4 -31z"/>
<path d="M2712 4118 c2 -15 10 -23 23 -23 13 0 21 8 23 23 3 18 -1 22 -23 22 -22 0 -26 -4 -23 -22z"/>
<path d="M2922 4128 c-7 -7 -8 -17 -1 -30 12 -22 32 -23 49 -3 23 28 -21 60 -48 33z"/>
</g>
</svg>