<?xml version="1.0" standalone="no"?>
<!DOCTYPE svg PUBLIC "-//W3C//DTD SVG 20010904//EN"
 "http://www.w3.org/TR/2001/REC-SVG-20010904/DTD/svg10.dtd">
<svg version="1.0" xmlns="http://www.w3.org/2000/svg"
 width="161.828269pt" height="194.698542pt" viewBox="0 0 161.828269 194.698542"
 preserveAspectRatio="xMidYMid meet">
<metadata>
Created by potrace 1.16, written by Peter Selinger 2001-2019
</metadata>
<g transform="translate(-31.578624,209.942021) scale(0.100000,-0.100000)"
fill="#000000" stroke="none">
<path d="M1423 2084 c-8 -21 5 -435 15 -494 l8 -45 -78 3 c-86 4 -193 -10
-263 -33 l-44 -16 -78 39 c-104 53 -199 86 -313 110 -130 28 -228 36 -264 22
l-29 -11 34 -36 c67 -70 255 -177 430 -243 l86 -32 -8 -37 c-5 -20 -9 -53 -9
-75 0 -32 -3 -37 -17 -31 -75 31 -221 79 -287 95 -90 20 -273 43 -286 35 -4
-3 -6 -15 -3 -28 11 -42 100 -244 137 -311 l37 -66 138 0 c76 0 140 -2 143 -5
3 -3 -8 -51 -24 -106 -16 -56 -28 -108 -26 -116 2 -8 32 -26 68 -39 64 -24 90
-45 90 -71 0 -7 -8 -13 -18 -13 -10 0 -28 -7 -41 -16 -21 -15 -24 -15 -50 10
-33 32 -47 33 -55 4 -18 -67 10 -202 64 -308 47 -94 56 -98 215 -96 82 0 136
-3 138 -9 4 -11 143 -18 167 -8 25 10 74 12 85 2 15 -11 100 -2 138 15 37 16
236 28 259 15 23 -13 64 23 93 80 53 105 77 283 44 317 -23 22 -55 10 -75 -27
-15 -29 -16 -30 -37 -15 -12 9 -32 21 -43 27 -29 15 -93 153 -101 217 -5 46
-3 54 24 89 82 103 89 155 43 300 -16 51 -30 100 -30 108 0 8 -9 43 -19 77
-11 35 -24 119 -30 188 -16 194 -68 360 -152 490 -38 60 -64 75 -76 44z m93
-194 c25 -13 46 -32 53 -48 25 -61 51 -190 57 -281 7 -89 6 -95 -10 -82 -29
24 -28 5 3 -45 17 -27 44 -99 61 -163 17 -63 33 -118 36 -123 3 -4 -3 -8 -14
-8 -23 0 -59 -37 -67 -71 -9 -34 17 -95 44 -104 12 -3 21 -12 21 -18 0 -24
-82 -107 -151 -153 -38 -25 -68 -49 -65 -51 11 -11 56 8 99 41 47 36 57 33 57
-12 0 -9 15 -53 33 -98 l33 -81 -28 -11 -29 -11 7 45 c8 53 -2 106 -17 83 -5
-7 -9 -31 -9 -52 0 -80 -32 -193 -86 -306 -30 -63 -53 -120 -50 -127 3 -7 -6
-10 -25 -8 -16 2 -29 0 -29 -4 0 -6 -50 -8 -57 -2 -2 2 -9 3 -15 4 -26 2 -34
252 -12 363 8 39 -12 46 -22 8 -9 -37 -18 -31 -32 20 -7 25 -16 45 -22 45 -12
0 -13 12 9 -122 11 -62 23 -158 26 -214 8 -115 7 -117 -75 -116 -68 0 -70 1
-70 17 0 8 -29 65 -65 127 -35 62 -76 149 -90 193 -33 98 -50 120 -41 52 7
-59 56 -173 119 -282 l46 -80 -37 -8 c-20 -4 -73 -6 -117 -5 l-79 3 -8 44
c-11 68 -28 75 -28 13 0 -29 -4 -52 -8 -52 -25 0 -70 83 -102 189 -18 60 -20
75 -9 81 7 5 16 7 20 4 4 -2 9 6 11 18 3 20 8 16 28 -24 13 -27 28 -48 32 -48
12 0 10 15 -9 61 -16 40 -15 42 2 55 24 18 63 18 99 -1 35 -18 36 -18 36 -2 0
8 -12 20 -27 27 -16 8 -29 15 -31 16 -2 1 8 40 22 85 14 46 28 101 32 122 l7
38 32 -31 c35 -34 108 -65 114 -49 1 6 1 11 0 12 -2 1 -26 14 -54 28 -37 19
-58 39 -82 79 -18 30 -33 63 -33 73 0 17 4 16 32 -8 90 -76 202 53 119 136
-19 19 -40 29 -59 29 -33 0 -80 -32 -91 -64 -10 -25 -26 158 -18 201 3 15 8
45 12 66 4 28 11 37 25 37 11 0 20 7 20 15 0 8 -6 15 -14 15 -26 0 -179 56
-274 100 -102 47 -122 70 -122 136 l0 37 52 -7 c108 -15 335 -101 421 -160 46
-31 62 -34 47 -6 -9 17 -6 20 27 30 91 25 221 34 309 22 48 -7 89 -11 91 -8 3
2 -9 11 -25 20 -21 11 -31 25 -36 48 -4 26 -25 283 -26 321 0 13 33 7 76 -13z
m-966 -600 c92 -17 193 -47 277 -82 l71 -29 6 -77 c3 -42 10 -104 15 -137 l8
-60 -48 -69 c-27 -39 -49 -76 -49 -83 0 -7 18 -22 40 -33 22 -11 40 -26 39
-33 -1 -17 -17 -54 -18 -41 -1 7 -34 24 -75 39 l-73 27 33 116 c18 64 30 119
27 122 -2 3 -72 6 -154 8 l-150 3 -58 122 c-33 67 -68 147 -79 177 l-20 56 71
-7 c40 -4 101 -12 137 -19z m391 -493 c-7 -34 -16 -66 -20 -70 -9 -9 -61 12
-61 24 0 4 17 35 38 67 46 74 61 67 43 -21z m841 -261 c32 -25 33 -31 14 -83
-18 -50 -23 -97 -12 -101 5 -2 23 39 39 90 30 88 31 91 37 58 7 -35 7 -35 18
-10 l11 25 0 -28 c1 -16 5 -26 10 -23 12 8 -4 -70 -29 -138 -12 -32 -35 -72
-50 -89 -27 -30 -28 -31 -34 -9 -8 24 -22 29 -28 10 -5 -14 -238 -26 -238 -12
0 4 14 32 30 61 36 64 67 139 84 207 11 43 18 52 47 62 39 14 63 9 101 -20z"/>
<path d="M1521 1304 c-27 -34 -27 -74 -1 -102 50 -53 122 -29 128 43 7 76 -81
117 -127 59z m67 -21 c5 -17 -26 -29 -40 -15 -6 6 -7 15 -3 22 9 14 37 9 43
-7z"/>
<path d="M1085 1285 c-63 -62 6 -161 90 -129 18 7 45 55 45 79 0 26 -55 75
-85 75 -14 0 -37 -11 -50 -25z m75 -25 c0 -13 -7 -20 -20 -20 -13 0 -20 7 -20
20 0 13 7 20 20 20 13 0 20 -7 20 -20z"/>
<path d="M1380 1202 c0 -15 22 -30 36 -25 24 9 16 33 -11 33 -14 0 -25 -4 -25
-8z"/>
<path d="M1345 1129 c-51 -24 -66 -27 -93 -20 -36 11 -38 9 -18 -22 7 -12 16
-41 20 -64 8 -55 37 -121 70 -161 36 -42 81 -44 119 -4 31 33 74 127 83 183 4
22 13 46 20 54 21 21 17 33 -11 27 -14 -2 -47 5 -74 17 -28 11 -51 21 -53 20
-2 0 -30 -14 -63 -30z"/>
</g>
</svg>
