<?xml version="1.0" standalone="no"?><!DOCTYPE svg PUBLIC "-//W3C//DTD SVG 20010904//EN" "http://www.w3.org/TR/2001/REC-SVG-20010904/DTD/svg10.dtd"><svg xmlns="http://www.w3.org/2000/svg" version="1.0" width="15.9981mm" height="16mm" viewBox="0 0 224.447340 224.474668" preserveAspectRatio="xMidYMid meet">
<metadata>
Created by potrace 1.16, written by Peter Selinger 2001-2019
</metadata>
<g transform="translate(-0.539611,224.881976) scale(0.100000,-0.100000)" fill="#000000" stroke="none">
<path d="M955 2239 c-274 -40 -567 -217 -734 -442 -56 -77 -135 -228 -164 -317 -43 -130 -52 -188 -52 -350 0 -178 18 -261 83 -385 45 -86 151 -200 242 -260 65 -44 68 -46 74 -96 9 -66 42 -153 77 -206 59 -85 135 -128 289 -161 116 -24 603 -24 720 1 210 45 306 138 353 340 10 44 16 52 77 93 222 148 329 366 330 665 1 628 -510 1135 -1135 1128 -55 -1 -127 -5 -160 -10z m347 -214 c125 -50 239 -180 273 -310 77 -299 -142 -585 -450 -585 -307 0 -527 286 -450 585 39 149 150 267 302 321 94 34 227 29 325 -11z m-1047 -457 c42 -135 26 -290 -40 -417 -34 -64 -92 -141 -107 -141 -15 0 -8 239 8 317 22 107 94 293 114 293 5 0 16 -24 25 -52z m1802 -5 c73 -167 97 -295 93 -503 l-1 -65 -39 45 c-47 53 -101 154 -121 225 -20 73 -18 237 5 303 9 28 22 52 27 52 6 0 22 -26 36 -57z m-727 -788 c159 -31 311 -97 399 -174 l45 -38 -12 -96 c-27 -220 -100 -307 -292 -348 -91 -20 -610 -20 -695 0 -188 43 -260 129 -287 346 -13 105 -18 95 72 162 98 72 218 122 360 148 103 18 317 19 410 0z"/>
<path d="M828 643 c-36 -40 -46 -243 -16 -322 12 -32 25 -41 60 -41 42 0 60 45 66 165 4 92 -5 160 -26 192 -15 23 -66 26 -84 6z"/>
<path d="M1346 645 c-27 -27 -38 -95 -34 -200 5 -126 23 -168 71 -163 26 2 36 10 52 43 17 33 20 59 19 150 -1 80 -6 119 -17 142 -23 44 -62 56 -91 28z"/>
</g>
</svg>