<?xml version="1.0" standalone="no"?><!DOCTYPE svg PUBLIC "-//W3C//DTD SVG 20010904//EN" "http://www.w3.org/TR/2001/REC-SVG-20010904/DTD/svg10.dtd"><svg xmlns="http://www.w3.org/2000/svg" version="1.0" width="16mm" height="11.8243mm" viewBox="0 0 147.214087 108.794111" preserveAspectRatio="xMidYMid meet">
<metadata>
Created by potrace 1.16, written by Peter Selinger 2001-2019
</metadata>
<g transform="translate(-64.187269,156.732795) scale(0.100000,-0.100000)" fill="#000000" stroke="none">
<path d="M1637 1547 c-21 -12 -44 -35 -51 -49 -14 -27 -14 -28 36 -14 15 4 34 4 43 -1 13 -8 9 -13 -25 -28 -40 -18 -90 -66 -90 -87 0 -6 7 -7 16 -4 8 3 12 2 9 -4 -9 -15 51 -12 92 5 19 8 37 15 39 15 2 0 4 -7 4 -15 0 -8 -6 -15 -13 -15 -16 0 -97 -52 -97 -62 0 -5 13 -8 28 -8 40 0 44 -9 22 -40 -27 -38 -26 -40 19 -40 27 0 41 -5 45 -17 7 -19 -12 -35 -32 -28 -36 13 -92 16 -126 7 -47 -13 -93 2 -74 25 6 8 19 12 28 10 9 -2 28 1 40 8 l24 13 -34 21 c-48 29 -95 28 -115 -3 -8 -13 -13 -30 -10 -37 4 -10 -6 -20 -28 -30 -33 -15 -35 -14 -67 13 -28 23 -31 28 -16 34 9 3 23 22 31 41 13 31 13 38 -3 71 -15 30 -23 37 -45 35 -21 -1 -37 9 -74 52 -26 30 -48 53 -50 51 -2 -1 4 -20 13 -42 l16 -39 -56 55 c-64 62 -70 60 -24 -8 18 -26 24 -41 15 -33 -23 18 -21 5 4 -32 12 -18 -24 13 -80 68 -55 55 -101 96 -101 92 0 -4 31 -49 70 -100 63 -84 67 -92 47 -95 -12 -2 -27 -8 -32 -12 -6 -5 -43 7 -85 27 -41 19 -86 39 -100 45 l-25 9 25 -26 c14 -15 30 -23 39 -20 9 3 12 3 8 -1 -8 -8 21 -44 36 -44 6 0 2 10 -9 21 -16 18 -10 17 43 -9 52 -27 63 -29 73 -17 8 10 29 13 67 11 47 -2 60 -7 79 -30 13 -15 24 -34 24 -42 0 -8 7 -14 15 -14 13 0 47 -59 39 -68 -8 -10 -54 37 -59 60 -8 34 -40 58 -75 57 -39 -1 -124 -52 -134 -82 -11 -29 13 -95 48 -134 50 -58 163 10 136 82 -11 29 -48 46 -79 38 -23 -6 -39 -49 -24 -64 5 -5 9 2 8 19 0 22 5 28 28 30 77 9 77 -89 1 -112 -29 -9 -74 13 -74 35 0 10 -5 21 -11 24 -18 12 -29 54 -20 78 6 14 32 35 66 52 53 27 59 28 83 14 19 -10 28 -24 30 -47 2 -18 9 -32 16 -32 27 0 45 -35 42 -80 -1 -25 -6 -53 -11 -63 -10 -23 -49 -41 -95 -43 -19 -1 -44 -5 -56 -9 -13 -4 -26 -1 -35 8 -8 7 -29 14 -48 14 -38 0 -61 23 -61 60 0 18 -13 29 -60 53 -33 17 -60 32 -60 34 0 2 19 -2 43 -9 124 -36 125 -27 2 41 -47 25 -85 47 -85 49 0 2 37 -10 81 -26 45 -16 83 -28 86 -26 8 9 -67 48 -78 41 -7 -4 -9 -3 -5 4 4 6 -19 26 -54 48 -33 20 -59 39 -57 41 2 2 50 -17 105 -41 56 -25 102 -42 102 -39 0 4 -10 17 -22 30 -23 25 -15 29 28 12 27 -10 28 -10 10 9 -9 11 -27 20 -39 19 -12 0 -35 3 -52 7 l-30 7 30 -25 c17 -14 27 -26 24 -26 -3 0 -63 25 -133 55 -71 31 -131 54 -133 51 -11 -10 75 -56 93 -50 13 4 15 3 6 -3 -10 -7 4 -21 50 -51 35 -23 60 -42 57 -42 -3 0 -39 11 -79 25 -40 14 -75 23 -77 21 -2 -2 41 -30 96 -62 56 -32 100 -59 98 -60 -1 -1 -27 4 -57 12 -88 23 -87 12 4 -36 74 -39 86 -49 95 -81 15 -49 66 -72 163 -72 l47 0 -24 -19 c-13 -10 -26 -32 -30 -48 -4 -17 -10 -30 -14 -30 -11 0 -74 -61 -68 -66 3 -3 25 6 49 20 36 21 44 31 46 58 2 18 10 40 19 50 18 20 49 25 37 6 -4 -6 3 -4 17 5 29 21 63 22 78 3 10 -12 18 -12 58 0 60 18 89 17 38 -2 -52 -19 -59 -27 -60 -73 -1 -22 -7 -46 -14 -55 -15 -17 -81 -22 -81 -6 0 6 -7 10 -15 10 -21 0 -29 24 -15 49 14 27 60 29 60 3 0 -10 -5 -23 -12 -30 -9 -9 -9 -12 0 -12 7 0 18 12 24 26 11 22 10 28 -7 40 -10 8 -25 14 -32 14 -16 0 -53 -36 -53 -52 0 -7 -34 -27 -75 -44 -41 -17 -72 -28 -69 -23 17 28 -30 0 -148 -89 -64 -48 -61 -60 5 -18 28 18 81 48 117 66 l65 32 -40 -41 c-46 -48 -40 -52 18 -13 64 43 74 48 50 20 -37 -40 -27 -41 32 -4 30 20 57 31 60 26 8 -13 62 -13 70 0 3 5 11 10 16 10 6 0 7 -4 4 -10 -3 -5 -2 -10 3 -10 6 0 8 -10 5 -22 -3 -13 12 4 34 37 54 83 60 96 24 55 -17 -19 -31 -30 -31 -24 0 16 59 81 60 65 0 -11 3 -11 15 -1 10 9 15 9 15 1 0 -6 -4 -11 -9 -11 -21 0 -22 -35 -1 -52 30 -24 67 -23 80 2 10 19 12 19 28 4 27 -27 78 -44 134 -44 l52 0 -57 -54 c-31 -29 -57 -62 -57 -72 0 -29 -24 -91 -43 -112 -30 -33 -21 -42 43 -42 l61 0 19 46 c11 25 20 57 20 70 0 16 10 30 30 42 26 16 37 17 84 8 63 -13 84 -34 116 -117 28 -71 46 -81 104 -59 l25 9 -15 53 c-8 29 -25 66 -37 83 -14 19 -23 50 -25 88 l-5 59 59 59 c57 58 58 59 46 92 -21 57 -16 76 24 93 27 11 35 20 32 36 -2 11 -11 26 -20 32 -15 9 -23 5 -47 -22 -21 -22 -35 -30 -47 -25 -16 6 -15 7 2 14 31 11 94 87 121 146 31 67 37 196 10 236 -21 32 -86 63 -167 78 -36 7 -72 18 -80 25 -8 6 -51 15 -95 18 -73 6 -83 5 -118 -17z m146 -1 c26 1 27 1 7 -13 -11 -8 -20 -21 -20 -29 0 -8 -5 -14 -10 -14 -6 0 -8 11 -4 26 6 24 5 25 -27 22 -23 -2 -35 -9 -37 -20 -2 -10 1 -18 7 -18 6 0 8 7 5 15 -4 8 -1 15 5 15 6 0 11 -9 11 -20 0 -24 -35 -27 -64 -5 -11 8 -14 15 -8 15 7 0 11 5 10 12 -4 15 40 27 72 19 14 -3 37 -5 53 -5z m36 -29 c-2 -1 -12 -9 -21 -16 -15 -12 -18 -11 -18 3 0 10 8 16 22 16 12 0 19 -1 17 -3z m146 -22 c80 -23 112 -48 125 -96 13 -47 5 -124 -17 -181 -19 -48 -33 -49 -33 -3 0 20 -7 49 -14 64 -17 32 -81 91 -99 91 -7 0 6 9 28 19 36 16 42 17 58 3 9 -8 20 -13 22 -10 3 3 -15 24 -40 46 -45 39 -128 77 -146 66 -5 -3 -9 2 -9 12 0 18 31 15 125 -11z m-132 -10 c4 -8 1 -17 -5 -21 -7 -5 -8 -2 -3 6 6 10 4 12 -8 7 -10 -3 -17 -2 -17 2 0 5 6 12 13 14 6 3 13 6 13 6 1 1 4 -6 7 -14z m-68 -16 c-4 -6 -34 -22 -66 -36 -32 -14 -57 -28 -55 -32 2 -3 -6 -6 -17 -7 -12 0 -31 -4 -42 -9 -17 -6 -16 -3 6 19 35 37 193 96 174 65z m165 -19 c44 -22 49 -34 22 -49 -28 -15 -135 -24 -187 -17 l-46 7 23 19 c28 24 17 26 -20 4 -25 -15 -26 -15 -7 1 29 24 59 40 51 26 -10 -15 55 -2 74 15 20 19 44 17 90 -6z m-840 -75 c19 -19 30 -35 24 -35 -5 0 -22 16 -37 35 -36 45 -30 45 13 0z m188 -25 c38 0 59 -47 41 -89 -7 -17 -22 -32 -32 -35 -23 -6 -59 29 -55 52 4 20 39 23 46 5 2 -7 -4 -13 -13 -13 -9 0 -14 -4 -10 -10 9 -15 35 0 35 21 0 10 -9 23 -20 29 -15 8 -24 6 -39 -9 -20 -20 -19 -21 -61 34 -14 20 -14 20 8 1 30 -26 28 -11 -5 33 l-26 36 41 -40 c41 -38 57 -38 27 1 -25 34 -16 47 11 15 17 -20 35 -31 52 -31z m407 40 c-3 -5 -12 -10 -18 -10 -7 0 -6 4 3 10 19 12 23 12 15 0z m161 -29 c92 -8 97 -10 131 -43 60 -60 58 -174 -2 -118 -13 12 -26 37 -29 56 -7 36 -17 42 -34 21 -6 -7 -34 -24 -62 -37 -43 -20 -53 -22 -74 -11 -26 14 -59 5 -35 -10 7 -4 -7 -5 -32 -2 -24 3 -45 6 -46 7 0 0 9 14 21 29 13 16 40 35 62 42 21 8 31 14 21 15 -10 0 -33 -6 -52 -14 -18 -8 -43 -12 -53 -9 -20 5 -20 5 0 25 12 12 39 23 64 26 44 5 62 22 24 22 -11 0 -20 5 -20 11 0 5 4 7 10 4 5 -3 53 -10 106 -14z m94 -127 c0 -6 -10 -9 -24 -7 -16 4 -34 -4 -57 -26 -26 -23 -30 -30 -16 -31 10 0 17 -8 17 -20 0 -15 7 -20 26 -20 14 0 23 4 19 9 -3 5 1 16 9 24 10 9 11 18 5 24 -7 7 -3 12 11 16 13 3 23 0 27 -9 6 -16 -13 -44 -31 -44 -6 0 -13 -11 -14 -25 -2 -32 13 -32 62 1 29 20 35 28 25 35 -10 6 -8 9 9 9 22 0 22 -1 6 -25 -9 -14 -22 -25 -29 -25 -7 0 -19 -8 -26 -17 -12 -15 -12 -16 4 -10 9 4 17 2 17 -4 0 -7 -10 -9 -25 -5 -18 5 -27 2 -31 -9 -10 -26 -63 -19 -76 10 -6 14 -17 25 -25 25 -7 0 -13 5 -13 11 0 5 -4 7 -10 4 -5 -3 -10 -18 -10 -32 l0 -26 -25 23 c-18 17 -25 33 -24 59 1 24 3 28 6 14 3 -16 11 -23 28 -23 17 0 23 4 19 14 -3 8 -1 17 5 20 6 4 8 12 6 19 -5 16 117 77 127 63 4 -6 8 -16 8 -22z m-451 -1 c7 -14 3 -21 -20 -35 -38 -23 -39 -23 -39 7 0 13 8 29 18 34 24 14 30 13 41 -6z m-93 -123 c5 0 3 5 -4 12 -19 19 -14 27 22 33 23 5 46 1 74 -13 23 -11 43 -15 44 -10 6 16 92 21 131 9 40 -14 81 -51 55 -51 -9 0 -21 -7 -28 -15 -7 -8 -21 -15 -32 -15 -62 0 0 -79 80 -102 27 -8 42 -18 42 -29 0 -28 -44 -83 -85 -106 -78 -44 -206 -19 -240 46 -11 22 -23 31 -40 31 -13 0 -27 5 -30 10 -4 6 9 10 30 10 29 0 45 8 71 34 29 29 34 41 34 81 0 38 -5 52 -29 76 -19 18 -40 29 -58 29 -21 0 -24 -3 -13 -10 12 -8 12 -10 -3 -16 -15 -5 -15 -9 -5 -22 7 -9 -22 8 -64 36 -43 29 -78 57 -78 63 0 6 27 -10 59 -35 33 -25 63 -46 67 -46z m575 41 c-6 -11 -21 -26 -32 -32 -17 -9 -20 -8 -13 3 10 17 48 55 52 52 2 -1 -1 -12 -7 -23z m-651 -31 c0 -22 -24 -59 -42 -64 -19 -4 -20 -1 -14 36 4 23 9 45 12 50 6 10 44 -9 44 -22z m53 -25 c22 -16 15 -57 -9 -49 -7 2 -21 6 -29 9 -12 3 -13 9 -3 30 13 29 16 30 41 10z m467 -15 c0 -5 -7 -10 -15 -10 -8 0 -15 5 -15 10 0 6 7 10 15 10 8 0 15 -4 15 -10z m-62 -28 c27 -17 28 -36 3 -68 -16 -20 -20 -21 -25 -8 -4 10 -13 14 -28 10 -13 -3 -17 -3 -10 0 22 10 12 21 -15 16 l-28 -5 28 22 c26 22 40 60 15 45 -7 -4 -8 -3 -4 4 7 12 28 7 64 -16z m282 3 c0 -8 -4 -15 -10 -15 -5 0 -7 7 -4 15 4 8 8 15 10 15 2 0 4 -7 4 -15z m-195 -11 c17 -3 40 -7 53 -10 28 -6 46 -47 32 -74 -9 -17 -11 -17 -47 1 -20 10 -50 19 -66 19 -24 0 -27 3 -22 20 3 10 1 29 -6 41 -10 20 -9 21 7 15 11 -4 33 -10 49 -12z m-484 -19 l44 -15 -71 4 c-75 3 -98 11 -88 28 7 11 48 5 115 -17z m324 16 c-14 -12 -65 -23 -65 -13 0 16 13 22 44 22 17 0 26 -4 21 -9z m305 -11 c0 -5 -2 -10 -4 -10 -3 0 -8 5 -11 10 -3 6 -1 10 4 10 6 0 11 -4 11 -10z m-710 -45 c0 -20 -30 -27 -46 -10 -9 8 -22 15 -30 15 -11 0 -10 4 4 18 15 15 20 16 45 4 15 -7 27 -19 27 -27z m75 5 c-3 -5 -17 -10 -31 -10 -13 0 -24 5 -24 10 0 6 14 10 31 10 17 0 28 -4 24 -10z m25 -38 c0 -13 -39 -32 -45 -22 -3 5 3 13 12 19 22 13 33 14 33 3z m493 -16 c17 -18 27 -22 40 -15 24 14 23 -11 -3 -61 -18 -36 -22 -39 -46 -30 -14 6 -39 10 -55 10 l-31 0 20 33 c14 22 17 38 12 52 -13 31 -12 35 15 35 15 0 36 -11 48 -24z m-91 -38 c-6 -6 -7 0 -4 19 5 21 7 23 10 9 2 -10 0 -22 -6 -28z m-467 22 c7 -12 -12 -40 -26 -40 -10 0 -12 34 -2 43 9 10 21 9 28 -3z m664 -8 c8 -16 3 -25 -27 -53 -20 -19 -29 -25 -19 -13 9 11 14 24 10 27 -5 6 15 57 23 57 2 0 8 -8 13 -18z m-581 -52 c14 -23 8 -40 -13 -40 -19 0 -25 13 -18 38 7 27 15 28 31 2z m382 6 c0 -2 -7 -9 -15 -16 -13 -11 -14 -10 -9 4 5 14 24 23 24 12z m-623 -56 c6 0 16 -7 23 -15 10 -12 9 -15 -7 -15 -10 0 -25 6 -31 12 -10 10 -17 10 -35 -1 -22 -14 -22 -14 -3 8 24 27 16 27 -37 0 -36 -19 -40 -19 -27 -4 8 10 28 24 45 31 25 10 33 10 46 -2 8 -8 20 -14 26 -14z m590 4 c3 -8 0 -21 -6 -27 -9 -9 -11 -8 -5 7 4 11 2 21 -7 27 -10 6 -11 9 -1 9 7 0 15 -7 19 -16z m119 -5 c25 -20 15 -30 -23 -24 -60 11 -71 15 -77 32 -6 14 0 15 40 9 26 -3 53 -11 60 -17z m-156 -24 c14 -19 14 -19 -2 -6 -10 7 -18 18 -18 24 0 6 1 8 3 6 1 -2 9 -13 17 -24z m-35 -15 c-4 -6 9 -17 29 -25 44 -19 72 -18 31 0 -26 12 -27 14 -8 15 12 0 25 5 28 10 8 13 54 13 94 -1 22 -8 31 -17 31 -33 0 -22 -5 -23 -80 -29 -62 -5 -91 -3 -123 10 -59 23 -63 29 -31 47 35 18 37 19 29 6z m-26 -64 c10 -12 6 -18 -18 -32 -20 -12 -31 -26 -31 -41 0 -20 -5 -23 -35 -23 -33 0 -35 1 -29 28 15 61 84 103 113 68z m229 -18 c7 -7 12 -20 12 -30 0 -10 7 -21 15 -24 22 -9 18 -23 -9 -30 -41 -10 -107 67 -74 88 19 11 42 10 56 -4z m-288 -97 c0 -15 -22 -71 -28 -71 -15 0 -42 36 -42 57 0 20 5 23 35 23 19 0 35 -4 35 -9z m344 -54 c-17 -9 -56 1 -66 17 -15 22 -7 35 25 38 26 2 34 -2 44 -22 9 -20 8 -27 -3 -33z m-419 -7 c3 -5 -1 -10 -10 -10 -9 0 -13 5 -10 10 3 6 8 10 10 10 2 0 7 -4 10 -10z m430 -20 c4 -6 -7 -10 -24 -10 -17 0 -31 5 -31 10 0 6 11 10 24 10 14 0 28 -4 31 -10z"/>
<path d="M1977 891 c-4 -17 -3 -21 5 -13 5 5 8 16 6 23 -3 8 -7 3 -11 -10z"/>
</g>
</svg>