<?xml version="1.0" standalone="no"?>
<!DOCTYPE svg PUBLIC "-//W3C//DTD SVG 20010904//EN"
 "http://www.w3.org/TR/2001/REC-SVG-20010904/DTD/svg10.dtd">
<svg version="1.0" xmlns="http://www.w3.org/2000/svg"
 width="202.733423pt" height="107.645755pt" viewBox="0 0 202.733423 107.645755"
 preserveAspectRatio="xMidYMid meet">
<metadata>
Created by potrace 1.16, written by Peter Selinger 2001-2019
</metadata>
<g transform="translate(-18.034170,150.743945) scale(0.100000,-0.100000)"
fill="#000000" stroke="none">
<path d="M1429 1492 c-13 -11 -34 -36 -44 -56 -16 -29 -24 -35 -40 -29 -38 13
-122 5 -161 -15 -81 -42 -124 -113 -124 -207 0 -96 41 -157 135 -201 l50 -24
-260 0 c-324 1 -551 13 -634 35 -35 9 -76 13 -91 10 -72 -16 -106 -97 -55
-131 38 -25 92 -27 185 -9 67 13 169 18 495 22 l410 6 10 -33 c22 -74 92 -88
170 -34 21 14 45 23 54 22 11 -3 7 -9 -16 -21 -38 -20 -67 -69 -58 -98 4 -10
16 -24 28 -31 12 -6 30 -21 39 -34 10 -12 34 -28 53 -34 27 -9 35 -17 35 -35
0 -13 5 -27 10 -30 6 -3 10 -19 10 -34 0 -45 31 -64 118 -72 42 -4 96 -13 119
-20 35 -11 53 -11 95 0 29 7 72 14 96 16 67 7 78 17 85 76 4 28 2 60 -3 70 -6
10 -10 29 -10 42 0 14 -7 30 -15 37 -12 10 -10 17 15 48 88 110 103 271 37
402 -29 59 -49 62 -84 11 -31 -44 -62 -52 -97 -26 -24 18 -66 19 -100 4 -21
-10 -29 -7 -59 16 -31 25 -34 31 -25 56 5 15 8 42 6 61 -2 27 -10 36 -40 51
-30 15 -38 25 -38 45 -1 40 -34 105 -66 131 -22 17 -41 22 -84 21 -30 0 -71 2
-90 6 -27 4 -41 1 -61 -14z m65 -51 c4 -5 1 -22 -4 -38 l-11 -28 26 33 c31 38
81 44 110 12 23 -26 30 -97 15 -158 l-12 -50 -54 -4 c-52 -3 -54 -2 -64 26
-13 37 -13 36 4 30 33 -13 62 80 32 105 -21 18 -46 -13 -46 -57 0 -34 -1 -35
-15 -16 -8 10 -15 35 -15 55 0 45 -8 54 -31 33 -17 -15 -39 -12 -39 5 0 5 9
20 21 35 21 26 71 37 83 17z m246 -316 c16 -8 32 -24 35 -36 9 -26 -1 -81 -23
-125 -16 -34 -16 -34 16 -67 l32 -33 -30 -11 c-18 -7 -32 -21 -35 -36 -4 -14
-14 -28 -23 -31 -10 -3 -22 -8 -28 -12 -7 -3 -19 14 -29 41 -17 42 -17 47 -1
63 25 28 19 32 -21 16 -20 -9 -58 -17 -84 -18 -32 -2 -60 -11 -86 -29 -72 -49
-121 -45 -141 13 -13 37 1 41 28 8 17 -22 19 -22 53 -6 24 11 42 32 59 66 20
40 28 48 41 40 24 -13 21 5 -3 27 -11 10 -20 22 -20 27 0 16 76 91 105 104 41
18 120 17 155 -1z m322 -80 c22 -48 -31 -115 -90 -115 -30 0 -132 48 -132 62
1 31 16 39 36 17 61 -68 158 -49 156 31 -1 36 14 39 30 5z m102 -182 c-12 -50
-42 -99 -83 -136 -36 -32 -47 -37 -91 -37 -28 0 -50 3 -50 6 0 17 87 103 110
107 14 3 46 24 70 46 25 22 46 40 48 41 1 0 -1 -12 -4 -27z"/>
</g>
</svg>
