<?xml version="1.0" standalone="no"?><!DOCTYPE svg PUBLIC "-//W3C//DTD SVG 20010904//EN" "http://www.w3.org/TR/2001/REC-SVG-20010904/DTD/svg10.dtd"><svg xmlns="http://www.w3.org/2000/svg" version="1.0" width="10.5476mm" height="16mm" viewBox="0 0 181.088004 274.697224" preserveAspectRatio="xMidYMid meet">
<metadata>
Created by potrace 1.16, written by Peter Selinger 2001-2019
</metadata>
<g transform="translate(-1.021690,275.506359) scale(0.100000,-0.100000)" fill="#000000" stroke="none">
<path d="M815 2751 c-96 -16 -179 -93 -211 -195 l-17 -54 -54 -4 c-66 -6 -105 -32 -117 -81 -16 -62 46 -161 143 -229 20 -14 22 -22 17 -50 -5 -30 -11 -35 -50 -46 -88 -23 -117 -132 -66 -244 14 -29 30 -57 36 -63 6 -5 25 -34 44 -63 20 -33 49 -62 77 -79 l45 -26 -73 -38 c-40 -21 -77 -43 -83 -49 -5 -5 -14 -10 -18 -10 -11 0 -10 48 1 55 5 3 17 28 26 56 20 58 9 99 -32 126 -12 8 -23 23 -23 32 0 30 -39 80 -79 101 -90 45 -218 15 -294 -70 -54 -59 -77 -113 -77 -183 0 -68 17 -111 66 -162 19 -20 34 -44 34 -54 0 -21 36 -56 66 -65 11 -4 38 -32 60 -63 44 -64 101 -110 149 -119 29 -5 33 -11 39 -44 3 -21 3 -46 0 -54 -3 -9 -1 -16 5 -16 6 0 11 -7 11 -15 0 -8 17 -47 38 -87 37 -70 39 -80 51 -221 12 -143 11 -148 -8 -174 -12 -14 -21 -34 -21 -43 0 -13 -13 -21 -47 -29 -79 -20 -143 -104 -143 -186 0 -27 37 -105 49 -105 5 0 11 -19 13 -42 3 -40 6 -44 43 -56 38 -13 144 -17 363 -14 118 2 152 18 152 71 0 14 8 33 18 44 16 18 18 35 13 145 -1 12 -1 36 0 52 2 18 -6 42 -18 59 -15 19 -26 61 -37 135 -26 174 -22 171 39 -29 39 -128 44 -154 34 -177 -6 -15 -8 -40 -5 -55 4 -16 8 -56 10 -90 1 -40 8 -69 18 -80 9 -10 19 -35 23 -56 8 -40 30 -59 75 -62 14 -2 45 -10 70 -20 32 -12 74 -17 147 -17 151 0 206 22 216 88 3 19 16 48 28 65 54 76 28 192 -55 251 -29 20 -46 39 -46 52 0 33 -35 81 -67 95 -28 11 -35 25 -93 200 l-62 188 16 47 c9 26 16 58 16 72 0 16 5 24 13 21 13 -5 13 -9 -2 -85 -18 -91 13 -177 69 -188 19 -4 32 -16 40 -35 7 -16 28 -43 47 -59 41 -37 100 -41 128 -10 11 13 31 20 52 20 23 0 42 8 58 24 14 14 37 31 52 38 15 7 32 26 38 43 5 16 20 40 33 54 33 36 31 111 -7 177 -30 52 -86 107 -127 126 -17 8 -24 20 -24 38 0 35 -30 66 -72 74 -28 5 -43 20 -87 80 -51 72 -180 206 -211 219 -11 5 -12 8 -2 13 22 10 34 42 22 63 -8 17 -6 20 21 26 69 15 138 109 139 189 0 28 8 47 30 72 39 45 54 102 40 154 -14 51 -67 105 -116 117 -34 8 -39 13 -49 53 -30 115 -112 246 -212 340 -104 97 -217 139 -328 121z m128 -46 c74 -19 130 -54 196 -124 87 -91 165 -223 206 -351 20 -62 40 -92 33 -47 -4 21 -1 27 13 27 25 0 86 -61 95 -94 9 -36 -1 -88 -21 -120 l-17 -26 -39 35 c-38 34 -56 40 -109 36 -21 -1 -30 8 -54 55 -36 69 -158 200 -227 244 -37 24 -48 37 -43 49 3 9 9 38 12 64 12 114 -90 202 -211 182 -45 -8 -105 -65 -114 -107 -4 -19 -12 -28 -24 -28 -22 0 -22 -2 -7 41 30 88 99 152 183 169 59 12 66 11 128 -5z m-53 -100 c63 -32 100 -118 80 -181 -12 -35 -24 -41 -50 -24 -12 7 -12 12 -3 21 10 10 3 29 -30 92 l-42 79 -27 -33 -27 -32 -12 26 c-7 15 -15 27 -19 27 -4 0 -18 -20 -31 -45 -22 -42 -60 -63 -59 -32 1 25 37 79 66 97 35 24 113 26 154 5z m-115 -106 l7 -21 24 23 c13 12 26 21 28 18 8 -8 36 -82 33 -86 -3 -3 -115 35 -125 43 -7 5 9 44 18 44 5 0 12 -9 15 -21z m-73 -43 c31 -8 61 -17 67 -20 6 -4 20 -9 31 -11 64 -12 243 -130 319 -209 l35 -36 -26 0 c-37 0 -90 40 -110 83 -24 50 -59 71 -102 63 -19 -4 -37 -2 -40 3 -8 13 -172 71 -199 71 -12 0 7 -11 43 -24 36 -12 88 -34 115 -49 l50 -26 -86 -1 c-74 0 -88 3 -104 20 -41 45 -87 15 -100 -67 -4 -24 -11 -43 -17 -43 -5 0 -33 24 -62 53 -82 81 -97 159 -38 191 34 19 148 20 224 2z m151 -191 c-1 -5 -5 -19 -9 -30 -8 -19 -7 -20 19 -2 38 24 92 25 120 1 55 -49 110 -78 148 -79 22 0 46 -8 55 -16 13 -14 13 -20 2 -49 -11 -28 -22 -35 -58 -44 -52 -13 -83 -53 -64 -83 6 -10 9 -35 6 -56 -3 -27 1 -43 13 -57 37 -40 76 -19 120 65 36 69 66 95 112 95 71 0 110 -51 99 -129 -13 -93 -83 -154 -179 -155 -42 0 -52 -5 -90 -41 -24 -22 -59 -48 -79 -58 -20 -9 -59 -33 -88 -52 -82 -55 -172 -48 -235 19 -17 18 -47 38 -66 45 -62 20 -141 101 -99 101 6 0 10 -4 10 -10 0 -5 11 -13 26 -16 18 -5 32 0 50 17 19 17 27 20 36 11 21 -21 77 -14 102 13 19 20 28 24 47 17 23 -9 22 -10 -16 -29 -22 -11 -53 -23 -69 -27 -17 -4 -25 -10 -19 -14 6 -4 13 -17 17 -29 9 -30 62 -73 90 -73 49 0 86 56 86 132 l0 26 -29 -27 c-33 -31 -102 -57 -125 -48 -19 7 -21 27 -4 27 7 0 42 14 78 32 62 29 90 59 90 94 0 7 9 16 20 19 30 10 52 48 44 79 -9 39 -19 40 -64 7 -23 -16 -64 -37 -92 -47 -46 -15 -52 -15 -60 -1 -7 14 -15 10 -47 -22 -69 -69 -193 -78 -250 -17 -51 54 -45 158 11 199 36 27 100 26 163 -2 54 -24 69 -26 58 -8 -4 6 -6 40 -4 74 2 51 -1 65 -18 82 -12 12 -27 21 -35 21 -21 0 -45 -27 -52 -58 -13 -61 -24 -67 -19 -11 10 113 37 143 93 103 21 -14 22 -14 22 6 0 19 5 21 68 18 37 -2 66 -7 65 -13z m-148 -75 c3 -5 1 -10 -6 -10 -23 0 -49 -33 -49 -62 0 -15 -4 -28 -10 -28 -13 0 -13 51 0 84 7 18 17 26 34 26 14 0 28 -4 31 -10z m15 -86 c0 -8 -7 -14 -15 -14 -15 0 -21 21 -9 33 10 9 24 -2 24 -19z m520 -75 c0 -9 -7 -22 -15 -29 -8 -7 -24 -31 -34 -54 -11 -22 -29 -52 -40 -66 -19 -23 -21 -24 -37 -8 -15 15 -15 21 -4 49 12 27 11 33 -2 43 -28 20 -5 53 42 61 30 5 44 14 52 31 10 22 12 22 24 6 7 -9 14 -24 14 -33z m-870 -164 c59 -31 90 -97 50 -108 -15 -4 -24 2 -35 24 -15 29 -43 49 -67 49 -7 0 2 -9 20 -20 44 -27 56 -59 31 -84 -18 -19 -19 -19 -39 6 -22 29 -79 52 -107 45 -13 -3 -11 -5 6 -6 31 -1 98 -47 106 -72 4 -11 4 -28 0 -39 -3 -10 -1 -29 5 -40 9 -16 8 -25 -1 -36 -18 -22 -26 -17 -33 19 -8 43 -52 85 -96 93 l-35 5 41 -19 c51 -24 74 -56 74 -101 0 -42 -24 -71 -60 -71 -33 0 -61 27 -41 40 15 9 7 15 -31 24 -17 4 -28 2 -28 -4 0 -5 7 -10 15 -10 9 0 20 -11 25 -24 10 -28 38 -46 69 -46 11 0 44 23 73 50 35 34 61 50 78 50 15 0 35 7 46 16 19 15 19 16 -1 9 -50 -18 -58 -18 -71 0 -22 30 -16 55 20 91 43 43 87 46 112 9 29 -44 -9 -127 -98 -216 -55 -55 -29 -51 30 4 32 31 32 31 32 7 0 -30 -35 -81 -74 -108 -68 -46 -189 -49 -238 -5 -30 26 -23 43 15 37 31 -6 31 -5 -10 16 -121 63 -155 199 -78 313 25 36 93 89 137 107 36 14 126 12 158 -5z m546 -200 c-9 -37 -51 -61 -81 -47 -29 13 -34 52 -7 52 9 1 33 9 52 20 37 20 46 14 36 -25z m344 10 c17 -20 7 -30 -32 -33 -36 -2 -67 12 -55 25 5 4 13 1 18 -7 8 -11 9 -10 4 8 -6 19 -3 22 23 22 16 0 35 -7 42 -15z m-25 -90 c58 -35 154 -129 214 -210 l53 -70 -42 -12 c-23 -7 -68 -25 -100 -42 l-59 -29 -28 37 c-15 20 -47 55 -72 79 -39 37 -46 41 -54 26 -7 -12 -3 -22 19 -39 20 -16 25 -27 20 -41 -7 -17 -10 -17 -32 11 -52 62 -52 63 -44 170 10 125 24 159 59 150 14 -4 44 -17 66 -30z m-467 -54 c31 -21 93 -31 139 -21 l32 8 -20 -42 -21 -41 -114 3 c-63 2 -114 5 -114 8 0 19 55 104 68 104 2 0 16 -8 30 -19z m-223 -33 c-14 -18 -41 -49 -59 -69 -34 -36 -47 -76 -51 -164 -2 -22 -3 -46 -4 -52 0 -7 -10 -13 -21 -13 -35 0 -76 27 -124 82 l-46 52 59 12 c66 14 131 52 151 89 7 13 18 21 26 18 8 -3 14 1 14 10 0 15 57 67 73 67 5 0 -3 -15 -18 -32z m25 -73 c32 -39 -16 -145 -66 -145 -50 0 -54 74 -7 130 27 33 54 38 73 15z m458 -42 c20 -27 15 -100 -8 -123 -24 -24 -77 -26 -102 -3 -34 31 -13 135 29 146 28 8 67 -2 81 -20z m577 -129 c20 -26 19 -31 -12 -48 l-28 -15 28 -1 c93 -1 207 -133 207 -239 0 -42 -16 -63 -31 -40 -6 10 -9 8 -9 -9 0 -52 -59 -120 -61 -69 0 17 -4 13 -15 -15 -10 -23 -27 -42 -49 -52 -43 -21 -45 -21 -46 12 -1 20 -2 22 -6 7 -8 -33 -44 -65 -74 -65 -29 0 -99 67 -99 94 0 20 21 31 30 16 5 -8 10 -9 14 -2 3 6 -5 23 -19 39 l-25 28 3 -25 c2 -27 -18 -36 -59 -26 -66 17 -73 175 -10 244 l21 24 -27 -7 c-34 -9 -53 21 -38 59 30 79 261 147 305 90z m-333 -80 c-10 -17 -11 -17 -21 9 -17 43 -13 54 10 30 17 -16 19 -25 11 -39z m-699 -720 c25 -8 66 -33 91 -55 25 -22 50 -38 54 -35 5 3 26 -4 48 -14 26 -14 58 -20 100 -20 67 0 74 -6 74 -60 0 -74 -75 -95 -300 -87 -151 6 -240 23 -268 51 -12 12 -17 34 -17 74 1 68 26 111 83 142 45 24 75 25 135 4z m827 -34 c93 -18 150 -81 150 -165 0 -110 -55 -140 -255 -140 -205 0 -275 30 -275 118 0 34 6 45 51 85 65 59 90 74 61 37 -33 -42 -26 -52 11 -15 41 41 98 70 156 80 25 4 47 8 47 9 1 0 25 -4 54 -9z m-879 -251 c59 -6 165 -10 246 -7 79 3 143 2 143 -3 0 -32 -106 -63 -141 -41 -12 8 -28 8 -51 2 -77 -23 -302 -6 -320 23 -13 21 -9 50 6 44 8 -3 60 -11 117 -18z m601 -60 c50 -14 249 -18 326 -6 49 7 52 6 52 -13 0 -36 -59 -53 -185 -54 -94 0 -117 3 -156 22 -25 12 -57 22 -71 22 -24 0 -38 16 -38 42 0 6 6 8 14 5 8 -3 34 -11 58 -18z"/>
<path d="M867 2198 c-25 -20 -47 -82 -47 -136 0 -89 62 -130 123 -82 60 47 61 201 2 224 -26 10 -60 7 -78 -6z m79 -14 c14 -12 15 -14 3 -11 -60 19 -119 -133 -72 -185 9 -10 11 -18 5 -18 -6 0 -20 12 -31 26 -25 32 -27 89 -6 142 25 60 62 77 101 46z m21 -90 c1 -5 -2 -16 -7 -24 -12 -20 -33 0 -24 24 7 17 25 17 31 0z"/>
<path d="M1271 1895 c-17 -20 -31 -41 -31 -48 1 -7 6 -5 14 6 7 9 24 17 37 18 21 0 22 1 5 8 -17 7 -17 9 9 29 18 14 22 22 12 22 -8 0 -29 -16 -46 -35z"/>
<path d="M1680 1070 c27 -38 68 -42 42 -4 -7 11 -46 34 -57 34 -4 0 3 -13 15 -30z"/>
<path d="M1610 1043 c0 -22 27 -63 41 -63 19 0 7 46 -16 63 -24 17 -25 17 -25 0z"/>
<path d="M1532 983 c3 -38 21 -55 31 -28 8 19 -9 65 -23 65 -7 0 -10 -15 -8 -37z"/>
</g>
</svg>