<?xml version="1.0" standalone="no"?><!DOCTYPE svg PUBLIC "-//W3C//DTD SVG 20010904//EN" "http://www.w3.org/TR/2001/REC-SVG-20010904/DTD/svg10.dtd"><svg xmlns="http://www.w3.org/2000/svg" version="1.0" width="16mm" height="8.4956mm" viewBox="0 0 202.733423 107.645755" preserveAspectRatio="xMidYMid meet">
<metadata>
Created by potrace 1.16, written by Peter Selinger 2001-2019
</metadata>
<g transform="translate(-18.034170,150.743945) scale(0.100000,-0.100000)" fill="#000000" stroke="none">
<path d="M1429 1492 c-13 -11 -34 -36 -44 -56 -16 -29 -24 -35 -40 -29 -38 13 -122 5 -161 -15 -81 -42 -124 -113 -124 -207 0 -96 41 -157 135 -201 l50 -24 -260 0 c-324 1 -551 13 -634 35 -35 9 -76 13 -91 10 -72 -16 -106 -97 -55 -131 38 -25 92 -27 185 -9 67 13 169 18 495 22 l410 6 10 -33 c22 -74 92 -88 170 -34 21 14 45 23 54 22 11 -3 7 -9 -16 -21 -38 -20 -67 -69 -58 -98 4 -10 16 -24 28 -31 12 -6 30 -21 39 -34 10 -12 34 -28 53 -34 27 -9 35 -17 35 -35 0 -13 5 -27 10 -30 6 -3 10 -19 10 -34 0 -45 31 -64 118 -72 42 -4 96 -13 119 -20 35 -11 53 -11 95 0 29 7 72 14 96 16 67 7 78 17 85 76 4 28 2 60 -3 70 -6 10 -10 29 -10 42 0 14 -7 30 -15 37 -12 10 -10 17 15 48 88 110 103 271 37 402 -29 59 -49 62 -84 11 -31 -44 -62 -52 -97 -26 -24 18 -66 19 -100 4 -21 -10 -29 -7 -59 16 -31 25 -34 31 -25 56 5 15 8 42 6 61 -2 27 -10 36 -40 51 -30 15 -38 25 -38 45 -1 40 -34 105 -66 131 -22 17 -41 22 -84 21 -30 0 -71 2 -90 6 -27 4 -41 1 -61 -14z m65 -51 c4 -5 1 -22 -4 -38 l-11 -28 26 33 c31 38 81 44 110 12 23 -26 30 -97 15 -158 l-12 -50 -54 -4 c-52 -3 -54 -2 -64 26 -13 37 -13 36 4 30 33 -13 62 80 32 105 -21 18 -46 -13 -46 -57 0 -34 -1 -35 -15 -16 -8 10 -15 35 -15 55 0 45 -8 54 -31 33 -17 -15 -39 -12 -39 5 0 5 9 20 21 35 21 26 71 37 83 17z m246 -316 c16 -8 32 -24 35 -36 9 -26 -1 -81 -23 -125 -16 -34 -16 -34 16 -67 l32 -33 -30 -11 c-18 -7 -32 -21 -35 -36 -4 -14 -14 -28 -23 -31 -10 -3 -22 -8 -28 -12 -7 -3 -19 14 -29 41 -17 42 -17 47 -1 63 25 28 19 32 -21 16 -20 -9 -58 -17 -84 -18 -32 -2 -60 -11 -86 -29 -72 -49 -121 -45 -141 13 -13 37 1 41 28 8 17 -22 19 -22 53 -6 24 11 42 32 59 66 20 40 28 48 41 40 24 -13 21 5 -3 27 -11 10 -20 22 -20 27 0 16 76 91 105 104 41 18 120 17 155 -1z m322 -80 c22 -48 -31 -115 -90 -115 -30 0 -132 48 -132 62 1 31 16 39 36 17 61 -68 158 -49 156 31 -1 36 14 39 30 5z m102 -182 c-12 -50 -42 -99 -83 -136 -36 -32 -47 -37 -91 -37 -28 0 -50 3 -50 6 0 17 87 103 110 107 14 3 46 24 70 46 25 22 46 40 48 41 1 0 -1 -12 -4 -27z"/>
</g>
<path d="M 194.116 39.976 L 194.299 40.344 L 194.43 40.614 L 194.582 40.937 L 194.73 41.26 L 194.875 41.586 L 195.018 41.918 L 195.156 42.246 L 195.311 42.627 L 195.423 42.912 L 195.546 43.234 L 195.688 43.62 L 195.791 43.908 L 195.925 44.297 L 196.018 44.576 L 196.143 44.968 L 196.235 45.264 L 196.352 45.658 L 196.433 45.94 L 196.532 46.303 L 196.637 46.7 L 196.715 47.01 L 196.79 47.325 L 196.881 47.726 L 196.961 48.09 L 197.021 48.384 L 197.1 48.787 L 197.162 49.128 L 197.215 49.435 L 197.281 49.841 L 197.326 50.135 L 197.383 50.543 L 197.43 50.903 L 197.466 51.2 L 197.505 51.56 L 197.54 51.92 L 197.571 52.267 L 197.602 52.677 L 197.623 52.99 L 197.643 53.35 L 197.662 53.761 L 197.672 54.049 L 197.68 54.423 L 197.686 54.834 L 197.687 55.123 L 197.683 55.497 L 197.676 55.908 L 197.667 56.211 L 197.651 56.607 L 197.64 56.827 L 196.339 57.299 L 195.735 57.677 L 195.654 57.736 L 195.54 57.821 L 195.461 57.882 L 195.374 57.951 L 195.327 57.989 L 195.249 58.051 L 195.188 58.101 L 195.116 58.16 L 195.039 58.223 L 195.008 58.248 L 194.777 58.44 L 194.752 58.461 L 194.676 58.525 L 194.672 58.529 L 194.599 58.59 L 194.523 58.654 L 194.519 58.658 L 194.446 58.719 L 194.37 58.783 L 194.366 58.787 L 194.289 58.852 L 194.264 58.873 L 193.58 59.458 L 193.551 59.483 L 193.49 59.536 L 193.428 59.589 L 193.403 59.611 L 193.328 59.676 L 193.324 59.679 L 193.277 59.72 L 193.125 59.85 L 193.071 59.897 L 193.021 59.941 L 192.945 60.007 L 192.874 60.069 L 192.87 60.072 L 192.823 60.113 L 192.747 60.178 L 192.693 60.225 L 192.654 60.259 L 192.596 60.309 L 192.542 60.356 L 192.514 60.381 L 192.445 60.44 L 192.391 60.487 L 192.341 60.531 L 192.265 60.597 L 192.215 60.641 L 192.143 60.703 L 192.089 60.75 L 191.964 60.86 L 191.888 60.926 L 191.817 60.988 L 191.813 60.991 L 191.737 61.057 L 191.587 61.189 L 191.511 61.255 L 191.211 61.519 L 191.135 61.585 L 190.835 61.849 L 190.759 61.915 L 190.659 62.003 L 190.633 62.026 L 190.559 62.092 L 190.482 62.162 L 190.407 62.229 L 190.336 62.293 L 190.333 62.295 L 190.258 62.362 L 190.162 62.447 L 190.086 62.513 L 190.015 62.575 L 190.011 62.578 L 189.955 62.627 L 189.942 62.638 L 189.865 62.702 L 189.811 62.748 L 189.789 62.767 L 189.58 62.941 L 189.536 62.977 L 189.333 63.141 L 189.255 63.203 L 189.224 63.228 L 189.171 63.271 L 189.123 63.309 L 189.052 63.365 L 189.045 63.37 L 188.997 63.407 L 188.918 63.468 L 188.919 63.469 L 188.863 63.511 L 188.838 63.529 L 188.736 63.607 L 188.704 63.632 L 188.496 63.788 L 188.449 63.823 L 188.44 63.829 L 188.359 63.889 L 188.312 63.924 L 188.264 63.959 L 188.183 64.017 L 188.174 64.024 L 188.101 64.076 L 188.053 64.111 L 187.996 64.15 L 187.962 64.174 L 187.914 64.208 L 187.68 64.371 L 187.643 64.396 L 187.609 64.419 L 187.579 64.44 L 187.512 64.484 L 187.477 64.508 L 187.429 64.54 L 187.346 64.595 L 187.237 64.667 L 187.044 64.791 L 186.789 64.95 L 186.764 64.966 L 186.7 65.005 L 186.485 65.132 L 186.381 65.192 L 186.333 65.219 L 186.246 65.267 L 186.151 65.319 L 186.062 65.366 L 186.062 65.367 L 186.053 65.371 L 185.911 65.443 L 185.887 65.455 L 185.858 65.469 L 185.767 65.511 L 185.759 65.515 L 185.759 65.514 L 185.728 65.528 L 185.433 65.603 L 185.337 65.631 L 185.077 65.715 L 184.983 65.748 L 184.849 65.797 L 184.755 65.833 L 184.59 65.9 L 184.498 65.939 L 184.333 66.012 L 184.243 66.054 L 184.16 66.094 L 184.07 66.138 L 183.969 66.189 L 183.88 66.235 L 183.84 66.255 L 183.751 66.302 L 183.631 66.368 L 183.544 66.417 L 183.506 66.439 L 183.419 66.489 L 183.359 66.524 L 183.273 66.575 L 183.213 66.611 L 183.043 66.715 L 182.97 66.76 L 182.885 66.814 L 182.862 66.829 L 182.778 66.883 L 182.684 66.945 L 182.636 66.977 L 182.553 67.032 L 182.484 67.079 L 182.401 67.136 L 182.33 67.185 L 182.261 67.232 L 182.097 67.348 L 182.073 67.365 L 181.992 67.423 L 181.959 67.447 L 181.797 67.565 L 181.74 67.607 L 181.5 67.787 L 181.468 67.812 L 181.388 67.873 L 181.363 67.891 L 181.205 68.013 L 181.174 68.038 L 181.095 68.1 L 181.07 68.119 L 180.992 68.181 L 180.938 68.224 L 180.913 68.243 L 180.835 68.305 L 180.804 68.33 L 180.648 68.456 L 180.624 68.476 L 180.571 68.519 L 180.493 68.582 L 180.438 68.627 L 180.207 68.819 L 180.182 68.84 L 180.106 68.904 L 180.102 68.908 L 180.025 68.973 L 180 68.994 L 179.953 69.034 L 179.877 69.098 L 179.848 69.123 L 179.772 69.188 L 179.743 69.213 L 179.696 69.254 L 179.62 69.319 L 179.566 69.366 L 179.516 69.41 L 179.44 69.476 L 179.369 69.538 L 179.311 69.588 L 179.236 69.655 L 179.115 69.762 L 179.086 69.787 L 179.011 69.854 L 178.986 69.877 L 178.937 69.921 L 178.862 69.988 L 178.837 70.011 L 178.615 70.212 L 178.588 70.237 L 178.516 70.303 L 178.443 70.37 L 178.441 70.372 L 178.367 70.44 L 178.341 70.463 L 178.268 70.531 L 178.22 70.576 L 178.194 70.599 L 178.121 70.667 L 178.094 70.693 L 178.048 70.736 L 177.975 70.804 L 177.948 70.83 L 177.902 70.873 L 177.829 70.941 L 177.777 70.991 L 177.73 71.036 L 177.657 71.105 L 177.632 71.129 L 177.56 71.198 L 177.534 71.223 L 177.488 71.268 L 177.416 71.337 L 177.39 71.362 L 177.327 71.423 L 177.272 71.476 L 177.246 71.501 L 177.174 71.571 L 177.149 71.596 L 177.103 71.641 L 177.031 71.711 L 177.006 71.736 L 176.864 71.876 L 176.838 71.901 L 176.722 72.017 L 176.696 72.042 L 176.554 72.184 L 176.529 72.21 L 176.413 72.326 L 176.388 72.352 L 176.248 72.494 L 176.223 72.519 L 176.17 72.574 L 176.108 72.637 L 176.083 72.662 L 175.943 72.806 L 175.918 72.832 L 175.874 72.878 L 175.804 72.95 L 175.779 72.976 L 175.641 73.12 L 175.617 73.145 L 175.479 73.291 L 175.477 73.293 L 175.411 73.363 L 175.342 73.436 L 175.316 73.463 L 175.248 73.536 L 175.249 73.537 L 175.181 73.609 L 175.179 73.61 L 175.111 73.683 L 175.086 73.711 L 175.021 73.782 L 174.885 73.93 L 174.86 73.957 L 174.659 74.179 L 174.636 74.204 L 174.58 74.267 L 174.525 74.328 L 174.477 74.382 L 174.323 74.557 L 174.279 74.608 L 174.147 74.758 L 174.1 74.812 L 173.905 75.04 L 173.884 75.065 L 173.819 75.142 L 173.815 75.146 L 173.751 75.222 L 173.73 75.247 L 173.602 75.401 L 173.557 75.456 L 173.534 75.485 L 173.475 75.556 L 173.405 75.642 L 173.355 75.705 L 173.28 75.798 L 173.218 75.876 L 173.199 75.901 L 173.137 75.98 L 173.112 76.011 L 173.051 76.09 L 173.033 76.115 L 172.991 76.171 L 172.99 76.17 L 172.929 76.249 L 172.886 76.306 L 172.826 76.386 L 172.784 76.443 L 172.666 76.605 L 172.642 76.638 L 172.584 76.719 L 172.567 76.743 L 172.509 76.825 L 172.485 76.859 L 172.428 76.941 L 172.389 76.999 L 172.333 77.082 L 172.309 77.117 L 172.254 77.2 L 172.239 77.224 L 172.184 77.308 L 172.123 77.402 L 172.07 77.487 L 172.048 77.524 L 171.996 77.609 L 171.947 77.691 L 171.896 77.778 L 171.852 77.854 L 171.803 77.941 L 171.748 78.04 L 171.701 78.128 L 171.619 78.29 L 171.575 78.38 L 171.526 78.482 L 171.484 78.573 L 171.402 78.762 L 171.364 78.854 L 171.282 79.065 L 171.248 79.159 L 171.131 79.524 L 171.104 79.621 L 170.993 80.114 L 170.976 80.212 L 170.906 81.283 L 170.91 81.382 L 171.165 82.779 L 171.799 84.05 L 172.547 84.911 L 172.62 84.978 L 173.72 85.746 L 173.809 85.792 L 174.306 86.017 L 174.399 86.053 L 174.703 86.159 L 174.798 86.189 L 175.012 86.252 L 175.109 86.278 L 175.204 86.302 L 175.301 86.326 L 175.408 86.351 L 175.506 86.373 L 175.603 86.394 L 175.701 86.414 L 175.798 86.433 L 175.896 86.451 L 175.954 86.461 L 176.053 86.478 L 176.094 86.485 L 176.192 86.501 L 176.2 86.502 L 176.299 86.518 L 176.398 86.533 L 176.497 86.547 L 176.554 86.555 L 176.654 86.568 L 176.746 86.58 L 176.796 86.587 L 176.994 86.611 L 177.05 86.617 L 177.15 86.628 L 177.195 86.633 L 177.294 86.643 L 177.299 86.643 L 177.499 86.663 L 177.544 86.668 L 177.643 86.677 L 177.698 86.681 L 177.894 86.697 L 177.993 86.705 L 177.997 86.705 L 178.147 86.717 L 178.247 86.724 L 178.347 86.73 L 178.447 86.737 L 178.548 86.743 L 178.622 86.747 L 178.693 86.751 L 178.747 86.754 L 179.047 86.769 L 179.147 86.773 L 179.247 86.778 L 179.348 86.782 L 179.444 86.785 L 179.497 86.787 L 179.548 86.789 L 179.848 86.798 L 179.899 86.799 L 180.349 86.808 L 180.649 86.811 L 180.749 86.811 L 180.849 86.812 L 181.152 86.812 L 181.252 86.811 L 181.352 86.811 L 181.652 86.808 L 181.752 86.806 L 181.852 86.805 L 182.002 86.802 L 182.053 86.801 L 182.453 86.789 L 182.504 86.787 L 182.754 86.777 L 182.954 86.767 L 183.005 86.764 L 183.205 86.752 L 183.258 86.749 L 183.357 86.742 L 183.454 86.735 L 183.654 86.719 L 183.754 86.71 L 183.759 86.71 L 183.858 86.701 L 183.903 86.696 L 184.003 86.686 L 184.059 86.68 L 184.152 86.67 L 184.252 86.659 L 184.358 86.646 L 184.556 86.62 L 184.606 86.613 L 184.705 86.599 L 184.754 86.592 L 184.853 86.577 L 184.952 86.561 L 185.051 86.544 L 185.059 86.543 L 185.157 86.526 L 185.198 86.519 L 185.297 86.501 L 185.403 86.48 L 185.599 86.44 L 185.707 86.417 L 185.804 86.395 L 185.841 86.386 L 185.939 86.363 L 185.998 86.349 L 186.095 86.325 L 186.19 86.301 L 186.287 86.275 L 186.347 86.258 L 186.443 86.231 L 186.49 86.218 L 186.586 86.19 L 186.633 86.176 L 186.729 86.147 L 186.835 86.113 L 186.93 86.082 L 186.991 86.062 L 187.085 86.03 L 187.16 86.004 L 187.255 85.97 L 187.316 85.948 L 187.41 85.913 L 187.471 85.89 L 187.564 85.854 L 187.625 85.829 L 187.717 85.792 L 187.786 85.764 L 187.879 85.725 L 188.001 85.672 L 188.183 85.59 L 188.266 85.551 L 188.357 85.508 L 188.418 85.479 L 188.508 85.435 L 188.569 85.405 L 188.658 85.36 L 188.698 85.339 L 188.787 85.293 L 188.887 85.24 L 188.922 85.221 L 189.309 85.751 L 189.589 86.051 L 189.842 86.3 L 189.852 86.326 L 189.874 86.394 L 189.888 86.451 L 189.893 86.477 L 189.898 86.53 L 189.902 86.745 L 189.909 86.929 L 189.932 87.34 L 189.949 87.563 L 189.99 87.972 L 190.012 88.157 L 190.068 88.564 L 190.099 88.76 L 190.171 89.165 L 190.202 89.326 L 190.287 89.728 L 190.333 89.924 L 190.434 90.323 L 190.485 90.51 L 190.601 90.904 L 190.675 91.135 L 190.81 91.524 L 190.92 91.812 L 191.078 92.191 L 191.248 92.557 L 191.284 92.626 L 191.287 92.641 L 191.316 92.841 L 191.347 93.115 L 191.371 93.397 L 191.389 93.682 L 191.402 93.987 L 191.409 94.317 L 191.41 94.582 L 191.405 94.951 L 191.393 95.307 L 191.382 95.544 L 191.355 95.934 L 191.332 96.207 L 191.294 96.569 L 191.254 96.885 L 191.155 97.659 L 191.109 97.986 L 191.051 98.366 L 191.002 98.652 L 190.952 98.912 L 190.884 99.221 L 190.834 99.419 L 190.78 99.603 L 190.777 99.613 L 190.706 99.637 L 190.517 99.693 L 190.283 99.752 L 190.025 99.81 L 189.723 99.869 L 189.461 99.915 L 189.056 99.979 L 188.772 100.02 L 188.376 100.072 L 188.004 100.118 L 187.633 100.161 L 187.333 100.193 L 186.938 100.229 L 186.876 100.235 L 186.467 100.277 L 186.417 100.283 L 186.009 100.329 L 185.962 100.334 L 185.553 100.384 L 185.527 100.387 L 185.119 100.439 L 185.081 100.444 L 184.674 100.499 L 184.65 100.503 L 184.243 100.56 L 184.207 100.565 L 183.8 100.625 L 183.788 100.627 L 183.381 100.688 L 183.343 100.693 L 182.937 100.757 L 182.925 100.759 L 182.519 100.824 L 182.495 100.828 L 182.089 100.895 L 182.063 100.9 L 181.658 100.969 L 181.622 100.975 L 180.812 101.119 L 180.774 101.126 L 180.37 101.201 L 180.346 101.205 L 179.942 101.282 L 179.918 101.287 L 179.514 101.366 L 179.488 101.371 L 179.085 101.452 L 179.062 101.457 L 178.659 101.54 L 178.621 101.548 L 178.219 101.634 L 178.181 101.642 L 177.78 101.731 L 177.756 101.736 L 177.355 101.827 L 177.283 101.844 L 176.883 101.941 L 176.819 101.957 L 176.432 102.056 L 176.061 102.148 L 175.732 102.226 L 175.416 102.297 L 175.06 102.372 L 174.763 102.429 L 174.457 102.482 L 174.203 102.52 L 173.908 102.556 L 173.645 102.58 L 173.419 102.594 L 173.198 102.6 L 172.979 102.596 L 172.744 102.584 L 172.518 102.565 L 172.333 102.541 L 172.041 102.493 L 171.816 102.45 L 171.536 102.388 L 171.244 102.316 L 170.934 102.232 L 170.584 102.131 L 170.266 102.034 L 170.229 102.022 L 169.835 101.905 L 169.722 101.873 L 169.325 101.765 L 169.227 101.74 L 168.828 101.64 L 168.755 101.622 L 168.355 101.528 L 168.303 101.516 L 167.901 101.426 L 167.866 101.418 L 167.464 101.331 L 167.417 101.321 L 167.015 101.238 L 166.975 101.23 L 166.571 101.15 L 166.549 101.146 L 166.146 101.068 L 166.106 101.06 L 165.701 100.985 L 165.691 100.984 L 165.287 100.91 L 165.249 100.903 L 164.844 100.832 L 164.83 100.829 L 164.424 100.759 L 164.39 100.754 L 163.985 100.687 L 163.971 100.684 L 163.565 100.618 L 163.553 100.616 L 163.147 100.551 L 163.109 100.545 L 162.702 100.483 L 162.692 100.482 L 162.286 100.421 L 162.272 100.419 L 161.865 100.359 L 161.841 100.355 L 161.434 100.297 L 161.408 100.294 L 161 100.238 L 160.99 100.236 L 160.583 100.181 L 160.557 100.178 L 160.149 100.125 L 159.717 100.071 L 159.705 100.069 L 159.297 100.019 L 159.259 100.015 L 158.85 99.968 L 158.839 99.967 L 158.431 99.921 L 158.405 99.918 L 157.996 99.874 L 157.972 99.871 L 157.563 99.829 L 157.525 99.825 L 157.115 99.786 L 157.115 99.787 L 156.744 99.75 L 156.335 99.708 L 156 99.671 L 155.617 99.626 L 155.233 99.577 L 154.899 99.532 L 154.492 99.474 L 154.196 99.428 L 153.812 99.365 L 153.51 99.31 L 153.126 99.237 L 152.816 99.172 L 152.539 99.11 L 152.199 99.028 L 151.901 98.949 L 151.609 98.865 L 151.384 98.793 L 151.09 98.692 L 150.872 98.61 L 150.68 98.528 L 150.51 98.448 L 150.343 98.36 L 150.221 98.289 L 150.144 98.237 L 150.085 98.192 L 150.084 98.191 L 150.069 98.114 L 150.053 97.999 L 150.041 97.858 L 150.033 97.617 L 150.028 97.248 L 150.019 97.014 L 149.994 96.604 L 149.974 96.37 L 149.93 95.961 L 149.9 95.728 L 149.837 95.321 L 149.787 95.048 L 149.702 94.646 L 149.623 94.326 L 149.512 93.93 L 149.374 93.508 L 149.229 93.124 L 148.936 92.486 L 148.739 92.125 L 148.035 91.183 L 148.03 91.047 L 148.014 90.636 L 147.973 90.157 L 147.918 89.749 L 147.785 89.092 L 147.677 88.696 L 147.39 87.908 L 147.218 87.535 L 146.762 86.744 L 146.526 86.408 L 145.994 85.768 L 145.706 85.475 L 145.189 85.017 L 144.864 84.766 L 144.451 84.478 L 144.102 84.26 L 143.772 84.071 L 143.408 83.88 L 143.15 83.754 L 142.776 83.584 L 142.599 83.508 L 142.218 83.352 L 142.074 83.295 L 141.689 83.151 L 141.564 83.106 L 141.175 82.972 L 141.164 82.968 L 140.857 82.863 L 140.7 82.802 L 140.476 82.704 L 140.249 82.596 L 140.019 82.478 L 139.769 82.34 L 139.561 82.218 L 139.289 82.05 L 139.055 81.896 L 138.847 81.751 L 138.648 81.604 L 138.429 81.432 L 138.275 81.302 L 138.154 81.191 L 138.119 81.155 L 138.031 81.047 L 137.834 80.792 L 137.674 80.595 L 137.407 80.283 L 137.273 80.132 L 136.993 79.83 L 136.878 79.711 L 136.589 79.419 L 136.471 79.303 L 136.172 79.02 L 136.063 78.92 L 135.756 78.646 L 135.65 78.554 L 135.336 78.289 L 135.221 78.195 L 134.899 77.939 L 134.78 77.847 L 134.451 77.601 L 134.309 77.499 L 133.971 77.264 L 133.815 77.159 L 133.469 76.937 L 133.237 76.797 L 132.899 76.605 L 132.784 76.537 L 132.758 76.519 L 132.651 76.432 L 132.554 76.344 L 132.469 76.259 L 132.514 76.124 L 132.563 75.996 L 132.664 75.76 L 132.734 75.613 L 132.857 75.379 L 132.965 75.188 L 133.088 74.99 L 133.241 74.758 L 133.374 74.57 L 133.523 74.373 L 133.698 74.157 L 133.845 73.986 L 134.034 73.779 L 134.193 73.617 L 134.378 73.439 L 134.557 73.278 L 134.728 73.134 L 134.912 72.99 L 135.101 72.853 L 135.297 72.722 L 135.436 72.637 L 135.716 72.481 L 135.991 72.335 L 136.064 72.296 L 136.424 72.097 L 136.549 72.025 L 136.903 71.816 L 137.063 71.718 L 137.409 71.496 L 137.657 71.326 L 137.989 71.084 L 138.494 70.663 L 138.792 70.38 L 139.675 69.267 L 140.017 68.565 L 140.163 68.195 L 140.237 67.888 L 140.315 67.876 L 140.366 67.868 L 140.476 67.85 L 140.58 67.833 L 140.587 67.832 L 140.697 67.814 L 140.801 67.797 L 140.897 67.781 L 140.998 67.763 L 141.066 67.751 L 141.118 67.742 L 141.338 67.702 L 141.373 67.695 L 141.484 67.674 L 141.492 67.672 L 141.503 67.67 L 141.512 67.701 L 141.535 67.784 L 141.567 67.892 L 141.571 67.904 L 141.603 68.011 L 141.629 68.094 L 141.663 68.201 L 141.676 68.242 L 141.711 68.349 L 141.715 68.362 L 141.75 68.468 L 141.764 68.509 L 141.8 68.615 L 141.814 68.655 L 141.888 68.867 L 141.907 68.922 L 141.945 69.027 L 141.978 69.118 L 141.998 69.173 L 142.115 69.488 L 142.135 69.542 L 142.175 69.646 L 142.176 69.646 L 142.25 69.841 L 142.271 69.896 L 142.312 70 L 142.331 70.05 L 142.352 70.105 L 142.434 70.313 L 142.449 70.352 L 142.491 70.456 L 142.517 70.521 L 142.526 70.544 L 142.559 70.626 L 142.6 70.73 L 142.615 70.769 L 142.741 71.081 L 142.743 71.084 L 142.77 71.157 L 142.785 71.196 L 142.825 71.301 L 142.846 71.356 L 142.922 71.549 L 142.963 71.654 L 142.991 71.724 L 143.033 71.827 L 143.042 71.85 L 143.085 71.954 L 143.092 71.97 L 143.135 72.073 L 143.144 72.095 L 143.188 72.199 L 143.195 72.215 L 143.239 72.318 L 143.263 72.373 L 143.308 72.475 L 143.317 72.496 L 143.363 72.599 L 143.371 72.616 L 143.417 72.718 L 143.442 72.772 L 143.489 72.873 L 143.498 72.893 L 143.546 72.995 L 143.554 73.013 L 143.602 73.114 L 143.62 73.15 L 143.669 73.251 L 143.696 73.306 L 143.764 73.442 L 143.866 73.642 L 143.894 73.696 L 143.946 73.795 L 143.965 73.83 L 144.018 73.929 L 144.047 73.983 L 144.101 74.081 L 144.131 74.135 L 144.186 74.232 L 144.225 74.3 L 144.339 74.494 L 144.371 74.547 L 144.429 74.643 L 144.461 74.696 L 144.52 74.791 L 144.574 74.876 L 144.635 74.97 L 144.67 75.022 L 144.732 75.115 L 144.788 75.198 L 144.852 75.29 L 144.874 75.321 L 144.939 75.413 L 144.991 75.485 L 145.057 75.575 L 145.156 75.705 L 145.225 75.793 L 145.286 75.871 L 145.357 75.958 L 145.439 76.055 L 145.512 76.14 L 145.619 76.261 L 145.695 76.344 L 145.804 76.459 L 145.882 76.539 L 146.066 76.718 L 146.148 76.794 L 146.291 76.922 L 146.376 76.995 L 146.651 77.215 L 146.741 77.282 L 147.094 77.523 L 147.189 77.582 L 147.596 77.809 L 147.696 77.859 L 148.347 78.13 L 148.454 78.166 L 149.34 78.378 L 149.45 78.394 L 150.631 78.426 L 150.743 78.416 L 152.261 78.038 L 152.363 77.995 L 153.077 77.622 L 153.077 77.623 L 153.091 77.615 L 153.1 77.61 L 153.121 77.597 L 153.149 77.581 L 153.184 77.563 L 153.257 77.526 L 153.258 77.526 L 153.359 77.478 L 153.359 77.477 L 153.388 77.464 L 153.464 77.429 L 153.632 77.357 L 153.697 77.33 L 153.801 77.288 L 153.97 77.221 L 153.981 77.217 L 154.046 77.193 L 154.151 77.155 L 154.198 77.138 L 154.268 77.114 L 154.308 77.1 L 154.36 77.082 L 154.439 77.056 L 154.558 77.018 L 154.665 76.985 L 154.975 76.878 L 155.08 76.838 L 155.414 76.697 L 155.515 76.65 L 155.823 76.494 L 155.921 76.44 L 156.149 76.307 L 156.244 76.248 L 156.443 76.117 L 156.536 76.053 L 156.74 75.905 L 156.829 75.837 L 156.979 75.718 L 157.065 75.647 L 157.214 75.52 L 157.298 75.445 L 157.391 75.359 L 157.473 75.282 L 157.588 75.171 L 157.667 75.092 L 157.756 75 L 157.833 74.919 L 157.963 74.777 L 158.037 74.693 L 158.079 74.645 L 158.152 74.56 L 158.234 74.463 L 158.305 74.376 L 158.384 74.276 L 158.453 74.187 L 158.512 74.109 L 158.579 74.019 L 158.638 73.938 L 158.703 73.847 L 158.761 73.765 L 158.824 73.673 L 158.894 73.568 L 158.955 73.474 L 158.988 73.421 L 159.048 73.326 L 159.101 73.241 L 159.159 73.145 L 159.179 73.112 L 159.236 73.016 L 159.298 72.909 L 159.353 72.811 L 159.401 72.722 L 159.454 72.623 L 159.501 72.534 L 159.552 72.434 L 159.62 72.298 L 159.682 72.169 L 159.729 72.068 L 159.745 72.034 L 159.792 71.931 L 159.835 71.835 L 159.879 71.733 L 159.909 71.662 L 159.952 71.558 L 160.004 71.425 L 160.044 71.32 L 160.059 71.281 L 160.098 71.176 L 160.127 71.095 L 160.164 70.99 L 160.201 70.882 L 160.236 70.775 L 160.262 70.693 L 160.295 70.586 L 160.338 70.433 L 160.356 70.418 L 160.381 70.399 L 160.39 70.392 L 160.407 70.38 L 160.415 70.373 L 160.428 70.365 L 160.508 70.313 L 160.532 70.299 L 160.609 70.256 L 160.631 70.244 L 160.713 70.206 L 160.761 70.185 L 160.791 70.173 L 160.896 70.135 L 160.921 70.126 L 161.027 70.087 L 161.042 70.081 L 161.107 70.057 L 161.212 70.019 L 161.252 70.004 L 161.335 69.973 L 161.408 69.947 L 161.463 69.927 L 161.633 69.864 L 161.738 69.826 L 161.778 69.811 L 161.861 69.78 L 161.934 69.754 L 161.989 69.734 L 162.054 69.71 L 162.159 69.672 L 162.199 69.657 L 162.289 69.624 L 162.395 69.585 L 162.475 69.556 L 162.515 69.541 L 162.58 69.517 L 162.685 69.479 L 162.725 69.464 L 162.815 69.431 L 162.921 69.392 L 163.001 69.363 L 163.041 69.348 L 163.106 69.324 L 163.211 69.286 L 163.236 69.277 L 163.342 69.238 L 163.422 69.209 L 163.462 69.194 L 163.672 69.116 L 164.921 68.44 L 165.933 67.444 L 166.578 66.332 L 166.602 66.275 L 166.964 64.901 L 166.931 63.482 L 166.506 62.126 L 165.56 60.77 L 165.504 60.712 L 165.426 60.631 L 165.404 60.609 L 165.348 60.551 L 165.27 60.47 L 165.248 60.448 L 165.114 60.31 L 165.036 60.229 L 165.014 60.207 L 164.958 60.149 L 164.88 60.068 L 164.858 60.046 L 164.802 59.988 L 164.724 59.907 L 164.702 59.885 L 164.646 59.827 L 164.568 59.746 L 164.546 59.724 L 164.49 59.666 L 164.412 59.585 L 164.39 59.563 L 164.334 59.505 L 164.256 59.424 L 164.234 59.402 L 164.1 59.264 L 164.022 59.183 L 164 59.161 L 163.944 59.103 L 163.866 59.022 L 163.844 59 L 163.788 58.942 L 163.71 58.861 L 163.688 58.839 L 163.632 58.781 L 163.554 58.7 L 163.532 58.678 L 163.476 58.62 L 163.398 58.539 L 163.376 58.517 L 163.32 58.459 L 163.242 58.378 L 163.22 58.356 L 163.086 58.218 L 163.008 58.137 L 162.963 58.092 L 162.929 58.057 L 162.851 57.976 L 162.829 57.954 L 162.773 57.896 L 162.695 57.815 L 162.673 57.793 L 162.617 57.735 L 162.539 57.654 L 162.517 57.632 L 162.461 57.574 L 162.383 57.493 L 162.361 57.471 L 162.283 57.391 L 162.25 57.356 L 162.206 57.31 L 162.15 57.252 L 162.072 57.171 L 162.05 57.149 L 161.994 57.091 L 161.838 56.929 L 161.816 56.907 L 161.738 56.827 L 161.705 56.792 L 161.683 56.768 L 161.645 56.729 L 161.669 56.679 L 161.756 56.496 L 161.77 56.468 L 161.797 56.413 L 161.895 56.211 L 161.913 56.175 L 161.961 56.074 L 161.969 56.056 L 162.017 55.954 L 162.026 55.934 L 162.073 55.833 L 162.081 55.816 L 162.128 55.714 L 162.145 55.677 L 162.237 55.473 L 162.245 55.456 L 162.291 55.353 L 162.3 55.332 L 162.328 55.268 L 162.335 55.276 L 162.48 55.44 L 162.548 55.514 L 162.696 55.669 L 162.767 55.74 L 162.844 55.815 L 162.916 55.884 L 163.046 56.005 L 163.121 56.072 L 163.179 56.122 L 163.254 56.187 L 163.333 56.255 L 163.41 56.319 L 163.465 56.364 L 163.543 56.427 L 163.63 56.496 L 163.709 56.557 L 163.734 56.575 L 163.814 56.636 L 163.879 56.685 L 163.959 56.744 L 163.983 56.762 L 164.064 56.821 L 164.097 56.845 L 164.178 56.903 L 164.236 56.944 L 164.318 57.001 L 164.342 57.017 L 164.425 57.074 L 164.436 57.081 L 164.518 57.137 L 164.6 57.192 L 164.66 57.232 L 164.743 57.287 L 164.767 57.302 L 164.851 57.357 L 164.909 57.395 L 164.994 57.449 L 165.007 57.457 L 165.091 57.51 L 165.114 57.525 L 165.199 57.578 L 165.236 57.6 L 165.406 57.704 L 165.429 57.718 L 165.515 57.77 L 165.552 57.792 L 165.81 57.945 L 165.87 57.98 L 165.935 58.018 L 166.021 58.068 L 166.043 58.08 L 166.13 58.13 L 166.168 58.152 L 166.342 58.25 L 166.363 58.262 L 166.451 58.311 L 166.517 58.348 L 166.577 58.381 L 166.644 58.418 L 166.731 58.466 L 166.791 58.499 L 166.879 58.546 L 166.879 58.545 L 166.928 58.572 L 166.967 58.594 L 167.055 58.641 L 167.076 58.652 L 167.144 58.688 L 167.232 58.735 L 167.293 58.766 L 167.321 58.781 L 167.409 58.828 L 167.47 58.859 L 167.648 58.951 L 167.688 58.972 L 167.777 59.017 L 167.826 59.042 L 167.866 59.063 L 167.955 59.108 L 168.045 59.153 L 168.134 59.198 L 168.195 59.228 L 168.224 59.242 L 168.313 59.287 L 168.374 59.317 L 168.534 59.395 L 168.623 59.439 L 168.704 59.478 L 168.734 59.492 L 168.824 59.536 L 168.865 59.556 L 169.135 59.685 L 169.155 59.694 L 169.246 59.737 L 169.268 59.748 L 169.358 59.79 L 169.377 59.799 L 169.468 59.841 L 169.468 59.84 L 169.518 59.864 L 169.54 59.875 L 169.63 59.917 L 169.691 59.945 L 169.74 59.967 L 169.831 60.009 L 169.873 60.028 L 169.922 60.05 L 170.013 60.092 L 170.055 60.111 L 170.146 60.152 L 170.165 60.16 L 170.257 60.201 L 170.28 60.212 L 170.371 60.252 L 170.371 60.251 L 170.44 60.282 L 170.463 60.293 L 170.554 60.333 L 170.573 60.341 L 170.646 60.373 L 170.737 60.413 L 170.756 60.421 L 170.94 60.501 L 170.983 60.519 L 171.443 60.714 L 171.504 60.74 L 171.597 60.778 L 171.65 60.799 L 171.72 60.829 L 171.824 60.872 L 171.874 60.892 L 171.967 60.93 L 172.041 60.96 L 172.102 60.985 L 172.381 61.096 L 172.425 61.114 L 172.518 61.15 L 172.567 61.169 L 172.628 61.193 L 172.705 61.223 L 172.798 61.259 L 172.843 61.276 L 172.936 61.311 L 173.002 61.336 L 173.03 61.347 L 173.123 61.382 L 173.139 61.388 L 173.327 61.458 L 173.372 61.474 L 173.421 61.492 L 173.515 61.527 L 173.56 61.543 L 173.654 61.577 L 173.699 61.593 L 173.767 61.617 L 173.842 61.644 L 173.903 61.666 L 173.998 61.699 L 174.076 61.726 L 174.137 61.747 L 174.217 61.774 L 174.311 61.806 L 174.326 61.811 L 174.516 61.875 L 174.562 61.89 L 174.752 61.952 L 174.798 61.967 L 174.893 61.997 L 174.907 62.002 L 175.003 62.032 L 175.003 62.031 L 175.084 62.057 L 175.144 62.076 L 175.322 62.13 L 175.417 62.159 L 175.538 62.194 L 175.597 62.211 L 175.671 62.232 L 175.718 62.245 L 175.814 62.272 L 175.861 62.285 L 175.957 62.311 L 175.97 62.315 L 176.067 62.341 L 176.114 62.353 L 176.308 62.403 L 176.356 62.415 L 176.453 62.439 L 176.501 62.451 L 176.598 62.474 L 176.657 62.487 L 176.744 62.507 L 176.841 62.529 L 176.9 62.542 L 176.998 62.563 L 177.095 62.583 L 177.291 62.621 L 177.349 62.632 L 177.448 62.65 L 177.546 62.666 L 177.645 62.682 L 177.687 62.689 L 177.785 62.704 L 177.899 62.72 L 177.999 62.733 L 178.042 62.739 L 178.141 62.751 L 178.242 62.762 L 178.341 62.772 L 178.446 62.781 L 178.546 62.789 L 178.697 62.799 L 178.797 62.804 L 178.949 62.809 L 179.049 62.811 L 179.201 62.812 L 179.401 62.81 L 179.502 62.808 L 179.602 62.805 L 179.703 62.801 L 179.903 62.791 L 180.007 62.785 L 180.106 62.778 L 180.153 62.774 L 180.303 62.762 L 180.403 62.753 L 180.509 62.742 L 180.707 62.72 L 180.8 62.709 L 180.9 62.696 L 180.957 62.688 L 181.056 62.674 L 181.163 62.658 L 181.261 62.642 L 181.352 62.627 L 181.459 62.609 L 181.557 62.591 L 181.596 62.583 L 181.695 62.564 L 181.753 62.553 L 181.851 62.533 L 181.91 62.521 L 182.007 62.5 L 182.045 62.491 L 182.143 62.469 L 182.25 62.444 L 182.444 62.396 L 182.539 62.372 L 182.636 62.346 L 182.696 62.329 L 182.888 62.275 L 182.982 62.248 L 183.078 62.219 L 183.138 62.2 L 183.233 62.17 L 183.279 62.155 L 183.374 62.124 L 183.42 62.109 L 183.515 62.077 L 183.56 62.062 L 183.655 62.029 L 183.777 61.985 L 183.854 61.956 L 183.948 61.921 L 184.009 61.898 L 184.102 61.862 L 184.146 61.844 L 184.239 61.807 L 184.282 61.79 L 184.375 61.752 L 184.436 61.726 L 184.528 61.687 L 184.571 61.669 L 184.663 61.629 L 184.724 61.602 L 184.815 61.561 L 184.857 61.542 L 184.948 61.5 L 184.967 61.491 L 185.057 61.449 L 185.14 61.409 L 185.23 61.365 L 185.291 61.335 L 185.469 61.245 L 185.549 61.204 L 185.638 61.157 L 185.659 61.146 L 185.747 61.099 L 185.786 61.077 L 185.874 61.029 L 185.934 60.996 L 186.021 60.947 L 186.059 60.925 L 186.146 60.875 L 186.168 60.863 L 186.254 60.813 L 186.329 60.768 L 186.415 60.716 L 186.438 60.702 L 186.523 60.65 L 186.56 60.628 L 186.645 60.575 L 186.704 60.537 L 186.788 60.483 L 186.823 60.46 L 186.907 60.405 L 186.931 60.39 L 187.014 60.335 L 187.083 60.288 L 187.166 60.231 L 187.19 60.215 L 187.272 60.158 L 187.33 60.117 L 187.492 60.001 L 187.558 59.953 L 187.639 59.893 L 187.743 59.815 L 187.767 59.796 L 187.846 59.736 L 187.91 59.687 L 187.989 59.625 L 188.014 59.606 L 188.092 59.544 L 188.123 59.519 L 188.201 59.456 L 188.256 59.411 L 188.41 59.283 L 188.464 59.237 L 188.54 59.172 L 188.594 59.125 L 188.744 58.993 L 188.798 58.945 L 188.872 58.878 L 188.899 58.853 L 188.973 58.785 L 188.999 58.762 L 189.072 58.694 L 189.15 58.619 L 189.196 58.574 L 189.268 58.505 L 189.345 58.43 L 189.416 58.359 L 189.441 58.333 L 189.581 58.191 L 189.631 58.14 L 189.7 58.068 L 189.75 58.016 L 189.818 57.943 L 189.841 57.917 L 189.909 57.843 L 189.934 57.816 L 190.001 57.742 L 190.024 57.717 L 190.091 57.642 L 190.116 57.613 L 190.182 57.538 L 190.229 57.484 L 190.294 57.408 L 190.34 57.354 L 190.468 57.2 L 190.493 57.169 L 190.556 57.092 L 190.62 57.012 L 190.663 56.958 L 190.725 56.88 L 190.812 56.767 L 190.992 56.527 L 191.058 56.437 L 191.116 56.356 L 191.133 56.332 L 191.191 56.25 L 191.215 56.216 L 191.272 56.134 L 191.311 56.076 L 191.367 55.993 L 191.391 55.958 L 191.446 55.875 L 191.461 55.851 L 191.516 55.767 L 191.539 55.732 L 191.593 55.648 L 191.631 55.589 L 191.684 55.504 L 191.72 55.444 L 191.772 55.358 L 191.794 55.321 L 191.845 55.235 L 191.868 55.197 L 191.918 55.111 L 191.93 55.089 L 191.98 55.002 L 192.024 54.925 L 192.072 54.838 L 192.083 54.817 L 192.131 54.729 L 192.164 54.669 L 192.211 54.58 L 192.252 54.5 L 192.342 54.322 L 192.372 54.261 L 192.416 54.171 L 192.436 54.13 L 192.479 54.04 L 192.508 53.979 L 192.55 53.888 L 192.569 53.846 L 192.61 53.755 L 192.637 53.694 L 192.677 53.602 L 192.695 53.559 L 192.734 53.467 L 192.752 53.424 L 192.79 53.332 L 192.815 53.271 L 192.852 53.178 L 192.876 53.117 L 192.912 53.023 L 192.923 52.995 L 192.958 52.902 L 193.002 52.78 L 193.029 52.701 L 193.062 52.607 L 193.098 52.5 L 193.129 52.405 L 193.149 52.345 L 193.189 52.217 L 193.218 52.122 L 193.236 52.061 L 193.264 51.965 L 193.281 51.905 L 193.308 51.808 L 193.33 51.726 L 193.355 51.63 L 193.373 51.559 L 193.397 51.461 L 193.406 51.424 L 193.429 51.327 L 193.442 51.268 L 193.464 51.17 L 193.483 51.083 L 193.503 50.986 L 193.516 50.918 L 193.535 50.819 L 193.552 50.73 L 193.569 50.632 L 193.578 50.575 L 193.594 50.476 L 193.602 50.426 L 193.617 50.327 L 193.624 50.278 L 193.638 50.179 L 193.652 50.079 L 193.664 49.98 L 193.675 49.874 L 193.685 49.774 L 193.69 49.729 L 193.699 49.63 L 193.703 49.575 L 193.711 49.475 L 193.718 49.375 L 193.724 49.275 L 193.729 49.174 L 193.737 48.974 L 193.741 48.822 L 193.742 48.722 L 193.742 48.571 L 193.741 48.47 L 193.739 48.37 L 193.738 48.317 L 193.735 48.218 L 193.731 48.119 L 193.726 48.019 L 193.72 47.918 L 193.713 47.818 L 193.701 47.668 L 193.692 47.563 L 193.682 47.464 L 193.671 47.369 L 193.659 47.269 L 193.652 47.213 L 193.639 47.114 L 193.625 47.015 L 193.61 46.916 L 193.593 46.809 L 193.576 46.711 L 193.558 46.612 L 193.539 46.514 L 193.529 46.466 L 193.509 46.368 L 193.488 46.271 L 193.466 46.173 L 193.453 46.114 L 193.43 46.017 L 193.394 45.874 L 193.368 45.777 L 193.351 45.717 L 193.324 45.621 L 193.297 45.527 L 193.268 45.431 L 193.234 45.325 L 193.203 45.23 L 193.188 45.184 L 193.156 45.089 L 193.119 44.983 L 193.085 44.889 L 193.046 44.783 L 193.01 44.69 L 192.992 44.646 L 192.955 44.553 L 192.912 44.449 L 192.873 44.357 L 192.828 44.253 L 192.787 44.162 L 192.739 44.059 L 192.696 43.969 L 192.676 43.928 L 192.588 43.748 L 192.558 43.687 L 192.513 43.598 L 192.492 43.558 L 192.4 43.38 L 192.369 43.319 L 192.322 43.231 L 192.3 43.192 L 192.252 43.104 L 192.219 43.044 L 192.17 42.957 L 192.148 42.919 L 192.098 42.832 L 192.063 42.772 L 192.012 42.686 L 191.976 42.626 L 191.924 42.541 L 191.908 42.514 L 192.193 42.235 L 192.315 42.11 L 192.598 41.813 L 192.71 41.692 L 192.984 41.385 L 193.07 41.286 L 193.336 40.972 L 193.432 40.856 L 193.688 40.535 L 193.762 40.44 L 194.011 40.112 L 194.07 40.032 L 194.114 39.972 Z M 9.672 55.22 L 9.947 55.231 L 10.287 55.252 L 10.626 55.277 L 10.969 55.307 L 11.345 55.346 L 11.631 55.379 L 12.039 55.431 L 12.396 55.48 L 12.705 55.526 L 12.705 55.527 L 13.111 55.591 L 13.406 55.641 L 13.761 55.705 L 14.117 55.773 L 14.506 55.852 L 14.797 55.914 L 15.198 56.005 L 15.518 56.081 L 15.872 56.17 L 15.872 56.171 L 16.27 56.272 L 16.334 56.287 L 16.734 56.383 L 16.81 56.401 L 17.212 56.491 L 17.271 56.504 L 17.673 56.589 L 17.71 56.597 L 18.113 56.679 L 18.163 56.688 L 18.567 56.766 L 18.615 56.775 L 19.019 56.849 L 19.045 56.854 L 19.45 56.926 L 19.486 56.932 L 19.891 57.001 L 19.929 57.008 L 20.335 57.074 L 20.361 57.078 L 20.768 57.142 L 20.79 57.145 L 21.196 57.207 L 21.234 57.213 L 21.641 57.272 L 21.653 57.274 L 22.06 57.332 L 22.086 57.335 L 22.494 57.391 L 22.516 57.394 L 22.923 57.448 L 22.937 57.45 L 23.345 57.503 L 23.777 57.557 L 23.802 57.56 L 24.21 57.609 L 24.211 57.609 L 24.62 57.658 L 24.643 57.661 L 25.051 57.708 L 25.077 57.711 L 25.895 57.801 L 25.919 57.804 L 26.737 57.89 L 26.761 57.892 L 27.579 57.974 L 27.604 57.976 L 28.013 58.015 L 28.014 58.016 L 28.424 58.055 L 28.447 58.057 L 28.856 58.094 L 28.857 58.094 L 29.214 58.126 L 29.058 58.138 L 29.046 58.139 L 28.636 58.171 L 28.622 58.172 L 28.213 58.205 L 28.19 58.207 L 27.78 58.242 L 27.768 58.243 L 27.358 58.279 L 27.344 58.28 L 26.935 58.317 L 26.912 58.319 L 26.502 58.358 L 26.476 58.361 L 26.067 58.402 L 26.043 58.404 L 25.634 58.447 L 25.622 58.449 L 25.213 58.493 L 25.175 58.497 L 24.767 58.544 L 24.756 58.545 L 24.347 58.593 L 24.309 58.598 L 23.901 58.649 L 23.863 58.654 L 23.456 58.708 L 23.434 58.711 L 23.026 58.767 L 23 58.77 L 22.593 58.828 L 22.543 58.836 L 22.137 58.898 L 22.115 58.901 L 21.708 58.965 L 21.668 58.972 L 21.263 59.039 L 21.215 59.047 L 20.81 59.118 L 20.774 59.124 L 20.369 59.198 L 20.331 59.205 L 19.523 59.359 L 19.15 59.429 L 18.774 59.497 L 18.386 59.566 L 17.98 59.637 L 17.98 59.638 L 17.635 59.696 L 17.635 59.695 L 17.253 59.757 L 16.847 59.821 L 16.847 59.822 L 16.49 59.875 L 16.123 59.929 L 15.738 59.982 L 15.33 60.037 L 15.007 60.077 L 14.599 60.125 L 14.264 60.162 L 13.904 60.199 L 13.495 60.237 L 13.163 60.265 L 12.768 60.295 L 12.457 60.314 L 12.083 60.334 L 11.776 60.347 L 11.38 60.358 L 11.004 60.364 L 10.74 60.364 L 10.359 60.359 L 10.061 60.351 L 9.709 60.334 L 9.419 60.316 L 9.11 60.29 L 8.802 60.258 L 8.471 60.216 L 8.206 60.177 L 7.946 60.131 L 7.676 60.077 L 7.401 60.013 L 7.134 59.944 L 6.91 59.878 L 6.67 59.799 L 6.431 59.712 L 6.218 59.626 L 6.013 59.534 L 5.813 59.436 L 5.618 59.332 L 5.431 59.222 L 5.285 59.129 L 5.206 59.072 L 5.156 59.03 L 5.137 59.011 L 5.117 58.988 L 5.115 58.986 L 5.112 58.98 L 5.108 58.967 L 5.105 58.953 L 5.1 58.922 L 5.098 58.898 L 5.096 58.81 L 5.098 58.763 L 5.109 58.667 L 5.125 58.571 L 5.156 58.437 L 5.186 58.333 L 5.238 58.183 L 5.298 58.036 L 5.369 57.884 L 5.453 57.724 L 5.534 57.586 L 5.639 57.423 L 5.754 57.262 L 5.875 57.106 L 5.993 56.967 L 6.154 56.792 L 6.293 56.652 L 6.439 56.518 L 6.599 56.381 L 6.782 56.237 L 6.949 56.114 L 7.115 56.003 L 7.322 55.875 L 7.496 55.777 L 7.717 55.662 L 7.879 55.586 L 8.119 55.484 L 8.286 55.42 L 8.539 55.334 L 8.73 55.277 L 8.908 55.231 L 8.92 55.228 L 8.959 55.224 L 9.133 55.216 L 9.377 55.214 Z M 111.847 14.482 L 112.206 14.491 L 112.5 14.503 L 112.854 14.524 L 113.144 14.547 L 113.424 14.575 L 113.753 14.615 L 114.002 14.652 L 114.245 14.695 L 114.487 14.746 L 114.645 14.787 L 114.901 14.864 L 115.219 14.969 L 115.782 15.12 L 116.184 15.203 L 116.846 15.276 L 117.052 15.592 L 117.11 15.674 L 117.35 15.987 L 117.414 16.064 L 117.703 16.382 L 117.773 16.453 L 118.034 16.7 L 118.109 16.766 L 118.416 17.016 L 118.496 17.076 L 118.761 17.261 L 118.845 17.316 L 119.173 17.514 L 119.26 17.562 L 119.584 17.726 L 119.675 17.768 L 119.969 17.893 L 120.062 17.929 L 120.32 18.02 L 120.415 18.051 L 120.675 18.129 L 120.772 18.155 L 121.071 18.225 L 121.169 18.245 L 121.423 18.29 L 121.522 18.305 L 121.721 18.331 L 121.82 18.342 L 122.076 18.364 L 122.176 18.37 L 122.379 18.378 L 122.479 18.38 L 122.732 18.379 L 122.832 18.376 L 122.984 18.369 L 123.084 18.363 L 123.14 18.359 L 123.155 18.45 L 123.191 18.646 L 123.199 18.685 L 123.218 18.784 L 123.219 18.794 L 123.238 18.892 L 123.258 18.989 L 123.279 19.087 L 123.281 19.097 L 123.302 19.194 L 123.311 19.232 L 123.333 19.33 L 123.346 19.389 L 123.392 19.583 L 123.401 19.62 L 123.425 19.718 L 123.443 19.789 L 123.468 19.885 L 123.477 19.92 L 123.503 20.017 L 123.507 20.03 L 123.533 20.126 L 123.542 20.16 L 123.569 20.257 L 123.586 20.317 L 123.614 20.413 L 123.632 20.474 L 123.657 20.555 L 123.686 20.651 L 123.72 20.757 L 123.782 20.947 L 123.797 20.993 L 123.829 21.088 L 123.85 21.149 L 123.883 21.243 L 123.899 21.288 L 123.933 21.382 L 123.949 21.427 L 123.984 21.521 L 124.007 21.582 L 124.043 21.675 L 124.061 21.719 L 124.098 21.812 L 124.115 21.855 L 124.153 21.948 L 124.197 22.052 L 124.237 22.144 L 124.245 22.163 L 124.285 22.254 L 124.323 22.338 L 124.365 22.429 L 124.394 22.49 L 124.437 22.58 L 124.477 22.662 L 124.522 22.752 L 124.563 22.833 L 124.609 22.921 L 124.63 22.961 L 124.677 23.049 L 124.754 23.186 L 124.804 23.273 L 124.861 23.37 L 124.913 23.456 L 124.964 23.539 L 125.017 23.623 L 125.102 23.753 L 125.158 23.836 L 125.262 23.985 L 125.321 24.066 L 125.406 24.18 L 125.424 24.203 L 125.441 24.226 L 125.483 24.283 L 125.723 24.603 L 125.766 24.66 L 125.827 24.739 L 125.852 24.77 L 125.914 24.849 L 125.933 24.874 L 125.995 24.952 L 126.005 24.964 L 126.043 25.262 L 126.059 25.361 L 126.086 25.517 L 126.105 25.615 L 126.147 25.808 L 126.17 25.906 L 126.196 26.013 L 126.221 26.11 L 126.237 26.17 L 126.263 26.266 L 126.289 26.36 L 126.345 26.552 L 126.359 26.599 L 126.388 26.695 L 126.407 26.755 L 126.437 26.85 L 126.452 26.896 L 126.514 27.086 L 126.529 27.132 L 126.546 27.181 L 126.577 27.276 L 126.592 27.322 L 126.624 27.417 L 126.629 27.432 L 126.661 27.526 L 126.671 27.556 L 126.704 27.651 L 126.721 27.701 L 126.742 27.762 L 126.769 27.84 L 126.802 27.935 L 126.808 27.951 L 126.868 28.123 L 126.901 28.218 L 126.907 28.234 L 126.934 28.312 L 126.967 28.407 L 126.973 28.423 L 127.033 28.595 L 127.066 28.69 L 127.072 28.706 L 127.105 28.8 L 127.121 28.845 L 127.133 28.878 L 127.166 28.973 L 127.172 28.989 L 127.205 29.083 L 127.221 29.128 L 127.323 29.41 L 127.339 29.455 L 127.374 29.549 L 127.38 29.565 L 127.409 29.642 L 127.444 29.736 L 127.467 29.797 L 127.503 29.89 L 127.521 29.934 L 127.595 30.12 L 127.62 30.181 L 127.658 30.273 L 127.694 30.359 L 127.774 30.543 L 127.849 30.707 L 127.935 30.887 L 128.006 31.029 L 128.052 31.118 L 128.105 31.218 L 128.153 31.306 L 128.208 31.404 L 128.258 31.491 L 128.351 31.648 L 128.404 31.733 L 128.496 31.874 L 128.551 31.956 L 128.663 32.117 L 128.722 32.198 L 128.876 32.399 L 128.939 32.477 L 129.077 32.64 L 129.143 32.715 L 129.364 32.951 L 129.435 33.022 L 129.592 33.172 L 129.665 33.239 L 129.907 33.448 L 129.985 33.511 L 130.186 33.665 L 130.267 33.724 L 130.569 33.928 L 130.654 33.981 L 130.849 34.096 L 130.936 34.145 L 131.197 34.282 L 131.287 34.326 L 131.535 34.439 L 131.627 34.478 L 131.836 34.562 L 131.93 34.597 L 132.127 34.665 L 132.222 34.696 L 132.375 34.744 L 132.471 34.772 L 132.673 34.826 L 132.77 34.85 L 132.925 34.886 L 133.023 34.907 L 133.12 34.927 L 133.218 34.946 L 133.366 34.972 L 133.464 34.988 L 133.571 35.004 L 133.67 35.018 L 133.776 35.032 L 133.876 35.044 L 133.971 35.055 L 134.07 35.065 L 134.175 35.074 L 134.375 35.09 L 134.472 35.097 L 134.571 35.103 L 134.625 35.106 L 134.725 35.111 L 134.826 35.115 L 135.026 35.121 L 135.077 35.122 L 135.277 35.126 L 135.378 35.127 L 135.739 35.127 L 135.722 35.139 L 135.671 35.177 L 135.401 35.378 L 135.351 35.416 L 135.173 35.552 L 135.063 35.637 L 135.057 35.641 L 134.968 35.71 L 134.946 35.728 L 134.858 35.797 L 134.83 35.819 L 134.654 35.959 L 134.632 35.976 L 134.458 36.116 L 134.43 36.138 L 134.256 36.28 L 134.207 36.321 L 134.133 36.383 L 134.062 36.442 L 134.058 36.445 L 133.971 36.517 L 133.926 36.555 L 133.863 36.608 L 133.777 36.68 L 133.751 36.702 L 133.669 36.772 L 133.584 36.844 L 133.558 36.866 L 133.473 36.939 L 133.447 36.961 L 133.365 37.032 L 133.281 37.105 L 133.278 37.108 L 133.196 37.179 L 133.112 37.252 L 133.087 37.275 L 133.003 37.349 L 132.977 37.371 L 132.893 37.446 L 132.893 37.447 L 132.835 37.498 L 132.809 37.52 L 132.725 37.595 L 132.645 37.667 L 132.642 37.669 L 132.558 37.744 L 132.536 37.765 L 132.453 37.84 L 132.428 37.862 L 132.345 37.938 L 132.287 37.991 L 132.24 38.034 L 132.18 38.089 L 132.097 38.165 L 132.075 38.186 L 131.829 38.414 L 131.805 38.436 L 131.559 38.667 L 131.536 38.689 L 131.293 38.92 L 131.269 38.942 L 131.107 39.098 L 131.05 39.153 L 131.004 39.197 L 130.924 39.275 L 130.901 39.298 L 130.844 39.354 L 130.764 39.432 L 130.741 39.455 L 130.684 39.511 L 130.604 39.589 L 130.581 39.612 L 130.501 39.691 L 130.478 39.713 L 130.161 40.03 L 130.116 40.076 L 130.038 40.156 L 129.903 40.293 L 129.88 40.316 L 129.724 40.476 L 129.702 40.498 L 129.624 40.579 L 129.602 40.603 L 129.547 40.66 L 129.469 40.741 L 129.447 40.765 L 129.293 40.927 L 129.271 40.95 L 129.216 41.009 L 129.139 41.09 L 129.117 41.113 L 129.04 41.195 L 129.018 41.219 L 128.866 41.383 L 128.845 41.405 L 128.693 41.571 L 128.671 41.596 L 128.446 41.845 L 128.425 41.867 L 128.35 41.951 L 128.328 41.977 L 128.106 42.229 L 128.086 42.251 L 128.012 42.336 L 128.009 42.339 L 127.936 42.423 L 127.898 42.468 L 127.825 42.554 L 127.822 42.558 L 127.75 42.643 L 127.731 42.665 L 127.515 42.923 L 127.474 42.972 L 127.403 43.059 L 127.381 43.087 L 127.241 43.261 L 127.224 43.283 L 127.154 43.371 L 127.132 43.399 L 127.063 43.487 L 127.045 43.509 L 126.976 43.598 L 126.955 43.626 L 126.887 43.715 L 126.849 43.765 L 126.715 43.945 L 126.627 44.065 L 126.575 44.137 L 126.51 44.229 L 126.488 44.26 L 126.424 44.352 L 126.403 44.382 L 126.34 44.474 L 126.291 44.547 L 126.229 44.641 L 126.208 44.673 L 126.147 44.767 L 126.093 44.852 L 126.034 44.947 L 125.982 45.033 L 125.925 45.129 L 125.882 45.202 L 125.826 45.3 L 125.769 45.404 L 125.716 45.502 L 125.641 45.646 L 125.591 45.746 L 125.504 45.929 L 125.458 46.031 L 125.372 46.233 L 125.33 46.338 L 125.223 46.631 L 125.188 46.737 L 125.061 47.193 L 125.036 47.302 L 124.928 47.984 L 124.918 48.096 L 124.932 49.137 L 124.945 49.248 L 125.084 49.972 L 125.113 50.08 L 125.257 50.531 L 125.296 50.636 L 125.427 50.955 L 125.473 51.057 L 125.56 51.24 L 125.61 51.34 L 125.704 51.519 L 125.758 51.617 L 125.827 51.739 L 125.856 51.789 L 125.833 51.821 L 125.79 51.881 L 125.726 51.972 L 125.676 52.045 L 125.613 52.138 L 125.592 52.17 L 125.53 52.263 L 125.495 52.315 L 125.434 52.409 L 125.421 52.43 L 125.36 52.525 L 125.319 52.589 L 125.201 52.779 L 125.169 52.832 L 125.111 52.928 L 125.091 52.961 L 125.034 53.057 L 125.022 53.077 L 124.965 53.174 L 124.946 53.208 L 124.834 53.402 L 124.803 53.455 L 124.693 53.651 L 124.674 53.686 L 124.566 53.882 L 124.547 53.917 L 124.503 53.999 L 124.449 54.098 L 124.43 54.133 L 124.377 54.232 L 124.358 54.267 L 124.306 54.366 L 124.272 54.43 L 124.253 54.465 L 124.149 54.663 L 124.121 54.717 L 124.098 54.763 L 124.046 54.862 L 124.018 54.916 L 123.814 55.316 L 123.714 55.516 L 123.663 55.616 L 123.613 55.716 L 123.469 55.998 L 123.432 56.07 L 123.403 56.125 L 123.384 56.16 L 123.337 56.25 L 123.274 56.368 L 123.22 56.466 L 123.21 56.485 L 123.177 56.546 L 123.132 56.627 L 123.131 56.627 L 123.095 56.691 L 123.039 56.789 L 123.04 56.789 L 122.97 56.91 L 122.913 57.006 L 122.901 57.026 L 122.855 57.104 L 122.83 57.146 L 122.772 57.241 L 122.733 57.304 L 122.674 57.399 L 122.675 57.399 L 122.648 57.441 L 122.568 57.565 L 122.506 57.659 L 122.479 57.7 L 122.43 57.772 L 122.367 57.864 L 122.368 57.864 L 122.339 57.905 L 122.275 57.996 L 122.253 58.027 L 122.199 58.102 L 122.107 58.226 L 122.083 58.258 L 122.014 58.347 L 121.985 58.385 L 121.932 58.451 L 121.889 58.505 L 121.853 58.548 L 121.794 58.619 L 121.772 58.645 L 121.698 58.73 L 121.662 58.772 L 121.644 58.792 L 121.569 58.873 L 121.451 58.996 L 121.375 59.072 L 121.276 59.168 L 121.239 59.202 L 121.19 59.247 L 121.167 59.267 L 121.09 59.334 L 121.071 59.35 L 121.027 59.387 L 120.996 59.412 L 120.974 59.429 L 120.932 59.463 L 120.92 59.472 L 120.874 59.507 L 120.835 59.536 L 120.81 59.554 L 120.76 59.589 L 120.676 59.646 L 120.626 59.679 L 120.583 59.706 L 120.554 59.724 L 120.476 59.77 L 120.476 59.771 L 120.354 59.838 L 120.337 59.847 L 120.283 59.875 L 120.189 59.92 L 120.097 59.818 L 120.075 59.793 L 119.999 59.71 L 119.934 59.641 L 119.78 59.479 L 119.713 59.41 L 119.555 59.25 L 119.487 59.182 L 119.327 59.026 L 119.258 58.96 L 119.176 58.883 L 119.105 58.818 L 119.022 58.743 L 119 58.722 L 118.916 58.647 L 118.842 58.583 L 118.757 58.51 L 118.682 58.447 L 118.596 58.376 L 118.524 58.318 L 118.436 58.248 L 118.358 58.187 L 118.269 58.119 L 118.189 58.059 L 118.099 57.993 L 117.945 57.884 L 117.852 57.821 L 117.768 57.765 L 117.674 57.704 L 117.483 57.586 L 117.386 57.529 L 117.21 57.431 L 117.111 57.378 L 116.857 57.251 L 116.756 57.204 L 116.477 57.084 L 116.373 57.043 L 115.954 56.898 L 115.846 56.866 L 115.356 56.748 L 115.246 56.727 L 114.522 56.642 L 114.41 56.637 L 113.41 56.691 L 113.3 56.708 L 113.09 56.766 L 112.771 56.613 L 111.174 56.379 L 111.089 56.38 L 111.338 55.658 L 111.41 54.24 L 111.086 52.857 L 110.39 51.618 L 109.379 50.621 L 108.554 50.124 L 107.441 49.59 L 107.076 49.415 L 107.071 49.412 L 105.958 48.878 L 105.593 48.703 L 105.588 48.7 L 104.846 48.344 L 104.481 48.169 L 104.476 48.166 L 104.105 47.988 L 104.095 47.984 L 103.373 47.639 L 103.023 47.47 L 102.689 47.304 L 102.406 47.159 L 102.067 46.983 L 101.745 46.809 L 101.478 46.661 L 101.169 46.484 L 100.836 46.289 L 100.547 46.114 L 100.292 45.956 L 99.998 45.766 L 99.709 45.574 L 99.425 45.379 L 99.145 45.181 L 98.921 45.016 L 98.64 44.804 L 98.38 44.598 L 98.113 44.38 L 97.903 44.202 L 97.669 43.996 L 97.415 43.765 L 97.224 43.583 L 96.985 43.346 L 96.751 43.104 L 96.572 42.911 L 96.354 42.665 L 96.19 42.472 L 95.977 42.21 L 95.815 42.001 L 95.636 41.758 L 95.443 41.484 L 95.311 41.286 L 95.136 41.009 L 94.997 40.777 L 94.838 40.498 L 94.708 40.256 L 94.588 40.022 L 94.457 39.747 L 94.325 39.455 L 94.225 39.219 L 94.096 38.893 L 94.008 38.655 L 93.905 38.357 L 93.812 38.067 L 93.723 37.771 L 93.644 37.484 L 93.57 37.194 L 93.493 36.866 L 93.427 36.555 L 93.371 36.263 L 93.321 35.976 L 93.261 35.594 L 93.228 35.356 L 93.178 34.951 L 93.148 34.67 L 93.114 34.293 L 93.091 33.981 L 93.07 33.632 L 93.054 33.284 L 93.043 32.951 L 93.037 32.624 L 93.034 32.31 L 93.036 31.898 L 93.042 31.622 L 93.055 31.211 L 93.068 30.948 L 93.088 30.612 L 93.113 30.276 L 93.114 30.273 L 93.117 30.23 L 93.15 29.866 L 93.177 29.617 L 93.227 29.208 L 93.273 28.877 L 93.31 28.641 L 93.377 28.254 L 93.437 27.935 L 93.5 27.63 L 93.559 27.363 L 93.655 26.97 L 93.739 26.65 L 93.821 26.36 L 93.893 26.119 L 94.002 25.779 L 94.118 25.438 L 94.216 25.168 L 94.304 24.937 L 94.45 24.579 L 94.573 24.294 L 94.703 24.006 L 94.828 23.744 L 94.972 23.457 L 95.124 23.167 L 95.272 22.899 L 95.393 22.689 L 95.571 22.393 L 95.754 22.105 L 95.915 21.863 L 96.089 21.609 L 96.278 21.348 L 96.445 21.124 L 96.64 20.875 L 96.86 20.605 L 97.034 20.399 L 97.276 20.126 L 97.448 19.938 L 97.706 19.668 L 97.885 19.488 L 98.129 19.25 L 98.342 19.051 L 98.61 18.809 L 98.851 18.6 L 99.071 18.415 L 99.352 18.189 L 99.598 17.997 L 99.865 17.797 L 100.103 17.624 L 100.379 17.431 L 100.659 17.241 L 100.936 17.06 L 101.232 16.874 L 101.452 16.74 L 101.796 16.538 L 102.087 16.372 L 102.347 16.23 L 102.633 16.079 L 102.846 15.973 L 103.066 15.875 L 103.276 15.789 L 103.54 15.691 L 103.818 15.595 L 104.096 15.506 L 104.447 15.402 L 104.671 15.34 L 105.063 15.239 L 105.342 15.172 L 105.634 15.106 L 106.02 15.026 L 106.317 14.968 L 106.716 14.895 L 106.991 14.85 L 107.361 14.793 L 107.745 14.738 L 108.03 14.701 L 108.4 14.658 L 108.761 14.62 L 109.132 14.584 L 109.442 14.559 L 109.842 14.531 L 110.129 14.515 L 110.495 14.498 L 110.826 14.488 L 111.214 14.481 L 111.515 14.479 Z M 175.762 42.873 L 175.968 42.884 L 176.197 42.904 L 176.42 42.933 L 176.579 42.96 L 176.783 43.004 L 176.955 43.05 L 177.095 43.094 L 177.21 43.137 L 177.34 43.195 L 177.424 43.238 L 177.482 43.273 L 177.652 43.39 L 177.956 43.608 L 178.131 43.728 L 178.475 43.953 L 178.663 44.07 L 179.017 44.28 L 179.238 44.404 L 179.602 44.596 L 179.859 44.722 L 180.177 44.867 L 180.172 44.908 L 180.156 45.053 L 180.147 45.152 L 180.147 45.157 L 180.138 45.257 L 180.13 45.357 L 180.123 45.457 L 180.12 45.504 L 180.114 45.603 L 180.109 45.707 L 180.101 45.907 L 180.098 46.009 L 180.095 46.159 L 180.093 46.359 L 180.093 46.461 L 180.095 46.661 L 180.099 46.861 L 180.1 47.01 L 180.1 47.058 L 180.097 47.154 L 180.097 47.157 L 180.094 47.218 L 180.094 47.222 L 180.088 47.301 L 180.088 47.305 L 180.083 47.366 L 180.08 47.398 L 180.079 47.398 L 180.067 47.497 L 180.065 47.514 L 180.06 47.546 L 180.053 47.587 L 180.035 47.685 L 180.029 47.713 L 180.019 47.754 L 180.013 47.776 L 179.993 47.851 L 179.983 47.885 L 179.979 47.899 L 179.977 47.904 L 179.954 47.971 L 179.936 48.019 L 179.918 48.062 L 179.904 48.093 L 179.898 48.107 L 179.882 48.139 L 179.848 48.204 L 179.838 48.22 L 179.807 48.269 L 179.791 48.292 L 179.78 48.308 L 179.774 48.317 L 179.773 48.316 L 179.747 48.35 L 179.743 48.356 L 179.735 48.365 L 179.688 48.418 L 179.676 48.431 L 179.676 48.432 L 179.675 48.431 L 179.66 48.446 L 179.628 48.476 L 179.607 48.495 L 179.559 48.533 L 179.521 48.562 L 179.492 48.582 L 179.485 48.587 L 179.429 48.622 L 179.419 48.628 L 179.359 48.662 L 179.304 48.69 L 179.276 48.703 L 179.245 48.717 L 179.21 48.732 L 179.199 48.737 L 179.178 48.745 L 179.111 48.771 L 179.075 48.785 L 179.062 48.789 L 179.025 48.801 L 179.025 48.8 L 178.971 48.817 L 178.952 48.822 L 178.937 48.826 L 178.875 48.843 L 178.797 48.861 L 178.704 48.879 L 178.653 48.888 L 178.621 48.894 L 178.609 48.896 L 178.56 48.902 L 178.473 48.913 L 178.413 48.918 L 178.326 48.925 L 178.294 48.927 L 178.269 48.929 L 178.17 48.932 L 178.025 48.932 L 177.929 48.929 L 177.926 48.929 L 177.84 48.925 L 177.782 48.92 L 177.778 48.92 L 177.728 48.916 L 177.665 48.91 L 177.635 48.907 L 177.629 48.906 L 177.585 48.901 L 177.493 48.89 L 177.438 48.882 L 177.372 48.871 L 177.289 48.856 L 177.233 48.846 L 177.145 48.828 L 177.112 48.821 L 176.965 48.786 L 176.936 48.779 L 176.91 48.772 L 176.826 48.749 L 176.681 48.707 L 176.633 48.692 L 176.633 48.693 L 176.599 48.682 L 176.475 48.64 L 176.441 48.628 L 176.417 48.619 L 176.323 48.584 L 176.262 48.561 L 176.192 48.533 L 176.099 48.495 L 176.038 48.468 L 175.947 48.428 L 175.925 48.418 L 175.858 48.387 L 175.82 48.369 L 175.712 48.316 L 175.665 48.292 L 175.577 48.245 L 175.556 48.234 L 175.475 48.191 L 175.461 48.183 L 175.413 48.156 L 175.298 48.09 L 175.236 48.053 L 175.092 47.963 L 175.042 47.932 L 175.042 47.931 L 174.959 47.876 L 174.935 47.861 L 174.933 47.86 L 174.754 47.735 L 174.587 47.613 L 174.572 47.602 L 174.524 47.566 L 174.525 47.565 L 174.454 47.51 L 174.424 47.486 L 174.315 47.398 L 174.204 47.305 L 174.107 47.222 L 174.097 47.213 L 174.036 47.158 L 173.986 47.113 L 173.966 47.094 L 173.94 47.071 L 173.901 47.035 L 173.872 47.007 L 173.847 46.983 L 173.796 46.935 L 173.772 46.911 L 173.708 46.848 L 173.637 46.778 L 173.572 46.711 L 173.528 46.665 L 173.503 46.638 L 173.373 46.498 L 173.287 46.403 L 173.239 46.35 L 173.171 46.277 L 173.12 46.224 L 173.05 46.151 L 173.001 46.101 L 172.931 46.03 L 172.88 45.979 L 172.809 45.909 L 172.733 45.835 L 172.66 45.766 L 172.633 45.74 L 172.56 45.672 L 172.453 45.576 L 172.378 45.51 L 172.324 45.463 L 172.248 45.398 L 172.163 45.327 L 172.086 45.264 L 172.006 45.2 L 171.927 45.138 L 171.839 45.07 L 171.759 45.01 L 171.645 44.927 L 171.563 44.869 L 171.436 44.782 L 171.353 44.727 L 171.235 44.651 L 171.15 44.598 L 170.993 44.505 L 170.906 44.455 L 170.769 44.378 L 170.681 44.331 L 170.492 44.236 L 170.781 44.165 L 171.227 44.034 L 171.615 43.9 L 171.931 43.778 L 172.31 43.618 L 172.421 43.57 L 172.709 43.44 L 172.913 43.358 L 173.121 43.282 L 173.395 43.192 L 173.611 43.129 L 173.813 43.078 L 174.09 43.017 L 174.31 42.975 L 174.582 42.934 L 174.801 42.908 L 175.056 42.885 L 175.301 42.872 L 175.503 42.868 Z M 165.048 43.564 L 165.421 43.738 L 165.64 43.827 L 165.613 43.835 L 165.518 43.867 L 165.054 44.049 L 164.963 44.09 L 164.863 44.14 L 164.863 44.135 L 164.862 44.023 L 164.862 43.978 L 164.86 43.866 L 164.857 43.775 L 164.849 43.551 L 164.845 43.461 Z M 150.811 20.046 L 151.005 20.408 L 151.36 20.977 L 151.6 21.31 L 151.966 21.761 L 152.243 22.065 L 152.563 22.386 L 152.866 22.664 L 153.159 22.913 L 153.482 23.167 L 153.699 23.329 L 154.036 23.566 L 154.224 23.691 L 154.57 23.912 L 154.712 24 L 155.066 24.21 L 155.185 24.279 L 155.544 24.479 L 155.632 24.526 L 155.995 24.719 L 156.068 24.757 L 156.434 24.944 L 156.449 24.952 L 156.773 25.116 L 157.07 25.272 L 157.348 25.424 L 157.55 25.542 L 157.683 25.626 L 157.691 25.689 L 157.718 25.996 L 157.744 26.312 L 157.755 26.548 L 157.759 26.834 L 157.757 27.11 L 157.748 27.374 L 157.731 27.701 L 157.708 27.996 L 157.68 28.287 L 157.64 28.622 L 157.603 28.888 L 157.55 29.208 L 157.504 29.453 L 157.45 29.699 L 157.395 29.913 L 157.332 30.114 L 157.226 30.424 L 157.176 30.576 L 157.055 30.969 L 156.98 31.239 L 156.881 31.638 L 156.793 32.07 L 156.729 32.476 L 156.678 33.046 L 156.645 33.034 L 156.619 33.025 L 156.514 32.988 L 156.446 32.964 L 156.339 32.928 L 156.312 32.919 L 156.206 32.884 L 156.111 32.854 L 155.897 32.788 L 155.855 32.775 L 155.748 32.743 L 155.694 32.727 L 155.586 32.696 L 155.545 32.685 L 155.437 32.655 L 155.394 32.643 L 155.286 32.614 L 155.275 32.611 L 155.166 32.582 L 155.092 32.563 L 154.984 32.536 L 154.974 32.533 L 154.865 32.506 L 154.822 32.496 L 154.713 32.47 L 154.66 32.458 L 154.55 32.433 L 154.517 32.425 L 154.299 32.377 L 154.246 32.366 L 154.136 32.343 L 154.093 32.334 L 153.873 32.29 L 153.829 32.282 L 153.719 32.261 L 153.676 32.252 L 153.566 32.232 L 153.558 32.231 L 153.447 32.211 L 153.411 32.205 L 153.301 32.186 L 153.293 32.184 L 153.182 32.165 L 153.145 32.159 L 153.035 32.141 L 152.984 32.133 L 152.873 32.116 L 152.829 32.11 L 152.762 32.1 L 152.651 32.083 L 152.563 32.07 L 152.23 32.025 L 152.141 32.014 L 152.03 32.001 L 151.963 31.993 L 151.913 31.986 L 151.801 31.973 L 151.762 31.969 L 151.651 31.957 L 151.646 31.957 L 151.534 31.945 L 151.494 31.94 L 151.383 31.929 L 151.378 31.929 L 151.266 31.918 L 151.226 31.914 L 151.115 31.904 L 151.111 31.904 L 150.999 31.894 L 150.954 31.89 L 150.846 31.881 L 150.735 31.872 L 150.731 31.872 L 150.619 31.863 L 150.574 31.86 L 150.462 31.852 L 150.417 31.849 L 150.196 31.835 L 150.085 31.828 L 150.037 31.825 L 149.925 31.819 L 149.88 31.817 L 149.544 31.802 L 149.499 31.8 L 149.275 31.792 L 149.23 31.79 L 148.894 31.781 L 148.803 31.78 L 148.736 31.779 L 148.624 31.777 L 148.579 31.777 L 148.466 31.776 L 148.354 31.775 L 148.224 31.775 L 148.609 31.02 L 148.637 30.928 L 148.72 30.621 L 148.743 30.524 L 148.755 30.475 L 148.769 30.416 L 148.789 30.329 L 148.79 30.329 L 148.813 30.232 L 148.825 30.183 L 148.837 30.135 L 148.86 30.038 L 148.862 30.027 L 148.871 29.988 L 148.895 29.891 L 148.907 29.843 L 148.944 29.686 L 148.947 29.676 L 148.953 29.649 L 148.968 29.588 L 148.977 29.551 L 149.023 29.357 L 149.035 29.308 L 149.047 29.26 L 149.07 29.163 L 149.072 29.152 L 149.081 29.113 L 149.105 29.016 L 149.117 28.968 L 149.154 28.811 L 149.178 28.713 L 149.187 28.676 L 149.233 28.482 L 149.245 28.433 L 149.259 28.374 L 149.279 28.287 L 149.28 28.287 L 149.303 28.19 L 149.315 28.141 L 149.327 28.093 L 149.35 27.996 L 149.352 27.985 L 149.361 27.946 L 149.385 27.849 L 149.397 27.801 L 149.443 27.607 L 149.455 27.558 L 149.469 27.499 L 149.489 27.412 L 149.49 27.412 L 149.513 27.315 L 149.525 27.266 L 149.537 27.218 L 149.56 27.121 L 149.562 27.11 L 149.571 27.071 L 149.595 26.974 L 149.607 26.926 L 149.644 26.769 L 149.648 26.755 L 149.653 26.732 L 149.668 26.671 L 149.677 26.634 L 149.723 26.44 L 149.735 26.391 L 149.749 26.332 L 149.769 26.245 L 149.77 26.245 L 149.793 26.148 L 149.805 26.099 L 149.817 26.051 L 149.854 25.894 L 149.878 25.796 L 149.887 25.759 L 149.91 25.662 L 149.922 25.613 L 149.934 25.565 L 149.957 25.468 L 149.97 25.409 L 149.979 25.37 L 150.002 25.273 L 150.015 25.214 L 150.037 25.116 L 150.046 25.078 L 150.067 24.981 L 150.08 24.921 L 150.101 24.824 L 150.111 24.775 L 150.132 24.677 L 150.182 24.432 L 150.192 24.384 L 150.23 24.188 L 150.257 24.041 L 150.268 23.981 L 150.276 23.942 L 150.294 23.844 L 150.304 23.786 L 150.32 23.695 L 150.337 23.597 L 150.338 23.589 L 150.355 23.49 L 150.362 23.449 L 150.371 23.392 L 150.388 23.293 L 150.404 23.194 L 150.411 23.145 L 150.412 23.144 L 150.419 23.095 L 150.427 23.046 L 150.434 23.004 L 150.449 22.906 L 150.457 22.849 L 150.464 22.799 L 150.479 22.7 L 150.486 22.651 L 150.5 22.552 L 150.507 22.502 L 150.513 22.453 L 150.516 22.436 L 150.52 22.403 L 150.527 22.354 L 150.541 22.248 L 150.546 22.204 L 150.559 22.105 L 150.566 22.055 L 150.59 21.857 L 150.59 21.851 L 150.602 21.751 L 150.607 21.707 L 150.629 21.509 L 150.635 21.453 L 150.639 21.409 L 150.65 21.31 L 150.661 21.204 L 150.665 21.159 L 150.675 21.06 L 150.68 21.005 L 150.698 20.805 L 150.702 20.759 L 150.71 20.66 L 150.71 20.656 L 150.726 20.46 L 150.734 20.361 L 150.738 20.307 L 150.745 20.207 L 150.751 20.107 L 150.758 20.007 L 150.761 19.96 L 150.762 19.938 Z" fill="#000000" fill-rule="nonzero" stroke="none" data-offset="-0.4mm"/></svg>