<?xml version="1.0" standalone="no"?>
<!DOCTYPE svg PUBLIC "-//W3C//DTD SVG 20010904//EN"
 "http://www.w3.org/TR/2001/REC-SVG-20010904/DTD/svg10.dtd">
<svg version="1.0" xmlns="http://www.w3.org/2000/svg"
 width="424.976907pt" height="430.959125pt" viewBox="0 0 424.976907 430.959125"
 preserveAspectRatio="xMidYMid meet">
<metadata>
Created by potrace 1.16, written by Peter Selinger 2001-2019
</metadata>
<g transform="translate(-9.000000,437.959125) scale(0.100000,-0.100000)"
fill="#000000" stroke="none">
<path d="M169 4358 c-11 -21 -8 -111 8 -198 5 -33 5 -34 -13 -19 -35 30 -54
31 -64 3 -6 -14 -10 -38 -10 -53 0 -72 60 -228 123 -320 81 -117 81 -118 -14
-44 -74 57 -89 57 -89 -4 0 -79 79 -214 182 -314 21 -20 38 -39 38 -42 0 -3
-25 7 -56 24 -68 35 -82 36 -90 5 -14 -55 72 -178 191 -270 41 -33 73 -61 71
-63 -2 -2 -21 3 -41 11 -76 32 -101 15 -60 -44 49 -70 192 -164 345 -227 19
-8 7 -9 -51 -5 -121 7 -117 -21 13 -96 121 -69 317 -112 507 -112 101 0 120
-3 165 -25 72 -35 146 -47 251 -40 105 7 218 -11 223 -36 2 -9 -31 -48 -73
-88 -42 -40 -74 -76 -70 -79 4 -4 34 -6 67 -6 l60 1 -5 -41 c-2 -22 -14 -116
-26 -208 -21 -158 -22 -171 -7 -222 16 -55 44 -86 78 -86 15 0 16 -4 8 -26 -6
-14 -10 -38 -10 -54 0 -23 5 -31 26 -36 21 -5 33 1 66 32 22 22 49 52 60 67
l21 29 -23 30 c-15 21 -20 37 -15 55 6 26 56 83 72 83 5 0 30 -26 56 -57 26
-32 56 -67 66 -78 26 -26 100 -176 108 -217 3 -18 9 -37 13 -43 4 -5 10 -26
14 -45 3 -19 10 -55 15 -80 5 -25 12 -91 16 -147 7 -91 5 -113 -19 -210 -37
-146 -42 -158 -105 -238 -125 -159 -263 -267 -472 -369 -130 -64 -204 -129
-233 -205 -15 -38 -15 -52 -5 -95 18 -79 24 -86 73 -86 60 0 81 24 72 84 -13
82 36 138 189 216 201 104 223 120 399 294 138 137 180 211 203 365 23 151 13
346 -27 491 -37 138 -108 284 -192 392 -32 43 -57 82 -53 87 9 15 112 33 145
26 36 -8 60 -39 60 -78 0 -37 21 -43 75 -23 44 17 135 81 135 95 0 4 -6 16
-14 26 -12 17 -19 18 -64 9 l-50 -10 -6 35 c-10 58 -87 131 -138 131 -27 0
-28 2 -27 48 2 68 12 105 29 107 8 1 42 6 75 10 33 4 76 14 95 23 41 18 143
29 325 35 113 4 143 9 230 38 67 22 110 42 129 61 16 16 43 31 60 34 133 22
291 76 416 142 192 101 283 180 239 207 -6 4 17 26 53 50 68 45 128 106 128
130 0 19 -34 28 -73 20 -32 -7 -32 -7 13 26 138 100 276 279 215 279 -8 0 -37
-9 -65 -19 l-50 -19 38 46 c140 170 163 283 43 210 -41 -25 -43 -29 40 72 96
115 136 223 77 204 -19 -6 -19 -4 4 27 14 19 33 48 42 66 18 36 22 103 6 103
-6 0 -37 -26 -69 -57 -55 -56 -285 -225 -421 -311 -36 -23 -103 -68 -150 -99
-46 -32 -183 -125 -305 -207 -291 -197 -366 -249 -391 -278 -12 -12 -35 -55
-52 -95 -50 -120 -101 -202 -176 -280 -80 -85 -131 -123 -214 -160 l-57 -25
20 24 c11 12 39 41 63 64 42 41 54 80 33 113 -6 8 -3 27 6 50 19 44 22 82 29
331 13 525 12 640 -7 640 -4 0 -72 -72 -151 -160 -78 -88 -148 -160 -156 -160
-7 0 -43 4 -80 10 -37 5 -80 11 -97 13 -32 3 -34 7 -217 274 -39 58 -66 89
-72 83 -17 -17 -64 -229 -76 -343 -9 -84 -24 -148 -61 -260 -27 -81 -56 -185
-64 -230 -9 -45 -20 -98 -25 -118 -15 -55 -12 -79 15 -137 34 -73 31 -81 -11
-36 -71 76 -176 229 -216 314 -89 190 -55 155 -292 307 -334 215 -541 389
-715 598 -104 125 -182 262 -202 357 -12 52 -31 62 -50 26z m37 -35 c11 -67
110 -250 180 -336 108 -132 283 -299 413 -395 42 -31 81 -60 86 -64 39 -33
147 -105 194 -130 60 -33 217 -146 243 -175 9 -10 46 -76 83 -148 59 -113 108
-186 214 -323 14 -18 44 -45 65 -60 50 -34 116 -117 116 -145 0 -19 -4 -18
-37 14 -59 55 -73 64 -73 48 0 -8 16 -25 35 -39 19 -14 35 -29 35 -34 0 -10
-57 0 -120 21 -43 14 -100 57 -100 75 0 4 25 8 56 8 l56 0 -67 72 c-36 40 -86
103 -111 140 -25 38 -47 68 -50 68 -10 0 -2 -19 30 -67 19 -28 31 -54 28 -57
-12 -12 -109 -5 -154 11 -63 22 -138 91 -138 126 l0 26 38 -16 c46 -19 142
-33 161 -23 7 4 -16 10 -52 13 -166 15 -332 152 -359 295 -5 31 -5 56 3 74
l11 28 47 -27 c25 -15 65 -39 89 -55 46 -30 52 -32 52 -20 0 5 -51 39 -112 76
-121 72 -364 246 -469 336 -141 121 -268 268 -352 405 -57 94 -97 315 -57 315
5 0 12 -17 16 -37z m-14 -229 c9 -11 43 -60 76 -110 33 -50 91 -124 128 -165
38 -40 81 -86 97 -103 23 -25 27 -37 27 -91 0 -56 4 -69 51 -146 28 -46 67
-101 87 -121 40 -42 38 -47 -9 -19 -17 11 -37 17 -44 14 -34 -12 43 -142 133
-224 36 -33 49 -49 34 -45 -31 10 -38 -15 -16 -51 24 -37 95 -101 153 -136 25
-16 36 -27 25 -24 -12 2 -28 1 -35 -4 -21 -13 10 -57 65 -96 25 -17 40 -33 34
-35 -9 -3 -8 -11 4 -30 14 -22 89 -65 168 -97 71 -28 -186 -1 -328 35 -91 23
-193 71 -243 114 l-24 21 163 -4 c166 -4 222 6 87 16 -130 10 -343 114 -434
212 -39 43 -51 65 -33 65 8 0 176 -57 292 -98 72 -26 124 -37 116 -24 -3 5
-21 12 -40 15 -52 8 -188 71 -276 128 -43 27 -107 81 -143 118 -85 91 -134
191 -92 191 24 0 146 -64 197 -103 62 -47 190 -117 214 -117 10 1 -24 23 -76
50 -52 27 -117 70 -145 95 -27 25 -69 62 -92 82 -51 42 -124 142 -158 215 -23
49 -34 128 -18 128 14 0 200 -147 259 -205 34 -33 81 -70 105 -83 l44 -23 -40
33 c-181 149 -300 305 -364 478 -21 58 -33 145 -24 179 5 20 6 20 32 2 14 -10
34 -27 43 -37z m4127 -56 c-10 -36 -46 -90 -102 -154 -21 -24 -36 -44 -33 -44
3 0 26 14 51 31 25 17 49 29 51 26 9 -9 -31 -90 -67 -139 -129 -172 -262 -299
-394 -375 -72 -41 -80 -55 -14 -23 52 24 131 82 222 163 110 97 187 140 187
105 0 -44 -126 -219 -195 -272 -19 -15 -92 -62 -162 -106 -70 -44 -121 -80
-113 -80 15 0 113 57 230 134 72 48 188 101 198 91 12 -11 -38 -81 -107 -151
-89 -89 -230 -185 -383 -260 -122 -60 -124 -62 -116 -69 6 -6 148 63 258 126
114 65 218 74 163 13 -88 -96 -331 -229 -563 -307 -10 -4 -8 -6 6 -6 32 -1
125 33 248 93 140 67 156 72 156 52 0 -25 -106 -102 -220 -160 -102 -53 -310
-128 -387 -141 -37 -6 -36 -5 24 30 34 19 72 48 83 62 19 24 19 29 6 38 -12 9
-9 14 20 30 39 21 104 88 104 108 0 7 -5 18 -10 23 -8 8 2 19 30 38 75 50 138
131 126 162 -5 12 -10 13 -28 3 -13 -7 4 12 36 42 67 61 116 131 116 166 0 25
-10 28 -43 12 -13 -6 -5 6 18 28 91 86 162 202 147 242 -2 8 6 22 19 32 13 10
19 19 13 19 -6 0 -51 -28 -100 -63 -101 -71 -264 -180 -279 -186 -5 -2 -35
-21 -65 -41 -30 -20 -82 -51 -115 -69 -65 -34 -116 -70 -99 -71 10 0 165 89
234 134 19 13 62 40 95 61 33 21 84 54 114 74 158 105 166 110 169 97 6 -26
-40 -109 -90 -163 -76 -80 -269 -232 -320 -252 l-24 -9 4 64 c2 35 0 64 -4 64
-5 0 -10 -27 -10 -59 -1 -45 -8 -70 -30 -107 -69 -118 -215 -222 -338 -239
-47 -7 -48 -7 -41 16 4 13 14 36 22 52 7 15 9 27 4 27 -5 0 -14 -14 -22 -32
-35 -86 -171 -247 -264 -314 -87 -62 -165 -94 -259 -106 -45 -5 -101 -19 -125
-29 -24 -11 -45 -18 -47 -16 -10 10 143 110 200 131 182 66 334 212 425 411
44 96 50 108 64 125 34 44 229 187 463 340 55 36 450 304 515 350 162 113 270
194 303 228 44 46 59 46 45 0z m-2435 -269 c-3 -5 -1 -16 5 -23 6 -7 18 -29
26 -49 15 -36 15 -37 -4 -25 -11 6 -18 15 -15 19 2 4 -5 18 -16 30 -11 13 -19
19 -20 14 0 -6 5 -16 12 -23 9 -9 9 -12 0 -12 -7 0 3 -23 23 -51 19 -28 35
-59 35 -68 -1 -17 -2 -15 -49 48 l-18 25 0 -28 c0 -21 3 -26 15 -21 9 3 13 3
10 -1 -4 -4 -3 -15 3 -25 13 -26 2 -24 -38 7 -40 30 -40 40 -11 162 23 93 23
93 36 62 7 -17 10 -36 6 -41z m118 -99 c58 -85 108 -152 121 -161 5 -3 46 -9
92 -13 46 -3 95 -10 108 -15 26 -10 15 -21 227 225 25 29 48 53 52 53 4 1 -15
-32 -41 -71 -77 -117 -84 -133 -76 -192 4 -28 13 -61 20 -72 13 -20 12 -22 -8
-28 -12 -3 -41 -6 -65 -6 -42 0 -150 -45 -138 -57 3 -4 27 4 54 17 67 34 177
35 221 2 25 -18 31 -20 31 -7 0 8 -11 21 -25 27 -27 12 -35 31 -10 22 8 -4 15
-1 15 5 0 6 -9 11 -20 11 -31 0 -24 18 10 25 17 4 30 13 30 21 0 16 -18 18
-54 4 -16 -6 -26 -6 -26 0 0 11 62 70 73 70 5 0 5 5 2 10 -3 6 1 13 9 16 9 3
16 10 16 15 0 14 -40 -9 -77 -44 -37 -35 -43 -27 -14 17 11 17 17 35 14 40 -3
6 -2 8 2 3 10 -8 65 41 65 57 0 6 -4 5 -9 -2 -4 -7 -15 -14 -24 -16 -9 -1 -28
-13 -43 -27 l-26 -24 22 38 c13 21 36 48 51 60 27 19 42 46 19 32 -15 -9 -12
6 6 26 8 9 16 26 17 38 1 11 5 21 10 21 5 0 6 -98 2 -222 -4 -123 -7 -266 -7
-318 0 -58 -4 -85 -8 -69 -35 123 -192 158 -296 66 -111 -97 -118 -202 -18
-275 60 -44 96 -56 152 -48 62 8 107 41 138 101 l26 50 -5 -90 c-7 -118 -19
-151 -58 -159 -20 -4 -57 -34 -114 -95 -47 -49 -102 -97 -123 -107 -39 -18
-170 -35 -178 -23 -2 4 -14 6 -26 4 -12 -3 -26 1 -30 8 -6 9 -10 9 -17 -1 -6
-11 -11 -10 -24 3 -9 9 -21 14 -26 10 -5 -3 -12 -1 -16 5 -4 6 -11 8 -16 5 -5
-4 -9 -1 -9 5 0 7 -7 9 -15 6 -9 -3 -18 1 -21 9 -4 8 -10 12 -15 9 -5 -3 -9 0
-9 6 0 7 -7 10 -15 6 -11 -4 -15 1 -15 17 0 18 -2 19 -10 7 -8 -13 -10 -12
-10 3 0 10 -4 15 -10 12 -5 -3 -10 2 -11 12 0 12 -2 13 -6 5 -6 -16 -52 77
-83 171 -22 65 -30 73 -67 68 -32 -4 -11 91 72 344 22 65 36 131 40 188 4 48
10 87 15 87 4 0 15 -11 24 -24 8 -14 25 -27 36 -31 33 -11 23 -27 -12 -20 -32
6 -33 6 -9 -8 l24 -14 -21 -12 c-12 -6 -22 -16 -22 -21 0 -5 10 -3 23 3 36 19
77 54 77 66 0 6 4 11 10 11 15 0 0 116 -26 195 l-24 70 26 -30 c13 -16 48 -64
76 -105z m-1426 -31 c22 -24 150 -122 211 -161 23 -15 67 -47 97 -72 30 -24
62 -48 71 -54 15 -8 16 -13 4 -45 -10 -28 -10 -47 -2 -84 6 -26 10 -49 8 -51
-7 -8 -97 36 -150 73 -154 108 -275 272 -275 371 0 49 8 54 36 23z m223 -404
c45 -30 105 -61 133 -70 43 -12 59 -24 88 -62 19 -26 60 -67 90 -92 36 -29 56
-53 58 -70 2 -14 13 -38 24 -53 23 -33 95 -84 130 -93 18 -5 28 -15 32 -35 8
-40 68 -98 111 -106 20 -3 41 -14 48 -23 6 -9 29 -30 49 -48 34 -29 35 -31 15
-37 -41 -11 -143 -6 -195 9 -60 18 -78 36 -28 28 38 -6 131 5 122 14 -3 3 -45
5 -93 4 -130 -3 -277 38 -346 95 -35 29 -23 30 74 4 51 -14 103 -19 169 -18
l95 1 -100 8 c-100 8 -191 34 -270 76 -44 24 -95 68 -95 84 0 11 53 4 165 -22
44 -10 100 -18 125 -18 37 1 28 4 -50 19 -106 20 -205 56 -259 96 -90 67 -167
160 -115 140 9 -3 28 -9 42 -12 15 -4 56 -24 92 -45 64 -37 131 -62 200 -73
57 -10 20 9 -55 28 -38 9 -90 29 -115 44 -25 15 -57 33 -73 42 -47 26 -137
103 -177 150 -41 50 -82 124 -73 133 8 9 91 -36 182 -98z m2900 -1 c-13 -26
-53 -73 -88 -105 -62 -57 -213 -149 -244 -149 -9 0 -19 -5 -22 -10 -12 -19 47
1 121 40 40 21 86 41 104 45 l32 7 -16 -29 c-30 -59 -174 -168 -271 -205 -31
-11 -53 -23 -51 -25 6 -7 76 16 104 34 13 8 35 17 48 19 38 7 30 -29 -13 -64
-93 -72 -209 -112 -322 -112 -32 0 -51 -4 -51 -11 0 -20 153 1 273 37 29 9 20
-22 -15 -48 -77 -59 -186 -92 -326 -102 -41 -2 -77 -7 -80 -10 -9 -9 97 -7
172 4 38 6 72 8 75 4 12 -12 -44 -45 -119 -68 -94 -30 -224 -48 -285 -40 l-44
7 29 23 c15 13 52 32 82 41 59 19 148 98 148 132 0 14 15 26 53 44 28 13 76
46 105 72 42 38 52 53 50 74 -3 22 6 32 54 64 69 46 178 151 178 172 0 8 19
24 43 36 23 12 80 49 127 84 75 55 158 99 169 90 1 -2 -8 -25 -20 -51z m-1154
19 c32 -23 65 -90 65 -132 0 -18 -12 -57 -27 -88 -22 -44 -36 -60 -68 -74 -60
-28 -103 -24 -165 14 -59 35 -100 86 -100 124 0 57 81 152 147 173 40 13 119
4 148 -17z m-802 -370 c3 -18 23 -70 45 -116 38 -82 77 -131 94 -121 4 3 8 1
8 -5 0 -6 13 -26 30 -44 l30 -35 -33 -13 c-17 -7 -45 -21 -61 -32 l-29 -20 6
34 c4 19 2 41 -3 49 -5 8 -10 11 -10 7 0 -4 -15 9 -32 30 -18 21 -36 40 -40
43 -3 3 -27 47 -53 98 -43 86 -46 94 -35 127 6 19 13 35 14 35 2 0 3 -17 2
-37 -1 -31 2 -38 18 -38 29 0 41 52 15 65 -28 15 -23 30 5 17 16 -8 26 -23 29
-44z m1373 -78 c-22 -33 -72 -70 -138 -100 -65 -29 -139 -40 -131 -19 3 8 9
14 13 14 5 0 32 29 60 65 43 55 57 65 83 66 18 0 50 6 72 13 49 15 66 -1 41
-39z m-590 -27 c-37 -52 -33 -81 11 -76 21 2 29 9 31 27 2 13 -1 28 -7 34 -6
6 -11 15 -11 21 0 5 9 -1 20 -14 11 -12 18 -31 17 -41 -5 -28 -176 -176 -247
-212 l-64 -33 -18 -115 c-10 -63 -17 -129 -16 -148 3 -30 7 -35 32 -38 71 -10
136 -71 136 -130 0 -32 2 -34 28 -29 31 7 65 -14 57 -36 -8 -19 -55 -46 -89
-50 -26 -3 -30 1 -40 37 -14 48 -91 109 -107 84 -7 -12 -9 -11 -9 1 0 12 -2
12 -8 2 -5 -7 -16 -10 -25 -6 -9 3 -17 2 -17 -3 0 -5 -24 -17 -52 -28 -29 -10
-62 -24 -74 -32 -11 -7 -24 -10 -27 -6 -4 3 -7 1 -7 -5 0 -7 -7 -12 -15 -12
-8 0 -15 -5 -15 -11 0 -5 -4 -7 -10 -4 -5 3 -10 -2 -10 -12 0 -15 -2 -16 -10
-3 -8 12 -10 10 -10 -10 0 -18 -3 -21 -9 -12 -10 16 -19 -10 -27 -75 -4 -35
-2 -43 15 -53 12 -6 21 -15 21 -19 0 -13 -92 -113 -98 -107 -3 3 1 12 8 21 9
11 9 15 1 15 -6 0 -14 -7 -18 -16 -11 -28 -23 9 -14 42 5 19 15 30 29 32 33 5
27 22 -8 22 -48 0 -78 20 -96 64 -21 52 -21 156 0 254 8 40 18 100 22 132 5
46 11 61 25 65 11 4 19 11 19 16 0 6 4 8 9 4 5 -3 12 -1 16 5 4 6 11 8 16 5 5
-4 9 -2 9 2 0 5 16 15 35 22 50 18 60 6 80 -99 10 -50 21 -90 26 -90 5 0 9
-10 9 -21 0 -18 2 -19 15 -9 8 7 15 19 15 26 0 8 4 14 9 14 5 0 28 39 52 86
42 83 44 91 44 174 0 49 3 86 8 83 4 -2 7 3 7 11 0 9 5 16 11 16 6 0 25 11 42
24 18 13 48 27 67 31 27 6 58 31 130 106 98 101 114 115 86 77z m-981 -47 c19
-24 43 -50 52 -57 31 -22 6 -27 -71 -17 -82 12 -127 36 -151 83 -8 15 -12 29
-10 31 2 2 35 4 74 4 l71 0 35 -44z m1375 -82 c0 -22 -43 -70 -85 -95 -45 -26
-121 -39 -157 -25 -17 6 -12 12 39 43 32 20 69 48 82 62 20 21 34 26 73 26 28
0 48 -5 48 -11z m-226 -139 c25 0 27 -2 15 -16 -15 -18 -61 -43 -103 -55 -18
-5 -55 -5 -93 2 -92 16 -92 28 -1 45 20 3 54 12 75 20 21 7 47 12 58 9 11 -3
33 -5 49 -5z m-245 -69 l24 -18 -49 -16 c-106 -33 -164 -28 -122 10 53 47 106
56 147 24z m-228 -586 c21 -27 39 -55 39 -61 0 -7 18 -44 41 -83 24 -43 52
-114 72 -183 30 -108 31 -122 31 -293 0 -201 -10 -304 -30 -312 -8 -3 -11 -9
-8 -14 3 -5 -3 -9 -13 -9 -12 0 -14 -3 -6 -8 9 -6 7 -18 -7 -50 -22 -50 -90
-133 -102 -126 -4 3 -8 -2 -8 -10 0 -19 -16 -21 -23 -3 -3 6 -6 0 -6 -15 -1
-18 -10 -33 -28 -45 -15 -10 -50 -41 -78 -68 -69 -70 -138 -115 -165 -108 -16
4 -23 0 -26 -14 -6 -20 -98 -73 -126 -73 -8 0 -21 -9 -31 -20 -9 -11 -24 -20
-32 -20 -8 0 -15 -4 -15 -10 0 -5 -11 -12 -25 -16 -14 -3 -25 -12 -25 -19 0
-7 -7 -15 -15 -19 -8 -3 -15 0 -15 7 0 8 -4 6 -10 -3 -8 -12 -10 -12 -10 -1 0
10 -10 12 -42 8 l-43 -5 57 52 c37 35 95 73 169 111 108 54 170 92 231 139 14
12 41 32 59 46 54 41 101 91 158 168 30 39 57 72 62 72 12 0 39 60 39 86 0 13
4 25 10 29 5 3 7 12 4 19 -3 8 0 17 5 21 6 3 9 10 6 15 -3 5 1 35 9 67 16 63
27 203 16 203 -3 0 -5 16 -4 35 2 19 -1 37 -7 41 -6 3 -7 24 -3 50 4 32 3 44
-6 44 -9 0 -11 12 -7 40 3 22 1 40 -4 40 -5 0 -11 11 -15 25 -3 14 -10 23 -14
20 -5 -3 -11 5 -15 17 -7 26 -13 41 -47 112 -35 74 -42 86 -50 86 -5 0 -8 7
-8 15 0 28 -23 65 -34 56 -8 -6 -12 1 -13 22 -2 17 3 35 10 39 12 8 23 -2 98
-97z m-661 -1629 c-6 -6 -10 -26 -11 -45 -1 -20 -5 -47 -10 -61 -6 -17 -7 -6
-3 35 2 33 9 64 14 69 4 4 6 16 3 25 -4 14 -3 14 6 1 6 -9 7 -18 1 -24z m25
-26 c-9 -41 -17 -33 -9 9 4 17 9 30 11 27 3 -2 2 -19 -2 -36z"/>
<path d="M1190 3210 c0 -5 11 -12 25 -16 14 -3 25 -10 25 -15 0 -5 5 -9 10 -9
20 0 9 20 -20 35 -34 18 -40 18 -40 5z"/>
<path d="M1270 3170 c0 -7 17 -35 38 -63 20 -28 49 -71 64 -96 15 -25 28 -40
28 -34 0 7 -23 51 -51 97 -51 87 -79 120 -79 96z"/>
<path d="M4015 3724 c-96 -72 -145 -121 -73 -72 79 52 178 130 178 139 0 13 5
16 -105 -67z"/>
<path d="M3185 3170 c-3 -5 -1 -10 4 -10 6 0 11 5 11 10 0 6 -2 10 -4 10 -3 0
-8 -4 -11 -10z"/>
<path d="M3102 3107 c-23 -23 -42 -49 -42 -59 0 -11 13 -3 43 26 61 61 73 76
56 76 -8 -1 -33 -20 -57 -43z"/>
<path d="M2577 3653 c-4 -3 -7 -11 -7 -17 0 -6 5 -5 12 2 6 6 9 14 7 17 -3 3
-9 2 -12 -2z"/>
<path d="M1918 3470 c-57 -17 -123 -70 -88 -70 6 0 10 4 10 8 0 18 92 52 141
52 59 0 100 -18 152 -68 49 -47 48 -21 -1 28 -53 53 -138 73 -214 50z"/>
<path d="M1841 3352 c-19 -10 -48 -42 -68 -75 -31 -49 -35 -64 -34 -114 1 -70
19 -99 81 -130 59 -31 156 -31 217 -2 63 31 86 69 87 143 0 75 -21 116 -83
163 -37 29 -50 33 -104 33 -41 0 -74 -6 -96 -18z m180 -28 c65 -44 89 -86 89
-153 0 -62 -22 -96 -82 -127 -64 -33 -204 -5 -250 50 -24 29 -24 115 1 164 53
102 149 128 242 66z"/>
<path d="M1905 3257 c-22 -18 -25 -28 -19 -50 13 -52 95 -62 113 -14 11 30 -6
74 -32 81 -32 8 -33 8 -62 -17z"/>
<path d="M2570 3280 c0 -5 5 -10 10 -10 6 0 10 5 10 10 0 6 -4 10 -10 10 -5 0
-10 -4 -10 -10z"/>
<path d="M1717 3032 c-10 -10 -17 -24 -17 -32 0 -7 10 -1 21 14 24 31 21 45
-4 18z"/>
<path d="M1750 3015 c-20 -24 -6 -28 15 -5 10 11 13 20 8 20 -6 0 -16 -7 -23
-15z"/>
<path d="M1787 3013 c-4 -3 -7 -11 -7 -17 0 -6 5 -5 12 2 6 6 9 14 7 17 -3 3
-9 2 -12 -2z"/>
<path d="M2110 3010 c0 -6 7 -13 15 -16 8 -4 15 -18 15 -34 0 -36 -41 -70 -85
-70 -38 0 -85 33 -85 61 0 10 -4 19 -10 19 -13 0 -13 -36 0 -60 5 -10 23 -23
40 -28 27 -10 30 -15 30 -54 0 -97 45 -166 100 -153 35 8 85 66 111 131 17 41
28 54 44 54 25 0 67 28 60 40 -3 5 -15 0 -27 -12 -44 -44 -158 5 -158 68 0 26
4 33 23 36 40 6 23 23 -25 26 -30 2 -48 -1 -48 -8z m75 -124 c20 -14 41 -26
47 -28 16 -6 -16 -84 -51 -127 -32 -39 -72 -45 -103 -13 -26 25 -40 152 -17
152 8 0 30 9 49 19 19 11 36 20 37 20 1 1 18 -10 38 -23z"/>
<path d="M2530 2901 c-7 -15 -7 -21 0 -21 12 0 25 28 17 36 -3 3 -10 -4 -17
-15z"/>
<path d="M2490 2895 c-7 -8 -8 -15 -2 -15 5 0 15 7 22 15 7 8 8 15 2 15 -5 0
-15 -7 -22 -15z"/>
<path d="M2566 2895 c-3 -8 -1 -15 4 -15 6 0 10 7 10 15 0 8 -2 15 -4 15 -2 0
-6 -7 -10 -15z"/>
<path d="M2406 3178 c-33 -47 -10 -98 43 -98 35 0 61 28 61 66 0 39 -16 54
-56 54 -23 0 -38 -7 -48 -22z"/>
<path d="M2419 1969 l-24 -20 30 6 c17 3 37 13 45 21 24 24 -23 18 -51 -7z"/>
</g>
</svg>
