<?xml version="1.0" standalone="no"?><!DOCTYPE svg PUBLIC "-//W3C//DTD SVG 20010904//EN" "http://www.w3.org/TR/2001/REC-SVG-20010904/DTD/svg10.dtd"><svg xmlns="http://www.w3.org/2000/svg" version="1.0" width="10.3269mm" height="16mm" viewBox="0 0 288.582614 447.116610" preserveAspectRatio="xMidYMid meet">
<metadata>
Created by potrace 1.16, written by Peter Selinger 2001-2019
</metadata>
<g transform="translate(-79.000000,446.854700) scale(0.100000,-0.100000)" fill="#000000" stroke="none">
<path d="M1868 4460 c-162 -28 -353 -133 -489 -270 -106 -106 -206 -286 -237 -425 -6 -27 -16 -71 -22 -97 -25 -115 -8 -315 40 -452 11 -32 17 -62 15 -66 -3 -5 -31 -12 -63 -15 -185 -21 -226 -65 -239 -255 -8 -130 22 -448 53 -545 25 -79 26 -113 8 -203 -6 -29 -1 -38 38 -80 44 -47 45 -50 52 -132 3 -47 7 -131 7 -188 1 -94 -1 -105 -24 -135 -37 -49 -40 -69 -16 -128 28 -71 22 -146 -15 -190 -14 -17 -26 -37 -26 -44 0 -8 18 -42 40 -76 22 -34 40 -66 40 -71 0 -5 -10 -12 -23 -17 -15 -6 -40 -43 -77 -112 -29 -57 -73 -141 -97 -187 -23 -46 -43 -92 -43 -103 0 -40 51 -116 127 -190 120 -118 384 -349 411 -362 17 -7 484 140 568 180 43 20 73 68 81 131 4 34 0 41 -41 82 -50 48 -53 55 -31 76 24 24 29 81 12 122 -9 20 -23 93 -32 162 -9 69 -20 152 -25 184 -5 33 -8 61 -7 63 2 1 38 -23 81 -54 49 -35 88 -56 105 -56 29 0 126 20 298 64 62 16 119 26 125 23 7 -2 38 -42 70 -87 l56 -83 -27 -15 c-15 -9 -40 -38 -56 -65 -15 -27 -70 -113 -122 -192 -60 -92 -93 -153 -93 -170 0 -15 15 -49 32 -76 27 -41 78 -80 293 -229 l259 -180 61 21 c162 54 463 165 483 179 28 17 62 93 62 136 0 23 -16 53 -55 104 -72 96 -125 176 -164 245 l-33 58 24 9 c12 5 103 35 200 66 193 61 188 58 214 146 17 56 20 48 -56 149 -31 41 -94 128 -139 194 l-83 119 13 41 c32 104 71 184 95 195 27 12 27 14 -5 150 -32 135 -145 552 -173 638 -11 35 -17 66 -14 71 3 5 30 17 61 26 30 10 58 23 62 29 32 53 55 442 34 587 -27 186 -95 317 -200 390 -40 27 -88 29 -176 6 -43 -11 -63 -12 -72 -4 -8 6 -12 13 -9 15 2 2 -5 32 -16 66 -57 180 -59 204 -17 219 29 10 31 13 25 47 -3 20 -13 60 -21 89 l-16 52 -58 0 c-58 0 -59 1 -86 43 -32 47 -99 130 -188 229 -64 72 -95 88 -174 88 -24 0 -71 11 -105 25 -35 13 -90 29 -122 35 -68 11 -288 12 -358 0z m449 -71 l28 -12 -32 -7 c-34 -8 -83 -36 -83 -47 0 -4 18 -28 40 -54 49 -58 80 -128 80 -179 l0 -38 -62 -7 c-86 -8 -167 -25 -172 -34 -3 -4 19 -70 49 -146 60 -149 63 -163 40 -171 -27 -11 -43 15 -80 134 -52 161 -59 174 -93 166 -15 -4 -135 -42 -267 -86 -250 -82 -345 -125 -345 -156 0 -10 11 -76 25 -146 14 -70 25 -138 25 -151 0 -26 -26 -41 -45 -25 -14 11 -16 24 -36 193 -7 67 -17 111 -24 114 -11 4 -156 -67 -180 -88 -19 -18 -22 -8 -14 39 24 131 77 257 150 357 77 106 113 129 339 220 253 101 566 160 657 124z m220 -89 c42 -25 85 -90 86 -132 2 -27 -2 -34 -21 -36 -32 -5 -55 16 -48 44 4 13 2 26 -4 29 -5 3 -10 19 -10 35 0 40 -29 54 -91 46 -38 -5 -49 -4 -49 7 0 22 11 27 59 27 28 0 59 -8 78 -20z m211 -292 c3 -17 -9 -18 -148 -18 l-151 0 3 -27 c3 -26 0 -27 -65 -41 -38 -7 -74 -11 -81 -9 -13 5 -41 86 -32 94 15 15 90 20 271 19 182 -1 200 -3 203 -18z m-248 -145 c11 -26 17 -50 13 -54 -5 -4 -38 -14 -75 -22 -53 -12 -70 -12 -77 -3 -20 23 -42 89 -34 97 8 8 91 26 130 28 17 1 27 -10 43 -46z m435 -204 c4 -17 4 -33 0 -37 -3 -4 -79 -17 -168 -29 -549 -74 -966 -194 -1404 -405 -82 -40 -125 -46 -131 -18 -6 34 295 198 538 293 222 86 502 167 660 188 211 29 284 37 387 38 l111 1 7 -31z m36 -100 c4 -8 17 -57 29 -109 12 -52 59 -234 105 -405 46 -170 89 -328 94 -350 39 -155 108 -401 146 -520 60 -189 104 -350 122 -451 5 -30 3 -32 -43 -47 -51 -16 -214 -62 -414 -117 -63 -17 -178 -48 -255 -69 -77 -21 -178 -49 -225 -61 -47 -12 -157 -43 -245 -67 -88 -24 -194 -53 -235 -64 -41 -11 -104 -29 -140 -39 -117 -34 -152 -41 -158 -35 -4 3 -14 36 -23 73 -16 64 -60 231 -93 356 -9 32 -14 62 -11 66 2 4 38 22 80 40 48 21 75 38 75 49 0 8 -9 45 -20 81 -19 62 -42 145 -114 402 -18 65 -36 121 -39 125 -4 4 -13 1 -19 -5 -18 -18 -24 -15 -38 18 -11 27 -9 37 16 93 26 55 29 72 29 162 -1 166 -52 283 -157 363 -27 20 -61 47 -76 58 l-26 22 94 45 c52 25 113 52 135 60 44 15 211 82 263 104 18 8 48 17 66 20 32 5 33 4 45 -40 6 -25 15 -48 20 -51 5 -3 28 1 52 10 94 35 402 113 545 139 50 9 145 22 210 29 132 13 121 4 107 88 -5 36 -5 37 33 41 51 5 56 4 65 -14z m297 -83 c73 -79 116 -183 137 -326 25 -167 11 -516 -21 -550 -27 -28 -36 1 -22 81 7 42 12 155 12 264 -1 177 -3 196 -28 280 -35 115 -80 199 -134 253 l-44 42 30 0 c22 0 40 -11 70 -44z m-114 -6 c113 -69 195 -335 182 -590 -8 -160 -26 -292 -39 -287 -6 2 -21 41 -34 88 -13 46 -29 104 -37 129 -7 25 -14 90 -15 145 -4 210 -29 299 -125 445 -40 61 -44 76 -18 83 35 9 55 7 86 -13z m-1872 -379 c77 -29 159 -193 187 -376 17 -114 31 -316 31 -461 l0 -134 -27 -11 c-15 -5 -45 -12 -68 -16 l-42 -5 -6 208 c-4 115 -13 257 -21 316 -22 157 -86 337 -153 426 -14 19 -21 37 -17 42 20 18 82 24 116 11z m-194 -32 c38 -13 75 -60 112 -142 73 -161 102 -332 115 -663 l6 -170 -60 -30 -61 -31 0 46 c0 41 1 43 14 25 8 -10 18 -16 22 -12 4 4 3 106 -2 227 -8 194 -11 221 -28 240 -29 32 -36 26 -36 -36 0 -66 -10 -61 -33 17 -9 30 -23 73 -31 96 -8 23 -19 74 -23 114 -6 58 -12 76 -29 87 -19 12 -24 12 -38 -2 -18 -19 -22 -109 -7 -163 9 -31 8 -34 -22 -52 -18 -11 -35 -20 -38 -20 -15 0 -20 42 -26 187 -5 128 -3 159 11 196 23 61 57 90 112 96 6 0 25 -4 42 -10z m-60 -617 l27 3 1 -92 c0 -103 9 -128 58 -160 32 -20 34 -25 40 -100 3 -43 11 -184 16 -313 12 -273 20 -379 30 -385 4 -3 13 2 20 10 19 23 76 20 83 -4 5 -19 6 -19 68 0 35 11 69 21 74 23 11 4 -6 11 -49 21 -20 4 -26 9 -17 14 9 6 5 16 -17 38 -25 25 -31 41 -37 99 -4 38 -12 80 -17 94 -10 23 -11 24 -17 5 -12 -31 -21 44 -21 182 0 107 2 123 18 131 27 14 133 34 140 27 3 -3 9 -117 13 -253 4 -136 10 -264 14 -285 8 -42 49 -80 172 -161 58 -37 63 -44 73 -91 15 -69 49 -257 60 -335 20 -129 43 -235 55 -248 9 -11 14 -10 24 2 10 12 11 31 2 83 -5 37 -13 93 -16 123 -4 30 -13 93 -21 139 -13 78 -18 138 -8 116 6 -15 44 -229 54 -310 6 -38 17 -94 26 -122 13 -42 14 -56 4 -68 -10 -13 -16 -13 -40 0 -33 17 -41 12 -33 -26 3 -16 2 -29 -1 -29 -13 0 -74 51 -80 67 -8 20 -51 271 -66 389 -15 107 -20 119 -49 109 -26 -8 -26 -18 -2 -158 11 -62 22 -130 26 -152 25 -173 29 -190 53 -218 28 -32 3 -30 -63 7 -91 50 -147 63 -180 42 -44 -29 -28 -66 19 -45 22 10 35 7 102 -25 107 -53 149 -66 208 -66 43 -1 48 -2 31 -12 -14 -9 -40 -8 -100 0 -112 16 -140 15 -185 -8 -30 -15 -40 -27 -40 -44 0 -34 20 -37 58 -8 28 22 39 24 90 18 177 -19 180 -19 222 -2 51 20 57 20 70 -3 12 -23 -8 -77 -37 -103 -22 -20 -494 -178 -531 -178 -21 0 -76 45 -240 196 -118 108 -222 210 -233 228 -10 17 -19 44 -19 60 0 27 122 282 162 339 12 16 29 27 43 27 13 0 26 4 30 10 6 9 -40 113 -72 163 l-18 28 33 27 c30 25 32 31 32 87 0 33 -5 78 -11 100 -23 87 -23 103 6 137 l27 31 -7 166 c-11 259 -15 284 -45 291 -31 7 -55 52 -42 77 18 34 11 94 -18 174 -20 54 -30 99 -30 137 l0 57 26 -38 c20 -31 31 -38 52 -35z m502 -579 c21 -82 51 -189 65 -238 15 -50 37 -127 49 -172 l23 -82 -38 21 c-21 12 -59 40 -84 62 l-46 41 -4 105 c-10 239 -14 422 -9 417 3 -3 23 -72 44 -154z m1850 -267 c0 -17 -58 -156 -72 -174 -22 -27 -168 -77 -573 -196 -46 -13 -130 -37 -260 -71 -27 -8 -95 -26 -150 -41 -216 -58 -292 -67 -316 -37 -11 12 -11 17 -2 20 9 3 8 11 -3 29 -19 28 -13 30 23 7 22 -15 26 -15 21 -3 -3 8 -9 23 -13 33 -10 25 13 22 57 -8 l36 -24 5 27 c3 15 0 33 -5 40 -18 21 -2 24 32 7 25 -13 34 -14 40 -5 6 10 16 7 39 -9 41 -30 39 -19 -9 41 -22 28 -40 55 -40 59 0 25 46 3 101 -48 l63 -58 -37 58 c-20 31 -37 61 -37 65 0 10 98 42 129 42 14 0 25 -9 31 -24 15 -41 29 -39 23 4 -8 57 10 51 43 -15 14 -31 28 -54 30 -52 2 2 0 27 -5 56 -10 66 -8 68 157 114 116 33 123 34 132 17 6 -10 10 -29 10 -42 0 -13 4 -29 9 -37 6 -10 11 4 16 43 6 49 11 59 36 71 34 18 149 46 160 39 4 -2 5 -28 2 -56 -5 -37 -3 -49 5 -44 7 4 12 13 12 19 0 7 11 35 25 62 l25 50 -4 -57 c-3 -32 -2 -58 0 -58 3 0 18 29 34 65 16 36 33 65 37 66 4 0 40 8 78 19 87 23 115 24 115 6z m16 -263 c16 -21 40 -54 54 -74 14 -19 58 -82 99 -138 68 -96 73 -106 68 -143 -3 -23 -11 -47 -19 -54 -23 -24 -336 -126 -388 -127 -28 -1 -55 13 -132 67 -102 71 -128 97 -128 131 0 16 12 24 65 39 72 20 88 17 56 -11 -12 -9 -21 -28 -21 -41 0 -19 -4 -22 -20 -17 -31 10 -24 -11 13 -37 49 -35 144 -32 215 6 81 45 175 156 132 156 -5 0 -39 -27 -75 -59 -63 -57 -100 -79 -112 -67 -3 3 21 34 53 70 89 96 124 177 89 206 -26 21 -40 7 -36 -38 2 -40 -1 -45 -71 -117 -41 -41 -79 -75 -86 -75 -8 0 -12 23 -12 74 0 42 -7 96 -17 126 -16 50 -16 53 2 66 35 26 86 35 109 19 23 -16 64 -19 84 -6 11 6 10 12 -4 26 -17 17 -17 18 5 36 33 27 45 24 77 -18z m-496 -343 c0 -57 11 -70 132 -152 120 -81 151 -112 202 -199 27 -46 79 -127 116 -179 36 -52 70 -101 74 -108 13 -23 -26 -113 -54 -124 -40 -16 -265 -95 -379 -134 -57 -19 -110 -33 -117 -30 -15 6 -460 311 -485 332 -9 8 -21 32 -28 54 -14 47 -16 41 77 190 36 58 81 131 101 163 34 55 38 58 71 54 19 -3 51 -10 70 -15 95 -29 161 -44 167 -39 3 3 -2 13 -10 22 -22 22 -31 75 -22 143 8 62 15 72 58 72 26 0 27 -2 27 -50z"/>
<path d="M2341 3991 c-57 -16 -27 -48 34 -37 26 5 35 12 35 26 0 21 -22 25 -69 11z"/>
<path d="M2414 3871 c-17 -4 -36 -11 -42 -15 -16 -10 -15 -35 2 -42 18 -7 96 14 96 26 0 15 -12 40 -19 39 -3 -1 -20 -4 -37 -8z"/>
<path d="M2570 3395 c-142 -27 -162 -33 -178 -56 -17 -24 -73 -39 -148 -39 -48 0 -79 -8 -154 -40 -52 -22 -98 -44 -103 -49 -11 -11 10 -82 27 -93 26 -18 213 17 243 44 24 22 128 68 154 68 9 0 19 -10 22 -21 4 -16 11 -20 24 -15 22 9 112 29 208 46 39 7 91 23 117 36 29 15 65 24 93 24 41 0 45 2 45 24 0 12 -5 37 -10 53 -11 29 -13 30 -93 36 -107 9 -112 8 -247 -18z"/>
<path d="M2760 3164 c-68 -29 -76 -29 -83 -3 -4 16 -10 20 -24 14 -24 -9 -317 -81 -365 -89 -21 -4 -57 -22 -81 -40 -24 -18 -66 -38 -93 -45 -76 -18 -79 -21 -62 -72 13 -39 18 -44 44 -42 184 14 242 24 394 67 172 50 200 61 213 82 11 19 84 28 116 14 24 -9 41 -8 100 10 l72 21 -7 37 c-12 69 -17 72 -97 71 -52 -1 -88 -8 -127 -25z"/>
<path d="M1690 3135 c-41 -12 -76 -27 -78 -34 -5 -15 9 -76 64 -276 24 -88 53 -194 64 -235 21 -78 86 -319 142 -520 31 -115 53 -170 65 -170 19 0 173 52 178 59 6 11 -8 71 -70 291 -56 197 -104 372 -139 497 -22 80 -98 345 -113 396 -7 21 -19 20 -113 -8z"/>
<path d="M2630 2886 c-162 -45 -153 -40 -148 -84 3 -20 26 -109 52 -197 27 -88 56 -189 66 -225 10 -36 30 -105 45 -155 15 -49 31 -105 37 -122 5 -18 13 -33 18 -33 13 0 159 43 245 72 70 23 70 23 68 58 -1 19 -30 125 -63 235 -34 110 -75 245 -91 300 -53 175 -57 185 -87 184 -15 0 -79 -15 -142 -33z m128 -62 c35 -24 53 -70 59 -150 6 -71 5 -74 -24 -103 -60 -59 -153 -50 -189 20 -27 52 -44 147 -32 181 19 55 135 88 186 52z m123 -393 c18 -19 33 -54 44 -103 17 -70 17 -76 1 -107 -25 -48 -95 -77 -148 -62 -44 14 -62 37 -83 109 -32 108 -20 146 60 184 51 23 92 17 126 -21z"/>
<path d="M2915 1889 c-55 -16 -105 -31 -111 -33 -12 -4 -3 -51 30 -156 8 -25 20 -67 28 -94 7 -27 18 -50 24 -53 10 -4 253 62 261 71 4 4 -65 274 -73 287 -9 15 -55 9 -159 -22z"/>
<path d="M2115 1850 c-33 -10 -87 -27 -120 -36 -113 -32 -155 -46 -161 -56 -7 -11 95 -423 111 -444 10 -14 33 -10 198 37 177 50 187 54 187 77 0 21 -64 266 -104 397 -15 48 -28 51 -111 25z"/>
<path d="M2650 1825 c-25 -7 -103 -30 -175 -50 -156 -44 -160 -46 -159 -76 1 -32 63 -262 74 -273 7 -7 340 79 398 104 12 5 22 18 21 27 0 10 -17 77 -38 148 -42 145 -41 144 -121 120z"/>
<path d="M1510 1325 c-1 -5 -3 -91 -4 -190 l-1 -180 -33 -3 c-18 -2 -40 2 -47 8 -8 7 -27 9 -42 6 -25 -6 -36 2 -103 76 -41 45 -83 92 -93 105 -10 13 -23 21 -28 18 -5 -4 -9 -41 -9 -83 l0 -77 19 25 c17 22 22 23 43 11 12 -7 45 -32 73 -56 50 -43 50 -44 37 -79 -11 -31 -11 -40 6 -73 11 -21 25 -56 32 -78 17 -54 27 -65 60 -65 50 0 57 24 31 94 -36 97 -35 99 31 111 31 5 62 15 68 21 9 9 7 53 -5 170 -17 163 -31 257 -35 239z"/>
<path d="M1032 936 c-10 -13 -44 -81 -76 -150 -69 -151 -75 -129 81 -273 59 -55 133 -123 163 -151 30 -28 61 -52 68 -52 15 0 15 14 -3 240 -23 290 -14 261 -114 341 -47 37 -89 69 -93 69 -4 0 -15 -11 -26 -24z"/>
<path d="M2896 793 c-4 -31 -1 -63 8 -93 8 -25 28 -88 45 -141 28 -93 114 -283 132 -294 26 -17 -5 91 -66 230 -39 87 -47 116 -49 175 -3 62 -38 170 -56 170 -4 0 -10 -21 -14 -47z"/>
<path d="M2577 778 c-73 -97 -170 -279 -161 -302 5 -14 365 -266 381 -266 9 0 -34 418 -53 507 -4 23 -102 93 -129 93 -8 0 -25 -15 -38 -32z"/>
</g>
</svg>