<?xml version="1.0" encoding="UTF-8" standalone="no"?>
<!-- Created with Inkscape (http://www.inkscape.org/) -->

<svg
   version="1.1"
   id="svg1"
   width="596"
   height="596"
   viewBox="0 0 596 596"
   sodipodi:docname="jack.svg"
   inkscape:version="1.4.2 (f4327f4, 2025-05-13)"
   xmlns:inkscape="http://www.inkscape.org/namespaces/inkscape"
   xmlns:sodipodi="http://sodipodi.sourceforge.net/DTD/sodipodi-0.dtd"
   xmlns="http://www.w3.org/2000/svg"
   xmlns:svg="http://www.w3.org/2000/svg">
  <defs
     id="defs1" />
  <sodipodi:namedview
     id="namedview1"
     pagecolor="#ffffff"
     bordercolor="#000000"
     borderopacity="0.25"
     inkscape:showpageshadow="2"
     inkscape:pageopacity="0.0"
     inkscape:pagecheckerboard="0"
     inkscape:deskcolor="#d1d1d1"
     inkscape:zoom="0.99161074"
     inkscape:cx="298"
     inkscape:cy="298"
     inkscape:window-width="1536"
     inkscape:window-height="793"
     inkscape:window-x="-8"
     inkscape:window-y="1072"
     inkscape:window-maximized="1"
     inkscape:current-layer="g1" />
  <g
     inkscape:groupmode="layer"
     inkscape:label="Image"
     id="g1">
    <path
       style="fill:#000000"
       d="m 358.59376,502.06601 c -20.02493,-7.37733 -44.07072,-27.81356 -60.21442,-51.17554 -7.77777,-11.25541 -11.61975,-27.56649 -12.30102,-52.2238 -0.21275,-7.7 -0.82415,-16.7 -1.35866,-20 -1.18706,-7.3287 -4.71006,-17.33334 -6.1037,-17.33334 -2.5544,0 -3.81284,-8.24457 -2.39823,-15.71182 0.93109,-4.91495 1.14017,-17.11914 0.58875,-34.36627 -0.9737,-30.45523 -1.67236,-28.28119 11.52685,-35.86819 3.48334,-2.00224 6.33334,-4.13483 6.33334,-4.73907 0,-0.60425 -4.11708,-4.89724 -9.14907,-9.53998 -9.66589,-8.91818 -14.24099,-14.85884 -12.99541,-16.87423 0.41362,-0.66926 3.09444,-1.59139 5.95736,-2.0492 4.72114,-0.75494 5.70037,-1.6704 10.52736,-9.8418 2.92712,-4.95519 6.51445,-11.40944 7.97184,-14.34277 2.91866,-5.87446 4.79535,-16.66667 2.89822,-16.66667 -0.66144,0 -3.54526,2.11644 -6.40848,4.70319 l -5.20586,4.70318 -3.0145,-4.87756 c -3.881,-6.27959 -2.38331,-8.9466 5.55763,-9.89673 10.22152,-1.223 11.46804,-3.37227 5.24979,-9.05176 -2.91365,-2.66121 -3.61586,-4.12244 -2.68708,-5.59151 0.69155,-1.09384 1.26655,-4.17665 1.27778,-6.85068 0.0164,-3.91455 0.97145,-5.6969 4.90129,-9.14735 4.47342,-3.92771 5.47766,-4.23597 12.0295,-3.69264 5.52943,0.45854 8.0333,1.44038 11.05435,4.33473 5.4558,5.22699 6.22609,10.08723 2.74,17.28851 -2.4259,5.01125 -2.59248,6.29454 -1.1226,8.64819 1.77746,2.84616 4.40117,3.61485 5.61801,1.64596 0.37996,-0.6148 1.09243,-5.8648 1.58325,-11.66667 C 332.23984,172.54634 334.77823,164 336.76132,164 c 0.38107,0 0.29889,2.1 -0.18262,4.66667 -0.48151,2.56666 -0.49037,4.66666 -0.0197,4.66666 0.47069,0 2.69962,-2.1 4.95318,-4.66666 5.26516,-5.99669 7.18261,-5.99669 3.64448,0 -2.91279,4.93679 -2.17662,5.85754 2.09817,2.62426 1.42349,-1.07668 3.75797,-1.9576 5.18772,-1.9576 1.9823,0 1.09741,1.32224 -3.7267,5.56859 l -6.32624,5.56858 6.21968,1.57924 c 9.01775,2.28969 10.00138,4.10411 2.22492,4.10411 -4.01673,0 -7.9166,0.91532 -10.15849,2.38427 l -3.63886,2.38427 4.71369,2.87214 c 8.02432,4.88936 10.92658,9.97086 14.96703,26.20547 1.30822,5.25645 3.49918,10.08163 5.56807,12.26263 2.92732,3.08596 3.28799,4.36592 2.543,9.0248 l -0.8681,5.42883 10.9896,-5.52546 c 31.2759,-15.72522 51.40324,-19.08291 76.38317,-12.74242 7.33334,1.86137 18.69611,4.37939 25.25062,5.59561 6.5545,1.21622 15.07573,3.60812 18.93607,5.31535 6.99169,3.09206 7.0139,3.12114 5.74939,7.53022 -1.63718,5.7085 -1.56945,16.19261 0.15288,23.66473 1.07742,4.67426 0.91915,6.98218 -0.76799,11.19875 -2.91902,7.29535 -3.94484,20.36829 -2.22686,28.37894 1.32911,6.19742 1.15318,7.21515 -2.49884,14.4553 -2.16073,4.28368 -3.93195,8.75396 -3.93604,9.93395 -0.01,2.80871 -2.36064,10.9995 -3.79922,13.23689 -0.83898,1.30484 -3.18,-0.29145 -9.07991,-6.19135 -29.91103,-29.91103 -85.11895,-28.84772 -118.12026,2.275 -30.55768,28.8182 -37.27469,74.42417 -16.15324,109.67433 9.36908,15.63632 17.65865,19.81723 39.29191,19.81723 17.51438,0 24.67855,-5.38919 33.30144,-25.05076 6.29406,-14.35146 6.402,-17.20466 1.35016,-35.6892 -3.57027,-13.0635 -6.98838,-17.72451 -13.79573,-18.81212 -11.51921,-1.84043 -27.92078,9.64889 -32.94535,23.07827 -5.335,14.25906 -2.76088,21.27732 7.38455,20.13379 6.3595,-0.71681 15.50359,-4.8294 16.27612,-7.32023 0.2832,-0.91314 -1.33412,-3.5093 -3.59406,-5.76923 C 389.84904,421.64391 388,419.60617 388,419.37554 c 0,-0.23063 2.38719,-1.37449 5.30488,-2.54192 10.33139,-4.1338 16.02845,2.17027 16.02845,17.73626 0,6.92091 -0.47046,8.42511 -3.51927,11.25213 -7.36679,6.83087 -32.0616,10.80396 -40.04564,6.44285 -1.59403,-0.8707 -4.59403,-5.03649 -6.66666,-9.25731 -3.23822,-6.59447 -3.76843,-9.26879 -3.76843,-19.00755 0,-9.66953 0.53923,-12.43134 3.67307,-18.81264 7.83731,-15.95878 28.50182,-29.83934 44.32693,-29.77485 12.88689,0.0525 21.66675,6.40983 29.57854,21.41721 5.26285,9.98278 7.08813,18.82984 7.08813,34.35596 0,13.9634 -3.20586,28.7046 -8.52565,39.20271 -10.74395,21.20216 -52.29391,39.2619 -72.88059,31.67762 z M 299.88605,336.99724 c 3.23733,-8.98182 8.78733,-22.01765 12.33334,-28.96852 3.546,-6.95088 6.44728,-13.16426 6.44728,-13.80753 0,-1.61532 -5.32111,-7.78791 -11.049,-12.81707 l -4.77899,-4.196 -7.75267,4.02894 c -13.55679,7.04525 -12.95372,5.88344 -11.97013,23.06048 0.47354,8.26968 2.07926,20.43579 3.56826,27.03579 1.489,6.6 3.04287,13.5 3.45304,15.33334 1.22719,5.48518 1.7274,6.6668 2.82097,6.6639 0.57302,-0.002 3.69057,-7.35152 6.9279,-16.33333 z M 326.16275,283 c 1.74215,-5.4511 4.20561,-9.07722 11.78956,-17.35376 7.62429,-8.32057 7.82927,-8.7178 4.03977,-7.82852 -2.19565,0.51525 -10.23315,3.93711 -17.86112,7.60412 l -13.86903,6.66731 6.5357,6.60664 c 7.18204,7.25998 8.26186,7.75627 9.36512,4.30421 z m -7.49608,-23 C 327.1,256.3456 334.9,253.34144 336,253.32407 c 1.77778,-0.0281 1.77778,-0.17518 0,-1.32407 -1.1,-0.71087 -5.81339,-1.30169 -10.47419,-1.31292 -7.1113,-0.0171 -9.11131,0.51568 -12.43564,3.31292 -5.51034,4.63665 -10.89477,4.39136 -14.63433,-0.66667 -2.42376,-3.27831 -3.91415,-4 -8.26058,-4 h -5.30325 l 7.88733,8.51041 c 4.33803,4.68072 8.48733,8.5757 9.22066,8.65551 0.73333,0.0798 8.23333,-2.84485 16.66667,-6.49925 z m 29.35374,-25.95784 c -1.56359,-3.22995 -5.28054,-8.0749 -8.25988,-10.76655 l -5.41699,-4.89393 -3.94272,7.70004 c -2.1685,4.23502 -5.40544,9.84914 -7.1932,12.47583 l -3.25047,4.77578 L 334.97857,244 c 17.34419,0.76975 17.99458,0.27316 13.04184,-9.95784 z M 300.66667,240 c 2.86528,-3.1661 6.36866,-3.43559 8.66666,-0.66667 4.21377,5.07728 9.03293,-0.26681 15.83139,-17.55581 2.37669,-6.04412 2.46661,-7.0903 0.73304,-8.52903 -1.60831,-1.33479 -2.65085,-1.0528 -5.60351,1.51564 -7.69917,6.69729 -26.96092,25.89747 -26.96092,26.87474 0,2.06793 4.98743,0.95333 7.33334,-1.63887 z m 18.0269,-33.4549 c 0.82028,-1.48287 0.13614,-3.64831 -2.27249,-7.19293 l -3.44608,-5.07136 -3.01899,7.19293 c -1.66044,3.95611 -5.16618,11.09293 -7.79054,15.85959 -2.62436,4.76667 -4.7852,9.25165 -4.80185,9.96663 -0.035,1.50248 19.57077,-17.57469 21.32995,-20.75486 z"
       id="path1" />
  </g>
</svg>
