<?xml version="1.0" standalone="no"?>
<!DOCTYPE svg PUBLIC "-//W3C//DTD SVG 20010904//EN"
 "http://www.w3.org/TR/2001/REC-SVG-20010904/DTD/svg10.dtd">
<svg version="1.0" xmlns="http://www.w3.org/2000/svg"
 width="242.999211pt" height="452.363937pt" viewBox="0 0 242.999211 452.363937"
 preserveAspectRatio="xMidYMid meet">
<metadata>
Created by potrace 1.16, written by Peter Selinger 2001-2019
</metadata>
<g transform="translate(-143.000789,503.292762) scale(0.100000,-0.100000)"
fill="#000000" stroke="none">
<path d="M3136 4971 c-114 -143 -191 -337 -305 -767 l-11 -41 -77 -7 c-43 -3
-90 -9 -104 -12 -23 -5 -33 5 -109 108 -95 128 -202 239 -305 316 -86 64 -311
180 -324 167 -12 -14 -30 -142 -40 -279 -22 -330 47 -610 204 -832 l44 -61 -6
-115 c-6 -127 -7 -128 -75 -128 -37 0 -58 -10 -58 -26 0 -16 4 -17 91 -14 65
2 66 1 79 -30 14 -34 116 -140 134 -140 6 0 -13 -15 -43 -33 -30 -18 -56 -38
-59 -45 -9 -27 30 -22 89 11 l62 35 46 -20 c58 -25 183 -63 239 -73 23 -4 42
-8 42 -10 0 -2 -19 -34 -42 -71 -97 -161 -208 -429 -248 -602 -7 -30 -16 -50
-20 -45 -4 4 -17 33 -28 63 -71 194 -254 567 -382 780 -178 296 -310 430 -422
430 -53 0 -78 -35 -78 -109 0 -99 66 -213 238 -410 219 -250 435 -636 507
-903 21 -79 25 -115 25 -243 0 -147 11 -250 31 -310 9 -26 6 -41 -29 -117 -50
-107 -106 -279 -123 -372 -16 -96 -7 -219 21 -279 21 -44 101 -127 123 -127 5
0 -2 -12 -17 -27 -32 -31 -44 -72 -26 -83 28 -18 105 -21 240 -10 132 10 145
10 203 -9 70 -23 158 -29 200 -12 15 6 36 24 45 41 36 63 102 65 128 5 8 -19
23 -39 33 -45 31 -16 103 -12 174 10 49 15 102 21 209 24 183 5 268 29 268 77
0 10 -9 23 -20 29 -20 11 -20 12 8 40 43 43 56 102 49 233 -8 157 -43 309
-129 572 -38 114 -41 131 -53 326 -27 414 -111 731 -284 1078 l-78 154 91 61
c88 59 180 142 221 200 20 28 24 29 95 28 41 -1 110 -7 153 -13 58 -10 80 -10
89 -1 19 19 -34 32 -170 45 -118 10 -123 11 -117 31 3 12 11 46 17 76 6 30 12
60 14 67 1 6 49 26 106 44 126 38 188 67 188 85 0 26 -54 15 -177 -35 l-120
-48 -13 56 c-6 31 -27 85 -46 121 -33 62 -34 68 -34 175 0 207 -30 504 -66
650 -44 176 -128 360 -192 418 -20 18 -21 17 -76 -52z m110 -138 c87 -191 129
-423 148 -816 l3 -77 -46 37 c-25 20 -58 47 -73 59 -38 31 -114 66 -173 79
l-50 11 -8 60 c-12 82 0 277 23 387 33 164 108 356 132 341 5 -4 26 -40 44
-81z m-1194 -295 c101 -87 236 -262 322 -418 l35 -66 -48 -41 c-81 -70 -183
-231 -207 -328 -3 -14 -9 -25 -14 -25 -11 0 -105 208 -133 295 -53 165 -83
413 -71 578 l7 87 26 -16 c14 -10 52 -39 83 -66z m1169 -644 c44 -22 94 -82
113 -135 54 -149 -70 -309 -239 -309 -91 0 -186 69 -201 146 -16 85 36 230
100 279 56 43 162 52 227 19z m-660 -45 c77 -26 141 -100 175 -201 66 -199
-222 -340 -394 -192 -60 51 -82 99 -82 177 0 56 4 71 33 113 37 55 67 79 123
99 48 17 100 19 145 4z m353 -443 c-11 -29 -102 -45 -148 -27 -17 6 -14 10 20
24 51 21 136 23 128 3z m270 -109 c17 -13 17 -16 -10 -71 -38 -78 -107 -141
-177 -161 -50 -14 -64 -14 -139 -1 -132 23 -218 69 -202 109 25 65 467 168
528 124z"/>
<path d="M3000 3850 c-21 -39 -23 -114 -6 -174 16 -53 19 -57 44 -54 22 2 28
10 35 43 5 22 6 67 3 99 -9 90 -49 136 -76 86z"/>
<path d="M2562 3821 c-19 -12 -32 -61 -32 -126 0 -77 15 -115 45 -115 31 0 45
38 45 120 0 92 -24 142 -58 121z"/>
</g>
</svg>
