<?xml version="1.0" standalone="no"?><!DOCTYPE svg PUBLIC "-//W3C//DTD SVG 20010904//EN" "http://www.w3.org/TR/2001/REC-SVG-20010904/DTD/svg10.dtd"><svg xmlns="http://www.w3.org/2000/svg" version="1.0" width="14.4728mm" height="16mm" viewBox="0 0 456.721179 504.916101" preserveAspectRatio="xMidYMid meet">
<metadata>
Created by potrace 1.16, written by Peter Selinger 2001-2019
</metadata>
<g transform="translate(-42.278821,530.000000) scale(0.100000,-0.100000)" fill="#000000" stroke="none">
<path d="M3063 5272 c-27 -24 -103 -165 -103 -189 0 -22 -60 -64 -116 -82 -88 -28 -158 -65 -188 -101 -14 -17 -26 -36 -26 -41 0 -32 39 -85 118 -161 l90 -86 4 -129 c2 -106 7 -135 24 -167 11 -22 28 -44 36 -50 32 -20 135 18 275 100 27 16 37 17 70 7 21 -6 70 -21 108 -33 81 -24 190 -24 206 1 9 13 6 143 -7 286 -6 62 -6 63 40 120 51 66 96 160 96 203 0 53 -103 101 -249 116 -78 7 -97 19 -128 79 -9 17 -19 32 -22 35 -4 3 -17 22 -30 42 -32 54 -71 78 -124 78 -35 0 -51 -6 -74 -28z m131 -141 c25 -33 46 -63 46 -68 1 -12 66 -80 89 -92 11 -6 41 -11 68 -11 42 0 71 -5 161 -25 33 -8 27 -24 -33 -95 -99 -117 -110 -159 -75 -295 11 -43 20 -89 20 -102 0 -22 -3 -24 -32 -18 -18 4 -68 20 -110 36 -113 42 -149 39 -246 -24 -62 -40 -111 -67 -122 -67 -6 0 -10 51 -10 125 0 91 -4 134 -15 154 -8 16 -51 63 -96 104 -52 49 -79 81 -76 91 3 8 56 34 117 57 123 48 122 47 189 174 37 70 68 115 77 115 2 0 23 -27 48 -59z"/>
<path d="M4283 5021 c-22 -16 -76 -76 -119 -132 -44 -57 -90 -109 -104 -115 -14 -7 -71 -17 -127 -24 -120 -13 -186 -31 -234 -63 -62 -41 -49 -117 45 -272 17 -27 34 -52 37 -55 3 -3 16 -24 28 -46 25 -44 25 -64 1 -169 -6 -27 -14 -98 -17 -156 -5 -102 -4 -106 20 -135 24 -28 29 -29 104 -28 57 0 106 9 184 32 59 18 117 32 129 32 13 0 57 -20 99 -44 128 -75 206 -106 267 -106 l55 0 26 57 c22 47 27 78 35 197 5 78 10 150 13 162 2 11 50 59 105 107 121 106 160 156 160 206 0 49 -50 96 -145 140 -38 17 -78 36 -87 41 -10 6 -22 10 -27 10 -5 0 -36 12 -68 26 -41 18 -62 34 -70 53 -6 14 -25 64 -43 111 -59 152 -103 200 -183 200 -33 0 -54 -7 -84 -29z m119 -128 c26 -41 58 -107 78 -164 29 -82 58 -108 170 -155 167 -71 210 -93 210 -108 0 -17 -138 -156 -197 -199 -50 -36 -50 -35 -58 -187 -8 -166 -16 -221 -31 -227 -16 -6 -108 40 -210 106 -114 75 -117 75 -304 2 -30 -12 -79 -24 -107 -28 l-53 -6 0 49 c0 57 37 234 55 263 14 24 -7 81 -50 133 -25 30 -65 94 -89 142 -39 75 -42 88 -28 93 9 2 28 9 42 13 23 7 137 24 238 34 51 5 66 17 144 116 80 101 136 160 152 160 7 0 24 -17 38 -37z"/>
<path d="M1270 4065 c-281 -61 -447 -368 -409 -753 8 -78 67 -281 91 -309 18 -22 2 -156 -34 -293 -62 -235 -71 -533 -21 -710 29 -105 33 -95 -78 -210 -56 -58 -129 -136 -162 -175 -33 -38 -63 -72 -66 -75 -10 -9 -50 -68 -81 -120 -39 -66 -64 -146 -80 -250 -11 -74 -10 -93 5 -150 52 -199 190 -304 480 -365 85 -18 545 -21 639 -4 189 33 252 47 337 70 80 23 120 24 178 3 24 -8 90 -27 145 -41 95 -25 114 -26 341 -26 212 0 243 -2 265 -17 93 -64 343 -200 450 -244 70 -29 275 -96 322 -105 24 -5 79 -16 123 -26 64 -13 117 -16 265 -13 183 4 186 4 261 36 206 88 304 286 270 544 -19 136 -52 234 -141 408 -49 98 -58 114 -169 286 -51 81 -96 155 -98 165 -5 17 22 102 38 124 15 21 49 161 49 205 0 67 24 201 42 235 9 17 57 75 108 130 101 110 147 175 192 275 75 162 88 220 88 373 -1 99 -5 134 -23 187 -52 151 -148 280 -246 329 -82 41 -152 55 -276 55 -111 -1 -174 -11 -276 -45 -31 -10 -61 -19 -68 -19 -6 0 -46 26 -89 59 -212 161 -423 270 -657 339 -199 59 -402 75 -649 52 -125 -12 -228 -37 -336 -82 -105 -43 -146 -43 -197 3 -86 78 -212 134 -357 159 -72 12 -104 11 -176 -5z m290 -168 c60 -31 180 -122 180 -137 0 -5 -42 -37 -92 -71 -134 -90 -225 -170 -353 -310 -79 -87 -91 -103 -141 -191 -79 -139 -74 -133 -89 -111 -7 10 -23 59 -35 108 -30 117 -33 325 -6 425 39 147 113 251 210 296 45 21 64 23 161 21 98 -2 116 -5 165 -30z m1129 -38 c283 -35 469 -102 681 -244 98 -66 233 -171 237 -183 1 -4 -18 -23 -43 -42 -47 -37 -56 -72 -21 -78 10 -2 71 17 135 43 228 92 279 105 402 105 100 0 116 -3 173 -28 77 -35 152 -108 185 -181 47 -102 50 -304 6 -434 -47 -142 -93 -205 -317 -431 -114 -116 -206 -218 -204 -226 4 -23 44 -24 88 -1 22 12 42 21 44 21 9 0 5 -83 -4 -114 -5 -17 -17 -65 -27 -106 -38 -167 -114 -334 -219 -486 -74 -105 -246 -288 -337 -357 -132 -100 -158 -116 -269 -170 -184 -90 -288 -119 -525 -148 -100 -12 -190 -9 -344 10 -387 49 -759 263 -1006 581 -204 261 -314 591 -314 942 0 377 117 704 353 985 209 250 490 429 792 504 83 21 285 46 389 48 33 0 98 -4 145 -10z m-1628 -2206 c105 -214 193 -338 343 -489 121 -120 241 -211 355 -267 99 -48 103 -44 -89 -79 -357 -65 -639 -62 -858 8 -225 73 -296 247 -194 477 22 49 76 136 113 181 33 40 265 276 272 276 3 0 29 -48 58 -107z m3060 -283 c158 -254 207 -359 233 -500 21 -108 20 -175 -3 -248 -26 -85 -79 -146 -160 -185 -64 -30 -70 -31 -231 -35 -147 -3 -177 -1 -281 22 -117 25 -301 82 -374 116 -150 69 -223 107 -289 152 -42 28 -75 52 -73 54 2 2 48 17 102 34 351 108 663 355 889 704 32 48 61 84 65 80 4 -5 59 -92 122 -194z"/>
<path d="M1977 3703 c-14 -13 -6 -61 13 -86 11 -14 20 -30 20 -35 0 -6 -17 -39 -39 -74 -95 -156 -147 -283 -177 -428 -31 -155 1 -293 78 -334 48 -25 82 -15 133 38 45 47 76 118 165 376 44 129 61 166 76 169 31 5 45 22 38 45 -4 12 -10 23 -13 26 -4 3 -30 36 -60 74 -29 37 -60 77 -69 89 -41 51 -136 147 -147 147 -6 0 -15 -3 -18 -7z m142 -245 c39 -52 39 -53 25 -88 -25 -58 -44 -81 -81 -96 -54 -23 -63 -14 -63 60 0 74 37 176 64 176 8 0 33 -23 55 -52z m-127 -456 c24 2 37 0 34 -7 -2 -5 -12 -30 -22 -55 -28 -73 -51 -100 -84 -100 -41 0 -51 25 -49 120 l2 79 40 -20 c26 -14 53 -20 79 -17z"/>
<path d="M2910 3469 c-33 -9 -76 -21 -145 -40 -99 -28 -222 -73 -237 -87 -19 -16 -24 -57 -9 -66 5 -3 -4 -41 -19 -83 -68 -190 -84 -270 -78 -405 3 -102 14 -126 75 -168 45 -31 112 -20 165 28 87 78 232 481 250 696 3 33 12 39 83 55 56 13 91 41 82 65 -5 12 -21 16 -69 15 -35 0 -79 -5 -98 -10z m-90 -126 c0 -17 -29 -103 -44 -132 -29 -56 -76 -101 -105 -101 -42 0 -51 17 -51 98 l0 73 43 19 c95 42 157 59 157 43z m-214 -483 c12 0 34 4 48 10 14 5 26 8 26 6 0 -2 -7 -23 -15 -47 -43 -125 -89 -166 -137 -122 -15 13 -18 32 -18 109 l0 93 36 -24 c20 -14 47 -25 60 -25z"/>
<path d="M2049 2671 c-53 -11 -144 -59 -195 -104 -70 -62 -174 -223 -174 -270 0 -7 -4 -17 -9 -22 -35 -39 -69 -307 -60 -481 7 -132 17 -186 56 -309 54 -166 103 -246 222 -357 143 -135 296 -195 466 -184 250 16 414 161 501 441 16 50 19 93 19 265 0 197 -1 208 -28 295 -66 207 -193 421 -342 571 -97 98 -160 136 -254 154 -60 11 -147 11 -202 1z m567 -405 c59 -57 127 -219 164 -396 20 -91 22 -122 17 -274 -6 -213 -22 -271 -104 -392 -57 -85 -140 -143 -248 -174 -45 -13 -216 -9 -281 7 -124 30 -295 171 -348 288 -47 102 -31 250 50 450 64 159 118 239 235 349 121 114 270 176 418 173 58 -1 68 -4 97 -31z"/>
</g>
</svg>