<?xml version="1.0" standalone="no"?><!DOCTYPE svg PUBLIC "-//W3C//DTD SVG 20010904//EN" "http://www.w3.org/TR/2001/REC-SVG-20010904/DTD/svg10.dtd"><svg xmlns="http://www.w3.org/2000/svg" version="1.0" width="6.7834mm" height="16mm" viewBox="0 0 41.745061 98.464493" preserveAspectRatio="xMidYMid meet">
<metadata>
Created by potrace 1.16, written by Peter Selinger 2001-2019
</metadata>
<g transform="translate(-272.028589,350.464493) scale(0.100000,-0.100000)" fill="#000000" stroke="none">
<path d="M2884 3499 c-52 -12 -121 -71 -145 -123 -39 -85 -16 -192 54 -253 30 -26 34 -33 22 -43 -8 -7 -31 -44 -50 -82 -50 -101 -48 -175 6 -229 10 -10 19 -30 19 -42 0 -13 9 -50 20 -83 24 -71 25 -93 5 -100 -32 -13 -13 -24 40 -24 l54 0 4 68 3 67 2 -67 2 -68 49 0 c28 0 53 5 56 10 3 6 2 10 -3 10 -17 0 -23 68 -11 110 7 22 22 46 34 54 28 19 45 84 45 174 0 56 -5 80 -28 125 l-28 55 32 7 c46 8 56 25 67 119 13 106 -3 213 -39 255 -44 53 -132 78 -210 60z m156 -40 c43 -24 70 -67 42 -65 -12 1 -18 -8 -20 -27 -4 -33 21 -77 44 -77 14 0 15 -11 9 -82 -10 -118 -18 -128 -108 -128 -100 0 -164 21 -210 68 -65 66 -75 153 -28 236 57 100 171 131 271 75z m-91 -398 l65 -6 25 -50 c33 -62 40 -176 17 -245 -9 -25 -13 -33 -11 -18 22 118 15 205 -21 252 -21 29 -28 12 -9 -24 35 -67 27 -182 -20 -309 -11 -29 -14 -58 -10 -83 6 -36 5 -38 -19 -38 -25 0 -26 2 -26 65 0 64 0 65 -28 65 -28 0 -28 0 -26 -65 2 -57 0 -65 -16 -65 -13 0 -19 10 -23 38 -3 20 -15 71 -26 112 -25 90 -27 173 -5 236 8 25 13 48 10 51 -11 11 -38 -64 -45 -126 -7 -62 -8 -64 -19 -38 -27 63 -11 135 49 229 28 43 33 47 52 36 12 -6 51 -14 86 -17z"/>
<path d="M2952 3358 c-31 -38 -11 -107 34 -122 52 -16 73 65 29 109 -27 28 -47 31 -63 13z"/>
<path d="M3044 3175 c-9 -23 5 -65 22 -65 19 0 28 24 20 55 -7 27 -33 34 -42 10z"/>
</g>
</svg>