<?xml version="1.0" standalone="no"?><!DOCTYPE svg PUBLIC "-//W3C//DTD SVG 20010904//EN" "http://www.w3.org/TR/2001/REC-SVG-20010904/DTD/svg10.dtd"><svg xmlns="http://www.w3.org/2000/svg" version="1.0" width="9.4615mm" height="16mm" viewBox="0 0 39.739695 67.202555" preserveAspectRatio="xMidYMid meet">
<metadata>
Created by potrace 1.16, written by Peter Selinger 2001-2019
</metadata>
<g transform="translate(-279.000000,333.914111) scale(0.100000,-0.100000)" fill="#000000" stroke="none">
<path d="M2916 3320 c-80 -40 -126 -111 -126 -194 0 -60 19 -97 64 -121 l35 -19 -24 -28 c-35 -41 -50 -99 -37 -136 8 -24 7 -33 -4 -43 -17 -14 -18 -53 -1 -67 6 -5 35 -13 64 -17 31 -4 52 -11 50 -18 -1 -8 14 -11 47 -9 95 5 173 75 133 120 -11 12 -13 22 -7 32 16 26 11 93 -10 124 l-19 30 30 18 c61 37 90 121 70 197 -33 123 -158 184 -265 131z m149 -9 c76 -35 105 -85 105 -182 0 -56 -3 -63 -39 -102 l-40 -42 -88 0 c-75 0 -94 4 -133 25 -51 29 -70 59 -70 113 0 77 51 154 125 188 51 23 89 23 140 0z m-57 -341 c59 0 63 -1 82 -32 14 -22 20 -47 18 -73 -3 -32 -9 -43 -37 -62 -44 -30 -61 -29 -33 0 15 15 22 35 21 58 l-1 34 -8 -39 c-4 -24 -18 -49 -34 -62 -14 -13 -26 -30 -26 -39 0 -8 -2 -15 -5 -15 -13 0 -60 37 -63 49 -2 8 -10 20 -19 26 -12 9 -15 22 -9 56 4 31 3 39 -4 29 -17 -25 -12 -88 7 -99 29 -16 11 -19 -24 -5 -31 13 -33 17 -33 64 0 41 5 55 32 85 23 27 37 35 52 31 12 -3 49 -6 84 -6z m105 -202 c13 -20 -3 -42 -45 -64 -32 -17 -118 -35 -118 -25 0 29 109 115 139 109 8 -2 19 -10 24 -20z m-183 -10 c41 -24 45 -35 19 -51 -24 -15 -129 10 -129 32 0 45 50 53 110 19z"/>
<path d="M2862 3178 c-19 -19 -15 -58 7 -58 27 0 47 28 35 48 -14 21 -27 25 -42 10z"/>
<path d="M3081 3141 c-28 -52 6 -95 41 -51 10 13 18 33 16 44 -4 29 -43 33 -57 7z"/>
<path d="M3005 3140 c-3 -5 -1 -10 4 -10 6 0 11 5 11 10 0 6 -2 10 -4 10 -3 0 -8 -4 -11 -10z"/>
<path d="M2973 3048 c2 -7 14 -13 27 -13 13 0 25 6 28 13 2 8 -7 12 -28 12 -21 0 -30 -4 -27 -12z"/>
</g>
</svg>