<?xml version="1.0" standalone="no"?>
<!DOCTYPE svg PUBLIC "-//W3C//DTD SVG 20010904//EN"
 "http://www.w3.org/TR/2001/REC-SVG-20010904/DTD/svg10.dtd">
<svg version="1.0" xmlns="http://www.w3.org/2000/svg"
 width="340.305465pt" height="182.041393pt" viewBox="0 0 340.305465 182.041393"
 preserveAspectRatio="xMidYMid meet">
<metadata>
Created by potrace 1.16, written by Peter Selinger 2001-2019
</metadata>
<g transform="translate(-110.998386,367.436667) scale(0.100000,-0.100000)"
fill="#000000" stroke="none">
<path d="M1848 3657 c-123 -40 -176 -142 -193 -368 l-7 -86 -36 13 c-53 19
-100 17 -178 -7 -134 -41 -214 -97 -262 -182 -100 -174 -78 -347 57 -453 31
-24 71 -49 89 -55 l33 -11 -18 -26 c-9 -15 -30 -52 -45 -82 -44 -88 -35 -200
18 -235 13 -8 24 -23 24 -32 0 -43 44 -159 70 -185 31 -31 71 -36 90 -13 9 11
16 13 24 5 17 -17 62 -11 82 11 16 17 19 39 21 120 2 83 6 104 23 126 11 14
20 35 20 47 0 43 -31 149 -55 190 -26 45 -31 61 -16 51 6 -3 34 4 63 15 29 11
54 20 56 20 1 0 2 -20 2 -45 0 -26 6 -58 14 -73 16 -31 150 -163 183 -181 22
-11 22 -12 -23 -70 -39 -50 -45 -64 -42 -97 2 -32 8 -42 34 -54 20 -10 37 -29
49 -58 21 -52 52 -74 97 -70 30 3 33 6 33 36 0 18 5 32 11 32 7 0 10 -8 7 -19
-8 -31 14 -61 45 -61 46 0 69 24 77 80 4 29 12 50 18 49 31 -4 48 3 61 24 20
30 35 148 37 290 1 114 2 119 28 145 15 15 30 33 32 40 3 9 22 5 71 -18 37
-16 75 -30 83 -30 13 0 11 -8 -9 -42 -13 -24 -30 -71 -36 -105 -11 -57 -11
-65 6 -90 14 -20 19 -47 20 -98 0 -38 4 -80 8 -93 10 -29 50 -46 76 -32 13 7
21 7 25 0 3 -5 19 -10 35 -10 39 0 64 34 86 117 10 40 29 81 46 101 43 50 39
115 -11 208 l-39 72 26 6 c51 11 118 71 148 133 l29 58 39 -42 38 -43 -42 -81
c-30 -59 -44 -97 -47 -140 -6 -58 -5 -59 34 -96 27 -25 43 -50 47 -73 4 -19
17 -55 29 -80 19 -39 26 -45 58 -48 50 -4 66 17 52 69 -8 31 -8 39 3 39 10 0
14 -14 14 -48 0 -61 23 -88 63 -73 41 16 57 49 57 119 l0 64 23 -21 c12 -12
30 -27 41 -34 18 -13 17 -16 -18 -68 -20 -29 -36 -65 -36 -80 0 -25 27 -59 46
-59 6 0 16 -16 23 -36 7 -20 22 -45 32 -55 23 -23 67 -25 76 -3 5 13 8 12 25
-6 14 -14 26 -19 41 -14 39 11 49 30 51 90 2 69 22 83 46 31 16 -34 36 -43 75
-33 35 9 35 46 -2 166 -40 129 -42 173 -10 187 62 29 87 -58 77 -270 -1 -32 2
-63 8 -69 15 -15 59 -1 77 25 28 43 39 168 25 284 -12 100 -11 105 8 126 11
12 23 38 27 59 12 63 -41 206 -106 289 l-28 36 68 31 c38 18 83 47 100 64 l32
33 -28 -60 c-41 -89 -44 -192 -8 -268 26 -55 74 -103 128 -128 15 -7 26 -15
25 -18 -2 -4 -16 -33 -32 -65 -39 -77 -45 -150 -17 -191 36 -53 39 -59 52
-119 18 -84 72 -140 103 -108 4 4 24 7 44 7 48 0 62 27 62 123 0 50 5 80 16
97 21 33 12 112 -21 184 -27 58 -29 65 -17 57 13 -8 126 49 151 75 85 90 98
235 33 373 -38 81 -73 120 -135 152 -43 22 -61 25 -107 21 -70 -6 -156 -44
-210 -93 l-43 -39 19 35 c47 86 6 333 -74 449 -50 74 -77 91 -153 100 -168 20
-410 -94 -465 -220 l-18 -39 -30 29 c-48 45 -76 55 -151 55 -96 0 -160 -29
-227 -103 -59 -65 -76 -100 -79 -165 -2 -28 -7 -45 -13 -42 -158 71 -226 80
-305 42 -62 -30 -67 -31 -54 -13 37 48 41 222 7 366 -27 117 -72 167 -199 222
-124 54 -287 69 -387 36z m254 -18 c74 -15 235 -97 263 -134 49 -64 85 -299
61 -392 -26 -97 -61 -136 -151 -167 -69 -24 -264 -38 -340 -25 l-60 10 -38 74
c-28 54 -37 80 -31 97 6 21 6 22 -11 8 -11 -9 -16 -10 -11 -2 4 7 2 12 -5 12
-6 0 -26 13 -44 29 -18 16 -39 31 -45 33 -15 5 -15 137 1 222 13 74 49 154 82
184 56 52 209 76 329 51z m1725 -188 c118 -54 208 -363 146 -502 -38 -86 -130
-133 -299 -154 -201 -25 -285 4 -335 115 -30 66 -39 281 -14 345 27 73 158
165 285 201 69 19 168 17 217 -5z m-612 -196 c57 -43 65 -63 70 -171 2 -55 1
-93 -1 -86 -8 17 -44 15 -66 -5 -36 -32 -16 -123 27 -123 22 0 45 41 46 80 0
33 1 31 15 -18 12 -46 12 -58 -2 -95 -8 -23 -22 -64 -30 -92 -23 -72 -64 -144
-87 -151 -29 -9 -112 -8 -129 2 -29 17 -74 59 -100 94 -27 37 -44 125 -22 116
19 -7 54 23 54 48 0 42 -38 60 -70 31 -15 -14 -20 -11 -48 35 -17 27 -36 50
-43 50 -19 0 -4 112 22 165 28 56 95 114 157 137 69 26 161 18 207 -17z
m-1559 -85 c71 -32 107 -72 160 -176 30 -59 38 -87 42 -147 7 -110 -15 -175
-82 -242 -78 -77 -142 -99 -266 -92 -130 7 -215 35 -278 92 -69 62 -95 120
-94 214 2 184 104 309 300 367 90 26 129 23 218 -16z m1016 -140 c156 -48 238
-153 239 -305 1 -69 -11 -105 -48 -149 -59 -70 -146 -104 -283 -108 -63 -3
-84 1 -131 23 -104 49 -143 113 -143 234 0 72 3 87 36 150 40 77 83 123 143
153 52 26 108 27 187 2z m1656 -34 c59 -30 82 -55 121 -131 110 -214 13 -424
-196 -425 -143 0 -237 45 -286 140 -26 49 -28 63 -25 130 6 144 78 243 211
291 70 25 119 24 175 -5z m-1987 -79 c-11 -18 -28 -53 -39 -77 l-18 -43 -32
51 -31 51 52 15 c29 9 59 20 67 26 23 15 23 13 1 -23z m-113 -80 c41 -62 50
-84 54 -133 6 -59 22 -106 55 -157 16 -25 16 -30 3 -54 -33 -59 -53 -30 -52
72 1 45 -5 71 -22 105 -13 25 -31 73 -41 108 -10 34 -22 62 -27 62 -6 0 -7 -7
-4 -16 6 -14 26 -87 66 -233 l9 -34 -42 40 c-58 56 -100 75 -180 81 l-69 5 6
36 c3 20 9 47 12 61 l5 25 -14 -25 c-8 -14 -17 -41 -19 -60 -3 -37 -13 -50
-40 -50 -15 0 -15 5 -3 50 7 27 29 79 49 114 l36 65 68 4 c37 2 75 4 84 5 12
1 34 -23 66 -71z m-270 50 c16 0 17 6 -22 -77 -19 -39 -37 -88 -41 -110 -4
-25 -13 -40 -25 -43 -17 -4 -18 -3 -3 37 10 24 16 75 17 124 l1 82 30 -6 c17
-4 36 -7 43 -7z m1400 -58 c19 -29 109 -69 159 -69 l42 0 -39 -87 -39 -88 -68
-6 c-75 -7 -94 -13 -136 -42 -27 -19 -29 -19 -42 -1 -19 25 -18 31 4 62 24 34
64 133 82 201 7 28 15 51 18 51 4 0 12 -9 19 -21z m505 -226 c48 -118 26 -231
-39 -206 -14 5 -15 16 -9 72 5 36 7 83 6 103 -2 44 -36 128 -51 128 -6 0 -4
-9 4 -23 29 -43 40 -126 26 -193 -13 -66 -4 -104 25 -104 23 0 30 -45 30 -200
0 -123 -3 -150 -18 -173 -9 -15 -24 -27 -32 -27 -11 0 -13 15 -9 83 7 97 -8
202 -34 237 -27 36 -74 39 -100 5 -25 -31 -22 -53 19 -204 34 -122 34 -127 13
-135 -26 -10 -40 10 -67 92 -42 127 -43 157 -8 234 22 47 31 83 31 118 0 45
-4 55 -39 93 l-40 43 9 69 c12 89 12 97 1 91 -4 -3 -11 -35 -14 -72 -4 -37 -8
-68 -10 -70 -6 -7 -47 9 -47 18 0 5 8 28 19 51 10 23 28 63 39 89 22 51 10 46
157 61 28 3 103 -95 138 -180z m-1750 45 c57 -17 132 -93 140 -141 11 -70 -75
-250 -136 -284 -34 -19 -126 -15 -175 7 -50 22 -166 130 -190 175 -17 34 -17
106 0 138 47 89 233 143 361 105z m154 -20 c-3 -8 -6 -5 -6 6 -1 11 2 17 5 13
3 -3 4 -12 1 -19z m936 -85 c8 -18 11 -33 6 -33 -4 0 -8 -8 -8 -17 0 -10 -4
-38 -11 -62 -13 -52 -1 -96 36 -141 22 -26 25 -39 25 -106 0 -63 -3 -81 -19
-97 -28 -27 -42 -14 -42 42 0 54 -12 71 -51 71 -34 0 -41 -18 -26 -65 9 -29 8
-38 -3 -45 -40 -25 -81 60 -87 180 -9 168 -9 167 16 200 29 40 22 49 -10 14
-20 -22 -24 -35 -23 -87 1 -34 4 -75 5 -91 5 -36 -13 -44 -40 -17 -35 35 -28
95 23 197 l45 89 74 0 c75 0 75 0 90 -32z m346 -11 c92 -62 103 -123 42 -248
-21 -43 -47 -87 -59 -97 -24 -22 -118 -25 -154 -6 -34 18 -138 120 -154 151
-21 41 -18 110 6 141 50 63 102 84 211 86 57 1 72 -3 108 -27z m-2047 -38 c45
-6 48 -9 77 -63 53 -102 69 -203 36 -227 -45 -33 -63 -2 -44 80 10 47 9 61 -7
105 -10 28 -22 51 -26 51 -11 0 -10 -2 8 -46 15 -37 15 -115 -2 -157 -3 -8 7
-29 22 -46 24 -28 27 -41 28 -104 1 -104 -7 -127 -45 -127 l-31 0 7 83 c6 75
5 84 -15 105 -29 30 -58 28 -71 -5 -10 -23 -7 -41 15 -103 27 -79 24 -97 -16
-87 -27 7 -53 54 -74 132 -18 66 -18 236 0 305 15 59 13 80 -4 36 -16 -42 -32
-164 -28 -207 4 -47 -10 -47 -35 2 -32 61 -13 143 56 247 27 41 32 43 66 38
20 -3 57 -8 83 -12z m1227 -63 c60 -84 78 -179 41 -222 l-19 -24 -1 46 c0 57
-19 161 -31 174 -11 12 -11 8 1 -35 29 -98 4 -316 -41 -361 -44 -44 -62 -12
-33 60 32 80 2 139 -46 91 -20 -20 -21 -28 -15 -91 l7 -69 -25 0 c-33 0 -41
24 -39 110 1 49 6 68 19 78 15 10 18 28 19 95 0 45 4 93 9 106 5 16 5 22 -2
18 -21 -13 -35 -93 -26 -139 5 -24 8 -49 5 -56 -6 -18 -40 -15 -51 6 -15 28 5
118 39 177 29 50 34 54 73 58 94 8 95 8 116 -22z m-443 -128 c-8 -196 -18
-262 -40 -279 -10 -7 -25 -10 -33 -7 -13 5 -13 7 1 15 20 11 21 47 2 74 -22
31 2 199 39 282 16 34 31 62 33 62 3 0 2 -66 -2 -147z m1925 120 c45 -5 47 -7
73 -64 34 -74 40 -165 13 -183 -26 -16 -36 7 -25 57 11 49 3 108 -19 134 -14
17 -14 17 -7 -2 5 -11 9 -57 9 -101 0 -64 4 -86 18 -101 13 -15 17 -37 17 -89
0 -75 -15 -112 -43 -101 -13 5 -15 18 -10 74 5 57 3 72 -12 87 -46 46 -69 -16
-40 -105 19 -57 11 -77 -22 -54 -48 34 -72 206 -51 360 5 39 5 45 -4 25 -5
-14 -12 -65 -15 -113 -5 -78 -8 -87 -21 -74 -22 23 -27 100 -8 147 29 72 65
122 84 115 9 -3 38 -9 63 -12z m-2026 -223 c-7 -50 -8 -51 -26 -34 -10 9 -19
21 -19 26 0 11 43 67 49 62 1 -1 0 -26 -4 -54z m-50 -39 c61 -69 75 -94 64
-108 -19 -22 -26 -15 -50 49 -32 85 -35 58 -4 -35 28 -83 32 -144 12 -171 -20
-27 -52 -17 -52 17 -1 36 -16 49 -51 45 -29 -3 -34 -15 -19 -50 6 -15 2 -18
-23 -18 -26 0 -33 7 -56 51 -20 42 -23 54 -13 70 9 14 9 21 -1 31 -19 19 -14
62 10 93 l21 28 -22 -12 c-35 -19 -47 -56 -32 -97 15 -41 11 -49 -23 -40 -50
12 -42 66 20 141 l35 44 77 -2 c74 -1 77 -2 107 -36z m1456 -61 c7 -20 3 -17
-25 14 -31 36 -32 40 -17 55 15 16 17 15 24 -14 5 -16 13 -41 18 -55z m-962
-23 c-11 -32 -14 -36 -20 -21 -14 36 -10 83 9 93 23 13 28 -19 11 -72z m919
24 c44 -56 51 -75 29 -84 -10 -4 -20 13 -32 51 -10 32 -20 52 -22 47 -2 -6 6
-37 17 -70 22 -65 26 -145 8 -163 -21 -21 -38 -13 -38 18 0 32 -27 54 -55 44
-12 -5 -14 -14 -10 -35 6 -24 3 -29 -13 -29 -36 0 -66 70 -52 120 6 21 5 29
-3 27 -18 -3 -11 52 10 75 16 18 16 18 0 12 -32 -12 -52 -84 -27 -99 16 -10
11 -25 -8 -25 -24 0 -42 19 -42 46 0 12 17 44 39 71 38 48 38 49 97 48 l59 0
43 -54z m-2048 24 c9 -10 10 -32 5 -72 l-8 -58 -18 40 c-32 73 -18 137 21 90z
m2716 -9 c3 -7 4 -35 2 -62 l-3 -49 -17 54 c-10 29 -15 57 -12 62 8 13 24 11
30 -5z m-736 -201 c0 -8 -2 -15 -4 -15 -2 0 -6 7 -10 15 -3 8 -1 15 4 15 6 0
10 -7 10 -15z"/>
<path d="M2241 3364 c-28 -36 -26 -50 8 -85 29 -28 44 -34 86 -29 66 7 76 94
14 125 -44 23 -84 19 -108 -11z"/>
<path d="M1736 3245 c-48 -48 21 -123 83 -90 39 20 46 43 23 75 -23 31 -81 39
-106 15z"/>
<path d="M2370 3205 c9 -11 9 -15 1 -15 -7 0 -9 -5 -5 -11 5 -8 10 -6 16 5 10
18 3 36 -14 36 -7 0 -6 -6 2 -15z"/>
<path d="M2133 2998 c-26 -12 -30 -33 -9 -41 17 -7 85 8 98 21 28 28 -41 43
-89 20z"/>
<path d="M3371 3164 c-72 -60 -2 -153 75 -99 12 8 23 12 26 10 5 -5 8 15 9 55
1 27 -33 60 -61 60 -10 0 -32 -12 -49 -26z"/>
<path d="M3854 3125 c-31 -31 -28 -54 9 -75 24 -13 30 -13 55 0 30 17 41 62
21 86 -18 22 -57 17 -85 -11z"/>
<path d="M3365 3010 c-3 -5 -1 -10 4 -10 6 0 11 5 11 10 0 6 -2 10 -4 10 -3 0
-8 -4 -11 -10z"/>
<path d="M3890 3010 c0 -4 7 -13 15 -20 10 -9 15 -9 15 -1 0 6 1 14 3 18 1 3
-6 7 -15 9 -10 1 -18 -1 -18 -6z"/>
<path d="M3535 2850 c-11 -18 6 -30 45 -30 54 0 74 9 59 26 -13 16 -95 19
-104 4z"/>
<path d="M3235 2811 c-8 -26 1 -39 16 -24 8 8 8 17 1 29 -9 16 -10 15 -17 -5z"/>
<path d="M2967 2756 c-3 -8 1 -17 9 -20 23 -9 24 -8 24 14 0 23 -25 27 -33 6z"/>
<path d="M3086 2648 c-15 -21 -15 -23 4 -30 11 -4 34 -5 51 -1 23 4 29 10 27
27 -5 32 -61 35 -82 4z"/>
<path d="M1210 2910 c-18 -34 4 -62 47 -58 50 4 66 32 34 59 -30 25 -67 24
-81 -1z"/>
<path d="M1703 2855 c-44 -31 -21 -85 36 -85 21 0 61 32 61 48 0 37 -63 61
-97 37z"/>
<path d="M1212 2808 c-16 -16 -15 -31 1 -22 10 6 10 4 0 -7 -15 -16 -17 -33
-3 -24 17 10 29 40 21 53 -5 9 -10 9 -19 0z"/>
<path d="M1710 2720 c0 -10 19 -24 38 -26 7 -2 12 2 10 8 -5 14 -48 30 -48 18z"/>
<path d="M1472 2638 c-16 -16 -15 -33 4 -48 13 -11 19 -10 36 8 18 17 19 23 8
36 -15 19 -32 20 -48 4z"/>
<path d="M2788 2809 c-22 -13 -23 -45 -2 -53 46 -18 84 7 64 43 -12 23 -35 26
-62 10z"/>
<path d="M2370 2750 c-23 -23 -18 -43 17 -59 21 -9 30 -9 49 4 29 19 30 29 4
55 -25 25 -45 25 -70 0z"/>
<path d="M2826 2711 c-3 -4 4 -17 16 -27 12 -11 18 -13 14 -6 -4 7 -2 12 5 12
8 0 8 4 -1 15 -14 17 -26 19 -34 6z"/>
<path d="M2403 2639 c-28 -10 -30 -29 -3 -22 20 5 36 21 29 27 -2 2 -14 0 -26
-5z"/>
<path d="M2591 2572 c-7 -13 -6 -23 1 -30 28 -28 63 3 38 33 -16 20 -27 19
-39 -3z"/>
<path d="M3993 2774 c-9 -24 10 -49 37 -49 31 0 48 28 31 49 -17 21 -60 21
-68 0z"/>
<path d="M4370 2720 c-16 -16 -18 -25 -10 -40 15 -28 66 -27 81 2 10 18 8 24
-11 40 -28 23 -35 23 -60 -2z"/>
<path d="M3992 2683 c-6 -10 -7 -25 -2 -32 6 -11 10 -9 18 6 6 10 7 25 2 32
-6 11 -10 9 -18 -6z"/>
<path d="M4380 2605 c7 -8 20 -15 29 -15 13 1 13 3 -3 15 -26 19 -42 19 -26 0z"/>
<path d="M4197 2553 c-11 -10 -8 -41 4 -49 6 -3 18 1 27 9 13 13 13 19 2 31
-14 17 -23 20 -33 9z"/>
<path d="M2152 2482 c-13 -2 -28 -15 -34 -28 -10 -21 -8 -28 9 -45 35 -35 93
3 78 50 -7 22 -21 28 -53 23z"/>
<path d="M1827 2403 c-13 -12 -7 -41 9 -47 44 -17 88 10 64 39 -13 15 -61 21
-73 8z"/>
<path d="M2147 2356 c-7 -19 4 -27 21 -17 10 6 10 10 -1 20 -12 9 -16 8 -20
-3z"/>
<path d="M1880 2321 c0 -5 7 -11 15 -15 9 -3 15 0 15 9 0 8 -7 15 -15 15 -8 0
-15 -4 -15 -9z"/>
<path d="M2013 2258 c-36 -17 -27 -28 21 -28 50 0 67 14 37 29 -24 13 -29 13
-58 -1z"/>
<path d="M3526 2391 c-14 -15 -15 -23 -6 -40 21 -41 75 -16 68 31 -4 30 -38
35 -62 9z"/>
<path d="M3277 2326 c-8 -21 19 -39 49 -32 17 5 24 12 22 24 -4 22 -63 29 -71
8z"/>
<path d="M3546 2291 c-4 -5 -2 -12 3 -15 5 -4 12 -2 15 3 4 5 2 12 -3 15 -5 4
-12 2 -15 -3z"/>
<path d="M3325 2260 c3 -5 10 -10 16 -10 5 0 9 5 9 10 0 6 -7 10 -16 10 -8 0
-12 -4 -9 -10z"/>
<path d="M3427 2204 c-16 -17 -5 -25 31 -22 20 2 37 8 37 13 0 12 -57 19 -68
9z"/>
</g>
</svg>
