<?xml version="1.0" standalone="no"?>
<!DOCTYPE svg PUBLIC "-//W3C//DTD SVG 20010904//EN"
 "http://www.w3.org/TR/2001/REC-SVG-20010904/DTD/svg10.dtd">
<svg version="1.0" xmlns="http://www.w3.org/2000/svg"
 width="46.955358pt" height="110.567545pt" viewBox="0 0 46.955358 110.567545"
 preserveAspectRatio="xMidYMid meet">
<metadata>
Created by potrace 1.16, written by Peter Selinger 2001-2019
</metadata>
<g transform="translate(-282.022910,358.567545) scale(0.100000,-0.100000)"
fill="#000000" stroke="none">
<path d="M3019 3583 c-52 -8 -132 -66 -163 -116 -72 -117 -31 -275 82 -318
l24 -9 -25 -30 c-41 -48 -60 -120 -55 -212 2 -62 7 -83 21 -93 13 -9 20 -37
27 -116 6 -57 17 -128 25 -156 l16 -53 99 0 c55 0 100 4 100 9 0 5 -4 11 -9
13 -6 2 -6 21 -1 48 5 25 9 82 10 128 0 55 5 90 14 105 24 36 37 147 26 207
-10 51 -49 132 -71 145 -5 4 7 16 28 27 83 44 123 106 123 190 -1 83 -55 179
-120 213 -30 15 -111 25 -151 18z m106 -23 c42 -10 121 -82 110 -100 -3 -6 -2
-10 3 -10 15 0 32 -57 32 -104 0 -30 -9 -55 -32 -91 -76 -114 -244 -141 -343
-54 -91 80 -68 251 45 325 61 40 115 50 185 34z m54 -532 c20 -65 13 -219 -10
-234 -5 -3 -9 23 -9 58 0 35 -9 94 -20 132 -11 38 -17 73 -14 77 3 5 -2 9 -10
9 -20 0 -20 4 5 -92 15 -63 21 -117 22 -242 1 -88 -2 -178 -6 -198 -7 -33 -12
-38 -36 -38 -28 0 -28 1 -35 77 -3 42 -6 95 -6 118 0 45 -5 56 -23 49 -9 -3
-11 -40 -9 -124 l3 -120 -24 0 c-22 0 -25 7 -40 78 -23 115 -28 198 -16 287
18 139 22 208 12 202 -6 -4 -13 -35 -17 -69 -3 -35 -9 -89 -13 -121 -9 -84
-27 -67 -31 27 -3 92 16 160 56 199 22 21 38 26 87 29 57 3 61 1 91 -31 18
-19 37 -52 43 -73z"/>
<path d="M2891 3446 c-20 -24 -9 -51 19 -51 21 0 25 5 25 30 0 34 -24 45 -44
21z"/>
<path d="M3117 3332 c-35 -38 -9 -102 41 -102 28 0 64 47 56 74 -13 46 -67 61
-97 28z"/>
<path d="M2925 3290 c-24 -26 -13 -68 21 -76 29 -7 64 18 64 47 0 18 -35 49
-56 49 -6 0 -19 -9 -29 -20z"/>
</g>
</svg>
