<?xml version="1.0" standalone="no"?><!DOCTYPE svg PUBLIC "-//W3C//DTD SVG 20010904//EN" "http://www.w3.org/TR/2001/REC-SVG-20010904/DTD/svg10.dtd"><svg xmlns="http://www.w3.org/2000/svg" version="1.0" width="6.5942mm" height="16mm" viewBox="0 0 43.845266 106.385785" preserveAspectRatio="xMidYMid meet">
<metadata>
Created by potrace 1.16, written by Peter Selinger 2001-2019
</metadata>
<g transform="translate(-279.827001,351.945583) scale(0.100000,-0.100000)" fill="#000000" stroke="none">
<path d="M2915 3504 c-76 -39 -117 -102 -117 -178 1 -50 8 -225 11 -238 2 -13 69 -48 92 -48 22 0 21 -2 -14 -38 -80 -82 -104 -256 -42 -307 7 -5 16 -41 19 -79 9 -89 27 -133 60 -142 38 -9 46 2 47 69 1 59 1 60 10 24 10 -44 32 -89 51 -105 35 -28 57 36 58 167 0 66 2 72 16 60 30 -25 44 14 44 120 0 112 -17 159 -73 208 l-36 32 33 20 c73 45 151 150 162 217 12 78 -78 200 -165 224 -53 15 -122 12 -156 -6z m152 -9 c88 -26 153 -110 153 -197 0 -53 -34 -110 -106 -180 -59 -57 -87 -68 -168 -68 -49 0 -70 5 -96 23 l-33 22 -3 134 c-3 147 2 170 49 220 58 61 112 73 204 46z m-6 -477 c48 -35 72 -92 77 -180 5 -80 -3 -148 -17 -148 -11 0 -27 40 -46 120 -20 83 -24 94 -31 87 -3 -3 4 -42 17 -87 19 -71 21 -99 16 -194 -5 -113 -12 -146 -28 -146 -18 0 -47 63 -54 116 -11 92 -35 59 -35 -49 0 -55 -1 -58 -22 -55 -14 2 -30 16 -40 38 -23 46 -24 213 -2 311 9 39 14 73 11 76 -8 7 -27 -70 -35 -141 -7 -64 -19 -74 -40 -35 -17 32 -9 132 16 189 25 56 78 107 117 113 58 8 66 7 96 -15z"/>
<path d="M2880 3389 c-28 -52 26 -103 62 -59 10 12 18 30 18 39 0 42 -61 57 -80 20z"/>
<path d="M3092 3288 c-17 -17 -15 -53 3 -68 36 -30 87 18 64 62 -11 20 -49 24 -67 6z"/>
<path d="M2986 3276 c6 -15 34 -30 34 -18 0 4 -9 13 -20 19 -16 11 -18 10 -14 -1z"/>
<path d="M2912 3088 c2 -15 11 -24 26 -26 20 -3 23 0 20 20 -2 15 -11 24 -26 26 -20 3 -23 0 -20 -20z"/>
</g>
</svg>