<?xml version="1.0" standalone="no"?><!DOCTYPE svg PUBLIC "-//W3C//DTD SVG 20010904//EN" "http://www.w3.org/TR/2001/REC-SVG-20010904/DTD/svg10.dtd"><svg xmlns="http://www.w3.org/2000/svg" version="1.0" width="9.9482mm" height="16mm" viewBox="0 0 56.293594 90.538787" preserveAspectRatio="xMidYMid meet">
<metadata>
Created by potrace 1.16, written by Peter Selinger 2001-2019
</metadata>
<g transform="translate(-270.000000,352.951420) scale(0.100000,-0.100000)" fill="#000000" stroke="none">
<path d="M3120 3496 c0 -48 -47 -70 -141 -64 -61 3 -75 8 -130 46 -34 24 -64 41 -66 38 -3 -3 5 -33 17 -68 17 -47 24 -93 28 -182 l5 -119 -62 6 c-58 5 -61 4 -61 -16 0 -36 38 -87 75 -103 41 -17 39 -23 -20 -94 -37 -45 -65 -91 -65 -110 0 -18 26 -11 50 15 13 14 26 25 29 25 3 0 5 -33 3 -74 -3 -58 1 -85 17 -120 11 -25 24 -46 30 -46 5 0 19 16 31 34 37 61 78 59 134 -6 42 -49 61 -45 70 14 3 23 14 80 24 125 l18 83 36 -30 c44 -36 53 -27 31 29 -12 30 -13 45 -5 53 12 12 -4 58 -20 58 -5 0 -4 -9 2 -19 15 -29 13 -31 -32 -30 -35 2 -38 3 -13 7 26 4 28 5 10 12 -17 7 -17 9 -2 9 22 1 22 17 0 30 -10 5 -15 12 -12 16 4 3 13 0 20 -8 12 -11 19 -11 47 0 38 15 43 26 7 17 -14 -3 -25 -2 -25 4 0 6 -10 8 -22 6 -23 -4 -23 -4 0 6 13 5 29 7 35 3 42 -26 77 -2 93 61 l7 29 -80 -5 -80 -6 8 27 c4 14 15 62 24 106 10 44 30 120 46 169 16 49 27 92 24 95 -3 3 -15 -1 -27 -8 -18 -11 -22 -11 -30 3 -15 26 -28 18 -28 -18z m60 -3 c10 10 12 9 6 -6 -3 -11 -9 -29 -12 -42 -5 -21 -10 -23 -36 -18 -23 5 -33 1 -45 -17 -14 -20 -22 -22 -69 -17 -29 3 -61 10 -70 15 -13 7 -5 9 27 5 33 -4 59 1 97 17 46 20 52 26 52 53 0 28 1 29 18 14 15 -13 21 -14 32 -4z m-357 -11 c10 -10 14 -22 10 -25 -12 -12 -20 -8 -31 18 -14 29 -2 33 21 7z m107 -79 c2 -2 -19 -3 -48 -1 -39 2 -52 7 -52 19 0 27 11 29 54 7 22 -11 43 -22 46 -25z m215 -3 c3 -11 4 -29 0 -39 -5 -18 -8 -18 -46 -3 -37 14 -39 17 -20 24 12 4 24 14 27 23 9 21 32 19 39 -5z m-137 -30 c102 -24 134 -40 123 -59 -7 -11 -17 -8 -52 12 -50 29 -105 45 -193 56 l-61 8 50 2 c28 0 87 -8 133 -19z m-39 -16 c21 -4 30 -11 27 -20 -3 -7 -1 -14 4 -16 6 -2 -28 -4 -75 -5 -84 -2 -85 -1 -85 23 0 22 4 24 49 24 27 0 63 -3 80 -6z m138 -61 c19 -13 20 -18 11 -41 -10 -25 -17 -71 -21 -134 -2 -28 -8 -33 -29 -26 -7 3 -6 11 3 26 9 15 11 25 4 30 -12 8 -12 19 0 46 6 13 5 21 -3 24 -6 2 -8 10 -5 18 4 12 8 12 19 -3 24 -32 15 1 -12 40 -14 21 -29 35 -34 32 -6 -3 -7 1 -4 9 6 16 19 13 71 -21z m-188 -35 c-17 -24 -42 -46 -55 -50 -25 -7 -25 -6 -19 35 9 49 17 57 68 57 l37 0 -31 -42z m41 17 c-12 -14 -7 -20 15 -15 6 1 6 -2 2 -7 -5 -4 -16 -8 -24 -8 -9 0 -18 -5 -20 -11 -2 -7 5 -10 20 -7 14 3 28 0 32 -7 11 -17 -1 -23 -23 -11 -28 15 -47 -9 -36 -46 4 -16 6 -33 5 -40 -1 -6 6 -9 18 -6 10 2 22 0 26 -7 10 -15 -3 -26 -16 -13 -15 15 -61 4 -55 -14 3 -8 2 -12 -3 -9 -16 10 -20 46 -5 46 11 0 13 8 9 33 -7 37 7 82 37 115 24 25 37 30 18 7z m105 -5 c3 -5 1 -10 -4 -10 -6 0 -11 5 -11 10 0 6 2 10 4 10 3 0 8 -4 11 -10z m-5 -24 c0 -11 -19 -15 -25 -6 -3 5 1 10 9 10 9 0 16 -2 16 -4z m-33 -38 c-3 -8 -6 -5 -6 6 -1 11 2 17 5 13 3 -3 4 -12 1 -19z m38 -8 c-3 -5 -10 -10 -16 -10 -5 0 -9 5 -9 10 0 6 7 10 16 10 8 0 12 -4 9 -10z m-175 -31 c0 -24 -3 -30 -16 -25 -9 3 -20 6 -25 6 -14 0 -11 38 4 43 28 12 37 6 37 -24z m75 9 c28 -13 32 -26 10 -34 -18 -7 -45 12 -45 32 0 17 2 17 35 2z m61 -47 c-5 -28 -11 -49 -13 -47 -7 7 10 106 17 101 4 -2 2 -27 -4 -54z m-234 9 c23 0 38 -3 34 -7 -3 -4 -25 -6 -47 -4 -30 1 -40 -2 -37 -11 3 -7 11 -13 19 -13 8 -1 25 -7 39 -15 14 -8 30 -13 35 -11 6 1 6 -1 2 -5 -4 -4 3 -14 15 -21 23 -12 23 -12 2 -13 -12 0 -24 6 -27 14 -3 8 -16 16 -29 18 -13 2 -22 9 -20 16 1 8 -2 11 -8 7 -16 -10 8 -35 33 -35 15 0 18 -3 10 -11 -16 -16 -50 5 -73 44 -24 39 -26 61 -4 53 9 -3 34 -6 56 -6z m268 -20 c-11 -20 -30 -28 -30 -12 0 11 22 32 32 32 5 0 4 -9 -2 -20z m-195 -10 c8 -13 -5 -13 -25 0 -13 8 -13 10 2 10 9 0 20 -4 23 -10z m375 -8 c0 -10 -6 -26 -13 -36 -12 -16 -15 -17 -20 -3 -3 9 0 18 9 21 26 10 15 23 -21 24 -19 1 -35 -3 -35 -9 0 -6 -5 -7 -10 -4 -20 13 2 25 46 25 36 0 44 -3 44 -18z m-55 -22 c-3 -5 -12 -10 -18 -10 -7 0 -6 4 3 10 19 12 23 12 15 0z m-120 -10 c-3 -5 -11 -10 -16 -10 -6 0 -7 5 -4 10 3 6 11 10 16 10 6 0 7 -4 4 -10z m-80 -10 c-3 -5 -12 -10 -18 -10 -7 0 -6 4 3 10 19 12 23 12 15 0z m-85 -35 c-7 -9 -15 -13 -19 -10 -3 3 1 10 9 15 21 14 24 12 10 -5z m-37 -15 c3 -11 1 -23 -4 -26 -18 -11 -8 -29 16 -30 14 -1 23 2 20 6 -3 5 0 12 6 16 8 4 9 3 5 -4 -4 -7 -2 -12 3 -12 6 0 11 5 11 10 0 6 7 10 16 10 9 0 18 9 21 20 3 12 14 20 27 20 29 -1 60 -26 50 -41 -4 -7 1 -18 11 -26 16 -11 16 -13 3 -13 -9 0 -28 14 -41 31 -24 31 -25 31 -36 11 -13 -24 -60 -42 -114 -42 -39 0 -39 0 -32 33 4 17 7 38 8 45 1 20 24 14 30 -8z m47 -4 c0 -2 -8 -10 -17 -17 -16 -13 -17 -12 -4 4 13 16 21 21 21 13z m140 -76 c11 0 23 -7 26 -15 4 -8 10 -15 16 -15 5 0 6 5 3 10 -4 6 6 10 24 10 26 0 31 -5 40 -37 6 -20 9 -38 7 -40 -2 -2 -16 10 -30 28 -30 35 -42 31 -48 -16 l-4 -30 -11 25 c-18 42 -38 53 -80 45 -79 -14 -145 -74 -147 -131 -1 -32 3 -39 24 -45 22 -7 20 -8 -9 -6 -23 1 -40 10 -53 27 -18 24 -18 28 -2 65 10 25 14 55 11 82 -2 23 -1 40 4 37 16 -10 124 16 142 35 18 18 19 18 42 -5 13 -13 33 -24 45 -24z m-245 -34 c0 -41 -4 -78 -8 -82 -4 -5 -5 11 -1 34 4 23 3 42 -2 42 -5 -1 -24 -14 -43 -30 -19 -16 -37 -28 -39 -25 -6 6 22 50 62 97 17 20 31 37 31 37 1 1 1 -32 0 -73z m249 -38 c19 -27 20 -72 4 -133 -14 -53 -33 -58 -74 -20 -21 20 -38 25 -76 25 -57 0 -67 13 -44 62 35 74 156 115 190 66z m-206 -194 c-15 -32 -24 -30 -37 7 -16 46 -14 49 19 33 26 -14 28 -17 18 -40z m202 -14 c0 -23 -10 -26 -28 -8 -18 18 -15 28 8 28 13 0 20 -7 20 -20z"/>
</g>
</svg>