<?xml version="1.0" standalone="no"?>
<!DOCTYPE svg PUBLIC "-//W3C//DTD SVG 20010904//EN"
 "http://www.w3.org/TR/2001/REC-SVG-20010904/DTD/svg10.dtd">
<svg version="1.0" xmlns="http://www.w3.org/2000/svg"
 width="62.296085pt" height="92.544053pt" viewBox="0 0 62.296085 92.544053"
 preserveAspectRatio="xMidYMid meet">
<metadata>
Created by potrace 1.16, written by Peter Selinger 2001-2019
</metadata>
<g transform="translate(-272.555700,358.178535) scale(0.100000,-0.100000)"
fill="#000000" stroke="none">
<path d="M3310 3555 c-16 -17 -27 -22 -34 -15 -18 18 -26 11 -20 -18 5 -24 0
-32 -33 -54 -70 -49 -139 -62 -163 -33 -7 8 -16 12 -22 9 -5 -3 -20 2 -35 11
-19 13 -27 14 -33 5 -6 -9 -19 -5 -52 14 -66 39 -74 33 -39 -27 41 -71 61
-152 49 -195 -7 -23 -5 -48 6 -86 16 -55 22 -176 9 -176 -4 0 -27 8 -51 18
-49 20 -54 33 -50 117 3 51 6 61 26 70 12 5 22 12 22 15 0 8 -52 30 -60 25 -4
-3 -10 14 -14 37 -6 34 -3 43 14 55 30 21 25 37 -10 30 -33 -7 -35 -5 -18 22
9 15 7 24 -13 49 -30 38 -41 39 -56 5 -11 -23 -10 -29 8 -46 26 -24 49 -77 49
-112 0 -22 -3 -25 -24 -19 -13 3 -27 1 -30 -5 -5 -7 2 -11 18 -11 41 0 56 -25
56 -91 l0 -59 -24 16 c-14 8 -35 14 -48 12 -20 -4 -16 -8 24 -27 41 -19 49
-27 58 -64 19 -74 21 -77 40 -77 26 0 70 -67 70 -106 0 -51 19 -136 37 -163
l16 -25 19 24 c27 34 123 39 152 8 16 -17 20 -18 33 -5 16 16 43 115 43 159 0
17 15 44 41 74 52 60 73 93 66 101 -5 5 -46 -8 -111 -36 -15 -6 1 137 18 161
10 14 16 44 16 77 0 53 18 127 66 268 34 101 30 117 -16 68z m2 -65 c-18 -51
-21 -54 -54 -56 -20 -2 -53 -10 -74 -19 -44 -18 -100 -23 -114 -9 -5 5 8 8 34
6 65 -6 166 55 166 100 0 10 5 15 13 12 8 -3 20 2 27 11 21 25 21 12 2 -45z
m-384 -38 c21 -14 21 -15 5 -27 -15 -11 -20 -10 -35 13 -10 15 -18 31 -18 35
0 8 6 6 48 -21z m111 -39 c25 -21 53 -36 63 -35 10 2 18 -2 18 -8 0 -7 -7 -10
-15 -6 -12 4 -15 -6 -15 -60 0 -55 -3 -65 -15 -60 -8 3 -27 1 -42 -5 -16 -6
-30 -6 -35 -1 -6 6 1 10 16 10 50 0 76 49 39 71 -17 10 -17 10 0 11 24 0 21
15 -11 51 -35 39 -56 32 -50 -17 2 -19 1 -34 -3 -34 -14 0 -20 -39 -10 -59 9
-15 7 -20 -12 -25 -20 -6 -20 -7 -5 -19 10 -8 13 -18 8 -27 -5 -8 -6 -27 -3
-42 6 -32 69 -108 89 -108 8 0 19 -10 24 -22 l9 -23 0 23 c1 15 10 26 26 32
14 5 29 19 33 29 5 14 11 18 21 12 11 -7 6 -17 -22 -48 -21 -21 -40 -46 -43
-56 -8 -25 -14 -21 -78 51 -90 101 -104 159 -65 262 11 30 21 74 22 97 1 24 4
43 6 43 2 0 24 -17 50 -37z m-269 7 c0 -5 -5 -10 -11 -10 -5 0 -7 5 -4 10 3 6
8 10 11 10 2 0 4 -4 4 -10z m200 -25 c0 -25 -23 -35 -35 -15 -10 16 2 40 20
40 9 0 15 -9 15 -25z m267 -24 c-1 -36 -5 -47 -13 -40 -7 5 -10 19 -7 29 3 13
-1 22 -11 26 -18 7 -49 -13 -43 -29 3 -10 -27 -47 -38 -47 -12 0 -4 40 13 59
13 17 64 43 99 51 1 0 1 -22 0 -49z m42 27 c0 -13 -7 -39 -14 -58 l-13 -35 -1
51 c-1 28 2 54 6 57 13 14 23 7 22 -15z m-498 -11 c-1 -12 -15 -9 -19 4 -3 6
1 10 8 8 6 -3 11 -8 11 -12z m263 -45 c-29 -7 -42 6 -36 33 l5 27 23 -29 c18
-22 19 -29 8 -31z m161 28 c3 -5 -1 -10 -10 -10 -9 0 -13 5 -10 10 3 6 8 10
10 10 2 0 7 -4 10 -10z m-245 -29 c0 -3 -4 -12 -9 -19 -6 -10 -10 -7 -13 11
-4 18 -1 24 9 20 7 -3 13 -8 13 -12z m-130 -1 c0 -5 -5 -10 -11 -10 -5 0 -7 5
-4 10 3 6 8 10 11 10 2 0 4 -4 4 -10z m388 -47 c4 -36 0 -38 -28 -23 -31 17
-31 -5 0 -29 19 -13 30 -31 30 -46 0 -43 -22 -41 -62 6 -43 50 -45 57 -20 66
21 7 52 33 52 44 0 4 -10 10 -22 12 -13 3 -7 4 12 4 32 -2 35 -5 38 -34z
m-190 7 c7 -12 18 -18 25 -13 7 4 7 1 -2 -10 -7 -9 -24 -17 -37 -17 -20 0 -24
5 -24 30 0 35 19 40 38 10z m216 -117 c-5 -29 -51 -89 -61 -80 -2 2 1 15 6 28
5 13 10 20 10 15 1 -5 8 -3 16 4 18 15 20 71 3 88 -9 9 -9 12 0 12 7 0 13 15
13 33 1 25 3 22 10 -18 5 -27 6 -64 3 -82z m-174 37 c0 -5 -2 -10 -4 -10 -3 0
-8 5 -11 10 -3 6 -1 10 4 10 6 0 11 -4 11 -10z m-36 -16 c3 -8 10 -12 16 -9 5
3 10 3 10 -2 0 -7 -44 -37 -72 -51 -17 -8 -7 57 10 67 24 14 29 13 36 -5z m93
-9 c-4 -8 -14 -14 -24 -14 -17 1 -17 2 0 6 9 2 17 12 17 20 0 9 3 14 6 10 4
-3 4 -13 1 -22z m-78 -64 c-23 -31 -39 -40 -39 -21 0 14 50 64 56 57 3 -3 -4
-19 -17 -36z m123 -13 c-9 -9 -14 -5 -22 16 -15 40 -13 43 12 18 17 -17 19
-25 10 -34z m-34 -17 c-2 -8 -9 -16 -15 -19 -9 -2 -13 8 -13 35 1 36 1 37 16
18 8 -11 13 -26 12 -34z m-58 23 c0 -8 -5 -12 -10 -9 -6 4 -8 11 -5 16 9 14
15 11 15 -7z m-23 -140 c-3 -4 -27 -3 -52 0 l-45 7 0 54 0 54 52 -55 c28 -30
48 -57 45 -60z m3 106 c0 -5 -5 -10 -11 -10 -5 0 -7 5 -4 10 3 6 8 10 11 10 2
0 4 -4 4 -10z m145 -78 c-3 -3 -15 4 -27 16 l-22 22 25 26 24 26 3 -42 c2 -23
1 -45 -3 -48z m-15 -34 c0 -44 -73 -60 -182 -37 -29 6 -57 15 -62 19 -13 13
32 22 53 11 11 -6 38 -10 61 -9 36 1 43 6 62 39 21 37 21 37 44 21 14 -10 23
-28 24 -44z m-307 20 c12 -6 32 -21 43 -34 30 -31 95 -47 177 -42 56 3 73 8
87 25 10 12 20 20 23 17 3 -3 18 1 35 10 l29 15 -6 -27 c-3 -15 -14 -38 -23
-52 -17 -23 -18 -23 -31 -6 -13 18 -15 18 -47 1 -27 -14 -49 -16 -106 -12 -63
5 -75 3 -90 -14 -15 -17 -16 -26 -7 -62 6 -23 10 -44 7 -46 -11 -11 -27 22
-31 66 -4 35 -16 62 -42 98 -60 81 -61 86 -18 63z m425 -17 c-7 -12 -16 -21
-21 -21 -8 0 -2 14 16 38 16 20 20 6 5 -17z m-93 -111 c0 -21 -6 -25 -42 -32
-83 -14 -160 -68 -146 -104 3 -9 -2 -15 -16 -15 -12 -1 -26 -2 -32 -3 -7 -1
-15 9 -20 22 -6 16 -5 22 6 22 22 0 27 18 15 54 -19 59 -7 69 74 63 50 -5 80
-2 101 8 41 19 60 14 60 -15z m-8 -83 c-12 -86 -35 -118 -56 -78 -9 15 -19 17
-61 13 -45 -4 -50 -2 -50 15 0 11 8 27 18 36 25 23 103 57 131 57 22 0 23 -3
18 -43z m-217 -97 c0 -5 -2 -10 -4 -10 -3 0 -8 5 -11 10 -3 6 -1 10 4 10 6 0
11 -4 11 -10z"/>
</g>
</svg>
