<?xml version="1.0" standalone="no"?><!DOCTYPE svg PUBLIC "-//W3C//DTD SVG 20010904//EN" "http://www.w3.org/TR/2001/REC-SVG-20010904/DTD/svg10.dtd"><svg xmlns="http://www.w3.org/2000/svg" version="1.0" width="9.8826mm" height="16mm" viewBox="0 0 213.710490 346.000000" preserveAspectRatio="xMidYMid meet">
<metadata>
Created by potrace 1.16, written by Peter Selinger 2001-2019
</metadata>
<g transform="translate(-122.081033,412.000000) scale(0.100000,-0.100000)" fill="#000000" stroke="none">
<path d="M1328 4083 c-43 -46 -73 -103 -93 -180 -38 -145 1 -281 109 -389 86 -85 162 -119 389 -175 112 -28 181 -109 175 -206 -3 -45 -5 -48 -33 -51 -41 -5 -65 -29 -65 -66 0 -22 -9 -39 -30 -58 -20 -18 -30 -35 -30 -55 0 -19 -18 -54 -49 -99 -109 -155 -194 -324 -234 -464 -21 -74 -38 -212 -42 -340 -3 -95 -6 -110 -34 -164 -17 -32 -31 -71 -31 -87 0 -41 33 -122 68 -166 22 -29 32 -53 37 -98 13 -116 46 -301 75 -420 16 -66 32 -144 36 -174 8 -62 29 -89 96 -125 58 -32 82 -33 102 -4 24 34 21 51 -38 203 -104 269 -115 302 -129 386 -8 46 -14 86 -12 87 7 8 39 -66 71 -168 51 -161 131 -256 290 -344 132 -73 273 -168 326 -220 39 -38 54 -46 85 -46 21 0 49 7 61 16 25 17 78 116 96 178 11 38 13 39 124 81 62 23 145 64 185 90 90 60 219 168 252 211 17 22 42 38 77 50 117 38 180 83 194 141 9 34 -17 66 -83 104 -59 33 -132 86 -145 104 -17 23 -5 53 37 95 47 46 65 84 67 142 2 53 -6 58 -84 58 l-70 0 64 63 c36 34 77 84 93 110 24 42 28 59 28 130 0 67 -7 101 -34 182 l-34 100 -65 6 c-36 3 -111 10 -167 14 l-103 8 -23 41 c-30 54 -51 106 -45 111 2 3 58 -2 124 -10 65 -8 140 -15 165 -15 96 0 186 52 235 137 26 43 26 46 11 79 -17 34 -105 109 -178 151 -23 13 -42 23 -44 23 -1 0 8 -29 21 -65 22 -61 23 -68 9 -95 -15 -29 -79 -70 -108 -70 -26 0 -67 41 -128 131 -34 49 -82 106 -108 127 -172 142 -399 208 -528 153 -43 -19 -56 -21 -91 -12 -22 6 -47 8 -56 5 -20 -8 -20 -7 0 47 20 57 12 109 -26 176 -37 64 -144 138 -307 211 -132 59 -185 94 -275 182 -74 73 -117 151 -126 226 -2 24 -8 44 -11 44 -4 0 -23 -17 -43 -37z m-22 -393 c42 -77 114 -152 181 -188 32 -16 113 -49 181 -71 68 -23 142 -54 165 -68 80 -52 138 -130 136 -185 0 -15 -7 -5 -20 29 -28 73 -107 144 -185 167 -256 73 -306 95 -390 169 -82 72 -139 228 -118 324 7 35 8 31 14 -43 5 -62 14 -93 36 -134z m93 26 c18 -22 174 -85 238 -97 81 -15 120 -38 186 -109 67 -71 139 -200 111 -200 -3 0 -46 31 -97 68 -145 107 -177 127 -262 163 -84 35 -157 96 -189 157 -17 32 -8 44 13 18z m400 -128 c159 -87 221 -154 221 -238 0 -41 -10 -38 -42 13 -27 42 -173 189 -238 239 -51 39 -28 34 59 -14z m275 -190 c9 -12 16 -36 15 -53 0 -16 -3 -23 -6 -15 -3 8 -11 22 -18 30 -18 21 -28 60 -16 60 5 0 17 -10 25 -22z m426 -194 c65 -20 314 -176 325 -202 5 -14 -3 -11 -47 20 -38 26 -56 22 -28 -7 32 -34 18 -42 -22 -12 -64 47 -264 155 -330 178 -38 13 -68 27 -68 31 0 20 96 16 170 -8z m-324 -23 c29 -18 144 -151 144 -167 0 -4 -33 25 -72 65 -40 40 -83 74 -95 77 -24 6 -76 -21 -108 -56 -22 -25 -39 -26 -26 -2 20 35 91 102 108 102 10 0 32 -9 49 -19z m215 -12 c11 -6 55 -38 97 -70 42 -33 100 -77 127 -98 55 -42 93 -81 79 -81 -5 0 -27 9 -49 20 -22 11 -77 34 -123 51 -64 24 -104 48 -177 107 -52 41 -95 80 -95 85 0 12 113 1 141 -14z m-97 -178 c137 -134 204 -186 280 -217 49 -20 55 -28 31 -38 -10 -3 -15 -19 -15 -45 0 -24 -5 -41 -14 -44 -8 -3 -79 49 -174 127 -88 73 -167 136 -175 139 -24 9 -116 -97 -192 -220 -21 -35 -43 -63 -50 -63 -6 0 -24 13 -40 30 -26 27 -27 32 -16 57 7 16 15 71 18 123 6 131 6 132 65 191 59 59 104 89 132 89 10 0 77 -57 150 -129z m161 -68 c157 -119 326 -168 499 -144 94 14 128 26 184 68 18 14 36 22 39 19 13 -13 -61 -75 -121 -103 -55 -25 -71 -28 -171 -28 -98 0 -122 4 -215 34 -119 38 -209 92 -287 170 -60 60 -74 100 -20 56 17 -15 59 -47 92 -72z m802 -11 c58 -57 59 -68 11 -127 -27 -32 -100 -75 -129 -75 -6 0 17 25 50 56 65 60 74 84 43 118 -10 12 -29 38 -42 60 -21 35 -21 37 -4 28 11 -6 43 -33 71 -60z m-1347 -131 c-7 -41 -14 -80 -17 -87 -2 -7 14 -33 36 -57 l41 -44 -17 -41 c-17 -45 -30 -53 -39 -24 -3 9 -10 25 -15 35 -5 10 -7 22 -4 27 11 17 -15 20 -51 5 -20 -8 -40 -15 -45 -15 -18 0 -8 26 21 53 35 34 38 47 10 54 -25 7 -25 14 -1 41 10 12 24 50 31 84 7 35 22 74 34 86 l21 24 3 -34 c2 -18 -2 -66 -8 -107z m386 46 c32 -29 105 -90 161 -135 56 -46 108 -94 117 -107 25 -38 30 -104 12 -154 -9 -24 -16 -48 -16 -52 0 -18 56 5 134 54 118 73 143 80 256 71 52 -4 123 -8 157 -7 l63 0 15 -51 c23 -75 39 -196 32 -236 -4 -20 -21 -52 -38 -73 -25 -30 -34 -35 -45 -26 -8 6 -14 23 -14 37 0 14 3 23 6 20 5 -6 7 -14 14 -53 4 -21 28 72 29 109 1 58 -21 166 -32 159 -6 -4 -7 -1 -3 6 5 7 5 24 2 38 l-7 25 -177 -6 c-97 -3 -190 -6 -207 -6 -24 0 -27 -3 -15 -11 12 -8 10 -9 -7 -4 -12 3 -24 1 -28 -6 -4 -6 -23 -17 -41 -25 -25 -11 -32 -18 -27 -32 6 -15 5 -15 -10 -4 -19 16 -57 7 -57 -13 0 -7 6 -16 13 -19 6 -3 2 -3 -10 0 -19 4 -22 2 -17 -13 5 -15 4 -15 -5 -3 -7 11 -6 21 4 36 8 12 11 24 8 28 -3 3 -6 36 -7 73 -1 69 -22 130 -44 126 -6 -2 -9 3 -6 10 10 27 -34 51 -87 49 -55 -2 -62 4 -124 82 -30 38 -60 96 -50 96 3 0 0 6 -7 14 -10 10 -15 11 -21 2 -5 -6 -6 -3 -2 9 4 11 8 26 8 33 1 20 11 14 73 -41z m-109 -62 c-4 -8 -12 -15 -19 -14 -10 0 -10 2 0 6 6 2 12 12 12 21 0 8 3 13 6 9 4 -3 4 -13 1 -22z m-42 -65 c-9 -18 -19 -30 -22 -27 -3 3 3 19 13 36 23 39 30 32 9 -9z m131 -13 c4 -18 9 -26 11 -19 21 59 64 -121 90 -375 l5 -52 56 -7 c45 -5 62 -3 87 11 16 10 73 40 125 67 52 28 87 47 78 44 -21 -6 -23 5 -6 22 6 6 8 15 3 19 -4 5 -10 2 -12 -4 -3 -7 -12 -13 -21 -13 -15 1 -14 3 3 16 11 8 26 12 33 9 8 -3 20 -1 26 3 6 5 25 12 41 15 17 4 24 4 17 1 -6 -3 -10 -10 -7 -14 3 -5 0 -12 -6 -16 -8 -5 -9 -3 -4 7 5 8 -4 3 -18 -10 -35 -32 -28 -37 14 -12 51 30 149 45 241 38 45 -4 83 -9 86 -12 9 -9 -18 -110 -40 -151 -19 -36 -71 -100 -165 -200 -21 -23 -53 -49 -70 -58 -38 -19 -42 -32 -13 -41 11 -3 19 -9 17 -13 -4 -12 55 -82 64 -76 5 3 6 -2 3 -11 -4 -9 0 -23 9 -33 8 -9 22 -32 31 -50 10 -19 21 -30 28 -26 7 4 8 3 4 -5 -4 -6 -2 -18 4 -26 24 -28 0 -35 -126 -35 -141 0 -243 21 -352 71 -35 16 -67 29 -71 29 -4 0 -16 9 -26 20 -10 11 -23 20 -30 20 -6 0 -50 -37 -96 -82 -46 -46 -113 -100 -149 -121 -36 -21 -73 -43 -82 -50 -9 -6 -21 -8 -25 -4 -4 5 -1 12 7 17 33 21 -1 8 -56 -20 -70 -38 -72 -35 -81 85 -5 72 -3 88 11 104 10 11 15 24 12 29 -8 14 4 42 17 42 7 0 7 -4 -1 -12 -7 -7 -12 -17 -12 -22 0 -6 18 8 40 29 22 21 40 43 40 47 0 11 -181 98 -278 133 -103 38 -151 78 -177 145 -20 51 -24 55 -53 55 -18 0 -32 5 -32 10 0 15 115 80 180 102 59 19 215 25 319 11 l53 -7 -7 27 c-4 15 -9 50 -12 79 -4 46 -3 51 14 48 10 -2 21 -4 26 -4 4 -1 7 -9 7 -19 0 -10 5 -23 12 -30 6 -6 9 -14 6 -18 -4 -3 -16 11 -27 33 -27 52 -26 30 3 -43 12 -33 26 -77 30 -96 4 -20 13 -38 20 -41 22 -9 27 5 8 19 -16 13 -16 13 1 14 15 0 16 3 6 21 -7 15 -8 19 0 15 6 -4 9 -1 7 6 -9 29 -16 128 -9 128 5 0 18 -19 31 -43 27 -51 57 -86 94 -110 l27 -17 -4 33 c-2 17 -11 52 -20 77 -11 30 -14 57 -10 80 4 19 9 88 12 153 3 99 6 117 18 107 8 -6 17 -26 21 -43z m-76 29 c0 -11 -19 -15 -25 -6 -3 5 1 10 9 10 9 0 16 -2 16 -4z m568 -54 c3 -9 -4 -11 -25 -6 -44 10 -54 26 -14 22 19 -2 36 -9 39 -16z m-648 -12 c0 -5 -4 -10 -9 -10 -5 0 -11 -9 -14 -20 -3 -11 -10 -20 -16 -20 -18 0 13 59 32 60 4 0 7 -4 7 -10z m651 -20 c10 -6 19 -20 19 -30 0 -11 5 -20 10 -20 6 0 10 -7 10 -15 0 -19 -27 -19 -60 0 -14 8 -35 14 -46 15 -12 0 -27 7 -34 15 -10 12 -9 16 6 21 11 3 26 9 34 14 21 12 38 12 61 0z m-1159 -132 c-22 -57 -46 -124 -52 -149 -8 -33 -20 -50 -40 -62 -15 -9 -30 -17 -33 -17 -8 0 31 126 53 171 31 61 102 170 108 165 2 -3 -14 -51 -36 -108z m80 -17 c0 -20 -5 -59 -12 -87 -11 -45 -17 -51 -49 -61 -20 -6 -37 -10 -39 -8 -6 6 20 91 51 163 27 61 33 69 39 51 5 -12 9 -38 10 -58z m347 47 c-9 -33 -29 -61 -29 -42 0 12 29 74 35 74 2 0 -1 -14 -6 -32z m58 -10 c-3 -7 -5 -2 -5 12 0 14 2 19 5 13 2 -7 2 -19 0 -25z m338 -6 c8 -21 -5 -102 -16 -102 -5 0 -9 12 -9 28 -1 15 -3 44 -6 64 -5 31 -3 37 9 32 9 -3 18 -13 22 -22z m72 -54 c-2 -13 -4 -3 -4 22 0 25 2 35 4 23 2 -13 2 -33 0 -45z m-20 -3 c-1 -22 -4 -30 -9 -22 -6 12 -1 57 7 57 2 0 3 -16 2 -35z m61 -6 c-3 -8 -7 -3 -11 10 -4 17 -3 21 5 13 5 -5 8 -16 6 -23z m425 -16 c-13 -2 -35 -2 -50 0 -16 2 -5 4 22 4 28 0 40 -2 28 -4z m75 0 c-10 -2 -26 -2 -35 0 -10 3 -2 5 17 5 19 0 27 -2 18 -5z m-520 -34 c8 -12 9 -18 4 -15 -12 7 -24 -22 -15 -36 4 -7 1 -8 -7 -3 -9 6 -10 2 -5 -16 7 -23 7 -24 -9 -4 -18 23 -20 49 -6 76 14 24 22 24 38 -2z m-308 -13 c0 -2 3 -11 6 -20 4 -10 1 -16 -9 -16 -8 0 -17 9 -20 20 -3 13 0 20 9 20 8 0 14 -2 14 -4z m324 -31 c-4 -8 -8 -15 -10 -15 -2 0 -4 7 -4 15 0 8 4 15 10 15 5 0 7 -7 4 -15z m47 -60 c-18 -8 -36 -15 -40 -15 -13 1 45 29 59 29 8 0 0 -6 -19 -14z m560 -12 c-12 -20 -14 -14 -5 12 4 9 9 14 11 11 3 -2 0 -13 -6 -23z m4 -74 c-8 -19 -13 -25 -9 -14 3 11 9 36 12 55 5 25 7 29 10 14 2 -12 -4 -37 -13 -55z m-18 9 c-3 -7 -5 -2 -5 12 0 14 2 19 5 13 2 -7 2 -19 0 -25z m-1615 -128 c7 0 7 -4 0 -12 -5 -7 -12 -22 -14 -33 -3 -11 -5 3 -4 30 0 28 2 42 4 33 2 -10 8 -18 14 -18z m1608 -15 c-7 -8 -20 -15 -29 -14 -13 0 -14 1 -1 6 8 3 19 12 23 20 5 8 11 12 14 9 3 -3 0 -12 -7 -21z m-110 -96 c-14 -11 -34 -25 -45 -31 -19 -11 -19 -10 -2 9 9 11 14 23 10 27 -4 4 0 4 8 1 9 -3 22 1 29 10 7 8 16 13 19 10 3 -4 -5 -15 -19 -26z m-1444 -19 c1 -17 -3 -30 -7 -30 -5 0 -9 14 -9 30 0 39 15 39 16 0z m1394 16 c0 -11 -19 -15 -25 -6 -3 5 1 10 9 10 9 0 16 -2 16 -4z m-1362 -20 c-7 -8 -15 -12 -17 -11 -5 6 10 25 20 25 5 0 4 -6 -3 -14z m1263 -23 c-12 -20 -14 -14 -5 12 4 9 9 14 11 11 3 -2 0 -13 -6 -23z m-1291 -23 c5 8 12 11 16 7 4 -4 -1 -13 -11 -21 -21 -15 -30 -9 -53 34 -11 21 -9 20 13 -5 21 -25 27 -27 35 -15z m1353 10 c-19 -22 -26 -21 -17 4 3 9 12 16 20 16 11 0 10 -4 -3 -20z m265 -27 c4 -15 -3 -18 -81 -33 -32 -7 -55 -16 -51 -21 3 -6 3 -17 -1 -27 -5 -13 -12 -9 -41 22 -33 36 -35 40 -17 50 39 23 184 30 191 9z m-1601 -35 c2 -18 0 -20 -7 -8 -12 18 -13 30 -2 30 4 0 9 -10 9 -22z m1423 -65 c42 -58 54 -113 25 -113 -8 0 -15 5 -15 11 0 5 -4 8 -9 5 -5 -3 -8 2 -7 12 0 9 -4 16 -10 15 -6 -1 -10 8 -10 20 1 12 -4 21 -11 20 -7 -2 -10 3 -7 11 3 8 -4 24 -15 35 -12 12 -18 21 -15 21 4 0 1 6 -5 13 -6 8 -8 17 -5 20 13 12 44 -14 84 -70z m-1548 36 c16 -21 17 -29 7 -57 -13 -38 -42 -40 -47 -4 -2 12 -8 22 -13 22 -12 0 -11 27 2 51 13 24 27 21 51 -12z m496 22 c11 -6 10 -10 -4 -15 -9 -3 -19 -4 -22 -1 -3 3 1 5 9 5 11 0 11 2 -1 10 -8 5 -10 10 -5 10 6 0 16 -4 23 -9z m-414 -228 c13 -307 21 -344 143 -651 79 -199 78 -215 -15 -168 -62 32 -72 44 -82 108 -4 29 -21 116 -38 193 -30 138 -53 283 -72 460 -9 80 -8 98 12 163 32 108 44 84 52 -105z m166 142 c7 -9 18 -14 24 -12 6 2 25 -2 43 -10 18 -7 38 -10 46 -7 13 5 34 -12 26 -21 -8 -6 -137 33 -160 48 -17 12 -19 17 -7 17 8 0 21 -7 28 -15z m659 -62 c-12 -100 -31 -132 -107 -185 -55 -38 -66 -30 -18 13 42 37 91 131 83 161 -3 11 -3 17 1 14 3 -4 11 7 18 24 20 48 31 35 23 -27z m73 -13 l22 -35 -22 19 c-12 11 -22 25 -22 32 0 7 -8 15 -17 18 -17 4 -16 5 0 3 10 -1 28 -18 39 -37z m-142 -5 c-7 -8 -9 -15 -4 -15 10 0 -28 -29 -39 -30 -5 0 4 14 20 30 29 31 45 41 23 15z m-460 -30 c-6 -15 -13 -25 -16 -23 -2 3 1 17 7 32 16 34 23 27 9 -9z m1155 15 c-3 -5 -14 -10 -23 -11 -9 0 -4 -5 12 -11 25 -9 31 -8 43 8 11 15 13 16 13 2 0 -22 -31 -31 -64 -19 -32 13 -33 19 -3 31 29 12 29 12 22 0z m-510 -9 c3 -5 1 -12 -5 -16 -5 -3 -10 1 -10 9 0 18 6 21 15 7z m536 -53 c-26 -10 -66 -17 -91 -16 l-45 1 55 7 c30 4 47 7 38 8 -9 1 -20 6 -23 12 -4 7 3 7 19 0 34 -13 76 6 77 34 1 18 2 18 8 -4 6 -23 3 -27 -38 -42z m-501 32 c-8 -5 -19 -10 -25 -10 -5 0 -3 5 5 10 8 5 20 10 25 10 6 0 3 -5 -5 -10z m-238 -33 c-7 -8 -10 -16 -7 -19 9 -8 -53 -60 -67 -55 -8 3 -3 9 15 16 15 6 27 15 27 21 0 6 -4 9 -8 6 -5 -3 -9 2 -9 10 0 10 4 11 11 4 13 -13 29 -13 21 0 -3 5 0 16 7 24 16 18 25 11 10 -7z m266 5 c2 -7 -2 -10 -12 -6 -9 3 -16 11 -16 16 0 13 23 5 28 -10z m47 -12 c3 -5 -1 -10 -10 -10 -9 0 -13 5 -10 10 3 6 8 10 10 10 2 0 7 -4 10 -10z m93 -17 c-16 -2 -40 -2 -55 0 -16 2 -3 4 27 4 30 0 43 -2 28 -4z m95 0 c-7 -2 -19 -2 -25 0 -7 3 -2 5 12 5 14 0 19 -2 13 -5z m-963 -29 c0 -14 -4 -23 -9 -20 -5 3 -14 -16 -21 -42 -8 -26 -19 -51 -27 -55 -7 -4 -13 -13 -13 -19 0 -17 194 0 254 23 28 10 61 19 73 19 12 0 30 12 42 28 11 15 21 21 21 14 0 -10 5 -10 21 -2 11 7 23 9 27 6 3 -3 1 -6 -5 -6 -6 0 -26 -11 -45 -23 -49 -34 -182 -67 -298 -74 -87 -5 -100 -4 -100 10 0 9 4 18 9 22 8 4 28 53 56 133 7 20 15 14 15 -14z m1385 -24 c32 -21 72 -45 87 -51 33 -13 36 -25 8 -34 -13 -4 -31 1 -49 14 -16 12 -36 21 -44 21 -8 0 -17 9 -20 21 -4 16 -11 19 -26 14 -16 -5 -23 -1 -31 20 -5 14 -10 28 -10 31 0 13 32 -1 85 -36z m-1108 -27 c-14 -14 -19 -15 -29 -4 -10 11 -10 12 0 7 6 -4 12 -2 12 3 0 6 8 11 17 11 16 0 16 -1 0 -17z m-297 -60 c-11 -17 -11 -17 -6 0 3 10 6 24 7 30 0 9 2 9 5 0 3 -7 0 -20 -6 -30z m670 -608 c0 -3 -14 -32 -30 -65 -37 -73 -64 -81 -54 -17 4 23 12 48 18 56 15 19 66 39 66 26z"/>
<path d="M2602 2154 c-18 -8 -42 -58 -42 -88 0 -15 12 -34 31 -50 26 -22 34 -24 52 -15 65 34 85 85 50 128 -18 21 -67 35 -91 25z"/>
<path d="M2029 2115 c-32 -17 -50 -61 -38 -92 4 -12 22 -29 40 -39 30 -15 35 -15 66 0 62 29 69 96 14 129 -35 20 -48 21 -82 2z"/>
<path d="M2743 2093 c1 -22 -6 -40 -22 -57 -14 -14 -20 -26 -15 -26 6 0 22 12 36 28 25 25 25 29 12 57 l-13 30 2 -32z"/>
<path d="M2213 2018 c-2 -5 0 -8 5 -8 6 0 33 -16 62 -35 29 -19 61 -35 71 -35 15 0 99 71 99 83 0 6 -233 1 -237 -5z"/>
<path d="M1994 1966 c11 -9 27 -16 35 -16 21 0 2 16 -29 24 -24 7 -24 6 -6 -8z"/>
</g>
</svg>