<?xml version="1.0" standalone="no"?>
<svg xmlns="http://www.w3.org/2000/svg" version="1.0" width="30.457mm" height="35.000mm" viewBox="0 0 905.00 1040.00" preserveAspectRatio="xMidYMid meet">
<!-- Généré par tools/build-personnages-svg.js depuis les axes de Korok masque cornu classique.
     Trait épaissi à 1 mm pour une pose de 35 mm (seuil de lisibilité mesuré : 28 mm). -->
<g fill="#000000" fill-rule="evenodd" stroke="none">
<path d="M177.9,9.6L179.8,83.7L191.4,122.9L214.3,133.5L220.0,138.3L239.1,164.6L269.1,181.1L297.8,213.4L339.6,221.8L379.3,211.6L389.0,212.4L432.7,231.5L456.9,226.8L492.8,207.3L525.8,202.3L534.1,203.5L572.8,221.0L591.5,216.3L622.7,193.1L645.3,184.4L685.0,139.9L711.3,125.9L726.2,69.0L727.1,9.8L734.1,-2.6L748.1,-3.5L756.9,10.2L755.4,74.8L739.1,137.0L744.6,169.5L743.7,177.6L720.3,234.7L723.7,254.6L722.8,262.5L714.7,282.7L724.8,316.5L716.5,388.2L706.6,409.9L699.0,489.7L704.7,533.0L703.5,541.3L678.9,594.3L678.9,628.0L688.5,637.9L700.6,664.3L751.4,670.7L795.1,639.9L804.3,606.3L833.1,558.6L830.6,502.3L837.6,475.3L847.2,464.9L861.1,467.3L866.4,482.7L860.0,507.5L861.9,542.5L892.4,539.2L905.5,544.6L908.2,558.4L895.6,568.8L859.3,572.7L830.8,619.8L825.6,640.2L839.7,644.9L849.4,655.2L846.1,668.9L830.3,673.1L809.5,666.1L766.6,696.3L757.0,726.0L738.0,747.0L731.9,751.0L723.4,754.0L720.6,813.9L710.2,862.8L677.8,923.2L634.7,960.8L628.3,995.9L635.1,1016.3L633.5,1029.0L626.5,1040.0L615.9,1046.7L564.7,1052.5L533.7,1045.5L525.4,1040.3L514.4,1023.8L506.7,982.9L392.0,982.9L388.6,985.4L381.5,1026.0L372.5,1040.0L361.5,1046.8L296.9,1051.9L277.9,1044.9L270.0,1038.1L264.0,1027.1L262.9,1015.3L270.7,991.9L264.3,957.3L212.3,906.7L185.2,839.2L177.8,749.9L163.5,743.5L144.9,722.7L134.5,691.5L96.8,666.1L72.7,672.4L59.0,669.0L54.3,655.7L65.3,643.6L80.5,639.7L71.5,613.4L43.8,568.7L8.4,564.8L-3.2,556.7L-2.9,542.6L11.6,535.2L41.1,538.5L43.0,504.5L38.6,487.8L42.0,474.1L55.2,469.3L67.4,480.2L72.8,503.9L69.9,554.5L99.1,602.2L112.1,640.2L112.1,640.6L150.7,666.6L200.0,660.3L212.1,633.9L221.8,623.5L220.2,595.3L204.3,534.8L208.0,510.1L201.3,468.0L206.9,427.0L184.4,344.3L188.8,320.6L172.2,260.3L174.0,219.8L159.3,170.8L164.8,133.2L150.1,86.4L148.1,10.4L154.5,-2.2L168.5,-3.8ZM235.6,652.3L225.8,674.8L224.9,711.4L222.7,718.6L207.2,744.5L214.6,834.5L238.5,892.4L288.2,939.2L292.6,947.3L300.6,990.3L300.1,997.7L293.1,1018.6L293.4,1019.0L303.9,1022.9L351.4,1018.0L354.8,1012.7L360.3,974.8L366.1,965.1L378.1,956.1L387.0,953.1L519.0,953.1L533.6,965.2L542.9,1014.6L545.3,1017.7L568.7,1022.9L604.4,1018.3L598.9,1001.7L598.4,994.3L606.4,950.3L611.2,941.8L656.1,902.7L682.8,851.0L691.2,809.2L694.0,746.8L687.2,738.5L676.2,708.5L675.2,680.4L664.2,656.2L621.5,708.4L613.3,713.5L584.0,720.3L578.8,733.4L574.5,739.4L539.1,767.9L477.7,789.8L455.7,790.8L453.5,789.8L419.5,788.4L356.3,756.2L330.6,723.4L293.9,715.5L285.7,710.6L236.0,651.8ZM499.8,236.3L464.8,255.6L445.4,259.4L446.7,291.0L467.8,346.9L470.8,390.7L463.9,449.7L466.7,613.1L478.9,618.3L486.1,625.0L495.1,642.0L496.5,652.2L491.5,675.2L484.1,685.0L469.9,692.8L469.9,760.5L474.0,760.3L526.4,741.0L552.5,719.1L556.2,709.6L550.6,667.4L559.2,632.9L563.2,537.4L566.8,531.2L560.8,526.0L529.9,519.5L522.5,515.5L505.5,498.5L501.7,491.9L494.7,465.9L494.7,457.9L503.5,431.6L517.5,414.6L523.7,410.1L557.0,397.4L562.0,341.8L554.1,300.8L555.0,245.5L525.9,232.3ZM189.2,171.8L203.8,218.7L201.9,259.4L218.6,322.7L214.2,346.4L236.7,428.0L231.0,469.8L237.7,512.2L234.2,536.1L249.8,592.2L251.6,624.3L305.1,687.5L326.4,692.1L327.0,684.0L315.3,651.4L297.3,539.4L301.1,528.7L298.4,522.3L298.7,520.5L276.0,504.2L263.2,477.6L263.3,447.3L273.0,424.1L266.1,414.9L263.2,405.0L268.1,330.8L258.4,274.5L262.9,261.1L276.5,257.6L287.6,269.5L297.8,331.0L293.2,401.5L296.1,405.4L319.3,400.3L351.8,407.0L371.0,422.8L382.0,442.8L383.9,450.0L382.3,482.6L368.6,506.1L342.0,523.5L327.8,526.5L327.6,527.7L324.2,531.9L326.7,534.6L344.5,645.5L356.8,683.1L355.1,706.5L377.6,735.1L429.4,760.1L440.1,760.1L440.1,693.9L431.0,689.1L425.2,683.5L415.2,666.5L413.5,655.7L418.5,633.7L423.8,625.3L437.0,614.9L434.2,447.3L441.1,388.7L438.3,351.2L417.2,294.6L415.5,256.4L381.5,241.6L337.1,251.6L287.1,241.6L278.9,236.9L248.5,202.7L217.0,184.7L198.2,158.8L191.5,155.7ZM705.8,704.9L713.8,725.0L714.4,725.7L718.5,724.2L732.6,708.6L735.4,698.6L705.4,694.9ZM166.8,694.5L172.0,710.0L182.3,720.3L186.2,721.8L195.3,706.7L195.7,690.8ZM701.2,164.9L659.3,210.9L635.1,220.2L601.6,244.4L584.7,248.6L583.9,299.7L591.8,342.3L585.9,408.0L608.3,427.4L617.9,450.0L617.9,476.0L615.4,484.1L594.8,514.0L587.8,519.1L586.0,527.2L592.8,538.6L588.4,638.6L580.2,671.6L583.1,690.0L601.7,685.7L649.3,627.5L650.5,584.7L674.7,532.6L669.2,488.6L678.5,399.8L688.5,378.0L694.9,316.7L684.9,286.7L685.2,276.5L693.7,255.3L690.3,235.4L691.3,227.4L714.6,170.3L712.7,158.8ZM446.3,645.4L443.8,656.5L448.7,664.8L454.0,667.6L463.9,662.2L466.3,651.2L462.3,643.6L453.4,639.8ZM300.9,434.5L292.0,455.7L292.7,472.9L300.2,486.6L318.0,498.2L332.9,495.1L348.4,484.1L354.1,472.5L354.1,453.8L346.6,440.0L337.1,433.1L317.8,430.1ZM538.0,436.5L528.4,448.1L524.4,462.1L529.3,480.3L540.4,491.4L567.6,497.1L575.0,491.6L588.1,471.6L588.1,453.5L583.2,443.5L562.7,427.0Z"/>
</g>
</svg>
