<?xml version="1.0" standalone="no"?>
<!DOCTYPE svg PUBLIC "-//W3C//DTD SVG 20010904//EN"
 "http://www.w3.org/TR/2001/REC-SVG-20010904/DTD/svg10.dtd">
<svg version="1.0" xmlns="http://www.w3.org/2000/svg"
 width="257.851828pt" height="325.624063pt" viewBox="0 0 257.851828 325.624063"
 preserveAspectRatio="xMidYMid meet">
<metadata>
Created by potrace 1.16, written by Peter Selinger 2001-2019
</metadata>
<g transform="translate(-58.000000,550.700336) scale(0.100000,-0.100000)"
fill="#000000" stroke="none">
<path d="M2403 5503 c15 -2 39 -2 55 0 15 2 2 4 -28 4 -30 0 -43 -2 -27 -4z"/>
<path d="M1080 5480 c30 -4 63 -4 74 0 10 3 -15 7 -55 7 -73 0 -73 0 -19 -7z"/>
<path d="M2270 5476 c7 -7 14 -6 21 1 9 9 7 12 -9 10 -14 -1 -18 -5 -12 -11z"/>
<path d="M1353 5473 c9 -2 25 -2 35 0 9 3 1 5 -18 5 -19 0 -27 -2 -17 -5z"/>
<path d="M2863 5473 c9 -2 23 -2 30 0 6 3 -1 5 -18 5 -16 0 -22 -2 -12 -5z"/>
<path d="M2125 5462 c-11 -2 -24 -8 -29 -13 -5 -5 5 -4 24 1 18 5 36 7 41 5 4
-3 10 -2 13 3 5 9 -19 11 -49 4z"/>
<path d="M2370 5467 c-3 -3 -32 -7 -65 -10 -79 -7 -125 -17 -125 -28 0 -5 -10
-8 -22 -7 -29 2 -113 -27 -157 -55 -19 -11 -31 -15 -26 -8 5 9 3 12 -6 9 -8
-3 -13 -13 -13 -22 1 -9 -6 -16 -15 -16 -10 0 -18 -7 -18 -15 0 -10 6 -13 17
-10 11 3 21 -3 29 -17 6 -13 9 -15 7 -5 -3 9 -1 17 4 17 6 0 10 -4 10 -10 0
-5 8 -10 18 -10 9 0 31 -9 49 -20 22 -13 42 -17 67 -13 32 5 34 4 29 -17 -6
-22 -5 -22 18 -6 20 13 31 13 62 4 20 -6 37 -16 37 -22 0 -6 5 -4 10 4 9 13
11 13 20 0 6 -9 10 -10 10 -3 0 8 9 9 28 4 15 -4 72 -4 127 -1 55 4 108 3 117
-2 9 -4 28 -4 43 2 14 5 44 10 65 10 21 0 41 6 43 13 3 7 6 5 6 -5 1 -24 21
-23 21 1 0 15 10 21 43 26 23 3 51 9 62 11 16 4 17 3 5 -5 -12 -9 -10 -11 13
-11 15 0 27 5 27 11 0 7 12 10 30 7 23 -3 27 -2 19 8 -8 9 -4 12 16 9 16 -1
24 2 22 9 -6 15 65 18 76 3 6 -8 7 -5 3 6 -4 13 0 20 14 24 28 7 25 31 -5 39
-14 3 -25 9 -25 13 0 10 -46 31 -68 31 -9 0 -28 6 -42 13 -14 8 -45 14 -69 15
-23 1 -47 5 -53 8 -13 8 -59 11 -283 19 -94 3 -173 4 -175 2z"/>
<path d="M1135 5448 c-82 -3 -168 -11 -190 -17 -22 -5 -65 -16 -95 -24 -30 -7
-65 -19 -77 -25 -12 -7 -33 -12 -47 -12 -16 0 -27 -7 -31 -21 -4 -12 -12 -18
-21 -15 -8 3 -14 1 -14 -5 0 -6 -5 -9 -12 -7 -13 5 -68 -39 -68 -54 0 -4 9 -8
20 -8 11 0 20 -6 20 -12 0 -10 2 -10 8 -1 6 9 19 7 54 -11 35 -17 45 -20 41
-9 -5 13 -2 13 16 4 12 -7 31 -9 41 -6 12 4 20 2 20 -4 0 -6 15 -11 34 -11 19
0 38 -4 41 -10 3 -5 20 -10 36 -10 37 0 29 20 -9 21 -18 1 -21 3 -9 6 10 3 39
-2 64 -11 37 -13 91 -16 252 -16 137 0 201 4 191 10 -12 8 -12 10 5 10 11 1
43 2 72 3 28 1 55 5 59 10 4 4 17 7 29 7 11 0 25 4 31 10 5 5 30 11 54 14 24
2 46 9 48 15 2 6 12 11 22 11 10 0 22 5 25 10 4 6 9 8 13 6 4 -2 13 2 20 10 8
9 9 14 2 14 -6 0 -8 5 -5 10 3 6 -3 10 -14 10 -12 0 -21 5 -21 10 0 6 -8 10
-17 10 -35 1 -203 56 -196 64 5 5 -2 4 -13 -2 -16 -9 -35 -8 -75 2 -30 8 -57
12 -62 9 -4 -2 -13 0 -20 5 -19 15 -63 17 -222 10z"/>
<path d="M1660 5417 c28 -15 62 -18 54 -6 -2 5 -11 6 -18 3 -8 -3 -17 -1 -21
5 -3 6 -14 11 -23 11 -12 0 -9 -4 8 -13z"/>
<path d="M1819 5413 c-11 -15 -11 -16 1 -5 19 17 33 15 26 -3 -4 -12 -2 -13
14 -2 18 11 19 12 2 19 -26 10 -28 9 -43 -9z"/>
<path d="M715 5403 c-11 -3 -32 -14 -47 -24 -14 -11 -33 -19 -41 -19 -9 0 -19
-5 -23 -11 -9 -16 34 -1 68 22 14 11 33 19 41 19 9 0 19 5 22 10 3 6 5 9 3 9
-2 -1 -12 -4 -23 -6z"/>
<path d="M1939 5393 c-12 -16 -12 -17 1 -7 8 7 24 14 35 17 19 4 19 5 -1 6
-12 0 -28 -7 -35 -16z"/>
<path d="M3096 5397 c2 -7 14 -19 27 -26 21 -13 21 -12 -2 13 -27 29 -33 32
-25 13z"/>
<path d="M1772 5384 c9 -9 21 -15 27 -13 6 2 -2 10 -17 17 -25 11 -25 11 -10
-4z"/>
<path d="M3140 5330 c0 -11 -8 -24 -17 -27 -10 -4 -20 -10 -23 -15 -3 -4 -24
-15 -45 -23 -32 -12 -34 -14 -10 -10 45 9 105 52 105 75 0 11 -2 20 -5 20 -3
0 -5 -9 -5 -20z"/>
<path d="M1839 5273 c-1 -21 -2 -42 -4 -48 -1 -5 -3 -34 -3 -63 -1 -29 -5 -51
-9 -49 -5 3 -6 -18 -4 -45 2 -28 -1 -48 -5 -45 -5 3 -7 -27 -6 -65 3 -61 2
-70 -12 -65 -9 4 -16 2 -16 -2 0 -5 4 -11 9 -13 6 -2 12 -134 14 -319 2 -174
7 -321 11 -328 4 -6 4 -32 0 -57 -4 -31 -9 -42 -15 -33 -5 8 -9 9 -9 4 0 -6 6
-17 13 -23 8 -9 13 -62 15 -170 5 -207 5 -315 2 -327 -1 -5 -1 -44 0 -85 1
-65 3 -71 12 -45 10 31 12 266 6 1070 -2 259 0 511 5 560 12 152 13 185 5 185
-4 0 -9 -17 -9 -37z"/>
<path d="M1900 5273 c8 -3 17 -9 20 -13 6 -8 70 -31 70 -25 0 7 -82 45 -94 44
-6 0 -4 -3 4 -6z"/>
<path d="M2796 5242 c-3 -5 8 -6 25 -4 16 2 29 6 29 8 0 8 -49 4 -54 -4z"/>
<path d="M2050 5229 c0 -7 -10 -9 -26 -6 -16 3 -22 1 -16 -5 5 -5 23 -8 40 -6
25 2 28 5 16 16 -10 9 -14 9 -14 1z"/>
<path d="M580 5223 c8 -3 29 -11 45 -19 39 -17 116 -37 122 -31 2 3 -19 10
-48 17 -29 7 -64 19 -78 26 -14 8 -33 14 -41 13 -13 0 -13 -1 0 -6z"/>
<path d="M1665 5209 c-33 -11 -75 -20 -93 -21 -31 -1 -58 -18 -29 -18 20 0
169 40 187 50 23 14 1 10 -65 -11z"/>
<path d="M2886 5211 c-3 -4 6 -6 19 -3 14 2 25 6 25 8 0 8 -39 4 -44 -5z"/>
<path d="M2100 5197 c8 -8 38 -18 65 -21 l50 -5 -50 12 c-27 7 -57 16 -65 21
-13 8 -13 7 0 -7z"/>
<path d="M2805 5190 l-40 -7 35 -1 c19 0 44 3 55 8 24 10 7 10 -50 0z"/>
<path d="M2270 5164 c25 -7 52 -13 60 -13 8 0 -5 7 -30 15 -25 7 -52 13 -60
13 -8 0 5 -7 30 -15z"/>
<path d="M2617 5168 c-7 -4 9 -8 36 -8 26 0 47 2 47 4 0 8 -71 12 -83 4z"/>
<path d="M2723 5173 c9 -2 23 -2 30 0 6 3 -1 5 -18 5 -16 0 -22 -2 -12 -5z"/>
<path d="M761 5166 c2 -2 31 -6 64 -9 39 -4 50 -3 30 2 -31 9 -102 14 -94 7z"/>
<path d="M1400 5161 c-17 -5 -21 -9 -12 -15 7 -4 19 -2 27 4 8 7 25 10 37 7
13 -2 34 -1 48 3 32 10 -63 10 -100 1z"/>
<path d="M2390 5160 c-35 -5 -24 -7 45 -7 57 0 79 3 60 8 -36 8 -47 8 -105 -1z"/>
<path d="M2545 5160 c-19 -8 -19 -9 3 -9 12 -1 22 4 22 9 0 6 -1 10 -2 9 -2 0
-12 -4 -23 -9z"/>
<path d="M891 5156 c2 -2 56 -6 119 -9 76 -3 97 -2 60 3 -57 8 -187 13 -179 6z"/>
<path d="M1308 5154 c-4 -3 -46 -5 -94 -5 -48 0 -85 -2 -82 -5 3 -2 45 -4 94
-4 49 1 103 1 119 1 26 0 27 1 10 9 -24 10 -40 12 -47 4z"/>
<path d="M1782 5085 c0 -16 2 -22 5 -12 2 9 2 23 0 30 -3 6 -5 -1 -5 -18z"/>
<path d="M1863 4960 c0 -35 2 -40 8 -22 5 12 5 32 0 44 -6 18 -8 13 -8 -22z"/>
<path d="M1763 4810 c0 -25 2 -35 4 -22 2 12 2 32 0 45 -2 12 -4 2 -4 -23z"/>
<path d="M1774 4612 c-7 -4 -11 -40 -11 -87 l0 -80 6 75 c3 41 10 81 14 88 9
14 7 15 -9 4z"/>
<path d="M1873 4445 c0 -22 2 -30 4 -17 2 12 2 30 0 40 -3 9 -5 -1 -4 -23z"/>
<path d="M1872 4355 c0 -16 2 -22 5 -12 2 9 2 23 0 30 -3 6 -5 -1 -5 -18z"/>
<path d="M1773 4265 c0 -27 2 -38 4 -22 2 15 2 37 0 50 -2 12 -4 0 -4 -28z"/>
<path d="M3099 4234 c-14 -7 -34 -24 -45 -36 l-19 -23 25 20 c65 52 86 51 93
-5 l4 -35 1 37 c2 46 -20 61 -59 42z"/>
<path d="M3088 4171 c-9 -17 -15 -38 -14 -48 2 -10 1 -12 -1 -5 -5 14 -23 16
-23 2 0 -14 -37 -13 -46 2 -5 7 -10 3 -16 -12 -5 -14 -5 -27 2 -34 7 -7 10 -7
10 0 0 6 7 11 15 11 8 0 15 -4 15 -8 0 -4 11 -10 25 -13 29 -7 30 -14 11 -61
-16 -39 -13 -47 5 -14 28 54 59 209 40 209 -3 0 -14 -13 -23 -29z m18 -28
c-10 -10 -19 5 -10 18 6 11 8 11 12 0 2 -7 1 -15 -2 -18z"/>
<path d="M2170 4158 c-16 -42 -17 -51 -25 -192 l-7 -119 28 7 c16 4 31 12 32
17 2 5 8 7 12 4 5 -3 26 4 47 15 21 11 48 20 60 20 29 0 31 35 3 52 -11 7 -20
18 -20 25 0 7 -4 13 -10 13 -5 0 -10 7 -10 15 0 8 -3 15 -8 15 -10 0 -38 70
-58 148 -6 23 -32 12 -44 -20z m55 -51 l21 -64 -25 2 c-23 1 -26 5 -23 37 1
20 -2 39 -8 43 -5 3 -10 12 -10 18 0 7 4 6 11 -3 8 -11 9 -8 4 15 -11 48 7 20
30 -48z m-52 -58 c-5 -5 -6 11 -3 34 4 41 5 41 8 8 2 -18 0 -37 -5 -42z m135
-87 c30 -31 28 -39 -10 -45 -18 -3 -43 -7 -55 -10 -13 -4 -27 1 -39 14 -10 11
-12 19 -6 19 7 0 12 7 12 15 0 9 12 18 30 22 30 6 38 17 20 28 -5 3 -10 12 -9
18 0 7 8 1 17 -13 9 -14 27 -35 40 -48z"/>
<path d="M2981 4187 c2 -1 14 -10 26 -20 16 -14 23 -15 29 -6 4 7 3 10 -3 6
-6 -4 -16 0 -23 8 -7 8 -17 15 -23 15 -6 0 -8 -1 -6 -3z"/>
<path d="M2957 4118 c19 -103 0 -177 -49 -193 -9 -3 -20 -15 -23 -26 -4 -10
-11 -19 -17 -19 -5 0 -23 -9 -39 -21 -16 -11 -33 -18 -38 -14 -26 15 -18 -20
14 -62 19 -26 40 -59 47 -73 7 -14 21 -38 31 -53 15 -22 22 -25 33 -16 8 6 14
22 14 35 0 12 6 29 13 36 19 20 90 174 101 223 6 24 5 28 -5 18 -9 -9 -16 -9
-25 -2 -9 7 -20 6 -38 -6 -23 -15 -26 -15 -26 -2 0 8 6 17 13 19 15 6 19 144
4 173 -9 18 -9 19 6 6 15 -12 17 -11 17 3 0 9 -8 16 -20 16 -18 0 -20 -4 -13
-42z m35 -260 c-6 -27 -20 -38 -39 -31 -18 7 -17 33 2 33 8 0 15 5 15 10 0 6
6 10 14 10 10 0 12 -7 8 -22z m-122 -50 c40 -33 50 -64 29 -85 -14 -14 -4 -47
11 -38 6 3 7 -1 4 -9 -9 -23 -19 -20 -33 10 -6 15 -32 53 -56 84 -43 56 -44
59 -23 63 13 2 24 5 26 6 2 0 21 -14 42 -31z"/>
<path d="M1873 4095 c0 -27 2 -38 4 -22 2 15 2 37 0 50 -2 12 -4 0 -4 -28z"/>
<path d="M2112 4080 c0 -19 2 -27 5 -17 2 9 2 25 0 35 -3 9 -5 1 -5 -18z"/>
<path d="M1772 4065 c0 -16 2 -22 5 -12 2 9 2 23 0 30 -3 6 -5 -1 -5 -18z"/>
<path d="M2281 4070 c-1 -8 13 -31 30 -50 18 -20 26 -26 20 -13 -6 12 -16 25
-22 28 -6 4 -14 17 -19 29 -5 12 -9 15 -9 6z"/>
<path d="M2931 4035 c-1 -20 -16 -44 -48 -79 -27 -27 -37 -41 -23 -31 50 37
82 83 77 112 l-4 28 -2 -30z"/>
<path d="M3088 3963 c-3 -16 -8 -37 -12 -48 -7 -19 -7 -19 4 -2 17 26 30 77
20 77 -4 0 -10 -12 -12 -27z"/>
<path d="M2395 3950 c19 -8 83 -14 74 -6 -2 2 -24 6 -49 9 -30 4 -38 3 -25 -3z"/>
<path d="M2535 3939 c17 -6 45 -10 63 -10 17 0 32 -3 32 -7 0 -11 71 -44 78
-37 3 3 1 5 -5 5 -6 0 -26 11 -45 23 -22 15 -56 26 -94 30 -47 4 -53 4 -29 -4z"/>
<path d="M2449 3906 c-3 -3 -27 -7 -54 -10 -52 -5 -113 -23 -129 -37 -6 -5
-20 -9 -32 -9 -12 0 -25 -7 -28 -16 -3 -8 -10 -13 -16 -9 -12 7 -88 -67 -125
-123 -15 -23 -31 -39 -36 -36 -5 3 -6 -1 -3 -9 3 -8 -2 -22 -11 -30 -9 -9 -18
-40 -21 -69 -2 -29 -7 -72 -9 -95 -3 -25 0 -47 8 -55 6 -7 20 -29 31 -47 10
-19 26 -41 35 -50 20 -20 83 -51 103 -51 8 0 19 -5 25 -11 6 -6 42 -11 81 -12
82 -1 106 12 97 53 -7 30 15 56 40 46 11 -4 15 -20 15 -59 0 -43 5 -59 24 -80
38 -41 101 -68 154 -66 26 1 61 -1 77 -5 52 -11 164 52 222 126 23 31 41 101
32 131 -4 16 -6 42 -2 58 3 18 1 29 -6 29 -6 0 -11 10 -11 22 0 41 -39 141
-64 163 -6 6 -20 27 -31 48 -34 65 -95 130 -147 159 -28 15 -53 27 -56 26 -4
0 -9 1 -12 2 -18 7 -146 21 -151 16z m-118 -332 c35 -31 -4 -76 -57 -66 -24 4
-38 54 -20 72 15 15 57 12 77 -6z m351 -9 c46 -51 48 -64 18 -112 -26 -43 -64
-44 -109 -4 -36 32 -36 51 1 104 22 30 68 37 90 12z m-208 -135 c72 0 47 -55
-27 -58 -46 -3 -87 21 -87 51 0 18 37 27 62 15 9 -4 32 -8 52 -8z"/>
<path d="M2810 3896 c-6 -8 -21 -17 -33 -19 -21 -4 -21 -4 -1 -6 11 0 29 8 39
19 10 11 16 20 13 20 -3 0 -11 -6 -18 -14z"/>
<path d="M2100 3819 c0 -7 -8 -18 -17 -26 -16 -13 -16 -13 5 -3 19 9 32 40 17
40 -3 0 -5 -5 -5 -11z"/>
<path d="M1883 3755 c0 -27 2 -38 4 -22 2 15 2 37 0 50 -2 12 -4 0 -4 -28z"/>
<path d="M2992 3718 c-10 -30 -10 -31 3 -14 13 17 21 46 12 46 -1 0 -8 -15
-15 -32z"/>
<path d="M1783 3660 c0 -36 2 -50 4 -32 2 17 2 47 0 65 -2 17 -4 3 -4 -33z"/>
<path d="M1791 3583 c-1 -6 -4 -20 -7 -30 -5 -17 -5 -17 6 0 6 10 9 23 6 30
-3 9 -5 9 -5 0z"/>
<path d="M1900 3584 c0 -7 52 -25 57 -20 2 2 -10 8 -26 14 -17 6 -31 9 -31 6z"/>
<path d="M1885 3550 c-4 -6 0 -10 8 -10 8 0 20 -7 27 -15 7 -8 8 -15 3 -15 -5
0 -14 -12 -20 -27 -11 -27 -11 -27 -7 7 3 26 2 30 -4 15 l-9 -20 -5 20 c-5 19
-6 19 -7 -1 -1 -26 25 -92 45 -111 8 -8 19 -23 25 -34 5 -11 15 -16 21 -13 7
5 8 2 3 -6 -5 -8 13 -32 54 -70 33 -32 61 -65 61 -75 0 -10 -5 -13 -12 -9 -8
5 -9 2 -5 -11 4 -9 3 -23 -1 -29 -5 -6 -14 -24 -20 -41 -6 -16 -20 -55 -31
-85 -12 -30 -26 -83 -32 -118 -12 -66 -22 -81 -43 -63 -10 8 -18 5 -32 -14
-10 -14 -25 -23 -32 -20 -7 3 -10 1 -7 -5 6 -10 -33 -35 -42 -26 -3 3 -16 -8
-29 -23 -27 -33 -32 -71 -8 -71 8 0 12 -4 9 -10 -3 -5 1 -10 9 -10 9 0 16 -4
16 -8 0 -10 237 -8 247 1 3 4 1 7 -5 7 -14 0 -16 26 -3 34 5 4 23 -7 39 -24
17 -16 38 -30 48 -30 14 0 13 4 -7 20 -47 39 -50 42 -44 48 4 4 12 -1 19 -11
13 -17 36 -23 36 -9 0 12 -65 52 -86 52 -16 0 -16 2 -4 10 13 8 13 13 -3 39
-21 36 -22 57 -1 65 23 9 94 -4 136 -25 21 -11 44 -19 52 -19 8 0 21 -6 28
-13 20 -20 128 -88 128 -80 0 3 8 -1 18 -9 32 -27 80 -40 151 -40 52 0 71 -4
75 -15 7 -17 -1 -33 -16 -33 -6 0 -5 7 3 18 13 15 12 16 -3 3 -10 -7 -15 -17
-12 -23 3 -5 -6 -20 -19 -32 -20 -19 -27 -21 -31 -9 -4 10 -10 11 -25 3 -11
-5 -31 -10 -45 -10 -14 0 -28 -4 -31 -10 -3 -5 -16 -10 -28 -10 -18 0 -19 2
-7 10 11 7 3 8 -27 4 -35 -5 -43 -3 -55 15 -7 11 -16 21 -21 21 -4 0 -5 -6 -1
-12 5 -7 -5 -3 -20 10 -16 12 -35 22 -42 22 -7 0 -18 8 -23 18 -6 9 -11 13
-11 9 0 -5 -16 1 -36 12 -36 22 -58 21 -37 0 6 -6 9 -17 6 -24 -2 -8 5 -18 16
-25 27 -14 27 -34 1 -27 -32 8 -23 -1 22 -23 50 -24 60 -26 30 -4 -24 16 -29
34 -10 34 6 0 30 -8 52 -19 51 -23 165 -45 189 -36 12 5 17 2 17 -12 0 -14 -8
-19 -32 -21 -18 -2 -34 -5 -36 -7 -6 -6 49 -115 71 -139 9 -11 17 -25 17 -32
0 -6 7 -18 16 -25 14 -11 19 -10 35 11 11 14 25 32 31 40 7 8 12 18 10 23 -1
5 7 35 18 66 26 74 26 101 0 101 -24 0 -27 28 -4 37 22 8 74 60 74 73 0 6 -4
8 -10 5 -6 -3 -7 1 -4 9 3 9 11 14 16 13 12 -2 50 124 68 225 9 50 9 71 0 88
-6 12 -9 24 -6 28 3 3 6 0 6 -7 0 -7 10 -10 24 -7 17 3 25 -1 29 -14 4 -16 15
-18 108 -16 110 2 129 7 129 34 0 14 -99 89 -134 101 -6 2 -21 13 -33 24 -21
19 -24 19 -41 4 -28 -26 -134 -58 -149 -46 -7 7 -18 7 -28 2 -25 -15 -127 5
-186 35 -37 19 -60 39 -74 64 -16 28 -24 35 -33 26 -17 -17 -151 -18 -192 0
-75 32 -86 37 -117 57 -18 11 -33 26 -33 33 0 11 -13 16 -32 13 -4 0 -5 6 -1
15 3 9 2 19 -3 23 -15 10 -34 60 -34 87 0 14 -4 23 -9 19 -6 -3 -9 12 -8 36 2
34 -2 43 -20 50 -13 5 -25 4 -28 -1z m998 -437 c34 -19 56 -42 57 -57 0 -6 -6
-2 -13 8 -12 17 -16 16 -75 -12 -66 -32 -84 -29 -95 17 -4 18 -3 21 6 12 14
-14 28 -14 25 0 -2 6 3 14 11 17 8 3 11 0 7 -7 -4 -6 -2 -11 4 -11 6 0 15 11
20 25 11 30 13 30 53 8z m-543 -15 c14 -5 40 -10 58 -10 17 0 32 -4 32 -9 0
-5 9 -9 21 -9 11 0 30 -5 42 -12 31 -17 119 -18 113 -2 -3 8 1 11 10 7 7 -3
14 -8 14 -12 0 -11 49 -11 56 0 4 8 9 7 15 -2 7 -11 11 -10 23 6 9 11 15 16
15 10 0 -5 -6 -18 -13 -28 -9 -12 -12 -28 -7 -45 4 -15 4 -43 1 -62 -4 -29
-10 -36 -33 -38 -15 -2 -25 -7 -22 -12 3 -5 1 -11 -5 -15 -5 -3 -10 0 -10 8 0
11 -11 12 -52 6 -87 -12 -210 -9 -253 6 -22 8 -56 15 -75 15 -20 0 -40 4 -45
9 -13 11 -102 39 -139 43 -42 4 -53 28 -33 71 9 19 17 42 17 50 0 20 14 29 60
38 42 9 174 1 210 -13z m650 -58 c13 -9 13 -11 0 -20 -8 -5 -23 -10 -33 -10
-11 0 -15 -4 -11 -12 5 -7 3 -8 -6 -3 -7 4 -16 2 -21 -6 -6 -9 -9 -10 -9 -2 0
6 13 20 29 29 17 10 28 21 25 26 -7 11 8 10 26 -2z m-1013 -221 c-13 -8 -15
-14 -7 -30 15 -26 33 -24 26 4 -6 20 -5 20 6 -2 10 -19 10 -25 0 -29 -16 -5
-15 -22 2 -22 8 0 14 -10 14 -24 0 -22 -4 -24 -37 -19 -57 9 -96 35 -97 66 -1
15 4 27 11 27 7 0 15 7 19 15 3 8 16 15 30 15 14 0 28 5 31 11 4 6 10 7 13 4
4 -4 -1 -11 -11 -16z m98 -99 c3 -5 -3 -10 -14 -10 -12 0 -21 5 -21 10 0 6 6
10 14 10 8 0 18 -4 21 -10z m185 -121 c0 -5 -9 -4 -19 3 -11 7 -17 16 -14 20
5 10 33 -10 33 -23z m263 -59 c3 -11 3 -20 1 -20 -3 0 -14 9 -26 20 -22 20
-22 20 -1 20 12 0 23 -8 26 -20z m50 -87 c-8 -23 -15 -28 -44 -28 -33 0 -34 1
-37 45 -1 27 1 40 6 32 6 -9 14 -7 33 10 l24 23 14 -27 c9 -19 10 -35 4 -55z
m40 59 c4 8 6 7 6 -4 2 -30 -15 -28 -33 5 l-17 32 19 -23 c14 -15 22 -18 25
-10z m-159 -61 c-6 -6 -24 19 -24 34 1 6 7 1 15 -9 8 -11 12 -22 9 -25z m101
-99 c-5 -4 -10 -14 -10 -22 0 -8 -9 -16 -20 -18 -12 -2 -16 0 -9 5 6 4 13 16
17 26 3 9 12 17 19 17 8 0 9 -3 3 -8z"/>
<path d="M2938 3523 c5 -21 7 -23 10 -9 2 10 0 22 -6 28 -6 6 -7 0 -4 -19z"/>
<path d="M2963 3435 c0 -22 2 -30 4 -17 2 12 2 30 0 40 -3 9 -5 -1 -4 -23z"/>
<path d="M1780 3453 c0 -20 38 -45 59 -38 12 3 21 2 21 -2 0 -5 7 -18 15 -29
14 -17 14 -16 1 13 -17 33 -36 52 -36 34 0 -18 -21 -12 -41 11 -11 11 -19 17
-19 11z"/>
<path d="M1989 3242 c25 -26 49 -46 54 -44 7 3 -83 92 -94 92 -4 0 14 -21 40
-48z"/>
<path d="M2940 3130 c29 -22 58 -40 64 -40 6 0 2 6 -9 12 -11 6 -36 24 -56 40
-20 15 -40 28 -45 28 -4 0 17 -18 46 -40z"/>
<path d="M3057 3050 c9 -11 19 -17 21 -15 6 6 -18 35 -29 35 -5 0 -1 -9 8 -20z"/>
<path d="M2783 2908 c-17 -63 -25 -126 -13 -108 5 8 10 28 10 44 0 16 6 45 12
64 13 34 13 34 63 29 34 -4 42 -3 25 3 -14 4 -39 8 -55 9 -28 1 -32 -3 -42
-41z"/>
<path d="M2973 2943 c9 -2 23 -2 30 0 6 3 -1 5 -18 5 -16 0 -22 -2 -12 -5z"/>
<path d="M1925 2900 c-4 -6 -33 -33 -66 -60 -33 -28 -56 -50 -52 -50 10 0 141
119 131 120 -4 0 -10 -5 -13 -10z"/>
<path d="M1751 2759 c-21 -29 -21 -29 -2 -17 12 7 21 18 21 25 0 6 6 14 13 16
6 3 7 6 1 6 -5 1 -20 -13 -33 -30z"/>
<path d="M2731 2683 c-10 -26 -10 -27 4 -9 8 11 15 23 15 28 0 15 -7 8 -19
-19z"/>
<path d="M1797 2630 c9 -9 109 -23 101 -15 -3 3 -29 9 -57 14 -29 5 -49 5 -44
1z"/>
<path d="M1948 2608 c6 -6 18 -8 28 -6 14 3 12 5 -9 10 -19 3 -25 2 -19 -4z"/>
<path d="M2025 2610 c-12 -5 4 -6 38 -4 37 3 64 1 73 -7 9 -7 14 -8 14 -1 0
21 -83 28 -125 12z"/>
<path d="M2677 2553 c-4 -3 -7 -13 -7 -22 1 -13 3 -13 11 2 11 19 8 33 -4 20z"/>
<path d="M2263 2544 c5 -5 32 -16 60 -26 47 -14 50 -15 28 0 -13 9 -31 17 -40
18 -9 1 -25 5 -36 9 -12 5 -17 4 -12 -1z"/>
<path d="M2370 2477 c0 -9 5 -17 10 -17 6 0 10 -6 10 -14 0 -8 4 -18 10 -21
12 -7 2 22 -17 50 -11 17 -13 17 -13 2z"/>
<path d="M2455 2320 c9 -16 18 -30 21 -30 2 0 -2 14 -11 30 -9 17 -18 30 -21
30 -2 0 2 -13 11 -30z"/>
<path d="M2587 2300 c-10 -12 -23 -18 -29 -14 -6 4 -8 3 -4 -4 3 -6 -6 -15
-21 -20 -18 -7 -22 -11 -10 -11 23 -1 65 26 78 50 13 25 8 24 -14 -1z"/>
</g>
</svg>
