<?xml version="1.0" standalone="no"?><!DOCTYPE svg PUBLIC "-//W3C//DTD SVG 20010904//EN" "http://www.w3.org/TR/2001/REC-SVG-20010904/DTD/svg10.dtd"><svg xmlns="http://www.w3.org/2000/svg" version="1.0" width="11.5468mm" height="16mm" viewBox="0 0 291.557587 404.002876" preserveAspectRatio="xMidYMid meet">
<metadata>
Created by potrace 1.16, written by Peter Selinger 2001-2019
</metadata>
<g transform="translate(-59.227469,477.676522) scale(0.100000,-0.100000)" fill="#000000" stroke="none">
<path d="M2585 4766 c-33 -15 -113 -96 -192 -192 l-50 -62 -42 44 c-73 78 -93 54 -90 -107 l2 -110 -94 -95 c-106 -107 -177 -159 -247 -180 -215 -66 -417 -57 -584 26 -86 43 -280 167 -371 238 -33 25 -94 63 -135 84 -63 33 -82 38 -111 33 -68 -13 -90 -52 -64 -118 9 -23 81 -136 159 -252 78 -115 171 -257 206 -315 108 -175 173 -372 198 -600 6 -58 13 -115 14 -127 3 -21 -1 -21 -155 -28 -87 -4 -157 -11 -154 -15 2 -4 -6 -5 -19 -3 -13 3 -33 0 -44 -6 -16 -9 -19 -19 -17 -61 3 -54 22 -110 36 -110 5 0 8 -3 7 -7 -5 -16 25 -72 35 -66 6 3 7 1 3 -5 -9 -15 43 -93 58 -85 6 3 8 3 4 -2 -11 -11 11 -47 24 -39 6 4 8 3 5 -3 -10 -15 131 -146 149 -139 8 3 12 2 9 -4 -3 -5 14 -21 39 -35 43 -25 44 -27 39 -68 -17 -148 -82 -298 -233 -542 -111 -178 -153 -291 -136 -359 5 -20 13 -26 34 -26 29 0 127 54 172 94 14 12 42 35 63 50 22 16 68 56 103 89 36 33 68 57 71 53 4 -3 10 -59 14 -124 16 -237 73 -663 91 -670 4 -2 5 -8 2 -14 -3 -5 0 -39 6 -74 9 -48 18 -69 35 -80 30 -19 169 -24 187 -6 9 9 15 60 18 170 7 196 19 227 95 255 31 12 91 21 156 24 95 5 111 4 150 -15 77 -38 112 -111 124 -256 9 -103 23 -125 82 -128 68 -3 118 3 141 18 22 14 22 18 22 208 0 172 3 206 25 298 31 132 45 246 45 375 0 57 2 103 4 103 2 0 44 -30 93 -66 48 -36 100 -72 114 -80 15 -7 30 -21 33 -31 4 -9 4 -14 0 -10 -9 8 -135 -213 -128 -224 2 -4 -1 -9 -8 -11 -16 -6 -3 -38 15 -38 23 0 59 56 113 171 l49 107 47 -5 c58 -7 67 7 43 63 -30 70 -35 85 -27 80 4 -3 33 46 64 108 l56 113 69 18 c75 20 99 33 85 47 -8 8 -42 3 -117 -19 -18 -5 -18 -5 -2 20 9 15 14 33 10 43 -4 10 -2 15 4 11 12 -8 96 160 87 175 -4 6 -3 8 3 5 6 -4 15 4 21 17 10 21 14 22 59 14 97 -17 221 -21 267 -8 48 13 89 45 83 63 -6 19 -140 20 -280 2 -71 -9 -131 -14 -133 -12 -3 2 -27 55 -54 118 -56 127 -96 177 -130 159 -11 -6 -20 -19 -20 -29 0 -20 121 -206 152 -233 10 -9 18 -18 18 -20 -1 -2 2 -11 5 -21 4 -9 3 -23 -2 -30 -29 -36 -103 -189 -97 -199 4 -6 3 -8 -2 -5 -13 7 -127 -221 -118 -235 4 -6 3 -8 -3 -5 -13 8 -36 -41 -27 -55 5 -7 2 -8 -6 -3 -10 6 -12 4 -7 -8 14 -37 -20 -9 -51 43 -19 30 -56 88 -84 129 -35 50 -47 75 -39 80 6 4 14 23 17 42 7 43 -13 193 -26 197 -6 2 -8 8 -5 13 8 12 -25 129 -36 129 -4 0 -7 11 -6 25 2 20 15 33 62 59 33 19 59 39 57 46 -1 6 2 9 8 5 14 -9 42 14 33 28 -3 5 -1 7 4 4 11 -7 40 20 43 38 1 6 4 12 7 15 4 3 3 -2 -1 -10 -4 -8 4 -1 18 15 33 38 98 168 100 199 0 13 5 22 10 18 5 -3 7 2 3 11 -3 10 -2 17 3 17 12 0 40 94 40 135 0 24 -6 35 -25 43 -14 6 -31 9 -39 6 -8 -3 -17 -1 -21 5 -8 13 -231 15 -239 2 -3 -5 -14 -7 -24 -4 -14 3 -141 -37 -224 -71 -18 -8 -18 -47 2 399 14 304 43 460 180 955 68 247 96 379 84 398 -15 22 -33 24 -69 8z m35 -56 c0 -39 -22 -120 -33 -120 -4 0 -5 -4 -2 -10 5 -9 -22 -119 -95 -380 -12 -41 -31 -112 -43 -158 -12 -46 -26 -80 -30 -75 -5 4 -5 0 -2 -9 3 -8 -1 -51 -10 -94 -35 -169 -51 -369 -68 -823 -4 -107 -22 -82 -23 32 0 81 -6 122 -28 197 -23 79 -92 221 -116 240 -3 3 -14 16 -23 30 -10 14 -22 25 -27 25 -6 0 -9 2 -8 5 3 7 -22 43 -58 83 -16 17 -46 53 -65 79 -20 26 -38 45 -41 43 -2 -2 -4 4 -5 14 -2 24 -68 117 -90 125 -28 11 -50 -3 -90 -57 -50 -66 -64 -92 -55 -102 4 -5 1 -5 -5 -1 -7 4 -13 2 -13 -3 0 -17 -4 -24 -27 -49 -52 -56 -143 -277 -182 -443 -18 -80 -29 -246 -18 -279 7 -20 15 -70 11 -70 -2 0 -35 16 -73 37 -63 32 -69 38 -60 56 17 30 -11 232 -37 272 -7 11 -17 49 -23 84 -6 36 -15 69 -21 75 -5 5 -10 29 -10 52 0 45 -26 111 -84 212 -20 35 -34 67 -32 71 3 4 -18 36 -46 71 -27 35 -56 79 -63 97 -16 37 -245 270 -288 292 -15 8 -27 18 -27 22 0 4 -16 23 -36 43 -28 28 -37 45 -38 74 -1 35 1 37 33 40 58 6 69 -1 323 -176 174 -120 286 -182 388 -214 66 -20 93 -23 225 -22 172 2 229 14 342 72 57 29 100 63 184 147 l109 109 0 123 c0 68 4 123 8 123 4 0 25 -20 45 -45 42 -50 59 -55 80 -25 12 17 96 114 157 179 19 21 73 60 83 61 4 0 7 -13 7 -30z m-756 -877 c9 -18 14 -33 12 -33 -6 0 -36 55 -36 66 0 11 5 3 24 -33z m-14 -140 c0 -13 4 -23 10 -23 5 0 19 10 30 23 21 22 22 22 36 2 9 -12 11 -21 4 -23 -5 -2 -10 -10 -10 -17 0 -7 -11 -27 -25 -43 -26 -31 -38 -109 -13 -84 14 14 45 16 53 2 7 -11 -22 -59 -47 -78 -10 -7 -18 -26 -18 -42 0 -36 -20 -50 -34 -25 -6 11 -32 42 -59 69 -26 28 -50 59 -53 69 -11 34 10 39 49 13 l37 -25 0 24 c0 13 -17 44 -40 70 -43 50 -52 85 -22 85 10 0 23 -5 29 -11 9 -9 12 3 12 46 0 42 4 61 18 74 17 17 18 16 30 -33 7 -28 12 -61 13 -73z m-104 43 c0 -14 -5 -21 -9 -17 -4 4 -5 15 -1 24 9 24 12 21 10 -7z m472 -412 c0 -17 -3 -22 -8 -13 -5 6 -6 18 -3 26 8 19 11 16 11 -13z m-286 -21 c56 -53 26 -133 -49 -133 -78 0 -120 84 -68 135 33 34 80 33 117 -2z m-25 -217 c0 -6 1 -20 2 -31 1 -18 2 -19 12 -2 10 17 44 23 53 9 7 -12 -22 -72 -39 -78 -10 -4 -15 -20 -15 -52 0 -43 1 -44 18 -29 24 22 52 22 52 0 0 -10 -16 -35 -34 -57 -23 -25 -36 -51 -38 -74 -4 -50 -25 -51 -38 -2 -6 23 -19 44 -28 47 -30 11 -65 52 -58 68 5 14 9 14 37 0 17 -9 32 -15 34 -13 1 2 0 18 -2 36 -4 22 -17 42 -44 63 -22 17 -39 37 -39 44 0 20 26 25 49 9 20 -15 21 -14 21 25 0 60 7 72 35 59 12 -5 22 -15 22 -22z m895 -77 l3 -31 27 21 c14 12 40 24 57 27 l30 6 -11 -35 c-6 -20 -14 -35 -17 -35 -3 1 -14 -2 -23 -6 -21 -10 -24 -26 -4 -26 8 0 16 -6 19 -14 6 -15 -26 -28 -79 -30 -17 -1 -44 -10 -60 -21 l-29 -20 33 -3 c18 -2 32 -9 32 -16 0 -15 -43 -26 -100 -26 -39 0 -79 -29 -52 -37 23 -9 13 -33 -15 -34 -56 -2 -85 -8 -99 -20 -11 -9 -18 -8 -31 2 -11 9 -14 10 -9 2 5 -9 2 -11 -8 -7 -12 5 -10 12 9 40 14 20 27 58 31 90 5 43 10 54 23 52 17 -4 21 -48 6 -82 -7 -17 -5 -16 23 4 19 14 32 33 32 46 0 30 49 126 61 119 12 -8 12 -72 -1 -80 -5 -3 -10 -11 -10 -17 0 -23 66 33 75 64 27 88 81 130 87 67z m-1816 -63 c1 0 14 -21 29 -46 30 -48 52 -69 73 -70 10 0 9 8 -5 30 -14 24 -15 32 -4 42 10 11 19 5 44 -26 18 -22 34 -48 37 -60 3 -11 21 -29 39 -40 l33 -19 -11 21 c-15 29 -14 52 4 59 20 7 42 -21 50 -64 3 -18 17 -41 30 -52 36 -27 31 -41 -12 -40 -21 1 -51 -6 -68 -15 -16 -9 -42 -16 -57 -16 -23 0 -28 4 -28 25 0 19 7 26 33 33 l32 9 -38 12 c-29 10 -49 10 -82 2 -61 -15 -95 -14 -102 4 -8 21 0 27 44 34 l38 6 -43 23 c-37 19 -50 21 -97 14 -48 -8 -54 -7 -59 11 -3 13 1 21 15 24 25 7 24 20 -1 28 -23 7 -50 32 -50 46 0 14 47 5 88 -16 37 -19 52 -14 29 10 -22 22 -11 47 17 39 11 -4 22 -7 22 -8z m1880 -108 c4 -7 3 -8 -4 -4 -7 4 -12 0 -12 -10 0 -10 -3 -15 -6 -11 -7 6 2 37 10 37 3 0 8 -5 12 -12z m-54 -97 c-9 -16 -18 -28 -21 -26 -4 5 27 55 34 55 2 0 -4 -13 -13 -29z m-391 -22 c11 -5 17 -14 14 -18 -2 -5 2 -14 10 -21 19 -16 19 -50 0 -77 -13 -19 -13 -22 1 -27 9 -3 21 -3 27 1 7 3 8 2 4 -3 -11 -11 -57 -13 -50 -2 2 5 -8 5 -24 1 -45 -11 -101 -7 -128 11 -31 20 -33 63 -5 94 26 28 60 36 117 28 54 -7 51 4 -4 14 -32 7 -34 8 -10 9 16 0 37 -4 48 -10z m-147 -10 c28 23 17 4 -15 -29 -18 -18 -28 -23 -24 -13 4 10 7 27 7 38 -1 15 1 17 8 6 7 -12 11 -12 24 -2z m-884 -44 c8 5 7 0 -2 -14 -12 -19 -13 -19 -20 -3 -10 25 -9 39 1 23 5 -7 14 -10 21 -6z m50 4 c0 -8 4 -8 14 0 16 14 56 -1 56 -20 0 -6 -7 -3 -16 5 -8 9 -20 16 -27 16 -6 0 -1 -9 11 -20 12 -12 22 -24 23 -28 0 -4 2 -22 3 -40 2 -18 0 -35 -5 -38 -5 -3 -6 2 -2 11 5 15 3 15 -15 4 -11 -7 -19 -16 -16 -20 2 -4 0 -10 -5 -14 -5 -3 -13 1 -18 8 -4 7 -16 16 -26 20 -28 11 -40 55 -22 83 8 13 21 24 28 24 8 0 7 4 -3 10 -13 8 -12 10 3 10 9 0 17 -5 17 -11z m1316 -8 c1 -6 0 -7 -3 -1 -2 5 -9 8 -13 5 -5 -3 -11 -1 -14 4 -4 5 2 8 11 7 9 -2 18 -8 19 -15z m-716 -56 c0 -8 -7 -15 -15 -15 -16 0 -20 12 -8 23 11 12 23 8 23 -8z m-220 -10 c0 -8 -7 -15 -15 -15 -8 0 -15 7 -15 15 0 8 7 15 15 15 8 0 15 -7 15 -15z m476 -40 c9 -8 11 -15 6 -15 -5 0 -15 7 -22 15 -7 8 -9 15 -6 15 4 0 14 -7 22 -15z m-876 -15 c8 -5 12 -11 10 -14 -3 -2 -14 2 -24 10 -22 15 -10 19 14 4z m528 -35 c61 -10 112 -47 112 -83 0 -11 -250 -35 -273 -26 -15 5 -15 9 -2 33 18 35 36 50 82 68 l38 14 -40 -5 c-30 -4 -35 -3 -20 4 11 5 31 7 45 5 14 -3 40 -7 58 -10z m-128 -12 c0 -5 -13 -17 -28 -27 l-27 -19 24 26 c26 28 31 32 31 20z m-624 -22 c0 -11 -5 -17 -13 -14 -17 6 -17 20 0 26 6 3 12 6 12 6 1 1 1 -7 1 -18z m863 -75 c-2 -2 -17 -6 -34 -10 -22 -5 -26 -4 -15 4 14 9 59 15 49 6z m111 -17 c39 -19 48 -20 75 -9 45 19 89 18 93 -2 2 -11 -8 -20 -33 -29 l-35 -13 27 -22 28 -22 46 24 c46 25 79 24 79 -2 0 -7 -16 -22 -37 -32 l-36 -19 30 -15 c20 -10 48 -13 88 -10 42 3 59 1 66 -9 4 -8 14 -14 21 -14 7 0 14 -13 15 -30 1 -27 1 -28 -5 -5 -7 24 -32 40 -32 20 0 -5 -9 -10 -20 -10 -11 0 -20 -3 -20 -6 0 -10 28 -34 39 -34 6 0 11 -5 11 -11 0 -5 4 -8 9 -5 4 3 6 -6 3 -19 l-4 -24 -39 20 c-33 16 -39 17 -39 4 0 -8 5 -15 10 -15 6 0 10 -4 10 -10 0 -5 -9 -10 -21 -10 -13 0 -18 -4 -13 -12 5 -8 1 -7 -10 1 -10 8 -27 34 -38 58 -19 40 -78 97 -78 74 0 -5 5 -13 10 -16 6 -3 10 -15 10 -26 0 -24 -38 -26 -46 -1 -17 52 -30 76 -48 94 -21 19 -21 19 -26 -9 -3 -15 -13 -29 -22 -31 -13 -2 -21 10 -32 49 -16 53 -36 79 -68 92 -11 4 -18 17 -18 32 0 14 1 25 3 25 2 0 23 -10 47 -21z m-474 -51 c4 -6 -4 -21 -18 -33 -16 -14 -27 -37 -32 -66 -13 -79 -56 -117 -56 -48 0 16 -3 29 -7 29 -21 -1 -31 -20 -37 -72 -7 -58 -25 -78 -46 -53 -7 8 -9 26 -6 40 15 60 -42 4 -68 -67 -19 -51 -26 -57 -45 -34 -8 10 -9 16 -1 21 5 3 10 14 10 22 0 13 -6 11 -27 -9 -28 -26 -89 -42 -99 -26 -3 4 2 8 10 8 9 0 16 5 16 12 0 6 15 24 33 39 l32 28 -31 1 c-32 0 -54 24 -31 33 7 2 34 3 60 0 34 -2 57 2 77 14 39 23 38 33 -4 33 -39 0 -69 26 -41 36 9 4 42 4 73 1 40 -4 62 -2 75 7 16 12 16 14 1 20 -8 3 -26 6 -39 6 -19 0 -22 4 -18 21 6 20 10 21 69 15 53 -5 68 -3 96 14 38 23 44 24 54 8z m242 -188 c7 -11 19 -20 26 -20 8 0 16 -3 18 -7 10 -23 107 -88 170 -114 77 -32 156 -41 235 -27 41 8 42 7 50 -25 4 -17 7 -126 5 -242 -2 -197 -5 -220 -38 -375 -34 -156 -36 -174 -33 -322 2 -106 0 -161 -8 -169 -16 -16 -56 8 -87 53 -23 34 -25 47 -28 170 -1 73 1 156 6 184 l8 51 -35 16 c-39 19 -133 21 -337 8 -91 -5 -125 -11 -159 -29 -35 -19 -46 -21 -53 -10 -5 8 -6 3 -2 -14 3 -16 2 -28 -4 -28 -13 0 -55 -89 -49 -105 3 -6 -2 -41 -10 -76 -10 -43 -14 -96 -11 -164 6 -134 6 -135 -46 -135 l-43 0 -2 65 c-1 36 -6 77 -11 90 -5 14 -7 32 -4 40 4 8 2 21 -4 28 -10 12 -29 132 -30 192 -2 85 -15 221 -22 230 -4 6 -10 55 -14 110 -3 54 -11 104 -16 109 -13 13 -13 51 0 90 5 17 12 44 15 60 8 38 48 75 132 119 75 41 123 79 123 99 0 8 28 28 63 45 91 47 119 65 147 95 31 32 32 33 48 8z m-750 -22 c-2 -39 -27 -144 -41 -171 -9 -17 -14 -59 -13 -121 1 -86 3 -97 25 -120 15 -16 21 -30 15 -35 -5 -4 -54 -44 -110 -89 -114 -91 -161 -122 -186 -122 -39 0 -13 117 47 210 16 25 30 51 31 59 2 8 6 17 11 20 4 3 19 26 32 51 13 25 39 68 57 96 19 28 54 94 79 147 26 53 48 97 50 97 2 0 3 -10 3 -22z m1443 -158 c21 -30 37 -61 34 -67 -2 -7 1 -12 8 -10 7 1 11 -8 9 -23 -1 -16 1 -20 6 -12 8 12 42 -24 69 -77 17 -30 16 -37 -3 -66 l-16 -25 -39 32 c-22 18 -68 62 -103 96 -35 35 -74 69 -87 76 -26 13 -43 42 -54 93 -6 31 -5 32 32 36 92 10 103 6 144 -53z m189 -297 c0 -7 -9 -13 -20 -13 -23 0 -24 4 -9 32 9 17 13 18 20 7 5 -8 9 -20 9 -26z"/>
<path d="M1526 4597 c-23 -17 -15 -47 13 -47 24 0 33 23 18 44 -11 15 -15 15 -31 3z"/>
<path d="M1246 4414 c-9 -23 -8 -24 12 -24 24 0 32 8 25 26 -7 19 -29 18 -37 -2z"/>
<path d="M1101 4336 c-9 -11 -8 -18 4 -30 22 -21 32 -20 40 4 12 36 -20 55 -44 26z"/>
<path d="M594 3679 c-8 -14 11 -33 25 -25 6 4 11 14 11 22 0 16 -26 19 -36 3z"/>
<path d="M2960 3550 c0 -15 5 -20 18 -18 9 2 17 10 17 18 0 8 -8 16 -17 18 -13 2 -18 -3 -18 -18z"/>
<path d="M2827 3543 c-10 -10 -8 -41 3 -48 17 -11 50 5 50 25 0 23 -37 40 -53 23z"/>
<path d="M704 3455 c-9 -23 3 -45 25 -45 20 0 37 32 26 50 -9 15 -45 12 -51 -5z"/>
<path d="M3174 2665 c-4 -9 -2 -21 4 -27 16 -16 47 -5 47 17 0 26 -42 34 -51 10z"/>
<path d="M613 2523 c-18 -7 -16 -38 2 -53 18 -15 45 2 45 30 0 14 -23 34 -33 29 -1 0 -8 -3 -14 -6z"/>
<path d="M3276 2513 c-12 -12 -6 -33 9 -33 8 0 15 6 15 14 0 17 -14 28 -24 19z"/>
<path d="M955 2290 c-12 -20 6 -51 28 -48 31 4 31 52 0 56 -11 2 -24 -2 -28 -8z"/>
<path d="M887 2124 c-6 -6 16 -34 27 -34 3 0 6 9 6 20 0 19 -20 27 -33 14z"/>
<path d="M2982 1807 c-13 -15 0 -40 22 -43 24 -3 41 23 26 41 -15 18 -34 19 -48 2z"/>
<path d="M2908 1544 c-12 -11 4 -34 24 -34 13 0 18 6 16 17 -3 18 -29 29 -40 17z"/>
<path d="M917 1179 c-20 -12 -22 -32 -3 -48 18 -15 46 -4 46 19 0 26 -22 40 -43 29z"/>
<path d="M1125 1140 c-3 -5 -4 -14 0 -20 8 -13 35 -1 35 16 0 16 -26 19 -35 4z"/>
</g>
</svg>