<?xml version="1.0" standalone="no"?>
<!DOCTYPE svg PUBLIC "-//W3C//DTD SVG 20010904//EN"
 "http://www.w3.org/TR/2001/REC-SVG-20010904/DTD/svg10.dtd">
<svg version="1.0" xmlns="http://www.w3.org/2000/svg"
 width="366.522688pt" height="456.285957pt" viewBox="0 0 366.522688 456.285957"
 preserveAspectRatio="xMidYMid meet">
<metadata>
Created by potrace 1.16, written by Peter Selinger 2001-2019
</metadata>
<g transform="translate(-16.193567,507.630035) scale(0.100000,-0.100000)"
fill="#000000" stroke="none">
<path d="M1008 5073 c28 -2 76 -2 105 0 28 2 5 3 -53 3 -58 0 -81 -1 -52 -3z"/>
<path d="M1010 5046 c0 -8 -4 -17 -8 -20 -13 -8 -52 5 -46 15 8 13 -10 11 -27
-3 -8 -7 -12 -12 -10 -11 2 1 15 -7 29 -17 13 -11 29 -20 35 -20 6 0 25 -11
42 -25 18 -13 35 -22 39 -20 3 3 4 2 1 -1 -2 -4 13 -19 34 -34 85 -62 229
-270 215 -312 -2 -9 0 -19 5 -23 7 -4 9 1 5 12 -3 10 13 -17 36 -60 22 -43 45
-101 51 -130 14 -66 26 -297 17 -297 -5 0 -8 -11 -8 -25 0 -14 -11 -47 -24
-73 -30 -59 -41 -125 -26 -149 9 -16 10 -15 4 6 -4 17 -3 21 6 16 16 -10 124
-7 172 4 22 5 36 5 32 0 -10 -17 6 -9 50 25 62 47 210 116 265 123 25 3 53 10
61 15 10 6 2 6 -20 2 -94 -20 -444 6 -473 35 -5 5 -5 30 2 62 6 30 12 63 13
73 2 11 11 20 20 22 48 7 142 92 174 158 32 68 133 148 177 141 9 -2 15 1 11
6 -3 5 -1 9 5 9 5 0 26 -19 45 -42 20 -23 36 -36 36 -29 0 7 5 9 10 6 6 -4 7
-12 4 -18 -4 -7 -4 -9 1 -5 4 4 15 2 24 -4 9 -7 -2 7 -23 30 -22 23 -42 40
-44 37 -3 -2 -29 16 -59 42 -29 25 -51 48 -48 51 3 3 13 -1 23 -9 10 -8 8 -4
-5 8 -13 13 -30 20 -39 16 -13 -5 -14 4 -8 69 7 76 6 78 -44 182 -3 5 1 5 8 1
8 -5 11 -4 6 3 -18 30 -44 -10 -61 -95 -7 -36 -29 -60 -40 -43 -3 5 -2 10 4
10 6 0 -12 21 -39 46 -27 25 -52 46 -57 46 -4 0 -13 4 -20 9 -8 7 -11 5 -9 -8
2 -10 7 -18 13 -18 5 0 24 -15 42 -32 18 -18 38 -32 44 -30 7 1 11 -4 9 -12
-2 -8 1 -17 5 -20 5 -3 17 -23 26 -43 20 -42 51 -68 83 -68 12 0 32 -8 44 -18
l23 -19 -36 -22 c-50 -31 -162 -68 -227 -75 -30 -4 -72 -8 -92 -10 -21 -3 -38
0 -38 5 0 6 -4 8 -8 5 -4 -2 -8 3 -9 12 -2 23 -38 98 -68 145 -25 36 -24 38
10 37 10 -1 71 33 103 57 34 26 58 64 66 106 3 19 -4 33 -30 57 -19 17 -32 35
-29 40 3 5 0 12 -6 16 -7 4 -9 3 -6 -3 4 -6 0 -14 -9 -17 -8 -3 -13 -2 -9 3 6
10 -79 53 -163 82 -58 20 -86 24 -63 10 10 -7 2 -20 -36 -60 -27 -28 -54 -51
-60 -51 -6 0 -18 11 -27 25 -9 14 -12 25 -7 25 11 0 31 60 24 73 -2 4 -24 7
-49 7 -32 0 -44 -4 -44 -14z m590 -231 c19 -19 32 -35 29 -35 -3 0 -20 16 -39
35 -19 19 -32 35 -29 35 3 0 20 -16 39 -35z m-50 -433 c0 -26 -69 -59 -82 -40
-21 33 -9 48 37 48 25 0 45 -4 45 -8z"/>
<path d="M1510 4915 c19 -19 36 -35 39 -35 3 0 -10 16 -29 35 -19 19 -36 35
-39 35 -3 0 10 -16 29 -35z"/>
<path d="M1160 4825 c13 -14 26 -25 28 -25 3 0 -5 11 -18 25 -13 14 -26 25
-28 25 -3 0 5 -11 18 -25z"/>
<path d="M1803 4730 c0 -25 2 -35 4 -22 2 12 2 32 0 45 -2 12 -4 2 -4 -23z"/>
<path d="M2004 4425 c5 -37 90 -127 87 -92 -1 4 -3 6 -5 5 -7 -5 -56 45 -56
55 0 6 10 2 23 -9 12 -10 6 -2 -12 19 -40 42 -40 42 -37 22z"/>
<path d="M1402 4325 c0 -16 2 -22 5 -12 2 9 2 23 0 30 -3 6 -5 -1 -5 -18z"/>
<path d="M2111 4285 c13 -12 25 -28 27 -36 2 -8 8 -18 13 -24 7 -7 8 -3 3 9
-6 15 -4 17 6 11 7 -5 5 3 -6 17 -10 15 -23 25 -29 25 -5 -1 -9 3 -8 9 1 6 -5
11 -14 11 -12 0 -10 -5 8 -22z"/>
<path d="M1413 4210 c0 -30 2 -43 4 -27 2 15 2 39 0 55 -2 15 -4 2 -4 -28z"/>
<path d="M2169 4194 c6 -13 7 -25 1 -32 -7 -9 -7 -9 2 -2 8 6 16 4 25 -8 12
-16 13 -16 6 2 -5 14 -3 17 6 11 10 -6 11 -3 2 14 -14 25 -23 28 -15 4 4 -12
-1 -10 -16 7 -17 20 -19 21 -11 4z"/>
<path d="M231 4157 c-6 -8 -8 -17 -4 -20 3 -4 1 -7 -6 -7 -7 0 -10 -4 -7 -9 4
-5 2 -11 -4 -13 -34 -11 -30 -227 6 -348 18 -62 71 -171 88 -182 6 -4 8 -8 3
-8 -4 0 -1 -13 8 -30 20 -38 19 -46 -2 -29 -16 13 -17 12 -5 -3 8 -10 19 -16
25 -15 7 1 11 -6 11 -15 -1 -9 15 -31 35 -50 19 -18 27 -23 17 -10 -11 12 -14
22 -8 22 14 0 53 -50 47 -60 -2 -4 8 -18 23 -31 14 -13 20 -16 13 -6 -7 9 -9
17 -4 17 12 0 49 -39 46 -49 -1 -3 1 -8 4 -11 4 -3 3 1 -1 8 -10 17 6 15 30
-4 16 -13 16 -15 2 -10 -25 7 -22 -1 3 -15 12 -6 19 -7 15 -1 -3 5 1 13 10 16
10 4 13 2 8 -6 -5 -8 -2 -9 10 -5 9 4 15 3 12 -1 -5 -8 117 -52 145 -52 9 0
23 17 33 38 l18 37 -23 -24 c-14 -15 -24 -20 -27 -13 -2 7 -10 12 -17 12 -8 0
-16 4 -20 9 -6 11 26 91 37 91 5 0 8 4 8 10 0 5 11 20 25 34 14 14 25 23 25
20 0 -18 29 28 35 56 14 62 34 98 82 139 l47 42 -54 -8 c-30 -4 -87 -8 -127
-8 -39 0 -69 -3 -67 -7 2 -4 -5 -9 -16 -13 -11 -4 -18 -10 -15 -15 3 -5 1 -12
-5 -15 -36 -22 -103 -236 -84 -267 9 -14 -10 -9 -45 13 -33 20 -33 21 -29 82
2 34 13 80 23 102 23 49 20 46 37 49 45 9 50 18 44 67 -4 32 -2 49 5 49 5 0 8
-4 5 -8 -3 -5 1 -9 9 -9 12 0 12 3 2 15 -6 8 -11 18 -9 21 2 3 -2 7 -10 9 -9
2 -8 0 2 -7 13 -9 12 -11 -3 -11 -16 0 -18 -7 -15 -49 1 -27 0 -47 -4 -44 -5
2 -8 0 -8 -5 0 -10 -66 -10 -76 0 -14 15 -43 -14 -50 -50 -4 -20 -17 -49 -30
-65 l-23 -27 -35 31 c-20 17 -36 35 -36 41 0 5 -15 33 -34 61 -30 45 -86 174
-86 197 0 4 15 11 34 14 21 4 41 17 51 33 9 14 13 23 7 19 -13 -7 -23 19 -16
39 4 8 1 15 -5 15 -6 0 -8 7 -5 15 4 8 1 15 -5 15 -6 0 -11 -5 -11 -11 0 -16
-31 -38 -52 -39 -15 0 -18 9 -18 63 0 65 22 168 32 152 3 -6 9 -31 12 -57 4
-27 12 -48 17 -48 6 0 7 15 3 38 -14 74 -20 87 -39 84 -16 -3 -17 -2 -6 12 8
9 11 16 8 16 -2 0 -10 -6 -16 -13z"/>
<path d="M2211 4125 c-1 -5 8 -21 18 -34 20 -27 39 -13 22 16 -8 13 -10 14
-11 4 0 -11 -4 -9 -15 5 -8 10 -14 15 -14 9z"/>
<path d="M1985 4045 c6 -2 51 -5 100 -8 50 -2 79 -1 65 3 -24 8 -186 12 -165
5z"/>
<path d="M162 4015 c0 -16 2 -22 5 -12 2 9 2 23 0 30 -3 6 -5 -1 -5 -18z"/>
<path d="M1925 4021 c-30 -8 -30 -8 -5 -13 14 -3 7 -4 -15 -3 -54 4 -110 -17
-110 -40 0 -10 -6 -20 -13 -21 -7 -1 -8 0 -2 3 22 11 -2 22 -25 11 -13 -6 -23
-14 -20 -17 2 -4 -6 -13 -18 -21 -21 -12 -21 -12 -7 5 14 17 14 18 -8 6 -12
-7 -20 -17 -16 -23 4 -7 3 -8 -4 -4 -14 8 -64 -23 -56 -35 3 -5 -1 -7 -8 -4
-7 3 -33 -15 -57 -40 -52 -54 -70 -51 -20 3 19 21 14 17 -11 -7 -25 -25 -49
-45 -53 -43 -5 1 -6 -2 -2 -8 5 -8 11 -7 21 1 8 6 14 8 15 3 0 -5 2 -17 4 -27
2 -9 -1 -15 -6 -11 -5 3 -7 11 -3 17 3 7 -4 1 -15 -13 -25 -30 -28 -48 -4 -29
15 13 15 12 2 -8 -8 -13 -16 -18 -20 -12 -3 6 -11 -4 -18 -22 -14 -39 -14 -52
-1 -44 5 3 5 -7 -2 -25 -8 -24 -7 -37 2 -55 7 -13 10 -29 7 -37 -4 -9 -6 -8
-6 3 -1 9 -8 30 -17 45 l-16 29 6 -27 c4 -16 2 -28 -3 -28 -12 0 -21 -39 -10
-46 5 -3 9 -10 9 -15 0 -6 -4 -8 -9 -5 -5 4 -12 0 -15 -6 -5 -11 -7 -11 -12 0
-3 6 -9 10 -13 8 -4 -3 -8 5 -8 17 -2 21 -1 21 12 3 8 -11 18 -16 22 -12 5 4
-3 16 -16 27 -13 10 -19 19 -14 19 5 0 15 -6 23 -12 8 -7 6 -3 -5 10 -14 17
-26 22 -45 17 -20 -4 -22 -3 -10 6 12 9 11 10 -7 6 -13 -3 -23 -1 -23 4 0 5
-12 9 -26 9 -17 0 -23 -4 -18 -12 6 -10 5 -10 -7 -1 -8 6 -31 11 -52 11 -56 0
-61 10 -48 83 6 34 14 65 18 68 5 3 9 11 10 16 1 6 5 18 9 28 5 15 -6 12 -64
-17 -39 -19 -73 -40 -77 -46 -4 -6 -9 -44 -12 -85 l-6 -74 52 15 c39 12 58 13
79 5 27 -11 27 -11 -6 -6 -18 2 -31 1 -28 -4 3 -4 -7 -8 -22 -8 -53 0 -97 -10
-97 -23 0 -7 -6 -15 -14 -18 -8 -3 -11 0 -7 6 3 6 2 13 -3 16 -5 4 -8 -2 -7
-11 2 -10 -26 -46 -66 -86 -47 -47 -80 -93 -105 -145 -37 -75 -38 -76 -38
-201 0 -121 1 -129 32 -193 26 -55 35 -67 50 -62 15 5 16 4 3 -5 -10 -8 -12
-13 -4 -18 6 -5 19 -24 29 -43 25 -48 183 -203 201 -196 8 3 14 -1 14 -10 0
-11 6 -15 20 -11 10 3 18 0 17 -5 -1 -5 7 -15 18 -21 75 -45 92 -54 110 -60
20 -7 20 -7 1 8 -11 8 -15 15 -9 15 7 0 15 -5 18 -10 4 -6 11 -8 16 -5 5 3 6
0 3 -8 -4 -11 8 -18 45 -27 27 -6 56 -8 63 -4 7 4 9 3 5 -1 -9 -11 70 -36 89
-28 20 8 17 23 -3 17 -15 -5 -15 -4 -3 4 8 6 17 9 21 6 4 -2 38 34 75 80 37
46 72 82 79 80 22 -9 35 -53 46 -153 l12 -98 71 -14 c39 -8 79 -14 88 -13 10
0 16 -1 13 -4 -2 -2 12 -13 33 -23 l37 -19 20 27 c11 15 45 56 76 92 l56 64
-5 67 c-5 78 6 200 18 200 8 0 15 -5 91 -69 l36 -30 22 40 c13 22 20 46 17 54
-3 8 0 12 7 9 7 -2 21 10 32 28 10 18 33 46 49 62 17 16 25 26 18 22 -7 -5 -2
15 13 43 16 32 30 49 37 45 7 -5 9 -2 6 8 -4 8 -2 21 3 29 8 11 9 10 7 -5 -2
-10 4 -20 12 -22 8 -2 35 -10 60 -20 25 -9 91 -19 148 -23 89 -5 101 -4 96 9
-3 8 -15 39 -26 68 -17 42 -23 50 -34 41 -22 -18 -162 5 -201 34 -6 5 -10 16
-7 25 2 9 -2 4 -10 -13 -22 -43 -19 -18 4 51 28 81 61 212 62 246 1 15 5 25
10 22 4 -3 7 39 6 93 l-2 98 -5 -80 -6 -80 -8 112 c-7 98 -30 198 -62 277 -7
15 -5 17 6 11 12 -8 12 -6 1 8 -8 9 -19 15 -25 14 -7 -1 -12 6 -12 15 0 10 -7
23 -15 30 -12 11 -12 10 0 -7 8 -11 -9 2 -38 29 -28 27 -49 53 -46 57 2 4 -1
11 -7 15 -8 4 -9 3 -5 -4 10 -16 -5 -15 -30 3 -12 8 -24 11 -28 8 -3 -3 -6 -1
-6 6 0 7 -4 10 -9 7 -5 -4 -11 0 -13 6 -3 7 -20 13 -39 13 -21 1 -33 5 -31 13
3 14 -8 15 -28 2 -12 -8 -12 -10 -1 -10 8 0 12 -2 9 -5 -3 -3 -13 -2 -22 1
-14 5 -15 9 -5 15 8 4 11 11 7 14 -10 10 -199 15 -233 6z m133 -8 c-15 -2 -42
-2 -60 0 -18 2 -6 4 27 4 33 0 48 -2 33 -4z m-222 -32 c-4 -5 0 -12 6 -14 7
-3 2 -6 -11 -6 -20 -1 -21 1 -11 14 14 16 25 21 16 6z m-242 -142 c-10 -12
-17 -23 -14 -26 3 -3 -6 -12 -20 -21 l-25 -14 25 21 c14 11 21 21 16 21 -9 0
23 40 32 40 3 0 -3 -9 -14 -21z m369 -6 c-7 -2 -21 -2 -30 0 -10 3 -4 5 12 5
17 0 24 -2 18 -5z m-168 -23 c17 -7 14 -9 -13 -9 -20 -1 -31 3 -27 9 7 12 13
12 40 0z m-40 -20 c19 -8 19 -9 -2 -9 -12 -1 -25 4 -28 9 -7 12 2 12 30 0z
m413 -35 c0 -11 -2 -15 -6 -9 -4 6 -16 16 -27 21 -18 10 -17 11 6 10 17 -2 26
-8 27 -22z m-458 0 c0 -1 -12 -2 -26 -2 -17 0 -22 2 -13 7 10 7 39 3 39 -5z
m420 -5 c8 -5 12 -11 10 -14 -3 -2 -14 2 -24 10 -22 15 -10 19 14 4z m82 -7
c-10 -4 -10 -8 0 -21 12 -14 11 -14 -9 -1 -16 9 -19 16 -10 21 7 4 17 7 22 7
6 0 4 -3 -3 -6z m38 -49 c0 -8 -4 -12 -10 -9 -5 3 -10 10 -10 16 0 5 5 9 10 9
6 0 10 -7 10 -16z m-635 -14 c-3 -5 -10 -10 -16 -10 -5 0 -9 5 -9 10 0 6 7 10
16 10 8 0 12 -4 9 -10z m667 -25 c-8 -16 -9 -16 -15 -1 -4 10 -3 15 3 11 6 -3
10 -1 10 6 0 7 3 10 6 6 3 -3 2 -13 -4 -22z m-739 -65 c-14 -29 -33 -33 -33
-7 0 7 4 6 10 -3 8 -12 10 -11 10 8 0 12 5 22 11 22 5 0 7 5 3 12 -4 6 -3 8 4
4 7 -4 6 -16 -5 -36z m830 -78 c5 -7 7 -15 4 -19 -8 -7 -37 59 -36 79 0 7 5 0
11 -17 6 -16 15 -36 21 -43z m-1278 8 c-3 -5 -16 -10 -28 -9 -21 0 -21 1 -2 9
28 12 37 12 30 0z m-55 -15 c0 -1 -6 -7 -13 -13 -10 -8 -13 -6 -13 7 0 11 6
17 13 14 7 -3 13 -6 13 -8z m477 -72 c-3 -10 -5 -4 -5 12 0 17 2 24 5 18 2 -7
2 -21 0 -30z m343 -38 c-14 -8 -32 -14 -40 -14 -8 0 -1 7 15 14 39 18 57 18
25 0z m163 8 c-7 -2 -21 -2 -30 0 -10 3 -4 5 12 5 17 0 24 -2 18 -5z m75 -16
c-2 -5 8 -15 22 -22 14 -8 21 -14 17 -15 -5 0 -16 4 -26 10 -30 15 -110 -31
-200 -115 -64 -59 -87 -75 -111 -75 -29 0 -30 2 -30 44 0 29 7 52 21 70 29 37
153 98 214 107 62 8 97 7 93 -4z m-631 -54 c-3 -10 -5 -2 -5 17 0 19 2 27 5
18 2 -10 2 -26 0 -35z m803 -86 c0 -4 -6 -2 -14 5 -8 7 -12 17 -9 22 5 8 23
-12 23 -27z m-842 -129 c77 -36 82 -98 11 -145 -29 -19 -58 -28 -97 -31 -51
-4 -59 -1 -82 23 -63 68 4 195 94 178 17 -3 50 -14 74 -25z m212 -72 c0 -6 -4
-5 -9 3 -5 7 -14 11 -20 7 -7 -5 -9 -1 -5 9 5 12 9 13 20 4 8 -6 14 -17 14
-23z m206 -43 c-8 -16 -39 -53 -67 -83 -29 -30 -49 -49 -45 -42 4 7 -12 3 -35
-10 l-42 -21 -41 21 c-23 12 -47 31 -53 41 -11 17 -7 19 65 23 82 5 125 21
180 69 41 37 57 37 38 2z m-84 -158 c-8 -16 -9 -16 -15 -1 -4 10 -3 15 3 11 6
-3 10 -1 10 6 0 7 3 10 6 6 3 -3 2 -13 -4 -22z m401 -22 c-7 -2 -21 -2 -30 0
-10 3 -4 5 12 5 17 0 24 -2 18 -5z m-195 -98 c-6 -14 -13 -23 -15 -21 -5 5 15
46 22 46 3 0 -1 -11 -7 -25z m-14 -404 c1 -28 -1 -51 -4 -51 -4 0 -7 25 -8 56
0 68 8 65 12 -5z"/>
<path d="M2250 4000 c18 -12 30 -13 30 -2 0 4 -10 9 -22 9 -18 2 -20 0 -8 -7z"/>
<path d="M1342 3992 c-6 -2 -9 -9 -5 -15 4 -6 0 -8 -10 -4 -10 4 -16 2 -14 -6
1 -7 -9 -11 -25 -10 -16 1 -28 -3 -28 -8 0 -6 4 -8 9 -4 6 3 13 -11 17 -32 4
-21 9 -42 12 -47 2 -4 6 -25 7 -45 2 -20 8 -57 15 -81 7 -25 11 -45 10 -45 -1
0 12 -31 29 -70 27 -63 46 -85 46 -52 0 6 4 15 8 18 4 3 3 16 -2 30 -5 13 -10
18 -10 10 -2 -30 -11 -1 -27 80 -19 99 -23 252 -6 272 12 14 1 18 -26 9z"/>
<path d="M162 3890 c0 -19 2 -27 5 -17 2 9 2 25 0 35 -3 9 -5 1 -5 -18z"/>
<path d="M2410 3895 c13 -14 26 -25 28 -25 3 0 -5 11 -18 25 -13 14 -26 25
-28 25 -3 0 5 -11 18 -25z"/>
<path d="M1246 3825 c-14 -11 -16 -15 -5 -15 8 0 1 -9 -16 -20 -16 -11 -25
-20 -20 -20 6 1 19 7 29 15 19 14 20 11 37 -55 10 -39 27 -91 38 -116 17 -37
18 -45 6 -40 -8 3 -15 2 -15 -3 0 -8 61 -22 68 -16 1 1 -9 27 -23 58 -14 30
-34 93 -44 138 -10 47 -21 78 -25 71 -4 -7 -12 -12 -18 -12 -7 0 -6 6 2 15 16
19 11 19 -14 0z"/>
<path d="M360 3789 c13 -23 22 -25 13 -2 -5 12 -3 14 8 8 8 -5 11 -4 6 0 -4 5
-14 10 -22 11 -12 2 -12 -2 -5 -17z"/>
<path d="M375 3750 c-4 -6 -11 -7 -17 -4 -7 4 -8 2 -4 -5 6 -8 12 -9 20 -2 7
6 17 7 21 3 5 -4 5 -1 1 6 -9 15 -13 15 -21 2z"/>
<path d="M2526 3730 c3 -14 11 -32 16 -40 6 -10 7 -7 2 10 -3 14 -11 32 -16
40 -6 10 -7 7 -2 -10z"/>
<path d="M603 3680 c0 -25 2 -35 4 -22 2 12 2 32 0 45 -2 12 -4 2 -4 -23z"/>
<path d="M1032 3713 c-6 -2 -10 -8 -7 -13 3 -4 -12 -7 -32 -5 -21 1 -28 0 -15
-2 12 -2 20 -9 17 -14 -8 -12 2 -12 24 1 14 7 40 43 28 39 -1 0 -8 -3 -15 -6z"/>
<path d="M684 3693 c2 -9 8 -18 15 -19 6 -1 7 0 1 3 -5 2 -8 9 -5 13 3 5 1 11
-4 14 -5 4 -8 -2 -7 -11z"/>
<path d="M439 3683 c-7 -10 -9 -15 -5 -11 14 12 38 -12 26 -27 -7 -8 -6 -12 4
-12 15 0 15 42 0 57 -8 8 -15 5 -25 -7z"/>
<path d="M1392 3675 c0 -16 2 -22 5 -12 2 9 2 23 0 30 -3 6 -5 -1 -5 -18z"/>
<path d="M883 3683 c9 -2 23 -2 30 0 6 3 -1 5 -18 5 -16 0 -22 -2 -12 -5z"/>
<path d="M763 3673 c9 -2 23 -2 30 0 6 3 -1 5 -18 5 -16 0 -22 -2 -12 -5z"/>
<path d="M2562 3595 c0 -16 2 -22 5 -12 2 9 2 23 0 30 -3 6 -5 -1 -5 -18z"/>
<path d="M1208 3573 c18 -2 45 -2 60 0 15 2 0 4 -33 4 -33 0 -45 -2 -27 -4z"/>
<path d="M900 3433 l-55 -58 58 55 c53 50 62 60 54 60 -1 0 -27 -26 -57 -57z"/>
<path d="M2570 3301 c0 -25 6 -27 13 -6 4 8 2 17 -3 20 -6 4 -10 -3 -10 -14z"/>
<path d="M2608 3253 c24 -53 62 -120 62 -110 0 11 -69 147 -75 147 -3 0 3 -17
13 -37z"/>
<path d="M736 3212 c7 -4 14 -16 17 -27 4 -15 5 -14 6 8 1 20 -4 27 -16 27
-12 0 -14 -3 -7 -8z"/>
<path d="M742 3105 c0 -16 2 -22 5 -12 2 9 2 23 0 30 -3 6 -5 -1 -5 -18z"/>
<path d="M2681 3100 c0 -8 6 -26 15 -40 l15 -25 -7 25 c-3 14 -10 32 -15 40
-7 13 -8 13 -8 0z"/>
<path d="M742 3005 c0 -16 2 -22 5 -12 2 9 2 23 0 30 -3 6 -5 -1 -5 -18z"/>
<path d="M2781 2840 c0 -8 4 -22 9 -30 12 -18 12 -2 0 25 -6 13 -9 15 -9 5z"/>
<path d="M2359 2763 c-7 -16 -26 -50 -42 -76 -15 -27 -23 -46 -18 -43 5 3 8 0
7 -7 0 -6 1 -12 4 -13 3 0 25 -12 50 -27 25 -14 88 -40 140 -58 77 -26 112
-32 185 -33 80 -1 150 6 160 16 2 2 -4 52 -13 111 -13 81 -20 105 -29 96 -21
-21 -222 -24 -322 -4 -50 10 -88 21 -85 26 3 5 -2 6 -12 2 -13 -5 -15 -2 -9
15 9 30 1 27 -16 -5z"/>
<path d="M2116 2608 c-3 -41 -2 -88 4 -108 5 -19 10 -50 10 -68 0 -59 90 -299
108 -288 4 2 8 -7 8 -21 1 -13 1 -23 -1 -21 -2 2 -19 28 -39 58 -20 30 -36 51
-36 47 0 -11 29 -56 68 -105 27 -34 37 -41 48 -31 11 9 14 8 14 -2 1 -8 7 -3
15 11 18 30 11 69 -21 127 l-23 42 28 20 c15 11 48 23 72 27 68 11 118 40 135
80 14 33 32 50 20 18 -3 -8 -2 -12 4 -9 6 3 10 1 10 -4 0 -6 5 -11 11 -11 5 0
7 5 3 12 -4 7 -3 8 5 4 9 -6 9 -12 -1 -24 -7 -10 -8 -14 -4 -10 5 4 15 3 22
-3 7 -6 15 -6 18 -1 7 11 -14 40 -32 44 -8 2 -29 18 -47 36 -18 17 -41 32 -51
32 -13 -1 -8 -5 12 -14 18 -8 35 -19 39 -26 4 -6 -30 8 -76 33 -46 24 -84 50
-84 57 0 7 -11 20 -25 29 -14 9 -21 11 -16 4 4 -7 3 -13 -2 -13 -17 0 -22 13
-10 29 7 9 8 13 4 9 -5 -4 -16 -2 -25 5 -14 10 -14 10 -4 -3 6 -8 11 -19 11
-25 1 -5 11 -17 23 -25 18 -12 21 -12 15 -1 -6 9 -5 12 5 9 15 -6 14 -12 -6
-74 -4 -12 -26 -37 -50 -57 -45 -38 -52 -37 -70 8 -19 48 -15 60 29 89 46 31
48 43 17 79 -15 18 -16 17 -38 -9 -27 -34 -34 -29 -40 30 -4 29 -14 52 -28 66
l-22 21 -7 -73z"/>
<path d="M1616 2515 c-15 -19 -25 -35 -23 -35 2 0 -20 -26 -49 -57 -29 -32
-50 -62 -47 -67 3 -5 1 -6 -5 -2 -13 8 -35 -28 -24 -39 4 -3 0 -5 -8 -3 -8 2
-14 -3 -12 -10 1 -8 -2 -11 -8 -7 -5 3 -10 2 -10 -4 0 -5 -11 -22 -24 -38 -40
-47 -57 -125 -72 -333 -10 -141 -20 -213 -35 -260 -18 -53 -22 -98 -26 -246
-6 -209 0 -246 55 -365 22 -46 52 -112 68 -146 15 -34 32 -59 37 -56 6 3 7 1
3 -5 -8 -14 58 -124 69 -114 5 4 5 2 2 -4 -3 -5 3 -23 14 -40 21 -33 25 -49 7
-38 -7 4 -8 3 -4 -4 4 -6 13 -9 20 -6 12 5 12 11 0 42 -8 20 -19 45 -24 54 -9
15 -7 16 15 8 15 -6 26 -6 30 0 12 20 33 10 29 -12 -4 -21 -4 -22 5 -3 l10 20
1 -20 c1 -11 4 -15 6 -8 3 7 1 20 -4 30 -16 31 19 275 55 384 15 42 23 84 20
92 -3 9 -31 30 -61 47 -30 17 -87 62 -126 99 -39 37 -74 64 -77 61 -3 -3 -3 0
0 6 3 5 -3 23 -14 40 -36 55 -19 47 22 -10 23 -32 45 -53 51 -50 6 4 8 2 5 -4
-17 -26 202 -178 239 -166 13 4 15 3 7 -3 -16 -11 80 -48 103 -39 8 3 13 2 10
-3 -8 -12 79 -35 95 -26 7 5 10 4 6 -2 -4 -6 3 -13 16 -17 34 -9 254 -27 295
-24 20 2 38 0 39 -5 2 -4 9 -21 18 -37 12 -24 14 -48 8 -127 -4 -54 -7 -110
-8 -125 0 -16 -3 -28 -7 -28 -5 0 -8 -9 -8 -20 0 -10 -16 -52 -35 -93 -24 -50
-35 -88 -35 -118 l1 -44 31 58 31 58 22 -27 21 -27 35 30 c19 16 71 57 116 91
45 34 85 68 89 75 5 6 -7 0 -25 -15 -29 -25 -41 -28 -104 -28 -89 0 -98 5 -88
50 6 32 11 36 48 41 58 7 229 94 241 122 2 4 9 7 15 7 6 0 23 12 39 27 21 20
30 24 41 14 11 -9 17 -7 28 6 12 16 12 17 -2 6 -16 -13 -29 -8 -29 10 0 6 2 8
5 5 3 -3 20 9 38 27 31 31 76 140 63 153 -3 3 -6 0 -6 -7 0 -7 -4 -10 -8 -7
-5 3 -15 -4 -22 -15 -8 -10 -18 -19 -23 -19 -5 0 -23 -11 -40 -24 -89 -66
-255 -120 -336 -108 -30 4 -31 5 -31 61 0 41 -7 67 -25 98 l-24 43 32 24 c51
39 146 58 319 65 147 6 159 8 183 31 23 22 25 22 26 4 0 -11 3 -14 6 -6 7 17
-17 142 -27 142 -4 0 -25 -7 -46 -16 -49 -21 -139 -20 -293 3 -95 14 -126 15
-195 5 -45 -7 -100 -21 -122 -31 -60 -29 -137 -103 -165 -158 -13 -26 -25 -50
-27 -52 -6 -11 -149 2 -267 25 -39 7 -124 50 -154 77 -13 12 -21 16 -17 10 5
-9 2 -11 -8 -7 -9 3 -13 10 -10 15 3 5 1 9 -3 9 -7 0 -91 64 -116 87 -25 25
-46 57 -41 64 3 5 -1 6 -9 3 -8 -3 -17 -18 -19 -34 -2 -16 -1 -27 3 -25 6 5
21 -36 15 -42 -1 -1 -17 3 -34 9 l-32 12 1 81 c2 132 -2 128 119 143 58 7 125
10 150 8 384 -39 893 -48 1054 -20 50 9 95 21 101 25 5 5 16 9 25 9 8 0 30 13
48 29 17 17 33 27 34 23 1 -4 5 25 9 63 4 47 6 17 4 -90 -2 -127 -1 -149 7
-105 5 30 8 120 5 200 -3 90 -1 137 4 125 7 -15 8 -11 4 14 -3 18 -5 60 -5 93
l0 60 -32 -20 c-18 -11 -82 -37 -142 -56 -116 -39 -145 -52 -202 -91 -20 -13
-53 -32 -75 -42 -21 -9 -39 -20 -39 -25 0 -4 -7 -8 -15 -8 -13 0 -61 -20 -172
-71 -81 -38 -252 -49 -428 -28 -182 21 -238 22 -305 4 -115 -31 -110 -31 -108
0 2 25 5 26 37 21 62 -10 179 22 299 80 62 31 118 61 125 67 6 7 35 30 62 52
28 21 53 44 57 50 4 5 24 29 45 52 57 62 112 180 114 242 0 24 1 24 9 6 6 -13
7 -5 3 25 -3 25 -7 46 -7 47 -1 1 -35 -38 -76 -88 -59 -72 -79 -89 -95 -85
-11 2 -51 14 -90 25 -38 12 -76 19 -83 16 -7 -3 -10 -1 -7 4 3 6 -8 9 -24 9
l-28 -1 -12 -115 c-8 -77 -20 -136 -36 -176 -13 -33 -21 -64 -18 -70 3 -6 2
-8 -2 -3 -5 4 -17 -5 -27 -20 -10 -16 -18 -24 -18 -19 0 5 -7 2 -16 -5 -18
-14 -176 -20 -189 -7 -4 4 -2 51 5 105 l13 97 31 -36 c17 -20 54 -50 82 -67
53 -32 106 -39 96 -12 -4 10 -1 12 9 6 8 -5 11 -5 6 1 -5 5 -12 9 -15 9 -39 3
-148 106 -171 163 -12 29 -12 37 5 70 27 53 65 103 74 97 4 -3 13 -29 20 -57
21 -98 97 -215 122 -190 6 6 12 88 14 184 2 95 1 165 -2 156 -7 -22 -13 -22
-44 1 -24 19 -24 20 -6 40 11 12 19 35 19 52 0 21 3 26 10 17 6 -9 7 -8 3 5
-3 10 -6 21 -6 23 0 14 -21 -1 -44 -31z m177 -277 c15 -12 15 -19 4 -68 -8
-30 -22 -71 -32 -90 -16 -30 -94 -140 -100 -140 -1 0 -2 7 -2 15 0 8 3 12 7
10 18 -11 90 194 90 257 0 31 8 34 33 16z m-443 -917 c0 -4 20 -14 45 -21 25
-7 45 -17 45 -22 0 -5 -3 -8 -8 -6 -4 2 -28 11 -55 22 -43 17 -62 36 -37 36 6
0 10 -4 10 -9z m43 -111 c31 -11 70 -20 86 -20 19 0 34 -7 40 -18 14 -27 41
-106 37 -110 -9 -8 -123 -3 -148 6 -15 6 -32 21 -39 34 -11 20 -41 128 -35
128 1 0 27 -9 59 -20z m210 -360 c-10 -38 -116 -52 -134 -18 -9 16 -4 18 43
18 29 0 60 5 68 10 23 15 29 12 23 -10z m770 -212 c-2 -5 -9 -8 -15 -8 -6 0
-9 3 -5 6 3 3 -3 15 -14 27 -10 11 -19 25 -19 31 0 6 13 -3 28 -19 16 -17 27
-33 25 -37z"/>
<path d="M2857 2526 c-4 -10 -7 -25 -6 -34 0 -11 4 -9 10 7 5 13 8 29 6 35 -2
5 -6 2 -10 -8z"/>
<path d="M1672 2475 c0 -16 2 -22 5 -12 2 9 2 23 0 30 -3 6 -5 -1 -5 -18z"/>
<path d="M2866 2475 c-3 -9 -6 -24 -5 -33 0 -9 5 -4 10 12 9 32 6 48 -5 21z"/>
<path d="M2877 2426 c-4 -10 -7 -25 -6 -34 0 -11 4 -9 10 7 5 13 8 29 6 35 -2
5 -6 2 -10 -8z"/>
<path d="M1402 2331 c-21 -69 -14 -77 23 -28 41 54 43 67 12 67 -19 0 -26 -8
-35 -39z"/>
<path d="M2886 2348 c-3 -13 -5 -52 -4 -88 1 -65 1 -65 8 20 7 90 6 105 -4 68z"/>
<path d="M2152 2240 c7 -10 14 -18 15 -16 6 6 -9 36 -18 36 -5 0 -4 -9 3 -20z"/>
<path d="M2904 2130 c0 -74 1 -105 3 -67 2 37 2 97 0 135 -2 37 -3 6 -3 -68z"/>
<path d="M1322 2045 c0 -16 2 -22 5 -12 2 9 2 23 0 30 -3 6 -5 -1 -5 -18z"/>
<path d="M1313 1915 c0 -33 2 -45 4 -27 2 18 2 45 0 60 -2 15 -4 0 -4 -33z"/>
<path d="M1302 1815 c0 -16 2 -22 5 -12 2 9 2 23 0 30 -3 6 -5 -1 -5 -18z"/>
<path d="M2892 1540 c0 -19 2 -27 5 -17 2 9 2 25 0 35 -3 9 -5 1 -5 -18z"/>
<path d="M1243 1455 c0 -22 2 -30 4 -17 2 12 2 30 0 40 -3 9 -5 -1 -4 -23z"/>
<path d="M3390 1396 c-11 -5 -20 -13 -20 -18 0 -5 -4 -7 -8 -4 -10 6 -38 -11
-31 -19 3 -3 25 3 49 14 45 20 69 16 97 -19 10 -12 11 -11 6 10 -6 22 -5 24
10 11 22 -18 21 -34 -2 -55 -11 -10 -25 -40 -32 -67 -12 -46 -30 -62 -44 -39
-3 6 -17 7 -31 4 -13 -3 -24 -2 -24 4 0 12 -49 45 -69 46 -9 0 -32 -10 -51
-23 -19 -13 -27 -20 -17 -17 17 5 17 5 0 -18 -14 -18 -22 -22 -36 -15 -14 8
-21 2 -37 -36 -11 -26 -20 -52 -20 -58 1 -7 7 2 14 19 8 18 19 35 25 38 5 4 8
14 5 24 -4 14 -3 13 7 -2 9 -15 9 -20 -5 -28 -9 -5 -14 -13 -11 -19 4 -5 2 -9
-3 -9 -5 0 -13 -10 -16 -22 -6 -23 -7 -23 -21 -4 -17 23 -20 14 -4 -15 7 -14
16 -18 31 -13 53 16 97 6 166 -40 59 -40 75 -46 120 -46 71 0 112 19 156 74
21 25 42 43 47 40 5 -3 6 3 2 12 -4 12 -3 15 5 10 7 -4 12 -1 12 9 0 9 -4 14
-9 11 -4 -3 -5 12 -1 34 13 71 -3 130 -46 169 -22 20 -39 40 -39 45 0 5 -7 11
-15 13 -13 4 -13 3 0 -7 13 -9 12 -10 -5 -7 -11 2 -19 7 -18 13 2 12 -110 12
-137 0z m-90 -167 c0 -5 -7 -9 -15 -9 -9 0 -15 9 -15 21 0 18 2 19 15 9 8 -7
15 -16 15 -21z m97 -50 c-12 -7 -27 -7 -45 0 -25 9 -24 9 18 10 36 0 41 -2 27
-10z"/>
<path d="M3290 1339 c0 -5 -4 -8 -9 -5 -13 8 -62 -34 -54 -46 4 -7 14 -2 27
13 12 13 25 25 31 26 10 2 21 23 11 23 -3 0 -6 -5 -6 -11z"/>
<path d="M2861 1289 c0 -13 4 -33 9 -44 7 -14 8 -8 3 20 -7 46 -13 59 -12 24z"/>
<path d="M1242 1270 c0 -19 2 -27 5 -17 2 9 2 25 0 35 -3 9 -5 1 -5 -18z"/>
<path d="M3662 1265 c0 -16 2 -22 5 -12 2 9 2 23 0 30 -3 6 -5 -1 -5 -18z"/>
<path d="M3183 1246 c-14 -15 -14 -18 -2 -8 9 6 18 10 21 7 3 -3 10 1 16 8 9
10 8 14 -3 14 -8 0 -23 -10 -32 -21z"/>
<path d="M2137 1113 c18 -2 50 -2 70 0 21 2 7 4 -32 4 -38 0 -55 -2 -38 -4z"/>
<path d="M3630 1067 c0 -10 4 -16 9 -13 5 3 12 -1 15 -10 3 -8 10 -12 16 -9 5
3 10 2 10 -3 0 -5 11 -15 25 -22 14 -7 32 -24 40 -37 14 -21 14 -26 0 -53 -17
-32 -11 -38 17 -16 14 10 15 15 5 26 -10 12 -9 12 6 0 17 -13 17 -14 -5 -34
-17 -16 -38 -21 -81 -23 -32 0 -64 -7 -72 -13 -10 -8 -15 -9 -15 -2 0 6 -6 12
-12 15 -7 2 -3 2 10 0 12 -2 22 1 22 7 0 5 -8 10 -19 10 -10 0 -24 6 -31 14
-6 8 -18 12 -26 9 -8 -3 -14 0 -14 6 0 6 7 11 15 11 8 0 15 5 15 12 0 6 7 19
15 28 9 10 18 27 20 39 4 22 3 21 -26 -3 -34 -29 -87 -46 -141 -46 l-38 0 0
-90 c0 -104 12 -135 65 -176 19 -14 32 -30 29 -35 -3 -5 1 -6 9 -3 14 5 108
-8 142 -21 14 -5 16 -4 7 3 -11 7 -7 11 15 16 15 4 45 18 65 32 43 27 56 31
38 9 -23 -27 -4 -15 26 17 16 17 23 27 15 23 -11 -6 -13 -4 -6 11 12 30 22
163 11 157 -5 -4 -7 3 -4 15 4 12 2 20 -3 16 -5 -3 -10 0 -10 5 -1 6 -2 16 -3
23 -1 13 -107 90 -114 83 -3 -2 -13 6 -23 18 -16 20 -18 20 -19 4z m-77 -103
c-14 -14 -28 -22 -32 -19 -6 7 35 45 50 45 4 0 -3 -12 -18 -26z"/>
<path d="M2293 1005 c0 -33 2 -45 4 -27 2 18 2 45 0 60 -2 15 -4 0 -4 -33z"/>
<path d="M3097 1035 c-10 -7 -15 -15 -10 -18 9 -5 53 10 53 18 0 4 -4 4 -9 1
-5 -4 -11 -2 -13 3 -1 5 -11 4 -21 -4z"/>
<path d="M3210 1043 c25 -2 52 -6 60 -9 13 -4 13 -6 0 -15 -12 -9 -11 -10 5
-4 14 4 17 3 9 -5 -8 -8 -19 -8 -39 0 -24 9 -31 7 -49 -12 -11 -12 -19 -30
-18 -40 2 -9 -2 -35 -8 -56 -9 -34 -15 -41 -44 -46 -18 -4 -45 -2 -60 4 -14 5
-41 7 -58 4 -29 -4 -30 -3 -10 6 15 6 21 14 15 22 -18 30 -13 56 18 82 17 14
35 26 40 26 6 0 7 4 4 10 -8 13 -77 -21 -71 -36 3 -8 -2 -11 -14 -9 -27 5 -37
-14 -43 -82 -1 -13 -6 -23 -11 -23 -4 0 -6 -27 -4 -60 4 -54 8 -65 43 -100 22
-22 35 -40 31 -40 -5 0 -3 -7 4 -15 8 -10 21 -13 33 -9 11 3 17 2 14 -3 -3 -5
29 -9 73 -10 44 -1 84 -4 90 -8 6 -4 14 -4 17 -1 4 3 0 6 -7 6 -8 0 7 13 33
30 68 43 83 73 97 203 l12 111 -28 23 c-16 12 -30 20 -32 18 -3 -2 -13 7 -24
20 -17 21 -27 25 -71 23 l-52 -1 45 -4z m20 -39 c0 -3 -7 -12 -15 -20 -16 -17
-18 -14 -9 10 6 15 24 23 24 10z m7 -71 c2 -6 -8 -13 -22 -15 -19 -4 -25 -1
-25 13 0 14 6 18 22 16 12 -2 23 -8 25 -14z m-241 -28 c1 -8 -2 -15 -7 -15 -5
0 -9 10 -9 22 0 23 12 17 16 -7z m156 -67 c-9 -9 -15 -9 -24 0 -9 9 -7 12 12
12 19 0 21 -3 12 -12z"/>
<path d="M2765 984 c-9 -15 -12 -23 -6 -20 11 7 35 46 28 46 -3 0 -12 -12 -22
-26z"/>
<path d="M2733 978 c-15 -20 -25 -38 -20 -38 3 0 12 11 21 25 17 26 16 35 -1
13z"/>
<path d="M3571 940 c-1 -18 16 -46 23 -40 2 3 -2 16 -9 30 -8 15 -14 19 -14
10z"/>
<path d="M2685 878 l-40 -43 43 40 c23 21 42 40 42 42 0 8 -9 0 -45 -39z"/>
<path d="M3823 840 c0 -30 2 -43 4 -27 2 15 2 39 0 55 -2 15 -4 2 -4 -28z"/>
<path d="M1395 850 c9 -16 18 -30 21 -30 2 0 -2 14 -11 30 -9 17 -18 30 -21
30 -2 0 2 -13 11 -30z"/>
<path d="M2913 810 c0 -30 2 -43 4 -27 2 15 2 39 0 55 -2 15 -4 2 -4 -28z"/>
<path d="M2618 833 c10 -4 2 -17 -25 -47 l-38 -41 42 39 c40 37 47 57 20 55
-8 0 -7 -2 1 -6z"/>
<path d="M3367 783 c-4 -3 -7 -13 -7 -22 1 -13 3 -13 11 2 11 19 8 33 -4 20z"/>
<path d="M2950 695 c13 -14 26 -25 28 -25 3 0 -5 11 -18 25 -13 14 -26 25 -28
25 -3 0 5 -11 18 -25z"/>
<path d="M3295 654 c-18 -16 -22 -22 -9 -15 18 9 53 42 43 41 -2 -1 -17 -12
-34 -26z"/>
<path d="M3553 633 c9 -2 23 -2 30 0 6 3 -1 5 -18 5 -16 0 -22 -2 -12 -5z"/>
<path d="M3123 603 c15 -2 39 -2 55 0 15 2 2 4 -28 4 -30 0 -43 -2 -27 -4z"/>
<path d="M2291 566 c-17 -19 -20 -26 -9 -32 7 -4 10 -3 5 1 -4 5 3 19 15 32
12 13 19 23 16 23 -2 0 -15 -11 -27 -24z"/>
<path d="M2201 549 c-1 -20 5 -28 21 -32 28 -8 36 -1 9 8 -11 3 -22 16 -24 28
-4 19 -4 19 -6 -4z"/>
</g>
</svg>
