<?xml version="1.0" standalone="no"?><!DOCTYPE svg PUBLIC "-//W3C//DTD SVG 20010904//EN" "http://www.w3.org/TR/2001/REC-SVG-20010904/DTD/svg10.dtd"><svg xmlns="http://www.w3.org/2000/svg" version="1.0" width="10.515mm" height="16mm" viewBox="0 0 183.899954 279.829026" preserveAspectRatio="xMidYMid meet">
<metadata>
Created by potrace 1.16, written by Peter Selinger 2001-2019
</metadata>
<g transform="translate(-58.176209,289.944548) scale(0.100000,-0.100000)" fill="#000000" stroke="none">
<path d="M1239 2885 c-83 -30 -154 -97 -216 -205 -38 -65 -73 -168 -73 -214 0 -40 4 -48 25 -58 14 -6 25 -17 25 -25 0 -7 11 -35 25 -61 13 -26 27 -67 30 -92 14 -104 17 -113 57 -156 36 -39 38 -44 19 -45 -11 -1 -30 -3 -41 -4 -11 -1 -38 -3 -60 -4 -51 -1 -76 -26 -85 -82 -6 -38 -20 -58 -110 -149 -122 -125 -136 -156 -158 -341 -14 -108 -14 -126 -1 -140 20 -22 17 -31 -18 -54 -47 -30 -70 -68 -75 -122 -4 -40 1 -59 29 -113 29 -56 37 -65 64 -68 36 -4 47 14 64 99 6 32 19 64 30 74 20 18 20 17 20 -19 0 -24 5 -39 16 -43 25 -9 14 -54 -85 -335 -49 -139 -95 -272 -102 -295 l-12 -43 63 -77 c194 -237 170 -214 215 -209 22 3 106 8 187 12 91 4 151 11 156 18 5 6 20 46 35 89 l26 78 -30 43 -31 43 18 63 c21 74 16 83 74 -142 24 -92 48 -168 54 -170 6 -2 94 -1 196 2 l185 5 77 55 c43 30 102 72 132 93 l54 37 -27 103 -27 102 -46 3 c-43 3 -48 6 -57 35 -27 85 -41 183 -44 299 -2 121 -1 127 18 130 12 2 21 11 22 23 1 11 5 60 8 108 7 86 7 88 26 71 14 -13 19 -31 19 -74 0 -75 21 -104 76 -104 93 1 141 15 165 47 3 4 17 4 30 -1 28 -11 64 0 72 22 4 9 9 38 13 66 l7 50 52 0 c50 0 54 2 74 36 l22 36 -20 102 c-11 55 -24 131 -30 167 -6 36 -22 92 -35 125 -24 58 -25 59 -68 62 -78 6 -128 -6 -139 -35 -8 -23 3 -176 17 -225 3 -12 -5 -22 -26 -33 -30 -15 -32 -15 -50 7 -24 28 -56 75 -101 148 -19 30 -55 81 -81 112 -43 51 -48 63 -48 105 0 66 -17 119 -42 137 -12 9 -54 21 -95 28 -73 12 -95 30 -53 43 36 12 70 76 79 151 5 38 18 92 29 119 12 28 24 63 27 79 3 16 14 30 26 33 46 12 37 93 -26 220 -55 111 -125 191 -210 238 -61 35 -63 35 -181 34 -73 0 -133 -6 -155 -14z m-6 -59 c-64 -58 -113 -161 -121 -252 -4 -57 -7 -64 -26 -64 -41 0 -96 13 -96 22 0 5 18 46 39 91 54 114 111 180 185 217 32 17 61 30 64 30 2 0 -18 -20 -45 -44z m167 -151 c0 -167 -2 -195 -15 -195 -13 0 -15 28 -15 195 0 167 2 195 15 195 13 0 15 -28 15 -195z m114 144 c25 -28 62 -83 81 -123 39 -79 65 -180 50 -195 -6 -5 -55 -11 -110 -12 l-100 -4 -3 193 c-2 184 -2 192 17 192 10 0 40 -23 65 -51z m142 -54 c45 -45 72 -83 103 -147 22 -48 41 -92 41 -97 0 -6 -10 -11 -22 -11 -13 0 -39 -3 -59 -6 l-36 -6 -8 48 c-13 95 -74 220 -144 298 l-26 29 45 -24 c25 -13 72 -51 106 -84z m-316 -90 l0 -185 -59 0 c-32 0 -79 3 -105 6 l-47 7 6 46 c10 75 37 151 69 200 29 43 107 111 127 111 5 0 9 -79 9 -185z m-217 -201 c96 -13 172 -15 357 -10 129 3 257 9 283 14 48 9 48 9 45 -17 -3 -24 -8 -27 -68 -35 -84 -11 -651 -13 -712 -3 -45 8 -48 10 -48 38 0 34 -10 33 143 13z m-23 -101 c0 -20 -19 -53 -30 -53 -15 0 -43 48 -37 63 7 19 67 10 67 -10z m656 5 c-3 -13 -6 -29 -6 -35 0 -7 -5 -13 -12 -13 -19 0 -48 31 -48 52 0 14 8 18 36 18 33 0 36 -2 30 -22z m-91 -15 c3 -12 18 -32 35 -44 28 -22 29 -23 15 -57 -8 -19 -15 -55 -15 -79 0 -57 -25 -110 -60 -128 -33 -17 -242 -23 -375 -11 -88 8 -91 9 -132 51 -38 38 -43 48 -44 91 -1 27 -4 60 -8 74 -5 19 -2 29 16 43 12 10 25 32 28 50 l6 32 264 1 264 0 6 -23z m-66 -359 c11 -10 -14 -17 -92 -27 -69 -8 -102 -7 -179 7 -51 9 -99 20 -105 24 -7 4 74 6 180 4 106 -2 194 -6 196 -8z m-401 -60 c23 -8 42 -21 42 -27 0 -10 -21 -96 -121 -501 -27 -110 -49 -212 -49 -228 0 -15 -2 -28 -5 -28 -25 0 -137 35 -146 46 -13 16 -3 71 17 82 8 4 22 48 32 102 12 59 24 96 33 98 31 10 122 116 150 175 80 169 -12 310 -165 251 -10 -4 -16 -1 -16 9 0 30 23 66 44 69 22 4 108 -19 184 -48z m27 36 c22 -7 49 -16 60 -21 18 -7 17 -8 -6 -8 -26 -1 -119 35 -119 46 0 3 6 3 13 0 6 -2 30 -10 52 -17z m250 -60 c-3 -5 1 -23 10 -40 13 -25 14 -35 4 -46 -17 -20 -39 -17 -39 6 0 12 -7 20 -16 20 -13 0 -15 -6 -10 -32 21 -97 21 -98 -9 -98 l-28 0 7 85 c6 83 6 85 -18 91 -13 3 -37 4 -52 2 -29 -3 -29 -4 -34 -80 -4 -56 -10 -81 -22 -90 -18 -14 -51 -115 -42 -129 3 -5 13 -9 23 -9 16 0 18 -7 14 -52 -8 -113 -10 -118 -47 -118 -29 0 -34 -4 -40 -31 -6 -31 -8 -89 -3 -89 1 0 17 4 35 9 25 8 32 7 32 -5 0 -10 -12 -14 -39 -14 -35 0 -39 -3 -45 -31 -3 -17 -6 -44 -6 -60 l0 -29 165 0 c140 0 165 -2 165 -15 0 -13 -28 -15 -190 -15 l-190 0 0 33 c0 17 39 190 86 384 65 264 91 353 103 356 34 9 192 7 186 -3z m323 -5 c4 -4 9 -47 10 -96 3 -75 2 -89 -12 -89 -12 0 -16 16 -18 83 l-3 82 -45 0 -45 0 -3 -82 c-3 -81 -3 -83 -27 -83 -14 0 -25 1 -25 3 0 1 9 25 20 54 13 34 16 54 9 59 -12 7 -12 6 -26 -19 -9 -17 -10 -17 -26 1 -16 18 -16 20 3 45 11 14 20 30 20 36 0 22 -19 10 -46 -26 -16 -21 -31 -42 -35 -47 -4 -5 -19 15 -34 44 l-27 53 152 -6 c84 -3 155 -9 158 -12z m-677 -44 c62 -63 28 -204 -75 -306 -50 -50 -59 -55 -100 -55 -33 0 -52 6 -76 26 -34 29 -48 27 -31 -5 14 -25 45 -43 87 -50 l31 -6 -17 -80 c-18 -88 -16 -87 -90 -60 -33 12 -61 15 -102 10 l-57 -6 4 33 c34 267 37 276 160 398 131 131 207 160 266 101z m247 -73 l-3 -83 45 -9 c25 -5 46 -10 46 -10 1 -1 5 -15 9 -33 l6 -32 -58 -3 -58 -3 -3 -108 c-2 -89 0 -108 13 -113 8 -3 15 -17 15 -30 0 -24 -2 -24 -90 -24 -89 0 -90 0 -90 25 0 22 4 25 34 25 19 0 37 4 41 10 3 5 9 55 13 111 7 93 6 102 -10 107 -10 2 -18 10 -18 18 0 26 20 64 33 64 15 0 27 59 27 131 0 35 3 39 26 39 l26 0 -4 -82z m384 -10 c3 -82 3 -83 31 -86 24 -3 27 -8 27 -38 0 -32 -2 -34 -34 -34 l-33 0 -7 -105 c-4 -58 -5 -109 -1 -115 3 -5 17 -10 31 -10 19 0 24 -5 24 -25 0 -25 -1 -25 -80 -25 -44 0 -80 4 -80 9 0 22 14 41 30 41 15 0 18 14 24 105 4 58 4 110 1 115 -4 6 -26 10 -51 10 -24 0 -44 2 -44 5 0 4 7 19 15 35 12 24 22 29 57 32 l43 3 3 83 c2 73 5 82 22 82 17 0 20 -9 22 -82z m-240 -55 l-19 -58 -16 50 c-15 50 -15 50 11 72 39 33 47 8 24 -64z m98 38 c0 -24 -82 -191 -91 -185 -11 6 0 66 28 157 24 77 25 78 44 61 10 -9 19 -24 19 -33z m321 -165 c21 -33 39 -63 39 -68 0 -4 -12 -8 -26 -8 -34 0 -64 -17 -64 -36 0 -12 5 -14 18 -8 9 4 35 9 57 12 37 3 43 0 73 -37 l32 -40 -37 -6 c-92 -16 -133 -55 -133 -129 0 -24 -4 -36 -9 -30 -12 12 -41 299 -41 394 l1 75 25 -30 c14 -16 43 -57 65 -89z m302 69 c21 -44 21 -42 -3 -48 -14 -4 -25 4 -40 30 -26 44 -25 53 3 53 17 0 28 -10 40 -35z m73 0 c18 -44 18 -45 -6 -45 -11 0 -20 2 -20 4 0 2 -7 20 -15 40 -15 35 -14 36 5 36 14 0 26 -11 36 -35z m-92 -222 c30 -151 35 -205 18 -188 -12 11 -64 252 -77 350 -6 48 -6 49 10 28 8 -12 31 -98 49 -190z m120 140 c3 -10 15 -76 26 -148 12 -71 24 -133 27 -137 2 -5 -7 -8 -21 -8 -22 0 -25 5 -36 73 -6 39 -17 106 -25 147 -9 56 -10 77 -1 82 17 12 24 9 30 -9z m-840 -21 c11 -22 13 -48 6 -132 -5 -58 -9 -111 -10 -117 0 -9 -21 -13 -72 -11 -40 0 -58 3 -40 5 32 4 32 5 32 59 0 41 -4 54 -15 54 -12 0 -15 16 -15 85 l0 85 50 0 c44 0 51 -3 64 -28z m165 -46 c-2 -79 -5 -89 -30 -98 -15 -6 -41 -92 -31 -103 3 -3 14 -5 24 -5 10 0 18 -4 18 -9 0 -8 -109 -4 -118 4 -7 6 17 234 29 258 11 24 18 27 61 27 l49 0 -2 -74z m151 62 c0 -16 18 -179 25 -235 l6 -43 -48 2 c-43 1 -44 2 -10 5 35 4 37 6 37 39 0 45 -16 74 -40 74 -16 0 -20 7 -20 39 0 21 3 59 6 85 5 36 11 46 25 46 11 0 19 -6 19 -12z m454 -5 c7 -21 46 -253 46 -270 0 -7 -8 -13 -18 -13 -15 0 -22 21 -45 134 -15 73 -27 141 -27 150 0 22 37 21 44 -1z m-95 -190 c6 -21 17 -69 25 -106 12 -59 12 -69 0 -74 -20 -8 -72 16 -89 41 -17 23 -20 82 -5 91 6 3 10 19 10 35 0 26 20 49 42 50 4 0 12 -17 17 -37z m-187 -35 c-11 -13 -26 -44 -32 -70 -15 -60 -30 -62 -30 -4 0 47 34 96 66 96 15 0 15 -3 -4 -22z m76 6 c-51 -27 -61 -74 -28 -138 l19 -39 -24 23 c-33 31 -50 83 -36 109 15 26 60 61 80 61 10 -1 6 -6 -11 -16z m-1203 -61 c41 -20 52 -60 13 -49 -13 4 -48 12 -78 18 -30 6 -58 16 -62 22 -19 29 72 35 127 9z m468 -3 c5 -18 14 -20 86 -20 l81 0 0 -35 0 -35 -155 0 -155 0 0 29 c0 28 3 30 45 37 35 5 45 10 45 25 0 27 46 26 53 -1z m397 0 c0 -18 7 -20 60 -20 l60 0 0 -35 0 -35 -166 0 c-147 0 -165 2 -160 16 3 9 6 24 6 35 0 17 8 19 75 19 68 0 75 2 75 20 0 15 7 20 25 20 18 0 25 -5 25 -20z m359 -56 c13 -22 36 -42 61 -52 43 -18 49 -32 25 -52 -25 -20 -57 1 -87 59 -40 74 -39 113 1 45z m295 11 c-5 -11 -21 -15 -60 -15 -43 0 -52 3 -48 15 5 11 21 15 60 15 43 0 52 -3 48 -15z m-1586 -14 c10 -6 5 -10 -16 -14 -67 -14 -111 -87 -113 -192 l-1 -50 -23 50 c-39 83 -28 148 32 194 29 21 96 28 121 12z m1221 -54 c44 -52 53 -94 25 -121 -19 -20 -54 -21 -78 -3 -14 10 -18 26 -18 61 1 39 21 121 28 113 1 -1 20 -24 43 -50z m-1112 1 c11 -13 26 -33 32 -45 14 -27 14 -93 0 -113 -8 -11 -9 -8 -5 16 7 45 -11 102 -39 120 -37 24 -55 12 -57 -38 l-1 -43 -4 43 c-4 36 -7 42 -27 42 -35 0 -68 -44 -87 -117 l-17 -68 -1 60 c-1 74 21 122 69 147 49 26 111 24 137 -4z m1341 -30 c-11 -60 -18 -71 -41 -62 -14 5 -13 12 11 60 14 30 29 54 33 54 3 0 2 -24 -3 -52z m-398 12 c0 -6 -62 -10 -165 -10 -103 0 -165 4 -165 10 0 6 62 10 165 10 103 0 165 -4 165 -10z m-945 -71 c4 -16 1 -53 -5 -80 -12 -49 -13 -50 -30 -32 -15 16 -16 26 -7 90 8 56 13 70 23 62 7 -6 16 -24 19 -40z m145 34 l60 -16 0 -50 c0 -41 -3 -48 -16 -43 -9 3 -24 6 -33 6 -20 0 -74 63 -85 98 -9 27 -4 27 74 5z m490 -58 l0 -55 -60 0 -60 0 0 48 c0 27 3 52 7 55 3 4 30 7 60 7 l53 0 0 -55z m120 0 c0 -42 -3 -55 -15 -55 -12 0 -15 13 -15 55 0 42 3 55 15 55 12 0 15 -13 15 -55z m138 3 c-2 -41 -7 -54 -20 -56 -15 -3 -18 5 -18 52 0 50 2 56 21 56 18 0 20 -5 17 -52z m342 17 c0 -13 -38 -37 -49 -31 -4 3 -6 18 -3 34 4 27 6 28 28 18 13 -6 24 -16 24 -21z m-960 -25 c0 -38 -4 -50 -15 -50 -11 0 -15 12 -15 50 0 38 4 50 15 50 11 0 15 -12 15 -50z m150 0 c0 -43 -3 -50 -20 -50 -17 0 -20 7 -20 50 0 43 3 50 20 50 17 0 20 -7 20 -50z m-299 -107 c32 -111 4 -241 -60 -279 -17 -10 -33 -25 -37 -33 -17 -45 -94 -264 -94 -271 0 -4 15 -27 34 -50 l34 -44 -24 -65 c-14 -36 -26 -67 -28 -69 -2 -2 -31 30 -63 70 l-60 73 18 45 c16 39 87 231 215 577 20 56 40 100 44 98 4 -3 13 -26 21 -52z m351 13 c4 -6 8 -45 8 -87 0 -61 -5 -85 -25 -125 -46 -89 -35 -84 -204 -91 l-151 -6 24 44 c46 81 54 186 22 269 -5 13 15 15 156 11 108 -2 165 -7 170 -15z m412 -7 c3 -17 6 -64 6 -104 l0 -72 -37 -7 c-21 -3 -92 -6 -158 -6 l-120 0 0 93 c0 110 -19 132 -22 25 -3 -82 -23 -144 -60 -188 -38 -46 -59 -39 -28 9 34 56 48 121 43 201 l-5 70 151 2 c83 2 167 4 187 6 34 2 37 0 43 -29z m-855 -40 c-12 -30 -41 -108 -65 -174 -24 -66 -62 -169 -84 -230 -23 -60 -49 -132 -58 -159 l-16 -49 -34 39 c-25 30 -32 44 -27 64 9 36 184 533 190 538 3 3 13 -2 23 -11 27 -25 51 -21 70 12 25 44 26 31 1 -30z m883 -276 c14 -60 25 -109 24 -109 0 -1 -54 -4 -120 -8 -96 -5 -125 -10 -153 -27 -19 -12 -36 -20 -38 -18 -4 5 -55 230 -55 246 0 9 36 13 133 16 72 1 143 4 158 5 24 2 26 -2 51 -105z m-337 -78 c15 -66 29 -122 32 -125 2 -2 22 6 45 18 22 13 41 22 42 20 7 -8 39 -148 35 -151 -2 -2 -54 -38 -116 -80 -98 -68 -133 -87 -133 -73 0 2 -20 84 -45 180 -49 194 -49 195 -34 249 9 33 13 37 43 37 26 0 41 8 63 33 17 20 31 29 35 23 3 -6 18 -65 33 -131z m-195 73 c0 -2 -17 -58 -39 -123 l-39 -120 -83 -7 c-46 -3 -123 -6 -171 -7 l-87 -1 35 98 c61 171 39 151 168 154 61 2 135 4 164 6 28 2 52 1 52 0z m674 -190 c8 -29 18 -65 22 -80 l6 -28 -84 0 c-47 0 -118 -3 -159 -6 l-74 -7 -22 81 c-15 58 -18 82 -9 86 6 2 77 5 158 5 l147 1 15 -52z m-729 -114 c9 -14 15 -27 13 -29 -2 -2 -74 -7 -159 -11 l-156 -7 -22 31 -22 31 63 4 c35 2 109 4 164 5 99 2 102 1 119 -24z m700 -45 c-17 -11 -64 -44 -105 -73 l-76 -53 -157 -6 c-86 -3 -157 -5 -157 -3 0 10 210 142 235 147 17 4 88 7 160 8 l130 1 -30 -21z m-680 -36 c-4 -10 -13 -39 -21 -64 l-14 -47 -133 -6 c-72 -4 -149 -9 -169 -12 l-38 -6 25 66 c14 37 25 68 25 71 0 4 76 8 259 13 66 2 72 0 66 -15z"/>
<path d="M1282 2321 c-21 -13 -11 -55 15 -59 30 -4 49 31 27 52 -18 18 -24 19 -42 7z"/>
<path d="M1450 2316 c-27 -33 18 -72 48 -42 13 13 14 20 6 34 -15 23 -38 26 -54 8z"/>
<path d="M1293 2175 c10 -72 88 -109 144 -70 21 15 50 91 39 102 -2 3 -46 6 -96 7 l-92 1 5 -40z m162 4 c-10 -14 -145 -11 -145 4 0 9 20 11 75 9 42 -2 73 -8 70 -13z m-35 -59 c0 -5 -16 -10 -35 -10 -19 0 -35 5 -35 10 0 6 16 10 35 10 19 0 35 -4 35 -10z"/>
<path d="M1440 1090 c-8 -14 -8 -26 0 -40 13 -24 23 -25 44 -4 19 18 19 20 6 45 -14 25 -36 24 -50 -1z"/>
<path d="M1553 713 c-37 -5 -40 -16 -20 -92 l12 -45 110 3 c60 1 115 7 121 12 12 10 11 17 -7 92 l-10 37 -87 -2 c-48 0 -102 -3 -119 -5z m194 -62 l10 -38 -91 -6 c-50 -3 -94 -2 -97 1 -4 4 -10 24 -13 45 l-7 37 94 0 95 0 9 -39z"/>
<path d="M960 590 c-4 -8 -10 -28 -14 -45 -4 -16 -9 -38 -12 -48 -5 -16 4 -17 127 -15 l132 3 15 53 c8 29 13 54 11 56 -2 3 -60 6 -128 8 -102 2 -124 0 -131 -12z m205 -17 c21 -5 22 -8 13 -34 -5 -16 -17 -29 -26 -29 -10 0 -54 -3 -99 -7 -90 -6 -93 -5 -77 55 6 22 11 23 86 21 43 -1 90 -4 103 -6z"/>
<path d="M1610 259 c-30 -22 -62 -44 -70 -49 -11 -6 -12 -12 -4 -19 6 -7 42 -9 103 -4 88 6 97 8 154 48 34 23 63 47 65 53 3 9 -24 12 -95 12 l-98 -1 -55 -40z m170 7 c0 -3 -12 -13 -28 -24 -25 -18 -152 -41 -152 -28 0 3 17 17 37 31 29 19 50 25 90 25 29 0 53 -2 53 -4z"/>
</g>
</svg>