<?xml version="1.0" standalone="no"?>
<!DOCTYPE svg PUBLIC "-//W3C//DTD SVG 20010904//EN"
 "http://www.w3.org/TR/2001/REC-SVG-20010904/DTD/svg10.dtd">
<svg version="1.0" xmlns="http://www.w3.org/2000/svg"
 width="251.000000pt" height="479.743173pt" viewBox="0 0 251.000000 479.743173"
 preserveAspectRatio="xMidYMid meet">
<metadata>
Created by potrace 1.16, written by Peter Selinger 2001-2019
</metadata>
<g transform="translate(-167.000000,506.984665) scale(0.100000,-0.100000)"
fill="#000000" stroke="none">
<path d="M3400 5032 c-94 -42 -190 -104 -231 -148 -15 -16 -49 -60 -76 -99
-27 -38 -105 -146 -173 -240 -68 -93 -150 -208 -183 -255 -33 -47 -64 -89 -69
-95 -5 -5 -84 -13 -176 -16 -245 -10 -437 -56 -622 -149 -84 -42 -200 -117
-200 -129 0 -5 24 -15 53 -21 92 -22 300 -96 380 -135 43 -21 96 -54 119 -74
39 -35 41 -38 30 -71 -6 -19 -14 -57 -17 -85 -7 -52 -33 -125 -45 -125 -4 0
-19 9 -34 21 -21 16 -26 29 -26 64 0 24 5 47 10 50 6 3 10 10 10 15 0 14 -81
41 -130 43 l-45 2 1 -80 c1 -90 17 -171 46 -229 19 -38 19 -38 0 -60 -29 -32
-42 -61 -42 -96 0 -17 -10 -50 -21 -73 -18 -35 -21 -52 -16 -112 6 -69 5 -73
-31 -135 -26 -46 -52 -74 -89 -100 -92 -61 -105 -138 -36 -206 30 -30 40 -34
87 -34 43 0 58 5 80 25 32 30 46 64 46 116 0 49 11 73 58 122 44 45 53 46 45
7 -10 -52 51 -126 247 -300 52 -46 96 -89 98 -96 3 -13 -155 -194 -197 -225
-39 -29 -71 -89 -78 -149 -3 -30 -11 -50 -18 -50 -23 0 -81 -75 -117 -151 -19
-41 -78 -135 -129 -209 -202 -290 -229 -339 -229 -423 0 -37 7 -66 25 -97 14
-25 32 -59 41 -77 9 -18 43 -61 75 -97 59 -64 60 -66 50 -103 -6 -21 -17 -47
-25 -58 -41 -55 15 -82 144 -71 146 13 184 37 220 139 56 158 43 276 -40 371
l-31 34 31 22 c30 22 33 22 88 6 72 -20 246 -39 290 -32 27 4 35 1 49 -22 100
-161 184 -262 261 -312 44 -28 52 -42 122 -188 80 -169 83 -185 59 -285 -13
-56 -12 -60 6 -74 24 -18 142 -12 218 11 116 35 155 94 143 217 -23 229 -132
426 -276 499 -55 28 -56 29 -83 107 -33 96 -103 346 -119 423 -11 55 -10 60
16 115 31 61 125 169 174 198 l30 17 7 -67 c18 -185 64 -385 106 -452 20 -33
21 -34 78 -28 126 13 372 115 455 189 68 59 71 65 256 583 43 121 90 250 104
288 14 37 26 75 26 85 0 35 -97 109 -262 201 l-58 32 31 45 c16 24 28 48 25
53 -3 5 -27 14 -52 20 l-47 12 99 92 c55 50 132 123 172 162 l72 70 11 82 c6
45 9 169 7 276 l-3 193 -34 55 c-35 58 -164 210 -312 367 -69 74 -96 96 -126
103 -21 5 -163 9 -315 9 l-277 0 57 83 c216 313 307 470 336 583 24 91 20 164
-8 164 -6 0 -49 -17 -96 -38z m-136 -254 c-261 -373 -397 -563 -406 -569 -12
-8 -119 -21 -124 -16 -2 2 17 33 44 70 201 281 256 356 335 460 49 64 112 137
140 161 50 41 128 88 136 81 2 -2 -54 -86 -125 -187z m181 120 c-12 -76 -33
-112 -366 -620 -26 -40 -30 -43 -98 -53 l-44 -7 49 68 c27 38 103 146 169 239
67 94 158 225 204 293 45 67 85 122 88 122 3 0 2 -19 -2 -42z m-91 -732 c30
-15 71 -45 90 -68 40 -46 110 -206 190 -430 92 -261 118 -392 102 -522 -6 -47
-11 -56 -28 -56 -36 0 -72 -31 -107 -90 -18 -32 -51 -77 -73 -99 -32 -34 -45
-41 -77 -41 -46 0 -101 10 -101 19 0 3 33 23 73 44 40 20 85 50 100 65 l27 28
-45 99 c-51 113 -53 125 -25 125 27 0 26 6 -17 75 -61 101 -57 169 17 284 22
34 38 61 35 61 -3 0 -37 -11 -77 -24 -102 -34 -265 -66 -338 -66 l-63 0 35 28
c44 35 102 101 95 108 -3 3 -18 -1 -34 -9 -43 -23 -145 -47 -194 -47 -130 1
-302 88 -484 244 l-40 34 40 17 c22 9 141 43 265 75 264 68 360 101 360 121 0
5 -12 15 -27 23 l-28 14 50 7 c28 4 55 8 60 11 6 2 44 2 86 1 59 -3 90 -10
133 -31z m-444 -565 l55 -6 -42 -30 c-49 -35 -51 -41 -20 -48 99 -24 244 -16
401 24 43 11 81 17 84 14 3 -3 -2 -30 -12 -61 -17 -53 -20 -57 -74 -81 -87
-38 -197 -64 -305 -70 -85 -5 -100 -4 -117 12 -20 18 -20 17 -20 -28 0 -46 1
-47 33 -48 17 -1 35 -1 40 0 11 2 8 -14 -8 -35 -21 -28 -18 -35 10 -28 28 7
29 3 19 -58 -4 -23 -12 -38 -20 -38 -21 0 -17 -14 13 -45 52 -51 153 -86 204
-70 22 7 22 8 -5 22 -22 11 -27 19 -22 36 4 12 16 55 26 96 11 41 22 77 25 80
11 11 62 -39 105 -102 24 -36 46 -64 48 -62 9 8 -22 113 -48 168 -24 49 -26
57 -12 57 9 0 34 3 54 6 l36 6 45 -93 c25 -52 53 -116 62 -144 16 -48 16 -49
-7 -67 -27 -21 -102 -58 -206 -103 -41 -17 -75 -35 -75 -40 -4 -24 238 -74
299 -62 16 3 23 0 21 -7 -3 -8 -49 -10 -154 -7 -115 2 -160 0 -194 -12 -57
-20 -104 -10 -208 41 -131 65 -231 184 -266 318 -15 58 -15 59 7 76 18 14 20
20 10 27 -11 7 -10 17 9 52 19 39 23 42 30 24 4 -11 8 -31 9 -45 l1 -25 22 30
c21 28 22 37 18 188 l-3 158 38 -7 c22 -4 64 -10 94 -13z m-555 -21 c4 -6 -6
-27 -21 -47 -31 -41 -42 -31 -24 22 11 34 32 46 45 25z m64 -152 c-15 -41 -25
-56 -32 -49 -6 6 -26 11 -44 11 -18 0 -33 4 -33 9 0 5 28 38 62 73 57 58 62
61 66 39 2 -12 -6 -50 -19 -83z m126 46 c19 -15 19 -17 -29 -60 -27 -25 -51
-43 -53 -41 -5 6 49 117 57 117 3 0 14 -8 25 -16z m55 -161 l0 -86 -35 36
c-20 21 -41 37 -46 37 -6 0 -22 -13 -36 -30 -26 -32 -67 -42 -57 -15 5 13 161
145 171 145 2 0 3 -39 3 -87z m-393 -227 c26 -9 55 -16 65 -16 21 0 21 3 -1
-82 -15 -60 -22 -70 -68 -107 -29 -22 -56 -48 -61 -58 -9 -16 -12 -16 -50 1
-22 10 -53 31 -68 47 -23 25 -27 36 -26 89 1 62 22 153 48 203 l15 28 50 -45
c27 -24 70 -51 96 -60z m403 42 c20 -77 60 -161 112 -231 28 -37 49 -69 47
-71 -2 -2 -20 -11 -40 -19 l-35 -14 4 -63 c5 -62 4 -62 -19 -55 -47 15 -126
75 -238 182 l-114 108 12 57 12 56 51 7 c28 4 83 24 122 45 39 21 72 38 73 39
1 1 7 -18 13 -41z m1280 -118 c-69 -87 -221 -200 -270 -200 -15 0 -33 6 -40
14 -9 12 -4 20 31 45 29 21 46 28 54 21 8 -7 22 1 46 26 19 20 52 49 73 65 44
33 37 35 -49 15 -33 -8 -62 -13 -64 -10 -19 19 118 62 202 63 l49 1 -32 -40z
m-1499 -196 c90 -92 183 -170 239 -200 31 -17 66 -20 295 -24 258 -5 260 -5
311 -32 59 -31 104 -79 139 -148 45 -89 70 -83 -312 -77 -326 4 -341 5 -426
30 -147 43 -269 126 -389 265 -60 70 -70 100 -47 145 11 21 97 127 104 127 1
0 40 -39 86 -86z m1404 -44 c14 -5 23 -14 20 -20 -10 -16 -84 -32 -116 -25
l-30 7 43 23 c53 28 51 27 83 15z m-811 -66 c47 -8 45 -18 -4 -38 -37 -14 -80
-21 -80 -12 0 22 25 66 35 62 8 -3 30 -8 49 -12z m862 -99 c101 -46 204 -120
204 -146 0 -21 -198 -621 -251 -757 -35 -92 -65 -125 -175 -190 -72 -42 -188
-85 -261 -96 -42 -6 -43 -5 -59 31 -48 109 -66 197 -71 338 -4 116 -3 143 9
153 13 10 16 -1 22 -86 7 -114 28 -220 53 -271 13 -27 25 -37 46 -39 42 -5
160 34 258 84 100 52 106 61 167 234 22 63 79 220 127 349 47 128 84 239 81
246 -2 7 -63 48 -135 91 -72 43 -131 81 -131 86 0 17 41 7 116 -27z m-95 -191
c9 -11 19 -46 23 -79 l6 -60 -54 -32 c-53 -33 -54 -33 -92 -17 -22 9 -40 17
-42 19 -1 1 7 26 17 56 11 30 28 80 36 111 l16 58 37 -19 c20 -10 44 -27 53
-37z m-1355 -515 c50 -40 72 -51 169 -84 80 -27 272 -65 327 -65 33 0 33 -8 1
-82 -14 -34 -20 -38 -53 -38 -64 0 -354 39 -405 55 -28 8 -68 15 -91 15 -65 0
-104 18 -120 56 -20 47 -7 75 15 32 32 -64 116 -59 149 9 15 31 15 37 2 60
-30 53 -92 46 -92 -10 0 -30 -12 -36 -22 -11 -11 28 -6 44 19 69 32 33 54 31
101 -6z m-411 -501 c16 -17 56 -53 87 -79 56 -47 57 -49 39 -66 -50 -49 -130
-146 -126 -154 3 -4 23 -2 45 6 49 17 52 4 9 -36 -32 -30 -112 -59 -161 -59
-73 0 -138 59 -138 125 0 54 53 147 128 223 39 40 75 72 79 72 4 0 21 -14 38
-32z m963 -205 c11 -16 42 -77 69 -138 49 -108 50 -110 90 -118 46 -9 95 -52
125 -111 l20 -40 -28 -20 c-44 -33 -105 -55 -154 -55 -40 -1 -48 3 -62 27 -10
16 -20 47 -24 70 -6 38 -11 44 -58 65 -28 13 -71 45 -96 71 -51 53 -153 217
-142 228 11 11 162 46 204 47 29 1 41 -5 56 -26z"/>
<path d="M2753 3177 c-37 -13 -41 -26 -15 -50 36 -33 61 -14 62 46 0 19 -1 19
-47 4z"/>
<path d="M2785 2994 c52 -47 170 -112 182 -100 21 20 -169 147 -218 146 -8 -1
9 -21 36 -46z"/>
<path d="M2437 1812 c-7 -15 -21 -40 -31 -55 -16 -24 -17 -30 -6 -37 41 -25
296 -69 403 -70 54 0 58 2 77 33 11 17 18 37 17 42 -2 6 -42 13 -89 17 -90 6
-193 32 -297 72 l-62 25 -12 -27z"/>
</g>
</svg>
