<?xml version="1.0" encoding="UTF-8" standalone="no"?><!-- Created with Inkscape (http://www.inkscape.org/) --><svg xmlns:inkscape="http://www.inkscape.org/namespaces/inkscape" xmlns:sodipodi="http://sodipodi.sourceforge.net/DTD/sodipodi-0.dtd" xmlns="http://www.w3.org/2000/svg" xmlns:svg="http://www.w3.org/2000/svg" version="1.1" id="svg1" width="9.9856mm" height="16mm" viewBox="0 0 347 556" sodipodi:docname="luke sky.svg" inkscape:version="1.4.2 (f4327f4, 2025-05-13)">
  <defs id="defs1"/>
  <sodipodi:namedview id="namedview1" pagecolor="#ffffff" bordercolor="#000000" borderopacity="0.25" inkscape:showpageshadow="2" inkscape:pageopacity="0.0" inkscape:pagecheckerboard="0" inkscape:deskcolor="#d1d1d1" inkscape:zoom="1.0629496" inkscape:cx="173.5736" inkscape:cy="278" inkscape:window-width="1536" inkscape:window-height="793" inkscape:window-x="-8" inkscape:window-y="1072" inkscape:window-maximized="1" inkscape:current-layer="g1"/>
  <g inkscape:groupmode="layer" inkscape:label="Image" id="g1">
    <path style="fill:#000000" d="m 303.91212,554.99062 c -1.97333,-0.4906 -6.02333,-1.85197 -9,-3.02527 -2.97666,-1.17331 -11.88845,-3.85971 -19.80396,-5.9698 -7.91551,-2.11008 -14.77112,-4.43479 -15.23468,-5.16603 -1.53976,-2.42882 -0.9874,-9.28747 0.87652,-10.88382 1.49835,-1.28326 1.79939,-3.75466 2.09349,-17.1863 0.37022,-16.90807 -0.41836,-21.08246 -6.56319,-34.74263 -4.03813,-8.97691 -5.18437,-20.36177 -3.05863,-30.37941 0.8083,-3.80912 0.74759,-5.03832 -0.2802,-5.67354 -1.08164,-0.66849 -1.0825,-1.50647 -0.005,-4.77169 1.60836,-4.87336 0.37948,-9.54794 -2.62717,-9.99363 -1.11865,-0.16582 -3.27257,-1.59438 -4.78648,-3.17456 -1.51391,-1.58018 -3.33528,-2.64944 -4.0475,-2.37614 -2.28442,0.87661 -7.82965,-2.7618 -13.19305,-8.65641 -2.86969,-3.15391 -8.26969,-7.75416 -12,-10.22277 C 209.5064,398.28446 192.20837,388 191.44218,388 c -0.22292,0 -5.7977,8.11902 -12.38841,18.04227 -11.5118,17.33265 -14.03605,22.37742 -14.04819,28.07559 -0.004,1.90048 -2.19154,4.91487 -7.98252,11 C 140.23233,462.7615 131.19826,471 128.64156,471 c -0.8482,0 -1.96073,-0.74791 -2.47229,-1.66202 -0.83847,-1.49825 -1.55775,-1.53266 -7.29969,-0.34921 -7.02959,1.44884 -10.84285,3.06917 -12.81486,5.44529 -0.71478,0.86127 -2.12854,1.56594 -3.14168,1.56594 -1.01314,0 -3.857141,1.125 -6.320001,2.5 -2.46286,1.375 -5.117463,2.5 -5.899119,2.5 -0.781656,0 -2.583995,1.1628 -4.005198,2.58401 -1.758358,1.75835 -3.2069,2.3863 -4.53346,1.96527 -1.240837,-0.39383 -3.82033,0.48437 -7.096364,2.41599 C 72.228097,489.63437 69.479346,491 68.950562,491 c -2.404392,0 -12.997065,7.69805 -14.032546,10.19793 -0.623209,1.50456 -1.983667,3.00552 -3.023238,3.33547 -1.039572,0.32994 -2.167594,1.70541 -2.506717,3.05658 -0.339123,1.35117 -1.492414,3.07013 -2.562869,3.81991 -2.314403,1.62107 -3.461532,9.86102 -2.378369,17.08407 0.66838,4.45707 0.961005,4.81436 5.613666,6.85411 2.791945,1.22401 5.181815,3.01434 5.542301,4.15193 0.348574,1.1 1.308879,2.76937 2.134012,3.70971 0.95699,1.0906 1.26937,2.62956 0.862667,4.25 L 57.961896,550 H 39.98147 c -17.734232,0 -18.049,-0.0376 -22.988638,-2.75 -4.185345,-2.29817 -5.180192,-3.40721 -6.054941,-6.75 C 10.362189,538.3 8.7996937,533.125 7.4656788,529 6.1316638,524.875 3.887015,516.58521 2.4775705,510.57824 0.38775302,501.67157 0.15341763,499.42799 1.207472,498.41806 c 1.7477463,-1.67458 12.35467,-4.6054 17.292528,-4.77814 2.2,-0.077 5.628115,-1.15242 7.618034,-2.38992 1.989919,-1.2375 4.577419,-2.25 5.75,-2.25 C 33.247465,489 34,488.37015 34,487.21561 c 0,-0.98142 1.4625,-2.62752 3.25,-3.65802 3.371578,-1.94371 13.740325,-10.65059 19.420195,-16.30759 1.794726,-1.7875 3.556887,-3.25 3.915912,-3.25 0.359026,0 4.52449,-3.83704 9.256588,-8.52675 6.139786,-6.08479 9.757024,-8.86921 12.630559,-9.72256 2.21471,-0.6577 4.701746,-1.98437 5.526746,-2.94814 0.940639,-1.09886 3.364536,-1.90058 6.5,-2.1499 6.46273,-0.5139 17.02921,-3.32018 20.37732,-5.41189 5.44941,-3.40448 11.36777,-10.48669 12.65644,-15.14534 3.53091,-12.76455 8.87399,-28.95046 11.03656,-33.43323 2.80766,-5.82001 2.93972,-6.66219 1.04469,-6.66219 -0.76174,0 -2.07674,-1.05574 -2.92221,-2.3461 -0.84548,-1.29035 -4.08987,-3.55472 -7.20976,-5.03192 -4.52638,-2.14314 -5.52853,-3.03295 -4.95989,-4.4039 0.39196,-0.94494 0.85118,-2.78717 1.02049,-4.09383 0.16932,-1.30666 0.79127,-2.85916 1.38211,-3.45 C 128.40947,359.19053 128.2738,357 126.69819,357 c -1.78309,0 -1.91766,-6.70181 -0.14821,-7.38081 0.81657,-0.31334 1.15129,-0.004 0.84887,0.78382 -0.27462,0.71563 0.6483,2.05309 2.05092,2.97212 3.13707,2.05549 3.16078,2.73038 0.22125,6.29814 -1.36607,1.65802 -2.29633,4.06708 -2.25,5.82673 l 0.079,3 8.5,0.76921 c 4.675,0.42307 10.525,1.19632 13,1.71835 3.60506,0.76037 2.52513,0.8613 -5.43021,0.50752 l -9.93021,-0.44162 3.40359,2.84144 c 3.2691,2.72917 3.93801,2.86489 16.9302,3.4351 7.43965,0.32651 17.80163,1.5062 23.02663,2.62153 7.15995,1.52837 13.25138,2.03041 24.72968,2.03817 l 15.22967,0.0103 1.97748,-3.87618 c 1.08761,-2.1319 1.7353,-4.11836 1.4393,-4.41435 -0.29599,-0.296 -0.0505,-1.44941 0.54555,-2.56314 1.73009,-3.23268 -0.86567,-3.94338 -3.33719,-0.91369 -2.89601,3.55005 -9.44238,7.77517 -11.97404,7.72822 -1.67015,-0.031 -1.45252,-0.32539 1.04315,-1.4112 4.29091,-1.86686 8.3464,-8.04882 8.3464,-12.72278 0,-2.03986 0.45643,-3.99094 1.01429,-4.33571 1.60095,-0.98944 4.75131,-7.7248 5.51351,-11.78768 0.79751,-4.25107 -0.97755,-5.07398 -3.92338,-1.81887 -1.21932,1.34733 -3.07347,1.88461 -6.50376,1.88461 -2.63902,0 -5.76626,0.30725 -6.94944,0.68277 C 202.91821,348.84335 202,348.70338 202,348.12409 202,346.06544 206.56525,344 211.11552,344 c 3.3364,0 4.84389,-0.45183 5.27749,-1.58179 0.94134,-2.45309 0.72374,-3.53269 -0.64853,-3.21757 -0.69053,0.15858 -2.26553,-0.72169 -3.5,-1.95616 C 210.91605,335.91605 208.77559,335 207,335 c -1.65,0 -3,-0.49531 -3,-1.10069 0,-0.68912 1.66466,-0.9683 4.45185,-0.74663 3.90666,0.31071 4.58649,0.0586 5.55117,-2.05866 1.41677,-3.10947 0.0881,-4.00802 -6.25302,-4.22871 -2.6125,-0.0909 -5.3125,-0.21031 -6,-0.26531 -0.6875,-0.055 -1.39393,0.91349 -1.56984,2.15219 -0.35128,2.4736 -3.91475,4.92908 -5.21057,3.59045 -0.44863,-0.46345 -0.96899,-2.19264 -1.15635,-3.84264 l -0.34066,-3 -1.79402,3.31199 c -1.32359,2.4435 -2.36889,3.23017 -3.98629,3 -1.73322,-0.24666 -2.29697,-1.14755 -2.69227,-4.30231 -0.5207,-4.1555 -3.04198,-5.8677 -5.30622,-3.60346 -1.36968,1.36968 -3.02609,1.44049 -2.19378,0.0938 1.09879,-1.77789 -0.80376,-1.06183 -3.32127,1.25 l -2.45016,2.25 1.13571,-2.18426 C 174.40714,322.34845 174.31562,322 171.99339,322 c -1.10364,0 -2.98479,1.125 -4.18034,2.5 -1.19555,1.375 -2.70055,2.5 -3.34445,2.5 -0.6439,0 -3.29685,1.13048 -5.89546,2.51217 -2.59861,1.38169 -5.15026,2.24919 -5.67033,1.92777 -0.52007,-0.32143 -2.39846,1.0995 -4.17419,3.1576 -1.77574,2.0581 -4.49662,5.12811 -6.04641,6.82223 -2.65859,2.90621 -2.72332,2.9258 -1.14577,0.3467 l 1.672,-2.73354 -4.55535,1.37096 c -2.50545,0.75403 -5.68813,2.65912 -7.07262,4.23354 -1.3845,1.57441 -2.53149,2.58451 -2.54887,2.24466 -0.0473,-0.9246 11.3464,-15.96874 14.49264,-19.13597 l 2.73562,-2.75387 -2.74173,-2.15665 c -2.54495,-2.00185 -2.69488,-2.52196 -2.08886,-7.24613 0.35909,-2.79921 0.91447,-7.69061 1.23419,-10.86978 0.42622,-4.23817 1.08224,-6.04841 2.45892,-6.78519 C 146.15507,297.38182 147,296.27047 147,295.46482 147,294.56901 147.97113,294 149.5,294 c 2.79569,0 2.94239,-0.30488 1.47027,-3.05555 -1.29361,-2.41714 0.35761,-5.20707 7.97442,-13.47373 6.40748,-6.95416 7.3524,-8.09363 15.93889,-19.22072 3.50147,-4.5375 6.58998,-8.25 6.86334,-8.25 0.27336,0 -0.12036,0.85222 -0.87495,1.89381 -1.73365,2.39306 -14.83738,19.29973 -19.07133,24.60619 l -3.19155,4 3.00017,-2.75 c 3.9451,-3.61613 4.92779,-3.48188 2.69728,0.36848 -1.98409,3.42495 -5.73236,6.35442 -7.07154,5.52676 -0.46912,-0.28994 -2.08566,0.77891 -3.59231,2.37521 -2.588,2.74198 -2.65283,3.03444 -1.17331,5.29247 1.68949,2.57849 5.55839,3.11748 30.03062,4.18368 5.5,0.23962 11.575,0.86579 13.5,1.39148 2.69468,0.73588 1.7289,0.83069 -4.19738,0.41206 -4.23356,-0.29905 -10.26816,-0.22254 -13.41021,0.17004 -12.07337,1.50846 -2.14523,2.24163 27.43983,2.02635 16.86727,-0.12274 29.78412,0.0924 28.70411,0.47818 -2.42697,0.86683 2.10711,1.68524 14.50108,2.61746 7.31874,0.55048 9.81421,0.27168 18.46257,-2.06267 17.30616,-4.67125 26.06327,-7.48727 28.06407,-9.02452 1.67214,-1.28474 1.32275,-1.27768 -2.56407,0.0518 -2.475,0.84655 -10.10122,2.91099 -16.94716,4.58763 -11.39004,2.78955 -13.38586,2.9963 -23.5,2.43443 C 239.2099,297.83756 223,295.88255 223,295.01455 c 0,-0.34619 9.7875,-1.36796 21.75,-2.2706 11.9625,-0.90265 27.375,-2.53534 34.25,-3.62822 6.875,-1.09288 15.87113,-2.47691 19.9914,-3.07563 7.93434,-1.15294 16.92882,-5.55871 19.62787,-9.61433 0.75923,-1.14083 2.30291,-7.21583 3.4304,-13.5 1.12749,-6.28417 3.15256,-13.84265 4.50015,-16.79661 C 329.34545,240.00108 329.34571,240 328,240 c -0.55,0 -1.04486,1.0125 -1.09968,2.25 -0.0949,2.14305 -0.13262,2.13165 -0.79271,-0.23992 -1.03029,-3.70168 -2.07142,-1.19883 -3.02006,7.26018 -0.45098,4.02138 -1.52283,8.6708 -2.38189,10.33204 -0.85906,1.66124 -1.81415,5.165 -2.12242,7.78615 -0.30826,2.62114 -0.78342,5.12643 -1.0559,5.56732 -0.27248,0.44088 -2.8651,0.61233 -5.76138,0.381 -9.14279,-0.73025 -11.09606,-0.39133 -18.26596,3.1695 -8.44591,4.19453 -16.07933,6.22738 -26.32667,7.01104 -4.22033,0.32274 -12.1885,1.27766 -17.70705,2.12204 -12.17662,1.86311 -19.63245,1.48995 -9.1401,-0.45746 9.03547,-1.67702 15.83329,-4.30031 24.2454,-9.35637 6.79837,-4.08613 16.76849,-11.81879 16.10021,-12.48706 -0.34949,-0.34949 -8.27437,2.04327 -19.67179,5.9395 -5.54344,1.89504 -8.63386,2.22204 -21,2.22204 -7.975,0 -15.85,-0.40778 -17.5,-0.90618 -2.63846,-0.79697 -1.91537,-1.06274 6,-2.20527 4.95,-0.71451 15.42015,-2.00901 23.267,-2.87669 17.30229,-1.91321 31.48078,-5.4522 38.05846,-9.49948 5.94588,-3.65854 6.95725,-3.72631 7.76196,-0.5201 l 0.62552,2.49228 3.14353,-2.20321 c 3.33229,-2.3355 3.21775,-2.11084 -2.9153,5.71865 -5.51585,7.04155 -8.37036,9.34569 -18.25576,14.73588 -4.77697,2.60473 -8.42959,4.74223 -8.11691,4.75 0.31267,0.008 2.82604,-0.6563 5.58527,-1.4757 7.57341,-2.24906 21.47082,-10.61215 24.2303,-14.58115 2.21875,-3.19126 2.48419,-2.20144 0.62239,2.32097 -0.57907,1.4066 -0.20255,1.75 1.91878,1.75 1.80232,0 2.92599,-0.71347 3.5436,-2.25 0.55477,-1.3802 0.92889,-1.6508 0.96777,-0.7 0.0964,2.3559 1.99861,3.7797 4.25981,3.18838 1.72703,-0.45163 1.94954,-1.11348 1.50032,-4.46271 -0.4993,-3.72255 -0.43226,-3.8463 1.25605,-2.3184 1.6731,1.51414 1.75293,1.45413 1.28963,-0.96944 -0.33881,-1.77237 0.0878,-3.00884 1.35893,-3.93828 1.43699,-1.05075 1.88266,-2.77924 1.98591,-7.70217 0.15511,-7.39587 0.88063,-9.54372 3.50512,-10.3767 2.47081,-0.7842 2.41054,-2.80355 -0.22355,-7.49028 -1.59093,-2.83067 -2.92179,-3.9125 -5.25,-4.26763 -1.71536,-0.26164 -3.15531,-0.41656 -3.19989,-0.34424 -0.0446,0.0723 -1.73209,2.33368 -3.75,5.02527 -4.56137,6.08417 -4.81286,4.79755 -0.3784,-1.93584 2.48418,-3.77204 3.12125,-5.60436 2.59968,-7.4772 -1.03538,-3.71786 -1.0132,-7.1748 0.0419,-6.52274 0.54663,0.33784 0.78845,-1.60204 0.58477,-4.69098 -0.27683,-4.19807 -0.15088,-4.76382 0.62057,-2.7876 0.53233,1.36369 1.67321,3.25881 2.53528,4.21139 1.2283,1.35726 1.41768,2.93019 0.87539,7.27056 -0.54787,4.38502 -0.40356,5.53861 0.69286,5.53861 0.76168,0 2.67825,1.35 4.25905,3 3.58332,3.74018 4.17822,3.74155 4.99748,0.0115 0.36102,-1.6437 1.02981,-3.21932 1.4862,-3.50138 0.45639,-0.28207 0.58917,0.40734 0.29506,1.53202 -0.35459,1.35593 1.52984,0.0619 5.59326,-3.84075 3.3704,-3.23709 6.128,-6.53651 6.128,-7.33205 0,-0.79553 -0.9,-3.21172 -2,-5.36931 -1.1,-2.15759 -2,-4.58509 -2,-5.39446 0,-0.80936 1.32505,1.11936 2.94456,4.28606 2.48317,4.85544 2.76947,6.14193 1.82713,8.21014 -0.83504,1.8327 -0.82102,2.74893 0.0554,3.62539 0.64508,0.64508 1.17287,2.15277 1.17287,3.35043 0,1.19765 0.67065,2.73414 1.49033,3.41442 2.20312,1.82842 0.82791,5.94907 -3.2566,9.75802 -1.91681,1.7875 -2.99676,3.25 -2.39989,3.25 0.59687,0 2.22843,-1.2329 3.62569,-2.73978 1.39726,-1.50688 2.54047,-2.25903 2.54047,-1.67145 0,1.65382 -5.97401,10.27962 -8.1985,11.83771 -1.5721,1.10114 -2.06882,2.82034 -2.37862,8.23265 -0.21537,3.76248 -0.84862,8.4129 -1.40723,10.33427 -0.55861,1.92137 -1.01565,8.26672 -1.01565,14.10077 0,13.21216 -1.0128,16.36155 -6.09555,18.95457 -5.88618,3.00291 -38.72985,14.05044 -44.40445,14.93619 -6.02152,0.93991 -25.81468,0.38221 -37.37623,-1.05312 -7.13716,-0.88606 -8.88205,-0.79986 -11.79563,0.58272 -2.55235,1.21117 -3.27348,2.08232 -2.84396,3.43561 0.35818,1.12855 -0.0198,2.04143 -1.00129,2.41805 -0.86719,0.33277 -1.4431,1.23795 -1.2798,2.01149 0.1633,0.77355 -0.86449,2.48756 -2.28399,3.80892 -2.94918,2.74528 -5.30441,8.45523 -3.85667,9.34998 0.58454,0.36127 0.56184,1.29497 -0.0597,2.45637 -1.70382,3.18363 -1.134,4.8173 1.91376,5.4867 3.85056,0.84573 4.35335,2.56626 2.06283,7.05898 -2.51273,4.92857 -4.44694,13.83187 -3.50279,16.12354 0.48384,1.1744 0.92076,1.39691 1.21267,0.6176 0.25097,-0.67003 2.78608,-2.88631 5.63357,-4.92507 2.84749,-2.03876 6.20212,-4.61811 7.45473,-5.73189 l 2.27746,-2.02504 -2.27746,-1.26445 c -1.25261,-0.69545 -1.80098,-1.2804 -1.2186,-1.29988 0.58238,-0.0195 1.93238,0.65302 3,1.49448 1.88925,1.48902 1.86133,1.58925 -1.04458,3.75 -1.64214,1.22104 -6.02622,5.1031 -9.74239,8.62679 -5.28952,5.01556 -6.5146,6.69839 -5.64184,7.75 0.61316,0.73881 1.84723,1.38815 2.74238,1.44297 0.93093,0.057 0.5575,0.44237 -0.87244,0.90032 -1.96277,0.62859 -1.31809,0.83716 3,0.97061 6.51871,0.20144 4.21312,1.84395 -2.75,1.9591 -2.3375,0.0387 -4.25105,0.40779 -4.25233,0.82029 -0.001,0.4125 3.48622,0.67083 7.75,0.57406 l 7.75233,-0.17595 -5,1.32995 c -2.75,0.73147 -6.41436,1.37315 -8.14301,1.42594 -2.65432,0.0811 -4.35699,1.50457 -4.35699,3.6426 0,0.93659 4.66413,2.72116 10.3334,3.95372 l 6.1666,1.34068 -6,0.11277 -6,0.11277 2.34466,1.95368 c 1.28957,1.07452 3.98957,2.40403 6,2.95448 2.01044,0.55044 5.12872,1.90632 6.92951,3.01305 1.80079,1.10674 4.27596,2.01225 5.50037,2.01225 1.22442,0 5.37604,0.66719 9.22583,1.48264 3.8498,0.81545 9.02463,1.51897 11.49963,1.56338 4.03615,0.0724 4.24231,0.18398 2,1.0822 -1.375,0.5508 -9.099,1.24955 -17.16443,1.55277 l -14.66444,0.55132 -3.58556,-2.73484 C 227.95427,403.49048 227,403.16083 227,404.25887 c 0,0.82293 0.71177,2.08696 1.58172,2.80895 0.86995,0.72199 2.33245,2.89921 3.25,4.83827 0.91755,1.93906 2.87761,4.20246 4.35568,5.02979 2.43006,1.36019 3.17877,1.32754 7.81876,-0.34098 2.83594,-1.01979 9.90568,-2.19062 15.80429,-2.61736 10.64555,-0.77017 10.68093,-0.7814 13.78722,-4.37485 3.40316,-3.93687 4.86456,-4.44648 5.79534,-2.0209 0.84936,2.21338 0.78514,2.41821 -0.75815,2.41821 -0.75083,0 -2.43833,0.8328 -3.75,1.85067 -1.31167,1.01787 -3.73486,2.33234 -5.38486,2.92105 -2.68548,0.95817 -2.26612,1.08611 4,1.22036 l 7,0.14997 -6.98999,1.99117 c -3.84449,1.09515 -7.73279,2.66341 -8.64067,3.48503 -1.15357,1.04396 -3.26472,1.39028 -7.01002,1.14996 l -5.35932,-0.3439 3.18402,-1.28698 c 1.7512,-0.70784 3.8608,-2.31988 4.68798,-3.58233 l 1.50397,-2.29535 -4.68798,0.4851 c -2.5784,0.2668 -6.6727,1.34002 -9.09845,2.38492 l -4.41046,1.89983 2.33478,2.48525 c 1.28412,1.36689 3.29532,2.48525 4.46932,2.48525 3.1015,0 5.9639,2.39256 5.21068,4.35539 -0.83157,2.16704 0.54211,2.07504 5.30614,-0.35539 4.68356,-2.38937 5.67042,-2.51273 4,-0.5 -1.02637,1.2367 -0.93594,1.5 0.51518,1.5 2.72295,0 17.90785,-10.75325 19.86606,-14.06824 1.68722,-2.85624 1.6753,-3.04442 -0.35649,-5.62742 -1.15614,-1.4698 -3.5774,-3.67487 -5.38057,-4.90016 -1.80316,-1.22528 -4.82327,-4.75874 -6.71133,-7.85212 -7.48919,-12.2702 -14.3856,-22.33607 -19.21927,-28.05206 -4.17168,-4.93318 -4.40108,-5.37769 -1.29018,-2.5 5.08506,4.70385 15.06628,17.54626 21.95613,28.25 3.24227,5.03703 6.31458,8.75 7.24021,8.75 0.88437,0 3.29363,0.94741 5.35391,2.10535 l 3.74596,2.10534 0.67429,9.5926 0.6743,9.59259 -2.99674,2.34529 c -2.5061,1.96132 -2.98782,3.03404 -2.94231,6.55206 0.0299,2.31373 -0.44257,6.36109 -1.04998,8.99415 -0.68717,2.97877 -0.88103,9.62828 -0.51316,17.60116 0.39998,8.66879 0.2,14.23672 -0.61821,17.21262 -1.52701,5.55383 -1.34901,11.77016 0.39571,13.81954 0.7395,0.86861 2.09241,4.69999 3.00648,8.51417 0.91407,3.81418 2.51939,8.53918 3.56738,10.5 1.04799,1.96082 2.84511,5.37179 3.99361,7.57994 1.46174,2.81041 4.0064,5.21032 8.48252,8 6.05172,3.77165 10.6486,8.20605 7.09187,6.8412 C 309.66842,535.04252 309,534.38417 309,533.89301 309,533.40186 308.50226,533 307.8939,533 c -0.60835,0 -2.81061,-1.35 -4.8939,-3 -4.39777,-3.4831 -5.4822,-3.76951 -4.03518,-1.06574 1.25509,2.34516 1.30073,3.06574 0.1942,3.06574 -0.85034,0 -6.30982,-10.60101 -7.59619,-14.75 -0.38368,-1.2375 -1.0685,-2.25 -1.52181,-2.25 -0.45331,0 -1.11458,-1.15697 -1.46949,-2.57104 -0.37053,-1.47631 -1.16183,-2.35556 -1.85841,-2.06498 -0.66722,0.27834 -2.90062,1.05654 -4.96312,1.72933 -5.12518,1.67185 -5.28999,4.90669 -0.25,4.90669 2.44444,0 3.5,0.45238 3.5,1.5 0,1.05076 -1.05988,1.5 -3.53894,1.5 h -3.53893 l 0.16885,7.91003 0.16886,7.91002 7.83575,3.09641 c 10.98917,4.34251 20.42341,6.38688 26.32783,5.70515 7.02278,-0.81085 7.82278,-2.10094 3.57658,-5.76766 -3.91714,-3.38256 -2.88301,-2.9824 4.62383,1.78921 5.89406,3.74646 6.69134,5.1543 5.25398,9.27751 -0.71038,2.0378 -2.03791,3.29092 -4.2078,3.97195 -4.8958,1.53656 -13.78345,2.08611 -17.75789,1.098 z M 50.690532,541.36408 c 1.256679,-3.27486 -1.083265,-4.84896 -7.678286,-5.16527 -3.453891,-0.16565 -7.585013,0.15381 -9.180269,0.70992 -1.779585,0.62037 -2.671202,0.64015 -2.307205,0.0512 0.8462,-1.36918 -0.895363,-1.18933 -2.324772,0.24008 -0.666667,0.66667 -1.2,0.75556 -1.2,0.2 0,-0.55 0.435261,-1.43526 0.967247,-1.96725 1.485225,-1.48522 0.06517,-5.28769 -2.249022,-6.02218 -1.39369,-0.44234 -2.493966,-0.0702 -3.381697,1.14388 -0.723725,0.98975 -1.581972,1.53344 -1.907216,1.2082 -0.877709,-0.87771 1.448163,-4.76165 2.855872,-4.76897 0.668149,-0.003 1.958993,-1.31446 2.868542,-2.91329 0.90955,-1.59884 2.70955,-3.46602 4,-4.14929 1.894495,-1.00311 1.720481,-0.59815 -0.903726,2.10313 C 27.172992,525.2016 26.029359,528 27.811942,528 c 0.446567,0 1.810039,-1.35 3.029937,-3 1.34576,-1.82024 3.091044,-2.97937 4.438058,-2.94755 l 2.220063,0.0525 -2.25,1.56952 c -1.2375,0.86324 -2.25,2.41464 -2.25,3.44755 0,1.1161 -0.709988,1.88424 -1.75,1.89334 -1.384058,0.0121 -1.461823,0.19784 -0.371885,0.8882 0.757964,0.48009 1.08286,1.35062 0.721992,1.93451 -1.016472,1.64469 2.889897,3.21398 6.3018,2.5316 3.658277,-0.73166 3.284938,-1.88225 -0.881098,-2.71546 C 35.118469,531.27369 34,530.43661 34,529.39333 c 0,-1.35553 0.727089,-1.55915 4,-1.12016 l 4,0.53652 v -4.40485 C 42,520.64398 41.703014,520 39.968615,520 c -3.15722,0 -3.341299,-2.39153 -0.582915,-7.57314 1.39176,-2.61441 2.258071,-5.19423 1.925135,-5.73294 -0.332936,-0.5387 -1.249292,0.24957 -2.036346,1.75172 -2.254032,4.30198 -2.753242,2.09957 -0.538667,-2.37649 2.562823,-5.17992 1.646576,-6.09617 -1.48607,-1.48606 -2.539963,3.73789 -4.224447,4.10666 -2.295589,0.50256 1.482854,-2.77074 0.12863,-2.63106 -4.420314,0.45594 -2.059884,1.39788 -6.51018,3.45341 -9.889547,4.56784 -10.254039,3.38155 -10.195122,3.28124 -7.66342,13.04814 2.333793,9.0034 5.637765,15.84243 7.653569,15.84243 0.696393,0 1.626371,0.64365 2.066618,1.43032 0.879237,1.57111 5.206578,2.1289 18.580316,2.39497 7.312217,0.14548 8.886412,-0.099 9.409147,-1.46121 z m -32.066993,-8.90274 c -0.964979,-2.51469 -0.680311,-3.16355 0.498534,-1.13634 0.58369,1.00375 0.850598,2.03566 0.593129,2.29313 -0.257468,0.25747 -0.748717,-0.26309 -1.091663,-1.15679 z M 54.984687,541.25 C 54.976265,540.8375 54.533156,539.825 54,539 53.216126,537.78704 53.027695,537.93056 53.015313,539.75 53.006891,540.9875 53.45,542 54,542 c 0.55,0 0.993109,-0.3375 0.984687,-0.75 z m 215.645603,-8.5 c -0.33164,-1.2375 -0.68247,-4.275 -0.77963,-6.75 l -0.17665,-4.5 -0.75025,5.5 c -0.60706,4.45025 -0.69534,3.73451 -0.46255,-3.75 0.26333,-8.46685 0.1296,-9.25 -1.57956,-9.25 -1.49187,0 -1.86633,0.75388 -1.86263,3.75 0.003,2.0625 -0.13284,6.06462 -0.30084,8.8936 -0.27275,4.59292 -0.0331,5.31273 2.23818,6.72339 3.49335,2.16963 4.38077,2.0206 3.67393,-0.61699 z m 2.75712,-4.62497 c 0.31566,-6.35687 -0.70643,-8.27992 -1.7165,-3.22956 -0.572,2.86 0.22067,10.54629 1.00657,9.76039 0.22318,-0.22319 0.54265,-3.16206 0.70993,-6.53083 z m 2.88654,1.62497 c -0.63491,-7.70755 -1.1053,-8.10119 -1.195,-1 -0.0434,3.4375 0.30499,6.25 0.77426,6.25 0.46926,0 0.65859,-2.3625 0.42074,-5.25 z m -5.61167,-14 c -0.27741,-0.6875 -0.50439,-0.125 -0.50439,1.25 0,1.375 0.22698,1.9375 0.50439,1.25 0.27741,-0.6875 0.27741,-1.8125 0,-2.5 z m 3.32241,1 C 273.9723,514.93056 273.78387,514.78704 273,516 c -1.25292,1.93876 -1.25292,3 0,3 0.55,0 0.99311,-1.0125 0.98469,-2.25 z M 43.491432,513 c 0.481799,-1.64244 0.396067,-2.15698 -0.249929,-1.5 -0.540808,0.55 -1.272567,2.35 -1.626133,4 -0.737576,3.44208 0.691703,1.53746 1.876062,-2.5 z m -30.824337,-1.06709 c 0.586902,-0.58691 3.714402,-1.91271 6.95,-2.94623 3.235598,-1.03352 4.880864,-1.90333 3.656148,-1.9329 -2.620733,-0.0633 -13.269826,4.10606 -13.27185,5.19622 -0.00202,1.08909 1.429844,0.91876 2.665702,-0.31709 z m 254.785355,0.14403 c 0.31377,-0.50769 1.86866,-1.20819 3.45533,-1.55668 1.58666,-0.34849 3.719,-1.57359 4.73853,-2.72245 1.82617,-2.05781 1.82126,-2.07182 -0.33057,-0.94332 C 274.1144,507.48452 271.3019,508 269.06574,508 265.39562,508 265,508.24326 265,510.5 c 0,2.4793 1.35592,3.35116 2.45245,1.57694 z m 15.16189,-5.63958 C 281.94075,504.68201 282.86943,502 284.15083,502 c 0.51526,0 0.80462,0.64549 0.64301,1.43442 -0.16161,0.78894 0.15616,1.41894 0.70616,1.4 0.55,-0.0189 0.8317,-0.55192 0.62599,-1.18442 -0.20571,-0.6325 -0.79326,-2.93893 -1.30568,-5.1254 C 283.44571,492.65927 280,490.83216 280,495.96862 c 0,2.13515 -0.39347,2.81762 -1.40146,2.43082 -0.7708,-0.29578 -1.61696,-1.36189 -1.88036,-2.36913 -0.37708,-1.44196 -1.66884,-1.90564 -6.07551,-2.18082 -5.46004,-0.34096 -5.61198,-0.27934 -6.22653,2.52543 -0.88524,4.04016 0.82734,4.82274 9.32301,4.26025 3.98153,-0.26361 7.49559,-0.0644 7.80902,0.44277 0.62965,1.01879 -3.29362,1.38283 -11.29817,1.04836 -5.01635,-0.20961 -5.25,-0.10604 -5.25,2.32716 0,3.04912 1.61582,3.23752 8.28309,0.96575 2.55165,-0.86944 5.41619,-1.43119 6.36563,-1.24834 1.43557,0.27646 1.15246,0.98598 -1.68119,4.21333 l -3.40746,3.88088 4.30292,-2.19518 c 2.87315,-1.46578 4.11964,-2.67278 3.75135,-3.63254 z m -268.131863,1.57157 c 2.147949,-1.09508 5.280598,-2.25436 6.961442,-2.57617 3.028642,-0.57985 10.096212,-5.41824 7.928526,-5.42779 -0.620156,-0.003 -1.685075,0.6668 -2.366489,1.48785 -0.681413,0.82106 -3.099013,1.9901 -5.372444,2.59788 C 17.062484,505.31273 9,508.7808 9,509.52499 c 0,0.90639 1.597403,0.46467 5.482477,-1.51606 z m 32.010444,1.00252 c 0.350339,-0.56686 -0.05106,-0.7345 -0.940983,-0.39301 C 43.819521,509.28323 43.502551,510 44.940983,510 c 0.517541,0 1.215913,-0.44485 1.551938,-0.98855 z M 17.5,504 c 1.31874,-0.56668 1.489055,-0.87815 0.5,-0.9144 -0.825,-0.0302 -2.175,0.38124 -3,0.9144 -1.827966,1.18132 -0.249085,1.18132 2.5,0 z M 17,501.67315 c 4.112754,-1.37854 17,-8.79185 17,-9.77916 0,-1.93695 -3.660813,-1.59104 -7.601327,0.71826 -2.879017,1.68722 -5.234875,2.39832 -6.67417,2.01456 -1.223476,-0.32622 -4.135316,0.1868 -6.470755,1.14003 -3.5433608,1.44627 -4.2468717,2.18837 -4.2499996,4.48316 -0.00426,3.12649 1.9021746,3.46579 7.9962516,1.42315 z m 5.729167,0.72268 c -0.332292,-0.33229 -1.194792,-0.36781 -1.916667,-0.0789 -0.797733,0.31922 -0.560776,0.55618 0.604167,0.60416 1.054166,0.0434 1.644791,-0.19293 1.3125,-0.52522 z m 29.044467,-0.23477 C 52.745366,501.54435 52.561985,500.91358 51.000006,499.5 49.430535,498.07965 48.6782,497.9218 47.776371,498.82363 46.1069,500.4931 43,500.28259 43,498.5 c 0,-0.825 -0.675,-1.5 -1.5,-1.5 -2.678902,0 -1.588497,1.9055 2.25,3.93191 4.099419,2.16416 6.073792,2.46662 8.023634,1.22915 z m -22.856967,-3.79651 c 1.372324,-1.20066 -1.882539,-0.0856 -3.475537,1.19062 -1.830306,1.46637 -1.798398,1.48719 0.55887,0.36454 1.375,-0.65484 2.6875,-1.35466 2.916667,-1.55516 z m 7.156134,0.75324 c 1.072951,1.73608 2.349809,0.4259 1.568703,-1.60963 -0.549899,-1.43302 -0.883033,-1.43462 -3.623539,-0.0174 C 32.358084,498.34907 31,499.28064 31,499.56086 c 0,0.28023 0.957228,-0.003 2.127174,-0.62892 1.651617,-0.88392 2.310149,-0.84237 2.945627,0.18585 z M 48,497.19617 C 48,496.75406 46.425,494.86578 44.5,493 42.575,491.13422 41,488.98642 41,488.22711 c 0,-0.76993 1.055139,-0.13029 2.385551,1.44616 2.11796,2.50965 8.614449,5.99519 8.614449,4.62188 0,-0.82275 -6.102259,-7.5818 -8.674886,-9.60857 -2.210339,-1.74135 -2.421504,-1.74271 -5.313465,-0.0344 -3.582356,2.11615 -3.722719,3.46121 -0.846789,8.11456 1.893183,3.06323 2.312547,3.30084 3.341706,1.89338 1.053031,-1.4401 1.403224,-1.34907 3.328527,0.86522 C 45.948937,497.95649 48,498.7793 48,497.19617 Z m 10.599455,-6.67284 c 0.172554,-1.17568 -0.190084,-1.2776 -1.689878,-0.47494 -2.392416,1.28038 -2.499791,2.11003 -0.159577,1.23299 1.577439,-0.59117 1.606846,-0.46482 0.298228,1.28139 -1.117412,1.49106 -1.131259,1.65167 -0.06012,0.69735 0.765407,-0.68193 1.490514,-1.91349 1.61135,-2.73679 z M 275.2269,488.90737 c 0.49962,-3.40413 0.3751,-3.48799 -6.36686,-4.28821 -4.40513,-0.52286 -4.66563,-0.41649 -5.14701,2.10167 -0.85064,4.44987 0.0574,5.27917 5.78046,5.27917 5.13675,0 5.29178,-0.0836 5.73341,-3.09263 z M 281,487.44098 C 281,485.54844 280.60625,484 280.125,484 c -1.06596,0 -2.33952,5.84389 -1.55144,7.11902 C 279.66141,492.8792 281,490.85014 281,487.44098 Z M 51.406913,488.75 c -0.391117,-0.6875 -1.264449,-1.925 -1.940737,-2.75 -0.676288,-0.825 -1.538166,-2.5125 -1.915283,-3.75 -1.11594,-3.66192 1.255251,-2.62006 3.191237,1.40218 0.966829,2.0087 2.750994,4.01203 3.964812,4.45185 2.036945,0.73807 2.132214,0.60312 1.236813,-1.75196 -0.53357,-1.4034 -1.639194,-3.50686 -2.456941,-4.67436 C 52.669066,480.51021 52,478.75512 52,477.77749 c 0,-2.36014 -1.452988,-2.24179 -5.040493,0.41057 -3.776112,2.7918 -3.723806,4.31241 0.290493,8.44493 3.240062,3.33548 5.50684,4.48989 4.156913,2.11701 z M 63.8,488.8 c 1.887588,-1.88759 1.402606,-2.9788 -0.8,-1.8 -1.1,0.5887 -2,1.50453 -2,2.03518 0,1.32439 1.354172,1.21065 2.8,-0.23518 z m 8.790697,-2.54264 C 71.8972,485.56387 70,486.97291 70,488.18146 c 0,0.6631 0.573782,0.58723 1.524166,-0.20152 0.838291,-0.69572 1.31823,-1.47088 1.066531,-1.72258 z M 64,484.42963 c 0,-0.275 -0.9,-0.0183 -2,0.57037 -1.1,0.5887 -2,1.29537 -2,1.57037 0,0.275 0.9,0.0183 2,-0.57037 1.1,-0.5887 2,-1.29537 2,-1.57037 z m -2.022739,-3.47212 c -0.541032,-1.01093 -1.359241,-3.55243 -1.818242,-5.64778 -0.520765,-2.3773 -1.335184,-3.69452 -2.166056,-3.50331 -1.092459,0.25142 -1.099602,0.027 -0.03979,-1.25 1.790364,-2.15725 0.401823,-1.94539 -2.965726,0.45252 -2.638262,1.87861 -2.754446,2.25164 -1.790884,5.75 0.566726,2.05758 1.905273,4.97194 2.974549,6.47636 1.856341,2.61177 2.053552,2.6636 4.366991,1.14778 1.924116,-1.26073 2.220363,-1.96588 1.439159,-3.42557 z m 8.118462,3.42715 c 1.159853,-1.39754 1.08641,-1.56608 -0.544689,-1.25 -1.036916,0.20094 -2.072591,0.92784 -2.301501,1.61534 -0.593964,1.78389 1.25999,1.54592 2.84619,-0.36534 z m 8.533051,-1.08922 C 77.804513,482.47118 75,483.79149 75,485.0038 c 0,0.73956 0.639458,0.72434 2.085646,-0.0496 1.147106,-0.61391 1.841513,-1.36033 1.543128,-1.65872 z M 262,485 c 0,-0.55 -0.47656,-1 -1.05902,-1 -0.58246,0 -0.7809,0.45 -0.44098,1 0.33992,0.55 0.81648,1 1.05902,1 C 261.80156,486 262,485.55 262,485 Z M 86.823671,479.49034 c -0.310871,-0.31087 -1.744854,-0.0277 -3.186629,0.62917 -2.092171,0.95326 -2.387241,1.47656 -1.46153,2.59197 0.977261,1.17753 1.478988,1.07846 3.186629,-0.62918 1.114711,-1.11471 1.7724,-2.28109 1.46153,-2.59196 z M 67.5,482 c 0.339919,-0.55 0.168034,-1 -0.381966,-1 -0.55,0 -1.278115,0.45 -1.618034,1 -0.339919,0.55 -0.168034,1 0.381966,1 0.55,0 1.278115,-0.45 1.618034,-1 z m 8.809841,-0.4358 c 1.201474,-0.91094 1.438857,-1.60148 0.706195,-2.05429 -0.607005,-0.37515 -1.79323,-0.10979 -2.636056,0.5897 -1.250199,1.03757 -1.697711,1.00738 -2.429994,-0.16391 -0.625315,-1.0002 -0.275285,-1.90979 1.153936,-2.99863 l 2.051519,-1.56292 -2.82772,-6.16548 C 70.772474,465.81766 68.910942,463.03348 68.190983,463.0216 67.471024,463.00972 67.160081,462.55 67.5,462 c 1.082001,-1.75071 -0.122565,-1.07691 -2.095012,1.17189 -1.047744,1.19455 -1.369143,1.85946 -0.714222,1.4776 0.854632,-0.49832 1.05658,0.22944 0.715409,2.5781 -0.261446,1.79983 0.102709,4.22389 0.809234,5.38681 0.706525,1.16292 2.306237,3.97542 3.554915,6.25 2.412478,4.39455 3.637309,4.90021 6.539517,2.6998 z m 201.050589,0.79988 c 8.06512,-1.10545 5.04089,-2.05555 -6.3451,-1.99339 -13.16248,0.0719 -13.39408,1.48428 -0.4049,2.46927 1.16073,0.088 4.19823,-0.12613 6.75,-0.47588 z M 66.731476,479.86852 c 0.841967,-0.84196 0.637742,-2.05267 -0.798168,-4.73177 -1.061304,-1.98016 -2.205549,-5.071 -2.542767,-6.86852 -0.693177,-3.69496 -3.396512,-4.50941 -3.379717,-1.01823 0.01093,2.27113 2.408252,11.00103 3.510979,12.78528 0.786629,1.27279 1.824023,1.21889 3.209673,-0.16676 z m 32.436079,-6.10096 c -0.572799,-0.5728 -2.606508,-0.0837 -5.298577,1.27434 -5.287355,2.66722 -5.207812,2.60084 -4.496288,3.75211 0.315128,0.50989 2.857048,-0.20332 5.648712,-1.58489 3.127568,-1.54782 4.718952,-2.86877 4.146153,-3.44156 z m -15.749342,4.62545 C 85.18468,477.71515 85.59763,475 83.934259,475 c -0.586158,0 -2.048658,0.51548 -3.25,1.14551 -2.115361,1.10938 -2.129059,1.08324 -0.434259,-0.82874 2.200589,-2.48258 2.23202,-3.43897 0.08595,-2.61545 -1.118886,0.42936 -1.427162,0.25527 -0.940983,-0.53138 C 79.800788,471.51331 79.565636,471 78.859017,471 c -0.845334,0 -0.928079,-0.33094 -0.25183,-1.00719 C 79.952956,468.64704 75.02871,458.05618 73,457.93311 c -1.028659,-0.0624 -1.107216,-0.2495 -0.25,-0.59539 0.6875,-0.27741 1.25,-0.97199 1.25,-1.5435 0,-0.63741 -0.567505,-0.56812 -1.468029,0.17925 -0.807417,0.67009 -1.410975,1.51269 -1.341242,1.87244 0.06973,0.35975 -0.201056,1.39796 -0.601755,2.30714 -0.723475,1.64155 1.022952,5.79826 6.132853,14.59695 2.437505,4.19712 3.601789,4.83052 6.696386,3.64301 z M 275,477 c 0,-1.2339 -0.67034,-2.00422 -1.75,-2.01101 -0.9625,-0.006 -3.4375,-0.28993 -5.5,-0.63084 -3.54014,-0.58515 -3.75,-0.4726 -3.75,2.01101 0,2.52223 0.22706,2.63084 5.5,2.63084 4.83333,0 5.5,-0.24242 5.5,-2 z m -15,-1.5 c 0,-1.87565 -0.5262,-2.5 -2.10699,-2.5 -1.51045,0 -1.93514,0.44784 -1.5,1.58179 0.33385,0.86998 0.60699,1.99498 0.60699,2.5 0,0.50501 0.675,0.91821 1.5,0.91821 0.93333,0 1.5,-0.94444 1.5,-2.5 z m 2.68311,0.3125 c -0.31922,-0.79773 -0.55618,-0.56078 -0.60416,0.60417 -0.0434,1.05416 0.19293,1.64479 0.52522,1.3125 0.33229,-0.33229 0.36781,-1.1948 0.0789,-1.91667 z m 14,0 c -0.31922,-0.79773 -0.55618,-0.56078 -0.60416,0.60417 -0.0434,1.05416 0.19293,1.64479 0.52522,1.3125 0.33229,-0.33229 0.36781,-1.1948 0.0789,-1.91667 z m 2,0 c -0.31922,-0.79773 -0.55618,-0.56078 -0.60416,0.60417 -0.0434,1.05416 0.19293,1.64479 0.52522,1.3125 0.33229,-0.33229 0.36781,-1.1948 0.0789,-1.91667 z M 283,476 c 0,-1.11111 -0.66667,-2 -1.5,-2 -0.83333,0 -1.5,0.88889 -1.5,2 0,1.11111 0.66667,2 1.5,2 0.83333,0 1.5,-0.88889 1.5,-2 z M 93.624397,473.70481 97.748794,471.5 93.124397,464.26922 c -3.506711,-5.48314 -5.17597,-7.23542 -6.906516,-7.25 C 83.575354,456.99696 77,459.55915 77,460.61112 c 0,1.36829 5.28478,9.91008 7.819633,12.63888 3.043189,3.27603 3.484649,3.29883 8.804764,0.45481 z M 88,473.36024 c 0,-1.18891 3.48646,-3.29644 5.5,-3.3247 1.558345,-0.0219 1.276974,0.41277 -1.27417,1.9682 C 88.725824,474.13769 88,474.37068 88,473.36024 Z m -0.77381,-2.9339 c 0.949405,-0.99401 2.000446,-1.53304 2.335647,-1.19784 0.335201,0.3352 -0.441585,1.14849 -1.726191,1.80729 -2.232856,1.14512 -2.259678,1.1183 -0.609456,-0.60945 z M 85.5,468 c 0.339919,-0.55 1.068034,-1 1.618034,-1 0.55,0 0.721885,0.45 0.381966,1 -0.339919,0.55 -1.068034,1 -1.618034,1 -0.55,0 -0.721885,-0.45 -0.381966,-1 z m 20,4 c 1.13361,-1.25262 1.3538,-2 0.58925,-2 -2.10107,0 -5.17294,2.05556 -4.55824,3.05017 0.89016,1.44031 1.97488,1.1533 3.96899,-1.05017 z m 167.375,0.375 c 2.44737,-0.48947 3.125,-1.14 3.125,-3 0,-2.25233 -0.33019,-2.375 -6.39301,-2.375 -4.9071,0 -6.53409,0.36765 -7,1.58179 -1.22676,3.19688 -1.04171,3.32814 6.01801,4.26838 0.61875,0.0824 2.53125,-0.13142 4.25,-0.47517 z m 8.05471,-2.625 c 0.13486,2.3984 2.07029,1.22982 2.07029,-1.25 0,-2.82107 -1.16674,-3.1904 -3.30952,-1.04762 -0.79881,0.79881 -1.73096,1.17381 -2.07143,0.83333 C 277.27857,467.94524 277,468.37917 277,469.25 c 0,2.18046 2.34638,2.80576 3.17971,0.84737 0.38934,-0.91495 0.70975,-1.06335 0.75,-0.34737 z M 104.1808,469.28801 c 1.98711,-0.57348 1.66227,-1.67114 -2.74868,-9.28801 -1.751786,-3.025 -3.928224,-8.0875 -4.836528,-11.25 -1.526257,-5.31407 -1.873352,-5.75 -4.578214,-5.75 -2.523999,0 -3.012621,0.45772 -3.550754,3.32622 -1.183906,6.31076 8.731618,25.63813 12.379616,24.13038 0.90957,-0.37593 2.41012,-0.90179 3.33456,-1.16859 z M 257,469 c 0,-1.1 -0.45,-2 -1,-2 -0.55,0 -1,0.9 -1,2 0,1.1 0.45,2 1,2 0.55,0 1,-0.9 1,-2 z m -128.81667,-1.21667 c -0.71756,-0.71756 -1.18333,-0.7766 -1.18333,-0.15 0,1.33478 1.18261,2.51739 1.85,1.85 0.28417,-0.28416 -0.0158,-1.04916 -0.66667,-1.7 z m 3.74638,-0.0333 c -0.0386,-0.6875 -0.45702,-2.15 -0.92971,-3.25 -0.72021,-1.67602 -0.87082,-1.47353 -0.92971,1.25 -0.0387,1.7875 0.37971,3.25 0.92971,3.25 0.55,0 0.96837,-0.5625 0.92971,-1.25 z M 122,465.34504 l 2.5,-1.41811 -2.5,0.67939 c -1.375,0.37366 -4.075,1.28883 -6,2.03371 l -3.5,1.35434 3.5,-0.61561 c 1.925,-0.33859 4.625,-1.25376 6,-2.03372 z M 109.98438,463.75 c -0.009,-0.6875 -0.62452,-3.8375 -1.36872,-7 -0.7442,-3.1625 -0.96865,-5.75 -0.49878,-5.75 0.46988,0 1.36422,2.025 1.98744,4.5 0.62321,2.475 1.19219,4.49513 1.26439,4.48918 0.0722,-0.006 2.32111,-0.67518 4.99756,-1.48716 2.67644,-0.81199 5.26394,-1.23056 5.75,-0.93016 1.06738,0.65967 1.07245,1.15098 -0.0594,-5.75924 -0.56188,-3.43025 -1.75018,-6.50597 -2.99421,-7.75 C 117.92818,442.92818 117,441.05122 117,439.89159 c 0,-1.67464 -0.4629,-2.00092 -2.25,-1.58593 -1.2375,0.28736 -4.8375,1.08275 -8,1.76753 -5.09787,1.10386 -5.75,1.52312 -5.75,3.69672 v 2.45166 l -1.91392,-2.36079 c -1.052657,-1.29843 -2.149824,-2.12611 -2.438151,-1.8393 -0.652087,0.64868 1.934595,9.36067 4.077911,13.7345 1.89739,3.87196 2.77646,3.69536 1.27416,-0.25598 -2.074604,-5.45662 -0.17955,-3.48085 2.83012,2.95067 2.79592,5.97474 5.1935,8.43981 5.15426,5.29933 z m 166.93667,-2.5 c -0.0434,-2.0625 -0.32289,-3.13658 -0.62105,-2.38685 -0.32385,0.81436 -0.79531,0.96324 -1.17105,0.36981 -0.34592,-0.54634 -3.89145,-1.31793 -7.87895,-1.71464 -7.91835,-0.7878 -8.323,-0.47073 -6.27475,4.91658 0.92761,2.4398 1.34281,2.5651 8.5,2.5651 H 277 Z M 272,460 c 0,-0.55 0.47656,-1 1.05902,-1 0.58246,0 0.7809,0.45 0.44098,1 -0.33992,0.55 -0.81648,1 -1.05902,1 C 272.19844,461 272,460.55 272,460 Z m -130.93608,-0.25 c 2.7143,-2.3375 4.93532,-4.56644 4.93559,-4.95321 2.7e-4,-0.38676 -1.91201,-1.56756 -4.24951,-2.62399 -4.32357,-1.95404 -11.59095,-8.66518 -10.53108,-9.72505 0.32022,-0.32022 2.862,0.57304 5.6484,1.98502 3.29595,1.67018 6.70338,2.56723 9.75161,2.56723 4.3298,0 5.09131,-0.40589 10.03324,-5.34783 3.47347,-3.47346 5.35211,-6.18976 5.36004,-7.75 0.0217,-4.27378 6.45862,-17.11964 14.48252,-28.90217 4.30733,-6.325 7.8331,-12.04314 7.83505,-12.70697 0.002,-0.66383 0.63208,-1.44815 1.40027,-1.74293 0.76819,-0.29479 1.11663,-0.98915 0.77432,-1.54304 -0.34232,-0.55388 -0.0333,-1.02508 0.68661,-1.0471 0.71996,-0.022 0.0642,-0.71525 -1.45736,-1.54052 -1.98278,-1.07545 -3.25745,-1.21436 -4.5,-0.49037 -0.95349,0.55556 -1.34437,1.0238 -0.86861,1.04052 0.47576,0.0167 0.11111,1.181 -0.81032,2.58728 l -1.67532,2.55687 3.15324,-1.63061 c 1.73429,-0.89683 3.34102,-1.44283 3.57052,-1.21334 0.22949,0.2295 -1.40379,1.23845 -3.62952,2.24211 -2.50069,1.12765 -3.60027,2.1008 -2.87807,2.54715 0.77973,0.48189 0.50826,0.93193 -0.81563,1.35211 -1.09139,0.34639 -3.23547,2.92852 -4.76461,5.73807 -3.5493,6.52122 -10.18832,16.53065 -11.50356,17.34351 -0.55646,0.34391 -1.01174,1.09535 -1.01174,1.66987 0,0.57452 1.62226,-0.37979 3.60501,-2.12067 1.98276,-1.74088 3.79548,-2.97479 4.02826,-2.74201 0.90685,0.90686 -4.89056,10.82255 -7.22002,12.34887 -1.67397,1.09683 -2.27885,2.19931 -1.8859,3.43738 0.59012,1.8593 -1.95249,6.76927 -4.25334,8.21351 C 153.5733,439.73952 153,440.70387 153,441.4427 c 0,1.26016 -2.05449,2.5573 -4.0504,2.5573 -1.08621,0 -0.0153,-3.04053 1.67302,-4.75 0.67899,-0.6875 1.70511,-1.25 2.28027,-1.25 0.57516,0 1.77764,-1.41532 2.67217,-3.14515 l 1.62642,-3.14515 -3.10074,0.62015 c -3.83286,0.76657 -3.95659,0.16529 -0.35074,-1.70443 3.22961,-1.67463 10.25,-8.29907 10.25,-9.67189 0,-0.52261 -2.26908,0.67997 -5.0424,2.6724 -2.77332,1.99243 -5.23322,3.43179 -5.46644,3.19857 -0.23321,-0.23322 1.14863,-2.20164 3.07077,-4.37427 8.7726,-9.91581 23.33461,-34.67766 22.17077,-37.70008 -0.44349,-1.1517 -6.08117,-2.77591 -14.7327,-4.24447 -2.44639,-0.41526 -4.63817,-0.006 -7.28089,1.35805 -3.44158,1.77697 -4.04681,1.8195 -6.74414,0.4739 -4.59438,-2.29198 -6.93551,-1.39541 -9.56316,3.66237 -2.36436,4.55101 -7.63717,21.41736 -11.56706,37 -1.17901,4.675 -2.29053,8.67663 -2.47004,8.8925 -0.17951,0.21588 -1.00693,-0.1723 -1.83871,-0.86262 -1.23713,-1.02673 -1.60547,-0.96168 -2.02417,0.3575 -0.28151,0.88694 -0.73365,2.31614 -1.00477,3.176 -0.27111,0.85986 -0.94611,1.2833 -1.5,0.94099 -0.55388,-0.34232 -1.43018,-0.3609 -1.94733,-0.0413 -1.70787,1.05552 1.01011,6.41686 4.27872,8.43997 3.68456,2.28056 9.48241,8.09694 8.07115,8.09694 -0.53052,0 -1.99382,-0.7209 -3.25176,-1.602 -2.9273,-2.05036 -3.44633,-1.45269 -2.60997,3.00546 0.43712,2.33004 1.78809,4.49463 3.81448,6.11173 1.72571,1.37715 3.58765,2.92711 4.13765,3.44436 1.83805,1.7286 3.59384,1.07058 8.56392,-3.20955 z m -6.71546,0.47452 c -0.28431,-1.0872 -1.60402,-2.55851 -2.93269,-3.2696 -3.0458,-1.63006 -3.16404,-3.32632 -0.16577,-2.37818 3.39816,1.07461 7.1759,3.78129 5.88032,4.21315 -0.62853,0.20951 -0.90764,0.7614 -0.62024,1.22642 0.2874,0.46502 0.0349,1.14686 -0.56108,1.51521 -0.60066,0.37123 -1.314,-0.21129 -1.60054,-1.307 z M 132,441.27914 c -1.375,-0.24667 -2.95,-0.92662 -3.5,-1.51099 -0.69335,-0.73669 -0.43828,-0.86405 0.83179,-0.41533 1.00748,0.35595 4.60748,0.69204 8,0.74686 4.60295,0.0744 5.5338,0.30285 3.66821,0.90032 -2.75557,0.88249 -5.21212,0.95868 -9,0.27914 z m -10,-4.30058 c 0,-1.86342 4.34564,-3.16161 7.01653,-2.09609 2.43248,0.97042 2.41796,0.99206 -0.70751,1.05414 -1.75504,0.0349 -3.4691,0.51339 -3.80902,1.06339 -0.80602,1.30417 -2.5,1.28964 -2.5,-0.0214 z M 183,387 c -0.90129,-0.58246 -1.02463,-0.97549 -0.30902,-0.98469 0.65504,-0.008 1.4691,0.43469 1.80902,0.98469 0.7673,1.24153 0.42112,1.24153 -1.5,0 z m 75,75.08179 c 0,-1.05502 0.27314,-2.63002 0.60699,-3.5 C 258.94083,457.7118 258.74434,457 258.17035,457 c -0.574,0 -1.22513,1.4625 -1.44695,3.25 -0.3971,3.19982 -0.4058,3.1921 -0.56336,-0.5 C 255.94494,454.70991 254,454.93501 254,460 c 0,3.33333 0.33333,4 2,4 1.30491,0 2,-0.66667 2,-1.91821 z m 25,0.5 C 283,460.41332 281.8902,458 280.89301,458 280.40186,458 280,459.35 280,461 c 0,2 0.5,3 1.5,3 0.825,0 1.5,-0.6382 1.5,-1.41821 z M 115,461 c 0.825,-0.53316 1.05,-0.96937 0.5,-0.96937 -0.55,0 -1.675,0.43621 -2.5,0.96937 -0.825,0.53316 -1.05,0.96937 -0.5,0.96937 0.55,0 1.675,-0.43621 2.5,-0.96937 z m -30.73776,-4.75673 c 1.519232,-0.26062 3.015985,-0.88443 3.326119,-1.38624 0.682099,-1.10366 -5.088479,-0.19493 -7.726089,1.21668 -2.358742,1.26236 -2.449825,2.39155 -0.11227,1.39185 0.9625,-0.41163 2.993008,-0.96166 4.51224,-1.22229 z m 193.22797,-0.44495 c 0.13944,-0.16407 0.56376,-2.43582 0.94293,-5.04832 0.45224,-3.1159 0.3243,-4.75 -0.37187,-4.75 -0.5837,0 -1.12886,1.9125 -1.21146,4.25 l -0.1502,4.25 L 276,450 c -0.38479,-2.475 -0.7672,-3.7875 -0.84981,-2.91667 -0.18125,1.91079 -3.15019,2.14641 -3.15019,0.25 0,-0.87969 -1.44599,-1.38163 -4.25,-1.4753 -3.19317,-0.10668 -2.54901,-0.31489 2.59045,-0.83734 7.69506,-0.78223 8.65499,-1.62424 8.57395,-7.52069 -0.0432,-3.14267 -0.23917,-3.57133 -0.9144,-2 -0.7487,1.74232 -0.88343,1.61348 -1.04572,-1 -0.10988,-1.76956 -0.37385,-2.28224 -0.64361,-1.25 -0.54199,2.07402 -2.31067,2.35465 -2.31067,0.36663 0,-0.76085 -0.89825,-1.61827 -1.99612,-1.90536 -3.14195,-0.82164 -10.12305,0.4357 -10.69502,1.92624 -0.28514,0.74305 -0.99775,1.05477 -1.58358,0.6927 -0.64534,-0.39884 -0.83758,-0.0652 -0.48774,0.84643 0.31758,0.8276 0.17594,2.13892 -0.31475,2.91404 -0.75456,1.19195 -0.9128,1.17796 -1.02596,-0.0907 -0.0736,-0.825 -0.0608,-2.0625 0.0285,-2.75 0.29778,-2.29317 -1.96109,-1.28621 -2.9501,1.3151 -1.37953,3.62845 -1.15375,5.25403 0.43829,3.15551 1.19662,-1.57731 1.41884,-1.5998 1.95674,-0.19806 0.38874,1.01304 0.20494,1.33295 -0.51147,0.89019 -0.67191,-0.41526 -0.93672,-0.13662 -0.66343,0.69806 0.25016,0.76406 1.99604,1.9263 3.87973,2.58276 1.88369,0.65645 2.68987,1.21895 1.79152,1.25 -0.89835,0.031 -1.90471,1.06894 -2.23634,2.30644 -0.91403,3.41066 -0.74957,4.94175 0.45109,4.19971 0.68652,-0.4243 0.96038,0.19314 0.75,1.69098 -0.2826,2.012 0.18385,2.44136 3.16862,2.91671 3.3735,0.53725 12.97009,0.35295 13.49021,-0.25908 z M 83,452.78076 c 0,-1.34244 -1.684405,-0.85916 -4.139216,1.1876 L 76.5,455.93673 l 3.25,-1.1876 C 81.5375,454.09595 83,453.21018 83,452.78076 Z M 282.01365,452.75 c 0.008,-1.7875 0.285,-4.2625 0.61664,-5.5 0.44329,-1.65413 0.17484,-2.25 -1.01366,-2.25 -0.88915,0 -1.62158,0.7875 -1.62764,1.75 -0.006,0.9625 -0.28993,3.4375 -0.63084,5.5 -0.50475,3.05376 -0.31705,3.75 1.01101,3.75 1.17045,0 1.63469,-0.91747 1.64449,-3.25 z M 258.33189,448 c 0.4054,-2.23859 0.31253,-2.9594 -0.25769,-2 -0.49034,0.825 -1.16584,3.3 -1.50111,5.5 -0.74025,4.85749 0.80058,1.79124 1.7588,-3.5 z m -3.64878,3.8125 c -0.31922,-0.79773 -0.55618,-0.56078 -0.60416,0.60417 -0.0434,1.05416 0.19292,1.64479 0.52522,1.3125 0.33229,-0.33229 0.36781,-1.1948 0.0789,-1.91667 z M 87,452.03138 c 0,-0.53273 -0.675,-0.70959 -1.5,-0.39301 -0.825,0.31659 -1.5,0.75246 -1.5,0.96862 0,0.21615 0.675,0.39301 1.5,0.39301 0.825,0 1.5,-0.43588 1.5,-0.96862 z m -1,-3.72041 c 0,-1.8519 -3.722051,-0.84858 -6.405315,1.72663 -1.85316,1.77853 -1.79157,1.79971 2.25,0.77385 C 84.315972,450.18418 86,449.1708 86,448.31097 Z M 284,437.5 c 0,-2.475 -0.45,-4.5 -1,-4.5 -0.55,0 -1,2.025 -1,4.5 0,2.475 0.45,4.5 1,4.5 0.55,0 1,-2.025 1,-4.5 z m 2.68428,-8.58921 c 2.37364,-1.14906 4.31572,-2.49906 4.31572,-3 0,-1.29909 -0.54395,-1.15937 -4.22583,1.08547 -1.80079,1.09795 -4.39917,2.00484 -5.77417,2.01531 -1.98177,0.0151 -2.18906,0.22 -1,0.98843 1.96961,1.27286 1.72131,1.31332 6.68428,-1.08921 z m -0.28776,-5.96804 c 2.55791,-1.13149 4.37505,-2.50334 4.03809,-3.04856 -0.39396,-0.63743 -1.10072,-0.58626 -1.97983,0.14334 -0.75194,0.62406 -1.72438,0.95438 -2.16098,0.73405 -0.43659,-0.22033 -1.79022,0.64093 -3.00807,1.91391 -2.69333,2.81526 -2.67536,2.81675 3.11079,0.25726 z M 290,410.92388 c 0,-0.93162 -1.10917,-2.42061 -2.46482,-3.30887 -3.24326,-2.12507 -4.58112,-2.01365 -2.02042,0.16826 1.26703,1.0796 2.00929,2.92971 2,4.98508 -0.0129,2.85834 0.14205,3.0539 1.23524,1.55887 0.6875,-0.94021 1.25,-2.47172 1.25,-3.40334 z m -64,-5.98962 c 0,-0.58616 -0.46041,-1.92603 -1.02314,-2.9775 -0.86184,-1.61036 -0.74361,-1.80605 0.75,-1.24131 0.97523,0.36875 3.2174,1.51731 4.98261,2.55236 1.76521,1.03505 4.24021,1.73573 5.5,1.55705 1.80839,-0.25648 0.13296,-1.67439 -7.95947,-6.7361 -5.6375,-3.52619 -10.25,-6.98304 -10.25,-7.68191 0,-0.69886 -1.35296,-2.23405 -3.00657,-3.41153 -2.73605,-1.94824 -3.69607,-2.06684 -10.66974,-1.31809 -4.21474,0.45252 -7.81805,1.29157 -8.00735,1.86455 -0.18931,0.57298 4.04957,3.40235 9.41973,6.28749 5.37016,2.88514 11.78893,6.77372 14.26393,8.64128 4.84334,3.65465 6,4.12959 6,2.46371 z M 152.5,380 c 0.33992,-0.55 -0.33508,-1 -1.5,-1 -1.16492,0 -1.83992,0.45 -1.5,1 0.33992,0.55 1.01492,1 1.5,1 0.48508,0 1.16008,-0.45 1.5,-1 z m -7.09857,-43.60373 c 0.72912,-1.90005 -0.42302,-1.71951 -3.34148,0.52363 l -2.44006,1.87542 2.62287,-0.5014 c 1.44258,-0.27576 2.86398,-1.12971 3.15867,-1.89765 z M 218.5,337 c 1.26064,-0.54172 1.44548,-0.85943 0.5,-0.85943 -0.825,0 -2.4,0.38674 -3.5,0.85943 -1.26064,0.54172 -1.44548,0.85943 -0.5,0.85943 0.825,0 2.4,-0.38674 3.5,-0.85943 z m 2.5,-6.11803 c 0,-0.55 -0.45,-0.72189 -1,-0.38197 -0.55,0.33992 -1,1.06803 -1,1.61803 0,0.55 0.45,0.72189 1,0.38197 0.55,-0.33992 1,-1.06803 1,-1.61803 z m -31.25014,-2.46544 c -0.95295,-0.95296 -2.86349,0.5906 -2.1533,1.7397 0.42212,0.683 0.98146,0.66575 1.69964,-0.0524 0.58876,-0.58876 0.79291,-1.34803 0.45366,-1.68727 z M 198,330 c 0,-0.55 -0.42344,-1 -0.94098,-1 -0.51754,0 -1.2191,0.45 -1.55902,1 -0.33992,0.55 0.0835,1 0.94098,1 0.85746,0 1.55902,-0.45 1.55902,-1 z m -40,-7.53518 c 0,-1.22531 -0.4037,-1.31913 -2,-0.46482 -1.1,0.5887 -2,1.27953 -2,1.53518 0,0.25565 0.9,0.46482 2,0.46482 1.13148,0 2,-0.66667 2,-1.53518 z m -7.03778,-0.9193 c 1.03583,-1.2481 0.75017,-1.32342 -2.01337,-0.53085 -4.22052,1.21043 -4.89887,1.98533 -1.73796,1.98533 1.39932,0 3.08742,-0.65451 3.75133,-1.45448 z M 162,317.33333 c 0,-6.82403 -0.49381,-6.67695 -1.39897,0.41667 -0.4315,3.38161 -0.30177,5.25 0.36453,5.25 0.59089,0 1.03444,-2.42977 1.03444,-5.66667 z m -3,-1.95577 C 159,314.6199 158.56583,314 158.03518,314 c -1.2497,0 -3.15499,3.54686 -2.34201,4.35984 0.87385,0.87384 3.30683,-1.32036 3.30683,-2.98228 z m 63.43362,-4.27534 c 2.05513,-0.8048 1.78613,-1.14031 -2.93362,-3.65895 -1.1,-0.587 -3.125,-1.79729 -4.5,-2.68952 -2.23346,-1.44928 -2.76654,-1.46348 -5,-0.13312 l -2.5,1.48911 2.75,-0.4162 c 3.90278,-0.59066 3.40678,0.66719 -0.8734,2.21492 -2.61586,0.94591 -3.81403,1.00179 -4.30897,0.20096 -0.48428,-0.78358 -1.25548,-0.68985 -2.6266,0.31923 -2.41199,1.77512 -1.18281,2.35564 6.05897,2.86155 8.92752,0.62368 11.96562,0.58269 13.93362,-0.18798 z M 203,306.03993 c 3.51865,-3.09223 4.07423,-3.96395 2.54761,-3.99729 -1.89189,-0.0413 -8.54761,5.52888 -8.54761,7.15353 0,1.56796 1.55534,0.74979 6,-3.15624 z M 195.56766,305.5 c 4.02908,-3.91277 3.73265,-4.56209 -0.65606,-1.43705 -2.22102,1.5815 -2.75717,1.69819 -2.29738,0.5 0.32987,-0.85962 1.11411,-1.56984 1.74277,-1.57826 0.62865,-0.008 0.46801,-0.45153 -0.35699,-0.98469 -0.825,-0.53316 -6.1125,-0.97627 -11.75,-0.98469 -10.6667,-0.0159 -11.23849,0.24514 -9.64301,4.4029 0.80576,2.09978 1.91485,1.99519 5.28797,-0.49868 1.77555,-1.31271 3.88251,-1.94611 5.70951,-1.71639 l 2.89553,0.36406 -4,1.89449 -4,1.89449 4,0.68001 c 8.0175,1.36298 9.31111,1.11191 13.06766,-2.53619 z M 237,306.5 c 1.86371,-1.375 2.90623,-2.5 2.31672,-2.5 -0.5895,0 -1.64903,0.69548 -2.35449,1.54551 -0.70546,0.85003 -1.81056,1.34293 -2.45578,1.09534 -0.64521,-0.24759 -1.17312,0.18193 -1.17312,0.95449 0,1.7522 -0.32423,1.84905 3.66667,-1.09534 z M 225.5,304 c 1.48419,-1.64001 1.53998,-2 0.30998,-2 -0.825,0 -2.31449,0.9 -3.30998,2 -1.48419,1.64001 -1.53998,2 -0.30998,2 0.825,0 2.31449,-0.9 3.30998,-2 z m -66,-1 c 0.99549,-1.1 1.58498,-2 1.30998,-2 -0.275,0 -1.31449,0.9 -2.30998,2 -0.99549,1.1 -1.58498,2 -1.30998,2 0.275,0 1.31449,-0.9 2.30998,-2 z m 58,-1 c 0.33992,-0.55 -0.0835,-1 -0.94098,-1 -0.85746,0 -1.55902,0.45 -1.55902,1 0,0.55 0.42344,1 0.94098,1 0.51754,0 1.2191,-0.45 1.55902,-1 z m -64.97354,-2.80687 c -0.30789,-0.30789 -1.11479,-6.4e-4 -1.79313,0.68278 -0.98026,0.98762 -0.8654,1.10248 0.5598,0.5598 0.98622,-0.37553 1.54122,-0.93469 1.23333,-1.24258 z M 167.5,297.60508 c 1.1,-0.84781 1.46068,-1.55578 0.80152,-1.57328 -0.65916,-0.0175 -2.45916,1.15588 -4,2.60748 -2.86889,2.70275 -0.7692,2.02383 3.19848,-1.0342 z m 157.8051,0.91191 c 1.95214,-0.81566 3.81356,-2.31548 4.13648,-3.33294 1.17045,-3.68773 1.00952,-11.28722 -0.25557,-12.06909 -0.68956,-0.42617 -1.0069,-1.63888 -0.7052,-2.69491 0.3017,-1.05603 -0.1621,-0.38955 -1.03066,1.48105 -1.18342,2.54873 -1.28315,3.58408 -0.39791,4.13119 1.62933,1.00698 -0.42644,7.07053 -3.72707,10.99311 -2.88138,3.42433 -2.79733,3.48765 1.97993,1.49159 z M 280.5,292.57013 c 2.75,-0.76521 4.325,-1.42285 3.5,-1.46142 -0.825,-0.0386 -3.75,0.55595 -6.5,1.32116 -2.75,0.76521 -4.325,1.42285 -3.5,1.46142 0.825,0.0386 3.75,-0.55595 6.5,-1.32116 z M 158.5,282 c 0.33992,-0.55 0.14148,-1 -0.44098,-1 -0.58246,0 -1.05902,0.45 -1.05902,1 0,0.55 0.19844,1 0.44098,1 0.24254,0 0.7191,-0.45 1.05902,-1 z m 168.82378,-6.28514 c -0.37452,-0.60598 -1.17426,-0.27224 -1.97642,0.82478 -2.02038,2.76303 -1.62179,4.01869 0.62906,1.9817 1.08703,-0.98375 1.69334,-2.24666 1.34736,-2.80648 z M 330,275.94098 c 0,-1.13246 -0.43035,-1.79305 -0.95633,-1.46797 -0.52598,0.32507 -0.70283,1.25163 -0.39301,2.05902 0.79323,2.06711 1.34934,1.82352 1.34934,-0.59105 z m -52.28931,-2.36405 c 6.99562,-3.51086 14.16851,-8.6464 15.589,-11.16119 0.43983,-0.77865 0.42551,-2.08436 -0.0318,-2.90157 -0.66476,-1.18785 -1.92815,-0.4698 -6.29969,3.58041 -3.0075,2.78643 -8.05568,6.84682 -11.21818,9.02309 -5.18054,3.56498 -6.61194,4.88233 -5.30501,4.88233 0.24475,0 3.51431,-1.54038 7.2657,-3.42307 z m 54.77546,-10.82636 c 1.01658,-4.26218 1.57801,-8.01974 1.24762,-8.35013 -1.12012,-1.12013 -2.73377,0.70585 -2.73377,3.09348 0,1.30673 -0.51162,3.64268 -1.13692,5.19098 -0.62531,1.54831 -1.4591,4.76139 -1.85286,7.14018 -0.67615,4.08469 -0.62302,4.22364 0.95583,2.5 0.91947,-1.00379 2.50351,-5.31232 3.5201,-9.57451 z m -10.10459,-18.30251 c 0.34149,-0.88992 0.17385,-1.29132 -0.39301,-0.94098 -0.5437,0.33602 -0.98855,1.0344 -0.98855,1.55194 0,1.43843 0.71677,1.12146 1.38156,-0.61096 z M 345,231.3 c 0,-2.01099 -0.28907,-2.41093 -1.13278,-1.56722 -0.62303,0.62303 -0.86216,1.83803 -0.53139,2.7 C 344.25126,234.81836 345,234.3087 345,231.3 Z m -2,-6.8 c 0,-0.825 -0.45,-1.5 -1,-1.5 -0.55,0 -1,0.675 -1,1.5 0,0.825 0.45,1.5 1,1.5 0.55,0 1,-0.675 1,-1.5 z m -37.73625,317.78242 c 1.52006,-0.22986 3.77006,-0.22371 5,0.0136 1.22994,0.23736 -0.0138,0.42542 -2.76375,0.41792 -2.75,-0.008 -3.75631,-0.20172 -2.23625,-0.43157 z m -12.85821,-3.7812 c -1.59805,-1.37433 -3.46804,-2.49933 -4.15554,-2.5 -0.6875,-6.7e-4 -1.25,-0.6621 -1.25,-1.46984 0,-0.94163 -0.62795,-1.27116 -1.75,-0.91836 -1.49423,0.46983 -1.4663,0.31909 0.19113,-1.03138 2.57848,-2.10096 3.55887,-1.99435 3.55887,0.38698 0,1.21389 0.5031,1.77555 1.31231,1.46503 0.73207,-0.28092 1.94011,0.66948 2.73219,2.1495 0.78094,1.4592 2.3279,3.02141 3.43769,3.47158 1.46512,0.59431 1.58108,0.83586 0.42335,0.88188 -0.87695,0.0349 -2.90195,-1.06106 -4.5,-2.43539 z M 281,529.5 c 0.68469,-0.825 2.42729,-1.48405 3.87244,-1.46456 L 287.5,528.07087 285,529.5 c -3.49114,1.99571 -5.6563,1.99571 -4,0 z m -1,-3.48315 c 0,-1.12534 9.94751,-6.40268 10.68277,-5.66742 0.76578,0.76579 -3.50807,4.63365 -6.2878,5.6905 C 281.18532,527.26024 280,527.25401 280,526.01685 Z M 239.44556,391.91191 c -0.62106,-1.00489 5.44412,-2.21286 8.67345,-1.72744 1.63706,0.24607 0.73233,0.69852 -2.89566,1.4481 -2.90216,0.59961 -5.50217,0.72531 -5.77779,0.27934 z m -0.63306,-12.59502 c 0.72187,-0.28887 1.58437,-0.25335 1.91667,0.0789 0.33229,0.33229 -0.25834,0.56864 -1.3125,0.52522 -1.16495,-0.048 -1.4019,-0.28494 -0.60417,-0.60416 z m -39.00557,-4.35891 c 2.36882,-1.05838 5.25907,-2.59123 6.42278,-3.40632 2.00511,-1.40444 1.93054,-1.45192 -1.42483,-0.90742 -3.03307,0.4922 -5.12366,-0.3119 -14.58224,-5.6087 -9.11072,-5.10201 -12.23776,-6.33513 -17.8821,-7.05168 l -6.84054,-0.8684 7.68861,0.28814 c 6.63266,0.24857 8.87761,0.85867 16.34603,4.44227 C 194.29623,364.13064 199.23655,366 200.51313,366 203.57131,366 212,362.35724 212,361.03554 c 0,-1.32652 -0.59554,-1.30508 -2.84957,0.10259 -2.34049,1.46166 -9.52451,-0.11391 -9.91287,-2.17404 -0.20165,-1.0697 0.80669,-1.50452 3.74322,-1.61418 2.87634,-0.10742 4.01922,0.2538 4.01922,1.27032 0,1.12385 0.83515,0.99436 4,-0.62023 2.60643,-1.3297 4,-2.72164 4,-3.99532 0,-1.64594 -0.51333,-1.87204 -3.25,-1.43145 -2.99332,0.48191 -2.86713,0.31654 1.5978,-2.09387 2.66629,-1.4394 5.14129,-2.2995 5.5,-1.91132 0.35871,0.38817 0.0897,0.90666 -0.5978,1.1522 -0.6875,0.24553 -1.25,1.12842 -1.25,1.96196 0,1.42173 -2.01891,6.6391 -4.08407,10.55423 -0.50376,0.95504 -0.91593,2.58185 -0.91593,3.61514 0,4.35812 -6.15568,9.3048 -13,10.44676 -3.47939,0.58053 -3.47463,0.57264 0.80693,-1.34035 z M 136.75,367.28375 c -1.5125,-0.22913 -2.75,-0.86022 -2.75,-1.40243 0,-1.45898 10.26078,-0.63019 10.75473,0.86868 0.41522,1.25997 -2.10256,1.42785 -8.00473,0.53375 z m 12.17086,-6.35572 C 150.64646,357.07379 153,353.81114 153,355.27325 153,356.6435 148.57518,365 147.84963,365 c -0.41352,0 0.0685,-1.83238 1.07123,-4.07197 z m 81.12708,-4.66573 c 1.2705,-1.78074 2.54309,-3.0046 2.828,-2.7197 0.2849,0.2849 -0.7546,1.74187 -2.30999,3.2377 l -2.828,2.7197 z m -40.1755,-1.92602 c -1.24448,-1.5086 -1.16266,-1.55194 0.87756,-0.46482 2.32696,1.23991 2.89993,2.12854 1.37244,2.12854 -0.48265,0 -1.49515,-0.74867 -2.25,-1.66372 z M 156,352.61803 c 0,-0.825 0.45,-1.77811 1,-2.11803 0.55,-0.33992 1,0.057 1,0.88197 0,0.825 -0.45,1.77811 -1,2.11803 -0.55,0.33992 -1,-0.057 -1,-0.88197 z M 228.5,353 c 0.33992,-0.55 1.06803,-1 1.61803,-1 0.55,0 0.72189,0.45 0.38197,1 -0.33992,0.55 -1.06803,1 -1.61803,1 -0.55,0 -0.72189,-0.45 -0.38197,-1 z m -74.42936,-6.83583 c -0.0641,-5.75021 0.27597,-6.83517 3.67936,-11.73815 3.63611,-5.23826 3.89331,-5.40269 8.46862,-5.41417 3.78633,-0.01 4.60489,0.28451 4.14301,1.48815 -0.31659,0.825 -1.78746,1.5 -3.26862,1.5 -3.15535,0 -5.09301,1.63429 -5.09301,4.29563 0,1.0426 -0.90044,3.16018 -2.00097,4.70573 -1.10053,1.54556 -2.86875,4.76503 -3.92936,7.15437 L 154.14127,352.5 Z M 229,348.96057 c 0,-1.69415 0.23618,-1.82113 1.39504,-0.75 C 231.83422,349.5408 231.59669,351 229.94098,351 229.42344,351 229,350.08226 229,348.96057 Z M 195.5,344 c -0.33992,-0.55 -0.16803,-1 0.38197,-1 0.55,0 1.27811,0.45 1.61803,1 0.33992,0.55 0.16803,1 -0.38197,1 -0.55,0 -1.27811,-0.45 -1.61803,-1 z m 6.94113,-0.51374 c 1.06762,-0.81744 3.09262,-1.45073 4.5,-1.40731 2.55549,0.0788 2.21952,0.27271 -3.44113,1.98572 -2.78564,0.84298 -2.8613,0.80165 -1.05887,-0.57841 z M 213.75,294.33772 c 0.6875,-0.27741 1.8125,-0.27741 2.5,0 0.6875,0.27741 0.125,0.50439 -1.25,0.50439 -1.375,0 -1.9375,-0.22698 -1.25,-0.50439 z m -53.1548,-3.95024 c -0.51504,-1.34215 -0.90846,-1.49866 -1.47262,-0.58582 -0.56942,0.92135 -1.27131,0.67764 -2.6962,-0.93618 -1.77554,-2.01095 -1.78305,-2.10405 -0.096,-1.18889 1.35282,0.73385 2.91835,0.44896 6,-1.09184 3.4959,-1.74791 5.70452,-2.04325 13.66959,-1.82792 5.225,0.14126 14.225,0.96381 20,1.82788 13.00756,1.94623 46.77084,1.4653 64,-0.91162 10.55458,-1.4561 35.98275,-2.32251 34.8476,-1.18736 -0.26715,0.26715 -4.50465,0.92824 -9.41666,1.46909 -4.91202,0.54085 -11.63094,1.42325 -14.93094,1.96088 -3.3,0.53763 -16.125,1.23128 -28.5,1.54144 -12.375,0.31017 -26.92759,0.76782 -32.33908,1.01699 -7.54403,0.34738 -11.7427,-0.003 -18,-1.50353 -9.89501,-2.37234 -15.11821,-2.47064 -21.21907,-0.39934 -2.54543,0.8642 -5.24925,1.33289 -6.0085,1.04154 -0.75925,-0.29135 -1.77531,0.17583 -2.25791,1.03819 -0.7718,1.37913 -0.96208,1.34739 -1.58024,-0.26351 z m 19.67383,-7.08047 c 0.97297,-0.25354 2.32297,-0.23687 3,0.0371 0.67703,0.27393 -0.11903,0.48137 -1.76903,0.46099 -1.65,-0.0204 -2.20394,-0.2445 -1.23097,-0.49804 z M 208,265 c -1.11822,-0.72265 -0.56133,-0.97327 2.18795,-0.98469 2.02837,-0.008 6.75337,-0.73454 10.5,-1.6136 3.78313,-0.88763 12.59239,-1.73923 19.81205,-1.91525 l 13,-0.31695 -9,1.96308 C 227.35421,265.87244 211.30141,267.13354 208,265 Z m 55,-3.79681 c 0,-0.90642 7.26203,-5.30065 10.5,-6.35351 1.6605,-0.53993 1.53319,-0.66724 -0.75,-0.75 -3.87827,-0.14058 -3.40071,-1.31774 1.34318,-3.31087 6.27413,-2.63605 3.81613,-4.00968 -2.8644,-1.60074 -7.38188,2.66185 -18.34447,2.89809 -23.22878,0.50059 -1.925,-0.94491 -2.6,-1.43192 -1.5,-1.08225 3.58485,1.13954 12.06133,1.68465 11,0.70739 -0.55,-0.50644 -4.2625,-1.93517 -8.25,-3.17497 -3.9875,-1.23979 -7.25,-2.63417 -7.25,-3.09863 0,-0.46446 2.13263,-0.20264 4.73918,0.58182 2.60656,0.78446 9.46906,1.7045 15.25,2.04454 l 10.51082,0.61825 -3,-2.89241 c -1.65,-1.59082 -4.125,-3.43309 -5.5,-4.09392 -2.24267,-1.07785 -1.93638,-1.18078 2.9757,-1 4.71818,0.17364 5.64471,0.54197 6.69738,2.66246 0.76036,1.53166 0.87309,2.88096 0.29855,3.57325 -0.65364,0.78758 -0.0457,0.98352 2.08252,0.67117 2.75285,-0.40403 2.85595,-0.55321 1.22576,-1.77351 -1.63602,-1.22467 -1.59802,-1.28655 0.47009,-0.76548 2.28033,0.57453 2.6415,1.32309 2.27871,4.72287 -0.15557,1.4578 0.27487,1.76464 1.88484,1.34362 2.77621,-0.726 2.66715,0.0982 -0.16355,1.23598 -1.67076,0.67156 -1.80821,0.92071 -0.53393,0.96777 0.94384,0.0349 3.30871,-0.69609 5.25527,-1.62434 2.55831,-1.21997 3.1913,-1.93899 2.28393,-2.59433 -0.88818,-0.64148 -0.76026,-0.74841 0.43743,-0.36564 0.93099,0.29752 3.16284,0.11933 4.95967,-0.396 1.89838,-0.54445 3.63823,-0.5657 4.1532,-0.0507 0.51497,0.51497 -0.93435,1.18422 -3.45967,1.59756 -4.4587,0.72978 -11.28557,4.97645 -10.37322,6.45267 0.83331,1.34832 -3.80935,3.82222 -10.09536,5.37942 C 264.15087,261.86857 263,262.05753 263,261.20319 Z m 9.72917,-18.80736 c -0.33229,-0.33229 -1.1948,-0.36781 -1.91667,-0.0789 -0.79773,0.31922 -0.56078,0.55618 0.60417,0.60416 1.05416,0.0434 1.64479,-0.19293 1.3125,-0.52522 z M 225,258.34182 c -0.825,-0.27515 -2.175,-0.7696 -3,-1.09877 -0.825,-0.32918 -4.425,-1.31247 -8,-2.1851 -3.575,-0.87263 -6.45534,-2.03015 -6.40077,-2.57227 0.0546,-0.54213 -0.62042,-1.53387 -1.5,-2.20388 -1.3572,-1.03383 -1.37221,-1.20792 -0.0992,-1.15032 2.14125,0.0969 6.7489,1.64931 5.25,1.76884 -0.6875,0.0548 -1.25,0.61156 -1.25,1.2372 0,0.81463 2.4055,0.94234 8.4745,0.4499 8.85169,-0.71822 15.89915,-0.001 14.95773,1.52223 -0.30264,0.48969 -2.21121,0.92198 -4.24125,0.96064 -2.03004,0.0386 -4.59098,0.45702 -5.69098,0.92971 -3.05035,1.31078 4.45197,1.24105 12.23145,-0.11369 5.02783,-0.87556 6.27164,-1.43588 5.81705,-2.62052 -0.44849,-1.16873 -0.07,-1.35972 1.68664,-0.8512 1.24567,0.36059 7.32698,0.93168 13.51401,1.26908 8.53025,0.46518 11.01052,0.90098 10.26187,1.80305 -1.42762,1.72018 -9.16393,3.87098 -9.90123,2.75268 -1.2248,-1.85773 -7.18798,-2.13216 -15.30197,-0.7042 -8.33565,1.46696 -14.01124,1.73934 -16.80782,0.80662 z m 60,-2.28512 c 0,-1.29755 4.10452,-4.06374 5.97251,-4.0251 1.03966,0.0215 0.63143,0.81992 -1.27827,2.5 C 286.77685,257.0982 285,257.67548 285,256.0567 Z M 225.5,248 c -0.74576,-1.20667 3.19192,-1.20667 6,0 1.61186,0.69264 1.28369,0.87307 -1.69098,0.92971 C 227.77898,248.96837 225.83992,248.55 225.5,248 Z m 76,-4 c 0.99549,-1.1 2.03498,-2 2.30998,-2 0.275,0 -0.31449,0.9 -1.30998,2 -0.99549,1.1 -2.03498,2 -2.30998,2 -0.275,0 0.31449,-0.9 1.30998,-2 z m -109.6217,-8.18491 c 4.09643,-5.45901 9.66026,-11.49143 12.75117,-13.82509 6.44079,-4.86284 19.82405,-13.10679 24.26158,-14.94487 2.46037,-1.01912 3.10895,-1.88831 3.10895,-4.16645 0,-1.58327 0.9,-3.77868 2,-4.87868 1.1,-1.1 2,-2.85186 2,-3.89301 0,-1.04116 0.675,-2.15203 1.5,-2.46862 0.825,-0.31658 1.5,-1.09586 1.5,-1.73173 0,-0.63587 1.83286,-6.16249 4.07302,-12.28138 4.21179,-11.50431 8.72183,-17.83708 15.08723,-21.18474 3.50126,-1.84135 19.18854,-1.23458 21.24486,0.82174 0.77644,0.77644 3.66293,2.85631 6.41443,4.62194 2.7515,1.76563 5.27151,3.91068 5.60002,4.76677 0.32992,0.85975 1.25067,1.30582 2.05684,0.99646 0.80275,-0.30805 1.72552,-0.12974 2.05059,0.39624 0.32508,0.52598 0.11449,0.95633 -0.46797,0.95633 -0.58246,0 -1.05902,0.675 -1.05902,1.5 0,0.825 0.59706,1.5 1.32681,1.5 0.90541,0 1.18696,0.95281 0.8865,3 -0.34496,2.35032 -0.0644,3 1.29564,3 1.44191,0 1.52168,0.25816 0.47099,1.52417 -1.6426,1.97921 -0.48332,3.13849 1.49589,1.49589 2.27732,-1.89001 1.84118,0.38307 -0.47583,2.47994 -1.1,0.99549 -2,2.33071 -2,2.96716 0,0.63645 -0.8708,2.95954 -1.93512,5.16242 -1.06432,2.20288 -2.2362,5.20485 -2.60419,6.67104 -0.368,1.46619 -1.88075,3.91086 -3.36168,5.43259 -1.48093,1.52174 -3.9774,4.56679 -5.54771,6.76679 -5.63637,7.89652 -9.74097,11.5 -13.09926,11.5 -3.00525,0 -6.45204,2.49056 -6.45204,4.66207 0,0.55253 1.4091,2.3171 3.13133,3.92126 6.51841,6.07155 8.86832,8.66417 8.85758,9.77243 -0.006,0.62933 -1.16371,-0.31826 -2.57248,-2.10576 -1.40876,-1.7875 -3.38063,-3.25 -4.38192,-3.25 -1.00129,0 -2.069,-0.6475 -2.37269,-1.43889 -0.31374,-0.81761 -3.15759,-1.95148 -6.58635,-2.62604 -3.54203,-0.69686 -8.19708,-2.58063 -11.27111,-4.56112 -6.02417,-3.88115 -4.05352,-4.54081 2.97888,-0.99716 4.63726,2.33673 11.21676,4.2624 11.21676,3.2829 0,-0.27458 -3.15,-2.79034 -7,-5.5906 -6.95344,-5.0575 -8.46726,-6.56936 -5.39894,-5.39194 1.46044,0.56043 1.45862,0.33893 -0.0208,-2.52196 -0.89203,-1.725 -2.75155,-3.87655 -4.13227,-4.78123 -1.38072,-0.90468 -2.2854,-1.86988 -2.0104,-2.14488 1.18363,-1.18362 5.61633,3.10437 7.41682,7.17468 1.07661,2.43386 2.8998,4.92951 4.05154,5.5459 2.85177,1.52622 2.65928,0.81074 -1.40594,-5.22576 -5.1535,-7.65251 -4.26542,-8.06113 2.09912,-0.96587 5.53367,6.169 8.88433,7.75166 10.03925,4.74197 0.31659,-0.825 0.97746,-1.5 1.46862,-1.5 0.49115,0 0.89301,0.675 0.89301,1.5 0,2.31671 2.69552,1.77234 3.33513,-0.67354 C 273.09034,215.93855 272.38047,215 269.44098,215 268.09844,215 267,214.55 267,214 c 0,-0.55 1.32344,-1 2.94098,-1 4.41428,0 4.65764,-1.81153 0.33681,-2.50709 -9.44637,-1.52066 -10.59296,-2.47169 -3.72314,-3.08813 6.50207,-0.58345 7.37896,-1.14517 6.08586,-3.89846 -0.62728,-1.33563 -2.04051,-2.63162 -3.14051,-2.87999 -1.1,-0.24837 -0.2,-0.39088 2,-0.31669 3.452,0.1164 3.95887,-0.13532 3.69977,-1.83738 -1.026,-6.73998 -0.48107,-10.58693 1.71783,-12.1271 1.69249,-1.18546 1.96523,-1.85803 1.09935,-2.71089 -0.86068,-0.84774 -1.4782,-0.69219 -2.44451,0.61573 -1.4283,1.93324 -3.57244,2.34796 -3.57244,0.69098 0,-0.58246 -0.38185,-0.82302 -0.84856,-0.53458 -0.4667,0.28844 -1.7042,-0.2475 -2.75,-1.19098 -1.21042,-1.092 -3.52755,-1.70698 -6.37591,-1.6922 -4.3034,0.0223 -4.51437,0.16538 -5.51768,3.74136 -0.57377,2.04498 -2.54654,5.09123 -4.38395,6.76944 -2.48817,2.27259 -3.22331,3.66564 -2.88057,5.45854 0.29131,1.52391 -0.0769,2.61332 -1.00339,2.96886 -0.98523,0.37807 -1.32021,1.53833 -1.02494,3.5501 0.24124,1.64366 0.17905,2.97748 -0.13819,2.96403 -0.31725,-0.0134 -2.5594,-0.48146 -4.98256,-1.04003 -4.67532,-1.07772 -9.38595,0.30118 -12.0677,3.53249 -0.68693,0.8277 -4.43918,3.10091 -8.33832,5.05157 -9.27668,4.64094 -16.01966,9.89036 -27.592,21.48042 l -9.48547,9.5 z M 239,201.44098 c 0,-0.85746 -0.45,-1.2809 -1,-0.94098 -0.55,0.33992 -1,1.04148 -1,1.55902 0,0.51754 0.45,0.94098 1,0.94098 0.55,0 1,-0.70156 1,-1.55902 z m 43.16195,-1.08754 c 1.72473,-1.56086 1.72882,-1.71536 0.0787,-2.9682 -2.45908,-1.86707 -2.94452,-1.71489 -3.48095,1.09126 -0.7322,3.83025 0.49545,4.50752 3.40221,1.87694 z m -20.04819,-27.95639 c 1.68542,-1.52529 1.65074,-1.72346 -0.71573,-4.08993 -1.36783,-1.36783 -3.04563,-2.27259 -3.72845,-2.01057 -0.873,0.33501 -1.12991,-0.47923 -0.86558,-2.74341 0.27807,-2.38184 -0.0206,-3.21981 -1.14747,-3.21981 -1.91857,0 -3.10595,4.42022 -1.65653,6.16667 0.61574,0.74192 0.78938,2.49101 0.40093,4.03871 -0.65037,2.59129 -0.52822,2.70697 2.40413,2.27659 1.69912,-0.24937 2.86152,-0.0848 2.58311,0.36564 -0.86383,1.3977 0.86409,0.90075 2.72559,-0.78389 z M 282.25,166.33772 c -0.6875,-0.27741 -1.8125,-0.27741 -2.5,0 -0.6875,0.27741 -0.125,0.50439 1.25,0.50439 1.375,0 1.9375,-0.22698 1.25,-0.50439 z M 280,159.61663 c 0,-0.88773 -4.04569,-1.35173 -4.55802,-0.52275 -0.30801,0.49837 0.59154,0.90612 1.999,0.90612 C 278.84844,160 280,159.82748 280,159.61663 Z M 256,243.5 c -2.43769,-1.39351 -2.38364,-1.43001 2.16821,-1.46456 5.29425,-0.0402 8.08045,0.7532 7.26703,2.06934 -0.84634,1.3694 -6.63032,0.99866 -9.43524,-0.60478 z m 63.54271,-20.4309 c -0.31644,-0.512 -0.11799,-1.21356 0.44098,-1.55902 0.55897,-0.34546 1.01631,0.0734 1.01631,0.9309 0,1.75653 -0.60006,2.01516 -1.45729,0.62812 z m 14.96284,-3.07523 c 0.99854,-1.10337 2.03241,-1.78925 2.29749,-1.52417 0.67193,0.67194 -1.82222,3.5303 -3.08047,3.5303 -0.5679,0 -0.21556,-0.90276 0.78298,-2.00613 z m 2.13046,-5.7738 c -0.33769,-0.5464 0.0561,-1.54954 0.875,-2.22921 1.6259,-1.34938 1.96544,-0.29113 0.59868,1.8659 -0.52221,0.82415 -1.10072,0.96677 -1.47368,0.36331 z M 318,211 c -0.90129,-0.58246 -1.02463,-0.97549 -0.30902,-0.98469 0.65504,-0.008 1.4691,0.43469 1.80902,0.98469 0.7673,1.24153 0.42112,1.24153 -1.5,0 z m 12,0.60328 c 0,-0.2569 1.4625,-1.49265 3.25,-2.74612 2.30592,-1.617 2.83816,-1.76616 1.83224,-0.51349 C 333.65114,210.12582 330,212.46756 330,211.60328 Z M 329.71025,208 c 0.28766,-1.1 0.93636,-2 1.44157,-2 0.50746,0 0.43952,0.89508 -0.15182,2 -0.5887,1.1 -1.23741,2 -1.44156,2 -0.20416,0 -0.13585,-0.9 0.15181,-2 z M 321,207 c -0.825,-0.53316 -2.4,-0.98367 -3.5,-1.00114 -1.43134,-0.0227 -2.83516,-1.71693 -4.93729,-5.95858 -1.61551,-3.25974 -3.30301,-5.70078 -3.75,-5.42453 -0.44699,0.27626 -0.8196,-0.76177 -0.82802,-2.30673 -0.0106,-1.94356 -0.27869,-2.39342 -0.87015,-1.4601 -0.59777,0.94325 -1.09455,0.19143 -1.65191,-2.5 l -0.79707,-3.84892 -1.23678,5 -1.23679,5 -0.096,-3.81574 c -0.0528,-2.09866 0.36559,-4.67824 0.92976,-5.7324 0.79006,-1.47624 0.44975,-3.05337 -1.48098,-6.86349 -1.37871,-2.72076 -2.98361,-5.24155 -3.56644,-5.60176 -0.58283,-0.36021 -0.78895,-1.50797 -0.45803,-2.55059 0.59269,-1.8674 -0.83834,-5.67329 -1.94997,-5.18602 -1.41965,0.62228 -2.62826,0.15274 -2.04327,-0.7938 0.35481,-0.5741 0.0439,-1.78548 -0.69098,-2.69196 -0.95272,-1.17525 -0.97742,-1.43268 -0.0861,-0.89718 0.6875,0.41304 1.25,0.48397 1.25,0.15764 0,-0.32633 -3.5523,-8.56539 -7.894,-18.30902 C 278.58955,125.34729 272.51952,112.66847 246.26625,59 239.94366,46.075 233.2126,31.45 231.30834,26.5 224.45816,8.6934098 225.51368,9.3877026 233.58877,28 c 3.22139,7.425 9.95996,21.825 14.97459,32 5.01463,10.175 9.93544,20.3 10.93514,22.5 0.99971,2.2 6.63874,14.125 12.5312,26.5 5.89245,12.375 13.05977,27.675 15.92738,34 13.19027,29.09345 11.99274,27.06756 17.52201,29.64238 2.7615,1.28594 6.03341,2.34248 7.27091,2.34785 1.73664,0.008 2.25,0.58582 2.25,2.53452 0,1.73702 0.74051,2.80629 2.37339,3.42711 2.63528,1.00194 7.09939,7.47414 6.18059,8.9608 -0.32263,0.52203 -0.10292,1.24808 0.48825,1.61344 0.62024,0.38333 0.8076,1.88113 0.44298,3.54122 -0.49381,2.24834 -0.0895,3.41932 1.85055,5.35935 l 2.48242,2.48242 -2.54545,2.54546 C 323.43674,208.29053 323.13418,208.37921 321,207 Z m 0.28304,-10.08304 C 319.20237,192.83763 317.1625,189.35 316.75,189.16667 316.3375,188.98333 316,188.19583 316,187.41667 316,186.6375 315.475,186 314.83333,186 c -0.64166,0 -0.87057,-0.2961 -0.50867,-0.65799 C 315.08479,184.58188 313.18652,182 311.86752,182 c -0.48818,0 1.14644,4.05 3.63248,9 2.48604,4.95 4.99211,9 5.56905,9 0.57694,0 0.78218,0.4317 0.45609,0.95932 -0.81068,1.31171 1.72419,5.19135 2.73286,4.18268 0.44445,-0.44445 -0.89428,-4.14572 -2.97496,-8.22504 z m -10.2336,-11.82005 c -2.83629,-5.55958 -3.57313,-5.22833 -0.84784,0.38115 1.19659,2.46293 2.34713,4.30654 2.55677,4.09691 0.20963,-0.20964 -0.55939,-2.22477 -1.70893,-4.47806 z M 313,180 c 0,-0.55 -0.70156,-1 -1.55902,-1 -0.85746,0 -1.2809,0.45 -0.94098,1 0.33992,0.55 1.04148,1 1.55902,1 0.51754,0 0.94098,-0.45 0.94098,-1 z m 19.52011,22.06336 c -0.33807,-1.06516 -1.60589,-2.12888 -2.81739,-2.36382 l -2.20272,-0.42718 2.1933,-0.13618 c 1.20631,-0.0749 2.78131,0.69271 3.5,1.70579 0.71868,1.01308 1.9817,2.10255 2.8067,2.42105 1.03016,0.3977 0.81635,0.60381 -0.68261,0.65803 -1.32592,0.048 -2.42388,-0.6812 -2.79728,-1.85769 z m -70.78235,-11.77188 c -0.96924,-0.24356 -1.50321,-0.86197 -1.18662,-1.37422 0.31659,-0.51226 -0.1279,-1.20135 -0.98776,-1.53131 -2.65575,-1.01911 -1.73986,-2.10211 2.32784,-2.75257 2.50693,-0.40087 5.17504,-0.0858 7.5,0.88562 3.75447,1.56871 4.89975,4.39854 1.85878,4.59278 -0.9625,0.0615 -3.1,0.22671 -4.75,0.36717 -1.65,0.14046 -3.79301,0.0561 -4.76224,-0.18747 z m 3.51224,-2.95376 c -0.6875,-0.27741 -1.8125,-0.27741 -2.5,0 -0.6875,0.27741 -0.125,0.50439 1.25,0.50439 1.375,0 1.9375,-0.22698 1.25,-0.50439 z m 32.7942,3.38016 c -0.0863,-1.52746 2.99126,-8.01575 3.54123,-7.46579 0.30754,0.30755 -0.35347,2.28914 -1.46893,4.40355 -1.11546,2.1144 -2.048,3.49241 -2.0723,3.06224 z M 329.5,190 c -0.33992,-0.55 -0.16803,-1 0.38197,-1 0.55,0 1.27811,0.45 1.61803,1 0.33992,0.55 0.16803,1 -0.38197,1 -0.55,0 -1.27811,-0.45 -1.61803,-1 z m 2.5,-2 c -0.90129,-0.58246 -1.02463,-0.97549 -0.30902,-0.98469 0.65504,-0.008 1.4691,0.43469 1.80902,0.98469 0.7673,1.24153 0.42112,1.24153 -1.5,0 z m -10.41111,-6.07673 c -2.83903,-3.37399 -2.96089,-3.78789 -1.70075,-5.77652 1.06907,-1.6871 3.56069,-0.48798 7.11186,3.42268 2.56125,2.82052 1.64138,2.58622 -3.30758,-0.84249 -3.77144,-2.61291 -4.1935,-1.79468 -1.1807,2.28895 1.36856,1.85497 2.48828,3.51024 2.48828,3.67839 0,0.87599 -1.08188,-0.003 -3.41111,-2.77101 z M 331,177.35632 c -8.61239,-2.7892 -10.05186,-3.5889 -8.91841,-4.95463 1.48239,-1.78617 3.59006,-1.79653 4.61872,-0.0227 0.43983,0.75845 2.37469,2.33176 4.29969,3.49626 3.3194,2.00802 3.3194,2.55608 0,1.48107 z M 301.75493,162.75 C 298.479,156.2184 282.76075,123.27587 273.72286,104 c -1.9341,-4.125 -6.32117,-13.35 -9.74906,-20.5 -3.42789,-7.15 -9.48965,-20.2 -13.47059,-29 -3.98094,-8.8 -8.86137,-19.4875 -10.8454,-23.75 -1.98402,-4.2625 -3.39731,-7.75 -3.14063,-7.75 0.39793,0 10.74803,21.002979 15.76934,32 11.19904,24.526659 18.21454,39.012303 33.65935,69.5 10.03052,19.8 17.96917,35.17069 17.64145,34.1571 -1.60915,-4.97693 -1.71825,-6.79442 -0.49623,-8.26686 1.10357,-1.32971 1.04127,-1.73666 -0.38833,-2.53671 C 301.76624,147.32943 301,146.29613 301,145.5573 c 0,-0.73883 -0.675,-1.60234 -1.5,-1.91893 -1.69379,-0.64996 -2.01011,-3.20507 -0.51145,-4.13129 0.56569,-0.34962 0.73519,0.0493 0.39624,0.93255 -0.34892,0.90927 0.0667,1.79639 1.01146,2.15893 0.88206,0.33848 1.60375,1.07742 1.60375,1.64208 0,0.56466 1.16162,2.02482 2.58139,3.24478 2.17299,1.8672 2.64021,3.23036 2.9532,8.61635 l 0.37182,6.39823 -1.04051,-6.25 c -0.57229,-3.4375 -1.48155,-6.25 -2.0206,-6.25 -0.53904,0 -0.69939,0.88436 -0.35633,1.96524 0.34306,1.08089 0.77576,4.34339 0.96155,7.25 0.18579,2.90662 0.65922,6.52226 1.05205,8.03476 1.32099,5.08611 -1.08215,2.80832 -4.74764,-4.5 z m 18.70057,6.322 c 0.31545,-0.51041 -0.33299,-1.21573 -1.44098,-1.56739 -3.3429,-1.061 -2.30804,-3.78817 3.61959,-9.53877 5.36642,-5.20616 5.51021,-5.2785 3.02648,-1.52269 -1.43419,2.16874 -2.41525,4.13552 -2.18014,4.37063 0.23511,0.23511 3.34133,-1.6518 6.90271,-4.19315 3.56137,-2.54135 6.7577,-4.62063 7.10294,-4.62063 0.34524,0 -2.32289,2.50318 -5.92919,5.56262 -6.77203,5.74513 -8.08086,7.32334 -4.47126,5.39154 3.96936,-2.12434 3.02974,-0.14698 -1.00873,2.12276 -4.78735,2.69065 -4.66192,3.45473 0.3404,2.07352 2.09844,-0.57941 3.36662,-0.60987 3.03475,-0.0729 -0.31356,0.50736 0.46895,0.96732 1.73891,1.02214 2.27794,0.0983 2.27537,0.11046 -0.19098,0.90032 -3.54518,1.13536 -11.23414,1.18786 -10.5445,0.072 z m -7.09167,-6.56626 c -0.31537,-0.82184 -1.02437,-1.21554 -1.57555,-0.87489 -1.19285,0.73722 -0.20996,-4.34442 1.85587,-9.59502 l 1.39117,-3.53583 -0.39802,5 c -0.58281,7.32135 0.10673,8.0971 3.4537,3.88549 3.58903,-4.51621 3.67246,-4.00338 0.32351,1.98856 -2.68934,4.81175 -4.07604,5.67157 -5.05068,3.13169 z M 309.25218,157.5 c 0.0111,-2.2 0.21589,-2.98225 0.45508,-1.73834 0.23919,1.24391 0.23011,3.04391 -0.0202,4 -0.25029,0.95609 -0.446,-0.0617 -0.4349,-2.26166 z m 27.30669,2.0318 c 1.06762,-0.8075 2.39113,-1.46819 2.94113,-1.46819 0.55,0 0.12649,0.66069 -0.94113,1.46819 -1.06762,0.80751 -2.39113,1.4682 -2.94113,1.4682 -0.55,0 -0.12649,-0.66069 0.94113,-1.4682 z M 286.16404,158.25 c 0.56673,-2.59115 -3.76375,-11.35388 -6.66404,-13.48469 -0.56229,-0.4131 -0.22026,-0.74139 0.78138,-0.75 0.97977,-0.008 2.06431,0.77219 2.41011,1.73469 0.3458,0.9625 1.45667,2.55503 2.46861,3.53896 1.01195,0.98392 1.8399,2.61632 1.8399,3.62755 0,1.01123 0.6963,2.41648 1.54733,3.12277 1.2359,1.02571 1.28622,1.44982 0.25,2.10714 -1.63104,1.03464 -2.8474,1.08249 -2.63329,0.10358 z m 28.86659,0.25 c 0,-0.55 0.43621,-1.675 0.96937,-2.5 0.53316,-0.825 0.96937,-1.05 0.96937,-0.5 0,0.55 -0.43621,1.675 -0.96937,2.5 -0.53316,0.825 -0.96937,1.05 -0.96937,0.5 z M 297.22374,135.84473 C 295.45068,134.7221 294,133.38196 294,132.86661 c 0,-1.00611 2.09485,-0.0619 5.49843,2.47835 3.15537,2.355 1.29946,2.76275 -2.27469,0.49977 z M 278,132 c -0.90129,-0.58246 -1.02463,-0.97549 -0.30902,-0.98469 0.65504,-0.008 1.4691,0.43469 1.80902,0.98469 0.7673,1.24153 0.42112,1.24153 -1.5,0 z m -4,-2.5 c 0,-0.825 0.17686,-1.5 0.39301,-1.5 0.21616,0 0.65203,0.675 0.96862,1.5 0.31658,0.825 0.13972,1.5 -0.39301,1.5 C 274.43588,131 274,130.325 274,129.5 Z m 20.03063,1 c 0,-0.55 0.43621,-1.675 0.96937,-2.5 0.53316,-0.825 0.96937,-1.05 0.96937,-0.5 0,0.55 -0.43621,1.675 -0.96937,2.5 -0.53316,0.825 -0.96937,1.05 -0.96937,0.5 z m -4.19229,-8.42842 c -1.24353,-2.71063 -2.56872,-4.73822 -2.94487,-4.50574 -1.47444,0.91126 -1.66973,-2.47689 -0.24315,-4.21864 1.46518,-1.78887 1.49369,-1.78704 0.90305,0.0583 -0.38796,1.21205 0.16632,2.73171 1.52313,4.17597 1.17317,1.24878 1.86702,2.70094 1.54189,3.22701 -0.32513,0.52606 0.33539,2.13438 1.46782,3.57402 1.13242,1.43965 1.59863,2.61754 1.03602,2.61754 -0.56262,0 -2.04037,-2.21779 -3.28389,-4.92842 z m -17.6759,1.38559 C 271.5231,122.05397 271,120.23624 271,119.41776 c 0,-0.81847 -0.7284,-2.70979 -1.61867,-4.20294 l -1.61867,-2.71482 2.09643,2.5 c 1.15304,1.375 2.10644,3.31708 2.11867,4.31574 0.0122,0.99866 0.5087,2.7247 1.10326,3.83565 0.59456,1.11095 0.89266,2.20826 0.66244,2.43848 -0.23022,0.23022 -0.94168,-0.72949 -1.58102,-2.1327 z m 13.65006,-14.14028 c 0.72187,-0.28887 1.58438,-0.25335 1.91667,0.0789 0.33229,0.3323 -0.25834,0.56864 -1.3125,0.52522 -1.16495,-0.048 -1.4019,-0.28494 -0.60417,-0.60416 z m -4.1732,-2.63377 c -3.06327,-3.65875 -4.13333,-6.58909 -2.86812,-7.854296 0.82256,-0.822566 0.96916,-0.551874 0.55624,1.027126 -0.30868,1.18038 -0.0917,2.14405 0.48271,2.14405 0.96659,0 4.53357,5.98963 3.92776,6.59545 -0.14894,0.14893 -1.0933,-0.71162 -2.09859,-1.91233 z m -20.29422,-8.226248 c -0.32569,-0.848721 -0.36872,-1.766569 -0.0956,-2.039663 0.27309,-0.273095 0.73656,0.421313 1.02992,1.543128 0.62315,2.382933 -0.0692,2.750893 -0.9343,0.496535 z M 279.85417,96.3125 C 279.65937,95.865625 278.15,94.733334 276.5,93.796297 c -2.25516,-1.28071 -2.98189,-2.397965 -2.92705,-4.5 0.0425,-1.627202 -0.6892,-3.342613 -1.75,-4.103001 -1.00262,-0.718687 -1.83072,-2.068687 -1.84023,-3 -0.009,-0.931313 -1.1345,-2.753028 -2.5,-4.048256 C 266.11723,76.849812 265,75.196928 265,74.471963 c 0,-0.724964 1.35,0.03188 3,1.681883 1.65,1.65 3,3.57064 3,4.26809 0,0.697449 0.92769,2.107639 2.06154,3.133755 1.27745,1.156082 1.86532,2.615995 1.54564,3.838463 -0.36654,1.401658 0.55654,2.904034 3.18846,5.189429 2.0374,1.769148 3.41374,3.514709 3.05853,3.879025 -0.35521,0.364316 -0.80521,0.296767 -1,-0.150108 z M 254.5,86 c -1.63041,-0.70061 -1.68751,-0.872418 -0.30902,-0.929715 C 255.12102,85.031628 256.16008,85.45 256.5,86 c 0.71066,1.149879 0.67591,1.149879 -2,0 z M 251,77.622445 c 0,-0.757656 -0.60188,-1.877069 -1.3375,-2.487585 -0.73563,-0.610516 -1.39932,-2.754307 -1.47487,-4.763981 -0.16035,-4.2652 0.70208,-4.089367 1.02818,0.209628 0.1218,1.605721 0.79807,3.514136 1.50282,4.240922 C 251.9643,76.106046 252.50546,79 251.5,79 251.225,79 251,78.3801 251,77.622445 Z m -9,-12.65383 c 0,-0.567261 0.65808,-1.283914 1.4624,-1.592562 1.26143,-0.484053 1.23749,-0.926392 -0.17418,-3.218615 L 241.65163,57.5 l 2.26483,2.118423 c 1.99637,1.867313 2.10704,2.371092 0.93364,4.25 C 243.43786,66.129772 242,66.684814 242,64.968615 Z M 256.18943,54.75 c -1.08552,-1.7875 -2.28298,-4.7125 -2.66101,-6.5 -0.37803,-1.7875 -1.15036,-3.25 -1.71628,-3.25 -0.59821,0 -0.76628,-1.046567 -0.4015,-2.5 0.46304,-1.844865 0.22939,-2.5 -0.89159,-2.5 C 249.68357,40 249,39.1551 249,38.122445 249,37.089789 248.325,35.684689 247.5,35 246.675,34.315311 246,33.157571 246,32.427245 c 0,-0.730325 -0.7386,-1.741204 -1.64133,-2.246397 -1.18187,-0.661408 -1.45646,-1.655073 -0.98094,-3.54969 C 243.74093,25.184021 244.4374,24 244.92543,24 c 0.48803,0 0.65198,0.9 0.36432,2 -0.36373,1.390919 -0.0307,2 1.09362,2 C 247.27252,28 248,28.755551 248,29.679002 248,32.840722 250.40085,38 251.87215,38 c 0.8087,0 2.29606,-0.747241 3.30524,-1.660536 2.83373,-2.564489 3.05766,-1.072519 0.28743,1.915048 -3.03303,3.270987 -3.11455,5.176988 -0.30559,7.144462 1.85207,1.297245 1.96791,1.742906 0.8143,3.13292 -0.95274,1.147982 -1.02229,1.819936 -0.23851,2.304338 0.60853,0.376091 1.42183,1.940526 1.80734,3.476522 0.62354,2.4844 1.0463,2.731979 3.82928,2.242526 2.42712,-0.426866 2.68005,-0.342365 1.12836,0.376977 -3.31393,1.536295 -4.24863,1.213069 -6.31057,-2.182257 z m -16.62514,-3.456872 c -0.54268,-1.425198 -0.42782,-1.540062 0.5598,-0.559795 0.68342,0.678334 0.99067,1.485241 0.68278,1.793128 -0.30789,0.307888 -0.86705,-0.247112 -1.24258,-1.233333 z m -2.93944,-3.783111 c -0.43088,-1.644491 -1.31024,-3.3251 -1.95413,-3.734687 -0.88072,-0.56023 -0.86979,-0.748498 0.0441,-0.760017 1.58887,-0.02003 3.51037,3.62279 3.05254,5.787094 -0.23628,1.116999 -0.62703,0.674989 -1.14251,-1.29239 z M 232,41.225684 c 0,-1.159208 0.42648,-2.371227 0.94773,-2.693377 0.52593,-0.325042 0.76241,0.376505 0.53136,1.57629 C 232.90375,43.096053 232,43.778618 232,41.225684 Z M 229.46814,34.25 c -1.19896,-2.813221 -1.28649,-5.468348 -0.14255,-4.324407 C 230.24585,30.845847 231.27523,36 230.53877,36 c -0.17864,0 -0.66042,-0.7875 -1.07063,-1.75 z M 226,26.366667 c 0,-1.118334 -0.30325,-2.336588 -0.6739,-2.707233 -0.37064,-0.370645 -0.72295,-1.794377 -0.7829,-3.163851 -0.0995,-2.272695 0.0247,-2.348856 1.4239,-0.872869 1.21447,1.281163 1.26054,1.717585 0.22177,2.100894 -1.01148,0.373238 -0.91403,0.922606 0.42637,2.403731 1.332,1.471846 1.46296,2.194461 0.56113,3.09629 C 226.27454,28.125457 226,27.925458 226,26.366667 Z M 240.76793,20 c -0.68696,-1.1 -1.74028,-2 -2.3407,-2 -0.60042,0 -1.57505,-1.575 -2.16585,-3.5 -0.96728,-3.151692 -0.88446,-3.5 0.83222,-3.5 1.36683,0 1.9064,0.707582 1.9064,2.5 0,1.375 0.45,2.5 1,2.5 0.55,0 1,0.620113 1,1.378028 0,0.757915 1.0125,2.084312 2.25,2.947548 1.87925,1.310901 1.96304,1.578163 0.50847,1.621972 C 242.80063,21.976397 241.45489,21.1 240.76793,20 Z m -18.56426,-3.954522 c 0.67134,-1.074986 1.36075,-1.814394 1.53201,-1.643128 C 224.32845,14.995121 222.78231,18 221.88454,18 c -0.49582,0 -0.35221,-0.879535 0.31913,-1.954522 z m 10.38191,-6.2897344 c -0.43733,-0.9593411 -1.16787,-1.5139045 -1.62341,-1.2323632 -0.45554,0.2815414 -1.63041,-0.8460432 -2.61082,-2.5057435 -0.98041,-1.6597003 -2.47304,-3.0492653 -3.31696,-3.0879222 -1.04404,-0.047824 -0.89525,-0.323432 0.46561,-0.8624347 1.54716,-0.6127912 2.11946,-0.330639 2.52758,1.2461463 0.75268,2.9079503 2.59955,3.1676007 3.39616,0.4774654 L 232.10212,1.5 l 0.99495,2.4614974 c 1.23153,3.0467708 0.74557,8.5517456 -0.51149,5.7942462 z M 222.97994,7.475834 c -0.69572,-0.8382913 -1.07128,-1.717826 -0.83459,-1.9545216 0.2367,-0.2366956 0.97964,0.4491791 1.65098,1.524166 1.45181,2.3247226 0.96763,2.5799598 -0.81639,0.4303556 z m -1.90099,-5.0591673 c 0.048,-1.164943 0.28494,-1.4018994 0.60416,-0.6041667 0.28887,0.721875 0.25335,1.584375 -0.0789,1.9166667 -0.3323,0.3322916 -0.56864,-0.2583334 -0.52522,-1.3125 z" id="path1"/>
  </g>
</svg>