<?xml version="1.0" standalone="no"?>
<!DOCTYPE svg PUBLIC "-//W3C//DTD SVG 20010904//EN"
 "http://www.w3.org/TR/2001/REC-SVG-20010904/DTD/svg10.dtd">
<svg version="1.0" xmlns="http://www.w3.org/2000/svg"
 width="319.119383pt" height="334.538743pt" viewBox="0 0 319.119383 334.538743"
 preserveAspectRatio="xMidYMid meet">
<metadata>
Created by potrace 1.16, written by Peter Selinger 2001-2019
</metadata>
<g transform="translate(-64.164901,390.576374) scale(0.100000,-0.100000)"
fill="#000000" stroke="none">
<path d="M2090 3904 c-19 -2 -80 -11 -135 -20 -485 -76 -880 -327 -1072 -684
-207 -381 -129 -825 202 -1155 210 -209 524 -364 843 -415 l72 -12 0 -166 0
-167 -36 72 c-62 125 -204 259 -335 317 -30 13 -94 34 -144 46 -78 20 -106 22
-220 17 -192 -9 -328 -49 -510 -152 -113 -64 -119 -72 -111 -168 21 -258 189
-498 434 -623 191 -96 373 -129 675 -121 111 3 212 8 225 12 18 6 22 4 22 -13
0 -34 41 -71 105 -93 131 -46 336 -1 360 79 8 27 13 32 30 27 11 -4 112 -9
225 -12 299 -8 473 23 663 117 253 126 423 369 443 636 l7 83 -64 41 c-331
214 -723 249 -997 88 -86 -50 -221 -189 -265 -273 l-36 -70 -1 162 0 161 73
12 c92 15 198 44 314 86 403 145 702 437 809 790 25 81 27 104 27 244 0 190
-18 266 -98 425 -218 433 -722 714 -1305 729 -91 2 -181 2 -200 0z m510 -168
c199 -46 362 -114 513 -214 85 -56 222 -184 282 -264 145 -193 205 -450 156
-668 -41 -179 -127 -326 -272 -465 -175 -168 -388 -278 -666 -345 -121 -30
-211 -39 -363 -40 -324 0 -598 71 -845 218 -144 86 -306 244 -381 368 -253
425 -112 908 353 1211 141 92 292 154 483 198 142 32 154 33 405 30 198 -2
232 -5 335 -29z m-1154 -2132 c102 -21 183 -64 266 -143 126 -118 232 -313
273 -500 7 -33 5 -32 -91 53 -115 101 -226 177 -350 240 -155 78 -372 139
-437 122 -44 -11 -27 -29 57 -58 265 -92 569 -281 749 -466 l48 -49 -38 -6
c-57 -10 -205 -8 -327 3 -284 27 -481 106 -634 254 -104 100 -174 230 -196
366 -6 35 -5 36 52 67 203 112 439 156 628 117z m1865 2 c47 -8 119 -26 160
-41 87 -31 214 -92 229 -109 15 -19 -22 -153 -67 -239 -48 -94 -181 -228 -273
-277 -128 -68 -216 -98 -372 -125 -103 -18 -328 -29 -412 -20 l-69 7 64 65
c76 76 221 189 339 263 96 61 301 157 402 190 38 12 71 26 74 32 12 19 -21 29
-76 23 -234 -26 -511 -163 -739 -365 l-94 -84 7 37 c20 109 94 275 170 381
161 226 369 309 657 262z m-971 -447 c0 -398 -2 -448 -16 -453 -20 -8 -158 -8
-178 0 -14 5 -16 55 -16 453 l0 446 105 0 105 0 0 -446z"/>
<path d="M2050 3544 c-166 -30 -309 -75 -409 -130 -215 -118 -363 -281 -426
-468 -35 -105 -36 -262 -1 -371 89 -279 368 -503 731 -587 130 -30 361 -36
497 -13 390 65 684 271 802 564 29 72 31 83 31 216 0 133 -2 144 -31 216 -106
261 -340 448 -679 541 -102 28 -124 31 -300 33 -104 2 -201 1 -215 -1z m415
-80 c438 -80 748 -373 747 -709 0 -168 -55 -289 -196 -431 -193 -194 -457
-294 -777 -294 -553 0 -979 316 -983 730 -1 107 13 161 72 274 39 75 154 200
232 253 252 170 584 235 905 177z"/>
<path d="M2100 3269 c-227 -35 -427 -164 -508 -327 -35 -73 -37 -81 -37 -176
0 -93 3 -106 33 -170 23 -49 53 -89 105 -140 114 -114 248 -173 445 -197 247
-31 515 57 662 218 254 278 84 659 -347 773 -91 25 -258 33 -353 19z m341 -88
c171 -44 310 -145 372 -270 28 -58 32 -75 32 -151 0 -72 -4 -93 -27 -141 -165
-335 -790 -401 -1082 -115 -140 137 -155 338 -37 481 96 116 243 190 436 219
61 9 232 -4 306 -23z"/>
<path d="M1880 3042 c-39 -40 -50 -88 -50 -227 0 -174 26 -245 91 -245 65 0
93 95 87 294 -4 143 -18 188 -60 200 -35 9 -37 8 -68 -22z m68 -34 c18 -18 15
-103 -4 -122 -20 -21 -31 -20 -44 3 -11 22 -14 90 -4 115 7 19 35 21 52 4z"/>
<path d="M2501 3051 c-30 -30 -41 -86 -41 -213 0 -191 28 -272 93 -266 36 4
65 38 77 94 15 64 12 254 -5 312 -24 80 -82 115 -124 73z m67 -43 c15 -15 16
-92 2 -119 -25 -46 -60 -9 -60 63 0 43 13 68 35 68 6 0 16 -5 23 -12z"/>
</g>
</svg>
