<?xml version="1.0" standalone="no"?>
<!DOCTYPE svg PUBLIC "-//W3C//DTD SVG 20010904//EN"
 "http://www.w3.org/TR/2001/REC-SVG-20010904/DTD/svg10.dtd">
<svg version="1.0" xmlns="http://www.w3.org/2000/svg"
 width="279.807693pt" height="311.834139pt" viewBox="0 0 279.807693 311.834139"
 preserveAspectRatio="xMidYMid meet">
<metadata>
Created by potrace 1.16, written by Peter Selinger 2001-2019
</metadata>
<g transform="translate(-60.088051,355.841988) scale(0.100000,-0.100000)"
fill="#000000" stroke="none">
<path d="M1206 3548 c-85 -23 -136 -109 -136 -230 0 -70 25 -120 136 -268 110
-148 144 -210 200 -361 85 -232 163 -368 273 -479 89 -89 146 -125 236 -147
175 -43 353 55 500 277 70 104 109 184 161 327 51 140 114 257 207 383 111
149 131 188 134 270 8 168 -102 267 -253 229 -38 -10 -61 -25 -101 -66 -29
-29 -60 -53 -70 -53 -10 0 -72 9 -137 20 -66 11 -123 17 -126 13 -4 -5 30 -70
76 -147 l83 -138 -16 -42 c-9 -22 -19 -44 -22 -48 -3 -4 -67 -12 -141 -19 -74
-7 -139 -15 -143 -19 -7 -6 58 -97 140 -194 18 -22 33 -44 33 -49 0 -6 -27
-66 -60 -134 -68 -140 -130 -213 -179 -213 -66 0 -137 87 -216 264 l-37 84 91
117 c51 65 89 121 84 125 -4 4 -68 12 -142 19 -74 7 -138 14 -142 17 -4 2 -14
25 -23 50 l-15 45 47 77 c27 42 65 108 86 146 l38 69 -33 -6 c-19 -3 -85 -14
-147 -23 l-114 -18 -46 52 c-69 77 -129 95 -226 70z"/>
<path d="M1068 3053 c-63 -69 -134 -199 -172 -315 -74 -230 -56 -465 53 -693
101 -212 267 -374 499 -489 48 -25 112 -52 142 -61 30 -9 64 -20 76 -25 12 -4
57 -14 100 -20 43 -7 84 -14 90 -15 19 -6 -8 -219 -63 -500 -25 -127 -36 -210
-37 -282 l-1 -102 34 -35 c71 -73 213 -97 325 -56 59 22 111 72 122 116 11 42
-4 174 -41 364 -41 213 -78 481 -68 490 5 4 43 12 87 18 144 22 337 99 471
188 75 49 204 171 261 247 62 81 138 242 166 348 17 65 22 114 22 219 0 157
-15 238 -70 368 -40 93 -148 262 -168 262 -18 0 -147 -181 -189 -265 -20 -38
-50 -110 -68 -160 -74 -212 -178 -387 -298 -505 -84 -83 -147 -121 -236 -145
-306 -79 -569 152 -762 670 -25 66 -61 147 -81 180 -39 66 -154 224 -163 225
-3 0 -17 -12 -31 -27z m1956 -426 c43 -31 42 -262 -1 -410 -21 -75 -74 -187
-88 -187 -23 0 -108 64 -136 104 -82 113 -75 297 15 404 41 48 114 88 187 101
3 1 13 -5 23 -12z m-1942 -151 c98 -23 168 -89 210 -197 25 -68 21 -177 -11
-260 -22 -57 -93 -149 -114 -149 -33 1 -149 197 -190 320 -26 78 -54 258 -44
285 8 19 71 20 149 1z m1468 -353 c56 -39 89 -98 97 -176 6 -59 -18 -131 -60
-175 -73 -78 -213 -100 -320 -50 l-59 28 7 52 c11 78 44 159 79 193 18 17 62
56 100 88 74 62 110 72 156 40z m-815 -352 c67 -30 115 -106 140 -219 l7 -34
-49 7 c-133 18 -251 53 -356 106 l-48 25 31 43 c59 81 184 114 275 72z"/>
<path d="M1275 1242 c-33 -8 -127 -50 -210 -92 -82 -42 -178 -87 -213 -98 -67
-24 -155 -28 -211 -12 -19 5 -37 8 -39 5 -3 -3 2 -41 11 -86 47 -238 212 -405
449 -453 89 -18 243 -21 338 -5 71 11 240 64 265 83 12 8 19 40 25 111 5 55
15 122 21 148 14 60 4 74 -90 120 -48 23 -82 33 -130 35 -70 4 -104 -5 -247
-66 -78 -33 -173 -57 -195 -50 -17 6 192 109 281 138 130 43 251 36 345 -22
50 -30 61 -24 73 37 6 30 9 61 6 68 -7 18 -87 78 -138 105 -100 52 -225 65
-341 34z"/>
<path d="M2485 1247 c-84 -22 -213 -100 -243 -148 -9 -13 3 -114 14 -128 2 -2
41 13 86 35 105 49 171 55 289 25 82 -21 337 -137 325 -148 -12 -12 -133 21
-234 64 -99 43 -114 47 -192 47 -78 1 -92 -2 -152 -33 -96 -48 -109 -65 -97
-121 6 -25 14 -87 18 -139 10 -115 12 -117 148 -159 129 -41 196 -52 314 -52
340 0 565 168 627 468 9 45 13 84 10 88 -4 3 -21 1 -39 -5 -51 -18 -143 -13
-211 10 -35 12 -117 50 -183 85 -172 90 -243 115 -345 120 -51 2 -105 -2 -135
-9z"/>
</g>
</svg>
