<?xml version="1.0" standalone="no"?>
<!DOCTYPE svg PUBLIC "-//W3C//DTD SVG 20010904//EN"
 "http://www.w3.org/TR/2001/REC-SVG-20010904/DTD/svg10.dtd">
<svg version="1.0" xmlns="http://www.w3.org/2000/svg"
 width="286.842625pt" height="747.884243pt" viewBox="0 0 286.842625 747.884243"
 preserveAspectRatio="xMidYMid meet">
<metadata>
Created by potrace 1.16, written by Peter Selinger 2001-2019
</metadata>
<g transform="translate(-56.961056,753.044984) scale(0.100000,-0.100000)"
fill="#000000" stroke="none">
<path d="M1842 7503 c-65 -32 -134 -107 -153 -167 l-14 -45 -41 27 c-22 15
-62 42 -89 60 -60 40 -102 41 -162 6 -24 -14 -67 -32 -94 -40 -96 -29 -179
-133 -179 -225 0 -66 16 -112 65 -185 25 -37 50 -84 55 -105 9 -34 45 -74 87
-98 11 -6 19 -31 24 -76 8 -65 26 -106 69 -155 11 -13 35 -49 52 -80 35 -62
127 -191 166 -232 25 -27 25 -28 7 -48 -10 -11 -28 -20 -40 -20 -11 0 -26 -5
-32 -11 -8 -8 -24 -1 -56 24 -62 48 -107 61 -179 53 -67 -7 -91 -17 -148 -66
-112 -95 -110 -92 -110 -163 0 -86 29 -175 77 -240 22 -29 47 -77 56 -108 10
-33 29 -67 47 -84 35 -33 52 -35 203 -17 69 8 95 16 122 36 18 14 39 26 46 26
6 0 30 -15 53 -34 98 -79 248 -123 387 -113 l77 6 6 -37 c3 -21 19 -56 36 -77
16 -22 30 -51 30 -65 0 -14 13 -48 30 -76 42 -74 94 -98 200 -92 66 4 85 9
127 36 28 18 54 32 60 32 54 0 102 135 84 233 -5 29 -14 65 -20 80 -19 50 -14
74 17 80 94 19 187 97 215 182 32 94 5 205 -68 275 -20 19 -42 49 -50 66 -15
37 -68 80 -110 90 -16 3 -55 22 -85 40 -31 18 -68 38 -83 43 -36 14 -34 24 6
39 82 30 157 130 157 211 0 24 12 61 31 97 35 68 46 136 30 187 -13 40 -74 99
-127 124 -30 15 -37 26 -54 82 -52 177 -179 366 -290 434 -19 11 -37 24 -40
27 -5 7 -89 47 -154 74 -62 26 -179 21 -244 -11z m178 -63 c-8 -5 -22 -10 -30
-10 -8 0 -28 -7 -44 -15 -15 -8 -38 -15 -50 -15 -12 0 -31 -7 -42 -15 -10 -8
-28 -15 -38 -15 -18 0 -18 2 3 24 37 40 81 56 151 56 46 0 61 -3 50 -10z m-35
-94 c64 -27 90 -104 60 -181 -18 -50 -19 -50 -55 -30 l-25 14 24 1 c23 0 24 1
19 80 -3 44 -8 83 -11 87 -4 3 -15 -1 -24 -9 -35 -29 -42 -29 -58 2 -8 16 -20
30 -25 30 -14 0 -92 -119 -85 -130 3 -6 2 -10 -4 -10 -34 0 -11 84 36 127 39
37 88 44 148 19z m-505 -34 c0 -5 -18 -17 -40 -27 -33 -15 -42 -25 -51 -59 -6
-23 -15 -51 -20 -64 -5 -13 -9 -34 -9 -47 0 -21 -5 -25 -32 -26 -62 -2 -71 -4
-75 -16 -7 -20 70 -38 107 -24 29 10 38 8 89 -22 30 -17 76 -39 101 -48 36
-12 46 -21 48 -42 3 -24 0 -26 -45 -32 -53 -8 -116 -36 -150 -67 -23 -21 -51
-18 -78 8 -23 23 -18 34 15 34 30 0 90 24 90 36 0 4 -19 3 -43 0 -48 -7 -101
10 -130 42 -26 28 -57 116 -57 160 0 44 27 99 62 125 14 11 47 23 74 28 27 5
58 18 69 29 19 20 75 28 75 12z m99 -61 c15 -10 2 -13 -99 -25 l-45 -6 24 20
c25 21 94 27 120 11z m337 -61 c8 0 14 5 14 10 0 6 5 10 10 10 6 0 10 -14 10
-31 0 -26 -3 -30 -17 -24 -10 4 -30 12 -45 17 -30 11 -32 16 -21 44 6 16 8 16
21 -4 8 -12 21 -22 28 -22z m-103 -204 c34 -18 82 -43 105 -55 40 -20 42 -24
29 -39 -30 -34 -47 -82 -47 -130 0 -56 20 -83 48 -65 26 15 54 102 50 151 -2
26 1 41 7 38 77 -35 151 -61 202 -69 38 -7 63 -16 63 -24 0 -29 -27 -66 -72
-98 -57 -41 -60 -61 -22 -129 31 -55 49 -66 90 -55 30 9 59 34 109 96 53 65
149 68 210 7 31 -31 35 -40 35 -89 0 -144 -95 -208 -264 -176 l-59 11 -47 -44
c-91 -85 -203 -136 -300 -136 -50 0 -68 13 -31 23 28 7 53 62 58 131 6 90 10
101 38 114 56 26 85 130 49 180 -18 26 -41 28 -72 6 -30 -21 -129 -54 -162
-54 -15 0 -54 -14 -86 -30 -85 -44 -145 -48 -215 -17 -73 32 -102 72 -107 146
-2 43 2 63 17 89 56 88 186 105 279 35 35 -26 53 -24 36 5 -6 10 -7 31 -2 52
10 45 0 110 -18 117 -19 7 -44 -15 -60 -52 -7 -16 -13 -23 -14 -14 0 24 58
109 76 109 9 0 44 -15 77 -34z m-166 -663 c9 -16 32 -48 52 -73 l34 -45 -57
55 c-66 64 -84 90 -62 90 9 0 23 -12 33 -27z m283 -19 c0 -37 -18 -64 -43 -64
-43 0 -120 64 -100 84 3 3 37 6 75 6 66 0 68 -1 68 -26z m-164 -33 c15 -19 42
-42 59 -52 16 -11 25 -19 19 -19 -28 0 -134 90 -134 113 0 13 26 -6 56 -42z
m609 -62 c63 -11 177 -59 189 -78 12 -19 -13 -12 -52 14 -48 33 -77 34 -68 3
4 -13 10 -40 13 -60 5 -33 3 -38 -18 -43 -18 -4 -46 7 -108 44 -103 63 -111
69 -111 93 0 35 56 45 155 27z m-488 -15 c-3 -3 -12 -4 -19 -1 -8 3 -5 6 6 6
11 1 17 -2 13 -5z m322 -88 c73 -32 97 -58 124 -133 l27 -74 -35 -15 c-19 -8
-47 -14 -63 -14 -44 0 -112 41 -133 80 -23 43 -25 136 -4 187 l15 36 22 -28
c12 -15 33 -32 47 -39z m-304 24 c3 -5 -5 -20 -17 -35 -22 -24 -25 -25 -66
-13 l-44 13 24 26 c19 21 31 25 61 21 20 -2 39 -8 42 -12z m-477 -50 c42 -26
60 -69 68 -162 3 -40 9 -82 14 -93 5 -11 18 -53 30 -93 24 -85 23 -88 -49
-122 -89 -41 -126 -10 -211 178 -28 62 -53 132 -56 155 -12 87 47 157 131 157
23 0 54 -9 73 -20z m1271 -16 c15 -11 21 -23 18 -35 -4 -15 7 -28 48 -53 64
-42 81 -64 96 -132 11 -50 10 -56 -16 -109 -34 -66 -68 -94 -152 -125 -67 -24
-107 -23 -150 5 -31 21 -29 33 4 27 25 -5 26 -4 19 29 -13 68 -73 117 -69 57
1 -23 -2 -28 -21 -28 -72 0 -85 130 -20 205 25 29 25 30 5 33 -59 9 5 91 94
121 73 25 113 26 144 5z m-1069 -71 c0 -34 -35 -113 -50 -113 -16 0 -12 79 7
111 22 37 43 38 43 2z m331 -30 c16 -16 24 -36 24 -63 0 -53 -27 -80 -78 -80
-87 0 -117 82 -54 145 38 38 71 38 108 -2z m-767 -54 c15 -42 42 -106 61 -142
19 -36 35 -72 35 -79 0 -7 12 -31 26 -51 14 -21 23 -41 20 -44 -7 -8 -7 -8
-40 41 -14 21 -26 47 -26 57 0 11 -15 40 -34 66 -18 27 -39 59 -46 73 -19 35
-40 129 -33 146 7 20 7 20 37 -67z m1146 -231 c-13 -5 -30 -14 -37 -20 -10 -8
-12 -7 -8 3 6 17 46 37 59 30 5 -2 -1 -8 -14 -13z m152 -105 c39 -42 60 -116
66 -229 l5 -102 -34 -36 c-26 -28 -44 -39 -77 -43 -97 -13 -172 52 -172 150 0
37 -4 47 -20 52 -17 5 -40 57 -40 91 0 24 27 46 48 40 17 -6 22 -15 22 -42 0
-19 4 -34 10 -34 12 0 19 30 22 99 3 52 4 55 38 67 61 22 103 17 132 -13z
m118 -99 c21 -71 27 -207 10 -234 -7 -11 -10 -5 -10 25 0 22 -7 78 -16 125
-25 133 -27 150 -15 150 5 0 19 -30 31 -66z"/>
<path d="M2436 6561 c-50 -33 -69 -88 -45 -132 13 -25 55 -42 76 -30 13 7 9
12 -20 26 -41 19 -49 48 -17 65 11 6 20 19 20 30 0 10 9 21 19 25 11 3 25 12
31 20 19 23 -28 19 -64 -4z"/>
<path d="M2734 5874 c7 -54 20 -74 49 -74 17 0 19 5 14 41 -6 43 -31 79 -55
79 -12 0 -13 -9 -8 -46z"/>
<path d="M2627 5874 c-7 -7 3 -73 15 -96 5 -10 20 -18 33 -18 21 0 25 5 25 29
0 17 -11 42 -26 60 -26 31 -35 36 -47 25z"/>
<path d="M1051 5061 c-52 -20 -60 -25 -109 -66 -74 -62 -118 -178 -109 -287 7
-81 35 -139 107 -219 48 -53 64 -99 40 -114 -6 -4 -26 -31 -45 -61 -128 -199
-178 -400 -157 -620 25 -247 127 -453 314 -628 147 -139 283 -220 481 -287 51
-17 98 -36 105 -41 15 -13 17 -184 2 -193 -6 -4 -50 20 -98 53 -166 113 -333
181 -498 202 -153 19 -285 -16 -378 -101 -76 -70 -100 -123 -100 -229 -2 -165
68 -282 287 -478 20 -19 37 -37 37 -42 0 -14 -60 -20 -199 -20 -93 0 -141 -4
-149 -12 -15 -15 -17 -934 -2 -958 7 -11 36 -16 117 -20 104 -5 107 -6 114
-30 4 -14 7 -211 8 -437 l1 -413 23 -5 c12 -3 542 -4 1177 -3 l1155 3 5 426
c4 329 8 430 18 442 10 11 38 16 117 19 57 1 107 7 112 11 12 13 16 919 4 951
l-11 26 -139 0 c-208 0 -235 10 -168 65 298 245 375 505 205 691 -167 183
-536 152 -870 -73 -80 -54 -114 -71 -122 -63 -6 6 -12 44 -14 86 -5 95 4 105
112 140 249 78 480 240 620 434 135 188 186 343 186 575 0 118 -4 155 -25 233
-30 112 -76 213 -138 306 -26 38 -47 75 -47 83 0 8 27 44 60 80 88 96 105 137
105 253 0 84 -3 102 -28 152 -35 72 -110 140 -185 168 -110 42 -253 16 -344
-62 -15 -13 -97 -106 -183 -208 -354 -417 -352 -415 -406 -431 -72 -22 -93 -3
-397 356 -42 50 -78 92 -81 95 -4 3 -31 34 -61 70 -101 119 -122 138 -178 166
-78 37 -193 43 -271 15z m213 -166 c15 -10 71 -69 123 -129 120 -140 127 -148
188 -221 28 -33 64 -76 81 -95 17 -19 63 -72 102 -117 92 -105 149 -135 255
-135 80 0 138 21 192 70 27 25 129 142 213 246 19 22 37 43 41 46 4 3 67 76
140 163 152 180 182 202 268 195 121 -10 199 -143 148 -252 -23 -47 -886 -907
-932 -928 -44 -20 -73 -22 -128 -7 -34 9 -107 78 -478 447 -241 241 -447 451
-457 467 -57 92 -24 206 75 260 39 21 130 16 169 -10z m7 -949 c123 -52 134
-206 20 -283 -47 -32 -105 -30 -158 3 -52 34 -73 71 -73 129 0 118 107 195
211 151z m1550 3 c68 -23 109 -82 109 -157 0 -77 -78 -152 -158 -152 -134 0
-211 166 -120 260 52 55 105 70 169 49z m-1074 -368 c40 -29 73 -89 73 -132 0
-33 -38 -96 -74 -124 -45 -35 -120 -37 -171 -5 -71 44 -96 146 -52 211 56 83
150 104 224 50z m713 6 c45 -30 73 -80 73 -131 0 -54 -19 -92 -65 -129 -66
-53 -168 -36 -222 36 -29 40 -30 144 -1 183 48 64 152 84 215 41z m-1260 -159
c77 -53 100 -134 59 -207 -13 -23 -30 -41 -40 -41 -28 0 -112 94 -163 182
l-27 47 20 20 c30 30 107 29 151 -1z m1738 16 c34 -9 38 -47 11 -91 -39 -64
-139 -173 -157 -173 -28 1 -55 49 -60 107 -4 45 0 59 21 91 39 60 111 85 185
66z m-834 -405 c45 -30 76 -79 76 -117 0 -42 -20 -47 -192 -46 -179 0 -197 14
-139 105 55 87 174 114 255 58z m33 -334 c8 -3 12 -91 15 -312 2 -169 8 -316
13 -327 4 -10 22 -24 38 -31 41 -17 50 -14 402 138 206 89 292 131 299 146 13
29 -31 115 -61 119 -12 2 -122 -40 -244 -92 -209 -91 -269 -110 -269 -86 0 37
92 137 193 213 71 53 221 124 312 148 94 25 223 30 278 10 78 -27 137 -102
137 -174 0 -16 -16 -64 -36 -106 -77 -160 -291 -322 -522 -395 l-83 -26 -602
0 c-640 0 -657 1 -762 49 -22 10 -58 26 -80 36 -74 33 -189 118 -266 194 -123
124 -166 244 -119 328 42 76 155 122 263 108 192 -24 386 -113 529 -244 97
-89 139 -174 76 -156 -20 6 -141 55 -223 90 -239 104 -237 104 -265 43 -23
-50 -25 -81 -7 -96 6 -6 100 -47 207 -92 107 -45 237 -100 287 -121 106 -44
153 -49 182 -18 25 28 28 58 30 374 1 212 4 272 15 280 12 9 234 9 263 0z
m1133 -954 c6 -12 10 -130 10 -313 0 -341 1 -338 -79 -338 -33 0 -53 5 -62 17
-11 12 -15 76 -19 272 l-5 256 -1104 3 c-807 1 -1107 -1 -1117 -9 -11 -9 -14
-62 -14 -256 0 -149 -4 -252 -10 -264 -8 -15 -21 -19 -58 -19 -81 0 -77 -18
-80 325 -2 204 1 311 8 325 11 20 19 20 1265 20 1230 0 1254 0 1265 -19z
m-259 -828 c11 -13 14 -81 14 -348 0 -370 1 -365 -66 -365 -69 0 -69 -2 -69
310 0 240 -2 281 -16 294 -14 14 -106 16 -865 16 -567 0 -857 -3 -870 -10 -18
-10 -19 -24 -19 -288 0 -320 0 -322 -74 -322 -73 0 -71 -9 -71 365 0 267 3
335 14 348 12 16 95 17 1011 17 917 0 999 -1 1011 -17z"/>
</g>
</svg>
