<?xml version="1.0" standalone="no"?>
<!DOCTYPE svg PUBLIC "-//W3C//DTD SVG 20010904//EN"
 "http://www.w3.org/TR/2001/REC-SVG-20010904/DTD/svg10.dtd">
<svg version="1.0" xmlns="http://www.w3.org/2000/svg"
 width="425.740497pt" height="405.875988pt" viewBox="0 0 425.740497 405.875988"
 preserveAspectRatio="xMidYMid meet">
<metadata>
Created by potrace 1.16, written by Peter Selinger 2001-2019
</metadata>
<g transform="translate(-10.673493,425.875988) scale(0.100000,-0.100000)"
fill="#000000" stroke="none">
<path d="M2186 4227 c-17 -19 -96 -162 -175 -318 -79 -156 -172 -338 -206
-404 -34 -66 -97 -187 -140 -270 -122 -234 -137 -248 -310 -279 -165 -29 -558
-94 -730 -121 -342 -52 -470 -76 -491 -90 -27 -18 -34 -45 -20 -77 6 -14 213
-230 460 -479 247 -250 462 -474 478 -498 44 -69 42 -91 -51 -711 -4 -30 -32
-204 -61 -387 -51 -316 -53 -333 -37 -357 37 -56 26 -60 663 259 705 355 646
336 824 255 63 -29 336 -164 607 -301 271 -137 502 -249 513 -249 12 0 32 11
46 25 23 23 25 31 19 78 -8 66 -29 201 -60 387 -13 80 -36 222 -49 315 -14 94
-37 246 -51 338 -32 217 -33 289 -1 341 12 21 228 246 478 500 250 253 460
471 466 483 14 26 2 67 -25 82 -18 9 -210 44 -418 76 -180 27 -818 134 -873
146 -106 22 -119 40 -315 414 -63 121 -180 348 -260 505 -174 344 -176 346
-205 359 -34 16 -42 14 -76 -22z m430 -1602 c46 -19 69 -73 83 -190 15 -132 7
-437 -13 -502 -37 -118 -127 -134 -178 -32 -27 53 -40 218 -36 431 5 221 16
270 72 294 39 16 31 17 72 -1z m-672 -21 c44 -45 51 -89 51 -339 0 -265 -12
-350 -55 -398 -45 -51 -109 -36 -145 33 -27 52 -37 173 -33 390 5 225 9 248
54 307 33 44 88 46 128 7z"/>
</g>
</svg>
