<?xml version="1.0" standalone="no"?>
<!DOCTYPE svg PUBLIC "-//W3C//DTD SVG 20010904//EN"
 "http://www.w3.org/TR/2001/REC-SVG-20010904/DTD/svg10.dtd">
<svg version="1.0" xmlns="http://www.w3.org/2000/svg"
 width="169.954130pt" height="230.792469pt" viewBox="0 0 169.954130 230.792469"
 preserveAspectRatio="xMidYMid meet">
<metadata>
Created by potrace 1.16, written by Peter Selinger 2001-2019
</metadata>
<g transform="translate(-58.896370,264.923043) scale(0.100000,-0.100000)"
fill="#000000" stroke="none">
<path d="M1445 2643 c-89 -12 -257 -84 -391 -169 -129 -82 -233 -258 -263
-444 -16 -97 -13 -259 5 -344 l17 -74 -52 -69 c-28 -37 -71 -106 -95 -153 -81
-157 -99 -272 -50 -329 19 -23 34 -31 57 -31 55 0 60 -10 36 -64 -17 -39 -19
-53 -10 -73 9 -20 7 -30 -14 -60 -13 -20 -30 -61 -36 -90 -11 -48 -10 -59 8
-106 12 -29 24 -70 27 -91 10 -74 77 -117 209 -137 109 -16 221 0 312 46 39
19 76 35 83 35 21 0 112 51 121 69 5 9 11 37 15 63 4 29 13 49 23 52 23 9 32
-3 41 -56 5 -25 19 -60 31 -77 13 -17 28 -53 34 -78 20 -78 84 -110 239 -120
108 -7 189 8 283 51 107 50 119 68 122 179 5 140 4 149 -14 190 -13 30 -14 42
-5 63 18 38 14 95 -8 137 -25 47 -26 47 9 47 81 0 116 47 108 144 -9 115 -74
267 -164 387 -48 64 -54 76 -43 93 33 52 30 238 -4 304 -8 15 -16 45 -17 67
l-4 40 53 11 c29 7 64 19 77 28 100 65 -103 382 -306 479 -157 75 -290 99
-434 80z m300 -77 c108 -37 175 -77 256 -153 102 -97 179 -225 164 -274 -7
-20 -64 -42 -97 -37 -13 2 -32 20 -48 47 -14 25 -31 46 -38 49 -15 5 -16 -32
-2 -58 10 -18 31 -142 25 -148 -2 -2 -21 2 -44 8 -29 8 -42 17 -46 33 -2 12
-11 52 -20 90 -52 237 -252 423 -480 447 l-60 6 45 12 c25 6 93 10 155 8 87
-3 127 -9 190 -30z m-260 -50 c153 -40 283 -164 342 -326 67 -181 52 -456 -35
-640 -81 -172 -268 -289 -463 -290 -157 0 -338 107 -422 251 -109 186 -109
492 1 719 42 88 147 199 228 242 102 55 243 73 349 44z m503 -576 c22 -5 45
-17 52 -25 15 -19 24 -158 13 -210 l-9 -40 -73 -5 c-40 -3 -75 -2 -77 1 -2 3
1 21 6 39 5 18 12 84 16 147 5 87 10 113 20 109 7 -3 31 -10 52 -16z m23 -342
c28 -23 107 -131 144 -198 38 -68 85 -212 85 -262 0 -52 -16 -68 -65 -68 -24
0 -57 5 -72 12 -45 19 -148 95 -178 130 -77 92 -85 99 -105 93 -29 -9 -25 -24
25 -87 52 -67 61 -60 -110 -84 -217 -30 -524 -20 -688 22 -89 23 -167 63 -189
98 -16 26 -19 44 -15 109 5 79 -2 94 -27 55 -31 -50 -30 -172 1 -204 13 -12
11 -18 -11 -45 -14 -17 -26 -39 -26 -50 0 -23 -35 -39 -84 -39 -99 0 -63 181
79 401 25 38 49 67 55 64 5 -3 22 -29 39 -58 63 -110 195 -212 328 -252 26 -8
84 -15 128 -15 222 0 403 105 509 294 l48 85 46 4 c26 2 52 4 58 5 5 1 17 -4
25 -10z m-1088 -522 c29 -14 84 -33 122 -43 39 -9 82 -27 97 -39 48 -40 293
-57 320 -23 10 13 38 18 118 22 118 7 269 35 349 65 l54 21 38 -22 c21 -12 43
-31 49 -42 6 -11 22 -35 35 -54 40 -55 30 -107 -26 -136 -138 -72 -500 -116
-764 -94 -247 20 -487 89 -548 157 -26 28 -15 74 27 116 27 26 32 38 28 64 -3
21 2 42 14 59 l17 28 9 -27 c7 -19 26 -35 61 -52z m400 -3 l108 -6 -3 -36 -3
-36 -68 -3 c-56 -2 -173 11 -183 21 -7 6 -13 61 -7 69 3 6 15 7 27 4 11 -3 70
-9 129 -13z m-395 -327 c95 -29 304 -66 371 -66 62 0 80 -12 49 -32 -106 -70
-239 -108 -373 -108 -142 0 -233 38 -271 112 -20 39 -13 108 16 149 l21 29 53
-30 c29 -17 89 -41 134 -54z m1211 -7 c18 -53 13 -112 -12 -150 -53 -79 -149
-114 -317 -114 -106 0 -120 2 -172 28 -65 32 -98 76 -98 129 l0 34 133 12
c137 11 340 50 399 76 48 21 55 19 67 -15z m-769 -150 c-15 -27 -69 -59 -101
-59 -15 0 -37 -8 -50 -19 -64 -50 -253 -76 -360 -51 -56 14 -129 53 -129 70 0
14 13 12 46 -5 77 -40 242 -44 375 -10 36 9 99 34 140 55 88 45 93 46 79 19z
m776 -87 c-16 -49 -148 -105 -281 -118 -104 -10 -265 33 -265 71 0 11 10 10
57 -6 118 -40 331 -18 434 45 30 18 56 31 57 30 2 -1 1 -11 -2 -22z"/>
<path d="M1019 2282 c-65 -39 -119 -172 -119 -289 0 -209 157 -277 244 -104
64 126 60 317 -6 388 -26 27 -79 30 -119 5z"/>
<path d="M1445 2256 c-40 -18 -59 -41 -90 -109 -33 -71 -43 -181 -25 -258 17
-70 87 -143 147 -154 117 -19 204 97 206 275 1 68 -3 95 -21 135 -50 109 -130
150 -217 111z"/>
<path d="M1196 1538 c-20 -28 -20 -59 -2 -103 12 -27 21 -35 41 -35 17 0 28 7
34 22 18 48 -11 138 -44 138 -7 0 -21 -10 -29 -22z"/>
</g>
</svg>
