<?xml version="1.0" standalone="no"?><!DOCTYPE svg PUBLIC "-//W3C//DTD SVG 20010904//EN" "http://www.w3.org/TR/2001/REC-SVG-20010904/DTD/svg10.dtd"><svg xmlns="http://www.w3.org/2000/svg" version="1.0" width="3.9594mm" height="16mm" viewBox="0 0 144.144329 582.494510" preserveAspectRatio="xMidYMid meet">
<metadata>
Created by potrace 1.16, written by Peter Selinger 2001-2019
</metadata>
<g transform="translate(-114.355671,725.779171) scale(0.100000,-0.100000)" fill="#000000" stroke="none">
<path d="M1854 7253 c-38 -5 -55 -23 -78 -84 -9 -25 -28 -56 -41 -69 -33 -31 -32 -51 11 -110 34 -47 36 -56 40 -140 2 -51 -1 -92 -6 -95 -14 -8 -13 -62 1 -71 7 -4 8 -22 4 -48 -8 -55 -8 -94 0 -134 5 -20 3 -38 -5 -46 -8 -10 -9 -36 -4 -84 3 -39 3 -76 -2 -83 -10 -17 -12 -59 -2 -65 30 -19 -26 -79 -82 -88 -32 -5 -40 -11 -41 -29 -2 -39 2 -51 27 -74 31 -28 30 -33 -3 -24 -16 4 -33 6 -39 4 -6 -2 -44 30 -84 72 -40 41 -76 73 -79 70 -3 -3 -4 -23 -2 -44 2 -34 -2 -41 -43 -73 -60 -46 -123 -105 -165 -153 -27 -32 -32 -44 -28 -72 4 -23 2 -33 -7 -33 -7 0 -20 -8 -28 -17 -18 -21 -61 -133 -54 -141 3 -3 34 1 68 7 266 52 318 66 316 89 -3 26 14 122 21 122 3 -1 21 -14 40 -30 19 -16 38 -27 42 -24 4 2 21 -8 38 -23 26 -25 30 -35 32 -92 2 -43 -1 -66 -9 -69 -15 -5 -16 -59 -1 -68 8 -5 10 -32 5 -90 -6 -89 -16 -120 -54 -171 -21 -28 -23 -40 -19 -95 3 -35 10 -83 15 -108 6 -25 11 -104 12 -176 0 -80 4 -134 11 -141 8 -8 8 -13 0 -17 -16 -11 -13 -93 5 -128 15 -28 14 -34 -6 -87 -16 -44 -19 -63 -11 -83 6 -16 6 -41 0 -68 -16 -71 -16 -358 0 -413 12 -42 12 -53 -3 -101 -14 -44 -16 -83 -12 -242 3 -104 6 -216 6 -249 0 -49 5 -67 24 -94 27 -37 25 -53 -17 -98 -15 -17 -18 -30 -13 -55 4 -18 1 -54 -6 -80 -11 -43 -10 -52 12 -99 l24 -51 -23 -44 c-21 -39 -23 -53 -19 -136 3 -61 11 -105 22 -127 17 -32 17 -34 -6 -58 -21 -23 -23 -32 -21 -134 1 -66 8 -132 18 -165 15 -51 15 -60 0 -105 -15 -44 -15 -58 -2 -149 8 -55 24 -117 36 -140 11 -22 23 -66 25 -98 4 -51 61 -235 88 -286 10 -19 11 -18 24 6 37 71 104 264 102 294 -1 22 6 44 20 64 12 16 27 51 31 77 24 125 37 403 33 658 -1 17 -1 89 -2 160 0 72 -5 142 -11 157 -9 22 -8 36 5 68 9 24 16 69 16 110 0 59 -5 81 -30 130 l-30 60 24 10 c14 5 28 20 30 32 6 28 24 551 31 914 5 234 4 265 -11 297 -15 32 -16 43 -5 90 8 32 11 73 7 103 -8 59 -8 70 2 254 5 111 11 152 24 172 9 14 20 47 23 72 6 41 3 53 -25 96 -29 44 -33 60 -39 151 -3 55 -4 102 0 105 11 6 17 54 8 60 -5 3 -9 38 -9 79 l0 73 46 22 c25 12 58 36 74 53 l28 30 6 -44 c3 -24 7 -57 8 -74 3 -27 9 -31 63 -48 79 -24 270 -69 320 -74 l40 -5 -43 45 c-40 41 -43 47 -37 81 6 31 2 45 -34 104 -45 75 -95 128 -126 134 -12 2 -21 13 -23 25 -3 23 -50 63 -72 63 -9 0 -11 13 -8 45 3 25 3 45 0 45 -15 0 -72 -44 -77 -60 -4 -11 -15 -20 -26 -20 -11 0 -32 -9 -47 -20 -15 -11 -42 -24 -61 -30 l-35 -10 32 33 c43 44 44 83 2 92 -17 4 -43 17 -59 30 -28 24 -28 24 -25 132 2 59 4 117 4 128 0 11 1 40 2 65 2 81 -3 254 -9 298 -3 26 -1 48 7 57 8 10 10 30 6 58 -6 36 -2 52 20 90 14 26 29 47 34 47 4 0 11 7 14 16 4 10 -6 30 -27 53 -20 22 -39 58 -46 87 -7 27 -17 54 -23 61 -10 13 -15 13 -74 6z m54 -49 c7 -14 9 -37 5 -52 l-7 -27 -7 30 -7 30 -1 -28 c-1 -26 -4 -28 -36 -26 -19 2 -40 -2 -47 -9 -9 -9 5 -12 68 -12 68 0 84 -3 99 -20 18 -20 17 -20 -16 -19 -19 0 -28 3 -21 6 6 2 12 9 12 15 0 5 -12 0 -27 -12 -25 -20 -36 -21 -95 -15 -46 4 -68 3 -68 -4 0 -6 10 -11 23 -12 21 0 21 -1 2 -9 -18 -8 -18 -9 -2 -9 11 -1 16 -6 12 -13 -4 -7 1 -4 9 6 12 15 16 16 17 5 0 -10 2 -10 6 -1 6 14 53 17 53 2 0 -5 7 -10 15 -10 8 0 15 5 15 12 0 9 3 9 12 0 9 -9 14 -7 24 6 8 10 13 12 14 5 0 -25 -50 -46 -110 -47 -33 -1 -60 -4 -60 -8 0 -7 114 -13 149 -9 7 2 10 -2 7 -7 -3 -5 -39 -10 -81 -11 -64 -2 -76 1 -82 16 -3 10 -17 33 -31 51 l-24 34 25 26 c14 15 37 53 51 85 24 53 28 57 59 57 27 0 36 -6 45 -26z m-8 -301 c17 -14 27 -29 24 -32 -3 -3 -7 -4 -10 -1 -2 3 -11 -5 -19 -17 -16 -23 -42 -33 -29 -11 5 7 3 8 -5 4 -13 -8 -51 20 -51 36 0 11 41 47 53 48 4 0 21 -12 37 -27z m-78 -115 c-9 -9 -12 -7 -12 12 0 19 3 21 12 12 9 -9 9 -15 0 -24z m108 7 c0 -9 -6 -12 -15 -9 -8 4 -12 10 -9 15 8 14 24 10 24 -6z m-29 -51 l24 -26 -29 -23 c-32 -26 -48 -24 -40 3 5 13 4 14 -4 3 -5 -7 -14 -11 -20 -7 -14 8 -22 45 -11 52 5 3 9 -1 10 -8 0 -7 4 -3 9 10 12 29 31 28 61 -4z m24 -122 c-12 -13 -24 22 -12 37 10 12 13 11 15 -8 2 -13 1 -26 -3 -29z m-95 24 c0 -3 -4 -8 -10 -11 -5 -3 -10 -1 -10 4 0 6 5 11 10 11 6 0 10 -2 10 -4z m63 -56 c15 -16 27 -33 27 -37 0 -3 -3 -4 -6 0 -3 3 -14 -3 -25 -14 -18 -18 -21 -18 -49 -4 -36 18 -37 31 -8 62 27 29 29 29 61 -7z m24 -112 c-3 -8 -6 -5 -6 6 -1 11 2 17 5 13 3 -3 4 -12 1 -19z m-38 -45 c1 4 10 3 21 -3 26 -14 25 -20 -10 -48 l-29 -23 -31 23 -31 23 32 29 c31 27 33 28 40 10 4 -10 8 -15 8 -11z m38 -98 c0 -8 -4 -12 -9 -9 -5 3 -6 10 -3 15 9 13 12 11 12 -6z m-97 1 c0 -3 -4 -8 -10 -11 -5 -3 -10 -1 -10 4 0 6 5 11 10 11 6 0 10 -2 10 -4z m39 -68 c1 32 1 32 26 16 32 -21 31 -31 -2 -60 -25 -21 -29 -22 -45 -7 -10 8 -15 20 -12 25 3 4 0 7 -7 6 -18 -4 -22 19 -4 26 9 3 13 2 10 -4 -3 -6 -1 -10 4 -10 6 0 12 10 12 23 1 15 4 10 9 -13 l7 -35 2 33z m-52 -104 c-3 -3 -12 -4 -19 -1 -8 3 -5 6 6 6 11 1 17 -2 13 -5z m-14 -31 c-7 -2 -21 -2 -30 0 -10 3 -4 5 12 5 17 0 24 -2 18 -5z m177 -3 c10 -7 -10 -9 -65 -9 -61 1 -72 3 -45 9 52 11 93 11 110 0z m-187 -31 c17 -15 13 -16 -50 -18 -43 -1 -63 2 -54 8 7 5 11 13 7 19 -4 6 5 12 21 14 34 4 53 -1 76 -23z m-286 -21 c-3 -7 -5 -2 -5 12 0 14 2 19 5 13 2 -7 2 -19 0 -25z m701 -4 c-7 -15 -14 -21 -16 -15 -2 7 2 18 8 26 18 22 21 18 8 -11z m-458 -8 c0 -9 -50 -12 -62 -5 -8 6 1 9 25 9 20 0 37 -2 37 -4z m250 -10 c19 -1 -16 -3 -78 -4 -62 -1 -111 1 -109 6 5 6 103 6 187 -2z m-504 -11 c-11 -8 -23 -15 -28 -15 -4 0 -8 -7 -8 -15 0 -8 -5 -14 -12 -12 -6 1 -17 -8 -23 -21 -16 -30 -28 -41 -19 -17 7 20 7 20 -14 1 -12 -10 -20 -22 -17 -26 2 -3 -14 -32 -35 -64 -22 -32 -49 -90 -62 -129 -27 -88 -31 -94 -68 -99 -35 -5 -34 -7 -13 40 9 20 15 41 14 45 -1 5 12 14 29 20 29 11 30 15 25 47 -5 28 -1 42 17 65 37 48 161 159 203 183 28 16 34 14 11 -3z m301 9 c-3 -3 -12 -4 -19 -1 -8 3 -5 6 6 6 11 1 17 -2 13 -5z m-248 -28 c9 -11 9 -16 -1 -22 -7 -4 -10 -4 -6 1 4 4 3 14 -3 22 -6 7 -9 13 -6 13 2 0 10 -6 16 -14z m221 4 c0 -5 6 -7 14 -4 11 4 12 -3 6 -35 -4 -22 -3 -38 1 -35 5 3 9 -2 9 -10 0 -35 -28 -15 -35 24 -4 22 -10 40 -15 40 -4 0 -10 7 -14 15 -4 10 1 15 14 15 11 0 20 -4 20 -10z m410 -1 c0 -4 -19 -23 -42 -44 -50 -44 -110 -73 -116 -56 -5 14 -32 14 -32 0 0 -5 5 -7 10 -4 6 3 10 2 10 -3 0 -16 -52 -24 -64 -11 -7 8 -7 10 0 6 10 -6 44 26 44 42 0 4 17 13 38 19 20 6 53 22 72 36 32 21 80 30 80 15z m48 -20 c-2 -6 3 -14 11 -17 9 -3 11 0 6 8 -5 8 -3 11 6 8 24 -8 109 -120 139 -184 30 -62 58 -160 48 -169 -10 -10 -37 7 -32 20 13 33 -77 241 -108 251 -10 3 -18 10 -18 16 0 6 7 5 18 -3 15 -13 16 -12 4 3 -8 9 -20 14 -28 11 -8 -3 -14 0 -14 7 0 6 5 8 10 5 6 -3 10 -2 10 3 0 6 -7 12 -15 16 -8 3 -15 0 -15 -6 0 -6 -9 -3 -20 7 -22 20 -26 35 -10 35 6 0 9 -5 8 -11z m-398 -25 c0 -8 -7 -14 -16 -14 -13 0 -14 3 -5 13 6 8 7 18 3 22 -4 5 -1 5 6 1 6 -4 12 -14 12 -22z m-240 6 c0 -5 -4 -10 -10 -10 -5 0 -10 5 -10 10 0 6 5 10 10 10 6 0 10 -4 10 -10z m-119 -52 c-48 -65 -62 -93 -91 -183 -22 -66 -33 -84 -53 -85 -26 0 48 179 91 221 15 14 40 42 55 62 15 21 30 37 33 37 2 0 -13 -24 -35 -52z m433 0 c20 -36 23 -48 12 -48 -19 0 -46 44 -46 76 0 33 1 32 34 -28z m-57 -6 c-34 -39 -39 -60 -20 -89 10 -16 21 -30 25 -33 10 -8 7 -101 -3 -94 -5 3 -9 21 -9 39 0 21 -11 50 -29 77 l-29 42 37 55 c25 38 37 49 39 37 2 -10 -3 -25 -11 -34z m361 25 c12 -13 20 -26 16 -29 -3 -4 4 -11 15 -18 27 -14 63 -72 84 -134 22 -65 22 -98 0 -94 -12 2 -20 22 -29 74 -6 39 -19 83 -29 98 -9 14 -14 26 -10 26 4 0 -4 9 -18 20 -31 25 -72 80 -59 80 4 0 18 -10 30 -23z m-636 6 c-6 -2 -10 -9 -6 -14 3 -5 0 -9 -5 -9 -12 0 -14 13 -4 23 3 4 11 7 17 6 6 0 5 -3 -2 -6z m63 -21 c0 -12 34 -41 49 -42 5 0 3 6 -4 14 -10 13 -7 13 20 3 l31 -12 -28 -7 c-21 -6 -37 -2 -66 18 -21 13 -35 29 -31 35 7 13 29 6 29 -9z m-99 -24 c-9 -5 -14 -13 -11 -19 4 -5 -1 -12 -9 -15 -9 -3 -13 -10 -10 -15 3 -5 0 -9 -6 -9 -6 0 -8 -5 -4 -12 4 -6 3 -8 -3 -5 -6 4 -11 -3 -11 -16 -1 -12 -6 -46 -13 -74 -9 -38 -18 -53 -30 -53 -16 0 -16 4 -5 48 20 75 91 196 109 185 5 -3 2 -10 -7 -15z m619 2 c10 -11 16 -20 13 -20 -3 0 -13 9 -23 20 -10 11 -16 20 -13 20 3 0 13 -9 23 -20z m-285 -20 c0 12 4 11 15 -4 17 -22 20 -40 6 -31 -5 3 -13 0 -17 -6 -4 -8 -3 -9 4 -5 7 4 12 3 12 -3 0 -6 -8 -15 -19 -20 -16 -9 -21 -6 -31 18 -9 23 -9 33 2 50 12 19 13 19 20 3 5 -13 7 -13 8 -2z m240 10 c-8 -5 -11 -10 -6 -10 14 0 -16 -30 -45 -46 -19 -10 -35 -11 -51 -5 -21 9 -21 10 -3 12 11 1 28 1 38 1 10 -1 16 2 12 7 -3 5 0 13 6 17 8 5 9 3 4 -6 -5 -8 -3 -11 6 -8 8 3 14 9 14 14 0 15 16 34 28 34 7 0 6 -4 -3 -10z m-485 -30 c16 -16 37 -30 47 -30 10 0 18 -4 18 -10 0 -5 7 -7 14 -4 13 5 13 1 3 -25 -14 -39 -20 -39 -38 2 -9 20 -21 32 -34 32 -14 0 -19 6 -17 20 2 17 1 17 -7 5 -9 -12 -11 -13 -11 -1 0 8 -3 11 -6 8 -4 -4 -1 -13 6 -22 7 -8 8 -15 2 -15 -18 0 -34 29 -27 50 9 27 16 25 50 -10z m115 0 c18 -12 2 -12 -25 0 -13 6 -15 9 -5 9 8 0 22 -4 30 -9z m170 -61 c-7 -16 -16 -29 -21 -29 -4 0 -10 -12 -12 -27 -3 -22 -4 -20 -6 10 0 23 3 36 9 32 6 -3 10 3 10 14 0 12 5 21 10 21 6 0 11 10 11 23 1 18 2 18 6 4 3 -10 -1 -32 -7 -48z m303 5 c19 -38 32 -124 20 -124 -23 1 -35 23 -43 76 -4 32 -11 67 -15 77 -14 33 21 8 38 -29z m-553 7 c3 -1 -1 -5 -9 -10 -15 -10 -41 -4 -41 9 0 6 30 7 50 1z m107 -132 c-2 -122 -19 -133 -33 -20 -5 44 -6 77 -2 74 13 -7 9 12 -4 27 -7 8 -3 6 10 -4 12 -11 22 -14 22 -9 0 6 -7 16 -15 23 -8 7 -12 16 -9 22 3 5 11 4 19 -2 10 -8 13 -38 12 -111z m176 115 c-7 -3 -9 -13 -6 -22 4 -14 3 -14 -5 -2 -12 16 -7 30 11 29 9 0 9 -2 0 -5z m-33 -64 l-8 -35 -1 31 c-1 17 2 34 6 37 11 12 12 3 3 -33z m-33 -42 c-3 -8 -6 -5 -6 6 -1 11 2 17 5 13 3 -3 4 -12 1 -19z m-32 -25 c13 -17 14 -17 33 0 19 18 20 18 36 -5 18 -25 22 -88 6 -88 -5 0 -10 -9 -10 -19 0 -11 5 -23 10 -26 6 -3 10 -52 10 -112 0 -119 10 -143 78 -184 47 -29 51 -36 48 -77 -4 -40 -46 -79 -46 -43 0 14 -6 21 -20 21 -20 0 -20 1 4 37 14 20 23 40 20 45 -3 4 -32 8 -64 8 -59 0 -59 0 -62 32 -2 21 -9 32 -20 34 -15 2 -18 -6 -18 -42 0 -36 -3 -44 -17 -43 -11 0 -13 3 -5 6 7 3 11 21 10 46 l-1 42 -4 -37 -4 -38 -67 0 -66 0 37 38 c46 47 57 84 57 185 0 52 4 76 10 72 7 -4 10 8 9 34 -2 22 -6 38 -11 35 -14 -9 -8 51 8 74 18 27 23 27 39 5z m-67 -115 c-3 -7 -17 -13 -33 -13 -16 0 -30 6 -32 13 -3 8 7 12 32 12 25 0 35 -4 33 -12z m222 -3 c0 -16 -12 -18 -47 -9 -35 10 -27 24 12 24 24 0 35 -5 35 -15z m-233 -102 c-3 -38 -10 -81 -16 -96 -6 -16 -8 -34 -4 -40 4 -7 -1 -6 -11 2 -13 11 -14 16 -4 22 10 7 10 9 -2 9 -12 0 -12 2 -2 8 10 7 11 28 6 85 -6 74 -6 77 15 77 21 0 22 -4 18 -67z m223 52 c0 -9 -9 -15 -22 -14 -13 0 -17 3 -10 6 6 2 10 9 6 14 -3 5 2 9 10 9 9 0 16 -7 16 -15z m-9 -96 c-3 -75 -11 -92 -12 -28 -1 37 -2 40 -9 19 -7 -21 -8 -17 -9 21 -1 47 5 62 23 56 5 -2 8 -31 7 -68z m-254 -21 c-3 -8 -6 -5 -6 6 -1 11 2 17 5 13 3 -3 4 -12 1 -19z m-11 -94 c-4 -9 -9 -15 -11 -12 -3 3 -3 13 1 22 4 9 9 15 11 12 3 -3 3 -13 -1 -22z m-26 -38 c0 -2 -8 -10 -17 -17 -16 -13 -17 -12 -4 4 13 16 21 21 21 13z m185 -26 c-3 -5 2 -10 11 -10 10 0 15 -3 11 -6 -10 -10 -39 5 -32 16 3 5 8 10 11 10 3 0 2 -4 -1 -10z m-167 -45 c27 -42 27 -47 5 -43 -12 2 -18 -3 -18 -16 0 -16 8 -19 45 -20 40 -1 48 -5 73 -38 15 -21 33 -38 41 -38 8 0 24 16 36 35 19 31 26 35 65 35 l42 0 -20 -41 c-19 -39 -20 -67 -28 -623 -7 -553 -19 -1128 -24 -1134 -4 -5 -65 20 -65 27 0 4 -6 8 -13 8 -27 0 -67 36 -68 62 -1 22 -2 22 -6 5 -3 -16 -10 -21 -26 -18 -12 2 -16 2 -9 -2 6 -3 10 -10 6 -15 -3 -5 -2 -8 3 -7 12 4 53 -34 47 -43 -2 -5 -11 -6 -19 -2 -11 4 -15 -2 -14 -23 1 -24 2 -25 6 -6 2 12 8 20 13 17 5 -3 11 -1 15 5 10 16 55 -20 55 -44 0 -15 3 -17 9 -7 6 10 15 5 37 -23 25 -31 30 -47 34 -118 3 -46 3 -92 0 -104 -3 -11 -36 -47 -75 -79 -93 -78 -91 -75 -78 -75 7 0 41 23 77 50 36 28 68 50 71 50 13 0 3 -44 -12 -55 -17 -13 -17 -14 -1 -32 16 -18 17 -45 12 -319 -8 -452 -20 -548 -88 -681 l-33 -67 -21 39 c-31 62 -60 165 -67 241 -4 38 -2 206 4 374 6 168 11 393 12 500 1 180 3 197 22 224 l20 29 -23 19 c-22 18 -23 23 -14 68 7 33 7 51 0 53 -14 5 -12 103 3 121 11 13 17 13 46 0 38 -15 85 -19 85 -6 0 8 -37 31 -105 66 l-26 14 0 358 c1 198 4 422 7 499 l6 140 33 32 c18 18 36 29 40 25 5 -4 5 -2 2 5 -4 6 -1 17 6 25 8 7 19 23 26 36 16 31 35 28 27 -4 -5 -17 -3 -23 4 -19 6 4 10 25 9 48 -1 23 6 60 14 82 8 22 14 41 13 42 -1 1 -33 -26 -71 -62 -106 -98 -102 -102 -107 99 -4 188 -12 216 -68 258 -43 31 -43 101 0 107 3 0 15 -15 28 -34z m52 26 c-28 -9 -28 -22 1 -63 18 -24 18 -28 4 -28 -9 0 -14 4 -11 8 3 5 -6 25 -19 45 -14 20 -25 38 -25 41 0 4 17 6 38 5 32 -1 34 -2 12 -8z m180 5 c0 -2 -7 -6 -15 -10 -8 -3 -15 -1 -15 4 0 6 7 10 15 10 8 0 15 -2 15 -4z m50 -12 c0 -2 -9 -4 -21 -4 -11 0 -18 4 -14 10 5 8 35 3 35 -6z m-177 -44 l-18 -30 -17 22 c-25 33 -23 38 18 38 l35 0 -18 -30z m56 -38 c-10 -2 -28 -2 -39 0 -20 3 -20 4 2 35 l23 32 17 -32 c16 -31 15 -32 -3 -35z m81 61 c-1 -12 -38 -58 -42 -53 -2 3 -12 17 -21 33 l-17 27 40 0 c22 0 40 -3 40 -7z m5 -53 c3 -5 -1 -10 -10 -10 -9 0 -13 5 -10 10 3 6 8 10 10 10 2 0 7 -4 10 -10z m-75 -49 c-16 -31 -27 -33 -44 -6 l-16 25 35 0 c32 0 35 -2 25 -19z m-178 -75 c-1 -31 1 -36 7 -21 5 12 7 -13 5 -65 -3 -60 -1 -79 5 -65 7 14 10 -10 10 -85 -1 -80 -5 -109 -17 -122 -8 -10 -19 -18 -24 -18 -11 0 -10 68 2 75 6 3 10 17 10 31 0 13 -4 24 -10 24 -6 0 -10 37 -9 93 0 60 3 85 9 72 8 -20 9 -20 9 1 1 21 -14 112 -25 149 -5 17 -3 16 12 -4 11 -15 17 -40 16 -65z m308 -186 c4 0 2 -14 -7 -30 -13 -27 -13 -37 1 -90 14 -59 12 -135 -5 -124 -5 3 -6 -1 -4 -8 3 -8 -1 -22 -9 -33 -13 -18 -14 -5 -10 110 3 72 7 141 8 155 2 14 5 68 7 120 l3 95 3 -97 c2 -54 8 -98 13 -98z m-295 -299 c-3 -6 -11 -11 -16 -11 -5 0 -4 6 3 14 14 16 24 13 13 -3z m296 -60 c21 -26 25 -86 8 -97 -6 -3 -8 -17 -5 -29 4 -14 1 -25 -7 -28 -9 -3 -9 -7 1 -20 8 -9 11 -21 7 -26 -3 -6 -8 -172 -9 -368 -2 -197 -7 -420 -11 -495 -8 -131 -9 -136 -27 -125 -19 12 -19 22 -13 332 4 209 10 330 18 350 12 30 12 29 18 -25 l6 -55 1 58 c1 31 -2 57 -7 57 -4 0 -7 12 -4 28 3 23 2 24 -6 7 -13 -26 -12 -35 -11 234 1 215 6 279 18 241 3 -8 13 -26 23 -39z m-321 -1 c-6 -12 -14 -19 -17 -16 -4 3 0 18 8 32 7 14 15 21 17 15 2 -5 -2 -20 -8 -31z m40 14 c0 -8 -4 -12 -10 -9 -6 4 -10 -6 -9 -22 0 -25 1 -26 10 -8 8 19 5 -129 -6 -265 -4 -41 -2 -50 5 -35 9 17 10 17 4 -5 -9 -40 -11 -180 -2 -180 12 0 -3 -52 -19 -68 -15 -16 -17 -32 -4 -32 5 0 12 8 14 18 3 9 5 -44 6 -119 1 -135 1 -136 -24 -149 -31 -17 -33 -52 -5 -98 17 -27 20 -50 20 -134 l0 -101 -21 19 c-18 16 -20 26 -14 71 4 35 2 61 -7 80 -20 41 -8 372 16 427 9 21 16 53 15 70 0 26 -2 28 -8 11 -7 -16 -11 -8 -21 37 -11 47 -11 90 -1 225 15 207 15 211 30 251 14 33 31 43 31 16z m35 -964 c8 -13 -5 -13 -25 0 -13 8 -13 10 2 10 9 0 20 -4 23 -10z m-25 -307 c-1 -16 -27 -42 -35 -35 -4 4 -4 -8 0 -27 5 -23 4 -31 -4 -27 -8 5 -11 -12 -9 -56 l1 -63 7 55 c9 71 10 -409 1 -700 -3 -124 -3 -254 1 -290 6 -62 55 -225 84 -282 10 -19 14 -66 14 -165 -1 -134 -1 -137 -17 -103 -8 19 -17 51 -18 70 -2 19 -3 41 -4 48 -1 7 -5 11 -10 8 -5 -3 -14 8 -20 26 -16 44 -12 60 4 18 7 -19 14 -30 14 -23 1 6 -4 24 -11 40 -6 15 -10 36 -9 46 1 10 -11 47 -28 82 -21 43 -33 85 -36 127 -4 47 -3 58 5 43 8 -15 9 -9 6 30 -3 33 -2 43 4 30 8 -19 9 -19 9 3 1 12 -3 22 -9 22 -9 0 -7 33 5 83 5 19 3 33 -7 45 -27 31 -35 75 -32 172 4 123 6 129 14 45 l6 -70 4 65 c3 50 5 35 10 -65 l6 -130 2 138 c2 104 -1 137 -10 138 -10 0 -10 2 0 6 17 7 15 44 -4 71 -19 27 -26 203 -10 241 l11 24 6 -24 c5 -17 7 -8 8 28 1 35 -6 67 -21 97 -20 42 -20 46 -5 93 10 30 12 52 6 58 -16 16 -10 41 16 65 14 13 25 29 25 37 0 7 7 13 15 13 8 0 15 -3 15 -7z m237 -91 c15 -44 17 -82 3 -82 -5 0 -13 0 -16 0 -3 0 -8 29 -9 66 -3 71 2 74 22 16z m9 -157 c-3 -12 -13 -26 -22 -29 -12 -5 -15 -2 -9 11 4 10 9 28 10 40 2 12 7 28 12 35 10 17 17 -24 9 -57z m-3 -174 c-10 -7 -12 -51 -3 -51 4 0 8 -34 9 -75 1 -41 -2 -75 -7 -75 -5 0 -7 -19 -4 -42 9 -73 1 -406 -13 -544 -13 -131 -25 -169 -64 -211 -12 -13 -17 -25 -11 -28 18 -11 10 -54 -26 -145 -20 -50 -38 -89 -40 -88 -5 6 -11 241 -6 260 2 10 9 15 15 11 6 -3 7 -1 3 5 -4 6 6 42 22 79 17 38 37 93 45 123 23 78 37 280 37 513 0 110 2 198 5 195 3 -2 6 -17 7 -31 1 -15 5 -23 8 -19 4 4 4 34 2 66 -3 38 -7 54 -13 45 -6 -10 -8 -8 -6 8 0 12 5 19 11 16 5 -4 7 4 3 18 l-6 24 20 -24 c11 -13 16 -27 12 -30z m-326 -743 c-2 -13 -4 -5 -4 17 -1 22 1 32 4 23 2 -10 2 -28 0 -40z"/>
<path d="M1851 7194 c0 -11 3 -14 6 -6 3 7 2 16 -1 19 -3 4 -6 -2 -5 -13z"/>
<path d="M1871 7154 c0 -11 3 -14 6 -6 3 7 2 16 -1 19 -3 4 -6 -2 -5 -13z"/>
<path d="M1882 6880 c0 -14 2 -19 5 -12 2 6 2 18 0 25 -3 6 -5 1 -5 -13z"/>
<path d="M1826 6574 c-5 -14 -4 -15 9 -4 17 14 19 20 6 20 -5 0 -12 -7 -15 -16z"/>
<path d="M1320 5895 c-7 -9 -10 -18 -7 -21 3 -3 10 4 17 15 13 25 8 27 -10 6z"/>
<path d="M1225 5741 c-3 -5 -1 -12 5 -16 5 -3 10 1 10 9 0 18 -6 21 -15 7z"/>
<path d="M1762 5990 c0 -14 2 -19 5 -12 2 6 2 18 0 25 -3 6 -5 1 -5 -13z"/>
<path d="M2038 5973 c-10 -2 -18 -8 -18 -13 0 -5 -8 -7 -17 -4 -17 5 -17 5 0 -6 19 -12 61 -4 52 10 -3 5 1 11 7 13 16 7 0 6 -24 0z"/>
<path d="M1390 5859 c-7 -11 -10 -23 -7 -25 2 -2 9 7 15 21 14 30 7 33 -8 4z"/>
<path d="M1840 5530 c0 -11 2 -20 4 -20 2 0 6 9 9 20 3 11 1 20 -4 20 -5 0 -9 -9 -9 -20z"/>
<path d="M1872 5475 c0 -16 2 -22 5 -12 2 9 2 23 0 30 -3 6 -5 -1 -5 -18z"/>
<path d="M1842 5445 c0 -16 2 -22 5 -12 2 9 2 23 0 30 -3 6 -5 -1 -5 -18z"/>
<path d="M1801 5374 c0 -11 3 -14 6 -6 3 7 2 16 -1 19 -3 4 -6 -2 -5 -13z"/>
<path d="M1831 4624 c0 -11 3 -14 6 -6 3 7 2 16 -1 19 -3 4 -6 -2 -5 -13z"/>
<path d="M1873 4590 c0 -25 2 -35 4 -22 2 12 2 32 0 45 -2 12 -4 2 -4 -23z"/>
<path d="M1779 4563 c-13 -16 -12 -17 4 -4 16 13 21 21 13 21 -2 0 -10 -8 -17 -17z"/>
<path d="M1862 4490 c0 -14 2 -19 5 -12 2 6 2 18 0 25 -3 6 -5 1 -5 -13z"/>
<path d="M1771 3264 c0 -11 3 -14 6 -6 3 7 2 16 -1 19 -3 4 -6 -2 -5 -13z"/>
<path d="M1892 3130 c0 -14 2 -19 5 -12 2 6 2 18 0 25 -3 6 -5 1 -5 -13z"/>
<path d="M1871 3080 c-1 -14 -4 -36 -6 -50 -5 -22 -4 -22 4 -5 6 12 10 15 10 6 1 -8 3 -12 5 -10 2 2 0 22 -4 44 -5 27 -8 32 -9 15z"/>
<path d="M1892 3070 c0 -14 2 -19 5 -12 2 6 2 18 0 25 -3 6 -5 1 -5 -13z"/>
<path d="M1804 2844 c-37 -39 -41 -49 -21 -60 6 -4 9 -3 4 1 -9 10 22 47 34 39 5 -3 9 2 9 11 0 8 7 18 15 21 8 4 15 10 15 15 0 19 -24 8 -56 -27z"/>
<path d="M1853 2745 c0 -44 2 -61 4 -37 2 23 2 59 0 80 -2 20 -4 1 -4 -43z"/>
<path d="M1821 2794 c0 -11 3 -14 6 -6 3 7 2 16 -1 19 -3 4 -6 -2 -5 -13z"/>
<path d="M1752 2750 c0 -14 2 -19 5 -12 2 6 2 18 0 25 -3 6 -5 1 -5 -13z"/>
<path d="M1782 2740 c0 -14 2 -19 5 -12 2 6 2 18 0 25 -3 6 -5 1 -5 -13z"/>
<path d="M1781 2694 c0 -11 3 -14 6 -6 3 7 2 16 -1 19 -3 4 -6 -2 -5 -13z"/>
<path d="M1891 2594 c0 -11 3 -14 6 -6 3 7 2 16 -1 19 -3 4 -6 -2 -5 -13z"/>
<path d="M1881 2534 c0 -11 3 -14 6 -6 3 7 2 16 -1 19 -3 4 -6 -2 -5 -13z"/>
<path d="M1701 4824 c0 -11 3 -14 6 -6 3 7 2 16 -1 19 -3 4 -6 -2 -5 -13z"/>
<path d="M1983 4655 c0 -27 2 -38 4 -22 2 15 2 37 0 50 -2 12 -4 0 -4 -28z"/>
<path d="M1974 4285 c0 -82 2 -115 3 -72 2 43 2 110 0 150 -1 40 -3 5 -3 -78z"/>
<path d="M1973 4095 c0 -22 2 -30 4 -17 2 12 2 30 0 40 -3 9 -5 -1 -4 -23z"/>
<path d="M1961 3934 c0 -11 3 -14 6 -6 3 7 2 16 -1 19 -3 4 -6 -2 -5 -13z"/>
<path d="M1962 3885 c0 -16 2 -22 5 -12 2 9 2 23 0 30 -3 6 -5 -1 -5 -18z"/>
<path d="M1982 3830 c0 -19 2 -27 5 -17 2 9 2 25 0 35 -3 9 -5 1 -5 -18z"/>
<path d="M1962 3820 c0 -19 2 -27 5 -17 2 9 2 25 0 35 -3 9 -5 1 -5 -18z"/>
<path d="M1982 3755 c0 -16 2 -22 5 -12 2 9 2 23 0 30 -3 6 -5 -1 -5 -18z"/>
<path d="M1961 3714 c0 -11 3 -14 6 -6 3 7 2 16 -1 19 -3 4 -6 -2 -5 -13z"/>
<path d="M1962 3670 c0 -14 2 -19 5 -12 2 6 2 18 0 25 -3 6 -5 1 -5 -13z"/>
<path d="M1964 3535 c0 -55 1 -76 3 -47 2 29 2 74 0 100 -2 26 -3 2 -3 -53z"/>
<path d="M1693 4355 c0 -27 2 -38 4 -22 2 15 2 37 0 50 -2 12 -4 0 -4 -28z"/>
<path d="M1691 4234 c0 -11 3 -14 6 -6 3 7 2 16 -1 19 -3 4 -6 -2 -5 -13z"/>
<path d="M1673 4065 c0 -22 2 -30 4 -17 2 12 2 30 0 40 -3 9 -5 -1 -4 -23z"/>
<path d="M1676 3997 c3 -10 9 -15 12 -12 3 3 0 11 -7 18 -10 9 -11 8 -5 -6z"/>
<path d="M1661 3124 c0 -11 3 -14 6 -6 3 7 2 16 -1 19 -3 4 -6 -2 -5 -13z"/>
<path d="M1665 2787 c-4 -10 -5 -21 -1 -24 10 -10 18 4 13 24 -4 17 -4 17 -12 0z"/>
<path d="M1660 2730 c0 -11 4 -20 8 -20 4 0 8 9 8 20 0 11 -4 20 -8 20 -4 0 -8 -9 -8 -20z"/>
<path d="M1651 2344 c0 -11 3 -14 6 -6 3 7 2 16 -1 19 -3 4 -6 -2 -5 -13z"/>
<path d="M1672 1910 c0 -14 2 -19 5 -12 2 6 2 18 0 25 -3 6 -5 1 -5 -13z"/>
<path d="M1942 2620 c0 -14 2 -19 5 -12 2 6 2 18 0 25 -3 6 -5 1 -5 -13z"/>
<path d="M1942 2555 c0 -16 2 -22 5 -12 2 9 2 23 0 30 -3 6 -5 -1 -5 -18z"/>
<path d="M1940 2420 c0 -57 2 -101 4 -99 8 7 9 189 2 196 -3 3 -6 -40 -6 -97z"/>
<path d="M1941 2294 c0 -11 3 -14 6 -6 3 7 2 16 -1 19 -3 4 -6 -2 -5 -13z"/>
<path d="M1906 1935 c-9 -26 -7 -32 5 -12 6 10 9 21 6 23 -2 3 -7 -2 -11 -11z"/>
<path d="M1886 1889 c5 -20 4 -21 -6 -9 -9 12 -10 11 -5 -9 5 -15 3 -21 -3 -17 -14 9 -32 -48 -21 -65 8 -12 10 -12 8 1 -3 31 1 51 10 46 14 -9 36 53 23 66 -8 8 -9 4 -6 -13z"/>
<path d="M1896 1843 c-6 -14 -5 -15 5 -6 7 7 10 15 7 18 -3 3 -9 -2 -12 -12z"/>
<path d="M1830 1785 c0 -5 5 -17 10 -25 5 -8 10 -10 10 -5 0 6 -5 17 -10 25 -5 8 -10 11 -10 5z"/>
<path d="M1846 1713 c-6 -14 -5 -15 5 -6 7 7 10 15 7 18 -3 3 -9 -2 -12 -12z"/>
</g>
</svg>