<?xml version="1.0" standalone="no"?><!DOCTYPE svg PUBLIC "-//W3C//DTD SVG 20010904//EN" "http://www.w3.org/TR/2001/REC-SVG-20010904/DTD/svg10.dtd"><svg xmlns="http://www.w3.org/2000/svg" version="1.0" width="11.9637mm" height="16mm" viewBox="0 0 298.992510 399.865216" preserveAspectRatio="xMidYMid meet">
<metadata>
Created by potrace 1.16, written by Peter Selinger 2001-2019
</metadata>
<g transform="translate(-67.000000,426.928538) scale(0.100000,-0.100000)" fill="#000000" stroke="none">
<path d="M2133 4255 c-18 -8 -52 -27 -75 -42 -24 -16 -70 -39 -103 -52 -90 -36 -141 -68 -200 -127 -94 -95 -157 -238 -168 -382 -3 -52 -3 -53 20 -48 13 3 34 9 48 12 15 4 34 0 49 -9 30 -20 73 -106 85 -170 10 -56 4 -62 -76 -73 -48 -6 -52 -5 -70 22 -26 42 -85 94 -105 94 -16 0 -18 -10 -18 -82 1 -66 5 -92 23 -125 29 -56 118 -147 239 -245 75 -60 110 -82 148 -91 27 -6 50 -14 50 -18 0 -13 -47 -47 -75 -54 -28 -6 -29 -8 -12 -20 23 -16 47 -5 99 45 60 58 226 91 321 63 l29 -9 -49 -31 c-89 -57 -123 -71 -193 -80 -36 -5 -80 21 -80 46 0 6 -4 11 -10 11 -14 0 -12 -16 5 -50 34 -66 166 -41 320 60 55 36 94 50 143 50 27 0 75 9 108 21 32 11 74 23 92 26 29 5 50 19 40 28 -2 2 -76 0 -164 -4 -88 -5 -178 -5 -199 -1 -49 11 -158 38 -204 52 -87 26 -172 108 -194 186 -21 74 -1 268 31 305 8 9 20 27 26 39 17 33 106 74 106 49 0 -5 -4 -12 -9 -15 -19 -12 -57 -159 -45 -177 10 -16 24 9 24 45 0 16 11 49 25 72 30 51 81 73 128 55 26 -10 27 -13 20 -48 -13 -61 -7 -194 8 -204 26 -16 59 -10 68 14 24 61 33 109 30 160 l-4 56 33 -32 c19 -18 40 -44 48 -59 23 -44 53 -46 89 -6 16 19 41 39 54 43 l23 7 -5 -88 c-6 -116 2 -169 27 -169 24 0 45 58 49 132 2 46 4 51 15 36 14 -20 8 -83 -14 -147 -18 -50 -19 -206 -1 -206 15 0 36 57 49 135 15 97 29 166 46 228 31 119 -8 381 -72 478 -34 51 -162 156 -206 169 -42 12 -90 13 -90 2 0 -4 11 -24 25 -44 19 -28 36 -40 68 -48 23 -6 53 -14 67 -18 32 -9 50 -46 50 -102 l0 -45 -109 0 -109 0 -11 30 c-6 16 -13 56 -17 88 -7 56 -6 57 19 57 38 0 39 11 6 63 -30 48 -61 61 -87 35 -9 -9 -19 -3 -45 25 -30 34 -38 37 -88 38 -39 0 -49 3 -34 9 35 15 218 11 265 -5 58 -20 82 -20 78 3 -2 10 -22 23 -53 34 -65 21 -255 24 -302 3z"/>
<path d="M3038 4235 c-24 -13 -68 -86 -68 -112 0 -6 -23 -35 -50 -64 -52 -56 -66 -72 -112 -143 -32 -47 -34 -70 -14 -158 27 -118 30 -181 11 -262 l-18 -75 27 -98 c30 -107 71 -197 117 -256 30 -36 56 -94 47 -102 -2 -3 -40 -10 -83 -16 -44 -6 -88 -15 -99 -21 -11 -6 -47 -10 -80 -10 -102 2 -114 -7 -160 -122 -19 -45 -21 -149 -5 -230 14 -66 -1 -154 -29 -179 -21 -19 -127 -47 -167 -45 -28 2 -119 -11 -230 -32 -167 -31 -235 -41 -243 -36 -5 3 -13 47 -16 98 -12 162 -34 200 -81 148 -29 -33 -41 -24 -60 46 -20 74 -17 85 42 154 36 41 41 60 18 60 -15 0 -95 -78 -95 -92 0 -19 -25 -4 -78 45 -147 139 -242 200 -322 207 l-54 5 -12 59 c-8 42 -20 67 -42 89 -28 27 -36 30 -90 28 -33 -1 -63 3 -67 9 -7 11 -90 13 -117 2 -9 -4 -66 -53 -127 -110 l-111 -104 0 -72 c0 -71 1 -74 42 -122 23 -27 93 -101 155 -165 68 -70 113 -124 113 -136 0 -27 38 -67 90 -93 73 -37 401 -141 465 -147 48 -4 63 -2 74 10 7 9 34 23 60 32 35 11 67 35 116 83 l67 67 -5 -75 c-2 -41 -10 -124 -18 -183 -10 -81 -10 -116 -1 -140 6 -18 8 -44 6 -58 -5 -24 -3 -27 36 -32 23 -3 59 -17 81 -31 42 -28 47 -47 28 -107 -12 -38 -14 -44 -58 -150 l-32 -75 -91 3 c-50 1 -93 5 -96 8 -3 3 4 5 16 5 26 0 39 18 19 26 -25 9 -90 -31 -134 -84 -59 -69 -77 -103 -108 -207 -34 -114 -63 -180 -96 -221 -15 -19 -47 -95 -74 -176 -26 -79 -51 -148 -56 -154 -5 -7 -23 -14 -39 -17 -34 -7 -220 -189 -220 -216 0 -10 13 -22 33 -29 58 -21 92 -15 143 25 67 51 136 93 151 93 26 0 12 -27 -40 -78 -41 -41 -60 -52 -84 -52 -23 0 -33 -6 -38 -21 -6 -18 -13 -20 -48 -16 -23 2 -63 13 -90 23 -35 14 -51 16 -64 8 -22 -14 -49 -61 -58 -102 -5 -25 -12 -32 -30 -32 -13 0 -26 -4 -29 -9 -17 -26 474 -22 547 5 29 11 103 14 340 14 290 0 303 1 337 21 67 41 77 66 96 229 17 158 18 248 1 291 -8 19 -15 78 -16 134 -4 173 -25 262 -72 308 -21 20 -24 8 46 172 26 61 60 148 75 195 24 73 32 85 52 88 40 5 79 -16 91 -48 6 -17 15 -30 19 -30 15 0 8 41 -17 100 -35 82 -33 97 21 146 55 51 135 84 206 84 43 0 57 -5 80 -27 24 -23 31 -25 38 -13 28 45 17 168 -26 301 -17 52 -17 68 6 263 14 120 30 150 94 180 49 23 289 101 342 110 14 3 55 15 90 26 73 25 95 47 143 143 18 37 41 69 51 72 23 7 44 39 93 139 61 126 79 221 84 433 3 166 2 185 -18 234 -23 59 -110 174 -163 214 -18 14 -48 52 -65 85 -18 33 -41 64 -51 70 -29 16 -210 12 -242 -5z"/>
<path d="M2353 3222 c-44 -7 -22 -18 60 -30 45 -7 97 -15 115 -18 19 -4 32 -2 32 4 0 20 -152 52 -207 44z"/>
<path d="M2674 1646 c-3 -8 27 -77 66 -153 61 -119 71 -145 65 -171 -3 -18 -12 -32 -19 -32 -16 0 -103 175 -116 235 -6 28 -20 61 -31 74 -25 30 -40 19 -70 -55 -22 -52 -48 -70 -64 -44 -7 12 -45 14 -45 3 0 -5 11 -26 24 -47 l23 -39 -25 -49 -25 -48 17 -107 c9 -60 25 -146 35 -192 13 -61 16 -93 9 -117 -7 -28 -3 -51 28 -136 67 -190 95 -283 105 -348 18 -118 61 -149 186 -134 76 9 316 2 400 -11 47 -8 63 7 47 42 -15 35 -12 143 4 143 4 0 27 -31 52 -67 86 -128 79 -123 183 -122 153 1 165 26 98 196 -106 266 -240 538 -337 683 -149 223 -232 321 -326 384 -29 19 -66 47 -82 61 -16 14 -35 25 -41 25 -7 0 -32 9 -56 20 -52 23 -97 26 -105 6z"/>
</g>
<path d="M 218.826 278.742 L 218.858 278.766 L 219.141 278.974 L 219.154 278.984 L 219.438 279.192 L 219.475 279.219 L 219.759 279.425 L 219.792 279.448 L 220.077 279.653 L 220.09 279.663 L 220.376 279.868 L 220.414 279.895 L 220.7 280.098 L 220.713 280.107 L 221 280.31 L 221.052 280.347 L 221.34 280.548 L 221.353 280.557 L 221.642 280.758 L 221.681 280.785 L 221.97 280.984 L 222.002 281.006 L 222.292 281.204 L 222.344 281.239 L 222.635 281.435 L 222.681 281.466 L 222.974 281.661 L 222.994 281.674 L 223.221 281.824 L 223.441 281.972 L 223.731 282.171 L 223.922 282.303 L 224.209 282.505 L 224.379 282.626 L 224.626 282.805 L 224.91 283.013 L 225.083 283.141 L 225.338 283.333 L 225.589 283.525 L 225.789 283.68 L 226.003 283.847 L 226.278 284.065 L 226.458 284.211 L 226.73 284.432 L 226.905 284.577 L 227.175 284.802 L 227.352 284.951 L 227.558 285.127 L 227.807 285.343 L 228.072 285.574 L 228.245 285.727 L 228.447 285.907 L 228.677 286.116 L 228.936 286.353 L 229.165 286.564 L 229.377 286.762 L 229.544 286.92 L 229.769 287.136 L 230.022 287.38 L 230.246 287.597 L 230.438 287.786 L 230.688 288.033 L 230.851 288.197 L 231.098 288.447 L 231.287 288.639 L 231.504 288.863 L 231.748 289.116 L 231.964 289.341 L 232.149 289.537 L 232.363 289.764 L 232.561 289.976 L 233.037 290.492 L 233.206 290.677 L 233.415 290.909 L 233.636 291.155 L 233.843 291.387 L 234.062 291.634 L 234.294 291.897 L 234.474 292.102 L 234.473 292.102 L 234.703 292.367 L 234.704 292.367 L 234.907 292.602 L 235.11 292.838 L 235.312 293.074 L 235.513 293.311 L 235.939 293.819 L 236.15 294.072 L 236.374 294.342 L 236.561 294.568 L 236.77 294.823 L 236.967 295.064 L 237.395 295.593 L 237.615 295.866 L 237.81 296.109 L 238.004 296.352 L 238.211 296.613 L 238.647 297.165 L 239.233 297.916 L 239.232 297.916 L 239.662 298.472 L 239.837 298.701 L 239.862 298.733 L 240.041 298.965 L 240.24 299.227 L 240.452 299.507 L 240.466 299.525 L 240.651 299.769 L 240.852 300.036 L 241.26 300.579 L 241.47 300.86 L 241.474 300.865 L 241.685 301.147 L 242.066 301.661 L 242.261 301.925 L 242.664 302.473 L 242.663 302.473 L 242.86 302.742 L 243.261 303.292 L 243.467 303.576 L 243.471 303.581 L 243.66 303.842 L 243.859 304.118 L 244.065 304.404 L 244.066 304.403 L 244.449 304.936 L 245.047 305.775 L 245.25 306.061 L 245.254 306.067 L 245.458 306.354 L 245.634 306.603 L 245.836 306.89 L 245.85 306.909 L 246.039 307.177 L 246.443 307.751 L 246.621 308.006 L 246.635 308.025 L 246.823 308.294 L 247.203 308.838 L 247.403 309.127 L 247.425 309.159 L 247.604 309.415 L 247.99 309.973 L 248.189 310.262 L 248.203 310.282 L 248.389 310.551 L 248.579 310.827 L 248.778 311.117 L 248.787 311.13 L 248.977 311.406 L 249.163 311.677 L 249.559 312.257 L 249.572 312.276 L 249.771 312.566 L 249.942 312.817 L 249.946 312.824 L 250.144 313.115 L 250.153 313.128 L 250.351 313.418 L 250.723 313.967 L 250.732 313.98 L 250.92 314.257 L 251.095 314.515 L 251.291 314.807 L 251.313 314.84 L 251.497 315.112 L 251.88 315.68 L 252.272 316.264 L 252.281 316.278 L 252.455 316.536 L 252.65 316.828 L 252.663 316.847 L 252.846 317.12 L 253.214 317.671 L 253.567 318.204 L 253.951 318.792 L 254.099 319.021 L 254.479 319.613 L 254.634 319.856 L 254.633 319.856 L 255.009 320.45 L 255.162 320.693 L 255.34 320.978 L 255.521 321.27 L 255.677 321.522 L 255.861 321.822 L 255.862 321.822 L 256.032 322.1 L 256.365 322.646 L 256.546 322.947 L 256.559 322.967 L 256.716 323.226 L 256.715 323.227 L 256.895 323.528 L 256.9 323.536 L 257.056 323.796 L 257.593 324.702 L 257.917 325.253 L 258.087 325.544 L 258.252 325.827 L 258.591 326.413 L 258.759 326.705 L 259.097 327.294 L 259.426 327.87 L 259.587 328.154 L 259.759 328.46 L 259.771 328.482 L 259.932 328.766 L 260.097 329.06 L 260.264 329.358 L 260.263 329.358 L 260.434 329.664 L 260.435 329.663 L 260.587 329.937 L 260.757 330.244 L 260.762 330.253 L 260.928 330.552 L 261.079 330.825 L 261.574 331.727 L 261.735 332.023 L 261.903 332.332 L 261.91 332.344 L 262.078 332.652 L 262.542 333.511 L 262.874 334.131 L 262.881 334.143 L 263.04 334.44 L 263.194 334.728 L 263.506 335.314 L 263.67 335.625 L 263.677 335.637 L 263.835 335.935 L 263.834 335.935 L 264.162 336.557 L 264.622 337.434 L 264.946 338.058 L 264.952 338.069 L 265.108 338.369 L 265.258 338.658 L 265.413 338.959 L 265.574 339.272 L 265.58 339.283 L 265.73 339.573 L 265.89 339.885 L 265.895 339.896 L 266.056 340.209 L 266.057 340.209 L 266.193 340.476 L 266.352 340.789 L 266.364 340.812 L 266.512 341.102 L 266.813 341.694 L 266.971 342.008 L 266.988 342.042 L 267.13 342.321 L 267.593 343.241 L 268.058 344.171 L 268.209 344.475 L 268.365 344.789 L 268.366 344.789 L 268.672 345.407 L 268.677 345.419 L 268.833 345.733 L 268.834 345.733 L 268.967 346.002 L 269.122 346.318 L 269.127 346.33 L 269.437 346.96 L 269.438 346.96 L 269.575 347.241 L 269.58 347.253 L 269.734 347.568 L 269.735 347.568 L 270.18 348.481 L 270.179 348.481 L 270.633 349.418 L 270.78 349.723 L 270.932 350.039 L 270.938 350.051 L 271.085 350.356 L 271.235 350.668 L 271.372 350.955 L 271.383 350.978 L 271.676 351.589 L 271.816 351.883 L 271.966 352.2 L 271.972 352.212 L 272.123 352.53 L 272.128 352.541 L 272.263 352.824 L 272.413 353.142 L 272.418 353.153 L 272.563 353.459 L 272.852 354.071 L 273.443 355.333 L 273.586 355.639 L 273.877 356.264 L 274.173 356.902 L 274.178 356.913 L 274.31 357.197 L 274.452 357.505 L 274.599 357.825 L 274.604 357.836 L 274.887 358.45 L 275.174 359.077 L 275.32 359.397 L 275.336 359.432 L 275.483 359.751 L 275.747 360.333 L 275.757 360.356 L 275.893 360.653 L 276.172 361.269 L 276.316 361.589 L 276.327 361.613 L 276.461 361.909 L 276.6 362.219 L 276.744 362.54 L 276.749 362.55 L 276.888 362.86 L 277.026 363.168 L 277.164 363.477 L 277.307 363.798 L 277.318 363.822 L 277.451 364.119 L 277.594 364.44 L 277.595 364.44 L 277.868 365.058 L 277.878 365.082 L 278.006 365.369 L 278.148 365.691 L 278.153 365.701 L 278.284 365.998 L 278.425 366.319 L 278.431 366.333 L 278.573 366.655 L 278.704 366.953 L 278.708 366.963 L 278.845 367.274 L 279.116 367.894 L 279.532 368.85 L 279.672 369.173 L 279.676 369.183 L 279.816 369.505 L 279.817 369.505 L 279.941 369.794 L 279.945 369.804 L 280.084 370.126 L 280.09 370.14 L 280.214 370.425 L 280.358 370.761 L 280.487 371.06 L 280.486 371.06 L 280.624 371.383 L 280.635 371.407 L 280.753 371.681 L 280.89 372.004 L 280.9 372.029 L 281.176 372.675 L 281.177 372.675 L 281.294 372.95 L 281.43 373.273 L 281.436 373.287 L 281.573 373.611 L 281.577 373.621 L 281.71 373.934 L 281.841 374.244 L 281.973 374.557 L 281.972 374.557 L 282.108 374.881 L 282.119 374.905 L 282.236 375.181 L 282.235 375.181 L 282.38 375.529 L 282.506 375.829 L 282.637 376.143 L 282.772 376.468 L 282.776 376.478 L 282.907 376.792 L 283.036 377.103 L 283.17 377.427 L 283.176 377.441 L 283.305 377.752 L 283.435 378.066 L 283.559 378.366 L 283.692 378.691 L 283.702 378.716 L 283.826 379.016 L 284.344 380.282 L 284.476 380.608 L 284.48 380.618 L 284.608 380.933 L 284.872 381.585 L 284.876 381.595 L 284.994 381.885 L 285.377 382.839 L 285.507 383.165 L 285.517 383.189 L 285.648 383.515 L 285.759 383.793 L 285.884 384.109 L 286 384.402 L 285.999 384.402 L 286.127 384.73 L 286.238 385.017 L 286.244 385.033 L 286.361 385.336 L 286.487 385.664 L 286.715 386.261 L 286.83 386.565 L 286.829 386.565 L 286.952 386.894 L 286.953 386.894 L 287.056 387.174 L 287.164 387.468 L 287.272 387.764 L 287.382 388.07 L 287.482 388.35 L 287.595 388.672 L 287.696 388.961 L 287.708 388.994 L 287.711 389.004 L 287.789 389.235 L 287.887 389.525 L 287.971 389.776 L 287.929 389.778 L 287.674 389.787 L 287.34 389.797 L 287.34 389.798 L 287.046 389.805 L 286.724 389.812 L 286.406 389.818 L 286.078 389.823 L 285.404 389.831 L 285.082 389.834 L 285.053 389.834 L 284.701 389.838 L 283.999 389.846 L 283.676 389.849 L 283.647 389.849 L 283.296 389.853 L 282.623 389.859 L 282.328 389.861 L 282.328 389.86 L 282.005 389.861 L 281.682 389.86 L 281.682 389.861 L 281.444 389.858 L 281.093 389.853 L 280.942 389.849 L 280.715 389.841 L 280.568 389.66 L 280.454 389.515 L 280.261 389.266 L 280.11 389.068 L 279.948 388.85 L 279.809 388.661 L 279.608 388.384 L 279.436 388.144 L 279.26 387.896 L 279.104 387.673 L 278.903 387.385 L 278.716 387.116 L 278.551 386.878 L 278.552 386.878 L 278.354 386.589 L 278.174 386.324 L 278.165 386.311 L 277.967 386.021 L 277.411 385.2 L 277.215 384.909 L 277.028 384.631 L 277.019 384.617 L 276.823 384.326 L 276.636 384.048 L 276.627 384.034 L 276.431 383.743 L 276.258 383.484 L 276.245 383.465 L 275.853 382.881 L 275.844 382.867 L 275.648 382.576 L 275.461 382.298 L 275.452 382.284 L 275.256 381.993 L 275.163 381.857 L 274.761 381.281 L 274.747 381.262 L 274.545 380.974 L 274.536 380.96 L 274.132 380.386 L 274.105 380.348 L 273.901 380.061 L 273.702 379.781 L 273.675 379.743 L 273.47 379.457 L 273.27 379.177 L 273.243 379.14 L 273.037 378.855 L 273.014 378.823 L 272.6 378.255 L 272.576 378.223 L 272.368 377.94 L 272.331 377.889 L 272.121 377.607 L 272.097 377.575 L 271.886 377.294 L 271.862 377.263 L 271.65 376.983 L 271.601 376.919 L 271.387 376.641 L 271.349 376.592 L 271.133 376.315 L 271.084 376.252 L 270.866 375.977 L 270.788 375.88 L 270.566 375.607 L 270.464 375.484 L 270.238 375.215 L 270.054 375.002 L 269.821 374.74 L 269.49 374.386 L 269.244 374.135 L 267.88 372.972 L 267.596 372.771 L 265.859 371.786 L 263.96 371.166 L 261.976 370.936 L 259.986 371.104 L 258.043 371.676 L 257.727 371.805 L 255.962 372.741 L 254.419 374.008 L 253.518 375.048 L 253.308 375.327 L 252.254 377.074 L 252.104 377.392 L 251.72 378.325 L 251.603 378.656 L 251.404 379.283 L 251.309 379.621 L 251.205 380.022 L 251.124 380.364 L 251.045 380.729 L 250.977 381.073 L 250.934 381.309 L 250.874 381.656 L 250.838 381.877 L 250.786 382.224 L 250.757 382.428 L 250.712 382.777 L 250.692 382.945 L 250.653 383.294 L 250.638 383.435 L 250.604 383.784 L 250.594 383.899 L 250.564 384.249 L 250.553 384.393 L 250.528 384.744 L 250.522 384.827 L 250.5 385.177 L 250.492 385.32 L 250.475 385.671 L 250.471 385.757 L 250.457 386.108 L 250.454 386.193 L 250.443 386.544 L 250.44 386.658 L 250.433 387.009 L 250.432 387.094 L 250.428 387.446 L 250.427 387.532 L 250.426 387.883 L 250.427 387.968 L 250.429 388.319 L 250.43 388.432 L 250.435 388.733 L 250.214 388.717 L 250.183 388.715 L 249.834 388.69 L 249.484 388.665 L 249.454 388.663 L 249.105 388.639 L 248.755 388.615 L 248.725 388.613 L 248.374 388.59 L 248.347 388.588 L 247.997 388.566 L 247.995 388.566 L 247.646 388.544 L 247.296 388.522 L 247.266 388.52 L 246.915 388.499 L 246.887 388.498 L 246.186 388.458 L 245.836 388.438 L 245.806 388.436 L 245.104 388.398 L 245.076 388.396 L 244.725 388.378 L 244.725 388.379 L 244.376 388.361 L 244.347 388.359 L 243.294 388.308 L 243.265 388.307 L 242.212 388.259 L 242.184 388.257 L 241.482 388.227 L 241.453 388.226 L 240.4 388.184 L 240.372 388.183 L 239.67 388.157 L 239.642 388.156 L 239.304 388.144 L 238.968 388.132 L 238.911 388.13 L 238.56 388.119 L 238.238 388.108 L 238.209 388.107 L 237.858 388.096 L 237.506 388.085 L 237.155 388.074 L 237.127 388.073 L 236.776 388.063 L 236.747 388.063 L 236.425 388.055 L 236.425 388.054 L 236.074 388.044 L 236.045 388.044 L 235.694 388.035 L 235.342 388.026 L 235.314 388.025 L 234.261 388.001 L 234.232 388 L 233.881 387.993 L 233.529 387.986 L 233.178 387.979 L 233.15 387.979 L 232.448 387.967 L 232.419 387.966 L 232.067 387.961 L 231.365 387.951 L 231.337 387.951 L 230.986 387.947 L 230.634 387.943 L 230.283 387.939 L 230.254 387.939 L 229.903 387.936 L 229.875 387.936 L 229.552 387.934 L 229.2 387.931 L 229.143 387.93 L 228.792 387.929 L 228.792 387.93 L 228.47 387.928 L 228.413 387.927 L 228.089 387.927 L 227.738 387.926 L 227.331 387.926 L 226.979 387.927 L 226.628 387.928 L 226.599 387.929 L 225.897 387.933 L 225.869 387.933 L 225.517 387.936 L 225.166 387.939 L 225.137 387.939 L 224.786 387.943 L 224.758 387.943 L 224.407 387.948 L 224.055 387.953 L 224.026 387.954 L 223.675 387.96 L 223.647 387.96 L 222.945 387.974 L 222.917 387.975 L 222.565 387.983 L 222.536 387.984 L 222.185 387.993 L 222.156 387.993 L 221.805 388.003 L 221.777 388.004 L 221.426 388.015 L 221.397 388.016 L 221.046 388.028 L 221.018 388.029 L 220.667 388.042 L 220.639 388.043 L 220.288 388.057 L 220.259 388.058 L 219.908 388.073 L 219.88 388.075 L 219.529 388.091 L 219.472 388.093 L 219.121 388.111 L 219.064 388.115 L 218.713 388.135 L 218.683 388.136 L 218.333 388.157 L 218.278 388.161 L 217.927 388.184 L 217.869 388.188 L 217.519 388.213 L 217.434 388.219 L 217.084 388.247 L 217.027 388.252 L 216.677 388.282 L 216.564 388.292 L 216.214 388.326 L 216.127 388.335 L 215.778 388.372 L 215.666 388.385 L 215.345 388.423 L 215.345 388.422 L 214.996 388.462 L 214.786 388.485 L 214.497 388.514 L 214.147 388.547 L 214.147 388.548 L 213.909 388.569 L 213.588 388.595 L 213.328 388.614 L 213.048 388.633 L 212.848 388.644 L 212.559 388.658 L 212.3 388.668 L 212.032 388.676 L 211.743 388.682 L 211.606 388.683 L 211.606 388.682 L 211.285 388.681 L 211.149 388.679 L 210.914 388.671 L 210.676 388.661 L 210.477 388.649 L 210.333 388.638 L 210.118 388.619 L 209.968 388.602 L 209.835 388.584 L 209.695 388.563 L 209.539 388.536 L 209.452 388.519 L 209.34 388.494 L 209.31 388.486 L 209.305 388.485 L 209.269 388.417 L 209.207 388.292 L 209.177 388.227 L 209.12 388.096 L 209.059 387.948 L 209.008 387.819 L 208.935 387.62 L 208.896 387.507 L 208.825 387.295 L 208.774 387.131 L 208.698 386.877 L 208.663 386.753 L 208.598 386.511 L 208.534 386.261 L 208.47 385.997 L 208.414 385.757 L 208.359 385.507 L 208.307 385.263 L 208.263 385.039 L 208.215 384.792 L 208.168 384.541 L 208.11 384.21 L 208.067 383.951 L 208.019 383.656 L 207.914 382.994 L 207.905 382.939 L 207.848 382.592 L 207.834 382.504 L 207.774 382.158 L 207.769 382.13 L 207.708 381.784 L 207.692 381.697 L 207.628 381.352 L 207.612 381.269 L 207.545 380.924 L 207.54 380.897 L 207.472 380.552 L 207.46 380.492 L 207.39 380.148 L 207.379 380.093 L 207.307 379.749 L 207.301 379.722 L 207.228 379.378 L 207.209 379.29 L 207.133 378.947 L 207.132 378.941 L 207.056 378.599 L 207.039 378.524 L 206.96 378.181 L 206.952 378.148 L 206.872 377.806 L 206.866 377.779 L 206.785 377.437 L 206.777 377.404 L 206.695 377.063 L 206.681 377.009 L 206.597 376.668 L 206.584 376.614 L 206.412 375.932 L 206.404 375.899 L 206.317 375.559 L 206.303 375.506 L 206.214 375.166 L 206.207 375.139 L 206.117 374.799 L 206.115 374.792 L 206.025 374.453 L 206.011 374.4 L 205.827 373.722 L 205.819 373.695 L 205.726 373.356 L 205.71 373.296 L 205.425 372.282 L 205.41 372.229 L 205.216 371.553 L 205.206 371.52 L 205.108 371.183 L 205.1 371.156 L 204.902 370.482 L 204.895 370.456 L 204.695 369.782 L 204.684 369.748 L 204.583 369.412 L 204.576 369.386 L 204.372 368.714 L 204.364 368.688 L 204.055 367.68 L 204.036 367.62 L 203.931 367.285 L 203.838 366.983 L 203.827 366.949 L 203.617 366.279 L 203.609 366.253 L 203.397 365.583 L 203.389 365.557 L 203.282 365.222 L 203.279 365.214 L 203.172 364.88 L 203.068 364.553 L 203.057 364.519 L 202.949 364.185 L 202.948 364.185 L 202.843 363.859 L 202.841 363.85 L 202.733 363.516 L 202.724 363.491 L 202.288 362.155 L 202.277 362.12 L 202.167 361.787 L 202.06 361.462 L 202.057 361.453 L 201.947 361.12 L 201.84 360.795 L 201.829 360.761 L 201.718 360.428 L 201.712 360.411 L 201.6 360.077 L 201.384 359.428 L 201.375 359.402 L 200.927 358.07 L 200.918 358.045 L 200.805 357.712 L 200.699 357.397 L 200.693 357.38 L 200.467 356.714 L 200.465 356.705 L 200.352 356.373 L 200.346 356.356 L 200.232 356.023 L 200.125 355.708 L 200.116 355.682 L 200.002 355.35 L 199.891 355.026 L 199.888 355.017 L 199.66 354.353 L 199.651 354.328 L 199.536 353.996 L 199.434 353.697 L 199.422 353.663 L 199.316 353.356 L 199.202 353.024 L 199.193 352.999 L 199.078 352.667 L 199.075 352.658 L 198.96 352.327 L 198.848 352.004 L 198.839 351.979 L 198.723 351.647 L 198.617 351.34 L 198.608 351.315 L 198.492 350.983 L 198.383 350.668 L 198.377 350.652 L 198.145 349.988 L 198.142 349.979 L 198.026 349.648 L 197.797 348.993 L 197.794 348.984 L 197.678 348.653 L 197.669 348.627 L 197.552 348.296 L 197.448 347.999 L 197.436 347.964 L 197.319 347.633 L 197.215 347.336 L 197.203 347.301 L 197.086 346.97 L 197.077 346.945 L 196.959 346.614 L 196.938 346.555 L 196.698 345.895 L 196.591 345.598 L 196.246 344.63 L 196.148 344.35 L 196.035 344.027 L 195.926 343.712 L 195.827 343.422 L 195.824 343.413 L 195.71 343.081 L 195.618 342.808 L 195.516 342.501 L 195.515 342.501 L 195.434 342.252 L 195.435 342.252 L 195.327 341.918 L 195.231 341.617 L 195.145 341.341 L 195.064 341.076 L 194.976 340.781 L 194.917 340.577 L 194.856 340.357 L 194.775 340.057 L 194.706 339.791 L 194.673 339.657 L 194.622 339.436 L 194.586 339.269 L 194.548 339.075 L 194.535 339 L 194.518 338.891 L 194.521 338.88 L 194.536 338.82 L 194.621 338.479 L 194.711 338.082 L 194.782 337.738 L 194.851 337.37 L 194.909 337.024 L 194.965 336.649 L 195.01 336.3 L 195.047 335.963 L 195.08 335.614 L 195.103 335.327 L 195.126 334.976 L 195.142 334.664 L 195.154 334.313 L 195.159 334.085 L 195.163 333.734 L 195.163 333.506 L 195.159 333.155 L 195.155 332.957 L 195.144 332.605 L 195.137 332.432 L 195.12 332.082 L 195.11 331.913 L 195.087 331.562 L 195.075 331.391 L 195.046 331.041 L 195.036 330.928 L 195.003 330.578 L 194.988 330.434 L 194.95 330.085 L 194.94 330.001 L 194.899 329.652 L 194.885 329.536 L 194.84 329.188 L 194.829 329.104 L 194.781 328.756 L 194.773 328.7 L 194.723 328.352 L 194.706 328.237 L 194.652 327.89 L 194.643 327.834 L 194.587 327.487 L 194.582 327.455 L 194.525 327.109 L 194.511 327.031 L 194.451 326.684 L 194.44 326.619 L 194.378 326.274 L 194.374 326.251 L 194.311 325.905 L 194.3 325.845 L 194.235 325.5 L 194.23 325.473 L 194.164 325.128 L 194.153 325.073 L 194.085 324.728 L 194.08 324.7 L 194.011 324.355 L 194.009 324.35 L 193.94 324.006 L 193.929 323.951 L 193.858 323.607 L 193.853 323.58 L 193.709 322.892 L 193.696 322.832 L 193.622 322.489 L 193.554 322.172 L 193.481 321.829 L 193.422 321.545 L 193.417 321.518 L 193.345 321.174 L 193.344 321.174 L 193.279 320.857 L 193.145 320.197 L 193.086 319.906 L 193.018 319.562 L 193.014 319.54 L 192.945 319.195 L 192.881 318.873 L 192.814 318.534 L 192.623 317.554 L 192.624 317.554 L 192.558 317.209 L 192.552 317.181 L 192.49 316.864 L 192.491 316.864 L 192.425 316.519 L 192.235 315.511 L 192.171 315.17 L 192.047 314.503 L 191.984 314.162 L 191.925 313.839 L 191.8 313.152 L 191.799 313.147 L 191.736 312.802 L 191.618 312.143 L 191.562 311.824 L 191.556 311.792 L 191.494 311.447 L 191.378 310.787 L 191.323 310.469 L 191.318 310.441 L 191.257 310.095 L 191.256 310.095 L 191.202 309.781 L 191.029 308.766 L 190.971 308.423 L 190.917 308.1 L 190.86 307.758 L 190.807 307.435 L 190.806 307.435 L 190.693 306.746 L 190.641 306.423 L 190.586 306.08 L 190.539 305.789 L 190.54 305.789 L 190.486 305.442 L 190.481 305.414 L 190.436 305.127 L 190.383 304.779 L 190.382 304.775 L 190.276 304.081 L 190.267 304.025 L 190.102 302.984 L 190.098 302.956 L 190.042 302.609 L 189.716 300.555 L 189.716 300.551 L 189.661 300.205 L 189.657 300.181 L 189.601 299.834 L 189.22 297.433 L 189.216 297.405 L 189.16 297.058 L 189.09 296.62 L 189.221 296.37 L 189.239 296.336 L 189.545 295.746 L 189.708 295.435 L 189.726 295.401 L 189.882 295.1 L 190.044 294.789 L 190.079 294.721 L 190.399 294.095 L 190.411 294.072 L 190.558 293.782 L 190.878 293.156 L 190.89 293.133 L 191.037 292.843 L 191.191 292.542 L 191.351 292.23 L 191.369 292.195 L 191.516 291.905 L 191.836 291.279 L 191.848 291.256 L 191.995 290.966 L 192.315 290.34 L 192.327 290.317 L 192.486 290.004 L 193.176 288.256 L 193.266 287.945 L 193.601 286.116 L 193.661 286.256 L 193.801 286.579 L 193.82 286.623 L 193.961 286.944 L 193.967 286.958 L 194.109 287.28 L 194.114 287.29 L 194.256 287.611 L 194.282 287.669 L 194.426 287.989 L 194.432 288.002 L 194.577 288.323 L 194.586 288.345 L 194.731 288.664 L 194.737 288.676 L 194.883 288.996 L 194.899 289.031 L 195.046 289.35 L 195.062 289.384 L 195.21 289.702 L 195.216 289.715 L 195.365 290.034 L 195.386 290.079 L 195.531 290.385 L 195.681 290.703 L 195.697 290.737 L 195.848 291.054 L 195.859 291.077 L 196.011 291.394 L 196.027 291.428 L 196.18 291.744 L 196.192 291.767 L 196.5 292.399 L 196.516 292.434 L 196.671 292.749 L 196.688 292.783 L 196.844 293.097 L 196.85 293.108 L 197.007 293.423 L 197.024 293.457 L 197.182 293.771 L 197.199 293.805 L 197.517 294.431 L 197.529 294.454 L 197.689 294.767 L 197.718 294.824 L 197.88 295.136 L 197.886 295.147 L 198.048 295.458 L 198.06 295.481 L 198.223 295.792 L 198.234 295.814 L 198.398 296.125 L 198.428 296.181 L 198.594 296.491 L 198.601 296.503 L 198.767 296.812 L 198.79 296.856 L 198.958 297.165 L 198.965 297.177 L 199.157 297.529 L 199.327 297.837 L 199.365 297.904 L 199.537 298.21 L 199.549 298.232 L 199.722 298.538 L 199.741 298.572 L 199.915 298.877 L 199.947 298.932 L 200.123 299.236 L 200.155 299.291 L 200.333 299.594 L 200.372 299.661 L 200.552 299.962 L 200.59 300.024 L 200.773 300.325 L 200.809 300.384 L 200.993 300.682 L 201.052 300.777 L 201.24 301.074 L 201.309 301.18 L 201.501 301.475 L 201.566 301.574 L 201.761 301.866 L 201.863 302.016 L 202.063 302.304 L 202.186 302.477 L 202.393 302.762 L 202.56 302.985 L 202.774 303.263 L 203.067 303.626 L 203.294 303.894 L 203.783 304.43 L 204.029 304.681 L 205.304 305.78 L 205.587 305.985 L 207.313 306.989 L 209.204 307.63 L 211.276 307.884 L 211.618 307.89 L 213.608 307.726 L 215.526 307.169 L 216.694 306.608 L 216.998 306.437 L 218.963 304.989 L 219.218 304.748 L 220.235 303.63 L 220.451 303.353 L 221.015 302.553 L 221.203 302.256 L 221.592 301.584 L 221.756 301.274 L 222.052 300.667 L 222.195 300.346 L 222.404 299.838 L 222.529 299.51 L 222.7 299.026 L 222.808 298.692 L 222.944 298.234 L 223.036 297.895 L 223.155 297.406 L 223.23 297.062 L 223.27 296.872 L 223.338 296.528 L 223.376 296.325 L 223.437 295.979 L 223.524 295.381 L 223.564 295.032 L 223.616 294.406 L 223.634 294.055 L 223.646 293.401 L 223.641 293.05 L 223.616 292.48 L 223.591 292.13 L 223.535 291.564 L 223.49 291.215 L 223.425 290.785 L 223.365 290.439 L 223.293 290.066 L 223.22 289.723 L 223.135 289.359 L 223.049 289.018 L 222.98 288.758 L 222.885 288.42 L 222.819 288.195 L 222.716 287.859 L 222.65 287.653 L 222.54 287.32 L 222.485 287.159 L 222.369 286.827 L 222.318 286.683 L 222.197 286.353 L 222.143 286.209 L 222.017 285.881 L 221.984 285.798 L 221.855 285.471 L 221.818 285.377 L 221.686 285.052 L 221.642 284.945 L 221.506 284.621 L 221.491 284.587 L 221.354 284.264 L 221.323 284.191 L 221.183 283.868 L 221.153 283.8 L 221.011 283.479 L 220.985 283.421 L 220.841 283.101 L 220.83 283.077 L 220.685 282.757 L 220.659 282.699 L 220.512 282.38 L 220.501 282.357 L 220.353 282.038 L 220.337 282.004 L 220.188 281.686 L 220.177 281.662 L 220.027 281.344 L 220.011 281.31 L 219.86 280.993 L 219.849 280.97 L 219.697 280.653 L 219.681 280.619 L 219.375 279.987 L 219.363 279.964 L 219.209 279.648 L 219.193 279.613 L 219.038 279.298 L 219.037 279.298 L 218.888 278.994 L 218.866 278.948 L 218.727 278.669 Z M 189.673 198.345 L 189.801 198.988 L 190.058 200.091 L 190.189 200.595 L 190.503 201.683 L 190.584 201.947 L 190.92 203 L 190.919 203 L 191.26 204.08 L 191.557 205.059 L 191.815 205.943 L 192.121 207.033 L 192.355 207.906 L 192.626 208.962 L 192.846 209.866 L 193.086 210.91 L 193.301 211.895 L 193.513 212.937 L 193.686 213.852 L 193.854 214.81 L 194.009 215.785 L 194.043 216.021 L 193.985 216.016 L 192.855 215.959 L 192.475 215.947 L 191.342 215.933 L 190.988 215.935 L 189.856 215.961 L 189.389 215.983 L 188.259 216.062 L 187.817 216.102 L 186.692 216.231 L 186.286 216.286 L 185.167 216.461 L 184.77 216.532 L 183.659 216.752 L 183.287 216.833 L 182.186 217.095 L 181.835 217.185 L 180.743 217.487 L 180.406 217.587 L 179.326 217.927 L 178.993 218.038 L 177.925 218.416 L 177.598 218.538 L 176.544 218.953 L 176.24 219.079 L 175.201 219.528 L 174.895 219.666 L 173.871 220.15 L 173.57 220.299 L 172.563 220.817 L 172.271 220.973 L 171.282 221.524 L 170.984 221.697 L 170.014 222.282 L 169.726 222.462 L 168.776 223.08 L 168.484 223.278 L 167.558 223.928 L 167.265 224.141 L 166.362 224.825 L 166.071 225.055 L 165.194 225.772 L 164.898 226.023 L 164.05 226.773 L 163.897 226.911 L 163.064 227.679 L 162.9 227.833 L 162.085 228.619 L 161.795 228.912 L 161.013 229.731 L 160.571 230.225 L 159.845 231.094 L 159.188 231.974 L 158.562 232.917 L 157.77 234.354 L 157.307 235.386 L 156.658 237.363 L 156.419 238.467 L 156.193 240.467 L 156.18 241.594 L 156.099 241.613 L 154.207 242.253 L 152.611 243.162 L 151.69 243.806 L 150.176 245.109 L 149.38 246.056 L 148.708 246.965 L 147.894 248.265 L 147.368 249.268 L 147.056 249.92 L 146.604 250.958 L 146.454 251.32 L 146.043 252.375 L 145.962 252.59 L 145.575 253.655 L 145.53 253.784 L 145.158 254.853 L 145.126 254.945 L 144.764 256.019 L 144.738 256.096 L 144.4 257.127 L 144.058 258.153 L 143.733 259.095 L 143.355 260.162 L 143.014 261.103 L 142.637 262.124 L 142.254 263.148 L 141.866 264.173 L 141.475 265.195 L 141.079 266.217 L 140.666 267.272 L 140.667 267.272 L 140.273 268.27 L 139.867 269.289 L 139.452 270.321 L 139.045 271.327 L 138.625 272.35 L 138.204 273.368 L 137.768 274.413 L 137.361 275.376 L 136.916 276.417 L 136.915 276.42 L 136.471 277.459 L 136.028 278.495 L 135.582 279.537 L 135.58 279.542 L 135.135 280.583 L 135.13 280.593 L 134.686 281.635 L 134.683 281.643 L 134.24 282.685 L 134.233 282.703 L 133.792 283.746 L 133.776 283.782 L 133.339 284.827 L 133.318 284.879 L 132.887 285.926 L 132.85 286.017 L 132.429 287.069 L 132.368 287.225 L 131.965 288.283 L 131.853 288.593 L 131.485 289.664 L 131.264 290.396 L 130.979 291.492 L 130.658 293.928 L 130.649 295.051 L 130.832 297.04 L 131.407 298.952 L 132.391 300.771 L 133.021 301.693 L 134.426 303.335 L 134.948 303.826 L 135.167 304.069 L 135.382 304.351 L 135.628 304.725 L 135.878 305.168 L 136.131 305.684 L 136.382 306.271 L 136.637 306.954 L 136.861 307.63 L 137.093 308.423 L 137.309 309.257 L 137.51 310.132 L 137.683 310.972 L 137.862 311.948 L 138.005 312.817 L 138.154 313.828 L 138.284 314.819 L 138.399 315.795 L 138.5 316.755 L 138.606 317.882 L 138.684 318.817 L 138.768 319.946 L 138.831 320.909 L 138.892 321.968 L 138.946 323.037 L 138.996 324.169 L 139.035 325.178 L 139.034 325.178 L 139.07 326.31 L 139.098 327.362 L 139.125 328.494 L 139.129 328.609 L 139.169 329.741 L 139.174 329.865 L 139.228 330.996 L 139.235 331.128 L 139.304 332.259 L 139.313 332.392 L 139.397 333.521 L 139.408 333.653 L 139.507 334.781 L 139.522 334.939 L 139.639 336.066 L 139.658 336.235 L 139.794 337.359 L 139.819 337.552 L 139.977 338.674 L 140.018 338.941 L 140.206 340.057 L 140.279 340.443 L 140.511 341.552 L 140.689 342.269 L 141.002 343.357 L 141.19 343.942 L 141.423 344.599 L 141.517 344.956 L 141.621 345.505 L 141.715 346.176 L 141.795 346.96 L 141.858 347.847 L 141.897 348.706 L 141.922 349.716 L 141.929 350.641 L 141.923 351.58 L 141.902 352.658 L 141.87 353.697 L 141.83 354.684 L 141.779 355.736 L 141.715 356.867 L 141.652 357.865 L 141.577 358.941 L 141.496 360.018 L 141.409 361.103 L 141.408 361.103 L 141.316 362.187 L 141.218 363.28 L 141.113 364.408 L 141.114 364.408 L 141.011 365.465 L 140.901 366.565 L 140.785 367.691 L 140.675 368.731 L 140.553 369.775 L 140.422 370.864 L 140.287 371.952 L 140.151 373.023 L 140.002 374.146 L 139.866 375.117 L 139.7 376.237 L 139.554 377.158 L 139.38 378.158 L 139.216 379.013 L 139.02 379.924 L 138.835 380.673 L 138.641 381.347 L 138.466 381.857 L 138.306 382.24 L 138.194 382.458 L 138.111 382.587 L 138.047 382.666 L 137.894 382.823 L 137.616 383.063 L 137.167 383.4 L 136.589 383.793 L 135.979 384.178 L 135.632 384.373 L 135.624 384.375 L 135.264 384.444 L 134.631 384.527 L 133.857 384.599 L 132.852 384.667 L 131.922 384.716 L 130.89 384.757 L 129.811 384.791 L 128.738 384.817 L 127.626 384.84 L 127.626 384.841 L 126.565 384.858 L 126.565 384.857 L 125.432 384.872 L 124.317 384.885 L 123.22 384.894 L 122.096 384.902 L 120.99 384.909 L 120.99 384.908 L 119.858 384.913 L 118.725 384.918 L 117.611 384.921 L 116.478 384.924 L 115.353 384.926 L 114.23 384.927 L 114.221 384.927 L 113.088 384.929 L 111.965 384.93 L 110.832 384.93 L 109.699 384.931 L 107.434 384.931 L 106.302 384.932 L 105.16 384.932 L 104.028 384.934 L 102.904 384.935 L 102.887 384.935 L 101.755 384.938 L 100.622 384.941 L 100.613 384.941 L 99.48 384.945 L 99.471 384.945 L 98.339 384.95 L 98.33 384.95 L 97.197 384.956 L 97.188 384.957 L 96.056 384.964 L 96.039 384.964 L 94.906 384.973 L 93.774 384.982 L 93.756 384.982 L 92.623 384.993 L 92.596 384.993 L 91.464 385.007 L 91.456 385.007 L 90.323 385.022 L 90.305 385.022 L 89.173 385.039 L 89.147 385.04 L 88.014 385.06 L 87.987 385.06 L 86.855 385.083 L 86.82 385.084 L 85.688 385.111 L 85.652 385.112 L 84.52 385.143 L 84.476 385.144 L 83.344 385.18 L 83.283 385.183 L 82.151 385.226 L 82.088 385.228 L 80.957 385.278 L 80.861 385.283 L 79.73 385.344 L 79.633 385.35 L 78.502 385.422 L 78.342 385.433 L 77.214 385.523 L 77.012 385.541 L 75.885 385.654 L 75.585 385.689 L 74.462 385.836 L 73.994 385.908 L 72.879 386.108 L 72.066 386.289 L 70.972 386.581 L 70.538 386.708 L 69.876 386.917 L 69.407 387.022 L 68.671 387.15 L 67.8 387.278 L 66.838 387.399 L 65.808 387.514 L 65.698 387.526 L 65.822 387.427 L 66.688 386.698 L 66.966 386.455 L 67.805 385.694 L 67.983 385.528 L 68.803 384.747 L 68.925 384.629 L 69.732 383.834 L 69.771 383.795 L 70.573 382.996 L 70.683 382.885 L 71.473 382.073 L 71.624 381.915 L 72.396 381.086 L 72.576 380.886 L 73.325 380.037 L 73.581 379.736 L 74.296 378.858 L 74.659 378.383 L 75.32 377.464 L 75.932 376.503 L 76.484 375.515 L 77.279 373.683 L 77.612 372.319 L 77.799 371.222 L 77.936 369.229 L 77.674 367.249 L 77.024 365.361 L 76.012 363.639 L 74.678 362.153 L 73.526 361.249 L 72.645 360.656 L 70.885 359.712 L 68.973 359.136 L 68.764 359.117 L 68.807 359.053 L 69.315 358.043 L 69.643 357.32 L 70.07 356.271 L 70.143 356.086 L 70.549 355.029 L 70.583 354.941 L 70.979 353.88 L 71.005 353.809 L 71.393 352.745 L 71.409 352.7 L 71.792 351.634 L 71.807 351.592 L 72.185 350.525 L 72.195 350.496 L 72.57 349.427 L 72.586 349.382 L 72.956 348.311 L 72.961 348.295 L 73.329 347.224 L 73.338 347.198 L 73.703 346.126 L 73.712 346.1 L 74.074 345.027 L 74.083 345 L 74.442 343.926 L 74.451 343.9 L 74.802 342.841 L 75.16 341.766 L 75.482 340.818 L 75.835 339.803 L 76.213 338.736 L 76.551 337.802 L 76.922 336.8 L 77.298 335.803 L 77.705 334.746 L 78.061 333.844 L 78.451 332.879 L 78.885 331.832 L 79.272 330.928 L 79.682 330.001 L 80.069 329.16 L 80.442 328.394 L 80.764 327.78 L 80.934 327.496 L 81.288 327.027 L 81.415 326.855 L 82.078 325.937 L 82.319 325.588 L 82.943 324.642 L 83.142 324.328 L 83.73 323.36 L 83.894 323.08 L 84.45 322.094 L 84.59 321.837 L 85.117 320.835 L 85.231 320.61 L 85.733 319.594 L 85.826 319.402 L 86.306 318.376 L 86.386 318.2 L 86.846 317.165 L 86.918 316.998 L 87.359 315.955 L 87.414 315.823 L 87.84 314.774 L 87.893 314.642 L 88.304 313.587 L 88.345 313.48 L 88.744 312.42 L 88.784 312.312 L 89.171 311.247 L 89.204 311.153 L 89.58 310.085 L 89.608 310.006 L 89.975 308.935 L 90 308.861 L 90.359 307.786 L 90.383 307.711 L 90.733 306.635 L 90.752 306.577 L 91.096 305.497 L 91.115 305.438 L 91.452 304.357 L 91.471 304.296 L 91.801 303.213 L 91.812 303.176 L 92.138 302.091 L 92.137 302.091 L 92.444 301.079 L 92.778 299.997 L 93.065 299.093 L 93.381 298.131 L 93.382 298.13 L 93.394 298.094 L 93.728 297.117 L 94.044 296.241 L 94.388 295.335 L 94.711 294.539 L 95.071 293.713 L 95.406 293.001 L 95.783 292.261 L 96.161 291.577 L 96.58 290.876 L 97.022 290.19 L 97.496 289.5 L 98.036 288.758 L 98.558 288.074 L 99.205 287.256 L 99.771 286.564 L 100.498 285.696 L 101.129 284.951 L 101.683 284.327 L 102.22 283.764 L 102.481 283.508 L 102.704 283.559 L 103.827 283.707 L 104.171 283.746 L 105.298 283.855 L 105.484 283.871 L 106.614 283.959 L 106.754 283.969 L 107.884 284.041 L 107.999 284.048 L 109.13 284.107 L 109.236 284.112 L 110.367 284.159 L 110.464 284.163 L 111.596 284.199 L 111.649 284.2 L 112.778 284.23 L 114.975 284.302 L 116.106 284.34 L 116.115 284.34 L 118.371 284.414 L 119.503 284.452 L 119.511 284.452 L 120.643 284.489 L 122.497 284.377 L 123.506 284.221 L 125.44 283.72 L 127.235 282.845 L 128.82 281.631 L 130.133 280.125 L 131.171 278.271 L 131.616 277.23 L 131.621 277.22 L 132.065 276.178 L 132.064 276.178 L 132.506 275.143 L 132.508 275.139 L 132.95 274.102 L 132.952 274.099 L 132.952 274.098 L 133.395 273.06 L 133.399 273.053 L 133.843 272.011 L 133.842 272.011 L 134.283 270.98 L 134.329 270.871 L 134.757 269.835 L 135.191 268.789 L 135.195 268.782 L 135.628 267.736 L 135.629 267.732 L 136.062 266.685 L 136.068 266.67 L 136.499 265.623 L 136.503 265.613 L 136.933 264.565 L 136.947 264.531 L 137.373 263.482 L 137.382 263.461 L 137.806 262.41 L 137.829 262.351 L 138.246 261.298 L 138.28 261.212 L 138.687 260.156 L 138.735 260.028 L 139.128 258.965 L 139.191 258.791 L 139.564 257.722 L 139.621 257.553 L 139.975 256.477 L 140.006 256.381 L 140.349 255.302 L 140.371 255.231 L 140.706 254.149 L 140.785 253.883 L 141.09 252.792 L 141.2 252.361 L 141.456 251.258 L 141.586 250.596 L 141.767 249.478 L 141.883 248.392 L 141.941 247.262 L 141.884 245.574 L 141.751 244.451 L 141.228 242.236 L 140.845 241.174 L 139.795 239.075 L 139.174 238.13 L 138.046 236.712 L 137.264 235.894 L 136.404 235.094 L 135.531 234.373 L 134.966 233.94 L 134.044 233.283 L 133.41 232.866 L 132.441 232.281 L 131.899 231.977 L 130.895 231.453 L 130.463 231.24 L 129.435 230.765 L 129.055 230.599 L 128.008 230.167 L 127.628 230.019 L 126.564 229.63 L 126.141 229.486 L 126.101 229.473 L 126.058 229.193 L 125.91 228.433 L 125.651 227.331 L 125.444 226.582 L 125.243 225.95 L 125.204 225.772 L 125.169 225.475 L 125.141 224.917 L 125.139 224.174 L 125.165 223.333 L 125.215 222.436 L 125.288 221.454 L 125.381 220.408 L 125.483 219.395 L 125.587 218.428 L 125.588 218.428 L 125.719 217.303 L 125.84 216.32 L 125.845 216.286 L 125.849 216.25 L 125.987 215.197 L 125.994 215.144 L 126.135 214.02 L 126.14 213.977 L 126.276 212.853 L 126.282 212.808 L 126.413 211.683 L 126.418 211.639 L 126.544 210.513 L 126.547 210.478 L 126.669 209.352 L 126.673 209.317 L 126.678 209.269 L 127.315 209.186 L 127.43 209.171 L 128.551 209.012 L 128.63 209 L 129.75 208.832 L 129.812 208.823 L 130.931 208.648 L 130.975 208.641 L 132.093 208.461 L 132.127 208.455 L 133.245 208.271 L 133.29 208.264 L 134.407 208.075 L 134.417 208.073 L 135.533 207.883 L 135.567 207.877 L 136.683 207.683 L 136.702 207.68 L 137.817 207.484 L 137.824 207.482 L 138.94 207.285 L 138.958 207.282 L 140.073 207.083 L 140.092 207.08 L 141.206 206.879 L 141.215 206.877 L 142.329 206.675 L 142.336 206.674 L 143.451 206.471 L 143.461 206.469 L 144.575 206.265 L 144.592 206.262 L 145.706 206.056 L 146.812 205.852 L 146.836 205.848 L 147.95 205.64 L 147.951 205.64 L 149.064 205.432 L 150.143 205.234 L 151.212 205.04 L 152.327 204.841 L 153.382 204.657 L 154.498 204.465 L 155.579 204.283 L 156.625 204.109 L 156.625 204.11 L 157.701 203.937 L 158.82 203.762 L 158.82 203.761 L 159.877 203.601 L 160.902 203.451 L 161.96 203.303 L 163.083 203.153 L 164.032 203.035 L 165.089 202.915 L 166.03 202.82 L 166.943 202.746 L 167.566 202.715 L 168.395 202.726 L 168.642 202.726 L 169.774 202.713 L 170.524 202.676 L 171.652 202.578 L 172.093 202.53 L 173.216 202.382 L 173.543 202.333 L 174.66 202.148 L 174.906 202.104 L 176.019 201.891 L 176.233 201.848 L 177.34 201.611 L 177.532 201.568 L 178.635 201.309 L 178.822 201.263 L 179.919 200.983 L 180.103 200.934 L 181.195 200.633 L 181.391 200.577 L 182.476 200.254 L 182.687 200.189 L 183.765 199.842 L 184.019 199.756 L 185.088 199.38 L 185.418 199.258 L 186.472 198.845 L 186.946 198.645 L 187.978 198.178 L 188.816 197.75 L 189.51 197.354 Z M 30.47 123.007 L 31.166 123.041 L 31.443 123.067 L 32.473 123.599 L 33.854 124.033 L 34.955 124.293 L 35.937 124.474 L 37.059 124.623 L 37.616 124.681 L 38.745 124.767 L 39.151 124.789 L 40.283 124.829 L 40.636 124.836 L 41.769 124.836 L 42.069 124.831 L 43.186 124.797 L 44.104 124.778 L 44.195 124.779 L 44.343 124.936 L 44.506 125.14 L 44.643 125.347 L 44.775 125.592 L 44.922 125.928 L 45.089 126.399 L 45.259 126.977 L 45.433 127.695 L 45.62 128.603 L 46.298 131.933 L 46.299 131.933 L 46.522 133.035 L 46.523 133.043 L 46.749 134.153 L 47.341 136.061 L 48.301 137.813 L 49.589 139.339 L 51.155 140.578 L 52.958 141.49 L 53.866 141.839 L 56.535 142.462 L 58.782 142.669 L 58.782 142.67 L 59.91 142.775 L 59.918 142.775 L 60.896 142.865 L 61.645 142.952 L 62.222 143.054 L 62.804 143.188 L 63.45 143.372 L 64.1 143.59 L 64.797 143.856 L 65.524 144.164 L 66.24 144.496 L 66.995 144.875 L 67.774 145.294 L 68.53 145.724 L 69.363 146.224 L 70.153 146.719 L 70.924 147.223 L 71.714 147.759 L 72.546 148.342 L 73.33 148.908 L 74.204 149.557 L 74.97 150.139 L 75.741 150.739 L 76.557 151.387 L 77.438 152.1 L 78.245 152.765 L 78.988 153.388 L 79.807 154.085 L 80.614 154.78 L 80.663 154.822 L 80.665 154.824 L 81.423 155.488 L 82.272 156.238 L 83.026 156.915 L 83.866 157.675 L 84.628 158.372 L 85.46 159.14 L 86.257 159.882 L 87.051 160.627 L 87.096 160.669 L 87.927 161.44 L 88.024 161.529 L 88.864 162.288 L 88.957 162.371 L 89.807 163.12 L 89.93 163.227 L 90.792 163.962 L 90.971 164.111 L 91.849 164.825 L 92.13 165.045 L 93.034 165.728 L 93.531 166.081 L 94.474 166.707 L 94.538 166.743 L 94.555 166.912 L 94.718 168.033 L 94.816 168.591 L 95.042 169.7 L 95.115 170.033 L 95.379 171.135 L 95.426 171.322 L 95.711 172.418 L 95.742 172.534 L 96.04 173.626 L 96.086 173.79 L 96.403 174.878 L 96.477 175.118 L 96.821 176.197 L 96.957 176.596 L 97.346 177.659 L 97.615 178.32 L 98.079 179.353 L 98.842 180.745 L 99.462 181.689 L 100.72 183.24 L 102.729 184.806 L 103.681 185.369 L 105.493 186.208 L 106.939 186.552 L 106.886 186.605 L 106.881 186.609 L 105.279 188.211 L 105.275 188.216 L 104.558 188.934 L 103.806 189.666 L 103.101 190.338 L 102.326 191.057 L 101.628 191.685 L 100.915 192.302 L 100.276 192.829 L 99.618 193.342 L 99.037 193.761 L 98.481 194.127 L 97.993 194.412 L 97.58 194.62 L 97.135 194.808 L 96.371 195.073 L 96.096 195.173 L 95.038 195.576 L 94.67 195.725 L 93.628 196.17 L 93.254 196.339 L 92.232 196.826 L 91.767 197.062 L 90.771 197.602 L 90.103 197.998 L 89.153 198.613 L 88.939 198.78 L 88.876 198.777 L 88.002 198.719 L 87.354 198.66 L 86.763 198.563 L 85.947 198.399 L 85.038 198.195 L 83.99 197.946 L 83.061 197.713 L 81.964 197.429 L 80.995 197.172 L 79.902 196.874 L 78.845 196.582 L 77.843 196.3 L 76.783 195.996 L 75.696 195.681 L 74.642 195.372 L 73.583 195.058 L 72.559 194.751 L 71.475 194.422 L 70.411 194.097 L 69.38 193.78 L 68.319 193.449 L 67.239 193.11 L 66.175 192.774 L 66.175 192.775 L 65.149 192.448 L 65.149 192.447 L 64.087 192.105 L 63.009 191.756 L 61.954 191.412 L 60.929 191.074 L 59.854 190.717 L 58.825 190.372 L 57.752 190.01 L 56.714 189.656 L 55.705 189.308 L 55.705 189.307 L 54.635 188.934 L 54.635 188.935 L 53.596 188.569 L 52.608 188.216 L 51.543 187.831 L 50.584 187.478 L 49.523 187.081 L 48.591 186.726 L 47.6 186.338 L 46.642 185.951 L 45.782 185.59 L 45.021 185.25 L 44.323 184.91 L 43.695 184.571 L 43.095 184.214 L 42.497 183.822 L 41.974 183.445 L 41.472 183.045 L 41.051 182.671 L 40.716 182.337 L 40.679 182.293 L 40.241 180.661 L 39.637 179.36 L 39.089 178.371 L 38.562 177.523 L 37.917 176.592 L 37.661 176.239 L 36.976 175.337 L 36.822 175.139 L 36.115 174.255 L 36.004 174.118 L 35.281 173.246 L 35.192 173.141 L 34.457 172.279 L 34.379 172.189 L 33.634 171.336 L 33.58 171.275 L 32.828 170.428 L 32.774 170.367 L 32.015 169.526 L 31.973 169.48 L 31.209 168.644 L 31.159 168.589 L 30.389 167.759 L 30.359 167.727 L 29.585 166.9 L 29.551 166.864 L 28.773 166.041 L 28.73 165.995 L 27.947 165.177 L 27.921 165.15 L 27.135 164.335 L 27.121 164.322 L 26.337 163.513 L 26.338 163.512 L 25.551 162.698 L 24.778 161.896 L 23.997 161.084 L 23.229 160.286 L 23.23 160.285 L 22.447 159.467 L 22.446 159.468 L 21.673 158.658 L 20.895 157.842 L 20.124 157.031 L 19.353 156.218 L 18.588 155.409 L 17.815 154.59 L 17.056 153.782 L 16.295 152.969 L 15.536 152.155 L 14.777 151.338 L 14.074 150.574 L 13.311 149.737 L 12.595 148.942 L 11.956 148.216 L 11.337 147.491 L 10.683 146.712 L 10.177 146.082 L 10.063 145.926 L 10.033 145.451 L 10.009 144.545 L 9.999 143.576 L 9.997 142.499 L 9.997 139.461 L 10.548 138.945 L 10.553 138.94 L 11.37 138.174 L 12.197 137.4 L 12.201 137.396 L 13.027 136.622 L 13.854 135.847 L 14.676 135.077 L 15.503 134.303 L 15.512 134.294 L 16.329 133.528 L 17.156 132.754 L 17.16 132.75 L 17.964 131.997 L 18.793 131.225 L 19.574 130.502 L 19.591 130.487 L 19.597 130.481 L 20.385 129.757 L 21.194 129.019 L 22.006 128.284 L 22.82 127.552 L 23.637 126.823 L 24.485 126.072 L 25.261 125.391 L 26.06 124.698 L 26.921 123.962 L 26.921 123.961 L 27.633 123.362 L 27.641 123.356 L 27.651 123.348 L 27.998 123.062 L 28.109 123.052 L 28.876 123.009 L 29.647 122.995 Z M 209.324 145.159 L 209.21 145.203 L 208.156 145.618 L 207.943 145.705 L 206.899 146.144 L 206.509 146.318 L 205.485 146.801 L 205.114 146.985 L 204.111 147.51 L 203.652 147.766 L 202.678 148.343 L 202.07 148.734 L 201.14 149.38 L 200.424 149.926 L 199.556 150.653 L 198.779 151.377 L 197.993 152.192 L 197.436 152.839 L 197.447 152.765 L 197.58 152.081 L 197.706 151.572 L 197.842 151.145 L 198.11 150.473 L 198.504 149.502 L 198.898 148.554 L 199.321 147.567 L 199.703 146.712 L 200.063 145.954 L 200.391 145.32 L 200.48 145.167 L 201.197 145.126 L 202.028 145.107 L 203.033 145.105 L 204.072 145.117 L 204.178 145.118 L 205.311 145.119 L 205.62 145.114 L 206.752 145.08 L 207.008 145.069 L 208.138 145.006 L 208.411 144.987 L 209.54 144.893 L 209.859 144.862 L 210.215 144.821 Z M 252.371 11.925 L 253.335 11.945 L 254.297 11.98 L 255.292 12.034 L 255.703 12.065 L 255.856 12.288 L 256.315 13 L 256.797 13.789 L 257.201 14.495 L 257.695 15.407 L 257.858 15.696 L 258.43 16.674 L 258.62 16.985 L 259.227 17.941 L 259.395 18.197 L 260.031 19.134 L 260.209 19.389 L 260.874 20.306 L 261.055 20.547 L 261.747 21.443 L 261.956 21.704 L 262.678 22.577 L 262.926 22.866 L 263.68 23.71 L 264.049 24.101 L 264.848 24.904 L 265.496 25.501 L 266.362 26.23 L 266.453 26.306 L 267.169 26.894 L 267.722 27.391 L 268.317 27.961 L 268.946 28.598 L 269.563 29.249 L 270.256 30.009 L 270.842 30.674 L 271.508 31.453 L 272.137 32.21 L 272.818 33.053 L 273.392 33.783 L 273.998 34.573 L 274.607 35.388 L 275.181 36.178 L 275.817 37.077 L 276.346 37.846 L 276.866 38.627 L 277.417 39.484 L 277.891 40.25 L 278.374 41.068 L 278.779 41.791 L 279.149 42.502 L 279.446 43.132 L 279.739 43.84 L 280.035 44.61 L 280.238 45.204 L 280.391 45.749 L 280.497 46.25 L 280.592 46.87 L 280.668 47.586 L 280.728 48.407 L 280.772 49.344 L 280.801 50.292 L 280.821 51.411 L 280.828 52.376 L 280.829 53.456 L 280.824 54.588 L 280.825 54.588 L 280.816 55.659 L 280.804 56.765 L 280.789 57.88 L 280.772 59.012 L 280.755 60.145 L 280.756 60.145 L 280.736 61.25 L 280.736 61.259 L 280.718 62.356 L 280.717 62.356 L 280.694 63.489 L 280.666 64.559 L 280.635 65.638 L 280.634 65.638 L 280.598 66.77 L 280.56 67.823 L 280.517 68.91 L 280.469 69.997 L 280.417 71.067 L 280.355 72.198 L 280.294 73.232 L 280.222 74.347 L 280.15 75.349 L 280.149 75.349 L 280.06 76.478 L 279.976 77.448 L 279.871 78.554 L 279.77 79.517 L 279.645 80.613 L 279.525 81.576 L 279.392 82.552 L 279.233 83.625 L 279.088 84.525 L 278.899 85.601 L 278.726 86.504 L 278.524 87.485 L 278.317 88.415 L 278.083 89.389 L 277.842 90.324 L 277.6 91.201 L 277.328 92.123 L 277.036 93.057 L 276.735 93.966 L 276.397 94.928 L 276.079 95.789 L 275.707 96.748 L 275.349 97.631 L 274.944 98.591 L 274.579 99.426 L 274.132 100.414 L 273.723 101.29 L 273.26 102.258 L 272.799 103.194 L 272.313 104.172 L 271.832 105.131 L 271.323 106.13 L 270.867 107.013 L 270.376 107.943 L 269.887 108.843 L 269.436 109.648 L 268.955 110.47 L 268.517 111.172 L 268.148 111.72 L 268.117 111.76 L 266.702 112.629 L 265.82 113.329 L 264.448 114.65 L 263.711 115.509 L 263.25 116.088 L 262.578 117 L 262.308 117.385 L 261.68 118.327 L 261.487 118.628 L 260.893 119.592 L 260.732 119.864 L 260.169 120.846 L 260.025 121.105 L 259.491 122.104 L 259.371 122.336 L 258.879 123.317 L 258.389 124.285 L 257.928 125.175 L 257.45 126.072 L 256.985 126.916 L 256.517 127.724 L 256.098 128.409 L 255.681 129.04 L 255.296 129.573 L 254.942 130.013 L 254.655 130.326 L 254.384 130.581 L 254.122 130.79 L 253.823 130.992 L 253.409 131.231 L 252.896 131.486 L 252.261 131.763 L 251.473 132.073 L 250.743 132.338 L 249.868 132.621 L 248.884 132.925 L 247.82 133.248 L 246.813 133.55 L 245.791 133.851 L 244.765 134.146 L 243.695 134.445 L 242.934 134.647 L 242.044 134.841 L 242.018 134.846 L 240.912 135.09 L 240.656 135.15 L 239.557 135.423 L 239.418 135.459 L 239.389 135.467 L 239.956 134.477 L 240.585 132.582 L 240.787 131.288 L 240.885 130.191 L 240.863 128.193 L 240.598 126.766 L 240.311 125.671 L 240.007 124.71 L 239.611 123.649 L 239.39 123.107 L 238.933 122.072 L 238.742 121.664 L 238.238 120.649 L 238.061 120.309 L 237.519 119.315 L 237.339 118.999 L 236.761 118.025 L 236.565 117.709 L 235.951 116.757 L 235.724 116.42 L 235.072 115.494 L 234.795 115.119 L 234.101 114.225 L 233.541 113.496 L 233.031 112.785 L 232.57 112.107 L 232.047 111.293 L 231.591 110.55 L 231.116 109.736 L 230.671 108.938 L 230.202 108.063 L 229.75 107.18 L 229.362 106.39 L 228.888 105.39 L 228.524 104.59 L 228.099 103.62 L 227.72 102.723 L 227.355 101.83 L 226.951 100.8 L 226.601 99.878 L 226.265 98.961 L 225.904 97.937 L 225.567 96.953 L 225.26 96.021 L 224.935 95.003 L 224.638 94.035 L 224.363 93.108 L 224.069 92.083 L 223.779 91.032 L 223.778 91.032 L 222.276 85.583 L 222.277 85.583 L 222.022 84.655 L 222.446 82.889 L 222.711 81.787 L 222.712 81.781 L 222.976 80.68 L 222.977 80.678 L 223.241 79.576 L 223.277 79.419 L 223.523 78.314 L 223.568 78.103 L 223.79 76.993 L 223.831 76.77 L 224.028 75.654 L 224.07 75.399 L 224.238 74.279 L 224.275 74.006 L 224.412 72.882 L 224.443 72.599 L 224.548 71.471 L 224.57 71.188 L 224.643 70.058 L 224.658 69.758 L 224.697 68.626 L 224.702 68.353 L 224.71 67.221 L 224.708 66.938 L 224.684 65.806 L 224.676 65.559 L 224.624 64.427 L 224.609 64.171 L 224.528 63.042 L 224.511 62.83 L 224.406 61.702 L 224.385 61.499 L 224.257 60.374 L 224.235 60.198 L 224.087 59.075 L 224.063 58.907 L 223.896 57.787 L 223.876 57.655 L 223.694 56.537 L 223.67 56.395 L 223.472 55.28 L 223.452 55.175 L 223.242 54.062 L 223.224 53.965 L 223.003 52.854 L 222.985 52.765 L 222.754 51.656 L 222.739 51.585 L 222.5 50.478 L 222.484 50.407 L 222.237 49.302 L 222.233 49.285 L 221.993 48.219 L 221.765 47.17 L 221.57 46.213 L 221.398 45.302 L 221.264 44.48 L 221.166 43.732 L 221.117 43.154 L 221.109 42.76 L 221.12 42.583 L 221.127 42.546 L 221.127 42.545 L 221.19 42.393 L 221.36 42.068 L 221.686 41.527 L 222.193 40.759 L 222.232 40.7 L 222.824 39.79 L 223.446 38.843 L 223.989 38.026 L 224.571 37.168 L 224.573 37.166 L 224.59 37.141 L 225.196 36.266 L 225.724 35.526 L 226.321 34.717 L 226.898 33.967 L 227.471 33.253 L 228.085 32.518 L 228.737 31.763 L 229.359 31.063 L 230.077 30.269 L 230.817 29.462 L 231.568 28.648 L 232.338 27.818 L 232.376 27.777 L 233.142 26.942 L 233.234 26.84 L 233.988 25.995 L 234.095 25.872 L 234.835 25.015 L 234.944 24.887 L 235.67 24.017 L 235.822 23.831 L 236.526 22.945 L 236.747 22.656 L 237.419 21.744 L 237.973 20.906 L 238.549 19.933 L 239.39 18.122 L 239.82 16.41 L 239.885 15.999 L 240.033 15.636 L 240.304 15.066 L 240.651 14.411 L 241.027 13.763 L 241.454 13.083 L 241.852 12.496 L 241.894 12.44 L 242.4 12.372 L 243.346 12.268 L 244.316 12.18 L 245.239 12.11 L 246.299 12.046 L 247.227 12 L 248.346 11.958 L 249.254 11.935 L 250.327 11.92 L 251.405 11.916 Z M 117.935 96.157 L 117.944 96.322 L 117.991 97.05 L 118.004 97.228 L 118.064 97.955 L 118.082 98.148 L 118.156 98.873 L 118.181 99.091 L 118.271 99.815 L 118.308 100.088 L 118.418 100.81 L 118.47 101.114 L 118.602 101.831 L 118.683 102.229 L 118.844 102.94 L 118.965 103.417 L 119.161 104.12 L 119.285 104.53 L 119.511 105.224 L 119.64 105.597 L 119.893 106.281 L 120.032 106.636 L 120.311 107.31 L 120.456 107.642 L 120.759 108.305 L 120.899 108.599 L 121.224 109.253 L 121.37 109.536 L 121.715 110.178 L 121.864 110.446 L 122.229 111.078 L 122.371 111.316 L 122.753 111.937 L 122.904 112.174 L 123.304 112.785 L 123.451 113.003 L 123.866 113.602 L 124.016 113.812 L 124.447 114.401 L 124.593 114.596 L 125.038 115.174 L 125.189 115.366 L 125.648 115.933 L 125.791 116.106 L 126.263 116.663 L 126.415 116.838 L 126.899 117.383 L 127.043 117.541 L 127.539 118.076 L 127.699 118.245 L 128.207 118.768 L 128.357 118.919 L 128.877 119.432 L 129.031 119.581 L 129.561 120.082 L 129.71 120.22 L 130.25 120.71 L 130.417 120.858 L 130.968 121.336 L 131.138 121.48 L 131.7 121.946 L 131.853 122.07 L 132.423 122.524 L 132.598 122.661 L 133.179 123.103 L 133.353 123.232 L 133.943 123.661 L 134.12 123.787 L 134.719 124.203 L 134.898 124.324 L 135.286 124.581 L 135.063 124.67 L 134.881 124.745 L 134.209 125.029 L 133.99 125.125 L 133.868 125.18 L 133.654 125.086 L 132.972 124.827 L 132.547 124.676 L 131.854 124.448 L 131.552 124.354 L 130.852 124.148 L 130.648 124.09 L 129.944 123.899 L 129.738 123.846 L 129.03 123.67 L 128.881 123.634 L 128.341 123.508 L 127.979 123.412 L 127.718 123.33 L 127.413 123.22 L 127.14 123.108 L 126.795 122.949 L 126.446 122.775 L 126.043 122.558 L 125.628 122.319 L 125.192 122.055 L 124.755 121.778 L 124.214 121.423 L 123.771 121.122 L 123.222 120.739 L 122.765 120.413 L 122.24 120.031 L 121.684 119.619 L 121.188 119.247 L 120.629 118.821 L 120.114 118.424 L 119.537 117.977 L 119.009 117.563 L 118.459 117.129 L 117.942 116.719 L 117.411 116.294 L 116.866 115.851 L 116.324 115.408 L 115.791 114.969 L 115.244 114.516 L 114.713 114.074 L 114.2 113.643 L 113.665 113.19 L 113.109 112.718 L 112.592 112.275 L 112.054 111.812 L 111.561 111.384 L 111.012 110.904 L 110.522 110.472 L 109.977 109.988 L 109.455 109.522 L 108.971 109.085 L 108.453 108.615 L 107.937 108.141 L 107.438 107.679 L 106.917 107.194 L 106.428 106.734 L 105.969 106.298 L 105.443 105.793 L 104.989 105.352 L 104.468 104.842 L 104.033 104.41 L 103.518 103.894 L 103.053 103.422 L 102.585 102.941 L 102.171 102.51 L 101.672 101.983 L 101.287 101.57 L 100.794 101.032 L 100.591 100.807 L 100.947 100.821 L 101.676 100.809 L 102.237 100.784 L 102.965 100.731 L 103.24 100.707 L 103.965 100.634 L 104.115 100.618 L 104.84 100.534 L 104.936 100.523 L 105.66 100.432 L 105.811 100.411 L 106.533 100.309 L 106.587 100.302 L 107.309 100.196 L 107.391 100.183 L 108.112 100.071 L 108.25 100.049 L 108.969 99.927 L 109.16 99.893 L 109.877 99.757 L 110.151 99.701 L 110.864 99.545 L 111.264 99.448 L 111.969 99.263 L 112.597 99.076 L 113.289 98.845 L 114.279 98.455 L 114.942 98.152 L 116.455 97.294 L 117.055 96.881 L 117.932 96.088 Z M 144.868 15.32 L 146.268 15.589 L 146.992 15.675 L 147.568 15.726 L 148.296 15.77 L 148.57 15.783 L 149.299 15.807 L 149.491 15.812 L 150.221 15.822 L 150.262 15.822 L 150.878 15.828 L 151.549 15.844 L 151.859 15.856 L 152.028 16.043 L 152.518 16.583 L 152.677 16.753 L 153.18 17.282 L 153.328 17.435 L 153.842 17.953 L 154.071 18.177 L 154.601 18.678 L 155.013 19.046 L 155.57 19.517 L 156.455 20.185 L 157.06 20.591 L 159.535 21.796 L 160.141 21.993 L 160.093 22.39 L 160.048 23.117 L 160.038 24.146 L 160.068 24.875 L 160.094 25.3 L 160.155 26.027 L 160.176 26.245 L 160.253 26.971 L 160.264 27.069 L 160.348 27.793 L 160.358 27.874 L 160.448 28.598 L 160.449 28.612 L 160.54 29.336 L 160.553 29.432 L 160.651 30.155 L 160.661 30.224 L 160.764 30.946 L 160.778 31.042 L 160.888 31.763 L 160.898 31.83 L 161.013 32.551 L 161.029 32.648 L 161.151 33.367 L 161.166 33.449 L 161.294 34.167 L 161.313 34.276 L 161.449 34.993 L 161.476 35.13 L 161.622 35.845 L 161.655 35.998 L 161.812 36.71 L 161.862 36.927 L 162.035 37.636 L 162.122 37.967 L 162.319 38.669 L 162.504 39.256 L 162.744 39.945 L 162.798 40.096 L 163.802 42.836 L 164.673 44.634 L 165.884 46.222 L 167.386 47.538 L 169.12 48.529 L 171.016 49.155 L 172.737 49.383 L 173.445 49.415 L 173.896 49.426 L 194.322 49.426 L 195.086 49.396 L 195.764 49.344 L 197.731 48.994 L 199.531 48.281 L 199.681 48.938 L 199.823 49.583 L 199.94 50.144 L 200.086 50.859 L 200.198 51.425 L 200.323 52.089 L 200.454 52.806 L 200.564 53.44 L 200.663 54.025 L 200.662 54.025 L 200.777 54.745 L 200.778 54.745 L 200.869 55.341 L 200.975 56.063 L 201.057 56.649 L 201.144 57.303 L 201.235 58.027 L 201.236 58.027 L 201.306 58.615 L 201.387 59.34 L 201.449 59.928 L 201.52 60.654 L 201.573 61.23 L 201.633 61.957 L 201.678 62.547 L 201.723 63.207 L 201.768 63.935 L 201.798 64.5 L 201.807 64.691 L 201.786 64.662 L 201.51 64.338 L 200.069 62.954 L 198.383 61.885 L 196.517 61.172 L 194.547 60.844 L 192.551 60.915 L 190.995 61.255 L 190.297 61.467 L 190.284 61.471 L 189.586 61.684 L 189.57 61.689 L 188.873 61.903 L 187.652 62.367 L 186.989 62.67 L 185.991 63.196 L 185.366 63.572 L 184.832 63.916 L 184.232 64.331 L 183.86 64.602 L 183.28 65.044 L 182.981 65.281 L 182.864 65.378 L 182.693 65.174 L 182.567 65.026 L 182.087 64.476 L 181.945 64.317 L 181.454 63.778 L 181.308 63.622 L 180.805 63.093 L 180.637 62.919 L 180.122 62.403 L 179.99 62.274 L 179.465 61.767 L 178.962 61.279 L 178.439 60.771 L 178.425 60.758 L 177.901 60.251 L 176.86 59.242 L 174.847 57.731 L 174.457 57.509 L 172.632 56.7 L 170.681 56.269 L 168.685 56.235 L 166.721 56.598 L 165.482 57.097 L 164.761 56.468 L 163.899 55.919 L 163.265 55.56 L 162.259 55.063 L 161.588 54.777 L 161.205 54.623 L 160.523 54.365 L 159.879 54.146 L 159.181 53.935 L 158.425 53.738 L 157.712 53.582 L 156.933 53.444 L 156.211 53.345 L 155.401 53.267 L 154.673 53.227 L 153.879 53.215 L 153.149 53.233 L 152.339 53.286 L 151.614 53.363 L 150.841 53.476 L 150.172 52.908 L 148.423 51.944 L 145.56 51.198 L 144.839 51.121 L 142.475 51.15 L 141.752 51.245 L 140.629 51.458 L 139.921 51.635 L 139.234 51.833 L 138.541 52.06 L 138.023 52.246 L 137.343 52.511 L 136.952 52.672 L 136.285 52.965 L 135.934 53.128 L 135.278 53.447 L 134.951 53.614 L 134.307 53.957 L 134.006 54.123 L 133.374 54.488 L 133.068 54.672 L 132.45 55.059 L 132.142 55.261 L 131.538 55.671 L 131.178 55.927 L 130.593 56.363 L 130.217 56.657 L 129.654 57.12 L 129.179 57.537 L 128.646 58.035 L 128.107 58.578 L 127.614 59.115 L 126.893 59.997 L 126.464 60.587 L 125.758 61.707 L 125.476 62.228 L 125.241 62.639 L 125.032 62.978 L 124.78 63.359 L 124.556 63.679 L 124.363 63.935 L 124.041 64.323 L 123.475 65.074 L 123.064 65.676 L 122.468 66.668 L 122.129 67.314 L 121.814 67.972 L 121.523 68.641 L 121.335 69.103 L 121.078 69.785 L 120.951 70.145 L 120.72 70.837 L 120.628 71.126 L 120.418 71.825 L 120.348 72.071 L 120.156 72.775 L 120.106 72.964 L 119.928 73.671 L 119.881 73.865 L 119.758 74.398 L 119.636 74.063 L 119.574 73.896 L 119.312 73.215 L 119.258 73.078 L 118.986 72.401 L 118.923 72.248 L 118.64 71.576 L 118.582 71.441 L 118.289 70.773 L 118.221 70.621 L 117.917 69.958 L 117.855 69.825 L 117.541 69.166 L 117.465 69.012 L 117.14 68.359 L 117.057 68.195 L 116.72 67.548 L 116.639 67.396 L 116.291 66.755 L 116.193 66.579 L 115.832 65.945 L 115.727 65.764 L 115.353 65.138 L 115.221 64.924 L 114.831 64.307 L 114.686 64.084 L 114.28 63.478 L 114.089 63.203 L 113.663 62.611 L 113.44 62.313 L 112.992 61.737 L 112.665 61.338 L 112.188 60.786 L 111.747 60.308 L 111.236 59.789 L 110.523 59.132 L 109.963 58.664 L 108.601 57.707 L 107.972 57.339 L 106.995 56.837 L 106.329 56.54 L 105.44 56.193 L 104.749 55.961 L 103.814 55.697 L 103.103 55.533 L 102.693 55.461 L 102.696 55.446 L 102.701 55.426 L 102.71 55.383 L 102.83 54.841 L 102.981 54.193 L 103.143 53.535 L 103.298 52.934 L 103.452 52.367 L 103.599 51.846 L 103.789 51.198 L 103.982 50.568 L 104.154 50.027 L 104.363 49.396 L 104.569 48.795 L 104.771 48.228 L 104.978 47.667 L 105.207 47.067 L 105.391 46.599 L 105.666 45.924 L 105.887 45.396 L 106.151 44.788 L 106.359 44.321 L 106.362 44.316 L 106.368 44.301 L 106.664 43.658 L 106.906 43.148 L 107.168 42.611 L 107.467 42.017 L 107.746 41.479 L 107.991 41.019 L 108.341 40.379 L 108.624 39.877 L 108.913 39.377 L 109.231 38.843 L 109.575 38.281 L 109.834 37.868 L 110.181 37.331 L 110.56 36.76 L 110.834 36.358 L 111.211 35.819 L 111.598 35.283 L 111.922 34.845 L 112.245 34.421 L 112.652 33.9 L 112.982 33.49 L 113.446 32.928 L 113.771 32.547 L 114.186 32.074 L 114.54 31.682 L 114.962 31.227 L 115.356 30.815 L 115.751 30.416 L 116.214 29.962 L 116.635 29.556 L 117.086 29.132 L 117.522 28.731 L 117.984 28.316 L 118.407 27.947 L 118.898 27.531 L 119.284 27.213 L 119.789 26.809 L 120.239 26.462 L 120.677 26.134 L 121.152 25.791 L 121.567 25.501 L 122.098 25.142 L 122.536 24.858 L 123.038 24.542 L 123.531 24.243 L 123.992 23.972 L 124.531 23.666 L 125.04 23.387 L 125.583 23.098 L 126.115 22.825 L 126.694 22.535 L 127.219 22.279 L 127.833 21.989 L 128.317 21.766 L 128.949 21.482 L 129.572 21.209 L 130.107 20.978 L 130.779 20.695 L 131.34 20.464 L 131.964 20.21 L 132.641 19.939 L 132.761 19.89 L 133.435 19.61 L 133.543 19.564 L 134.214 19.276 L 134.32 19.23 L 134.986 18.935 L 135.087 18.89 L 135.751 18.587 L 135.834 18.548 L 136.495 18.239 L 136.579 18.2 L 137.237 17.885 L 137.319 17.845 L 137.974 17.524 L 138.057 17.483 L 138.709 17.156 L 138.801 17.109 L 139.45 16.775 L 139.538 16.729 L 140.183 16.389 L 140.274 16.34 L 140.916 15.993 L 141.029 15.931 L 141.666 15.576 L 141.8 15.501 L 142.432 15.136 L 142.585 15.045 L 143.184 14.685 Z" fill="#000000" fill-rule="nonzero" stroke="none" data-offset="-0.4mm"/></svg>