<?xml version="1.0" standalone="no"?>
<!DOCTYPE svg PUBLIC "-//W3C//DTD SVG 20010904//EN"
 "http://www.w3.org/TR/2001/REC-SVG-20010904/DTD/svg10.dtd">
<svg version="1.0" xmlns="http://www.w3.org/2000/svg"
 width="298.992510pt" height="399.865216pt" viewBox="0 0 298.992510 399.865216"
 preserveAspectRatio="xMidYMid meet">
<metadata>
Created by potrace 1.16, written by Peter Selinger 2001-2019
</metadata>
<g transform="translate(-67.000000,426.928538) scale(0.100000,-0.100000)"
fill="#000000" stroke="none">
<path d="M2133 4255 c-18 -8 -52 -27 -75 -42 -24 -16 -70 -39 -103 -52 -90
-36 -141 -68 -200 -127 -94 -95 -157 -238 -168 -382 -3 -52 -3 -53 20 -48 13
3 34 9 48 12 15 4 34 0 49 -9 30 -20 73 -106 85 -170 10 -56 4 -62 -76 -73
-48 -6 -52 -5 -70 22 -26 42 -85 94 -105 94 -16 0 -18 -10 -18 -82 1 -66 5
-92 23 -125 29 -56 118 -147 239 -245 75 -60 110 -82 148 -91 27 -6 50 -14 50
-18 0 -13 -47 -47 -75 -54 -28 -6 -29 -8 -12 -20 23 -16 47 -5 99 45 60 58
226 91 321 63 l29 -9 -49 -31 c-89 -57 -123 -71 -193 -80 -36 -5 -80 21 -80
46 0 6 -4 11 -10 11 -14 0 -12 -16 5 -50 34 -66 166 -41 320 60 55 36 94 50
143 50 27 0 75 9 108 21 32 11 74 23 92 26 29 5 50 19 40 28 -2 2 -76 0 -164
-4 -88 -5 -178 -5 -199 -1 -49 11 -158 38 -204 52 -87 26 -172 108 -194 186
-21 74 -1 268 31 305 8 9 20 27 26 39 17 33 106 74 106 49 0 -5 -4 -12 -9 -15
-19 -12 -57 -159 -45 -177 10 -16 24 9 24 45 0 16 11 49 25 72 30 51 81 73
128 55 26 -10 27 -13 20 -48 -13 -61 -7 -194 8 -204 26 -16 59 -10 68 14 24
61 33 109 30 160 l-4 56 33 -32 c19 -18 40 -44 48 -59 23 -44 53 -46 89 -6 16
19 41 39 54 43 l23 7 -5 -88 c-6 -116 2 -169 27 -169 24 0 45 58 49 132 2 46
4 51 15 36 14 -20 8 -83 -14 -147 -18 -50 -19 -206 -1 -206 15 0 36 57 49 135
15 97 29 166 46 228 31 119 -8 381 -72 478 -34 51 -162 156 -206 169 -42 12
-90 13 -90 2 0 -4 11 -24 25 -44 19 -28 36 -40 68 -48 23 -6 53 -14 67 -18 32
-9 50 -46 50 -102 l0 -45 -109 0 -109 0 -11 30 c-6 16 -13 56 -17 88 -7 56 -6
57 19 57 38 0 39 11 6 63 -30 48 -61 61 -87 35 -9 -9 -19 -3 -45 25 -30 34
-38 37 -88 38 -39 0 -49 3 -34 9 35 15 218 11 265 -5 58 -20 82 -20 78 3 -2
10 -22 23 -53 34 -65 21 -255 24 -302 3z"/>
<path d="M3038 4235 c-24 -13 -68 -86 -68 -112 0 -6 -23 -35 -50 -64 -52 -56
-66 -72 -112 -143 -32 -47 -34 -70 -14 -158 27 -118 30 -181 11 -262 l-18 -75
27 -98 c30 -107 71 -197 117 -256 30 -36 56 -94 47 -102 -2 -3 -40 -10 -83
-16 -44 -6 -88 -15 -99 -21 -11 -6 -47 -10 -80 -10 -102 2 -114 -7 -160 -122
-19 -45 -21 -149 -5 -230 14 -66 -1 -154 -29 -179 -21 -19 -127 -47 -167 -45
-28 2 -119 -11 -230 -32 -167 -31 -235 -41 -243 -36 -5 3 -13 47 -16 98 -12
162 -34 200 -81 148 -29 -33 -41 -24 -60 46 -20 74 -17 85 42 154 36 41 41 60
18 60 -15 0 -95 -78 -95 -92 0 -19 -25 -4 -78 45 -147 139 -242 200 -322 207
l-54 5 -12 59 c-8 42 -20 67 -42 89 -28 27 -36 30 -90 28 -33 -1 -63 3 -67 9
-7 11 -90 13 -117 2 -9 -4 -66 -53 -127 -110 l-111 -104 0 -72 c0 -71 1 -74
42 -122 23 -27 93 -101 155 -165 68 -70 113 -124 113 -136 0 -27 38 -67 90
-93 73 -37 401 -141 465 -147 48 -4 63 -2 74 10 7 9 34 23 60 32 35 11 67 35
116 83 l67 67 -5 -75 c-2 -41 -10 -124 -18 -183 -10 -81 -10 -116 -1 -140 6
-18 8 -44 6 -58 -5 -24 -3 -27 36 -32 23 -3 59 -17 81 -31 42 -28 47 -47 28
-107 -12 -38 -14 -44 -58 -150 l-32 -75 -91 3 c-50 1 -93 5 -96 8 -3 3 4 5 16
5 26 0 39 18 19 26 -25 9 -90 -31 -134 -84 -59 -69 -77 -103 -108 -207 -34
-114 -63 -180 -96 -221 -15 -19 -47 -95 -74 -176 -26 -79 -51 -148 -56 -154
-5 -7 -23 -14 -39 -17 -34 -7 -220 -189 -220 -216 0 -10 13 -22 33 -29 58 -21
92 -15 143 25 67 51 136 93 151 93 26 0 12 -27 -40 -78 -41 -41 -60 -52 -84
-52 -23 0 -33 -6 -38 -21 -6 -18 -13 -20 -48 -16 -23 2 -63 13 -90 23 -35 14
-51 16 -64 8 -22 -14 -49 -61 -58 -102 -5 -25 -12 -32 -30 -32 -13 0 -26 -4
-29 -9 -17 -26 474 -22 547 5 29 11 103 14 340 14 290 0 303 1 337 21 67 41
77 66 96 229 17 158 18 248 1 291 -8 19 -15 78 -16 134 -4 173 -25 262 -72
308 -21 20 -24 8 46 172 26 61 60 148 75 195 24 73 32 85 52 88 40 5 79 -16
91 -48 6 -17 15 -30 19 -30 15 0 8 41 -17 100 -35 82 -33 97 21 146 55 51 135
84 206 84 43 0 57 -5 80 -27 24 -23 31 -25 38 -13 28 45 17 168 -26 301 -17
52 -17 68 6 263 14 120 30 150 94 180 49 23 289 101 342 110 14 3 55 15 90 26
73 25 95 47 143 143 18 37 41 69 51 72 23 7 44 39 93 139 61 126 79 221 84
433 3 166 2 185 -18 234 -23 59 -110 174 -163 214 -18 14 -48 52 -65 85 -18
33 -41 64 -51 70 -29 16 -210 12 -242 -5z"/>
<path d="M2353 3222 c-44 -7 -22 -18 60 -30 45 -7 97 -15 115 -18 19 -4 32 -2
32 4 0 20 -152 52 -207 44z"/>
<path d="M2674 1646 c-3 -8 27 -77 66 -153 61 -119 71 -145 65 -171 -3 -18
-12 -32 -19 -32 -16 0 -103 175 -116 235 -6 28 -20 61 -31 74 -25 30 -40 19
-70 -55 -22 -52 -48 -70 -64 -44 -7 12 -45 14 -45 3 0 -5 11 -26 24 -47 l23
-39 -25 -49 -25 -48 17 -107 c9 -60 25 -146 35 -192 13 -61 16 -93 9 -117 -7
-28 -3 -51 28 -136 67 -190 95 -283 105 -348 18 -118 61 -149 186 -134 76 9
316 2 400 -11 47 -8 63 7 47 42 -15 35 -12 143 4 143 4 0 27 -31 52 -67 86
-128 79 -123 183 -122 153 1 165 26 98 196 -106 266 -240 538 -337 683 -149
223 -232 321 -326 384 -29 19 -66 47 -82 61 -16 14 -35 25 -41 25 -7 0 -32 9
-56 20 -52 23 -97 26 -105 6z"/>
</g>
</svg>
