<?xml version="1.0" standalone="no"?><!DOCTYPE svg PUBLIC "-//W3C//DTD SVG 20010904//EN" "http://www.w3.org/TR/2001/REC-SVG-20010904/DTD/svg10.dtd"><svg xmlns="http://www.w3.org/2000/svg" version="1.0" width="7.7112mm" height="16mm" viewBox="0 0 305.913786 634.744956" preserveAspectRatio="xMidYMid meet">
<metadata>
Created by potrace 1.16, written by Peter Selinger 2001-2019
</metadata>
<g transform="translate(-77.500000,637.832074) scale(0.100000,-0.100000)" fill="#000000" stroke="none">
<path d="M2204 6372 c-17 -11 -35 -99 -50 -240 l-13 -127 5 105 c3 58 9 138 15 178 6 41 8 76 5 79 -6 6 -87 -21 -146 -50 l-44 -22 -14 -125 -14 -125 34 -28 c32 -27 33 -31 38 -114 5 -85 6 -87 34 -96 26 -9 32 -7 48 17 11 14 28 26 39 26 17 0 18 6 14 78 l-4 77 9 -64 c13 -92 13 -92 59 -85 36 6 41 4 52 -19 l11 -25 33 20 c33 19 33 20 28 73 -5 43 -2 60 13 82 10 15 18 33 17 38 -10 72 -15 86 -43 100 -36 19 -36 23 -7 66 20 30 53 157 43 167 -17 17 -142 28 -162 14z"/>
<path d="M2392 6291 c-15 -49 -15 -54 1 -48 22 8 48 -19 54 -56 4 -29 0 -40 -26 -67 -26 -27 -30 -38 -26 -69 9 -65 16 -106 21 -133 l5 -27 38 25 c31 20 40 34 50 76 6 29 25 74 42 100 l30 47 -39 58 c-39 57 -113 133 -130 133 -5 0 -14 -17 -20 -39z"/>
<path d="M1897 6208 c-15 -23 -27 -55 -27 -70 0 -15 -3 -28 -6 -28 -3 0 -32 13 -63 29 -59 31 -214 71 -274 71 -29 0 -44 -9 -87 -52 -53 -54 -102 -139 -113 -194 l-6 -30 58 4 58 4 44 -49 c43 -48 46 -50 122 -61 93 -14 97 -16 97 -46 0 -17 12 -28 50 -46 27 -13 53 -21 56 -18 3 3 1 23 -4 44 -18 68 -24 152 -13 159 6 3 11 14 11 24 0 9 14 30 30 46 17 16 35 43 40 60 9 28 9 28 5 -10 -2 -22 -7 -55 -11 -73 -3 -19 -1 -66 5 -105 6 -40 13 -83 15 -96 3 -27 26 -42 26 -18 0 9 4 17 9 19 4 2 11 106 15 232 4 126 9 233 12 238 3 4 -1 8 -8 8 -8 0 -26 -19 -41 -42z"/>
<path d="M1377 6186 c-63 -31 -101 -68 -128 -125 -22 -46 -30 -132 -16 -176 5 -17 -2 -24 -49 -44 -39 -17 -65 -37 -87 -67 -18 -24 -39 -43 -49 -44 -11 0 -15 -6 -11 -20 3 -12 0 -48 -7 -81 -10 -45 -10 -63 -1 -72 8 -8 11 -7 11 6 0 27 35 89 67 119 30 29 107 67 135 68 13 0 18 11 20 42 l3 42 55 12 c73 17 107 10 151 -34 l36 -36 -30 -15 c-17 -9 -33 -22 -35 -29 -3 -9 9 -6 34 7 21 12 46 21 54 20 8 0 -1 -7 -21 -15 -56 -23 -76 -92 -32 -108 22 -9 28 0 13 19 -21 26 18 70 60 68 20 -1 30 3 27 11 -3 8 8 10 36 7 30 -2 38 0 32 9 -6 10 -1 12 19 8 39 -8 27 14 -15 25 -19 5 -56 7 -82 4 -27 -2 -44 -1 -37 3 7 4 -10 26 -47 59 l-58 52 -66 -6 c-55 -6 -67 -4 -80 11 -22 27 -16 102 13 166 24 51 33 60 87 88 34 16 61 35 61 40 0 14 -9 12 -63 -14z m241 -423 c-10 -2 -26 -2 -35 0 -10 3 -2 5 17 5 19 0 27 -2 18 -5z"/>
<path d="M1088 6150 c-81 -43 -138 -154 -138 -268 l0 -66 36 40 c20 21 49 58 65 81 16 23 74 80 129 125 55 46 100 86 100 89 0 25 -143 24 -192 -1z"/>
<path d="M2548 6042 c-32 -70 -34 -85 -23 -168 9 -62 -13 -145 -49 -189 l-25 -30 6 63 c3 34 2 62 -2 62 -18 0 -163 -154 -182 -193 -12 -23 -23 -70 -25 -104 -4 -59 -3 -62 20 -68 30 -7 34 -3 57 59 10 29 38 69 66 98 27 28 49 54 49 59 0 4 6 6 13 3 15 -6 73 71 113 150 18 36 48 75 81 103 l51 44 -13 54 c-16 69 -44 107 -88 119 -15 4 -25 -9 -49 -62z"/>
<path d="M2949 6041 c-159 -65 -177 -76 -189 -120 -5 -21 -11 -102 -13 -180 -1 -77 -4 -141 -7 -141 -3 0 -14 -3 -25 -6 -21 -5 -21 -4 -9 158 7 89 10 165 7 168 -9 9 -114 -111 -161 -184 -77 -121 -95 -176 -57 -176 20 0 73 -68 81 -104 6 -28 7 -29 20 -11 8 10 14 33 14 50 0 17 7 41 16 54 l17 23 13 -31 c7 -17 20 -34 28 -37 21 -8 138 72 200 135 l50 50 73 -6 c65 -5 73 -4 79 13 4 10 24 57 45 104 40 89 51 159 31 196 -16 31 -80 84 -100 84 -9 0 -60 -18 -113 -39z"/>
<path d="M3130 6074 c1 -5 22 -26 49 -46 47 -36 48 -37 87 -23 21 8 49 14 62 15 33 0 27 19 -11 35 -40 17 -187 32 -187 19z"/>
<path d="M1168 6021 c-55 -35 -93 -74 -118 -121 -19 -38 -42 -111 -36 -118 2 -2 25 17 51 43 30 29 63 50 89 57 42 11 42 12 54 73 6 34 14 70 18 79 9 23 -6 20 -58 -13z"/>
<path d="M3330 6002 c-66 -21 -120 -49 -120 -62 0 -6 7 -10 16 -10 14 0 97 -37 241 -107 73 -35 151 -95 199 -154 42 -52 68 -118 79 -207 9 -66 22 -58 61 36 21 52 28 84 28 143 1 68 -3 83 -37 152 -45 91 -93 136 -197 185 -92 43 -184 51 -270 24z"/>
<path d="M3185 5898 c-2 -7 -9 -40 -15 -73 -5 -33 -22 -85 -38 -115 -27 -55 -27 -55 -69 -52 -43 3 -43 3 -43 -31 l0 -34 82 -8 c160 -14 254 -57 372 -174 81 -78 107 -129 120 -227 6 -41 3 -63 -19 -120 -14 -38 -33 -80 -41 -92 -27 -40 -9 -34 33 11 62 68 86 141 81 257 -3 81 -8 102 -31 144 l-27 48 20 25 c25 32 50 114 50 163 0 30 -5 39 -25 48 -39 18 -45 15 -45 -24 0 -36 -33 -128 -56 -153 -10 -11 -19 -8 -56 17 -52 36 -189 105 -241 122 -28 9 -37 17 -34 29 42 146 60 247 40 228 -3 -4 -17 0 -30 8 -18 12 -24 13 -28 3z"/>
<path d="M963 5763 c-4 -27 -8 -86 -8 -133 0 -72 5 -93 29 -143 31 -65 49 -68 34 -5 -5 24 -8 86 -5 138 4 72 1 100 -9 115 -8 10 -14 31 -14 47 0 45 -18 32 -27 -19z"/>
<path d="M1259 5727 c-36 -12 -84 -37 -108 -56 -50 -40 -98 -120 -107 -178 -5 -36 -2 -47 20 -74 14 -17 26 -35 26 -40 0 -6 5 -7 10 -4 6 3 10 18 10 33 0 101 69 182 198 235 48 19 95 38 104 41 15 4 16 10 7 36 -10 27 -15 30 -52 30 -23 0 -71 -11 -108 -23z"/>
<path d="M1932 5724 c3 -16 8 -37 12 -46 6 -13 3 -15 -13 -11 -11 3 -17 11 -14 18 3 9 -11 22 -36 34 -50 26 -51 26 -51 -4 0 -24 -2 -25 -70 -25 -38 0 -70 -3 -70 -7 0 -5 10 -21 23 -37 l23 -29 -51 -51 c-61 -61 -85 -121 -85 -213 0 -74 23 -118 91 -177 54 -46 65 -46 34 0 -37 54 -48 102 -44 190 5 95 23 127 98 168 65 35 145 44 198 23 43 -17 93 -59 111 -94 20 -36 14 -35 -24 6 -67 75 -179 105 -250 68 -33 -17 -93 -77 -78 -77 6 0 21 11 34 25 43 46 146 43 221 -8 19 -12 49 -45 67 -72 31 -45 34 -56 30 -105 -6 -75 -55 -178 -88 -187 -14 -3 -31 -10 -38 -16 -18 -15 -133 -1 -231 28 -47 14 -87 23 -89 20 -11 -11 88 -94 144 -121 46 -23 75 -30 134 -32 l75 -2 48 44 c54 50 100 141 95 183 -4 25 -5 26 -13 8 -12 -29 -42 -66 -67 -84 -19 -13 -19 -10 4 20 34 44 67 116 69 149 1 21 2 20 11 -10 10 -34 6 -121 -8 -170 -7 -25 -7 -25 15 -6 12 11 31 51 43 89 39 130 12 241 -84 344 -32 34 -41 48 -23 34 17 -12 41 -37 55 -56 28 -39 40 -44 40 -16 0 21 -167 183 -221 215 l-32 19 5 -29z"/>
<path d="M1595 5716 c-64 -15 -75 -22 -75 -47 0 -24 4 -24 38 1 18 13 51 22 100 26 40 4 69 10 65 15 -16 15 -79 18 -128 5z"/>
<path d="M1592 5662 c-107 -41 -192 -139 -237 -276 -42 -126 -47 -276 -9 -276 9 0 65 21 125 48 l109 47 -7 40 c-25 128 5 298 68 385 16 22 29 42 29 45 0 9 -35 4 -78 -13z"/>
<path d="M1400 5623 c-19 -13 -57 -35 -83 -49 -52 -27 -122 -86 -138 -117 -10 -18 -8 -19 33 -12 28 5 53 17 72 36 15 16 37 29 48 29 56 0 118 57 118 109 0 30 -12 31 -50 4z"/>
<path d="M2853 5571 c-113 -77 -111 -74 -79 -111 14 -17 26 -35 26 -40 0 -5 3 -15 6 -23 4 -11 -17 -31 -70 -66 -85 -58 -111 -88 -94 -108 15 -18 34 -16 50 5 24 33 103 90 178 129 49 26 74 44 71 54 -16 62 -18 84 -10 114 6 19 20 41 32 50 17 12 20 19 11 33 -18 28 -35 23 -121 -37z"/>
<path d="M2485 5530 c-18 -20 -18 -24 -2 -109 9 -48 17 -96 17 -107 0 -13 16 -28 45 -44 l45 -24 52 53 c29 29 73 64 96 78 l44 26 -35 35 c-35 34 -36 35 -61 19 -14 -10 -41 -40 -60 -69 l-35 -51 -15 34 c-8 19 -22 59 -30 89 -8 30 -21 63 -28 73 -13 18 -14 17 -33 -3z"/>
<path d="M2190 5491 c0 -29 18 -71 30 -71 5 0 10 20 10 45 0 38 -3 45 -20 45 -13 0 -20 -7 -20 -19z"/>
<path d="M1262 5435 c-35 -18 -72 -35 -83 -38 -10 -3 -19 -12 -19 -21 0 -25 -38 -95 -76 -143 -19 -23 -34 -46 -34 -51 0 -15 107 -35 147 -27 19 3 50 13 68 22 30 14 32 18 28 57 -3 27 4 67 21 118 16 47 23 85 18 97 -7 18 -10 18 -70 -14z"/>
<path d="M3020 5423 c-20 -8 -50 -34 -50 -45 0 -5 8 -4 19 1 41 22 214 -22 291 -74 38 -25 58 -33 76 -29 32 8 30 17 -7 49 -87 72 -259 124 -329 98z"/>
<path d="M2215 5393 c4 -10 9 -58 12 -108 4 -75 2 -100 -16 -150 -12 -33 -23 -67 -24 -75 -3 -22 168 -133 244 -159 35 -12 109 -26 164 -31 55 -5 108 -12 117 -15 31 -12 38 4 19 38 -10 18 -38 66 -61 107 -24 41 -52 88 -62 103 -36 51 -12 39 30 -15 43 -56 86 -136 97 -179 3 -14 48 -67 99 -118 l93 -93 61 31 c34 17 72 31 85 31 14 0 30 6 36 14 9 11 0 29 -47 87 -102 128 -186 196 -270 219 -24 6 -71 25 -103 41 -33 17 -73 31 -90 31 -16 1 -35 9 -42 18 -7 9 -34 27 -60 38 -50 22 -82 45 -201 144 -71 60 -93 71 -81 41z"/>
<path d="M2901 5332 c-62 -31 -53 -46 25 -39 93 7 175 -8 259 -49 l70 -33 18 20 c9 12 17 25 17 29 0 11 -97 55 -163 75 -70 21 -183 20 -226 -3z"/>
<path d="M3393 5261 c-7 -11 -33 -32 -58 -46 -25 -15 -45 -30 -45 -34 0 -3 9 -12 21 -19 29 -18 69 -109 69 -158 0 -22 -7 -63 -15 -89 -8 -27 -12 -51 -10 -53 13 -14 77 13 103 42 42 49 55 96 50 185 -5 78 -22 126 -61 169 -25 27 -39 28 -54 3z"/>
<path d="M2729 5214 c-25 -8 -53 -22 -62 -32 -17 -18 -13 -21 100 -73 65 -29 151 -72 190 -96 43 -24 96 -46 129 -52 63 -12 142 -49 197 -92 60 -48 42 -10 -27 57 -50 49 -79 67 -137 89 -155 58 -165 63 -309 183 -34 29 -36 29 -81 16z"/>
<path d="M1555 5172 c-107 -43 -205 -92 -205 -104 0 -14 109 -148 121 -148 13 0 80 -42 75 -47 -10 -11 -91 42 -135 88 l-48 50 -64 -12 c-50 -9 -69 -18 -87 -40 l-23 -28 38 -10 c21 -6 45 -11 54 -11 9 0 21 -11 27 -25 12 -27 28 -33 34 -13 3 8 15 6 39 -9 29 -18 45 -20 107 -16 39 3 72 10 72 14 0 5 23 0 50 -11 31 -12 74 -20 112 -20 65 0 189 30 249 60 49 25 118 85 152 131 31 42 26 50 -13 19 -14 -11 -31 -20 -39 -20 -8 0 -24 -8 -35 -19 -30 -26 -81 -41 -140 -41 -59 0 -127 16 -141 34 -5 6 -27 22 -49 35 -48 30 -76 75 -76 123 0 20 -3 39 -7 41 -5 2 -35 -7 -68 -21z"/>
<path d="M1245 5155 c-45 -20 -114 -27 -167 -17 -52 10 -58 4 -37 -41 8 -19 23 -25 77 -35 48 -8 71 -17 83 -33 16 -22 19 -22 57 -10 65 22 65 21 46 89 -10 34 -20 62 -23 61 -3 0 -19 -7 -36 -14z"/>
<path d="M1070 5048 c0 -2 9 -28 20 -58 12 -30 23 -61 25 -68 3 -9 17 -3 45 20 34 27 40 36 35 58 -4 14 -9 28 -13 32 -7 6 -112 22 -112 16z"/>
<path d="M2095 4962 c-31 -48 -60 -77 -99 -102 -62 -39 -68 -50 -30 -50 57 0 109 25 157 73 81 83 92 126 36 140 -16 4 -29 -8 -64 -61z"/>
<path d="M2267 4943 c-11 -10 22 -62 107 -166 45 -56 96 -123 114 -149 21 -31 41 -48 61 -53 16 -3 32 -13 35 -21 5 -14 103 -64 154 -79 22 -6 23 -5 17 32 -12 72 -8 68 -92 66 -74 -1 -75 -1 -25 7 29 4 64 15 78 25 33 21 24 33 -70 84 -42 24 -86 58 -109 85 -42 51 -100 93 -167 121 -25 10 -57 27 -71 37 -14 9 -29 15 -32 11z"/>
<path d="M3084 4914 c-5 -28 -2 -40 16 -59 15 -16 23 -38 24 -67 1 -24 8 -54 16 -68 7 -14 16 -38 20 -55 4 -21 12 -30 25 -30 15 0 28 21 57 85 62 143 65 130 -47 184 -53 25 -99 46 -101 46 -2 0 -6 -16 -10 -36z"/>
<path d="M2190 4909 c-26 -11 -100 -77 -100 -91 0 -4 7 -8 16 -8 25 0 158 32 168 41 5 5 4 21 -4 38 -13 33 -34 38 -80 20z"/>
<path d="M1130 4873 c0 -12 31 -36 92 -73 82 -49 98 -55 160 -58 37 -3 68 -1 68 2 0 4 -10 24 -22 45 -19 33 -26 38 -57 37 -29 -1 -35 -5 -33 -19 3 -17 -2 -16 -40 8 -45 27 -107 57 -145 69 -18 6 -23 3 -23 -11z"/>
<path d="M2500 4862 c0 -15 97 -108 177 -169 l73 -56 43 12 c59 17 97 32 97 40 0 3 -23 29 -51 56 -28 28 -55 58 -60 68 -7 12 -22 17 -54 17 -38 0 -158 21 -207 36 -10 3 -18 1 -18 -4z"/>
<path d="M1430 4817 c0 -7 13 -26 30 -42 l30 -29 37 21 c21 11 55 26 76 33 63 20 41 30 -68 30 -80 0 -105 -3 -105 -13z"/>
<path d="M1610 4791 c-75 -28 -100 -54 -64 -68 20 -8 152 12 188 28 19 9 26 20 26 41 0 26 -3 28 -37 27 -21 0 -72 -13 -113 -28z"/>
<path d="M2245 4786 l-70 -22 -3 -57 c-2 -31 1 -57 6 -57 17 0 182 91 182 100 0 5 -10 20 -22 33 l-23 24 -70 -21z"/>
<path d="M1878 4784 c-43 -9 -78 -20 -78 -24 0 -17 106 -103 155 -126 52 -25 83 -28 148 -18 l37 7 0 68 0 69 -35 14 c-54 23 -142 27 -227 10z"/>
<path d="M2940 4680 c-19 -11 -53 -27 -74 -37 -22 -10 -42 -24 -44 -31 -9 -30 174 -85 270 -80 61 3 63 4 66 31 2 15 -4 50 -13 78 l-17 50 -56 -2 c-32 -1 -66 0 -77 4 -11 3 -36 -3 -55 -13z"/>
<path d="M2230 4650 c-79 -67 -73 -53 -66 -158 4 -53 10 -100 12 -104 3 -4 18 -8 34 -8 22 0 32 7 42 27 12 24 63 69 112 98 12 7 19 28 22 71 l6 61 -52 21 c-66 28 -68 28 -110 -8z"/>
<path d="M1900 4608 c0 -13 15 -59 33 -103 32 -77 34 -80 82 -98 27 -10 65 -17 84 -15 32 3 36 6 43 43 5 22 7 66 6 99 l-3 58 -96 2 c-77 1 -101 5 -116 19 -26 23 -33 22 -33 -5z"/>
<path d="M2756 4593 c31 -127 84 -193 157 -193 23 1 65 9 94 19 50 17 123 60 123 72 0 3 -28 9 -63 12 -85 8 -204 47 -260 85 -25 18 -48 32 -51 32 -4 0 -3 -12 0 -27z"/>
<path d="M2411 4591 c-6 -10 -13 -37 -17 -59 -7 -43 -42 -82 -173 -191 -29 -24 -51 -45 -49 -47 2 -1 46 13 98 33 147 55 218 73 313 80 74 5 90 9 102 27 8 11 15 24 15 28 0 5 -38 26 -84 48 -47 22 -97 54 -113 70 -33 35 -77 40 -92 11z"/>
<path d="M1905 4373 c-173 -135 -386 -342 -456 -443 -89 -131 -209 -341 -209 -367 0 -24 3 -22 39 23 21 27 62 87 91 134 29 47 61 94 71 105 10 11 24 33 33 49 29 57 139 167 249 250 193 146 222 171 247 219 22 41 23 48 10 62 -13 13 -22 9 -75 -32z"/>
<path d="M2566 4314 c-15 -74 -25 -178 -20 -202 17 -69 111 -123 228 -130 44 -3 77 -1 74 4 -46 95 -50 109 -42 133 8 21 18 28 62 35 28 5 52 13 52 17 0 4 -22 24 -49 44 -27 21 -54 48 -59 60 -10 22 -74 42 -198 61 -40 6 -42 5 -48 -22z"/>
<path d="M2402 4295 c-62 -29 -128 -73 -199 -133 l-52 -44 10 34 c13 44 2 106 -19 110 -9 2 -39 0 -67 -4 -27 -5 -60 -6 -72 -3 -27 6 -27 4 -8 -61 18 -60 51 -95 94 -96 38 -1 39 -5 5 -18 -49 -19 -90 19 -110 103 -3 15 -10 30 -15 33 -18 11 -8 -74 21 -186 55 -210 89 -281 169 -352 45 -41 132 -80 147 -66 11 12 -11 40 -43 53 -92 39 -98 241 -10 357 21 28 54 54 92 73 l60 30 7 53 c4 39 15 65 37 92 17 21 31 41 31 44 0 12 -26 5 -78 -19z"/>
<path d="M1888 4086 c-34 -74 -35 -75 -34 -208 1 -154 14 -195 71 -223 39 -18 72 -13 123 17 39 24 41 38 6 38 -41 0 -87 27 -113 67 -33 51 -40 185 -17 297 19 91 18 86 8 86 -5 0 -24 -33 -44 -74z"/>
<path d="M2897 4132 c-20 -22 -22 -70 -5 -107 15 -32 21 -32 35 5 15 39 28 38 73 -8 42 -42 66 -106 56 -147 -6 -25 -8 -26 -25 -11 -48 44 -19 -23 31 -71 26 -24 28 -25 51 -10 23 15 24 19 15 73 -11 69 -52 155 -113 234 -50 65 -86 78 -118 42z"/>
<path d="M2453 4107 c-29 -17 -54 -36 -57 -43 -2 -6 0 -29 5 -50 5 -22 12 -92 15 -156 4 -65 11 -118 16 -118 5 0 19 5 30 11 27 15 35 1 44 -78 3 -35 7 -63 9 -63 1 0 42 22 90 50 49 27 101 52 116 55 19 4 29 15 34 33 4 15 22 60 41 101 19 41 33 76 31 78 -2 2 -30 8 -62 14 -139 25 -226 85 -241 163 -3 20 -9 36 -13 35 -3 0 -29 -15 -58 -32z"/>
<path d="M1760 3966 c-99 -131 -118 -318 -39 -386 18 -17 117 -40 168 -40 23 0 111 47 111 59 0 4 -20 12 -43 18 -92 25 -140 115 -141 263 0 47 3 97 7 113 12 46 -18 33 -63 -27z"/>
<path d="M2860 3929 c0 -8 9 -33 19 -56 l19 -41 -30 9 c-39 11 -44 7 -59 -39 -6 -20 -22 -63 -35 -94 l-24 -57 26 -97 c24 -93 30 -140 54 -428 5 -65 11 -121 14 -123 2 -2 16 -5 31 -6 l28 -2 -2 218 c-1 152 -6 242 -17 300 -26 132 -26 202 -2 256 25 54 26 56 33 49 3 -3 -2 -24 -10 -48 -8 -23 -15 -65 -15 -92 0 -79 123 -544 141 -533 4 3 3 22 -3 43 -6 20 -8 82 -6 137 5 87 12 119 57 249 28 82 51 155 51 163 0 11 -8 13 -29 8 -16 -3 -32 -2 -35 3 -15 25 -206 192 -206 181z"/>
<path d="M1517 3838 c-44 -44 -105 -121 -151 -190 -42 -65 -92 -130 -111 -145 -32 -25 -35 -33 -34 -78 0 -27 8 -70 17 -94 21 -54 52 -66 126 -51 42 9 60 22 138 100 57 57 88 95 85 104 -34 88 -32 266 4 361 34 89 23 88 -74 -7z"/>
<path d="M2345 3822 c-3 -37 -15 -136 -26 -219 l-19 -153 40 -77 c25 -48 43 -98 47 -130 4 -40 13 -60 37 -85 34 -36 103 -98 109 -98 2 0 -4 42 -14 93 -10 50 -30 193 -45 317 -20 164 -32 228 -43 238 -10 8 -17 35 -19 76 -4 56 -8 66 -32 85 l-28 20 -7 -67z"/>
<path d="M1643 3514 c-24 -23 -43 -44 -43 -47 0 -14 71 -24 113 -16 52 9 130 44 148 65 10 12 3 14 -44 14 -30 0 -72 6 -93 13 -39 12 -39 12 -81 -29z"/>
<path d="M1205 3520 c-13 -20 -99 -64 -154 -77 -31 -7 -105 -16 -166 -18 -78 -4 -110 -9 -110 -18 0 -6 27 -26 60 -44 33 -18 54 -33 46 -33 -27 0 18 -37 92 -74 82 -42 161 -56 198 -35 24 13 24 13 -16 26 l-40 13 53 -5 c60 -7 63 -1 32 60 -27 52 -25 95 5 155 14 27 25 52 25 55 0 9 -19 5 -25 -5z m-98 -256 c-3 -3 -12 -4 -19 -1 -8 3 -5 6 6 6 11 1 17 -2 13 -5z"/>
<path d="M2536 3501 c-3 -7 8 -167 25 -349 7 -80 17 -139 25 -147 7 -7 39 -15 71 -19 57 -6 59 -7 83 -54 34 -64 109 -138 149 -147 41 -9 51 1 23 21 -30 21 -69 100 -87 176 -8 35 -20 146 -26 248 -6 102 -15 190 -20 196 -21 26 -234 92 -243 75z"/>
<path d="M1632 3384 c-13 -9 -35 -19 -50 -23 -15 -4 -26 -12 -25 -17 1 -5 -13 -17 -32 -27 -19 -9 -35 -21 -35 -25 0 -5 14 -19 31 -31 26 -19 35 -21 56 -12 42 19 89 13 123 -15 28 -24 31 -32 29 -72 -3 -43 -2 -44 35 -57 21 -8 51 -26 67 -41 32 -30 75 -111 65 -121 -3 -4 -32 21 -64 55 -58 63 -82 79 -62 42 6 -11 8 -24 5 -29 -3 -5 8 -19 25 -31 16 -12 53 -57 82 -101 l51 -79 25 22 c47 45 47 56 0 75 -23 9 -37 18 -30 21 6 2 21 -2 33 -8 25 -14 34 -6 42 37 6 29 3 35 -21 47 -70 36 -134 133 -193 289 -29 78 -36 89 -61 94 -16 3 -31 10 -34 14 -8 14 -37 11 -62 -7z"/>
<path d="M2914 3308 c12 -43 19 -195 12 -251 -5 -39 -15 -67 -32 -87 l-25 -29 26 -60 c27 -59 89 -131 102 -117 11 10 22 129 22 238 1 90 -1 101 -34 169 -19 41 -35 81 -35 91 0 24 -21 68 -33 68 -5 0 -7 -10 -3 -22z"/>
<path d="M1355 3254 c-27 -7 -69 -14 -92 -14 -39 0 -42 -2 -53 -36 -7 -19 -10 -37 -8 -39 1 -1 37 -13 78 -25 41 -12 88 -29 104 -37 25 -13 30 -13 44 1 15 14 15 17 -2 29 -16 12 -15 16 23 50 23 20 41 43 41 50 0 38 -48 46 -135 21z"/>
<path d="M1501 3196 c-43 -68 -26 -102 71 -145 40 -18 92 -42 116 -53 27 -13 58 -41 88 -79 25 -33 51 -58 57 -56 60 20 -115 179 -243 222 -65 22 -82 58 -51 110 19 34 20 35 1 35 -10 0 -27 -15 -39 -34z"/>
<path d="M1578 3194 c-40 -17 -55 -50 -18 -40 11 3 29 9 40 12 29 8 63 -5 56 -22 -7 -19 14 -30 25 -13 35 56 -29 94 -103 63z"/>
<path d="M2367 3180 c-14 -39 -15 -299 -2 -386 24 -159 81 -295 131 -314 14 -6 59 -32 101 -60 42 -27 79 -50 84 -50 14 0 69 124 89 204 11 44 20 107 20 141 l0 62 -152 134 c-138 122 -203 189 -250 259 -12 19 -17 22 -21 10z"/>
<path d="M1620 2979 c0 -37 37 -83 95 -118 30 -19 58 -32 60 -29 9 8 -17 72 -43 107 -22 30 -74 61 -102 61 -5 0 -10 -10 -10 -21z"/>
<path d="M2019 2966 c-2 -2 -2 -28 -1 -58 4 -49 7 -55 43 -80 22 -16 44 -28 50 -28 14 0 4 87 -13 124 -12 29 -65 56 -79 42z"/>
<path d="M1989 2824 c-13 -15 -35 -30 -49 -36 l-25 -9 42 -40 43 -40 38 20 c64 33 70 47 36 82 -46 49 -58 52 -85 23z"/>
<path d="M1655 2794 c-22 -20 -50 -40 -62 -45 -42 -16 -39 -89 3 -89 11 0 10 -8 -5 -38 -23 -45 -39 -152 -22 -152 15 0 130 44 182 70 58 29 209 129 209 138 0 10 -127 42 -163 42 -16 0 -48 -12 -73 -26 -24 -14 -44 -24 -44 -21 0 3 25 20 55 37 51 29 59 31 102 22 46 -10 73 -3 73 19 0 16 -51 42 -108 54 -31 7 -68 15 -82 19 -20 4 -34 -2 -65 -30z"/>
<path d="M2830 2726 c0 -119 -41 -261 -96 -333 l-26 -34 35 -52 c60 -90 113 -207 160 -352 25 -77 48 -155 52 -172 4 -18 10 -33 15 -33 10 0 27 153 40 355 10 173 22 244 51 313 11 24 19 65 19 92 0 27 4 61 10 75 9 24 5 31 -51 88 -52 52 -72 65 -133 84 -39 12 -72 23 -73 23 -2 0 -3 -24 -3 -54z"/>
<path d="M1482 2707 c-63 -47 -98 -114 -86 -164 8 -30 49 -59 96 -68 35 -7 36 -6 43 32 3 21 15 58 26 82 19 43 19 44 0 57 -10 8 -22 29 -25 49 -8 41 -12 42 -54 12z"/>
<path d="M3128 2533 c-8 -10 -18 -27 -22 -37 -7 -20 41 -231 57 -253 13 -17 49 -16 73 1 18 14 18 15 -8 35 -15 12 -38 45 -52 74 -28 57 -45 147 -29 147 15 0 36 -28 29 -38 -3 -6 1 -26 9 -46 8 -19 15 -50 15 -68 1 -31 1 -32 16 -13 16 22 11 65 -12 103 -8 12 -10 22 -4 22 12 0 -6 48 -27 72 -20 22 -26 22 -45 1z"/>
<path d="M2420 2503 c0 -6 9 -41 21 -78 11 -38 20 -94 20 -128 0 -49 4 -63 19 -74 33 -23 107 -136 114 -173 8 -42 82 -123 146 -160 54 -32 121 -96 189 -183 30 -37 55 -67 56 -65 5 5 -88 272 -140 403 -77 195 -109 252 -151 270 -45 19 -159 94 -199 132 -54 51 -75 66 -75 56z"/>
<path d="M3077 2234 c-6 -129 -5 -142 18 -208 14 -39 40 -150 60 -247 35 -181 71 -309 86 -309 13 0 11 22 -11 145 -11 61 -34 206 -51 323 -27 192 -28 214 -14 228 22 22 19 49 -9 67 -15 10 -31 37 -41 69 -10 29 -21 57 -25 61 -4 4 -10 -54 -13 -129z"/>
<path d="M2495 2158 c15 -50 67 -109 82 -94 7 6 -70 116 -80 116 -5 0 -5 -10 -2 -22z"/>
<path d="M3040 2026 c0 -18 -9 -87 -21 -152 -17 -95 -20 -142 -15 -229 7 -131 34 -252 56 -247 8 2 37 6 65 9 72 7 78 10 66 30 -12 25 -84 340 -112 496 -22 123 -39 163 -39 93z"/>
<path d="M2733 1835 c23 -58 81 -259 98 -336 11 -52 25 -96 30 -98 6 -1 19 -13 30 -24 l19 -21 26 27 c13 15 36 30 49 33 28 7 28 11 -12 134 -32 96 -41 110 -141 214 -77 81 -112 105 -99 71z"/>
<path d="M3229 1365 l-27 -53 30 -22 c16 -12 34 -32 40 -46 16 -35 46 -30 83 13 l32 38 -51 62 c-28 34 -58 62 -66 62 -8 0 -27 -24 -41 -54z"/>
<path d="M2989 1380 c-9 -5 -32 -33 -52 -62 -40 -59 -57 -142 -38 -191 l11 -27 42 27 c35 24 52 28 107 28 121 -1 187 -56 218 -183 10 -40 21 -72 24 -72 17 0 40 43 50 93 11 54 10 59 -17 114 -39 78 -146 189 -233 241 -75 44 -86 47 -112 32z"/>
<path d="M3376 1110 c3 -41 7 -79 8 -85 2 -5 -1 -40 -6 -76 -8 -61 -7 -70 14 -102 13 -20 26 -36 29 -37 10 0 19 56 19 114 0 69 -24 176 -49 223 l-21 38 6 -75z"/>
<path d="M2994 1121 c-66 -40 -80 -95 -44 -166 11 -22 20 -45 20 -53 0 -27 24 -5 33 29 10 44 41 69 83 69 19 0 34 -2 34 -5 0 -3 -16 -31 -36 -62 -22 -34 -46 -59 -64 -66 -35 -13 -47 -45 -81 -207 -12 -58 -23 -106 -24 -108 -10 -11 6 171 18 203 28 79 29 113 7 181 -12 35 -30 74 -41 86 l-20 23 5 -35 c3 -19 6 -118 7 -220 1 -173 -1 -191 -26 -274 -14 -49 -24 -94 -21 -101 2 -7 -7 -18 -21 -24 -24 -11 -25 -15 -19 -69 13 -117 97 -236 192 -271 73 -28 137 -27 199 3 60 29 125 87 125 112 0 19 -51 101 -105 167 -30 37 -30 37 -90 31 -75 -8 -135 8 -179 46 -18 17 -39 30 -46 30 -8 0 -10 8 -6 23 3 12 6 33 6 46 0 13 3 21 8 17 4 -4 7 -24 7 -43 0 -34 4 -38 63 -71 49 -27 65 -32 77 -22 8 7 42 10 87 9 l73 -2 12 149 c13 169 16 413 5 430 -11 17 -48 34 -74 34 -19 0 -28 13 -52 65 -25 56 -32 65 -55 65 -14 0 -40 -9 -57 -19z"/>
<path d="M3286 842 c-2 -4 -10 -80 -16 -167 -6 -88 -17 -191 -25 -229 -14 -66 -14 -71 4 -90 11 -12 35 -54 55 -95 l35 -73 21 33 c49 81 80 243 80 424 l0 100 -46 53 c-35 40 -52 52 -74 52 -16 0 -31 -4 -34 -8z"/>
</g>
</svg>