<?xml version="1.0" standalone="no"?><!DOCTYPE svg PUBLIC "-//W3C//DTD SVG 20010904//EN" "http://www.w3.org/TR/2001/REC-SVG-20010904/DTD/svg10.dtd"><svg xmlns="http://www.w3.org/2000/svg" version="1.0" width="16mm" height="4.388mm" viewBox="0 0 705.315758 193.432748" preserveAspectRatio="xMidYMid meet">
<metadata>
Created by potrace 1.16, written by Peter Selinger 2001-2019
</metadata>
<g transform="translate(-16.080948,226.707188) scale(0.100000,-0.100000)" fill="#000000" stroke="none">
<path d="M3915 2258 c-16 -6 -38 -19 -48 -29 -11 -10 -36 -21 -56 -24 -55 -10 -153 -66 -176 -102 -17 -26 -24 -30 -52 -26 -41 7 -75 -14 -96 -60 -12 -24 -25 -36 -46 -40 -16 -3 -35 -13 -44 -21 -13 -14 -16 -14 -28 0 -10 13 -10 17 0 24 8 4 11 16 6 29 -3 11 -3 21 2 21 5 0 9 9 10 19 2 23 -24 36 -42 21 -9 -8 -15 -8 -20 0 -3 5 -17 10 -31 10 -13 0 -33 9 -45 21 -20 20 -22 20 -46 3 -25 -16 -27 -16 -43 4 -27 33 -90 72 -117 72 -36 0 -135 -54 -160 -87 -25 -35 -38 -108 -25 -142 9 -25 -10 -81 -28 -81 -26 0 -32 -165 -10 -275 26 -127 39 -247 30 -265 -15 -29 -12 -59 10 -95 15 -25 20 -47 18 -91 -1 -33 1 -66 5 -75 17 -35 -122 -36 -453 -3 -80 8 -176 19 -215 24 -38 5 -115 12 -170 15 -55 3 -116 7 -135 10 -64 9 -462 44 -644 56 -189 12 -314 9 -591 -15 -187 -17 -446 -58 -489 -77 -71 -33 9 -68 229 -99 188 -28 392 -40 743 -45 306 -4 335 -8 404 -51 37 -24 146 -64 172 -64 8 0 28 12 45 26 l31 26 87 -25 c49 -14 131 -35 183 -47 52 -12 131 -30 175 -40 44 -11 121 -26 172 -34 50 -8 108 -19 130 -24 21 -6 63 -13 94 -17 46 -5 58 -10 71 -33 9 -15 27 -38 41 -50 l25 -24 -20 -44 c-19 -44 -19 -46 -1 -82 23 -47 116 -112 161 -112 17 0 32 5 32 10 0 6 -14 10 -31 10 -41 0 -122 53 -145 96 -17 31 -17 35 -1 69 17 36 17 36 41 18 18 -13 23 -24 19 -40 -8 -34 6 -61 45 -88 55 -37 60 -30 11 14 -37 32 -42 41 -34 59 10 20 11 20 65 -12 70 -41 198 -83 275 -90 61 -5 208 10 236 25 12 6 25 -1 48 -25 34 -35 100 -61 131 -51 35 11 34 38 -4 71 -20 17 -36 34 -36 37 0 3 14 8 31 12 17 4 39 15 48 24 10 10 57 45 106 79 81 57 93 62 141 62 30 0 100 6 156 14 57 8 168 22 248 30 265 30 473 55 670 81 107 14 248 32 312 40 64 8 127 20 140 25 45 20 -144 0 -577 -61 -77 -11 -221 -29 -320 -39 -99 -11 -211 -24 -250 -29 -38 -6 -112 -13 -163 -16 -51 -4 -115 -10 -143 -14 -27 -4 -49 -5 -49 0 0 15 66 28 240 48 453 54 617 72 668 76 31 2 67 6 81 9 14 3 58 8 96 11 91 7 125 14 125 26 0 5 -9 9 -20 9 -11 0 -20 5 -20 11 0 6 -6 4 -14 -4 -10 -10 -52 -16 -143 -21 -70 -4 -168 -13 -218 -21 -49 -8 -175 -24 -280 -35 -335 -36 -378 -42 -465 -62 -47 -10 -94 -27 -105 -37 -11 -10 -40 -29 -65 -41 -43 -22 -145 -91 -183 -126 -11 -9 -32 -20 -47 -24 -33 -9 -45 0 -55 43 -8 30 -25 47 -25 23 0 -32 21 -66 69 -114 28 -28 51 -54 51 -57 0 -4 -19 -4 -42 0 -55 9 -105 46 -113 85 -4 16 -11 30 -17 30 -6 0 -8 -10 -4 -24 5 -22 2 -24 -64 -35 -128 -21 -212 -15 -325 24 -56 19 -123 46 -149 61 -56 32 -139 111 -186 179 -27 39 -35 46 -38 31 -3 -13 -6 -15 -12 -7 -4 7 -90 33 -191 57 -101 24 -209 51 -239 60 -119 33 -204 54 -278 68 -42 9 -93 20 -112 26 -42 12 -90 13 -90 1 0 -4 19 -13 43 -19 l42 -11 -40 4 c-22 3 -45 12 -51 20 -12 16 -69 37 -77 28 -9 -8 31 -42 58 -49 14 -3 28 -10 30 -15 9 -14 -32 -29 -67 -23 -35 6 -161 54 -155 60 5 5 100 -22 125 -35 13 -7 33 -11 45 -8 20 3 19 4 -8 15 -16 7 -39 17 -50 22 -18 8 -72 24 -130 37 -31 7 -38 9 -70 23 -59 27 12 23 100 -4 88 -27 115 -32 99 -17 -17 16 -174 61 -215 61 -24 0 -57 10 -82 24 -93 52 -123 72 -139 91 -10 11 -17 15 -18 8 0 -25 52 -70 131 -112 125 -67 129 -74 33 -67 -43 3 -212 8 -374 11 -162 3 -338 10 -390 16 -111 12 -402 58 -410 65 -9 10 25 22 104 38 115 21 212 36 276 40 30 2 136 12 235 21 128 12 226 15 340 11 142 -5 674 -47 780 -61 22 -3 114 -12 205 -20 91 -8 221 -21 290 -29 98 -11 277 -25 333 -26 5 0 5 -5 1 -12 -5 -8 -2 -9 12 -4 67 28 172 36 464 36 168 0 323 -4 345 -10 22 -5 60 -10 84 -10 l44 0 -28 -26 c-37 -35 -26 -41 20 -9 33 22 48 25 124 25 150 1 457 15 896 40 88 5 192 9 230 9 39 0 131 3 205 8 247 15 660 3 935 -27 50 -6 173 -19 275 -30 330 -36 470 -57 745 -111 28 -6 61 -16 75 -24 25 -14 25 -14 -15 -15 -22 0 -197 -5 -390 -10 -443 -13 -977 -16 -1032 -6 -45 8 -66 -1 -131 -56 -49 -41 -75 -37 -117 20 -19 26 -35 50 -35 55 0 12 58 8 93 -6 18 -8 50 -17 72 -21 35 -7 38 -6 25 7 -15 14 -139 57 -166 57 -38 0 -111 62 -120 104 -6 29 -7 30 -15 8 -13 -35 6 -68 55 -97 63 -37 52 -51 -45 -59 -43 -4 -79 -12 -79 -17 0 -5 38 -9 83 -9 l84 0 42 -50 c50 -59 75 -63 123 -21 65 57 96 68 168 58 53 -6 522 -3 1045 8 212 5 375 18 386 31 17 21 -39 48 -139 68 -48 10 -105 21 -127 26 -95 21 -413 65 -640 90 -55 6 -134 15 -175 20 -41 6 -163 15 -270 20 -107 6 -229 13 -270 16 -96 8 -227 6 -349 -6 -53 -5 -159 -9 -236 -10 -77 -1 -151 -3 -165 -5 -14 -1 -113 -6 -220 -9 -107 -4 -283 -11 -390 -16 -107 -6 -256 -10 -331 -10 l-137 0 -6 63 c-3 34 -8 160 -12 279 l-6 217 24 12 c34 15 58 69 58 130 0 43 5 55 29 80 16 16 40 29 53 29 13 0 45 16 72 35 27 19 57 35 67 35 10 0 21 12 27 30 10 28 12 29 39 16 15 -8 50 -17 78 -20 107 -12 114 64 20 219 -14 22 -29 49 -34 60 -15 35 -38 47 -71 40 -16 -4 -30 -10 -30 -15 0 -14 -43 -17 -65 -4 -33 20 -58 23 -90 12z m-970 -298 c4 -6 -5 -10 -20 -10 -15 0 -24 4 -20 10 3 6 12 10 20 10 8 0 17 -4 20 -10z m160 0 c7 -12 -39 -24 -60 -16 -8 3 -15 10 -15 16 0 13 67 13 75 0z m732 -6 c2 -5 -18 -19 -45 -30 -44 -19 -50 -19 -71 -5 -23 15 -22 15 35 32 63 18 76 18 81 3z m-742 -115 c12 -12 -20 -74 -52 -99 -12 -9 -19 -20 -16 -24 3 -3 2 -6 -4 -6 -6 0 -29 19 -52 42 -29 30 -41 51 -41 72 0 27 2 28 35 23 19 -3 37 -1 41 5 7 11 73 2 89 -13z m588 -51 c29 -4 33 -38 41 -310 8 -267 16 -420 23 -431 3 -5 -8 -7 -23 -5 l-29 3 -6 350 c-4 207 -3 355 3 362 5 7 5 14 -2 18 -13 8 -28 -31 -46 -125 -8 -41 -20 -94 -26 -118 -7 -30 -8 -46 -1 -53 8 -8 17 20 29 88 22 115 22 114 26 -200 2 -125 0 -227 -4 -227 -5 0 -8 23 -8 51 0 41 -5 54 -22 69 -21 17 -22 21 -10 64 6 26 12 55 12 66 0 18 -17 57 -30 70 -11 10 -30 78 -30 104 0 16 -4 25 -10 21 -9 -6 -11 0 -9 23 0 4 6 6 12 5 8 -2 21 37 35 104 13 59 29 116 35 128 11 18 12 17 15 -17 2 -29 8 -37 25 -40z m-584 -242 c25 -11 35 -41 84 -246 8 -36 24 -99 36 -140 11 -41 21 -80 21 -86 0 -7 -42 -11 -117 -12 -91 -1 -113 2 -96 10 32 15 37 42 18 92 -16 41 -16 47 1 106 16 59 16 63 0 72 -11 6 -15 16 -11 29 4 10 2 43 -4 72 -18 88 -20 110 -15 119 6 9 46 2 83 -16z m165 -7 c21 -5 46 -7 56 -4 32 10 109 -130 90 -165 -11 -20 9 -77 39 -112 9 -11 14 -42 15 -83 1 -60 3 -67 31 -90 l30 -24 -100 -1 -100 0 -18 63 c-10 34 -24 91 -31 127 -20 94 -65 262 -76 282 -14 25 -12 31 8 23 9 -4 34 -11 56 -16z m-53 -101 c11 -40 25 -93 30 -118 30 -136 52 -216 61 -228 13 -15 9 -21 -21 -24 -21 -3 -25 6 -55 127 -52 205 -64 265 -55 265 5 0 9 14 9 32 0 45 9 30 31 -54z m469 -353 c0 -35 -4 -45 -16 -45 -12 0 -15 6 -10 23 3 12 6 32 6 45 0 12 5 22 10 22 6 0 10 -20 10 -45z m-1580 -254 c113 -27 244 -58 293 -67 48 -9 85 -19 83 -21 -8 -8 -170 25 -481 99 -49 11 -101 27 -115 35 -29 16 -50 20 220 -46z m423 -98 c-7 -2 -19 -2 -25 0 -7 3 -2 5 12 5 14 0 19 -2 13 -5z m44 -9 c-3 -3 -12 -4 -19 -1 -8 3 -5 6 6 6 11 1 17 -2 13 -5z"/>
<path d="M2990 1781 c0 -11 59 -20 65 -11 3 4 2 10 -2 14 -10 9 -63 7 -63 -3z"/>
<path d="M3370 1441 c0 -5 7 -15 17 -22 15 -13 15 -12 4 9 -12 23 -21 28 -21 13z"/>
<path d="M2564 939 c-5 -9 34 -19 74 -19 29 0 33 -3 28 -20 -3 -11 -9 -29 -12 -40 -6 -23 3 -60 16 -60 5 0 6 16 3 35 -3 21 -1 35 5 35 5 0 13 11 16 24 3 13 8 30 11 38 4 10 -10 13 -66 13 -39 0 -73 -3 -75 -6z"/>
<path d="M3627 923 c-14 -13 -7 -68 14 -110 20 -42 114 -131 126 -119 3 3 -1 14 -10 24 -10 10 -14 22 -10 26 4 3 -4 5 -16 4 -18 -2 -31 8 -58 47 -29 41 -34 57 -31 92 3 41 -1 51 -15 36z"/>
<path d="M2908 910 c-94 -7 -131 -29 -136 -80 -8 -78 57 -151 188 -213 82 -39 191 -47 300 -23 116 27 152 51 215 148 40 60 30 115 -23 141 -69 35 -297 46 -544 27z"/>
<path d="M2860 551 c0 -6 12 -13 28 -17 15 -3 34 -8 42 -11 8 -2 31 -7 50 -9 19 -3 43 -7 53 -10 9 -3 17 -1 17 5 0 5 -17 13 -37 16 -49 8 -116 23 -137 31 -9 3 -16 1 -16 -5z"/>
<path d="M3446 534 c-22 -22 -21 -25 23 -56 52 -37 65 -35 21 3 -31 27 -33 31 -17 40 9 6 17 14 17 19 0 15 -27 12 -44 -6z"/>
</g>
</svg>