<?xml version="1.0" standalone="no"?>
<!DOCTYPE svg PUBLIC "-//W3C//DTD SVG 20010904//EN"
 "http://www.w3.org/TR/2001/REC-SVG-20010904/DTD/svg10.dtd">
<svg version="1.0" xmlns="http://www.w3.org/2000/svg"
 width="78.680444pt" height="189.757419pt" viewBox="0 0 78.680444 189.757419"
 preserveAspectRatio="xMidYMid meet">
<metadata>
Created by potrace 1.16, written by Peter Selinger 2001-2019
</metadata>
<g transform="translate(-60.000000,196.757419) scale(0.100000,-0.100000)"
fill="#000000" stroke="none">
<path d="M990 1917 c-28 -49 -34 -55 -72 -60 -22 -3 -47 -12 -55 -19 -11 -12
-8 -20 22 -55 20 -23 33 -48 29 -56 -3 -8 -38 -44 -78 -80 -81 -73 -174 -205
-200 -281 -30 -91 -13 -220 34 -271 20 -22 21 -25 6 -53 -20 -38 -32 -177 -16
-187 6 -4 8 -15 5 -25 -8 -25 49 -129 86 -160 20 -17 29 -60 29 -144 0 -151
-44 -244 -136 -288 -24 -11 -44 -24 -44 -29 0 -36 81 2 137 65 51 58 73 129
73 239 l0 87 28 0 c16 0 37 -9 47 -20 13 -14 22 -17 34 -10 11 6 21 4 32 -5
22 -21 129 -2 180 32 33 22 42 24 49 13 19 -31 21 -135 5 -220 -28 -144 -29
-185 -10 -238 17 -44 48 -82 67 -82 15 0 8 27 -11 44 -24 21 -42 90 -36 136 3
19 12 79 21 134 16 93 15 143 -2 238 -6 34 -4 38 21 48 18 7 25 15 21 26 -6
16 19 63 41 77 7 4 13 19 13 32 0 13 4 26 9 29 11 7 14 145 3 160 -21 27 -21
59 2 90 78 106 84 267 15 412 -16 34 -29 65 -29 69 0 13 -54 95 -101 153 l-46
57 23 24 c18 19 21 28 12 38 -6 7 -16 13 -22 13 -6 0 -28 5 -49 11 -31 8 -42
18 -60 56 -12 26 -27 48 -34 50 -7 3 -26 -20 -43 -50z m43 -20 c-4 -17 -10
-36 -15 -42 -5 -5 -14 -18 -21 -27 -13 -19 -84 -27 -107 -13 -11 7 -1 12 35
20 45 9 52 14 75 57 27 52 43 54 33 5z m127 -79 c0 -4 -3 -7 -7 -6 -15 4 -52
-22 -57 -40 -4 -10 -13 -19 -21 -19 -12 0 -10 5 5 19 24 22 25 34 5 42 -8 3
-15 12 -15 19 0 12 8 12 45 4 25 -6 45 -14 45 -19z m-189 -67 c-10 -7 -11 -13
-2 -30 10 -17 9 -25 -3 -36 -13 -13 -15 -13 -21 4 -7 24 11 71 27 71 10 0 10
-2 -1 -9z m227 -68 c24 -30 61 -89 82 -131 80 -162 95 -249 61 -360 -31 -104
-60 -116 -92 -39 -17 42 -56 73 -139 112 -36 17 -200 30 -200 16 0 -4 -17 -13
-37 -19 -35 -10 -121 -85 -157 -136 -19 -27 -33 -13 -52 51 -43 147 27 294
226 478 l32 30 -4 -37 c-5 -45 5 -48 68 -16 l44 21 49 -27 c48 -26 50 -26 60
-8 6 11 9 21 7 23 -2 2 -7 25 -10 52 -10 63 7 61 62 -10z m-181 31 c-3 -3 -12
-4 -19 -1 -8 3 -5 6 6 6 11 1 17 -2 13 -5z m-119 -674 c18 -11 40 -36 48 -55
33 -81 -35 -182 -112 -167 -37 7 -77 65 -77 110 0 48 26 97 61 116 36 20 41
20 80 -4z m269 -12 c73 -68 34 -208 -57 -208 -59 0 -101 48 -99 115 0 22 3 33
6 25 3 -8 12 -21 21 -27 13 -10 19 -10 34 4 22 20 23 46 2 64 -13 10 -19 10
-36 0 -36 -22 -15 11 23 37 38 26 71 23 106 -10z"/>
<path d="M882 998 c-18 -18 -14 -56 7 -68 15 -7 23 -6 35 6 19 18 20 28 6 55
-12 22 -30 25 -48 7z"/>
</g>
</svg>
