<?xml version="1.0" standalone="no"?><!DOCTYPE svg PUBLIC "-//W3C//DTD SVG 20010904//EN" "http://www.w3.org/TR/2001/REC-SVG-20010904/DTD/svg10.dtd"><svg xmlns="http://www.w3.org/2000/svg" version="1.0" width="10.1034mm" height="16mm" viewBox="0 0 115.523948 182.947083" preserveAspectRatio="xMidYMid meet">
<metadata>
Created by potrace 1.16, written by Peter Selinger 2001-2019
</metadata>
<g transform="translate(-40.000000,184.947083) scale(0.100000,-0.100000)" fill="#000000" stroke="none">
<path d="M1408 1824 l-38 -27 -46 18 c-61 23 -71 12 -49 -54 16 -50 16 -50 -9 -88 -40 -58 -35 -73 20 -73 41 0 50 -5 80 -37 19 -20 34 -41 34 -45 0 -4 6 -8 13 -8 8 0 20 19 27 43 18 56 23 62 69 76 58 17 60 30 13 70 -36 31 -41 42 -43 81 -4 80 -13 85 -71 44z m33 -28 c-7 -8 -11 -32 -10 -54 2 -35 5 -39 20 -32 12 7 22 2 40 -17 13 -14 19 -23 12 -20 -25 15 -93 -27 -93 -57 0 -8 -4 -18 -10 -21 -5 -3 -10 0 -10 8 0 31 -71 57 -97 35 -24 -19 -26 0 -3 31 11 17 22 40 23 51 1 11 5 20 10 20 4 0 -4 12 -18 26 -34 33 -26 40 28 25 39 -11 47 -11 77 8 36 22 50 21 31 -3z"/>
<path d="M1390 1750 c-8 -5 -10 -10 -5 -10 6 0 17 5 25 10 8 5 11 10 5 10 -5 0 -17 -5 -25 -10z"/>
<path d="M1340 1731 c0 -6 4 -13 10 -16 6 -3 7 1 4 9 -7 18 -14 21 -14 7z"/>
<path d="M1335 1691 c-3 -5 -2 -12 3 -15 5 -3 9 1 9 9 0 17 -3 19 -12 6z"/>
<path d="M532 1592 c-89 -32 -132 -86 -132 -167 0 -26 7 -61 15 -79 16 -34 97 -121 136 -147 22 -15 23 -18 10 -42 -8 -15 -15 -41 -16 -59 -1 -18 -5 -45 -9 -60 -5 -16 -3 -35 5 -50 7 -12 12 -30 11 -40 -4 -20 24 -72 66 -125 18 -23 32 -48 32 -57 0 -19 -68 -172 -143 -321 -56 -110 -75 -178 -58 -204 16 -25 41 -3 71 63 17 35 30 67 30 71 0 12 50 115 56 115 3 0 2 -9 -1 -20 -10 -31 24 -25 36 7 12 33 5 53 -20 53 -33 0 -69 -61 -131 -225 -6 -15 -13 -25 -16 -23 -7 8 44 132 81 198 37 66 87 169 111 229 10 25 20 39 22 33 2 -7 17 -12 32 -12 16 0 38 -9 48 -20 12 -13 25 -18 36 -14 9 3 23 1 31 -6 8 -7 24 -10 35 -7 17 4 18 2 9 -15 -16 -29 -4 -48 31 -48 16 0 30 -3 30 -7 0 -9 -12 -80 -35 -203 -21 -116 -21 -264 -1 -312 16 -37 59 -78 81 -78 7 0 21 12 31 27 9 16 24 33 31 38 12 9 11 16 -2 48 -19 46 -32 41 -41 -18 -3 -25 -10 -47 -14 -50 -18 -11 -40 9 -56 51 -22 57 -15 200 17 368 l23 119 26 -32 c30 -35 43 -30 56 24 11 48 15 49 40 7 27 -46 63 -72 98 -72 52 0 58 66 17 215 -43 157 -42 147 -24 160 9 7 14 19 10 28 -3 8 0 20 7 26 14 12 21 147 7 155 -5 3 -12 25 -16 49 -4 23 -16 55 -27 70 -11 16 -18 30 -16 33 3 2 26 8 52 13 69 13 72 21 26 74 l-41 46 7 64 c4 43 3 67 -5 71 -6 4 -33 -5 -60 -19 l-48 -27 -53 27 c-36 18 -56 23 -63 16 -7 -7 -23 -2 -52 14 -64 38 -131 55 -235 61 -77 4 -105 1 -148 -14z m273 -38 c33 -8 82 -28 110 -43 46 -26 50 -32 53 -70 3 -43 -11 -54 -36 -29 -10 10 -17 10 -33 -1 -17 -10 -27 -10 -50 0 -24 10 -33 9 -47 -3 -9 -9 -29 -18 -44 -22 -32 -7 -104 -67 -143 -118 -16 -21 -35 -38 -42 -38 -23 0 -105 83 -124 125 -77 167 94 262 356 199z m230 -69 l44 -24 46 26 c25 14 48 23 51 21 2 -3 -8 -19 -24 -35 -15 -17 -26 -36 -24 -43 3 -9 0 -10 -9 -4 -8 5 -24 7 -36 5 -13 -1 -23 2 -23 8 0 16 -34 18 -48 1 -12 -13 -13 -12 -9 7 3 12 -1 27 -9 34 -14 11 -19 29 -8 29 3 0 25 -11 49 -25z m-11 -82 c-9 -33 -31 -61 -66 -79 -43 -23 -43 -17 1 31 22 24 41 49 41 55 0 6 5 8 10 5 6 -3 10 -1 10 4 0 6 2 11 5 11 3 0 2 -12 -1 -27z m178 -57 c11 -20 10 -20 -9 -3 -24 21 -40 23 -23 2 7 -8 8 -15 2 -15 -5 0 -15 7 -23 16 -10 13 -10 17 1 24 18 11 38 2 52 -24z m-110 -58 c-7 -7 -12 -8 -12 -2 0 14 12 26 19 19 2 -3 -1 -11 -7 -17z m-372 -138 c49 -52 51 -124 5 -174 -47 -51 -109 -43 -147 19 -66 108 59 244 142 155z m238 14 c28 -19 52 -65 52 -99 0 -64 -52 -125 -108 -125 -30 0 -69 37 -82 76 -25 74 22 164 84 164 17 0 42 -7 54 -16z m223 -436 c33 -131 35 -156 12 -165 -12 -5 -28 6 -56 37 -41 47 -41 44 10 77 17 11 15 14 -20 45 -41 35 -43 61 -6 71 13 4 19 14 19 33 0 46 10 21 41 -98z m-123 42 c-2 -21 0 -36 5 -33 4 2 21 -7 38 -21 l30 -26 -28 -12 c-15 -6 -36 -19 -47 -27 -18 -15 -18 -15 -12 9 6 19 5 21 -3 10 -6 -8 -8 -25 -5 -37 3 -12 2 -29 -4 -38 -8 -15 -12 -13 -31 14 -12 17 -19 35 -16 41 9 14 -8 13 -23 -2 -9 -9 -13 -7 -18 5 -5 15 -7 15 -22 0 -24 -23 -26 0 -3 37 18 30 18 36 5 73 -8 22 -13 42 -10 44 2 2 15 -1 30 -7 41 -15 59 -12 86 13 29 27 34 19 28 -43z"/>
<path d="M661 1042 c-12 -22 11 -62 34 -62 20 0 37 36 30 60 -8 26 -51 26 -64 2z"/>
<path d="M850 1045 c-10 -12 -10 -21 -2 -40 14 -30 33 -32 56 -6 14 15 15 24 6 40 -13 25 -42 27 -60 6z"/>
<path d="M1075 690 c-16 -7 -17 -9 -3 -9 9 -1 20 4 23 9 7 11 7 11 -20 0z"/>
</g>
</svg>