<?xml version="1.0" standalone="no"?><!DOCTYPE svg PUBLIC "-//W3C//DTD SVG 20010904//EN" "http://www.w3.org/TR/2001/REC-SVG-20010904/DTD/svg10.dtd"><svg xmlns="http://www.w3.org/2000/svg" version="1.0" width="12.3733mm" height="16mm" viewBox="0 0 85.656498 110.763224" preserveAspectRatio="xMidYMid meet">
<metadata>
Created by potrace 1.16, written by Peter Selinger 2001-2019
</metadata>
<g transform="translate(-53.618209,146.763224) scale(0.100000,-0.100000)" fill="#000000" stroke="none">
<path d="M852 1441 c-60 -30 -171 -144 -172 -176 0 -12 -21 -41 -46 -65 -90 -88 -121 -206 -80 -303 33 -76 137 -147 215 -147 16 0 57 -125 68 -210 8 -56 -20 -126 -58 -145 -35 -19 -38 -35 -6 -35 31 0 63 35 82 89 20 58 19 79 -9 191 -14 52 -22 99 -19 103 3 5 34 7 69 4 42 -3 78 0 105 10 37 12 46 12 76 -2 50 -24 62 -15 56 39 -4 28 -2 46 5 46 16 0 24 -30 29 -121 8 -127 1 -152 -64 -220 -34 -35 -53 -64 -51 -75 3 -20 62 -64 84 -64 28 0 13 31 -21 46 -19 8 -35 18 -35 23 0 4 21 27 46 51 26 24 53 59 62 79 25 60 19 199 -14 314 -4 12 0 17 14 17 25 0 110 45 144 77 17 16 33 49 44 89 l17 63 -27 55 c-30 60 -88 116 -122 116 -22 0 -54 28 -54 48 0 15 -44 62 -59 62 -6 0 -20 9 -31 20 -11 11 -32 22 -47 25 -16 4 -36 10 -45 16 -11 6 -26 5 -43 -3 -19 -9 -28 -9 -37 0 -14 14 -11 15 -76 -17z m452 -231 c42 -45 46 -54 46 -99 0 -84 -30 -130 -112 -172 -50 -25 -51 -25 -27 16 12 19 26 35 31 35 6 0 8 9 5 20 -3 11 -2 22 3 25 18 11 21 113 6 160 -28 82 -18 86 48 15z m-646 -92 c-1 -118 0 -120 84 -235 21 -29 38 -64 38 -78 0 -23 -3 -25 -27 -19 -16 3 -51 17 -79 30 -41 19 -56 34 -78 74 -33 61 -38 138 -11 190 18 36 63 100 70 100 2 0 4 -28 3 -62z m442 16 c-56 -17 -60 -17 -36 1 11 8 34 15 50 14 28 0 27 -2 -14 -15z m-133 -12 c7 -4 -14 -8 -46 -7 -33 0 -54 3 -48 7 16 10 79 10 94 0z m73 -122 c0 -22 3 -40 8 -41 53 -5 88 -12 101 -19 14 -8 13 -9 -3 -10 -35 0 -66 -39 -66 -82 0 -35 -2 -38 -19 -28 -34 17 -58 11 -87 -22 l-27 -33 8 45 c16 91 14 97 -40 115 l-20 7 20 8 c11 5 32 11 46 14 18 4 31 18 44 46 23 51 35 51 35 0z m-180 -195 c7 -9 21 -13 31 -10 9 3 20 1 24 -5 4 -6 -13 -10 -49 -10 -49 0 -56 2 -56 20 0 24 32 27 50 5z"/>
<path d="M1015 940 c-3 -5 -1 -10 4 -10 6 0 11 5 11 10 0 6 -2 10 -4 10 -3 0 -8 -4 -11 -10z"/>
<path d="M976 915 c4 -8 8 -15 10 -15 2 0 4 7 4 15 0 8 -4 15 -10 15 -5 0 -7 -7 -4 -15z"/>
</g>
</svg>