<?xml version="1.0" standalone="no"?><!DOCTYPE svg PUBLIC "-//W3C//DTD SVG 20010904//EN" "http://www.w3.org/TR/2001/REC-SVG-20010904/DTD/svg10.dtd"><svg xmlns="http://www.w3.org/2000/svg" version="1.0" width="16mm" height="12.0629mm" viewBox="0 0 136.000000 102.534808" preserveAspectRatio="xMidYMid meet">
<metadata>
Created by potrace 1.16, written by Peter Selinger 2001-2019
</metadata>
<g transform="translate(-29.000000,163.025030) scale(0.100000,-0.100000)" fill="#000000" stroke="none">
<path d="M1390 1611 c-20 -38 -41 -51 -83 -51 -69 0 -73 -10 -31 -70 34 -50 36 -55 25 -90 -13 -43 -15 -90 -3 -90 4 0 29 9 57 19 l50 19 43 -30 c60 -41 74 -33 70 41 -3 58 -2 59 42 99 51 46 49 52 -24 79 -41 15 -51 24 -61 52 -15 44 -41 57 -31 15 11 -46 39 -77 85 -92 l43 -14 -32 -30 c-23 -20 -35 -26 -40 -18 -5 9 -9 9 -14 1 -4 -6 -4 -11 1 -11 4 0 8 -27 8 -60 0 -33 -2 -60 -5 -60 -3 1 -23 14 -45 29 l-39 28 -45 -19 c-24 -10 -46 -17 -48 -15 -2 2 2 27 8 54 11 47 10 52 -15 89 -26 39 -32 55 -18 53 4 -1 24 -1 44 0 31 1 41 7 63 38 14 21 25 41 25 45 0 15 -19 8 -30 -11z"/>
<path d="M715 1468 c-8 -10 -24 -18 -36 -18 -22 0 -129 -97 -129 -116 0 -7 -14 -41 -32 -75 -28 -57 -31 -73 -30 -143 0 -43 6 -84 11 -89 6 -6 11 -26 11 -44 0 -22 7 -37 20 -45 11 -7 20 -21 20 -31 0 -23 -141 -209 -178 -234 -15 -10 -39 -23 -55 -30 -15 -7 -27 -16 -27 -22 0 -32 53 -14 114 40 19 16 65 70 102 120 66 89 67 90 88 72 31 -27 77 -56 111 -72 17 -7 37 -17 46 -21 8 -4 23 -3 33 2 10 5 33 7 51 4 20 -4 36 -2 40 4 4 6 19 9 34 5 19 -4 32 -1 41 10 7 8 17 15 22 15 6 0 27 14 48 30 21 17 42 30 48 30 6 0 40 13 77 30 37 16 72 30 78 30 28 -1 107 -95 107 -128 0 -26 -38 -58 -85 -71 -22 -6 -95 -11 -161 -11 -89 0 -124 -4 -133 -13 -6 -8 -8 -17 -4 -20 9 -10 167 -8 252 3 169 22 208 114 94 225 -20 19 -34 37 -32 38 23 18 102 67 108 67 4 0 28 -60 52 -132 34 -101 49 -134 63 -136 22 -5 24 -13 -38 159 l-45 127 67 68 c93 95 182 208 182 231 0 27 -19 11 -68 -54 -51 -68 -188 -211 -195 -202 -2 2 -24 34 -50 70 -55 79 -116 135 -203 186 -35 20 -64 42 -64 48 0 6 -18 21 -40 34 -22 12 -46 31 -54 42 -9 14 -28 22 -54 23 -22 2 -44 6 -50 10 -6 3 -40 5 -76 4 -48 -2 -70 -8 -81 -20z m539 -273 c24 -28 58 -72 76 -98 37 -55 39 -51 -57 -108 l-53 -30 -32 22 c-55 37 -58 44 -38 98 11 30 14 54 9 62 -5 8 -6 22 -3 31 5 16 -4 59 -21 102 -14 33 71 -23 119 -79z m-232 25 c32 -30 32 -31 8 -28 -34 4 -53 -44 -27 -69 15 -15 20 -16 38 -5 20 13 21 12 14 -20 -10 -47 -35 -86 -59 -92 -30 -8 -67 23 -83 69 -18 53 -2 127 34 155 33 26 37 26 75 -10z m-188 -29 c51 -53 44 -160 -12 -193 -36 -22 -70 -7 -94 42 -57 114 27 233 106 151z m346 -245 c0 -6 -15 -16 -32 -22 -18 -6 -42 -15 -53 -19 -17 -6 -17 -5 3 9 12 10 22 25 22 35 0 10 3 20 6 24 9 8 54 -14 54 -27z"/>
<path d="M797 1134 c-13 -13 -7 -51 9 -65 23 -19 49 1 49 37 0 24 -5 30 -25 32 -14 2 -29 0 -33 -4z"/>
</g>
</svg>