<?xml version="1.0" standalone="no"?><!DOCTYPE svg PUBLIC "-//W3C//DTD SVG 20010904//EN" "http://www.w3.org/TR/2001/REC-SVG-20010904/DTD/svg10.dtd"><svg xmlns="http://www.w3.org/2000/svg" version="1.0" width="16mm" height="7.4335mm" viewBox="0 0 157.976421 73.395030" preserveAspectRatio="xMidYMid meet">
<metadata>
Created by potrace 1.16, written by Peter Selinger 2001-2019
</metadata>
<g transform="translate(-33.023579,142.698051) scale(0.100000,-0.100000)" fill="#000000" stroke="none">
<path d="M1201 1415 c-18 -8 -37 -12 -42 -9 -13 8 -49 -15 -49 -31 0 -8 -9 -15 -19 -15 -18 0 -81 -64 -81 -82 0 -5 -11 -26 -25 -48 -14 -22 -25 -49 -25 -60 0 -11 -4 -20 -8 -20 -13 0 -86 111 -122 184 -33 66 -50 82 -50 47 0 -27 51 -121 121 -223 51 -74 58 -91 49 -108 -8 -15 -7 -26 5 -44 10 -15 12 -27 6 -30 -10 -6 -115 126 -154 195 -21 37 -47 52 -47 28 0 -25 114 -185 186 -261 24 -26 44 -51 44 -57 0 -6 5 -11 10 -11 6 0 10 -6 10 -14 0 -8 13 -25 29 -38 15 -13 36 -36 46 -51 10 -16 26 -27 40 -27 13 0 25 -6 27 -12 3 -8 24 -13 51 -14 26 -1 54 -7 62 -14 9 -7 22 -9 32 -5 10 5 22 7 27 6 32 -8 112 25 147 60 22 22 44 39 49 39 6 0 16 11 22 25 15 33 44 40 148 39 82 -1 109 -9 213 -62 4 -2 7 3 7 11 0 20 -47 53 -98 71 -46 17 -177 24 -209 13 -22 -8 -22 -7 -8 20 8 15 15 34 15 42 0 7 24 39 53 70 59 65 154 199 159 226 5 31 -20 28 -37 -4 -20 -40 -49 -82 -110 -161 l-50 -65 -7 54 c-3 30 -4 60 -1 68 3 8 -4 23 -16 34 -12 11 -21 32 -21 49 0 16 -6 33 -13 37 -6 4 -24 25 -39 45 -16 20 -43 44 -60 54 -98 51 -117 57 -173 60 -38 3 -72 -2 -94 -11z m-22 -383 c83 -41 95 -169 20 -208 -35 -18 -53 -18 -89 1 -74 38 -82 171 -13 209 35 19 40 19 82 -2z m271 1 c98 -58 36 -240 -74 -219 -46 9 -68 37 -73 93 -5 58 10 89 56 120 40 27 54 28 91 6z"/>
<path d="M1152 918 c-25 -25 -6 -68 29 -68 21 0 33 31 24 60 -7 22 -35 26 -53 8z"/>
<path d="M1398 945 c-8 -19 -8 -28 2 -40 30 -36 83 3 60 45 -15 28 -48 25 -62 -5z"/>
<path d="M444 1180 c-16 -43 -23 -52 -66 -70 -26 -11 -48 -26 -48 -33 0 -7 18 -25 40 -41 39 -29 40 -32 40 -88 0 -35 4 -58 11 -58 6 0 29 13 52 30 41 29 43 29 88 16 61 -19 72 -8 53 46 -19 55 -18 62 16 109 16 23 27 45 24 50 -3 5 -29 9 -58 9 -51 0 -54 2 -80 40 -14 22 -33 40 -40 40 -8 0 -22 -22 -32 -50z m46 -2 c0 -13 5 -30 11 -38 9 -12 10 -11 5 4 -7 19 -6 19 12 3 11 -11 35 -17 63 -17 l44 0 -32 -26 c-28 -22 -33 -32 -33 -69 l0 -44 -33 6 c-27 4 -39 -1 -65 -25 l-32 -30 0 32 c0 18 5 37 12 44 16 16 -6 38 -52 50 l-35 9 47 20 c40 18 49 28 59 62 13 45 29 54 29 19z"/>
<path d="M472 1108 c-19 -19 -14 -29 8 -16 20 13 27 28 12 28 -4 0 -13 -5 -20 -12z"/>
</g>
</svg>