<?xml version="1.0" standalone="no"?>
<!DOCTYPE svg PUBLIC "-//W3C//DTD SVG 20010904//EN"
 "http://www.w3.org/TR/2001/REC-SVG-20010904/DTD/svg10.dtd">
<svg version="1.0" xmlns="http://www.w3.org/2000/svg"
 width="86.979315pt" height="89.715775pt" viewBox="0 0 86.979315 89.715775"
 preserveAspectRatio="xMidYMid meet">
<metadata>
Created by potrace 1.16, written by Peter Selinger 2001-2019
</metadata>
<g transform="translate(-60.985320,148.438720) scale(0.100000,-0.100000)"
fill="#000000" stroke="none">
<path d="M930 1482 c-14 -2 -29 -8 -34 -13 -6 -5 -20 -9 -33 -9 -13 0 -28 -9
-35 -20 -7 -11 -20 -20 -30 -20 -30 0 -86 -87 -135 -210 -7 -16 -7 -34 -1 -50
6 -16 5 -33 -2 -48 -7 -17 -7 -28 0 -37 7 -8 5 -25 -6 -56 -51 -142 -58 -272
-20 -332 38 -56 123 -63 214 -16 81 42 103 36 139 -36 17 -33 32 -51 39 -47 6
4 21 28 34 54 20 42 28 48 67 56 36 8 52 6 101 -14 69 -29 113 -30 169 -4 74
33 102 112 69 192 -18 42 -99 154 -123 169 -15 9 -18 24 -16 96 1 72 -1 87
-18 104 -10 10 -19 32 -19 49 0 16 -6 33 -13 37 -7 4 -25 24 -41 43 -27 33
-94 76 -160 101 -31 12 -99 17 -146 11z m-23 -330 c12 -7 30 -34 39 -58 14
-37 15 -51 5 -84 -19 -65 -70 -86 -131 -55 -38 20 -60 63 -60 117 0 51 23 85
65 97 32 9 48 5 82 -17z m277 -13 c31 -36 34 -84 10 -135 -19 -39 -34 -49 -85
-59 -69 -13 -120 63 -93 141 29 86 117 114 168 53z m190 -178 c43 -58 75 -127
76 -159 0 -38 -31 -81 -69 -93 -43 -14 -131 -6 -164 16 -32 21 -58 60 -52 77
3 7 22 24 42 38 20 13 43 40 51 60 8 19 23 42 33 51 10 9 19 26 19 38 0 35 26
24 64 -28z m-679 -1 c4 -16 26 -52 51 -79 24 -27 44 -54 44 -60 0 -6 13 -14
30 -17 39 -8 57 -29 41 -48 -7 -8 -11 -22 -9 -32 2 -13 -9 -23 -42 -35 -64
-25 -104 -24 -137 5 -26 23 -28 29 -28 103 0 78 21 193 36 193 4 0 10 -13 14
-30z m365 -61 c57 32 70 25 26 -14 -44 -39 -65 -43 -101 -19 -24 16 -25 16
-25 -9 0 -14 6 -27 12 -29 9 -3 8 -9 -5 -22 -9 -10 -17 -21 -17 -26 0 -8 -65
-50 -77 -50 -3 0 11 21 32 46 36 44 37 48 31 100 l-6 55 46 -27 46 -27 38 22z
m80 -139 c6 -11 8 -20 6 -20 -3 0 -10 9 -16 20 -6 11 -8 20 -6 20 3 0 10 -9
16 -20z"/>
<path d="M866 1024 c-22 -22 -20 -51 5 -64 26 -14 49 3 49 36 0 32 -33 49 -54
28z"/>
<path d="M1070 1015 c-15 -18 -10 -45 13 -59 26 -16 62 27 47 55 -13 23 -43
25 -60 4z"/>
</g>
</svg>
