<?xml version="1.0" standalone="no"?><!DOCTYPE svg PUBLIC "-//W3C//DTD SVG 20010904//EN" "http://www.w3.org/TR/2001/REC-SVG-20010904/DTD/svg10.dtd"><svg xmlns="http://www.w3.org/2000/svg" version="1.0" width="14.697mm" height="16mm" viewBox="0 0 303.843675 330.781442" preserveAspectRatio="xMidYMid meet">
<metadata>
Created by potrace 1.16, written by Peter Selinger 2001-2019
</metadata>
<g transform="translate(-124.665270,442.890385) scale(0.100000,-0.100000)" fill="#000000" stroke="none">
<path d="M3020 4415 c-208 -31 -419 -98 -625 -200 -125 -62 -295 -162 -315 -185 -3 -3 -34 -27 -70 -53 -83 -61 -277 -241 -357 -332 -166 -189 -273 -378 -347 -611 -46 -148 -60 -253 -59 -449 0 -179 6 -234 44 -393 107 -447 429 -817 854 -980 331 -127 773 -121 1120 15 355 140 657 433 840 815 78 165 118 300 157 528 26 154 31 544 10 675 -43 259 -97 443 -181 615 -85 175 -132 241 -249 351 -186 173 -502 252 -822 204z m130 -235 c0 -6 -11 -27 -25 -48 -99 -150 -113 -365 -34 -540 36 -81 106 -177 174 -241 73 -68 109 -89 211 -123 96 -32 282 -32 439 1 61 12 117 23 125 24 12 2 16 -17 21 -93 30 -436 -21 -762 -162 -1042 -201 -400 -565 -670 -989 -733 -162 -24 -225 -26 -345 -10 -177 23 -290 56 -427 125 -325 164 -542 447 -629 818 -10 45 -19 100 -19 120 l0 37 84 22 c105 27 174 61 262 127 248 187 366 532 277 811 -21 67 -66 155 -97 192 -14 17 -26 35 -26 41 0 6 28 35 63 65 205 178 480 327 745 403 150 42 352 68 352 44z"/>
<path d="M2765 2840 c-84 -10 -212 -54 -291 -101 -226 -133 -333 -411 -278 -723 18 -104 35 -151 82 -226 104 -167 268 -260 488 -275 411 -29 716 168 834 540 28 87 38 258 20 348 -37 192 -189 356 -381 411 -106 30 -326 42 -474 26z"/>
</g>
</svg>