<?xml version="1.0" standalone="no"?>
<!DOCTYPE svg PUBLIC "-//W3C//DTD SVG 20010904//EN"
 "http://www.w3.org/TR/2001/REC-SVG-20010904/DTD/svg10.dtd">
<svg version="1.0" xmlns="http://www.w3.org/2000/svg"
 width="356.038779pt" height="262.316507pt" viewBox="0 0 356.038779 262.316507"
 preserveAspectRatio="xMidYMid meet">
<metadata>
Created by potrace 1.16, written by Peter Selinger 2001-2019
</metadata>
<g transform="translate(-45.403860,357.000000) scale(0.100000,-0.100000)"
fill="#000000" stroke="none">
<path d="M2000 3478 c-23 -51 -53 -128 -67 -170 -15 -48 -31 -79 -42 -83 -23
-7 -89 -72 -96 -95 -3 -11 -33 -37 -67 -60 -49 -32 -69 -40 -107 -40 -155 0
-271 -119 -242 -249 l9 -40 -38 -6 c-86 -14 -142 -87 -144 -185 -1 -34 -6 -49
-23 -63 -47 -38 -63 -130 -38 -213 5 -17 0 -23 -23 -33 -16 -7 -46 -29 -66
-50 -48 -49 -60 -122 -28 -172 l21 -33 -30 -33 c-16 -18 -31 -43 -33 -56 -28
-144 -38 -222 -32 -261 6 -39 5 -45 -9 -40 -12 5 -14 17 -9 68 3 33 1 79 -4
101 -7 35 -9 28 -10 -52 -1 -58 -8 -107 -18 -133 -23 -57 -35 -49 -18 13 19
68 19 170 1 230 -18 57 -5 72 16 19 9 -20 16 -31 16 -23 1 8 -8 33 -18 55 -10
23 -21 68 -24 102 -3 37 -15 80 -31 111 -38 75 -50 75 -15 -1 25 -54 30 -76
30 -145 0 -45 -2 -100 -4 -123 -2 -24 -2 -34 0 -23 6 27 23 44 23 23 0 -8 3
-30 6 -47 6 -30 6 -31 -19 -22 -23 9 -25 7 -31 -21 -10 -51 -7 -112 9 -164 10
-36 27 -60 62 -91 38 -34 44 -43 28 -43 -31 0 -91 68 -111 125 -10 31 -17 78
-17 124 l1 74 -119 -7 c-65 -4 -138 -13 -161 -20 -36 -10 -43 -16 -40 -36 1
-13 -4 -44 -12 -69 -19 -63 -28 -131 -17 -131 5 0 12 12 16 28 3 15 26 49 51
77 l44 50 91 2 c50 1 99 -2 109 -7 11 -6 21 -27 25 -52 3 -24 9 -51 12 -61 5
-17 3 -18 -26 -3 -41 22 -44 21 -98 -20 -146 -111 -166 -139 -156 -227 4 -30
0 -54 -12 -77 -19 -37 -22 -107 -6 -123 8 -8 11 -2 11 19 0 17 15 53 35 84 25
39 35 66 35 94 0 35 6 46 46 83 25 24 58 50 73 57 26 14 32 13 87 -14 50 -25
54 -29 24 -23 -70 13 -72 12 -97 -51 -12 -33 -33 -70 -45 -83 -28 -30 -30 -92
-5 -138 l16 -30 1 41 c0 31 9 56 36 95 20 30 41 67 47 83 9 26 12 28 50 22 23
-4 43 -9 45 -11 8 -8 -32 -104 -64 -153 -38 -58 -71 -170 -59 -199 6 -14 13
-5 35 43 19 40 43 73 73 97 29 24 48 48 52 68 6 25 80 139 91 139 1 0 -4 -24
-12 -52 -15 -59 -33 -98 -51 -113 -11 -9 -21 -40 -40 -125 l-6 -25 26 24 c29
27 85 117 116 186 16 36 25 45 38 41 90 -27 160 -28 191 -3 7 5 15 7 18 4 12
-11 -78 -65 -128 -78 -54 -13 -79 -33 -99 -84 -7 -16 -19 -38 -27 -48 -8 -9
-13 -19 -10 -22 5 -6 87 37 131 68 14 10 50 24 80 31 30 7 68 22 84 34 l30 21
-4 -67 -4 -67 31 57 c19 37 45 67 73 87 24 16 49 36 56 45 15 17 33 12 26 -7
-3 -7 -1 -25 4 -42 l8 -30 20 45 c12 25 27 61 36 80 16 37 93 130 108 130 19
0 7 -22 -36 -65 -52 -52 -60 -66 -69 -120 -4 -22 -18 -51 -31 -65 -24 -25 -55
-99 -55 -129 1 -13 3 -12 14 4 14 21 45 56 117 135 23 25 48 60 55 77 8 18 26
40 42 50 45 28 73 56 92 94 15 29 27 37 64 46 47 10 56 8 56 -13 0 -22 -30
-44 -60 -44 -15 0 -30 -6 -33 -14 -8 -20 -91 -127 -116 -150 -11 -11 -21 -27
-21 -36 0 -9 -20 -40 -45 -69 -63 -73 -59 -86 15 -49 42 21 62 37 66 54 3 13
21 33 40 45 19 11 45 40 59 63 19 33 34 46 65 55 49 15 102 66 135 130 18 37
31 50 52 54 15 3 30 4 31 2 7 -6 -49 -94 -81 -129 -18 -19 -43 -48 -56 -66
-13 -18 -44 -40 -68 -51 -23 -10 -43 -23 -43 -29 0 -16 -99 -118 -121 -125
-11 -4 -19 -10 -19 -15 0 -4 28 -1 62 9 46 12 72 26 98 52 19 19 57 46 84 59
32 15 60 39 83 71 19 26 42 51 51 54 23 7 79 84 93 126 17 50 28 60 58 52 14
-3 28 -7 30 -9 8 -7 -33 -61 -83 -109 -28 -27 -63 -69 -79 -93 -15 -24 -41
-51 -59 -60 -17 -9 -47 -32 -65 -49 -19 -18 -40 -33 -48 -33 -8 0 -15 -5 -15
-11 0 -13 33 -4 89 27 24 13 52 24 61 24 10 0 50 28 88 63 38 34 88 75 110 90
23 15 58 55 79 87 25 40 46 62 63 66 14 3 34 9 45 13 15 6 35 0 70 -20 40 -23
62 -29 112 -29 63 0 79 -10 118 -74 6 -9 25 -19 43 -22 l32 -7 -24 53 c-13 29
-41 70 -61 90 -21 21 -35 43 -31 48 9 14 81 23 108 13 13 -5 39 -35 58 -69 34
-58 72 -92 103 -92 11 0 9 10 -9 47 -13 25 -24 57 -24 69 0 13 -8 29 -17 36
-10 7 -27 23 -37 36 l-19 22 34 -6 c65 -13 113 -50 181 -143 43 -58 62 -65 53
-20 -20 104 -37 139 -79 164 -29 18 -35 25 -21 25 41 -1 147 -86 176 -142 10
-21 29 -42 40 -49 20 -10 21 -9 14 33 -10 58 -27 88 -69 118 -35 25 -51 48
-41 58 3 3 30 -12 60 -33 41 -28 65 -54 91 -101 25 -45 43 -65 64 -73 35 -12
38 -3 10 31 -10 14 -24 45 -29 69 -7 29 -22 54 -46 77 -41 39 -40 50 3 28 45
-23 89 -64 122 -111 31 -45 100 -94 100 -72 0 7 -11 29 -24 48 -14 20 -28 49
-32 65 -4 15 -19 38 -33 51 -22 19 -14 18 59 -13 50 -22 95 -49 110 -66 17
-20 38 -31 65 -35 l40 -5 -37 32 c-21 17 -38 36 -38 41 0 6 -14 22 -30 36 -17
14 -29 27 -27 29 8 8 129 -46 158 -70 18 -15 43 -26 60 -26 16 0 29 2 29 4 0
2 -16 13 -35 25 -19 11 -40 32 -47 45 -6 14 -23 29 -37 34 l-26 10 28 7 c32 8
79 -8 120 -42 16 -13 39 -23 52 -23 l24 0 -24 28 c-14 15 -34 37 -45 50 l-19
22 27 0 c16 0 43 -11 62 -25 52 -38 63 -31 29 19 -26 39 -35 46 -77 52 l-46 7
39 12 c65 19 105 44 116 73 12 31 -9 136 -41 209 -11 25 -17 50 -14 55 3 5 -3
19 -14 31 -31 33 -37 71 -16 92 17 17 17 18 -5 36 -13 11 -32 19 -42 19 -30 0
-59 36 -59 73 0 30 -29 77 -48 77 -4 0 -13 9 -19 19 -10 16 -9 24 7 44 11 13
16 27 13 31 -3 3 -31 6 -61 6 -65 0 -104 20 -126 66 -13 29 -21 34 -51 34
l-36 0 25 33 c14 19 23 36 20 40 -4 3 -31 -8 -61 -25 -78 -44 -130 -44 -171 0
-16 17 -37 32 -45 32 -14 0 -27 20 -27 40 0 13 53 60 67 60 21 0 15 28 -8 35
-11 4 -51 -1 -89 -11 -37 -9 -75 -14 -84 -11 -9 4 -25 26 -35 49 -20 47 -36
64 -65 69 -15 3 -8 13 34 44 92 69 78 78 -70 46 -92 -21 -128 -15 -137 20 -6
23 -51 49 -87 49 -14 0 -27 4 -30 9 -4 5 19 40 49 77 31 37 54 72 52 78 -8 23
-78 -4 -203 -79 -31 -18 -31 -18 -59 3 -19 15 -42 22 -71 22 -23 0 -49 3 -58
6 -28 11 -18 66 29 162 25 50 45 96 45 102 0 37 -69 -20 -185 -154 -64 -74
-101 -84 -176 -50 -28 13 -69 27 -90 30 -22 4 -39 8 -39 9 0 1 9 62 20 135 24
157 24 160 6 160 -7 0 -32 -42 -56 -92z m-412 -485 c5 -17 -26 -29 -40 -15 -6
6 -7 15 -3 22 9 14 37 9 43 -7z m-100 -121 c2 -6 -1 -12 -8 -12 -6 0 -8 5 -5
10 3 6 2 10 -3 10 -6 0 -13 -17 -17 -37 -4 -21 -15 -43 -26 -51 -11 -7 -16
-19 -13 -25 5 -9 4 -9 -5 -1 -16 15 -17 65 -2 102 11 26 16 28 43 23 18 -4 33
-12 36 -19z m610 -4 c2 -13 -3 -18 -17 -18 -12 0 -21 2 -21 4 0 2 -3 12 -6 21
-5 13 -2 16 17 13 13 -1 25 -11 27 -20z m-188 -152 c0 -5 -7 -1 -15 10 -8 10
-15 14 -15 8 0 -14 24 -36 36 -32 5 1 27 -15 48 -35 22 -20 45 -37 50 -36 6 0
5 3 -1 6 -23 9 -14 20 12 15 26 -4 45 -22 25 -22 -6 0 -8 -4 -5 -10 11 -18 24
-10 27 16 2 21 9 28 31 30 49 5 49 -41 0 -49 -13 -2 -25 -6 -29 -9 -11 -12
-108 5 -140 24 -35 21 -68 86 -57 114 6 15 7 15 20 -2 7 -10 13 -22 13 -28z
m-550 -17 c0 -16 -31 -22 -43 -10 -9 9 -9 14 2 20 16 10 41 4 41 -10z m-106
-111 c-3 -11 -7 -27 -8 -34 -5 -33 -15 -22 -11 12 2 22 4 43 4 47 1 5 6 5 11
2 6 -4 8 -16 4 -27z m1084 -111 c2 -12 -3 -17 -17 -17 -15 0 -21 6 -21 21 0
25 33 22 38 -4z m-1038 -1 c0 -8 -5 -18 -10 -21 -17 -11 -40 3 -34 20 8 19 44
20 44 1z m380 -102 c0 -18 -34 -18 -49 0 -10 11 -8 16 6 24 20 12 43 -1 43
-24z m474 1 c-6 -15 34 -65 52 -65 8 0 13 -4 10 -9 -4 -5 4 -7 16 -3 14 3 19
2 14 -6 -8 -13 11 -16 84 -14 66 2 77 -4 47 -28 -14 -12 -40 -20 -61 -20 -42
0 -153 49 -135 60 8 6 6 10 -7 14 -18 6 -44 48 -44 71 0 7 6 12 14 12 8 0 12
-6 10 -12z m-974 -58 c0 -10 5 -15 11 -12 6 4 8 14 4 22 -4 13 -3 14 9 4 8 -7
12 -20 9 -29 -6 -14 -4 -15 9 -5 22 18 31 3 11 -19 -25 -27 -47 -22 -66 17
-17 35 -13 81 4 53 5 -7 9 -21 9 -31z m1240 -22 c-7 -9 -15 -13 -19 -10 -3 3
1 10 9 15 21 14 24 12 10 -5z m-945 -22 c1 -10 8 -17 15 -15 7 2 9 -5 5 -18
-6 -19 8 -27 39 -21 5 1 13 -4 17 -10 6 -10 14 -10 36 1 37 19 51 24 34 12
-10 -8 -6 -11 17 -17 18 -3 37 -3 44 1 23 15 48 14 48 -1 0 -29 -24 -64 -52
-76 -32 -13 -129 1 -156 23 -29 24 -62 88 -62 119 0 33 9 35 15 2z m57 -5 c-8
-8 -9 -15 0 -25 8 -11 7 -12 -6 -7 -18 7 -18 7 -10 28 3 9 11 16 17 16 8 0 7
-4 -1 -12z m-395 -82 c-4 -9 -13 -13 -22 -10 -18 7 -20 31 -2 37 17 6 31 -9
24 -27z m618 3 c-9 -17 -19 -29 -21 -26 -8 7 15 57 26 57 6 0 4 -13 -5 -31z
m-671 -122 c5 4 1 -7 -8 -24 -17 -33 -30 -45 -20 -18 4 8 1 15 -5 15 -6 0 -11
18 -11 43 l1 42 17 -33 c10 -18 22 -29 26 -25z m823 -33 c3 -8 1 -20 -5 -26
-14 -14 -53 8 -46 27 8 20 43 19 51 -1z m533 -15 c0 -16 -29 -22 -45 -9 -22
19 0 43 26 29 10 -5 19 -14 19 -20z m-177 -90 c3 -11 14 -23 24 -25 10 -3 25
-20 33 -37 l14 -32 7 25 c6 23 7 23 8 -7 1 -34 21 -48 21 -15 0 11 7 18 20 18
13 0 20 -7 20 -19 0 -11 -4 -15 -12 -11 -7 4 -8 3 -4 -4 13 -21 33 -13 29 11
-4 18 0 23 16 23 15 0 21 -7 21 -23 0 -13 -3 -23 -7 -24 -5 -1 -36 -3 -70 -5
-60 -4 -63 -3 -100 34 -29 29 -39 48 -41 75 -3 40 12 51 21 16z m-463 -27 c14
-2 32 -10 41 -18 20 -18 29 -18 29 0 0 9 7 12 20 9 11 -3 20 -10 20 -15 0 -5
7 -2 16 7 20 19 25 16 18 -12 -7 -26 -80 -63 -115 -59 -39 5 -94 41 -97 64 -2
14 -8 20 -15 16 -9 -5 -9 -3 0 6 10 11 15 11 28 0 9 -7 15 -9 14 -4 -3 19 1
29 9 19 4 -5 18 -12 32 -13z m167 12 c-3 -3 -12 -4 -19 -1 -8 3 -5 6 6 6 11 1
17 -2 13 -5z m13 -189 c13 -16 6 -35 -15 -35 -18 0 -28 17 -21 35 7 19 20 19
36 0z m-1108 -37 c-9 -9 -12 -7 -12 12 0 19 3 21 12 12 9 -9 9 -15 0 -24z
m994 -26 c6 -4 14 -14 17 -22 4 -11 6 -11 6 4 1 16 5 15 37 -9 30 -23 40 -26
55 -17 15 10 17 9 12 -5 -4 -11 -3 -14 5 -9 7 4 12 3 12 -2 0 -10 -29 -26 -42
-24 -5 1 -8 -3 -8 -8 0 -19 -64 -7 -97 17 -31 23 -45 63 -22 63 5 0 7 5 4 10
-7 12 5 13 21 2z m672 -9 c5 -17 -26 -29 -40 -15 -6 6 -7 15 -3 22 9 14 37 9
43 -7z m-98 -86 c0 4 4 2 8 -4 4 -7 18 -14 30 -16 12 -2 25 -6 28 -10 4 -4 14
-1 23 6 14 11 14 10 2 -6 -16 -20 -59 -18 -84 3 -6 6 -21 18 -32 26 -19 15
-19 15 3 4 12 -6 22 -7 22 -3z m-1510 -175 c0 -9 -9 -7 -30 8 -39 28 -39 44 0
22 16 -9 30 -23 30 -30z m209 -17 c-15 -15 -77 -32 -89 -25 -9 6 1 13 36 23
45 13 65 14 53 2z m331 -98 c0 -2 -9 -12 -20 -22 -24 -21 -27 -14 -4 9 15 15
24 20 24 13z"/>
<path d="M2358 2263 c7 -3 16 -2 19 1 4 3 -2 6 -13 5 -11 0 -14 -3 -6 -6z"/>
<path d="M2318 2253 c7 -3 16 -2 19 1 4 3 -2 6 -13 5 -11 0 -14 -3 -6 -6z"/>
<path d="M1795 1880 c3 -5 10 -10 16 -10 5 0 9 5 9 10 0 6 -7 10 -16 10 -8 0
-12 -4 -9 -10z"/>
<path d="M743 3510 c-57 -8 -116 -37 -133 -63 -12 -21 -12 -21 6 -7 10 8 25
21 32 27 32 31 160 41 237 18 11 -3 7 1 -10 8 -42 20 -83 25 -132 17z"/>
<path d="M721 3469 c-25 -4 -49 -13 -55 -19 -8 -8 -3 -9 19 -3 38 10 162 10
195 0 l25 -8 -25 15 c-34 19 -106 26 -159 15z"/>
<path d="M624 3419 c-19 -22 -19 -22 4 -8 12 8 22 17 22 21 0 12 -6 9 -26 -13z"/>
<path d="M915 3430 c3 -5 16 -15 28 -21 22 -12 22 -12 3 10 -19 21 -43 30 -31
11z"/>
<path d="M980 3427 c0 -5 8 -21 19 -35 49 -70 65 -124 65 -217 0 -78 -4 -98
-29 -150 -30 -65 -76 -132 -140 -207 -46 -55 -67 -64 -35 -15 l22 32 -25 -29
c-22 -25 -27 -27 -48 -16 l-24 11 22 -18 c30 -26 63 -84 63 -113 0 -14 5 -32
11 -40 12 -18 1 55 -12 82 -16 31 -9 47 51 115 78 87 134 183 150 254 18 83 9
183 -22 249 -26 54 -67 113 -68 97z"/>
<path d="M980 3377 c0 -4 9 -25 19 -46 32 -62 45 -156 32 -221 -11 -55 -18
-70 -61 -145 -13 -22 -16 -33 -8 -25 9 8 32 46 52 84 32 59 37 77 37 137 0 78
-21 162 -51 199 -11 14 -20 21 -20 17z"/>
<path d="M583 3355 c-8 -23 3 -95 17 -109 9 -8 10 -5 4 14 -5 14 -9 44 -9 68
0 45 -2 51 -12 27z"/>
<path d="M552 3320 c0 -14 2 -19 5 -12 2 6 2 18 0 25 -3 6 -5 1 -5 -13z"/>
<path d="M745 3300 c-3 -6 3 -22 14 -36 16 -20 21 -22 21 -10 0 9 -7 19 -15
22 -21 8 -19 24 4 24 34 0 45 -26 32 -70 -10 -35 -17 -41 -59 -53 -72 -22
-136 8 -167 78 -7 17 -14 24 -14 17 -1 -7 6 -26 14 -42 46 -89 176 -105 229
-28 19 27 21 79 4 96 -15 15 -54 16 -63 2z"/>
<path d="M750 3215 c-8 -9 -8 -15 -2 -15 12 0 26 19 19 26 -2 2 -10 -2 -17
-11z"/>
<path d="M683 3193 c9 -2 25 -2 35 0 9 3 1 5 -18 5 -19 0 -27 -2 -17 -5z"/>
<path d="M651 2816 c2 -2 33 -6 69 -9 38 -3 57 -1 45 3 -19 8 -123 14 -114 6z"/>
<path d="M615 2800 c-3 -5 -1 -10 4 -10 6 0 11 5 11 10 0 6 -2 10 -4 10 -3 0
-8 -4 -11 -10z"/>
<path d="M560 2758 c-17 -18 -44 -55 -58 -83 -23 -43 -27 -62 -27 -140 0 -111
23 -163 102 -238 34 -33 53 -60 53 -74 0 -25 15 -31 23 -10 4 9 8 9 15 -2 5
-7 16 -11 23 -9 8 3 -13 25 -51 55 -75 60 -89 74 -126 140 -25 43 -28 58 -28
139 0 81 3 96 28 140 16 27 42 64 59 82 17 17 28 32 25 32 -3 0 -20 -15 -38
-32z"/>
<path d="M635 2776 c-73 -33 -125 -121 -132 -226 -6 -87 10 -130 74 -201 37
-41 131 -119 100 -82 -16 18 -17 28 -7 88 6 37 20 93 30 124 11 30 20 57 20
59 0 2 16 1 36 -3 26 -4 34 -3 29 5 -4 6 -9 9 -12 6 -9 -9 -60 22 -82 50 -24
31 -27 76 -7 93 17 15 28 1 15 -19 -14 -23 -11 -36 17 -69 15 -18 35 -31 47
-30 17 1 18 2 5 6 -26 7 -22 24 18 76 39 49 54 58 54 30 0 -9 3 -13 7 -9 14
13 -29 73 -67 95 -43 24 -100 27 -145 7z m143 -18 c21 -14 20 -14 -11 -55 -18
-22 -38 -49 -44 -59 -11 -17 -12 -14 -10 21 2 34 -1 40 -18 40 -11 0 -26 -12
-35 -28 -14 -25 -13 -30 6 -66 19 -35 20 -42 7 -72 -21 -50 -43 -139 -45 -181
-1 -21 -4 -38 -8 -38 -10 0 -45 41 -76 90 -25 40 -28 54 -27 120 1 114 47 200
128 237 35 16 104 12 133 -9z m1 -95 c-41 -60 -38 -57 -45 -51 -7 8 11 42 45
87 37 49 38 20 0 -36z m-72 -127 c-9 -24 -45 -150 -56 -196 -10 -43 -10 -42
-6 25 4 71 39 185 57 185 6 0 8 -6 5 -14z"/>
<path d="M840 2637 c0 -26 -17 -52 -40 -60 -10 -4 -8 -6 6 -6 15 -1 27 9 38
33 18 39 20 56 6 56 -5 0 -10 -10 -10 -23z"/>
<path d="M808 2543 c7 -3 16 -2 19 1 4 3 -2 6 -13 5 -11 0 -14 -3 -6 -6z"/>
<path d="M770 2185 c13 -14 26 -25 28 -25 3 0 -5 11 -18 25 -13 14 -26 25 -28
25 -3 0 5 -11 18 -25z"/>
<path d="M710 2198 c0 -4 19 -27 43 -51 28 -29 49 -63 64 -106 l23 -64 -25 23
c-14 13 -48 57 -75 99 -28 41 -50 70 -50 65 0 -12 102 -168 125 -191 23 -22
18 -39 -5 -18 -25 23 -136 188 -145 215 -5 17 -25 29 -25 15 0 -20 92 -162
140 -217 l58 -66 -15 -62 c-16 -71 -12 -106 6 -45 40 142 15 271 -70 360 -27
27 -49 47 -49 43z"/>
</g>
</svg>
