<?xml version="1.0" standalone="no"?><!DOCTYPE svg PUBLIC "-//W3C//DTD SVG 20010904//EN" "http://www.w3.org/TR/2001/REC-SVG-20010904/DTD/svg10.dtd"><svg xmlns="http://www.w3.org/2000/svg" version="1.0" width="12.2947mm" height="16mm" viewBox="0 0 340.314096 442.876714" preserveAspectRatio="xMidYMid meet">
<metadata>
Created by potrace 1.16, written by Peter Selinger 2001-2019
</metadata>
<g transform="translate(-50.040747,460.941108) scale(0.100000,-0.100000)" fill="#000000" stroke="none">
<path d="M2902 4600 c-12 -5 -30 -23 -40 -40 -13 -22 -24 -30 -45 -30 -62 0 -115 -58 -105 -114 5 -24 5 -24 -33 6 -96 78 -331 25 -653 -148 -193 -103 -337 -202 -491 -337 -265 -232 -375 -383 -536 -742 -63 -140 -73 -169 -77 -233 l-5 -73 53 -49 c28 -27 107 -94 175 -149 l124 -100 -42 -6 c-62 -9 -163 11 -237 47 -47 23 -88 55 -146 115 -88 91 -121 108 -179 92 -43 -12 -75 -58 -75 -106 0 -23 -5 -33 -15 -33 -24 0 -64 -48 -70 -84 -4 -17 0 -49 9 -73 12 -35 12 -44 1 -60 -21 -27 -19 -112 5 -150 35 -57 126 -115 246 -155 59 -20 89 -23 214 -23 143 0 146 0 215 33 39 18 107 55 152 83 45 27 88 49 95 49 7 0 42 -9 76 -20 35 -11 90 -20 121 -20 70 0 80 -8 41 -31 -17 -11 -30 -27 -30 -38 0 -28 34 -65 80 -86 30 -14 39 -22 34 -34 -40 -92 -77 -207 -81 -252 -7 -71 11 -106 73 -148 80 -52 103 -52 255 7 77 29 124 58 237 144 l62 47 47 -29 c47 -30 139 -64 205 -76 l37 -6 -29 -37 c-16 -20 -52 -86 -79 -146 -40 -89 -61 -122 -110 -172 -98 -100 -170 -226 -190 -328 -7 -33 -17 -71 -24 -84 -10 -20 -8 -26 14 -45 28 -23 69 -122 69 -167 0 -16 7 -46 15 -66 8 -19 15 -54 15 -76 0 -37 6 -46 55 -92 69 -63 72 -93 20 -162 -76 -100 -38 -133 151 -133 104 0 114 -2 114 -18 0 -32 33 -51 106 -62 88 -12 164 -13 217 0 23 5 72 12 109 15 79 8 114 29 104 63 -8 24 -122 117 -164 133 -15 6 -69 13 -119 16 -92 6 -118 17 -65 29 64 14 94 27 107 47 15 24 98 236 108 277 4 14 24 49 47 79 31 41 40 62 40 92 0 34 3 39 23 39 43 0 135 69 163 122 21 41 18 110 -6 136 -11 12 -25 43 -30 70 -16 86 -52 165 -135 297 -120 190 -130 215 -91 215 8 0 66 27 129 60 64 32 142 66 173 74 75 20 97 43 184 196 119 209 134 245 134 320 1 62 -1 69 -56 155 -55 86 -158 300 -158 328 0 7 37 42 82 78 46 35 142 123 214 194 114 113 134 137 149 183 25 77 25 144 0 172 -33 38 -107 80 -140 80 -62 0 -153 -32 -301 -105 -84 -41 -154 -75 -157 -75 -2 0 -30 40 -61 89 l-56 88 32 58 c41 76 57 145 64 280 7 125 -9 232 -50 321 -43 94 -107 196 -155 245 -43 45 -51 49 -92 48 -24 0 -54 -4 -67 -9z m138 -68 c55 -57 130 -185 161 -273 30 -86 38 -290 15 -398 -16 -74 -51 -161 -66 -161 -8 0 -240 372 -240 386 0 4 7 16 17 26 14 16 15 18 0 18 -25 0 -32 22 -12 37 18 12 18 13 -3 13 -26 0 -28 16 -5 42 15 17 15 18 -8 18 -19 0 -36 14 -67 58 -23 31 -53 71 -68 89 -58 72 27 136 113 83 39 -24 84 -83 128 -170 38 -76 51 -132 61 -258 5 -69 10 -92 21 -92 12 0 14 23 11 130 -2 71 -7 130 -12 130 -4 0 -6 18 -4 39 3 30 1 37 -9 30 -9 -8 -18 1 -34 33 -33 66 -96 152 -128 176 -37 27 -31 58 13 78 50 22 67 17 116 -34z m-375 -142 c30 -27 41 -43 155 -230 187 -305 443 -716 450 -723 4 -5 57 18 116 51 143 80 255 124 329 130 57 4 63 2 105 -30 32 -24 46 -42 48 -63 l4 -30 -24 23 c-29 26 -48 30 -25 4 21 -23 39 -72 32 -90 -4 -10 -12 -5 -31 18 -25 29 -49 36 -27 8 17 -21 35 -87 28 -98 -5 -8 -14 -5 -28 7 -20 18 -20 18 -13 -16 6 -32 3 -37 -73 -107 -125 -116 -223 -198 -334 -276 -114 -81 -281 -242 -408 -393 -104 -125 -280 -309 -424 -444 -115 -108 -415 -341 -439 -341 -8 0 -28 12 -45 26 -38 31 -41 17 -5 -19 22 -22 24 -28 11 -33 -19 -7 -72 28 -88 58 -6 11 -13 17 -16 15 -6 -7 15 -47 40 -74 l20 -22 -27 -11 c-40 -15 -42 -14 -91 31 -53 49 -56 44 -15 -16 l30 -43 -32 -11 c-26 -9 -38 -8 -74 9 -23 12 -54 32 -69 46 -26 24 -27 29 -23 92 3 46 17 98 45 166 l40 100 51 11 c119 27 195 141 137 206 -42 46 -143 77 -160 49 -13 -21 -20 -8 -17 30 4 35 0 44 -31 75 -39 39 -63 43 -108 19 -35 -18 -68 -15 -82 7 -7 11 2 32 36 82 57 83 68 118 74 239 4 72 1 116 -12 170 -38 159 -142 332 -257 428 -49 41 -67 50 -98 50 -68 0 -110 -34 -110 -89 0 -13 -10 -21 -34 -25 -52 -10 -96 -56 -96 -100 0 -30 11 -47 71 -113 74 -82 166 -207 188 -258 7 -16 15 -66 18 -110 4 -70 1 -85 -19 -120 -13 -22 -31 -41 -39 -43 -16 -3 -210 147 -314 240 -49 45 -50 47 -49 104 0 65 44 176 155 394 128 252 287 440 554 652 146 116 391 260 573 338 192 81 371 102 427 50z m135 -106 c30 -43 71 -129 52 -109 -5 6 -30 45 -56 88 -49 83 -47 96 4 21z m-1393 -882 c58 -46 102 -95 150 -168 30 -44 34 -56 23 -69 -10 -13 -9 -15 8 -15 25 0 36 -27 16 -38 -12 -7 -11 -10 9 -19 18 -8 28 -27 41 -73 43 -151 27 -316 -40 -407 -19 -27 -42 -63 -51 -82 -18 -33 -18 -33 10 -57 33 -29 91 -32 126 -8 19 14 27 14 46 4 33 -18 49 -57 35 -90 -28 -67 -148 -85 -272 -41 l-66 24 -39 -21 c-21 -11 -74 -41 -118 -66 -136 -79 -173 -89 -310 -89 -103 0 -132 4 -201 26 -89 30 -194 92 -219 131 -25 37 -31 99 -12 115 14 11 25 4 79 -46 105 -97 283 -172 410 -173 57 0 140 20 135 33 -2 7 -17 11 -33 9 -76 -7 -173 -4 -212 7 -33 9 -45 19 -56 44 l-14 32 -1 -27 c-1 -38 -19 -35 -36 5 -11 25 -15 29 -20 15 -6 -16 -9 -16 -40 -1 -18 9 -36 25 -39 37 -5 16 -8 18 -14 8 -7 -10 -23 0 -66 39 -90 82 -120 165 -76 209 28 28 43 25 64 -11 10 -17 48 -62 83 -100 109 -115 218 -155 398 -146 108 5 130 10 139 34 5 12 1 14 -21 9 -16 -4 -68 -9 -118 -12 -145 -10 -301 37 -288 86 6 21 -12 29 -19 8 -8 -24 -30 4 -24 31 6 24 5 24 -8 8 -12 -16 -16 -15 -46 15 -89 91 -115 173 -69 219 38 38 80 21 168 -68 127 -130 238 -179 390 -171 98 4 147 28 178 88 28 52 31 158 8 237 -18 59 -97 175 -196 285 -38 42 -69 85 -69 95 0 28 43 65 77 66 25 2 40 -11 103 -83 125 -145 169 -225 179 -329 7 -72 26 -92 36 -37 16 83 -59 241 -178 374 -74 82 -91 113 -83 147 6 24 38 43 73 44 11 1 43 -16 70 -37z m2012 -499 c24 -69 109 -237 155 -308 69 -106 64 -170 -26 -323 -77 -130 -73 -127 -74 -63 -1 31 -9 77 -18 103 -12 34 -14 53 -6 73 5 14 10 46 10 70 0 45 -17 65 -54 65 -21 0 -74 -47 -92 -82 -23 -43 -1 -73 63 -84 47 -9 48 -10 51 -47 3 -34 -3 -45 -45 -93 -78 -89 -93 -114 -93 -155 0 -27 6 -42 21 -52 l21 -15 -24 -7 c-12 -3 -77 -33 -143 -66 -168 -83 -237 -99 -445 -99 -123 0 -181 4 -221 16 -57 17 -149 62 -149 74 0 4 56 55 124 113 l124 107 34 -34 c59 -59 147 -68 244 -26 51 22 81 64 93 127 16 82 -11 158 -69 191 l-28 16 61 76 c34 41 102 119 151 174 l90 99 23 -54 c32 -72 69 -118 109 -135 49 -20 76 -17 120 13 21 14 55 35 74 44 29 15 31 18 13 19 -17 0 -21 4 -16 17 7 17 6 17 -18 1 l-26 -16 -21 72 c-15 52 -32 85 -61 118 -23 25 -41 50 -41 55 0 8 60 53 70 53 3 0 12 -17 19 -37z m-76 -63 c67 -53 102 -205 57 -250 -24 -24 -51 -25 -89 -5 -49 25 -121 153 -107 190 9 25 24 17 31 -17 11 -51 41 -103 75 -132 37 -31 65 -33 80 -7 26 50 -5 136 -70 195 -21 19 -36 37 -32 40 10 11 29 6 55 -14z m87 -382 c0 -53 -11 -68 -46 -68 -44 0 -52 20 -23 59 28 38 69 43 69 9z m-539 -85 c39 -23 59 -70 59 -140 0 -68 -23 -113 -71 -142 -42 -25 -116 -35 -166 -22 -49 13 -98 62 -89 88 7 16 10 15 28 -11 56 -75 190 -72 238 7 26 42 26 112 0 155 -11 17 -23 32 -27 32 -5 0 -14 4 -22 9 -12 8 -12 12 -2 25 17 20 17 20 52 -1z m-973 -37 c43 -22 64 -51 60 -83 l-3 -28 -85 0 c-47 1 -97 4 -112 8 l-28 7 53 55 c55 57 72 63 115 41z m1530 -131 c-2 -10 -7 -12 -17 -5 -13 7 -13 11 -1 25 15 18 24 8 18 -20z m-1595 -2 c48 -3 87 -10 87 -15 0 -16 -83 -48 -125 -48 -47 0 -118 37 -123 64 -4 17 0 18 34 12 22 -4 78 -9 127 -13z m1586 -27 c15 -17 6 -40 -38 -98 -35 -48 -67 -61 -77 -33 -10 25 3 58 41 103 39 44 55 51 74 28z m-436 -438 c20 -35 68 -112 107 -173 69 -108 120 -231 120 -292 0 -14 11 -38 25 -55 14 -16 25 -36 25 -43 0 -40 -49 -115 -75 -115 -9 0 -85 102 -85 113 0 2 10 3 21 3 12 -1 26 7 33 17 9 15 7 21 -7 32 -18 13 -17 14 2 20 28 8 27 35 -3 94 -24 47 -124 166 -133 158 -2 -3 8 -22 22 -43 27 -39 27 -40 23 -189 -3 -113 -8 -157 -20 -180 -36 -68 -249 -247 -348 -294 -54 -26 -78 -31 -137 -31 -123 0 -261 56 -302 124 -30 48 -27 63 16 71 20 3 49 20 66 36 31 31 30 53 0 28 -40 -33 -115 -51 -127 -30 -3 5 1 15 10 22 8 7 24 30 35 51 20 39 20 39 0 29 -11 -6 -27 -21 -37 -34 -16 -21 -16 -21 -10 23 14 92 117 269 192 327 27 21 53 63 104 169 48 99 79 150 104 172 34 30 42 32 114 33 42 1 102 4 132 9 100 13 95 16 133 -52z m147 -450 c0 -10 -7 -18 -15 -18 -11 0 -15 11 -15 43 1 41 1 42 15 17 8 -14 14 -33 15 -42z m10 -88 c0 -5 -5 -10 -11 -10 -5 0 -7 5 -4 10 3 6 8 10 11 10 2 0 4 -4 4 -10z m-20 -106 c0 -16 -26 -19 -35 -4 -4 6 -4 18 -1 27 5 12 9 13 21 3 8 -7 15 -19 15 -26z m21 -68 c-26 -11 -35 -4 -26 24 7 21 7 21 27 3 19 -17 19 -18 -1 -27z m-61 10 c0 -8 -15 -27 -32 -42 -56 -48 -308 -308 -303 -312 5 -5 124 94 142 119 6 8 46 46 87 83 69 62 76 66 76 43 0 -16 -29 -62 -80 -128 -79 -101 -101 -143 -41 -77 l31 33 -24 -70 c-45 -132 -73 -184 -103 -192 -16 -5 -80 -8 -144 -8 -127 0 -149 8 -149 53 0 14 -7 34 -17 44 -15 17 -15 18 8 18 48 0 52 17 5 22 -61 7 -202 66 -238 99 -18 18 -28 37 -28 56 l0 30 58 -29 c74 -36 193 -61 255 -53 112 14 230 87 402 249 83 78 95 86 95 62z m-699 -401 c113 -54 165 -115 99 -115 -61 0 -180 83 -180 126 0 13 2 24 4 24 2 0 37 -16 77 -35z m74 -185 c6 -25 10 -29 30 -24 23 6 117 -35 130 -56 4 -6 4 -22 1 -36 -6 -24 -7 -24 -141 -24 -133 0 -135 0 -135 23 0 12 16 42 35 66 22 27 35 55 35 73 0 25 2 27 19 18 11 -5 22 -23 26 -40z m123 9 c84 -22 113 -46 45 -36 -37 5 -158 55 -138 57 6 0 47 -9 93 -21z m158 -59 c18 -45 19 -46 42 -24 20 20 111 13 124 -10 5 -8 14 -21 22 -28 19 -20 30 -87 15 -104 -13 -15 -178 -19 -254 -6 -35 6 -40 11 -43 38 -2 21 6 41 28 68 20 26 30 50 30 72 0 46 17 43 36 -6z m-88 -28 c6 -18 -15 -14 -22 4 -4 10 -1 14 6 12 6 -2 14 -10 16 -16z m338 -17 c18 -14 18 -14 -7 -15 -15 0 -32 7 -39 15 -10 12 -9 15 7 15 10 0 28 -7 39 -15z m74 -60 c22 -14 40 -29 40 -34 0 -12 -37 -21 -87 -21 l-43 0 0 40 c0 36 2 40 25 40 14 0 43 -11 65 -25z"/>
<path d="M2670 4016 c17 -22 110 -79 116 -73 7 7 -99 87 -116 87 -10 0 -10 -3 0 -14z"/>
<path d="M2660 3968 c0 -17 67 -60 75 -48 3 5 -10 20 -28 34 -38 29 -47 32 -47 14z"/>
<path d="M2561 3761 c-11 -7 -14 -35 -12 -131 l2 -122 -28 5 c-226 40 -240 41 -266 24 -33 -21 -47 -72 -47 -169 0 -71 2 -78 26 -97 19 -15 41 -21 74 -21 42 0 198 -25 206 -32 1 -2 -8 -55 -21 -118 -28 -134 -31 -193 -11 -210 17 -13 153 -39 212 -40 27 0 46 6 57 18 19 21 42 123 53 230 l7 74 31 -6 c96 -20 164 -29 178 -23 31 11 52 223 24 246 -7 6 -61 19 -120 29 l-106 17 0 123 c0 68 -4 132 -10 142 -12 22 -47 34 -155 55 -44 8 -80 15 -80 15 0 0 -6 -4 -14 -9z m85 -42 c32 -5 76 -15 97 -20 l37 -10 0 -139 c0 -123 2 -139 18 -144 16 -5 205 -36 218 -36 7 0 1 -187 -7 -194 -2 -2 -51 5 -107 16 -57 11 -109 17 -116 15 -9 -4 -15 -38 -19 -104 -4 -54 -13 -123 -20 -153 l-12 -55 -53 -3 c-57 -3 -161 13 -175 27 -9 9 23 209 43 274 5 15 7 34 4 42 -7 16 -72 31 -205 47 -86 9 -98 13 -103 32 -14 53 3 178 27 193 16 10 59 5 177 -17 76 -15 107 -17 117 -9 9 8 13 43 13 130 0 66 1 119 3 119 2 0 30 -5 63 -11z"/>
<path d="M3705 3543 c-15 -27 -35 -56 -43 -65 -11 -13 -12 -18 -3 -18 16 0 46 34 71 82 30 55 6 56 -25 1z"/>
<path d="M3110 3442 c0 -14 69 -76 77 -69 3 4 -9 23 -27 42 -33 34 -50 43 -50 27z"/>
<path d="M3100 3396 c0 -9 7 -19 15 -23 25 -9 27 2 5 22 -18 17 -20 17 -20 1z"/>
<path d="M3580 3385 c-7 -8 -80 -66 -164 -129 -153 -116 -256 -210 -243 -223 4 -3 20 5 35 19 15 14 90 73 167 133 147 113 210 168 226 198 12 21 -4 23 -21 2z"/>
<path d="M3210 3254 c-24 -33 -138 -155 -253 -271 -116 -117 -208 -215 -205 -218 7 -7 146 116 268 236 101 99 245 280 238 300 -2 6 -23 -15 -48 -47z"/>
<path d="M2798 2704 c-134 -132 -333 -329 -443 -439 -287 -287 -485 -434 -588 -436 l-42 -1 35 -15 c73 -32 175 23 405 218 97 82 750 737 830 832 32 37 55 71 52 74 -3 3 -115 -102 -249 -233z"/>
<path d="M1740 2712 c0 -14 39 -46 47 -39 3 4 -2 16 -12 27 -19 21 -35 26 -35 12z"/>
<path d="M1717 2682 c-3 -4 3 -13 14 -20 10 -7 19 -8 19 -3 0 13 -28 33 -33 23z"/>
<path d="M2520 2569 c-14 -12 -83 -62 -155 -112 -153 -106 -140 -96 -132 -103 15 -15 210 109 290 184 52 50 50 74 -3 31z"/>
<path d="M2801 2021 c-8 -5 -20 -7 -27 -4 -20 7 -54 -16 -65 -44 -14 -38 -2 -41 27 -8 23 27 25 28 21 8 -7 -31 4 -29 41 10 41 42 42 63 3 38z"/>
<path d="M2650 1519 c0 -6 -7 -9 -15 -5 -10 3 -15 -1 -15 -14 0 -25 20 -36 31 -19 8 12 12 11 24 -5 16 -21 35 -13 35 14 0 12 -5 17 -14 14 -7 -3 -16 2 -19 10 -7 18 -27 22 -27 5z"/>
<path d="M2746 1498 c-8 -32 -8 -38 3 -38 14 0 24 41 13 52 -6 6 -12 1 -16 -14z"/>
<path d="M2996 1241 c-3 -5 1 -14 9 -21 12 -10 15 -10 15 3 0 19 -16 31 -24 18z"/>
<path d="M2947 1234 c-13 -13 -7 -44 8 -44 16 0 17 5 6 33 -3 10 -10 15 -14 11z"/>
<path d="M2880 1196 c0 -14 5 -26 10 -26 6 0 10 9 10 19 0 11 -4 23 -10 26 -6 4 -10 -5 -10 -19z"/>
<path d="M3178 1169 c-24 -13 -23 -46 1 -54 31 -10 52 5 49 34 -3 28 -23 36 -50 20z m32 -24 c0 -8 -7 -15 -15 -15 -16 0 -20 12 -8 23 11 12 23 8 23 -8z"/>
<path d="M2750 955 c0 -9 -6 -12 -17 -8 -13 5 -15 2 -10 -11 4 -10 7 -20 7 -22 0 -2 7 -4 15 -4 10 0 15 10 15 30 0 17 -2 30 -5 30 -3 0 -5 -7 -5 -15z"/>
<path d="M2655 927 c-4 -10 -14 -16 -21 -13 -19 7 -18 -18 1 -34 12 -10 16 -7 25 15 12 31 7 61 -5 32z"/>
<path d="M2687 933 c-11 -10 -8 -43 3 -43 6 0 10 11 10 25 0 26 -2 29 -13 18z"/>
<path d="M2426 713 c-11 -12 31 -32 80 -38 48 -7 134 8 134 23 0 4 -34 6 -75 4 -41 -2 -88 0 -104 6 -16 6 -32 8 -35 5z"/>
</g>
</svg>