<?xml version="1.0" standalone="no"?>
<!DOCTYPE svg PUBLIC "-//W3C//DTD SVG 20010904//EN"
 "http://www.w3.org/TR/2001/REC-SVG-20010904/DTD/svg10.dtd">
<svg version="1.0" xmlns="http://www.w3.org/2000/svg"
 width="127.775470pt" height="168.639992pt" viewBox="0 0 127.775470 168.639992"
 preserveAspectRatio="xMidYMid meet">
<metadata>
Created by potrace 1.16, written by Peter Selinger 2001-2019
</metadata>
<g transform="translate(-38.000000,196.805703) scale(0.100000,-0.100000)"
fill="#000000" stroke="none">
<path d="M1050 1961 c-89 -6 -100 -9 -165 -48 -65 -38 -154 -127 -142 -140 3
-3 34 4 68 16 35 12 74 21 88 21 14 1 43 7 63 14 35 13 37 12 28 -5 -6 -10
-10 -34 -10 -54 0 -20 -5 -45 -11 -57 -16 -29 -4 -33 28 -10 l27 20 16 -47 c9
-25 14 -49 12 -53 -2 -5 -40 -8 -85 -8 -93 0 -139 -17 -249 -91 -85 -57 -120
-88 -179 -160 -28 -33 -75 -76 -105 -96 -30 -20 -54 -40 -54 -44 0 -28 239 3
360 47 81 29 80 29 80 5 0 -19 2 -19 55 4 30 14 86 32 125 41 38 8 85 26 104
39 30 20 26 12 -31 -58 -36 -45 -83 -100 -104 -122 -48 -51 -60 -101 -60 -254
1 -64 1 -133 1 -154 0 -58 13 -76 55 -73 44 4 44 -1 0 -20 -48 -20 -71 -18
-113 11 -43 29 -63 31 -97 9 -27 -17 -33 -60 -15 -93 12 -23 133 -73 181 -74
24 -1 51 8 80 27 44 29 44 29 20 3 -23 -25 -23 -31 -19 -137 5 -130 15 -149
70 -134 l33 10 3 98 c3 92 5 100 28 118 46 37 124 219 124 295 1 21 7 51 13
68 12 27 14 22 25 -80 15 -131 6 -200 -30 -227 -50 -37 -58 -48 -58 -84 0 -54
20 -121 42 -141 18 -16 22 -16 46 -2 15 9 25 22 24 30 -18 73 -17 76 37 103
59 30 82 68 107 173 17 71 14 179 -7 271 -5 25 -8 47 -5 49 10 10 36 -58 36
-95 0 -25 7 -49 20 -63 20 -24 20 -24 35 -5 8 11 15 31 15 44 0 14 5 22 13 19
7 -2 11 -18 9 -40 -3 -31 0 -38 26 -51 26 -13 32 -14 42 -1 13 16 9 111 -9
189 -22 100 -47 136 -168 247 -42 38 -75 122 -88 222 -8 58 5 81 71 129 59 42
94 102 101 172 9 82 0 106 -40 106 -24 0 -41 9 -63 31 -40 42 -69 56 -147 69
-37 7 -70 16 -73 21 -5 9 -29 9 -184 0z m339 -107 c17 -19 29 -39 26 -44 -10
-16 -80 -30 -113 -24 -17 3 -43 19 -59 36 l-28 29 25 19 c16 13 41 20 71 20
41 0 51 -4 78 -36z m134 -51 c-7 -2 -19 -2 -25 0 -7 3 -2 5 12 5 14 0 19 -2
13 -5z m-289 -331 c3 -5 -7 -18 -22 -29 -51 -36 -56 -36 -28 0 29 37 40 44 50
29z m-70 -352 c-23 -112 -47 -193 -62 -217 -9 -14 -8 169 2 220 6 32 72 124
82 115 1 -2 -8 -55 -22 -118z m-119 -329 c3 -5 -5 -27 -17 -48 l-23 -38 -3 33
c-2 19 -1 40 2 48 6 16 32 19 41 5z"/>
</g>
</svg>
