<?xml version="1.0" standalone="no"?><!DOCTYPE svg PUBLIC "-//W3C//DTD SVG 20010904//EN" "http://www.w3.org/TR/2001/REC-SVG-20010904/DTD/svg10.dtd"><svg xmlns="http://www.w3.org/2000/svg" version="1.0" width="12.1229mm" height="16mm" viewBox="0 0 127.775470 168.639992" preserveAspectRatio="xMidYMid meet">
<metadata>
Created by potrace 1.16, written by Peter Selinger 2001-2019
</metadata>
<g transform="translate(-38.000000,196.805703) scale(0.100000,-0.100000)" fill="#000000" stroke="none">
<path d="M1050 1961 c-89 -6 -100 -9 -165 -48 -65 -38 -154 -127 -142 -140 3 -3 34 4 68 16 35 12 74 21 88 21 14 1 43 7 63 14 35 13 37 12 28 -5 -6 -10 -10 -34 -10 -54 0 -20 -5 -45 -11 -57 -16 -29 -4 -33 28 -10 l27 20 16 -47 c9 -25 14 -49 12 -53 -2 -5 -40 -8 -85 -8 -93 0 -139 -17 -249 -91 -85 -57 -120 -88 -179 -160 -28 -33 -75 -76 -105 -96 -30 -20 -54 -40 -54 -44 0 -28 239 3 360 47 81 29 80 29 80 5 0 -19 2 -19 55 4 30 14 86 32 125 41 38 8 85 26 104 39 30 20 26 12 -31 -58 -36 -45 -83 -100 -104 -122 -48 -51 -60 -101 -60 -254 1 -64 1 -133 1 -154 0 -58 13 -76 55 -73 44 4 44 -1 0 -20 -48 -20 -71 -18 -113 11 -43 29 -63 31 -97 9 -27 -17 -33 -60 -15 -93 12 -23 133 -73 181 -74 24 -1 51 8 80 27 44 29 44 29 20 3 -23 -25 -23 -31 -19 -137 5 -130 15 -149 70 -134 l33 10 3 98 c3 92 5 100 28 118 46 37 124 219 124 295 1 21 7 51 13 68 12 27 14 22 25 -80 15 -131 6 -200 -30 -227 -50 -37 -58 -48 -58 -84 0 -54 20 -121 42 -141 18 -16 22 -16 46 -2 15 9 25 22 24 30 -18 73 -17 76 37 103 59 30 82 68 107 173 17 71 14 179 -7 271 -5 25 -8 47 -5 49 10 10 36 -58 36 -95 0 -25 7 -49 20 -63 20 -24 20 -24 35 -5 8 11 15 31 15 44 0 14 5 22 13 19 7 -2 11 -18 9 -40 -3 -31 0 -38 26 -51 26 -13 32 -14 42 -1 13 16 9 111 -9 189 -22 100 -47 136 -168 247 -42 38 -75 122 -88 222 -8 58 5 81 71 129 59 42 94 102 101 172 9 82 0 106 -40 106 -24 0 -41 9 -63 31 -40 42 -69 56 -147 69 -37 7 -70 16 -73 21 -5 9 -29 9 -184 0z m339 -107 c17 -19 29 -39 26 -44 -10 -16 -80 -30 -113 -24 -17 3 -43 19 -59 36 l-28 29 25 19 c16 13 41 20 71 20 41 0 51 -4 78 -36z m134 -51 c-7 -2 -19 -2 -25 0 -7 3 -2 5 12 5 14 0 19 -2 13 -5z m-289 -331 c3 -5 -7 -18 -22 -29 -51 -36 -56 -36 -28 0 29 37 40 44 50 29z m-70 -352 c-23 -112 -47 -193 -62 -217 -9 -14 -8 169 2 220 6 32 72 124 82 115 1 -2 -8 -55 -22 -118z m-119 -329 c3 -5 -5 -27 -17 -48 l-23 -38 -3 33 c-2 19 -1 40 2 48 6 16 32 19 41 5z"/>
</g>
<path d="M 82.455 4.253 L 82.909 4.267 L 83.212 4.286 L 84.021 4.811 L 84.547 5.044 L 84.834 5.158 L 85.23 5.3 L 85.202 5.314 L 85.119 5.358 L 84.943 5.454 L 84.843 5.51 L 84.757 5.56 L 84.744 5.568 L 84.657 5.619 L 84.589 5.66 L 84.504 5.712 L 84.473 5.73 L 84.388 5.783 L 84.339 5.815 L 84.255 5.869 L 84.206 5.901 L 84.123 5.956 L 84.046 6.008 L 83.964 6.065 L 83.935 6.085 L 83.853 6.143 L 83.806 6.177 L 83.725 6.236 L 83.63 6.307 L 83.472 6.429 L 83.446 6.449 L 83.367 6.511 L 83.361 6.516 L 83.281 6.576 L 83.234 6.612 L 83.202 6.637 L 83.122 6.697 L 83.096 6.717 L 83.016 6.778 L 82.943 6.834 L 82.937 6.838 L 82.883 6.879 L 82.803 6.939 L 82.756 6.975 L 82.724 7 L 82.644 7.06 L 82.618 7.08 L 82.538 7.141 L 82.465 7.197 L 82.459 7.201 L 82.379 7.262 L 82.306 7.318 L 82.3 7.322 L 82.14 7.444 L 82.067 7.5 L 82.061 7.504 L 82.007 7.545 L 81.927 7.605 L 81.88 7.641 L 81.848 7.666 L 81.768 7.726 L 81.742 7.746 L 81.662 7.807 L 81.589 7.863 L 81.583 7.867 L 81.503 7.928 L 81.43 7.984 L 81.424 7.988 L 81.37 8.029 L 81.29 8.089 L 81.243 8.125 L 81.211 8.15 L 81.131 8.21 L 81.105 8.23 L 81.025 8.291 L 80.952 8.347 L 80.053 9.279 L 79.48 10.44 L 79.286 11.72 L 79.49 12.998 L 80.394 14.553 L 80.46 14.625 L 80.524 14.693 L 80.593 14.765 L 80.614 14.787 L 80.663 14.837 L 80.732 14.909 L 80.753 14.931 L 80.802 14.981 L 80.871 15.053 L 80.892 15.075 L 80.941 15.125 L 81.01 15.197 L 81.031 15.219 L 81.08 15.269 L 81.149 15.341 L 81.17 15.363 L 81.239 15.434 L 81.288 15.485 L 81.309 15.507 L 81.379 15.579 L 81.448 15.65 L 81.497 15.7 L 81.566 15.772 L 81.587 15.794 L 81.647 15.856 L 81.774 15.988 L 81.795 16.01 L 81.844 16.06 L 81.913 16.132 L 81.934 16.154 L 81.983 16.204 L 82.052 16.276 L 82.073 16.298 L 82.122 16.348 L 82.191 16.42 L 82.212 16.442 L 82.261 16.492 L 82.33 16.564 L 82.351 16.586 L 82.4 16.636 L 82.469 16.708 L 82.49 16.73 L 82.539 16.78 L 82.608 16.852 L 82.629 16.874 L 82.678 16.924 L 82.747 16.996 L 82.768 17.018 L 82.829 17.081 L 82.886 17.14 L 82.907 17.162 L 82.977 17.234 L 83.025 17.283 L 83.094 17.355 L 83.115 17.377 L 83.164 17.427 L 83.233 17.499 L 83.234 17.5 L 83.372 17.644 L 83.414 17.687 L 83.484 17.758 L 83.597 17.871 L 83.668 17.941 L 83.689 17.962 L 83.761 18.032 L 83.783 18.053 L 83.855 18.122 L 83.898 18.163 L 83.971 18.231 L 83.992 18.25 L 84.066 18.318 L 84.089 18.339 L 84.237 18.473 L 84.282 18.513 L 84.357 18.579 L 84.402 18.618 L 84.63 18.813 L 84.675 18.851 L 84.752 18.915 L 84.798 18.953 L 84.954 19.079 L 84.98 19.099 L 85.136 19.223 L 85.156 19.24 L 85.235 19.302 L 85.308 19.358 L 85.388 19.418 L 85.442 19.459 L 85.496 19.499 L 85.628 19.598 L 85.703 19.653 L 85.784 19.711 L 85.784 19.71 L 85.859 19.764 L 85.895 19.79 L 85.976 19.847 L 86.015 19.874 L 86.079 19.918 L 86.161 19.975 L 86.209 20.008 L 86.375 20.12 L 86.404 20.139 L 86.487 20.194 L 86.536 20.226 L 86.704 20.334 L 86.723 20.347 L 86.808 20.401 L 86.838 20.42 L 86.923 20.473 L 86.954 20.491 L 87.039 20.543 L 87.058 20.555 L 87.144 20.607 L 87.175 20.625 L 87.261 20.676 L 87.292 20.695 L 87.378 20.745 L 87.396 20.755 L 87.57 20.855 L 87.634 20.891 L 87.721 20.939 L 87.739 20.949 L 87.915 21.045 L 87.981 21.08 L 88.053 21.118 L 88.142 21.165 L 88.209 21.199 L 88.298 21.244 L 88.348 21.27 L 88.528 21.358 L 88.562 21.374 L 88.652 21.417 L 88.703 21.441 L 88.885 21.525 L 88.955 21.557 L 89.046 21.597 L 89.062 21.603 L 89.154 21.643 L 89.225 21.674 L 89.317 21.712 L 89.332 21.718 L 89.425 21.756 L 89.498 21.785 L 89.591 21.821 L 89.605 21.826 L 89.699 21.862 L 89.773 21.89 L 89.867 21.924 L 89.904 21.937 L 89.998 21.97 L 90.049 21.987 L 90.144 22.019 L 90.22 22.044 L 90.315 22.074 L 90.366 22.09 L 90.462 22.119 L 90.54 22.142 L 90.636 22.169 L 90.725 22.193 L 90.822 22.218 L 90.861 22.228 L 90.958 22.252 L 91.088 22.281 L 91.186 22.302 L 91.226 22.311 L 91.324 22.331 L 91.453 22.355 L 91.552 22.372 L 91.587 22.378 L 91.685 22.394 L 91.732 22.401 L 91.831 22.416 L 91.873 22.422 L 91.972 22.436 L 92.06 22.448 L 92.16 22.46 L 92.295 22.475 L 92.341 22.48 L 92.441 22.49 L 92.479 22.494 L 92.578 22.503 L 92.624 22.507 L 92.724 22.515 L 92.766 22.518 L 92.863 22.525 L 92.962 22.532 L 93.048 22.537 L 93.248 22.547 L 93.333 22.55 L 93.633 22.559 L 93.717 22.561 L 93.917 22.563 L 94.201 22.563 L 94.401 22.561 L 94.485 22.559 L 94.569 22.556 L 94.643 22.555 L 94.728 22.553 L 94.828 22.549 L 94.885 22.547 L 94.97 22.544 L 95.27 22.529 L 95.312 22.526 L 95.512 22.514 L 95.556 22.512 L 95.655 22.505 L 95.852 22.491 L 95.936 22.484 L 96.036 22.475 L 96.097 22.47 L 96.135 22.467 L 96.235 22.458 L 96.239 22.458 L 96.338 22.449 L 96.376 22.445 L 96.476 22.435 L 96.48 22.435 L 96.579 22.425 L 96.616 22.421 L 96.716 22.41 L 96.721 22.409 L 96.856 22.394 L 96.956 22.382 L 97.019 22.375 L 97.102 22.365 L 97.169 22.356 L 97.254 22.346 L 97.301 22.34 L 97.499 22.314 L 97.54 22.308 L 97.738 22.28 L 97.78 22.274 L 98.077 22.229 L 98.124 22.222 L 98.216 22.207 L 98.414 22.175 L 98.462 22.167 L 98.56 22.15 L 98.652 22.134 L 98.659 22.133 L 98.757 22.116 L 98.889 22.092 L 98.937 22.083 L 98.995 22.072 L 99.093 22.054 L 99.126 22.047 L 99.225 22.028 L 99.273 22.019 L 99.371 21.999 L 99.428 21.988 L 99.509 21.971 L 99.567 21.959 L 99.714 21.929 L 99.811 21.908 L 99.842 21.901 L 99.94 21.879 L 99.94 21.878 L 99.998 21.866 L 100.088 21.846 L 100.135 21.835 L 100.233 21.813 L 100.283 21.801 L 100.38 21.778 L 100.42 21.769 L 100.711 21.697 L 100.75 21.687 L 100.944 21.637 L 100.984 21.626 L 101.081 21.6 L 101.091 21.597 L 101.177 21.574 L 101.274 21.548 L 101.323 21.535 L 101.419 21.508 L 101.458 21.496 L 101.65 21.44 L 101.689 21.429 L 101.881 21.371 L 101.932 21.355 L 102.16 21.283 L 102.255 21.252 L 102.293 21.239 L 102.483 21.175 L 102.534 21.158 L 102.628 21.125 L 102.652 21.116 L 102.747 21.082 L 102.76 21.078 L 102.854 21.044 L 102.905 21.025 L 102.998 20.99 L 103.021 20.981 L 103.115 20.945 L 103.166 20.925 L 103.259 20.888 L 103.273 20.883 L 103.365 20.846 L 103.422 20.822 L 103.515 20.783 L 103.53 20.777 L 103.622 20.738 L 103.709 20.7 L 103.891 20.618 L 103.96 20.586 L 104.051 20.543 L 104.102 20.519 L 104.192 20.475 L 104.242 20.449 L 104.331 20.404 L 104.382 20.378 L 104.47 20.332 L 104.568 20.279 L 104.656 20.23 L 104.674 20.22 L 104.761 20.171 L 104.873 20.106 L 104.959 20.054 L 105.028 20.012 L 105.112 19.959 L 105.191 19.907 L 105.274 19.852 L 105.38 19.78 L 105.462 19.722 L 105.583 19.633 L 105.663 19.572 L 105.777 19.482 L 105.854 19.419 L 105.969 19.321 L 106.044 19.255 L 106.24 19.071 L 106.311 19 L 106.455 18.849 L 106.522 18.775 L 106.697 18.568 L 106.759 18.49 L 107.037 18.098 L 107.09 18.013 L 107.426 17.259 L 107.731 18.2 L 108.349 19.107 L 108.415 19.181 L 109.232 19.889 L 109.315 19.944 L 109.708 20.175 L 109.797 20.221 L 110.123 20.373 L 110.215 20.411 L 110.684 20.573 L 110.78 20.6 L 110.918 20.636 L 111.016 20.66 L 111.217 20.704 L 111.315 20.723 L 111.438 20.745 L 111.536 20.761 L 111.625 20.774 L 111.724 20.788 L 111.812 20.8 L 111.912 20.812 L 112.032 20.825 L 112.131 20.834 L 112.177 20.838 L 112.277 20.846 L 112.36 20.851 L 112.46 20.857 L 112.544 20.862 L 112.644 20.866 L 112.729 20.868 L 112.829 20.87 L 112.871 20.871 L 112.971 20.872 L 113.055 20.872 L 113.155 20.871 L 113.197 20.87 L 113.297 20.868 L 113.382 20.866 L 113.482 20.862 L 113.568 20.857 L 113.667 20.851 L 113.706 20.849 L 113.664 21.371 L 113.616 21.908 L 113.565 22.423 L 113.506 22.974 L 113.447 23.498 L 113.386 23.95 L 113.307 24.443 L 113.224 24.902 L 113.121 25.394 L 113.019 25.833 L 112.894 26.318 L 112.776 26.729 L 112.621 27.229 L 112.482 27.641 L 112.316 28.094 L 112.137 28.552 L 111.971 28.943 L 111.759 29.412 L 111.562 29.818 L 111.359 30.212 L 111.114 30.66 L 110.887 31.051 L 110.647 31.442 L 110.372 31.865 L 110.114 32.242 L 109.847 32.611 L 109.546 33.008 L 109.25 33.377 L 108.964 33.717 L 108.631 34.095 L 108.3 34.452 L 107.988 34.775 L 107.639 35.119 L 107.308 35.429 L 106.922 35.776 L 106.593 36.058 L 106.179 36.398 L 105.802 36.693 L 105.424 36.977 L 104.979 37.299 L 104.95 37.32 L 104.486 37.662 L 104.461 37.681 L 104 38.026 L 103.971 38.048 L 103.513 38.397 L 103.476 38.425 L 103.022 38.779 L 102.98 38.812 L 102.53 39.172 L 102.478 39.214 L 102.034 39.581 L 101.974 39.632 L 101.537 40.007 L 101.479 40.058 L 101.049 40.441 L 100.961 40.521 L 100.542 40.916 L 100.456 40.999 L 100.048 41.406 L 99.944 41.514 L 99.551 41.935 L 99.434 42.066 L 99.059 42.503 L 98.933 42.657 L 98.579 43.111 L 98.434 43.309 L 98.107 43.783 L 97.964 44.005 L 97.667 44.499 L 97.519 44.765 L 97.259 45.278 L 97.129 45.56 L 96.907 46.092 L 96.791 46.405 L 96.612 46.952 L 96.526 47.253 L 96.388 47.812 L 96.326 48.105 L 96.228 48.673 L 96.191 48.943 L 96.13 49.515 L 96.111 49.75 L 96.082 50.326 L 96.077 50.538 L 96.077 51.114 L 96.08 51.275 L 96.102 51.85 L 96.11 51.997 L 96.152 52.571 L 96.162 52.687 L 96.22 53.261 L 96.232 53.364 L 96.304 53.935 L 96.308 53.964 L 96.384 54.535 L 96.389 54.572 L 96.47 55.142 L 96.474 55.171 L 96.559 55.741 L 96.565 55.778 L 96.655 56.347 L 96.661 56.383 L 96.756 56.951 L 96.763 56.995 L 96.864 57.562 L 96.87 57.592 L 96.975 58.158 L 96.981 58.193 L 97.091 58.759 L 97.099 58.797 L 97.214 59.361 L 97.223 59.405 L 97.344 59.968 L 97.351 59.997 L 97.476 60.559 L 97.487 60.61 L 97.619 61.171 L 97.626 61.2 L 97.762 61.76 L 97.775 61.812 L 97.918 62.37 L 97.927 62.406 L 98.075 62.963 L 98.086 63 L 98.239 63.555 L 98.253 63.607 L 98.413 64.16 L 98.426 64.202 L 98.592 64.754 L 98.606 64.8 L 98.778 65.349 L 98.793 65.398 L 98.972 65.946 L 98.988 65.992 L 99.173 66.537 L 99.19 66.587 L 99.382 67.13 L 99.4 67.18 L 99.599 67.721 L 99.621 67.78 L 99.828 68.318 L 99.847 68.366 L 100.06 68.9 L 100.085 68.962 L 100.307 69.494 L 100.333 69.554 L 100.563 70.082 L 100.588 70.139 L 100.826 70.664 L 100.855 70.726 L 101.101 71.246 L 101.135 71.317 L 101.391 71.833 L 101.428 71.906 L 101.694 72.417 L 101.73 72.483 L 102.005 72.989 L 102.049 73.069 L 102.335 73.569 L 102.382 73.648 L 102.679 74.142 L 102.734 74.232 L 103.043 74.718 L 103.101 74.806 L 103.422 75.284 L 103.488 75.38 L 103.822 75.849 L 103.894 75.947 L 104.242 76.407 L 104.328 76.516 L 104.69 76.963 L 104.784 77.075 L 105.162 77.51 L 105.269 77.629 L 105.663 78.049 L 105.79 78.179 L 106.202 78.582 L 106.3 78.675 L 106.724 79.064 L 107.14 79.447 L 107.552 79.827 L 108.388 80.604 L 108.809 80.997 L 109.214 81.378 L 109.625 81.766 L 110.043 82.162 L 110.433 82.535 L 110.848 82.935 L 110.849 82.934 L 111.244 83.318 L 111.641 83.705 L 112.032 84.091 L 112.44 84.498 L 112.817 84.876 L 113.221 85.287 L 113.578 85.657 L 113.958 86.055 L 114.325 86.444 L 114.716 86.867 L 115.075 87.263 L 115.402 87.632 L 115.759 88.042 L 116.09 88.432 L 116.412 88.823 L 116.773 89.272 L 117.04 89.616 L 117.369 90.055 L 117.666 90.465 L 117.67 90.47 L 117.679 90.483 L 117.916 90.824 L 118.211 91.267 L 118.467 91.669 L 118.72 92.085 L 118.984 92.544 L 119.195 92.929 L 119.403 93.332 L 119.621 93.777 L 119.816 94.201 L 120.035 94.706 L 120.195 95.097 L 120.38 95.58 L 120.547 96.041 L 120.702 96.491 L 120.855 96.963 L 121.023 97.514 L 121.169 98.016 L 121.294 98.468 L 121.429 98.98 L 121.561 99.503 L 121.697 100.063 L 121.813 100.557 L 122.06 101.652 L 122.175 102.178 L 122.284 102.699 L 122.389 103.227 L 122.496 103.793 L 122.586 104.286 L 122.678 104.824 L 122.771 105.393 L 122.772 105.393 L 122.848 105.89 L 122.927 106.431 L 123.002 106.971 L 123.072 107.505 L 123.134 108.012 L 122.81 107.599 L 121.864 106.715 L 120.652 106.147 L 120.107 105.991 L 118.822 105.83 L 117.065 106.272 L 116.564 106.522 L 115.508 107.271 L 115.098 107.807 L 115.085 107.694 L 115.065 107.541 L 114.98 106.971 L 114.958 106.839 L 114.855 106.272 L 114.832 106.154 L 114.713 105.591 L 114.688 105.482 L 114.554 104.922 L 114.533 104.836 L 114.387 104.278 L 114.36 104.18 L 114.201 103.627 L 114.175 103.54 L 114.004 102.99 L 113.975 102.902 L 113.792 102.356 L 113.757 102.256 L 113.56 101.714 L 113.523 101.616 L 113.313 101.08 L 113.262 100.955 L 113.035 100.426 L 112.973 100.289 L 112.727 99.768 L 112.632 99.578 L 112.36 99.07 L 112.195 98.789 L 111.885 98.304 L 111.461 97.748 L 111.076 97.322 L 110.071 96.506 L 108.494 95.968 L 107.973 95.9 L 106.678 95.932 L 105.455 96.355 L 104.417 97.129 L 103.663 98.182 L 103.359 98.975 L 103.213 99.512 L 103.068 100.772 L 103.089 101.348 L 103.106 101.604 L 103.162 102.177 L 103.178 102.316 L 103.253 102.887 L 103.264 102.967 L 103.35 103.537 L 103.36 103.596 L 103.454 104.164 L 103.464 104.222 L 103.566 104.789 L 103.572 104.826 L 103.679 105.392 L 103.692 105.458 L 103.808 106.022 L 103.821 106.081 L 103.937 106.605 L 104.049 107.134 L 104.157 107.667 L 104.156 107.667 L 104.266 108.233 L 104.358 108.727 L 104.453 109.265 L 104.543 109.796 L 104.628 110.328 L 104.71 110.869 L 104.788 111.411 L 104.862 111.95 L 104.931 112.486 L 104.997 113.029 L 105.058 113.564 L 105.115 114.108 L 105.168 114.651 L 105.22 115.225 L 105.263 115.734 L 105.305 116.292 L 105.341 116.824 L 105.374 117.363 L 105.402 117.908 L 105.428 118.483 L 105.447 118.993 L 105.463 119.533 L 105.474 120.071 L 105.481 120.618 L 105.484 121.15 L 105.481 121.697 L 105.474 122.273 L 105.464 122.768 L 105.447 123.307 L 105.426 123.839 L 105.399 124.378 L 105.368 124.909 L 105.331 125.439 L 105.285 126.012 L 105.241 126.492 L 105.184 127.05 L 105.127 127.534 L 105.059 128.069 L 104.991 128.551 L 104.91 129.062 L 104.819 129.588 L 104.722 130.105 L 104.627 130.564 L 104.516 131.058 L 104.389 131.589 L 104.254 132.134 L 104.12 132.67 L 103.977 133.228 L 103.846 133.727 L 103.845 133.727 L 103.694 134.283 L 103.557 134.77 L 103.397 135.323 L 103.255 135.795 L 103.1 136.295 L 102.922 136.843 L 102.774 137.278 L 102.581 137.821 L 102.415 138.268 L 102.249 138.69 L 102.061 139.141 L 101.843 139.636 L 101.664 140.017 L 101.452 140.441 L 101.228 140.858 L 101.007 141.239 L 100.784 141.595 L 100.55 141.942 L 100.298 142.286 L 100.05 142.599 L 99.782 142.909 L 99.521 143.187 L 99.234 143.468 L 98.923 143.748 L 98.616 144.003 L 98.274 144.266 L 97.928 144.512 L 97.577 144.745 L 97.155 145.007 L 96.787 145.22 L 96.362 145.454 L 95.92 145.682 L 95.427 145.93 L 95.4 145.943 L 94.887 146.205 L 94.844 146.228 L 94.334 146.496 L 94.267 146.532 L 93.762 146.809 L 93.646 146.875 L 93.15 147.168 L 92.988 147.269 L 92.506 147.584 L 92.257 147.76 L 91.799 148.109 L 91.432 148.423 L 91.017 148.822 L 90.566 149.331 L 90.221 149.791 L 89.787 150.509 L 89.54 151.028 L 89.259 151.807 L 89.118 152.365 L 89.007 153.024 L 88.956 153.597 L 88.94 154.066 L 88.953 154.642 L 88.971 154.943 L 89.025 155.516 L 89.05 155.728 L 89.133 156.298 L 89.156 156.436 L 89.258 157.003 L 89.274 157.091 L 89.388 157.656 L 89.404 157.73 L 89.528 158.292 L 89.536 158.329 L 89.646 158.809 L 89.566 158.672 L 89.382 158.323 L 89.205 157.951 L 89.029 157.547 L 88.849 157.1 L 88.697 156.691 L 88.526 156.197 L 88.373 155.717 L 88.244 155.285 L 88.112 154.805 L 87.98 154.288 L 87.878 153.858 L 87.766 153.343 L 87.661 152.819 L 87.58 152.365 L 87.493 151.831 L 87.431 151.395 L 87.366 150.876 L 87.318 150.419 L 87.271 149.864 L 87.244 149.44 L 87.223 148.904 L 87.216 148.497 L 87.22 148.038 L 87.239 147.625 L 87.268 147.313 L 87.306 147.087 L 87.344 146.94 L 87.381 146.844 L 87.437 146.737 L 87.527 146.6 L 87.676 146.413 L 87.911 146.156 L 88.168 145.902 L 88.498 145.602 L 88.853 145.295 L 89.204 145.007 L 89.655 144.648 L 90.035 144.352 L 90.494 144.003 L 90.92 143.682 L 90.92 143.683 L 91.382 143.339 L 91.594 143.17 L 92.033 142.797 L 92.313 142.536 L 92.716 142.125 L 92.956 141.859 L 93.323 141.415 L 93.532 141.14 L 93.861 140.668 L 94.027 140.41 L 94.321 139.915 L 94.451 139.68 L 94.713 139.167 L 94.821 138.939 L 95.052 138.411 L 95.131 138.216 L 95.335 137.678 L 95.401 137.492 L 95.58 136.944 L 95.628 136.785 L 95.785 136.231 L 95.824 136.085 L 95.961 135.526 L 95.991 135.392 L 96.11 134.828 L 96.133 134.712 L 96.236 134.145 L 96.254 134.035 L 96.342 133.466 L 96.356 133.371 L 96.431 132.8 L 96.442 132.713 L 96.505 132.141 L 96.513 132.059 L 96.565 131.485 L 96.571 131.412 L 96.613 130.837 L 96.617 130.764 L 96.649 130.189 L 96.652 130.138 L 96.677 129.563 L 96.679 129.504 L 96.696 128.928 L 96.697 128.87 L 96.706 128.294 L 96.707 128.25 L 96.71 127.674 L 96.71 127.63 L 96.707 127.054 L 96.706 127.01 L 96.697 126.434 L 96.697 126.397 L 96.683 125.822 L 96.682 125.786 L 96.663 125.21 L 96.661 125.173 L 96.637 124.597 L 96.636 124.568 L 96.608 123.993 L 96.606 123.964 L 96.574 123.389 L 96.573 123.36 L 96.537 122.785 L 96.535 122.763 L 96.496 122.188 L 96.494 122.158 L 96.451 121.584 L 96.45 121.562 L 96.404 120.988 L 96.401 120.959 L 96.351 120.385 L 96.35 120.371 L 96.298 119.797 L 96.296 119.781 L 96.242 119.208 L 96.24 119.179 L 96.182 118.606 L 96.18 118.592 L 96.12 118.019 L 96.119 118.004 L 96.057 117.431 L 96.055 117.416 L 95.991 116.844 L 95.931 116.286 L 95.93 116.278 L 95.867 115.706 L 95.806 115.141 L 95.804 115.126 L 95.74 114.554 L 95.676 113.981 L 95.675 113.974 L 95.61 113.402 L 95.608 113.388 L 95.541 112.816 L 95.541 112.808 L 95.473 112.236 L 95.471 112.222 L 95.401 111.65 L 95.398 111.627 L 95.325 111.056 L 95.321 111.028 L 95.244 110.457 L 95.239 110.42 L 95.157 109.85 L 95.148 109.791 L 95.058 109.222 L 95.043 109.135 L 94.941 108.568 L 94.909 108.406 L 94.785 107.844 L 94.675 107.441 L 94.496 106.894 L 93.909 105.74 L 92.621 104.568 L 92.203 104.323 L 90.999 103.847 L 89.707 103.76 L 88.449 104.068 L 87.345 104.744 L 86.699 105.429 L 86.356 105.886 L 85.959 106.529 L 85.701 107.044 L 85.587 107.291 L 85.363 107.821 L 85.225 108.195 L 85.052 108.744 L 85.014 108.87 L 84.858 109.425 L 84.833 109.519 L 84.69 110.077 L 84.667 110.172 L 84.537 110.733 L 84.521 110.806 L 84.401 111.369 L 84.385 111.444 L 84.275 112.01 L 84.263 112.075 L 84.162 112.642 L 84.148 112.729 L 84.059 113.298 L 84.048 113.371 L 83.969 113.941 L 83.957 114.038 L 83.891 114.611 L 83.88 114.712 L 83.828 115.285 L 83.816 115.461 L 83.788 116.036 L 83.786 116.095 L 83.77 116.568 L 83.738 117.003 L 83.686 117.487 L 83.628 117.92 L 83.553 118.39 L 83.47 118.851 L 83.363 119.393 L 83.257 119.887 L 83.148 120.356 L 83.011 120.915 L 82.892 121.379 L 82.754 121.892 L 82.753 121.892 L 82.597 122.447 L 82.459 122.919 L 82.302 123.438 L 82.143 123.947 L 81.976 124.466 L 81.795 125.013 L 81.631 125.498 L 81.452 126.013 L 81.269 126.526 L 81.268 126.526 L 81.071 127.067 L 81.072 127.067 L 80.892 127.55 L 80.891 127.55 L 80.686 128.089 L 80.687 128.089 L 80.5 128.572 L 80.295 129.088 L 80.093 129.59 L 79.874 130.122 L 79.673 130.603 L 79.455 131.113 L 79.24 131.609 L 79.007 132.135 L 78.793 132.611 L 78.553 133.134 L 78.336 133.599 L 78.099 134.096 L 77.865 134.578 L 77.619 135.074 L 77.363 135.584 L 77.132 136.031 L 76.865 136.538 L 76.632 136.972 L 76.372 137.442 L 76.089 137.943 L 75.851 138.354 L 75.573 138.82 L 75.316 139.239 L 75.036 139.68 L 74.768 140.088 L 74.46 140.536 L 74.207 140.888 L 73.914 141.274 L 73.66 141.587 L 73.384 141.904 L 73.171 142.124 L 72.926 142.345 L 72.575 142.628 L 72.427 142.753 L 71.995 143.135 L 71.717 143.405 L 71.323 143.824 L 70.978 144.241 L 70.641 144.707 L 70.322 145.223 L 70.055 145.733 L 69.841 146.211 L 69.639 146.751 L 69.518 147.128 L 69.368 147.683 L 69.305 147.949 L 69.191 148.514 L 69.158 148.704 L 69.07 149.273 L 69.051 149.405 L 68.981 149.977 L 68.971 150.072 L 68.914 150.645 L 68.907 150.718 L 68.86 151.292 L 68.856 151.343 L 68.816 151.918 L 68.814 151.955 L 68.779 152.53 L 68.777 152.566 L 68.747 153.141 L 68.746 153.163 L 68.719 153.738 L 68.718 153.753 L 68.693 154.329 L 68.693 154.336 L 68.669 154.911 L 68.668 154.933 L 68.647 155.509 L 68.626 156.084 L 68.625 156.099 L 68.587 157.251 L 68.587 157.258 L 68.569 157.833 L 68.551 158.409 L 68.551 158.417 L 68.534 158.985 L 68.516 159.561 L 68.498 160.136 L 68.498 160.144 L 68.481 160.712 L 68.463 161.288 L 68.463 161.296 L 68.446 161.864 L 68.428 162.439 L 68.41 163.015 L 68.41 163.023 L 68.393 163.591 L 68.379 164.049 L 68.069 164.143 L 67.683 164.244 L 67.329 164.322 L 67.265 164.087 L 67.172 163.677 L 67.088 163.239 L 67.014 162.787 L 66.941 162.275 L 66.881 161.794 L 66.82 161.241 L 66.769 160.719 L 66.724 160.218 L 66.725 160.218 L 66.679 159.644 L 66.639 159.099 L 66.604 158.561 L 66.57 158.001 L 66.539 157.448 L 66.51 156.887 L 66.484 156.341 L 66.485 156.341 L 66.459 155.766 L 66.458 155.766 L 66.435 155.213 L 66.436 155.213 L 66.413 154.637 L 66.412 154.637 L 66.392 154.075 L 66.392 154.068 L 66.37 153.493 L 66.349 152.924 L 66.328 152.349 L 66.308 151.788 L 66.289 151.212 L 66.271 150.644 L 66.254 150.09 L 66.255 150.09 L 66.24 149.514 L 66.228 148.96 L 66.219 148.435 L 66.22 148.435 L 66.215 147.911 L 66.217 147.335 L 66.225 146.85 L 66.241 146.397 L 66.271 145.92 L 66.307 145.562 L 66.359 145.223 L 66.402 145.04 L 66.443 144.916 L 66.475 144.848 L 66.544 144.738 L 66.708 144.522 L 66.952 144.237 L 67.288 143.868 L 67.678 143.444 L 67.689 143.433 L 68.077 143.008 L 68.114 142.966 L 68.497 142.535 L 68.716 142.267 L 69.061 141.808 L 69.671 140.666 L 69.905 139.393 L 69.742 138.108 L 69.197 136.934 L 68.321 135.98 L 67.197 135.337 L 65.931 135.066 L 64.714 135.174 L 64.269 135.28 L 63.074 135.768 L 62.58 136.065 L 62.49 136.12 L 62.004 136.429 L 61.973 136.449 L 61.49 136.762 L 61.471 136.774 L 60.507 137.406 L 60.499 137.412 L 60.037 137.716 L 59.609 137.995 L 59.174 138.266 L 58.779 138.497 L 58.398 138.707 L 57.985 138.918 L 57.606 139.098 L 57.19 139.277 L 56.829 139.417 L 56.427 139.555 L 56.078 139.658 L 55.707 139.749 L 55.349 139.819 L 55.028 139.863 L 54.683 139.89 L 54.374 139.895 L 54.021 139.882 L 53.654 139.848 L 53.241 139.792 L 52.838 139.722 L 52.325 139.619 L 51.887 139.52 L 51.386 139.396 L 50.935 139.277 L 50.38 139.121 L 49.939 138.991 L 49.389 138.82 L 48.878 138.656 L 48.402 138.496 L 47.907 138.325 L 47.42 138.15 L 46.911 137.962 L 46.376 137.758 L 46.376 137.759 L 45.916 137.578 L 45.382 137.363 L 44.912 137.169 L 44.435 136.965 L 43.93 136.744 L 43.427 136.517 L 42.99 136.314 L 42.513 136.085 L 42.009 135.835 L 41.602 135.625 L 41.156 135.385 L 40.729 135.144 L 40.321 134.901 L 39.969 134.676 L 39.671 134.468 L 39.552 134.375 L 39.453 134.132 L 39.363 133.858 L 39.288 133.565 L 39.236 133.287 L 39.203 132.999 L 39.19 132.713 L 39.197 132.427 L 39.22 132.184 L 39.264 131.927 L 39.322 131.701 L 39.388 131.509 L 39.466 131.337 L 39.539 131.209 L 39.61 131.11 L 39.671 131.044 L 39.723 130.998 L 39.927 130.859 L 40.227 130.675 L 40.582 130.477 L 40.861 130.341 L 41.109 130.239 L 41.291 130.181 L 41.417 130.154 L 41.518 130.145 L 41.608 130.146 L 41.73 130.163 L 41.925 130.209 L 42.166 130.287 L 42.442 130.399 L 42.8 130.567 L 43.135 130.742 L 43.549 130.978 L 43.934 131.211 L 44.353 131.477 L 44.768 131.751 L 45.245 132.074 L 45.303 132.112 L 45.785 132.427 L 45.879 132.487 L 46.369 132.789 L 46.474 132.851 L 46.973 133.139 L 47.11 133.215 L 47.619 133.484 L 47.789 133.569 L 48.31 133.815 L 48.508 133.903 L 49.041 134.122 L 49.288 134.214 L 49.833 134.399 L 50.119 134.485 L 50.676 134.631 L 50.991 134.701 L 51.558 134.804 L 51.895 134.851 L 52.468 134.908 L 52.804 134.928 L 53.379 134.939 L 53.694 134.933 L 54.269 134.901 L 54.562 134.875 L 55.134 134.803 L 55.39 134.763 L 55.956 134.656 L 56.154 134.613 L 56.714 134.479 L 56.896 134.431 L 57.45 134.272 L 57.585 134.231 L 58.132 134.054 L 58.252 134.013 L 58.795 133.819 L 58.885 133.786 L 59.423 133.58 L 59.496 133.551 L 60.03 133.335 L 60.127 133.295 L 60.655 133.066 L 60.703 133.045 L 61.229 132.809 L 61.282 132.784 L 61.804 132.541 L 61.878 132.506 L 62.395 132.253 L 62.541 132.178 L 63.048 131.905 L 63.333 131.737 L 63.817 131.425 L 64.785 130.564 L 65.37 129.629 L 65.575 129.179 L 65.593 129.116 L 66.113 128.478 L 66.165 128.392 L 66.205 128.326 L 66.217 128.307 L 66.321 128.135 L 66.361 128.069 L 66.424 127.964 L 66.476 127.878 L 66.516 127.812 L 66.528 127.793 L 66.58 127.707 L 66.62 127.641 L 66.683 127.536 L 66.735 127.45 L 66.775 127.384 L 66.787 127.365 L 66.891 127.193 L 66.931 127.127 L 66.961 127.077 L 66.982 127.041 L 66.985 127.037 L 67.003 127.007 L 67.034 126.956 L 67.046 126.937 L 67.15 126.765 L 67.19 126.699 L 67.202 126.68 L 67.254 126.594 L 67.272 126.563 L 67.293 126.527 L 67.345 126.442 L 67.357 126.423 L 67.409 126.337 L 67.449 126.271 L 67.461 126.252 L 67.513 126.166 L 67.531 126.135 L 67.552 126.099 L 67.604 126.014 L 67.616 125.995 L 67.72 125.823 L 67.76 125.757 L 67.772 125.738 L 67.824 125.652 L 67.831 125.64 L 67.875 125.567 L 67.979 125.395 L 68.019 125.329 L 68.031 125.31 L 68.135 125.138 L 68.142 125.126 L 68.186 125.053 L 68.238 124.967 L 68.278 124.901 L 68.29 124.882 L 68.394 124.71 L 68.431 124.648 L 68.481 124.562 L 68.509 124.512 L 68.558 124.425 L 68.568 124.407 L 68.617 124.319 L 68.625 124.305 L 68.673 124.218 L 68.683 124.2 L 68.779 124.024 L 68.806 123.974 L 68.844 123.902 L 68.891 123.814 L 68.917 123.764 L 69.055 123.497 L 69.072 123.463 L 69.162 123.285 L 69.188 123.235 L 69.32 122.965 L 69.336 122.931 L 69.379 122.841 L 69.387 122.824 L 69.43 122.733 L 69.446 122.699 L 69.53 122.517 L 69.546 122.482 L 69.628 122.3 L 69.65 122.249 L 69.683 122.173 L 69.684 122.173 L 69.724 122.082 L 69.73 122.066 L 69.77 121.974 L 69.792 121.923 L 69.831 121.83 L 69.84 121.81 L 69.878 121.718 L 69.898 121.667 L 69.921 121.61 L 69.959 121.517 L 69.988 121.444 L 70.024 121.351 L 70.029 121.337 L 70.065 121.243 L 70.074 121.22 L 70.109 121.127 L 70.128 121.076 L 70.162 120.982 L 70.166 120.969 L 70.2 120.874 L 70.209 120.85 L 70.242 120.756 L 70.259 120.705 L 70.291 120.61 L 70.304 120.572 L 70.335 120.477 L 70.363 120.388 L 70.388 120.304 L 70.417 120.209 L 70.436 120.147 L 70.464 120.05 L 70.482 119.983 L 70.508 119.887 L 70.522 119.837 L 70.547 119.74 L 70.568 119.651 L 70.591 119.553 L 70.618 119.433 L 70.638 119.335 L 70.646 119.294 L 70.665 119.196 L 70.694 119.026 L 70.709 118.927 L 70.721 118.844 L 70.734 118.745 L 70.76 118.49 L 70.767 118.39 L 70.776 118.18 L 70.778 118.08 L 70.771 117.743 L 70.765 117.643 L 70.696 117.094 L 70.677 116.996 L 70.435 116.188 L 70.397 116.096 L 69.995 115.348 L 69.939 115.265 L 69.761 115.02 L 69.699 114.941 L 69.586 114.804 L 69.521 114.728 L 69.34 114.529 L 69.27 114.457 L 69.121 114.311 L 69.048 114.243 L 68.844 114.065 L 68.767 114.002 L 68.606 113.877 L 68.525 113.817 L 68.345 113.691 L 68.262 113.636 L 68.065 113.513 L 67.978 113.462 L 67.799 113.363 L 67.711 113.317 L 67.559 113.241 L 67.468 113.198 L 67.277 113.113 L 67.185 113.075 L 66.996 113.003 L 66.901 112.969 L 66.711 112.906 L 66.616 112.877 L 66.477 112.837 L 66.38 112.811 L 66.171 112.761 L 66.073 112.74 L 65.952 112.715 L 65.854 112.697 L 65.682 112.67 L 65.583 112.656 L 65.413 112.635 L 65.313 112.625 L 65.146 112.612 L 65.046 112.606 L 64.919 112.6 L 64.819 112.597 L 64.651 112.595 L 64.551 112.596 L 64.424 112.599 L 64.324 112.603 L 64.111 112.617 L 64.012 112.626 L 63.933 112.634 L 63.833 112.645 L 63.662 112.668 L 63.563 112.683 L 63.393 112.712 L 63.295 112.731 L 63.174 112.756 L 63.076 112.778 L 62.897 112.823 L 62.801 112.849 L 62.684 112.882 L 62.588 112.911 L 62.461 112.952 L 62.366 112.984 L 62.153 113.062 L 62.06 113.099 L 61.974 113.134 L 61.882 113.173 L 61.709 113.251 L 61.619 113.294 L 61.468 113.37 L 61.379 113.417 L 61.229 113.5 L 61.143 113.55 L 61.001 113.636 L 60.916 113.69 L 60.771 113.787 L 60.689 113.844 L 60.518 113.969 L 60.439 114.03 L 60.296 114.145 L 60.219 114.21 L 60.065 114.347 L 59.992 114.415 L 59.864 114.54 L 59.794 114.611 L 59.652 114.762 L 59.585 114.837 L 59.429 115.023 L 59.367 115.101 L 59.259 115.242 L 59.2 115.323 L 59.062 115.525 L 59.008 115.609 L 58.899 115.788 L 58.849 115.875 L 58.733 116.091 L 58.688 116.181 L 58.599 116.369 L 58.559 116.46 L 58.468 116.686 L 58.433 116.78 L 58.376 116.943 L 58.345 117.038 L 58.291 117.215 L 58.264 117.312 L 58.224 117.47 L 58.201 117.567 L 58.189 117.617 L 58.167 117.715 L 58.142 117.836 L 58.123 117.934 L 58.115 117.974 L 58.097 118.072 L 58.082 118.161 L 58.066 118.26 L 58.06 118.301 L 58.045 118.4 L 58.033 118.483 L 58.02 118.582 L 58.019 118.587 L 58.006 118.687 L 57.997 118.765 L 57.986 118.864 L 57.981 118.91 L 57.971 119.006 L 57.961 119.105 L 57.953 119.193 L 57.937 119.393 L 57.934 119.435 L 57.927 119.532 L 57.92 119.631 L 57.915 119.717 L 57.91 119.817 L 57.907 119.875 L 57.902 119.959 L 57.894 120.159 L 57.893 120.202 L 57.887 120.402 L 57.886 120.444 L 57.884 120.544 L 57.883 120.586 L 57.882 120.687 L 57.88 120.887 L 57.88 121.071 L 57.883 121.371 L 57.884 121.413 L 57.886 121.513 L 57.887 121.555 L 57.896 121.855 L 57.897 121.898 L 57.901 121.998 L 57.903 122.04 L 57.918 122.34 L 57.921 122.382 L 57.927 122.482 L 57.929 122.523 L 57.95 122.823 L 57.954 122.869 L 57.962 122.968 L 57.965 123.006 L 57.983 123.206 L 57.983 123.21 L 57.715 123.219 L 57.473 123.213 L 57.428 123.024 L 57.363 122.662 L 57.313 122.271 L 57.274 121.849 L 57.242 121.337 L 57.226 120.874 L 57.218 120.402 L 57.216 119.847 L 57.215 119.286 L 57.215 118.127 L 57.212 116.399 L 57.212 116.391 L 57.204 114.087 L 57.204 114.08 L 57.195 112.352 L 57.195 112.345 L 57.183 110.617 L 57.183 110.609 L 57.178 110.033 L 57.174 109.465 L 57.174 109.45 L 57.168 108.874 L 57.163 108.305 L 57.163 108.291 L 57.156 107.715 L 57.15 107.146 L 57.15 107.139 L 57.143 106.563 L 57.143 106.555 L 57.119 104.827 L 57.116 104.325 L 57.118 103.756 L 57.121 103.187 L 57.125 102.619 L 57.13 102.057 L 57.137 101.482 L 57.136 101.482 L 57.156 100.374 L 57.169 99.813 L 57.183 99.259 L 57.201 98.683 L 57.219 98.144 L 57.22 98.144 L 57.242 97.59 L 57.268 97.015 L 57.295 96.491 L 57.326 95.945 L 57.361 95.4 L 57.399 94.862 L 57.4 94.862 L 57.446 94.288 L 57.445 94.288 L 57.489 93.794 L 57.542 93.266 L 57.599 92.744 L 57.669 92.172 L 57.731 91.711 L 57.816 91.141 L 57.888 90.705 L 57.991 90.138 L 58.083 89.685 L 58.184 89.231 L 58.296 88.773 L 58.439 88.247 L 58.553 87.869 L 58.704 87.406 L 58.852 86.997 L 59.017 86.584 L 59.192 86.181 L 59.377 85.793 L 59.577 85.408 L 59.782 85.045 L 60.011 84.668 L 60.256 84.296 L 60.516 83.927 L 60.776 83.582 L 61.069 83.217 L 61.368 82.861 L 61.668 82.522 L 62.039 82.122 L 62.412 81.725 L 62.448 81.687 L 62.837 81.263 L 62.854 81.244 L 63.241 80.817 L 63.255 80.802 L 63.64 80.373 L 63.65 80.361 L 64.033 79.931 L 64.047 79.916 L 64.428 79.484 L 64.438 79.472 L 64.817 79.039 L 64.824 79.032 L 65.203 78.597 L 65.21 78.588 L 65.587 78.153 L 65.594 78.145 L 65.97 77.709 L 65.976 77.702 L 66.351 77.265 L 66.355 77.261 L 66.73 76.823 L 66.737 76.814 L 67.11 76.376 L 67.116 76.369 L 67.489 75.929 L 67.496 75.921 L 68.238 75.041 L 68.248 75.029 L 68.988 74.145 L 68.995 74.137 L 69.363 73.695 L 69.369 73.687 L 69.737 73.243 L 69.741 73.239 L 70.108 72.795 L 70.111 72.791 L 70.477 72.347 L 70.487 72.335 L 70.852 71.889 L 70.855 71.885 L 71.219 71.439 L 71.222 71.435 L 71.586 70.988 L 71.596 70.976 L 71.958 70.528 L 71.962 70.523 L 72.323 70.075 L 72.326 70.072 L 72.687 69.623 L 73.034 69.196 L 73.038 69.192 L 73.401 68.745 L 73.407 68.737 L 73.769 68.289 L 73.776 68.281 L 74.498 67.383 L 74.508 67.37 L 74.867 66.92 L 74.876 66.909 L 75.234 66.457 L 75.247 66.44 L 75.602 65.987 L 75.615 65.97 L 75.968 65.515 L 75.99 65.486 L 76.339 65.028 L 76.368 64.991 L 76.712 64.529 L 76.764 64.457 L 77.098 63.988 L 77.19 63.854 L 77.506 63.372 L 77.761 62.925 L 78.015 62.41 L 78.403 61.174 L 78.397 59.88 L 78.221 59.335 L 78.93 59.417 L 79.029 59.414 L 79.914 59.293 L 80.011 59.269 L 80.344 59.171 L 80.439 59.139 L 80.703 59.041 L 80.795 59.003 L 80.917 58.95 L 81.008 58.909 L 81.128 58.853 L 81.218 58.809 L 81.268 58.783 L 81.357 58.738 L 81.441 58.695 L 81.529 58.648 L 81.594 58.612 L 81.682 58.563 L 81.7 58.553 L 81.787 58.504 L 81.837 58.476 L 81.923 58.426 L 81.954 58.407 L 82.126 58.305 L 82.157 58.287 L 82.243 58.235 L 82.293 58.205 L 82.378 58.152 L 82.492 58.081 L 82.566 58.034 L 82.65 57.981 L 82.661 57.974 L 82.746 57.92 L 82.765 57.907 L 82.933 57.799 L 82.982 57.767 L 83.045 57.725 L 83.129 57.67 L 83.149 57.657 L 83.315 57.547 L 83.325 57.541 L 83.409 57.485 L 83.482 57.436 L 83.511 57.417 L 83.677 57.305 L 83.697 57.292 L 83.779 57.236 L 83.925 57.137 L 83.945 57.124 L 84.027 57.068 L 84.036 57.061 L 84.11 57.01 L 84.11 57.011 L 84.192 56.955 L 84.22 56.935 L 84.283 56.891 L 84.366 56.834 L 84.385 56.821 L 84.521 56.727 L 84.603 56.671 L 84.631 56.651 L 84.713 56.594 L 84.742 56.574 L 84.824 56.516 L 85.123 56.308 L 85.152 56.288 L 85.234 56.23 L 85.306 56.179 L 85.315 56.173 L 85.397 56.115 L 85.45 56.078 L 85.479 56.058 L 85.561 56 L 85.581 55.986 L 85.662 55.928 L 85.709 55.893 L 85.789 55.834 L 85.817 55.814 L 85.897 55.754 L 85.944 55.718 L 86.023 55.657 L 86.049 55.637 L 86.128 55.575 L 86.148 55.558 L 86.226 55.496 L 86.252 55.476 L 86.33 55.413 L 86.376 55.375 L 86.453 55.311 L 86.498 55.273 L 86.65 55.143 L 86.695 55.104 L 86.77 55.038 L 86.791 55.019 L 86.865 54.953 L 86.912 54.911 L 86.986 54.843 L 87.007 54.824 L 87.08 54.756 L 87.123 54.715 L 87.195 54.646 L 87.217 54.625 L 87.289 54.555 L 87.352 54.492 L 87.492 54.35 L 87.534 54.307 L 87.603 54.235 L 87.663 54.171 L 87.731 54.097 L 87.752 54.074 L 87.819 54 L 87.859 53.955 L 87.925 53.88 L 87.964 53.835 L 88.029 53.759 L 88.105 53.668 L 88.168 53.59 L 88.188 53.564 L 88.25 53.486 L 88.307 53.413 L 88.367 53.334 L 88.418 53.266 L 88.477 53.185 L 88.544 53.09 L 88.601 53.007 L 88.66 52.919 L 88.714 52.836 L 88.788 52.718 L 88.84 52.632 L 88.905 52.52 L 88.954 52.433 L 89.043 52.266 L 89.088 52.177 L 89.17 52.007 L 89.211 51.916 L 89.318 51.655 L 89.353 51.561 L 89.449 51.27 L 89.477 51.174 L 89.577 50.756 L 89.595 50.658 L 89.659 50.107 L 89.664 50.007 L 89.62 49.158 L 89.605 49.06 L 89.335 48.088 L 89.297 47.996 L 88.875 47.219 L 88.818 47.136 L 88.736 47.021 L 88.677 46.941 L 88.601 46.84 L 88.539 46.761 L 88.408 46.603 L 88.343 46.528 L 88.242 46.415 L 88.174 46.342 L 87.985 46.152 L 87.912 46.083 L 87.711 45.905 L 87.634 45.841 L 87.394 45.655 L 87.313 45.597 L 86.977 45.38 L 86.891 45.33 L 86.539 45.147 L 86.448 45.105 L 86.078 44.955 L 85.984 44.922 L 85.47 44.778 L 85.372 44.757 L 84.913 44.684 L 84.814 44.674 L 84.39 44.653 L 84.29 44.653 L 83.824 44.679 L 83.725 44.69 L 83.348 44.749 L 83.25 44.769 L 82.962 44.838 L 82.865 44.865 L 82.548 44.967 L 82.455 45.001 L 82.222 45.095 L 82.13 45.135 L 81.959 45.213 L 81.869 45.257 L 81.684 45.354 L 81.597 45.402 L 81.453 45.485 L 81.367 45.537 L 81.268 45.599 L 81.184 45.653 L 81.058 45.737 L 80.976 45.794 L 80.88 45.863 L 80.8 45.922 L 80.746 45.962 L 80.666 46.023 L 80.573 46.096 L 80.495 46.159 L 80.449 46.197 L 80.372 46.261 L 80.306 46.317 L 80.231 46.382 L 80.207 46.403 L 80.132 46.469 L 80.087 46.509 L 80.013 46.576 L 79.969 46.616 L 79.896 46.684 L 79.831 46.746 L 79.781 46.795 L 79.709 46.864 L 79.645 46.927 L 79.553 47.019 L 79.413 47.161 L 79.351 47.225 L 79.282 47.298 L 79.281 47.299 L 79.214 47.37 L 79.145 47.443 L 79.084 47.509 L 79.038 47.56 L 78.97 47.634 L 78.928 47.681 L 78.864 47.752 L 78.797 47.827 L 78.795 47.83 L 78.729 47.904 L 78.692 47.946 L 78.644 48.001 L 78.578 48.076 L 78.539 48.121 L 78.344 48.349 L 78.323 48.373 L 78.259 48.449 L 78.242 48.47 L 78.195 48.526 L 78.131 48.602 L 78.114 48.623 L 77.986 48.777 L 77.948 48.823 L 77.893 48.891 L 77.859 48.932 L 77.838 48.957 L 77.775 49.034 L 77.738 49.081 L 77.57 49.289 L 77.55 49.315 L 77.445 49.445 L 77.425 49.471 L 77.301 49.627 L 77.284 49.647 L 77.222 49.726 L 77.223 49.727 L 77.177 49.784 L 77.14 49.83 L 77.099 49.883 L 77.037 49.962 L 77.017 49.988 L 76.773 50.304 L 76.757 50.325 L 76.696 50.405 L 76.692 50.411 L 76.636 50.484 L 76.575 50.564 L 76.555 50.59 L 76.495 50.67 L 76.496 50.67 L 76.451 50.729 L 76.435 50.749 L 76.375 50.829 L 76.36 50.85 L 76.3 50.931 L 76.295 50.938 L 76.236 51.018 L 76.221 51.038 L 76.177 51.099 L 76.118 51.179 L 76.069 51.246 L 76.025 51.308 L 75.909 51.47 L 75.875 51.519 L 75.818 51.601 L 75.805 51.62 L 75.748 51.703 L 75.728 51.732 L 75.672 51.815 L 75.653 51.844 L 75.598 51.927 L 75.585 51.947 L 75.53 52.031 L 75.491 52.09 L 75.438 52.174 L 75.408 52.224 L 75.356 52.309 L 75.326 52.359 L 75.275 52.445 L 75.2 52.576 L 75.152 52.664 L 75.108 52.747 L 75.062 52.836 L 74.979 53.005 L 74.937 53.096 L 74.805 53.415 L 74.771 53.508 L 74.619 54.023 L 74.597 54.12 L 74.524 55.565 L 74.536 55.663 L 74.729 56.345 L 73.617 56.231 L 71.847 56.724 L 71.339 56.996 L 71.103 57.132 L 70.614 57.436 L 70.52 57.497 L 70.076 57.79 L 69.736 58.002 L 69.373 58.205 L 68.979 58.407 L 68.576 58.6 L 68.077 58.825 L 67.667 59.003 L 67.144 59.218 L 66.691 59.397 L 66.232 59.57 L 65.691 59.767 L 65.227 59.929 L 64.757 60.086 L 64.208 60.262 L 63.74 60.406 L 63.265 60.545 L 62.71 60.699 L 62.246 60.821 L 61.745 60.943 L 61.229 61.06 L 61.213 61.063 L 60.652 61.192 L 60.602 61.204 L 60.042 61.34 L 59.997 61.351 L 59.439 61.493 L 59.403 61.503 L 58.846 61.65 L 58.815 61.658 L 58.26 61.809 L 58.233 61.816 L 57.678 61.971 L 57.649 61.98 L 57.095 62.139 L 57.064 62.148 L 56.512 62.311 L 56.492 62.317 L 55.94 62.483 L 55.918 62.489 L 55.367 62.658 L 55.336 62.668 L 54.787 62.841 L 54.765 62.848 L 54.217 63.024 L 54.19 63.033 L 53.642 63.213 L 53.618 63.221 L 53.072 63.404 L 53.044 63.413 L 52.499 63.6 L 52.468 63.611 L 51.925 63.802 L 51.897 63.812 L 51.355 64.007 L 51.318 64.02 L 50.778 64.22 L 50.741 64.234 L 50.203 64.439 L 50.16 64.456 L 49.624 64.667 L 49.575 64.687 L 49.041 64.905 L 48.987 64.927 L 48.457 65.152 L 48.375 65.188 L 47.889 65.406 L 47.361 65.637 L 47.147 65.729 L 46.918 65.367 L 45.928 64.533 L 45.027 64.122 L 44.491 63.95 L 42.786 63.769 L 42.213 63.826 L 41.715 63.906 L 41.153 64.031 L 40.934 64.085 L 40.379 64.24 L 40.268 64.273 L 39.718 64.443 L 39.652 64.464 L 39.105 64.643 L 39.063 64.657 L 38.517 64.842 L 38.493 64.85 L 37.949 65.038 L 37.929 65.045 L 37.385 65.236 L 37.377 65.239 L 36.834 65.431 L 36.825 65.434 L 36.283 65.627 L 36.279 65.629 L 35.736 65.823 L 35.733 65.824 L 34.652 66.211 L 34.15 66.39 L 33.606 66.578 L 33.141 66.734 L 32.624 66.901 L 32.109 67.063 L 31.558 67.231 L 31.558 67.232 L 31.064 67.378 L 30.542 67.529 L 29.987 67.685 L 29.987 67.686 L 29.482 67.825 L 28.95 67.968 L 28.95 67.967 L 28.392 68.113 L 27.858 68.25 L 27.324 68.383 L 26.781 68.516 L 26.264 68.64 L 26.264 68.639 L 25.703 68.77 L 25.703 68.771 L 25.178 68.891 L 24.637 69.012 L 24.075 69.135 L 23.527 69.253 L 23 69.365 L 23 69.364 L 22.451 69.477 L 21.886 69.591 L 21.342 69.698 L 20.807 69.803 L 20.807 69.802 L 20.256 69.906 L 19.689 70.011 L 19.689 70.012 L 19.158 70.107 L 18.591 70.207 L 18.053 70.3 L 17.508 70.392 L 16.939 70.485 L 16.401 70.571 L 15.844 70.658 L 15.275 70.745 L 14.727 70.826 L 14.179 70.904 L 13.637 70.979 L 13.097 71.052 L 12.532 71.124 L 11.99 71.192 L 11.418 71.26 L 11.418 71.261 L 11.33 71.271 L 11.514 71.116 L 11.546 71.089 L 11.984 70.714 L 12.007 70.693 L 12.442 70.315 L 12.473 70.288 L 12.904 69.906 L 12.928 69.885 L 13.356 69.5 L 13.383 69.476 L 13.808 69.087 L 13.834 69.063 L 14.255 68.671 L 14.278 68.649 L 14.697 68.253 L 14.719 68.232 L 15.135 67.833 L 15.161 67.808 L 15.573 67.406 L 15.595 67.384 L 16.004 66.979 L 16.03 66.953 L 16.436 66.544 L 16.465 66.515 L 16.867 66.102 L 16.892 66.076 L 17.29 65.66 L 17.319 65.629 L 17.713 65.209 L 17.748 65.172 L 18.137 64.747 L 18.168 64.712 L 18.552 64.283 L 18.593 64.236 L 18.971 63.801 L 19.032 63.73 L 19.4 63.287 L 19.407 63.279 L 19.774 62.835 L 20.123 62.417 L 20.493 61.976 L 20.835 61.572 L 21.197 61.15 L 21.557 60.735 L 21.937 60.302 L 22.279 59.918 L 22.643 59.515 L 23.013 59.112 L 23.405 58.691 L 23.748 58.329 L 24.123 57.941 L 24.527 57.53 L 24.873 57.187 L 25.252 56.817 L 25.669 56.419 L 26.025 56.086 L 26.45 55.697 L 26.841 55.348 L 27.216 55.02 L 27.613 54.678 L 28.054 54.308 L 28.442 53.988 L 28.89 53.625 L 29.276 53.319 L 29.71 52.981 L 30.167 52.63 L 30.576 52.32 L 30.576 52.321 L 31.038 51.977 L 31.459 51.667 L 31.925 51.329 L 32.36 51.017 L 32.36 51.018 L 32.809 50.699 L 33.281 50.368 L 33.748 50.041 L 34.192 49.735 L 34.667 49.409 L 35.121 49.1 L 35.598 48.777 L 36.529 48.152 L 37.009 47.832 L 37.47 47.526 L 37.937 47.218 L 38.406 46.912 L 38.877 46.607 L 39.343 46.307 L 39.807 46.012 L 40.281 45.715 L 40.77 45.411 L 41.213 45.14 L 41.222 45.135 L 41.233 45.128 L 41.682 44.857 L 42.177 44.563 L 42.615 44.309 L 43.078 44.044 L 43.547 43.782 L 44.052 43.506 L 44.477 43.28 L 44.959 43.03 L 45.431 42.795 L 45.895 42.57 L 46.334 42.366 L 46.825 42.148 L 47.295 41.947 L 47.728 41.772 L 48.212 41.586 L 48.659 41.425 L 49.137 41.263 L 49.58 41.123 L 50.096 40.973 L 50.518 40.859 L 51.013 40.738 L 51.455 40.64 L 51.973 40.536 L 52.416 40.457 L 52.929 40.375 L 53.384 40.312 L 53.923 40.247 L 54.406 40.197 L 54.929 40.153 L 55.461 40.114 L 55.931 40.087 L 56.481 40.062 L 57.031 40.044 L 57.527 40.033 L 58.103 40.025 L 58.642 40.022 L 59.211 40.02 L 59.225 40.02 L 59.801 40.016 L 59.831 40.016 L 60.407 40.008 L 60.436 40.007 L 61.012 39.995 L 61.041 39.994 L 61.617 39.978 L 61.647 39.977 L 62.222 39.957 L 62.251 39.956 L 62.827 39.932 L 62.878 39.93 L 63.453 39.899 L 63.489 39.897 L 64.064 39.861 L 64.123 39.857 L 64.697 39.813 L 64.763 39.807 L 65.337 39.754 L 65.432 39.744 L 66.004 39.678 L 66.144 39.66 L 66.713 39.575 L 66.96 39.53 L 67.524 39.411 L 68.402 39.123 L 68.92 38.887 L 70.002 38.175 L 70.817 37.169 L 71.362 35.52 L 71.425 34.958 L 71.418 33.961 L 71.346 33.39 L 71.307 33.141 L 71.201 32.575 L 71.171 32.429 L 71.045 31.867 L 71.019 31.758 L 70.878 31.199 L 70.854 31.11 L 70.701 30.555 L 70.678 30.474 L 70.514 29.922 L 70.49 29.843 L 70.315 29.294 L 70.293 29.228 L 70.109 28.682 L 70.096 28.644 L 69.907 28.1 L 69.543 27.032 L 69.361 26.495 L 69.358 26.486 L 69.172 25.941 L 68.989 25.403 L 68.987 25.396 L 68.801 24.851 L 68.616 24.307 L 68.615 24.307 L 68.432 23.767 L 67.833 22.619 L 66.913 21.708 L 65.761 21.118 L 64.483 20.906 L 64.201 20.956 L 64.214 20.517 L 64.216 20.452 L 64.223 19.92 L 64.242 19.515 L 64.277 19.07 L 64.328 18.618 L 64.39 18.185 L 64.459 17.796 L 64.541 17.425 L 64.624 17.129 L 64.681 16.974 L 64.825 16.689 L 64.856 16.627 L 65.107 16.11 L 65.41 15.267 L 65.545 14.713 L 65.655 13.423 L 65.368 12.16 L 64.711 11.045 L 63.747 10.18 L 62.967 9.782 L 62.485 9.596 L 61.22 9.321 L 60.081 9.407 L 59.518 9.528 L 59.181 9.615 L 58.63 9.782 L 58.491 9.827 L 57.946 10.013 L 57.887 10.034 L 57.345 10.228 L 57.311 10.24 L 56.815 10.423 L 56.398 10.562 L 55.957 10.698 L 55.44 10.843 L 55.013 10.955 L 54.484 11.085 L 53.964 11.203 L 53.495 11.302 L 53.035 11.392 L 52.523 11.48 L 52.061 11.549 L 51.699 11.591 L 51.241 11.617 L 51.008 11.637 L 50.435 11.702 L 50.258 11.726 L 49.689 11.815 L 49.586 11.832 L 49.02 11.935 L 48.934 11.952 L 48.453 12.05 L 48.539 11.982 L 48.927 11.681 L 49.344 11.364 L 49.807 11.021 L 50.196 10.739 L 50.666 10.407 L 51.042 10.149 L 51.465 9.868 L 51.927 9.571 L 52.344 9.314 L 53.307 8.74 L 53.802 8.446 L 54.276 8.168 L 54.724 7.909 L 54.724 7.91 L 55.188 7.647 L 55.692 7.368 L 56.148 7.124 L 56.561 6.912 L 56.978 6.708 L 57.397 6.516 L 57.85 6.325 L 58.217 6.183 L 58.628 6.041 L 59.061 5.907 L 59.435 5.807 L 59.915 5.694 L 60.331 5.609 L 60.836 5.52 L 61.281 5.451 L 61.767 5.386 L 62.3 5.322 L 62.852 5.262 L 63.383 5.211 L 63.934 5.161 L 64.458 5.117 L 65.032 5.072 L 65.591 5.03 L 66.144 4.991 L 66.718 4.951 L 66.718 4.95 L 67.242 4.915 L 70.117 4.75 L 71.259 4.686 L 71.835 4.654 L 72.403 4.622 L 72.403 4.623 L 73.553 4.561 L 74.688 4.501 L 74.688 4.502 L 75.264 4.473 L 76.392 4.418 L 76.968 4.392 L 77.543 4.366 L 77.543 4.365 L 78.09 4.343 L 78.665 4.321 L 79.219 4.301 L 79.765 4.283 L 80.341 4.268 L 80.858 4.256 L 81.434 4.249 L 81.93 4.247 Z M 79.91 68.759 L 79.115 68.918 L 79.019 68.947 L 78.628 69.086 L 78.536 69.124 L 78.177 69.293 L 78.088 69.34 L 77.888 69.453 L 77.803 69.504 L 77.663 69.592 L 77.579 69.647 L 77.462 69.726 L 77.381 69.783 L 77.251 69.878 L 77.171 69.939 L 77.104 69.992 L 77.026 70.054 L 76.979 70.091 L 76.902 70.154 L 76.808 70.234 L 76.732 70.3 L 76.711 70.318 L 76.636 70.384 L 76.591 70.424 L 76.517 70.491 L 76.473 70.531 L 76.4 70.599 L 76.357 70.64 L 76.285 70.709 L 76.263 70.73 L 76.191 70.8 L 76.057 70.934 L 75.987 71.005 L 75.945 71.048 L 75.897 71.098 L 75.827 71.17 L 75.785 71.214 L 75.717 71.286 L 75.678 71.328 L 75.629 71.381 L 75.561 71.454 L 75.521 71.498 L 75.387 71.646 L 75.368 71.667 L 75.301 71.742 L 75.28 71.766 L 75.214 71.841 L 75.193 71.865 L 75.131 71.937 L 75.065 72.013 L 75.044 72.037 L 74.914 72.189 L 74.893 72.213 L 74.829 72.289 L 74.812 72.31 L 74.62 72.541 L 74.599 72.566 L 74.536 72.643 L 74.519 72.664 L 74.473 72.721 L 74.41 72.798 L 74.373 72.845 L 74.315 72.917 L 74.252 72.996 L 74.248 73.002 L 74.124 73.158 L 74.087 73.204 L 74.046 73.257 L 73.984 73.336 L 73.964 73.362 L 73.842 73.52 L 73.806 73.567 L 73.778 73.605 L 73.721 73.679 L 73.685 73.726 L 73.445 74.046 L 73.425 74.074 L 73.371 74.147 L 73.311 74.228 L 73.306 74.235 L 73.247 74.315 L 73.232 74.335 L 73.114 74.497 L 73.094 74.524 L 73.036 74.605 L 72.997 74.659 L 72.977 74.686 L 72.919 74.767 L 72.905 74.787 L 72.861 74.849 L 72.803 74.93 L 72.769 74.979 L 72.746 75.012 L 72.688 75.093 L 72.654 75.142 L 72.483 75.388 L 72.47 75.407 L 72.426 75.471 L 72.369 75.553 L 72.336 75.601 L 72.293 75.664 L 72.237 75.746 L 72.224 75.766 L 72 76.098 L 71.981 76.127 L 71.871 76.293 L 71.858 76.313 L 71.816 76.377 L 71.761 76.46 L 71.729 76.509 L 71.694 76.564 L 71.639 76.648 L 71.62 76.677 L 71.404 77.013 L 71.372 77.062 L 71.319 77.147 L 71.297 77.182 L 71.265 77.231 L 71.159 77.401 L 71.141 77.432 L 71.108 77.486 L 71.107 77.486 L 71.054 77.571 L 71.036 77.602 L 70.932 77.772 L 70.92 77.791 L 70.868 77.877 L 70.828 77.943 L 70.765 78.048 L 70.713 78.134 L 70.695 78.165 L 70.644 78.251 L 70.625 78.282 L 70.575 78.368 L 70.543 78.423 L 70.524 78.454 L 70.474 78.54 L 70.464 78.558 L 70.424 78.627 L 70.374 78.713 L 70.364 78.731 L 70.314 78.818 L 70.296 78.85 L 70.198 79.024 L 70.17 79.074 L 70.129 79.149 L 70.073 79.249 L 70.035 79.319 L 69.987 79.406 L 69.959 79.457 L 69.93 79.512 L 69.882 79.6 L 69.855 79.65 L 69.808 79.739 L 69.8 79.755 L 69.754 79.843 L 69.745 79.86 L 69.607 80.127 L 69.573 80.195 L 69.546 80.25 L 69.501 80.339 L 69.475 80.389 L 69.387 80.569 L 69.371 80.603 L 69.285 80.783 L 69.261 80.834 L 69.177 81.016 L 69.161 81.051 L 69.079 81.233 L 69.057 81.284 L 69.017 81.376 L 69.001 81.412 L 68.962 81.504 L 68.947 81.539 L 68.871 81.723 L 68.851 81.774 L 68.814 81.867 L 68.799 81.904 L 68.763 81.997 L 68.744 82.048 L 68.709 82.142 L 68.695 82.179 L 68.661 82.273 L 68.648 82.31 L 68.615 82.404 L 68.598 82.455 L 68.566 82.55 L 68.541 82.626 L 68.511 82.721 L 68.495 82.772 L 68.466 82.868 L 68.443 82.946 L 68.416 83.042 L 68.392 83.131 L 68.367 83.228 L 68.348 83.307 L 68.325 83.404 L 68.305 83.494 L 68.284 83.592 L 68.267 83.673 L 68.248 83.771 L 68.24 83.811 L 68.222 83.909 L 68.221 83.917 L 68.197 84.049 L 68.18 84.147 L 68.172 84.195 L 68.14 84.393 L 68.135 84.428 L 68.12 84.526 L 68.119 84.532 L 68.089 84.73 L 68.083 84.772 L 68.069 84.871 L 68.063 84.912 L 68.055 84.975 L 68.042 85.069 L 68.036 85.11 L 68.023 85.209 L 68.018 85.251 L 68.006 85.35 L 68.005 85.355 L 67.994 85.45 L 67.958 85.747 L 67.952 85.793 L 67.942 85.888 L 67.92 86.086 L 67.915 86.132 L 67.905 86.228 L 67.895 86.327 L 67.895 86.331 L 67.885 86.427 L 67.875 86.526 L 67.875 86.53 L 67.865 86.626 L 67.855 86.725 L 67.851 86.771 L 67.842 86.867 L 67.833 86.966 L 67.833 86.97 L 67.824 87.066 L 67.815 87.165 L 67.815 87.169 L 67.806 87.269 L 67.803 87.307 L 67.795 87.406 L 67.794 87.41 L 67.786 87.51 L 67.781 87.568 L 67.778 87.606 L 67.77 87.705 L 67.769 87.709 L 67.761 87.809 L 67.762 87.809 L 67.754 87.904 L 67.75 87.95 L 67.746 88.008 L 67.738 88.108 L 67.735 88.147 L 67.731 88.207 L 67.723 88.307 L 67.72 88.349 L 67.713 88.446 L 67.706 88.545 L 67.706 88.548 L 67.685 88.848 L 67.683 88.887 L 67.679 88.947 L 67.672 89.047 L 67.67 89.088 L 67.666 89.147 L 67.659 89.247 L 67.657 89.286 L 67.651 89.385 L 67.651 89.387 L 67.633 89.685 L 67.627 89.784 L 67.627 89.786 L 67.615 89.986 L 67.612 90.028 L 67.607 90.126 L 67.604 90.183 L 67.601 90.227 L 67.596 90.327 L 67.593 90.385 L 67.59 90.427 L 67.575 90.724 L 67.575 90.726 L 67.55 91.226 L 67.548 91.267 L 67.546 91.325 L 67.536 91.525 L 67.534 91.567 L 67.528 91.725 L 67.523 91.825 L 67.521 91.867 L 67.513 92.065 L 67.513 92.066 L 67.489 92.665 L 67.485 92.764 L 67.484 92.808 L 67.482 92.865 L 67.478 92.965 L 67.477 93.008 L 67.475 93.065 L 67.471 93.165 L 67.47 93.208 L 67.468 93.265 L 67.464 93.365 L 67.463 93.408 L 67.457 93.606 L 67.455 93.664 L 67.451 93.764 L 67.45 93.807 L 67.444 94.007 L 67.443 94.049 L 67.442 94.107 L 67.43 94.507 L 67.429 94.549 L 67.428 94.607 L 67.425 94.707 L 67.424 94.748 L 67.423 94.806 L 67.42 94.906 L 67.419 94.948 L 67.418 95.006 L 67.415 95.106 L 67.414 95.148 L 67.396 96.048 L 67.394 96.147 L 67.392 96.247 L 67.391 96.289 L 67.39 96.389 L 67.389 96.447 L 67.388 96.489 L 67.387 96.581 L 67.386 96.647 L 67.385 96.689 L 67.384 96.789 L 67.383 96.847 L 67.382 96.889 L 67.38 97.089 L 67.379 97.147 L 67.378 97.189 L 67.374 97.589 L 67.373 97.688 L 67.373 97.788 L 67.37 98.088 L 67.37 98.188 L 67.369 98.288 L 67.369 98.388 L 67.368 98.488 L 67.368 98.688 L 67.367 98.788 L 67.367 99.372 L 67.368 99.43 L 67.368 99.771 L 67.369 99.829 L 67.369 99.971 L 67.371 100.129 L 67.371 100.271 L 67.376 100.771 L 67.377 100.813 L 67.378 100.871 L 67.38 101.071 L 67.381 101.113 L 67.382 101.171 L 67.383 101.271 L 67.384 101.314 L 67.386 101.413 L 67.4 102.113 L 67.401 102.154 L 67.403 102.212 L 67.405 102.312 L 67.406 102.354 L 67.412 102.554 L 67.412 102.556 L 67.415 102.653 L 67.424 102.953 L 67.425 102.996 L 67.429 103.096 L 67.431 103.153 L 67.432 103.196 L 67.444 103.496 L 67.444 103.497 L 67.448 103.596 L 67.45 103.637 L 67.453 103.695 L 67.457 103.795 L 67.459 103.837 L 67.474 104.137 L 67.474 104.139 L 67.479 104.238 L 67.482 104.278 L 67.5 104.578 L 67.5 104.58 L 67.506 104.679 L 67.508 104.718 L 67.529 105.018 L 67.529 105.021 L 67.536 105.12 L 67.539 105.159 L 67.547 105.259 L 67.551 105.305 L 67.56 105.4 L 67.578 105.6 L 67.582 105.646 L 67.602 105.844 L 67.606 105.881 L 67.617 105.981 L 67.623 106.027 L 67.635 106.126 L 67.64 106.168 L 67.653 106.267 L 67.659 106.308 L 67.673 106.407 L 67.679 106.449 L 67.694 106.548 L 67.708 106.637 L 67.725 106.735 L 67.749 106.867 L 67.776 107.005 L 67.797 107.102 L 67.825 107.223 L 67.849 107.32 L 67.918 107.565 L 67.948 107.661 L 68.075 108.013 L 68.113 108.105 L 68.726 109.139 L 68.788 109.216 L 69.745 110.088 L 70.922 110.628 L 72.207 110.786 L 72.899 110.706 L 72.989 110.688 L 74.204 110.242 L 75.59 109.009 L 75.648 108.928 L 75.828 108.654 L 75.88 108.568 L 75.917 108.506 L 75.967 108.42 L 75.995 108.37 L 76.044 108.283 L 76.072 108.233 L 76.138 108.112 L 76.185 108.024 L 76.211 107.974 L 76.257 107.885 L 76.274 107.851 L 76.364 107.673 L 76.39 107.623 L 76.434 107.533 L 76.458 107.482 L 76.501 107.391 L 76.509 107.373 L 76.551 107.283 L 76.559 107.267 L 76.601 107.176 L 76.617 107.141 L 76.699 106.959 L 76.721 106.908 L 76.754 106.832 L 76.755 106.832 L 76.795 106.741 L 76.817 106.689 L 76.934 106.413 L 76.955 106.363 L 76.987 106.285 L 77.025 106.193 L 77.045 106.142 L 77.156 105.863 L 77.171 105.826 L 77.279 105.547 L 77.284 105.533 L 77.32 105.439 L 77.329 105.416 L 77.364 105.323 L 77.369 105.309 L 77.399 105.229 L 77.434 105.136 L 77.439 105.122 L 77.474 105.028 L 77.488 104.991 L 77.624 104.615 L 77.637 104.578 L 77.67 104.484 L 77.675 104.47 L 77.69 104.426 L 77.724 104.332 L 77.75 104.257 L 77.774 104.187 L 77.802 104.106 L 77.835 104.012 L 77.852 103.961 L 77.88 103.879 L 77.912 103.785 L 77.916 103.772 L 78.012 103.487 L 78.025 103.449 L 78.052 103.366 L 78.074 103.298 L 78.106 103.203 L 78.119 103.165 L 78.212 102.88 L 78.228 102.83 L 78.242 102.784 L 78.273 102.689 L 78.345 102.461 L 78.349 102.449 L 78.375 102.365 L 78.379 102.354 L 78.379 102.353 L 78.435 102.175 L 78.439 102.163 L 78.465 102.079 L 78.495 101.984 L 78.511 101.933 L 78.54 101.837 L 78.554 101.793 L 78.57 101.742 L 78.595 101.658 L 78.624 101.563 L 78.628 101.551 L 78.682 101.371 L 78.711 101.276 L 78.715 101.264 L 78.744 101.168 L 78.755 101.129 L 78.772 101.072 L 78.797 100.988 L 78.826 100.893 L 78.841 100.842 L 79.065 100.074 L 79.077 100.035 L 79.104 99.939 L 79.103 99.939 L 79.12 99.882 L 79.132 99.843 L 79.159 99.747 L 79.158 99.747 L 79.175 99.69 L 79.187 99.651 L 79.214 99.555 L 79.217 99.545 L 79.241 99.458 L 79.349 99.074 L 79.352 99.064 L 79.379 98.967 L 79.386 98.938 L 79.401 98.881 L 79.402 98.881 L 79.429 98.785 L 79.432 98.775 L 79.459 98.678 L 79.466 98.649 L 79.484 98.582 L 79.485 98.582 L 79.512 98.485 L 79.519 98.456 L 79.571 98.264 L 79.574 98.254 L 79.597 98.167 L 79.623 98.071 L 79.626 98.061 L 79.639 98.013 L 79.666 97.917 L 79.69 97.828 L 79.715 97.731 L 79.727 97.685 L 79.73 97.675 L 79.782 97.481 L 79.79 97.451 L 79.807 97.385 L 79.833 97.288 L 79.841 97.258 L 79.858 97.192 L 79.884 97.095 L 79.895 97.055 L 79.92 96.958 L 79.932 96.912 L 79.946 96.862 L 80.018 96.581 L 80.043 96.485 L 80.046 96.475 L 80.118 96.194 L 80.143 96.098 L 80.146 96.088 L 80.171 95.991 L 80.181 95.952 L 80.195 95.894 L 80.245 95.7 L 80.255 95.661 L 80.269 95.603 L 80.294 95.506 L 80.304 95.467 L 80.352 95.273 L 80.364 95.226 L 80.377 95.177 L 80.545 94.498 L 80.547 94.488 L 80.569 94.4 L 80.641 94.109 L 80.65 94.069 L 80.664 94.012 L 80.688 93.915 L 80.697 93.875 L 80.711 93.818 L 80.735 93.721 L 80.744 93.681 L 80.76 93.614 L 80.784 93.516 L 80.791 93.486 L 80.828 93.332 L 80.852 93.235 L 80.861 93.195 L 80.884 93.098 L 80.886 93.088 L 80.907 93 L 80.976 92.709 L 80.978 92.699 L 80.999 92.611 L 81.068 92.32 L 81.07 92.31 L 81.093 92.212 L 81.101 92.182 L 81.123 92.085 L 81.136 92.028 L 81.138 92.018 L 81.161 91.92 L 81.169 91.89 L 81.191 91.793 L 81.204 91.736 L 81.206 91.726 L 81.229 91.628 L 81.237 91.598 L 81.259 91.501 L 81.261 91.491 L 81.283 91.393 L 81.294 91.346 L 81.304 91.306 L 81.326 91.209 L 81.328 91.199 L 81.35 91.101 L 81.361 91.054 L 81.373 91.004 L 81.393 90.916 L 81.415 90.819 L 81.417 90.809 L 81.437 90.721 L 81.459 90.624 L 81.461 90.614 L 81.481 90.526 L 81.503 90.429 L 81.505 90.419 L 81.525 90.331 L 81.547 90.234 L 81.549 90.224 L 81.569 90.136 L 81.591 90.039 L 81.593 90.029 L 81.615 89.931 L 81.622 89.9 L 81.636 89.834 L 81.68 89.638 L 81.687 89.607 L 81.701 89.541 L 81.723 89.443 L 81.73 89.412 L 81.744 89.346 L 81.766 89.248 L 81.773 89.217 L 81.787 89.151 L 81.809 89.053 L 81.817 89.013 L 81.827 88.965 L 81.828 88.965 L 81.85 88.868 L 81.86 88.818 L 81.9 88.631 L 81.901 88.631 L 81.922 88.534 L 81.923 88.525 L 81.935 88.467 L 81.936 88.467 L 81.958 88.369 L 81.965 88.338 L 81.986 88.241 L 81.987 88.232 L 82.048 87.947 L 82.049 87.947 L 82.07 87.85 L 82.071 87.841 L 82.092 87.743 L 82.101 87.703 L 82.131 87.556 L 82.132 87.556 L 82.153 87.459 L 82.154 87.45 L 82.196 87.254 L 82.205 87.214 L 82.215 87.165 L 82.236 87.068 L 82.266 86.921 L 82.299 86.765 L 82.308 86.725 L 82.339 86.57 L 82.36 86.472 L 82.369 86.432 L 82.389 86.334 L 82.401 86.276 L 82.41 86.236 L 82.47 85.942 L 82.482 85.884 L 82.489 85.852 L 82.509 85.755 L 82.511 85.747 L 82.526 85.675 L 82.536 85.631 L 82.543 85.6 L 82.557 85.534 L 82.579 85.436 L 82.587 85.396 L 82.597 85.348 L 82.598 85.348 L 82.62 85.251 L 82.63 85.201 L 82.642 85.143 L 82.643 85.143 L 82.665 85.045 L 82.672 85.014 L 82.693 84.917 L 82.694 84.908 L 82.704 84.86 L 82.705 84.86 L 82.727 84.763 L 82.737 84.713 L 82.777 84.526 L 82.778 84.526 L 82.799 84.429 L 82.8 84.42 L 82.861 84.135 L 82.862 84.135 L 82.883 84.038 L 82.884 84.029 L 82.924 83.842 L 82.925 83.842 L 82.946 83.745 L 82.947 83.736 L 83.01 83.442 L 83.019 83.402 L 83.029 83.353 L 83.05 83.256 L 83.08 83.109 L 83.113 82.953 L 83.122 82.913 L 83.132 82.864 L 83.153 82.767 L 83.203 82.522 L 83.215 82.464 L 83.224 82.424 L 83.274 82.179 L 83.295 82.082 L 83.445 81.347 L 83.453 81.306 L 83.464 81.249 L 83.524 80.955 L 83.532 80.914 L 83.543 80.857 L 83.583 80.661 L 83.591 80.62 L 83.621 80.465 L 83.641 80.367 L 83.649 80.326 L 83.66 80.269 L 83.68 80.171 L 83.688 80.13 L 83.756 79.779 L 83.776 79.681 L 83.785 79.633 L 83.803 79.541 L 83.86 79.247 L 83.868 79.207 L 83.886 79.109 L 83.916 78.953 L 83.917 78.946 L 83.936 78.847 L 83.943 78.814 L 83.961 78.716 L 83.972 78.658 L 83.98 78.618 L 83.998 78.52 L 84.009 78.462 L 84.018 78.414 L 84.027 78.363 L 84.046 78.265 L 84.054 78.225 L 84.09 78.029 L 84.089 78.029 L 84.102 77.963 L 84.109 77.93 L 84.145 77.734 L 84.146 77.726 L 84.163 77.635 L 84.199 77.439 L 84.2 77.431 L 84.224 77.299 L 84.234 77.242 L 84.252 77.144 L 84.253 77.136 L 84.277 77.004 L 84.287 76.947 L 84.305 76.849 L 84.313 76.801 L 84.329 76.709 L 84.34 76.644 L 84.343 76.631 L 84.346 76.611 L 84.364 76.512 L 84.381 76.414 L 84.382 76.407 L 84.398 76.315 L 84.415 76.217 L 84.416 76.21 L 84.433 76.111 L 84.439 76.076 L 84.449 76.013 L 84.465 75.921 L 84.482 75.823 L 84.49 75.775 L 84.514 75.625 L 84.531 75.527 L 84.539 75.479 L 84.571 75.281 L 84.576 75.246 L 84.586 75.183 L 84.602 75.084 L 84.608 75.043 L 84.637 74.851 L 84.652 74.753 L 84.653 74.747 L 84.668 74.648 L 84.674 74.606 L 84.716 74.309 L 84.722 74.268 L 84.748 74.07 L 84.754 74.023 L 84.766 73.923 L 84.781 73.788 L 84.79 73.704 L 84.799 73.605 L 84.808 73.476 L 84.814 73.376 L 84.822 73.081 L 84.821 72.981 L 84.609 71.703 L 84.02 70.551 L 83.26 69.748 L 83.186 69.688 L 82.067 69.037 L 81.333 68.824 L 81.235 68.805 L 80.009 68.749 Z" fill="#000000" fill-rule="nonzero" stroke="none" data-offset="-0.4mm"/></svg>