<?xml version="1.0" standalone="no"?>
<!DOCTYPE svg PUBLIC "-//W3C//DTD SVG 20010904//EN"
 "http://www.w3.org/TR/2001/REC-SVG-20010904/DTD/svg10.dtd">
<svg version="1.0" xmlns="http://www.w3.org/2000/svg"
 width="124.871624pt" height="287.879245pt" viewBox="0 0 124.871624 287.879245"
 preserveAspectRatio="xMidYMid meet">
<metadata>
Created by potrace 1.16, written by Peter Selinger 2001-2019
</metadata>
<g transform="translate(-232.824605,446.894074) scale(0.100000,-0.100000)"
fill="#000000" stroke="none">
<path d="M3245 4440 c-17 -18 -33 -26 -38 -21 -12 12 -100 -38 -93 -54 2 -7 2
-16 -2 -20 -3 -3 -7 -16 -7 -28 0 -13 -6 -22 -15 -22 -8 0 -25 -7 -38 -16 -22
-16 -22 -17 -6 -60 17 -49 20 -128 9 -269 -6 -81 -13 -107 -47 -180 -72 -154
-159 -425 -192 -600 -8 -47 -24 -101 -33 -120 -28 -55 -116 -170 -131 -170 -7
0 -34 23 -60 50 -26 28 -54 50 -61 50 -8 0 12 -27 44 -61 l58 -60 -29 -30
c-15 -16 -34 -29 -42 -29 -7 0 -40 25 -73 57 -32 31 -62 53 -65 50 -4 -3 23
-37 59 -74 l65 -68 -19 -37 c-10 -20 -22 -39 -27 -42 -4 -2 -43 11 -86 30
-114 50 -118 35 -6 -19 60 -28 99 -42 106 -36 6 5 32 10 58 11 55 2 66 -9 66
-64 0 -68 -98 -118 -133 -67 -21 29 -28 10 -16 -37 14 -51 58 -127 109 -188
l40 -49 -25 -33 c-53 -70 -88 -155 -93 -229 -3 -56 -9 -75 -28 -96 -25 -26
-22 -48 3 -28 10 9 13 6 13 -14 0 -14 5 -29 10 -32 6 -3 10 4 10 17 0 18 2 20
10 8 15 -24 23 -3 11 32 -9 27 -8 44 10 100 11 37 24 70 27 72 4 2 8 -28 8
-66 2 -64 7 -81 63 -195 64 -131 72 -165 44 -182 -16 -9 -16 -12 -3 -21 17
-11 73 -13 83 -3 4 3 0 14 -9 24 -20 22 -13 69 16 116 22 37 54 48 105 39 57
-11 106 -113 81 -168 -7 -16 -3 -18 30 -18 55 0 70 12 44 35 -30 27 -25 62 24
166 50 104 65 160 66 232 0 34 4 47 13 45 22 -8 37 -52 37 -115 0 -51 3 -61
15 -57 10 4 15 0 15 -15 0 -12 5 -21 11 -21 6 0 8 9 3 22 -6 21 -5 22 11 8 17
-14 18 -13 11 10 -5 14 -18 72 -31 130 -30 144 -31 147 -86 205 l-48 51 48 64
c56 75 71 114 71 181 l0 48 -25 -24 c-53 -54 -155 -14 -155 61 0 56 57 82 132
61 20 -5 26 -4 23 5 -5 11 39 32 128 62 9 3 17 10 17 16 0 16 -43 5 -105 -24
l-49 -24 -16 22 c-10 11 -23 32 -30 45 -12 23 -10 27 26 55 76 61 90 75 73 76
-8 0 -39 -20 -68 -45 -29 -25 -57 -45 -62 -45 -15 0 -79 73 -79 90 0 8 18 42
40 75 22 33 40 66 40 74 0 25 -28 -8 -62 -71 -18 -33 -38 -62 -45 -65 -18 -7
-49 33 -68 88 -16 47 -24 246 -11 267 4 6 11 49 16 95 6 53 28 136 61 232 56
165 74 205 91 205 7 0 33 19 58 43 38 36 56 46 109 56 36 7 83 22 105 33 63
32 161 139 184 201 40 105 52 269 23 315 -11 18 -43 4 -36 -17 4 -13 0 -17
-17 -17 -18 1 -22 -4 -20 -22 1 -13 -1 -22 -5 -20 -5 2 -20 10 -35 17 -24 12
-34 11 -86 -8 -33 -11 -65 -21 -71 -21 -7 0 -42 -29 -77 -65 -36 -36 -71 -65
-79 -65 -25 0 -17 14 23 39 59 39 80 61 101 105 42 89 37 109 -14 56z"/>
<path d="M3079 2639 c-23 -44 38 -98 80 -72 22 14 25 57 6 77 -24 23 -72 21
-86 -5z"/>
<path d="M2525 2630 c-25 -27 -13 -70 19 -70 45 0 72 50 44 78 -18 18 -43 15
-63 -8z"/>
</g>
</svg>
