<?xml version="1.0" standalone="no"?><!DOCTYPE svg PUBLIC "-//W3C//DTD SVG 20010904//EN" "http://www.w3.org/TR/2001/REC-SVG-20010904/DTD/svg10.dtd"><svg xmlns="http://www.w3.org/2000/svg" version="1.0" width="8.1498mm" height="16mm" viewBox="0 0 123.068268 241.611971" preserveAspectRatio="xMidYMid meet">
<metadata>
Created by potrace 1.16, written by Peter Selinger 2001-2019
</metadata>
<g transform="translate(-243.000000,408.800000) scale(0.100000,-0.100000)" fill="#000000" stroke="none">
<path d="M3073 4062 c-7 -32 -20 -42 -51 -42 -13 0 -37 -7 -53 -16 l-31 -16 34 -16 c21 -11 34 -26 36 -41 4 -26 32 -55 72 -73 38 -17 1 -22 -52 -7 -24 7 -51 11 -61 10 -9 -1 -24 5 -33 13 -15 16 -45 21 -57 10 -21 -22 84 -108 160 -130 61 -18 73 -34 73 -99 0 -36 -6 -56 -28 -84 -36 -46 -64 -95 -145 -256 -90 -176 -98 -202 -107 -338 -9 -128 -16 -146 -78 -201 -19 -17 -43 -38 -52 -46 -9 -8 -22 -24 -29 -35 -12 -19 -12 -19 -6 2 7 27 2 30 -103 59 -109 30 -132 31 -132 4 0 -30 103 -231 135 -262 15 -15 49 -38 76 -51 56 -28 88 -63 124 -135 29 -57 27 -67 -25 -137 -43 -58 -72 -113 -90 -170 -7 -22 -24 -53 -39 -69 -18 -19 -22 -30 -13 -33 6 -3 12 -12 12 -21 1 -16 2 -16 13 0 12 15 14 15 24 0 10 -14 12 -11 13 18 1 55 64 180 92 180 4 0 8 -39 8 -87 0 -49 5 -128 11 -178 11 -85 10 -90 -10 -106 -30 -25 -27 -29 22 -29 l44 0 -5 53 c-4 45 -1 57 19 80 22 25 28 27 69 19 40 -7 46 -12 57 -42 7 -19 12 -53 12 -76 1 -44 8 -48 64 -37 l29 5 -27 28 -26 28 3 148 c2 82 -1 160 -6 174 -8 23 -7 24 8 11 38 -32 106 -132 106 -157 0 -18 4 -25 14 -21 7 3 19 0 25 -6 16 -16 26 0 11 18 -10 12 -10 15 4 15 23 0 20 15 -7 27 -15 7 -38 42 -64 96 -23 48 -64 110 -92 141 -56 61 -62 86 -35 139 30 58 47 72 79 69 49 -6 100 15 154 64 74 67 89 93 111 191 22 101 21 103 -56 103 -47 0 -165 -32 -191 -52 -7 -6 -13 -3 -17 10 -4 11 -29 41 -56 66 -60 57 -75 84 -84 156 -12 99 10 234 54 325 62 130 130 287 130 301 0 13 57 71 87 87 8 5 30 2 54 -7 55 -22 112 -21 134 4 16 18 26 19 120 13 101 -6 103 -6 129 20 33 33 36 91 5 116 -20 16 -99 18 -99 2 0 -4 19 -14 43 -22 53 -20 63 -53 21 -69 -35 -14 -133 -3 -156 18 -14 11 -31 13 -73 8 -35 -4 -64 -2 -77 5 -11 6 -54 12 -95 14 -51 1 -78 7 -84 16 -12 19 -11 25 6 39 21 17 95 6 161 -24 56 -26 95 -24 132 6 8 7 18 11 21 9 3 -3 7 3 9 12 3 13 -4 17 -30 17 l-33 1 26 14 c15 8 53 18 85 21 63 8 74 15 74 54 0 27 -38 59 -49 42 -3 -5 -26 -12 -51 -15 -30 -4 -50 -13 -59 -26 -7 -12 -20 -21 -28 -21 -10 0 -8 8 8 29 26 35 20 66 -11 56 -15 -5 -18 -3 -14 8 4 10 -5 16 -30 21 -20 4 -36 11 -36 16 0 6 -9 1 -21 -11 -15 -15 -24 -18 -33 -10 -7 6 -16 8 -19 4 -4 -3 -7 1 -7 10 0 8 -5 28 -11 44 l-11 28 -22 -28 c-16 -20 -30 -28 -47 -25 -30 4 -39 38 -10 38 11 0 22 4 25 9 3 5 -10 9 -29 9 -30 0 -36 -4 -42 -26z m-416 -1414 c-3 -8 -6 -5 -6 6 -1 11 2 17 5 13 3 -3 4 -12 1 -19z m440 -30 c-3 -8 -6 -5 -6 6 -1 11 2 17 5 13 3 -3 4 -12 1 -19z m-313 -10 c42 -60 -7 -144 -71 -124 -33 10 -73 56 -73 82 0 58 111 90 144 42z m286 -3 c9 -8 20 -12 25 -8 10 10 -4 -87 -16 -107 -6 -10 -8 -11 -9 -2 0 9 -5 10 -19 2 -56 -29 -121 11 -121 75 0 31 5 38 33 50 36 17 82 12 107 -10z m-401 -127 c6 -18 7 -28 2 -23 -10 12 -25 55 -18 55 3 0 10 -15 16 -32z"/>
<path d="M2692 2578 c-7 -7 -12 -19 -12 -28 0 -40 61 -55 80 -21 13 25 13 27 -6 45 -18 19 -45 21 -62 4z"/>
<path d="M2980 2576 c-6 -8 -10 -25 -8 -38 2 -19 9 -23 38 -23 29 0 36 4 38 23 4 28 -14 52 -38 52 -10 0 -23 -7 -30 -14z"/>
<path d="M2900 4048 c0 -8 6 -22 13 -31 11 -16 14 -16 32 -3 14 11 16 15 6 16 -8 0 -23 7 -33 17 -15 13 -18 14 -18 1z"/>
</g>
</svg>