<?xml version="1.0" standalone="no"?>
<!DOCTYPE svg PUBLIC "-//W3C//DTD SVG 20010904//EN"
 "http://www.w3.org/TR/2001/REC-SVG-20010904/DTD/svg10.dtd">
<svg version="1.0" xmlns="http://www.w3.org/2000/svg"
 width="189.333178pt" height="187.777467pt" viewBox="0 0 189.333178 187.777467"
 preserveAspectRatio="xMidYMid meet">
<metadata>
Created by potrace 1.16, written by Peter Selinger 2001-2019
</metadata>
<g transform="translate(-55.570861,243.759943) scale(0.100000,-0.100000)"
fill="#000000" stroke="none">
<path d="M1310 2425 c-290 -65 -518 -232 -649 -476 -78 -145 -105 -266 -105
-469 0 -138 28 -250 100 -395 131 -266 367 -450 656 -509 144 -30 356 -17 493
29 138 47 305 154 397 254 105 115 191 274 201 372 3 31 13 72 23 90 11 23 19
66 22 131 12 256 -77 497 -255 687 -127 136 -277 225 -456 272 -107 28 -331
36 -427 14z m300 -49 c308 -42 571 -232 699 -506 21 -47 47 -112 56 -145 17
-62 32 -295 22 -337 l-7 -25 -142 48 c-121 40 -357 107 -526 149 -24 6 -45 16
-46 23 -30 106 -88 182 -170 225 -44 23 -63 27 -141 27 -75 0 -98 -4 -138 -24
-49 -24 -101 -68 -129 -109 l-15 -22 -134 14 c-74 8 -173 18 -221 21 -49 4
-88 8 -88 10 0 2 12 37 26 77 114 317 413 547 751 577 48 5 90 9 93 9 3 1 52
-5 110 -12z m-175 -639 c47 -24 85 -62 106 -103 30 -64 24 -165 -14 -222 -79
-120 -260 -130 -352 -20 -110 130 -47 317 120 359 35 8 111 1 140 -14z m-560
-218 c77 -10 145 -21 151 -23 6 -2 16 -24 22 -49 16 -60 68 -135 123 -174 144
-102 340 -66 446 82 l21 30 249 -62 c264 -67 439 -118 447 -132 9 -15 -70
-165 -119 -226 -65 -81 -125 -136 -220 -199 -320 -215 -729 -200 -1040 37
-206 157 -344 428 -345 676 l0 74 63 -7 c34 -4 125 -16 202 -27z"/>
<path d="M1350 2335 c-36 -7 -90 -23 -120 -34 l-55 -20 67 0 c123 -2 131 -64
22 -160 -92 -81 -229 -128 -294 -101 -25 10 -30 18 -30 45 0 18 11 48 25 69
13 20 21 36 16 36 -18 0 -154 -135 -197 -195 -42 -59 -114 -201 -114 -224 0
-6 17 -11 37 -11 21 0 109 -7 195 -16 l158 -16 41 46 c26 29 64 57 106 77 152
73 334 23 427 -115 19 -28 39 -68 46 -88 9 -31 18 -39 48 -47 192 -50 335 -88
429 -117 62 -19 117 -34 121 -34 5 0 14 19 20 43 l11 42 -1 -35 c0 -69 1 -72
25 -68 21 3 22 6 21 123 -1 142 -19 223 -76 345 -38 83 -122 204 -170 246
-102 88 -232 161 -350 195 -95 27 -313 35 -408 14z m-422 -346 c4 -24 -36 -69
-64 -69 -18 0 -24 5 -24 22 0 48 79 91 88 47z"/>
<path d="M1255 1692 c-114 -73 -129 -204 -31 -290 44 -38 70 -46 139 -40 97 8
164 89 155 187 -5 51 -39 111 -63 111 -11 0 -9 -9 7 -36 61 -104 -5 -228 -121
-228 -38 0 -57 6 -85 27 -46 36 -58 59 -59 117 -1 89 63 143 167 142 78 -1 60
20 -21 25 -45 3 -65 0 -88 -15z"/>
<path d="M695 1190 c12 -44 88 -169 142 -235 74 -89 162 -158 278 -215 134
-66 194 -81 355 -87 158 -6 246 8 374 60 141 58 253 144 340 260 55 74 106
165 106 191 0 12 -57 34 -64 24 -1 -1 -15 -24 -30 -51 -56 -98 -189 -219 -320
-291 -69 -38 -207 -82 -301 -96 -199 -30 -427 24 -607 144 -74 49 -194 176
-241 256 -21 36 -36 54 -32 40z"/>
</g>
</svg>
