<?xml version="1.0" standalone="no"?><!DOCTYPE svg PUBLIC "-//W3C//DTD SVG 20010904//EN" "http://www.w3.org/TR/2001/REC-SVG-20010904/DTD/svg10.dtd"><svg xmlns="http://www.w3.org/2000/svg" version="1.0" width="16mm" height="8.7286mm" viewBox="0 0 550.328888 300.226115" preserveAspectRatio="xMidYMid meet">
<metadata>
Created by potrace 1.16, written by Peter Selinger 2001-2019
</metadata>
<g transform="translate(-15.516905,315.676067) scale(0.100000,-0.100000)" fill="#000000" stroke="none">
<path d="M4459 3156 c-2 -2 -42 -9 -89 -15 -200 -26 -313 -52 -516 -119 -99 -33 -203 -67 -231 -76 -81 -25 -255 -112 -288 -144 -37 -35 -70 -81 -79 -109 -4 -12 -19 -24 -34 -28 -40 -10 -52 -24 -52 -60 0 -31 20 -58 49 -67 8 -2 19 -25 26 -50 l12 -47 -46 -16 c-25 -10 -76 -31 -114 -48 -75 -34 -84 -48 -72 -119 3 -24 6 -64 6 -89 -1 -38 3 -48 24 -59 13 -7 29 -25 35 -40 6 -15 24 -40 40 -55 25 -24 35 -27 77 -23 33 3 67 16 106 41 32 20 60 37 63 37 12 0 -50 -146 -78 -183 -13 -18 -15 -18 -38 1 -47 36 -89 52 -139 52 -33 0 -62 7 -86 21 -42 25 -97 21 -128 -10 -19 -19 -20 -19 -69 4 -27 13 -57 34 -66 47 -45 66 -105 63 -164 -7 -27 -31 -22 -45 16 -45 41 0 51 -12 36 -40 -9 -18 -21 -20 -97 -20 -85 0 -208 -11 -332 -31 -35 -5 -65 -8 -67 -7 -5 6 71 125 140 218 48 66 76 93 123 120 85 50 143 107 143 142 0 24 -4 28 -28 28 -50 0 -340 -121 -442 -185 -19 -12 -44 -25 -55 -28 -11 -4 -44 -23 -73 -42 -30 -19 -57 -35 -61 -35 -4 0 -15 27 -25 61 -21 78 -139 375 -181 460 -18 36 -41 71 -50 79 -9 7 -22 28 -30 46 -17 41 -57 68 -85 59 -12 -4 -28 -22 -36 -41 -29 -69 -10 -326 37 -496 11 -40 29 -109 40 -153 11 -44 27 -100 35 -124 16 -49 10 -61 -33 -61 -40 0 -150 -30 -219 -59 -38 -16 -127 -53 -199 -83 -71 -30 -153 -67 -182 -81 -29 -15 -57 -27 -63 -27 -25 0 -238 -110 -244 -126 -13 -35 14 -45 94 -34 157 21 196 29 244 49 27 12 107 40 178 61 71 22 137 44 147 49 9 6 95 10 190 10 160 1 175 -1 200 -20 36 -28 224 -137 310 -179 39 -19 71 -38 71 -41 0 -4 -30 -14 -67 -24 -38 -9 -97 -27 -133 -40 -36 -12 -87 -29 -115 -36 -27 -7 -74 -23 -103 -36 -30 -13 -129 -48 -220 -78 -92 -30 -176 -59 -187 -65 -24 -11 -88 -34 -300 -105 -407 -136 -673 -236 -770 -288 -98 -53 -75 -90 68 -108 38 -5 104 -16 145 -24 167 -35 394 -33 615 5 31 6 81 14 110 19 57 10 125 30 287 85 58 19 134 45 170 56 36 12 102 35 148 52 45 17 84 29 86 27 4 -5 46 -125 46 -131 0 -2 -30 0 -67 5 -138 18 -213 -4 -213 -62 0 -34 27 -68 121 -150 148 -128 152 -131 331 -237 105 -63 255 -118 350 -128 175 -19 235 134 115 292 -33 44 -107 96 -194 137 l-73 34 34 58 c18 32 47 82 64 111 18 29 32 56 32 60 0 4 20 39 45 77 25 39 62 102 82 141 33 64 41 72 77 82 36 9 41 8 59 -14 12 -16 29 -24 48 -24 17 0 49 -4 72 -9 23 -6 87 -19 142 -31 55 -12 145 -32 200 -45 55 -13 120 -28 145 -33 25 -6 98 -24 164 -41 65 -17 142 -35 170 -40 28 -5 96 -21 151 -36 55 -15 120 -31 145 -35 25 -4 110 -25 190 -45 168 -43 159 -40 230 -50 30 -4 70 -13 89 -21 18 -8 61 -14 95 -14 34 0 77 -5 96 -10 107 -31 395 -41 534 -19 132 21 343 113 454 197 50 38 85 121 80 187 -12 143 -170 323 -363 414 -83 39 -178 68 -252 77 -12 1 -73 11 -135 22 -172 31 -379 62 -414 62 -59 0 -92 11 -98 33 -6 24 19 159 37 197 7 13 33 37 60 54 l47 29 83 -41 c45 -22 105 -45 132 -51 162 -35 215 -44 255 -47 25 -1 87 -5 138 -9 104 -7 190 7 221 36 32 30 36 92 11 137 -28 50 -111 105 -193 127 -72 19 -68 14 -122 164 l-24 64 76 71 c42 39 91 80 108 91 18 11 55 44 81 74 27 30 84 90 127 135 117 122 115 138 -23 209 -91 48 -126 61 -232 91 -114 32 -145 21 -306 -113 -57 -47 -125 -100 -151 -118 l-46 -32 -7 37 c-3 20 -4 71 -1 112 8 109 -9 187 -50 226 -26 26 -42 33 -93 38 -34 3 -63 4 -65 2z m-2864 -450 c17 -30 17 -36 2 -82 -9 -27 -18 -67 -19 -89 -2 -22 -7 -33 -10 -25 -11 27 -31 209 -25 224 9 22 32 10 52 -28z m3151 -82 c91 -42 161 -105 149 -136 -5 -13 -104 -67 -160 -87 -16 -6 -61 -17 -98 -25 -90 -18 -96 -13 -111 96 -7 53 11 108 46 145 44 46 87 48 174 7z m-3102 -56 c4 -25 17 -94 30 -152 21 -96 21 -105 6 -91 -10 9 -26 15 -36 13 -15 -2 -20 6 -26 42 -10 69 -9 161 3 203 6 22 12 37 14 35 1 -1 6 -24 9 -50z m1631 -219 c27 -28 58 -70 68 -93 22 -48 35 -146 20 -146 -6 0 -13 25 -17 56 -9 78 -27 116 -87 179 -29 30 -48 55 -42 55 5 0 31 -23 58 -51z m-38 -22 c33 -34 55 -70 66 -102 22 -70 30 -142 17 -150 -6 -4 -10 8 -10 32 0 74 -38 163 -93 221 -28 28 -46 52 -41 52 6 0 34 -24 61 -53z m111 2 c21 -25 56 -119 48 -126 -2 -3 -7 6 -11 19 -14 49 -39 94 -69 127 -21 23 -24 29 -9 19 12 -8 31 -25 41 -39z m-161 -13 c38 -34 53 -58 71 -109 12 -36 21 -86 21 -113 l-2 -49 -8 62 c-11 87 -42 150 -101 206 -63 59 -47 62 19 3z m1318 -15 c3 -5 1 -12 -5 -16 -5 -3 -10 1 -10 9 0 18 6 21 15 7z m-1304 -73 c27 -41 33 -62 37 -124 3 -44 1 -74 -5 -74 -5 0 -10 27 -10 60 0 64 -20 121 -63 180 -14 19 -17 29 -8 22 9 -8 31 -36 49 -64z m1816 -5 c13 -32 26 -63 29 -68 3 -7 -33 -11 -101 -13 -96 -1 -105 0 -105 17 0 10 12 26 26 36 14 9 35 25 47 35 49 41 72 58 76 54 2 -2 15 -30 28 -61z m-463 49 c2 -4 -4 -9 -15 -9 -10 -1 -19 2 -19 8 0 11 27 12 34 1z m-2805 -179 c8 -27 22 -73 32 -103 10 -30 16 -57 14 -60 -2 -4 -18 -5 -34 -2 -32 4 -31 4 -66 102 -13 36 -26 73 -30 83 -6 15 -4 17 18 12 14 -4 28 -2 31 4 13 20 22 11 35 -36z m2021 37 c0 -5 -23 -20 -52 -33 l-52 -25 -18 23 c-10 13 -18 27 -18 32 0 4 32 9 70 9 39 1 70 -2 70 -6z m-193 -51 l22 -40 -25 -11 c-13 -6 -24 -14 -24 -18 0 -6 -73 -50 -84 -50 -7 0 39 105 60 138 20 30 26 28 51 -19z m-1379 -51 c-45 -79 -124 -188 -136 -188 -9 0 -4 12 16 38 16 20 42 62 58 92 28 52 50 79 67 80 4 0 2 -10 -5 -22z m547 -39 c14 -17 24 -33 22 -35 -2 -3 -20 3 -40 11 -20 8 -49 15 -64 15 l-28 1 24 19 c33 28 55 25 86 -11z m-707 -65 c-18 -25 -37 -48 -41 -51 -9 -5 -27 14 -27 30 0 6 88 67 98 67 2 0 -12 -21 -30 -46z m717 -4 l30 -20 -32 6 c-44 9 -43 -10 2 -32 45 -21 44 -31 -1 -36 -25 -3 -43 2 -60 14 -23 18 -23 20 -7 53 19 40 27 42 68 15z m466 -47 l41 -27 -33 -12 c-44 -16 -49 -16 -49 -1 0 7 -11 29 -25 50 l-26 37 25 -10 c14 -5 44 -22 67 -37z m-351 22 c0 -8 -4 -15 -10 -15 -5 0 -7 7 -4 15 4 8 8 15 10 15 2 0 4 -7 4 -15z m150 -65 c0 -5 -8 -10 -17 -10 -15 0 -16 2 -3 10 19 12 20 12 20 0z m1240 -34 c0 -8 -5 -27 -10 -42 l-11 -27 -24 23 c-31 29 -31 32 -2 46 32 16 47 16 47 0z m-2580 -26 c-14 -11 -28 -20 -32 -20 -5 0 -8 -7 -8 -15 0 -12 -14 -15 -67 -15 -36 0 -63 3 -60 6 7 7 166 62 182 63 6 0 -1 -8 -15 -19z m1286 -15 c16 -8 22 -15 14 -15 -8 1 -24 7 -34 15 -25 19 -16 19 20 0z m1152 -41 l23 -35 -48 6 c-99 13 -100 13 -51 40 24 13 45 24 48 24 3 0 15 -15 28 -35z m-1625 -631 c-10 -21 -35 -65 -57 -98 -39 -61 -104 -172 -161 -279 -17 -33 -36 -61 -42 -63 -9 -3 -19 33 -58 221 -14 66 -14 69 7 100 30 42 44 56 58 56 10 0 61 19 205 78 67 27 67 27 48 -15z m-403 -172 c0 -22 -107 -200 -120 -201 -12 0 -62 172 -52 182 5 5 42 22 83 37 78 29 89 27 89 -18z m60 -228 c0 -17 -23 -16 -88 5 l-52 17 47 73 47 72 23 -77 c13 -42 23 -83 23 -90z"/>
</g>
<path d="M 175.664 257.153 L 175.754 257.194 L 177.962 257.981 L 180.272 258.381 L 181.602 258.382 L 182.42 258.649 L 182.46 258.663 L 182.556 258.694 L 182.569 258.698 L 182.65 258.725 L 182.746 258.756 L 182.746 258.755 L 182.823 258.78 L 182.867 258.795 L 182.991 258.836 L 184.438 259.308 L 184.482 259.323 L 184.606 259.364 L 186.053 259.836 L 186.097 259.851 L 186.221 259.892 L 186.411 259.954 L 186.536 259.995 L 186.631 260.025 L 186.726 260.056 L 186.821 260.086 L 186.955 260.129 L 187.107 260.177 L 187.241 260.22 L 187.393 260.268 L 187.519 260.307 L 187.585 260.327 L 187.584 260.327 L 187.679 260.357 L 187.8 260.394 L 187.87 260.416 L 188.034 260.466 L 188.092 260.484 L 188.187 260.513 L 188.225 260.524 L 188.379 260.571 L 188.474 260.6 L 188.512 260.611 L 188.608 260.64 L 188.735 260.678 L 188.892 260.724 L 188.896 260.725 L 189.023 260.763 L 189.215 260.819 L 189.337 260.854 L 189.407 260.874 L 189.529 260.909 L 189.599 260.929 L 189.726 260.965 L 189.918 261.019 L 190.081 261.064 L 190.111 261.072 L 190.274 261.117 L 190.336 261.134 L 190.432 261.16 L 190.467 261.169 L 190.564 261.195 L 190.659 261.22 L 190.694 261.229 L 190.757 261.246 L 190.885 261.28 L 190.982 261.305 L 191.045 261.321 L 191.078 261.33 L 191.175 261.355 L 191.305 261.387 L 191.596 261.459 L 191.756 261.498 L 191.824 261.514 L 192.018 261.56 L 192.178 261.597 L 192.276 261.619 L 192.344 261.634 L 192.373 261.641 L 192.471 261.663 L 192.574 261.686 L 192.671 261.707 L 192.797 261.734 L 192.929 261.761 L 193.223 261.821 L 193.355 261.848 L 193.453 261.867 L 193.587 261.892 L 193.685 261.91 L 193.709 261.914 L 193.808 261.932 L 193.917 261.952 L 194.015 261.969 L 194.172 261.995 L 194.271 262.011 L 194.347 262.023 L 194.503 262.048 L 194.602 262.063 L 194.737 262.083 L 194.935 262.111 L 195.205 262.146 L 195.304 262.158 L 195.321 262.16 L 195.421 262.172 L 195.541 262.186 L 195.64 262.197 L 195.926 262.226 L 196.026 262.235 L 196.151 262.246 L 196.25 262.254 L 196.397 262.265 L 196.497 262.272 L 196.634 262.281 L 196.734 262.287 L 197.008 262.3 L 197.108 262.304 L 197.38 262.312 L 197.479 262.314 L 197.619 262.317 L 197.719 262.318 L 198.132 262.315 L 198.232 262.313 L 198.37 262.31 L 198.47 262.307 L 199.018 262.28 L 199.118 262.273 L 199.209 262.266 L 200.674 263.212 L 201.766 264.326 L 203.666 265.697 L 204.926 266.365 L 208 267.797 L 208.007 267.801 L 209.544 268.516 L 209.544 268.515 L 211.025 269.205 L 212.428 269.866 L 213.736 270.509 L 215.022 271.174 L 216.262 271.847 L 217.472 272.534 L 218.662 273.246 L 219.841 273.987 L 220.962 274.731 L 222.028 275.479 L 223.01 276.214 L 223.972 276.986 L 224.789 277.695 L 225.455 278.334 L 225.956 278.877 L 226.458 279.515 L 227.067 280.373 L 227.641 281.265 L 228.148 282.14 L 228.585 282.992 L 228.954 283.822 L 229.237 284.58 L 229.447 285.282 L 229.585 285.907 L 229.652 286.39 L 229.387 286.429 L 228.755 286.467 L 228.02 286.458 L 227.107 286.388 L 226.04 286.252 L 224.845 286.053 L 223.567 285.799 L 222.241 285.497 L 220.878 285.154 L 219.535 284.785 L 218.163 284.381 L 216.707 283.924 L 215.356 283.475 L 213.985 282.996 L 212.537 282.465 L 211.135 281.928 L 209.756 281.377 L 208.383 280.805 L 206.983 280.198 L 205.656 279.6 L 204.318 278.972 L 202.931 278.295 L 201.669 277.654 L 200.399 276.98 L 199.123 276.272 L 197.885 275.552 L 196.439 274.694 L 196.435 274.692 L 194.99 273.835 L 193.533 272.969 L 192.113 272.124 L 190.658 271.253 L 190.658 271.254 L 189.29 270.428 L 187.842 269.547 L 186.576 268.764 L 185.141 267.861 L 183.933 267.082 L 182.684 266.251 L 181.523 265.45 L 180.323 264.588 L 179.178 263.732 L 178.012 262.828 L 176.809 261.867 L 175.606 260.882 L 174.42 259.892 L 173.151 258.82 L 171.94 257.786 L 170.653 256.682 L 170.566 256.607 L 172.137 256.691 L 174.479 256.615 L 174.592 256.592 Z M 433.039 13.788 L 434.406 13.879 L 435.757 13.992 L 436.58 14.09 L 436.731 14.468 L 436.937 15.137 L 437.131 15.956 L 437.301 16.918 L 437.437 17.98 L 437.536 19.135 L 437.596 20.361 L 437.616 21.602 L 437.599 22.93 L 437.546 24.3 L 437.451 25.832 L 437.449 25.873 L 437.349 27.566 L 437.333 27.906 L 437.275 29.6 L 437.268 29.893 L 437.246 31.589 L 437.245 31.856 L 437.256 33.551 L 437.262 33.868 L 437.312 35.563 L 437.332 36.001 L 437.436 37.693 L 437.546 38.781 L 437.676 39.701 L 437.587 39.753 L 437.501 39.804 L 437.339 39.902 L 437.169 40.006 L 436.971 40.129 L 436.886 40.183 L 436.824 40.223 L 436.74 40.277 L 436.58 40.381 L 436.497 40.436 L 436.402 40.5 L 436.319 40.556 L 436.161 40.664 L 435.997 40.778 L 435.905 40.843 L 435.823 40.901 L 435.668 41.012 L 435.587 41.071 L 435.521 41.119 L 435.441 41.178 L 435.352 41.244 L 435.192 41.364 L 434.953 41.548 L 434.874 41.61 L 434.807 41.663 L 434.651 41.787 L 434.567 41.854 L 434.489 41.917 L 434.34 42.039 L 434.263 42.103 L 434.182 42.171 L 434.118 42.225 L 434.042 42.289 L 433.815 42.485 L 433.808 42.491 L 433.732 42.557 L 433.664 42.617 L 433.589 42.683 L 433.444 42.812 L 433.296 42.946 L 433.152 43.078 L 432.933 43.282 L 432.86 43.351 L 432.792 43.417 L 432.648 43.555 L 432.576 43.623 L 432.504 43.693 L 432.436 43.761 L 432.365 43.831 L 432.295 43.899 L 432.224 43.97 L 432.156 44.04 L 432.086 44.111 L 432.018 44.179 L 431.948 44.251 L 431.946 44.254 L 431.744 44.462 L 431.675 44.535 L 431.471 44.754 L 431.407 44.823 L 431.339 44.897 L 431.271 44.972 L 431.204 45.046 L 431.075 45.191 L 430.877 45.416 L 430.749 45.563 L 430.619 45.715 L 430.494 45.863 L 430.366 46.017 L 430.299 46.099 L 430.236 46.176 L 430.181 46.243 L 430.118 46.321 L 430.051 46.405 L 429.989 46.483 L 429.936 46.55 L 429.874 46.629 L 429.807 46.714 L 429.685 46.872 L 429.634 46.939 L 429.573 47.019 L 429.507 47.106 L 429.447 47.186 L 429.381 47.275 L 429.322 47.355 L 429.274 47.421 L 429.156 47.583 L 429.045 47.738 L 428.987 47.82 L 428.967 47.847 L 428.91 47.928 L 428.821 48.057 L 428.808 48.076 L 428.751 48.158 L 428.643 48.316 L 428.587 48.399 L 428.523 48.494 L 428.468 48.577 L 428.427 48.64 L 428.413 48.661 L 428.358 48.744 L 428.254 48.904 L 428.2 48.988 L 428.16 49.05 L 428.106 49.135 L 428.044 49.234 L 427.991 49.319 L 427.93 49.418 L 427.916 49.441 L 427.886 49.489 L 427.763 49.689 L 427.712 49.774 L 427.676 49.835 L 427.625 49.921 L 427.59 49.981 L 427.539 50.068 L 427.464 50.197 L 427.429 50.256 L 427.379 50.343 L 427.32 50.447 L 427.222 50.621 L 427.132 50.785 L 427.036 50.961 L 426.978 51.067 L 426.884 51.243 L 426.798 51.408 L 426.706 51.586 L 426.65 51.695 L 426.605 51.784 L 426.525 51.945 L 426.516 51.963 L 426.38 52.24 L 426.354 52.295 L 426.321 52.363 L 426.24 52.534 L 426.198 52.624 L 426.173 52.677 L 426.089 52.859 L 426.037 52.972 L 425.955 53.154 L 425.882 53.32 L 425.864 53.362 L 425.824 53.453 L 425.752 53.619 L 425.713 53.711 L 425.692 53.76 L 425.653 53.853 L 425.625 53.922 L 425.587 54.014 L 425.519 54.18 L 425.503 54.221 L 425.492 54.248 L 425.398 54.485 L 425.29 54.764 L 425.227 54.93 L 425.157 55.118 L 425.112 55.239 L 425.078 55.333 L 425.034 55.456 L 424.968 55.644 L 424.954 55.686 L 424.921 55.781 L 424.879 55.904 L 424.847 55.999 L 424.806 56.123 L 424.713 56.408 L 424.672 56.533 L 424.642 56.628 L 424.592 56.792 L 424.534 56.984 L 424.496 57.111 L 424.412 57.399 L 424.376 57.526 L 424.349 57.622 L 424.304 57.785 L 424.287 57.847 L 424.261 57.943 L 424.218 58.106 L 424.168 58.3 L 424.136 58.43 L 424.112 58.527 L 424.08 58.657 L 424.066 58.717 L 424.065 58.721 L 423.996 59.011 L 423.981 59.08 L 423.959 59.177 L 423.952 59.206 L 423.93 59.304 L 423.901 59.435 L 423.88 59.533 L 423.853 59.665 L 423.793 59.959 L 423.766 60.091 L 423.747 60.189 L 423.722 60.323 L 423.686 60.519 L 423.658 60.676 L 423.624 60.874 L 423.606 60.985 L 423.59 61.083 L 423.586 61.105 L 423.57 61.204 L 423.549 61.338 L 423.519 61.536 L 423.499 61.671 L 423.485 61.77 L 423.472 61.869 L 423.458 61.968 L 423.423 62.238 L 423.399 62.436 L 423.381 62.588 L 423.372 62.673 L 423.361 62.772 L 423.345 62.922 L 423.336 63.008 L 423.326 63.107 L 423.312 63.257 L 423.304 63.344 L 423.295 63.443 L 423.283 63.592 L 423.267 63.792 L 423.256 63.928 L 423.249 64.028 L 423.241 64.157 L 423.235 64.256 L 423.234 64.264 L 423.228 64.364 L 423.221 64.501 L 423.211 64.701 L 423.205 64.838 L 423.197 65.038 L 423.192 65.175 L 423.189 65.275 L 423.186 65.413 L 423.18 65.713 L 423.177 65.85 L 423.176 65.95 L 423.176 66.426 L 423.178 66.626 L 423.181 66.763 L 423.183 66.863 L 423.186 67.001 L 423.192 67.201 L 423.197 67.338 L 423.201 67.438 L 423.201 67.443 L 423.205 67.542 L 423.211 67.674 L 423.221 67.874 L 423.228 68.011 L 423.24 68.211 L 423.249 68.348 L 423.256 68.448 L 423.267 68.595 L 423.275 68.694 L 423.276 68.694 L 423.283 68.783 L 423.294 68.919 L 423.303 69.019 L 423.317 69.169 L 423.321 69.206 L 423.322 69.218 L 423.351 69.504 L 423.373 69.702 L 423.387 69.822 L 423.399 69.922 L 423.401 69.939 L 423.413 70.038 L 423.43 70.173 L 423.443 70.272 L 423.461 70.407 L 423.469 70.465 L 423.47 70.47 L 423.488 70.605 L 423.54 70.97 L 423.557 71.1 L 423.571 71.199 L 423.572 71.199 L 423.583 71.281 L 423.585 71.299 L 423.641 71.695 L 423.659 71.814 L 423.67 71.893 L 423.673 71.913 L 423.687 72.011 L 423.704 72.126 L 423.705 72.135 L 423.733 72.324 L 423.742 72.387 L 423.762 72.522 L 423.852 73.116 L 423.855 73.137 L 423.87 73.235 L 423.888 73.348 L 423.889 73.352 L 423.898 73.412 L 423.919 73.546 L 423.932 73.624 L 423.945 73.708 L 423.966 73.842 L 423.982 73.941 L 424.004 74.074 L 424.015 74.138 L 424.031 74.237 L 424.053 74.37 L 424.07 74.469 L 424.074 74.493 L 424.091 74.591 L 424.104 74.666 L 424.108 74.69 L 424.121 74.764 L 424.138 74.863 L 424.166 75.02 L 424.179 75.089 L 423.219 76 L 423.155 76.077 L 421.938 77.792 L 421.887 77.877 L 421.09 79.42 L 421.05 79.511 L 420.707 80.367 L 420.673 80.461 L 420.367 81.416 L 420.34 81.512 L 420.167 82.194 L 420.145 82.291 L 420.055 82.715 L 420.036 82.813 L 419.943 83.35 L 419.928 83.448 L 419.887 83.739 L 419.874 83.838 L 419.826 84.246 L 419.816 84.345 L 419.781 84.758 L 419.774 84.857 L 419.764 85.003 L 419.758 85.103 L 419.751 85.233 L 419.746 85.332 L 419.732 85.751 L 419.73 85.848 L 419.728 85.947 L 419.725 86.363 L 419.726 86.463 L 419.743 87.019 L 419.748 87.118 L 419.815 87.943 L 419.826 88.042 L 419.968 89.008 L 419.986 89.106 L 420.195 90.055 L 420.22 90.152 L 420.519 91.152 L 420.551 91.246 L 421.031 92.464 L 421.072 92.555 L 421.722 93.818 L 421.772 93.904 L 422.71 95.31 L 422.77 95.389 L 423.929 96.727 L 423.999 96.798 L 425.72 98.278 L 425.8 98.336 L 427.779 99.53 L 427.868 99.574 L 427.911 99.59 L 428.797 100.296 L 428.879 100.354 L 430.027 101.084 L 430.115 101.134 L 430.981 101.586 L 431.071 101.629 L 431.798 101.951 L 431.891 101.989 L 432.703 102.291 L 432.798 102.323 L 433.501 102.539 L 433.598 102.566 L 434.273 102.736 L 434.371 102.758 L 434.792 102.846 L 434.891 102.865 L 435.423 102.956 L 435.522 102.971 L 436.079 103.044 L 436.179 103.055 L 436.45 103.082 L 436.55 103.091 L 437.096 103.129 L 437.196 103.134 L 437.611 103.149 L 437.712 103.151 L 438.122 103.153 L 438.222 103.152 L 438.497 103.146 L 438.597 103.143 L 439 103.125 L 439.101 103.119 L 439.124 103.117 L 439.165 103.116 L 439.266 103.111 L 439.547 103.095 L 439.647 103.088 L 440.19 103.039 L 440.29 103.028 L 440.712 102.975 L 440.811 102.961 L 441.346 102.874 L 441.445 102.856 L 441.867 102.773 L 441.965 102.752 L 442.644 102.588 L 442.741 102.562 L 443.407 102.366 L 443.503 102.335 L 444.076 102.135 L 444.17 102.1 L 444.969 101.774 L 445.061 101.733 L 445.778 101.388 L 445.867 101.342 L 446.928 100.733 L 447.013 100.679 L 447.956 100.022 L 448.035 99.962 L 449.236 98.936 L 449.309 98.866 L 450.61 97.43 L 450.672 97.351 L 452.071 95.174 L 452.117 95.085 L 453.25 92.072 L 453.274 91.975 L 453.429 91.003 L 453.489 90.989 L 453.5 90.986 L 453.524 90.981 L 453.553 90.974 L 453.65 90.952 L 453.781 90.922 L 453.792 90.919 L 453.816 90.914 L 453.976 90.877 L 453.987 90.874 L 454.011 90.869 L 454.171 90.832 L 454.335 90.793 L 454.433 90.77 L 454.463 90.763 L 454.48 90.759 L 454.498 90.755 L 454.658 90.718 L 454.822 90.679 L 454.844 90.674 L 454.852 90.672 L 454.92 90.656 L 454.95 90.649 L 455.144 90.603 L 455.255 90.576 L 455.309 90.563 L 455.339 90.556 L 455.533 90.51 L 455.651 90.481 L 455.698 90.47 L 455.858 90.431 L 455.938 90.411 L 456.019 90.392 L 456.149 90.36 L 456.229 90.34 L 456.281 90.328 L 456.441 90.289 L 456.635 90.241 L 456.765 90.209 L 456.862 90.184 L 457.12 90.12 L 457.25 90.088 L 457.347 90.063 L 457.444 90.039 L 457.638 89.989 L 457.734 89.965 L 458.152 89.857 L 458.07 89.969 L 458.012 90.05 L 457.966 90.115 L 457.908 90.197 L 457.671 90.542 L 457.616 90.625 L 457.575 90.688 L 457.52 90.772 L 457.355 91.03 L 457.302 91.115 L 457.143 91.376 L 457.092 91.462 L 456.997 91.624 L 456.947 91.711 L 456.83 91.921 L 456.782 92.008 L 456.606 92.337 L 456.56 92.426 L 456.422 92.7 L 456.378 92.79 L 456.246 93.068 L 456.204 93.159 L 456.029 93.554 L 455.99 93.646 L 455.827 94.049 L 455.791 94.142 L 455.639 94.552 L 455.606 94.646 L 455.456 95.099 L 455.426 95.195 L 455.269 95.737 L 455.243 95.834 L 455.085 96.485 L 455.064 96.582 L 454.908 97.432 L 454.893 97.531 L 454.806 98.223 L 454.796 98.323 L 454.734 99.279 L 454.731 99.379 L 454.728 100.067 L 454.73 100.167 L 454.738 100.442 L 454.742 100.542 L 454.775 101.1 L 454.783 101.199 L 454.856 101.882 L 454.869 101.981 L 454.974 102.651 L 454.992 102.75 L 455.205 103.723 L 455.23 103.82 L 455.571 104.943 L 455.604 105.037 L 456.094 106.245 L 456.136 106.336 L 456.892 107.751 L 456.944 107.836 L 457.673 108.911 L 457.733 108.991 L 458.807 110.255 L 458.876 110.327 L 459.788 111.196 L 459.864 111.262 L 460.875 112.06 L 460.956 112.118 L 461.847 112.705 L 461.933 112.757 L 462.844 113.262 L 462.933 113.307 L 463.489 113.573 L 463.58 113.614 L 464.146 113.854 L 464.239 113.891 L 464.933 114.145 L 465.028 114.177 L 465.277 114.259 L 465.372 114.289 L 465.953 114.458 L 466.05 114.484 L 466.308 114.55 L 466.405 114.574 L 466.666 114.636 L 466.763 114.658 L 467.055 114.721 L 467.153 114.741 L 467.443 114.797 L 467.542 114.815 L 467.651 114.835 L 467.749 114.852 L 468.04 114.899 L 468.139 114.914 L 468.274 114.934 L 468.472 114.962 L 468.894 115.015 L 468.994 115.026 L 469.214 115.051 L 469.313 115.061 L 469.327 115.062 L 469.427 115.072 L 469.563 115.085 L 469.663 115.094 L 469.788 115.105 L 469.887 115.113 L 469.898 115.113 L 469.998 115.121 L 470.134 115.132 L 470.234 115.139 L 470.324 115.145 L 470.47 115.155 L 470.77 115.173 L 470.907 115.18 L 471.107 115.19 L 471.244 115.196 L 471.644 115.212 L 471.777 115.217 L 471.843 115.219 L 471.98 115.224 L 472.08 115.227 L 472.201 115.23 L 472.28 115.232 L 472.418 115.235 L 473.018 115.247 L 473.155 115.25 L 473.555 115.254 L 473.655 115.256 L 473.755 115.257 L 473.857 115.257 L 473.958 115.258 L 474.056 115.258 L 474.256 115.26 L 474.556 115.26 L 474.656 115.261 L 475.432 115.261 L 475.532 115.26 L 475.832 115.26 L 475.932 115.259 L 476.032 115.259 L 476.232 115.257 L 476.332 115.257 L 476.432 115.256 L 476.532 115.256 L 476.732 115.254 L 476.832 115.254 L 476.932 115.253 L 477.032 115.253 L 477.232 115.251 L 477.332 115.251 L 478.232 115.242 L 478.332 115.242 L 479.132 115.234 L 479.407 115.228 L 479.707 115.219 L 479.844 115.214 L 479.855 115.214 L 480.207 115.203 L 480.344 115.198 L 480.355 115.198 L 480.407 115.196 L 480.544 115.191 L 480.555 115.191 L 480.707 115.186 L 480.844 115.181 L 481.055 115.173 L 481.107 115.171 L 481.244 115.166 L 481.444 115.158 L 481.449 115.158 L 482.043 115.134 L 482.18 115.128 L 482.228 115.126 L 482.243 115.125 L 482.38 115.119 L 482.428 115.117 L 482.443 115.116 L 482.58 115.11 L 482.628 115.108 L 482.643 115.107 L 482.78 115.101 L 482.88 115.096 L 482.887 115.096 L 482.986 115.091 L 483.579 115.061 L 483.716 115.054 L 483.816 115.048 L 483.924 115.042 L 484.015 115.036 L 484.015 115.037 L 484.103 115.032 L 484.215 115.026 L 484.415 115.014 L 484.552 115.005 L 484.614 115.001 L 484.814 114.989 L 484.951 114.98 L 485.151 114.966 L 485.156 114.965 L 485.213 114.962 L 485.45 114.945 L 485.55 114.938 L 485.559 114.937 L 485.658 114.93 L 485.785 114.92 L 486.085 114.896 L 486.096 114.896 L 486.195 114.888 L 486.195 114.887 L 486.384 114.872 L 486.533 114.86 L 486.819 114.834 L 486.832 114.833 L 486.931 114.824 L 487.054 114.812 L 487.064 114.811 L 487.13 114.805 L 487.253 114.793 L 487.353 114.783 L 487.367 114.782 L 487.466 114.772 L 487.552 114.763 L 487.702 114.747 L 487.786 114.738 L 487.886 114.727 L 488.038 114.709 L 488.06 114.706 L 488.099 114.702 L 488.219 114.688 L 488.319 114.676 L 488.471 114.657 L 488.768 114.618 L 488.903 114.6 L 489.101 114.572 L 489.236 114.552 L 489.434 114.522 L 489.568 114.501 L 489.667 114.485 L 489.824 114.459 L 489.886 114.448 L 490.854 115.108 L 493.611 116.559 L 495.189 117.173 L 496.421 117.586 L 498.052 118.049 L 498.287 118.114 L 499.687 118.485 L 500.804 118.823 L 501.819 119.181 L 502.847 119.594 L 503.883 120.059 L 504.92 120.576 L 505.914 121.122 L 506.618 121.547 L 505.583 121.582 L 504.171 121.594 L 502.825 121.572 L 501.436 121.52 L 500.045 121.436 L 498.431 121.312 L 498.374 121.308 L 496.683 121.185 L 496.65 121.183 L 494.958 121.064 L 494.927 121.061 L 493.236 120.946 L 493.195 120.944 L 491.503 120.834 L 491.454 120.831 L 489.762 120.727 L 489.713 120.724 L 488.02 120.626 L 487.898 120.619 L 486.482 120.55 L 485.301 120.443 L 484.015 120.284 L 482.595 120.074 L 481.205 119.843 L 479.623 119.562 L 477.999 119.259 L 476.421 118.954 L 474.88 118.648 L 473.268 118.321 L 471.608 117.978 L 469.987 117.64 L 468.327 117.292 L 466.711 116.948 L 466.711 116.949 L 465.076 116.598 L 463.598 116.281 L 462.571 116.03 L 461.576 115.719 L 460.344 115.289 L 459.03 114.797 L 457.614 114.237 L 456.356 113.715 L 454.978 113.116 L 453.655 112.512 L 452.376 111.894 L 446.323 108.903 L 446.32 108.902 L 444.799 108.151 L 442.617 107.296 L 440.321 106.824 L 437.979 106.748 L 435.657 107.071 L 433.115 107.917 L 431.661 108.564 L 430.026 109.428 L 428.589 110.315 L 427.146 111.205 L 426.936 111.337 L 425.509 112.253 L 424.807 112.734 L 423.44 113.736 L 422.793 114.242 L 421.488 115.324 L 420.774 115.958 L 419.547 117.128 L 418.472 118.278 L 417.388 119.579 L 416.046 121.501 L 415.564 122.453 L 415.014 122.202 L 414.921 122.165 L 413.687 121.741 L 413.591 121.713 L 412.49 121.441 L 412.392 121.421 L 411.567 121.278 L 411.468 121.264 L 410.639 121.173 L 410.539 121.165 L 409.855 121.127 L 409.755 121.124 L 409.067 121.121 L 408.967 121.123 L 408.418 121.144 L 408.318 121.15 L 407.896 121.182 L 407.797 121.191 L 407.387 121.235 L 407.288 121.247 L 406.883 121.302 L 406.784 121.317 L 406.517 121.36 L 406.418 121.377 L 405.995 121.457 L 405.897 121.477 L 405.634 121.533 L 405.536 121.555 L 405.376 121.592 L 405.279 121.615 L 405.019 121.679 L 404.922 121.704 L 404.631 121.783 L 404.535 121.81 L 404.408 121.846 L 404.312 121.874 L 404.185 121.912 L 404.089 121.941 L 403.925 121.991 L 403.83 122.021 L 403.581 122.103 L 403.391 122.167 L 403.103 122.267 L 402.915 122.335 L 402.794 122.38 L 402.7 122.415 L 402.534 122.478 L 402.348 122.55 L 402.111 122.644 L 402.018 122.682 L 401.97 122.702 L 401.926 122.72 L 401.833 122.758 L 401.667 122.827 L 401.575 122.866 L 401.409 122.938 L 401.368 122.956 L 401.276 122.996 L 401.11 123.069 L 401.019 123.11 L 400.979 123.128 L 400.761 123.228 L 400.724 123.245 L 400.542 123.329 L 400.376 123.407 L 400.196 123.493 L 400.084 123.547 L 399.814 123.679 L 399.703 123.734 L 399.635 123.767 L 399.365 123.899 L 399.2 123.981 L 399.076 124.043 L 399.021 124.071 L 398.932 124.116 L 398.823 124.172 L 398.734 124.218 L 398.569 124.304 L 398.511 124.335 L 398.449 124.368 L 398.228 124.488 L 398.199 124.504 L 398.111 124.552 L 397.843 124.701 L 397.756 124.751 L 397.594 124.846 L 397.508 124.897 L 397.346 124.995 L 397.261 125.047 L 397.001 125.21 L 396.917 125.264 L 396.662 125.432 L 396.579 125.488 L 396.421 125.596 L 396.339 125.653 L 395.85 126.009 L 395.77 126.07 L 395.4 126.363 L 395.323 126.426 L 394.946 126.746 L 394.871 126.812 L 394.575 127.089 L 394.197 127.037 L 391.829 127.122 L 391.731 127.134 L 389.299 127.658 L 389.203 127.688 L 388.583 127.898 L 388.49 127.932 L 388.01 128.118 L 387.917 128.156 L 387.751 128.225 L 387.659 128.264 L 387.543 128.314 L 387.451 128.354 L 387.285 128.427 L 387.194 128.468 L 387.028 128.545 L 386.878 128.615 L 386.787 128.658 L 386.734 128.683 L 386.554 128.769 L 386.442 128.823 L 386.262 128.911 L 386.208 128.938 L 386.119 128.982 L 386.063 129.009 L 385.973 129.054 L 385.918 129.082 L 385.795 129.144 L 385.705 129.189 L 385.65 129.217 L 385.561 129.262 L 385.456 129.316 L 385.383 129.353 L 385.217 129.438 L 385.129 129.484 L 384.919 129.593 L 384.862 129.622 L 384.774 129.668 L 384.742 129.685 L 384.634 129.741 L 384.596 129.761 L 384.508 129.807 L 384.457 129.834 L 384.419 129.854 L 384.331 129.9 L 384.223 129.957 L 384.154 129.994 L 384.066 130.04 L 383.958 130.097 L 383.87 130.144 L 383.838 130.161 L 383.781 130.191 L 383.693 130.238 L 383.605 130.286 L 383.341 130.427 L 383.309 130.444 L 383.252 130.474 L 382.988 130.615 L 382.9 130.663 L 382.812 130.71 L 382.724 130.758 L 382.636 130.805 L 382.548 130.853 L 382.46 130.9 L 382.372 130.948 L 382.284 130.995 L 382.178 131.053 L 382.09 131.101 L 382.003 131.149 L 381.915 131.197 L 381.751 131.287 L 381.7 131.316 L 381.595 131.374 L 381.548 131.4 L 381.491 131.432 L 381.42 131.471 L 381.314 131.529 L 381.27 131.554 L 381.139 131.626 L 380.704 131.871 L 380.6 131.93 L 380.55 131.959 L 380.53 131.97 L 380.426 132.029 L 380.339 132.079 L 380.28 132.114 L 380.194 132.164 L 380.091 132.224 L 379.833 132.377 L 379.732 132.438 L 379.646 132.49 L 379.585 132.527 L 379.415 132.631 L 379.155 132.794 L 379.133 132.808 L 379.048 132.862 L 378.826 133.006 L 378.743 133.061 L 378.648 133.125 L 378.565 133.181 L 378.501 133.224 L 378.419 133.28 L 378.078 133.521 L 377.997 133.58 L 377.931 133.628 L 377.851 133.687 L 377.523 133.937 L 377.444 133.999 L 377.144 134.241 L 377.067 134.305 L 376.627 134.687 L 376.553 134.754 L 376.196 135.088 L 376.124 135.158 L 375.447 135.865 L 375.381 135.939 L 374.593 136.908 L 374.533 136.989 L 373.543 138.532 L 373.495 138.619 L 372.371 141.286 L 372.342 141.382 L 371.857 143.676 L 371.754 145.5 L 371.755 145.599 L 371.979 147.932 L 372.591 150.184 L 372.625 150.277 L 373.615 152.402 L 374.54 153.808 L 374.6 153.888 L 376.441 155.893 L 376.516 155.96 L 377.829 156.997 L 377.911 157.054 L 379.012 157.745 L 379.099 157.794 L 379.92 158.22 L 380.01 158.263 L 380.455 158.466 L 380.547 158.506 L 381.066 158.719 L 381.159 158.755 L 381.569 158.907 L 381.663 158.94 L 381.952 159.037 L 382.047 159.068 L 382.336 159.159 L 382.432 159.188 L 382.686 159.262 L 382.878 159.316 L 383.169 159.395 L 383.266 159.42 L 383.526 159.484 L 383.623 159.507 L 383.653 159.514 L 383.721 159.53 L 383.818 159.553 L 384.109 159.619 L 384.179 159.634 L 384.276 159.655 L 384.436 159.688 L 384.632 159.728 L 384.764 159.755 L 384.862 159.774 L 384.888 159.779 L 384.987 159.798 L 385.095 159.818 L 385.291 159.854 L 385.315 159.858 L 385.414 159.876 L 385.523 159.896 L 385.621 159.913 L 385.645 159.917 L 385.72 159.93 L 385.818 159.947 L 385.975 159.973 L 386.074 159.989 L 386.15 160.001 L 386.172 160.005 L 386.37 160.037 L 386.446 160.049 L 386.602 160.074 L 386.636 160.079 L 386.666 160.084 L 386.8 160.105 L 386.977 160.132 L 387.075 160.147 L 387.231 160.17 L 387.285 160.178 L 387.294 160.179 L 387.483 160.207 L 387.492 160.208 L 387.627 160.228 L 387.78 160.25 L 387.789 160.251 L 387.924 160.271 L 388.023 160.285 L 388.147 160.302 L 388.617 160.368 L 388.741 160.384 L 388.815 160.395 L 388.939 160.411 L 389.013 160.422 L 389.137 160.439 L 389.211 160.449 L 389.436 160.479 L 389.508 160.489 L 389.643 160.507 L 389.832 160.532 L 389.904 160.542 L 390.039 160.56 L 390.237 160.586 L 390.254 160.588 L 390.337 160.599 L 391.021 160.689 L 391.093 160.699 L 391.245 160.719 L 391.328 160.73 L 392.021 160.821 L 392.156 160.838 L 392.216 160.845 L 392.237 160.848 L 392.355 160.863 L 392.481 160.878 L 392.517 160.883 L 392.652 160.9 L 392.712 160.907 L 392.733 160.91 L 392.851 160.925 L 392.977 160.94 L 393.013 160.945 L 393.148 160.962 L 393.208 160.969 L 393.229 160.972 L 393.347 160.987 L 393.473 161.002 L 393.509 161.007 L 393.644 161.024 L 393.671 161.027 L 393.707 161.032 L 393.859 161.051 L 393.942 161.061 L 393.969 161.064 L 394.005 161.069 L 394.14 161.086 L 394.299 161.105 L 394.32 161.108 L 394.438 161.123 L 394.465 161.126 L 394.501 161.131 L 394.636 161.148 L 394.762 161.163 L 394.798 161.168 L 394.95 161.187 L 394.965 161.189 L 394.997 161.193 L 395.132 161.21 L 395.258 161.225 L 395.294 161.23 L 395.446 161.249 L 395.461 161.251 L 395.493 161.255 L 395.628 161.272 L 395.754 161.287 L 395.79 161.292 L 395.925 161.309 L 395.985 161.316 L 396.006 161.319 L 396.124 161.334 L 396.25 161.349 L 396.286 161.354 L 396.421 161.371 L 396.481 161.378 L 396.502 161.381 L 396.62 161.396 L 396.746 161.411 L 396.782 161.416 L 396.787 161.416 L 396.818 161.42 L 396.818 161.418 L 399.123 161.522 L 401.449 161.229 L 403.69 160.546 L 405.784 159.492 L 407.668 158.098 L 409.072 156.631 L 410.496 156.534 L 412.653 156.01 L 412.937 156.507 L 414.269 158.435 L 415.91 160.109 L 417.481 161.277 L 418.903 162.184 L 422.005 163.654 L 423.614 164.183 L 425.402 164.641 L 427.068 164.95 L 428.198 165.111 L 429.885 165.281 L 430.663 165.337 L 432.356 165.411 L 432.632 165.42 L 433.893 165.45 L 434.983 165.545 L 436.423 165.704 L 437.943 165.891 L 439.614 166.109 L 441.221 166.327 L 442.803 166.548 L 442.803 166.549 L 444.44 166.783 L 446.069 167.021 L 447.746 167.272 L 447.746 167.271 L 449.367 167.516 L 451.043 167.774 L 452.693 168.031 L 454.319 168.287 L 455.969 168.55 L 455.969 168.551 L 457.643 168.821 L 459.269 169.086 L 460.924 169.359 L 462.565 169.632 L 464.213 169.91 L 465.885 170.195 L 465.885 170.194 L 467.506 170.474 L 469.153 170.761 L 470.823 171.055 L 472.459 171.347 L 472.484 171.351 L 474.154 171.646 L 474.177 171.651 L 475.847 171.943 L 475.88 171.948 L 477.551 172.236 L 477.592 172.243 L 479.264 172.526 L 479.296 172.532 L 480.968 172.811 L 481.025 172.82 L 482.699 173.092 L 482.772 173.104 L 484.447 173.367 L 484.617 173.392 L 486.295 173.634 L 486.523 173.665 L 487.983 173.851 L 489.232 174.051 L 490.558 174.301 L 491.925 174.595 L 493.242 174.909 L 494.662 175.278 L 495.992 175.651 L 497.413 176.08 L 498.763 176.512 L 500.19 176.996 L 501.541 177.481 L 502.945 178.011 L 504.243 178.527 L 505.613 179.1 L 506.944 179.683 L 508.216 180.269 L 509.462 180.878 L 510.663 181.5 L 511.941 182.198 L 513.086 182.857 L 514.326 183.608 L 515.45 184.323 L 516.658 185.127 L 517.792 185.918 L 518.945 186.759 L 520.059 187.609 L 521.142 188.471 L 522.22 189.366 L 523.261 190.272 L 524.335 191.246 L 525.319 192.179 L 526.321 193.174 L 527.226 194.113 L 528.184 195.157 L 529.079 196.18 L 529.922 197.195 L 530.746 198.242 L 531.513 199.272 L 532.284 200.372 L 532.966 201.413 L 533.593 202.441 L 534.195 203.509 L 534.732 204.552 L 535.194 205.544 L 535.605 206.538 L 535.938 207.469 L 536.202 208.354 L 536.394 209.165 L 536.512 209.874 L 536.554 210.347 L 536.55 210.755 L 536.493 211.343 L 536.375 212.013 L 536.197 212.725 L 535.95 213.495 L 535.656 214.241 L 535.322 214.949 L 534.962 215.597 L 534.604 216.142 L 534.276 216.566 L 534.046 216.814 L 533.739 217.08 L 532.991 217.63 L 531.862 218.416 L 530.678 219.198 L 529.485 219.952 L 528.244 220.704 L 527.018 221.421 L 525.651 222.192 L 524.374 222.888 L 522.954 223.637 L 521.718 224.269 L 520.232 225.006 L 518.95 225.624 L 517.52 226.292 L 516.118 226.927 L 514.702 227.55 L 513.332 228.133 L 511.875 228.735 L 510.428 229.312 L 508.977 229.871 L 507.669 230.356 L 506.159 230.895 L 504.758 231.372 L 503.302 231.845 L 501.94 232.264 L 500.562 232.662 L 499.139 233.045 L 497.841 233.364 L 496.493 233.661 L 495.258 233.897 L 494.012 234.094 L 492.676 234.266 L 491.236 234.421 L 489.728 234.556 L 488.304 234.662 L 486.703 234.759 L 485.194 234.834 L 483.671 234.894 L 482.076 234.941 L 480.52 234.974 L 478.934 234.993 L 477.318 235.001 L 475.703 234.996 L 474.194 234.98 L 472.589 234.952 L 470.91 234.909 L 469.329 234.859 L 467.79 234.798 L 466.218 234.725 L 464.542 234.634 L 463.012 234.538 L 461.434 234.427 L 459.93 234.307 L 458.32 234.164 L 456.716 234.004 L 455.256 233.842 L 453.764 233.656 L 452.356 233.458 L 450.918 233.23 L 449.595 232.99 L 448.425 232.742 L 447.044 232.39 L 446.551 232.274 L 444.895 231.916 L 444.017 231.756 L 442.34 231.506 L 441.845 231.442 L 440.16 231.253 L 439.746 231.212 L 438.056 231.074 L 437.642 231.047 L 435.949 230.96 L 435.454 230.943 L 433.866 230.919 L 432.659 230.875 L 431.565 230.787 L 430.516 230.657 L 429.659 230.508 L 429.265 230.409 L 428.385 230.081 L 427.57 229.806 L 425.947 229.314 L 425.308 229.137 L 423.664 228.724 L 423.208 228.618 L 421.55 228.261 L 421.146 228.18 L 419.479 227.873 L 419.031 227.799 L 417.354 227.547 L 417.209 227.525 L 415.53 227.291 L 415.53 227.292 L 414.008 227.077 L 412.563 226.853 L 411.247 226.612 L 409.898 226.329 L 408.455 225.999 L 406.879 225.621 L 405.288 225.23 L 403.691 224.831 L 402.087 224.425 L 400.469 224.015 L 400.469 224.014 L 397.183 223.176 L 397.173 223.174 L 395.529 222.756 L 395.466 222.74 L 392.176 221.92 L 392.159 221.916 L 390.513 221.508 L 390.498 221.504 L 388.852 221.098 L 388.842 221.096 L 387.195 220.691 L 387.165 220.683 L 385.518 220.282 L 385.485 220.274 L 383.837 219.877 L 383.787 219.866 L 382.137 219.475 L 382.082 219.461 L 380.431 219.077 L 380.316 219.051 L 378.661 218.681 L 378.434 218.632 L 376.773 218.29 L 376.441 218.226 L 374.982 217.963 L 373.598 217.669 L 372.138 217.334 L 370.664 216.983 L 369.018 216.577 L 367.512 216.197 L 365.871 215.774 L 364.368 215.378 L 364.368 215.377 L 362.731 214.937 L 361.099 214.498 L 361.004 214.473 L 359.364 214.044 L 359.274 214.021 L 357.631 213.603 L 357.566 213.586 L 355.921 213.176 L 355.831 213.154 L 354.183 212.755 L 354.111 212.738 L 352.461 212.348 L 352.363 212.325 L 350.71 211.947 L 350.589 211.92 L 348.933 211.557 L 348.729 211.514 L 347.067 211.176 L 346.914 211.146 L 345.389 210.854 L 343.913 210.541 L 342.391 210.203 L 340.835 209.846 L 339.185 209.459 L 337.648 209.092 L 336.001 208.691 L 334.46 208.31 L 332.816 207.896 L 331.228 207.489 L 331.228 207.49 L 329.603 207.071 L 329.588 207.067 L 327.946 206.646 L 327.912 206.637 L 326.268 206.22 L 326.262 206.219 L 324.619 205.803 L 324.6 205.798 L 322.955 205.384 L 322.932 205.378 L 321.287 204.967 L 321.272 204.963 L 319.627 204.554 L 319.617 204.552 L 317.971 204.144 L 317.956 204.14 L 316.31 203.734 L 316.277 203.726 L 314.63 203.324 L 314.395 203.269 L 312.741 202.896 L 312.619 202.869 L 310.962 202.511 L 309.444 202.173 L 309.444 202.172 L 307.79 201.797 L 306.17 201.426 L 304.559 201.053 L 302.907 200.669 L 301.273 200.287 L 299.64 199.903 L 299.639 199.903 L 297.988 199.515 L 297.955 199.507 L 296.303 199.123 L 296.264 199.114 L 294.612 198.735 L 294.586 198.729 L 292.932 198.353 L 292.926 198.352 L 291.273 197.977 L 291.246 197.971 L 289.591 197.599 L 289.585 197.597 L 287.931 197.226 L 287.914 197.223 L 286.259 196.854 L 286.251 196.852 L 284.596 196.484 L 284.579 196.48 L 282.923 196.114 L 282.915 196.112 L 281.259 195.747 L 281.244 195.744 L 279.588 195.381 L 279.571 195.377 L 277.914 195.016 L 277.875 195.008 L 276.218 194.652 L 276.201 194.648 L 274.543 194.294 L 274.533 194.292 L 272.874 193.939 L 272.868 193.938 L 271.234 193.591 L 269.576 193.236 L 267.951 192.884 L 266.53 192.567 L 264.939 192.186 L 264.314 192.052 L 262.648 191.734 L 262.122 191.644 L 260.446 191.391 L 259.975 191.328 L 258.291 191.133 L 258.093 191.115 L 256.927 190.121 L 255.021 188.758 L 252.91 187.738 L 249.804 186.951 L 248.147 186.732 L 245.805 186.624 L 243.819 186.847 L 242.153 187.158 L 241.097 187.399 L 239.461 187.84 L 237.886 188.368 L 236.315 189.003 L 234.067 190.257 L 233.967 190.256 L 233.867 190.259 L 233.047 190.308 L 232.947 190.317 L 232.389 190.379 L 232.29 190.392 L 231.729 190.477 L 231.631 190.494 L 231.232 190.57 L 231.134 190.59 L 230.871 190.646 L 230.773 190.668 L 230.613 190.705 L 230.516 190.728 L 230.128 190.826 L 230.031 190.852 L 229.868 190.897 L 229.676 190.951 L 229.422 191.025 L 229.326 191.054 L 229.162 191.104 L 228.972 191.164 L 228.723 191.246 L 228.679 191.261 L 228.657 191.268 L 228.41 191.351 L 228.315 191.384 L 228.273 191.398 L 228.085 191.464 L 228.085 191.465 L 228.032 191.483 L 227.867 191.541 L 227.679 191.609 L 227.513 191.67 L 227.42 191.705 L 227.398 191.713 L 227.111 191.821 L 227.09 191.829 L 226.924 191.892 L 226.877 191.91 L 226.858 191.917 L 226.765 191.952 L 226.525 192.045 L 226.432 192.082 L 226.365 192.108 L 226.293 192.136 L 226.219 192.165 L 226.178 192.181 L 226.059 192.227 L 225.896 192.292 L 225.78 192.337 L 225.687 192.374 L 225.639 192.393 L 225.547 192.43 L 225.037 192.633 L 224.918 192.682 L 224.759 192.745 L 224.641 192.793 L 224.618 192.802 L 224.546 192.831 L 224.481 192.857 L 224.388 192.895 L 224.295 192.932 L 224.247 192.951 L 224.155 192.988 L 224.11 193.006 L 224.017 193.044 L 223.924 193.081 L 223.758 193.149 L 223.714 193.167 L 223.691 193.176 L 223.599 193.213 L 223.529 193.242 L 223.436 193.28 L 223.388 193.3 L 223.344 193.318 L 223.251 193.356 L 223.203 193.376 L 223.159 193.394 L 223.136 193.403 L 223.044 193.44 L 222.974 193.469 L 222.881 193.507 L 222.833 193.527 L 222.789 193.545 L 222.603 193.621 L 222.585 193.629 L 222.536 193.648 L 222.37 193.716 L 222.326 193.734 L 222.233 193.772 L 222.185 193.792 L 222.141 193.81 L 222.048 193.848 L 222.034 193.854 L 221.981 193.875 L 221.815 193.943 L 221.771 193.961 L 221.678 193.999 L 221.63 194.019 L 221.586 194.037 L 221.47 194.084 L 221.378 194.121 L 221.308 194.15 L 221.215 194.188 L 221.167 194.208 L 221.123 194.226 L 221.1 194.235 L 221.008 194.272 L 220.938 194.301 L 220.822 194.348 L 220.73 194.385 L 220.66 194.414 L 220.567 194.452 L 220.549 194.46 L 220.5 194.479 L 220.382 194.527 L 220.289 194.565 L 220.271 194.573 L 220.222 194.592 L 220.056 194.66 L 220.012 194.678 L 219.896 194.725 L 219.804 194.762 L 219.734 194.791 L 219.641 194.829 L 219.623 194.837 L 219.574 194.856 L 219.456 194.904 L 219.363 194.942 L 219.345 194.95 L 219.296 194.969 L 219.13 195.037 L 219.111 195.045 L 219.018 195.082 L 218.899 195.131 L 218.833 195.157 L 218.715 195.205 L 218.692 195.214 L 218.6 195.251 L 218.533 195.279 L 218.462 195.307 L 218.355 195.351 L 218.277 195.382 L 218.159 195.43 L 218.136 195.439 L 218.044 195.476 L 217.986 195.5 L 217.906 195.532 L 217.787 195.581 L 217.721 195.607 L 217.603 195.655 L 217.58 195.664 L 217.488 195.701 L 217.421 195.729 L 217.35 195.757 L 217.231 195.806 L 217.165 195.832 L 217.047 195.88 L 217.024 195.889 L 216.932 195.926 L 216.865 195.954 L 216.794 195.982 L 216.689 196.025 L 216.516 196.094 L 216.398 196.142 L 216.375 196.151 L 216.303 196.18 L 216.238 196.206 L 216.145 196.244 L 216.052 196.281 L 216.004 196.3 L 215.912 196.337 L 215.845 196.365 L 215.681 196.43 L 215.562 196.479 L 215.217 196.616 L 215.098 196.665 L 214.753 196.802 L 214.705 196.821 L 214.628 196.852 L 214.568 196.876 L 214.475 196.914 L 214.196 197.025 L 214.148 197.044 L 214.056 197.081 L 213.36 197.358 L 213.312 197.377 L 213.245 197.404 L 213.175 197.431 L 212.71 197.616 L 212.617 197.652 L 212.338 197.763 L 212.245 197.799 L 212.059 197.873 L 211.966 197.909 L 211.873 197.946 L 211.78 197.982 L 211.594 198.056 L 211.501 198.092 L 211.408 198.129 L 211.315 198.165 L 211.255 198.189 L 211.247 198.192 L 211.154 198.228 L 211.035 198.274 L 210.942 198.311 L 210.875 198.337 L 210.756 198.383 L 210.692 198.409 L 210.641 198.428 L 210.595 198.446 L 210.409 198.518 L 210.29 198.564 L 210.226 198.59 L 210.175 198.609 L 210.129 198.627 L 209.989 198.681 L 209.895 198.717 L 209.877 198.724 L 209.784 198.759 L 209.663 198.806 L 209.522 198.86 L 209.476 198.878 L 209.371 198.919 L 209.362 198.922 L 209.196 198.985 L 209.175 198.993 L 209.009 199.056 L 208.962 199.074 L 208.943 199.081 L 208.85 199.116 L 208.85 199.117 L 208.801 199.135 L 208.635 199.198 L 208.614 199.206 L 208.569 199.222 L 208.476 199.257 L 208.476 199.258 L 208.427 199.276 L 208.308 199.321 L 208.267 199.336 L 208.101 199.397 L 208.008 199.432 L 208.008 199.433 L 207.865 199.486 L 207.82 199.502 L 207.777 199.518 L 207.705 199.545 L 207.611 199.579 L 207.517 199.614 L 207.235 199.716 L 207.187 199.734 L 207.17 199.74 L 207.047 199.784 L 206.936 199.824 L 206.888 199.841 L 206.765 199.885 L 206.73 199.898 L 206.699 199.908 L 206.511 199.974 L 206.511 199.975 L 206.458 199.993 L 206.416 200.007 L 206.36 200.027 L 206.35 200.03 L 206.271 200.057 L 206.155 200.096 L 205.714 200.163 L 205.615 200.181 L 205.165 200.27 L 205.068 200.291 L 204.29 200.484 L 204.193 200.511 L 203.739 200.645 L 203.644 200.675 L 202.986 200.902 L 202.892 200.937 L 202.441 201.114 L 202.349 201.152 L 201.949 201.324 L 201.858 201.365 L 201.357 201.603 L 201.267 201.648 L 200.832 201.876 L 200.744 201.924 L 200.417 202.108 L 200.331 202.158 L 200.066 202.316 L 199.981 202.368 L 199.624 202.594 L 199.54 202.649 L 199.382 202.754 L 199.299 202.81 L 198.984 203.029 L 198.903 203.087 L 198.658 203.266 L 198.578 203.326 L 198.339 203.51 L 198.26 203.572 L 198.125 203.679 L 198.048 203.741 L 197.883 203.876 L 197.806 203.94 L 197.579 204.133 L 197.503 204.199 L 197.435 204.259 L 197.36 204.325 L 197.215 204.454 L 197.141 204.521 L 196.997 204.653 L 196.851 204.789 L 196.778 204.858 L 196.71 204.924 L 196.638 204.993 L 196.428 205.197 L 196.357 205.268 L 196.289 205.338 L 196.149 205.48 L 196.013 205.62 L 195.944 205.692 L 195.878 205.76 L 195.809 205.833 L 195.673 205.979 L 195.609 206.048 L 195.541 206.122 L 195.473 206.197 L 195.339 206.345 L 195.21 206.49 L 195.012 206.715 L 194.884 206.862 L 194.754 207.014 L 194.629 207.162 L 194.596 207.202 L 194.558 207.247 L 194.501 207.315 L 194.452 207.375 L 193.966 207.288 L 193.867 207.273 L 193.325 207.202 L 193.226 207.191 L 192.804 207.151 L 192.704 207.143 L 192.301 207.116 L 192.202 207.111 L 191.783 207.097 L 191.683 207.095 L 191.27 207.092 L 191.17 207.093 L 190.895 207.099 L 190.795 207.102 L 190.521 207.113 L 190.421 207.118 L 190.011 207.145 L 189.911 207.153 L 189.762 207.165 L 189.663 207.174 L 189.39 207.202 L 189.291 207.213 L 189.171 207.227 L 189.071 207.239 L 188.784 207.276 L 188.685 207.29 L 188.529 207.313 L 188.431 207.328 L 188.318 207.346 L 188.219 207.362 L 188.086 207.384 L 187.987 207.401 L 187.696 207.454 L 187.5 207.492 L 187.368 207.519 L 187.27 207.539 L 187.11 207.572 L 187.013 207.593 L 186.91 207.616 L 186.812 207.638 L 186.652 207.675 L 186.555 207.698 L 186.487 207.714 L 186.327 207.753 L 186.133 207.801 L 185.97 207.842 L 185.874 207.867 L 185.779 207.892 L 185.585 207.944 L 185.55 207.953 L 185.454 207.979 L 185.134 208.069 L 185.007 208.105 L 184.815 208.161 L 184.688 208.199 L 184.623 208.218 L 184.332 208.306 L 184.262 208.328 L 184.141 208.365 L 183.989 208.413 L 183.95 208.425 L 183.76 208.485 L 183.635 208.526 L 183.35 208.619 L 183.226 208.66 L 183.182 208.675 L 183.16 208.682 L 183.036 208.723 L 182.941 208.755 L 182.899 208.769 L 182.823 208.795 L 182.657 208.851 L 182.492 208.907 L 182.419 208.933 L 182.303 208.972 L 182.115 209.038 L 182.115 209.039 L 182.062 209.057 L 182.02 209.071 L 181.832 209.137 L 181.753 209.165 L 181.697 209.185 L 181.643 209.204 L 181.52 209.248 L 181.509 209.252 L 181.455 209.271 L 181.332 209.315 L 180.768 209.519 L 180.674 209.554 L 180.58 209.588 L 180.414 209.649 L 180.393 209.657 L 180.299 209.692 L 180.205 209.726 L 180.084 209.771 L 179.99 209.806 L 179.945 209.822 L 179.924 209.83 L 179.803 209.875 L 179.692 209.916 L 179.599 209.95 L 179.549 209.969 L 179.455 210.003 L 179.289 210.064 L 179.196 210.099 L 179.196 210.1 L 179.053 210.153 L 178.887 210.216 L 178.866 210.224 L 178.821 210.24 L 178.728 210.275 L 178.653 210.304 L 178.559 210.34 L 178.541 210.347 L 178.448 210.382 L 178.373 210.411 L 178.279 210.447 L 178.233 210.465 L 178 210.555 L 177.906 210.591 L 177.741 210.655 L 177.648 210.692 L 177.555 210.728 L 177.462 210.765 L 177.369 210.801 L 177.183 210.875 L 177.135 210.894 L 177.088 210.913 L 176.812 211.023 L 176.694 211.071 L 176.671 211.08 L 176.599 211.109 L 176.534 211.135 L 176.368 211.203 L 176.324 211.221 L 176.138 211.297 L 176.09 211.317 L 175.954 211.373 L 175.861 211.411 L 175.813 211.431 L 175.721 211.469 L 175.603 211.518 L 175.537 211.546 L 175.468 211.574 L 175.375 211.613 L 175.326 211.634 L 174.774 211.868 L 174.658 211.918 L 174.632 211.929 L 174.541 211.968 L 174.475 211.997 L 174.291 212.077 L 174.241 212.099 L 174.2 212.117 L 174.108 212.157 L 174.058 212.179 L 173.967 212.219 L 173.903 212.247 L 173.827 212.281 L 173.784 212.3 L 173.668 212.351 L 173.577 212.392 L 173.537 212.41 L 173.485 212.433 L 173.212 212.556 L 173.099 212.608 L 172.978 212.664 L 172.888 212.705 L 172.827 212.733 L 172.736 212.775 L 172.623 212.828 L 172.562 212.857 L 172.442 212.913 L 172.351 212.956 L 172.298 212.981 L 172.028 213.11 L 171.916 213.164 L 171.736 213.252 L 171.682 213.279 L 171.647 213.296 L 171.557 213.34 L 171.392 213.422 L 171.303 213.467 L 171.194 213.523 L 171.125 213.558 L 171.016 213.614 L 170.927 213.66 L 170.762 213.746 L 170.586 213.84 L 170.48 213.898 L 170.304 213.994 L 169.977 214.178 L 169.95 214.194 L 169.95 214.193 L 169.863 214.243 L 169.539 214.436 L 169.454 214.488 L 169.355 214.549 L 169.27 214.602 L 168.949 214.808 L 168.866 214.863 L 168.521 215.1 L 168.439 215.158 L 167.672 215.742 L 167.595 215.805 L 167.256 216.142 L 164.489 216.598 L 162.856 217.051 L 162.342 217.205 L 160.726 217.722 L 160.477 217.804 L 158.873 218.351 L 158.682 218.418 L 157.085 218.989 L 156.938 219.043 L 155.396 219.614 L 153.815 220.193 L 152.313 220.735 L 150.753 221.292 L 149.154 221.858 L 147.62 222.397 L 146.047 222.945 L 144.445 223.499 L 142.941 224.014 L 141.46 224.513 L 139.968 224.985 L 139.885 225.012 L 138.272 225.533 L 138.209 225.553 L 136.598 226.082 L 136.566 226.093 L 134.956 226.626 L 134.939 226.632 L 133.33 227.167 L 133.313 227.172 L 131.705 227.709 L 130.104 228.243 L 130.099 228.244 L 128.49 228.781 L 128.49 228.782 L 126.911 229.307 L 125.302 229.84 L 125.297 229.841 L 123.687 230.375 L 123.611 230.401 L 122.022 230.938 L 120.43 231.474 L 118.85 232.004 L 117.272 232.53 L 117.272 232.529 L 115.662 233.061 L 114.083 233.579 L 114.083 233.58 L 112.568 234.071 L 112.568 234.07 L 110.953 234.586 L 109.408 235.072 L 107.883 235.543 L 106.432 235.979 L 104.823 236.447 L 103.446 236.832 L 101.967 237.224 L 100.585 237.565 L 99.218 237.871 L 97.871 238.14 L 96.464 238.385 L 94.792 238.666 L 93.128 238.945 L 93.12 238.946 L 91.448 239.227 L 91.399 239.235 L 89.728 239.522 L 89.664 239.534 L 87.994 239.829 L 87.872 239.851 L 86.33 240.138 L 84.88 240.381 L 83.253 240.639 L 81.716 240.871 L 80.079 241.104 L 78.564 241.308 L 77.047 241.499 L 75.397 241.693 L 73.823 241.866 L 72.276 242.024 L 70.643 242.175 L 69.167 242.301 L 67.506 242.429 L 65.907 242.538 L 64.408 242.629 L 62.759 242.713 L 61.281 242.777 L 59.66 242.833 L 58.021 242.875 L 56.562 242.899 L 54.906 242.911 L 53.371 242.908 L 51.851 242.89 L 50.306 242.856 L 48.677 242.806 L 47.113 242.739 L 45.607 242.66 L 44.101 242.564 L 42.574 242.448 L 41.022 242.312 L 39.527 242.162 L 39.035 242.106 L 39.486 241.938 L 41.024 241.368 L 42.584 240.793 L 44.163 240.215 L 45.732 239.643 L 47.302 239.074 L 48.883 238.504 L 50.478 237.931 L 52.041 237.372 L 53.621 236.809 L 55.194 236.251 L 56.784 235.69 L 58.384 235.127 L 59.962 234.574 L 61.562 234.014 L 63.136 233.466 L 64.714 232.917 L 64.714 232.918 L 66.317 232.364 L 66.317 232.363 L 67.902 231.816 L 69.494 231.268 L 69.494 231.269 L 71.085 230.723 L 72.675 230.179 L 74.28 229.632 L 75.871 229.09 L 75.871 229.091 L 77.476 228.546 L 79.055 228.011 L 82.254 226.932 L 83.852 226.395 L 85.455 225.858 L 87.062 225.32 L 87.067 225.318 L 90.283 224.24 L 90.292 224.237 L 91.899 223.697 L 91.907 223.694 L 95.121 222.612 L 95.138 222.606 L 98.35 221.52 L 98.364 221.515 L 99.97 220.97 L 99.98 220.967 L 101.585 220.421 L 101.6 220.416 L 103.205 219.868 L 103.224 219.862 L 104.827 219.312 L 104.846 219.305 L 106.45 218.752 L 106.48 218.742 L 108.081 218.186 L 108.11 218.176 L 109.711 217.616 L 109.769 217.595 L 111.367 217.028 L 111.425 217.007 L 113.02 216.433 L 113.133 216.392 L 114.723 215.804 L 114.901 215.737 L 116.483 215.127 L 116.961 214.932 L 118.377 214.324 L 119.625 213.818 L 120.9 213.349 L 122.459 212.795 L 123.932 212.28 L 123.932 212.281 L 125.535 211.729 L 125.535 211.728 L 127.067 211.207 L 128.673 210.664 L 130.222 210.146 L 131.8 209.62 L 131.8 209.621 L 133.41 209.089 L 136.607 208.039 L 136.649 208.025 L 138.258 207.491 L 138.299 207.477 L 139.906 206.938 L 139.935 206.928 L 141.542 206.385 L 141.576 206.374 L 143.181 205.827 L 143.208 205.818 L 144.811 205.268 L 144.847 205.255 L 146.45 204.7 L 146.487 204.687 L 148.087 204.128 L 148.133 204.112 L 149.732 203.547 L 149.766 203.535 L 151.363 202.966 L 151.425 202.944 L 153.02 202.367 L 153.088 202.342 L 154.679 201.757 L 154.792 201.715 L 156.378 201.116 L 156.562 201.045 L 158.14 200.423 L 158.5 200.275 L 159.901 199.676 L 161.193 199.161 L 162.499 198.675 L 163.833 198.207 L 165.188 197.76 L 166.499 197.357 L 167.92 196.968 L 167.967 196.955 L 169.601 196.501 L 169.872 196.423 L 171.495 195.936 L 171.662 195.884 L 173.28 195.376 L 173.361 195.351 L 174.976 194.833 L 175.059 194.806 L 176.67 194.278 L 176.702 194.268 L 178.312 193.736 L 178.368 193.717 L 179.976 193.178 L 180.124 193.127 L 181.604 192.612 L 183.05 192.132 L 184.563 191.65 L 186.04 191.196 L 187.567 190.743 L 189.002 190.334 L 190.387 189.958 L 191.953 189.563 L 192.205 189.497 L 193.841 189.051 L 194.117 188.972 L 195.743 188.492 L 196.109 188.379 L 197.721 187.854 L 198.585 187.54 L 200.157 186.909 L 202.25 185.854 L 204.133 184.459 L 205.752 182.764 L 207.061 180.819 L 208.02 178.681 L 208.602 176.411 L 208.79 174.074 L 208.579 171.74 L 207.934 169.363 L 207.544 168.31 L 206.545 166.189 L 205.202 164.269 L 203.552 162.604 L 201.778 161.325 L 200.329 160.446 L 199.891 160.191 L 198.409 159.365 L 198.132 159.215 L 196.633 158.424 L 196.394 158.301 L 194.879 157.539 L 194.808 157.503 L 193.335 156.773 L 191.951 156.065 L 190.635 155.376 L 189.139 154.579 L 187.717 153.811 L 186.293 153.032 L 184.9 152.262 L 183.431 151.442 L 181.997 150.635 L 180.557 149.819 L 179.173 149.027 L 177.704 148.18 L 176.318 147.374 L 174.864 146.521 L 173.449 145.684 L 172.095 144.875 L 170.67 144.012 L 169.351 143.201 L 168.005 142.358 L 167.002 141.71 L 167.713 139.486 L 167.731 139.388 L 167.956 137.056 L 167.877 135.986 L 168.442 135.796 L 168.536 135.761 L 169.832 135.201 L 169.921 135.157 L 170.625 134.748 L 170.66 134.803 L 170.716 134.886 L 170.824 135.044 L 170.881 135.126 L 171.171 135.528 L 171.231 135.608 L 171.297 135.695 L 171.358 135.775 L 171.651 136.145 L 171.714 136.222 L 171.849 136.385 L 171.914 136.462 L 172.228 136.821 L 172.295 136.895 L 172.427 137.039 L 172.495 137.112 L 172.833 137.463 L 172.904 137.534 L 173.042 137.67 L 173.114 137.74 L 173.471 138.074 L 173.545 138.141 L 173.985 138.523 L 174.062 138.587 L 174.211 138.709 L 174.289 138.772 L 174.679 139.076 L 174.759 139.136 L 175.319 139.534 L 175.402 139.59 L 175.818 139.86 L 175.903 139.913 L 176.326 140.167 L 176.413 140.217 L 177.061 140.566 L 177.15 140.611 L 177.988 141 L 178.08 141.039 L 178.77 141.31 L 178.864 141.344 L 179.982 141.695 L 180.079 141.721 L 181.156 141.964 L 181.254 141.982 L 181.426 142.004 L 182.946 143.177 L 184.742 144.153 L 184.833 144.194 L 187.734 145.13 L 187.832 145.15 L 189.759 145.404 L 189.859 145.41 L 193.302 145.183 L 193.4 145.164 L 196.151 144.324 L 196.243 144.285 L 197.569 143.622 L 198.185 143.832 L 200.499 144.202 L 202.712 144.185 L 204.401 144.036 L 204.775 143.998 L 206.459 143.803 L 206.636 143.781 L 208.318 143.564 L 208.563 143.53 L 210.24 143.283 L 210.352 143.266 L 211.94 143.019 L 213.617 142.769 L 215.134 142.551 L 216.731 142.333 L 218.412 142.113 L 219.925 141.925 L 221.598 141.727 L 223.115 141.558 L 224.764 141.385 L 226.39 141.225 L 227.893 141.088 L 229.583 140.946 L 231.054 140.834 L 232.704 140.722 L 234.309 140.628 L 235.784 140.555 L 237.364 140.494 L 238.837 140.455 L 240.397 140.435 L 242.003 140.432 L 242.101 140.432 L 243.797 140.417 L 244.016 140.413 L 244.284 140.406 L 244.293 140.414 L 244.374 140.482 L 244.528 140.61 L 244.61 140.677 L 244.687 140.74 L 244.754 140.795 L 244.832 140.858 L 244.916 140.925 L 244.977 140.974 L 245.056 141.037 L 245.073 141.05 L 245.151 141.112 L 245.218 141.165 L 245.297 141.227 L 245.382 141.294 L 245.461 141.355 L 245.77 141.586 L 245.851 141.645 L 246.256 141.929 L 246.422 142.041 L 246.517 142.105 L 246.6 142.16 L 246.822 142.304 L 246.907 142.358 L 246.943 142.381 L 247.027 142.434 L 247.25 142.571 L 247.336 142.623 L 247.437 142.684 L 247.609 142.786 L 247.934 142.972 L 248.022 143.021 L 248.069 143.047 L 248.156 143.095 L 248.377 143.215 L 248.466 143.262 L 248.574 143.318 L 248.663 143.364 L 248.772 143.42 L 248.861 143.465 L 249.138 143.601 L 249.228 143.644 L 249.281 143.669 L 249.372 143.712 L 249.598 143.817 L 249.689 143.858 L 249.855 143.931 L 249.947 143.971 L 250.063 144.021 L 250.155 144.06 L 250.321 144.129 L 250.414 144.167 L 250.651 144.261 L 250.744 144.297 L 250.91 144.36 L 251.004 144.395 L 251.125 144.44 L 251.219 144.474 L 251.465 144.56 L 251.559 144.592 L 251.765 144.661 L 251.861 144.692 L 251.946 144.719 L 252.041 144.749 L 252.205 144.799 L 252.301 144.828 L 252.555 144.902 L 252.651 144.929 L 252.814 144.974 L 252.911 145 L 253.169 145.066 L 253.363 145.114 L 253.784 145.212 L 253.98 145.254 L 254.244 145.308 L 254.342 145.327 L 254.5 145.356 L 254.599 145.374 L 254.708 145.394 L 254.806 145.411 L 255.097 145.458 L 255.196 145.473 L 255.331 145.493 L 255.43 145.507 L 255.582 145.527 L 255.682 145.54 L 255.8 145.555 L 255.899 145.567 L 256.186 145.599 L 256.286 145.609 L 256.409 145.621 L 256.508 145.63 L 256.657 145.642 L 256.757 145.65 L 256.893 145.661 L 256.993 145.668 L 257.13 145.677 L 257.23 145.683 L 257.367 145.69 L 257.467 145.695 L 257.741 145.706 L 257.841 145.709 L 257.979 145.712 L 258.179 145.716 L 258.454 145.719 L 258.692 145.719 L 258.892 145.717 L 259.167 145.711 L 259.267 145.708 L 259.404 145.703 L 259.604 145.695 L 259.878 145.682 L 260.078 145.67 L 260.351 145.65 L 260.451 145.642 L 260.462 145.642 L 260.561 145.634 L 260.686 145.623 L 260.886 145.605 L 261.172 145.576 L 261.256 145.567 L 261.356 145.556 L 261.488 145.54 L 261.555 145.533 L 261.707 145.515 L 261.905 145.491 L 262.023 145.476 L 262.044 145.473 L 262.104 145.466 L 262.374 145.431 L 262.671 145.389 L 262.806 145.369 L 263.004 145.339 L 263.138 145.318 L 263.336 145.286 L 263.493 145.26 L 263.591 145.243 L 263.7 145.223 L 263.799 145.205 L 263.957 145.176 L 264.153 145.138 L 264.285 145.111 L 264.383 145.091 L 264.515 145.064 L 264.613 145.043 L 264.874 144.984 L 264.972 144.961 L 265.002 144.954 L 265.099 144.931 L 265.229 144.899 L 265.326 144.875 L 265.332 144.874 L 266.478 146.89 L 266.536 146.972 L 267.187 147.821 L 267.251 147.898 L 267.696 148.407 L 267.763 148.48 L 268.102 148.836 L 268.172 148.907 L 268.45 149.181 L 268.522 149.25 L 268.663 149.384 L 268.736 149.452 L 268.88 149.584 L 268.954 149.651 L 269.099 149.78 L 269.174 149.846 L 269.321 149.974 L 269.397 150.039 L 269.477 150.107 L 269.553 150.171 L 269.621 150.228 L 269.698 150.292 L 269.78 150.359 L 269.857 150.422 L 269.924 150.477 L 270.002 150.54 L 270.086 150.607 L 270.164 150.669 L 270.316 150.789 L 270.337 150.805 L 270.473 150.912 L 270.552 150.973 L 270.618 151.022 L 270.625 151.028 L 270.798 151.161 L 270.877 151.221 L 271.009 151.321 L 271.09 151.381 L 271.361 151.577 L 271.442 151.634 L 271.507 151.679 L 271.589 151.736 L 271.905 151.949 L 271.989 152.004 L 272.184 152.13 L 272.352 152.236 L 272.676 152.434 L 272.762 152.485 L 272.865 152.545 L 272.951 152.595 L 273.114 152.689 L 273.201 152.738 L 273.365 152.828 L 273.453 152.876 L 273.559 152.934 L 273.647 152.981 L 273.755 153.038 L 273.843 153.084 L 274.009 153.169 L 274.098 153.214 L 274.263 153.296 L 274.353 153.34 L 274.465 153.394 L 274.555 153.437 L 274.721 153.515 L 274.812 153.557 L 274.873 153.585 L 274.963 153.626 L 275.181 153.723 L 275.273 153.763 L 275.389 153.813 L 275.573 153.891 L 275.809 153.989 L 275.901 154.026 L 276.068 154.091 L 276.254 154.163 L 276.541 154.271 L 276.635 154.305 L 276.758 154.349 L 276.852 154.382 L 277.017 154.438 L 277.07 154.456 L 277.164 154.488 L 277.619 154.634 L 277.677 154.652 L 277.772 154.681 L 278.064 154.766 L 278.16 154.793 L 278.323 154.838 L 278.42 154.864 L 278.645 154.922 L 278.741 154.946 L 278.934 154.993 L 279.032 155.016 L 279.398 155.097 L 279.495 155.117 L 279.788 155.174 L 279.886 155.192 L 280.445 155.283 L 280.544 155.297 L 282.608 155.432 L 282.708 155.431 L 284.516 155.293 L 284.614 155.279 L 287.469 154.552 L 287.563 154.517 L 289.682 153.516 L 291.6 152.168 L 292.904 150.921 L 292.97 150.849 L 294.401 148.992 L 295.496 146.92 L 296.025 145.3 L 296.757 145.748 L 296.847 145.792 L 298.786 146.564 L 298.882 146.594 L 300.634 147.018 L 300.732 147.035 L 301.987 147.193 L 302.087 147.201 L 302.909 147.242 L 303.009 147.244 L 303.971 147.23 L 304.071 147.225 L 304.63 147.186 L 304.729 147.177 L 305.122 147.135 L 305.222 147.123 L 305.644 147.066 L 305.743 147.051 L 306.167 146.98 L 306.265 146.962 L 306.399 146.937 L 306.497 146.918 L 306.892 146.835 L 306.99 146.813 L 307.019 146.806 L 307.116 146.784 L 307.346 146.73 L 307.444 146.706 L 307.638 146.657 L 307.734 146.632 L 307.829 146.607 L 307.926 146.581 L 308.053 146.546 L 308.15 146.519 L 308.186 146.509 L 308.282 146.482 L 308.409 146.446 L 308.505 146.418 L 308.632 146.38 L 308.728 146.351 L 308.766 146.34 L 308.861 146.311 L 308.948 146.284 L 309.044 146.254 L 309.083 146.242 L 309.235 146.194 L 309.399 146.141 L 309.684 146.048 L 309.808 146.007 L 309.998 145.943 L 310.04 145.929 L 310.134 145.897 L 310.215 145.869 L 310.258 145.854 L 310.282 145.846 L 310.447 145.79 L 310.541 145.757 L 310.541 145.756 L 310.594 145.738 L 310.636 145.724 L 310.73 145.691 L 310.73 145.69 L 310.783 145.672 L 310.825 145.658 L 310.919 145.625 L 311.042 145.581 L 311.097 145.561 L 311.231 145.514 L 311.27 145.5 L 311.296 145.491 L 311.419 145.447 L 311.563 145.395 L 311.658 145.361 L 311.702 145.345 L 312.172 145.175 L 312.266 145.14 L 312.642 145.004 L 312.736 144.969 L 313.112 144.833 L 313.206 144.798 L 313.582 144.662 L 313.676 144.627 L 313.82 144.575 L 313.915 144.541 L 313.959 144.525 L 314.053 144.491 L 314.147 144.456 L 314.523 144.32 L 314.617 144.285 L 314.993 144.149 L 315.087 144.114 L 315.275 144.046 L 315.941 143.785 L 316.024 143.75 L 318.098 142.659 L 319.957 141.231 L 321.546 139.509 L 322.194 138.51 L 323.473 137.422 L 324.767 135.912 L 325.774 134.548 L 326.459 133.527 L 326.913 132.78 L 329.165 133.298 L 332.598 133.352 L 332.698 133.341 L 334.077 133.118 L 334.175 133.097 L 334.889 132.924 L 334.985 132.898 L 335.531 132.738 L 335.626 132.708 L 335.998 132.584 L 336.093 132.551 L 336.379 132.448 L 336.473 132.413 L 336.639 132.35 L 336.732 132.314 L 336.969 132.22 L 337.062 132.182 L 337.228 132.113 L 337.32 132.074 L 337.436 132.024 L 337.528 131.984 L 337.578 131.962 L 337.669 131.922 L 337.898 131.819 L 338.171 131.693 L 338.337 131.615 L 338.427 131.572 L 338.539 131.518 L 338.809 131.386 L 338.974 131.304 L 339.098 131.242 L 339.153 131.214 L 339.242 131.169 L 339.351 131.113 L 339.529 131.021 L 339.586 130.992 L 339.674 130.946 L 339.725 130.919 L 339.814 130.872 L 339.871 130.842 L 339.959 130.795 L 339.991 130.778 L 340.048 130.748 L 340.136 130.701 L 340.224 130.653 L 340.312 130.606 L 340.418 130.548 L 340.506 130.5 L 340.67 130.41 L 340.726 130.378 L 340.769 130.355 L 340.933 130.265 L 341.194 130.118 L 341.194 130.117 L 341.223 130.101 L 341.386 130.01 L 341.456 129.97 L 341.619 129.876 L 341.646 129.86 L 341.646 129.861 L 341.82 129.761 L 341.879 129.726 L 342.008 129.651 L 342.052 129.625 L 342.056 129.623 L 342.095 129.6 L 342.181 129.55 L 342.268 129.499 L 342.328 129.464 L 342.758 129.209 L 342.92 129.111 L 343.005 129.059 L 343.116 128.992 L 343.177 128.955 L 343.347 128.851 L 343.372 128.836 L 343.532 128.738 L 343.58 128.708 L 343.603 128.694 L 343.702 128.633 L 344.042 128.421 L 344.203 128.319 L 344.211 128.314 L 344.372 128.212 L 344.394 128.198 L 344.479 128.144 L 344.541 128.104 L 344.709 127.996 L 344.806 127.933 L 344.89 127.878 L 344.953 127.837 L 345.036 127.782 L 345.141 127.713 L 345.204 127.672 L 345.287 127.617 L 345.382 127.553 L 345.714 127.329 L 345.872 127.221 L 346.118 127.05 L 346.21 126.985 L 346.292 126.927 L 346.357 126.881 L 346.438 126.823 L 346.463 126.805 L 346.545 126.746 L 346.676 126.651 L 346.756 126.592 L 346.771 126.581 L 347.013 126.401 L 347.093 126.34 L 347.093 126.339 L 347.151 126.295 L 347.324 126.162 L 347.403 126.1 L 347.47 126.047 L 347.548 125.985 L 347.714 125.851 L 347.792 125.787 L 348.007 125.607 L 348.083 125.542 L 348.23 125.414 L 348.305 125.348 L 348.735 124.953 L 348.807 124.884 L 348.85 124.842 L 348.877 124.83 L 348.968 124.79 L 349.032 124.762 L 349.124 124.721 L 349.193 124.691 L 349.307 124.641 L 349.399 124.6 L 349.468 124.57 L 349.634 124.497 L 349.683 124.475 L 349.743 124.449 L 349.909 124.376 L 350 124.335 L 352.047 123.194 L 353.58 121.955 L 354.441 121.816 L 357.025 120.885 L 357.115 120.842 L 357.227 120.788 L 357.282 120.761 L 357.385 120.712 L 357.497 120.658 L 357.534 120.64 L 357.566 120.625 L 357.656 120.582 L 357.768 120.528 L 357.846 120.49 L 357.926 120.452 L 358.038 120.398 L 358.108 120.364 L 358.196 120.322 L 358.308 120.268 L 358.363 120.241 L 358.466 120.192 L 358.504 120.174 L 358.669 120.095 L 358.743 120.059 L 358.827 120.019 L 358.939 119.965 L 359.017 119.927 L 359.097 119.889 L 359.209 119.835 L 359.262 119.809 L 359.367 119.759 L 359.425 119.731 L 359.458 119.715 L 359.638 119.629 L 359.75 119.575 L 359.824 119.539 L 359.908 119.499 L 360.02 119.445 L 360.069 119.421 L 360.268 119.326 L 360.38 119.272 L 360.406 119.259 L 360.449 119.239 L 360.539 119.196 L 360.651 119.142 L 360.706 119.115 L 360.809 119.066 L 360.921 119.012 L 360.967 118.99 L 361.191 118.882 L 361.263 118.847 L 361.297 118.831 L 361.462 118.752 L 361.508 118.73 L 361.732 118.622 L 361.783 118.597 L 361.98 118.503 L 362.092 118.449 L 362.094 118.448 L 362.154 118.421 L 362.267 118.369 L 362.449 118.285 L 362.502 118.26 L 362.539 118.243 L 362.63 118.201 L 362.796 118.123 L 362.976 118.037 L 363.014 118.019 L 363.179 117.94 L 363.232 117.914 L 363.247 117.907 L 363.413 117.826 L 363.448 117.809 L 363.538 117.765 L 363.648 117.711 L 363.738 117.666 L 363.793 117.638 L 364.06 117.503 L 364.169 117.447 L 364.179 117.442 L 364.238 117.412 L 364.347 117.356 L 364.436 117.31 L 364.601 117.224 L 364.672 117.186 L 364.778 117.131 L 364.866 117.084 L 364.954 117.036 L 365.042 116.989 L 365.148 116.931 L 365.236 116.883 L 365.381 116.803 L 365.428 116.777 L 365.516 116.728 L 365.575 116.696 L 365.836 116.549 L 365.94 116.49 L 366.027 116.44 L 366.086 116.405 L 366.172 116.355 L 366.275 116.295 L 366.619 116.091 L 366.88 115.932 L 366.938 115.896 L 366.951 115.888 L 367.05 115.827 L 367.135 115.774 L 367.296 115.672 L 367.548 115.51 L 367.645 115.447 L 367.729 115.392 L 367.887 115.287 L 367.97 115.231 L 368.034 115.188 L 368.116 115.132 L 368.146 115.111 L 368.229 115.054 L 368.358 114.965 L 368.439 114.908 L 368.621 114.777 L 368.783 114.659 L 368.938 114.545 L 369.018 114.485 L 369.257 114.301 L 369.336 114.239 L 369.403 114.186 L 369.481 114.124 L 369.714 113.935 L 369.791 113.871 L 369.939 113.746 L 370.015 113.681 L 370.307 113.424 L 370.381 113.357 L 370.666 113.091 L 370.738 113.022 L 371.218 112.54 L 371.287 112.467 L 371.685 112.027 L 371.75 111.952 L 372.474 111.041 L 372.533 110.96 L 373.458 109.506 L 373.506 109.419 L 374.46 107.278 L 374.847 105.947 L 374.87 105.85 L 375.215 103.532 L 375.161 101.189 L 374.71 98.889 L 373.523 96.018 L 373.476 95.933 L 372.171 93.986 L 370.555 92.289 L 368.939 91.059 L 368.856 91.005 L 366.953 89.97 L 366.861 89.929 L 365.941 89.558 L 365.847 89.524 L 365.019 89.254 L 364.923 89.226 L 364.538 89.12 L 364.442 89.095 L 364.119 89.015 L 364.021 88.992 L 363.76 88.933 L 363.662 88.912 L 363.398 88.858 L 363.3 88.839 L 363.033 88.79 L 362.935 88.773 L 362.911 88.769 L 362.812 88.752 L 362.566 88.712 L 362.468 88.697 L 362.312 88.674 L 362.114 88.646 L 361.827 88.609 L 361.812 88.607 L 361.78 88.603 L 361.508 88.57 L 361.409 88.559 L 361.394 88.557 L 361.294 88.546 L 361.173 88.533 L 360.975 88.513 L 360.825 88.499 L 360.625 88.481 L 360.5 88.47 L 360.401 88.462 L 360.163 88.443 L 360.064 88.436 L 360.055 88.435 L 359.755 88.414 L 359.626 88.406 L 359.527 88.4 L 359.519 88.399 L 359.319 88.387 L 359.182 88.38 L 358.889 88.365 L 358.79 88.36 L 358.646 88.354 L 358.346 88.342 L 358.209 88.337 L 358.157 88.335 L 358.146 88.335 L 358.009 88.33 L 357.709 88.321 L 357.571 88.318 L 357.474 88.316 L 357.375 88.314 L 357.372 88.314 L 357.072 88.308 L 356.935 88.305 L 356.835 88.304 L 356.735 88.302 L 356.635 88.301 L 356.535 88.301 L 356.335 88.299 L 355.659 88.299 L 355.559 88.3 L 355.459 88.3 L 355.059 88.304 L 354.959 88.306 L 354.859 88.307 L 354.722 88.31 L 354.622 88.312 L 354.619 88.312 L 354.52 88.314 L 354.323 88.318 L 354.26 88.318 L 354.16 88.319 L 354.06 88.319 L 353.76 88.322 L 353.66 88.324 L 353.56 88.325 L 353.423 88.328 L 353.223 88.332 L 353.085 88.335 L 352.906 88.34 L 352.785 88.343 L 352.685 88.346 L 352.543 88.351 L 352.515 88.352 L 352.486 88.353 L 352.349 88.358 L 352.049 88.37 L 351.912 88.376 L 351.864 88.378 L 351.849 88.379 L 351.712 88.385 L 351.612 88.39 L 351.467 88.398 L 351.439 88.4 L 351.413 88.401 L 351.276 88.408 L 350.976 88.426 L 350.968 88.427 L 350.869 88.433 L 350.74 88.441 L 350.44 88.462 L 350.293 88.473 L 350.26 88.476 L 350.241 88.477 L 350.105 88.488 L 350.005 88.496 L 349.856 88.508 L 349.762 88.517 L 349.657 88.525 L 349.558 88.534 L 349.435 88.546 L 349.425 88.547 L 349.359 88.553 L 349.236 88.565 L 349.136 88.575 L 349.122 88.576 L 349.023 88.586 L 348.937 88.595 L 348.787 88.611 L 348.589 88.633 L 348.469 88.647 L 348.369 88.659 L 348.352 88.661 L 348.154 88.685 L 348.019 88.702 L 347.722 88.741 L 347.587 88.759 L 347.488 88.773 L 347.353 88.793 L 347.155 88.823 L 347.021 88.844 L 346.823 88.876 L 346.666 88.902 L 346.568 88.919 L 346.493 88.932 L 346.336 88.96 L 346.238 88.978 L 346.104 89.003 L 346.006 89.022 L 345.874 89.049 L 345.776 89.069 L 345.644 89.096 L 345.546 89.117 L 345.386 89.153 L 345.289 89.175 L 345.028 89.237 L 344.931 89.261 L 344.801 89.293 L 344.704 89.318 L 344.576 89.352 L 344.479 89.378 L 344.024 89.508 L 343.929 89.537 L 343.678 89.617 L 343.583 89.648 L 342.93 89.879 L 342.836 89.915 L 342.221 90.168 L 342.13 90.208 L 341.777 90.384 L 341.386 90.3 L 341.287 90.285 L 339.639 90.136 L 339.539 90.133 L 337.743 90.196 L 337.644 90.206 L 337.344 90.253 L 337.281 89.996 L 337.256 89.899 L 337.198 89.674 L 337.179 89.603 L 337.172 89.576 L 337.112 89.354 L 337.111 89.349 L 337.085 89.253 L 337.022 89.029 L 336.986 88.902 L 336.874 88.518 L 336.825 88.353 L 336.796 88.258 L 336.778 88.2 L 336.728 88.036 L 336.68 87.884 L 336.668 87.845 L 336.608 87.655 L 336.567 87.53 L 336.474 87.245 L 336.433 87.121 L 336.411 87.055 L 336.37 86.931 L 336.338 86.836 L 336.324 86.794 L 336.292 86.7 L 336.264 86.619 L 336.234 86.532 L 336.227 86.511 L 336.199 86.43 L 336.166 86.335 L 336.152 86.293 L 336.086 86.105 L 336.042 85.982 L 336.033 85.957 L 336.019 85.917 L 335.975 85.794 L 335.907 85.606 L 335.862 85.485 L 335.855 85.465 L 335.838 85.418 L 335.793 85.297 L 335.758 85.203 L 335.742 85.158 L 335.707 85.065 L 335.706 85.065 L 335.653 84.922 L 335.637 84.877 L 335.602 84.784 L 335.555 84.663 L 335.534 84.608 L 335.501 84.522 L 335.483 84.476 L 335.375 84.197 L 335.329 84.078 L 335.292 83.985 L 335.256 83.892 L 335.182 83.706 L 335.134 83.588 L 335.125 83.565 L 335.088 83.473 L 335.059 83.403 L 335.05 83.38 L 335.013 83.288 L 334.984 83.218 L 334.946 83.125 L 334.877 82.959 L 334.856 82.91 L 334.831 82.848 L 334.762 82.682 L 334.606 82.314 L 334.534 82.148 L 334.531 82.141 L 334.527 82.131 L 334.477 82.015 L 334.437 81.923 L 334.415 81.873 L 334.375 81.782 L 334.357 81.74 L 334.284 81.574 L 334.248 81.493 L 334.203 81.391 L 334.08 81.118 L 334.028 81.005 L 334.024 80.997 L 333.997 80.936 L 333.92 80.77 L 333.903 80.733 L 333.861 80.642 L 333.808 80.529 L 333.765 80.438 L 333.751 80.408 L 333.698 80.295 L 333.655 80.205 L 333.637 80.167 L 333.612 80.114 L 333.569 80.024 L 333.515 79.912 L 333.476 79.832 L 333.401 79.678 L 333.357 79.589 L 333.33 79.533 L 333.285 79.443 L 333.284 79.443 L 333.268 79.41 L 333.241 79.354 L 333.196 79.264 L 333.168 79.209 L 333.078 79.031 L 333.022 78.922 L 332.93 78.744 L 332.901 78.687 L 332.855 78.599 L 332.798 78.491 L 332.751 78.403 L 332.655 78.222 L 332.61 78.138 L 332.462 77.868 L 332.413 77.781 L 332.365 77.693 L 332.267 77.519 L 332.173 77.356 L 332.157 77.329 L 332.158 77.329 L 332.108 77.242 L 332.013 77.08 L 331.911 76.908 L 331.813 76.746 L 331.709 76.576 L 331.648 76.477 L 331.595 76.392 L 331.556 76.329 L 331.503 76.245 L 331.377 76.05 L 331.267 75.882 L 331.226 75.819 L 331.171 75.736 L 330.999 75.483 L 330.942 75.401 L 330.877 75.309 L 330.819 75.227 L 330.773 75.162 L 330.715 75.081 L 330.536 74.836 L 330.476 74.756 L 330.425 74.69 L 330.365 74.611 L 330.232 74.438 L 330.185 74.378 L 330.172 74.36 L 330.112 74.28 L 329.928 74.041 L 329.866 73.962 L 329.813 73.895 L 329.689 73.739 L 329.5 73.506 L 329.372 73.352 L 329.315 73.284 L 329.251 73.208 L 329.183 73.128 L 329.118 73.052 L 328.99 72.905 L 328.858 72.755 L 328.729 72.61 L 328.595 72.462 L 328.527 72.387 L 328.459 72.313 L 328.395 72.244 L 328.259 72.098 L 328.19 72.025 L 328.125 71.957 L 327.988 71.813 L 327.918 71.741 L 327.917 71.742 L 327.917 71.741 L 327.713 71.531 L 327.642 71.46 L 327.641 71.461 L 327.64 71.459 L 327.502 71.321 L 327.5 71.32 L 327.501 71.319 L 327.43 71.248 L 327.29 71.11 L 327.219 71.041 L 327.149 70.973 L 327.077 70.905 L 327.005 70.836 L 326.937 70.77 L 326.864 70.701 L 326.761 70.605 L 326.718 70.564 L 326.57 70.427 L 326.503 70.365 L 326.429 70.297 L 326.354 70.229 L 326.206 70.095 L 326.13 70.026 L 326.056 69.96 L 325.989 69.901 L 325.765 69.705 L 325.731 69.676 L 325.614 69.574 L 325.462 69.444 L 325.382 69.376 L 325.306 69.312 L 325.238 69.255 L 325.084 69.127 L 324.935 69.005 L 324.857 68.942 L 324.847 68.934 L 324.696 68.812 L 324.618 68.75 L 324.551 68.697 L 324.472 68.635 L 324.461 68.626 L 324.242 68.455 L 324.162 68.394 L 324.141 68.379 L 324.062 68.319 L 323.996 68.268 L 323.836 68.148 L 323.591 67.969 L 323.527 67.923 L 323.519 67.917 L 323.39 67.825 L 323.331 67.456 L 322.911 65.813 L 322.494 64.177 L 322.402 63.835 L 321.941 62.204 L 321.596 61.15 L 321.005 59.561 L 320.393 58.159 L 319.63 56.647 L 319.609 56.614 L 320.654 55.318 L 321.579 53.916 L 322.77 51.69 L 323.138 50.818 L 323.382 50.38 L 323.849 49.659 L 324.471 48.799 L 325.167 47.918 L 325.915 47.046 L 326.679 46.226 L 327.164 45.747 L 327.484 45.491 L 328.203 45.008 L 329.264 44.353 L 330.471 43.647 L 331.785 42.91 L 333.034 42.233 L 334.482 41.47 L 335.849 40.767 L 337.262 40.058 L 338.714 39.347 L 340.017 38.723 L 341.518 38.021 L 342.935 37.376 L 344.266 36.787 L 345.726 36.161 L 347.107 35.591 L 348.42 35.075 L 349.661 34.618 L 350.994 34.174 L 352.573 33.663 L 352.595 33.656 L 354.208 33.131 L 354.228 33.124 L 355.836 32.598 L 357.448 32.071 L 357.458 32.068 L 359.069 31.54 L 359.076 31.538 L 360.687 31.009 L 360.697 31.005 L 362.307 30.475 L 362.312 30.474 L 363.923 29.943 L 363.923 29.942 L 365.528 29.414 L 365.533 29.413 L 367.144 28.882 L 367.163 28.875 L 368.77 28.343 L 370.38 27.81 L 370.397 27.804 L 373.583 26.745 L 375.193 26.214 L 376.725 25.713 L 378.296 25.206 L 379.911 24.69 L 381.417 24.216 L 383.036 23.714 L 384.52 23.261 L 386.144 22.776 L 387.662 22.331 L 389.247 21.878 L 390.702 21.472 L 392.338 21.028 L 393.781 20.648 L 395.375 20.241 L 396.882 19.87 L 398.475 19.491 L 400.015 19.139 L 401.462 18.821 L 403.121 18.471 L 404.557 18.181 L 406.178 17.867 L 407.782 17.57 L 409.328 17.294 L 410.865 17.032 L 412.459 16.771 L 414.032 16.522 L 415.654 16.275 L 417.313 16.032 L 418.889 15.808 L 420.55 15.58 L 422.149 15.365 L 422.149 15.366 L 423.83 15.145 L 423.887 15.137 L 425.567 14.909 L 425.697 14.891 L 427.375 14.647 L 427.537 14.622 L 429.212 14.358 L 429.44 14.321 L 431.11 14.029 L 431.994 13.844 L 432.339 13.76 Z M 494.38 27.576 L 495.124 27.686 L 496.147 27.896 L 497.358 28.195 L 498.812 28.592 L 500.247 29.001 L 500.247 29.002 L 501.796 29.452 L 503.362 29.917 L 504.878 30.384 L 506.213 30.814 L 507.63 31.297 L 508.885 31.755 L 510.205 32.272 L 511.413 32.779 L 512.726 33.367 L 514.03 33.982 L 515.383 34.646 L 516.698 35.313 L 517.752 35.859 L 515.467 38.255 L 515.459 38.264 L 514.29 39.492 L 514.282 39.5 L 513.114 40.729 L 513.098 40.746 L 511.932 41.977 L 511.924 41.985 L 510.759 43.217 L 510.736 43.242 L 509.574 44.477 L 509.558 44.494 L 508.398 45.731 L 508.367 45.764 L 507.211 47.005 L 507.172 47.048 L 506.022 48.293 L 505.936 48.386 L 504.797 49.642 L 503.83 50.705 L 502.956 51.603 L 502.036 52.492 L 501.123 53.323 L 500.255 54.061 L 499.482 54.651 L 498.367 55.417 L 497.744 55.871 L 496.403 56.907 L 496.148 57.109 L 494.831 58.177 L 494.676 58.305 L 493.375 59.392 L 493.256 59.493 L 491.967 60.595 L 491.871 60.677 L 490.592 61.791 L 490.497 61.874 L 489.229 62.999 L 489.126 63.092 L 487.869 64.23 L 487.774 64.317 L 487.762 64.209 L 487.75 64.109 L 487.69 63.666 L 487.675 63.568 L 487.587 63.057 L 487.568 62.958 L 487.503 62.64 L 487.482 62.543 L 487.358 62.02 L 487.333 61.923 L 487.299 61.795 L 487.273 61.698 L 487.143 61.243 L 487.114 61.148 L 486.993 60.773 L 486.961 60.678 L 486.905 60.513 L 486.872 60.419 L 486.738 60.055 L 486.702 59.961 L 486.638 59.796 L 486.601 59.703 L 486.484 59.419 L 486.445 59.327 L 486.322 59.045 L 486.281 58.954 L 486.229 58.841 L 486.187 58.75 L 486.055 58.472 L 486.011 58.382 L 485.929 58.217 L 485.884 58.128 L 485.742 57.854 L 485.648 57.678 L 485.5 57.408 L 485.451 57.321 L 485.392 57.217 L 485.342 57.13 L 485.247 56.968 L 485.196 56.882 L 485.098 56.72 L 485.046 56.635 L 484.985 56.536 L 484.932 56.451 L 484.83 56.29 L 484.776 56.206 L 484.713 56.109 L 484.658 56.025 L 484.553 55.867 L 484.497 55.784 L 484.454 55.72 L 484.398 55.638 L 484.268 55.452 L 484.152 55.288 L 484.041 55.133 L 483.982 55.052 L 483.934 54.986 L 483.875 54.906 L 483.809 54.817 L 483.749 54.737 L 483.632 54.583 L 483.571 54.504 L 483.504 54.419 L 483.448 54.346 L 483.261 54.11 L 483.198 54.032 L 483.143 53.965 L 483.08 53.888 L 483.068 53.873 L 483.004 53.795 L 482.892 53.66 L 482.828 53.584 L 482.76 53.504 L 482.565 53.276 L 482.369 53.052 L 482.302 52.977 L 482.175 52.834 L 482.041 52.686 L 481.909 52.542 L 481.705 52.323 L 481.567 52.177 L 481.501 52.109 L 481.432 52.037 L 481.364 51.965 L 481.294 51.893 L 481.227 51.824 L 481.089 51.684 L 481.018 51.613 L 481.017 51.614 L 481.016 51.612 L 480.878 51.474 L 480.736 51.334 L 480.665 51.263 L 480.594 51.194 L 480.524 51.126 L 480.452 51.058 L 480.38 50.989 L 480.312 50.923 L 480.166 50.785 L 480.162 50.782 L 480.09 50.714 L 479.952 50.585 L 479.878 50.517 L 479.874 50.513 L 479.73 50.381 L 479.699 50.353 L 479.657 50.314 L 479.582 50.246 L 479.508 50.179 L 479.363 50.05 L 479.347 50.036 L 479.29 49.985 L 479.213 49.917 L 479.063 49.785 L 478.985 49.716 L 478.91 49.651 L 478.844 49.594 L 478.765 49.526 L 478.613 49.396 L 478.533 49.328 L 478.457 49.264 L 478.393 49.21 L 478.312 49.142 L 478.158 49.014 L 478.076 48.947 L 478.004 48.887 L 477.855 48.765 L 477.777 48.702 L 477.767 48.694 L 477.616 48.572 L 477.556 48.524 L 477.544 48.514 L 477.393 48.394 L 477.314 48.332 L 477.303 48.323 L 477.236 48.27 L 477.157 48.208 L 477.146 48.199 L 476.994 48.079 L 476.836 47.957 L 476.769 47.906 L 476.756 47.896 L 476.677 47.835 L 476.523 47.718 L 476.518 47.714 L 476.364 47.597 L 476.204 47.477 L 476.083 47.388 L 476.043 47.358 L 475.888 47.244 L 475.865 47.227 L 475.793 47.174 L 475.727 47.126 L 475.565 47.008 L 475.403 46.891 L 475.248 46.78 L 475.211 46.754 L 475.15 46.71 L 474.993 46.599 L 474.911 46.542 L 474.829 46.484 L 474.501 46.256 L 474.437 46.212 L 474.354 46.155 L 474.324 46.134 L 474.242 46.078 L 474.178 46.035 L 473.846 45.811 L 473.751 45.747 L 473.668 45.692 L 473.616 45.657 L 473.584 45.636 L 473.501 45.581 L 473.438 45.54 L 473.354 45.485 L 473.32 45.463 L 473.271 45.431 L 473.187 45.376 L 473.09 45.313 L 472.965 45.233 L 472.935 45.213 L 472.74 45.087 L 472.656 45.034 L 472.607 45.003 L 472.571 44.98 L 472.487 44.927 L 472.438 44.896 L 472.339 44.834 L 472.317 44.82 L 472.233 44.767 L 472.17 44.728 L 472.085 44.675 L 471.986 44.614 L 471.939 44.585 L 471.853 44.532 L 471.815 44.509 L 471.645 44.405 L 471.584 44.368 L 471.543 44.343 L 471.53 44.335 L 471.618 44.267 L 471.666 44.229 L 472.999 43.182 L 473.04 43.15 L 474.369 42.098 L 474.411 42.064 L 475.737 41.006 L 475.772 40.978 L 477.094 39.916 L 477.144 39.876 L 478.461 38.808 L 478.505 38.772 L 479.817 37.699 L 479.867 37.658 L 481.175 36.578 L 481.179 36.575 L 482.486 35.495 L 483.749 34.461 L 484.906 33.527 L 486.209 32.493 L 487.418 31.554 L 488.546 30.704 L 489.666 29.893 L 490.744 29.154 L 491.69 28.552 L 492.5 28.089 L 493.144 27.772 L 493.53 27.62 L 493.717 27.567 L 493.789 27.556 L 493.963 27.549 Z" fill="#000000" fill-rule="nonzero" stroke="none" data-offset="-0.4mm"/></svg>