<?xml version="1.0" standalone="no"?><!DOCTYPE svg PUBLIC "-//W3C//DTD SVG 20010904//EN" "http://www.w3.org/TR/2001/REC-SVG-20010904/DTD/svg10.dtd"><svg xmlns="http://www.w3.org/2000/svg" version="1.0" width="9.4794mm" height="16mm" viewBox="0 0 324.269475 547.325129" preserveAspectRatio="xMidYMid meet">
<metadata>
Created by potrace 1.16, written by Peter Selinger 2001-2019
</metadata>
<g transform="translate(-24.128611,587.000000) scale(0.100000,-0.100000)" fill="#000000" stroke="none">
<path d="M2964 5855 c-12 -9 -31 -12 -51 -9 -32 6 -45 -7 -23 -21 6 -3 10 -17 10 -30 0 -13 5 -27 10 -30 6 -3 10 -11 10 -18 0 -6 -15 3 -33 21 -18 18 -38 32 -44 32 -6 0 -10 8 -9 18 1 11 -5 16 -18 14 -11 -2 -15 1 -11 7 3 6 0 11 -7 11 -14 -1 -78 -89 -78 -108 0 -6 18 -23 39 -36 51 -32 56 -43 27 -50 -24 -6 -40 -31 -30 -47 3 -5 22 -9 43 -9 47 0 101 -10 101 -19 0 -3 -16 -17 -35 -30 -38 -26 -46 -46 -16 -38 22 5 19 -15 -7 -45 -33 -39 10 -228 56 -246 26 -9 35 14 24 59 l-11 41 35 -33 c37 -36 43 -35 54 13 6 28 8 30 14 13 20 -59 63 -129 93 -152 18 -14 33 -32 33 -40 0 -8 16 -61 35 -119 27 -80 36 -126 39 -197 3 -51 8 -119 12 -153 4 -42 1 -84 -11 -142 -17 -77 -19 -81 -49 -89 -17 -4 -77 -6 -134 -5 -124 2 -159 15 -253 95 -87 75 -188 235 -198 317 -8 64 -42 134 -74 154 -14 9 -49 14 -95 14 -61 0 -74 -3 -83 -19 -5 -11 -7 -19 -3 -19 3 0 -4 -8 -16 -18 -19 -15 -21 -22 -12 -39 6 -11 21 -23 32 -26 25 -6 26 8 3 22 -17 9 -17 12 1 46 11 19 23 32 28 27 4 -4 17 -34 28 -65 15 -42 20 -82 20 -159 0 -97 -1 -101 -16 -79 -13 18 -23 22 -45 17 -28 -5 -41 8 -16 17 10 4 10 7 0 18 -17 18 -16 32 1 26 8 -3 17 1 20 10 5 12 1 14 -19 9 -14 -4 -25 -2 -25 4 0 5 -7 10 -15 10 -8 0 -15 -7 -15 -15 0 -8 -8 -15 -17 -14 -11 0 -13 3 -5 6 20 8 14 44 -8 50 -11 3 -20 9 -20 14 0 21 -64 79 -87 79 -13 0 -22 4 -19 9 6 9 -57 19 -87 13 -32 -6 -11 -27 24 -24 29 2 32 1 18 -10 -25 -21 -39 -54 -39 -95 l0 -39 -87 -1 c-179 -3 -331 -15 -422 -34 -52 -10 -98 -16 -103 -13 -4 3 -8 15 -8 27 0 41 -47 125 -79 141 -46 24 -74 20 -109 -17 -37 -38 -42 -83 -17 -152 20 -56 20 -59 -22 -83 -21 -11 -56 -38 -78 -59 l-41 -38 4 75 c2 41 11 87 18 102 32 62 -2 223 -50 241 -27 11 -10 25 49 42 49 15 56 15 78 1 22 -15 25 -14 56 16 l32 32 -25 15 c-34 21 -33 31 3 31 16 0 37 7 46 16 9 9 19 14 22 10 3 -3 12 2 19 12 10 13 17 15 31 6 28 -17 66 0 58 26 -4 14 -2 20 9 20 8 0 27 5 43 11 42 17 65 18 59 2 -3 -7 4 -23 15 -34 18 -18 18 -21 4 -35 -19 -19 -19 -24 1 -52 l16 -23 -56 6 c-37 4 -56 3 -56 -4 0 -6 4 -11 10 -11 5 0 7 -7 4 -15 -4 -8 -1 -15 5 -15 6 0 11 -7 11 -16 0 -22 32 -14 45 12 6 11 16 19 24 16 21 -7 44 28 29 45 -13 16 -4 28 20 28 21 0 30 54 11 66 -8 4 -10 11 -7 15 4 3 21 -4 39 -17 17 -12 46 -23 63 -23 17 -1 36 -5 42 -9 14 -8 24 1 24 24 0 16 3 17 25 7 17 -8 24 -17 20 -28 -8 -24 38 -32 66 -12 17 12 26 13 40 4 23 -15 29 -15 29 -2 0 6 -5 10 -11 10 -7 0 -17 8 -24 17 -10 13 -16 14 -26 7 -8 -6 -23 -14 -34 -18 -16 -6 -18 -5 -7 5 16 17 15 39 -2 39 -8 0 -18 5 -21 10 -4 6 10 10 34 10 30 0 41 -4 41 -15 0 -8 9 -15 20 -15 11 0 20 5 20 10 0 6 11 10 24 10 14 0 28 5 31 10 3 6 15 10 26 10 10 0 19 4 19 9 0 13 -51 20 -77 10 -28 -10 -83 7 -83 27 0 19 -25 18 -44 -2 -14 -13 -16 -13 -16 -1 0 8 23 24 53 36 43 17 59 31 78 64 22 39 24 52 24 193 0 149 0 151 -28 187 -15 20 -34 37 -42 37 -7 0 -32 16 -56 36 -65 54 -96 67 -149 62 -72 -7 -130 -53 -179 -141 -56 -102 -81 -186 -81 -279 0 -76 0 -77 37 -107 21 -17 61 -41 90 -53 52 -21 68 -38 38 -38 -9 0 -18 -6 -21 -14 -4 -10 -16 -13 -37 -10 -36 5 -163 -29 -160 -42 1 -5 -16 -8 -37 -6 -21 2 -41 -1 -44 -7 -4 -6 -18 -11 -30 -11 -13 0 -30 -10 -38 -22 -14 -21 -18 -22 -41 -9 -15 8 -31 10 -39 5 -7 -5 -23 -7 -34 -6 -15 2 -23 -4 -27 -18 -3 -12 -10 -20 -14 -17 -5 3 -15 2 -23 -3 -12 -7 -12 -12 -2 -22 16 -16 15 -28 -1 -28 -7 0 -28 -16 -47 -35 -19 -19 -42 -35 -52 -35 -24 0 -76 -26 -105 -53 -26 -23 -63 -115 -63 -155 0 -16 -15 -59 -34 -98 -19 -38 -39 -96 -46 -128 -7 -33 -23 -89 -37 -125 -14 -36 -33 -112 -44 -169 -10 -56 -23 -110 -28 -120 -27 -51 -56 -420 -56 -712 1 -578 18 -874 54 -936 10 -17 22 -62 26 -100 4 -38 13 -83 20 -101 7 -17 11 -34 8 -36 -2 -3 -13 -43 -23 -89 -24 -108 -33 -130 -67 -164 -68 -68 -94 -106 -82 -120 20 -24 88 -17 128 13 35 25 35 26 16 2 -19 -22 -55 -91 -55 -105 0 -4 19 -3 43 0 23 4 55 7 71 7 32 0 76 20 95 43 21 26 31 19 31 -21 1 -108 56 -62 89 73 12 49 26 130 31 179 10 93 27 171 29 128 1 -30 21 -40 38 -18 18 26 16 78 -6 171 -13 53 -20 119 -20 204 -1 70 -9 156 -17 195 -10 46 -16 133 -18 250 -1 110 -6 191 -14 207 -18 42 -3 600 19 696 6 26 13 88 15 137 5 95 16 168 33 231 6 22 11 51 11 67 0 15 5 27 10 27 6 0 10 -4 10 -9 0 -5 24 -40 52 -79 107 -140 171 -203 278 -274 58 -39 108 -75 112 -81 6 -9 3 -47 -4 -51 -38 -22 -116 -80 -124 -94 -17 -28 9 -150 51 -237 20 -42 35 -78 33 -81 -2 -2 -20 -5 -39 -7 -64 -7 -111 -39 -95 -66 6 -9 37 -233 41 -296 11 -173 26 -329 33 -339 9 -15 24 -320 27 -566 1 -107 4 -220 5 -251 3 -51 -24 -162 -50 -211 -10 -19 -28 -118 -33 -193 -4 -47 -16 -81 -54 -149 -13 -24 -14 -41 -6 -92 l9 -62 -68 -10 c-37 -6 -74 -17 -82 -24 -12 -12 0 -14 80 -14 52 1 94 -2 94 -6 0 -5 -45 -8 -101 -8 -64 0 -98 -4 -94 -10 4 -6 -8 -10 -29 -10 -20 0 -36 -4 -36 -10 0 -5 21 -10 48 -10 32 0 42 -3 33 -9 -11 -7 -6 -11 20 -14 l34 -4 -40 -2 c-36 -3 -37 -4 -15 -11 14 -4 42 -8 63 -9 20 -1 37 -4 37 -8 0 -5 37 -9 82 -10 100 -2 287 -11 308 -15 36 -6 390 15 390 23 0 5 -26 7 -57 4 -32 -2 -49 -2 -38 1 11 4 23 10 26 15 3 5 42 12 87 16 45 3 82 10 82 15 0 5 9 7 19 3 11 -3 22 -1 26 5 3 5 -3 10 -14 10 -11 0 -22 4 -25 9 -4 5 -50 12 -104 16 -130 8 -173 15 -166 26 3 5 15 7 27 4 12 -2 36 2 52 10 l30 15 -27 -4 c-34 -4 -36 6 -5 27 44 30 9 26 -38 -4 -58 -37 -64 -35 -119 44 -29 42 -40 69 -44 108 -4 45 -3 51 11 46 28 -11 76 13 98 50 18 28 23 55 26 127 2 50 8 117 13 149 5 32 7 64 4 71 -3 7 13 25 38 41 51 33 149 133 168 172 8 16 24 42 36 58 65 91 144 297 144 378 0 26 4 56 9 65 25 47 43 187 47 372 4 197 -5 296 -31 336 -7 11 -16 45 -20 75 -11 97 -46 179 -76 179 -18 0 -19 2 -4 30 34 65 56 243 39 308 -4 13 -30 37 -65 59 -52 32 -59 40 -59 68 0 28 9 39 68 83 38 28 81 69 97 91 15 23 34 41 42 41 7 0 16 14 20 31 3 19 14 34 25 36 10 3 18 13 18 23 0 9 20 59 44 111 24 52 46 107 50 123 7 28 7 28 51 -35 25 -35 45 -69 45 -74 0 -22 130 -132 182 -155 13 -6 39 -22 58 -36 34 -24 40 -25 155 -23 122 3 224 23 271 53 12 9 70 64 128 123 92 94 108 116 125 168 36 110 48 436 18 492 -9 18 -17 46 -17 62 0 28 -23 98 -52 161 -7 14 -26 39 -43 56 -21 20 -34 44 -38 70 -4 25 -20 55 -41 79 -29 34 -36 38 -50 26 -24 -20 -42 -7 -70 48 -27 51 -85 108 -123 117 -27 7 -28 13 -8 40 19 25 19 85 1 129 -9 20 -11 37 -6 40 12 7 -10 45 -25 45 -6 0 -20 -7 -31 -15z m-1174 -61 l40 -37 -29 -31 c-16 -17 -41 -44 -54 -61 -22 -26 -30 -29 -87 -30 -55 0 -64 -3 -86 -28 -42 -49 -25 -125 36 -161 39 -22 65 -20 121 11 47 25 52 26 103 14 47 -10 59 -10 85 4 31 15 31 15 31 -11 0 -53 -22 -104 -55 -124 -110 -68 -302 -61 -408 15 -21 16 -21 16 15 10 33 -6 37 -5 35 14 -1 12 -5 21 -10 21 -4 0 -5 5 -2 10 3 6 -2 10 -12 10 -17 0 -19 8 -18 88 1 74 6 97 32 153 35 75 99 153 120 145 8 -3 12 -2 8 3 -7 12 12 19 57 20 30 1 46 -7 78 -35z m1188 0 c12 7 26 -14 36 -56 4 -18 2 -28 -4 -28 -6 0 -9 4 -5 9 3 5 1 12 -4 16 -6 3 -8 12 -4 20 3 8 0 15 -6 15 -13 0 -25 -45 -17 -66 4 -9 13 -14 21 -10 8 3 15 1 15 -4 0 -17 -18 -20 -30 -5 -7 8 -19 15 -27 15 -10 0 -14 9 -12 28 2 15 0 33 -5 40 -4 7 -2 19 5 28 9 11 14 12 19 3 4 -6 13 -9 18 -5z m-152 -31 c15 -47 25 -64 35 -57 8 4 8 9 0 17 -17 17 -13 37 5 30 8 -3 13 -12 10 -20 -3 -8 -2 -11 3 -8 5 3 12 1 16 -5 3 -5 -1 -10 -9 -10 -9 0 -16 -5 -16 -11 0 -6 8 -8 19 -4 10 3 24 -1 31 -10 10 -13 9 -15 -8 -15 -11 0 -33 5 -49 12 -15 6 -31 12 -35 12 -4 1 -16 11 -28 24 -17 18 -19 26 -10 37 9 10 7 14 -7 18 -12 3 -8 5 10 6 18 1 29 -5 33 -16z m-926 -55 c22 -37 27 -59 8 -40 -17 17 -58 15 -80 -5 -40 -36 -10 -113 45 -113 23 0 28 -3 20 -11 -6 -6 -41 -12 -76 -14 -46 -1 -76 -8 -101 -23 -21 -12 -47 -22 -59 -22 -21 0 -21 1 3 13 53 27 19 93 -35 69 -22 -10 -26 -18 -22 -38 3 -15 0 -23 -7 -21 -6 2 -12 18 -14 36 -5 49 20 71 80 71 61 0 76 8 141 76 29 29 59 54 65 54 7 0 21 -15 32 -32z m-9 -64 c16 -20 20 -42 8 -50 -5 -3 -9 2 -9 10 0 8 -9 21 -20 29 -11 8 -17 17 -13 20 10 11 20 8 34 -9z m1044 -26 c47 -21 25 -24 -46 -6 -39 10 -76 15 -82 11 -6 -4 -7 -1 -2 7 9 14 89 7 130 -12z m124 -76 c27 -27 54 -59 61 -73 7 -14 -2 -7 -23 17 -19 22 -53 48 -75 58 -26 12 -39 23 -35 32 8 23 21 17 72 -34z m-1389 -12 c0 -5 -7 -10 -16 -10 -8 0 -12 5 -9 10 3 6 10 10 16 10 5 0 9 -4 9 -10z m1349 -15 c30 -15 85 -74 77 -82 -3 -4 -82 55 -125 93 -11 10 23 2 48 -11z m-1104 -15 c-3 -5 -18 -9 -33 -9 l-27 1 30 8 c17 4 31 8 33 9 2 0 0 -3 -3 -9z m1036 -6 c17 -8 51 -31 76 -50 34 -26 41 -35 29 -40 -9 -4 -28 5 -46 19 -16 14 -46 31 -67 37 -45 15 -58 25 -49 39 10 15 22 14 57 -5z m15 -85 c71 -48 38 -48 -42 0 -17 10 -40 21 -50 24 -11 3 -6 5 14 6 22 1 48 -9 78 -30z m225 -9 c23 -18 23 -19 4 -20 -11 0 -37 -11 -57 -25 -45 -30 -54 -31 -68 -5 -11 20 -5 25 55 58 28 16 40 15 66 -8z m-297 -100 c6 -33 5 -32 -13 10 -11 25 -20 56 -20 70 0 21 2 20 13 -10 8 -20 16 -51 20 -70z m375 24 c31 -34 33 -54 7 -54 -7 0 -32 -13 -56 -29 l-44 -29 -28 45 c-16 24 -26 49 -23 54 9 13 77 48 96 49 10 0 31 -16 48 -36z m-1530 -101 c17 -38 14 -43 -29 -43 -44 0 -49 6 -22 26 16 13 16 14 -5 20 -34 9 -28 19 11 20 27 0 37 -5 45 -23z m1608 15 c26 -36 74 -181 64 -194 -17 -24 -54 -47 -95 -59 l-46 -14 -6 27 c-10 48 -46 157 -55 167 -15 16 -10 24 29 49 56 35 94 43 109 24z m-190 -51 c-6 -19 -27 -19 -28 0 0 10 -2 27 -4 38 -3 18 -2 18 16 -4 11 -13 18 -29 16 -34z m-1357 21 c0 -16 -3 -19 -11 -11 -6 6 -8 16 -5 22 11 17 16 13 16 -11z m-210 -28 c0 -5 -5 -10 -11 -10 -5 0 -7 5 -4 10 3 6 8 10 11 10 2 0 4 -4 4 -10z m1629 -125 c23 -71 25 -85 14 -85 -10 0 -39 74 -47 118 -10 55 10 35 33 -33z m-2082 -12 c-3 -10 -5 -2 -5 17 0 19 2 27 5 18 2 -10 2 -26 0 -35z m60 -10 c-3 -10 -5 -2 -5 17 0 19 2 27 5 18 2 -10 2 -26 0 -35z m2235 -74 c17 -79 20 -204 6 -222 -14 -19 -92 -42 -108 -32 -5 3 -7 23 -5 45 3 35 -18 131 -39 182 -6 13 3 19 48 32 30 9 58 21 61 27 12 18 29 3 37 -32z m-930 -16 c17 -22 38 -69 38 -88 0 -8 -8 -16 -17 -16 -16 -1 -16 -2 1 -6 14 -4 17 -11 12 -36 -8 -42 -33 -77 -53 -77 -14 0 -13 3 5 23 29 31 46 77 28 77 -8 0 -17 -7 -20 -16 -11 -29 -23 -5 -30 61 -4 35 -9 72 -12 80 -9 21 29 20 48 -2z m-1504 -19 c37 -26 62 -87 62 -152 0 -58 -1 -60 -51 -107 -46 -43 -53 -46 -87 -40 -134 24 -132 229 3 303 28 16 47 15 73 -4z m2262 -30 c25 -54 40 -184 21 -184 -17 0 -27 35 -35 120 -4 41 -9 83 -12 93 -10 33 6 16 26 -29z m-1093 -33 c36 -34 56 -104 50 -171 -5 -62 -38 -135 -69 -154 -20 -12 -48 0 -57 25 -3 12 -2 12 12 1 12 -10 21 -11 36 -2 25 13 28 30 5 30 -11 0 -14 6 -9 20 4 11 2 20 -4 20 -6 0 -11 14 -11 31 0 20 -8 39 -22 52 -16 13 -19 21 -10 24 17 6 15 23 -3 23 -27 0 -12 63 25 100 25 25 31 25 57 1z m-825 -33 c14 -18 30 -48 36 -67 17 -49 15 -196 -3 -230 -19 -37 -42 -46 -55 -20 -8 14 -8 19 1 17 8 -2 13 15 16 50 2 31 -1 52 -7 52 -5 0 -10 5 -10 11 0 7 -9 19 -20 29 -11 9 -24 28 -29 41 -10 24 -10 23 -11 -6 -2 -51 -18 1 -19 63 -1 88 54 121 101 60z m1246 -176 c-11 -13 -10 -15 9 -10 13 4 26 2 29 -3 3 -5 0 -9 -5 -9 -6 0 -11 -4 -11 -10 0 -5 9 -10 20 -10 17 0 19 -4 14 -27 -7 -26 -6 -27 11 -13 17 14 18 13 11 -12 -5 -24 -3 -28 14 -28 20 0 160 -104 160 -119 0 -4 -13 -22 -30 -41 -16 -19 -29 -40 -30 -47 -1 -31 -27 -20 -93 38 -40 34 -80 72 -89 83 -16 20 -16 22 2 38 11 10 26 18 34 18 8 0 18 5 21 10 11 19 -39 10 -60 -10 l-22 -20 -14 27 c-7 16 -22 40 -33 55 -16 22 -17 30 -6 43 7 8 9 15 4 15 -4 0 -3 5 3 11 6 6 9 18 6 25 -3 8 0 14 7 14 6 0 18 7 26 15 9 8 11 15 6 15 -12 0 -22 36 -14 45 4 4 15 -13 24 -36 15 -34 16 -44 6 -57z m-564 68 c25 -9 26 -13 26 -89 0 -90 14 -117 66 -127 26 -5 37 -1 61 23 32 29 73 116 73 152 0 12 4 21 9 21 27 0 61 -66 46 -89 -3 -6 0 -11 8 -11 13 0 42 47 39 63 -1 4 2 7 6 7 12 0 56 -49 50 -55 -3 -3 -11 1 -18 10 -24 28 -39 17 -46 -34 -5 -38 -11 -50 -27 -55 -30 -7 -41 4 -20 19 14 10 15 16 6 25 -9 10 -17 7 -35 -10 l-23 -22 30 -24 c17 -14 22 -22 13 -18 -10 3 -18 1 -18 -5 0 -19 39 -12 50 10 7 11 14 18 17 15 4 -3 -9 -24 -27 -47 -18 -23 -29 -44 -24 -48 5 -3 9 -15 9 -26 0 -16 6 -20 28 -18 15 1 27 -2 27 -7 0 -22 -14 -40 -32 -40 -14 0 -18 -5 -14 -15 8 -21 -3 -45 -21 -45 -8 0 -12 -4 -9 -8 3 -5 -6 -21 -20 -36 -14 -15 -23 -33 -21 -41 7 -17 -30 -27 -54 -14 -12 6 -20 5 -24 -1 -5 -8 -11 -8 -20 0 -20 17 -31 -8 -12 -28 13 -13 19 -13 31 -2 15 11 20 7 17 -12 0 -5 6 -8 14 -8 8 0 15 7 15 15 0 8 5 15 10 15 17 0 -6 -36 -53 -81 -111 -107 -286 -159 -535 -159 -148 0 -235 45 -399 208 -95 94 -114 118 -155 201 l-47 94 27 38 c15 20 29 36 30 34 2 -2 -6 -17 -19 -34 l-23 -31 24 -50 c24 -52 27 -55 47 -42 19 12 24 54 14 107 -6 31 -6 54 0 60 18 18 9 28 -11 10 -11 -10 -20 -14 -20 -8 0 17 133 113 156 113 2 0 10 -26 19 -57 28 -101 30 -105 72 -101 33 3 41 9 62 46 15 28 25 67 28 106 l5 63 91 18 c136 28 453 44 501 25z m1390 -204 c-20 -48 -35 -71 -52 -77 -13 -5 -24 -9 -25 -9 -1 0 -2 53 -2 117 l0 118 50 15 50 16 3 -56 c2 -42 -3 -71 -24 -124z m-108 128 c10 -38 -2 -155 -20 -198 -20 -48 -51 -50 -42 -3 3 17 10 70 16 117 6 47 13 91 15 98 7 21 24 13 31 -14z m-2509 -16 c-3 -8 -6 -5 -6 6 -1 11 2 17 5 13 3 -3 4 -12 1 -19z m63 -49 c0 -10 5 -21 11 -25 8 -4 9 1 4 17 -5 19 -4 21 4 9 6 -8 11 -25 11 -37 0 -12 4 -24 9 -27 19 -12 71 8 107 40 l37 34 -6 -40 c-3 -22 -16 -62 -29 -88 -23 -47 -23 -47 -68 -44 -25 1 -68 9 -97 17 l-51 15 14 29 c8 17 16 52 18 78 6 82 5 80 21 59 8 -11 15 -28 15 -37z m-79 -102 c-5 -23 -35 -18 -39 6 -2 10 5 43 15 75 l18 57 5 -60 c3 -33 3 -68 1 -78z m26 86 c-3 -10 -5 -2 -5 17 0 19 2 27 5 18 2 -10 2 -26 0 -35z m1733 -75 c7 -12 5 -18 -7 -22 -16 -7 -36 11 -27 25 2 4 0 20 -6 36 l-10 28 20 -25 c11 -14 25 -32 30 -42z m-154 5 c-3 -10 -8 -30 -12 -46 -5 -21 -9 -25 -19 -17 -10 8 -9 17 4 45 17 36 36 48 27 18z m-1643 -111 c-10 -111 -44 -222 -68 -222 -20 0 -19 25 5 129 34 145 39 161 54 155 11 -4 13 -19 9 -62z m1916 -26 c75 -64 102 -106 68 -106 -23 0 -134 87 -156 124 -21 33 -21 61 -1 54 5 -2 45 -34 89 -72z m-1727 34 c35 0 45 -33 30 -104 -6 -28 -16 -79 -23 -114 -10 -52 -15 -62 -28 -56 -9 4 -57 12 -107 18 l-91 11 14 40 c7 22 23 76 34 120 30 118 29 116 91 99 29 -7 65 -14 80 -14z m2090 -10 l68 0 -4 -32 c-7 -58 -60 -78 -207 -78 -71 0 -84 9 -56 39 10 12 9 13 -7 7 -17 -6 -17 -4 3 26 23 37 50 49 101 43 19 -3 65 -5 102 -5z m258 -7 c0 -5 -16 -28 -36 -53 -59 -74 -149 -122 -169 -90 -13 21 8 50 58 78 29 16 61 39 71 51 18 20 76 30 76 14z m-245 -143 c0 -23 -5 -26 -60 -33 -75 -10 -172 -4 -187 11 -8 8 -8 15 1 26 10 11 39 16 114 19 138 4 132 5 132 -23z m-2357 -148 c2 -30 -3 -75 -12 -100 -8 -26 -17 -59 -20 -74 -7 -33 -32 -37 -41 -8 -7 21 8 130 26 203 7 28 15 37 27 35 13 -2 18 -16 20 -56z m199 17 c54 -17 56 -26 37 -148 -16 -106 -25 -125 -50 -102 -12 10 -117 31 -161 31 -38 0 -41 11 -17 68 8 20 18 68 21 106 l6 68 66 -7 c36 -3 80 -11 98 -16z m1161 -185 c-2 -35 -8 -50 -27 -65 -13 -10 -29 -19 -35 -19 -6 0 1 8 17 18 20 12 27 25 27 48 0 18 -5 34 -12 36 -15 5 -1 28 17 28 11 0 14 -12 13 -46z m-63 -7 c-8 -13 -12 -26 -9 -30 11 -11 -39 -46 -74 -53 -21 -4 -31 -11 -28 -19 6 -18 -104 -29 -198 -20 -66 6 -74 9 -71 26 2 12 -2 19 -11 19 -8 0 -14 2 -14 4 0 2 -2 11 -6 19 -4 12 19 15 138 19 118 5 155 10 213 30 39 14 71 26 73 27 1 0 -4 -9 -13 -22z m-458 -21 c-3 -7 1 -25 8 -40 14 -25 5 -43 -15 -31 -14 8 -13 85 1 85 6 0 9 -6 6 -14z m643 -68 c1 -22 -135 -108 -171 -108 -5 0 -31 -11 -57 -25 -45 -24 -102 -32 -137 -19 -13 5 -14 8 -3 15 10 7 10 9 -2 10 -8 0 -4 5 10 9 18 7 10 8 -32 7 -39 -1 -59 -6 -63 -16 -12 -31 -259 3 -318 44 -15 11 -12 16 37 48 31 21 58 32 61 27 3 -6 1 -10 -5 -10 -15 0 -82 -51 -76 -58 3 -2 17 3 30 12 18 11 32 13 48 7 13 -5 34 -7 48 -6 14 1 32 3 40 4 13 1 13 2 0 12 -12 8 -10 10 10 5 120 -24 302 -11 396 29 68 30 96 35 111 23 7 -6 16 -8 20 -5 9 9 -17 37 -34 37 -8 0 -12 4 -8 9 6 10 94 -38 95 -51z m-1522 -14 c4 -81 -28 -218 -52 -222 -14 -3 -17 2 -13 25 2 15 7 35 10 43 12 28 26 185 17 188 -13 5 12 32 25 28 6 -1 11 -29 13 -62z m196 30 c46 -15 56 -22 61 -45 6 -27 1 -97 -11 -178 l-5 -34 -116 6 c-64 4 -118 9 -121 11 -2 3 3 46 12 95 9 49 16 108 16 131 l0 43 54 -6 c30 -3 79 -13 110 -23z m1331 -116 c-26 -202 -100 -340 -224 -420 -50 -31 -83 -34 -177 -17 -81 15 -104 31 -104 75 0 46 -16 74 -42 74 -11 0 -31 10 -44 23 -12 12 -38 36 -58 52 -20 17 -36 36 -36 43 0 6 -4 12 -9 12 -5 0 -13 10 -17 22 -3 12 -10 26 -15 32 -5 6 -19 22 -31 36 l-21 25 6 -36 c8 -54 45 -125 85 -164 37 -36 34 -49 -4 -17 -43 35 -88 134 -103 222 l-7 45 46 -22 c50 -24 148 -43 221 -43 42 0 47 -3 53 -26 19 -74 108 -133 183 -121 49 8 95 59 111 124 12 45 16 50 61 66 26 9 63 27 82 41 19 13 38 25 42 25 5 1 6 -23 2 -51z m-216 -85 c-12 -43 -53 -83 -86 -83 -24 0 -53 24 -53 45 0 8 -8 20 -19 27 -16 11 -10 13 43 13 42 0 70 5 87 17 35 25 38 22 28 -19z m-1129 -77 l58 -1 6 -44 c8 -56 -4 -270 -16 -277 -11 -7 -211 28 -219 38 -3 5 -2 36 2 70 4 34 6 75 4 92 -3 17 -6 55 -9 84 l-5 53 61 -7 c33 -4 86 -7 118 -8z m-198 -36 c10 -44 -1 -231 -14 -247 -6 -7 -16 -13 -23 -13 -19 0 -21 193 -2 211 7 8 12 20 9 27 -2 7 2 20 10 29 11 15 10 16 -9 11 -23 -6 -30 2 -16 16 16 15 38 -1 45 -34z m1510 -95 c-3 -18 0 -25 11 -25 9 0 17 10 19 23 3 17 8 10 21 -28 9 -27 19 -68 23 -91 l6 -41 -81 -41 -81 -41 -11 22 c-18 32 -28 86 -18 93 5 3 9 0 9 -6 0 -6 5 -8 11 -5 6 4 8 13 5 21 -3 7 5 26 17 41 13 16 31 45 42 66 23 43 34 48 27 12z m-535 -23 c14 -9 33 -115 33 -184 0 -52 7 -48 -105 -63 -22 -3 -57 -8 -77 -12 l-38 -6 0 90 c0 53 -6 107 -14 131 -13 37 -13 41 2 45 29 8 186 7 199 -1z m-221 -232 c-1 -65 -18 -55 -32 19 -9 54 -9 70 5 105 l16 41 6 -60 c3 -33 5 -80 5 -105z m364 74 c25 -9 75 -18 112 -18 l66 -1 10 -35 c11 -34 16 -66 27 -145 3 -22 10 -69 17 -104 11 -68 5 -266 -11 -336 -5 -22 -16 -74 -25 -115 -21 -94 -49 -164 -87 -212 -16 -20 -29 -42 -29 -47 0 -6 -6 -11 -13 -11 -7 0 -23 -13 -35 -30 -13 -16 -26 -30 -31 -30 -10 0 -24 180 -22 280 1 41 -4 116 -10 165 -6 50 -13 176 -14 280 -2 143 -7 202 -19 239 -9 27 -16 71 -16 99 0 55 -5 54 80 21z m-1107 -139 c9 -148 4 -200 -19 -191 -9 3 -20 6 -25 6 -5 0 -9 36 -9 80 0 44 3 80 8 80 4 0 6 30 5 67 -1 48 -5 67 -14 65 -9 -2 -9 1 1 13 7 9 20 14 29 13 13 -3 17 -26 24 -133z m140 115 c115 -24 127 -33 129 -100 2 -168 1 -270 -3 -275 -3 -3 -28 1 -55 10 -27 8 -74 21 -105 30 -31 8 -61 21 -67 28 -13 15 -21 327 -9 327 5 0 55 -9 110 -20z m1456 -17 c7 -21 15 -100 18 -175 5 -131 5 -138 -13 -138 -10 0 -26 -5 -34 -11 -12 -8 -9 -10 12 -6 23 3 28 0 33 -24 10 -43 -20 -264 -46 -346 -9 -28 -15 -33 -42 -33 -18 0 -52 9 -76 20 -34 16 -42 24 -36 37 17 46 35 146 41 230 l7 91 33 7 c19 3 34 10 34 16 0 5 -10 7 -22 4 -47 -12 -55 9 -61 158 l-6 137 67 35 c37 19 70 34 73 35 3 0 11 -17 18 -37z m-588 -105 c7 -25 13 -112 13 -203 l1 -160 -62 -14 c-35 -8 -63 -18 -63 -23 0 -5 29 -6 64 -2 l64 7 13 -74 c18 -105 18 -205 -1 -222 -8 -8 -37 -22 -63 -32 -62 -22 -48 -39 16 -18 26 9 50 13 53 10 11 -10 25 -171 20 -212 -3 -22 -9 -71 -12 -110 -11 -132 -22 -152 -89 -160 -5 -1 -25 -5 -42 -9 -38 -9 -73 0 -73 18 0 6 10 12 21 13 25 2 52 23 30 23 -11 0 -11 3 -1 15 7 9 10 19 6 23 -4 4 -18 -5 -30 -20 l-22 -28 13 143 c10 104 11 163 3 221 -14 107 -13 113 10 119 13 3 18 10 14 21 -7 18 -24 22 -24 6 0 -5 -4 -10 -8 -10 -5 0 -9 20 -11 45 -1 25 -8 82 -16 127 -20 112 -19 129 6 135 12 4 18 11 15 20 -3 8 -6 20 -6 26 0 7 -7 3 -15 -7 -14 -18 -15 -11 -16 70 0 49 -6 130 -13 179 -8 50 -10 94 -6 98 4 5 38 12 76 16 127 15 122 16 135 -31z m-222 -290 c0 -98 -7 -126 -24 -98 -3 5 -11 51 -17 102 -10 89 -7 128 20 213 9 29 21 -90 21 -217z m628 170 c-3 -7 -5 -2 -5 12 0 14 2 19 5 13 2 -7 2 -19 0 -25z m3 -53 c0 -14 -4 -25 -9 -25 -4 0 -6 11 -3 25 2 14 6 25 8 25 2 0 4 -11 4 -25z m-1409 -37 c1 -2 9 -91 18 -198 18 -203 17 -213 -24 -208 -16 2 -21 13 -26 53 -8 63 -18 260 -12 223 8 -49 18 -30 18 32 0 33 3 60 8 60 15 0 6 17 -15 28 -23 10 -23 11 5 11 15 1 28 0 28 -1z m121 -33 c33 -9 78 -23 98 -31 42 -17 38 -2 64 -236 11 -100 11 -106 -5 -97 -29 15 -41 11 -34 -13 6 -17 4 -20 -10 -15 -12 5 -16 2 -13 -11 3 -19 58 -31 58 -13 0 6 4 11 10 11 5 0 7 -7 4 -15 -4 -9 -19 -15 -40 -15 -29 0 -36 6 -53 38 -11 20 -20 31 -21 24 0 -7 5 -22 10 -33 13 -24 8 -24 -62 3 l-58 23 0 55 c0 71 -27 328 -36 342 -5 8 -1 9 10 5 9 -4 44 -14 78 -22z m1282 10 c-4 -8 -8 -15 -10 -15 -2 0 -4 7 -4 15 0 8 4 15 10 15 5 0 7 -7 4 -15z m-624 -200 c0 -3 7 -38 15 -78 8 -40 15 -110 17 -157 2 -70 0 -85 -12 -85 -8 0 -20 16 -27 35 -15 43 -17 290 -3 290 6 0 10 -2 10 -5z m723 -203 c49 -3 57 -7 57 -24 0 -71 -124 -352 -159 -361 -14 -3 -18 -11 -14 -26 4 -16 -11 -38 -68 -97 -115 -118 -149 -128 -211 -64 -60 64 -50 135 24 168 24 10 52 29 62 41 25 27 51 27 119 -3 73 -33 82 -21 10 15 -79 39 -82 48 -32 111 48 61 96 155 105 207 9 48 13 54 33 45 9 -4 42 -10 74 -12z m-1367 -41 c32 -10 77 -22 99 -26 22 -4 43 -12 47 -18 10 -15 10 -79 0 -93 -6 -11 -55 -5 -169 21 -17 4 -23 15 -28 53 -4 26 -9 55 -12 65 -5 21 -9 21 63 -2z m699 -167 c4 -36 4 -86 1 -112 -3 -26 -8 -78 -12 -117 -6 -66 -9 -96 -13 -120 -1 -5 -8 1 -16 15 -11 19 -14 69 -15 213 l0 187 24 0 c22 0 24 -5 31 -66z m-645 6 c75 -13 90 -23 83 -51 -10 -38 -86 -51 -148 -25 -32 14 -35 19 -35 56 0 35 3 41 18 36 9 -3 46 -10 82 -16z m160 -35 c0 -8 -4 -15 -10 -15 -5 0 -10 7 -10 15 0 8 5 15 10 15 6 0 10 -7 10 -15z m-290 -89 c0 -76 -33 -164 -50 -136 -7 11 10 124 25 171 12 37 25 18 25 -35z m69 14 c16 -8 17 -16 9 -66 -12 -78 -35 -131 -50 -116 -9 9 -9 27 0 75 7 36 12 76 12 91 0 29 3 30 29 16z m129 -82 c-2 -46 -9 -91 -14 -101 -8 -13 -9 7 -7 70 5 92 8 113 19 113 4 0 5 -37 2 -82z m-48 50 c0 -42 -22 -148 -31 -148 -10 0 -12 77 -3 133 7 40 34 52 34 15z m-213 -172 c-17 -26 -103 -73 -114 -62 -4 4 16 30 46 57 43 40 56 47 67 38 12 -10 12 -15 1 -33z m88 -16 c3 -5 -1 -22 -9 -38 -25 -48 -106 -122 -106 -97 0 3 20 33 45 67 25 34 45 66 45 70 0 11 18 10 25 -2z m92 -26 c6 -18 -38 -68 -79 -90 -50 -26 -47 -16 16 60 42 49 53 55 63 30z m53 -10 c0 -18 -24 -101 -32 -109 -10 -10 -9 -2 8 85 3 17 10 30 15 30 5 0 9 -3 9 -6z m564 -224 c-15 -69 -51 -158 -55 -135 -1 6 -2 25 -4 43 -1 19 -7 38 -13 44 -10 10 43 184 72 233 19 34 20 -98 0 -185z m220 93 c-8 -168 -61 -311 -119 -327 -26 -7 -114 -7 -142 0 -21 6 -21 7 17 87 42 88 70 204 70 288 0 48 1 51 23 46 17 -4 96 2 149 12 4 0 5 -47 2 -106z m43 -5 c-2 -13 -4 -5 -4 17 -1 22 1 32 4 23 2 -10 2 -28 0 -40z m20 -30 c-3 -7 -5 -2 -5 12 0 14 2 19 5 13 2 -7 2 -19 0 -25z m73 7 c0 -7 -3 -27 -6 -44 -6 -26 -11 -31 -35 -31 -16 0 -29 5 -29 11 0 6 7 8 16 5 12 -4 15 -2 10 9 -3 8 -1 15 5 15 5 0 7 11 5 24 -2 13 -2 27 1 29 8 9 33 -4 33 -18z m-90 -165 c0 -22 -4 -40 -10 -40 -11 0 -13 39 -4 64 10 26 14 19 14 -24z m80 -4 c0 -58 -12 -85 -43 -95 -35 -13 -74 -15 -63 -3 4 4 24 12 44 17 19 6 37 16 40 24 3 10 0 12 -11 8 -14 -5 -15 -3 -4 13 6 11 15 20 19 20 5 0 8 7 8 16 0 10 -6 14 -15 10 -8 -3 -15 -1 -15 4 0 6 9 10 20 10 14 0 20 -7 20 -24z m-136 -177 c2 -13 7 -32 11 -41 4 -10 5 -18 3 -18 -9 0 -224 -30 -258 -36 l-35 -6 -16 61 -16 61 86 -6 c52 -4 102 -2 126 5 26 7 43 7 49 1 18 -18 34 -11 29 13 -3 18 -2 19 6 6 5 -8 12 -26 15 -40z m36 -126 c44 -50 101 -146 92 -155 -4 -4 -54 -14 -112 -23 -58 -9 -121 -19 -140 -23 -44 -10 -70 -5 -70 14 0 11 16 14 68 15 72 0 154 8 162 16 2 2 -50 3 -117 1 l-122 -3 -31 72 c-16 40 -30 77 -30 81 0 5 24 12 53 16 135 16 152 19 156 22 2 2 16 4 31 4 18 0 37 -12 60 -37z m-417 -90 c-7 -2 -19 -2 -25 0 -7 3 -2 5 12 5 14 0 19 -2 13 -5z m132 -34 c9 -17 14 -33 12 -36 -4 -3 -37 53 -37 64 0 11 12 -1 25 -28z m634 -23 c-2 -2 -38 -6 -79 -9 -46 -3 -62 -2 -40 3 36 8 126 13 119 6z m30 -20 c-2 -2 -33 -6 -69 -9 -38 -3 -57 -1 -45 3 19 8 123 14 114 6z m-254 -56 c-33 -4 -87 -8 -120 -7 l-60 0 55 7 c30 4 84 7 120 7 l65 0 -60 -7z"/>
<path d="M1740 5605 c-7 -8 -21 -15 -31 -15 -14 0 -18 -6 -16 -22 2 -12 9 -24 16 -26 19 -6 39 17 34 39 -4 13 -1 19 7 17 7 -2 15 3 17 10 6 17 -12 15 -27 -3z"/>
<path d="M841 4754 c-15 -33 -10 -38 30 -29 23 5 28 10 18 16 -8 4 -14 14 -14 20 0 24 -22 19 -34 -7z"/>
<path d="M870 4697 c0 -32 30 -57 66 -57 21 0 40 10 64 35 24 25 29 35 18 35 -9 0 -20 -5 -23 -10 -5 -8 -11 -7 -21 1 -8 6 -14 8 -14 3 0 -13 -63 -9 -68 4 -7 21 -22 13 -22 -11z"/>
<path d="M2727 4413 c-16 -8 -27 -17 -24 -20 3 -2 15 1 27 7 26 14 36 8 16 -9 -12 -10 -13 -16 -3 -26 9 -10 18 -8 44 13 40 30 42 44 6 37 -15 -2 -30 0 -33 4 -3 5 -18 2 -33 -6z"/>
<path d="M2241 4468 c-5 -13 -7 -26 -4 -30 4 -7 -32 -48 -42 -48 -3 0 -5 7 -5 15 0 8 -9 15 -20 15 -11 0 -20 -4 -20 -10 0 -5 -7 -10 -16 -10 -12 0 -15 -7 -12 -24 3 -15 0 -27 -8 -30 -19 -7 -18 -36 1 -36 18 0 35 31 35 64 0 14 5 26 10 26 6 0 10 -7 10 -15 0 -22 36 -18 64 8 25 23 41 83 25 93 -5 3 -13 -5 -18 -18z"/>
<path d="M2104 4266 c10 -15 12 -27 6 -31 -14 -9 -12 -35 3 -35 6 0 17 11 23 25 10 20 9 28 -6 45 -26 30 -46 26 -26 -4z"/>
<path d="M1351 4093 c-11 -40 -2 -66 26 -78 29 -12 63 -14 63 -4 0 6 5 7 11 3 6 -3 15 0 20 7 12 19 11 29 -2 29 -5 0 -7 -4 -4 -10 10 -16 -22 -12 -38 5 -8 8 -17 11 -21 8 -3 -4 -6 1 -6 10 0 10 -5 17 -11 17 -6 0 -8 8 -4 19 3 12 0 21 -9 24 -11 4 -18 -4 -25 -30z"/>
<path d="M2027 4065 c-15 -14 -38 -25 -50 -25 -14 0 -18 -3 -11 -10 18 -18 104 25 104 52 0 14 -14 8 -43 -17z"/>
<path d="M1960 4060 c0 -5 7 -10 15 -10 8 0 15 5 15 10 0 6 -7 10 -15 10 -8 0 -15 -4 -15 -10z"/>
<path d="M1518 3974 c4 -23 6 -24 20 -11 16 16 9 37 -12 37 -9 0 -12 -9 -8 -26z"/>
<path d="M880 4188 c0 -9 -6 -18 -12 -21 -10 -3 -10 -8 -2 -16 9 -10 13 -6 18 14 4 15 5 30 1 33 -3 3 -5 -2 -5 -10z"/>
<path d="M896 4165 c-9 -23 -8 -25 9 -25 17 0 19 9 6 28 -7 11 -10 10 -15 -3z"/>
<path d="M2956 4323 c-24 -20 -20 -30 9 -23 6 2 22 2 37 1 16 -1 38 9 55 24 l28 25 -51 -2 c-37 -1 -58 -7 -78 -25z"/>
<path d="M860 3894 c0 -8 5 -12 10 -9 6 4 8 11 5 16 -9 14 -15 11 -15 -7z"/>
<path d="M1867 3733 c-8 -7 21 -43 36 -43 5 0 7 7 3 15 -4 12 -2 13 14 3 10 -7 22 -9 26 -5 11 11 0 18 -32 20 -16 1 -32 5 -35 10 -3 4 -8 4 -12 0z"/>
<path d="M2099 3703 c-13 -15 -12 -15 11 -3 l25 13 -19 -22 c-11 -11 -14 -21 -9 -21 16 0 36 28 28 40 -9 14 -20 12 -36 -7z"/>
<path d="M2104 3645 c-16 -13 -23 -24 -16 -25 9 0 10 -5 2 -19 -17 -33 -11 -35 16 -5 53 61 52 93 -2 49z"/>
<path d="M2120 3384 c0 -8 -4 -12 -10 -9 -5 3 -10 2 -10 -3 0 -5 16 -9 35 -8 41 1 44 9 10 24 -21 10 -25 9 -25 -4z"/>
<path d="M1430 3201 c-15 -28 -12 -43 6 -39 10 2 18 15 20 31 3 31 -11 36 -26 8z"/>
<path d="M873 2935 c4 -8 2 -17 -3 -20 -4 -3 -11 1 -13 7 -3 7 -6 3 -6 -10 -1 -17 4 -23 17 -20 19 4 31 58 12 58 -7 0 -10 -7 -7 -15z"/>
<path d="M2144 2528 c-3 -5 -1 -15 6 -21 10 -9 14 -9 17 1 3 6 9 10 14 6 5 -3 9 -1 9 4 0 14 -39 22 -46 10z"/>
<path d="M2012 2135 c2 -19 9 -31 21 -33 23 -5 22 14 -4 41 l-21 22 4 -30z"/>
<path d="M1400 1243 c1 -11 26 -43 34 -43 14 0 37 30 31 40 -7 12 -65 14 -65 3z"/>
<path d="M1434 1178 c6 -34 19 -58 31 -58 19 0 24 22 8 38 -7 8 -11 18 -8 23 4 5 -3 9 -14 9 -10 0 -18 -6 -17 -12z"/>
<path d="M2123 5213 c-7 -2 -13 -11 -13 -19 0 -8 -5 -14 -11 -14 -5 0 -7 5 -4 11 5 7 -4 9 -26 7 -42 -4 -48 -24 -10 -33 17 -4 31 -11 31 -16 0 -7 50 -6 119 3 21 2 29 -5 35 -32 4 -23 11 -30 30 -30 13 0 29 -7 36 -15 15 -19 11 -19 -33 0 -19 8 -37 11 -41 8 -3 -4 -6 1 -6 10 0 22 -6 21 -31 -1 -34 -32 5 -76 48 -54 26 14 71 12 84 -4 7 -8 20 -12 29 -9 10 3 20 -1 23 -9 6 -14 50 -17 54 -3 2 4 -7 18 -18 31 -17 20 -28 24 -52 19 -18 -4 -28 -2 -24 4 3 5 -8 18 -26 28 -17 10 -42 32 -56 48 -19 23 -30 28 -60 25 -33 -3 -36 -1 -39 25 -3 26 -13 31 -39 20z"/>
<path d="M2105 5120 c4 -6 11 -8 16 -5 14 9 11 15 -7 15 -8 0 -12 -5 -9 -10z"/>
<path d="M1965 5112 c-4 -4 40 -32 51 -32 2 0 4 6 4 14 0 13 -44 28 -55 18z"/>
<path d="M2125 5090 c-3 -5 1 -10 10 -10 9 0 13 5 10 10 -3 6 -8 10 -10 10 -2 0 -7 -4 -10 -10z"/>
<path d="M1340 5065 c0 -10 -10 -15 -30 -15 -18 0 -33 -6 -37 -15 -7 -20 6 -33 16 -17 8 14 57 7 67 -9 7 -12 27 -11 59 1 22 8 25 13 16 24 -7 8 -10 19 -9 26 7 29 -23 19 -37 -12 -14 -34 -19 -31 -15 10 1 14 -4 22 -14 22 -9 0 -16 -7 -16 -15z"/>
<path d="M1943 5050 c-13 -5 -23 -14 -23 -19 0 -5 -12 -9 -27 -8 -22 2 -29 -3 -31 -21 -5 -30 23 -39 62 -19 44 23 86 32 86 18 0 -6 7 -11 15 -11 9 0 12 -6 9 -15 -4 -9 0 -15 8 -15 28 0 27 13 -4 43 -17 17 -26 33 -19 35 6 2 11 8 11 13 0 11 -58 11 -87 -1z m42 -20 c-27 -12 -43 -12 -25 0 8 5 22 9 30 9 10 0 8 -3 -5 -9z m-78 -36 c-3 -3 -12 -4 -19 -1 -8 3 -5 6 6 6 11 1 17 -2 13 -5z"/>
<path d="M2280 5010 c0 -5 5 -10 10 -10 6 0 10 5 10 10 0 6 -4 10 -10 10 -5 0 -10 -4 -10 -10z"/>
<path d="M1714 4925 c-10 -25 4 -45 30 -45 26 0 52 32 41 50 -10 16 -65 12 -71 -5z m46 -15 c0 -5 -4 -10 -10 -10 -5 0 -10 5 -10 10 0 6 5 10 10 10 6 0 10 -4 10 -10z"/>
<path d="M2313 4853 c-7 -2 -13 -8 -13 -13 0 -10 38 -1 46 11 6 10 -13 11 -33 2z"/>
<path d="M2277 4814 c-8 -8 1 -24 14 -24 5 0 9 7 9 15 0 15 -12 20 -23 9z"/>
<path d="M2610 1373 c-28 -33 -64 -87 -82 -123 l-19 -35 5 38 c4 28 1 37 -10 37 -8 0 -14 -6 -14 -14 0 -15 -38 -66 -49 -66 -8 0 5 115 14 130 7 11 -5 40 -15 40 -5 0 -12 -21 -15 -47 -4 -27 -9 -55 -11 -63 -5 -18 -57 -80 -67 -80 -5 0 -5 18 -2 40 6 41 -10 57 -22 23 -8 -23 -34 -53 -45 -53 -17 0 -7 39 17 68 28 33 33 51 10 32 -13 -11 -15 -10 -9 6 3 12 -6 6 -27 -16 -17 -19 -29 -27 -26 -17 7 19 -3 23 -20 6 -6 -6 -30 -20 -53 -30 l-42 -19 5 25 c3 16 0 24 -7 22 -6 -2 -12 -22 -14 -44 -4 -50 20 -65 50 -33 11 11 23 18 28 15 5 -3 15 3 22 15 7 11 16 20 21 20 4 0 0 -11 -9 -26 -19 -28 -13 -39 28 -49 19 -5 32 -1 47 14 16 16 21 18 21 6 0 -23 26 -29 59 -12 21 11 32 12 40 4 8 -8 19 -7 39 5 19 11 33 14 42 8 23 -15 28 -12 40 26 16 49 24 36 10 -16 -9 -32 -9 -45 0 -54 9 -8 16 -5 27 12 9 12 21 22 29 22 7 0 27 20 45 45 18 25 34 45 36 45 1 0 -7 -25 -18 -56 -12 -30 -18 -58 -15 -61 11 -12 76 157 76 200 0 29 -16 19 -26 -15 -6 -20 -20 -38 -36 -46 -15 -7 -43 -35 -63 -62 -20 -28 -39 -50 -41 -50 -3 0 -2 6 3 13 8 13 8 14 18 61 3 16 15 46 26 68 22 44 22 69 -1 41z m30 -127 c0 -2 -8 -10 -17 -17 -16 -13 -17 -12 -4 4 13 16 21 21 21 13z"/>
<path d="M2786 1358 c-3 -18 -35 -80 -71 -137 -70 -111 -70 -111 -55 -111 5 0 28 32 51 70 23 39 43 69 46 67 2 -3 -5 -27 -16 -56 -12 -28 -17 -51 -12 -51 17 0 81 189 81 240 0 24 -18 7 -24 -22z"/>
<path d="M938 1319 c-3 -21 1 -38 14 -52 l19 -22 -11 23 c-12 25 1 30 20 7 7 -8 17 -15 22 -15 5 0 -5 20 -23 45 -18 25 -33 45 -35 45 -1 0 -4 -14 -6 -31z"/>
<path d="M870 1335 c0 -35 70 -134 95 -135 12 0 17 -80 5 -80 -5 0 -11 4 -15 10 -3 5 -12 7 -19 4 -8 -3 -17 -1 -20 4 -3 6 5 13 19 16 35 9 31 28 -10 47 -39 18 -43 15 -18 -13 9 -10 12 -18 7 -18 -17 0 -31 15 -38 38 -8 23 -26 31 -26 10 0 -7 9 -33 20 -57 24 -52 25 -57 5 -41 -22 18 -57 78 -66 114 -6 22 -7 13 -4 -32 3 -35 10 -73 17 -85 7 -12 12 -25 11 -28 -1 -3 5 -6 13 -6 8 0 13 6 10 14 -7 16 6 17 22 1 9 -9 15 -9 23 -1 7 7 24 9 39 6 41 -8 70 12 70 48 0 18 -4 28 -10 24 -5 -3 -10 1 -10 9 0 19 35 21 75 6 18 -7 32 -7 43 0 15 9 14 10 -5 16 -19 5 -23 13 -23 43 0 27 3 32 10 21 9 -13 11 -13 20 0 7 11 5 16 -5 18 -8 2 -15 10 -15 17 0 9 -6 12 -15 9 -9 -4 -15 -11 -14 -18 5 -44 -4 -47 -22 -7 -24 54 -31 49 -23 -13 5 -32 11 -46 20 -42 7 3 14 -1 17 -7 3 -9 -7 -11 -37 -8 -22 2 -43 6 -46 10 -3 4 -17 14 -32 24 -16 10 -28 25 -28 35 -1 25 -40 71 -40 47z"/>
<path d="M603 1281 c13 -63 117 -224 134 -207 3 3 0 12 -7 21 -11 13 -9 13 23 0 49 -20 74 -20 57 0 -7 8 -21 15 -32 15 -11 0 -28 4 -38 10 -31 16 -100 111 -100 137 0 14 -4 21 -10 18 -5 -3 -10 1 -10 9 0 8 -5 18 -12 22 -8 5 -9 -2 -5 -25z"/>
<path d="M2876 1270 c-49 -45 -113 -160 -90 -160 8 0 14 -4 14 -10 0 -5 6 -10 13 -10 9 0 12 -10 9 -31 -4 -30 -3 -31 21 -27 19 4 27 0 31 -15 2 -10 9 -16 15 -12 15 8 14 17 -3 40 -11 16 -17 17 -29 7 -31 -26 -25 16 9 67 37 54 37 86 1 54 -23 -20 -17 -7 18 42 13 17 30 42 39 57 28 43 1 43 -48 -2z"/>
<path d="M2077 1276 c-17 -13 -16 -14 3 -19 11 -3 20 -4 20 -2 0 2 3 10 6 19 7 19 -5 20 -29 2z"/>
<path d="M1993 1236 c-26 -12 -30 -26 -8 -26 8 0 15 4 15 9 0 5 8 11 18 13 9 2 13 6 7 9 -5 3 -20 1 -32 -5z"/>
<path d="M2050 1240 c0 -5 10 -10 23 -10 18 0 19 2 7 10 -19 13 -30 13 -30 0z"/>
<path d="M474 1205 c4 -20 16 -57 27 -82 11 -25 17 -48 15 -51 -3 -2 -25 1 -50 7 -68 17 -73 14 -36 -19 19 -16 30 -29 23 -30 -37 -1 -103 91 -103 144 0 14 -4 26 -10 26 -17 0 -11 -67 11 -122 19 -50 19 -52 1 -35 -34 31 -38 19 -16 -50 4 -13 0 -11 -14 7 -11 13 -18 28 -16 32 3 4 -2 8 -10 8 -19 0 -20 -11 -3 -29 6 -8 7 -11 2 -8 -6 3 -16 2 -23 -2 -8 -5 -5 -17 13 -43 30 -45 32 -58 5 -33 -11 10 -23 15 -27 11 -5 -4 8 -21 27 -38 l35 -30 -38 22 c-42 25 -59 20 -34 -8 10 -10 17 -26 17 -34 0 -16 20 -28 47 -28 14 0 14 3 -2 20 -17 19 -17 19 13 8 36 -14 51 -6 32 17 -10 12 -9 15 6 15 15 0 12 5 -11 20 l-30 21 30 -7 30 -7 -35 29 c-19 16 -38 28 -43 26 -5 -1 -5 2 -2 9 5 7 17 1 36 -17 28 -26 30 -27 111 -20 46 3 102 9 126 12 32 4 44 1 48 -11 3 -8 12 -15 20 -15 8 0 11 -6 7 -15 -4 -11 4 -19 25 -27 25 -10 30 -16 26 -34 -5 -20 -1 -24 31 -30 20 -3 81 -4 136 -2 54 3 96 1 93 -4 -3 -4 -53 -8 -112 -8 -78 0 -103 -3 -95 -11 9 -9 54 -8 174 0 90 7 165 14 168 16 2 3 -4 5 -15 5 -16 0 -17 2 -4 10 19 12 60 13 60 1 0 -5 16 -11 35 -13 19 -2 35 0 35 5 0 4 5 5 10 2 6 -3 10 -1 10 5 0 7 -7 10 -15 7 -8 -4 -17 -2 -20 3 -4 6 8 10 25 10 18 0 29 -4 25 -10 -4 -6 5 -10 20 -10 20 0 26 4 21 15 -4 12 3 15 35 15 28 0 39 4 37 13 -3 8 -35 14 -89 18 -46 3 -66 6 -45 7 82 4 7 19 -108 21 -54 1 -37 14 27 21 42 4 24 8 -98 19 -82 7 -204 15 -270 17 -90 4 -122 9 -128 20 -4 8 -15 14 -23 14 -8 0 -12 -5 -9 -10 4 -6 11 -8 16 -5 5 4 9 2 9 -3 0 -5 -33 -7 -75 -4 -52 3 -75 1 -75 -7 0 -6 -11 -11 -24 -11 -14 0 -36 -4 -51 -10 -23 -9 -28 -6 -45 22 -24 40 -19 46 15 20 15 -12 33 -18 42 -15 13 5 14 8 2 17 -8 6 -21 20 -29 30 -12 15 -4 13 33 -9 56 -32 80 -24 53 18 l-17 25 46 -5 c30 -4 45 -2 45 6 0 6 -4 11 -8 11 -11 0 -35 51 -27 58 3 3 5 0 5 -6 0 -7 18 -24 40 -38 31 -21 44 -24 52 -16 9 9 8 12 -5 12 -29 0 -106 79 -119 121 -14 49 -33 52 -24 4z m123 -241 c-3 -3 -12 -4 -19 -1 -8 3 -5 6 6 6 11 1 17 -2 13 -5z m269 -50 c-3 -9 -6 -20 -6 -25 0 -10 -112 -12 -147 -3 -13 4 -23 10 -23 15 0 11 74 27 134 28 40 1 47 -2 42 -15z m293 -43 c11 -7 10 -10 -5 -15 -28 -8 -266 -26 -352 -26 -87 0 -88 14 -2 30 29 6 56 12 58 15 9 9 287 5 301 -4z"/>
<path d="M1025 1180 c4 -6 11 -8 16 -5 14 9 11 15 -7 15 -8 0 -12 -5 -9 -10z"/>
<path d="M2294 1089 c-8 -13 66 -23 78 -11 8 8 4 12 -13 16 -32 6 -59 4 -65 -5z"/>
<path d="M2445 1090 c3 -5 10 -10 16 -10 5 0 9 5 9 10 0 6 -7 10 -16 10 -8 0 -12 -4 -9 -10z"/>
<path d="M2648 1063 c7 -3 16 -2 19 1 4 3 -2 6 -13 5 -11 0 -14 -3 -6 -6z"/>
<path d="M2000 1040 c0 -5 7 -10 15 -10 8 0 15 5 15 10 0 6 -7 10 -15 10 -8 0 -15 -4 -15 -10z"/>
<path d="M2568 1043 c7 -3 16 -2 19 1 4 3 -2 6 -13 5 -11 0 -14 -3 -6 -6z"/>
<path d="M2610 1030 c0 -6 10 -10 23 -11 12 0 36 -3 52 -5 19 -4 26 -2 20 4 -14 14 -95 24 -95 12z"/>
<path d="M2750 1019 c0 -5 5 -7 10 -4 6 3 10 8 10 11 0 2 -4 4 -10 4 -5 0 -10 -5 -10 -11z"/>
<path d="M2830 1004 c0 -8 32 -33 43 -34 4 0 7 5 7 10 0 6 -7 10 -15 10 -8 0 -15 5 -15 10 0 6 -4 10 -10 10 -5 0 -10 -3 -10 -6z"/>
<path d="M1667 990 c-32 -4 -64 -13 -70 -20 -10 -10 -7 -11 13 -6 23 6 169 22 270 29 25 2 0 4 -55 4 -55 0 -126 -3 -158 -7z"/>
<path d="M2268 974 c-39 -12 -15 -22 40 -17 31 3 68 0 82 -5 21 -9 13 -11 -45 -12 l-70 -2 60 -14 c33 -7 83 -13 110 -12 28 1 38 3 23 5 -16 2 -28 11 -28 18 0 8 -9 19 -20 25 -22 12 -127 21 -152 14z"/>
<path d="M1775 958 c-61 -11 -108 -43 -85 -58 8 -5 39 -12 68 -16 29 -3 55 -10 58 -15 3 -5 35 -10 72 -10 61 -2 63 -3 27 -9 -36 -7 -33 -8 20 -6 48 1 60 4 63 18 3 15 -4 17 -50 13 -29 -2 -44 -2 -33 2 61 17 67 22 51 38 -8 8 -22 15 -30 15 -9 0 -21 9 -28 20 -14 22 -47 24 -133 8z m108 -35 c57 -9 25 -23 -55 -23 -94 0 -101 24 -8 29 14 0 42 -2 63 -6z"/>
<path d="M2500 910 c0 -5 9 -10 20 -10 11 0 20 5 20 10 0 6 -9 10 -20 10 -11 0 -20 -4 -20 -10z"/>
<path d="M2750 880 c0 -5 11 -10 25 -10 14 0 25 5 25 10 0 6 -11 10 -25 10 -14 0 -25 -4 -25 -10z"/>
<path d="M1813 843 c9 -2 23 -2 30 0 6 3 -1 5 -18 5 -16 0 -22 -2 -12 -5z"/>
<path d="M2489 829 c-17 -17 -20 -31 -17 -69 l3 -48 -52 5 c-36 4 -53 2 -53 -6 0 -7 23 -11 63 -11 37 -1 72 -7 87 -16 25 -15 25 -15 -10 -10 -49 8 -110 14 -83 9 12 -2 24 -14 27 -29 4 -13 13 -24 22 -24 8 0 13 4 10 9 -3 5 9 9 28 9 19 0 39 3 45 6 5 4 12 2 15 -3 3 -4 29 -11 57 -15 31 -4 65 -17 84 -32 24 -18 43 -24 81 -23 39 1 44 2 24 8 -14 5 -49 20 -79 34 -29 15 -57 24 -62 22 -4 -3 -14 3 -21 13 -8 12 -26 19 -48 20 -23 0 -41 8 -52 22 -12 15 -24 20 -38 15 -16 -5 -20 -2 -20 18 0 21 4 24 23 19 20 -5 21 -4 8 11 -9 11 -12 30 -8 52 7 40 -4 44 -34 14z"/>
<path d="M2590 811 c0 -17 -4 -31 -9 -31 -9 0 -24 -30 -18 -37 2 -2 16 1 30 6 17 7 28 7 32 1 10 -16 29 -11 43 11 17 26 5 40 -13 16 -13 -18 -14 -18 -27 5 -7 13 -13 29 -13 37 0 8 -6 16 -13 19 -8 2 -12 -7 -12 -27z"/>
<path d="M1875 820 c-4 -6 6 -10 22 -10 22 0 25 2 13 10 -19 12 -27 12 -35 0z"/>
<path d="M2013 823 c9 -2 23 -2 30 0 6 3 -1 5 -18 5 -16 0 -22 -2 -12 -5z"/>
<path d="M2690 817 c0 -8 7 -18 16 -21 11 -4 14 -1 12 11 -4 21 -28 30 -28 10z"/>
<path d="M380 790 c8 -5 24 -9 35 -9 l20 0 -20 9 c-11 5 -27 9 -35 9 -13 1 -13 0 0 -9z"/>
<path d="M445 780 c-3 -5 3 -10 15 -10 12 0 18 5 15 10 -3 6 -10 10 -15 10 -5 0 -12 -4 -15 -10z"/>
<path d="M990 779 c-81 -6 -76 -7 105 -13 67 -3 154 8 120 14 -50 9 -64 9 -70 0 -3 -5 -11 -10 -16 -10 -6 0 -8 4 -5 8 5 9 -27 9 -134 1z"/>
<path d="M473 738 c20 -12 37 -29 37 -37 0 -9 16 -49 37 -89 37 -72 61 -89 55 -39 -2 15 0 27 5 27 5 0 35 -20 68 -45 67 -50 75 -53 75 -27 -1 20 -48 77 -57 68 -3 -3 2 -16 13 -27 l19 -22 -30 16 c-50 26 -84 65 -96 110 -6 23 -13 48 -15 55 -2 7 -7 11 -12 8 -4 -2 -5 -33 -1 -68 3 -35 5 -65 3 -66 -5 -6 -54 97 -54 113 0 8 -16 22 -36 30 -51 21 -56 18 -11 -7z"/>
<path d="M1190 749 c-30 -4 -13 -6 52 -6 54 1 95 4 92 6 -8 8 -90 8 -144 0z"/>
<path d="M2325 750 c3 -5 10 -10 16 -10 5 0 9 5 9 10 0 6 -7 10 -16 10 -8 0 -12 -4 -9 -10z"/>
<path d="M2385 750 c4 -6 11 -8 16 -5 14 9 11 15 -7 15 -8 0 -12 -5 -9 -10z"/>
<path d="M1093 743 c9 -2 25 -2 35 0 9 3 1 5 -18 5 -19 0 -27 -2 -17 -5z"/>
<path d="M2195 730 c-4 -6 10 -10 34 -10 23 0 41 5 41 10 0 6 -15 10 -34 10 -19 0 -38 -4 -41 -10z"/>
<path d="M1300 720 c0 -5 7 -10 16 -10 8 0 12 5 9 10 -3 6 -10 10 -16 10 -5 0 -9 -4 -9 -10z"/>
<path d="M929 718 c-1 -2 -7 -36 -13 -77 l-11 -73 -48 42 c-26 23 -50 53 -53 66 -7 27 -24 33 -24 9 0 -9 9 -34 20 -56 l21 -40 -32 17 c-47 24 -88 34 -94 23 -4 -5 1 -9 10 -9 10 0 49 -17 88 -37 48 -25 72 -33 75 -25 3 9 12 6 31 -8 34 -23 42 -18 35 24 l-5 31 16 -28 c24 -42 29 -25 10 33 -9 28 -14 62 -11 75 3 13 2 27 -4 30 -5 3 -11 5 -11 3z"/>
<path d="M1372 700 c3 -13 22 -14 128 -11 69 2 127 5 129 7 10 9 -12 12 -132 16 -111 3 -127 2 -125 -12z"/>
<path d="M1290 680 c0 -5 19 -10 43 -10 31 0 38 3 27 10 -20 13 -70 13 -70 0z"/>
<path d="M1070 659 c-11 -8 -12 -12 -2 -16 6 -2 10 -9 6 -14 -3 -5 17 -9 45 -9 28 0 51 -4 51 -9 0 -12 -76 -80 -106 -93 -13 -6 -24 -15 -24 -20 0 -12 13 -10 37 7 19 13 21 13 26 -7 5 -18 11 -20 43 -15 20 4 48 17 62 29 14 13 22 17 18 10 -6 -11 -1 -12 24 -8 18 2 38 10 44 17 8 9 5 10 -12 6 -21 -5 -23 -3 -18 16 4 12 9 34 12 50 6 25 10 27 63 29 l56 1 -60 7 -60 6 45 5 45 6 -55 1 -56 2 -1 -34 c-1 -41 -35 -88 -80 -110 -54 -27 -57 -17 -13 39 35 44 39 75 10 75 -11 0 -20 6 -20 14 0 23 -55 33 -80 15z"/>
<path d="M1200 630 c0 -5 6 -10 14 -10 8 0 18 5 21 10 3 6 -3 10 -14 10 -12 0 -21 -4 -21 -10z"/>
<path d="M1428 633 c12 -2 30 -2 40 0 9 3 -1 5 -23 4 -22 0 -30 -2 -17 -4z"/>
<path d="M2528 623 c12 -2 32 -2 45 0 12 2 2 4 -23 4 -25 0 -35 -2 -22 -4z"/>
<path d="M1496 592 c-8 -16 -22 -34 -30 -41 -23 -19 -20 -31 9 -31 26 0 36 15 51 75 9 34 -12 32 -30 -3z"/>
<path d="M1766 605 c-4 -11 -21 -15 -60 -15 -30 0 -58 -4 -61 -10 -6 -10 14 -15 53 -11 13 1 21 -2 18 -8 -3 -5 0 -12 6 -14 10 -4 10 -6 1 -6 -7 -1 -13 -13 -13 -27 0 -21 -3 -24 -14 -15 -9 7 -22 8 -37 3 l-23 -9 23 -13 c17 -9 30 -9 47 -1 19 9 26 7 38 -10 24 -35 64 -49 138 -49 60 0 69 2 59 14 -7 8 -11 30 -9 48 4 33 4 33 30 -24 15 -32 33 -58 40 -59 60 -5 82 -2 86 9 3 9 -6 11 -35 6 l-39 -6 -32 69 c-34 73 -38 93 -22 93 5 0 7 6 4 13 -3 9 -27 12 -77 12 -105 -1 -107 9 -2 16 l90 5 -101 2 c-83 2 -103 -1 -108 -13z m82 -32 c-10 -2 -28 -2 -40 0 -13 2 -5 4 17 4 22 1 32 -1 23 -4z m82 -3 c0 -5 -7 -28 -16 -50 -9 -22 -14 -49 -11 -60 6 -24 -8 -37 -17 -15 -3 10 -20 15 -48 15 -54 1 -87 23 -72 48 8 13 28 18 78 20 36 2 66 7 66 12 0 6 -33 8 -77 5 l-78 -4 55 10 c30 6 59 15 65 20 12 12 55 12 55 -1z"/>
<path d="M2217 610 c-4 -8 -8 -26 -9 -40 -2 -15 -11 -27 -23 -30 -12 -4 -21 -16 -23 -30 l-3 -25 20 23 c22 26 31 28 31 7 0 -24 43 -45 99 -47 32 -2 55 -8 58 -15 7 -19 30 -16 43 5 8 12 13 13 16 5 3 -7 18 -13 32 -13 19 0 23 -3 13 -9 -7 -5 -9 -11 -5 -14 12 -7 137 25 146 38 5 6 8 6 8 0 0 -5 8 1 17 15 12 17 13 25 5 28 -7 2 -10 8 -6 13 3 5 0 9 -6 9 -6 0 -20 -15 -31 -34 -15 -25 -28 -35 -56 -39 -20 -4 -38 -5 -40 -4 -1 2 15 14 37 28 38 23 57 54 40 64 -5 3 -12 0 -17 -7 -4 -7 -17 -20 -28 -28 -19 -14 -19 -14 -6 3 27 34 2 28 -35 -9 -44 -43 -54 -33 -26 25 13 26 16 43 10 47 -11 7 -28 -13 -28 -32 0 -18 -47 -57 -55 -45 -9 16 -25 13 -25 -4 0 -9 -6 -12 -15 -9 -8 4 -15 13 -15 20 0 25 -30 28 -54 5 -34 -32 -54 -11 -58 59 -2 31 -7 49 -11 40z m103 -104 c0 -2 -8 -10 -17 -17 -16 -13 -17 -12 -4 4 13 16 21 21 21 13z"/>
<path d="M988 603 c10 -4 10 -8 1 -19 -9 -12 -8 -17 5 -27 22 -16 96 -10 96 8 0 8 12 16 28 18 15 2 4 5 -25 6 -28 0 -55 6 -58 11 -3 6 -18 10 -33 9 -15 0 -21 -3 -14 -6z"/>
<path d="M1673 603 c15 -2 37 -2 50 0 12 2 0 4 -28 4 -27 0 -38 -2 -22 -4z"/>
<path d="M2528 603 c12 -2 30 -2 40 0 9 3 -1 5 -23 4 -22 0 -30 -2 -17 -4z"/>
<path d="M2531 586 c2 -2 38 -6 79 -9 44 -3 65 -2 50 3 -24 8 -137 14 -129 6z"/>
<path d="M1608 573 c7 -3 16 -2 19 1 4 3 -2 6 -13 5 -11 0 -14 -3 -6 -6z"/>
<path d="M2735 565 c22 -8 58 -14 80 -14 62 -1 21 15 -55 22 -65 5 -65 5 -25 -8z"/>
<path d="M2730 525 c-11 -13 -5 -15 46 -13 58 1 58 2 14 7 l-45 5 60 6 60 7 -61 1 c-44 2 -65 -2 -74 -13z"/>
<path d="M1380 520 c0 -5 5 -10 10 -10 6 0 10 5 10 10 0 6 -4 10 -10 10 -5 0 -10 -4 -10 -10z"/>
<path d="M1978 524 c-12 -12 2 -24 27 -24 21 0 23 -4 20 -34 l-3 -34 41 4 c55 5 72 22 56 57 -9 19 -20 27 -38 27 -14 0 -42 3 -61 6 -19 3 -38 2 -42 -2z m115 -31 c-7 -2 -19 -2 -25 0 -7 3 -2 5 12 5 14 0 19 -2 13 -5z m-16 -19 c-3 -3 -12 -4 -19 -1 -8 3 -5 6 6 6 11 1 17 -2 13 -5z"/>
<path d="M1546 494 c-9 -24 -7 -74 3 -74 11 0 20 80 10 86 -4 2 -10 -3 -13 -12z"/>
<path d="M2670 480 c0 -5 11 -9 25 -8 14 1 25 6 25 10 0 4 -11 8 -25 8 -14 0 -25 -4 -25 -10z"/>
<path d="M2145 460 c4 -6 11 -8 16 -5 14 9 11 15 -7 15 -8 0 -12 -5 -9 -10z"/>
</g>
</svg>