<?xml version="1.0" standalone="no"?>
<!DOCTYPE svg PUBLIC "-//W3C//DTD SVG 20010904//EN"
 "http://www.w3.org/TR/2001/REC-SVG-20010904/DTD/svg10.dtd">
<svg version="1.0" xmlns="http://www.w3.org/2000/svg"
 width="242.178615pt" height="237.780344pt" viewBox="0 0 242.178615 237.780344"
 preserveAspectRatio="xMidYMid meet">
<metadata>
Created by potrace 1.16, written by Peter Selinger 2001-2019
</metadata>
<g transform="translate(-8.000000,243.916719) scale(0.100000,-0.100000)"
fill="#000000" stroke="none">
<path d="M1244 2421 c-16 -10 -46 -37 -66 -60 -20 -23 -44 -41 -56 -41 -28 0
-90 -74 -98 -117 -4 -19 -4 -70 -2 -113 l5 -78 -31 -7 c-17 -4 -35 -7 -40 -6
-4 1 -15 -4 -24 -11 -13 -11 -14 -9 -7 17 12 42 12 79 0 85 -5 3 -15 -24 -22
-59 -7 -36 -16 -67 -18 -70 -3 -3 -3 52 1 122 4 83 3 127 -3 127 -12 0 -23
-70 -23 -141 0 -56 -15 -65 -24 -15 -8 41 -41 75 -58 58 -11 -11 -4 -46 20
-111 5 -14 4 -14 -11 -2 -26 20 -31 7 -20 -48 l10 -50 -49 -24 c-26 -13 -48
-22 -48 -20 0 2 9 21 20 43 34 66 23 92 -28 66 l-29 -15 -12 57 c-24 119 -113
240 -169 229 -13 -3 -40 2 -59 10 -41 16 -115 14 -121 -5 -2 -7 10 -17 27 -23
17 -6 31 -14 31 -18 0 -3 -35 -12 -77 -19 -43 -7 -84 -19 -92 -27 -15 -15 -16
-15 29 -28 8 -2 -9 -13 -37 -23 -29 -10 -53 -22 -53 -26 0 -13 38 -18 64 -8
15 5 37 10 49 10 18 0 14 -5 -18 -27 -60 -40 -125 -94 -125 -104 0 -16 26 -9
60 16 18 14 36 23 38 20 2 -2 -6 -20 -18 -40 -32 -52 -16 -56 26 -6 41 47 53
48 29 1 -17 -33 -17 -81 1 -87 5 -2 21 16 35 39 l24 43 6 -86 c7 -109 37 -176
88 -200 34 -16 34 -17 13 -28 -29 -16 -28 -31 3 -31 14 0 25 -6 25 -14 0 -9
-32 -22 -91 -37 -50 -13 -98 -29 -107 -35 -32 -23 -3 -26 60 -6 122 40 138 42
138 23 0 -12 -23 -28 -75 -50 -41 -19 -75 -40 -75 -47 0 -19 2 -18 70 16 66
34 85 37 93 15 4 -9 -16 -31 -56 -63 -34 -28 -71 -59 -81 -71 -18 -19 -18 -21
-2 -21 10 0 43 22 74 50 31 28 60 50 65 50 4 0 33 -26 62 -59 60 -64 127 -100
209 -110 27 -3 51 -11 53 -17 2 -7 -16 -20 -41 -29 -47 -18 -65 -40 -40 -49
23 -9 16 -30 -21 -66 l-35 -33 -50 27 c-36 20 -54 25 -67 18 -9 -5 -33 -7 -53
-5 -43 6 -80 -10 -80 -35 0 -9 14 -29 32 -44 l33 -27 -28 -1 c-32 0 -77 -40
-77 -68 0 -10 6 -26 14 -37 11 -15 22 -17 69 -12 31 3 65 3 76 0 23 -6 29 -33
8 -33 -23 0 -47 -35 -47 -67 0 -30 26 -63 49 -63 23 0 60 32 70 60 6 19 22 34
43 43 43 18 60 40 67 84 7 39 31 58 31 24 0 -11 6 -24 14 -28 12 -7 12 -20 0
-91 -20 -112 -30 -136 -52 -126 -9 4 -40 10 -69 12 -50 4 -53 3 -73 -30 -11
-18 -20 -43 -20 -55 0 -27 -3 -28 -34 -8 -18 12 -39 14 -94 9 -91 -9 -100 -14
-85 -54 l11 -31 -33 7 c-30 5 -39 2 -66 -25 -42 -42 -27 -61 47 -61 l53 0 3
-47 c3 -46 4 -48 37 -53 33 -5 37 -10 74 -95 44 -103 58 -121 98 -130 48 -11
69 3 95 61 15 34 33 59 49 66 14 6 25 15 25 20 0 19 29 6 32 -15 2 -15 17 -29
47 -43 37 -18 46 -28 60 -70 l17 -49 58 -3 c64 -3 83 7 88 46 2 22 12 30 53
45 28 10 64 29 82 43 33 25 67 31 78 13 4 -5 12 -8 18 -6 7 2 17 -3 24 -12 9
-13 15 -7 37 39 l25 55 -5 -40 c-3 -22 -8 -48 -11 -57 -8 -33 27 -19 49 18 24
41 35 35 40 -20 3 -42 28 -64 28 -26 0 18 3 20 14 11 11 -9 16 -9 22 0 5 8 12
5 24 -11 20 -26 40 -19 40 13 0 20 1 20 13 2 17 -22 37 -12 37 18 1 20 2 19
16 -6 12 -23 18 -26 30 -16 8 6 14 18 14 25 0 20 13 17 28 -6 7 -11 19 -20 28
-20 13 0 16 7 11 38 l-6 37 28 -32 c33 -40 55 -43 49 -8 -6 30 -1 31 25 8 18
-17 19 -17 33 1 14 19 14 19 37 -2 30 -28 47 -28 47 0 0 17 3 19 12 10 20 -20
38 -14 38 13 0 22 2 24 19 14 10 -7 26 -9 36 -5 16 6 16 8 1 31 -21 32 -14 31
46 -5 40 -25 50 -28 54 -15 4 8 1 22 -6 30 -11 13 -7 15 24 15 36 0 47 12 24
27 -8 5 2 10 27 13 35 4 40 8 37 28 -2 22 0 23 46 17 37 -4 52 -2 61 9 11 13
7 19 -21 36 l-33 20 52 0 c52 0 78 16 52 31 -8 4 -23 15 -34 24 -19 15 -17 16
33 12 58 -5 72 5 47 32 -15 18 -14 18 30 14 37 -5 45 -3 45 11 0 9 5 16 10 16
6 0 10 11 10 24 0 18 -7 25 -30 30 -16 3 -30 10 -30 16 0 5 14 10 30 10 43 0
42 35 -1 44 -17 3 -28 10 -24 16 4 6 10 8 15 5 13 -8 40 6 40 20 0 12 -26 25
-80 41 -24 7 -24 7 -5 15 11 4 35 8 53 8 27 1 32 5 32 26 0 22 -4 25 -36 25
-30 0 -34 3 -25 14 20 23 -11 36 -95 39 -60 2 -92 9 -134 29 -113 53 -216 59
-365 22 -66 -17 -143 -57 -152 -80 -4 -11 -26 -14 -92 -14 -154 0 -388 -79
-422 -142 -10 -18 -13 -19 -20 -6 -12 21 -60 221 -54 226 2 2 16 1 30 -2 22
-6 25 -9 14 -22 -9 -11 -9 -23 -1 -52 6 -20 10 -48 9 -62 -2 -23 1 -25 37 -23
49 3 86 36 86 75 0 32 8 34 74 16 40 -11 47 -10 66 7 36 33 21 77 -35 100
l-20 8 20 4 c94 19 103 72 14 90 -19 3 -40 13 -48 21 -15 15 -55 11 -124 -13
-41 -14 -45 -12 -124 63 -18 17 -38 32 -43 32 -6 0 -10 6 -10 14 0 8 -22 23
-51 34 l-51 19 85 41 c93 44 162 101 193 157 22 41 34 42 106 15 55 -21 64
-20 55 4 -4 9 -31 20 -66 28 -53 10 -61 15 -61 34 0 33 11 35 75 19 32 -9 60
-13 62 -11 12 12 -12 26 -65 37 -57 12 -82 30 -82 57 0 12 15 14 80 10 55 -3
79 -1 77 6 -2 6 -27 12 -56 14 -41 2 -51 6 -47 17 3 8 1 17 -4 20 -17 10 -11
25 9 25 11 0 26 3 35 6 18 7 22 30 6 36 -7 2 -6 23 2 60 10 48 9 75 -5 164
-10 59 -16 108 -14 110 1 2 26 -15 55 -36 29 -22 55 -40 57 -40 14 0 1 39 -31
92 -20 32 -34 61 -31 64 3 3 19 -2 36 -10 59 -31 69 -10 21 42 -16 18 -30 35
-30 37 0 2 19 5 42 7 32 2 44 8 46 21 3 12 -4 20 -18 24 l-21 6 22 11 c12 6
24 17 27 24 5 17 -40 16 -111 -3 -69 -18 -70 -18 -62 -5 4 6 22 17 41 25 33
13 53 39 41 52 -10 9 -68 -15 -130 -53 -69 -43 -87 -36 -34 12 55 50 50 71 -9
35z m16 -131 c0 -11 7 -23 15 -26 8 -4 15 -17 15 -31 0 -22 -3 -24 -32 -18
-18 4 -40 9 -49 11 -9 2 -21 -1 -26 -8 -16 -20 -61 -196 -69 -265 -7 -76 -28
-85 -38 -18 -4 24 -11 47 -17 50 -12 8 0 182 16 220 16 38 42 66 78 85 25 12
30 12 38 0 8 -13 11 -12 20 3 14 24 49 22 49 -3z m-828 -91 c15 -10 31 -19 35
-19 20 0 113 -114 127 -157 21 -61 21 -121 -1 -145 -23 -26 -30 -23 -44 20 -6
20 -30 74 -51 119 -31 65 -46 85 -73 97 -18 9 -38 16 -45 16 -8 0 -11 9 -8 25
3 14 -1 30 -8 36 -8 6 -14 18 -14 25 0 19 45 9 82 -17z m833 -34 c14 -13 25
-33 25 -45 0 -11 9 -57 21 -102 25 -96 22 -174 -7 -195 -11 -7 -26 -20 -35
-27 -9 -8 -30 -17 -47 -21 -31 -6 -43 -30 -46 -85 -1 -20 -6 -25 -34 -26 -18
-1 -36 -5 -40 -9 -4 -4 14 -5 40 -3 34 4 51 1 60 -9 18 -22 -9 -35 -60 -28
-64 9 -136 -19 -102 -40 18 -11 11 -25 -12 -25 -13 0 -30 -5 -38 -11 -11 -8
-7 -9 17 -4 17 4 41 2 52 -4 17 -10 18 -14 8 -42 -27 -72 -162 -168 -211 -149
-13 5 -32 23 -42 39 -10 17 -22 31 -26 31 -12 0 -10 -38 2 -45 18 -11 10 -33
-14 -39 -13 -3 -54 3 -90 14 -50 16 -72 29 -95 58 -31 37 -39 70 -21 88 14 14
1 51 -18 49 -41 -4 -60 -17 -66 -46 -8 -40 -28 -33 -38 12 -9 42 9 59 64 59
21 0 38 4 38 10 0 5 -7 7 -15 4 -8 -4 -26 -3 -40 0 -22 6 -24 10 -19 34 9 35
33 80 61 112 13 13 23 29 23 34 0 5 18 6 40 3 37 -5 40 -3 50 29 8 24 19 36
38 40 15 4 32 11 39 16 7 5 28 18 48 28 32 16 39 17 63 4 34 -18 42 -18 42 0
0 20 30 28 79 22 55 -7 60 -11 67 -57 6 -37 25 -51 39 -29 12 19 34 10 37 -17
4 -33 24 -41 31 -13 4 14 13 20 34 20 49 0 93 90 93 191 0 34 -8 57 -31 93
-28 42 -30 49 -19 76 15 36 24 37 55 5z m-869 -112 c32 -35 34 -41 29 -83 -12
-82 -8 -166 9 -200 9 -18 16 -42 16 -52 0 -17 -5 -19 -32 -13 -85 17 -115 77
-100 195 5 41 13 86 17 99 7 21 5 22 -14 16 -16 -5 -21 -2 -21 11 0 19 37 64
52 64 5 0 25 -17 44 -37z m586 -95 c19 -15 34 -58 20 -58 -5 0 -15 7 -22 15
-7 8 -19 15 -26 15 -16 0 -16 2 -8 24 7 19 15 20 36 4z m223 -393 c0 -14 -8
-21 -27 -23 -22 -3 -28 1 -28 17 0 10 6 22 13 24 23 10 42 2 42 -18z m-25 -50
c0 -56 -96 -143 -227 -206 -78 -38 -90 -41 -176 -43 -122 -1 -183 20 -255 91
-54 53 -64 76 -36 87 26 10 30 8 50 -29 22 -41 81 -79 155 -101 138 -41 327
40 406 174 20 34 30 42 54 42 20 0 29 -5 29 -15z m-254 -300 c8 -8 21 -12 29
-9 8 4 15 1 15 -5 0 -7 10 -15 22 -20 l22 -8 -24 -13 c-13 -7 -33 -13 -45 -14
-19 -1 -20 -7 -20 -129 0 -109 3 -130 17 -141 10 -8 17 -26 16 -47 0 -32 3
-56 17 -136 5 -29 3 -32 -22 -35 -23 -2 -33 -13 -53 -55 -24 -47 -27 -50 -45
-37 -27 20 -62 17 -79 -7 -40 -57 -64 37 -30 117 11 25 19 81 22 152 3 80 8
112 17 112 7 0 15 -7 19 -15 3 -8 10 -15 16 -15 13 0 13 77 0 85 -5 3 -10 17
-10 31 0 13 -5 24 -11 24 -6 0 -9 6 -6 14 3 7 2 31 -3 52 -8 32 -6 40 11 52
17 12 18 16 7 30 -12 13 -10 14 9 4 23 -13 65 -3 78 17 8 14 14 14 31 -4z
m126 -78 c7 -7 25 -18 41 -24 15 -7 27 -17 27 -23 0 -5 8 -10 19 -10 10 0 24
-7 31 -15 16 -20 92 -20 131 1 38 19 83 15 87 -8 3 -13 -3 -18 -20 -18 -13 0
-28 -4 -33 -9 -6 -5 -26 -14 -45 -19 -33 -8 -35 -11 -32 -44 2 -29 -1 -37 -19
-41 -21 -6 -22 -7 -5 -32 10 -15 15 -33 12 -42 -7 -18 -52 -13 -48 6 1 7 -3
28 -9 46 -10 27 -10 37 0 49 11 13 11 19 1 31 -7 9 -19 14 -26 11 -7 -3 -41 6
-75 20 -77 30 -93 20 -56 -33 25 -37 77 -176 77 -208 0 -9 8 -32 19 -53 10
-20 27 -72 36 -116 32 -142 8 -259 -71 -346 -34 -38 -94 -67 -113 -56 -5 3
-12 38 -16 78 -4 39 -14 87 -22 106 -9 22 -12 48 -8 69 4 23 1 42 -12 63 -13
23 -15 36 -7 57 11 34 46 41 97 19 20 -8 38 -12 41 -8 13 12 5 40 -16 54 -19
12 -22 26 -26 104 -3 54 -10 93 -17 99 -7 5 -15 24 -18 40 -3 17 -10 50 -17
75 -6 24 -12 70 -13 103 -2 48 2 61 17 73 24 17 70 18 88 1z m-343 -84 c-1
-10 1 -26 5 -35 9 -19 1 -28 -55 -71 -27 -20 -36 -35 -37 -57 0 -18 3 -28 9
-24 6 3 5 -3 -2 -14 -7 -11 -22 -25 -33 -31 -39 -20 -61 -36 -74 -53 -18 -24
-42 -23 -42 1 0 20 32 37 59 32 8 -1 10 2 5 11 -5 7 -9 19 -10 26 -5 27 -26
40 -79 47 -50 6 -55 9 -55 31 0 28 16 30 74 9 63 -22 63 -6 1 52 -43 40 -55
57 -46 66 19 19 64 -4 80 -41 19 -43 35 -41 28 4 -7 44 12 42 32 -4 8 -18 17
-32 21 -32 3 0 28 23 55 50 52 53 68 61 64 33z m1436 -119 c22 -10 53 -29 68
-41 16 -13 35 -23 42 -23 8 0 17 -9 20 -20 6 -18 12 -19 62 -14 50 6 55 5 52
-11 -2 -10 -19 -23 -38 -30 -33 -11 -55 -35 -32 -35 21 0 11 -28 -11 -34 -18
-4 -20 -8 -10 -18 6 -6 12 -26 12 -44 0 -23 -5 -33 -20 -37 -17 -4 -19 -11
-14 -31 5 -21 3 -26 -13 -26 -27 0 -105 -39 -99 -49 3 -5 19 -11 36 -14 50
-10 34 -27 -25 -27 -30 0 -55 -4 -55 -9 0 -5 23 -17 50 -26 56 -19 68 -45 21
-45 -16 0 -50 9 -76 20 -58 25 -75 25 -75 1 0 -22 -21 -33 -41 -20 -23 15 -46
10 -52 -10 -4 -17 -12 -19 -53 -16 -26 1 -56 -2 -65 -8 -14 -9 -22 -7 -38 7
-20 18 -22 18 -40 2 -15 -14 -24 -15 -40 -6 -14 7 -21 7 -21 0 0 -5 -11 -10
-24 -10 -13 0 -27 -6 -30 -12 -4 -9 -10 -6 -22 10 -17 22 -44 30 -44 12 0 -18
-30 -11 -64 15 -37 28 -52 31 -59 11 -7 -18 -98 -9 -110 10 -12 21 -25 17 -29
-8 -5 -38 -28 -33 -28 6 0 45 -17 47 -28 4 -16 -62 -29 -41 -34 54 -4 57 -14
116 -27 152 -18 53 -19 61 -6 76 8 9 15 20 15 25 0 11 47 53 78 69 55 28 207
60 290 60 77 1 84 -1 102 -24 27 -36 55 -17 55 36 0 37 3 41 48 63 60 30 129
40 242 37 63 -2 102 -8 130 -22z m-1542 -321 c18 -10 34 -21 35 -25 2 -5 14
-8 27 -8 32 0 36 -10 24 -52 -10 -39 -1 -74 26 -101 13 -14 14 -23 6 -55 -10
-35 -14 -39 -43 -39 -22 0 -37 -8 -52 -26 -21 -26 -46 -36 -46 -18 0 5 8 23
18 40 17 30 16 32 -7 78 -14 27 -38 59 -53 72 -31 25 -32 46 -2 117 16 39 24
41 67 17z"/>
<path d="M868 1706 c-20 -14 -24 -61 -8 -71 6 -4 24 -4 40 0 25 5 30 12 30 35
0 19 -7 33 -19 40 -24 12 -22 12 -43 -4z"/>
<path d="M762 1680 c-26 -25 -28 -45 -6 -54 20 -8 64 19 64 37 0 13 -19 37
-30 37 -3 0 -16 -9 -28 -20z"/>
<path d="M978 1643 c-47 -4 -48 -5 -48 -37 0 -31 2 -32 31 -28 23 3 27 7 18
14 -11 7 -10 11 4 21 27 18 53 37 47 35 -3 -1 -26 -3 -52 -5z"/>
<path d="M674 1603 c-17 -3 -23 -14 -29 -50 -7 -51 -4 -56 56 -74 110 -34 236
37 185 104 -14 18 -86 25 -86 7 0 -16 -50 -12 -66 5 -16 15 -21 16 -60 8z"/>
</g>
</svg>
