<?xml version="1.0" standalone="no"?><!DOCTYPE svg PUBLIC "-//W3C//DTD SVG 20010904//EN" "http://www.w3.org/TR/2001/REC-SVG-20010904/DTD/svg10.dtd"><svg xmlns="http://www.w3.org/2000/svg" version="1.0" width="13.2925mm" height="16mm" viewBox="0 0 235.678468 283.682592" preserveAspectRatio="xMidYMid meet">
<metadata>
Created by potrace 1.16, written by Peter Selinger 2001-2019
</metadata>
<g transform="translate(-0.175220,298.885738) scale(0.100000,-0.100000)" fill="#000000" stroke="none">
<path d="M660 2974 c-36 -7 -106 -34 -156 -58 -76 -38 -104 -59 -172 -131 -194 -201 -315 -464 -329 -715 -6 -118 8 -194 54 -290 35 -72 131 -166 213 -210 57 -30 74 -34 140 -34 97 -1 164 28 224 95 24 27 49 49 55 49 5 0 34 -9 64 -20 62 -23 116 -73 142 -130 16 -35 16 -44 4 -66 -12 -23 -11 -27 3 -38 15 -11 15 -19 4 -72 -7 -32 -25 -88 -40 -124 -72 -169 -80 -201 -81 -302 0 -75 -3 -98 -13 -98 -8 0 -27 -13 -43 -29 -35 -36 -38 -83 -10 -140 16 -30 18 -45 11 -77 -5 -21 -10 -67 -10 -101 l0 -62 -32 7 c-18 4 -71 7 -118 6 -92 0 -165 -22 -236 -70 -32 -22 -40 -24 -66 -13 -61 25 -45 -19 19 -50 102 -49 233 -72 468 -81 121 -4 256 -13 300 -19 202 -27 496 -53 557 -49 78 6 127 30 148 75 14 28 20 31 81 37 117 11 169 46 195 131 61 204 -108 704 -251 744 -49 13 -97 -3 -134 -45 -17 -19 -31 -39 -31 -45 0 -6 -21 8 -47 30 -53 44 -90 61 -132 61 -23 0 -32 9 -56 53 -16 28 -53 92 -82 141 -45 75 -51 91 -38 98 23 13 19 48 -5 48 -24 0 -24 1 -6 45 8 19 28 41 45 49 36 19 165 48 316 71 186 29 364 97 445 172 l26 23 39 -20 c48 -25 109 -26 154 -2 130 65 93 255 -55 286 -29 7 -31 10 -41 77 -14 91 -52 166 -118 237 -94 101 -205 149 -385 167 -41 4 -104 18 -139 31 -71 27 -181 97 -225 143 -31 32 -28 35 27 31 36 -2 37 26 1 42 -22 10 -31 9 -56 -5 -30 -17 -30 -17 -68 17 -57 51 -168 113 -235 131 -73 19 -236 19 -325 -1z m367 -64 c81 -37 129 -71 237 -168 153 -137 250 -184 432 -208 64 -8 134 -21 156 -28 107 -38 214 -133 262 -236 17 -37 21 -64 20 -155 0 -96 -3 -116 -24 -160 -33 -67 -98 -126 -184 -169 -87 -43 -144 -61 -279 -87 -208 -39 -352 -19 -464 65 -73 56 -145 146 -132 167 23 36 -1 39 -36 4 -26 -25 -34 -58 -12 -50 7 3 21 -10 32 -31 32 -59 138 -149 211 -178 35 -14 72 -26 82 -26 9 0 -5 -13 -33 -28 -53 -29 -95 -81 -95 -117 0 -20 -7 -23 -61 -29 -34 -3 -85 -6 -113 -6 l-52 0 -12 44 c-25 97 -114 170 -221 183 -48 5 -52 8 -46 27 37 128 41 215 14 371 -13 75 -50 195 -61 195 -11 0 -11 4 13 -177 32 -246 14 -372 -66 -455 -54 -56 -98 -73 -185 -73 -66 0 -81 4 -131 32 -64 38 -148 122 -177 179 -43 85 -55 150 -49 273 7 140 30 232 91 358 155 320 342 481 601 514 105 13 212 1 282 -31z m1223 -865 c64 -33 81 -111 34 -162 -22 -25 -24 -25 -10 -3 33 51 12 129 -43 163 -33 21 -20 22 19 2z m-1015 -683 c17 -31 54 -95 82 -140 l53 -84 -44 -49 c-24 -27 -52 -70 -61 -97 -24 -69 -30 -188 -15 -319 7 -62 11 -115 9 -117 -2 -1 -32 4 -66 12 l-63 14 15 28 c22 43 18 118 -11 233 -15 56 -32 143 -39 192 -11 83 -13 88 -23 62 -19 -45 -14 -113 17 -265 38 -184 28 -233 -56 -268 -42 -18 -43 -18 -43 9 0 38 -12 67 -26 67 -10 0 -14 -13 -14 -39 0 -39 -20 -71 -43 -71 -23 0 -57 31 -57 51 0 12 9 32 20 46 26 34 15 49 -17 23 -14 -11 -36 -20 -49 -20 -31 0 -64 45 -64 88 0 46 24 72 67 72 l34 0 -8 38 c-4 20 -7 66 -6 102 2 66 14 109 88 299 20 51 39 114 42 140 l5 47 122 1 122 1 29 -56z m250 -281 c34 -16 107 -79 94 -82 -2 0 -20 -3 -39 -6 -47 -6 -100 -29 -100 -44 0 -7 11 -9 33 -5 17 3 55 8 83 12 50 6 51 6 71 -29 12 -19 24 -44 28 -56 6 -19 3 -21 -40 -21 -46 0 -85 -13 -85 -29 0 -4 32 -8 71 -8 39 -1 75 -5 80 -10 5 -5 20 -53 34 -106 45 -180 43 -423 -5 -471 -19 -19 -32 -21 -153 -21 -110 0 -593 43 -674 61 -18 3 -23 11 -23 34 0 53 -18 81 -61 98 l-42 16 7 85 c4 47 10 89 15 94 10 10 41 -18 41 -37 0 -25 49 -60 83 -58 49 1 138 18 173 33 27 11 44 9 129 -11 72 -17 99 -20 104 -11 4 6 2 55 -5 109 -18 131 -17 278 0 336 18 60 60 124 89 136 33 13 48 12 92 -9z m334 -27 c23 -26 41 -50 41 -54 0 -4 -13 -13 -30 -20 -16 -7 -35 -19 -41 -26 -10 -12 -4 -14 42 -8 l54 6 18 -36 c24 -52 22 -61 -20 -72 -60 -15 -55 -35 8 -32 l53 3 24 -90 c33 -125 40 -270 18 -330 -21 -55 -55 -75 -138 -82 l-58 -6 0 127 c0 177 -32 324 -108 489 l-36 79 19 35 c20 37 57 62 92 63 13 0 37 -17 62 -46z m-1186 -694 c-11 -24 -12 -37 -4 -60 10 -29 9 -30 -19 -30 -32 0 -154 22 -221 40 l-44 12 40 21 c65 33 116 46 192 46 l71 1 -15 -30z"/>
<path d="M319 2433 c-6 -16 -9 -43 -7 -60 l4 -33 -26 25 -26 25 -22 -22 c-59 -64 -118 -279 -109 -398 10 -128 64 -222 150 -265 95 -47 197 -27 268 52 52 57 64 100 64 223 -1 98 -3 111 -39 200 -47 116 -104 199 -167 245 -56 42 -76 44 -90 8z"/>
<path d="M1277 2423 c-10 -16 -11 -153 -2 -162 6 -6 16 -7 25 -1 23 14 21 163 -2 168 -9 2 -18 -1 -21 -5z"/>
</g>
</svg>