<?xml version="1.0" encoding="UTF-8" standalone="no"?><!-- Created with Inkscape (http://www.inkscape.org/) --><svg xmlns:inkscape="http://www.inkscape.org/namespaces/inkscape" xmlns:sodipodi="http://sodipodi.sourceforge.net/DTD/sodipodi-0.dtd" xmlns="http://www.w3.org/2000/svg" xmlns:svg="http://www.w3.org/2000/svg" version="1.1" id="svg1" width="16mm" height="11.6806mm" viewBox="0 0 263 192" sodipodi:docname="Toothless.svg" inkscape:version="1.4.2 (f4327f4, 2025-05-13)">
  <defs id="defs1"/>
  <sodipodi:namedview id="namedview1" pagecolor="#ffffff" bordercolor="#000000" borderopacity="0.25" inkscape:showpageshadow="2" inkscape:pageopacity="0.0" inkscape:pagecheckerboard="0" inkscape:deskcolor="#d1d1d1" inkscape:zoom="4.203125" inkscape:cx="131.44981" inkscape:cy="96" inkscape:window-width="1920" inkscape:window-height="1009" inkscape:window-x="-8" inkscape:window-y="-8" inkscape:window-maximized="1" inkscape:current-layer="g1"/>
  <g inkscape:groupmode="layer" inkscape:label="Image" id="g1">
    <path style="fill:#000000" d="m 218,188.28027 c -24.12342,-6.52179 -48.18703,-14.69868 -54.82096,-18.62835 -10.43233,-6.17968 -21.39835,-18.7017 -31.65967,-36.15192 -2.58735,-4.4 -6.288,-9.93716 -8.22368,-12.30481 -1.93567,-2.36764 -3.27534,-4.54888 -2.97703,-4.84719 0.73641,-0.7364 8.95075,10.5421 13.94322,19.14439 7.78161,13.40814 19.29786,26.67951 27.81888,32.05859 2.14522,1.35422 7.34739,3.83151 11.56036,5.50508 5.88315,2.33704 7.91499,2.7654 8.75942,1.8467 0.81277,-0.88427 0.77352,-1.01215 -0.15054,-0.49045 -0.6875,0.38815 -1.25,0.24329 -1.25,-0.32191 0,-0.5652 -0.62948,-0.78608 -1.39885,-0.49084 -0.76937,0.29523 -1.7389,-0.0134 -2.15451,-0.68589 -0.51505,-0.83338 -0.33886,-0.96509 0.55336,-0.41367 0.86617,0.53532 1.06763,0.41844 0.59549,-0.34549 C 178.20305,171.51953 177.11883,171 176.1861,171 c -1.46477,0 -8.1997,-4.58479 -19.78953,-13.4717 -4.38138,-3.35957 -9.4685,-11.41269 -14.65777,-23.20384 C 136.72508,122.9322 130.57589,113.22065 123.06958,104.83974 120.28131,101.7266 118,98.883777 118,98.522355 c 0,-0.587164 2.15464,-0.129308 5.75,1.221861 0.90008,0.338264 1.25,-0.987538 1.25,-4.736098 0,-2.863223 0.73369,-6.751987 1.63041,-8.641697 0.89673,-1.889711 6.3859,-7.876921 12.19816,-13.304912 l 10.56775,-9.869074 -3.44816,-1.434061 C 141.31946,59.833337 109.61402,50.654652 99,48.166941 86.948498,45.342313 68.138902,42.72222 64.761591,43.397682 c -1.996122,0.399224 -2.648125,0.227744 -2.156793,-0.567248 0.443136,-0.71701 0.258192,-0.863791 -0.498848,-0.395915 -1.962463,1.212869 0.452021,3.216747 5.367109,4.45438 6.664644,1.678177 8.522748,1.293273 4.026941,-0.834175 -4.279353,-2.025021 -4.311609,-2.693995 -0.05181,-1.074421 1.418117,0.539167 5.298008,1.418285 8.621981,1.953595 C 86.436747,47.959205 93,51.272255 93,53.460717 93,56.973691 87.532316,66.009358 82.386588,71 c -3.119003,3.025 -5.192564,4.6 -4.607913,3.5 0.58465,-1.1 2.914579,-3.794406 5.177619,-5.98757 C 86.108909,65.45716 92,55.652439 92,53.460717 c 0,-1.227606 -7.428589,-4.40196 -11.5,-4.914134 -4.865243,-0.612036 -4.919146,-0.591132 -2,0.775588 3.231626,1.513021 5.831053,4.147119 6.803874,6.894625 0.75387,2.129131 -6.626379,9.556502 -10.303874,10.369663 -1.375,0.304037 -4.525,1.166938 -7,1.917558 -3.763887,1.141513 -4.200411,1.143243 -2.668553,0.01057 1.007296,-0.744804 3.989525,-1.871903 6.627176,-2.504666 3.471214,-0.832731 4.760605,-1.614395 4.668553,-2.830202 -0.08029,-1.060471 0.553096,-1.622669 1.718062,-1.524962 2.878383,0.241413 5.935821,-3.398799 5.226933,-6.223232 -0.769964,-3.067783 -4.516205,-4.975026 -12.614646,-6.422225 -12.926625,-2.31 -15.041156,-7.566378 -3.7419,-9.301751 2.776179,-0.426373 22.716674,-7.123308 24.551893,-8.245654 0.147136,-0.08998 -0.445264,-2.945867 -1.316443,-6.346411 C 87.476662,13.50522 91.175705,9.3107945 106.71663,6.6716245 L 114.5,5.3498472 107.5,4.6820326 C 98.521611,3.8254756 88.713426,3.9323344 83,4.9489566 79.138008,5.6361427 79.917795,5.7878447 88.5,6.0189424 L 98.5,6.2882179 85.518194,7.1946177 72.536389,8.1010174 56.269124,15.251438 c -8.946996,3.932731 -15.89927,7.518416 -15.449497,7.968189 0.449774,0.449774 4.161855,-0.715642 8.249071,-2.589812 C 62.063958,14.670912 76.336977,9.7259719 81.5,9.3938723 l 5,-0.3216136 -5.5,1.4260573 c -3.324043,0.861868 -4.201777,1.309899 -2.218582,1.132452 1.804781,-0.161483 2.901197,0.08662 2.436481,0.551333 -0.464715,0.464715 -3.066354,0.932583 -5.781418,1.039705 C 72.721416,13.328928 70.05,13.927539 69.5,14.552052 68.374567,15.829957 57.110428,20 54.783978,20 52.780427,20 31.571538,30.490047 21.5,36.46246 12.261184,41.941069 6,45.230426 6,44.605493 6,43.718417 16.496277,36.495252 17.970702,36.367681 20.933751,36.11131 34.879569,27.423172 34.170258,26.275483 33.71851,25.54454 31.390353,26.722591 27.488466,29.65648 24.19481,32.133031 20.6,34.647132 19.5,35.24337 17.789172,36.170698 17.676797,36.112963 18.722779,34.844055 20.393915,32.81676 35.497747,22 36.657399,22 37.730334,22 69.101494,8.2318398 69.940688,7.392645 70.763729,6.5696045 65.462803,7.9171816 57.134235,10.648243 42.013168,15.606666 20.371042,28.552712 7.4698965,40.356822 -0.88600081,48.002184 0.19467165,48.816453 15.688816,46.549642 22.184967,45.599248 31.55,44.257849 36.5,43.568755 c 4.95,-0.689094 9.83985,-1.6172 10.866334,-2.062457 1.691375,-0.733667 1.749354,-0.59098 0.61848,1.522078 -0.85733,1.601936 -1.052736,4.63988 -0.624386,9.707251 0.524314,6.202623 0.306675,7.996581 -1.36848,11.280156 -1.095571,2.147498 -1.992562,4.034968 -1.993311,4.194379 -7.5e-4,0.159411 2.47425,0.135691 5.5,-0.05271 C 52.524386,67.969048 55,67.37999 55,66.848433 55,66.316876 55.45,66.160081 56,66.5 c 1.623029,1.003087 1.144017,2.5 -0.8,2.5 -0.99,0 -2.39625,0.5625 -3.125,1.25 -1.06,1 -1.416667,1 -1.783333,0 -0.584339,-1.593651 -2.374762,-1.645733 -2.041667,-0.05939 0.1375,0.654835 -0.590793,1.373094 -1.61843,1.596131 -1.16957,0.253843 -1.61504,-0.0045 -1.190983,-0.690609 C 45.813183,70.493259 45.641476,70 45.059017,70 44.476558,70 44,70.675 44,71.5 c 0,0.825 -0.622516,1.5 -1.383369,1.5 -1.176267,0 -3.062176,3.887788 -2.270122,4.679842 0.14695,0.14695 1.940545,-0.869897 3.985767,-2.259661 C 47.757932,73.092388 55.057007,70 57.125727,70 60.312269,70 55.510958,79.233499 50.985452,81.808488 46.966703,84.095136 47.237617,85 51.940983,85 c 2.167541,0 4.231281,0.469712 4.58609,1.043805 C 57.609394,87.795038 54.931632,90 51.722568,90 c -2.936317,0 -2.97692,0.06146 -1.279594,1.936987 0.964122,1.065342 1.489941,2.362541 1.168488,2.882664 -0.321453,0.520122 1.755653,1.952366 4.615792,3.182765 4.161235,1.790115 6.435396,2.137944 11.382112,1.740868 8.465975,-0.679567 9.427992,-1.519473 4.741819,-4.13993 -4.051939,-2.2658 -5.427537,-5.857603 -3.537091,-9.235642 0.706833,-1.26304 0.910047,-0.718688 0.813962,2.180362 -0.117915,3.557691 0.209054,4.051565 4.128917,6.236561 6.42979,3.584071 6.735199,4.946509 2.478019,11.054525 -3.624277,5.19996 -3.629541,5.22291 -1.878191,8.18771 C 75.329484,115.67349 75.641682,117 75.056536,117 74.475441,117 74,117.47656 74,118.05902 c 0,0.58246 0.508379,0.74482 1.129732,0.3608 0.673446,-0.41621 0.95112,-0.16237 0.6875,0.62848 -0.827938,2.48382 -2.696257,2.08632 -4.241824,-0.90248 -1.392205,-2.69222 -1.389033,-3.34763 0.03267,-6.75023 0.866019,-2.07268 2.658483,-5.18958 3.983253,-6.92644 3.531729,-4.630334 3.162926,-5.364286 -2.091327,-4.16194 -3.324504,0.76075 -4.5,1.50912 -4.5,2.86489 0,1.00933 -0.876392,3.47031 -1.947538,5.46883 -1.310533,2.44517 -1.7501,4.62088 -1.343902,6.65187 0.46645,2.33225 0.305779,2.8341 -0.70697,2.20818 -0.874238,-0.54031 -1.069681,-0.42017 -0.587,0.36082 0.397984,0.64395 1.095359,0.94107 1.549724,0.66026 0.454364,-0.28082 1.084146,0.16184 1.399516,0.98368 1.129114,2.94243 -3.773294,1.60797 -6.450189,-1.75577 -4.211977,-5.29269 -5.069486,-7.6074 -4.787371,-12.92272 l 0.267519,-5.040305 -5.230952,-2.486167 C 46.063386,94.877111 45.863609,94.859462 43.215942,96.598714 34.899237,102.06196 28.536793,105 25.022623,105 c -3.188977,0 -4.229257,-0.58213 -6.603934,-3.69549 -3.67493,-4.818083 -3.643653,-8.876534 0.111383,-14.453094 1.61154,-2.393279 3.703285,-6.036115 4.648322,-8.095192 C 26.051017,72.497261 32,67.627644 32,71.535184 32,72.76049 32.403701,72.854313 34,72 c 1.479272,-0.791683 2,-0.76049 2,0.119804 0,0.75078 0.675141,0.579177 1.828741,-0.464816 C 38.834548,70.744744 40.072821,70 40.580458,70 c 1.363946,0 5.425538,-8.127198 5.42232,-10.85 -0.004,-3.368482 -5.830834,-8.74863 -11.063181,-10.215043 C 32.497819,48.250627 26.9,47.80067 22.5,47.935054 0.47721057,48.607668 1.5262385,48.683814 1.1986436,46.388843 0.40315429,40.816032 32.26287,18.759371 52.43623,10.916773 75.691129,1.8761953 103.47512,0.73833274 133.77797,7.5855119 c 5.83192,1.3177706 11.08016,2.8767791 11.66276,3.4644631 0.74828,0.75481 0.61888,0.915632 -0.44073,0.547777 -0.825,-0.286407 -8.76611,-1.440872 -17.64691,-2.5654779 -14.46489,-1.8317393 -16.80871,-1.9008357 -22.5,-0.6633078 -11.941515,2.5965907 -13.901833,4.2043407 -13.796648,11.3152927 0.08863,5.991551 2.134672,10.852048 4.469094,10.616586 1.085955,-0.109535 7.617614,-0.897035 14.514794,-1.75 15.96042,-1.973803 25.22317,-1.958528 37.03345,0.06107 11.288,1.930284 26.09959,7.034056 31.50876,10.857274 2.1546,1.52288 3.08815,2.48839 2.07456,2.145578 -9.02244,-3.051512 -8.7319,-0.912055 0.65259,4.805536 7.84171,4.777633 16.18837,11.74718 17.81584,14.876404 1.09772,2.110645 1.03524,2.101507 -1.48587,-0.217315 -1.44748,-1.331335 -2.89501,-2.157376 -3.21674,-1.835646 -0.92684,0.926839 1.1588,4.149143 7.07983,10.938295 3.02349,3.466783 5.48799,6.756553 5.47668,7.310601 -0.0241,1.182553 -7.71344,-7.28911 -11.65613,-12.842102 -1.50324,-2.117205 -2.75344,-5.035406 -2.77823,-6.484893 -0.0378,-2.208048 -1.66304,-3.715833 -10.02217,-9.297677 -8.96912,-5.989162 -10.86597,-6.83402 -18.7751,-8.362467 -4.83889,-0.935121 -9.37516,-1.478737 -10.0806,-1.208036 -0.70543,0.270701 -4.18164,-0.08185 -7.7249,-0.783441 -3.60529,-0.713874 -5.34137,-1.378759 -3.9423,-1.509823 3.90802,-0.366102 -4.56715,-1.904284 -10,-1.81493 -4.39795,0.07233 -4.42063,0.08913 -1,0.740892 1.925,0.366785 -2.35,0.559349 -9.5,0.427922 -9.42003,-0.173154 -17.78418,0.42843 -30.372888,2.184546 -9.555089,1.332927 -17.704168,2.218763 -18.109064,1.968523 -0.404897,-0.25024 -2.712097,-0.02963 -5.127112,0.49025 -3.51985,0.757714 -2.506299,0.857407 5.109064,0.50253 9.238654,-0.430523 51.11419,2.562611 63.81393,4.561223 3.47266,0.546507 10.29363,2.78561 15.1577,4.975785 4.86408,2.190174 12.26018,5.097363 16.43579,6.460418 10.47016,3.417805 23.84572,10.350039 31.54067,16.346775 3.54645,2.763776 6.79371,4.811442 7.21614,4.550368 0.9984,-0.61705 6.57387,6.969278 8.90255,12.113367 2.02553,4.474414 4.21979,13.21535 2.977,11.85899 C 218.60491,101.89189 217.46454,99.025 216.50962,96 214.10954,88.397022 212.4238,86 209.47695,86 207.33767,86 207,86.453262 207,89.324848 c 0,3.215093 3.65347,15.290612 5.89129,19.472022 1.61794,3.02315 4.06433,14.20313 3.10792,14.20313 -0.45288,0 -1.12302,-1.77333 -1.4892,-3.94073 -1.10958,-6.56758 -7.13003,-17.77659 -12.739,-23.717751 -8.69375,-9.208644 -28.50136,-22.128523 -43.49491,-28.370352 l -7.44824,-3.100708 -8.16393,7.2056 C 130.26364,82.02073 128.68411,83.95115 126.56614,90.75 c -0.59199,1.90033 -0.33026,2.25 1.6841,2.25 2.95452,0 15.64677,3.283356 18.1865,4.704662 1.45948,0.816763 0.59347,1.019781 -3.93062,0.921452 -7.73508,-0.168117 -8.01583,1.629376 -0.47823,3.061836 4.0177,0.76354 8.45797,2.65254 13.25664,5.6397 7.11943,4.43183 15.63615,7.84292 22.97652,9.20247 5.45284,1.00995 5.60998,2.46988 0.26585,2.46988 -6.28962,0 -11.29725,2.23681 -12.09141,5.40099 -0.48521,1.93325 0.0981,3.42304 2.46441,6.29374 4.00943,4.86414 3.96513,6.21093 -0.092,2.79707 -2.68077,-2.25572 -3.80908,-2.58732 -7.04367,-2.07009 -7.12323,1.13905 -9.674,4.05518 -7.81774,8.93752 0.54858,1.44287 0.75499,3.25514 0.4587,4.02727 -0.87636,2.28375 1.51266,9.6135 3.13336,9.6135 0.8038,0 1.46146,0.675 1.46146,1.5 0,0.825 0.68614,1.5 1.52475,1.5 0.83861,0 1.96277,1.15208 2.49813,2.56017 0.53536,1.4081 1.40164,2.2955 1.92507,1.972 0.52344,-0.3235 1.44011,0.32442 2.03706,1.43982 0.59695,1.11541 1.76334,2.02801 2.59199,2.02801 0.82864,0 2.47269,0.90002 3.65343,2.00005 2.18922,2.03957 14.76676,7.24904 20.366,8.43536 2.72191,0.57669 3.42356,0.22717 5.8009,-2.88968 1.48745,-1.95015 3.456,-3.54573 4.37456,-3.54573 0.91857,0 4.27066,-2.57341 7.44911,-5.7187 3.91215,-3.87132 5.779,-5.16348 5.779,-4 0,2.10567 1.23372,2.16632 4.95216,0.24344 2.54888,-1.31808 2.91743,-1.30697 3.45895,0.10421 0.45057,1.17417 1.63665,1.4812 4.62212,1.19649 l 4.01603,-0.38299 -0.6538,5.77878 c -0.70789,6.25692 -0.21031,6.7686 4.78944,4.9252 1.27331,-0.46947 3.57619,-1.15896 5.11752,-1.53221 2.61561,-0.6334 2.72656,-0.53688 1.66432,1.44792 -2.3193,4.33366 6.04096,9.52866 14.09787,8.76031 4.36636,-0.4164 4.33569,-0.43894 2.94307,2.16321 -1.32088,2.46807 -5.07042,3.57763 -20.24114,5.98975 -14.57464,2.31734 -16.24342,2.33874 -23.76654,0.30486 z m 23.5,-1.6842 c 12.16398,-2.06686 19.50005,-3.88069 19.49998,-4.82132 -10e-6,-0.15111 -1.98769,-0.35144 -4.41706,-0.44518 -6.77692,-0.26148 -13.56783,-4.63314 -13.59823,-8.75388 -0.01,-1.30565 -0.29328,-1.63863 -0.7646,-0.89757 -0.4121,0.64797 -1.41771,1.1165 -2.23468,1.04118 -0.81698,-0.0753 -3.6967,0.24419 -6.3994,0.71002 -3.14751,0.54249 -5.51198,0.4735 -6.57749,-0.19193 -1.15542,-0.72157 -3.11646,-0.7064 -6.42047,0.0497 -3.47666,0.79557 -5.24001,0.78688 -6.55172,-0.0323 -1.45753,-0.91024 -3.23983,-0.36364 -9.48537,2.90904 -4.22984,2.21644 -7.93283,3.78767 -8.22887,3.49162 -0.29604,-0.29604 1.16271,-1.24897 3.24168,-2.11762 2.07897,-0.86865 5.39011,-3.43938 7.35809,-5.71273 5.23237,-6.0443 5.97051,-7.78842 1.72463,-4.07507 -2.04385,1.7875 -4.36195,3.25 -5.15135,3.25 -0.7894,0 -2.46124,1.39245 -3.7152,3.09434 -1.97518,2.68071 -2.74779,3.02806 -5.77994,2.59853 -1.925,-0.27269 -4.2926,-0.81525 -5.26134,-1.20568 -1.32684,-0.53475 -1.61478,-0.32795 -1.16724,0.83833 0.32675,0.85151 1.23186,1.30346 2.01134,1.00435 0.77948,-0.29912 1.41724,-0.0638 1.41724,0.52296 0,2.21801 12.12214,4.83629 20.24172,4.37205 4.25795,-0.24346 7.50205,-0.83045 7.20911,-1.30445 -0.61699,-0.9983 2.2702,-1.79702 8.2906,-2.29352 2.45425,-0.2024 5.96914,-1.49314 8.34175,-3.06326 2.25518,-1.49241 4.296,-2.5178 4.53516,-2.27865 0.23915,0.23916 -1.93964,2.04613 -4.84176,4.01551 -5.68729,3.85938 -12.9925,5.69949 -22.62691,5.69949 -3.01565,0 -5.22654,0.25647 -4.91308,0.56993 0.53692,0.53691 17.11038,5.10539 19.26341,5.30996 0.55,0.0523 7.3,-0.97546 15,-2.28382 z m -18,-1.55903 -10,-0.64971 13.5,-0.20077 c 7.425,-0.11043 16.65,-0.40872 20.5,-0.66287 5.59801,-0.36954 6.19886,-0.28729 3,0.41069 -6.41349,1.39939 -16.24989,1.8011 -27,1.10266 z m 13.76375,-2.75462 c 1.52006,-0.22986 3.77006,-0.22371 5,0.0136 1.22994,0.23736 -0.0137,0.42542 -2.76375,0.41792 -2.75,-0.008 -3.75631,-0.20172 -2.23625,-0.43157 z M 205.5,180.01624 c 1.65,-0.42848 4.35,-1.48018 6,-2.33711 1.65,-0.85693 4.94659,-1.78938 7.32576,-2.07211 l 4.32576,-0.51404 -2.37092,1.86496 c -1.304,1.02573 -5.02074,2.35481 -8.25942,2.95351 -6.82474,1.26162 -11.75964,1.33527 -7.02118,0.10479 z m 12.94236,-2.92298 c 0.30822,-0.49871 -0.34022,-0.67122 -1.44098,-0.38337 -2.33499,0.61061 -2.63015,1.29011 -0.5604,1.29011 0.79254,0 1.69316,-0.40803 2.00138,-0.90674 z m 4.80764,3.24446 c -0.6875,-0.27741 -1.8125,-0.27741 -2.5,0 -0.6875,0.27741 -0.125,0.50439 1.25,0.50439 1.375,0 1.9375,-0.22698 1.25,-0.50439 z M 185.36163,175.5 c 0.31658,-0.825 0.18787,-1.5 -0.28603,-1.5 -0.47389,0 -1.12064,0.675 -1.43723,1.5 -0.31658,0.825 -0.18787,1.5 0.28603,1.5 0.47389,0 1.12064,-0.675 1.43723,-1.5 z m 26.82536,-5.25007 c 0.92784,-0.79522 2.12758,-1.17355 2.66608,-0.84074 0.5385,0.33281 2.81395,-1.5356 5.05655,-4.15204 2.24261,-2.61643 4.08037,-4.4096 4.08392,-3.98481 0.0132,1.58178 -8.26471,9.6781 -9.26384,9.0606 -0.60223,-0.3722 -0.73888,-0.15682 -0.32519,0.51255 1.11649,1.80652 5.84112,1.31413 8.59549,-0.89581 1.375,-1.10321 3.85,-2.96993 5.5,-4.14826 l 3,-2.14241 -2.99831,3.23439 c -2.3444,2.529 -2.5625,3.07059 -1,2.48327 1.73547,-0.65233 1.82751,-0.54092 0.69975,0.84707 -0.91646,1.12794 -0.97593,1.7976 -0.20211,2.27585 2.33552,1.44342 4.00067,-0.42663 4.00067,-4.49296 0,-3.52168 -0.36235,-4.18469 -2.75,-5.03181 -1.5125,-0.53663 -3.45438,-1.37739 -4.31529,-1.86837 -0.94314,-0.53788 -2.27032,-0.49814 -3.33909,0.1 -0.97559,0.54596 -2.83207,0.79036 -4.12552,0.5431 -1.86805,-0.3571 -2.60582,0.16391 -3.58726,2.53331 -0.67955,1.64058 -2.39368,4.36556 -3.80919,6.05551 -2.4787,2.95927 -1.38945,2.9137 2.11334,-0.0884 z M 153.35351,148.78207 C 152.60908,145.91221 152,142.57721 152,141.37097 c 0,-2.62063 -5.83961,-7.93136 -7.21207,-6.5589 -0.56632,0.56632 -0.35143,2.29686 0.55441,4.46485 1.48338,3.55022 8.31223,14.72308 8.99875,14.72308 0.20127,0 -0.24314,-2.34807 -0.98758,-5.21793 z m -6.41261,-20.93088 c -1.75452,-3.49315 -3.80899,-6.71105 -4.56547,-7.15088 -0.75649,-0.43983 -1.39006,-1.33983 -1.40794,-2 -0.0332,-1.22436 -11.16165,-9.83948 -11.8373,-9.16384 -0.20421,0.20422 1.07991,2.2036 2.85361,4.44308 1.7737,2.23947 5.02683,7.54773 7.22918,11.79611 2.48164,4.78715 4.53616,7.61196 5.40306,7.4288 0.76934,-0.16255 2.17921,0.1412 3.13305,0.675 0.95384,0.53379 1.87996,0.82482 2.05806,0.64673 0.17809,-0.1781 -1.11172,-3.18184 -2.86625,-6.675 z m 7.68238,5.03299 c 1.34958,-1.26786 4.11927,-2.32626 6.91092,-2.64092 l 4.65873,-0.52511 -4.84647,-3.01652 c -2.66555,-1.65908 -5.07146,-3.00615 -5.34646,-2.99349 -0.275,0.0127 -1.08802,-0.81649 -1.8067,-1.84256 C 153.47461,120.83951 152.01592,120 150.95177,120 c -1.06415,0 -2.50114,-0.91869 -3.1933,-2.04154 -1.2838,-2.08263 -5.03589,-4.51852 -14.67805,-9.5291 -2.98077,-1.54897 -4.94454,-2.97465 -4.36394,-3.16819 1.58793,-0.52931 18.80324,9.70051 27.83143,16.53821 4.37365,3.31248 8.02523,5.72522 8.11462,5.36166 0.0894,-0.36357 0.40837,-1.79057 0.70883,-3.17112 0.61327,-2.81775 5.22552,-5.97671 8.78293,-6.01549 1.29014,-0.0141 -1.02121,-1.17218 -5.13634,-2.57359 -4.11513,-1.40141 -10.64013,-4.51157 -14.5,-6.91147 -7.1497,-4.44537 -10.03693,-5.2327 -26.79638,-7.30719 -9.92967,-1.229104 -6.79979,0.33439 4.42964,2.21276 5.30816,0.88791 11.53126,2.45611 13.82912,3.48489 l 4.17791,1.87051 -4.496,-0.12517 c -2.4728,-0.0688 -4.80291,-0.43218 -5.17803,-0.80742 -0.37512,-0.37523 0.37497,-0.49251 1.66688,-0.26061 1.2919,0.23189 0.32391,-0.26766 -2.15109,-1.11011 -4.89272,-1.66542 -15,-2.66832 -15,-1.48839 0,1.0893 3.58176,4.12627 4.17124,3.53679 0.27991,-0.27992 3.77868,1.8566 7.77503,4.74782 6.82767,4.93957 7.48111,5.75453 10.82961,13.50675 1.95994,4.5375 3.79565,8.25 4.07937,8.25 0.28372,0 1.52933,-0.95212 2.76803,-2.11582 z M 157.75,113.43427 c -2.6125,-1.35993 -4.75,-2.66828 -4.75,-2.90743 0,-0.50211 9.80249,3.94231 10.72108,4.86091 1.3052,1.3052 -1.43007,0.41034 -5.97108,-1.95348 z M 149,111 c -0.825,-0.53316 -1.05,-0.96937 -0.5,-0.96937 0.55,0 1.675,0.43621 2.5,0.96937 0.825,0.53316 1.05,0.96937 0.5,0.96937 -0.55,0 -1.675,-0.43621 -2.5,-0.96937 z m -86.253084,4.45641 c -0.33054,-1.72911 0.426828,-3.89052 2.365226,-6.75 4.207099,-6.20621 3.881571,-7.20641 -2.345423,-7.20641 -4.290699,0 -5.293918,0.33196 -5.59045,1.84986 -0.569036,2.91282 0.650315,7.8563 2.811942,11.40014 2.379741,3.90143 3.420412,4.16791 2.758705,0.70641 z M 36.859248,98.944059 c 4.412888,-2.544219 7.856968,-5.366852 9.200047,-7.540001 1.606646,-2.599607 2.623953,-3.321979 4.043708,-2.871366 2.382208,0.756083 6.119132,-0.364252 5.352501,-1.604688 -0.315446,-0.510402 -2.00948,-0.934895 -3.764521,-0.943317 C 49.935942,85.976265 47.825,85.518032 47,84.966391 45.711096,84.104558 45.781461,83.801763 47.5,82.814795 50.418761,81.138533 57,74.420717 57,73.117647 57,70.486764 49.748115,72.751419 44.115141,77.141395 40.054084,80.306321 38.726723,79.619593 39.492862,74.75 L 40.16152,70.5 37.421048,74.25 C 35.913789,76.3125 34.302447,78 33.840288,78 32.583385,78 32.827249,75.598321 34.25,73.96498 c 0.6875,-0.789261 0.0077,-0.346296 -1.510702,0.984368 -1.888701,1.655195 -2.388793,2.649242 -1.583261,3.147088 0.801591,0.495411 -0.182345,2.351815 -3.082416,5.815632 -4.20314,5.020189 -7.269716,6.976046 -4.841548,3.087932 0.686961,-1.1 1.53829,-2 1.891842,-2 0.353552,0 0.878178,-0.9 1.165834,-2 0.287656,-1.1 0.08858,-2 -0.442386,-2 -0.530968,0 -0.668322,-0.480678 -0.305229,-1.068174 0.363092,-0.587495 1.313021,-0.81765 2.110954,-0.511454 0.797933,0.306196 1.184026,0.125089 0.857983,-0.402459 -0.326042,-0.527548 0.112142,-2.322393 0.973742,-3.988545 C 30.346414,73.363215 30.622465,72 30.09826,72 c -1.347804,0 -4.582958,4.32338 -6.14279,8.209073 -0.726591,1.81001 -2.363814,4.562953 -3.638273,6.117652 -2.620471,3.196687 -2.854676,4.839772 -1.092142,7.662037 1.026402,1.643531 0.920757,2.184132 -0.651491,3.333788 -1.296779,0.948228 -1.520788,1.592034 -0.725054,2.083824 C 18.481829,99.797787 19,99.614919 19,99 c 0,-0.614919 0.45734,-0.835382 1.016312,-0.489919 0.558971,0.345464 0.713604,1.117907 0.343628,1.716539 -0.731453,1.18352 0.279355,0.95432 7.561941,-1.714651 2.432034,-0.891308 5.582034,-2.437089 7,-3.435069 3.089498,-2.174422 7.090301,-3.533696 7.047198,-2.394288 -0.06896,1.822812 -8.742082,7.343478 -10.590387,6.741055 -1.366421,-0.445365 -1.515317,-0.352086 -0.546059,0.342088 1.003182,0.718465 0.385136,1.368755 -2.5,2.630385 -2.647457,1.15771 -3.012252,1.51185 -1.179677,1.14522 1.459125,-0.29191 5.826957,-2.3607 9.706292,-4.597301 z M 22,99 c 0,-0.55 0.476558,-1 1.059017,-1 0.582459,0 0.780902,0.45 0.440983,1 -0.339919,0.55 -0.816476,1 -1.059017,1 C 22.198442,100 22,99.55 22,99 Z m 5,-4.495759 c 0,-2.599592 4.226902,-5.577666 7.70034,-5.425294 0.989813,0.04342 1.26244,0.297495 0.605837,0.564608 -0.656603,0.267113 -0.973623,1.059491 -0.704491,1.760839 C 35.150683,92.835056 33.799955,94.054104 29.75,95.7831 27.178334,96.880989 27,96.798056 27,94.504241 Z M 30.127555,93.25 C 31.371426,91.663944 31.336056,91.628574 29.75,92.872445 28.084252,94.178814 27.554521,95 28.377555,95 c 0.207656,0 0.995156,-0.7875 1.75,-1.75 z M 34,92.559017 C 34,92.316476 33.55,91.839919 33,91.5 32.45,91.160081 32,91.358524 32,91.940983 32,92.523442 32.45,93 33,93 c 0.55,0 1,-0.198442 1,-0.440983 z m 101,6.908759 c 0,-0.842724 1.0125,-1.915464 2.25,-2.383867 1.89387,-0.716846 1.45861,-0.962468 -2.75,-1.551835 -2.75,-0.385106 -5.82135,-0.928435 -6.82523,-1.207397 -1.50447,-0.418071 -1.76807,-0.0079 -1.5,2.334059 0.32836,2.868582 0.27427,2.840385 8.07523,4.209624 0.4125,0.0724 0.75,-0.55786 0.75,-1.400584 z m 71.36557,-5.296158 c -1.41125,-4.814249 -1.40106,-5.468503 0.12135,-7.791998 0.98926,-1.509797 2.24834,-2.311452 3.11066,-1.98055 1.16287,0.446235 1.23989,0.165755 0.39038,-1.421575 C 209.40588,81.889873 208.54197,81 208.06816,81 c -0.47381,0 -4.05883,-2.470404 -7.9667,-5.489786 -10.99047,-8.491686 -27.08611,-15.840761 -46.88032,-21.404988 -2.35338,-0.661542 -4.02526,-1.613152 -3.71529,-2.114689 C 150.54004,50.317186 136.65298,47.116619 123.5,45.99694 116.35,45.388279 105.80935,44.46497 100.07632,43.945142 89.60706,42.995867 78.18105,42.832279 84.5,43.722134 c 14.333566,2.018498 54.26217,13.432762 69,19.724812 19.66646,8.39624 40.33051,21.375891 49.08406,30.831026 2.70377,2.920469 5.00733,5.273771 5.11903,5.22956 0.1117,-0.04421 -0.49018,-2.445373 -1.33752,-5.335914 z M 138.75,50.310674 C 137.7875,50.059147 137,49.459756 137,48.978695 c 0,-0.781086 1.34508,-0.518997 7,1.363948 1.86893,0.622307 -2.85644,0.593533 -5.25,-0.03197 z M 51,94.035184 c 0,-0.530649 -0.855017,-1.422408 -1.900039,-1.981686 -1.423369,-0.761765 -2.03646,-0.661363 -2.443823,0.400208 -0.533882,1.391276 0.619468,2.311069 3.093862,2.467347 0.6875,0.04342 1.25,-0.35522 1.25,-0.885869 z m -5.153235,-45.037192 0.03875,-5.002007 -5.692756,0.565227 C 37.06174,44.872087 33.375,45.39193 32,45.716418 c -2.1393,0.504856 -1.859084,0.709364 1.942167,1.41744 2.510185,0.467583 5.989534,2.117737 8,3.794168 1.956808,1.631689 3.627137,2.990392 3.711843,3.01934 0.0847,0.02895 0.171445,-2.198269 0.192755,-4.949374 z M 173.55443,39.588424 c 1.21544,-1.215435 0.24347,-1.834249 -6.99502,-4.45344 C 142.17,26.309861 111.91114,26.515333 84.2924,35.693615 78.12822,37.7421 73.223411,39.556744 73.392823,39.726157 73.562236,39.89557 80.630656,38.924324 89.100423,37.567833 97.57019,36.211343 111.025,34.604587 119,33.997266 l 14.5,-1.104222 19,3.948 c 10.45,2.1714 19.14464,3.995465 19.32143,4.053478 0.17678,0.05801 0.95664,-0.529731 1.733,-1.306098 z M 39.609458,23.801318 c -1.004374,-0.562076 -2.267379,-0.48811 -3.359458,0.196741 -1.480445,0.928399 -1.38414,0.996567 0.625229,0.442556 1.598277,-0.440666 2.153724,-0.296479 1.698063,0.440797 -0.433977,0.702188 -0.08051,0.866721 0.984229,0.458142 1.516971,-0.582117 1.521486,-0.715835 0.05194,-1.538236 z M 76.75,6.3106745 c -0.9625,-0.2515276 -2.5375,-0.2515276 -3.5,0 -0.9625,0.2515275 -0.175,0.4573228 1.75,0.4573228 1.925,0 2.7125,-0.2057953 1.75,-0.4573228 z m 44.97917,0.085159 c -0.3323,-0.3322916 -1.1948,-0.3678179 -1.91667,-0.078947 -0.79773,0.3192263 -0.56078,0.5561827 0.60417,0.6041666 1.05416,0.043421 1.64479,-0.1929276 1.3125,-0.5252193 z M 104.5567,139.77749 C 103.70052,138.55512 103,137.11337 103,136.57361 c 0,-0.53976 -2.08186,-5.26088 -4.626348,-10.49138 -2.649214,-5.44578 -5.086519,-12.19647 -5.703113,-15.79612 -1.127756,-6.58379 -2.054527,-7.81352 -3.041771,-4.03611 -0.981513,3.75548 -8.463875,11.73517 -10.417156,11.10955 -1.442109,-0.46189 -1.476745,-0.38246 -0.219971,0.50448 1.010743,0.71331 1.163868,1.38046 0.474959,2.06937 -0.688908,0.68891 -1.418903,0.37262 -2.264287,-0.98105 -1.058928,-1.69562 -0.979525,-2.08083 0.52504,-2.5472 5.073278,-1.57253 10.792303,-8.32778 11.857542,-14.00599 0.998513,-5.322528 -0.763518,-7.95574 -7.649725,-11.431886 -7.092189,-3.580126 -7.501442,-4.989997 -0.556761,-1.918035 6.591306,2.915648 12.716617,8.723966 12.04059,11.417471 -1.140509,4.54415 1.682529,16.0249 6.133858,24.94523 C 101.99879,130.3135 104,134.90507 104,135.61543 c 0,0.96367 0.76,0.85909 2.99368,-0.41194 1.64652,-0.93692 2.99401,-2.15349 2.99442,-2.70349 0.002,-3.01365 -2.47282,-8.98023 -5.62775,-13.5667 -3.03531,-4.41256 -3.50606,-5.81026 -3.06485,-9.09972 0.49658,-3.70234 0.33616,-3.98084 -3.387114,-5.88032 C 94.259671,102.09183 92.720729,100 95,100 c 0.55,0 1,0.37777 1,0.83948 0,0.46172 1.125,1.35207 2.5,1.97857 2.21934,1.01119 2.5,0.91137 2.5,-0.88915 0,-2.064705 2.63361,-7.9289 3.56086,-7.9289 0.28023,0 0.0621,0.836027 -0.48478,1.857837 -2.49669,4.665113 -0.52175,13.712153 5.05186,23.142163 0.48762,0.825 1.42443,2.625 2.0818,4 0.65737,1.375 1.27095,2.62935 1.36352,2.78744 0.0926,0.15809 1.35144,-0.25164 2.79751,-0.91051 4.6149,-2.10269 3.41704,-9.91402 -2.39111,-15.59256 -3.40265,-3.32672 -3.40566,-3.38177 -0.58928,-10.78437 1.24436,-3.270682 1.52871,-3.544176 1.55957,-1.5 0.0207,1.375 -0.64944,3.81774 -1.48932,5.42831 -1.50316,2.88251 -1.4603,2.99632 2.73956,7.27567 2.9982,3.05494 4.33492,5.3059 4.49641,7.57168 0.25848,3.62667 -1.73309,11.72434 -2.88353,11.72434 -0.41267,0 -0.49128,0.675 -0.1747,1.5 0.35888,0.93522 -0.007,1.5 -0.97236,1.5 -1.93237,0 -3.04547,-1.64745 -1.68232,-2.48992 0.55897,-0.34546 1.00263,-1.16406 0.9859,-1.8191 -0.0167,-0.65504 -0.49438,-0.39402 -1.06146,0.58005 -0.56708,0.97407 -1.45339,1.51001 -1.96959,1.19099 -0.5162,-0.31903 -1.00225,0.909 -1.08011,2.72896 -0.14431,3.37306 -0.38094,6.3195 -0.68739,8.55902 -0.28067,2.05117 -3.94051,1.41722 -5.61434,-0.97251 z m 1.78838,-0.32062 c -0.32569,-0.84872 -0.80663,-1.32866 -1.06875,-1.06653 -0.26213,0.26213 -0.17998,0.95654 0.18255,1.54313 0.98605,1.59546 1.56238,1.28551 0.8862,-0.4766 z m 2.25754,-18.34347 C 107.72118,120.13941 107,118.79752 107,118.13142 c 0,-0.6661 -0.99812,-3.10567 -2.21805,-5.42126 -1.92652,-3.65678 -2.26437,-3.91354 -2.57043,-1.95346 -0.35751,2.28958 6.95019,14.72855 7.6411,13.00647 0.19394,-0.48339 -0.36856,-1.67579 -1.25,-2.64977 z M 126,118.19744 c 0,-0.44141 -2.30743,-3.15898 -5.12763,-6.03904 -2.8202,-2.88005 -4.9152,-5.4489 -4.65556,-5.70854 C 116.8599,105.80676 127,116.61178 127,117.94014 127,118.52306 126.775,119 126.5,119 c -0.275,0 -0.5,-0.36115 -0.5,-0.80256 z M 114.54899,89.463009 C 110.86461,80.64505 102.70333,72.690666 95.955777,71.341155 c -1.648568,-0.329713 -3.209858,-0.94325 -3.469535,-1.363416 -0.693993,-1.122905 5.535337,0.453611 9.013758,2.281198 5.7017,2.995712 11.45491,10.231874 14.49742,18.234276 1.46545,3.854437 0.22338,2.971007 -1.44843,-1.030204 z M 74.994036,73.539297 c 0.380492,-2.507158 1.038897,-4.891655 1.463124,-5.298883 0.981794,-0.942453 -0.406828,7.985241 -1.408963,9.058469 -0.41028,0.439386 -0.434652,-1.252428 -0.05416,-3.759586 z M 62.100391,71.704522 c -1.264918,-2.106309 -1.243608,-2.127619 0.478332,-0.478332 0.991226,0.949405 1.58698,1.94144 1.323898,2.204522 -0.263082,0.263082 -1.074085,-0.513704 -1.80223,-1.72619 z M 58.191667,66.925 C 58.38875,66.33375 58.9775,65.85 59.5,65.85 c 0.5225,0 1.11125,0.48375 1.308333,1.075 C 61.005417,67.51625 60.416667,68 59.5,68 58.583333,68 57.994583,67.51625 58.191667,66.925 Z m 4.96283,-1.476966 c 0.190026,-0.980266 0.95098,-1.983917 1.691006,-2.230336 0.860627,-0.286576 1.220995,0.194252 1,1.334268 -0.190026,0.980266 -0.95098,1.983917 -1.691006,2.230336 -0.860627,0.286576 -1.220995,-0.194252 -1,-1.334268 z M 58.5,63.092703 c 2.2,-1.069406 3.4375,-1.977749 2.75,-2.018539 -0.6875,-0.04079 -1.25,-0.423556 -1.25,-0.85059 0,-0.427034 1.729702,-0.611472 3.843782,-0.409862 2.114081,0.20161 5.489081,-0.08772 7.5,-0.642967 C 73.354702,58.615503 75,58.50466 75,58.924426 c 0,0.646423 -5.119344,2.204232 -18,5.477372 -1.375,0.349405 -0.7,-0.239688 1.5,-1.309095 z m 9.5,0.966314 c 0,-1.676423 1.773544,-2.091535 2.36383,-0.553273 C 70.712132,64.413403 70.360699,65 69.468615,65 68.660877,65 68,64.576558 68,64.059017 Z M 72.191667,62.925 C 72.38875,62.33375 72.9775,61.85 73.5,61.85 c 0.5225,0 1.11125,0.48375 1.308333,1.075 C 75.005417,63.51625 74.416667,64 73.5,64 72.583333,64 71.994583,63.51625 72.191667,62.925 Z M 56.119205,55.25 c -0.668346,-2.616494 -0.569067,-5.56361 0.328444,-9.75 l 1.286328,-6 -0.116988,9.747513 c -0.06434,5.361132 -0.212144,9.748632 -0.328445,9.75 C 57.172243,58.998881 56.646041,57.3125 56.119205,55.25 Z M 17.2174,42.449267 C 17.683972,41.982695 28.312614,39.878837 42,37.543742 c 3.212103,-0.547991 3.29436,-0.504298 1,0.531181 -1.375,0.620558 -7.45,1.979973 -13.5,3.020923 -11.940656,2.054483 -13.112824,2.183644 -12.2826,1.353421 z m 33.620722,-5.513028 c 1.474019,-0.590704 2.952305,-0.578516 4,0.03298 1.26721,0.739615 0.711945,0.962134 -2.338122,0.936988 -3.498525,-0.02884 -3.706872,-0.150447 -1.661878,-0.969966 z" id="path1"/>
  </g>
</svg>