<?xml version="1.0" encoding="UTF-8" standalone="no"?><!-- Created with Inkscape (http://www.inkscape.org/) --><svg xmlns:inkscape="http://www.inkscape.org/namespaces/inkscape" xmlns:sodipodi="http://sodipodi.sourceforge.net/DTD/sodipodi-0.dtd" xmlns="http://www.w3.org/2000/svg" xmlns:svg="http://www.w3.org/2000/svg" version="1.1" id="svg1" width="25mm" height="18.251mm" viewBox="0 0 263 192" sodipodi:docname="Toothless.svg" inkscape:version="1.4.2 (f4327f4, 2025-05-13)">
  <defs id="defs1"/>
  <sodipodi:namedview id="namedview1" pagecolor="#ffffff" bordercolor="#000000" borderopacity="0.25" inkscape:showpageshadow="2" inkscape:pageopacity="0.0" inkscape:pagecheckerboard="0" inkscape:deskcolor="#d1d1d1" inkscape:zoom="4.203125" inkscape:cx="131.44981" inkscape:cy="96" inkscape:window-width="1920" inkscape:window-height="1009" inkscape:window-x="-8" inkscape:window-y="-8" inkscape:window-maximized="1" inkscape:current-layer="g1"/>
  
<path d="M 97.654 2.479 L 97.656 2.479 L 99.518 2.509 L 99.521 2.509 L 101.383 2.562 L 101.385 2.562 L 103.246 2.637 L 103.249 2.637 L 105.109 2.736 L 105.111 2.736 L 106.969 2.855 L 106.972 2.855 L 108.829 2.996 L 108.831 2.996 L 110.687 3.159 L 110.69 3.16 L 112.543 3.343 L 112.545 3.343 L 114.396 3.546 L 114.398 3.546 L 116.247 3.771 L 116.249 3.771 L 118.096 4.014 L 118.099 4.015 L 119.943 4.277 L 119.945 4.277 L 121.786 4.56 L 121.788 4.56 L 123.626 4.86 L 123.628 4.861 L 125.462 5.18 L 125.464 5.18 L 127.296 5.52 L 127.298 5.521 L 129.126 5.878 L 129.128 5.878 L 130.952 6.252 L 130.954 6.252 L 132.775 6.643 L 132.777 6.644 L 134.594 7.053 L 134.597 7.053 L 136.409 7.484 L 136.411 7.485 L 138.217 7.94 L 138.22 7.941 L 140.02 8.421 L 140.024 8.422 L 141.814 8.936 L 141.82 8.938 L 143.593 9.504 L 143.618 9.514 L 145.278 10.293 L 145.37 10.376 L 146.256 11.875 L 146.076 12.192 L 144.367 12.197 L 144.327 12.194 L 142.498 11.846 L 140.665 11.56 L 138.823 11.287 L 136.981 11.024 L 135.137 10.768 L 133.293 10.517 L 131.448 10.271 L 131.448 10.272 L 129.602 10.031 L 127.754 9.794 L 125.907 9.559 L 124.059 9.329 L 122.211 9.106 L 120.363 8.891 L 118.513 8.689 L 116.665 8.508 L 116.665 8.509 L 114.809 8.362 L 112.955 8.269 L 111.115 8.259 L 109.269 8.365 L 107.429 8.598 L 105.613 8.932 L 103.794 9.328 L 101.984 9.752 L 100.183 10.213 L 98.407 10.732 L 96.67 11.35 L 95.018 12.133 L 93.562 13.201 L 92.515 14.645 L 91.973 16.37 L 91.78 18.19 L 91.769 20.026 L 91.888 21.88 L 92.145 23.693 L 92.567 25.493 L 93.191 27.218 L 94.104 28.742 L 95.594 29.581 L 97.376 29.381 L 99.226 29.161 L 101.075 28.938 L 102.924 28.714 L 104.773 28.489 L 106.621 28.262 L 108.47 28.035 L 110.318 27.809 L 112.168 27.589 L 112.169 27.589 L 114.02 27.38 L 114.022 27.38 L 115.874 27.184 L 115.876 27.184 L 117.73 27.006 L 117.732 27.005 L 119.587 26.842 L 119.589 26.842 L 121.446 26.7 L 121.449 26.7 L 123.308 26.581 L 123.31 26.581 L 125.17 26.487 L 125.174 26.487 L 127.035 26.421 L 127.038 26.421 L 128.9 26.387 L 130.771 26.387 L 132.633 26.42 L 132.637 26.42 L 134.498 26.491 L 134.502 26.491 L 136.361 26.598 L 136.365 26.598 L 138.222 26.742 L 138.226 26.743 L 140.079 26.924 L 140.083 26.924 L 141.933 27.138 L 141.937 27.138 L 143.783 27.385 L 143.786 27.386 L 145.628 27.664 L 145.632 27.664 L 147.469 27.97 L 147.472 27.971 L 149.303 28.311 L 149.307 28.312 L 151.131 28.688 L 151.135 28.689 L 152.952 29.098 L 152.956 29.099 L 154.766 29.541 L 154.769 29.541 L 156.571 30.011 L 156.574 30.012 L 158.369 30.508 L 158.372 30.509 L 160.16 31.03 L 160.163 31.031 L 161.944 31.577 L 161.947 31.578 L 163.719 32.149 L 163.721 32.15 L 165.485 32.747 L 165.489 32.748 L 167.244 33.373 L 167.247 33.374 L 168.991 34.027 L 168.994 34.028 L 170.726 34.714 L 170.731 34.716 L 172.447 35.439 L 172.452 35.441 L 174.149 36.207 L 174.155 36.21 L 175.827 37.031 L 175.835 37.035 L 177.47 37.927 L 177.483 37.935 L 179.049 38.942 L 179.062 38.951 L 180.545 40.077 L 180.628 40.229 L 180.752 41.877 L 180.5 42.099 L 178.709 41.735 L 178.696 41.732 L 176.915 41.254 L 175.55 41.08 L 176.255 42.109 L 177.694 43.215 L 179.23 44.267 L 180.791 45.268 L 182.37 46.255 L 182.371 46.256 L 183.942 47.257 L 183.946 47.259 L 185.495 48.292 L 185.498 48.294 L 187.028 49.356 L 187.031 49.358 L 188.541 50.449 L 188.544 50.452 L 190.033 51.57 L 190.036 51.572 L 191.505 52.718 L 191.509 52.721 L 192.952 53.899 L 192.956 53.902 L 194.37 55.113 L 194.374 55.117 L 195.754 56.368 L 195.76 56.373 L 197.092 57.674 L 197.1 57.683 L 198.355 59.058 L 198.371 59.077 L 199.457 60.583 L 199.491 60.66 L 199.867 62.354 L 199.647 62.61 L 198.245 62.512 L 198.122 62.461 L 196.73 61.255 L 195.523 60.518 L 195.572 61.397 L 196.527 62.913 L 197.629 64.414 L 197.628 64.414 L 198.776 65.866 L 199.96 67.3 L 201.165 68.717 L 202.384 70.125 L 202.386 70.127 L 203.589 71.549 L 203.591 71.552 L 204.766 72.997 L 204.769 73.001 L 205.908 74.475 L 205.915 74.484 L 206.977 76.012 L 207.012 76.164 L 206.824 77.382 L 207.258 77.807 L 208.896 78.592 L 208.96 78.639 L 210.224 80.007 L 210.234 80.02 L 211.385 81.484 L 211.391 81.491 L 212.479 83.002 L 212.483 83.008 L 213.521 84.555 L 213.524 84.56 L 214.511 86.139 L 214.515 86.146 L 215.446 87.758 L 215.451 87.766 L 216.31 89.418 L 216.315 89.429 L 217.08 91.126 L 217.084 91.136 L 217.756 92.873 L 217.759 92.881 L 218.359 94.644 L 218.361 94.65 L 218.907 96.43 L 218.909 96.436 L 219.401 98.232 L 219.403 98.241 L 219.823 100.055 L 219.826 100.072 L 220.095 101.913 L 219.891 102.153 L 218.497 102.179 L 218.312 102.077 L 217.381 100.519 L 217.365 100.486 L 216.701 98.746 L 216.699 98.74 L 216.092 96.98 L 216.091 96.977 L 215.51 95.209 L 214.905 93.449 L 214.243 91.727 L 213.474 90.05 L 212.526 88.505 L 211.25 87.301 L 209.625 86.792 L 208.195 87.33 L 207.738 88.889 L 207.866 90.691 L 208.196 92.5 L 208.621 94.313 L 209.092 96.103 L 209.603 97.89 L 210.146 99.668 L 210.72 101.435 L 211.328 103.196 L 211.97 104.932 L 212.667 106.65 L 213.436 108.346 L 213.436 108.348 L 214.192 110.05 L 214.2 110.068 L 214.789 111.835 L 214.791 111.844 L 215.303 113.634 L 215.305 113.64 L 215.763 115.446 L 215.764 115.451 L 216.176 117.267 L 216.178 117.274 L 216.533 119.102 L 216.534 119.112 L 216.8 120.954 L 216.793 121.047 L 216.284 122.67 L 216 122.8 L 214.75 122.261 L 214.632 122.132 L 214.069 120.36 L 214.064 120.339 L 213.68 118.517 L 213.234 116.732 L 212.663 114.96 L 212.007 113.227 L 211.281 111.521 L 210.499 109.839 L 209.668 108.179 L 208.793 106.547 L 208.792 106.547 L 207.869 104.93 L 206.904 103.344 L 205.896 101.785 L 204.842 100.259 L 203.741 98.776 L 202.575 97.324 L 201.354 95.944 L 200.057 94.608 L 198.717 93.325 L 197.342 92.079 L 195.936 90.863 L 194.507 89.677 L 193.056 88.515 L 191.587 87.375 L 190.103 86.26 L 188.6 85.16 L 187.088 84.082 L 185.559 83.018 L 184.02 81.972 L 182.472 80.944 L 180.912 79.932 L 179.339 78.934 L 177.759 77.953 L 176.17 76.987 L 174.57 76.037 L 172.962 75.107 L 171.341 74.19 L 169.713 73.292 L 168.076 72.415 L 168.076 72.416 L 166.424 71.556 L 164.762 70.719 L 163.094 69.907 L 161.407 69.117 L 159.711 68.355 L 158.002 67.623 L 156.286 66.905 L 154.567 66.189 L 152.859 65.478 L 151.171 65.032 L 149.73 65.778 L 148.354 66.993 L 146.957 68.225 L 145.561 69.457 L 144.164 70.69 L 142.769 71.923 L 141.375 73.159 L 139.985 74.397 L 138.603 75.641 L 137.229 76.894 L 135.871 78.161 L 134.529 79.453 L 133.221 80.771 L 131.974 82.127 L 130.793 83.567 L 129.754 85.074 L 128.862 86.692 L 128.129 88.388 L 127.517 90.112 L 127.149 91.747 L 128.547 92.339 L 130.366 92.529 L 130.382 92.531 L 132.214 92.865 L 132.22 92.866 L 134.041 93.257 L 134.045 93.258 L 135.858 93.684 L 135.861 93.685 L 137.668 94.139 L 137.671 94.14 L 139.47 94.62 L 139.473 94.621 L 141.265 95.129 L 141.269 95.13 L 143.05 95.674 L 143.057 95.676 L 144.82 96.277 L 144.842 96.286 L 146.516 97.081 L 146.589 97.138 L 147.618 98.395 L 147.514 98.73 L 145.764 99.244 L 145.715 99.252 L 143.861 99.343 L 143.849 99.343 L 141.991 99.328 L 140.143 99.364 L 138.535 99.54 L 138.653 100.081 L 140.305 100.583 L 142.114 100.991 L 142.116 100.991 L 143.929 101.415 L 143.94 101.418 L 145.726 101.942 L 145.738 101.946 L 147.492 102.571 L 147.502 102.575 L 149.222 103.288 L 149.23 103.291 L 150.917 104.08 L 150.925 104.084 L 152.58 104.939 L 152.586 104.943 L 154.209 105.856 L 154.215 105.859 L 155.806 106.824 L 157.406 107.778 L 157.406 107.779 L 159.02 108.686 L 160.661 109.555 L 162.324 110.382 L 164.012 111.168 L 165.709 111.909 L 167.428 112.61 L 169.166 113.265 L 170.919 113.873 L 172.695 114.435 L 174.474 114.942 L 176.274 115.389 L 178.094 115.785 L 179.914 116.174 L 179.932 116.179 L 181.707 116.738 L 181.835 116.851 L 182.596 118.495 L 182.496 118.773 L 180.99 119.492 L 180.918 119.512 L 179.068 119.683 L 179.057 119.683 L 177.198 119.757 L 175.367 119.929 L 173.551 120.255 L 171.79 120.76 L 170.112 121.486 L 168.621 122.492 L 167.516 123.854 L 167.098 125.527 L 167.458 127.233 L 168.36 128.807 L 169.47 130.281 L 170.618 131.741 L 170.625 131.751 L 171.69 133.276 L 171.708 133.306 L 172.494 134.969 L 172.336 135.267 L 170.781 135.503 L 170.645 135.478 L 169.057 134.578 L 169.032 134.561 L 167.573 133.427 L 166.028 132.473 L 164.319 132.009 L 162.519 132.05 L 160.699 132.351 L 158.914 132.805 L 157.219 133.457 L 155.699 134.413 L 154.596 135.764 L 154.161 137.447 L 154.368 139.224 L 154.842 141.007 L 154.847 141.027 L 155.147 142.852 L 155.149 142.891 L 155.104 144.751 L 155.104 144.758 L 155.003 146.583 L 155.313 148.378 L 155.826 150.143 L 156.535 151.821 L 157.608 153.201 L 159.151 154.119 L 159.237 154.218 L 159.915 155.827 L 161.495 156.642 L 161.54 156.673 L 162.92 157.922 L 162.966 157.982 L 163.8 159.614 L 164.974 160.943 L 166.678 161.499 L 166.782 161.573 L 167.875 163.038 L 169.258 164.164 L 170.987 164.707 L 171.03 164.726 L 172.633 165.657 L 172.652 165.67 L 174.141 166.772 L 175.696 167.751 L 177.337 168.607 L 179.018 169.408 L 180.71 170.164 L 182.424 170.891 L 184.148 171.589 L 185.878 172.257 L 187.627 172.898 L 189.379 173.5 L 191.153 174.061 L 192.934 174.551 L 194.716 174.886 L 196.42 174.6 L 197.767 173.436 L 198.938 172.01 L 198.942 172.006 L 200.16 170.597 L 200.179 170.578 L 201.568 169.337 L 201.615 169.305 L 203.284 168.488 L 204.924 167.641 L 206.425 166.588 L 207.861 165.414 L 209.241 164.187 L 210.592 162.905 L 211.933 161.615 L 211.937 161.612 L 213.308 160.351 L 213.318 160.342 L 214.763 159.172 L 214.813 159.142 L 216.409 158.463 L 216.636 158.505 L 217.9 159.712 L 219.503 159.826 L 221.164 159.122 L 222.86 158.355 L 222.919 158.338 L 224.644 158.109 L 224.815 158.164 L 226.149 159.407 L 227.721 160.157 L 229.513 160.156 L 231.368 159.991 L 231.378 159.991 L 233.22 159.911 L 233.387 159.982 L 234.577 161.34 L 234.628 161.502 L 234.428 163.351 L 234.428 163.352 L 234.218 165.203 L 234.016 167.054 L 233.878 168.887 L 234.013 170.602 L 235.355 171.257 L 237.065 170.797 L 238.821 170.184 L 238.827 170.182 L 240.603 169.622 L 240.609 169.62 L 242.403 169.118 L 242.412 169.116 L 244.225 168.694 L 244.4 168.731 L 245.749 169.756 L 245.83 169.957 L 245.552 171.687 L 245.533 173.409 L 246.377 174.932 L 247.687 176.165 L 249.219 177.145 L 250.892 177.923 L 252.626 178.504 L 254.418 178.907 L 256.252 179.126 L 258.082 179.154 L 259.938 179.038 L 259.956 179.038 L 261.803 179.085 L 261.893 179.107 L 263.378 179.854 L 263.48 180.115 L 262.841 181.853 L 262.813 181.906 L 261.707 183.392 L 261.661 183.437 L 260.168 184.509 L 260.13 184.531 L 258.431 185.279 L 258.409 185.287 L 256.634 185.847 L 256.623 185.85 L 254.819 186.31 L 254.812 186.311 L 252.993 186.713 L 252.989 186.714 L 251.163 187.079 L 251.161 187.08 L 249.33 187.422 L 249.327 187.422 L 247.493 187.745 L 247.492 187.745 L 245.656 188.056 L 245.655 188.057 L 243.817 188.359 L 241.978 188.654 L 241.977 188.654 L 240.138 188.945 L 238.297 189.231 L 238.295 189.231 L 236.454 189.509 L 236.453 189.509 L 234.609 189.773 L 234.606 189.774 L 232.76 190.017 L 232.756 190.017 L 230.905 190.225 L 230.899 190.226 L 229.043 190.378 L 229.034 190.378 L 227.174 190.447 L 227.161 190.447 L 225.3 190.4 L 225.284 190.399 L 223.432 190.212 L 223.417 190.21 L 221.582 189.889 L 221.571 189.887 L 219.757 189.468 L 219.751 189.467 L 217.949 188.994 L 217.947 188.993 L 216.15 188.506 L 214.354 188.011 L 214.353 188.011 L 212.559 187.512 L 210.767 187.006 L 210.765 187.005 L 208.973 186.495 L 207.184 185.979 L 207.183 185.979 L 205.395 185.457 L 203.609 184.93 L 203.608 184.93 L 201.823 184.397 L 200.04 183.859 L 200.039 183.858 L 198.258 183.315 L 196.478 182.767 L 196.476 182.767 L 194.698 182.212 L 192.922 181.652 L 192.921 181.651 L 191.147 181.084 L 189.375 180.511 L 189.373 180.511 L 187.603 179.931 L 185.836 179.344 L 185.835 179.343 L 184.069 178.748 L 182.307 178.146 L 182.305 178.146 L 180.546 177.535 L 180.545 177.534 L 178.789 176.914 L 178.788 176.914 L 177.035 176.284 L 177.033 176.284 L 175.285 175.642 L 175.284 175.641 L 173.541 174.985 L 173.539 174.984 L 171.801 174.314 L 171.799 174.313 L 170.069 173.624 L 170.067 173.623 L 168.346 172.911 L 168.342 172.91 L 166.633 172.168 L 166.628 172.166 L 164.94 171.379 L 164.932 171.375 L 163.281 170.514 L 163.269 170.507 L 161.674 169.545 L 161.667 169.54 L 160.114 168.513 L 160.107 168.509 L 158.594 167.424 L 158.589 167.42 L 157.112 166.285 L 157.107 166.281 L 155.665 165.103 L 155.66 165.099 L 154.253 163.879 L 154.249 163.875 L 152.874 162.619 L 152.87 162.616 L 151.526 161.327 L 151.523 161.323 L 150.209 160.003 L 150.206 160 L 148.919 158.654 L 148.916 158.651 L 147.657 157.279 L 147.654 157.276 L 146.42 155.881 L 146.418 155.878 L 145.211 154.46 L 145.209 154.458 L 144.025 153.019 L 144.022 153.016 L 142.861 151.56 L 142.86 151.558 L 141.721 150.085 L 141.719 150.082 L 140.6 148.593 L 140.598 148.591 L 139.499 147.087 L 139.498 147.085 L 138.419 145.567 L 138.417 145.565 L 137.358 144.033 L 137.357 144.031 L 136.314 142.488 L 136.312 142.486 L 135.288 140.931 L 135.287 140.929 L 134.279 139.362 L 134.278 139.36 L 133.287 137.784 L 133.286 137.782 L 132.311 136.195 L 132.31 136.193 L 131.352 134.596 L 130.402 132.995 L 130.401 132.996 L 129.43 131.407 L 129.431 131.407 L 128.441 129.833 L 127.431 128.27 L 126.406 126.723 L 126.405 126.723 L 125.356 125.184 L 124.281 123.669 L 124.282 123.669 L 123.171 122.187 L 123.17 122.188 L 122.032 120.713 L 122.028 120.707 L 120.938 119.199 L 120.92 119.168 L 120.384 118.066 L 120.388 118.965 L 120.387 118.988 L 120.196 120.841 L 120.195 120.853 L 119.894 122.69 L 119.892 122.701 L 119.498 124.521 L 119.495 124.531 L 119.006 126.328 L 119.001 126.345 L 118.367 128.095 L 118.332 128.155 L 117.24 129.503 L 117.418 131.244 L 117.351 131.42 L 116.079 132.58 L 115.904 132.633 L 114.092 132.344 L 113.959 132.266 L 112.874 130.878 L 112.331 130.341 L 111.635 131.488 L 111.511 133.294 L 111.405 135.152 L 111.405 135.155 L 111.271 137.012 L 111.271 137.016 L 111.102 138.871 L 111.101 138.877 L 110.883 140.727 L 110.846 140.823 L 109.822 142.279 L 109.679 142.366 L 107.872 142.621 L 107.77 142.611 L 106.032 141.973 L 105.976 141.941 L 104.517 140.803 L 104.476 140.76 L 103.387 139.255 L 103.369 139.226 L 102.542 137.559 L 102.529 137.526 L 101.999 135.766 L 101.289 134.044 L 101.29 134.044 L 100.539 132.346 L 99.769 130.657 L 99.768 130.657 L 98.978 128.971 L 98.177 127.292 L 97.369 125.614 L 97.368 125.611 L 96.592 123.918 L 96.59 123.914 L 95.85 122.204 L 95.848 122.2 L 95.142 120.477 L 95.141 120.473 L 94.47 118.736 L 94.468 118.732 L 93.832 116.981 L 93.831 116.976 L 93.237 115.211 L 93.235 115.205 L 92.694 113.423 L 92.691 113.415 L 92.226 111.612 L 92.224 111.6 L 91.865 109.773 L 91.509 107.945 L 91.079 106.202 L 90.556 105.669 L 90.067 107.107 L 90.057 107.132 L 89.237 108.8 L 89.224 108.822 L 88.209 110.383 L 88.201 110.395 L 87.078 111.88 L 87.07 111.889 L 85.864 113.308 L 85.857 113.317 L 84.577 114.67 L 84.568 114.678 L 83.211 115.953 L 83.197 115.965 L 81.734 117.115 L 81.7 117.137 L 80.199 117.907 L 80.471 119.086 L 80.442 119.248 L 79.496 120.702 L 79.274 120.792 L 77.565 120.413 L 77.443 120.334 L 76.519 119.105 L 76.114 119.784 L 76.075 119.831 L 74.835 120.966 L 74.672 121.02 L 72.859 120.837 L 72.722 120.767 L 71.494 119.367 L 71.467 119.328 L 70.58 117.693 L 70.564 117.657 L 70.003 115.888 L 69.994 115.818 L 70.043 113.993 L 70.051 113.941 L 70.559 112.157 L 70.567 112.133 L 71.29 110.418 L 71.295 110.407 L 72.119 108.737 L 72.124 108.727 L 73.032 107.101 L 73.037 107.093 L 74.017 105.509 L 74.023 105.5 L 75.084 103.97 L 75.087 103.966 L 76.171 102.479 L 76.792 101.095 L 75.573 100.65 L 73.809 100.969 L 72.039 101.445 L 70.452 102.207 L 69.694 103.688 L 69.172 105.458 L 69.166 105.473 L 68.5 107.21 L 68.494 107.224 L 67.705 108.905 L 67.706 108.905 L 66.962 110.6 L 66.465 112.341 L 66.34 114.147 L 66.508 115.986 L 66.505 116.045 L 66.202 117.618 L 66.315 118.005 L 67.633 118.901 L 67.721 119.033 L 68.084 120.809 L 67.946 121.05 L 66.199 121.643 L 66.081 121.648 L 64.323 121.215 L 64.269 121.194 L 62.661 120.274 L 62.63 120.252 L 61.211 119.059 L 61.189 119.038 L 59.949 117.652 L 59.938 117.639 L 58.817 116.152 L 58.811 116.144 L 57.761 114.606 L 57.753 114.592 L 56.821 112.981 L 56.81 112.959 L 56.074 111.249 L 56.063 111.216 L 55.616 109.408 L 55.611 109.38 L 55.418 107.53 L 55.417 107.51 L 55.402 105.649 L 55.402 105.638 L 55.478 103.777 L 55.478 103.775 L 55.576 101.938 L 55.286 100.25 L 53.856 99.359 L 52.188 98.566 L 50.505 97.768 L 48.829 96.994 L 47.123 96.346 L 45.388 96.317 L 43.792 97.083 L 42.228 98.075 L 40.652 99.067 L 40.648 99.069 L 39.055 100.034 L 39.052 100.036 L 37.443 100.973 L 37.439 100.975 L 35.809 101.876 L 35.804 101.879 L 34.151 102.737 L 34.145 102.74 L 32.465 103.544 L 32.457 103.547 L 30.747 104.283 L 30.736 104.288 L 28.988 104.928 L 28.972 104.933 L 27.178 105.432 L 27.15 105.437 L 25.305 105.689 L 25.268 105.691 L 23.408 105.609 L 23.359 105.601 L 21.577 105.091 L 21.519 105.065 L 19.984 104.056 L 19.95 104.027 L 18.653 102.7 L 18.636 102.681 L 17.502 101.206 L 17.492 101.191 L 16.493 99.623 L 16.48 99.6 L 15.686 97.92 L 15.674 97.889 L 15.157 96.104 L 15.149 96.063 L 14.992 94.207 L 14.993 94.161 L 15.239 92.316 L 15.247 92.282 L 15.794 90.505 L 15.803 90.48 L 16.573 88.788 L 16.583 88.77 L 17.513 87.158 L 17.517 87.15 L 18.515 85.577 L 19.502 83.999 L 20.443 82.404 L 21.352 80.779 L 22.208 79.133 L 23.042 77.472 L 23.047 77.462 L 23.965 75.842 L 23.973 75.829 L 25.013 74.284 L 25.023 74.27 L 26.179 72.811 L 26.192 72.796 L 27.483 71.453 L 27.504 71.434 L 28.961 70.277 L 29.031 70.241 L 30.778 69.708 L 30.942 69.725 L 32.269 70.467 L 32.307 70.495 L 33.316 71.408 L 34.971 70.919 L 35.1 70.922 L 36.606 71.449 L 37.987 70.613 L 39.554 69.616 L 39.557 69.614 L 41.108 68.664 L 42.139 67.178 L 43.023 65.571 L 43.825 63.891 L 44.519 62.188 L 45.066 60.442 L 45.17 58.665 L 44.551 57.007 L 43.514 55.513 L 42.272 54.17 L 40.889 52.95 L 39.402 51.862 L 37.824 50.912 L 36.165 50.131 L 34.42 49.564 L 32.624 49.204 L 30.786 48.967 L 28.931 48.801 L 27.079 48.691 L 25.222 48.632 L 23.371 48.627 L 21.511 48.669 L 19.65 48.726 L 17.788 48.783 L 15.927 48.84 L 14.065 48.895 L 12.203 48.947 L 12.202 48.947 L 10.34 48.993 L 10.339 48.993 L 8.477 49.029 L 8.475 49.029 L 6.613 49.046 L 6.608 49.046 L 4.746 49.017 L 4.728 49.016 L 2.877 48.833 L 2.794 48.807 L 1.299 47.953 L 1.206 47.843 L 0.583 46.157 L 0.578 46.025 L 1.102 44.239 L 1.131 44.178 L 2.191 42.647 L 2.205 42.63 L 3.421 41.221 L 3.43 41.211 L 4.731 39.88 L 4.737 39.874 L 6.093 38.597 L 6.097 38.593 L 7.49 37.358 L 7.494 37.354 L 8.918 36.153 L 8.921 36.151 L 10.367 34.978 L 10.37 34.975 L 11.836 33.825 L 11.839 33.824 L 13.321 32.696 L 13.323 32.694 L 14.819 31.585 L 14.821 31.583 L 16.33 30.492 L 16.331 30.491 L 17.851 29.415 L 17.853 29.414 L 19.384 28.354 L 19.386 28.353 L 20.928 27.308 L 20.93 27.307 L 22.482 26.276 L 22.483 26.275 L 24.044 25.259 L 24.046 25.258 L 25.615 24.254 L 25.616 24.253 L 27.194 23.263 L 27.196 23.262 L 28.781 22.285 L 28.782 22.284 L 30.377 21.321 L 30.379 21.32 L 31.981 20.372 L 31.982 20.371 L 33.593 19.435 L 33.595 19.434 L 35.214 18.514 L 35.216 18.513 L 36.843 17.606 L 36.845 17.605 L 38.482 16.716 L 38.483 16.715 L 40.128 15.843 L 40.13 15.842 L 41.785 14.987 L 41.788 14.986 L 43.453 14.151 L 43.455 14.15 L 45.13 13.336 L 45.133 13.334 L 46.82 12.545 L 46.823 12.544 L 48.522 11.782 L 48.525 11.781 L 50.238 11.049 L 50.242 11.047 L 51.969 10.35 L 51.973 10.348 L 53.713 9.683 L 53.717 9.682 L 55.469 9.051 L 55.472 9.05 L 57.235 8.449 L 57.239 8.448 L 59.012 7.877 L 59.015 7.876 L 60.797 7.336 L 60.8 7.335 L 62.591 6.824 L 62.595 6.823 L 64.394 6.343 L 64.397 6.342 L 66.204 5.89 L 66.207 5.889 L 68.021 5.467 L 68.025 5.466 L 69.846 5.074 L 69.849 5.074 L 71.676 4.712 L 71.679 4.711 L 73.511 4.379 L 73.514 4.378 L 75.351 4.072 L 75.355 4.072 L 77.197 3.796 L 77.2 3.796 L 79.046 3.546 L 79.049 3.545 L 80.898 3.323 L 80.901 3.323 L 82.753 3.127 L 82.756 3.126 L 84.611 2.957 L 84.614 2.957 L 86.471 2.813 L 86.474 2.813 L 88.332 2.696 L 88.334 2.696 L 90.194 2.603 L 90.197 2.603 L 92.058 2.536 L 92.061 2.536 L 93.923 2.493 L 93.926 2.493 L 95.788 2.474 L 95.791 2.474 Z M 215.074 185.288 L 216.039 185.557 L 217.004 185.823 L 217.971 186.087 L 218.938 186.347 L 219.904 186.603 L 220.874 186.857 L 221.844 187.107 L 222.815 187.353 L 223.785 187.592 L 223.785 187.591 L 224.756 187.821 L 225.735 188.034 L 226.684 188.168 L 227.65 188.064 L 227.65 188.063 L 228.644 187.93 L 228.644 187.931 L 229.634 187.788 L 230.624 187.641 L 231.613 187.492 L 232.603 187.338 L 233.593 187.183 L 234.581 187.026 L 235.57 186.866 L 236.559 186.705 L 237.548 186.543 L 238.536 186.381 L 238.536 186.382 L 239.523 186.216 L 240.512 186.051 L 241.5 185.883 L 242.127 185.775 L 242.052 185.781 L 242.049 185.781 L 241.049 185.849 L 241.047 185.849 L 240.047 185.907 L 240.046 185.907 L 239.045 185.958 L 239.042 185.958 L 238.041 185.997 L 238.04 185.997 L 237.038 186.028 L 237.036 186.028 L 236.034 186.051 L 236.032 186.051 L 235.03 186.066 L 235.029 186.066 L 234.027 186.074 L 233.022 186.074 L 232.02 186.067 L 232.018 186.067 L 231.016 186.053 L 231.015 186.053 L 230.013 186.032 L 230.011 186.032 L 229.009 186.005 L 229.008 186.005 L 228.006 185.971 L 228.005 185.971 L 227.004 185.931 L 227.002 185.931 L 226.001 185.885 L 226 185.885 L 225 185.831 L 223.999 185.773 L 223.997 185.773 L 222.997 185.709 L 215.997 185.254 L 214.997 185.19 L 214.644 185.167 Z M 213.259 183.693 L 213.256 183.693 L 212.253 183.702 L 211.255 183.714 L 210.26 183.744 L 209.871 183.767 L 210.271 183.891 L 210.271 183.892 L 211.226 184.18 L 212.188 184.463 L 212.975 184.691 L 212.911 184.528 L 213.342 183.789 L 213.517 183.687 Z M 242.004 172.841 L 241.994 172.846 L 241.083 173.255 L 241.024 173.272 L 240.19 173.38 L 240.086 173.913 L 240.031 174.019 L 239.34 174.738 L 239.324 174.753 L 238.559 175.401 L 238.553 175.406 L 237.765 176.024 L 237.761 176.027 L 236.957 176.626 L 236.954 176.628 L 236.14 177.212 L 236.137 177.214 L 235.314 177.785 L 235.31 177.788 L 234.473 178.34 L 234.467 178.344 L 233.612 178.866 L 233.605 178.869 L 232.732 179.361 L 232.726 179.365 L 231.837 179.827 L 231.83 179.83 L 230.925 180.261 L 230.919 180.264 L 230.001 180.665 L 229.995 180.667 L 229.064 181.039 L 229.058 181.042 L 228.117 181.384 L 228.111 181.386 L 227.159 181.7 L 227.153 181.702 L 226.193 181.989 L 226.188 181.99 L 225.22 182.251 L 225.214 182.253 L 224.24 182.487 L 224.235 182.488 L 223.255 182.699 L 223.25 182.7 L 222.266 182.887 L 222.262 182.888 L 221.273 183.053 L 221.268 183.053 L 220.277 183.196 L 220.273 183.197 L 219.278 183.322 L 219.274 183.322 L 218.278 183.426 L 218.274 183.427 L 217.275 183.513 L 217.271 183.513 L 216.272 183.582 L 216.269 183.582 L 215.268 183.635 L 215.265 183.635 L 214.263 183.671 L 214.26 183.671 L 213.894 183.679 L 214.523 183.669 L 223.541 183.534 L 224.543 183.52 L 225.545 183.505 L 226.548 183.49 L 228.552 183.458 L 229.553 183.439 L 230.553 183.419 L 231.555 183.397 L 232.557 183.374 L 233.559 183.35 L 234.56 183.324 L 235.562 183.296 L 236.563 183.267 L 236.692 183.263 L 236.639 183.257 L 236.467 183.123 L 236.176 182.366 L 236.264 182.11 L 237.096 181.612 L 237.181 181.584 L 238.16 181.475 L 238.172 181.474 L 239.156 181.421 L 239.166 181.421 L 240.151 181.414 L 240.161 181.414 L 241.145 181.454 L 241.159 181.455 L 242.138 181.562 L 242.238 181.6 L 243.014 182.161 L 243.082 182.419 L 242.793 183.053 L 243.571 183.02 L 244.572 182.976 L 245.57 182.929 L 246.569 182.875 L 247.569 182.814 L 248.569 182.75 L 249.569 182.691 L 249.571 182.691 L 250.572 182.64 L 250.577 182.64 L 251.579 182.611 L 251.627 182.615 L 252.598 182.815 L 252.765 182.997 L 252.848 183.726 L 253.553 183.57 L 254.528 183.346 L 255.503 183.112 L 256.472 182.868 L 257.431 182.607 L 258.391 182.321 L 258.846 182.164 L 258.236 182.118 L 257.241 182.063 L 256.242 182.017 L 256.234 182.017 L 255.235 181.932 L 255.224 181.93 L 254.232 181.791 L 254.221 181.79 L 253.237 181.599 L 253.226 181.596 L 252.253 181.355 L 252.243 181.353 L 251.284 181.065 L 251.274 181.061 L 250.33 180.725 L 250.321 180.722 L 249.395 180.34 L 249.385 180.335 L 248.48 179.905 L 248.47 179.9 L 247.589 179.422 L 247.578 179.416 L 246.726 178.889 L 246.715 178.882 L 245.897 178.303 L 245.886 178.294 L 245.112 177.659 L 245.099 177.648 L 244.377 176.954 L 244.364 176.939 L 243.711 176.181 L 243.696 176.162 L 243.135 175.333 L 243.12 175.307 L 242.683 174.409 L 242.67 174.375 L 242.394 173.417 L 242.387 173.386 L 242.297 172.69 Z M 223.149 173.528 L 222.175 173.68 L 221.208 173.871 L 221.208 173.872 L 220.232 174.086 L 220.229 174.086 L 219.25 174.283 L 219.241 174.285 L 218.255 174.444 L 218.243 174.445 L 217.249 174.547 L 217.231 174.548 L 216.233 174.561 L 216.204 174.56 L 215.215 174.435 L 215.175 174.426 L 214.232 174.115 L 214.216 174.109 L 213.318 173.731 L 212.409 173.603 L 211.478 173.767 L 210.546 174.076 L 209.629 174.448 L 208.73 174.853 L 207.829 175.284 L 206.938 175.727 L 206.048 176.18 L 205.163 176.639 L 204.276 177.1 L 204.274 177.101 L 203.384 177.554 L 203.383 177.554 L 202.489 177.999 L 202.486 178.001 L 201.586 178.435 L 201.584 178.436 L 200.679 178.86 L 200.676 178.861 L 199.765 179.271 L 199.761 179.273 L 198.842 179.664 L 198.836 179.666 L 197.904 180.027 L 197.888 180.033 L 197.425 180.172 L 198.154 180.34 L 199.123 180.539 L 200.101 180.722 L 201.086 180.887 L 201.086 180.888 L 202.067 181.035 L 202.067 181.034 L 203.058 181.166 L 203.267 181.19 L 203.119 180.399 L 203.228 180.174 L 204.102 179.715 L 204.137 179.7 L 205.084 179.403 L 205.088 179.402 L 206.035 179.127 L 206.98 178.817 L 207.909 178.479 L 208.829 178.117 L 209.739 177.731 L 210.633 177.32 L 211.529 176.889 L 211.538 176.885 L 212.452 176.497 L 212.463 176.493 L 213.399 176.156 L 213.407 176.153 L 214.355 175.854 L 214.362 175.852 L 215.319 175.586 L 215.325 175.585 L 216.291 175.349 L 216.298 175.347 L 217.271 175.145 L 217.279 175.143 L 218.259 174.979 L 218.266 174.978 L 219.252 174.847 L 219.255 174.847 L 221.229 174.613 L 222.216 174.495 L 222.258 174.494 L 223.224 174.571 L 223.415 174.813 L 223.273 175.743 L 223.205 175.868 L 222.468 176.526 L 222.458 176.534 L 221.676 177.148 L 221.67 177.153 L 220.866 177.737 L 220.848 177.749 L 219.99 178.247 L 219.973 178.255 L 219.074 178.677 L 219.064 178.682 L 218.143 179.057 L 218.135 179.06 L 217.2 179.397 L 217.194 179.399 L 216.249 179.707 L 216.243 179.709 L 215.289 179.987 L 215.283 179.989 L 214.32 180.239 L 214.314 180.24 L 213.345 180.461 L 213.339 180.462 L 212.364 180.654 L 212.359 180.655 L 211.38 180.826 L 211.378 180.827 L 210.397 180.988 L 210.394 180.988 L 209.411 181.136 L 209.409 181.136 L 208.424 181.271 L 208.42 181.272 L 207.433 181.392 L 207.429 181.392 L 206.524 181.484 L 207.023 181.515 L 208.016 181.554 L 209.009 181.573 L 209.999 181.565 L 210.992 181.53 L 211.985 181.472 L 212.98 181.394 L 212.98 181.395 L 213.967 181.301 L 214.959 181.186 L 215.935 181.048 L 216.896 180.87 L 217.689 180.547 L 218.161 179.783 L 218.23 179.715 L 219.078 179.193 L 219.124 179.172 L 220.076 178.868 L 220.093 178.863 L 221.066 178.639 L 221.076 178.637 L 222.059 178.459 L 222.065 178.458 L 223.054 178.311 L 223.059 178.31 L 224.05 178.185 L 224.053 178.185 L 225.046 178.076 L 225.049 178.076 L 226.043 177.982 L 227.024 177.89 L 228.002 177.729 L 228.962 177.5 L 229.913 177.217 L 230.847 176.891 L 231.757 176.528 L 231.757 176.527 L 232.667 176.114 L 233.536 175.667 L 234.399 175.164 L 235.232 174.63 L 235.235 174.628 L 236.084 174.101 L 236.089 174.098 L 236.846 173.658 L 235.926 173.779 L 234.943 173.923 L 233.957 174.081 L 232.97 174.238 L 232.964 174.239 L 231.973 174.367 L 231.964 174.368 L 230.969 174.455 L 230.958 174.455 L 229.96 174.488 L 229.945 174.488 L 228.947 174.45 L 228.924 174.448 L 227.938 174.3 L 227.9 174.291 L 226.961 173.967 L 226.954 173.964 L 226.043 173.611 L 225.101 173.442 L 224.142 173.436 Z M 208.037 169.17 L 208.031 169.175 L 207.236 169.779 L 207.23 169.783 L 206.411 170.356 L 206.402 170.362 L 205.556 170.893 L 205.542 170.901 L 204.658 171.366 L 204.619 171.382 L 203.673 171.657 L 202.809 172.051 L 202.047 172.637 L 201.339 173.328 L 200.702 174.057 L 200.093 174.849 L 200.09 174.852 L 199.467 175.633 L 199.457 175.646 L 198.774 176.375 L 198.746 176.399 L 197.947 176.998 L 197.897 177.026 L 196.967 177.385 L 196.918 177.398 L 195.933 177.526 L 195.9 177.527 L 194.903 177.498 L 194.885 177.497 L 193.893 177.383 L 193.884 177.382 L 192.897 177.227 L 192.892 177.226 L 191.91 177.044 L 191.904 177.043 L 190.927 176.833 L 190.921 176.831 L 190.825 176.808 L 191.252 177.013 L 191.342 177.096 L 191.828 177.914 L 192.547 178.499 L 193.413 178.928 L 194.328 179.286 L 195.272 179.596 L 196.006 179.808 L 195.929 179.625 L 196.144 178.679 L 196.23 178.552 L 197.052 177.989 L 197.071 177.978 L 197.95 177.504 L 197.961 177.499 L 198.865 177.075 L 198.867 177.073 L 199.777 176.66 L 200.625 176.192 L 201.469 175.656 L 202.278 175.087 L 203.059 174.49 L 203.831 173.856 L 204.571 173.207 L 205.297 172.52 L 205.987 171.81 L 206.644 171.069 L 207.29 170.313 L 207.933 169.55 L 208.567 168.781 L 208.671 168.651 Z M 188.562 176.417 L 189.349 176.617 L 189.975 176.599 L 189.951 176.593 L 189.941 176.591 L 188.984 176.308 L 188.982 176.307 L 188.451 176.144 Z M 184.627 175.169 L 184.441 175.469 L 184.298 175.764 L 184.235 176.006 L 184.374 175.83 L 184.559 175.531 L 184.702 175.236 L 184.765 174.994 Z M 93.775 4.824 L 91.916 4.865 L 90.06 4.94 L 88.206 5.054 L 86.351 5.215 L 86.104 5.244 L 86.444 5.256 L 88.305 5.31 L 93.891 5.46 L 95.752 5.511 L 97.614 5.561 L 97.752 5.617 L 98.654 6.461 L 98.685 6.732 L 98.544 6.823 L 96.743 7.115 L 96.724 7.117 L 94.866 7.247 L 93.009 7.377 L 91.15 7.507 L 89.293 7.637 L 87.435 7.767 L 85.577 7.896 L 83.719 8.026 L 81.861 8.155 L 76.287 8.545 L 74.429 8.674 L 72.639 8.922 L 70.928 9.576 L 69.223 10.326 L 65.813 11.824 L 62.403 13.324 L 58.993 14.822 L 57.288 15.572 L 55.585 16.325 L 53.888 17.085 L 52.197 17.856 L 52.197 17.857 L 50.508 18.642 L 48.827 19.441 L 47.158 20.255 L 45.495 21.094 L 43.943 21.916 L 44.377 21.781 L 46.116 21.126 L 47.821 20.411 L 49.521 19.651 L 51.221 18.889 L 51.223 18.888 L 52.929 18.14 L 52.93 18.14 L 54.641 17.406 L 54.643 17.405 L 56.36 16.684 L 56.361 16.683 L 58.084 15.977 L 58.086 15.977 L 59.815 15.283 L 59.816 15.282 L 61.551 14.604 L 61.553 14.603 L 63.293 13.939 L 63.295 13.939 L 65.04 13.29 L 65.042 13.289 L 66.794 12.657 L 66.796 12.656 L 68.555 12.043 L 68.557 12.043 L 70.323 11.45 L 70.326 11.449 L 72.1 10.882 L 72.103 10.881 L 73.885 10.342 L 73.889 10.34 L 75.682 9.836 L 75.688 9.835 L 77.494 9.38 L 77.502 9.378 L 79.324 8.996 L 79.338 8.994 L 81.181 8.74 L 81.193 8.738 L 83.049 8.589 L 83.052 8.589 L 84.911 8.469 L 84.946 8.47 L 86.698 8.649 L 86.887 8.845 L 86.808 9.023 L 85.573 10.006 L 85.496 10.044 L 83.697 10.525 L 83.696 10.526 L 81.912 10.989 L 80.918 11.486 L 81.024 12.92 L 80.862 13.14 L 79.048 13.562 L 79.027 13.566 L 77.18 13.801 L 77.167 13.802 L 75.31 13.93 L 73.477 14.109 L 71.675 14.441 L 70.012 15.169 L 68.384 16.051 L 68.375 16.056 L 66.696 16.86 L 66.687 16.864 L 64.971 17.586 L 64.965 17.588 L 63.229 18.263 L 63.225 18.265 L 61.475 18.901 L 61.47 18.902 L 59.705 19.499 L 59.7 19.501 L 57.92 20.047 L 57.91 20.05 L 56.107 20.511 L 56.092 20.514 L 54.277 20.838 L 52.557 21.471 L 50.843 22.199 L 49.147 22.958 L 47.46 23.738 L 45.78 24.533 L 44.101 25.34 L 42.429 26.156 L 40.76 26.981 L 39.094 27.814 L 37.434 28.654 L 35.775 29.501 L 34.122 30.354 L 32.471 31.216 L 30.825 32.085 L 29.185 32.963 L 27.547 33.85 L 25.919 34.746 L 25.919 34.747 L 24.294 35.658 L 24.294 35.657 L 22.682 36.584 L 21.08 37.529 L 19.473 38.471 L 19.472 38.472 L 17.862 39.408 L 17.861 39.408 L 16.246 40.335 L 16.245 40.336 L 14.624 41.254 L 14.622 41.255 L 12.994 42.159 L 12.992 42.16 L 11.355 43.048 L 11.352 43.05 L 9.7 43.911 L 9.694 43.914 L 8.015 44.717 L 7.981 44.73 L 6.249 45.213 L 5.986 44.969 L 6.321 43.298 L 6.39 43.179 L 7.798 41.973 L 7.809 41.964 L 9.301 40.849 L 9.306 40.846 L 10.827 39.771 L 10.83 39.769 L 12.372 38.724 L 12.376 38.721 L 13.94 37.711 L 13.946 37.708 L 15.542 36.749 L 15.56 36.739 L 17.185 35.974 L 18.046 34.68 L 18.068 34.653 L 19.342 33.303 L 19.361 33.285 L 20.793 32.095 L 20.797 32.091 L 22.263 30.943 L 22.266 30.941 L 23.75 29.815 L 23.752 29.814 L 25.247 28.704 L 25.248 28.703 L 26.754 27.606 L 26.756 27.605 L 28.271 26.522 L 28.272 26.521 L 29.795 25.45 L 29.797 25.449 L 31.332 24.393 L 31.334 24.391 L 32.882 23.356 L 32.886 23.353 L 34.458 22.355 L 34.478 22.344 L 36.144 21.523 L 36.159 21.517 L 37.888 20.827 L 39.619 20.14 L 41.338 19.429 L 43.055 18.708 L 44.769 17.979 L 46.479 17.247 L 48.188 16.509 L 49.896 15.768 L 51.604 15.023 L 53.309 14.276 L 55.013 13.525 L 56.716 12.772 L 58.418 12.016 L 60.118 11.256 L 61.815 10.492 L 63.511 9.723 L 65.202 8.946 L 65.448 8.831 L 64.756 9.022 L 62.972 9.546 L 61.195 10.09 L 59.419 10.65 L 57.649 11.222 L 55.893 11.82 L 54.143 12.458 L 52.415 13.13 L 50.693 13.838 L 50.693 13.837 L 48.989 14.573 L 47.294 15.334 L 45.607 16.123 L 43.933 16.932 L 42.269 17.763 L 40.618 18.614 L 38.973 19.486 L 37.339 20.376 L 35.716 21.28 L 35.716 21.281 L 34.101 22.206 L 32.494 23.147 L 32.494 23.146 L 30.899 24.102 L 29.313 25.075 L 27.738 26.064 L 26.172 27.069 L 24.618 28.088 L 23.073 29.125 L 21.538 30.177 L 20.018 31.245 L 18.507 32.333 L 17.012 33.435 L 15.527 34.559 L 14.063 35.7 L 12.61 36.865 L 11.179 38.048 L 9.764 39.259 L 8.374 40.491 L 7.005 41.751 L 5.676 43.033 L 4.403 44.375 L 3.426 45.765 L 4.051 46.85 L 5.784 46.938 L 7.633 46.84 L 9.473 46.662 L 11.319 46.442 L 13.166 46.197 L 13.166 46.198 L 15.009 45.937 L 16.852 45.67 L 18.695 45.401 L 20.538 45.134 L 22.382 44.868 L 24.225 44.603 L 26.069 44.338 L 27.912 44.074 L 29.756 43.811 L 31.6 43.549 L 33.444 43.288 L 35.289 43.028 L 37.13 42.768 L 38.969 42.492 L 40.807 42.193 L 40.807 42.194 L 42.635 41.872 L 42.635 41.871 L 44.464 41.516 L 46.27 41.097 L 48.07 40.635 L 48.262 40.682 L 49.203 41.525 L 49.259 41.759 L 48.582 43.483 L 48.058 45.241 L 47.875 47.061 L 47.853 48.913 L 47.926 50.757 L 48.059 52.615 L 48.198 54.472 L 48.198 54.477 L 48.29 56.337 L 48.29 56.348 L 48.281 58.21 L 48.28 58.231 L 48.084 60.08 L 48.079 60.109 L 47.627 61.909 L 47.618 61.936 L 46.929 63.663 L 46.923 63.677 L 45.354 66.905 L 45.932 67.604 L 47.686 67.549 L 49.545 67.448 L 51.375 67.265 L 53.16 66.94 L 54.647 65.934 L 54.816 65.904 L 56.53 66.328 L 56.674 66.453 L 57.243 67.865 L 57.219 68.066 L 56.215 69.474 L 56.082 69.559 L 55.186 69.725 L 56.698 69.515 L 56.791 69.522 L 58.431 70.043 L 58.577 70.227 L 58.725 72.083 L 58.716 72.163 L 58.164 73.932 L 58.153 73.96 L 57.347 75.636 L 57.337 75.654 L 56.373 77.246 L 56.363 77.261 L 55.271 78.767 L 55.26 78.781 L 54.037 80.182 L 54.02 80.199 L 52.651 81.455 L 52.632 81.471 L 51.12 82.556 L 49.769 83.518 L 50.176 84.225 L 51.922 84.297 L 51.926 84.297 L 53.785 84.413 L 53.816 84.417 L 55.635 84.81 L 55.742 84.87 L 56.976 86.145 L 57.035 86.295 L 57.002 87.947 L 56.951 88.081 L 55.756 89.464 L 55.69 89.515 L 54.024 90.338 L 53.968 90.356 L 52.134 90.68 L 52.131 90.681 L 50.774 90.901 L 51.492 92.196 L 51.505 92.225 L 52.135 93.921 L 53.072 95.404 L 54.554 96.401 L 56.214 97.214 L 57.917 97.922 L 59.657 98.509 L 61.451 98.921 L 63.28 99.131 L 65.117 99.163 L 66.966 99.077 L 68.823 98.928 L 70.66 98.734 L 72.467 98.455 L 73.802 97.815 L 73.021 96.819 L 71.456 95.889 L 71.436 95.876 L 69.949 94.754 L 69.919 94.726 L 68.679 93.342 L 68.65 93.301 L 67.781 91.668 L 67.761 91.613 L 67.381 89.815 L 67.377 89.753 L 67.531 87.922 L 67.551 87.849 L 68.326 86.225 L 68.483 86.108 L 69.984 85.869 L 70.227 86.065 L 70.336 87.905 L 70.336 87.918 L 70.329 89.757 L 70.69 91.498 L 71.86 92.791 L 73.4 93.768 L 75.016 94.694 L 75.022 94.699 L 76.602 95.685 L 76.621 95.698 L 78.083 96.846 L 78.122 96.886 L 79.21 98.361 L 79.246 98.439 L 79.648 100.185 L 79.649 100.276 L 79.261 102.083 L 79.243 102.134 L 78.406 103.797 L 78.396 103.815 L 77.398 105.387 L 77.393 105.394 L 76.335 106.927 L 75.287 108.464 L 74.357 110.02 L 74.034 111.733 L 74.773 113.346 L 75.629 115 L 75.652 115.11 L 75.544 116.903 L 75.694 117.518 L 76.024 116.988 L 76.065 116.94 L 77.384 115.799 L 77.441 115.764 L 79.14 115.051 L 80.709 114.097 L 82.162 112.97 L 83.503 111.71 L 84.738 110.341 L 85.867 108.872 L 86.866 107.334 L 87.734 105.7 L 88.428 103.999 L 88.898 102.235 L 89.125 100.414 L 89.026 98.607 L 88.443 96.909 L 87.382 95.449 L 86.023 94.238 L 84.498 93.196 L 82.906 92.272 L 81.255 91.41 L 79.607 90.542 L 79.599 90.538 L 77.983 89.613 L 77.969 89.603 L 76.437 88.552 L 76.346 88.383 L 76.321 86.927 L 76.573 86.717 L 78.372 87.087 L 78.405 87.096 L 80.145 87.759 L 80.153 87.763 L 81.863 88.501 L 81.872 88.505 L 83.545 89.322 L 83.556 89.328 L 85.178 90.244 L 85.189 90.25 L 86.755 91.256 L 86.764 91.263 L 88.273 92.355 L 88.283 92.362 L 89.726 93.538 L 89.736 93.547 L 91.098 94.816 L 91.111 94.829 L 92.36 96.209 L 92.376 96.229 L 93.443 97.753 L 93.469 97.803 L 94.04 99.405 L 95.373 99.383 L 95.527 99.446 L 96.778 100.729 L 98.179 101.854 L 99.687 102.529 L 100.353 101.515 L 100.721 99.733 L 100.729 99.706 L 101.348 97.95 L 101.354 97.935 L 102.108 96.233 L 102.116 96.215 L 103.023 94.59 L 103.073 94.531 L 104.464 93.377 L 104.803 93.492 L 105.162 95.072 L 105.148 95.206 L 104.386 96.879 L 103.898 98.647 L 103.725 100.463 L 103.779 102.292 L 104.008 104.139 L 104.367 105.937 L 104.841 107.726 L 105.409 109.489 L 106.058 111.225 L 106.777 112.935 L 107.565 114.622 L 108.405 116.268 L 109.303 117.897 L 110.222 119.517 L 110.225 119.523 L 111.089 121.173 L 111.092 121.178 L 111.918 122.848 L 111.918 122.849 L 112.683 124.432 L 113.989 124.692 L 115.572 123.947 L 116.801 122.682 L 117.397 121.012 L 117.463 119.21 L 117.151 117.413 L 116.563 115.681 L 115.759 114.032 L 114.778 112.478 L 113.636 111.018 L 112.376 109.679 L 111.077 108.346 L 111.056 108.32 L 109.988 106.802 L 109.952 106.711 L 109.687 104.887 L 109.688 104.817 L 110.041 102.995 L 110.048 102.969 L 110.63 101.2 L 110.633 101.193 L 111.279 99.446 L 111.279 99.444 L 111.943 97.705 L 111.946 97.698 L 112.676 95.985 L 112.869 95.857 L 114.336 95.849 L 114.547 96.055 L 114.583 97.89 L 114.579 97.936 L 114.212 99.76 L 114.206 99.784 L 113.621 101.55 L 113.612 101.573 L 112.83 103.251 L 112.332 104.903 L 113.106 106.434 L 114.331 107.799 L 114.33 107.8 L 115.622 109.131 L 115.624 109.133 L 116.901 110.489 L 116.91 110.499 L 118.096 111.934 L 118.109 111.951 L 119.147 113.496 L 119.163 113.524 L 119.95 115.207 L 119.964 115.249 L 120.275 116.617 L 120.448 115.85 L 120.789 115.735 L 122.2 116.925 L 122.222 116.947 L 123.452 118.342 L 123.459 118.35 L 124.617 119.809 L 124.62 119.813 L 125.741 121.3 L 125.743 121.303 L 126.84 122.808 L 126.842 122.81 L 127.919 124.33 L 127.92 124.332 L 128.978 125.864 L 128.979 125.866 L 130.022 127.41 L 130.024 127.412 L 131.049 128.966 L 131.05 128.968 L 132.059 130.534 L 132.06 130.536 L 133.051 132.113 L 133.053 132.115 L 134.023 133.705 L 134.024 133.708 L 134.97 135.312 L 135.921 136.909 L 136.897 138.491 L 137.898 140.058 L 137.899 140.058 L 138.921 141.608 L 139.97 143.147 L 141.039 144.669 L 142.127 146.174 L 142.128 146.173 L 143.242 147.665 L 144.373 149.137 L 145.527 150.595 L 146.701 152.034 L 147.899 153.456 L 149.118 154.859 L 150.361 156.242 L 151.627 157.603 L 152.919 158.938 L 154.238 160.246 L 154.239 160.245 L 155.591 161.526 L 156.971 162.767 L 158.381 163.964 L 159.842 165.118 L 161.335 166.198 L 162.902 167.203 L 164.507 168.104 L 166.161 168.948 L 167.838 169.757 L 169.525 170.535 L 171.223 171.286 L 171.223 171.285 L 172.939 172.008 L 172.939 172.009 L 174.661 172.7 L 174.661 172.699 L 176.398 173.36 L 177.927 173.895 L 177.182 172.685 L 176.275 171.657 L 174.545 171.166 L 174.499 171.148 L 172.875 170.237 L 172.866 170.231 L 171.29 169.239 L 171.285 169.236 L 169.735 168.203 L 169.732 168.201 L 168.199 167.143 L 168.198 167.142 L 166.677 166.067 L 166.675 166.066 L 165.164 164.977 L 165.163 164.976 L 163.66 163.877 L 163.659 163.876 L 162.161 162.768 L 162.16 162.767 L 160.669 161.652 L 159.181 160.531 L 159.18 160.531 L 157.696 159.406 L 157.694 159.405 L 156.22 158.267 L 156.214 158.262 L 154.783 157.072 L 154.769 157.059 L 153.451 155.742 L 153.441 155.73 L 152.226 154.319 L 152.219 154.311 L 151.08 152.837 L 151.074 152.83 L 149.996 151.312 L 149.992 151.306 L 148.966 149.752 L 148.963 149.747 L 147.982 148.164 L 147.98 148.16 L 147.036 146.555 L 147.033 146.551 L 146.124 144.925 L 146.122 144.921 L 145.244 143.279 L 145.243 143.276 L 144.392 141.619 L 144.39 141.616 L 143.564 139.947 L 143.563 139.945 L 142.759 138.265 L 142.758 138.262 L 141.976 136.572 L 141.975 136.57 L 141.211 134.871 L 140.452 133.171 L 139.67 131.483 L 138.865 129.809 L 138.035 128.149 L 137.178 126.495 L 136.297 124.862 L 135.387 123.237 L 134.454 121.629 L 133.494 120.038 L 132.506 118.463 L 131.492 116.905 L 130.451 115.365 L 129.382 113.845 L 128.288 112.346 L 127.163 110.862 L 126.014 109.402 L 124.838 107.962 L 123.637 106.549 L 122.405 105.152 L 121.176 103.753 L 121.174 103.75 L 119.966 102.332 L 119.963 102.329 L 118.786 100.886 L 118.772 100.867 L 117.768 99.303 L 117.742 99.133 L 118.093 97.857 L 118.311 97.703 L 120.167 97.838 L 120.212 97.846 L 121.997 98.378 L 123.544 98.835 L 124.192 97.408 L 124.289 95.59 L 124.356 93.732 L 124.357 93.72 L 124.533 91.867 L 124.534 91.853 L 124.832 90.015 L 124.835 90.002 L 125.254 88.188 L 125.259 88.169 L 125.847 86.402 L 125.868 86.358 L 126.84 84.77 L 126.853 84.751 L 127.995 83.281 L 128.001 83.273 L 129.211 81.858 L 129.215 81.854 L 130.461 80.47 L 130.463 80.467 L 131.734 79.106 L 131.736 79.104 L 133.027 77.761 L 133.029 77.759 L 134.336 76.433 L 134.338 76.431 L 135.662 75.12 L 135.664 75.119 L 137.002 73.824 L 137.003 73.822 L 138.355 72.541 L 138.356 72.54 L 139.717 71.268 L 142.439 68.726 L 143.801 67.455 L 146.523 64.913 L 147.726 63.789 L 146.836 62.889 L 145.155 62.22 L 143.407 61.594 L 141.638 61.01 L 141.638 61.009 L 139.867 60.444 L 139.867 60.445 L 138.089 59.89 L 136.31 59.345 L 134.531 58.804 L 132.748 58.269 L 130.963 57.738 L 129.177 57.209 L 127.392 56.684 L 125.604 56.163 L 123.815 55.645 L 122.026 55.13 L 120.235 54.618 L 118.443 54.109 L 116.652 53.602 L 116.652 53.603 L 114.859 53.1 L 113.065 52.6 L 111.27 52.104 L 109.474 51.612 L 107.678 51.124 L 105.88 50.643 L 104.081 50.168 L 104.081 50.169 L 102.277 49.702 L 100.475 49.249 L 98.665 48.812 L 98.665 48.811 L 96.853 48.402 L 96.853 48.403 L 95.032 48.012 L 93.211 47.641 L 93.211 47.642 L 91.383 47.286 L 89.553 46.945 L 87.721 46.617 L 85.89 46.301 L 85.89 46.302 L 84.052 46 L 82.213 45.71 L 80.374 45.432 L 78.531 45.169 L 76.69 44.919 L 76.69 44.92 L 74.842 44.687 L 72.995 44.472 L 71.872 44.357 L 72.527 44.573 L 74.309 45.056 L 76.121 45.469 L 77.936 45.837 L 79.768 46.168 L 79.771 46.168 L 81.6 46.519 L 81.609 46.521 L 83.419 46.956 L 83.431 46.96 L 85.214 47.496 L 85.225 47.499 L 86.975 48.133 L 86.987 48.138 L 88.696 48.878 L 88.71 48.885 L 90.359 49.748 L 90.378 49.759 L 91.926 50.796 L 91.965 50.83 L 93.21 52.212 L 93.262 52.322 L 93.526 54.094 L 93.524 54.166 L 93.162 55.975 L 93.152 56.01 L 92.482 57.745 L 92.476 57.76 L 91.674 59.44 L 91.669 59.45 L 90.779 61.086 L 90.775 61.093 L 89.819 62.691 L 89.814 62.698 L 88.8 64.26 L 88.797 64.265 L 87.732 65.793 L 87.727 65.799 L 86.608 67.287 L 86.603 67.294 L 85.428 68.74 L 85.423 68.746 L 84.191 70.142 L 84.184 70.15 L 82.884 71.483 L 82.878 71.488 L 81.53 72.773 L 81.525 72.778 L 80.132 74.014 L 80.098 74.039 L 78.512 74.964 L 78.277 74.948 L 77.353 74.231 L 77.311 73.943 L 78.394 72.427 L 78.405 72.413 L 79.613 70.996 L 79.618 70.99 L 80.879 69.62 L 80.884 69.615 L 82.19 68.286 L 83.443 66.919 L 84.59 65.484 L 85.679 63.974 L 86.714 62.434 L 87.703 60.869 L 88.656 59.269 L 89.555 57.646 L 90.377 56 L 90.975 54.341 L 90.479 52.993 L 88.965 52.077 L 87.296 51.311 L 85.572 50.636 L 83.807 50.046 L 82.033 49.568 L 80.22 49.229 L 79.656 49.178 L 80.402 49.588 L 80.422 49.6 L 81.943 50.669 L 81.963 50.685 L 83.342 51.933 L 83.361 51.953 L 84.565 53.373 L 84.586 53.401 L 85.542 55 L 85.569 55.075 L 85.855 56.904 L 85.845 57.008 L 85.231 58.709 L 85.207 58.757 L 84.16 60.29 L 84.146 60.308 L 82.934 61.72 L 82.923 61.731 L 81.612 63.053 L 81.603 63.062 L 80.21 64.296 L 80.198 64.306 L 78.724 65.442 L 78.709 65.453 L 77.137 66.449 L 77.108 66.464 L 75.399 67.204 L 75.366 67.215 L 73.56 67.668 L 71.765 68.15 L 69.978 68.654 L 69.978 68.655 L 68.193 69.183 L 68.191 69.183 L 66.4 69.696 L 66.279 69.695 L 64.721 69.21 L 64.617 68.881 L 65.585 67.624 L 65.661 67.562 L 67.336 66.756 L 67.355 66.748 L 69.104 66.109 L 69.115 66.106 L 70.897 65.567 L 70.903 65.565 L 72.695 65.084 L 73.994 64.641 L 73.228 64.676 L 73.155 64.667 L 72.329 64.41 L 72.242 64.356 L 71.641 63.744 L 71.581 63.606 L 71.544 62.741 L 71.574 62.623 L 72.026 61.88 L 72.087 61.816 L 72.803 61.324 L 72.898 61.288 L 73.76 61.189 L 73.877 61.209 L 74.658 61.593 L 74.728 61.649 L 75.276 62.322 L 75.319 62.411 L 75.5 63.25 L 75.477 63.397 L 75.237 63.823 L 75.708 63.437 L 76.452 61.857 L 76.553 61.757 L 78.235 60.967 L 78.28 60.951 L 80.052 60.575 L 81.477 59.518 L 82.489 58.055 L 82.89 56.356 L 82.44 54.684 L 81.306 53.33 L 79.801 52.327 L 78.125 51.569 L 76.383 50.975 L 74.596 50.49 L 72.791 50.081 L 70.963 49.725 L 69.135 49.367 L 69.126 49.365 L 67.315 48.932 L 67.305 48.929 L 65.518 48.404 L 65.504 48.399 L 63.758 47.754 L 63.739 47.746 L 62.067 46.933 L 62.035 46.914 L 60.542 45.823 L 60.489 45.766 L 59.533 44.273 L 59.5 44.155 L 59.542 42.338 L 59.609 42.189 L 60.976 40.923 L 61.03 40.886 L 62.712 40.1 L 62.739 40.09 L 64.517 39.544 L 64.535 39.539 L 66.355 39.152 L 66.355 39.153 L 68.162 38.751 L 69.959 38.263 L 71.734 37.73 L 71.734 37.729 L 73.512 37.174 L 73.512 37.175 L 75.284 36.608 L 77.054 36.031 L 78.821 35.445 L 80.587 34.852 L 82.347 34.252 L 84.107 33.642 L 84.107 33.643 L 85.86 33.025 L 85.86 33.024 L 87.611 32.39 L 89.344 31.737 L 90.916 31.071 L 90.747 29.423 L 90.343 27.618 L 89.903 25.812 L 89.463 24.003 L 89.46 23.993 L 89.109 22.164 L 89.107 22.149 L 88.884 20.3 L 88.883 20.28 L 88.839 18.42 L 88.84 18.392 L 89.04 16.546 L 89.047 16.511 L 89.559 14.73 L 89.574 14.691 L 90.426 13.05 L 90.45 13.013 L 91.627 11.58 L 91.655 11.552 L 93.082 10.362 L 93.108 10.344 L 94.701 9.379 L 94.722 9.368 L 96.414 8.591 L 96.43 8.584 L 98.18 7.947 L 98.191 7.944 L 99.974 7.407 L 99.983 7.404 L 101.788 6.943 L 101.795 6.942 L 103.613 6.541 L 103.618 6.539 L 105.447 6.186 L 105.45 6.186 L 107.284 5.862 L 107.286 5.862 L 109.112 5.552 L 109.112 5.551 L 109.14 5.545 L 108.624 5.496 L 106.774 5.32 L 106.774 5.321 L 104.918 5.17 L 103.063 5.046 L 101.206 4.948 L 99.348 4.877 L 97.49 4.832 L 95.631 4.814 Z M 230.686 165.572 L 230.029 166.28 L 229.358 167.004 L 228.688 167.729 L 228.058 168.434 L 228.03 168.501 L 228.584 168.379 L 228.802 168.464 L 229.31 169.193 L 229.337 169.38 L 229.04 170.27 L 229.012 170.324 L 228.473 171.089 L 228.361 171.805 L 229.042 172.157 L 229.872 172.133 L 230.525 171.592 L 230.913 170.766 L 231.143 169.841 L 231.26 168.872 L 231.293 167.904 L 231.274 166.941 L 231.194 165.973 L 231.033 165.334 Z M 224.236 162.457 L 224.205 162.526 L 223.645 163.354 L 223.636 163.367 L 223.014 164.151 L 223.008 164.157 L 222.354 164.915 L 222.35 164.92 L 221.673 165.658 L 221.67 165.662 L 220.977 166.384 L 220.263 167.098 L 219.541 167.791 L 219.537 167.794 L 218.8 168.471 L 218.797 168.474 L 218.044 169.133 L 218.038 169.138 L 217.262 169.77 L 217.253 169.777 L 216.444 170.366 L 216.419 170.382 L 215.629 170.804 L 215.604 170.912 L 216.344 171.154 L 217.301 171.229 L 218.267 171.16 L 219.236 170.975 L 220.163 170.695 L 221.065 170.316 L 221.921 169.84 L 222.716 169.272 L 223.505 168.657 L 223.506 168.656 L 224.299 168.045 L 224.3 168.045 L 225.097 167.439 L 225.098 167.438 L 225.899 166.837 L 226.702 166.24 L 226.704 166.238 L 227.512 165.647 L 227.513 165.646 L 228.326 165.061 L 229.732 164.056 L 229.408 163.788 L 228.503 163.448 L 228.501 163.447 L 227.568 163.085 L 227.563 163.083 L 226.639 162.697 L 226.634 162.695 L 225.72 162.287 L 225.715 162.285 L 224.826 161.857 L 224.409 161.738 Z M 221.682 161.946 L 221.668 161.951 L 220.736 162.279 L 220.705 162.288 L 219.733 162.469 L 219.708 162.472 L 218.723 162.54 L 218.697 162.54 L 217.711 162.482 L 217.7 162.481 L 216.746 162.378 L 215.881 162.528 L 215.256 163.153 L 214.789 163.99 L 214.383 164.873 L 214.381 164.877 L 213.948 165.765 L 213.943 165.775 L 213.465 166.64 L 213.461 166.646 L 212.953 167.494 L 212.95 167.499 L 212.417 168.331 L 212.414 168.337 L 211.857 169.154 L 211.853 169.159 L 211.27 169.957 L 211.265 169.963 L 210.957 170.355 L 211.112 170.232 L 211.876 169.611 L 211.893 169.599 L 212.716 169.052 L 212.757 169.03 L 213.681 168.68 L 213.765 168.667 L 214.709 168.708 L 215.567 168.431 L 216.331 167.86 L 217.062 167.22 L 217.766 166.541 L 218.448 165.835 L 219.106 165.107 L 219.753 164.365 L 219.754 164.364 L 220.407 163.623 L 220.409 163.62 L 221.075 162.889 L 221.078 162.886 L 221.758 162.168 L 221.763 162.163 L 222.216 161.715 Z M 145.225 136.242 L 145.385 137.185 L 145.671 138.146 L 146.022 139.061 L 146.44 139.973 L 146.892 140.873 L 147.363 141.763 L 147.847 142.648 L 148.34 143.528 L 148.84 144.404 L 149.348 145.275 L 149.861 146.145 L 150.38 147.01 L 150.381 147.009 L 150.906 147.871 L 151.438 148.729 L 151.975 149.582 L 152.521 150.43 L 153.076 151.27 L 153.302 151.599 L 153.177 151.027 L 152.945 150.048 L 152.456 148.09 L 152.455 148.087 L 152.224 147.103 L 152.223 147.1 L 152.008 146.112 L 152.008 146.109 L 151.808 145.119 L 151.807 145.115 L 151.626 144.12 L 151.625 144.115 L 151.466 143.117 L 151.465 143.109 L 151.344 142.106 L 151.344 142.101 L 151.251 141.123 L 150.936 140.21 L 150.438 139.381 L 149.835 138.583 L 149.17 137.838 L 148.462 137.146 L 147.708 136.506 L 146.899 135.936 L 146.06 135.503 L 145.33 135.477 Z M 93.895 102.105 L 93.87 103.049 L 93.902 104.028 L 93.978 105.021 L 94.088 106.009 L 94.229 106.996 L 94.396 107.979 L 94.397 107.979 L 94.586 108.959 L 94.794 109.935 L 95.02 110.908 L 95.262 111.877 L 95.52 112.841 L 95.793 113.803 L 95.794 113.803 L 96.081 114.76 L 96.382 115.713 L 96.695 116.66 L 97.023 117.604 L 97.363 118.543 L 97.717 119.478 L 98.083 120.408 L 98.464 121.335 L 98.463 121.335 L 98.855 122.25 L 99.262 123.162 L 99.685 124.071 L 100.12 124.969 L 100.564 125.867 L 100.564 125.868 L 101.004 126.769 L 101.005 126.77 L 101.44 127.672 L 101.44 127.673 L 101.87 128.579 L 101.871 128.58 L 102.295 129.488 L 102.295 129.489 L 102.712 130.4 L 102.713 130.402 L 103.123 131.316 L 103.124 131.318 L 103.524 132.237 L 103.525 132.24 L 103.913 133.164 L 103.915 133.169 L 104.279 134.103 L 104.283 134.114 L 104.572 135.006 L 105.039 135.383 L 105.829 135.032 L 106.687 134.56 L 107.523 134.035 L 108.313 133.445 L 108.981 132.796 L 109.237 131.974 L 109.125 131.033 L 108.909 130.069 L 108.638 129.126 L 108.322 128.175 L 107.976 127.242 L 107.602 126.326 L 107.198 125.409 L 107.199 125.409 L 106.777 124.511 L 106.331 123.62 L 105.861 122.735 L 105.862 122.735 L 105.373 121.865 L 104.863 121.007 L 104.333 120.164 L 103.782 119.333 L 103.221 118.505 L 103.219 118.502 L 102.669 117.664 L 102.666 117.66 L 102.136 116.81 L 102.132 116.803 L 101.638 115.931 L 101.632 115.92 L 101.19 115.021 L 101.183 115.004 L 100.823 114.069 L 100.815 114.044 L 100.573 113.072 L 100.568 113.043 L 100.462 112.047 L 100.461 112.022 L 100.474 111.02 L 100.475 111.003 L 100.568 110.005 L 100.568 109.999 L 100.691 109.005 L 100.781 108.024 L 100.735 107.092 L 100.318 106.296 L 99.599 105.698 L 98.75 105.192 L 97.874 104.727 L 96.989 104.256 L 96.981 104.251 L 96.117 103.743 L 96.106 103.736 L 95.276 103.176 L 95.262 103.166 L 94.483 102.539 L 94.461 102.518 L 93.97 101.987 Z M 126.538 105.171 L 126.015 105.404 L 126.45 105.974 L 127.152 106.659 L 127.915 107.27 L 128.733 107.742 L 129.672 107.912 L 129.712 107.923 L 130.636 108.288 L 130.661 108.3 L 131.538 108.788 L 131.545 108.792 L 132.404 109.312 L 132.408 109.314 L 133.256 109.852 L 133.258 109.854 L 134.097 110.405 L 134.1 110.407 L 134.933 110.969 L 134.934 110.97 L 135.761 111.539 L 135.763 111.54 L 136.583 112.119 L 136.585 112.12 L 137.401 112.705 L 137.402 112.706 L 138.215 113.296 L 138.216 113.296 L 139.025 113.89 L 139.026 113.892 L 139.83 114.494 L 139.832 114.495 L 140.627 115.108 L 140.631 115.111 L 141.413 115.741 L 141.418 115.745 L 142.188 116.405 L 142.921 117.09 L 142.929 117.098 L 143.625 117.822 L 143.634 117.832 L 144.281 118.599 L 144.29 118.61 L 144.884 119.418 L 144.891 119.429 L 145.435 120.273 L 145.44 120.282 L 145.94 121.153 L 145.944 121.161 L 146.409 122.051 L 146.412 122.056 L 146.852 122.958 L 146.854 122.962 L 147.276 123.873 L 147.277 123.875 L 147.688 124.792 L 147.689 124.793 L 148.093 125.712 L 148.493 126.633 L 148.895 127.553 L 149.302 128.469 L 149.715 129.384 L 150.133 130.293 L 150.56 131.2 L 150.996 132.101 L 151.443 132.99 L 151.867 133.769 L 152.461 133.8 L 153.174 133.23 L 153.927 132.565 L 153.933 132.56 L 154.71 131.925 L 154.728 131.912 L 155.568 131.365 L 155.587 131.354 L 156.48 130.897 L 156.496 130.89 L 157.423 130.507 L 157.436 130.502 L 158.388 130.183 L 158.4 130.179 L 159.369 129.918 L 159.381 129.915 L 160.364 129.71 L 160.376 129.708 L 161.368 129.558 L 161.375 129.557 L 162.373 129.441 L 163.371 129.328 L 164.046 129.252 L 164.008 129.187 L 163.199 128.683 L 162.346 128.152 L 161.493 127.622 L 160.64 127.093 L 159.787 126.57 L 159.787 126.571 L 158.926 126.057 L 158.06 125.551 L 158.06 125.55 L 157.196 125.063 L 156.303 124.605 L 156.3 124.604 L 155.417 124.133 L 155.385 124.111 L 154.604 123.487 L 154.574 123.458 L 153.928 122.69 L 153.926 122.688 L 153.306 121.926 L 152.57 121.319 L 151.72 120.895 L 150.771 120.685 L 150.766 120.684 L 149.799 120.44 L 149.756 120.424 L 148.862 119.98 L 148.827 119.958 L 148.036 119.345 L 148.009 119.32 L 147.337 118.577 L 147.324 118.561 L 146.733 117.766 L 146.058 117.056 L 145.316 116.416 L 144.518 115.807 L 143.702 115.237 L 142.868 114.69 L 142.022 114.161 L 142.022 114.162 L 141.162 113.644 L 140.299 113.139 L 139.43 112.643 L 138.554 112.152 L 138.554 112.151 L 137.677 111.669 L 136.796 111.19 L 135.912 110.715 L 135.025 110.243 L 134.139 109.776 L 133.249 109.311 L 132.36 108.843 L 132.357 108.842 L 131.477 108.36 L 131.472 108.357 L 130.604 107.851 L 130.598 107.847 L 129.749 107.311 L 129.738 107.304 L 128.924 106.718 L 128.882 106.677 L 128.28 105.914 L 128.235 105.77 L 128.274 105.172 L 127.493 105.149 Z M 130.935 111.399 L 131.508 112.199 L 132.106 112.992 L 132.717 113.779 L 132.72 113.783 L 133.312 114.584 L 133.316 114.589 L 133.886 115.407 L 133.888 115.41 L 134.442 116.238 L 134.444 116.241 L 134.986 117.078 L 134.987 117.079 L 135.52 117.92 L 135.521 117.922 L 136.046 118.769 L 136.047 118.771 L 136.563 119.623 L 136.564 119.624 L 137.074 120.481 L 137.075 120.483 L 137.577 121.343 L 137.578 121.344 L 138.073 122.209 L 138.073 122.211 L 138.561 123.08 L 138.562 123.082 L 139.042 123.955 L 139.043 123.957 L 139.513 124.835 L 139.514 124.836 L 139.976 125.718 L 140.444 126.598 L 140.443 126.598 L 140.921 127.466 L 141.415 128.331 L 141.922 129.177 L 141.923 129.177 L 142.457 130.018 L 142.456 130.018 L 143.01 130.824 L 143.606 131.598 L 144.27 132.244 L 145.116 132.489 L 146.083 132.579 L 146.117 132.585 L 147.077 132.841 L 147.104 132.85 L 148.021 133.234 L 148.028 133.237 L 148.688 133.54 L 148.722 133.361 L 148.361 132.501 L 147.958 131.596 L 147.541 130.693 L 147.113 129.797 L 146.677 128.902 L 146.233 128.013 L 145.777 127.129 L 145.307 126.256 L 144.823 125.393 L 144.822 125.393 L 144.32 124.533 L 143.801 123.688 L 143.264 122.867 L 142.691 122.071 L 142.022 121.356 L 141.297 120.702 L 141.271 120.674 L 140.671 119.89 L 140.646 119.848 L 140.248 118.957 L 139.724 118.161 L 139.035 117.471 L 138.312 116.808 L 137.56 116.154 L 136.8 115.515 L 136.032 114.889 L 135.252 114.27 L 134.468 113.663 L 133.672 113.063 L 132.874 112.478 L 132.061 111.901 L 131.246 111.347 L 130.645 110.966 Z M 128.382 102.005 L 128.382 102.004 L 129.364 102.19 L 130.347 102.369 L 131.33 102.541 L 132.315 102.71 L 133.3 102.881 L 133.302 102.881 L 134.285 103.062 L 134.287 103.063 L 135.268 103.255 L 135.27 103.255 L 136.249 103.456 L 136.251 103.456 L 137.229 103.665 L 137.231 103.666 L 138.206 103.885 L 138.208 103.885 L 139.182 104.112 L 139.184 104.113 L 140.155 104.35 L 140.157 104.35 L 141.126 104.597 L 141.129 104.598 L 142.094 104.858 L 142.096 104.859 L 143.058 105.131 L 143.062 105.132 L 144.019 105.422 L 144.024 105.423 L 144.973 105.736 L 144.981 105.739 L 145.917 106.091 L 145.927 106.095 L 146.842 106.495 L 146.844 106.496 L 147.757 106.904 L 148.669 107.313 L 149.582 107.721 L 149.607 107.734 L 150.445 108.254 L 150.536 108.491 L 150.318 109.248 L 150.121 109.4 L 149.136 109.425 L 149.197 109.435 L 150.076 109.733 L 150.1 109.743 L 150.935 110.151 L 150.959 110.165 L 151.733 110.677 L 151.796 110.742 L 152.26 111.498 L 152.277 111.684 L 151.979 112.451 L 151.781 112.585 L 150.869 112.576 L 150.803 112.565 L 149.924 112.267 L 149.9 112.257 L 149.065 111.849 L 149.041 111.835 L 148.267 111.323 L 148.204 111.258 L 147.74 110.502 L 147.723 110.316 L 148.021 109.549 L 148.219 109.415 L 149.06 109.423 L 148.121 109.397 L 147.122 109.37 L 146.123 109.342 L 146.122 109.342 L 145.123 109.308 L 145.117 109.308 L 144.119 109.247 L 144.112 109.246 L 143.117 109.153 L 143.109 109.152 L 142.118 109.017 L 142.104 109.015 L 141.125 108.815 L 141.053 108.786 L 140.233 108.258 L 140.143 108.133 L 139.947 107.362 L 139.505 107.031 L 138.589 106.756 L 137.622 106.504 L 136.653 106.282 L 135.683 106.083 L 134.703 105.903 L 133.717 105.739 L 133.717 105.738 L 132.736 105.594 L 131.745 105.465 L 131.552 105.443 L 131.577 105.454 L 131.584 105.457 L 132.486 105.887 L 132.49 105.889 L 133.382 106.339 L 133.384 106.341 L 134.27 106.804 L 134.273 106.805 L 135.154 107.279 L 135.155 107.28 L 136.031 107.761 L 136.033 107.761 L 136.905 108.25 L 136.906 108.251 L 137.775 108.745 L 137.776 108.746 L 138.641 109.247 L 139.504 109.751 L 139.506 109.752 L 140.366 110.261 L 140.367 110.262 L 141.225 110.776 L 141.226 110.776 L 142.081 111.294 L 142.934 111.815 L 142.935 111.816 L 143.786 112.341 L 144.634 112.869 L 144.636 112.87 L 145.482 113.403 L 146.327 113.938 L 146.329 113.939 L 147.17 114.479 L 148.009 115.022 L 148.01 115.023 L 148.848 115.569 L 148.849 115.569 L 149.683 116.119 L 149.684 116.12 L 150.516 116.675 L 151.345 117.233 L 151.347 117.234 L 152.172 117.798 L 152.995 118.365 L 152.997 118.367 L 153.816 118.941 L 153.817 118.941 L 154.632 119.519 L 154.633 119.521 L 155.443 120.107 L 155.444 120.107 L 156.25 120.698 L 156.252 120.7 L 157.053 121.299 L 157.852 121.899 L 158.653 122.492 L 159.458 123.08 L 160.27 123.663 L 161.084 124.237 L 161.902 124.802 L 162.73 125.354 L 163.563 125.883 L 164.165 126.163 L 164.332 125.442 L 164.545 124.47 L 164.548 124.461 L 164.805 123.495 L 164.815 123.466 L 165.208 122.553 L 165.225 122.521 L 165.769 121.686 L 165.785 121.664 L 166.435 120.906 L 166.45 120.89 L 167.176 120.204 L 167.191 120.192 L 167.975 119.573 L 167.988 119.563 L 168.818 119.007 L 168.832 118.999 L 169.702 118.508 L 169.716 118.5 L 170.622 118.078 L 170.638 118.072 L 171.575 117.726 L 171.593 117.72 L 172.499 117.477 L 171.862 117.203 L 170.932 116.837 L 169.999 116.491 L 169.059 116.16 L 168.116 115.827 L 168.112 115.826 L 167.176 115.476 L 167.173 115.475 L 166.243 115.109 L 166.24 115.108 L 165.315 114.727 L 165.312 114.725 L 164.393 114.332 L 164.391 114.331 L 163.477 113.927 L 163.475 113.927 L 162.565 113.513 L 162.563 113.512 L 161.657 113.09 L 161.655 113.089 L 160.753 112.657 L 160.751 112.656 L 159.854 112.216 L 159.852 112.215 L 158.959 111.765 L 158.957 111.764 L 158.07 111.304 L 158.068 111.303 L 157.185 110.833 L 157.183 110.832 L 156.306 110.352 L 156.303 110.35 L 155.434 109.856 L 155.431 109.854 L 154.571 109.344 L 154.568 109.343 L 153.715 108.822 L 152.861 108.304 L 152.861 108.303 L 152.002 107.798 L 151.139 107.311 L 151.139 107.312 L 150.256 106.843 L 149.373 106.405 L 148.463 105.992 L 147.545 105.615 L 147.545 105.614 L 146.622 105.273 L 145.679 104.962 L 144.72 104.679 L 144.72 104.678 L 143.764 104.426 L 143.764 104.427 L 142.797 104.195 L 141.82 103.983 L 141.82 103.982 L 140.847 103.788 L 139.864 103.606 L 138.883 103.436 L 138.883 103.437 L 137.896 103.275 L 136.912 103.121 L 135.925 102.975 L 134.935 102.833 L 133.948 102.694 L 133.948 102.695 L 132.959 102.562 L 131.968 102.431 L 130.976 102.302 L 129.986 102.175 L 128.994 102.05 L 128.002 101.926 L 127.961 101.921 Z M 117.039 105.981 L 117.843 106.571 L 117.857 106.582 L 118.611 107.235 L 118.616 107.24 L 119.346 107.919 L 119.349 107.922 L 120.065 108.616 L 120.068 108.618 L 120.774 109.323 L 120.776 109.325 L 121.472 110.039 L 121.473 110.041 L 122.162 110.762 L 122.164 110.763 L 122.845 111.492 L 122.846 111.494 L 123.519 112.23 L 123.521 112.232 L 124.186 112.975 L 124.187 112.976 L 124.844 113.727 L 124.847 113.73 L 125.492 114.491 L 125.494 114.494 L 126.125 115.266 L 126.129 115.271 L 126.736 116.062 L 126.743 116.072 L 127.303 116.897 L 127.331 116.955 L 127.614 117.907 L 127.614 118.027 L 127.345 118.937 L 127.274 119.042 L 126.547 119.621 L 126.264 119.601 L 125.601 118.907 L 125.571 118.867 L 125.08 118.017 L 124.502 117.213 L 123.876 116.455 L 123.225 115.706 L 122.562 114.97 L 121.885 114.237 L 121.886 114.236 L 121.203 113.513 L 120.513 112.797 L 119.819 112.08 L 119.817 112.079 L 119.13 111.356 L 119.128 111.353 L 118.453 110.619 L 118.451 110.617 L 117.786 109.874 L 117.783 109.871 L 117.134 109.114 L 117.131 109.109 L 116.503 108.334 L 116.495 108.324 L 115.915 107.513 L 115.876 107.389 L 115.886 106.465 L 116.02 106.271 L 116.839 105.955 Z M 102.992 111.434 L 103.259 112.355 L 103.612 113.261 L 104.01 114.167 L 104.436 115.059 L 104.883 115.942 L 105.348 116.817 L 105.828 117.682 L 106.325 118.539 L 106.429 118.712 L 106.327 118.4 L 106.322 118.38 L 106.107 117.431 L 105.772 116.505 L 105.394 115.603 L 104.984 114.698 L 104.552 113.809 L 104.101 112.932 L 103.632 112.055 L 103.156 111.214 L 102.988 111.029 Z M 154.534 110.189 L 154.545 110.193 L 155.48 110.56 L 155.484 110.562 L 156.412 110.949 L 156.415 110.95 L 157.336 111.35 L 157.338 111.351 L 158.256 111.761 L 158.258 111.762 L 159.171 112.181 L 159.173 112.182 L 160.082 112.61 L 160.083 112.611 L 160.988 113.048 L 160.991 113.049 L 161.89 113.499 L 161.894 113.501 L 162.783 113.968 L 162.791 113.972 L 163.66 114.476 L 163.698 114.505 L 164.429 115.193 L 164.494 115.367 L 164.413 116.177 L 164.249 116.362 L 163.298 116.568 L 163.194 116.564 L 162.234 116.281 L 162.216 116.275 L 161.282 115.905 L 161.274 115.902 L 160.355 115.497 L 160.351 115.494 L 159.441 115.067 L 159.437 115.066 L 158.535 114.624 L 158.533 114.623 L 157.637 114.167 L 157.634 114.165 L 156.745 113.698 L 156.743 113.697 L 155.86 113.217 L 155.857 113.215 L 154.981 112.722 L 154.977 112.72 L 154.113 112.209 L 154.106 112.205 L 153.26 111.662 L 153.193 111.592 L 152.707 110.769 L 152.744 110.509 L 153.371 109.92 L 153.581 109.873 Z M 61.475 102.217 L 60.481 102.257 L 59.514 102.354 L 58.624 102.595 L 58.018 103.182 L 57.795 104.064 L 57.747 105.029 L 57.791 106.001 L 57.911 106.99 L 58.085 107.954 L 58.314 108.927 L 58.585 109.874 L 58.9 110.807 L 59.26 111.739 L 59.657 112.635 L 60.1 113.518 L 60.589 114.379 L 61.122 115.224 L 61.673 116.026 L 62.116 116.565 L 62.189 116.441 L 62.048 115.528 L 62.046 115.511 L 61.973 114.514 L 61.974 114.474 L 62.092 113.482 L 62.097 113.454 L 62.35 112.488 L 62.357 112.466 L 62.712 111.532 L 62.719 111.517 L 63.147 110.615 L 63.153 110.603 L 63.637 109.728 L 63.642 109.72 L 64.166 108.869 L 64.169 108.863 L 64.719 108.029 L 65.271 107.195 L 65.805 106.355 L 66.312 105.502 L 66.764 104.638 L 67.108 103.764 L 67.035 102.964 L 66.355 102.508 L 65.435 102.322 L 64.448 102.241 L 63.459 102.208 L 62.468 102.204 Z M 54.536 72.783 L 53.585 72.974 L 52.634 73.252 L 51.699 73.587 L 50.791 73.962 L 49.889 74.377 L 48.995 74.828 L 48.995 74.827 L 48.131 75.303 L 47.275 75.81 L 46.431 76.347 L 45.611 76.908 L 44.808 77.496 L 44.016 78.1 L 44.009 78.105 L 43.19 78.679 L 43.177 78.688 L 42.317 79.202 L 42.291 79.215 L 41.37 79.604 L 41.301 79.62 L 40.312 79.681 L 40.204 79.659 L 39.361 79.234 L 39.277 79.156 L 38.758 78.313 L 38.729 78.232 L 38.591 77.241 L 38.589 77.207 L 38.614 76.207 L 38.615 76.19 L 38.719 75.194 L 38.72 75.185 L 38.869 74.196 L 38.869 74.195 L 39.014 73.261 L 38.826 73.519 L 38.236 74.327 L 38.235 74.328 L 37.64 75.133 L 37.637 75.138 L 37.019 75.926 L 37.014 75.931 L 36.371 76.697 L 36.365 76.704 L 35.689 77.443 L 35.678 77.454 L 34.95 78.14 L 34.881 78.183 L 33.957 78.538 L 33.815 78.542 L 32.943 78.25 L 32.822 78.144 L 32.379 77.254 L 32.357 77.148 L 32.41 76.237 L 32.004 76.663 L 31.655 77.426 L 31.938 78.283 L 31.948 78.345 L 31.968 79.298 L 31.952 79.383 L 31.566 80.302 L 31.552 80.329 L 31.037 81.187 L 31.03 81.199 L 30.46 82.022 L 30.455 82.029 L 29.853 82.828 L 29.85 82.832 L 29.228 83.616 L 29.225 83.619 L 28.588 84.391 L 28.586 84.394 L 27.936 85.156 L 27.933 85.159 L 27.269 85.908 L 27.267 85.911 L 26.588 86.646 L 26.584 86.65 L 25.887 87.368 L 25.882 87.372 L 25.162 88.068 L 25.155 88.075 L 24.406 88.738 L 24.392 88.749 L 23.588 89.342 L 23.515 89.377 L 22.548 89.625 L 22.34 89.562 L 21.762 88.922 L 21.716 88.721 L 22.003 87.762 L 22.021 87.72 L 22.506 86.845 L 22.515 86.831 L 23.068 85.997 L 23.08 85.98 L 23.712 85.205 L 23.748 85.17 L 24.532 84.575 L 25.185 83.909 L 25.535 83.045 L 25.666 82.172 L 25.196 81.514 L 25.172 81.471 L 24.82 80.599 L 24.81 80.472 L 25.029 79.528 L 25.107 79.408 L 25.905 78.807 L 26.003 78.767 L 26.986 78.631 L 27.027 78.629 L 27.734 78.669 L 27.756 77.888 L 27.761 77.846 L 27.987 76.872 L 27.993 76.851 L 28.32 75.906 L 28.327 75.89 L 28.733 74.975 L 28.735 74.97 L 29.155 74.079 L 29.462 73.272 L 29.385 73.195 L 28.804 73.722 L 28.149 74.464 L 27.545 75.245 L 26.981 76.049 L 26.44 76.892 L 25.936 77.746 L 25.468 78.613 L 25.027 79.511 L 24.632 80.42 L 24.631 80.422 L 24.224 81.336 L 24.22 81.344 L 23.773 82.24 L 23.77 82.247 L 23.291 83.126 L 23.287 83.132 L 22.78 83.995 L 22.777 84 L 22.244 84.847 L 22.24 84.853 L 21.679 85.681 L 21.674 85.688 L 21.077 86.492 L 21.074 86.497 L 20.458 87.285 L 19.873 88.088 L 19.37 88.91 L 18.98 89.796 L 18.805 90.717 L 18.919 91.653 L 19.25 92.558 L 19.707 93.424 L 20.188 94.3 L 20.202 94.33 L 20.536 95.266 L 20.546 95.367 L 20.404 96.357 L 20.361 96.457 L 19.746 97.235 L 19.718 97.265 L 18.959 97.913 L 18.403 98.435 L 18.476 98.502 L 19.053 97.949 L 19.192 97.891 L 20.081 97.861 L 20.229 97.915 L 20.96 98.579 L 21.027 98.701 L 21.181 99.643 L 21.29 99.86 L 21.416 99.68 L 21.343 98.773 L 21.37 98.653 L 21.849 97.8 L 21.951 97.709 L 22.857 97.332 L 23.01 97.328 L 23.912 97.657 L 24.043 97.798 L 24.298 98.707 L 24.301 98.805 L 24.244 99.091 L 24.838 98.882 L 25.78 98.543 L 26.72 98.203 L 27.657 97.858 L 28.583 97.502 L 29.502 97.119 L 30.416 96.712 L 31.317 96.286 L 32.204 95.843 L 33.086 95.371 L 33.943 94.869 L 34.773 94.33 L 35.614 93.787 L 35.624 93.781 L 36.49 93.28 L 36.498 93.275 L 37.387 92.814 L 37.397 92.81 L 38.307 92.394 L 38.318 92.389 L 39.25 92.026 L 39.265 92.021 L 40.223 91.731 L 40.254 91.724 L 41.242 91.584 L 41.38 91.611 L 42.222 92.112 L 42.319 92.245 L 42.522 93.11 L 42.497 93.266 L 41.982 94.123 L 41.954 94.16 L 41.263 94.884 L 41.25 94.897 L 40.498 95.557 L 40.489 95.564 L 39.702 96.183 L 39.696 96.188 L 38.887 96.776 L 38.881 96.78 L 38.051 97.34 L 38.045 97.344 L 37.199 97.879 L 37.194 97.882 L 36.331 98.389 L 36.325 98.393 L 35.447 98.872 L 35.439 98.876 L 34.541 99.319 L 34.53 99.324 L 33.609 99.714 L 33.591 99.721 L 32.637 100.024 L 32.586 100.033 L 31.802 100.081 L 31.83 100.682 L 31.795 100.809 L 31.753 100.872 L 31.946 100.777 L 32.839 100.326 L 33.726 99.866 L 34.607 99.396 L 34.607 99.397 L 35.478 98.917 L 36.349 98.424 L 37.207 97.922 L 38.061 97.4 L 38.061 97.401 L 38.898 96.866 L 39.728 96.309 L 40.537 95.739 L 41.339 95.141 L 41.339 95.142 L 42.115 94.529 L 42.879 93.883 L 43.603 93.219 L 44.303 92.51 L 44.944 91.763 L 45.511 90.955 L 46.054 90.123 L 46.061 90.112 L 46.659 89.31 L 46.675 89.292 L 47.362 88.564 L 47.401 88.531 L 48.242 87.991 L 48.315 87.962 L 49.282 87.768 L 49.344 87.765 L 50.329 87.866 L 50.343 87.868 L 51.311 88.031 L 52.274 88.045 L 53.238 87.919 L 54.128 87.655 L 54.515 87.26 L 53.955 86.969 L 53.012 86.789 L 52.028 86.704 L 51.036 86.658 L 51.026 86.657 L 50.03 86.562 L 50.015 86.561 L 49.029 86.397 L 49.013 86.393 L 48.043 86.15 L 48.02 86.143 L 47.086 85.791 L 47.048 85.772 L 46.202 85.242 L 46.145 85.189 L 45.551 84.384 L 45.519 84.198 L 45.783 83.325 L 45.842 83.231 L 46.577 82.56 L 46.608 82.536 L 47.457 82.007 L 48.26 81.449 L 49.048 80.832 L 49.805 80.197 L 50.555 79.534 L 51.282 78.86 L 52.005 78.167 L 52.005 78.168 L 52.712 77.464 L 53.405 76.748 L 54.083 76.017 L 54.741 75.271 L 55.364 74.511 L 55.926 73.73 L 56.135 73.02 L 55.467 72.738 Z M 126.888 95.054 L 126.816 95.837 L 126.906 96.813 L 127.074 97.747 L 127.519 98.506 L 128.321 98.94 L 129.256 99.204 L 130.224 99.418 L 130.224 99.417 L 131.208 99.609 L 132.192 99.79 L 133.164 99.964 L 133.985 100.01 L 134.314 99.328 L 134.643 98.39 L 134.677 98.329 L 135.294 97.55 L 135.33 97.515 L 136.115 96.902 L 136.147 96.881 L 136.646 96.621 L 136.5 96.556 L 135.538 96.397 L 134.55 96.25 L 133.557 96.106 L 132.566 95.955 L 132.564 95.955 L 131.574 95.796 L 131.572 95.795 L 130.584 95.628 L 130.582 95.628 L 129.595 95.45 L 129.592 95.449 L 128.608 95.256 L 128.603 95.255 L 127.648 95.044 Z M 90.679 44.112 L 90.68 44.112 L 91.661 44.315 L 91.662 44.315 L 92.641 44.525 L 93.62 44.738 L 93.622 44.739 L 94.599 44.958 L 95.576 45.18 L 95.577 45.18 L 96.553 45.406 L 97.528 45.634 L 97.53 45.634 L 98.505 45.866 L 99.478 46.1 L 99.479 46.101 L 100.452 46.338 L 101.425 46.579 L 101.426 46.579 L 103.368 47.067 L 104.339 47.313 L 104.341 47.313 L 105.311 47.563 L 106.28 47.815 L 108.218 48.323 L 108.219 48.324 L 109.187 48.581 L 110.154 48.841 L 111.121 49.102 L 111.122 49.102 L 112.089 49.364 L 113.055 49.628 L 114.021 49.894 L 114.022 49.894 L 114.987 50.162 L 115.952 50.431 L 116.916 50.703 L 117.879 50.975 L 117.881 50.976 L 118.845 51.25 L 119.808 51.526 L 120.77 51.803 L 120.771 51.803 L 121.733 52.082 L 122.695 52.362 L 123.656 52.645 L 124.616 52.928 L 124.617 52.928 L 125.577 53.214 L 126.537 53.502 L 127.496 53.79 L 128.454 54.08 L 128.455 54.081 L 129.414 54.373 L 130.371 54.667 L 131.328 54.963 L 131.329 54.963 L 132.285 55.26 L 133.241 55.56 L 133.242 55.56 L 135.152 56.164 L 136.105 56.47 L 136.107 56.471 L 137.06 56.779 L 138.013 57.089 L 138.014 57.089 L 138.965 57.402 L 139.916 57.716 L 139.917 57.716 L 140.867 58.034 L 141.816 58.354 L 141.817 58.355 L 142.765 58.678 L 143.712 59.004 L 143.713 59.004 L 144.659 59.333 L 144.66 59.334 L 145.605 59.668 L 146.548 60.004 L 146.55 60.004 L 147.491 60.346 L 148.432 60.691 L 148.434 60.692 L 149.371 61.044 L 150.308 61.4 L 150.31 61.401 L 151.243 61.765 L 151.245 61.766 L 152.175 62.137 L 152.177 62.137 L 153.104 62.517 L 153.106 62.518 L 154.028 62.907 L 154.03 62.908 L 154.95 63.306 L 155.867 63.708 L 155.869 63.709 L 156.784 64.116 L 157.697 64.527 L 157.699 64.528 L 158.61 64.946 L 159.519 65.366 L 159.521 65.367 L 160.427 65.793 L 161.332 66.224 L 162.234 66.658 L 162.236 66.659 L 163.136 67.098 L 164.035 67.541 L 164.037 67.542 L 164.933 67.989 L 165.827 68.44 L 165.829 68.441 L 166.72 68.898 L 167.611 69.357 L 167.613 69.358 L 168.5 69.822 L 169.386 70.29 L 169.387 70.29 L 170.27 70.762 L 171.152 71.238 L 171.154 71.239 L 172.033 71.719 L 172.91 72.203 L 172.912 72.204 L 173.786 72.692 L 173.787 72.693 L 174.659 73.186 L 175.529 73.682 L 175.53 73.683 L 176.398 74.184 L 177.263 74.688 L 177.265 74.689 L 178.128 75.198 L 178.988 75.71 L 178.99 75.711 L 179.848 76.228 L 179.849 76.228 L 180.704 76.75 L 181.557 77.276 L 181.558 77.277 L 182.408 77.807 L 182.409 77.808 L 183.256 78.342 L 183.257 78.343 L 184.101 78.882 L 184.102 78.882 L 184.943 79.425 L 184.944 79.426 L 185.782 79.976 L 186.617 80.528 L 186.619 80.529 L 187.451 81.087 L 187.452 81.088 L 188.28 81.651 L 188.282 81.652 L 189.106 82.221 L 189.107 82.222 L 189.928 82.796 L 189.929 82.796 L 190.747 83.375 L 190.748 83.376 L 191.561 83.961 L 191.562 83.962 L 192.37 84.553 L 192.372 84.554 L 193.175 85.153 L 193.176 85.154 L 193.975 85.758 L 193.976 85.759 L 194.771 86.369 L 194.773 86.37 L 195.561 86.988 L 195.562 86.99 L 196.344 87.616 L 196.346 87.617 L 197.121 88.251 L 197.123 88.252 L 197.892 88.894 L 197.894 88.896 L 198.654 89.548 L 198.656 89.55 L 199.408 90.212 L 199.41 90.214 L 200.153 90.885 L 200.156 90.887 L 200.888 91.571 L 200.89 91.574 L 201.611 92.269 L 201.614 92.271 L 202.321 92.98 L 202.324 92.984 L 203.016 93.709 L 203.018 93.711 L 203.699 94.444 L 204.384 95.175 L 205.071 95.904 L 205.07 95.905 L 205.76 96.626 L 206.447 97.336 L 206.54 97.42 L 206.466 97.135 L 206.205 96.173 L 206.204 96.173 L 205.933 95.209 L 205.655 94.248 L 205.379 93.286 L 205.378 93.283 L 205.113 92.317 L 205.111 92.31 L 204.877 91.336 L 204.875 91.325 L 204.695 90.34 L 204.692 90.316 L 204.627 89.317 L 204.629 89.273 L 204.773 88.282 L 204.785 88.236 L 205.144 87.304 L 205.156 87.277 L 205.644 86.404 L 205.654 86.388 L 206.218 85.561 L 206.235 85.54 L 206.898 84.792 L 206.925 84.766 L 207.709 84.152 L 207.761 84.123 L 208.673 83.758 L 208.743 83.743 L 209.465 83.715 L 209.324 83.244 L 208.803 82.453 L 208.13 81.806 L 207.25 81.414 L 207.229 81.403 L 206.368 80.892 L 206.36 80.887 L 205.522 80.339 L 205.518 80.337 L 204.691 79.771 L 204.689 79.769 L 203.87 79.192 L 203.868 79.191 L 203.056 78.606 L 203.055 78.605 L 202.246 78.013 L 202.244 78.012 L 201.441 77.415 L 201.44 77.414 L 200.641 76.81 L 200.64 76.809 L 199.844 76.2 L 199.051 75.593 L 198.247 74.995 L 198.248 74.994 L 197.441 74.411 L 196.622 73.834 L 195.801 73.269 L 194.969 72.712 L 194.133 72.165 L 193.292 71.628 L 193.292 71.629 L 192.442 71.1 L 191.59 70.581 L 190.729 70.069 L 189.865 69.566 L 188.996 69.072 L 188.124 68.586 L 187.246 68.108 L 186.365 67.637 L 186.365 67.636 L 185.48 67.174 L 184.589 66.717 L 183.697 66.27 L 182.798 65.827 L 181.898 65.393 L 180.995 64.964 L 180.088 64.542 L 180.088 64.541 L 179.18 64.128 L 178.267 63.72 L 177.351 63.317 L 177.351 63.316 L 176.434 62.921 L 175.512 62.53 L 174.589 62.146 L 173.662 61.766 L 172.736 61.393 L 171.804 61.026 L 170.873 60.664 L 169.937 60.307 L 169 59.955 L 168.062 59.609 L 168.062 59.61 L 167.121 59.269 L 166.178 58.933 L 165.233 58.601 L 164.289 58.276 L 163.342 57.954 L 163.342 57.955 L 162.392 57.638 L 162.392 57.637 L 161.442 57.327 L 160.49 57.02 L 160.49 57.021 L 159.536 56.718 L 158.581 56.42 L 157.625 56.127 L 156.668 55.839 L 155.709 55.554 L 154.748 55.274 L 153.786 54.997 L 152.824 54.717 L 152.818 54.715 L 151.866 54.407 L 151.854 54.403 L 150.923 54.035 L 150.904 54.026 L 150.013 53.572 L 149.977 53.549 L 149.207 52.931 L 149.143 52.844 L 148.808 51.989 L 148.08 51.448 L 147.191 51.059 L 146.266 50.725 L 145.311 50.423 L 144.713 50.251 L 144.58 50.97 L 144.447 51.129 L 143.537 51.47 L 143.463 51.483 L 142.45 51.483 L 141.45 51.426 L 141.441 51.425 L 140.445 51.324 L 140.435 51.323 L 139.445 51.174 L 139.429 51.171 L 138.454 50.947 L 138.42 50.936 L 137.497 50.549 L 137.44 50.514 L 136.686 49.856 L 136.614 49.704 L 136.585 48.807 L 136.46 48.418 L 135.598 48.266 L 134.613 48.1 L 134.613 48.101 L 133.625 47.941 L 132.637 47.788 L 131.648 47.643 L 130.658 47.504 L 130.658 47.505 L 129.665 47.372 L 128.673 47.246 L 127.68 47.127 L 126.686 47.015 L 125.692 46.908 L 124.698 46.812 L 123.702 46.72 L 123.702 46.721 L 122.705 46.635 L 121.707 46.55 L 116.717 46.12 L 115.719 46.033 L 114.721 45.945 L 113.723 45.859 L 112.726 45.772 L 111.728 45.685 L 110.73 45.597 L 109.732 45.51 L 108.735 45.422 L 105.741 45.158 L 104.744 45.069 L 103.746 44.981 L 102.748 44.892 L 101.751 44.802 L 100.753 44.713 L 99.756 44.623 L 98.758 44.536 L 97.761 44.456 L 96.763 44.378 L 95.766 44.306 L 94.767 44.238 L 93.769 44.174 L 92.769 44.114 L 91.77 44.058 L 90.773 44.009 L 89.991 43.973 Z M 34.839 88.393 L 35.817 88.629 L 35.973 88.787 L 36.167 89.625 L 36.107 89.824 L 35.445 90.458 L 35.318 91.325 L 35.314 92.299 L 35.301 92.371 L 34.958 93.3 L 34.917 93.369 L 34.24 94.113 L 34.208 94.141 L 33.394 94.735 L 33.376 94.747 L 32.506 95.254 L 32.496 95.259 L 31.599 95.717 L 31.592 95.721 L 30.678 96.145 L 30.673 96.147 L 29.749 96.547 L 29.741 96.55 L 28.802 96.916 L 28.759 96.928 L 27.77 97.087 L 27.645 97.068 L 26.809 96.664 L 26.705 96.551 L 26.341 95.614 L 26.327 95.544 L 26.297 94.538 L 26.3 94.495 L 26.477 93.504 L 26.492 93.454 L 26.907 92.541 L 26.927 92.506 L 27.508 91.688 L 27.528 91.664 L 28.225 90.94 L 28.244 90.923 L 29.023 90.287 L 29.041 90.274 L 29.883 89.724 L 29.901 89.714 L 30.793 89.248 L 30.812 89.239 L 31.746 88.864 L 31.766 88.857 L 32.733 88.581 L 32.757 88.575 L 33.75 88.414 L 33.779 88.412 L 34.785 88.388 Z M 47.505 92.446 L 47.312 92.933 L 47.472 93.463 L 47.972 93.83 L 48.617 94.055 L 49.304 94.163 L 49.901 94.144 L 50.091 93.861 L 49.769 93.415 L 49.242 92.977 L 48.645 92.617 L 48.029 92.372 Z M 93.611 68.938 L 94.604 69.101 L 94.617 69.104 L 95.598 69.329 L 95.606 69.331 L 96.578 69.596 L 96.585 69.598 L 97.547 69.894 L 97.553 69.896 L 98.506 70.219 L 98.511 70.221 L 99.454 70.572 L 99.461 70.574 L 100.392 70.957 L 100.4 70.961 L 101.316 71.38 L 101.325 71.385 L 102.217 71.851 L 102.227 71.856 L 103.092 72.369 L 103.102 72.375 L 103.941 72.933 L 103.948 72.938 L 104.76 73.531 L 104.767 73.537 L 105.554 74.165 L 105.56 74.169 L 106.324 74.825 L 106.33 74.83 L 107.069 75.513 L 107.073 75.518 L 107.791 76.223 L 107.796 76.228 L 108.49 76.957 L 108.495 76.961 L 109.168 77.71 L 109.171 77.715 L 109.823 78.481 L 109.827 78.485 L 110.459 79.269 L 110.462 79.274 L 111.072 80.075 L 111.075 80.078 L 111.667 80.892 L 111.67 80.897 L 112.24 81.726 L 112.243 81.73 L 112.793 82.574 L 112.796 82.578 L 113.327 83.433 L 113.329 83.438 L 113.838 84.306 L 113.841 84.31 L 114.331 85.189 L 114.333 85.193 L 114.802 86.084 L 114.804 86.088 L 115.252 86.989 L 115.255 86.994 L 115.68 87.907 L 115.682 87.911 L 116.087 88.832 L 116.089 88.838 L 116.469 89.77 L 116.471 89.775 L 116.827 90.717 L 116.83 90.726 L 117.139 91.683 L 117.149 91.74 L 117.188 92.733 L 117.135 92.881 L 116.557 93.529 L 116.258 93.544 L 115.549 92.895 L 115.513 92.853 L 114.976 92.005 L 114.967 91.988 L 114.51 91.091 L 114.506 91.082 L 114.089 90.166 L 114.087 90.163 L 113.684 89.241 L 113.267 88.33 L 112.822 87.433 L 112.351 86.551 L 111.854 85.684 L 111.333 84.828 L 110.789 83.99 L 110.224 83.17 L 109.631 82.356 L 109.02 81.563 L 108.389 80.787 L 107.736 80.028 L 107.067 79.291 L 106.37 78.565 L 105.657 77.863 L 104.928 77.188 L 104.169 76.527 L 103.401 75.899 L 102.599 75.29 L 101.789 74.721 L 100.95 74.181 L 100.089 73.68 L 99.205 73.222 L 98.289 72.806 L 97.371 72.46 L 96.416 72.176 L 95.442 71.944 L 95.438 71.943 L 94.464 71.689 L 94.449 71.684 L 93.497 71.358 L 93.472 71.348 L 92.575 70.904 L 92.495 70.835 L 91.927 70.018 L 91.925 69.781 L 92.397 69.075 L 92.562 68.982 L 93.567 68.936 Z M 77.241 68.018 L 77.467 68.944 L 77.473 69 L 77.446 69.979 L 77.445 69.994 L 77.347 70.969 L 77.346 70.976 L 77.214 71.948 L 77.214 71.954 L 77.056 72.921 L 77.055 72.926 L 76.873 73.889 L 76.872 73.895 L 76.662 74.853 L 76.66 74.861 L 76.414 75.81 L 76.41 75.822 L 76.106 76.752 L 76.092 76.785 L 75.637 77.65 L 75.453 77.762 L 74.631 77.77 L 74.435 77.641 L 74.061 76.739 L 74.045 76.656 L 74.052 75.678 L 74.052 75.662 L 74.136 74.686 L 74.137 74.677 L 74.261 73.705 L 74.262 73.699 L 74.416 72.731 L 74.417 72.725 L 74.598 71.761 L 74.6 71.755 L 74.811 70.798 L 74.812 70.79 L 75.058 69.841 L 75.062 69.829 L 75.364 68.897 L 75.388 68.846 L 75.911 68.055 L 76.064 67.962 L 77.014 67.859 Z M 48.728 70.331 L 48.397 71.153 L 48.377 71.19 L 47.838 72.001 L 47.713 72.089 L 46.743 72.325 L 46.738 72.326 L 45.76 72.541 L 45.562 72.48 L 44.964 71.843 L 44.928 71.792 L 44.787 71.509 L 44.433 71.966 L 44.078 72.872 L 44.019 72.955 L 43.283 73.583 L 43.241 73.611 L 42.383 74.045 L 41.798 74.733 L 41.296 75.555 L 41.116 76.283 L 41.517 76.372 L 42.298 75.891 L 43.149 75.362 L 43.982 74.815 L 43.983 74.814 L 44.826 74.272 L 44.835 74.266 L 45.705 73.768 L 45.706 73.768 L 46.578 73.275 L 46.586 73.271 L 47.479 72.816 L 48.374 72.365 L 48.381 72.361 L 49.29 71.939 L 50.193 71.525 L 50.43 71.392 L 49.952 70.963 L 49.919 70.924 L 49.431 70.208 Z M 131.488 35.904 L 131.107 36.567 L 130.998 36.659 L 130.068 37.003 L 130.002 37.016 L 129.002 37.05 L 128.002 37.082 L 127.997 37.082 L 126.996 37.093 L 125.996 37.102 L 125.993 37.102 L 124.992 37.099 L 123.992 37.095 L 123.99 37.095 L 122.989 37.083 L 121.989 37.07 L 120.988 37.054 L 119.988 37.04 L 118.989 37.036 L 117.99 37.034 L 116.991 37.043 L 115.992 37.054 L 114.992 37.075 L 113.995 37.1 L 112.995 37.135 L 111.998 37.173 L 110.998 37.221 L 110.003 37.272 L 109.004 37.333 L 108.009 37.398 L 107.011 37.472 L 106.015 37.548 L 105.018 37.633 L 104.021 37.72 L 104.021 37.719 L 103.027 37.815 L 102.034 37.913 L 101.039 38.017 L 100.046 38.124 L 99.052 38.238 L 98.059 38.353 L 97.065 38.473 L 96.074 38.596 L 95.082 38.723 L 94.09 38.852 L 93.099 38.985 L 92.107 39.119 L 91.116 39.256 L 90.125 39.392 L 89.133 39.527 L 88.141 39.661 L 87.15 39.792 L 86.157 39.922 L 86.156 39.922 L 85.164 40.049 L 84.171 40.175 L 82.185 40.421 L 82.183 40.421 L 81.19 40.539 L 80.196 40.654 L 80.194 40.654 L 79.199 40.765 L 78.755 40.814 L 79.59 40.837 L 80.59 40.869 L 80.592 40.869 L 81.592 40.905 L 82.592 40.943 L 82.593 40.943 L 83.593 40.984 L 84.592 41.028 L 84.593 41.028 L 85.593 41.074 L 86.592 41.122 L 86.593 41.122 L 87.592 41.174 L 88.592 41.225 L 89.591 41.279 L 90.59 41.334 L 90.591 41.334 L 91.59 41.391 L 92.589 41.449 L 93.588 41.508 L 94.586 41.569 L 95.585 41.63 L 95.586 41.63 L 96.585 41.693 L 97.583 41.758 L 98.582 41.823 L 100.578 41.957 L 100.579 41.957 L 101.578 42.026 L 102.576 42.096 L 104.572 42.238 L 105.57 42.311 L 105.572 42.311 L 106.57 42.385 L 107.568 42.46 L 108.565 42.535 L 109.563 42.612 L 110.561 42.69 L 110.562 42.69 L 111.559 42.769 L 112.556 42.849 L 113.553 42.931 L 114.551 43.013 L 114.552 43.013 L 116.546 43.181 L 117.543 43.268 L 118.539 43.355 L 118.54 43.355 L 119.537 43.444 L 120.534 43.534 L 121.53 43.625 L 122.526 43.718 L 122.527 43.719 L 123.523 43.814 L 124.519 43.91 L 125.515 44.009 L 125.516 44.009 L 126.512 44.109 L 128.502 44.317 L 128.504 44.317 L 129.499 44.425 L 130.493 44.535 L 130.494 44.535 L 131.488 44.65 L 132.482 44.767 L 132.484 44.767 L 133.477 44.892 L 134.469 45.02 L 134.472 45.021 L 135.463 45.159 L 136.454 45.3 L 136.463 45.301 L 137.447 45.481 L 137.449 45.481 L 138.431 45.67 L 138.44 45.672 L 139.413 45.906 L 139.416 45.907 L 140.386 46.154 L 140.391 46.156 L 141.353 46.429 L 141.355 46.429 L 142.315 46.71 L 142.319 46.711 L 143.274 47.01 L 143.275 47.011 L 144.228 47.317 L 144.231 47.318 L 145.179 47.639 L 145.181 47.639 L 146.127 47.965 L 146.13 47.966 L 147.07 48.308 L 148.009 48.654 L 148.013 48.656 L 148.945 49.019 L 149.876 49.386 L 149.881 49.388 L 150.804 49.774 L 150.805 49.774 L 151.726 50.165 L 151.729 50.166 L 152.645 50.568 L 153.56 50.974 L 153.56 50.975 L 154.477 51.37 L 155.395 51.763 L 156.318 52.149 L 157.24 52.532 L 158.167 52.909 L 159.094 53.285 L 160.023 53.655 L 160.951 54.023 L 162.815 54.744 L 163.752 55.096 L 164.687 55.446 L 165.628 55.787 L 166.566 56.126 L 167.512 56.452 L 168.459 56.776 L 170.353 57.42 L 170.356 57.421 L 171.297 57.762 L 172.237 58.106 L 172.241 58.108 L 173.174 58.468 L 174.107 58.83 L 174.111 58.831 L 175.037 59.21 L 175.963 59.59 L 175.966 59.592 L 176.886 59.986 L 177.805 60.381 L 177.808 60.382 L 178.721 60.791 L 179.634 61.201 L 179.637 61.202 L 180.544 61.625 L 181.45 62.049 L 181.453 62.051 L 182.353 62.487 L 183.253 62.924 L 183.256 62.925 L 184.15 63.376 L 185.043 63.827 L 185.045 63.828 L 185.932 64.29 L 186.819 64.754 L 186.822 64.756 L 187.702 65.232 L 188.581 65.709 L 188.584 65.711 L 189.457 66.201 L 190.329 66.692 L 190.332 66.693 L 191.196 67.197 L 192.06 67.702 L 192.063 67.704 L 192.918 68.224 L 193.772 68.744 L 193.776 68.746 L 194.622 69.282 L 195.466 69.819 L 195.47 69.822 L 196.303 70.377 L 197.135 70.932 L 197.139 70.935 L 197.957 71.511 L 198.775 72.088 L 198.78 72.092 L 199.581 72.692 L 200.38 73.294 L 200.381 73.294 L 201.178 73.898 L 201.976 74.503 L 202.784 75.082 L 203.581 75.652 L 203.019 75.058 L 203.018 75.056 L 202.336 74.324 L 202.334 74.322 L 201.664 73.579 L 201.663 73.578 L 200.997 72.832 L 200.995 72.83 L 200.338 72.074 L 200.337 72.073 L 199.685 71.315 L 199.684 71.313 L 199.04 70.547 L 199.039 70.547 L 198.399 69.778 L 198.398 69.776 L 197.767 68.999 L 197.766 68.998 L 197.14 68.218 L 197.138 68.215 L 196.522 67.426 L 196.521 67.425 L 195.911 66.632 L 195.909 66.629 L 195.313 65.825 L 195.31 65.822 L 194.731 65.007 L 194.726 64.999 L 194.183 64.158 L 194.18 64.153 L 193.661 63.299 L 193.653 63.285 L 193.2 62.393 L 193.198 62.388 L 192.768 61.485 L 192.761 61.469 L 192.411 60.532 L 192.409 60.525 L 192.091 59.579 L 192.082 59.544 L 191.932 58.567 L 191.729 57.618 L 191.311 56.759 L 190.783 55.956 L 190.105 55.273 L 189.369 54.613 L 188.589 53.986 L 187.798 53.382 L 186.994 52.794 L 186.181 52.215 L 185.362 51.643 L 184.539 51.078 L 183.714 50.516 L 183.713 50.517 L 182.883 49.958 L 182.051 49.401 L 181.219 48.847 L 180.385 48.295 L 179.549 47.748 L 178.712 47.206 L 177.867 46.67 L 177.024 46.142 L 176.165 45.628 L 175.309 45.126 L 174.43 44.648 L 173.557 44.187 L 172.65 43.766 L 171.739 43.36 L 170.815 43.016 L 169.886 42.686 L 168.927 42.408 L 167.964 42.138 L 166.999 41.911 L 166.024 41.686 L 165.05 41.484 L 164.073 41.286 L 163.091 41.102 L 162.108 40.917 L 162.108 40.916 L 161.126 40.749 L 160.143 40.584 L 159.154 40.436 L 158.17 40.29 L 157.177 40.17 L 156.187 40.052 L 155.196 39.989 L 154.216 39.94 L 153.229 40.015 L 153.226 40.015 L 152.228 40.075 L 152.197 40.075 L 151.2 39.991 L 150.203 39.904 L 150.193 39.902 L 149.202 39.767 L 148.211 39.629 L 148.203 39.628 L 146.231 39.286 L 146.224 39.285 L 145.245 39.082 L 144.265 38.877 L 144.254 38.874 L 143.287 38.619 L 143.284 38.619 L 142.324 38.35 L 142.201 38.256 L 141.708 37.437 L 141.193 36.799 L 140.286 36.615 L 139.312 36.45 L 138.326 36.31 L 137.333 36.193 L 136.345 36.091 L 135.348 36.012 L 134.353 35.947 L 133.36 35.914 L 132.364 35.896 Z M 62.004 69.728 L 62.694 70.364 L 62.699 70.37 L 63.365 71.03 L 63.378 71.043 L 63.984 71.758 L 64.004 71.787 L 64.48 72.592 L 64.506 72.737 L 64.35 73.591 L 64.21 73.753 L 63.385 74.029 L 63.183 73.991 L 62.465 73.394 L 62.434 73.361 L 61.86 72.619 L 61.849 72.603 L 61.345 71.812 L 61.34 71.805 L 60.868 70.994 L 60.84 70.894 L 60.814 70.037 L 60.987 69.824 L 61.824 69.676 Z M 54.285 69.891 L 53.78 70.127 L 54.754 69.804 Z M 59.877 65.209 L 60.658 65.593 L 60.728 65.649 L 61.276 66.322 L 61.319 66.411 L 61.5 67.25 L 61.477 67.397 L 61.053 68.149 L 60.962 68.235 L 60.182 68.615 L 60.1 68.636 L 59.229 68.676 L 59.157 68.667 L 58.33 68.41 L 58.242 68.356 L 57.641 67.744 L 57.581 67.606 L 57.544 66.741 L 57.574 66.623 L 58.026 65.88 L 58.087 65.816 L 58.803 65.324 L 58.898 65.288 L 59.76 65.189 Z M 74.675 58.085 L 74.816 58.154 L 75.468 58.876 L 75.481 59.143 L 74.951 59.856 L 74.874 59.919 L 73.981 60.352 L 73.962 60.36 L 73.03 60.706 L 73.023 60.709 L 72.08 61.023 L 72.077 61.024 L 71.129 61.322 L 71.126 61.323 L 70.173 61.608 L 70.172 61.608 L 69.218 61.886 L 69.217 61.886 L 69.083 61.924 L 69.725 61.956 L 69.838 61.995 L 70.562 62.515 L 70.624 62.585 L 71.053 63.37 L 71.078 63.452 L 71.16 64.339 L 71.134 64.461 L 70.702 65.235 L 70.596 65.327 L 69.774 65.657 L 69.683 65.672 L 68.791 65.615 L 68.709 65.593 L 67.913 65.188 L 67.827 65.107 L 67.374 64.344 L 67.345 64.223 L 67.403 63.335 L 67.43 63.245 L 67.874 62.469 L 67.95 62.392 L 68.431 62.11 L 68.261 62.158 L 68.259 62.159 L 67.301 62.426 L 67.3 62.426 L 66.341 62.688 L 65.93 62.826 L 66.385 63.214 L 66.458 63.352 L 66.559 64.322 L 66.554 64.395 L 66.313 65.352 L 66.293 65.403 L 65.814 66.268 L 65.781 66.313 L 65.092 67.021 L 65.025 67.067 L 64.128 67.458 L 63.994 67.469 L 63.095 67.247 L 62.968 67.157 L 62.444 66.345 L 62.411 66.214 L 62.493 65.226 L 62.506 65.168 L 62.86 64.241 L 62.885 64.195 L 63.392 63.477 L 62.902 63.606 L 61.94 63.857 L 60.978 64.107 L 60.016 64.356 L 60.014 64.357 L 59.051 64.605 L 58.088 64.851 L 58.086 64.851 L 57.121 65.088 L 57.009 65.085 L 56.195 64.836 L 56.05 64.599 L 56.209 63.683 L 56.302 63.542 L 57.128 63.008 L 57.146 62.998 L 58.03 62.543 L 58.031 62.542 L 58.918 62.092 L 59.754 61.63 L 60.084 61.288 L 59.539 60.808 L 59.478 60.583 L 59.791 59.648 L 59.909 59.521 L 60.794 59.147 L 60.858 59.131 L 61.847 59.044 L 61.866 59.044 L 62.859 59.049 L 62.87 59.049 L 63.862 59.106 L 64.855 59.162 L 65.83 59.165 L 66.814 59.125 L 67.805 59.049 L 68.776 58.941 L 69.759 58.791 L 70.715 58.595 L 71.682 58.362 L 71.687 58.361 L 72.658 58.153 L 72.673 58.151 L 73.657 58.016 L 73.701 58.014 Z M 58.181 39.216 L 58.423 40.147 L 58.429 40.203 L 58.416 41.199 L 58.404 42.196 L 58.393 43.192 L 58.381 44.189 L 58.369 45.185 L 58.357 46.182 L 58.345 47.178 L 58.333 48.175 L 58.321 49.171 L 58.308 50.168 L 58.292 51.164 L 58.275 52.161 L 58.275 52.162 L 58.255 53.158 L 58.233 54.155 L 58.233 54.157 L 58.206 55.153 L 58.175 56.149 L 58.175 56.151 L 58.137 57.147 L 58.137 57.15 L 58.085 58.145 L 58.083 58.168 L 57.924 59.136 L 57.731 59.312 L 56.934 59.368 L 56.732 59.255 L 56.275 58.375 L 56.261 58.339 L 55.97 57.386 L 55.968 57.382 L 55.699 56.422 L 55.698 56.418 L 55.445 55.454 L 55.443 55.446 L 55.231 54.472 L 55.229 54.457 L 55.087 53.471 L 55.085 53.458 L 55.006 52.465 L 55.006 52.452 L 54.988 51.456 L 54.988 51.445 L 55.02 50.449 L 55.02 50.44 L 55.098 49.447 L 55.099 49.439 L 55.214 48.449 L 55.215 48.442 L 55.361 47.456 L 55.362 47.45 L 55.536 46.469 L 55.537 46.465 L 55.733 45.488 L 55.733 45.485 L 55.94 44.51 L 56.149 43.535 L 56.567 41.587 L 56.776 40.612 L 56.778 40.606 L 57.017 39.639 L 57.119 39.505 L 57.875 39.085 Z M 44.006 44.889 L 43.007 44.989 L 42.009 45.088 L 41.01 45.188 L 40.014 45.286 L 39.018 45.393 L 38.024 45.506 L 37.03 45.631 L 36.035 45.762 L 36.035 45.761 L 35.047 45.901 L 34.056 46.052 L 33.078 46.219 L 33.001 46.235 L 33.918 46.414 L 33.923 46.415 L 34.903 46.629 L 34.918 46.633 L 35.881 46.917 L 35.892 46.921 L 36.837 47.258 L 36.846 47.262 L 37.773 47.645 L 37.781 47.648 L 38.692 48.069 L 38.701 48.073 L 39.592 48.534 L 39.6 48.539 L 40.47 49.039 L 40.479 49.044 L 41.322 49.588 L 41.333 49.595 L 42.141 50.189 L 42.149 50.196 L 42.926 50.831 L 42.927 50.832 L 43.7 51.472 L 44.474 52.108 L 44.992 52.53 L 45.082 52.149 L 45.11 51.174 L 45.13 50.173 L 45.142 49.17 L 45.158 47.164 L 45.166 46.16 L 45.173 45.226 L 44.88 44.802 Z M 62.767 44.085 L 63.527 44.623 L 64.389 45.111 L 65.317 45.467 L 65.317 45.466 L 66.263 45.809 L 67.238 46.082 L 67.238 46.083 L 68.211 46.343 L 69.199 46.573 L 70.193 46.789 L 71.176 46.975 L 71.955 47.08 L 71.247 46.725 L 71.246 46.725 L 70.339 46.264 L 70.336 46.262 L 69.435 45.79 L 69.405 45.771 L 68.619 45.165 L 68.54 45.037 L 68.379 44.191 L 67.753 44.036 L 66.761 44.017 L 65.759 44.019 L 64.762 44.121 L 63.759 44.261 L 63.633 44.24 L 62.799 43.807 L 62.597 43.719 Z M 44.9 36.655 L 45.081 36.918 L 44.857 37.765 L 44.767 37.889 L 43.923 38.424 L 43.893 38.439 L 42.973 38.835 L 42.956 38.842 L 42.005 39.155 L 41.995 39.158 L 41.029 39.425 L 41.024 39.426 L 40.053 39.67 L 40.051 39.671 L 39.076 39.904 L 39.074 39.904 L 38.097 40.127 L 38.095 40.128 L 37.117 40.342 L 37.116 40.342 L 36.136 40.551 L 36.134 40.551 L 35.152 40.752 L 34.17 40.949 L 34.168 40.95 L 33.184 41.14 L 32.2 41.327 L 32.198 41.327 L 31.213 41.507 L 30.226 41.683 L 30.224 41.683 L 29.237 41.855 L 28.25 42.024 L 27.262 42.193 L 26.275 42.362 L 26.274 42.362 L 25.286 42.529 L 23.31 42.859 L 23.309 42.86 L 22.32 43.021 L 22.319 43.021 L 21.329 43.177 L 21.328 43.177 L 20.338 43.328 L 20.335 43.328 L 19.342 43.465 L 19.336 43.466 L 18.341 43.577 L 18.304 43.578 L 17.33 43.514 L 17.174 43.428 L 16.612 42.659 L 16.624 42.397 L 17.201 41.737 L 17.294 41.675 L 18.246 41.367 L 18.261 41.363 L 19.234 41.124 L 19.237 41.123 L 20.214 40.899 L 20.217 40.898 L 21.196 40.687 L 22.176 40.48 L 22.178 40.48 L 23.16 40.279 L 24.142 40.081 L 24.143 40.081 L 25.126 39.887 L 26.109 39.696 L 26.11 39.695 L 27.094 39.506 L 28.078 39.318 L 29.063 39.133 L 29.065 39.133 L 30.05 38.95 L 31.035 38.768 L 32.02 38.588 L 33.006 38.409 L 33.007 38.409 L 34.979 38.053 L 35.966 37.878 L 35.967 37.878 L 36.953 37.705 L 37.94 37.531 L 38.927 37.359 L 39.914 37.188 L 40.902 37.018 L 40.903 37.018 L 41.89 36.85 L 42.879 36.686 L 42.887 36.684 L 43.88 36.554 L 43.929 36.554 Z M 126.767 29.365 L 125.772 29.375 L 124.775 29.392 L 123.78 29.417 L 122.784 29.449 L 121.789 29.489 L 120.796 29.535 L 119.801 29.59 L 118.807 29.652 L 117.813 29.721 L 116.822 29.796 L 115.829 29.881 L 114.836 29.972 L 114.836 29.971 L 113.847 30.068 L 112.857 30.174 L 111.867 30.288 L 110.879 30.407 L 109.889 30.534 L 109.889 30.533 L 108.904 30.667 L 107.917 30.808 L 106.933 30.956 L 105.949 31.113 L 104.965 31.275 L 104.965 31.274 L 103.984 31.443 L 103.006 31.62 L 102.026 31.803 L 101.047 31.994 L 101.047 31.993 L 100.073 32.192 L 99.099 32.396 L 98.124 32.609 L 98.124 32.608 L 97.153 32.827 L 96.184 33.052 L 95.215 33.286 L 94.25 33.525 L 93.283 33.771 L 92.321 34.025 L 91.36 34.286 L 90.399 34.553 L 89.443 34.827 L 88.486 35.109 L 87.534 35.398 L 86.582 35.693 L 85.634 35.995 L 84.687 36.305 L 83.742 36.619 L 82.797 36.937 L 81.854 37.257 L 80.912 37.581 L 79.969 37.908 L 79.969 37.907 L 79.03 38.238 L 78.363 38.476 L 78.74 38.424 L 78.74 38.425 L 79.726 38.286 L 80.712 38.143 L 81.699 37.998 L 82.685 37.851 L 83.67 37.702 L 84.657 37.552 L 85.641 37.401 L 86.626 37.247 L 87.611 37.092 L 88.596 36.936 L 89.582 36.78 L 90.567 36.627 L 90.568 36.627 L 91.554 36.477 L 91.555 36.477 L 92.542 36.332 L 93.53 36.189 L 93.531 36.189 L 94.518 36.049 L 95.506 35.911 L 95.508 35.911 L 96.496 35.776 L 97.485 35.644 L 97.486 35.643 L 98.475 35.513 L 99.464 35.384 L 100.454 35.258 L 100.455 35.258 L 101.444 35.134 L 102.434 35.012 L 103.425 34.891 L 103.426 34.891 L 104.416 34.772 L 105.406 34.655 L 106.397 34.54 L 106.398 34.54 L 107.389 34.427 L 108.381 34.316 L 108.382 34.316 L 109.373 34.208 L 110.365 34.101 L 111.357 33.997 L 111.358 33.997 L 112.35 33.894 L 113.342 33.794 L 113.344 33.794 L 114.337 33.698 L 115.33 33.604 L 115.331 33.603 L 116.325 33.513 L 117.319 33.427 L 117.321 33.427 L 118.315 33.345 L 118.316 33.345 L 119.31 33.268 L 120.305 33.192 L 121.299 33.116 L 122.294 33.04 L 123.288 32.965 L 125.278 32.813 L 126.272 32.737 L 127.267 32.661 L 128.262 32.586 L 129.256 32.51 L 130.251 32.434 L 131.245 32.358 L 132.24 32.283 L 132.249 32.283 L 133.244 32.248 L 133.269 32.248 L 134.261 32.334 L 134.286 32.338 L 135.262 32.541 L 136.239 32.743 L 137.216 32.946 L 138.192 33.149 L 140.146 33.555 L 141.122 33.758 L 142.099 33.961 L 143.075 34.164 L 145.029 34.57 L 146.005 34.773 L 146.982 34.975 L 147.959 35.178 L 148.935 35.382 L 150.889 35.788 L 151.865 35.991 L 152.842 36.193 L 153.818 36.396 L 154.795 36.6 L 155.772 36.803 L 156.748 37.007 L 157.725 37.21 L 158.701 37.413 L 159.678 37.616 L 160.654 37.82 L 161.631 38.024 L 162.607 38.229 L 163.583 38.432 L 164.56 38.636 L 167.488 39.251 L 168.464 39.457 L 169.441 39.663 L 170.413 39.868 L 171.351 40.05 L 172.161 39.87 L 172.829 39.297 L 172.997 38.683 L 172.335 38.202 L 171.453 37.777 L 170.548 37.393 L 169.621 37.025 L 168.692 36.67 L 167.76 36.322 L 166.823 35.98 L 165.887 35.642 L 164.946 35.312 L 164.946 35.311 L 164.005 34.992 L 164.005 34.993 L 163.059 34.683 L 162.109 34.382 L 162.109 34.381 L 161.16 34.091 L 161.16 34.092 L 160.204 33.809 L 160.204 33.808 L 159.249 33.537 L 158.288 33.274 L 157.327 33.021 L 156.36 32.775 L 155.395 32.539 L 154.424 32.311 L 153.455 32.093 L 153.455 32.094 L 152.48 31.884 L 151.505 31.684 L 150.529 31.491 L 150.529 31.492 L 149.548 31.309 L 148.568 31.135 L 147.59 30.968 L 147.59 30.969 L 146.605 30.811 L 145.62 30.663 L 144.636 30.521 L 144.636 30.522 L 143.647 30.39 L 142.66 30.265 L 141.671 30.149 L 140.68 30.04 L 139.691 29.942 L 138.701 29.849 L 138.701 29.85 L 137.707 29.767 L 136.715 29.692 L 135.722 29.624 L 134.727 29.564 L 133.733 29.511 L 132.74 29.468 L 131.744 29.432 L 130.749 29.403 L 129.753 29.382 L 128.757 29.369 L 127.761 29.363 Z M 53.733 35.861 L 53.782 35.869 L 54.737 36.153 L 54.787 36.176 L 55.632 36.697 L 55.725 36.82 L 55.951 37.634 L 55.873 37.859 L 55.087 38.441 L 54.985 38.481 L 53.999 38.589 L 53.98 38.59 L 52.983 38.609 L 52.978 38.609 L 51.981 38.603 L 51.978 38.603 L 50.981 38.582 L 50.971 38.582 L 49.977 38.515 L 49.831 38.442 L 49.265 37.782 L 49.239 37.546 L 49.678 36.72 L 49.783 36.625 L 50.703 36.242 L 50.724 36.234 L 51.679 35.948 L 51.711 35.941 L 52.699 35.808 L 52.738 35.807 Z M 32.374 27.304 L 31.531 27.726 L 30.706 28.26 L 29.884 28.794 L 28.274 29.948 L 27.483 30.538 L 26.688 31.13 L 26.686 31.131 L 25.887 31.716 L 25.399 32.072 L 25.694 31.899 L 26.54 31.383 L 27.381 30.864 L 28.213 30.331 L 29.042 29.792 L 29.856 29.237 L 30.669 28.671 L 31.459 28.085 L 32.219 27.485 L 32.427 27.296 Z M 39.319 24.577 L 39.33 24.636 L 39.331 24.663 L 39.35 24.659 L 39.536 24.581 L 39.34 24.461 L 39.269 24.433 Z" fill="#000000" fill-rule="nonzero" stroke="none" data-offset="out 0.02mm"/></svg>