<?xml version="1.0" standalone="no"?><!DOCTYPE svg PUBLIC "-//W3C//DTD SVG 20010904//EN" "http://www.w3.org/TR/2001/REC-SVG-20010904/DTD/svg10.dtd"><svg xmlns="http://www.w3.org/2000/svg" version="1.0" width="12.0764mm" height="16mm" viewBox="0 0 146.812249 194.511180" preserveAspectRatio="xMidYMid meet">
<metadata>
Created by potrace 1.16, written by Peter Selinger 2001-2019
</metadata>
<g transform="translate(-40.280602,209.000000) scale(0.100000,-0.100000)" fill="#000000" stroke="none">
<path d="M751 2064 c-27 -34 -35 -110 -28 -278 6 -160 16 -203 57 -250 l29 -33 -44 -43 c-47 -46 -90 -121 -121 -208 l-19 -54 -37 6 c-78 13 -193 19 -185 10 5 -5 55 -18 111 -29 98 -19 103 -21 96 -41 -7 -18 -20 -22 -89 -28 -63 -6 -81 -11 -81 -23 0 -12 13 -14 70 -11 39 2 70 0 70 -4 0 -3 -14 -41 -31 -83 -60 -152 -72 -215 -73 -390 0 -178 12 -230 73 -319 39 -56 138 -108 243 -127 93 -18 607 -19 688 -2 148 31 239 91 280 184 76 177 64 404 -34 663 -14 37 -26 70 -26 72 0 2 32 4 71 4 52 0 70 3 67 13 -5 14 -46 24 -110 26 -37 1 -50 6 -58 22 -7 11 -10 22 -8 24 2 1 46 10 98 20 126 23 149 38 45 30 -44 -3 -96 -8 -116 -12 -35 -5 -37 -4 -49 33 -27 83 -86 187 -128 225 l-43 40 29 34 c44 50 56 116 57 310 0 145 -3 175 -18 203 -26 48 -43 50 -83 11 -99 -95 -179 -328 -156 -452 9 -46 9 -47 -12 -41 -86 28 -188 31 -262 9 -27 -8 -49 -15 -49 -15 0 0 2 38 3 83 5 101 -14 182 -64 285 -35 71 -109 162 -132 162 -6 0 -20 -11 -31 -26z m164 -739 c38 -37 35 -95 -6 -129 -40 -34 -74 -33 -110 3 -44 45 -37 120 14 141 40 16 77 11 102 -15z m570 0 c39 -38 37 -88 -6 -127 -38 -36 -73 -36 -110 1 -58 59 -24 151 56 151 25 0 44 -8 60 -25z m-291 -44 c17 -7 17 -9 -9 -29 -36 -28 -56 -28 -84 2 -17 18 -19 25 -9 29 19 8 80 7 102 -2z m71 -316 c132 -35 235 -116 289 -230 38 -80 50 -147 43 -245 -9 -143 -62 -245 -150 -293 -40 -21 -52 -22 -307 -22 -254 0 -267 1 -306 22 -93 50 -143 149 -151 299 -9 146 26 251 113 344 108 116 304 168 469 125z"/>
<path d="M832 1304 c-47 -33 -9 -107 46 -88 37 13 43 65 10 88 -28 20 -28 20 -56 0z m50 -29 c0 -5 -5 -11 -11 -13 -6 -2 -11 4 -11 13 0 9 5 15 11 13 6 -2 11 -8 11 -13z"/>
<path d="M1402 1304 c-54 -37 -7 -113 53 -86 33 15 35 64 3 86 -12 9 -25 16 -28 16 -3 0 -16 -7 -28 -16z m48 -29 c0 -8 -4 -15 -9 -15 -13 0 -22 16 -14 24 11 11 23 6 23 -9z"/>
<path d="M1075 757 c-26 -26 -45 -53 -45 -65 0 -27 10 -28 52 -2 43 26 88 25 122 -1 24 -19 56 -20 56 -2 0 32 -88 113 -122 113 -10 0 -38 -19 -63 -43z"/>
<path d="M803 738 c-75 -80 -68 -148 9 -83 34 29 66 32 110 9 71 -37 53 33 -22 84 -44 30 -60 28 -97 -10z"/>
<path d="M1380 748 c-75 -51 -93 -121 -22 -84 45 23 85 20 112 -9 53 -57 83 -10 35 56 -48 65 -72 72 -125 37z"/>
</g>
<path d="M 109.037 6.323 L 109.201 6.63 L 109.332 6.902 L 109.435 7.148 L 109.532 7.421 L 109.615 7.697 L 109.697 8.021 L 109.772 8.379 L 109.833 8.719 L 109.899 9.159 L 109.953 9.577 L 110.005 10.051 L 110.008 10.071 L 110.008 10.074 L 110.044 10.465 L 110.087 10.994 L 110.118 11.424 L 110.148 11.925 L 110.177 12.455 L 110.178 12.455 L 110.2 12.921 L 110.199 12.921 L 110.22 13.423 L 110.239 13.954 L 110.24 13.954 L 110.255 14.447 L 110.27 14.978 L 110.283 15.472 L 110.282 15.472 L 110.293 15.994 L 110.303 16.514 L 110.312 17.036 L 110.32 17.549 L 110.326 18.079 L 110.332 18.601 L 110.331 18.601 L 110.336 19.132 L 110.341 19.643 L 110.344 20.174 L 110.344 20.184 L 110.348 20.696 L 110.35 21.226 L 110.352 21.748 L 110.353 22.279 L 110.353 22.288 L 110.355 22.81 L 110.356 23.331 L 110.356 24.375 L 110.354 24.886 L 110.346 25.939 L 110.341 26.469 L 110.336 27 L 110.337 27 L 110.33 27.513 L 110.323 28.043 L 110.316 28.555 L 110.307 29.076 L 110.297 29.598 L 110.286 30.12 L 110.274 30.65 L 110.262 31.181 L 110.263 31.181 L 110.249 31.675 L 110.233 32.206 L 110.218 32.717 L 110.201 33.23 L 110.181 33.75 L 110.16 34.271 L 110.139 34.783 L 110.115 35.314 L 110.116 35.314 L 110.091 35.807 L 110.09 35.807 L 110.063 36.318 L 110.035 36.821 L 110.003 37.333 L 109.969 37.844 L 109.935 38.336 L 109.895 38.847 L 109.855 39.34 L 109.808 39.869 L 109.765 40.332 L 109.714 40.833 L 109.657 41.361 L 109.658 41.361 L 109.605 41.805 L 109.545 42.286 L 109.48 42.765 L 109.412 43.237 L 109.33 43.762 L 109.261 44.173 L 109.175 44.653 L 109.092 45.079 L 108.992 45.557 L 108.903 45.953 L 108.795 46.393 L 108.667 46.879 L 108.554 47.275 L 108.429 47.679 L 108.301 48.061 L 108.166 48.434 L 108.018 48.811 L 107.87 49.161 L 107.704 49.523 L 107.521 49.892 L 107.363 50.186 L 107.176 50.51 L 106.974 50.834 L 106.765 51.146 L 106.547 51.451 L 106.322 51.744 L 106.071 52.051 L 105.755 52.419 L 105.743 52.434 L 105.402 52.834 L 105.059 53.236 L 104.714 53.64 L 104.71 53.645 L 104.37 54.044 L 104.025 54.448 L 104.024 54.449 L 103.68 54.852 L 103.677 54.856 L 103.337 55.255 L 102.992 55.659 L 102.249 56.835 L 101.87 58.174 L 101.885 59.565 L 102.6 61.448 L 102.838 61.818 L 103.615 62.747 L 104.004 63.109 L 104.392 63.47 L 104.397 63.474 L 104.777 63.827 L 105.165 64.189 L 105.174 64.197 L 105.554 64.55 L 105.942 64.912 L 105.951 64.92 L 106.335 65.277 L 106.724 65.639 L 107.112 66 L 107.501 66.362 L 107.839 66.676 L 108.107 66.943 L 108.383 67.232 L 108.657 67.536 L 108.93 67.851 L 109.224 68.203 L 109.512 68.562 L 109.523 68.576 L 109.526 68.58 L 109.768 68.891 L 110.061 69.278 L 110.083 69.307 L 110.088 69.314 L 110.341 69.659 L 110.358 69.682 L 110.359 69.684 L 110.603 70.025 L 110.907 70.46 L 111.151 70.816 L 111.426 71.227 L 111.712 71.663 L 111.956 72.042 L 112.24 72.491 L 112.481 72.88 L 112.48 72.88 L 112.757 73.333 L 112.987 73.718 L 113.256 74.175 L 113.489 74.578 L 113.752 75.039 L 113.978 75.441 L 114.219 75.877 L 114.469 76.339 L 114.69 76.753 L 114.924 77.198 L 115.153 77.64 L 115.394 78.113 L 115.619 78.561 L 115.824 78.978 L 116.04 79.423 L 116.264 79.894 L 116.467 80.326 L 116.689 80.808 L 116.88 81.229 L 116.879 81.229 L 117.094 81.714 L 117.278 82.137 L 117.473 82.595 L 117.66 83.042 L 117.859 83.531 L 118.027 83.951 L 118.216 84.438 L 118.398 84.915 L 118.549 85.323 L 118.711 85.775 L 118.872 86.238 L 119.042 86.741 L 119.192 87.199 L 119.199 87.221 L 119.366 87.724 L 119.39 87.796 L 119.565 88.297 L 119.612 88.425 L 119.801 88.921 L 119.899 89.16 L 120.114 89.645 L 120.349 90.105 L 120.614 90.564 L 121.175 91.341 L 121.174 91.344 L 121.027 93.061 L 121.076 93.586 L 121.285 94.611 L 121.446 95.116 L 121.612 95.561 L 121.822 96.049 L 121.986 96.393 L 122.233 96.862 L 122.322 97.023 L 122.587 97.483 L 122.697 97.664 L 122.981 98.111 L 123.451 98.734 L 123.803 99.13 L 124.441 99.729 L 124.859 100.056 L 125.062 100.188 L 125.034 100.26 L 124.963 102.079 L 125.036 102.564 L 125.242 103.408 L 125.413 103.91 L 125.428 103.954 L 125.604 104.455 L 125.611 104.474 L 125.789 104.974 L 125.799 105.001 L 126.161 105.999 L 126.168 106.018 L 126.534 107.014 L 126.54 107.03 L 126.725 107.528 L 126.726 107.531 L 127.096 108.525 L 127.099 108.533 L 127.285 109.03 L 127.288 109.038 L 127.475 109.535 L 127.476 109.538 L 127.663 110.034 L 127.665 110.039 L 127.847 110.52 L 128.03 111.009 L 128.208 111.487 L 128.384 111.966 L 128.561 112.454 L 128.736 112.941 L 128.909 113.426 L 129.08 113.911 L 129.255 114.412 L 129.256 114.412 L 129.416 114.878 L 129.58 115.361 L 129.749 115.864 L 129.75 115.864 L 129.909 116.339 L 129.908 116.339 L 130.074 116.843 L 130.075 116.843 L 130.228 117.312 L 130.386 117.806 L 130.542 118.296 L 130.692 118.774 L 130.848 119.281 L 130.998 119.77 L 130.997 119.77 L 131.143 120.25 L 131.289 120.742 L 131.432 121.232 L 131.579 121.742 L 131.58 121.742 L 131.715 122.215 L 131.853 122.707 L 131.992 123.211 L 131.991 123.211 L 132.124 123.697 L 132.261 124.209 L 132.262 124.209 L 132.387 124.686 L 132.515 125.178 L 132.514 125.178 L 132.641 125.678 L 132.77 126.192 L 132.887 126.669 L 133.006 127.159 L 133.123 127.655 L 133.237 128.144 L 133.352 128.654 L 133.462 129.145 L 133.571 129.644 L 133.676 130.135 L 133.78 130.637 L 133.883 131.14 L 133.981 131.631 L 134.081 132.148 L 134.173 132.628 L 134.172 132.628 L 134.268 133.15 L 134.269 133.15 L 134.354 133.628 L 134.445 134.15 L 134.446 134.15 L 134.531 134.653 L 134.61 135.132 L 134.689 135.627 L 134.766 136.126 L 134.841 136.633 L 134.917 137.158 L 134.984 137.646 L 135.05 138.136 L 135.049 138.136 L 135.117 138.662 L 135.175 139.134 L 135.234 139.634 L 135.233 139.634 L 135.289 140.133 L 135.345 140.661 L 135.346 140.661 L 135.393 141.134 L 135.44 141.634 L 135.487 142.16 L 135.528 142.649 L 135.566 143.139 L 135.602 143.64 L 135.636 144.158 L 135.665 144.646 L 135.664 144.646 L 135.693 145.176 L 135.694 145.176 L 135.716 145.642 L 135.715 145.642 L 135.736 146.144 L 135.754 146.637 L 135.768 147.141 L 135.78 147.671 L 135.788 148.138 L 135.793 148.641 L 135.795 149.144 L 135.794 149.638 L 135.789 150.169 L 135.781 150.635 L 135.77 151.129 L 135.755 151.632 L 135.738 152.117 L 135.715 152.629 L 135.689 153.159 L 135.663 153.615 L 135.662 153.615 L 135.628 154.144 L 135.596 154.601 L 135.595 154.601 L 135.553 155.13 L 135.554 155.13 L 135.514 155.585 L 135.467 156.077 L 135.414 156.596 L 135.362 157.068 L 135.301 157.595 L 135.246 158.04 L 135.181 158.528 L 135.112 159.017 L 135.039 159.507 L 134.96 160.015 L 134.878 160.507 L 134.801 160.957 L 134.712 161.444 L 134.615 161.958 L 134.526 162.403 L 134.426 162.884 L 134.314 163.402 L 134.215 163.84 L 134.103 164.318 L 133.978 164.833 L 133.869 165.266 L 133.746 165.736 L 133.607 166.249 L 133.608 166.249 L 133.488 166.674 L 133.35 167.147 L 133.198 167.655 L 133.069 168.073 L 132.922 168.532 L 132.765 169.006 L 132.613 169.456 L 132.437 169.957 L 132.287 170.375 L 132.121 170.823 L 132.12 170.823 L 131.93 171.318 L 131.768 171.732 L 131.584 172.186 L 131.388 172.658 L 131.22 173.051 L 131.038 173.445 L 130.875 173.783 L 130.652 174.22 L 130.473 174.553 L 130.256 174.939 L 130.022 175.335 L 129.801 175.69 L 129.577 176.034 L 129.328 176.4 L 129.088 176.737 L 128.84 177.069 L 128.553 177.438 L 128.302 177.746 L 128.008 178.092 L 127.727 178.411 L 127.438 178.724 L 127.172 179.002 L 126.797 179.377 L 126.526 179.637 L 126.206 179.935 L 125.881 180.224 L 125.502 180.55 L 125.207 180.793 L 124.855 181.073 L 124.483 181.359 L 124.105 181.64 L 123.784 181.869 L 123.41 182.129 L 123.016 182.39 L 122.627 182.641 L 122.274 182.861 L 121.84 183.123 L 121.493 183.325 L 121.064 183.566 L 120.679 183.776 L 120.236 184.009 L 119.795 184.234 L 119.38 184.439 L 118.991 184.625 L 118.57 184.82 L 118.102 185.031 L 117.691 185.209 L 117.233 185.402 L 116.819 185.571 L 116.337 185.762 L 115.887 185.935 L 115.624 186.033 L 115.674 185.97 L 115.696 185.941 L 115.812 185.792 L 115.825 185.776 L 115.94 185.627 L 115.962 185.598 L 116.076 185.448 L 116.097 185.42 L 116.21 185.269 L 116.232 185.24 L 116.344 185.088 L 116.365 185.059 L 116.476 184.906 L 116.488 184.889 L 116.598 184.736 L 116.619 184.706 L 116.728 184.552 L 116.761 184.506 L 116.975 184.196 L 116.995 184.166 L 117.101 184.01 L 117.133 183.962 L 117.237 183.805 L 117.245 183.794 L 117.349 183.636 L 117.361 183.618 L 117.464 183.46 L 117.495 183.411 L 117.596 183.252 L 117.603 183.241 L 117.704 183.081 L 117.727 183.044 L 117.826 182.884 L 117.833 182.872 L 117.932 182.711 L 117.955 182.673 L 118.052 182.512 L 118.059 182.501 L 118.156 182.339 L 118.185 182.29 L 118.375 181.964 L 118.404 181.914 L 118.59 181.586 L 118.618 181.535 L 118.709 181.37 L 118.715 181.36 L 118.806 181.194 L 118.828 181.154 L 119.006 180.822 L 119.033 180.771 L 119.12 180.604 L 119.125 180.593 L 119.212 180.425 L 119.233 180.384 L 119.403 180.048 L 119.419 180.017 L 119.503 179.848 L 119.528 179.797 L 119.692 179.457 L 119.702 179.436 L 119.783 179.266 L 119.798 179.235 L 119.878 179.064 L 119.887 179.042 L 119.966 178.871 L 119.981 178.84 L 120.059 178.668 L 120.068 178.647 L 120.145 178.475 L 120.159 178.444 L 120.235 178.271 L 120.245 178.249 L 120.32 178.076 L 120.329 178.054 L 120.403 177.881 L 120.407 177.872 L 120.481 177.698 L 120.499 177.654 L 120.571 177.48 L 120.58 177.458 L 120.651 177.284 L 120.655 177.275 L 120.726 177.1 L 120.739 177.069 L 120.809 176.893 L 120.814 176.88 L 120.883 176.705 L 120.895 176.674 L 120.963 176.498 L 120.972 176.475 L 121.039 176.299 L 121.05 176.268 L 121.116 176.091 L 121.125 176.068 L 121.255 175.714 L 121.274 175.66 L 121.334 175.491 L 121.397 175.314 L 121.411 175.275 L 121.473 175.096 L 121.478 175.08 L 121.539 174.902 L 121.55 174.871 L 121.67 174.513 L 121.685 174.467 L 121.743 174.288 L 121.745 174.28 L 121.803 174.1 L 121.809 174.084 L 121.866 173.905 L 121.875 173.875 L 121.931 173.695 L 121.941 173.664 L 121.994 173.49 L 122.049 173.31 L 122.058 173.279 L 122.112 173.098 L 122.126 173.051 L 122.171 172.894 L 122.224 172.713 L 122.239 172.658 L 122.29 172.476 L 122.297 172.452 L 122.345 172.277 L 122.395 172.096 L 122.405 172.059 L 122.454 171.876 L 122.459 171.858 L 122.555 171.494 L 122.569 171.439 L 122.707 170.89 L 122.719 170.842 L 122.763 170.659 L 122.764 170.653 L 122.808 170.469 L 122.814 170.445 L 122.857 170.261 L 122.862 170.242 L 122.904 170.059 L 122.905 170.053 L 122.947 169.869 L 122.958 169.82 L 122.998 169.636 L 122.999 169.631 L 123.038 169.451 L 123.078 169.267 L 123.089 169.212 L 123.164 168.848 L 123.202 168.664 L 123.213 168.609 L 123.249 168.424 L 123.25 168.419 L 123.286 168.233 L 123.29 168.213 L 123.36 167.843 L 123.366 167.813 L 123.4 167.627 L 123.403 167.607 L 123.436 167.422 L 123.441 167.392 L 123.505 167.02 L 123.51 166.995 L 123.572 166.623 L 123.576 166.598 L 123.606 166.412 L 123.61 166.383 L 123.638 166.2 L 123.639 166.2 L 123.668 166.014 L 123.672 165.985 L 123.7 165.798 L 123.703 165.777 L 123.73 165.591 L 123.731 165.587 L 123.758 165.4 L 123.761 165.375 L 123.787 165.188 L 123.791 165.162 L 123.841 164.788 L 123.844 164.763 L 123.892 164.389 L 123.895 164.364 L 123.918 164.177 L 123.921 164.151 L 123.965 163.777 L 123.969 163.749 L 123.99 163.561 L 123.989 163.561 L 124.01 163.377 L 124.013 163.348 L 124.033 163.16 L 124.036 163.138 L 124.055 162.951 L 124.055 162.948 L 124.074 162.76 L 124.077 162.734 L 124.113 162.358 L 124.115 162.335 L 124.132 162.148 L 124.132 162.146 L 124.149 161.958 L 124.151 161.932 L 124.167 161.744 L 124.169 161.719 L 124.199 161.343 L 124.201 161.317 L 124.229 160.941 L 124.231 160.915 L 124.244 160.727 L 124.244 160.726 L 124.257 160.537 L 124.259 160.513 L 124.271 160.325 L 124.281 160.188 L 124.285 160.137 L 124.295 159.974 L 124.308 159.786 L 124.31 159.759 L 124.322 159.57 L 124.323 159.546 L 124.356 158.982 L 124.358 158.955 L 124.378 158.579 L 124.379 158.554 L 124.388 158.366 L 124.388 158.364 L 124.397 158.175 L 124.398 158.151 L 124.406 157.963 L 124.406 157.962 L 124.414 157.773 L 124.415 157.748 L 124.422 157.56 L 124.429 157.371 L 124.43 157.345 L 124.436 157.157 L 124.442 156.968 L 124.443 156.942 L 124.448 156.754 L 124.453 156.565 L 124.454 156.539 L 124.458 156.351 L 124.462 156.162 L 124.462 156.137 L 124.465 155.949 L 124.466 155.922 L 124.468 155.733 L 124.47 155.545 L 124.47 155.52 L 124.472 155.142 L 124.472 155.09 L 124.471 154.928 L 124.471 154.713 L 124.47 154.525 L 124.47 154.5 L 124.468 154.311 L 124.467 154.285 L 124.464 154.096 L 124.461 153.908 L 124.461 153.882 L 124.457 153.693 L 124.453 153.505 L 124.451 153.454 L 124.445 153.265 L 124.439 153.077 L 124.433 152.888 L 124.432 152.861 L 124.425 152.673 L 124.424 152.648 L 124.416 152.459 L 124.415 152.432 L 124.406 152.244 L 124.405 152.219 L 124.385 151.843 L 124.383 151.816 L 124.361 151.44 L 124.358 151.389 L 124.332 151.013 L 124.33 150.986 L 124.316 150.798 L 124.314 150.772 L 124.284 150.396 L 124.28 150.343 L 124.263 150.156 L 124.246 149.97 L 124.244 149.945 L 124.208 149.569 L 124.202 149.515 L 124.182 149.328 L 124.162 149.143 L 124.156 149.089 L 124.112 148.715 L 124.11 148.692 L 124.087 148.504 L 124.086 148.501 L 124.063 148.314 L 124.057 148.264 L 124.032 148.077 L 124.028 148.051 L 124.002 147.864 L 124.002 147.861 L 123.976 147.675 L 123.973 147.653 L 123.946 147.466 L 123.942 147.437 L 123.914 147.251 L 123.91 147.23 L 123.881 147.043 L 123.877 147.014 L 123.847 146.828 L 123.843 146.803 L 123.781 146.431 L 123.772 146.381 L 123.739 146.195 L 123.738 146.19 L 123.705 146.005 L 123.702 145.985 L 123.668 145.799 L 123.662 145.769 L 123.627 145.584 L 123.622 145.559 L 123.586 145.374 L 123.544 145.164 L 123.539 145.14 L 123.501 144.955 L 123.496 144.93 L 123.457 144.745 L 123.456 144.74 L 123.417 144.556 L 123.406 144.506 L 123.324 144.138 L 123.319 144.114 L 123.277 143.93 L 123.271 143.905 L 123.228 143.721 L 123.221 143.691 L 123.177 143.508 L 123.171 143.484 L 123.126 143.301 L 123.12 143.277 L 123.028 142.911 L 123.016 142.862 L 122.968 142.679 L 122.966 142.673 L 122.918 142.491 L 122.912 142.467 L 122.863 142.285 L 122.856 142.261 L 122.806 142.079 L 122.798 142.048 L 122.747 141.867 L 122.742 141.85 L 122.688 141.661 L 122.636 141.48 L 122.629 141.456 L 122.576 141.275 L 122.56 141.221 L 122.505 141.041 L 122.452 140.867 L 122.442 140.836 L 122.33 140.476 L 122.313 140.422 L 122.255 140.243 L 122.254 140.243 L 122.199 140.071 L 122.189 140.04 L 122.13 139.861 L 122.123 139.838 L 122.063 139.659 L 122.06 139.651 L 122 139.473 L 121.987 139.434 L 121.925 139.255 L 121.922 139.247 L 121.86 139.069 L 121.852 139.047 L 121.789 138.869 L 121.786 138.86 L 121.723 138.683 L 121.707 138.638 L 121.577 138.284 L 121.568 138.261 L 121.436 137.907 L 121.425 137.876 L 121.358 137.7 L 121.349 137.677 L 121.281 137.501 L 121.272 137.479 L 121.203 137.303 L 121.2 137.294 L 121.131 137.119 L 121.122 137.097 L 120.982 136.747 L 120.964 136.703 L 120.892 136.528 L 120.826 136.367 L 120.808 136.323 L 120.662 135.975 L 120.653 135.953 L 120.579 135.779 L 120.575 135.77 L 120.501 135.597 L 120.492 135.575 L 120.342 135.229 L 120.332 135.207 L 120.256 135.034 L 120.242 135.003 L 120.088 134.659 L 120.079 134.638 L 120.001 134.466 L 119.996 134.456 L 119.918 134.285 L 119.913 134.273 L 119.834 134.101 L 119.829 134.092 L 119.75 133.921 L 119.741 133.899 L 119.661 133.728 L 119.656 133.718 L 119.576 133.548 L 119.571 133.537 L 119.49 133.366 L 119.475 133.335 L 119.311 132.995 L 119.296 132.964 L 119.13 132.626 L 119.109 132.585 L 119.024 132.416 L 119.019 132.406 L 118.934 132.238 L 118.924 132.217 L 118.838 132.049 L 118.822 132.018 L 118.735 131.851 L 118.724 131.831 L 118.548 131.497 L 118.532 131.466 L 118.443 131.3 L 118.432 131.28 L 118.342 131.114 L 118.325 131.084 L 118.143 130.754 L 118.115 130.703 L 117.836 130.211 L 117.807 130.161 L 117.617 129.835 L 117.599 129.805 L 117.503 129.643 L 117.492 129.624 L 117.395 129.462 L 117.377 129.432 L 117.181 129.11 L 117.169 129.091 L 117.07 128.93 L 117.052 128.9 L 116.952 128.74 L 116.933 128.71 L 116.731 128.392 L 116.719 128.373 L 116.617 128.214 L 116.598 128.184 L 116.495 128.026 L 116.483 128.008 L 116.379 127.85 L 116.371 127.839 L 116.267 127.682 L 116.247 127.652 L 116.142 127.496 L 116.138 127.49 L 116.032 127.333 L 116.016 127.309 L 115.91 127.154 L 115.886 127.119 L 115.67 126.809 L 115.661 126.797 L 115.553 126.643 L 115.529 126.609 L 115.419 126.455 L 115.41 126.442 L 115.3 126.289 L 115.279 126.26 L 115.057 125.956 L 115.033 125.923 L 114.92 125.771 L 114.91 125.758 L 114.797 125.607 L 114.788 125.595 L 114.675 125.445 L 114.65 125.412 L 114.42 125.112 L 114.398 125.084 L 114.282 124.935 L 114.272 124.922 L 114.156 124.774 L 114.144 124.758 L 114.027 124.61 L 114.004 124.582 L 113.886 124.435 L 113.863 124.407 L 113.625 124.115 L 113.613 124.099 L 113.493 123.953 L 113.47 123.925 L 113.349 123.78 L 113.338 123.768 L 113.217 123.624 L 113.204 123.609 L 113.082 123.465 L 113.07 123.45 L 112.947 123.306 L 112.925 123.28 L 112.802 123.138 L 112.789 123.123 L 112.541 122.839 L 112.504 122.798 L 112.378 122.657 L 112.366 122.644 L 112.114 122.364 L 112.077 122.323 L 111.949 122.184 L 111.835 122.059 L 111.797 122.018 L 111.668 121.88 L 111.656 121.867 L 111.527 121.73 L 111.514 121.717 L 111.384 121.58 L 111.372 121.567 L 111.242 121.431 L 111.229 121.417 L 111.098 121.281 L 111.073 121.255 L 110.941 121.12 L 110.928 121.107 L 110.796 120.973 L 110.783 120.96 L 110.65 120.826 L 110.625 120.801 L 110.357 120.535 L 110.331 120.509 L 110.196 120.377 L 110.182 120.364 L 110.047 120.233 L 110.035 120.221 L 109.899 120.09 L 109.885 120.077 L 109.749 119.947 L 109.723 119.922 L 109.585 119.792 L 109.448 119.663 L 109.408 119.626 L 109.269 119.498 L 109.268 119.497 L 109.13 119.37 L 109.104 119.346 L 108.824 119.092 L 108.783 119.055 L 108.36 118.68 L 108.32 118.645 L 108.177 118.521 L 108.162 118.508 L 108.019 118.385 L 108.004 118.373 L 107.861 118.251 L 107.848 118.24 L 107.704 118.118 L 107.689 118.105 L 107.545 117.984 L 107.533 117.973 L 107.388 117.852 L 107.36 117.829 L 107.214 117.709 L 107.198 117.697 L 107.052 117.578 L 107.04 117.567 L 106.893 117.448 L 106.877 117.436 L 106.73 117.318 L 106.702 117.295 L 106.554 117.178 L 106.538 117.166 L 106.39 117.05 L 106.377 117.04 L 106.079 116.808 L 106.047 116.783 L 105.898 116.669 L 105.873 116.65 L 105.722 116.536 L 105.584 116.431 L 105.527 116.388 L 105.375 116.276 L 105.236 116.173 L 105.211 116.155 L 105.058 116.043 L 105.054 116.04 L 104.902 115.929 L 104.706 115.789 L 104.702 115.785 L 104.549 115.676 L 104.536 115.668 L 104.382 115.559 L 104.353 115.538 L 104.198 115.43 L 104.181 115.418 L 103.871 115.204 L 103.841 115.184 L 103.685 115.078 L 103.655 115.058 L 103.341 114.848 L 103.323 114.836 L 103.166 114.732 L 103.137 114.712 L 102.821 114.506 L 102.791 114.487 L 102.632 114.385 L 102.613 114.373 L 102.295 114.171 L 102.265 114.152 L 102.105 114.052 L 102.075 114.034 L 101.914 113.935 L 101.907 113.93 L 101.747 113.832 L 101.724 113.818 L 101.562 113.72 L 101.412 113.629 L 101.363 113.6 L 101.039 113.408 L 101.009 113.39 L 100.683 113.2 L 100.652 113.182 L 100.488 113.088 L 100.469 113.077 L 100.305 112.984 L 100.285 112.973 L 100.121 112.881 L 100.11 112.875 L 99.945 112.783 L 99.925 112.772 L 99.76 112.681 L 99.75 112.675 L 99.584 112.584 L 99.564 112.573 L 99.398 112.483 L 99.378 112.472 L 99.212 112.383 L 99.192 112.373 L 99.026 112.285 L 99.015 112.279 L 98.848 112.191 L 98.817 112.175 L 98.649 112.088 L 98.639 112.083 L 98.472 111.997 L 98.462 111.991 L 98.294 111.905 L 98.273 111.895 L 98.105 111.81 L 98.095 111.805 L 97.926 111.72 L 97.885 111.699 L 97.547 111.533 L 97.536 111.528 L 97.366 111.445 L 97.325 111.425 L 96.985 111.263 L 96.975 111.258 L 96.804 111.177 L 96.761 111.158 L 96.419 111 L 96.388 110.985 L 96.044 110.829 L 96.023 110.82 L 95.851 110.743 L 95.829 110.733 L 95.657 110.657 L 95.648 110.653 L 95.475 110.577 L 95.453 110.567 L 95.28 110.492 L 95.249 110.479 L 95.075 110.405 L 94.911 110.335 L 94.88 110.322 L 94.706 110.249 L 94.684 110.24 L 94.51 110.168 L 94.479 110.155 L 93.954 109.942 L 93.91 109.924 L 93.735 109.855 L 93.726 109.852 L 93.55 109.783 L 93.536 109.777 L 93.361 109.709 L 93.353 109.706 L 93.177 109.638 L 93.146 109.626 L 92.969 109.559 L 92.954 109.554 L 92.77 109.485 L 92.593 109.419 L 92.57 109.41 L 92.393 109.345 L 92.362 109.334 L 92.184 109.27 L 92.17 109.265 L 91.993 109.202 L 91.984 109.199 L 91.628 109.073 L 91.582 109.057 L 91.404 108.996 L 91.397 108.993 L 91.218 108.932 L 91.218 108.933 L 91.047 108.874 L 90.993 108.856 L 90.635 108.738 L 90.628 108.735 L 90.448 108.676 L 90.408 108.663 L 90.229 108.606 L 90.222 108.604 L 89.862 108.49 L 89.815 108.475 L 89.635 108.42 L 89.47 108.369 L 89.25 108.303 L 89.243 108.301 L 89.062 108.247 L 89.039 108.24 L 88.858 108.187 L 88.834 108.18 L 88.472 108.076 L 88.441 108.068 L 88.266 108.019 L 88.266 108.018 L 88.085 107.967 L 88.054 107.959 L 87.872 107.909 L 87.848 107.902 L 87.666 107.853 L 87.66 107.852 L 87.477 107.803 L 87.435 107.792 L 87.253 107.745 L 87.247 107.743 L 87.064 107.696 L 87.015 107.684 L 86.649 107.594 L 86.619 107.587 L 86.435 107.543 L 86.416 107.538 L 86.233 107.495 L 86.228 107.494 L 86.044 107.451 L 85.995 107.44 L 85.627 107.358 L 85.602 107.352 L 85.418 107.312 L 85.413 107.311 L 85.228 107.271 L 85.184 107.262 L 85 107.224 L 84.994 107.223 L 84.809 107.185 L 84.785 107.18 L 84.365 107.096 L 84.18 107.061 L 84.175 107.06 L 83.989 107.025 L 83.969 107.021 L 83.784 106.987 L 83.754 106.982 L 83.568 106.949 L 83.388 106.917 L 83.333 106.907 L 82.961 106.845 L 82.957 106.845 L 82.77 106.814 L 82.724 106.806 L 82.352 106.748 L 82.323 106.744 L 82.136 106.716 L 82.115 106.713 L 81.929 106.686 L 81.925 106.685 L 81.738 106.658 L 81.687 106.651 L 81.126 106.576 L 81.076 106.57 L 80.702 106.524 L 80.673 106.52 L 80.485 106.498 L 80.463 106.496 L 80.089 106.454 L 80.06 106.451 L 79.872 106.431 L 79.847 106.428 L 79.659 106.409 L 79.636 106.407 L 79.449 106.389 L 79.446 106.388 L 79.258 106.37 L 79.233 106.368 L 79.045 106.351 L 79.019 106.349 L 78.831 106.333 L 78.806 106.331 L 78.43 106.301 L 78.404 106.299 L 78.028 106.271 L 77.977 106.267 L 77.601 106.243 L 77.574 106.241 L 77.385 106.23 L 77.385 106.231 L 77.147 106.217 L 76.959 106.208 L 76.957 106.208 L 76.77 106.199 L 76.582 106.19 L 76.53 106.188 L 76.342 106.181 L 76.153 106.174 L 76.127 106.173 L 75.939 106.167 L 75.75 106.161 L 75.724 106.16 L 75.536 106.155 L 75.51 106.154 L 75.321 106.15 L 75.295 106.15 L 75.106 106.147 L 74.918 106.144 L 74.892 106.143 L 74.703 106.141 L 74.678 106.141 L 74.49 106.14 L 74.301 106.139 L 74.06 106.139 L 73.872 106.14 L 73.847 106.14 L 73.658 106.142 L 73.47 106.144 L 73.444 106.145 L 73.255 106.148 L 73.067 106.151 L 73.015 106.152 L 72.637 106.162 L 72.449 106.167 L 72.424 106.168 L 72.235 106.174 L 72.208 106.175 L 72.02 106.182 L 71.994 106.183 L 71.618 106.199 L 71.591 106.2 L 71.403 106.209 L 71.379 106.21 L 71.19 106.22 L 71.163 106.222 L 70.787 106.244 L 70.761 106.245 L 70.573 106.257 L 70.386 106.269 L 70.359 106.271 L 70.171 106.284 L 70.145 106.286 L 69.769 106.314 L 69.743 106.316 L 69.555 106.331 L 69.53 106.333 L 69.342 106.349 L 69.316 106.351 L 69.128 106.368 L 69.126 106.368 L 68.939 106.385 L 68.916 106.387 L 68.54 106.423 L 68.514 106.426 L 68.326 106.445 L 68.298 106.448 L 68.111 106.468 L 68.088 106.47 L 67.9 106.491 L 67.897 106.492 L 67.71 106.513 L 67.685 106.516 L 67.501 106.538 L 67.501 106.537 L 67.313 106.559 L 67.284 106.563 L 67.097 106.586 L 67.072 106.589 L 66.885 106.613 L 66.86 106.616 L 66.486 106.666 L 66.46 106.67 L 66.273 106.696 L 66.27 106.696 L 66.084 106.722 L 66.062 106.725 L 65.875 106.752 L 65.846 106.756 L 65.66 106.784 L 65.66 106.785 L 65.477 106.812 L 65.448 106.816 L 65.262 106.845 L 65.237 106.849 L 65.051 106.879 L 65.03 106.883 L 64.843 106.914 L 64.839 106.914 L 64.653 106.945 L 64.648 106.946 L 64.463 106.977 L 64.418 106.985 L 64.046 107.051 L 64.016 107.056 L 63.836 107.089 L 63.65 107.123 L 63.62 107.129 L 63.435 107.164 L 63.41 107.169 L 63.23 107.204 L 63.044 107.24 L 63.009 107.247 L 62.825 107.284 L 62.806 107.288 L 62.436 107.364 L 62.406 107.37 L 62.227 107.408 L 62.042 107.447 L 61.987 107.459 L 61.435 107.582 L 61.411 107.587 L 61.227 107.629 L 61.202 107.635 L 61.018 107.678 L 60.988 107.685 L 60.622 107.773 L 60.604 107.777 L 60.42 107.822 L 60.414 107.824 L 60.231 107.869 L 60.207 107.875 L 60.024 107.921 L 59.993 107.929 L 59.817 107.974 L 59.634 108.021 L 59.58 108.035 L 59.398 108.084 L 59.24 108.126 L 59.192 108.139 L 58.646 108.289 L 58.591 108.304 L 58.417 108.354 L 58.228 108.408 L 58.047 108.46 L 58 108.474 L 57.819 108.528 L 57.812 108.53 L 57.639 108.582 L 57.458 108.636 L 57.427 108.645 L 57.247 108.7 L 57.223 108.708 L 57.043 108.764 L 57.02 108.771 L 56.66 108.885 L 56.629 108.895 L 56.45 108.953 L 56.45 108.954 L 56.278 109.009 L 56.224 109.026 L 56.045 109.086 L 56.045 109.087 L 55.889 109.138 L 55.835 109.156 L 55.664 109.215 L 55.664 109.214 L 55.485 109.275 L 55.454 109.286 L 55.098 109.41 L 55.076 109.418 L 54.898 109.481 L 54.866 109.492 L 54.512 109.62 L 54.467 109.637 L 54.313 109.694 L 54.136 109.759 L 54.09 109.776 L 53.913 109.843 L 53.905 109.846 L 53.553 109.98 L 53.508 109.998 L 53.332 110.067 L 53.323 110.07 L 53.148 110.139 L 52.981 110.205 L 52.928 110.226 L 52.753 110.297 L 52.744 110.301 L 52.579 110.368 L 52.404 110.439 L 52.351 110.461 L 52.177 110.534 L 52.025 110.597 L 51.981 110.615 L 51.807 110.689 L 51.798 110.693 L 51.625 110.767 L 51.603 110.776 L 51.43 110.851 L 51.408 110.861 L 51.235 110.937 L 51.226 110.941 L 51.054 111.017 L 51.032 111.027 L 50.86 111.104 L 50.839 111.113 L 50.495 111.269 L 50.464 111.284 L 50.122 111.442 L 50.079 111.461 L 49.908 111.542 L 49.898 111.547 L 49.558 111.709 L 49.537 111.719 L 49.367 111.801 L 49.336 111.816 L 49.167 111.899 L 49.147 111.909 L 48.809 112.077 L 48.778 112.093 L 48.61 112.178 L 48.589 112.188 L 48.253 112.36 L 48.233 112.371 L 48.065 112.458 L 48.034 112.474 L 47.867 112.562 L 47.856 112.568 L 47.69 112.656 L 47.67 112.666 L 47.504 112.755 L 47.484 112.766 L 47.152 112.946 L 47.122 112.963 L 46.957 113.054 L 46.937 113.065 L 46.772 113.157 L 46.761 113.163 L 46.597 113.255 L 46.577 113.266 L 46.413 113.359 L 46.394 113.37 L 46.23 113.464 L 46.199 113.482 L 45.71 113.767 L 45.661 113.796 L 45.499 113.893 L 45.488 113.9 L 45.327 113.997 L 45.308 114.008 L 44.986 114.204 L 44.948 114.227 L 44.787 114.327 L 44.776 114.334 L 44.616 114.434 L 44.604 114.442 L 44.445 114.542 L 44.427 114.553 L 44.268 114.654 L 44.249 114.666 L 44.09 114.768 L 44.06 114.787 L 43.744 114.993 L 43.715 115.013 L 43.558 115.117 L 43.54 115.129 L 43.383 115.234 L 43.371 115.242 L 43.215 115.347 L 43.179 115.371 L 43.023 115.478 L 42.885 115.572 L 42.838 115.604 L 42.683 115.712 L 42.671 115.721 L 42.517 115.829 L 42.5 115.841 L 42.346 115.95 L 42.329 115.962 L 42.175 116.072 L 42.162 116.081 L 42.009 116.191 L 41.98 116.212 L 41.828 116.323 L 41.811 116.335 L 41.507 116.559 L 41.478 116.581 L 41.327 116.694 L 41.299 116.715 L 40.999 116.943 L 40.97 116.965 L 40.821 117.08 L 40.805 117.093 L 40.656 117.209 L 40.627 117.231 L 40.331 117.465 L 40.303 117.488 L 40.156 117.606 L 40.14 117.618 L 39.993 117.737 L 39.981 117.748 L 39.835 117.867 L 39.807 117.89 L 39.662 118.01 L 39.646 118.022 L 39.501 118.143 L 39.474 118.167 L 39.186 118.411 L 39.158 118.434 L 39.015 118.557 L 39.002 118.568 L 38.86 118.691 L 38.831 118.717 L 38.689 118.842 L 38.676 118.853 L 38.394 119.103 L 38.353 119.14 L 38.213 119.267 L 38.2 119.279 L 38.061 119.406 L 38.047 119.419 L 37.908 119.547 L 37.895 119.559 L 37.757 119.687 L 37.73 119.712 L 37.593 119.841 L 37.58 119.854 L 37.443 119.984 L 37.416 120.009 L 37.28 120.14 L 37.268 120.152 L 37.133 120.283 L 37.119 120.296 L 36.984 120.428 L 36.958 120.454 L 36.824 120.587 L 36.811 120.599 L 36.678 120.732 L 36.666 120.745 L 36.533 120.879 L 36.507 120.905 L 36.375 121.04 L 36.35 121.066 L 36.219 121.202 L 36.206 121.216 L 36.076 121.352 L 36.064 121.365 L 35.934 121.502 L 35.909 121.528 L 35.651 121.804 L 35.638 121.818 L 35.51 121.956 L 35.485 121.983 L 35.371 122.108 L 35.243 122.247 L 35.206 122.288 L 34.954 122.568 L 34.942 122.581 L 34.816 122.722 L 34.803 122.736 L 34.678 122.877 L 34.654 122.904 L 34.282 123.33 L 34.258 123.358 L 34.135 123.501 L 34.112 123.529 L 33.868 123.817 L 33.844 123.844 L 33.723 123.989 L 33.711 124.005 L 33.471 124.295 L 33.46 124.307 L 33.34 124.453 L 33.317 124.481 L 33.198 124.628 L 33.186 124.644 L 33.068 124.791 L 33.055 124.807 L 32.938 124.954 L 32.928 124.966 L 32.694 125.262 L 32.672 125.291 L 32.556 125.44 L 32.534 125.468 L 32.419 125.618 L 32.416 125.622 L 32.302 125.771 L 32.283 125.796 L 32.169 125.947 L 32.157 125.963 L 31.931 126.265 L 31.909 126.294 L 31.797 126.446 L 31.785 126.463 L 31.674 126.615 L 31.653 126.644 L 31.433 126.95 L 31.412 126.98 L 31.194 127.288 L 31.173 127.317 L 31.065 127.472 L 31.053 127.489 L 30.946 127.644 L 30.926 127.674 L 30.714 127.986 L 30.694 128.016 L 30.589 128.173 L 30.577 128.191 L 30.369 128.505 L 30.342 128.546 L 30.239 128.705 L 30.235 128.712 L 30.133 128.87 L 30.113 128.9 L 30.012 129.059 L 30.005 129.07 L 29.904 129.23 L 29.881 129.267 L 29.683 129.587 L 29.676 129.599 L 29.577 129.76 L 29.547 129.809 L 29.353 130.133 L 29.342 130.152 L 29.246 130.314 L 29.228 130.344 L 29.038 130.67 L 29.009 130.72 L 28.823 131.048 L 28.812 131.068 L 28.72 131.232 L 28.703 131.263 L 28.612 131.428 L 28.606 131.438 L 28.515 131.604 L 28.493 131.644 L 28.315 131.976 L 28.299 132.007 L 28.211 132.174 L 28.2 132.194 L 28.113 132.361 L 28.108 132.372 L 28.021 132.54 L 28 132.581 L 27.915 132.749 L 27.91 132.759 L 27.825 132.928 L 27.814 132.949 L 27.73 133.118 L 27.72 133.138 L 27.637 133.307 L 27.622 133.338 L 27.54 133.508 L 27.53 133.529 L 27.368 133.869 L 27.344 133.922 L 27.265 134.093 L 27.26 134.102 L 27.181 134.274 L 27.176 134.286 L 27.098 134.457 L 27.079 134.498 L 27.002 134.671 L 26.997 134.683 L 26.921 134.855 L 26.917 134.864 L 26.841 135.037 L 26.822 135.081 L 26.748 135.254 L 26.744 135.263 L 26.67 135.437 L 26.661 135.459 L 26.588 135.633 L 26.57 135.677 L 26.504 135.838 L 26.432 136.013 L 26.414 136.057 L 26.344 136.232 L 26.335 136.254 L 26.266 136.429 L 26.254 136.46 L 26.118 136.812 L 26.106 136.843 L 26.039 137.02 L 26.025 137.057 L 25.96 137.233 L 25.954 137.25 L 25.889 137.428 L 25.884 137.442 L 25.82 137.619 L 25.817 137.628 L 25.753 137.806 L 25.737 137.851 L 25.675 138.029 L 25.667 138.053 L 25.545 138.409 L 25.534 138.44 L 25.474 138.619 L 25.464 138.649 L 25.405 138.829 L 25.392 138.869 L 25.335 139.048 L 25.336 139.048 L 25.283 139.212 L 25.268 139.258 L 25.212 139.438 L 25.204 139.462 L 25.149 139.642 L 25.147 139.649 L 25.092 139.83 L 25.08 139.87 L 25.027 140.05 L 25.025 140.057 L 24.972 140.238 L 24.963 140.269 L 24.911 140.451 L 24.906 140.468 L 24.855 140.649 L 24.847 140.68 L 24.747 141.044 L 24.734 141.092 L 24.686 141.274 L 24.684 141.28 L 24.636 141.463 L 24.63 141.487 L 24.583 141.67 L 24.578 141.688 L 24.532 141.87 L 24.523 141.907 L 24.478 142.091 L 24.474 142.109 L 24.386 142.475 L 24.373 142.53 L 24.289 142.898 L 24.284 142.922 L 24.243 143.106 L 24.237 143.131 L 24.197 143.315 L 24.196 143.32 L 24.156 143.505 L 24.147 143.549 L 24.109 143.733 L 24.108 143.739 L 24.07 143.924 L 24.065 143.948 L 24.023 144.158 L 23.987 144.343 L 23.981 144.373 L 23.947 144.554 L 23.912 144.739 L 23.903 144.789 L 23.87 144.974 L 23.869 144.979 L 23.803 145.351 L 23.794 145.401 L 23.763 145.587 L 23.759 145.612 L 23.699 145.984 L 23.695 146.013 L 23.667 146.196 L 23.666 146.196 L 23.637 146.382 L 23.629 146.436 L 23.603 146.619 L 23.576 146.805 L 23.572 146.834 L 23.546 147.021 L 23.542 147.047 L 23.492 147.421 L 23.489 147.446 L 23.465 147.633 L 23.462 147.658 L 23.439 147.845 L 23.435 147.874 L 23.413 148.062 L 23.414 148.062 L 23.392 148.246 L 23.389 148.271 L 23.368 148.458 L 23.365 148.487 L 23.345 148.675 L 23.342 148.697 L 23.323 148.884 L 23.323 148.887 L 23.304 149.075 L 23.301 149.101 L 23.283 149.289 L 23.281 149.314 L 23.247 149.69 L 23.245 149.713 L 23.229 149.9 L 23.227 149.928 L 23.197 150.304 L 23.195 150.332 L 23.181 150.521 L 23.179 150.545 L 23.153 150.921 L 23.151 150.946 L 23.139 151.134 L 23.138 151.16 L 23.127 151.348 L 23.126 151.349 L 23.115 151.538 L 23.114 151.563 L 23.094 151.939 L 23.092 151.991 L 23.068 152.555 L 23.06 152.771 L 23.059 152.796 L 23.053 152.984 L 23.047 153.173 L 23.046 153.199 L 23.041 153.387 L 23.036 153.576 L 23.035 153.628 L 23.032 153.791 L 23.028 153.979 L 23.028 154.005 L 23.025 154.194 L 23.024 154.219 L 23.022 154.407 L 23.022 154.433 L 23.02 154.811 L 23.019 154.999 L 23.019 155.24 L 23.02 155.428 L 23.021 155.617 L 23.021 155.643 L 23.023 155.831 L 23.025 156.02 L 23.026 156.045 L 23.029 156.234 L 23.032 156.422 L 23.032 156.448 L 23.036 156.637 L 23.037 156.663 L 23.042 156.851 L 23.047 157.04 L 23.052 157.228 L 23.053 157.253 L 23.059 157.442 L 23.06 157.469 L 23.067 157.657 L 23.074 157.846 L 23.081 158.034 L 23.082 158.059 L 23.09 158.248 L 23.09 158.249 L 23.098 158.437 L 23.099 158.463 L 23.108 158.651 L 23.109 158.675 L 23.119 158.864 L 23.119 158.865 L 23.139 159.241 L 23.14 159.266 L 23.151 159.455 L 23.152 159.456 L 23.161 159.618 L 23.171 159.806 L 23.172 159.831 L 23.183 160.02 L 23.184 160.021 L 23.195 160.209 L 23.196 160.235 L 23.22 160.611 L 23.222 160.635 L 23.235 160.824 L 23.235 160.825 L 23.261 161.201 L 23.263 161.227 L 23.277 161.415 L 23.279 161.441 L 23.324 162.005 L 23.328 162.056 L 23.343 162.218 L 23.359 162.406 L 23.361 162.434 L 23.378 162.621 L 23.38 162.644 L 23.416 163.02 L 23.419 163.046 L 23.438 163.234 L 23.438 163.237 L 23.457 163.424 L 23.46 163.446 L 23.48 163.634 L 23.48 163.637 L 23.5 163.824 L 23.502 163.847 L 23.523 164.035 L 23.527 164.063 L 23.571 164.437 L 23.573 164.46 L 23.596 164.648 L 23.597 164.651 L 23.62 164.838 L 23.623 164.863 L 23.671 165.237 L 23.674 165.262 L 23.699 165.449 L 23.703 165.475 L 23.729 165.662 L 23.729 165.665 L 23.755 165.848 L 23.781 166.035 L 23.788 166.085 L 23.816 166.272 L 23.816 166.276 L 23.844 166.462 L 23.845 166.462 L 23.872 166.645 L 23.88 166.699 L 23.97 167.257 L 23.974 167.282 L 24.005 167.468 L 24.01 167.493 L 24.042 167.679 L 24.046 167.704 L 24.112 168.076 L 24.113 168.081 L 24.146 168.266 L 24.154 168.311 L 24.189 168.497 L 24.19 168.502 L 24.225 168.687 L 24.23 168.712 L 24.302 169.082 L 24.344 169.292 L 24.349 169.316 L 24.387 169.501 L 24.393 169.531 L 24.431 169.71 L 24.47 169.895 L 24.476 169.925 L 24.516 170.109 L 24.522 170.134 L 24.604 170.502 L 24.615 170.551 L 24.652 170.71 L 24.694 170.894 L 24.707 170.949 L 24.751 171.132 L 24.757 171.156 L 24.847 171.522 L 24.853 171.546 L 24.945 171.912 L 24.957 171.961 L 25.005 172.144 L 25.007 172.15 L 25.055 172.332 L 25.061 172.356 L 25.11 172.538 L 25.117 172.562 L 25.167 172.744 L 25.174 172.768 L 25.225 172.95 L 25.226 172.957 L 25.277 173.138 L 25.284 173.162 L 25.336 173.343 L 25.35 173.39 L 25.397 173.548 L 25.45 173.729 L 25.466 173.783 L 25.521 173.963 L 25.526 173.979 L 25.582 174.16 L 25.585 174.168 L 25.641 174.348 L 25.658 174.402 L 25.716 174.581 L 25.717 174.581 L 25.772 174.753 L 25.782 174.784 L 25.841 174.963 L 25.848 174.986 L 25.908 175.165 L 25.919 175.196 L 26.041 175.552 L 26.057 175.598 L 26.183 175.954 L 26.202 176.008 L 26.332 176.362 L 26.341 176.385 L 26.407 176.562 L 26.418 176.593 L 26.485 176.769 L 26.494 176.792 L 26.562 176.968 L 26.574 176.999 L 26.643 177.174 L 26.652 177.196 L 26.722 177.371 L 26.731 177.393 L 26.802 177.568 L 26.811 177.59 L 26.883 177.765 L 26.896 177.796 L 26.969 177.97 L 26.973 177.98 L 27.046 178.153 L 27.064 178.196 L 27.139 178.369 L 27.149 178.391 L 27.225 178.564 L 27.239 178.595 L 27.393 178.939 L 27.412 178.982 L 27.491 179.154 L 27.505 179.185 L 27.585 179.356 L 27.59 179.366 L 27.67 179.536 L 27.69 179.578 L 27.772 179.748 L 27.787 179.779 L 27.953 180.117 L 27.974 180.158 L 28.059 180.327 L 28.074 180.358 L 28.16 180.526 L 28.176 180.557 L 28.263 180.724 L 28.274 180.744 L 28.362 180.911 L 28.373 180.931 L 28.462 181.098 L 28.484 181.14 L 28.574 181.305 L 28.585 181.324 L 28.676 181.489 L 28.687 181.509 L 28.779 181.674 L 28.796 181.705 L 28.889 181.869 L 28.906 181.899 L 29 182.062 L 29.012 182.082 L 29.107 182.245 L 29.136 182.294 L 29.33 182.618 L 29.348 182.648 L 29.446 182.809 L 29.476 182.858 L 29.576 183.018 L 29.595 183.048 L 29.797 183.366 L 29.828 183.415 L 29.931 183.573 L 29.943 183.591 L 30.047 183.749 L 30.075 183.79 L 30.18 183.946 L 30.192 183.964 L 30.298 184.12 L 30.318 184.15 L 30.425 184.305 L 30.449 184.339 L 30.558 184.494 L 30.575 184.519 L 30.684 184.672 L 30.709 184.706 L 30.82 184.859 L 30.829 184.871 L 30.94 185.023 L 30.964 185.056 L 31.077 185.208 L 31.096 185.233 L 31.209 185.383 L 31.234 185.416 L 31.349 185.566 L 31.381 185.607 L 31.497 185.755 L 31.509 185.771 L 31.626 185.919 L 31.649 185.947 L 31.767 186.094 L 31.792 186.125 L 31.807 186.143 L 31.578 186.059 L 31.082 185.871 L 30.634 185.696 L 30.23 185.533 L 29.739 185.33 L 29.355 185.166 L 28.871 184.952 L 28.456 184.764 L 28.026 184.564 L 27.573 184.346 L 27.142 184.133 L 26.778 183.948 L 26.308 183.701 L 25.935 183.5 L 25.521 183.27 L 25.108 183.034 L 24.671 182.776 L 24.274 182.534 L 23.924 182.314 L 23.53 182.058 L 23.119 181.782 L 22.778 181.546 L 22.415 181.286 L 22.069 181.028 L 21.702 180.744 L 21.369 180.477 L 21.018 180.184 L 20.709 179.914 L 20.385 179.62 L 20.11 179.356 L 19.814 179.06 L 19.55 178.779 L 19.279 178.475 L 19.041 178.192 L 18.827 177.918 L 18.595 177.599 L 18.366 177.262 L 18.07 176.821 L 17.792 176.402 L 17.528 175.995 L 17.276 175.598 L 17.009 175.17 L 16.761 174.763 L 16.545 174.401 L 16.301 173.977 L 16.058 173.546 L 15.85 173.162 L 15.616 172.716 L 15.434 172.356 L 15.215 171.904 L 15.049 171.546 L 14.847 171.09 L 14.672 170.676 L 14.533 170.329 L 14.363 169.884 L 14.21 169.456 L 14.061 169.017 L 13.938 168.634 L 13.813 168.213 L 13.699 167.81 L 13.57 167.315 L 13.47 166.911 L 13.367 166.458 L 13.277 166.035 L 13.189 165.587 L 13.094 165.07 L 13.016 164.611 L 12.952 164.205 L 12.876 163.68 L 12.811 163.201 L 12.754 162.734 L 12.699 162.248 L 12.647 161.756 L 12.604 161.31 L 12.557 160.782 L 12.517 160.29 L 12.481 159.797 L 12.447 159.295 L 12.446 159.295 L 12.415 158.793 L 12.387 158.291 L 12.36 157.779 L 12.338 157.285 L 12.315 156.764 L 12.296 156.262 L 12.279 155.749 L 12.264 155.237 L 12.263 155.237 L 12.25 154.726 L 12.237 154.222 L 12.238 154.222 L 12.227 153.691 L 12.217 153.17 L 12.209 152.658 L 12.202 152.137 L 12.196 151.624 L 12.197 151.624 L 12.192 151.093 L 12.189 150.581 L 12.186 150.05 L 12.184 149.529 L 12.183 149.007 L 12.182 148.523 L 12.19 147.47 L 12.195 146.94 L 12.194 146.94 L 12.2 146.427 L 12.207 145.905 L 12.215 145.384 L 12.224 144.863 L 12.234 144.342 L 12.245 143.82 L 12.257 143.289 L 12.256 143.289 L 12.27 142.795 L 12.286 142.264 L 12.285 142.264 L 12.302 141.753 L 12.319 141.25 L 12.34 140.729 L 12.361 140.217 L 12.385 139.687 L 12.384 139.687 L 12.409 139.194 L 12.41 139.194 L 12.438 138.664 L 12.466 138.18 L 12.497 137.678 L 12.498 137.678 L 12.532 137.176 L 12.533 137.17 L 12.534 137.148 L 12.571 136.647 L 12.57 136.647 L 12.608 136.163 L 12.649 135.67 L 12.694 135.17 L 12.742 134.669 L 12.743 134.669 L 12.794 134.169 L 12.847 133.677 L 12.848 133.673 L 12.851 133.642 L 12.908 133.149 L 12.968 132.661 L 13.027 132.207 L 13.028 132.207 L 13.101 131.681 L 13.168 131.221 L 13.241 130.742 L 13.326 130.218 L 13.403 129.769 L 13.488 129.291 L 13.579 128.808 L 13.672 128.332 L 13.771 127.849 L 13.874 127.367 L 13.981 126.886 L 14.09 126.412 L 14.214 125.895 L 14.325 125.447 L 14.456 124.933 L 14.573 124.493 L 14.702 124.017 L 14.837 123.534 L 14.839 123.529 L 14.845 123.506 L 14.972 123.061 L 15.114 122.579 L 15.259 122.097 L 15.26 122.097 L 15.404 121.627 L 15.564 121.121 L 15.563 121.121 L 15.711 120.66 L 15.869 120.177 L 16.028 119.699 L 16.198 119.196 L 16.357 118.732 L 16.522 118.256 L 16.694 117.769 L 16.872 117.27 L 17.04 116.805 L 17.219 116.315 L 17.395 115.836 L 17.574 115.355 L 17.757 114.87 L 17.942 114.382 L 18.128 113.894 L 18.311 113.417 L 18.503 112.922 L 18.502 112.922 L 18.692 112.435 L 18.879 111.955 L 19.064 111.485 L 19.261 110.992 L 19.26 110.992 L 19.455 110.507 L 19.457 110.503 L 19.654 110.011 L 19.66 109.996 L 19.856 109.502 L 19.858 109.498 L 20.053 109.005 L 20.062 108.982 L 20.253 108.491 L 20.254 108.49 L 20.255 108.487 L 20.446 107.997 L 20.454 107.978 L 20.645 107.483 L 20.649 107.472 L 20.839 106.976 L 20.842 106.968 L 21.031 106.472 L 21.037 106.455 L 21.224 105.959 L 21.232 105.937 L 21.417 105.439 L 21.423 105.423 L 21.606 104.925 L 21.613 104.906 L 21.794 104.407 L 21.807 104.372 L 21.984 103.872 L 22.007 103.806 L 22.177 103.303 L 22.245 103.084 L 22.391 102.574 L 22.579 101.196 L 22.393 99.985 L 22.489 99.924 L 23.27 99.301 L 23.648 98.93 L 24.313 98.119 L 24.603 97.675 L 24.989 96.96 L 25.201 96.474 L 25.413 95.888 L 25.561 95.379 L 25.748 94.27 L 25.775 93.743 L 25.669 92.596 L 25.683 92.586 L 26.512 91.469 L 26.822 90.77 L 26.995 90.277 L 27.172 89.776 L 27.174 89.771 L 27.35 89.271 L 27.351 89.268 L 27.526 88.77 L 27.702 88.27 L 27.703 88.267 L 28.054 87.268 L 28.228 86.773 L 28.405 86.272 L 28.407 86.267 L 28.581 85.772 L 28.747 85.301 L 28.914 84.837 L 28.915 84.836 L 28.927 84.802 L 29.087 84.369 L 29.262 83.905 L 29.444 83.432 L 29.624 82.972 L 29.809 82.509 L 30.009 82.018 L 30.19 81.582 L 30.191 81.581 L 30.198 81.563 L 30.377 81.138 L 30.58 80.67 L 30.793 80.184 L 30.978 79.771 L 31.185 79.318 L 31.187 79.315 L 31.199 79.288 L 31.392 78.874 L 31.62 78.395 L 31.82 77.98 L 32.037 77.54 L 32.261 77.096 L 32.503 76.624 L 32.711 76.226 L 32.942 75.794 L 33.176 75.364 L 33.181 75.356 L 33.196 75.328 L 33.412 74.94 L 33.674 74.479 L 33.899 74.091 L 33.9 74.091 L 34.17 73.634 L 34.169 73.634 L 34.393 73.264 L 34.647 72.854 L 34.931 72.405 L 35.165 72.044 L 35.458 71.601 L 35.697 71.248 L 35.965 70.862 L 36.273 70.429 L 36.517 70.095 L 36.522 70.089 L 36.548 70.053 L 36.835 69.67 L 37.12 69.299 L 37.366 68.988 L 37.66 68.626 L 38 68.219 L 38.245 67.935 L 38.598 67.539 L 38.901 67.211 L 39.151 66.948 L 39.478 66.617 L 39.856 66.245 L 40.602 65.516 L 40.607 65.512 L 40.986 65.141 L 41.361 64.774 L 41.366 64.77 L 41.745 64.399 L 42.115 64.038 L 42.125 64.029 L 42.504 63.658 L 42.879 63.291 L 42.884 63.287 L 43.263 62.916 L 43.638 62.549 L 43.652 62.536 L 44.029 62.165 L 44.871 61.057 L 45.364 59.757 L 45.47 58.37 L 45.178 57.01 L 44.274 55.492 L 43.924 55.093 L 43.92 55.089 L 43.57 54.691 L 43.219 54.292 L 42.873 53.897 L 42.869 53.893 L 42.519 53.495 L 42.173 53.1 L 42.168 53.095 L 41.817 52.696 L 41.467 52.298 L 41.195 51.983 L 40.913 51.644 L 40.656 51.318 L 40.423 51.006 L 40.188 50.672 L 39.993 50.376 L 39.8 50.062 L 39.605 49.719 L 39.451 49.424 L 39.288 49.087 L 39.133 48.736 L 38.988 48.376 L 38.866 48.046 L 38.719 47.61 L 38.613 47.268 L 38.498 46.86 L 38.388 46.433 L 38.28 45.976 L 38.189 45.557 L 38.107 45.144 L 38.017 44.653 L 37.945 44.228 L 37.865 43.724 L 37.796 43.254 L 37.733 42.784 L 37.673 42.303 L 37.619 41.85 L 37.62 41.85 L 37.566 41.355 L 37.512 40.83 L 37.511 40.83 L 37.465 40.35 L 37.418 39.829 L 37.378 39.345 L 37.335 38.817 L 37.297 38.315 L 37.26 37.804 L 37.227 37.302 L 37.192 36.772 L 37.162 36.27 L 37.133 35.758 L 37.103 35.229 L 37.076 34.717 L 37.075 34.717 L 37.049 34.206 L 37.05 34.206 L 37.024 33.676 L 37.001 33.163 L 36.977 32.633 L 36.954 32.121 L 36.955 32.121 L 36.933 31.591 L 36.912 31.07 L 36.891 30.539 L 36.849 29.479 L 36.828 28.948 L 36.808 28.437 L 36.809 28.437 L 36.79 27.907 L 36.772 27.385 L 36.755 26.873 L 36.756 26.873 L 36.74 26.343 L 36.725 25.822 L 36.711 25.301 L 36.698 24.788 L 36.699 24.788 L 36.687 24.257 L 36.676 23.736 L 36.667 23.224 L 36.659 22.703 L 36.652 22.199 L 36.653 22.199 L 36.648 21.668 L 36.645 21.156 L 36.643 20.653 L 36.643 20.131 L 36.644 19.629 L 36.648 19.098 L 36.647 19.098 L 36.653 18.603 L 36.661 18.092 L 36.671 17.579 L 36.682 17.085 L 36.697 16.573 L 36.698 16.565 L 36.698 16.555 L 36.714 16.07 L 36.734 15.567 L 36.756 15.074 L 36.784 14.544 L 36.81 14.087 L 36.811 14.087 L 36.845 13.586 L 36.884 13.057 L 36.921 12.619 L 36.965 12.146 L 37.015 11.663 L 37.016 11.659 L 37.02 11.619 L 37.075 11.135 L 37.13 10.703 L 37.19 10.285 L 37.267 9.795 L 37.34 9.373 L 37.434 8.883 L 37.519 8.489 L 37.611 8.101 L 37.709 7.732 L 37.814 7.376 L 37.936 7.008 L 38.048 6.708 L 38.17 6.418 L 38.277 6.197 L 38.626 6.568 L 38.886 6.854 L 39.238 7.251 L 39.514 7.569 L 39.857 7.974 L 40.134 8.307 L 40.444 8.688 L 40.747 9.067 L 41.075 9.485 L 41.347 9.837 L 41.644 10.229 L 41.941 10.628 L 42.228 11.019 L 42.519 11.424 L 42.807 11.83 L 43.111 12.265 L 43.362 12.631 L 43.64 13.044 L 43.912 13.454 L 44.18 13.865 L 44.437 14.267 L 44.701 14.689 L 44.955 15.102 L 45.208 15.522 L 45.447 15.926 L 45.711 16.386 L 45.951 16.812 L 46.178 17.227 L 46.371 17.592 L 46.614 18.063 L 46.815 18.469 L 47.011 18.877 L 47.239 19.356 L 47.441 19.789 L 47.648 20.237 L 47.867 20.72 L 48.063 21.156 L 48.262 21.607 L 48.462 22.072 L 48.652 22.519 L 48.855 23.009 L 48.856 23.009 L 49.033 23.443 L 49.23 23.936 L 49.398 24.366 L 49.588 24.862 L 49.746 25.285 L 49.912 25.741 L 50.089 26.241 L 50.234 26.66 L 50.389 27.125 L 50.539 27.586 L 50.686 28.053 L 50.825 28.508 L 50.963 28.978 L 51.093 29.436 L 51.22 29.903 L 51.342 30.369 L 51.471 30.884 L 51.57 31.298 L 51.676 31.764 L 51.778 32.234 L 51.874 32.699 L 51.972 33.205 L 52.052 33.642 L 52.139 34.148 L 52.208 34.579 L 52.278 35.048 L 52.35 35.574 L 52.403 36.001 L 52.458 36.473 L 52.513 37.001 L 52.553 37.428 L 52.597 37.957 L 52.627 38.376 L 52.659 38.906 L 52.682 39.345 L 52.681 39.345 L 52.701 39.819 L 52.717 40.343 L 52.727 40.835 L 52.728 40.835 L 52.732 41.274 L 52.733 41.768 L 52.73 42.286 L 52.723 42.738 L 52.711 43.222 L 52.694 43.716 L 52.672 44.246 L 52.671 44.283 L 52.653 44.813 L 52.652 44.859 L 52.639 45.381 L 52.625 45.902 L 52.61 46.433 L 52.596 46.944 L 52.579 47.466 L 52.543 48.517 L 52.525 49.029 L 52.483 50.081 L 52.461 50.612 L 52.462 50.612 L 52.417 51.644 L 52.392 52.165 L 52.366 52.695 L 52.497 54.08 L 53.015 55.371 L 53.878 56.462 L 55.014 57.265 L 56.331 57.713 L 58.021 57.73 L 58.46 57.657 L 59.111 57.502 L 59.615 57.345 L 60.122 57.187 L 61.119 56.88 L 61.616 56.728 L 62.107 56.58 L 62.116 56.578 L 62.624 56.424 L 63.115 56.277 L 63.613 56.129 L 63.979 56.026 L 64.492 55.891 L 64.885 55.794 L 65.312 55.698 L 65.764 55.602 L 66.237 55.51 L 66.689 55.429 L 67.099 55.361 L 67.584 55.289 L 68.074 55.222 L 68.483 55.173 L 69.01 55.115 L 69.43 55.074 L 69.933 55.032 L 70.359 55.002 L 70.866 54.971 L 71.309 54.95 L 71.829 54.931 L 72.301 54.918 L 72.734 54.913 L 73.227 54.911 L 73.737 54.915 L 74.184 54.923 L 74.688 54.938 L 75.177 54.957 L 75.605 54.979 L 76.134 55.011 L 76.564 55.042 L 77.074 55.083 L 77.52 55.124 L 78.025 55.176 L 78.52 55.232 L 78.99 55.289 L 79.426 55.348 L 79.951 55.424 L 80.392 55.492 L 80.898 55.576 L 81.32 55.65 L 81.841 55.748 L 82.262 55.831 L 82.728 55.929 L 83.247 56.044 L 83.247 56.043 L 83.661 56.14 L 84.147 56.259 L 84.635 56.384 L 85.061 56.499 L 85.548 56.635 L 85.949 56.753 L 85.949 56.754 L 86.457 56.91 L 86.457 56.909 L 86.933 57.059 L 87.117 57.113 L 87.629 57.252 L 88.023 57.342 L 88.545 57.438 L 89.936 57.491 L 90.629 57.366 L 91.126 57.239 L 92.411 56.706 L 93.492 55.83 L 94.537 54.06 L 94.701 53.566 L 94.947 51.906 L 94.933 51.376 L 94.9 50.927 L 94.837 50.4 L 94.81 50.207 L 94.726 49.683 L 94.714 49.609 L 94.622 49.087 L 94.612 49.034 L 94.514 48.512 L 94.509 48.484 L 94.307 47.442 L 94.242 47.076 L 94.179 46.652 L 94.131 46.265 L 94.08 45.77 L 94.047 45.37 L 94.021 44.957 L 94.001 44.485 L 93.99 44.07 L 93.985 43.569 L 93.988 43.113 L 93.997 42.646 L 94.013 42.189 L 94.032 41.787 L 94.06 41.322 L 94.099 40.793 L 94.134 40.374 L 94.181 39.891 L 94.237 39.363 L 94.287 38.946 L 94.349 38.465 L 94.415 37.986 L 94.42 37.957 L 94.422 37.939 L 94.486 37.507 L 94.569 36.983 L 94.643 36.541 L 94.727 36.064 L 94.815 35.588 L 94.912 35.095 L 95.017 34.575 L 95.107 34.148 L 95.216 33.658 L 95.326 33.176 L 95.448 32.659 L 95.556 32.217 L 95.676 31.741 L 95.803 31.254 L 95.93 30.777 L 96.06 30.304 L 96.198 29.819 L 96.335 29.348 L 96.477 28.874 L 96.633 28.366 L 96.632 28.366 L 96.782 27.89 L 96.927 27.437 L 97.076 26.982 L 97.246 26.48 L 97.4 26.03 L 97.576 25.529 L 97.731 25.094 L 97.904 24.623 L 98.08 24.154 L 98.269 23.658 L 98.435 23.229 L 98.436 23.229 L 98.618 22.77 L 98.81 22.297 L 98.818 22.279 L 98.818 22.278 L 98.996 21.844 L 99.186 21.392 L 99.386 20.929 L 99.585 20.475 L 99.801 19.991 L 99.993 19.568 L 100.197 19.126 L 100.413 18.67 L 100.414 18.67 L 100.644 18.191 L 100.84 17.792 L 101.065 17.344 L 101.306 16.871 L 101.513 16.472 L 101.741 16.043 L 101.98 15.602 L 102.21 15.184 L 102.451 14.757 L 102.699 14.326 L 102.709 14.31 L 102.716 14.297 L 102.94 13.914 L 103.185 13.505 L 103.442 13.087 L 103.724 12.637 L 103.956 12.275 L 104.218 11.875 L 104.514 11.434 L 104.756 11.083 L 105.061 10.649 L 105.318 10.294 L 105.58 9.941 L 105.857 9.577 L 106.185 9.159 L 106.461 8.817 L 106.768 8.449 L 107.016 8.16 L 107.344 7.79 L 107.664 7.442 L 107.939 7.154 L 108.28 6.81 L 108.563 6.534 L 108.907 6.206 L 108.949 6.168 Z M 102.125 69.137 L 102.028 69.138 L 101.828 69.142 L 101.731 69.145 L 101.531 69.153 L 101.482 69.155 L 101.382 69.16 L 101.285 69.166 L 101.185 69.173 L 101.182 69.173 L 101.083 69.18 L 101.038 69.184 L 100.938 69.192 L 100.842 69.2 L 100.742 69.21 L 100.737 69.211 L 100.638 69.221 L 100.542 69.232 L 100.449 69.243 L 100.349 69.255 L 100.247 69.268 L 100.049 69.296 L 99.946 69.312 L 99.848 69.328 L 99.809 69.334 L 99.71 69.351 L 99.655 69.361 L 99.557 69.379 L 99.509 69.388 L 99.411 69.407 L 99.365 69.416 L 99.267 69.436 L 99.22 69.446 L 99.122 69.467 L 99.076 69.477 L 98.978 69.499 L 98.921 69.512 L 98.824 69.535 L 98.732 69.558 L 98.635 69.583 L 98.624 69.586 L 98.528 69.611 L 98.449 69.632 L 98.352 69.659 L 98.294 69.676 L 98.198 69.704 L 98.154 69.717 L 98.058 69.746 L 98 69.764 L 97.905 69.794 L 97.86 69.808 L 97.765 69.839 L 97.722 69.854 L 97.627 69.886 L 97.568 69.906 L 97.474 69.939 L 97.388 69.97 L 97.294 70.005 L 97.278 70.011 L 97.185 70.046 L 97.1 70.079 L 97.007 70.116 L 96.966 70.132 L 96.873 70.17 L 96.814 70.195 L 96.722 70.234 L 96.681 70.251 L 96.589 70.291 L 96.53 70.317 L 96.439 70.358 L 96.381 70.385 L 96.291 70.427 L 96.251 70.446 L 96.161 70.489 L 96.082 70.528 L 95.992 70.573 L 95.973 70.582 L 95.884 70.627 L 95.787 70.678 L 95.699 70.725 L 95.661 70.745 L 95.573 70.793 L 95.553 70.804 L 95.466 70.852 L 95.392 70.894 L 95.305 70.944 L 95.248 70.977 L 95.162 71.028 L 95.104 71.063 L 95.019 71.115 L 94.949 71.158 L 94.864 71.212 L 94.842 71.227 L 94.702 71.317 L 94.619 71.372 L 94.585 71.395 L 94.502 71.451 L 94.414 71.512 L 94.332 71.57 L 94.309 71.586 L 94.228 71.644 L 94.196 71.667 L 94.115 71.726 L 94.029 71.79 L 93.949 71.851 L 93.902 71.887 L 93.824 71.948 L 93.818 71.954 L 93.739 72.016 L 93.633 72.101 L 93.479 72.229 L 93.402 72.294 L 93.327 72.359 L 93.3 72.383 L 93.225 72.449 L 93.147 72.519 L 92.999 72.655 L 92.924 72.725 L 92.852 72.794 L 92.828 72.818 L 92.757 72.887 L 92.707 72.935 L 92.636 73.006 L 92.588 73.055 L 92.518 73.127 L 92.494 73.152 L 92.425 73.224 L 92.331 73.325 L 92.197 73.473 L 92.151 73.525 L 92.085 73.6 L 92.04 73.651 L 91.975 73.727 L 91.955 73.751 L 91.89 73.828 L 91.842 73.886 L 91.779 73.963 L 91.718 74.04 L 91.656 74.119 L 91.632 74.149 L 91.571 74.228 L 91.547 74.259 L 91.487 74.338 L 91.452 74.385 L 91.392 74.466 L 91.346 74.529 L 91.288 74.61 L 91.249 74.665 L 91.192 74.747 L 91.154 74.803 L 91.042 74.969 L 90.983 75.059 L 90.929 75.143 L 90.893 75.2 L 90.84 75.285 L 90.818 75.32 L 90.766 75.405 L 90.731 75.463 L 90.68 75.549 L 90.647 75.606 L 90.597 75.693 L 90.576 75.73 L 90.527 75.817 L 90.495 75.874 L 90.447 75.962 L 90.406 76.038 L 90.36 76.126 L 90.35 76.146 L 90.304 76.235 L 90.23 76.383 L 90.191 76.462 L 90.105 76.642 L 90.059 76.74 L 90.018 76.831 L 89.992 76.89 L 89.912 77.074 L 89.878 77.157 L 89.84 77.249 L 89.816 77.307 L 89.779 77.4 L 89.74 77.501 L 89.711 77.579 L 89.676 77.672 L 89.654 77.731 L 89.62 77.825 L 89.585 77.927 L 89.553 78.022 L 89.538 78.065 L 89.476 78.255 L 89.444 78.358 L 89.415 78.454 L 89.402 78.498 L 89.374 78.594 L 89.361 78.639 L 89.334 78.735 L 89.306 78.838 L 89.256 79.032 L 89.233 79.124 L 89.187 79.318 L 89.164 79.421 L 89.143 79.519 L 89.133 79.566 L 89.113 79.664 L 89.104 79.71 L 89.085 79.808 L 89.066 79.911 L 89.049 80.01 L 89.05 80.01 L 89.034 80.1 L 89.025 80.155 L 89.009 80.254 L 88.994 80.349 L 88.98 80.448 L 88.974 80.496 L 88.961 80.595 L 88.955 80.643 L 88.943 80.742 L 88.936 80.795 L 88.925 80.895 L 88.921 80.938 L 88.911 81.037 L 88.902 81.138 L 88.886 81.338 L 88.879 81.432 L 88.873 81.531 L 88.87 81.582 L 88.865 81.682 L 88.863 81.731 L 88.859 81.831 L 88.857 81.879 L 88.854 81.979 L 88.853 82.028 L 88.851 82.128 L 88.85 82.225 L 88.85 82.425 L 88.851 82.522 L 88.853 82.622 L 88.854 82.671 L 88.857 82.771 L 88.859 82.819 L 88.863 82.919 L 88.865 82.968 L 88.87 83.068 L 88.873 83.119 L 88.879 83.218 L 88.882 83.264 L 88.889 83.364 L 88.893 83.412 L 88.901 83.512 L 88.91 83.613 L 88.92 83.712 L 88.924 83.755 L 88.935 83.855 L 88.936 83.86 L 88.947 83.959 L 88.959 84.055 L 88.972 84.154 L 88.978 84.202 L 88.992 84.301 L 88.999 84.348 L 89.014 84.447 L 89.022 84.495 L 89.038 84.594 L 89.047 84.649 L 89.064 84.747 L 89.079 84.833 L 89.098 84.932 L 89.1 84.941 L 89.119 85.039 L 89.14 85.142 L 89.159 85.229 L 89.18 85.327 L 89.203 85.43 L 89.226 85.527 L 89.227 85.527 L 89.247 85.614 L 89.275 85.728 L 89.3 85.824 L 89.309 85.858 L 89.335 85.955 L 89.351 86.013 L 89.378 86.109 L 89.391 86.154 L 89.419 86.25 L 89.432 86.294 L 89.461 86.39 L 89.475 86.434 L 89.505 86.53 L 89.523 86.589 L 89.554 86.684 L 89.559 86.698 L 89.59 86.792 L 89.614 86.865 L 89.647 86.96 L 89.668 87.018 L 89.702 87.112 L 89.724 87.171 L 89.759 87.264 L 89.769 87.29 L 89.805 87.384 L 89.828 87.443 L 89.865 87.536 L 89.889 87.594 L 89.927 87.686 L 89.944 87.728 L 89.983 87.82 L 90 87.861 L 90.04 87.953 L 90.066 88.012 L 90.107 88.103 L 90.126 88.143 L 90.168 88.234 L 90.176 88.252 L 90.218 88.342 L 90.256 88.422 L 90.3 88.512 L 90.32 88.551 L 90.365 88.641 L 90.374 88.66 L 90.419 88.749 L 90.47 88.846 L 90.506 88.914 L 90.553 89.003 L 90.595 89.081 L 90.643 89.168 L 90.664 89.205 L 90.713 89.292 L 90.734 89.329 L 90.784 89.416 L 90.817 89.473 L 90.919 89.645 L 90.976 89.738 L 91.029 89.823 L 91.042 89.845 L 91.095 89.929 L 91.118 89.964 L 91.172 90.048 L 91.194 90.082 L 91.249 90.166 L 91.286 90.222 L 91.342 90.305 L 91.38 90.361 L 91.494 90.525 L 91.517 90.557 L 91.575 90.639 L 91.631 90.717 L 91.69 90.797 L 91.696 90.805 L 91.756 90.886 L 91.791 90.933 L 91.851 91.012 L 91.875 91.043 L 91.936 91.122 L 91.96 91.152 L 92.022 91.231 L 92.064 91.284 L 92.127 91.362 L 92.146 91.386 L 92.209 91.463 L 92.233 91.492 L 92.297 91.569 L 92.341 91.622 L 92.471 91.774 L 92.541 91.853 L 92.605 91.925 L 92.671 91.999 L 92.719 92.052 L 92.787 92.126 L 92.81 92.15 L 92.878 92.223 L 92.902 92.249 L 92.971 92.322 L 92.994 92.347 L 93.063 92.419 L 93.111 92.468 L 93.181 92.539 L 93.23 92.588 L 93.301 92.658 L 93.325 92.682 L 93.397 92.752 L 93.422 92.776 L 93.566 92.914 L 93.591 92.937 L 93.664 93.006 L 93.69 93.03 L 93.763 93.098 L 93.813 93.145 L 93.961 93.279 L 93.985 93.3 L 94.06 93.367 L 94.088 93.392 L 94.163 93.458 L 94.214 93.503 L 94.366 93.633 L 94.419 93.677 L 94.496 93.741 L 94.525 93.765 L 94.602 93.828 L 94.626 93.847 L 94.704 93.91 L 94.733 93.934 L 94.811 93.996 L 94.835 94.014 L 94.914 94.076 L 94.944 94.1 L 95.023 94.161 L 95.077 94.202 L 95.157 94.262 L 95.212 94.303 L 95.374 94.421 L 95.406 94.444 L 95.487 94.502 L 95.542 94.541 L 95.624 94.598 L 95.68 94.636 L 95.763 94.692 L 95.797 94.715 L 95.88 94.77 L 95.902 94.784 L 95.986 94.839 L 96.077 94.897 L 96.247 95.003 L 96.282 95.025 L 96.367 95.077 L 96.461 95.133 L 96.547 95.183 L 96.568 95.195 L 96.655 95.245 L 96.749 95.298 L 96.925 95.394 L 97.001 95.435 L 97.089 95.481 L 97.148 95.511 L 97.237 95.556 L 97.295 95.585 L 97.385 95.629 L 97.443 95.657 L 97.534 95.7 L 97.556 95.71 L 97.646 95.752 L 97.763 95.805 L 97.855 95.845 L 97.896 95.862 L 97.988 95.901 L 98.047 95.926 L 98.14 95.964 L 98.224 95.997 L 98.317 96.033 L 98.375 96.055 L 98.469 96.09 L 98.555 96.121 L 98.649 96.154 L 98.708 96.174 L 98.803 96.206 L 98.846 96.221 L 98.941 96.252 L 99.03 96.28 L 99.125 96.309 L 99.241 96.343 L 99.338 96.37 L 99.371 96.379 L 99.467 96.405 L 99.57 96.431 L 99.667 96.455 L 99.77 96.48 L 99.868 96.502 L 99.914 96.512 L 100.012 96.533 L 100.105 96.552 L 100.203 96.571 L 100.298 96.588 L 100.396 96.605 L 100.499 96.622 L 100.598 96.637 L 100.645 96.644 L 100.744 96.658 L 100.84 96.67 L 100.939 96.682 L 101.04 96.694 L 101.14 96.704 L 101.232 96.712 L 101.331 96.72 L 101.383 96.724 L 101.483 96.731 L 101.629 96.739 L 101.729 96.743 L 101.777 96.745 L 101.877 96.748 L 101.974 96.75 L 102.074 96.751 L 102.172 96.751 L 102.272 96.75 L 102.369 96.748 L 102.469 96.745 L 102.566 96.741 L 102.666 96.736 L 102.714 96.733 L 102.814 96.727 L 102.963 96.716 L 103.106 96.703 L 103.206 96.693 L 103.307 96.681 L 103.406 96.669 L 103.502 96.657 L 103.601 96.643 L 103.648 96.636 L 103.747 96.621 L 103.85 96.604 L 103.948 96.587 L 104.043 96.57 L 104.141 96.551 L 104.234 96.532 L 104.332 96.511 L 104.378 96.501 L 104.476 96.479 L 104.579 96.454 L 104.676 96.43 L 104.722 96.419 L 104.819 96.394 L 104.922 96.366 L 105.018 96.339 L 105.107 96.313 L 105.203 96.284 L 105.261 96.266 L 105.356 96.236 L 105.401 96.222 L 105.496 96.191 L 105.598 96.156 L 105.692 96.123 L 105.778 96.092 L 105.966 96.022 L 106.083 95.977 L 106.175 95.94 L 106.242 95.912 L 106.335 95.873 L 106.352 95.866 L 106.444 95.827 L 106.544 95.784 L 106.635 95.743 L 106.675 95.724 L 106.766 95.682 L 106.864 95.636 L 106.954 95.592 L 106.973 95.582 L 107.062 95.538 L 107.101 95.519 L 107.19 95.474 L 107.267 95.434 L 107.356 95.387 L 107.376 95.376 L 107.464 95.329 L 107.559 95.277 L 107.646 95.228 L 107.683 95.207 L 107.77 95.157 L 107.791 95.145 L 107.877 95.095 L 107.949 95.052 L 108.035 95 L 108.057 94.987 L 108.142 94.935 L 108.177 94.913 L 108.262 94.86 L 108.319 94.824 L 108.459 94.734 L 108.542 94.679 L 108.576 94.656 L 108.659 94.6 L 108.692 94.578 L 108.775 94.521 L 108.798 94.505 L 108.88 94.448 L 108.935 94.409 L 109.016 94.351 L 109.048 94.328 L 109.21 94.21 L 109.288 94.152 L 109.367 94.092 L 109.375 94.086 L 109.455 94.025 L 109.478 94.007 L 109.557 93.946 L 109.611 93.904 L 109.689 93.842 L 109.718 93.818 L 109.874 93.692 L 109.927 93.649 L 110.004 93.585 L 110.028 93.565 L 110.104 93.501 L 110.133 93.477 L 110.209 93.412 L 110.236 93.388 L 110.312 93.322 L 110.336 93.301 L 110.486 93.169 L 110.538 93.123 L 110.686 92.989 L 110.712 92.965 L 110.786 92.897 L 110.81 92.874 L 111.005 92.693 L 111.079 92.625 L 111.154 92.555 L 111.298 92.417 L 111.323 92.393 L 111.395 92.323 L 111.419 92.299 L 111.49 92.229 L 111.515 92.205 L 111.586 92.134 L 111.61 92.109 L 111.68 92.038 L 111.704 92.014 L 111.774 91.942 L 111.822 91.891 L 111.889 91.82 L 111.958 91.747 L 112.005 91.697 L 112.073 91.623 L 112.097 91.597 L 112.164 91.523 L 112.188 91.496 L 112.254 91.422 L 112.342 91.322 L 112.363 91.298 L 112.429 91.222 L 112.477 91.166 L 112.537 91.095 L 112.602 91.018 L 112.65 90.96 L 112.713 90.883 L 112.732 90.859 L 112.795 90.781 L 112.837 90.728 L 112.899 90.649 L 112.923 90.619 L 113.045 90.461 L 113.11 90.375 L 113.169 90.295 L 113.186 90.272 L 113.304 90.11 L 113.366 90.023 L 113.48 89.859 L 113.518 89.803 L 113.574 89.72 L 113.597 89.686 L 113.652 89.603 L 113.666 89.581 L 113.721 89.497 L 113.779 89.406 L 113.885 89.236 L 113.907 89.201 L 113.959 89.116 L 113.994 89.058 L 114.045 88.972 L 114.078 88.915 L 114.128 88.828 L 114.149 88.791 L 114.198 88.704 L 114.23 88.647 L 114.278 88.559 L 114.298 88.521 L 114.345 88.433 L 114.366 88.395 L 114.412 88.307 L 114.487 88.158 L 114.532 88.069 L 114.58 87.971 L 114.623 87.881 L 114.65 87.823 L 114.692 87.732 L 114.711 87.692 L 114.752 87.601 L 114.778 87.542 L 114.818 87.45 L 114.835 87.409 L 114.874 87.317 L 114.891 87.275 L 114.929 87.183 L 114.953 87.125 L 114.99 87.032 L 115.013 86.973 L 115.049 86.879 L 115.059 86.853 L 115.094 86.76 L 115.137 86.643 L 115.17 86.548 L 115.179 86.519 L 115.211 86.425 L 115.231 86.367 L 115.262 86.272 L 115.28 86.213 L 115.31 86.117 L 115.32 86.087 L 115.349 85.992 L 115.37 85.921 L 115.398 85.824 L 115.42 85.746 L 115.446 85.65 L 115.461 85.593 L 115.486 85.496 L 115.497 85.45 L 115.521 85.353 L 115.543 85.261 L 115.565 85.164 L 115.578 85.107 L 115.599 85.009 L 115.609 84.962 L 115.629 84.864 L 115.638 84.818 L 115.657 84.72 L 115.676 84.617 L 115.693 84.518 L 115.7 84.471 L 115.716 84.372 L 115.723 84.332 L 115.738 84.234 L 115.753 84.125 L 115.766 84.025 L 115.771 83.983 L 115.783 83.884 L 115.794 83.788 L 115.804 83.689 L 115.805 83.684 L 115.815 83.584 L 115.827 83.443 L 115.834 83.344 L 115.834 83.341 L 115.841 83.241 L 115.847 83.144 L 115.852 83.044 L 115.854 82.995 L 115.858 82.895 L 115.861 82.798 L 115.863 82.698 L 115.864 82.65 L 115.865 82.55 L 115.865 82.452 L 115.864 82.352 L 115.863 82.304 L 115.861 82.204 L 115.86 82.155 L 115.857 82.055 L 115.853 81.958 L 115.848 81.858 L 115.845 81.81 L 115.839 81.71 L 115.836 81.658 L 115.829 81.559 L 115.821 81.466 L 115.812 81.366 L 115.802 81.265 L 115.792 81.171 L 115.781 81.071 L 115.768 80.97 L 115.755 80.871 L 115.742 80.776 L 115.727 80.677 L 115.718 80.621 L 115.702 80.523 L 115.696 80.484 L 115.679 80.385 L 115.669 80.33 L 115.651 80.232 L 115.633 80.138 L 115.613 80.04 L 115.593 79.947 L 115.571 79.849 L 115.568 79.838 L 115.546 79.741 L 115.524 79.649 L 115.5 79.552 L 115.489 79.506 L 115.464 79.409 L 115.436 79.306 L 115.409 79.21 L 115.386 79.126 L 115.352 79.01 L 115.323 78.915 L 115.295 78.826 L 115.233 78.636 L 115.204 78.549 L 115.171 78.454 L 115.15 78.396 L 115.116 78.302 L 115.094 78.243 L 115.059 78.15 L 115.033 78.082 L 114.996 77.988 L 114.983 77.955 L 114.946 77.863 L 114.911 77.779 L 114.872 77.687 L 114.855 77.646 L 114.815 77.554 L 114.789 77.495 L 114.748 77.404 L 114.729 77.364 L 114.687 77.273 L 114.66 77.215 L 114.617 77.125 L 114.598 77.085 L 114.554 76.995 L 114.505 76.898 L 114.459 76.809 L 114.449 76.789 L 114.403 76.701 L 114.382 76.663 L 114.335 76.575 L 114.295 76.5 L 114.246 76.412 L 114.234 76.392 L 114.185 76.305 L 114.131 76.211 L 114.029 76.039 L 113.972 75.946 L 113.866 75.776 L 113.83 75.719 L 113.74 75.579 L 113.685 75.496 L 113.662 75.462 L 113.606 75.379 L 113.568 75.323 L 113.511 75.241 L 113.488 75.209 L 113.43 75.127 L 113.414 75.104 L 113.356 75.023 L 113.292 74.936 L 113.172 74.776 L 113.131 74.722 L 113.07 74.643 L 113.046 74.613 L 112.984 74.534 L 112.966 74.51 L 112.904 74.432 L 112.837 74.35 L 112.709 74.196 L 112.665 74.143 L 112.535 73.991 L 112.468 73.915 L 112.402 73.841 L 112.399 73.838 L 112.332 73.763 L 112.264 73.689 L 112.219 73.64 L 112.151 73.566 L 112.081 73.491 L 111.943 73.347 L 111.871 73.273 L 111.669 73.071 L 111.592 72.991 L 111.52 72.917 L 111.449 72.846 L 111.424 72.822 L 111.353 72.752 L 111.329 72.728 L 111.257 72.658 L 111.206 72.61 L 111.134 72.542 L 111.085 72.496 L 111.011 72.428 L 110.985 72.404 L 110.911 72.337 L 110.859 72.291 L 110.784 72.225 L 110.733 72.18 L 110.657 72.115 L 110.633 72.095 L 110.556 72.03 L 110.498 71.982 L 110.421 71.919 L 110.368 71.876 L 110.29 71.814 L 110.266 71.796 L 110.187 71.734 L 110.103 71.669 L 109.991 71.585 L 109.911 71.526 L 109.833 71.47 L 109.669 71.354 L 109.581 71.293 L 109.498 71.237 L 109.464 71.214 L 109.381 71.159 L 109.29 71.1 L 109.206 71.047 L 109.184 71.034 L 109.099 70.981 L 109.042 70.946 L 108.956 70.894 L 108.884 70.851 L 108.798 70.801 L 108.72 70.756 L 108.632 70.707 L 108.615 70.698 L 108.528 70.65 L 108.412 70.588 L 108.234 70.496 L 108.137 70.447 L 108.047 70.403 L 108.007 70.384 L 107.917 70.341 L 107.819 70.295 L 107.637 70.213 L 107.537 70.17 L 107.445 70.131 L 107.386 70.106 L 107.293 70.068 L 107.209 70.035 L 107.116 69.999 L 107.058 69.977 L 106.964 69.942 L 106.921 69.926 L 106.827 69.892 L 106.784 69.877 L 106.69 69.844 L 106.588 69.809 L 106.493 69.778 L 106.434 69.76 L 106.338 69.73 L 106.308 69.72 L 106.213 69.691 L 106.11 69.661 L 106.014 69.634 L 106.001 69.63 L 105.904 69.603 L 105.814 69.579 L 105.717 69.554 L 105.625 69.531 L 105.431 69.485 L 105.328 69.462 L 105.23 69.441 L 105.183 69.431 L 105.085 69.411 L 105.039 69.402 L 104.941 69.383 L 104.893 69.374 L 104.795 69.356 L 104.74 69.346 L 104.641 69.329 L 104.546 69.314 L 104.447 69.299 L 104.4 69.292 L 104.202 69.264 L 104.106 69.252 L 104.007 69.24 L 103.959 69.234 L 103.86 69.223 L 103.807 69.217 L 103.707 69.207 L 103.659 69.203 L 103.559 69.194 L 103.515 69.19 L 103.416 69.182 L 103.364 69.178 L 103.264 69.171 L 103.215 69.168 L 103.115 69.162 L 103.067 69.159 L 102.967 69.154 L 102.918 69.152 L 102.818 69.148 L 102.771 69.146 L 102.672 69.143 L 102.522 69.14 L 102.474 69.139 L 102.274 69.137 Z M 45.332 69.223 L 45.232 69.224 L 45.184 69.225 L 44.984 69.229 L 44.887 69.232 L 44.787 69.236 L 44.736 69.238 L 44.637 69.243 L 44.591 69.246 L 44.491 69.252 L 44.442 69.255 L 44.342 69.262 L 44.294 69.266 L 44.194 69.274 L 44.142 69.278 L 43.999 69.291 L 43.899 69.301 L 43.846 69.307 L 43.752 69.317 L 43.652 69.328 L 43.551 69.341 L 43.452 69.354 L 43.404 69.36 L 43.206 69.388 L 43.159 69.395 L 43.06 69.41 L 42.957 69.427 L 42.867 69.443 L 42.867 69.442 L 42.768 69.459 L 42.713 69.469 L 42.517 69.505 L 42.423 69.523 L 42.325 69.543 L 42.278 69.553 L 42.082 69.595 L 42.036 69.605 L 41.938 69.627 L 41.881 69.64 L 41.784 69.663 L 41.738 69.675 L 41.544 69.723 L 41.498 69.734 L 41.401 69.759 L 41.344 69.774 L 41.248 69.8 L 41.215 69.809 L 41.118 69.836 L 41.06 69.853 L 40.868 69.909 L 40.824 69.922 L 40.728 69.951 L 40.714 69.955 L 40.619 69.984 L 40.53 70.012 L 40.34 70.074 L 40.297 70.089 L 40.107 70.153 L 40.048 70.173 L 39.954 70.206 L 39.911 70.221 L 39.723 70.289 L 39.68 70.305 L 39.586 70.34 L 39.528 70.362 L 39.342 70.434 L 39.258 70.467 L 39.165 70.505 L 39.106 70.53 L 39.014 70.569 L 38.973 70.586 L 38.881 70.626 L 38.782 70.671 L 38.691 70.713 L 38.633 70.74 L 38.543 70.783 L 38.503 70.802 L 38.413 70.846 L 38.316 70.895 L 38.227 70.941 L 38.169 70.972 L 38.081 71.019 L 38.023 71.05 L 37.936 71.098 L 37.862 71.14 L 37.775 71.19 L 37.718 71.223 L 37.632 71.274 L 37.574 71.309 L 37.489 71.361 L 37.419 71.404 L 37.334 71.458 L 37.256 71.509 L 37.173 71.564 L 37.139 71.587 L 37.056 71.643 L 36.968 71.704 L 36.886 71.762 L 36.863 71.778 L 36.782 71.836 L 36.695 71.9 L 36.615 71.96 L 36.561 72.001 L 36.482 72.062 L 36.399 72.128 L 36.321 72.191 L 36.297 72.21 L 36.22 72.273 L 36.138 72.341 L 36.062 72.406 L 36.035 72.43 L 35.959 72.496 L 35.883 72.563 L 35.809 72.63 L 35.733 72.701 L 35.66 72.77 L 35.635 72.793 L 35.563 72.862 L 35.514 72.91 L 35.443 72.98 L 35.37 73.053 L 35.3 73.125 L 35.276 73.15 L 35.207 73.222 L 35.113 73.323 L 34.979 73.471 L 34.912 73.547 L 34.846 73.623 L 34.778 73.703 L 34.714 73.78 L 34.69 73.809 L 34.627 73.886 L 34.584 73.939 L 34.522 74.017 L 34.462 74.094 L 34.401 74.174 L 34.378 74.205 L 34.318 74.285 L 34.277 74.34 L 34.218 74.421 L 34.156 74.508 L 34.099 74.59 L 34.076 74.624 L 34.02 74.706 L 33.968 74.784 L 33.913 74.868 L 33.891 74.902 L 33.837 74.986 L 33.801 75.043 L 33.748 75.128 L 33.713 75.185 L 33.661 75.271 L 33.618 75.343 L 33.568 75.429 L 33.535 75.487 L 33.486 75.574 L 33.454 75.631 L 33.406 75.719 L 33.375 75.777 L 33.328 75.866 L 33.288 75.943 L 33.198 76.121 L 33.15 76.219 L 33.107 76.309 L 33.08 76.367 L 33.038 76.458 L 32.993 76.557 L 32.956 76.642 L 32.921 76.722 L 32.871 76.84 L 32.833 76.933 L 32.817 76.974 L 32.743 77.16 L 32.688 77.304 L 32.62 77.492 L 32.59 77.579 L 32.558 77.673 L 32.553 77.688 L 32.521 77.783 L 32.488 77.885 L 32.458 77.981 L 32.448 78.011 L 32.419 78.106 L 32.398 78.177 L 32.37 78.274 L 32.348 78.352 L 32.322 78.448 L 32.319 78.46 L 32.293 78.557 L 32.27 78.648 L 32.246 78.745 L 32.234 78.791 L 32.211 78.888 L 32.198 78.945 L 32.176 79.043 L 32.168 79.079 L 32.147 79.176 L 32.135 79.233 L 32.115 79.331 L 32.096 79.433 L 32.079 79.524 L 32.061 79.622 L 32.044 79.724 L 32.012 79.922 L 31.997 80.017 L 31.983 80.116 L 31.977 80.164 L 31.964 80.263 L 31.958 80.311 L 31.946 80.41 L 31.935 80.506 L 31.925 80.605 L 31.924 80.61 L 31.914 80.71 L 31.91 80.758 L 31.901 80.858 L 31.893 80.951 L 31.886 81.05 L 31.886 81.053 L 31.879 81.153 L 31.873 81.25 L 31.863 81.45 L 31.859 81.547 L 31.856 81.647 L 31.855 81.696 L 31.853 81.796 L 31.852 81.844 L 31.851 81.944 L 31.851 82.142 L 31.852 82.242 L 31.853 82.29 L 31.855 82.39 L 31.856 82.439 L 31.859 82.539 L 31.861 82.587 L 31.865 82.687 L 31.867 82.736 L 31.872 82.836 L 31.875 82.887 L 31.881 82.986 L 31.884 83.032 L 31.891 83.132 L 31.895 83.18 L 31.903 83.28 L 31.912 83.381 L 31.921 83.475 L 31.931 83.575 L 31.937 83.628 L 31.948 83.727 L 31.954 83.775 L 31.966 83.874 L 31.977 83.963 L 31.991 84.063 L 31.992 84.07 L 32.006 84.169 L 32.014 84.224 L 32.029 84.322 L 32.036 84.362 L 32.052 84.461 L 32.068 84.555 L 32.086 84.654 L 32.087 84.662 L 32.105 84.76 L 32.114 84.808 L 32.133 84.906 L 32.142 84.952 L 32.162 85.05 L 32.172 85.097 L 32.193 85.195 L 32.216 85.298 L 32.239 85.395 L 32.24 85.395 L 32.26 85.482 L 32.274 85.539 L 32.298 85.636 L 32.312 85.693 L 32.337 85.789 L 32.346 85.823 L 32.372 85.92 L 32.388 85.978 L 32.415 86.074 L 32.428 86.119 L 32.484 86.311 L 32.511 86.399 L 32.541 86.495 L 32.559 86.554 L 32.621 86.744 L 32.656 86.846 L 32.689 86.94 L 32.704 86.983 L 32.772 87.171 L 32.788 87.214 L 32.823 87.308 L 32.862 87.409 L 32.936 87.595 L 32.96 87.653 L 32.998 87.745 L 33.015 87.787 L 33.054 87.879 L 33.071 87.92 L 33.111 88.012 L 33.137 88.071 L 33.219 88.253 L 33.256 88.333 L 33.299 88.424 L 33.308 88.442 L 33.351 88.532 L 33.39 88.611 L 33.435 88.701 L 33.444 88.72 L 33.489 88.809 L 33.509 88.848 L 33.555 88.937 L 33.586 88.995 L 33.633 89.083 L 33.653 89.121 L 33.701 89.209 L 33.712 89.229 L 33.76 89.316 L 33.802 89.39 L 33.852 89.477 L 33.864 89.498 L 33.914 89.584 L 33.935 89.62 L 33.986 89.706 L 34.008 89.742 L 34.06 89.828 L 34.108 89.907 L 34.161 89.991 L 34.169 90.004 L 34.223 90.089 L 34.26 90.145 L 34.315 90.229 L 34.329 90.251 L 34.384 90.334 L 34.407 90.368 L 34.463 90.451 L 34.501 90.507 L 34.558 90.589 L 34.597 90.644 L 34.654 90.723 L 34.697 90.784 L 34.777 90.894 L 34.897 91.054 L 34.938 91.108 L 34.999 91.187 L 35.023 91.217 L 35.085 91.296 L 35.103 91.32 L 35.165 91.398 L 35.189 91.427 L 35.252 91.505 L 35.315 91.582 L 35.379 91.658 L 35.383 91.663 L 35.448 91.74 L 35.489 91.788 L 35.554 91.863 L 35.603 91.918 L 35.737 92.068 L 35.78 92.116 L 35.847 92.189 L 35.896 92.241 L 36.034 92.387 L 36.105 92.461 L 36.175 92.532 L 36.224 92.581 L 36.366 92.721 L 36.39 92.745 L 36.462 92.815 L 36.487 92.839 L 36.559 92.908 L 36.61 92.955 L 36.756 93.091 L 36.78 93.114 L 36.854 93.182 L 36.88 93.206 L 36.954 93.273 L 36.978 93.294 L 37.053 93.361 L 37.081 93.386 L 37.156 93.452 L 37.207 93.497 L 37.359 93.627 L 37.412 93.671 L 37.489 93.735 L 37.518 93.759 L 37.595 93.822 L 37.619 93.841 L 37.775 93.967 L 37.858 94.033 L 38.016 94.155 L 38.07 94.196 L 38.23 94.316 L 38.317 94.38 L 38.398 94.438 L 38.421 94.454 L 38.503 94.512 L 38.535 94.535 L 38.617 94.592 L 38.673 94.63 L 38.839 94.742 L 38.929 94.801 L 39.013 94.855 L 39.035 94.87 L 39.12 94.924 L 39.19 94.967 L 39.36 95.071 L 39.475 95.139 L 39.541 95.177 L 39.627 95.227 L 39.742 95.292 L 39.918 95.388 L 40.014 95.439 L 40.103 95.485 L 40.142 95.505 L 40.231 95.55 L 40.289 95.579 L 40.379 95.623 L 40.419 95.642 L 40.509 95.685 L 40.607 95.731 L 40.698 95.772 L 40.757 95.798 L 40.849 95.838 L 40.89 95.855 L 40.982 95.894 L 41.041 95.919 L 41.134 95.957 L 41.218 95.99 L 41.311 96.026 L 41.412 96.064 L 41.506 96.098 L 41.549 96.113 L 41.643 96.146 L 41.702 96.166 L 41.797 96.198 L 41.885 96.227 L 41.98 96.257 L 42.038 96.275 L 42.134 96.304 L 42.223 96.33 L 42.319 96.357 L 42.422 96.385 L 42.519 96.41 L 42.565 96.421 L 42.662 96.445 L 42.765 96.47 L 42.863 96.492 L 42.909 96.502 L 43.007 96.523 L 43.1 96.542 L 43.198 96.561 L 43.293 96.578 L 43.391 96.595 L 43.494 96.612 L 43.593 96.627 L 43.688 96.64 L 43.787 96.653 L 43.841 96.66 L 43.941 96.672 L 44.031 96.682 L 44.13 96.692 L 44.231 96.701 L 44.331 96.709 L 44.379 96.713 L 44.479 96.72 L 44.625 96.728 L 44.725 96.732 L 44.773 96.734 L 44.873 96.737 L 44.97 96.739 L 45.07 96.74 L 45.168 96.74 L 45.268 96.739 L 45.316 96.738 L 45.416 96.736 L 45.564 96.731 L 45.663 96.726 L 45.709 96.723 L 45.809 96.717 L 45.906 96.71 L 46.006 96.702 L 46.058 96.698 L 46.157 96.689 L 46.296 96.674 L 46.396 96.662 L 46.45 96.655 L 46.549 96.642 L 46.597 96.636 L 46.696 96.622 L 46.838 96.6 L 46.937 96.583 L 46.992 96.573 L 47.09 96.555 L 47.138 96.546 L 47.236 96.527 L 47.329 96.508 L 47.427 96.487 L 47.53 96.464 L 47.627 96.441 L 47.673 96.429 L 47.77 96.405 L 47.861 96.382 L 47.958 96.356 L 48.016 96.34 L 48.112 96.313 L 48.201 96.287 L 48.297 96.258 L 48.355 96.24 L 48.45 96.21 L 48.495 96.196 L 48.59 96.165 L 48.677 96.136 L 48.772 96.103 L 48.83 96.082 L 48.924 96.048 L 48.967 96.032 L 49.061 95.997 L 49.119 95.975 L 49.212 95.939 L 49.313 95.898 L 49.405 95.86 L 49.43 95.85 L 49.523 95.811 L 49.558 95.797 L 49.649 95.758 L 49.731 95.722 L 49.822 95.681 L 49.862 95.662 L 49.953 95.62 L 50.051 95.574 L 50.231 95.486 L 50.289 95.457 L 50.378 95.412 L 50.417 95.392 L 50.506 95.346 L 50.564 95.315 L 50.652 95.268 L 50.69 95.248 L 50.866 95.152 L 50.981 95.087 L 51.067 95.037 L 51.082 95.028 L 51.169 94.977 L 51.19 94.965 L 51.276 94.914 L 51.334 94.879 L 51.419 94.827 L 51.454 94.805 L 51.539 94.752 L 51.561 94.739 L 51.645 94.686 L 51.714 94.641 L 51.882 94.531 L 51.904 94.517 L 51.987 94.462 L 52.054 94.417 L 52.137 94.36 L 52.208 94.311 L 52.274 94.265 L 52.356 94.207 L 52.379 94.191 L 52.46 94.133 L 52.492 94.11 L 52.573 94.051 L 52.596 94.034 L 52.676 93.975 L 52.788 93.891 L 52.819 93.868 L 52.899 93.807 L 52.922 93.789 L 53.08 93.667 L 53.11 93.643 L 53.189 93.581 L 53.242 93.539 L 53.398 93.413 L 53.422 93.394 L 53.499 93.331 L 53.528 93.307 L 53.605 93.243 L 53.629 93.223 L 53.681 93.179 L 53.758 93.115 L 53.811 93.071 L 53.963 92.941 L 54.014 92.896 L 54.089 92.83 L 54.117 92.805 L 54.192 92.738 L 54.266 92.67 L 54.412 92.534 L 54.438 92.51 L 54.511 92.441 L 54.585 92.37 L 54.656 92.3 L 54.681 92.276 L 54.752 92.205 L 54.776 92.18 L 54.846 92.109 L 54.894 92.06 L 54.963 91.988 L 54.986 91.963 L 55.055 91.89 L 55.079 91.864 L 55.147 91.791 L 55.215 91.717 L 55.282 91.642 L 55.307 91.614 L 55.373 91.539 L 55.397 91.512 L 55.462 91.437 L 55.503 91.389 L 55.568 91.312 L 55.592 91.283 L 55.656 91.206 L 55.68 91.177 L 55.743 91.1 L 55.804 91.023 L 55.866 90.944 L 55.89 90.914 L 55.951 90.835 L 55.992 90.781 L 56.112 90.621 L 56.176 90.534 L 56.234 90.453 L 56.25 90.43 L 56.308 90.348 L 56.331 90.316 L 56.388 90.234 L 56.449 90.144 L 56.504 90.061 L 56.518 90.039 L 56.573 89.955 L 56.595 89.921 L 56.649 89.837 L 56.685 89.78 L 56.738 89.695 L 56.76 89.66 L 56.812 89.575 L 56.847 89.517 L 56.898 89.431 L 56.931 89.374 L 56.981 89.287 L 57.002 89.25 L 57.051 89.163 L 57.063 89.143 L 57.112 89.055 L 57.152 88.98 L 57.199 88.892 L 57.23 88.834 L 57.276 88.745 L 57.296 88.706 L 57.341 88.617 L 57.37 88.559 L 57.414 88.469 L 57.433 88.429 L 57.476 88.339 L 57.503 88.281 L 57.545 88.19 L 57.564 88.15 L 57.605 88.059 L 57.648 87.959 L 57.726 87.775 L 57.751 87.716 L 57.789 87.623 L 57.805 87.582 L 57.842 87.489 L 57.875 87.404 L 57.91 87.311 L 57.932 87.252 L 58 87.064 L 58.035 86.962 L 58.067 86.867 L 58.082 86.824 L 58.113 86.729 L 58.127 86.684 L 58.157 86.589 L 58.175 86.531 L 58.204 86.435 L 58.217 86.391 L 58.245 86.295 L 58.274 86.192 L 58.297 86.107 L 58.323 86.011 L 58.349 85.908 L 58.373 85.811 L 58.387 85.754 L 58.41 85.656 L 58.418 85.621 L 58.44 85.524 L 58.453 85.467 L 58.474 85.369 L 58.493 85.276 L 58.531 85.08 L 58.55 84.977 L 58.567 84.878 L 58.574 84.831 L 58.59 84.732 L 58.597 84.692 L 58.612 84.594 L 58.621 84.532 L 58.635 84.432 L 58.64 84.391 L 58.653 84.292 L 58.665 84.196 L 58.676 84.097 L 58.682 84.044 L 58.692 83.944 L 58.705 83.801 L 58.709 83.749 L 58.717 83.649 L 58.721 83.601 L 58.728 83.501 L 58.734 83.404 L 58.739 83.304 L 58.741 83.257 L 58.745 83.158 L 58.747 83.108 L 58.75 83.008 L 58.751 82.959 L 58.753 82.859 L 58.754 82.762 L 58.754 82.562 L 58.753 82.465 L 58.751 82.365 L 58.75 82.316 L 58.747 82.216 L 58.745 82.168 L 58.741 82.068 L 58.736 81.971 L 58.724 81.771 L 58.717 81.674 L 58.709 81.574 L 58.705 81.522 L 58.692 81.379 L 58.682 81.279 L 58.67 81.178 L 58.658 81.079 L 58.652 81.031 L 58.626 80.833 L 58.613 80.738 L 58.598 80.639 L 58.583 80.544 L 58.566 80.445 L 58.564 80.437 L 58.547 80.339 L 58.532 80.253 L 58.513 80.154 L 58.502 80.099 L 58.482 80.001 L 58.48 79.991 L 58.46 79.894 L 58.431 79.765 L 58.408 79.667 L 58.406 79.656 L 58.383 79.559 L 58.371 79.513 L 58.347 79.416 L 58.324 79.325 L 58.298 79.228 L 58.282 79.17 L 58.255 79.074 L 58.242 79.029 L 58.214 78.933 L 58.201 78.889 L 58.172 78.793 L 58.154 78.735 L 58.124 78.64 L 58.11 78.595 L 58.079 78.5 L 58.05 78.413 L 58.017 78.318 L 57.996 78.26 L 57.928 78.072 L 57.89 77.971 L 57.854 77.878 L 57.837 77.835 L 57.8 77.742 L 57.776 77.684 L 57.738 77.592 L 57.721 77.55 L 57.682 77.458 L 57.665 77.417 L 57.625 77.325 L 57.58 77.226 L 57.496 77.044 L 57.45 76.946 L 57.406 76.856 L 57.396 76.837 L 57.352 76.748 L 57.333 76.709 L 57.288 76.62 L 57.248 76.543 L 57.201 76.454 L 57.17 76.396 L 57.122 76.308 L 57.111 76.288 L 57.063 76.201 L 57.021 76.127 L 56.971 76.04 L 56.959 76.019 L 56.909 75.933 L 56.866 75.861 L 56.814 75.775 L 56.801 75.753 L 56.749 75.668 L 56.706 75.598 L 56.652 75.513 L 56.637 75.491 L 56.583 75.407 L 56.524 75.317 L 56.412 75.151 L 56.374 75.095 L 56.317 75.013 L 56.255 74.926 L 56.137 74.764 L 56.096 74.709 L 56.036 74.629 L 56.019 74.606 L 55.959 74.527 L 55.911 74.466 L 55.849 74.387 L 55.807 74.334 L 55.744 74.256 L 55.725 74.232 L 55.662 74.155 L 55.638 74.126 L 55.574 74.049 L 55.509 73.972 L 55.444 73.897 L 55.441 73.894 L 55.375 73.818 L 55.308 73.742 L 55.241 73.668 L 55.217 73.642 L 55.149 73.568 L 55.126 73.544 L 55.058 73.471 L 55.011 73.42 L 54.942 73.348 L 54.918 73.323 L 54.848 73.251 L 54.824 73.227 L 54.754 73.156 L 54.661 73.063 L 54.564 72.965 L 54.422 72.825 L 54.374 72.778 L 54.301 72.708 L 54.249 72.66 L 54.176 72.592 L 54.126 72.545 L 54.052 72.478 L 54 72.432 L 53.85 72.3 L 53.746 72.211 L 53.592 72.083 L 53.51 72.016 L 53.432 71.954 L 53.408 71.936 L 53.329 71.874 L 53.268 71.826 L 53.189 71.766 L 53.142 71.731 L 53.061 71.671 L 52.998 71.625 L 52.917 71.567 L 52.894 71.551 L 52.812 71.493 L 52.724 71.432 L 52.641 71.376 L 52.607 71.353 L 52.524 71.298 L 52.384 71.208 L 52.327 71.172 L 52.242 71.119 L 52.207 71.097 L 52.122 71.045 L 52.064 71.01 L 51.978 70.959 L 51.921 70.926 L 51.834 70.876 L 51.74 70.823 L 51.652 70.775 L 51.614 70.755 L 51.526 70.708 L 51.506 70.697 L 51.417 70.65 L 51.34 70.61 L 51.251 70.565 L 51.153 70.517 L 50.973 70.431 L 50.875 70.385 L 50.784 70.344 L 50.765 70.336 L 50.673 70.295 L 50.55 70.243 L 50.458 70.205 L 50.441 70.197 L 50.348 70.159 L 50.307 70.143 L 50.214 70.106 L 50.129 70.073 L 50.036 70.038 L 49.977 70.016 L 49.883 69.982 L 49.825 69.961 L 49.73 69.928 L 49.686 69.914 L 49.591 69.882 L 49.503 69.853 L 49.408 69.823 L 49.364 69.809 L 49.269 69.78 L 49.211 69.763 L 49.115 69.735 L 49.057 69.718 L 48.96 69.691 L 48.927 69.682 L 48.831 69.656 L 48.728 69.63 L 48.631 69.606 L 48.574 69.592 L 48.476 69.569 L 48.441 69.561 L 48.344 69.539 L 48.287 69.526 L 48.189 69.505 L 48.096 69.486 L 47.998 69.467 L 47.989 69.465 L 47.89 69.446 L 47.804 69.431 L 47.706 69.414 L 47.651 69.405 L 47.552 69.389 L 47.504 69.381 L 47.405 69.366 L 47.31 69.353 L 47.112 69.327 L 47.016 69.315 L 46.917 69.304 L 46.864 69.298 L 46.764 69.288 L 46.621 69.275 L 46.569 69.271 L 46.469 69.263 L 46.421 69.259 L 46.321 69.252 L 46.224 69.246 L 46.024 69.236 L 45.927 69.232 L 45.727 69.226 L 45.63 69.224 L 45.53 69.223 Z M 73.143 75.295 L 72.943 75.297 L 72.895 75.298 L 72.495 75.306 L 72.398 75.309 L 72.346 75.311 L 72.246 75.314 L 72.198 75.316 L 71.898 75.328 L 71.849 75.33 L 71.749 75.335 L 71.698 75.338 L 71.599 75.344 L 71.402 75.356 L 71.353 75.359 L 71.153 75.373 L 71.101 75.377 L 71.002 75.385 L 70.858 75.397 L 70.758 75.406 L 70.754 75.406 L 70.611 75.419 L 70.511 75.429 L 70.458 75.435 L 70.364 75.445 L 70.264 75.456 L 70.211 75.463 L 70.013 75.487 L 69.971 75.492 L 69.871 75.505 L 69.817 75.512 L 69.718 75.526 L 69.671 75.533 L 69.572 75.548 L 69.564 75.549 L 69.466 75.564 L 69.379 75.578 L 69.181 75.612 L 69.078 75.631 L 68.882 75.669 L 68.789 75.688 L 68.691 75.709 L 68.634 75.722 L 68.537 75.744 L 68.502 75.752 L 68.404 75.775 L 68.301 75.8 L 68.204 75.825 L 68.101 75.853 L 68.005 75.88 L 67.916 75.906 L 67.82 75.935 L 67.762 75.953 L 67.667 75.983 L 67.477 76.047 L 67.383 76.081 L 67.298 76.113 L 67.204 76.149 L 67.045 76.213 L 66.953 76.252 L 66.795 76.322 L 66.705 76.364 L 66.432 76.502 L 66.344 76.55 L 66.009 76.751 L 65.925 76.806 L 65.51 77.11 L 65.433 77.173 L 65.001 77.572 L 64.932 77.644 L 64.45 78.233 L 64.393 78.315 L 63.971 79.053 L 63.929 79.144 L 63.612 80.06 L 63.589 80.157 L 63.467 80.988 L 63.461 81.088 L 63.468 81.767 L 63.476 81.867 L 63.558 82.451 L 63.578 82.549 L 63.692 82.997 L 63.721 83.092 L 63.831 83.411 L 63.867 83.505 L 63.993 83.804 L 64.035 83.895 L 64.11 84.051 L 64.155 84.14 L 64.279 84.369 L 64.329 84.456 L 64.375 84.535 L 64.426 84.62 L 64.528 84.782 L 64.583 84.866 L 64.62 84.922 L 64.676 85.005 L 64.737 85.093 L 64.795 85.175 L 64.851 85.253 L 64.91 85.333 L 64.994 85.445 L 65.059 85.529 L 65.121 85.608 L 65.139 85.632 L 65.201 85.71 L 65.225 85.739 L 65.288 85.817 L 65.331 85.87 L 65.395 85.947 L 65.439 86 L 65.569 86.152 L 65.614 86.203 L 65.746 86.353 L 65.792 86.405 L 65.859 86.479 L 65.905 86.53 L 65.973 86.604 L 66.018 86.653 L 66.086 86.727 L 66.109 86.751 L 66.245 86.897 L 66.269 86.923 L 66.407 87.069 L 66.43 87.094 L 66.499 87.166 L 66.547 87.215 L 66.593 87.262 L 66.663 87.334 L 66.853 87.524 L 66.927 87.596 L 67.071 87.734 L 67.096 87.757 L 67.169 87.826 L 67.195 87.85 L 67.268 87.918 L 67.318 87.965 L 67.392 88.032 L 67.444 88.078 L 67.519 88.144 L 67.543 88.165 L 67.619 88.231 L 67.646 88.255 L 67.722 88.32 L 67.775 88.364 L 67.852 88.428 L 67.881 88.452 L 67.958 88.515 L 68.035 88.576 L 68.193 88.7 L 68.277 88.765 L 68.389 88.849 L 68.469 88.908 L 68.547 88.964 L 68.629 89.022 L 68.695 89.068 L 68.777 89.124 L 68.855 89.176 L 68.939 89.231 L 68.973 89.253 L 69.057 89.307 L 69.114 89.343 L 69.199 89.396 L 69.292 89.453 L 69.378 89.504 L 69.472 89.558 L 69.559 89.607 L 69.654 89.659 L 69.742 89.706 L 69.8 89.737 L 69.889 89.783 L 69.986 89.832 L 70.076 89.876 L 70.174 89.922 L 70.265 89.964 L 70.405 90.026 L 70.497 90.065 L 70.556 90.09 L 70.649 90.128 L 70.791 90.183 L 70.885 90.218 L 70.971 90.249 L 71.065 90.282 L 71.212 90.331 L 71.307 90.361 L 71.422 90.396 L 71.519 90.424 L 71.643 90.458 L 71.739 90.483 L 71.899 90.522 L 71.997 90.544 L 72.136 90.573 L 72.234 90.592 L 72.337 90.611 L 72.436 90.628 L 72.578 90.65 L 72.677 90.664 L 72.821 90.682 L 72.92 90.693 L 73.069 90.707 L 73.169 90.715 L 73.314 90.725 L 73.414 90.73 L 73.56 90.735 L 73.66 90.737 L 73.757 90.738 L 73.857 90.738 L 74.003 90.736 L 74.103 90.733 L 74.297 90.723 L 74.397 90.716 L 74.449 90.712 L 74.548 90.704 L 74.735 90.685 L 74.835 90.673 L 74.937 90.66 L 75.036 90.646 L 75.139 90.63 L 75.237 90.614 L 75.37 90.591 L 75.469 90.572 L 75.628 90.538 L 75.725 90.516 L 75.76 90.508 L 75.858 90.485 L 75.972 90.457 L 76.068 90.432 L 76.205 90.394 L 76.301 90.366 L 76.345 90.353 L 76.441 90.324 L 76.587 90.277 L 76.682 90.245 L 76.741 90.225 L 76.835 90.192 L 76.921 90.161 L 77.015 90.126 L 77.073 90.104 L 77.166 90.068 L 77.25 90.035 L 77.343 89.997 L 77.402 89.972 L 77.494 89.933 L 77.594 89.89 L 77.776 89.808 L 77.895 89.752 L 77.986 89.708 L 78.024 89.689 L 78.113 89.645 L 78.152 89.626 L 78.241 89.581 L 78.318 89.541 L 78.407 89.494 L 78.427 89.483 L 78.515 89.436 L 78.59 89.396 L 78.678 89.347 L 78.698 89.335 L 78.785 89.286 L 78.843 89.253 L 78.929 89.203 L 78.965 89.182 L 79.051 89.131 L 79.087 89.109 L 79.173 89.057 L 79.195 89.044 L 79.28 88.992 L 79.315 88.97 L 79.4 88.917 L 79.457 88.881 L 79.541 88.827 L 79.575 88.805 L 79.743 88.695 L 79.765 88.681 L 79.848 88.626 L 79.938 88.565 L 80.02 88.508 L 80.047 88.49 L 80.135 88.429 L 80.207 88.378 L 80.288 88.321 L 80.33 88.291 L 80.403 88.239 L 80.484 88.181 L 80.516 88.158 L 80.597 88.099 L 80.652 88.058 L 80.972 87.818 L 81.026 87.777 L 81.184 87.655 L 81.214 87.631 L 81.24 87.611 L 81.32 87.55 L 81.343 87.532 L 81.501 87.41 L 81.531 87.386 L 81.58 87.348 L 81.659 87.287 L 81.713 87.245 L 81.791 87.183 L 81.791 87.182 L 81.846 87.139 L 81.87 87.121 L 81.948 87.059 L 81.977 87.035 L 82.026 86.996 L 82.104 86.934 L 82.133 86.91 L 82.211 86.847 L 82.264 86.804 L 82.495 86.612 L 82.548 86.568 L 82.7 86.438 L 82.751 86.393 L 82.826 86.327 L 82.878 86.281 L 82.952 86.214 L 83.002 86.167 L 83.075 86.099 L 83.127 86.051 L 83.2 85.981 L 83.273 85.91 L 83.343 85.84 L 83.438 85.741 L 83.507 85.668 L 83.578 85.592 L 83.645 85.518 L 83.78 85.362 L 83.844 85.285 L 84.035 85.04 L 84.094 84.959 L 84.253 84.726 L 84.307 84.642 L 84.586 84.148 L 84.63 84.058 L 84.898 83.386 L 84.928 83.291 L 85.138 82.215 L 85.146 82.115 L 85.071 80.792 L 85.052 80.695 L 84.62 79.436 L 84.575 79.347 L 84.018 78.486 L 83.955 78.408 L 83.436 77.858 L 83.362 77.791 L 83.016 77.506 L 82.936 77.446 L 82.648 77.246 L 82.564 77.192 L 82.357 77.066 L 82.27 77.016 L 82.138 76.943 L 82.05 76.896 L 81.895 76.816 L 81.805 76.772 L 81.765 76.753 L 81.675 76.71 L 81.577 76.664 L 81.486 76.623 L 81.467 76.615 L 81.375 76.574 L 81.294 76.539 L 81.11 76.461 L 81.051 76.436 L 80.958 76.398 L 80.917 76.382 L 80.824 76.345 L 80.68 76.29 L 80.586 76.256 L 80.543 76.241 L 80.449 76.208 L 80.347 76.173 L 80.252 76.142 L 80.149 76.11 L 80.053 76.081 L 80.009 76.068 L 79.913 76.04 L 79.868 76.027 L 79.772 76 L 79.669 75.972 L 79.572 75.947 L 79.526 75.936 L 79.429 75.912 L 79.383 75.9 L 79.286 75.877 L 79.275 75.875 L 79.177 75.852 L 79.085 75.831 L 78.987 75.81 L 78.94 75.8 L 78.744 75.76 L 78.698 75.751 L 78.6 75.732 L 78.552 75.723 L 78.454 75.705 L 78.399 75.695 L 78.201 75.661 L 78.162 75.655 L 78.064 75.639 L 78.056 75.638 L 77.957 75.622 L 77.909 75.614 L 77.81 75.599 L 77.763 75.592 L 77.565 75.564 L 77.517 75.558 L 77.319 75.532 L 77.265 75.525 L 77.165 75.513 L 77.072 75.502 L 77.024 75.496 L 76.925 75.485 L 76.92 75.484 L 76.82 75.473 L 76.726 75.463 L 76.673 75.457 L 76.573 75.447 L 76.43 75.434 L 76.426 75.434 L 76.226 75.416 L 76.182 75.412 L 76.083 75.404 L 76.079 75.404 L 75.879 75.388 L 75.831 75.384 L 75.734 75.377 L 75.635 75.37 L 75.583 75.367 L 75.526 75.364 L 75.432 75.357 L 75.335 75.351 L 75.235 75.346 L 75.183 75.343 L 75.135 75.34 L 75.035 75.335 L 74.986 75.333 L 74.931 75.331 L 74.835 75.326 L 74.786 75.324 L 74.686 75.32 L 74.638 75.318 L 74.538 75.315 L 74.486 75.313 L 74.438 75.311 L 74.338 75.308 L 74.289 75.307 L 74.236 75.306 L 74.138 75.303 L 74.089 75.302 L 73.989 75.3 L 73.941 75.299 L 73.841 75.298 L 73.789 75.297 L 73.692 75.296 L 73.641 75.296 L 73.541 75.295 Z" fill="#000000" fill-rule="nonzero" stroke="none" data-offset="-0.4mm"/></svg>