<?xml version="1.0" standalone="no"?>
<!DOCTYPE svg PUBLIC "-//W3C//DTD SVG 20010904//EN"
 "http://www.w3.org/TR/2001/REC-SVG-20010904/DTD/svg10.dtd">
<svg version="1.0" xmlns="http://www.w3.org/2000/svg"
 width="499.877777pt" height="464.925877pt" viewBox="0 0 499.877777 464.925877"
 preserveAspectRatio="xMidYMid meet">
<metadata>
Created by potrace 1.16, written by Peter Selinger 2001-2019
</metadata>
<g transform="translate(-0.123164,464.970033) scale(0.100000,-0.100000)"
fill="#000000" stroke="none">
<path d="M2645 4638 c-11 -6 -22 -13 -25 -15 -10 -9 27 -23 62 -23 56 0 68
-19 68 -107 0 -72 -2 -78 -44 -142 -53 -79 -135 -175 -185 -214 -20 -16 -38
-32 -41 -35 -3 -4 -13 -11 -22 -17 -9 -5 -63 -44 -120 -85 -57 -41 -114 -82
-128 -90 -15 -8 -66 -42 -114 -75 -48 -33 -95 -64 -104 -70 -10 -5 -30 -19
-47 -31 -16 -12 -91 -58 -165 -104 -160 -98 -254 -161 -258 -172 -2 -4 -8 -8
-13 -8 -10 0 -70 -44 -114 -83 -11 -10 -45 -37 -75 -60 -196 -148 -481 -420
-600 -573 -8 -11 -36 -44 -61 -74 -80 -95 -210 -284 -249 -360 -12 -25 -26
-47 -31 -50 -9 -6 -109 -214 -109 -227 0 -4 -20 -69 -44 -143 -24 -74 -58
-191 -74 -260 -29 -118 -38 -173 -62 -401 -7 -65 -22 -128 -46 -195 -32 -91
-36 -111 -41 -239 -4 -110 -2 -155 11 -210 18 -77 92 -234 132 -279 25 -29 26
-29 112 -23 84 6 238 45 332 83 154 62 311 190 364 296 30 59 34 113 10 122
-14 5 -72 -18 -84 -33 -3 -4 -54 -32 -113 -62 -106 -53 -111 -54 -206 -57
-166 -6 -221 24 -261 141 -34 101 -35 167 -6 282 15 55 33 103 41 108 8 4 15
13 15 19 0 6 25 48 55 94 30 46 55 88 55 93 0 13 71 68 122 95 23 12 44 28 46
35 11 32 -162 -20 -250 -76 -21 -12 -40 -23 -43 -23 -7 0 -47 -34 -111 -92
-28 -27 -55 -48 -59 -48 -13 0 3 112 17 121 7 5 32 8 56 7 31 0 47 5 57 18 19
26 11 32 -45 40 -27 4 -48 10 -45 14 2 4 37 10 76 12 55 4 76 10 86 24 21 29
-9 44 -84 44 -35 0 -63 4 -63 10 0 6 38 10 94 10 91 0 95 1 116 27 20 25 20
27 3 37 -10 5 -58 11 -108 13 -78 2 -90 5 -90 20 0 20 21 21 95 4 59 -13 156
-14 181 -1 55 30 -18 63 -168 75 -63 5 -80 10 -76 21 9 25 38 24 164 -10 113
-30 129 -32 153 -19 41 22 34 50 -16 64 -24 6 -79 23 -123 39 -59 20 -86 25
-104 18 -28 -10 -36 -5 -27 17 7 18 10 17 177 -31 134 -39 159 -41 184 -14 25
28 9 44 -71 70 -68 23 -206 50 -239 47 -23 -2 -34 37 -13 45 16 6 86 -11 233
-57 164 -51 166 -51 205 -19 l33 28 -69 23 c-153 50 -280 84 -314 83 -55 -3
-60 -1 -60 19 0 41 24 38 200 -20 144 -47 229 -69 268 -69 35 0 82 34 67 48
-17 16 -336 114 -404 123 -73 11 -76 12 -67 35 9 23 77 13 164 -25 106 -46
340 -121 359 -115 106 34 86 53 -137 125 -52 17 -104 35 -115 40 -54 23 -132
49 -151 49 -11 0 -25 -5 -31 -11 -13 -13 -53 -3 -53 14 0 7 10 24 23 39 l22
27 115 -45 c175 -68 179 -69 275 -104 50 -17 100 -38 112 -46 31 -20 82 -17
121 6 37 23 42 40 10 40 -12 0 -31 8 -42 19 -12 10 -55 30 -96 44 -153 53
-308 113 -324 126 -10 8 -29 11 -53 8 -77 -12 -86 -12 -90 -1 -2 6 8 24 22 40
14 16 25 32 25 37 0 15 26 6 134 -47 61 -30 134 -64 161 -76 28 -11 64 -28 80
-35 142 -66 224 -95 271 -95 52 0 89 17 76 35 -8 12 -250 115 -270 115 -6 0
-12 4 -12 8 0 4 -17 14 -37 21 -21 8 -71 29 -113 48 -41 19 -90 42 -109 50
-18 8 -54 18 -80 22 -48 7 -60 25 -29 45 17 10 97 -11 143 -39 11 -6 54 -24
95 -40 94 -35 244 -97 336 -140 115 -53 206 -64 267 -33 26 13 21 27 -15 42
-18 8 -49 21 -68 30 -20 8 -72 28 -115 44 -44 16 -105 41 -135 55 -305 142
-361 163 -388 148 -23 -12 -72 -15 -72 -4 0 15 52 72 70 78 13 4 44 -5 83 -23
94 -45 155 -72 165 -72 4 0 27 -9 50 -20 22 -11 47 -20 55 -20 8 0 20 -7 27
-15 7 -8 18 -15 24 -15 6 0 92 -39 191 -87 158 -78 185 -88 232 -87 63 0 76
10 44 33 -23 16 -270 148 -366 196 -27 13 -86 45 -130 70 -199 113 -240 127
-307 100 -26 -10 -22 6 13 53 l30 41 97 -51 c53 -28 156 -84 227 -123 72 -40
167 -92 213 -114 45 -23 82 -46 82 -51 0 -5 9 -11 20 -15 11 -3 59 -28 107
-55 95 -53 123 -61 123 -32 0 26 -43 62 -145 122 -49 29 -108 65 -130 80 -22
15 -62 39 -90 54 -54 29 -77 44 -190 123 -42 29 -80 53 -85 53 -6 0 -10 4 -10
9 0 14 -55 30 -71 20 -23 -14 -55 -10 -79 9 l-23 19 29 26 c33 30 42 32 76 15
23 -13 233 -148 514 -331 136 -88 200 -124 208 -116 5 5 9 46 7 70 -1 17 -68
89 -83 89 -9 0 -328 208 -338 219 -3 4 -44 33 -92 65 -82 56 -88 58 -117 47
-58 -25 -100 13 -54 49 l26 20 46 -27 c25 -14 78 -48 117 -75 39 -26 75 -48
79 -48 4 0 47 -24 94 -53 47 -30 127 -76 176 -104 169 -95 175 -96 175 -43 0
21 -10 36 -37 58 -56 44 -226 152 -239 152 -7 0 -14 6 -17 13 -2 7 -29 25 -58
41 -30 16 -62 35 -71 43 -32 28 -140 73 -174 73 -26 0 -34 4 -34 18 0 24 35
56 52 48 12 -5 100 -66 123 -84 32 -25 167 -112 174 -112 5 0 11 -3 13 -7 2
-5 17 -15 34 -24 17 -9 79 -42 138 -73 59 -31 111 -54 116 -51 15 9 12 72 -4
88 -8 8 -52 36 -98 62 -146 84 -262 153 -308 185 -30 20 -57 30 -82 30 -33 0
-68 20 -68 38 1 25 17 32 51 20 31 -12 185 -99 269 -154 86 -55 234 -135 259
-140 25 -5 30 -2 39 25 13 37 3 49 -76 91 -26 14 -92 55 -147 92 -129 85 -170
106 -228 117 -57 10 -65 16 -51 39 15 23 64 27 89 7 11 -9 70 -43 130 -77 61
-34 112 -65 115 -68 14 -17 159 -93 186 -97 26 -4 32 -2 37 18 11 41 8 46 -58
84 -36 21 -65 42 -65 46 0 4 -17 14 -37 22 -21 8 -69 37 -108 63 -56 39 -81
49 -125 53 -60 7 -75 28 -30 44 19 7 33 4 60 -13 167 -105 353 -200 392 -200
25 0 28 4 28 31 0 37 -8 45 -90 88 -36 19 -67 37 -70 40 -10 12 -192 101 -206
101 -24 0 -15 30 13 41 21 8 28 7 35 -5 4 -8 32 -28 60 -45 29 -17 60 -36 68
-41 76 -51 188 -110 211 -110 26 0 49 22 49 48 0 6 -45 39 -101 74 -157 99
-179 111 -205 111 -13 -1 -27 4 -31 10 -7 11 23 37 43 37 9 0 165 -108 229
-158 40 -31 72 -49 82 -45 7 2 22 20 34 39 26 42 23 47 -75 112 -84 56 -118
70 -168 71 -20 1 -39 5 -43 10 -6 11 46 51 68 51 11 0 151 -93 195 -130 18
-16 74 -23 91 -12 8 6 11 18 7 29 -10 32 -117 110 -171 126 -55 16 -66 30 -36
47 24 13 49 2 148 -66 74 -50 111 -63 124 -43 20 32 3 79 -28 79 -7 0 -35 14
-61 30 -27 17 -55 30 -63 30 -22 0 -42 17 -35 29 5 8 18 6 44 -5 42 -17 135
-75 140 -86 6 -14 60 -8 77 8 22 23 15 44 -20 63 -17 9 -44 25 -60 37 -17 12
-43 26 -60 31 -24 9 -27 12 -13 18 19 7 44 -4 114 -53 42 -30 50 -32 75 -22
36 15 44 39 21 60 -32 30 -59 40 -106 40 -50 0 -56 8 -27 34 21 19 18 20 106
-28 43 -23 82 -21 96 6 10 19 8 25 -20 50 -20 18 -42 28 -63 28 -31 0 -31 1
-15 17 15 16 20 16 40 4 66 -42 76 -46 94 -35 22 14 29 64 11 75 -7 5 -23 9
-35 9 -13 0 -23 4 -23 9 0 17 25 18 58 2 38 -18 65 -7 70 28 3 17 -3 22 -28
28 -28 5 -30 8 -17 20 12 12 19 13 36 3 26 -13 57 -6 65 16 8 20 -1 34 -20 34
-27 0 -9 25 27 36 25 8 40 23 57 55 13 24 30 51 37 59 7 8 16 26 20 40 4 14
13 32 21 40 17 20 33 93 34 150 0 102 -39 160 -109 160 -20 0 -45 -6 -56 -12z"/>
<path d="M4970 3068 c0 -36 -29 -99 -64 -137 -29 -32 -86 -67 -149 -92 -122
-49 -497 -63 -876 -33 -336 26 -534 14 -736 -46 -38 -11 -115 -34 -170 -49
-186 -54 -403 -132 -485 -176 -14 -8 -64 -32 -112 -55 -48 -23 -90 -45 -93
-49 -2 -5 -16 -12 -30 -15 -32 -8 -152 -64 -185 -87 -14 -9 -74 -42 -134 -74
-112 -58 -179 -94 -276 -147 -30 -17 -107 -66 -171 -108 -64 -43 -129 -85
-145 -93 -16 -9 -42 -28 -59 -43 -16 -14 -63 -51 -103 -81 -76 -56 -415 -388
-539 -526 -74 -83 -127 -164 -148 -224 -17 -49 -1 -94 38 -104 21 -6 30 -3 42
14 20 28 19 49 -4 78 -17 23 -18 49 -1 49 4 0 15 -19 24 -42 21 -51 8 -91 -35
-114 -38 -19 -36 -37 8 -71 32 -25 45 -28 107 -28 79 1 114 15 163 65 37 38
53 110 53 240 0 67 3 85 18 96 16 12 15 15 -9 39 -14 14 -43 32 -64 40 -43 14
-56 32 -31 41 9 4 44 -16 89 -50 75 -56 103 -66 125 -44 29 29 -59 108 -121
108 -41 0 -58 20 -37 45 18 22 41 18 75 -13 107 -98 145 -124 181 -124 21 0
43 7 53 17 15 15 14 18 -14 41 -61 51 -150 104 -174 104 -15 0 -32 4 -39 9
-18 11 -12 41 9 54 13 8 29 -1 80 -46 129 -115 228 -167 264 -137 20 16 19 29
-2 37 -10 4 -54 38 -98 75 -44 38 -99 78 -123 89 -44 22 -49 35 -20 53 13 8
30 -5 84 -61 103 -107 193 -163 259 -163 39 0 49 25 16 38 -11 4 -56 41 -102
82 -94 86 -138 120 -155 120 -6 0 -14 7 -18 15 -7 18 10 65 23 65 5 0 30 -26
57 -57 118 -142 213 -218 286 -231 47 -9 78 -5 78 8 0 4 -24 25 -52 46 -71 51
-157 133 -174 166 -8 16 -26 31 -42 34 -54 13 -101 44 -102 66 0 4 12 15 26
24 l25 17 122 -125 c172 -177 245 -225 319 -213 45 8 51 31 12 45 -27 11 -47
27 -169 141 -114 107 -129 119 -144 119 -19 0 -71 49 -71 67 0 7 9 17 21 23
18 10 33 -1 147 -118 200 -204 274 -256 355 -254 47 1 86 19 61 29 -16 6 -156
114 -225 174 -33 30 -83 82 -110 117 -30 38 -57 62 -69 62 -56 0 -89 42 -55
70 25 20 53 0 224 -166 229 -222 251 -241 305 -269 56 -28 88 -32 105 -11 9
11 2 21 -31 51 -24 21 -122 115 -218 209 -169 165 -192 183 -254 202 -42 13
-56 39 -31 59 51 39 44 43 208 -123 86 -86 210 -212 275 -279 l119 -123 66 0
c37 0 67 4 67 9 0 4 -26 32 -57 61 -32 29 -152 146 -268 260 -178 176 -216
209 -250 217 -33 7 -40 13 -40 32 0 14 11 32 28 45 l28 21 287 -291 c324 -329
365 -364 423 -364 21 0 39 3 39 8 0 7 -37 48 -200 219 -41 44 -131 140 -200
213 -178 191 -199 210 -231 210 -34 0 -59 9 -59 21 0 12 61 49 81 49 9 0 27
-10 40 -23 53 -50 315 -332 463 -497 87 -96 172 -182 189 -192 39 -20 141 -35
136 -20 -4 11 -104 121 -304 335 -71 77 -168 183 -215 236 -144 164 -163 181
-204 181 -44 0 -49 23 -9 44 40 20 60 8 137 -80 38 -44 105 -119 150 -168 44
-49 89 -98 99 -110 10 -11 42 -46 71 -76 29 -30 90 -98 136 -150 186 -212 240
-255 240 -194 0 22 -28 75 -50 94 -3 3 -25 30 -50 60 -25 30 -63 75 -86 100
-71 78 -167 191 -258 305 -48 61 -102 128 -119 149 -47 58 -68 76 -92 76 -26
0 -65 27 -65 44 0 18 46 29 68 17 17 -9 59 -55 147 -160 16 -20 32 -38 35 -41
3 -3 22 -26 43 -52 21 -26 43 -53 50 -60 16 -18 94 -111 152 -183 27 -33 59
-71 72 -85 13 -14 23 -28 23 -33 0 -5 31 -40 69 -79 51 -52 74 -69 87 -64 13
5 15 15 12 44 -6 43 -37 91 -112 177 -65 72 -173 207 -206 255 -13 19 -27 37
-30 40 -3 3 -21 25 -40 50 -19 25 -43 54 -52 65 -9 11 -39 49 -65 85 -43 57
-53 65 -86 68 -43 4 -47 15 -12 38 24 15 26 15 52 -13 38 -39 115 -133 135
-164 9 -14 34 -46 55 -71 21 -24 56 -66 78 -93 84 -103 255 -293 286 -320 l33
-27 18 22 c23 28 23 42 1 67 -130 150 -118 135 -177 224 -16 24 -47 64 -70 90
-23 25 -50 56 -61 70 -11 13 -40 49 -64 79 -75 92 -124 140 -146 140 -35 0
-49 15 -36 39 18 34 52 26 93 -21 53 -62 121 -147 138 -174 9 -12 37 -47 63
-77 26 -30 61 -75 79 -101 29 -39 169 -207 204 -243 7 -7 17 -13 22 -13 14 0
42 46 42 67 0 10 -63 97 -141 193 -78 96 -166 211 -197 255 -81 117 -110 145
-148 145 -18 0 -35 4 -39 9 -6 10 21 41 35 41 19 0 75 -58 142 -148 39 -53 75
-101 79 -106 5 -6 63 -80 129 -163 127 -162 161 -193 188 -177 27 17 24 30
-15 76 -109 129 -133 158 -190 237 -194 268 -206 282 -235 288 -31 6 -37 20
-12 30 24 9 57 -14 87 -61 14 -23 36 -53 47 -66 11 -13 20 -26 20 -29 0 -3 16
-23 35 -44 20 -21 61 -71 93 -110 112 -140 221 -257 240 -257 6 0 16 9 22 19
15 30 -1 61 -98 187 -135 176 -200 264 -238 322 -28 42 -40 52 -63 52 -16 0
-34 7 -41 15 -10 12 -8 16 15 25 14 5 30 10 34 10 12 0 86 -79 172 -185 45
-55 85 -102 88 -105 4 -3 12 -17 18 -31 10 -22 88 -126 164 -217 21 -24 39
-21 73 14 20 19 11 37 -48 109 -23 28 -80 100 -126 160 -46 61 -89 117 -97
125 -7 8 -35 44 -61 80 -40 53 -54 66 -80 68 -38 4 -41 15 -9 29 33 15 63 -1
99 -53 18 -26 84 -110 147 -188 62 -77 135 -169 162 -202 55 -69 71 -79 99
-61 27 16 25 56 -2 87 -38 41 -129 159 -203 260 -83 115 -124 160 -144 160 -9
0 -23 5 -31 10 -13 9 -12 12 4 25 11 8 25 15 31 15 6 0 36 -33 66 -72 29 -40
56 -75 59 -78 3 -3 17 -21 31 -40 15 -19 36 -46 48 -60 11 -14 24 -29 28 -35
74 -94 168 -195 193 -205 27 -11 34 -11 48 4 15 15 15 18 -1 49 -10 17 -38 54
-62 81 -25 27 -45 53 -45 57 0 5 -16 25 -35 45 -19 19 -35 38 -35 40 0 22
-177 214 -197 214 -22 0 -14 17 10 24 12 3 27 6 33 6 11 0 94 -104 94 -118 0
-4 12 -21 28 -37 15 -17 43 -53 62 -80 19 -28 41 -56 48 -64 8 -8 44 -55 80
-103 36 -49 70 -87 76 -84 74 31 80 44 44 93 -26 34 -88 111 -103 127 -9 10
-93 123 -157 213 -13 17 -40 40 -61 49 -26 12 -34 20 -25 26 31 19 58 7 95
-41 128 -167 201 -260 224 -286 15 -16 38 -46 51 -65 36 -53 85 -54 79 -3 -3
25 -108 192 -214 340 -18 25 -45 48 -68 57 -48 19 -50 36 -5 36 42 0 70 -27
149 -145 33 -49 64 -91 69 -93 4 -2 8 -9 9 -15 0 -7 24 -46 52 -87 41 -59 59
-76 80 -78 34 -4 58 13 50 36 -4 9 -9 19 -12 22 -3 3 -15 21 -25 40 -42 77
-157 247 -186 275 -17 16 -43 34 -58 41 l-27 11 27 8 c16 4 34 5 42 2 14 -6
216 -301 216 -316 0 -17 75 -81 94 -81 26 0 46 18 46 41 0 18 -56 104 -149
229 -69 93 -76 100 -96 100 -26 0 -11 25 17 28 26 3 57 -30 158 -164 104 -138
129 -164 164 -164 38 0 54 23 34 49 -23 28 -27 34 -94 128 -36 51 -79 104 -96
118 -26 22 -27 25 -9 25 22 0 69 -47 122 -120 18 -25 38 -51 45 -58 7 -7 28
-33 45 -57 36 -50 46 -53 80 -26 24 19 24 20 6 53 -35 65 -119 160 -155 176
l-37 17 34 3 c19 2 44 -2 55 -8 20 -10 107 -117 133 -162 22 -39 55 -48 87
-25 17 13 14 19 -45 95 -35 45 -70 82 -76 82 -7 0 -13 5 -13 10 0 6 11 10 24
10 27 0 62 -32 121 -109 34 -45 44 -52 70 -49 48 5 45 37 -9 92 l-46 46 40 0
c32 0 43 -5 57 -27 36 -56 68 -78 98 -67 20 8 19 26 -5 57 -24 30 -25 37 -4
37 8 0 29 -13 46 -30 31 -32 44 -36 68 -20 12 8 13 13 3 29 -16 25 -2 34 32
21 37 -14 70 -12 84 4 6 7 25 16 41 20 45 9 138 72 202 137 60 62 73 98 66
183 -4 50 -28 62 -28 14z m-4173 -1833 c25 -19 54 -35 64 -35 11 0 19 -4 19
-10 0 -5 -8 -10 -17 -10 -10 0 -31 -7 -47 -15 -39 -20 -46 -18 -16 4 24 19 24
20 7 39 -10 11 -34 23 -53 26 -20 4 -34 13 -34 21 0 25 29 17 77 -20z m-97
-40 c17 -9 30 -20 30 -26 0 -6 -6 -6 -19 1 -11 5 -29 10 -40 10 -14 0 -19 5
-15 15 7 19 8 19 44 0z m-40 -65 l35 -19 -42 -1 c-23 0 -49 -3 -58 -7 -16 -6
-16 -4 0 20 20 32 20 32 65 7z"/>
<path d="M725 1492 c-33 -15 -90 -44 -126 -64 -60 -34 -82 -54 -142 -127 -10
-12 -42 -69 -72 -126 -40 -76 -57 -122 -65 -173 -14 -89 0 -227 27 -274 40
-69 157 -103 264 -78 30 7 118 44 197 82 131 64 145 69 171 58 16 -6 33 -21
38 -33 10 -22 8 -29 -31 -117 -17 -39 -185 -204 -246 -242 -122 -76 -313 -143
-442 -155 -54 -5 -68 -9 -68 -23 0 -36 83 -100 140 -107 60 -8 209 40 291 94
20 13 45 25 55 27 45 9 223 130 327 223 139 124 199 259 198 445 -1 147 -34
224 -121 282 -45 30 -68 34 -156 26 l-41 -4 -7 -105 c-4 -58 -14 -128 -23
-156 -19 -61 -73 -114 -140 -138 -119 -42 -206 -4 -267 118 -20 40 -23 58 -17
86 16 72 83 167 221 314 92 99 150 168 150 182 0 21 -49 15 -115 -15z"/>
<path d="M1250 1272 c-46 -6 -130 -32 -130 -41 0 -4 14 -19 32 -32 59 -45 79
-74 105 -157 22 -70 25 -95 20 -170 -5 -103 -32 -193 -84 -281 -96 -163 -331
-336 -623 -458 -41 -18 -87 -34 -103 -38 -70 -14 8 -65 130 -84 92 -14 238
-14 322 0 83 14 231 82 231 107 0 10 -8 28 -17 41 -51 74 39 272 197 432 70
71 105 94 154 103 l39 7 -6 92 c-9 140 -69 310 -147 413 -40 53 -75 72 -120
66z"/>
<path d="M1420 634 c-56 -32 -97 -70 -117 -109 -9 -16 -29 -46 -45 -65 -16
-19 -33 -40 -38 -46 -15 -20 -57 -108 -70 -147 -10 -33 -10 -44 5 -77 24 -53
46 -56 103 -11 71 57 126 127 175 227 43 86 84 225 72 245 -10 15 -38 10 -85
-17z"/>
</g>
</svg>
