<?xml version="1.0" encoding="UTF-8" standalone="no"?><!-- Created with Inkscape (http://www.inkscape.org/) --><svg xmlns:inkscape="http://www.inkscape.org/namespaces/inkscape" xmlns:sodipodi="http://sodipodi.sourceforge.net/DTD/sodipodi-0.dtd" xmlns="http://www.w3.org/2000/svg" xmlns:svg="http://www.w3.org/2000/svg" version="1.1" id="svg1" width="16mm" height="16mm" viewBox="0 0 400 400" sodipodi:docname="yoda.svg" inkscape:version="1.4.2 (f4327f4, 2025-05-13)">
  <defs id="defs1"/>
  <sodipodi:namedview id="namedview1" pagecolor="#ffffff" bordercolor="#000000" borderopacity="0.25" inkscape:showpageshadow="2" inkscape:pageopacity="0.0" inkscape:pagecheckerboard="0" inkscape:deskcolor="#d1d1d1" inkscape:zoom="1.4775" inkscape:cx="200" inkscape:cy="200" inkscape:window-width="1536" inkscape:window-height="793" inkscape:window-x="-8" inkscape:window-y="1072" inkscape:window-maximized="1" inkscape:current-layer="g1"/>
  <g inkscape:groupmode="layer" inkscape:label="Image" id="g1">
    <path style="fill:#000000" d="m 274.13519,384.42955 c -1.85065,-0.78625 -4.10065,-1.43618 -5,-1.44429 -0.89935,-0.008 -2.76019,-0.59807 -4.13519,-1.31103 -1.7695,-0.91752 -3.6688,-1.04031 -6.5,-0.42024 -2.2,0.48183 -5.10973,0.66561 -6.46606,0.4084 -1.52624,-0.28943 -3.42603,0.28747 -4.98501,1.51376 l -2.51896,1.98141 -2.76498,-3.09456 c -2.8521,-3.19205 -3.65486,-8.10742 -1.80246,-11.03661 0.61135,-0.96672 0.53052,-1.72167 -0.23499,-2.19478 -1.89578,-1.17166 -20.88693,0.21052 -25.19867,1.83396 -2.55275,0.96115 -5.45539,1.27262 -8.12669,0.87203 -2.97805,-0.44658 -5.6781,-0.0445 -9.52886,1.41912 -5.63956,2.14346 -12.37538,2.64407 -14.81419,1.10099 -0.93137,-0.5893 -2.42566,-0.40241 -4.22592,0.52854 -4.49625,2.3251 -21.81137,3.38826 -31.09648,1.90934 -4.10142,-0.65327 -4.58883,-0.96887 -3.50784,-2.27138 1.08259,-1.30445 0.91683,-1.40524 -1.20406,-0.73209 -4.47841,1.42139 -10.04999,0.8654 -12.9713,-1.29442 -1.79684,-1.32847 -3.61157,-1.86453 -5.04393,-1.48996 -1.94527,0.5087 -2.14542,0.29554 -1.53332,-1.633 0.44655,-1.40696 0.16511,-2.8318 -0.76964,-3.8964 -1.89856,-2.16232 -5.25513,-8.96407 -6.00983,-12.17834 -0.32285,-1.375 -1.3072,-8.05569 -2.18744,-14.84597 -1.08853,-8.39709 -2.60604,-14.95404 -4.74442,-20.5 -3.1222,-8.09754 -3.14464,-8.28912 -3.23946,-27.65403 -0.0919,-18.75702 -0.20169,-19.78576 -2.88271,-27 -3.428117,-9.22454 -4.913784,-23.32771 -3.577124,-33.95698 0.515754,-4.10133 0.67882,-8.27275 0.362367,-9.2698 -0.534036,-1.6826 -0.702114,-1.6563 -2.339743,0.36609 C 95.264437,222.39166 93,222.00487 93,219.44098 c 0,-2.19747 -1.694658,-1.71661 -2.31537,0.657 -0.538909,2.06079 -0.593424,2.06522 -3.075648,0.25 -3.385321,-2.47565 -5.884952,-8.77629 -5.053998,-12.73925 0.736061,-3.5104 5.687114,-9.26967 9.445016,-10.98683 1.375,-0.6283 4.409765,-2.48776 6.743923,-4.13213 4.324347,-3.04643 4.347787,-3.12606 2.681037,-9.11061 -0.41746,-1.49892 0.3314,-3.17102 2.55377,-5.70216 3.87897,-4.41789 6.04334,-5.16008 10.42615,-3.57524 3.30251,1.19421 3.53624,1.10754 7.23827,-2.68385 2.10407,-2.15485 4.95916,-5.94291 6.34466,-8.41791 2.25644,-4.0308 2.97667,-4.56111 6.90763,-5.08609 6.17078,-0.82412 9.65466,-5.22065 10.57366,-13.34361 0.37415,-3.30696 1.99665,-10.12217 3.60558,-15.1449 C 150.68361,124.40266 152,119.36719 152,118.23547 152,116.19324 157.17895,111 159.21556,111 c 0.58416,0 -1.02536,-1.94395 -3.57672,-4.31989 C 153.08748,104.30417 151,101.61107 151,100.69545 c 0,-1.43326 -0.81466,-1.579637 -5.85781,-1.052523 -4.04464,0.422753 -7.37209,0.129563 -10.75,-0.947192 C 131.70149,97.838036 127.025,96.833992 124,96.464527 c -3.025,-0.369466 -7.81639,-1.263493 -10.64753,-1.986728 -2.83115,-0.723235 -6.99365,-1.067358 -9.25,-0.764717 -4.989573,0.669242 -5.207721,-0.384678 -1.05792,-5.111037 C 107.03555,84.056548 115.26718,80 120.5,80 c 4.31462,0 11.95128,-3.295435 16.76772,-7.23574 2.50469,-2.049074 2.67442,-2.584352 1.78593,-5.632374 -0.75837,-2.601663 -0.60724,-4.194588 0.66414,-7 0.90526,-1.997537 1.53453,-5.045057 1.39838,-6.772266 -0.26563,-3.369604 4.12537,-9.452671 8.27097,-11.458178 1.46851,-0.710414 1.20098,-0.192958 -0.87722,1.696754 -1.83235,1.666157 -3.04474,3.805877 -3.13127,5.526264 -0.0777,1.544058 -1.0389,4.529678 -2.13611,6.634713 -1.51347,2.903667 -1.82792,4.782234 -1.30295,7.784081 L 142.63156,67.5 143.4245,64 c 0.43611,-1.925 1.59751,-5.075 2.58087,-7 0.98337,-1.925 2.54862,-5.642636 3.47835,-8.261413 0.92973,-2.618777 2.55123,-5.222109 3.60335,-5.785183 C 154.74742,42.064809 155,42.279738 155,44.581179 l 0,2.651546 4.00288,-3.616363 C 161.20447,41.627363 163.83402,40 164.84633,40 c 1.01231,0 4.49852,-0.934527 7.74712,-2.076728 4.54578,-1.598283 7.28885,-1.944245 11.90655,-1.501678 14.49196,1.388931 21.43489,3.370438 25.27908,7.214629 0.75728,0.75728 2.28635,1.863612 3.39794,2.458516 3.12514,1.672523 1.1397,-1.174152 -3.67702,-5.272027 -2.2,-1.871673 -4.14794,-4.059967 -4.32875,-4.862877 -0.53062,-2.356183 -3.43146,-5.134373 -6.88913,-6.597851 -4.05081,-1.714527 -4.0517,-1.714451 -4.55141,0.388016 -0.33086,1.392063 -0.64353,1.198225 -1.52868,-0.947701 -1.43,-3.466795 -6.05249,-6.662287 -7.12564,-4.925894 -0.56877,0.920284 -1.06703,0.839795 -2.03711,-0.329071 -0.70629,-0.851034 -1.79157,-1.534143 -2.41172,-1.518021 -1.19062,0.03095 3.70852,4.680151 6.9584,6.603403 1.05272,0.622994 1.68277,1.379259 1.40012,1.680589 -0.28266,0.301331 -2.8698,-1.40851 -5.74921,-3.799646 -3.32198,-2.758655 -4.77875,-4.562589 -3.98608,-4.936002 3.0659,-1.444296 -11.20705,0.39514 -15.03001,1.937002 -3.24858,1.310208 -4.1471,2.142116 -3.7307,3.454102 0.71348,2.247975 -1.25057,5.945577 -5.31929,10.014299 -4.0051,4.005092 -5.22652,3.511606 -1.37353,-0.554938 1.5259,-1.610467 3.56174,-4.174205 4.5241,-5.697195 1.71201,-2.709358 1.70076,-2.787194 -0.5217,-3.609334 -2.14049,-0.791818 -2.02715,-0.964889 1.9659,-3.001989 2.33053,-1.188951 6.9548,-2.857911 10.27615,-3.7088 5.76958,-1.478099 6.33794,-1.449249 12.74855,0.64713 3.69036,1.206811 7.63874,3.037471 8.77419,4.068134 C 192.6999,26.156731 194.5243,27 195.61867,27 c 2.31856,0 10.02534,4.730688 12.78632,7.848681 1.04774,1.183225 2.96024,2.151319 4.25,2.151319 1.28975,0 3.26115,0.916139 4.38087,2.035864 1.67413,1.674122 1.98507,3.09452 1.75,7.993912 -0.28536,5.947525 -1.12526,7.52891 -2.24145,4.220224 -1.44387,-4.280055 -19.37214,-13.959185 -21.50511,-11.610195 -0.42959,0.473107 -1.07276,2.097695 -1.42924,3.610195 -0.58709,2.490879 -0.38725,2.752069 2.12089,2.771962 3.3804,0.02681 10.26376,3.050509 12.15966,5.34145 0.94094,1.137002 -0.0291,0.868781 -3,-0.829476 -2.46422,-1.408644 -5.99533,-2.51513 -8.04806,-2.521891 L 193.1851,48 l -0.34255,5.501363 c -0.1884,3.02575 -0.13259,5.50075 0.12402,5.5 0.25661,-7.49e-4 2.37579,-0.730502 4.70929,-1.621673 4.50648,-1.721042 14.67611,-1.237234 15.90851,0.756828 1.00773,1.630539 0.16992,1.689282 -5.01715,0.351777 -4.10236,-1.057809 -5.74099,-1.031924 -9.73362,0.15376 -8.05089,2.390859 -9.64169,4.551608 -10.03674,13.632734 l -0.33823,7.774789 3.02069,-3.439889 C 195.30107,72.25756 197.8518,71 202.85753,71 c 2.84643,0 4.88239,-0.751724 7.10798,-2.624432 1.71543,-1.443437 3.34811,-2.395284 3.62818,-2.115215 0.28007,0.28007 -1.19147,1.911064 -3.27008,3.624432 L 206.54431,73 l 3.39911,0 c 1.8695,0 4.28778,-0.7875 5.37394,-1.75 1.5551,-1.378049 1.8763,-1.431185 1.51124,-0.25 -0.25497,0.825 -2.10493,2.395107 -4.111,3.489127 -3.33222,1.817237 -3.75846,1.849872 -4.9325,0.37766 -2.29841,-2.88212 -5.72274,-2.936429 -9.9222,-0.157364 -4.44412,2.940985 -4.60861,4.08156 -0.26168,1.814623 C 200.90352,74.801887 205,74.511738 205,76 c 0,0.55 -1.37045,1 -3.04545,1 -1.93852,0 -3.84675,0.874078 -5.25,2.404797 -5.207,5.679975 -5.74155,6.98329 -3.25548,7.937287 0.94106,0.361119 1.26464,0.07544 0.923,-0.814871 -1.66422,-4.33689 5.33976,-8.853424 12.99256,-8.378283 2.82445,0.175363 5.74608,-0.06776 6.4925,-0.540274 1.06197,-0.67226 1.19984,-0.342511 0.63394,1.516115 -1.16841,3.837439 -5.38605,8.810767 -8.03604,9.475871 -3.07728,0.77235 -3.26749,2.383705 -0.20503,1.736936 2.07169,-0.437526 2.10271,-0.38173 0.39143,0.704067 -1.1542,0.732337 -3.42809,0.930339 -6,0.522459 -4.71164,-0.74722 -5.06414,-1.251316 5.18755,7.418338 l 6.32898,5.352288 2.34727,-2.91736 c 4.72932,-5.877962 8.87008,-14.856602 9.59283,-20.800698 0.78529,-6.458362 1.45606,-7.202229 7.38148,-8.185803 9.37892,-1.556828 14.1976,-6.005364 21.08038,-19.461102 3.96208,-7.745808 6.45722,-11.424106 8.74231,-12.88779 1.75877,-1.126556 2.63657,-2.055865 1.95065,-2.06513 -2.68012,-0.0362 -9.10687,7.29688 -14.78613,16.871343 -6.26565,10.56304 -7.01223,11.242376 -14.92034,13.576523 -4.82646,1.424572 -5.03819,1.397569 -8.25,-1.052201 -3.58892,-2.737407 -3.98389,-4.573807 -1.80933,-8.412512 1.3692,-2.417031 1.39619,-2.371378 0.81333,1.375617 -0.70555,4.535747 0.79481,5.879934 7.06578,6.33029 6.74318,0.484268 9.7851,-1.833704 15.74264,-11.996033 2.96514,-5.057923 6.67529,-10.661795 8.24476,-12.453049 C 256.92307,40.465571 257.91322,39 257.55393,39 c -1.38417,0 -6.26642,2.94958 -7.62676,4.607657 -0.78494,0.956741 -4.06417,3.686413 -7.28718,6.065936 C 237.40598,53.537832 237.06215,54 239.42138,54 c 4.30014,0 4.70465,5.465831 0.50718,6.853102 -1.21327,0.400988 -1.22332,0.223499 -0.0667,-1.177746 0.74903,-0.907437 1.11188,-2.301345 0.80634,-3.097572 -0.44421,-1.157595 -1.27504,-1.249019 -4.14622,-0.456248 -1.97488,0.545291 -4.38197,0.740295 -5.3491,0.433342 -1.32374,-0.420139 -1.99503,0.229435 -2.71565,2.627806 -1.3889,4.622499 -3.29883,4.778552 -2.55514,0.20877 0.66482,-4.085042 1.20278,-4.51813 9.19272,-7.400619 3.51866,-1.269409 7.78616,-3.991274 11.5,-7.334845 3.24784,-2.924035 6.80517,-5.864316 7.90517,-6.533958 4.2333,-2.577088 -2.8827,0.0826 -10.7278,4.009644 C 238.1913,44.925319 234.77913,46 231.49008,46 c -2.50488,0 -6.11486,0.652038 -8.0222,1.448973 C 221.56055,48.245909 220,48.483479 220,47.976908 c 0,-1.371985 10.67131,-4.216005 13.02101,-3.47024 1.35258,0.429294 4.61694,-0.684196 9.75587,-3.327782 9.147,-4.705431 15.33383,-6.533118 19.22326,-5.678856 4.17447,0.916868 4.41685,3.056389 0.60129,5.307625 -2.46311,1.453267 -4.60798,4.536181 -8.5682,12.315442 -7.3629,14.463286 -10.71696,17.709247 -21.03128,20.353464 -4.91205,1.259272 -6.06578,2.808949 -7.83467,10.523439 -0.5675,2.475 -1.33399,5.283707 -1.7033,6.241571 -1.0191,2.643128 2.11917,3.29786 5.94127,1.239521 2.43618,-1.311968 4.44325,-1.608565 7.69527,-1.137175 17.6286,2.555324 18.95122,3.069861 26.54102,10.325243 3.54819,3.39186 5.25281,5.90231 5.7226,8.4279 0.64068,3.44426 3.54301,5.91308 6.93291,5.89736 4.80695,-0.0223 8.54744,-2.27424 11.59853,-6.98287 1.77738,-2.74298 4.20312,-5.6677 5.39052,-6.49939 2.58567,-1.811075 7.8425,-1.983556 9.5139,-0.31216 2.06839,2.06839 1.40308,8.41193 -1.3,12.39514 -4.25556,6.27092 -2.74013,8.65662 3.77075,5.9362 4.23156,-1.76806 10.00043,-1.99176 12.79499,-0.49616 1.38336,0.74036 1.93426,2.10104 1.93426,4.7775 0,4.5842 -2.06714,7.73637 -5.66568,8.63955 -3.7324,0.93677 -8.08587,4.18962 -8.85641,6.61737 -0.35221,1.1097 -0.0766,4.21752 0.61254,6.90625 1.0066,3.92757 1.00293,6.5238 -0.0187,13.20638 -1.09054,7.13355 -1.04425,9.59912 0.32513,17.31777 0.87818,4.95 1.59814,10.88458 1.5999,13.18795 0.002,2.30337 0.697,7.17959 1.54499,10.83604 1.44944,6.24986 1.43122,6.83743 -0.30407,9.80866 -3.06223,5.24326 -7.93201,7.92061 -13.46896,7.40506 -7.0018,-0.65193 -20.52921,-8.95447 -22.67658,-13.91791 -1.05619,-2.44131 -2.39884,-3.83475 -3.98838,-4.13928 l -2.3962,-0.45907 0.68105,15.13928 c 0.37457,8.3266 1.10631,18.06427 1.62608,21.63927 0.51978,3.575 0.96112,9.425 0.98077,13 0.0502,9.14199 2.11896,16.90585 6.4353,24.15172 6.31592,10.60257 8.2525,18.22042 11.04075,43.43053 1.39409,12.60476 2.81321,24.26775 3.15361,25.91775 1.1501,5.57485 4.2407,10.18591 10.40861,15.52926 5.62291,4.87121 6.0892,5.58059 5.51874,8.39576 -0.3427,1.69124 -0.76286,4.9703 -0.93367,7.28679 -0.49244,6.67808 -1.24709,7.08125 -12.18401,6.50918 l -9.55213,-0.49964 -3.19136,3.06887 c -3.08399,2.96563 -3.30455,3.02078 -6.55616,1.63933 z m -27.45004,-5.88911 c -0.18799,-0.57224 -1.31906,-1.18424 -2.51348,-1.35999 -2.46817,-0.36318 -3.05118,2.54004 -0.93504,4.65618 0.98218,0.98218 1.49936,0.87732 2.51348,-0.50956 0.70227,-0.96041 1.12303,-2.21439 0.93504,-2.78663 z m 31.79337,2.83818 c 3.95524,-3.95524 -1.18747,-7.12515 -5.55924,-3.42665 -2.37181,2.00654 -2.38119,2.07614 -0.47815,3.54736 2.49138,1.92606 4.02121,1.89547 6.03739,-0.12071 z M 270,379.52305 c 0,-2.43107 4.6159,-4.7867 8.49274,-4.3341 3.98504,0.46523 4.17792,0.2096 1.81333,-2.40324 -1.59241,-1.75959 -1.59189,-1.83262 0.009,-1.21844 0.93641,0.35933 1.98319,1.77146 2.32619,3.13805 0.77249,3.07786 2.32063,1.1703 2.3438,-2.88793 0.0188,-3.29001 -2.38648,-4.24959 -8.27686,-3.30207 -8.79828,1.41529 -14.97091,8.48473 -9.95783,11.40458 2.43587,1.41877 3.25,1.31936 3.25,-0.39685 z M 260.8,378.8 c 0.66,-0.66 1.2,-2.01 1.2,-3 0,-0.99 0.60526,-1.8 1.34501,-1.8 0.73976,0 2.19004,-0.93374 3.22285,-2.07498 1.86255,-2.0581 1.85567,-2.06942 -0.84528,-1.39153 -1.67772,0.42108 -4.26635,0.066 -6.74308,-0.92502 C 256.76851,368.72381 254.01878,368 252.86898,368 c -2.0309,0 -2.02319,0.0572 0.27024,2.00545 l 2.36078,2.00546 -2.55061,-0.9049 c -3.45498,-1.22574 -7.79352,-0.26577 -9.00173,1.99178 -0.82139,1.53478 -0.55855,1.96177 1.53031,2.48604 1.38712,0.34814 2.52203,1.2592 2.52203,2.02458 0,2.1742 6.31956,1.71467 9.36514,-0.68099 1.44917,-1.13992 2.63486,-1.61544 2.63486,-1.0567 0,0.55873 -1.00013,1.71639 -2.22251,2.57258 -2.13663,1.49655 -2.14435,1.5567 -0.2,1.5567 1.11238,0 2.56251,-0.54 3.22251,-1.2 z m 42.59301,-0.38179 C 304.58473,375.31263 304.04242,373 302.12244,373 c -3.09632,0 -4.30474,2.29472 -2.53726,4.81815 1.80958,2.58354 2.97616,2.76737 3.80783,0.60006 z m -6.34294,-4.80689 C 298.75693,372.1751 300.82048,371 301.63574,371 c 0.81526,0 1.22527,-0.41587 0.91113,-0.92416 -0.31414,-0.50829 -2.9282,-0.80837 -5.80902,-0.66683 -4.68265,0.23006 -5.47634,0.60869 -7.48785,3.57205 -1.2375,1.82309 -2.25,3.65077 -2.25,4.06151 0,1.50644 7.03736,-0.89622 10.05007,-3.43125 z m -135.73433,1.26649 c 1.20134,-0.6172 3.30926,-2.14164 4.68426,-3.38765 2.45673,-2.22626 7,-4.19466 7,-3.0328 0,0.32568 -1.15208,1.03016 -2.56017,1.56552 -1.4081,0.53536 -2.29864,1.39656 -1.97897,1.91379 0.31966,0.51722 -0.21576,1.39983 -1.18983,1.96134 -1.28521,0.74088 -0.26229,0.85652 3.72897,0.42159 6.09029,-0.66368 9.60166,-2.11697 12.28865,-5.08606 1.73522,-1.9174 1.68056,-2.02106 -2.00236,-3.79704 -2.08246,-1.00421 -6.48629,-2.00677 -9.78629,-2.22791 -7.44642,-0.49901 -11.48664,1.92589 -10.84601,6.50968 0.35967,2.57352 0.31519,2.61456 -0.59423,0.54838 -0.98578,-2.23968 -4.05976,-2.22009 -4.05976,0.0259 0,0.59321 -0.97844,2.12006 -2.17431,3.39301 L 151.65137,376 h 3.74006 c 2.05703,0 4.72297,-0.50498 5.92431,-1.12219 z m 80.36737,-1.06531 c -0.31922,-0.79773 -0.55618,-0.56078 -0.60416,0.60417 -0.0434,1.05416 0.19292,1.64479 0.52522,1.3125 0.33229,-0.33229 0.36781,-1.1948 0.0789,-1.91667 z m -90.23016,0.027 c 3.26502,-1.48764 3.51941,-4.28174 0.29705,-3.26274 -2.35292,0.74407 -6.75,3.37467 -6.75,4.03827 0,0.81501 4.02332,0.33149 6.45295,-0.77553 z m -5.21566,-5.17705 c 2.6055,-1.56067 5.3055,-2.6268 6,-2.3692 0.7096,0.26321 -0.003,0.97088 -1.62598,1.61555 -1.58878,0.63095 -2.6301,1.40577 -2.31404,1.72182 0.31606,0.31606 3.19097,-0.63521 6.38869,-2.11393 l 5.81404,-2.68858 -6.42862,-2.35283 c -5.90734,-2.16205 -6.70785,-2.23617 -9.87213,-0.91405 -1.89392,0.79134 -4.88677,1.43879 -6.65077,1.43879 -2.68207,0 -3.19428,0.36811 -3.12788,2.24792 0.0501,1.41944 -0.74985,2.6125 -2.1706,3.23713 -4.04706,1.77928 -1.95426,3.18416 4,2.68518 0.9625,-0.0807 1.75,0.28354 1.75,0.80934 0,1.19194 2.1649,0.32014 8.23729,-3.31714 z m 49.77935,1.70786 c 3.58927,-2.37526 4.55477,-2.56398 9.97856,-1.95034 3.57352,0.40429 6.0048,0.29769 6.0048,-0.2633 0,-1.66976 -2.29103,-1.86907 -13.22353,-1.1504 -6.496,0.42703 -11.42388,1.24165 -12.5,2.06637 -0.97706,0.7488 -1.93403,1.45884 -2.12661,1.57788 -0.19257,0.11904 -0.0535,0.69638 0.30902,1.28297 1.22742,1.98601 7.47051,1.14163 11.55776,-1.56318 z m 98.3199,-2.43939 c 4.12162,-0.67373 4.10735,-0.68182 -1.41987,-0.80573 -6.02551,-0.13508 -7.07931,0.28741 -6.23099,2.49812 0.4367,1.13801 0.84616,1.18021 2.01765,0.20796 0.80837,-0.67088 3.34331,-1.52604 5.63321,-1.90035 z M 132.65469,366.87162 C 134.58019,365.27359 134.31456,364 132.05576,364 c -1.06933,0 -3.20683,1.15971 -4.75,2.57714 l -2.80576,2.57713 3.40469,-0.58307 c 1.87258,-0.32069 4.01008,-1.0855 4.75,-1.69958 z m 93.76352,-0.47861 c 1.40301,-0.53838 1.57983,-4.74858 1.56446,-37.25 -0.0188,-39.83351 -0.66892,-49.44224 -4.49034,-66.37094 -2.56328,-11.35517 -5.55105,-33.44679 -5.37895,-39.77207 0.0524,-1.925 0.90532,2.81924 1.89543,10.54276 0.99011,7.72352 3.41817,21.92564 5.39569,31.56026 1.97753,9.63462 3.5955,18.52944 3.5955,19.76626 0,1.23681 0.39884,2.00226 0.88631,1.70098 1.61888,-1.00052 2.08625,3.76278 2.10004,21.40297 0.0129,16.55451 1.54072,47.92617 2.56959,52.76412 0.50846,2.39085 5.06146,5.97858 6.17455,4.8655 0.60049,-0.60049 0.0515,-13.09493 -2.75074,-62.60285 -0.48253,-8.525 -2.4512,-25.625 -4.37481,-38 -5.72596,-36.83621 -6.82194,-49.59096 -6.78822,-79 0.0181,-15.7578 0.45387,-27.7161 1.07509,-29.5 0.82437,-2.36728 0.91003,-1.52366 0.40617,4 -1.21199,13.28657 -0.64075,42.64292 1.07995,55.5 4.23554,31.64781 7.01777,49.57392 9.70036,62.5 2.29283,11.04802 2.92119,16.74113 2.98001,27 0.0495,8.63988 1.15729,21.04946 3.30282,37 l 3.22828,24 2.94784,-0.32587 c 3.73814,-0.41324 3.7152,-0.37997 2.48812,-3.60742 -0.56683,-1.49087 -1.46504,-11.56578 -1.99603,-22.38869 -1.35329,-27.58328 -3.85222,-45.8679 -12.39284,-90.67802 -1.36276,-7.15 -3.43182,-23.8 -4.59791,-37 -2.3846,-26.99325 -3.78825,-69.84837 -2.2141,-67.59874 0.54902,0.7846 1.00042,9.40412 1.02574,19.58668 0.0743,29.89722 3.71941,68.2128 9.1339,96.01206 6.50143,33.37993 9.45516,56.29891 10.95452,85 0.48845,9.35 1.20022,17.7875 1.58172,18.75 0.59364,1.49775 2.08361,1.74998 10.33663,1.74983 5.30365,-10e-5 13.1701,-0.6751 17.48098,-1.5 10.23532,-1.95857 18.03647,-1.95851 19.66203,1.7e-4 1.68542,2.03081 2.93022,1.89506 2.29246,-0.25 -0.28617,-0.9625 -2.82903,-3.57356 -5.6508,-5.80235 -8.57933,-6.77643 -10.21765,-11.30395 -12.6461,-34.94765 -3.25295,-31.67104 -4.90897,-38.41445 -12.64721,-51.5 -5.069,-8.57181 -5.81153,-13.87489 -8.21607,-58.67832 -0.71902,-13.39734 -0.91986,-14.40766 -3.64613,-18.34166 -2.68163,-3.8696 -9.49132,-10.30818 -10.17706,-9.62244 -0.16626,0.16626 0.41949,2.7328 1.30166,5.70342 3.64111,12.26093 8.7346,40.62988 6.97633,38.85567 -0.22711,-0.22917 -1.17479,-4.89424 -2.10596,-10.36683 -2.19349,-12.89142 -8.61597,-37.93614 -7.95065,-31.00389 0.26635,2.77527 0.91823,10.73122 1.4486,17.6799 0.53038,6.94868 2.29684,20.428 3.92546,29.95405 1.62862,9.52606 4.15097,25.8701 5.60523,36.3201 1.8251,13.11482 4.61772,26.74366 9.01583,44 3.50446,13.75 7.09734,29.05 7.9842,34 0.88685,4.95 1.86053,9.9 2.16373,11 0.35516,1.28852 0.21176,1.64426 -0.4031,1 -0.52491,-0.55 -2.43236,-8.425 -4.23879,-17.5 -1.80643,-9.075 -4.77378,-21.675 -6.59411,-28 -4.7742,-16.58864 -6.01795,-22.76388 -9.86906,-49 -1.89722,-12.925 -5.68386,-34.975 -8.41478,-49 -6.15307,-31.60005 -8.55619,-51.18804 -8.61118,-70.19033 -0.0302,-10.4239 -0.32633,-14.05421 -1.01979,-12.5 -1.40695,3.15329 -1.15531,37.48816 0.35684,48.69033 0.70531,5.225 2.58474,16.25 4.1765,24.5 4.89882,25.39027 12.57955,73.44015 11.58301,72.46218 -0.30142,-0.2958 -2.80641,-14.0208 -5.56665,-30.5 -2.76024,-16.4792 -6.16965,-36.03718 -7.57646,-43.46218 -4.14129,-21.85731 -6.50095,-44.88151 -5.99542,-58.5 0.80822,-21.77304 1.63324,-25.32992 8.15696,-35.16683 3.85589,-5.81419 7.53906,-7.71078 12.31452,-6.3412 C 260.6374,108.4696 262,108.51403 262,108.09071 262,106.97919 257.29274,105 254.64911,105 c -2.22284,0 -7.32254,4.56913 -9.48702,8.5 -0.6057,1.1 -1.11496,1.50502 -1.13168,0.90004 -0.0562,-2.0341 6.01251,-9.46586 8.50299,-10.41274 2.9942,-1.13839 5.95778,-0.12777 10.27297,3.50322 1.7565,1.478 3.19363,2.26701 3.19363,1.75336 0,-2.317 -7.34736,-6.65562 -13.09819,-7.73448 -3.1072,-0.58291 -4.14741,-0.17331 -8.70127,3.42632 -6.14206,4.85501 -8.88872,9.81732 -10.76546,19.44958 l -1.38622,7.1147 0.42828,-8.76959 c 0.34714,-7.10844 0.99151,-9.94314 3.40175,-14.96494 1.63541,-3.40743 2.7466,-6.56242 2.46931,-7.01109 -0.75483,-1.221331 -7.57476,0.26448 -9.74138,2.12228 -1.04125,0.89284 -2.72706,2.97334 -3.74626,4.62334 -1.0192,1.65 -1.85477,2.37812 -1.85682,1.61803 -0.002,-0.76008 0.94759,-2.92125 2.11033,-4.8026 2.21151,-3.5783 2.1382,-4.733202 -0.24245,-3.81966 -1.71309,0.65737 -2.90133,2.51384 -8.4292,13.16943 -3.28922,6.34036 -4.6866,10.60022 -6.06999,18.50421 -1.29156,7.37933 -1.98005,9.57329 -2.44746,7.79915 -0.74753,-2.8374 -0.33633,23.97916 0.62917,41.03144 0.58891,10.40115 2.82107,26.70855 3.78827,27.67574 0.21158,0.21158 0.63938,-9.8664 0.95067,-22.39552 0.45958,-18.49809 0.94794,-24.19004 2.59802,-30.28022 l 2.03205,-7.5 -0.5618,8 c -0.83507,11.89134 0.30155,8.7329 2.16926,-6.02795 3.21729,-25.42682 7.87478,-42.2439 12.84088,-46.3654 0.84013,-0.69724 -0.0362,1.80602 -1.94752,5.56282 -2.78928,5.48263 -3.86295,9.39588 -5.44084,19.83053 -2.5598,16.92814 -7.71612,61.36235 -8.52921,73.5 -0.73657,10.99511 -2.88635,31.94032 -4.46477,43.5 -0.75069,5.49771 -0.84193,19.10392 -0.2917,43.5 0.44037,19.525 0.74972,36.4 0.68745,37.5 -0.91846,16.22488 -1.26626,35.2391 -0.66022,36.09504 0.43704,0.61727 2.42805,0.89483 4.56332,0.63616 l 3.788,-0.45888 -0.58403,-42.13616 c -0.33481,-24.15645 -1.20444,-48.71195 -2.038,-57.54677 C 216.65429,255.61355 216,246.87605 216,244.67272 c 0,-8.10028 1.07539,-2.54582 2.59978,13.42801 1.66388,17.43566 2.03572,30.37695 2.2598,78.64927 0.1351,29.1046 0.21305,30.25 2.05863,30.25 1.05502,0 2.63002,-0.27314 3.5,-0.60699 z M 137.5,360.83748 c 8.25057,-3.78151 7.74329,-4.46082 -2.05673,-2.75422 -5.23855,0.91226 -6.71174,0.82927 -9.33192,-0.52568 -3.604,-1.8637 -3.83771,-1.26104 -1.19295,3.07627 1.86015,3.05056 2.02614,3.10709 6.24626,2.12707 2.38444,-0.55373 5.23534,-1.41928 6.33534,-1.92344 z m 7.5,-1.12341 c 1.29574,-0.48044 1.28773,-0.56693 -0.0589,-0.63512 -0.85738,-0.0434 -2.43238,0.62087 -3.5,1.47622 -1.91007,1.53028 -1.90913,1.54044 0.0589,0.63512 1.1,-0.50602 2.675,-1.17032 3.5,-1.47622 z m 60,-5.77256 c 0,-5.68147 -0.90251,-11.63336 -3.05967,-20.17785 -2.1591,-8.55221 -3.3448,-16.37649 -4.0284,-26.58296 -0.53281,-7.95498 -1.20857,-14.85165 -1.50169,-15.32593 -0.29312,-0.47429 -0.5252,-4.3916 -0.51572,-8.70515 0.0169,-7.67918 -0.0565,-7.91382 -3.51871,-11.24622 -5.41282,-5.20992 -9.88874,-11.82522 -12.15355,-17.96265 -2.39254,-6.48357 -4.86671,-40.0893 -3.73202,-50.69075 0.67618,-6.31754 -0.0489,-7.78753 -2.16782,-4.39467 -0.95259,1.52534 -2.73521,17.55388 -2.57404,23.14467 0.15024,5.21192 2.53856,25.1702 3.40846,28.48325 1.19056,4.53433 5.12146,12.62158 8.0797,16.62282 1.89526,2.56348 1.75589,4.89393 -0.29268,4.89393 -1.74434,0 -8.70162,-7.00096 -9.94833,-10.0108 -1.65805,-4.00288 -2.53749,-3.766 -2.82459,0.7608 -0.13081,2.0625 -0.64124,6.29684 -1.13427,9.40966 -0.59856,3.77901 -0.42607,11.42167 0.51911,23 0.77855,9.53718 1.42199,28.04234 1.42988,41.12256 0.0143,23.72223 0.02,23.78451 2.26434,24.68662 1.2375,0.49741 8.8875,0.93291 17,0.96777 L 205,362 Z m -40.37678,5.29318 c 0.77026,-0.50383 1.3418,-11.26156 1.81881,-34.23469 0.62754,-30.22257 0.49081,-35.35884 -1.39754,-52.5 -2.72777,-24.76092 -4.37012,-33.45629 -9.06605,-48 -4.33,-13.41037 -8.94156,-32.61234 -9.04873,-37.67776 -0.0386,-1.82723 -0.48689,-4.22224 -0.99608,-5.32224 -2.92211,-6.31266 3.32153,31.29308 7.67388,46.22014 7.51901,25.78757 9.39121,39.40589 9.18067,66.77986 l -0.1769,23 -0.65272,-24.5 c -0.72662,-27.27343 -2.68188,-42.67668 -5.10918,-40.24938 -2.57421,2.57421 -4.01623,12.57288 -4.561,31.62496 -0.40455,14.14821 -0.85906,19.35606 -1.57727,18.07268 -0.93059,-1.66286 -0.45255,-28.29133 0.75307,-41.94826 0.3097,-3.5083 0.0267,-2.76245 -0.94864,2.5 -1.00493,5.4222 -1.40741,17.0348 -1.45278,41.91667 -0.0345,18.92916 -0.29304,34.18639 -0.57449,33.90494 -1.10248,-1.10248 -0.82755,-70.32863 0.29517,-74.32161 0.90181,-3.20731 2.20844,-22.04121 2.53224,-36.5 0.0308,-1.375 -1.10579,-7.9 -2.52575,-14.5 -1.41995,-6.6 -2.92688,-14.25 -3.34872,-17 -0.76065,-4.95869 -0.77744,-4.9155 -2.03203,5.22887 -0.69577,5.62588 -1.54649,10.68429 -1.8905,11.24091 -0.34401,0.55661 -1.07022,6.50383 -1.6138,13.21604 -0.54358,6.71221 -2.28974,18.07881 -3.88034,25.2591 -4.49224,20.27882 -8.01919,46.57167 -8.06423,60.11752 -0.0218,6.56652 -0.72457,15.31202 -1.56188,19.43756 -0.83721,4.125 -1.76526,11.20618 -2.06235,15.73596 l -0.54016,8.23595 2.85204,1.10688 c 2.11343,0.82023 4.5381,0.79403 9.36254,-0.10116 6.17245,-1.14533 6.82149,-1.0744 12.5,1.36609 5.81121,2.49752 13.75932,3.4303 16.11272,1.89097 z m -46.0719,-10.84249 c -0.82369,-4.89071 -1.93846,-15.7782 -2.47727,-24.19442 -0.64383,-10.05645 -1.51006,-16.36542 -2.52686,-18.40364 C 112.6349,303.96541 112,300.06499 112,296.28918 c 0,-3.52195 -0.56045,-8.51531 -1.24545,-11.09636 l -1.24546,-4.69282 -0.61535,6 c -2.29248,22.35286 -2.3888,20.17207 1.37016,31.02262 2.26005,6.52382 3.88346,13.68017 4.65039,20.5 1.08884,9.68223 3.72051,20.67591 4.71206,19.68437 0.23242,-0.23242 -0.25135,-4.42408 -1.07503,-9.31479 z m 5.50377,-10.70254 c 0.66476,-1.75431 1.55302,-11.28966 1.9739,-21.18966 0.64778,-15.23735 4.51845,-46.74901 8.60386,-70.04518 0.51877,-2.95816 0.29584,-3.1632 -7.80214,-7.17591 -7.26796,-3.60141 -8.92392,-4.94112 -12.92285,-10.45482 -2.52267,-3.47825 -4.94615,-7.22409 -5.38551,-8.32409 -1.40938,-3.52863 -2.73096,5.11313 -2.23636,14.62347 0.40017,7.69441 0.90089,9.51137 4.64774,16.86497 3.76579,7.39078 4.2988,9.33932 5.1636,18.87654 2.07913,22.92904 3.07405,38.54456 3.83142,60.13502 0.4341,12.375 0.91187,22.725 1.06169,23 0.14983,0.275 0.62871,-2.56465 1.06419,-6.31034 0.43549,-3.74569 1.33569,-8.24569 2.00046,-10 z m 85.01286,-43.39925 C 208.41644,269.65569 207.44582,244.325 206.911,238 206.37619,231.675 205.93935,220.35563 205.94024,212.84583 205.94199,198.14748 205.88713,198 200.41821,198 c -1.63259,0 -2.42145,0.56853 -2.42818,1.75 -0.0112,1.96767 1.68544,14.31684 5.57254,40.56023 3.48649,23.53864 4.07591,30.2024 2.59023,29.28421 -0.63404,-0.39186 -1.1528,-2.72059 -1.1528,-5.17496 0,-2.45437 -1.31674,-11.99032 -2.9261,-21.19099 -1.60935,-9.20067 -3.22269,-19.56517 -3.58521,-23.03222 -0.36252,-3.46705 -1.07077,-7.73908 -1.5739,-9.4934 C 196.41165,208.94856 196,205.16888 196,202.30361 c 0,-5.16817 -0.0298,-5.21788 -3.75,-6.25103 -5.17947,-1.43841 -10.78924,-1.31269 -12.1038,0.27126 -1.4265,1.71882 -1.68609,10.85544 -0.95683,33.67616 0.78995,24.71961 2.75569,30.12819 13.81117,38.00038 l 2.72409,1.93973 -1.79227,-8.72005 c -1.08381,-5.27309 -1.43126,-9.089 -0.87899,-9.65339 0.50231,-0.51334 1.1159,-0.73073 1.36352,-0.48311 1.06911,1.0691 4.59198,21.28782 5.13504,29.47128 0.67755,10.21033 2.67523,25.63559 5.52867,42.69015 2.02085,12.07826 3.52494,17.4828 4.57363,16.43411 0.32905,-0.32905 0.0652,-20.75396 -0.58628,-45.38869 z m -91.50112,14.41537 c -0.86176,-4.5989 -1.65492,-13.05157 -1.76258,-18.78371 L 115.60851,279.5 115.05425,290 c -0.42955,8.13757 -0.11244,12.74994 1.40939,20.5 1.08,5.5 2.12257,9.22767 2.31683,8.28371 0.19426,-0.94395 -0.35188,-5.47902 -1.21364,-10.07793 z M 112.41709,277.25 c -0.37045,-2.0625 -1.05216,-4.425 -1.51491,-5.25 -1.22699,-2.1875 -1.16609,3.17566 0.0731,6.4349 1.43249,3.76773 2.21577,3.12403 1.44184,-1.1849 z m -5.40647,-11.19146 C 105.99952,260.48269 101,248.83042 101,252.04973 c 0,1.8312 6.31014,20.97346 6.76413,20.51947 0.19884,-0.19884 -0.14024,-3.12864 -0.75351,-6.51066 z m 0.9911,-16.24744 c -2.8165,-6.13637 -5.37388,-12.4219 -5.68307,-13.96784 -1.02204,-5.11021 -2.460622,-1.83439 -1.75784,4.00281 0.82608,6.86139 2.26189,10.54603 6.26043,16.06586 1.67491,2.31214 3.35324,5.64033 3.72962,7.39598 1.07105,4.99594 1.92102,5.53221 2.26045,1.42616 0.23514,-2.84441 -0.94176,-6.49604 -4.80959,-14.92297 z m 44.71453,-2.5611 c -0.22912,-1.5125 -0.41659,-0.275 -0.41659,2.75 0,3.025 0.18747,4.2625 0.41659,2.75 0.22913,-1.5125 0.22913,-3.9875 0,-5.5 z M 133.8072,232.43679 c 2.29998,-4.66411 4.15283,-11.19478 6.40339,-22.56973 2.79206,-14.11189 3.02621,-16.53261 1.97816,-20.45114 C 141.53494,186.97138 141,181.42535 141,177.0914 c 0,-7.43398 -0.17567,-8.06795 -3.10438,-11.20314 -2.89191,-3.0958 -3.19363,-3.20119 -4.40843,-1.53985 -0.71723,0.98086 -2.0734,4.9228 -3.01372,8.75985 -1.40252,5.7231 -1.50208,7.73239 -0.5542,11.1841 1.97721,7.20003 2.15017,28.02901 0.33178,39.95764 -0.90129,5.9125 -1.93336,10.75 -2.29349,10.75 -0.63101,0 0.0287,-5.32392 1.88426,-15.20644 1.24161,-6.61265 -0.38569,-31.24211 -2.41839,-36.60266 -1.79288,-4.72813 -1.67957,-5.71009 1.74183,-15.09536 2.88085,-7.9025 4.81106,-9.40586 8.10425,-6.31208 2.71453,2.55017 3.73049,2.78332 3.73049,0.85609 0,-0.74825 1.125,-3.01824 2.5,-5.04441 3.39569,-5.00384 3.12203,-6.9101 -0.38491,-2.68123 -2.18535,2.63521 -3.83212,3.54759 -7.21965,4 -3.93443,0.52544 -4.64759,1.05173 -6.89199,5.08609 -1.3769,2.475 -3.89239,5.85433 -5.58999,7.50962 -1.69759,1.65528 -3.29974,3.64923 -3.56033,4.43098 -0.40526,1.21578 -1.16486,1.19385 -5.2517,-0.15159 l -4.77791,-1.57295 -3.41176,2.99556 c -3.52178,3.09216 -4.66779,7.89407 -2.24182,9.39341 0.78787,0.48693 0.96032,0.1768 0.52805,-0.94967 -0.82274,-2.14403 0.98097,-6.97181 2.30014,-6.15652 1.29581,0.80086 1.28832,5.0974 -0.0131,7.52918 -0.55825,1.04309 -3.03325,3.28513 -5.5,4.9823 -4.698674,3.23277 -5.448714,4.94499 -3.041355,6.94292 0.79401,0.65897 2.403135,4.08135 3.575825,7.6053 1.17269,3.52394 2.91175,7.36991 3.86457,8.54659 l 1.73239,2.13942 2.84994,-3.37228 c 4.30749,-5.09695 6.48892,-10.91733 7.06789,-18.85815 0.30756,-4.21833 1.21209,-8.22357 2.19644,-9.72589 1.63004,-2.48775 1.5968,-2.61556 -1.27858,-4.91622 l -2.95213,-2.36208 4.23095,-0.005 c 4.82737,-0.006 4.78005,-0.10077 5.71902,11.49503 1.5587,19.24929 1.63604,22.29515 0.6602,26 -0.96473,3.66266 -1.01231,3.45183 -0.56429,-2.5 0.34476,-4.57995 -0.19332,-9.70542 -1.82157,-17.35143 -2.14144,-10.05588 -2.39932,-10.65725 -3.51758,-8.20294 -0.6637,1.45666 -1.20673,4.57063 -1.20673,6.91992 0,6.34237 -2.54028,13.74477 -6.49351,18.92216 C 110.57792,215.81348 109,218.184 109,218.55553 c 0,0.37152 2.07095,3.79066 4.60212,7.59808 3.40533,5.12235 5.94084,7.69039 9.75,9.8751 2.83133,1.62389 5.6138,2.95674 6.18325,2.96191 0.56945,0.005 2.49178,-2.94406 4.27183,-6.55383 z M 107.36331,195 c 0.77353,-1.925 1.80657,-4.85 2.29564,-6.5 0.67589,-2.2803 1.4799,-3 3.35144,-3 2.70152,0 3.96798,2.92163 2.08339,4.80622 C 114.30207,191.09793 114,190.65433 114,188.7 c 0,-1.485 -0.43417,-2.7 -0.96482,-2.7 -1.27794,0 -3.03518,3.37154 -3.03518,5.82347 0,1.07523 -0.9097,3.01731 -2.02156,4.31575 L 105.95688,198.5 Z m 14.24539,-20.42268 c 0.59536,-1.55146 3.3913,-2.99089 3.3913,-1.74594 0,0.42274 -0.54,1.30862 -1.2,1.96862 -1.63643,1.63643 -2.8571,1.51239 -2.1913,-0.22268 z M 103.69974,229.25 c -0.29338,-1.5125 -0.0628,-4.80414 0.51241,-7.31477 0.8512,-3.71526 0.75013,-5.11101 -0.54312,-7.5 -1.55719,-2.87655 -1.58976,-2.76195 -1.62899,5.73298 -0.0375,8.12526 0.48986,11.83179 1.68353,11.83179 0.28027,0 0.26955,-1.2375 -0.0238,-2.75 z m 107.77782,-16.41626 c -1.73058,-8.54251 -3.27571,-12.51729 -2.0734,-5.33374 1.5187,9.0739 2.79983,14.62934 3.26613,14.16305 0.27256,-0.27256 -0.26417,-4.24575 -1.19273,-8.82931 z M 97,216.94098 C 97,215.87344 96.325,215 95.5,215 c -1.483247,0 -2.096729,3.06994 -0.86052,4.30615 C 95.682069,220.34874 97,219.02821 97,216.94098 Z M 88.281384,216.25 c -0.57433,-1.53249 -0.446138,-1.57942 1.031385,-0.37756 C 90.798309,217.08083 91,216.98742 91,215.09106 c 0,-1.18461 -0.675,-2.41285 -1.5,-2.72943 -2.129935,-0.81734 -1.856794,-2.03506 0.600616,-2.67769 1.155338,-0.30213 1.822998,-0.99852 1.483688,-1.54753 -0.33931,-0.54902 -0.159587,-1.28087 0.399384,-1.62633 C 92.54266,206.16462 93,205.00852 93,203.94098 93,202.87344 93.45,202 94,202 c 0.55,0 1.006891,0.5625 1.015313,1.25 C 95.025521,204.08333 95.35375,204 96,203 c 1.703703,-2.63629 1.087769,-3.27593 -2.581203,-2.68054 -3.074995,0.49901 -3.40838,0.37292 -2.358557,-0.89205 1.001275,-1.20646 0.93631,-1.36332 -0.358804,-0.86633 C 88.769323,199.3025 86,203.36906 86,205.46482 86,206.30917 85.55,207 85,207 c -1.520042,0 -1.197095,3.51883 0.685212,7.46607 1.703192,3.57163 3.808235,5.01809 2.596172,1.78393 z m 213.279226,-6.72137 c 0.34345,-1.83076 0.13315,-6.49522 -0.46734,-10.36547 -0.73843,-4.75924 -0.76838,-7.8875 -0.0925,-9.66509 1.54589,-4.06598 1.19281,-9.53663 -1.04274,-16.15644 -1.1231,-3.32569 -2.5856,-9.23758 -3.25,-13.13753 l -1.20799,-7.09081 -5.45366,3.44335 c -2.99952,1.89385 -6.30157,3.44336 -7.3379,3.44336 -1.65296,0 -1.80373,0.52165 -1.22837,4.25 1.24699,8.08043 6.60177,22.47666 11.60768,31.20704 2.76373,4.81998 4.82369,8.96486 4.57769,9.21085 -1.13159,1.13159 -13.12534,-19.89286 -16.77355,-29.40321 -1.31554,-3.42943 -2.79369,-6.24193 -3.28478,-6.25 -1.47186,-0.0242 0.0158,14.9544 2.33497,23.50938 3.29938,12.17097 7.59172,19.48657 13.05792,22.25514 l 4.5,2.2792 1.71807,-2.10055 c 0.94494,-1.15531 1.99908,-3.59846 2.34254,-5.42922 z m -201.12756,1.97656 c 0.36288,-1.9343 0.26376,-4.22455 -0.22026,-5.08944 -0.746532,-1.33398 -1.139499,-1.17655 -2.590346,1.03772 -0.940669,1.43564 -2.093386,2.37351 -2.561591,2.08414 C 94.243308,209.03234 93,211.17053 93,213.08179 93,213.5868 94.125,214 95.5,214 c 1.375,0 2.5,0.47656 2.5,1.05902 0,2.37546 1.819203,-0.28175 2.43305,-3.55383 z M 171.27152,208 c 0.32389,-4.43166 0.20467,-6.68178 -0.29141,-5.5 -0.80119,1.90865 -1.37164,14.28438 -0.61842,13.41667 0.19892,-0.22917 0.60835,-3.79167 0.90983,-7.91667 z M 309,206.87496 c 0,-1.51297 -0.68939,-5.72346 -1.53199,-9.35665 -0.84259,-3.63318 -1.27489,-7.02177 -0.96066,-7.5302 0.31422,-0.50842 -0.11995,-4.87624 -0.96482,-9.70626 -1.73515,-9.91956 -1.91689,-16.96205 -0.58583,-22.70104 C 305.91199,153.46201 305.2402,144 303.99248,144 302.97363,144 300,154.97594 300,158.73665 c 0,1.70799 0.92259,6.99005 2.05021,11.73792 2.21762,9.33736 2.27164,10.27011 1.77943,30.72187 l -0.32964,13.69644 2.75,-2.63353 c 1.69531,-1.62351 2.75,-3.68855 2.75,-5.38439 z M 158.9011,195.92622 c 0.0981,-7.50973 -2.36997,-25.0699 -3.92084,-27.89695 -1.45293,-2.64851 -2.48565,5.8377 -2.36948,19.47073 0.10384,12.1869 0.9874,18.09608 3.64451,24.37434 1.04592,2.47131 1.15344,2.30235 1.82908,-2.87434 0.39481,-3.025 0.76234,-8.9082 0.81673,-13.07378 z M 285.76297,210.75 c -6.72398,-8.8316 -10.38552,-20.91709 -14.76979,-48.75 -1.68942,-10.725 -3.68601,-21.3 -4.43687,-23.5 -0.75086,-2.2 -1.63601,-6.9053 -1.96698,-10.45622 -0.33098,-3.55092 -1.01167,-6.86612 -1.51266,-7.36711 -1.26448,-1.26448 -4.48698,2.45457 -9.33277,10.77086 -3.33955,5.73128 -4.18076,8.26968 -4.8052,14.5 -1.03584,10.33502 0.53662,23.30807 3.58136,29.54671 3.16211,6.47916 16.89536,23.42368 18.04926,22.26977 0.1688,-0.1688 -0.81037,-5.02225 -2.17593,-10.78546 -4.96614,-20.9591 -10.39066,-47.26209 -10.27839,-49.83896 0.0975,-2.23894 0.22751,-2.10835 0.85625,0.86041 9.32812,44.04471 13.57061,62.14295 15.39925,65.69236 0.87326,1.69499 11.6095,9.8317 13.49819,10.22991 0.20278,0.0428 -0.74479,-1.38477 -2.10572,-3.17227 z M 171,196.5 c 0.69443,-0.83674 0.80272,-1.5 0.24489,-1.5 -0.55,0 -1.5602,0.675 -2.24489,1.5 -0.69443,0.83674 -0.80272,1.5 -0.24489,1.5 0.55,0 1.5602,-0.675 2.24489,-1.5 z m 1.60695,-6.39626 c 0.90278,-2.15234 1.27132,-4.89536 0.91506,-6.81074 -0.545,-2.93009 -0.26948,-3.37959 3.19074,-5.20581 4.06665,-2.14626 3.21905,-2.76743 -1.39765,-1.02428 -2.20618,0.833 -2.55529,0.80031 -1.61398,-0.15112 1.06904,-1.08053 10.34836,-3.10875 11.0944,-2.42495 0.16253,0.14897 -2.18959,1.67337 -5.22695,3.38755 -5.12309,2.8913 -5.45384,3.29717 -4.57357,5.61246 0.52189,1.37268 0.67229,3.2166 0.33422,4.09761 -0.51803,1.34995 0.005,1.28556 3.32785,-0.40951 4.01345,-2.04751 19.2051,-5.64612 20.09185,-4.75937 0.26789,0.2679 -0.80352,0.75927 -2.38092,1.09195 -10.74787,2.26673 -15.76154,3.77421 -18.60813,5.59499 l -3.25987,2.08513 4.88957,-0.59383 C 182.07884,190.26722 188.94134,190 194.63957,190 H 205 v -5 -5 l -6.75,0.0425 c -4.4173,0.0278 -9.16166,0.87039 -13.72847,2.4382 -3.83816,1.31765 -7.18499,2.18922 -7.4374,1.93681 -0.2524,-0.25241 1.08791,-1.79006 2.97847,-3.41701 3.61715,-3.11276 11.5305,-6.06112 15.8689,-5.91243 1.41268,0.0484 -0.49349,0.87647 -4.23592,1.84013 -3.74244,0.96366 -7.50475,2.45244 -8.3607,3.30839 -1.31662,1.31661 -0.50308,1.26423 5.28278,-0.34014 3.76148,-1.04302 8.79118,-1.89641 11.17712,-1.89641 4.14248,0 4.3238,-0.12399 4.02164,-2.75 -0.30359,-2.6385 -0.52697,-2.74137 -5.50944,-2.53723 -2.85616,0.11703 -6.90616,0.90209 -9,1.74459 -3.73951,1.50467 -3.7684,1.49911 -1.63021,-0.31376 2.14566,-1.81921 2.06108,-1.84279 -5.91808,-1.64986 -8.55408,0.20684 -8.97613,0.42826 -13.55658,7.11231 -1.271,1.85471 -1.28606,1.85477 -0.72711,0.003 0.49499,-1.64027 0.35722,-1.71421 -1.03743,-0.55675 -1.24375,1.03222 -1.46458,2.36739 -0.9744,5.89145 0.34859,2.50621 0.72449,6.1809 0.83532,8.16599 0.19675,3.52393 0.25582,3.57366 2.4992,2.10374 1.26373,-0.82803 2.9779,-3.12719 3.80926,-5.10925 z M 206,194.65197 c 0,-1.00567 -2.70893,-1.51378 -10.66603,-2.00064 -5.86631,-0.35894 -10.83325,-0.48539 -11.03763,-0.281 -0.58107,0.58106 13.77128,3.39336 17.95366,3.51795 2.53403,0.0755 3.75,-0.32539 3.75,-1.23631 z M 149.09634,156 c 1.11775,-9.075 2.90334,-20.52893 3.96797,-25.45318 1.06463,-4.92425 1.93569,-9.98675 1.93569,-11.25 0,-1.26325 0.9,-3.19682 2,-4.29682 2.70972,-2.70972 1.22042,-2.5557 -1.68555,0.17431 -1.27295,1.19588 -2.31468,3.33338 -2.31495,4.75 -2.8e-4,1.41663 -0.92536,5.00903 -2.05574,7.98311 -3.25615,8.56708 -4.01292,14.37756 -4.37517,33.59258 -0.18664,9.9 -0.15151,16.425 0.0781,14.5 0.22958,-1.925 1.33193,-10.925 2.44969,-20 z m 22.55674,16.72351 5.08563,-3.27649 -1.81348,-4.47351 c -0.99742,-2.46043 -1.83863,-5.56295 -1.86936,-6.89448 -0.0307,-1.33154 -1.45564,-5.29427 -3.16647,-8.80607 -1.71084,-3.51179 -2.89162,-6.60407 -2.62397,-6.87172 0.80541,-0.80541 4.64261,6.38887 6.75995,12.6741 1.55253,4.60862 5.16134,13.19116 6.62931,15.76597 0.10702,0.18771 1.12496,0.046 2.26207,-0.31489 1.88318,-0.5977 1.94844,-0.89557 0.73208,-3.34131 -3.19202,-6.4182 -6.62446,-24.46411 -4.86057,-25.55426 0.54252,-0.33529 1.16208,2.28546 1.45203,6.14216 0.50972,6.77982 3.50915,18.81088 4.4541,17.86592 0.28015,-0.28015 -0.27604,-2.874 -1.23598,-5.76411 -1.43812,-4.32978 -1.6355,-7.29766 -1.12131,-16.86051 l 0.62404,-11.60576 -3.05728,-3.70901 c -1.68151,-2.03995 -5.04777,-5.0785 -7.48058,-6.75232 C 169.99048,119.27341 168,117.22398 168,116.39294 c 0,-0.83103 -0.45,-1.23286 -1,-0.89294 -1.86741,1.15413 -1.01031,3.54558 1.63061,4.54966 4.99347,1.89851 8.43297,5.14319 10.90584,10.28811 1.36466,2.83923 1.91472,4.32503 1.22237,3.30179 -5.10704,-7.54782 -7.04877,-9.5556 -11.06865,-11.44516 -5.13686,-2.41462 -6.41326,-3.87131 -4.80304,-5.48153 C 166.26002,115.33998 166.32846,114 165.02568,114 163.61122,114 161,119.47549 161,122.44149 c 0,1.39745 1.08825,5.80729 2.41834,9.79966 1.33009,3.99237 2.70677,9.70561 3.05928,12.69608 0.35252,2.99048 1.73926,7.7589 3.08166,10.59649 3.4915,7.38042 2.92749,8.0901 -0.76793,0.96628 -1.91854,-3.69845 -3.36827,-8.30155 -3.77936,-12 l -0.66691,-6 -1.78906,3.99674 c -1.34931,3.01436 -1.63866,5.34941 -1.17718,9.5 2.28727,20.57217 2.9322,24.00326 4.51187,24.00326 0.3722,0 2.96527,-1.47442 5.76237,-3.27649 z m -4.55072,-35.84639 c -0.10589,-2.71337 3.69901,-12.40908 4.53978,-11.56831 0.26126,0.26126 -0.27995,2.21116 -1.2027,4.3331 -0.92275,2.12195 -2.02805,5.20809 -2.45622,6.85809 -0.76005,2.92892 -0.78092,2.93786 -0.88086,0.37712 z M 200.75,169.36971 c 2.21414,-0.59336 2.25038,-0.86007 2.27386,-16.73634 0.0131,-8.87335 0.42102,-17.84434 0.90645,-19.93552 0.48542,-2.09118 0.5582,-3.66618 0.16172,-3.5 -18.07461,7.57591 -17.05751,6.96022 -18.1402,10.98102 -2.0691,7.68408 -1.27419,16.22601 2.13731,22.9668 3.32837,6.57655 6.15688,7.96704 12.66086,6.22404 z M 205.78083,154.25 c -0.16964,-13.47826 0.0901,-15.91396 3.01227,-28.25 3.41143,-14.40136 8.07546,-25.10479 12.26034,-28.136134 2.61338,-1.893017 11.7085,-2.41989 25.25773,-1.46316 7.11094,0.502113 13.5664,3.38595 18.40046,8.220024 1.25861,1.2586 2.28837,1.91348 2.28837,1.45529 0,-1.04463 -9.68108,-9.332504 -12.87785,-11.024601 -1.30781,-0.692246 -4.90781,-1.660948 -8,-2.15267 -3.09218,-0.491722 -7.27967,-1.17533 -9.30553,-1.519128 -2.78826,-0.473181 -4.51806,-0.109228 -7.11803,1.497646 C 227.80953,94.04477 225.56407,95 224.70869,95 c -2.80499,0 -7.7581,5.15492 -10.86292,11.30552 -3.28286,6.50332 -7.28687,20.91477 -8.94476,32.19448 -0.90294,6.14334 -0.34974,30.5 0.69274,30.5 0.205,0 0.28919,-6.6375 0.18708,-14.75 z m 73.42212,-0.14953 c 1.26338,-0.49475 4.31373,-1.44402 6.77857,-2.10951 l 4.48152,-1.20997 -3.98152,-2.07545 C 283.00974,146.8958 273,144.69133 273,145.73646 c 0,1.94558 2.42653,9.26354 3.07166,9.26354 0.45883,0 1.86791,-0.40479 3.13129,-0.89953 z M 162.62746,139.44581 c 1.34098,-2.04659 1.33427,-2.61914 -0.0624,-5.31995 C 161.70429,132.46126 161,130.40197 161,129.54966 161,128.69735 160.60242,128 160.1165,128 c -1.28075,0 -2.37968,12.09316 -1.51154,16.63367 l 0.73923,3.86633 0.89028,-3.38038 c 0.48966,-1.85921 1.5665,-4.41243 2.39299,-5.67381 z m 133.65466,7.19221 c 1.76983,-0.7491 4.10295,-2.35485 5.18471,-3.56834 1.80378,-2.02344 1.84264,-2.42868 0.46876,-4.88802 -0.82394,-1.47491 -3.58012,-3.81195 -6.12485,-5.19343 C 290.06233,129.86756 287,127.15043 287,125.1707 c 0,-1.14817 0.59572,-0.95968 2.43855,0.77157 1.85968,1.74708 3.28801,2.19172 6.01706,1.87312 2.23254,-0.26064 3.43714,-0.0224 3.20264,0.63342 -0.20673,0.57815 -1.90191,0.96027 -3.76706,0.84915 -3.237,-0.19285 -3.27752,-0.15415 -0.89119,0.85111 1.375,0.57924 3.97777,1.68265 5.78393,2.45204 4.1155,1.75312 6.33064,1.76682 8.67358,0.0536 1.70835,-1.24918 1.61873,-1.38948 -1.25449,-1.96413 -1.73245,-0.34649 -3.61782,-1.59715 -4.2839,-2.84173 -0.65431,-1.22258 -2.02878,-3.12358 -3.05438,-4.22443 C 298.72135,122.39716 298,120.14847 298,117.81144 298,114.74952 297.63078,114 296.12244,114 c -1.03265,0 -2.41555,-0.64825 -3.07311,-1.44056 -0.65756,-0.79231 -1.84276,-1.1922 -2.63378,-0.88866 -1.04497,0.40099 -1.26728,0.043 -0.81302,-1.30944 0.38436,-1.14427 -0.34515,-0.70572 -1.89363,1.13837 -2.5002,2.97749 -2.12754,4.44783 1.13673,4.48498 1.68717,0.0192 7.44831,4.0547 6.76461,4.73841 -0.2777,0.2777 -1.64834,-0.39451 -3.04585,-1.49379 -3.69098,-2.90333 -11.22246,-3.84873 -13.59021,-1.70594 -1.01648,0.9199 -2.28875,1.40025 -2.82725,1.06744 -0.5385,-0.33282 -2.2013,-0.14044 -3.6951,0.4275 -2.72473,1.03594 -6.45183,0.5088 -6.45183,-0.9125 0,-0.41769 1.29671,-0.56911 2.88158,-0.3365 1.60901,0.23615 3.21126,-0.11052 3.62811,-0.78499 1.04119,-1.68468 -1.53639,-3.0404 -3.64007,-1.91454 -2.55682,1.36837 -3.28468,1.13526 -1.85062,-0.59267 1.04622,-1.26063 1.00273,-1.42268 -0.25256,-0.94098 -2.43891,0.9359 -1.83459,5.37311 0.98325,7.21943 2.32896,1.526 2.71212,1.51595 5.6099,-0.14715 l 3.11022,-1.78502 -1.9733,2.18046 c -1.53312,1.69409 -2.71492,2.06011 -5.29809,1.64092 -2.74696,-0.44577 -3.26888,-0.24454 -3.00306,1.15785 0.31612,1.6677 4.70195,2.8345 7.13911,1.89927 0.64104,-0.24599 1.45579,-0.39205 1.81054,-0.32457 0.35476,0.0675 1.66856,-0.77732 2.91957,-1.87732 1.9304,-1.69739 2.17985,-1.74006 1.64866,-0.28203 -0.34424,0.94489 -0.12602,2.02692 0.48494,2.40451 0.64742,0.40013 0.83098,0.23373 0.44002,-0.39887 -0.36895,-0.59698 -0.18573,-1.38522 0.40717,-1.75165 0.5929,-0.36643 1.57106,-1.86003 2.1737,-3.3191 0.89327,-2.16273 1.17371,-2.32353 1.51791,-0.87034 0.23221,0.98039 -0.53565,3.40596 -1.70636,5.39016 -1.76623,2.99353 -1.95,4.11984 -1.07959,6.6167 0.57693,1.65499 1.07749,4.40442 1.11236,6.10984 0.0625,3.05887 0.0767,3.06731 1.05156,0.62429 0.54349,-1.36208 0.7314,-3.49958 0.41756,-4.75 C 284.21862,132.02287 284.42038,131 284.98095,131 285.54143,131 286,132.58537 286,134.52305 v 3.52306 l 2.53121,-1.65852 c 1.39216,-0.91218 2.78398,-1.40573 3.09293,-1.09678 0.30895,0.30894 -0.7176,1.22604 -2.28121,2.03799 -1.56361,0.81194 -3.8689,2.87012 -5.12287,4.57373 L 281.94013,145 l 5.77993,0.16004 c 3.90203,0.10804 4.66414,0.29554 2.34568,0.5771 -2.53012,0.30726 -3.05667,0.65601 -2,1.32465 2.02318,1.28025 4.49113,1.15296 8.21638,-0.42377 z M 276.03063,123.5 c 0,-0.55 0.43621,-1.675 0.96937,-2.5 0.53316,-0.825 0.96937,-1.05 0.96937,-0.5 0,0.55 -0.43621,1.675 -0.96937,2.5 -0.53316,0.825 -0.96937,1.05 -0.96937,0.5 z m -69.34752,21.3125 c -0.31922,-0.79773 -0.55618,-0.56078 -0.60416,0.60417 -0.0434,1.05416 0.19292,1.64479 0.52522,1.3125 0.33229,-0.3323 0.36781,-1.1948 0.0789,-1.91667 z m 74.54126,-4.58133 c 0.50638,-1.96456 0.4243,-4.8222 -0.20573,-7.16193 l -1.0483,-3.89309 -5.98699,-0.33808 c -6.92205,-0.39087 -7.20933,0.13602 -4.06887,7.46242 3.40948,7.95399 9.70854,10.14318 11.30989,3.93068 z M 248,139.68686 c 0,-1.27222 1.8,-5.29757 4,-8.94522 2.2,-3.64765 4,-7.17586 4,-7.84048 0,-0.66461 1.87488,-2.93926 4.16639,-5.05477 4.0324,-3.72269 4.0835,-3.84639 1.58889,-3.84639 -1.65054,0 -3.50855,1.1065 -5.16639,3.07673 -1.42389,1.69219 -2.58721,2.70469 -2.58515,2.25 0.008,-1.67392 4.00532,-7.32673 5.18156,-7.32673 0.90092,0 0.92363,-0.29107 0.0879,-1.12678 -2.34239,-2.34239 -6.03894,-0.0524 -8.68057,5.37746 C 247.09706,123.43587 244.50692,142 247,142 c 0.55,0 1,-1.04091 1,-2.31314 z m -56.86078,-8.69231 2.36078,-2.00546 -2.5,0.86188 c -1.375,0.47403 -3.0625,0.66398 -3.75,0.42212 -1.31961,-0.46425 -1.7142,0.92938 -0.58333,2.06024 1.06501,1.06502 1.95722,0.79795 4.47255,-1.33878 z M 316,128.5 c 0.68469,-0.825 0.85229,-1.51431 0.37244,-1.5318 -0.47984,-0.0175 -0.0454,-0.65852 0.96543,-1.42449 1.01082,-0.76598 1.68582,-2.12544 1.5,-3.02102 -0.50004,-2.40989 -2.28698,-1.95007 -2.67255,0.6877 -0.18407,1.25929 -0.78378,2.73961 -1.33269,3.28961 -0.66423,0.66555 -0.82055,-0.16159 -0.46739,-2.47316 0.58774,-3.84702 -0.76861,-5.41651 -3.44371,-3.98484 -2.60394,1.39358 -3.16244,4.03432 -1.29065,6.10262 0.9235,1.02046 1.19688,1.85538 0.60751,1.85538 -0.58937,0 -1.89661,-1.11636 -2.90498,-2.4808 -1.93485,-2.61807 -4.89466,-2.14538 -3.8363,0.61267 1.15615,3.01289 10.49913,4.78251 12.50289,2.36813 z m -119.25,-4.48904 c 4.19382,-2.55702 4.19591,-3.32955 0.003,-1.23803 -2.14054,1.06785 -5.60327,1.58333 -10.16388,1.51305 -4.41943,-0.0681 -6.40669,0.21659 -5.50336,0.7884 2.67127,1.69092 12.20839,1.04344 15.66389,-1.06342 z m -35.84968,-8.81998 C 160.95514,114.47102 160.55,114.16008 160,114.5 c -0.55,0.33992 -0.95514,2.05398 -0.90032,3.80902 0.0952,3.04737 0.13571,3.07847 0.90032,0.69098 0.44035,-1.375 0.8455,-3.08906 0.90032,-3.80902 z M 194,119.21924 c 0,-0.42942 1.35,-1.29033 3,-1.91314 1.65,-0.6228 3,-0.77024 3,-0.32764 0,0.4426 -1.1781,1.10041 -2.618,1.4618 -1.4399,0.36139 -2.3548,0.92027 -2.03311,1.24196 0.32168,0.32169 3.087,-0.63929 6.14515,-2.1355 4.58407,-2.24278 5.99738,-3.58298 8.04996,-7.63356 L 212.03369,105 l -3.26684,0.0271 c -1.79677,0.0149 -6.41685,1.37746 -10.26685,3.02794 -3.85,1.65048 -9.60146,3.27887 -12.78103,3.61864 -3.17957,0.33977 -6.01862,1.0022 -6.30902,1.47207 -1.05833,1.71242 -2.21045,0.79548 -1.75366,-1.3957 0.44862,-2.15198 0.39796,-2.14108 -1.16269,0.25 -1.11192,1.70358 -1.39811,1.86286 -0.89836,0.5 0.40336,-1.1 0.68502,-3.8 0.6259,-6 -0.11044,-4.11057 0.17473,-3.95825 1.18045,0.63051 0.31709,1.44678 1.38574,2.84212 2.37477,3.10076 2.42759,0.63482 6.22726,-0.86405 6.20833,-2.44905 -0.0107,-0.89766 -0.30604,-0.83235 -0.98469,0.21778 -0.80777,1.24993 -0.98959,1.16657 -1.09065,-0.5 -0.0667,-1.1 -0.0527,-3.125 0.0312,-4.5 0.12266,-2.01155 -0.49359,-2.7004 -3.15407,-3.525683 -3.25274,-1.009004 -3.36249,-0.939896 -6.74921,4.250003 -1.89349,2.90162 -3.85489,5.27568 -4.35866,5.27568 -0.50378,0 0.19504,-1.4625 1.55292,-3.25 1.35789,-1.7875 3.41099,-5.3875 4.56246,-8 2.33123,-5.289196 3.24456,-5.651462 6.93317,-2.75 1.8089,1.422879 2.08517,2 0.95742,2 -0.87184,0 -2.0493,-0.7875 -2.61656,-1.75 -0.87946,-1.492194 -1.17169,-1.536058 -1.98371,-0.297746 C 177.64675,97.144454 178.71901,98 182.90403,98 c 2.63447,0 4.3654,-0.66059 5.69098,-2.171894 1.04775,-1.194542 1.34249,-1.842984 0.65499,-1.440983 -0.6875,0.402001 -1.25,0.282645 -1.25,-0.265235 0,-0.591692 1.52257,-0.75119 3.75,-0.392834 3.37387,0.542801 3.61599,0.440588 2.41391,-1.019065 -0.73485,-0.892309 -1.07621,-2.042869 -0.75859,-2.5568 1.10421,-1.786642 -4.03081,-4.081341 -8.05022,-3.597425 L 181.5,87.0199 l 3.91985,-1.269501 c 2.15592,-0.698226 4.12048,-1.871401 4.3657,-2.607056 0.35675,-1.070255 0.0155,-1.107235 -1.70762,-0.185049 -1.18441,0.633877 -3.01346,0.879556 -4.06455,0.545953 -1.19765,-0.380121 -2.63946,0.12183 -3.86223,1.344601 -1.47459,1.474588 -2.23711,1.670268 -3.12191,0.801152 -0.89138,-0.875571 -1.01302,-0.51098 -0.50971,1.527828 0.78502,3.179965 -0.17716,6.792249 -1.83692,6.896336 -0.65043,0.04079 -2.98261,0.946762 -5.18261,2.013272 -2.96049,1.435178 -3.30948,1.806829 -1.3429,1.430101 1.4614,-0.279954 3.4864,-0.767008 4.5,-1.082342 1.03068,-0.320651 0.74108,0.102579 -0.6571,0.9603 -3.59106,2.20295 -12.84281,1.777214 -11.41965,-0.525497 0.30681,-0.496442 0.97675,-0.643724 1.48875,-0.327293 0.51199,0.316431 0.9309,0.04999 0.9309,-0.592096 0,-0.745909 -0.90266,-0.940872 -2.5,-0.539965 -1.44165,0.36183 -2.5,0.196053 -2.5,-0.391592 C 158,94.458573 157.3801,94 156.62244,94 c -0.75765,0 -1.96124,-0.703297 -2.67463,-1.562882 -1.13347,-1.36575 -0.97394,-1.481781 1.26475,-0.919904 1.98372,0.497881 2.93214,0.117161 4.20283,-1.687118 1.0648,-1.511941 1.89444,-1.942176 2.3628,-1.225305 0.50481,0.772659 1.92432,0.543654 4.72181,-0.761754 2.7946,-1.304063 3.24663,-1.75108 1.5,-1.483387 -1.375,0.210737 -3.4,0.702762 -4.5,1.093389 l -2,0.710231 2,-1.706609 c 1.96672,-1.678212 1.9584,-1.695562 -0.5,-1.042714 -9.06948,2.408468 -10.95116,1.853304 -10.98469,-3.24087 C 151.99981,79.817899 156.92825,74 158.93885,74 c 0.60099,0 -0.24833,1.2375 -1.88738,2.75 -1.63905,1.5125 -3.28328,4.040691 -3.65385,5.618203 -0.66836,2.845177 -0.64256,2.86364 3.2143,2.299769 2.13845,-0.312639 5.91308,-0.943795 8.38808,-1.402568 4.20407,-0.779279 4.35636,-0.914078 2.31574,-2.049769 C 166.1144,80.547036 164.3369,80 163.36574,80 c -1.3184,0 -1.47785,-0.287887 -0.6294,-1.136338 0.84845,-0.84845 2.07111,-0.584808 4.82603,1.040636 2.02933,1.197334 3.83101,2.035654 4.00373,1.862933 0.17272,-0.172722 -1.00982,-2.441008 -2.62787,-5.040636 C 166.47466,72.768508 165.50077,72 162.9485,72 c -3.51619,0 -7.67382,1.934011 -10.23023,4.75881 -1.77514,1.96151 -2.15703,4.865002 -1.44566,10.99119 0.20756,1.7875 0.45614,4.810877 0.55239,6.718615 0.13285,2.633153 0.5363,3.329973 1.675,2.893011 0.93062,-0.35711 1.5,0.0053 1.5,0.95466 0,0.841645 1.19823,2.954274 2.66273,4.694744 2.35996,2.80465 3.15592,3.12525 7,2.81952 2.3855,-0.18973 4.33727,-0.004 4.33727,0.41224 0,0.41647 -2.20635,0.75721 -4.90301,0.75721 -4.43851,0 -5.20169,-0.35526 -8.05587,-3.75 -1.73407,-2.0625 -2.71645,-2.85 -2.18305,-1.75 0.5334,1.1 2.24604,3.16513 3.80587,4.58917 4.87357,4.44932 15.33606,12.06916 15.33606,11.16928 0,-0.47215 -0.4922,-1.35065 -1.09378,-1.95223 -0.60158,-0.60158 -0.89622,-1.92908 -0.65476,-2.95 0.41326,-1.7473 0.48168,-1.73887 1.16593,0.14378 0.3998,1.1 1.07769,2.66978 1.50643,3.4884 1.2109,2.31208 20.07618,5.34805 20.07618,3.23084 z m -10,-5.31544 c -1.16024,-0.82421 -0.89118,-0.93321 1.1879,-0.48122 3.41055,0.74146 13.47213,-1.84118 16.20043,-4.15838 1.95024,-1.65636 1.99437,-1.65723 0.72199,-0.0142 -0.74536,0.9625 -0.96261,1.77514 -0.48276,1.80587 C 202.1074,111.0866 200.475,111.96146 198,113 c -5.00817,2.10149 -11.7054,2.53385 -14,0.9038 z m -4,-22.67644 c 0,-0.820391 9.2184,-3.268132 9.90354,-2.629664 C 190.46913,89.124758 183.39455,92 181.53212,92 180.68945,92 180,91.652312 180,91.22736 Z m 121.4433,18.55013 c 1.95709,-2.79414 1.99118,-4.15819 0.0856,-3.42697 -1.60612,0.61633 -4.54803,-1.78577 -4.49714,-3.67195 0.0175,-0.64821 0.6296,-0.39107 1.36025,0.57143 1.60566,2.1152 3.60795,2.29133 3.60795,0.31739 0,-2.73738 -4.06476,-2.95717 -6.66171,-0.36022 -2.71568,2.71568 -2.30735,5.79283 0.7687,5.79283 2.64678,0 2.37157,1.76872 -0.35699,2.29427 -1.65746,0.31924 -1.40905,0.46923 0.9433,0.56955 2.26657,0.0967 3.64506,-0.50881 4.75,-2.08633 z M 197.84386,106 c 1.15929,0 3.55734,-0.88152 5.329,-1.95893 2.37304,-1.44313 3.56427,-1.67419 4.52417,-0.87755 0.93475,0.77577 1.30297,0.77411 1.30297,-0.006 0,-0.598 -1.0125,-1.61909 -2.25,-2.2691 -1.2375,-0.65 -3.72419,-2.462352 -5.52597,-4.027433 -2.37447,-2.062527 -3.75041,-2.613357 -5,-2.00165 -12.55458,6.145783 -12.65665,6.278503 -9.19493,11.956433 l 2.02163,3.31588 3.34267,-2.06588 C 194.23187,106.92965 196.68458,106 197.84386,106 Z M 201,100.44098 c 0,-1.451364 0.43284,-2.291503 1,-1.94098 0.55,0.339919 1,1.491476 1,2.55902 0,1.06754 -0.45,1.94098 -1,1.94098 -0.55,0 -1,-1.15156 -1,-2.55902 z m -54.14922,-2.538805 c 2.75882,-0.961733 3.14853,-1.55057 3.14364,-4.75 -0.009,-5.729804 -1.81911,-10.961759 -4.03651,-11.665535 -1.08892,-0.345607 -2.64361,-1.911953 -3.45487,-3.480768 -1.4009,-2.709037 -1.6642,-2.800363 -5.23904,-1.81716 -2.0702,0.569377 -5.339,1.82199 -7.264,2.783584 -1.925,0.961594 -6.03008,1.997767 -9.1224,2.302606 -6.47185,0.637992 -12.17364,3.274041 -16.15835,7.470329 l -2.78075,2.928397 3.51688,0.132213 c 1.93428,0.07272 6.17557,0.821151 9.42509,1.663186 3.24952,0.842035 7.86826,1.56585 10.26387,1.608477 2.39562,0.04263 6.60566,0.90775 9.35566,1.922496 5.96035,2.19936 8.16724,2.360564 12.35078,0.902175 z M 130,94 c -1.10089,-0.711451 -0.38961,-0.973449 2.67327,-0.984687 4.89299,-0.01795 11.31771,-4.426359 9.33448,-6.404976 -1.51879,-1.515259 -22.80517,-0.921984 -27.69806,0.771974 l -3.77401,1.306597 6.98216,0.747491 c 9.75644,1.044498 11.50392,1.075444 15.48216,0.274177 3.48107,-0.701131 3.47837,-0.696413 -0.5,0.872431 -3.45657,1.363078 -5.10787,1.410747 -12.15468,0.350873 -4.48507,-0.674577 -9.77257,-0.963954 -11.75,-0.643062 C 106.6179,90.611711 105,90.686696 105,90.457453 c 0,-0.229243 1.87174,-1.371694 4.15942,-2.538781 7.38679,-3.768463 29.21804,-6.246459 35.15276,-3.99008 3.02817,1.151305 5.06169,6.232386 3.35748,8.38918 -0.64331,0.814153 -2.29466,1.801815 -3.66966,2.194804 l -2.5,0.714526 2.25,-2.152506 c 1.2375,-1.183878 2.25,-2.298772 2.25,-2.477542 0,-0.178769 -2.10127,0.738761 -4.66948,2.038955 C 136.39749,95.133427 132.48303,95.604657 130,94 Z m 42.72129,-1.600987 c 1.87554,-1.430543 3.17452,-2.836538 2.88662,-3.124432 -0.28789,-0.287895 -1.94644,0.673928 -3.68565,2.137383 -3.02761,2.547565 -3.26888,2.590939 -5.66803,1.018955 -2.04152,-1.337654 -2.65802,-1.39561 -3.32724,-0.312789 -0.48594,0.786272 -0.33246,1.639917 0.3758,2.090164 2.32367,1.47718 6.04762,0.761814 9.4185,-1.809281 z m -1.16744,-1.486145 c 0.36954,-0.597923 0.17109,-1.587923 -0.44098,-2.2 C 170.29571,87.895711 170,88.082715 170,89.416631 c 0,1.32472 -0.54194,1.674912 -2.00138,1.293259 -1.10076,-0.287855 -1.7492,-0.115339 -1.44098,0.383369 0.77868,1.259932 4.18198,1.137054 4.99621,-0.180391 z m 36.24283,-4.16354 c 0.71317,-0.589435 2.204,-2.345913 3.31295,-3.903284 1.51559,-2.12846 1.63761,-2.686282 0.49138,-2.246433 -0.83868,0.321833 -1.77446,1.37153 -2.07951,2.332659 -0.56386,1.776568 -2.63524,3.066708 -8.0215,4.996116 -2.82509,1.011975 -2.76679,1.040173 1,0.483635 2.2,-0.325046 4.58351,-1.073258 5.29668,-1.662693 z m -1.2615,-2.364338 c 1.35565,-0.888255 2.46482,-2.238255 2.46482,-3 0,-2.129659 -1.41233,-1.64349 -2.51287,0.86501 -1.22847,2.800102 -5.05766,3.448636 -7.47032,1.265215 -1.19733,-1.083567 -2.04306,-1.281757 -2.47655,-0.580358 -1.96931,3.186405 5.65646,4.292804 9.99492,1.450133 z m -1.57153,-1.841185 c 1.31471,-1.584134 0.48807,-3.941016 -1.04906,-2.991019 C 203.39362,79.874762 203.20706,80.526008 203.5,81 c 0.96475,1.560995 -1.55222,2.199895 -3.2938,0.83609 -1.53679,-1.203428 -1.56993,-1.162331 -0.33376,0.41391 1.67164,2.131492 3.47948,2.23582 5.09121,0.293805 z m -25.1749,-0.392086 c 1.01249,-0.642378 1.04064,-1.44297 0.13131,-3.734688 -0.6366,-1.604367 -1.6761,-5.16271 -2.31001,-7.90743 -1.24444,-5.388211 -2.54459,-6.245386 -6.93882,-4.574701 -3.41253,1.29744 -3.40937,3.515748 0.0149,10.497792 1.71516,3.497137 3.43222,5.624837 4.75,5.885972 1.13511,0.224934 2.28883,0.463363 2.56383,0.529841 0.275,0.06648 1.07994,-0.247076 1.78875,-0.696786 z m -32.49509,-3.136775 c -0.28551,-1.091781 -0.21917,-2.766669 0.14741,-3.721975 0.57017,-1.485822 0.80109,-1.524124 1.59741,-0.264944 0.53381,0.844078 0.93743,0.976818 0.94621,0.311181 0.0193,-1.466511 7.74713,-5.256651 11.32094,-5.552429 C 162.78754,69.664131 164,69.491889 164,69.404016 c 0,-0.08787 -0.60856,-1.677224 -1.35236,-3.531892 -0.7438,-1.854668 -1.63712,-4.17903 -1.98517,-5.165248 -0.50388,-1.427832 -1.02737,-1.581955 -2.56966,-0.756548 -3.61639,1.935436 -5.38969,4.248158 -3.9429,5.142319 1.00054,0.618373 0.78849,1.344022 -0.92611,3.169134 -1.22309,1.301917 -2.23748,3.013118 -2.25421,3.80267 -0.0223,1.05463 -0.30044,0.971958 -1.04807,-0.311561 -0.74267,-1.274997 -0.5234,-2.896348 0.81142,-6 1.82272,-4.238102 1.82119,-4.261217 -0.43938,-6.647558 l -2.26845,-2.394669 -1.41818,3.372861 c -0.8897,2.115971 -1.31488,5.989524 -1.14096,10.394669 0.15247,3.861994 0.0854,5.109307 -0.14917,2.771807 -0.23451,-2.3375 -0.85173,-4.25 -1.37159,-4.25 -1.53788,0 -1.07717,7.36659 0.61149,9.777494 1.9322,2.758589 3.43024,2.888555 2.73696,0.23745 z m 39.64561,-0.355208 c 0.48937,-1.287146 0.81573,-5.443854 0.72525,-9.237131 -0.18368,-7.700079 -1.56396,-9.028967 -6.21369,-5.982345 -2.77333,1.817157 -3.23445,5.935092 -1.30574,11.660517 2.12046,6.294611 5.15061,7.881877 6.79418,3.558959 z M 141.08179,74 C 141.5868,74 142,73.55 142,73 c 0,-1.447943 -1.33595,-1.229606 -3.55887,0.581635 -1.77628,1.447314 -1.78556,1.532239 -0.10934,1 C 139.33927,74.261736 140.57677,74 141.08179,74 Z m 24.39002,-10.75 c -0.45547,-4.415876 -0.40933,-4.538974 0.65603,-1.75 0.63028,1.65 1.25462,3.132762 1.38743,3.295027 0.1328,0.162265 2.23847,-0.207827 4.67927,-0.822428 4.21264,-1.060755 4.41902,-1.278685 4.06742,-4.295027 -0.90203,-7.738535 -1.05969,-7.97208 -4.95522,-7.339924 C 167.0133,53.034377 163,56.506905 163,59.525091 163,61.766085 164.89682,68 165.57869,68 c 0.21068,0 0.16258,-2.1375 -0.10688,-4.75 z m -24.80953,-1.5 c -0.27741,-0.6875 -0.50439,-0.125 -0.50439,1.25 0,1.375 0.22698,1.9375 0.50439,1.25 0.27741,-0.6875 0.27741,-1.8125 0,-2.5 z m 48.45124,-2.616855 C 190.07128,58.144748 192,51.910466 192,49.803059 c 0,-1.693909 -0.67351,-1.866411 -6.25,-1.600776 L 179.5,48.5 l -0.89285,3.612788 c -0.49106,1.987034 -0.58863,4.824868 -0.21681,6.306297 0.64749,2.579808 0.87513,2.665093 5.39284,2.020357 2.59425,-0.370233 4.9929,-0.958067 5.33034,-1.306297 z m -33.79778,-1.2686 c 1.20134,-0.6245 2.32994,-1.257681 2.508,-1.407069 C 158.16789,56.168732 155.14789,50 154.66238,50 c -0.15745,0 -1.30397,1.376527 -2.54784,3.05895 -1.80237,2.437827 -2.01874,3.351556 -1.06562,4.5 1.43928,1.734227 1.50898,1.739219 4.26682,0.305595 z m 9.56549,-4.934855 c 1.54013,-1.138671 4.69486,-2.211616 7.0105,-2.384323 4.96609,-0.370386 5.58174,-0.844166 5.6898,-4.3787 0.0449,-1.466667 0.43113,-3.904167 0.85841,-5.416667 0.90536,-3.204821 -0.67332,-3.675692 -4.15272,-1.238625 -1.72097,1.205415 -2.07327,2.268215 -1.74031,5.25 L 172.96438,48.5 171.88285,44.75 C 171.01494,41.740675 170.32081,41 168.36854,41 c -3.77537,0 -8.79225,2.471529 -10.59179,5.217968 -1.52565,2.328442 -1.50734,2.695908 0.2809,5.636432 2.25216,3.703387 3.09025,3.835457 6.82358,1.07529 z M 153.53901,47.595154 C 153.69569,46.167819 153.46166,45 153.01893,45 c -0.8625,0 -1.69923,1.736475 -3.11456,6.463707 l -0.88734,2.963707 2.11855,-2.118553 c 1.16521,-1.165204 2.24675,-3.286372 2.40343,-4.713707 z m -9.15745,1.852908 c 0.34149,-0.889925 0.17385,-1.291322 -0.39301,-0.940983 C 143.44485,48.843104 143,49.541476 143,50.059017 c 0,1.438432 0.71677,1.121462 1.38156,-0.610955 z m 43.28898,-3.434407 c 3.83823,-0.01257 4.22431,-0.258403 4.84517,-3.085161 0.37103,-1.689328 0.51929,-3.220902 0.32945,-3.403496 -0.18984,-0.182595 -2.84197,-0.640936 -5.89362,-1.018537 -5.3158,-0.657758 -5.59884,-0.575969 -6.75,1.95055 C 179.54069,41.907413 179,44.025416 179,45.163684 c 0,1.658223 0.44722,1.949729 2.25,1.466602 1.2375,-0.331637 4.12675,-0.609121 6.42054,-0.616631 z M 217.0513,42.65543 C 215.90051,39.168511 214.39172,38 211.04018,38 c -0.98793,0 -2.50252,-1.0125 -3.36576,-2.25 -0.86323,-1.2375 -1.59312,-1.683096 -1.62197,-0.990213 -0.0289,0.692884 0.95303,2.042884 2.18195,3 1.22892,0.957117 3.81642,3.362525 5.75,5.345351 1.93358,1.982826 3.67295,3.475477 3.86526,3.317002 0.19232,-0.158475 -0.16695,-1.853494 -0.79836,-3.76671 z M 211.75,94.242116 c -2.77459,-0.616378 -2.03095,-2.01848 0.78504,-1.480168 2.99754,0.573016 5.83592,-1.678113 8.5246,-6.760901 1.01858,-1.925576 1.87186,-2.9162 1.89616,-2.201387 0.0645,1.897681 -2.46482,6.45851 -4.60342,8.300701 -2.30444,1.985048 -4.33813,2.644759 -6.60238,2.141755 z m 8.69113,-22.710313 c -1.06762,-0.807508 -1.46464,-1.482508 -0.88226,-1.5 0.58238,-0.01749 1.93238,0.628885 3,1.436394 1.06762,0.807508 1.46464,1.482508 0.88226,1.5 -0.58238,0.01749 -1.93238,-0.628885 -3,-1.436394 z m -17.40336,-6.491162 c 3.57154,-3.05279 8.61157,-3.991304 10.62447,-1.978402 0.74965,0.749653 1.25339,-0.133162 1.71182,-3 C 215.73132,57.828008 216.51646,56 217.11881,56 c 0.63999,0 0.80753,0.727333 0.4031,1.75 -0.38063,0.9625 -0.93537,3.198381 -1.23274,4.968625 -0.51123,3.043364 -0.65484,3.138655 -2.63743,1.75 C 210.63339,62.354485 207.86212,62.65062 204,65.5 c -4.62954,3.415567 -5.18523,3.150283 -0.96223,-0.459359 z M 218.61599,64.25 c -0.98407,-3.319517 -0.0243,-9.977856 1.85071,-12.839522 2.66589,-4.068655 2.97868,-1.615325 0.52414,4.1109 -1.34008,3.126279 -1.85287,5.830302 -1.45188,7.656001 0.67227,3.06082 -0.0758,3.930222 -0.92297,1.072621 z M 157.5044,38.992888 c 1.14048,-1.84535 6.92064,-4.285163 9.94804,-4.199087 1.64379,0.04674 3.45194,-0.272458 4.01813,-0.70932 C 173.40989,32.588125 179,31.079156 179,32.05202 c 0,0.521389 -0.7875,0.950945 -1.75,0.954569 -0.9625,0.0036 -3.00946,0.837024 -4.5488,1.852 -1.5987,1.054114 -3.84008,1.646356 -5.22721,1.38119 -1.41271,-0.270056 -3.92576,0.419235 -6.00836,1.648 -3.97741,2.34673 -4.8851,2.599958 -3.96123,1.105109 z" id="path1"/>
  </g>
</svg>