<?xml version="1.0" standalone="no"?><!DOCTYPE svg PUBLIC "-//W3C//DTD SVG 20010904//EN" "http://www.w3.org/TR/2001/REC-SVG-20010904/DTD/svg10.dtd"><svg xmlns="http://www.w3.org/2000/svg" version="1.0" width="16mm" height="8.7754mm" viewBox="0 0 576.228278 316.040063" preserveAspectRatio="xMidYMid meet">
<metadata>
Created by potrace 1.16, written by Peter Selinger 2001-2019
</metadata>
<g transform="translate(-9.125824,325.678510) scale(0.100000,-0.100000)" fill="#000000" stroke="none">
<path d="M2018 3245 c-17 -9 -28 -24 -28 -36 0 -12 -8 -23 -20 -26 -11 -3 -20 -10 -20 -15 0 -7 -20 -8 -53 -4 -54 7 -137 -14 -137 -35 0 -5 -6 -9 -13 -9 -23 0 -49 -37 -42 -59 4 -14 -2 -31 -19 -54 -21 -27 -26 -45 -26 -88 1 -32 7 -62 16 -74 9 -12 12 -30 8 -48 -3 -15 0 -59 7 -97 11 -64 11 -72 -6 -90 -10 -11 -26 -20 -35 -20 -10 0 -30 -18 -45 -40 -34 -49 -39 -126 -13 -181 18 -37 80 -99 98 -99 20 0 9 -21 -17 -32 -16 -7 -45 -30 -65 -52 -38 -39 -38 -39 -59 -20 -12 10 -25 28 -30 39 -5 11 -19 32 -31 48 -19 23 -21 32 -12 65 5 20 7 89 4 152 -4 93 -9 122 -25 145 -10 17 -19 35 -20 40 0 19 -56 92 -78 103 -12 6 -40 16 -61 23 -34 10 -41 9 -51 -5 -7 -10 -19 -14 -29 -10 -25 10 -65 -4 -88 -31 -12 -14 -33 -25 -46 -25 -16 0 -42 -17 -73 -47 -27 -27 -58 -56 -69 -65 -18 -17 -25 -48 -23 -105 1 -16 -6 -22 -33 -27 -20 -4 -34 -13 -34 -21 0 -14 -11 -19 -37 -16 -7 1 -27 -6 -45 -15 -20 -10 -50 -16 -76 -15 -31 2 -42 -1 -42 -12 0 -25 -66 -27 -89 -2 -10 11 -42 45 -71 75 -29 30 -66 72 -82 93 -16 20 -36 37 -43 37 -8 0 -19 9 -25 20 -8 14 -21 20 -46 20 -49 0 -106 -57 -123 -125 -7 -27 -19 -61 -26 -75 -22 -43 -38 -141 -31 -198 4 -38 3 -59 -6 -70 -30 -36 -16 -363 17 -396 7 -7 18 -39 25 -72 18 -84 47 -158 75 -188 14 -15 25 -30 25 -34 0 -4 13 -19 30 -34 16 -14 30 -36 30 -48 0 -32 43 -89 107 -143 32 -26 61 -47 65 -47 5 0 8 -7 8 -14 0 -8 16 -27 36 -42 30 -23 35 -32 32 -63 -3 -32 -7 -37 -43 -47 -47 -13 -92 -68 -74 -90 8 -10 7 -19 -4 -34 -12 -17 -13 -30 -5 -58 6 -20 15 -40 21 -44 12 -7 -5 -36 -45 -79 -41 -44 -63 -152 -35 -181 6 -7 13 -29 13 -48 1 -19 4 -51 7 -70 3 -19 6 -44 6 -55 1 -19 24 -47 83 -101 30 -28 100 -53 163 -58 28 -3 62 -9 77 -15 17 -6 29 -6 36 1 7 7 16 4 29 -11 21 -25 128 -61 182 -61 20 0 50 -8 66 -17 23 -12 57 -16 140 -17 101 0 114 2 158 26 26 15 55 24 63 21 9 -3 39 11 69 32 41 28 57 46 68 78 11 33 19 42 38 43 44 1 49 4 87 42 40 38 66 95 61 134 -2 13 4 34 13 48 12 17 18 51 20 103 2 72 0 80 -21 96 -13 10 -21 23 -17 29 3 6 -7 30 -24 54 -36 52 -136 111 -149 89 -7 -10 -13 -10 -29 -2 -11 6 -37 11 -56 11 l-36 0 15 38 c18 42 13 97 -11 110 -11 6 -6 12 23 26 21 10 46 20 57 22 10 2 37 18 60 37 22 18 59 44 81 57 22 13 62 45 89 72 27 27 62 56 78 64 54 28 146 115 170 162 l17 32 34 -20 c19 -11 57 -27 84 -35 28 -8 56 -21 62 -29 15 -18 95 -40 121 -33 12 3 37 -1 55 -9 19 -8 48 -14 64 -14 21 0 34 -7 42 -22 15 -31 90 -108 105 -108 6 0 21 -9 34 -20 31 -27 62 -34 108 -25 20 3 51 6 68 6 37 -2 94 41 94 69 0 10 8 20 18 22 24 7 64 125 67 199 1 31 5 60 8 66 3 5 70 10 149 11 79 1 190 8 248 16 64 8 112 10 122 5 9 -5 124 -12 255 -15 131 -3 290 -11 353 -16 85 -7 120 -7 133 2 19 12 92 5 112 -10 6 -4 62 -10 125 -14 63 -4 140 -11 170 -16 30 -5 100 -14 155 -21 55 -6 126 -20 157 -30 83 -28 254 -36 293 -15 40 21 95 21 95 0 0 -14 8 -15 48 -9 56 8 226 50 241 60 6 3 32 8 57 10 30 2 55 12 70 26 13 12 33 27 46 33 49 25 83 212 45 250 -20 21 -20 21 -6 45 20 30 2 68 -64 134 -63 64 -175 131 -202 121 -7 -3 -28 2 -45 11 -69 36 -128 47 -213 39 -45 -3 -90 -11 -100 -16 -14 -7 -22 -5 -30 6 -11 14 -22 12 -102 -17 -72 -27 -93 -39 -104 -62 -7 -15 -21 -29 -30 -32 -42 -11 -89 -134 -60 -157 8 -6 20 -23 26 -38 15 -33 4 -38 -71 -38 -72 0 -156 -17 -176 -35 -22 -20 -45 -19 -66 2 -14 14 -31 17 -88 14 -39 -1 -76 -7 -83 -13 -7 -5 -17 -7 -23 -3 -6 4 -93 7 -193 7 -524 0 -575 -1 -582 -12 -5 -9 -35 -10 -104 -6 -91 6 -221 -2 -376 -23 -38 -6 -98 -7 -132 -4 -52 5 -63 9 -63 24 0 16 8 18 53 17 62 -1 222 45 230 67 4 8 21 21 39 30 83 40 108 57 152 105 25 29 46 61 46 71 0 32 29 68 50 62 19 -5 22 2 75 192 31 111 35 258 10 355 -8 30 -19 74 -25 96 -6 27 -17 43 -29 47 -11 3 -22 17 -26 35 -17 81 -133 242 -174 242 -10 0 -26 9 -35 19 -10 11 -30 19 -46 19 -19 -1 -41 10 -63 29 -18 16 -65 40 -104 52 -62 20 -75 21 -114 10 -24 -6 -82 -13 -129 -15 -142 -5 -227 -40 -330 -133 -30 -28 -58 -51 -63 -51 -4 0 -12 -12 -18 -27 l-10 -26 -34 51 c-20 28 -44 56 -55 62 -11 6 -32 29 -46 51 -13 22 -37 45 -52 52 -15 6 -31 17 -35 24 -4 7 -14 13 -22 13 -7 0 -15 5 -17 11 -6 19 -129 22 -160 4z m177 -73 l40 -26 -31 -6 c-60 -13 -105 -63 -96 -108 5 -24 -22 -7 -51 32 -16 21 -38 41 -48 43 -22 6 -18 35 10 67 37 43 108 42 176 -2z m966 -39 c49 -22 146 -87 164 -109 6 -7 21 -27 35 -44 14 -18 38 -44 53 -58 40 -37 95 -145 117 -231 48 -180 6 -449 -85 -544 -11 -12 -45 -52 -74 -89 -66 -83 -140 -129 -271 -170 -105 -33 -194 -41 -279 -26 -31 5 -69 11 -86 12 -26 2 -84 16 -85 20 -1 0 -3 19 -6 41 -7 44 -73 186 -105 225 -25 30 -23 19 11 -75 36 -98 50 -191 40 -270 -8 -73 -30 -143 -56 -183 -19 -30 -10 -41 14 -19 18 16 19 15 31 -25 48 -161 153 -275 206 -222 25 25 45 77 45 116 0 42 9 55 43 63 l27 7 -6 -48 c-17 -150 -41 -195 -124 -234 -39 -18 -55 -22 -68 -13 -10 6 -33 14 -51 18 -32 7 -89 56 -144 124 -26 32 -33 34 -99 38 -90 5 -260 60 -351 115 -38 22 -72 36 -76 32 -4 -5 -29 -36 -55 -69 -60 -78 -201 -211 -258 -244 -24 -14 -71 -44 -103 -65 -65 -43 -135 -73 -205 -87 -25 -5 -65 -16 -90 -23 -49 -16 -180 -29 -180 -19 0 4 9 16 19 27 39 42 61 121 66 237 4 91 2 109 -10 109 -11 0 -15 -12 -15 -42 0 -24 -11 -72 -24 -108 -14 -36 -32 -90 -41 -121 -9 -32 -27 -69 -40 -83 -13 -14 -33 -54 -45 -88 -12 -35 -30 -74 -40 -88 -18 -24 -24 -25 -117 -25 -114 0 -166 8 -199 30 -20 13 -24 24 -24 68 0 29 -5 58 -12 65 -9 9 -9 12 1 12 19 0 9 162 -13 215 -10 22 -19 67 -22 100 -6 77 -21 125 -41 125 -10 0 -13 -5 -8 -17 3 -10 11 -74 16 -143 5 -69 12 -134 15 -145 5 -19 5 -19 -13 1 -10 12 -33 30 -50 40 -18 10 -33 22 -33 27 0 5 -29 38 -65 73 -36 35 -65 73 -65 83 0 19 -21 62 -59 121 -9 14 -26 52 -37 85 -12 33 -33 92 -48 130 -25 68 -26 78 -26 292 0 235 10 320 49 399 11 22 23 53 27 68 9 38 46 61 73 46 12 -6 21 -15 21 -21 0 -18 132 -147 157 -154 15 -3 23 -11 20 -19 -3 -8 5 -24 18 -36 l23 -22 -20 -34 c-24 -41 -39 -194 -18 -194 8 0 10 -8 6 -26 -11 -41 30 -153 60 -164 13 -5 24 -16 24 -24 0 -7 35 -46 77 -86 60 -56 82 -71 100 -67 13 2 26 0 29 -4 3 -5 20 -9 39 -9 20 0 35 -6 38 -15 4 -8 31 -21 62 -30 64 -19 207 -14 290 9 49 14 51 14 72 -10 12 -13 25 -24 29 -24 4 0 17 -9 29 -20 19 -18 24 -19 34 -6 18 21 6 49 -44 102 -27 30 -49 45 -58 41 -15 -6 -57 31 -57 50 0 11 -91 83 -104 83 -3 0 -25 14 -48 30 -49 36 -65 37 -79 8 -15 -31 -105 -88 -138 -88 -38 1 -81 40 -86 79 -4 32 -4 32 21 17 30 -20 32 -5 4 34 -23 32 -72 55 -97 45 -16 -6 -14 -9 10 -21 35 -19 33 -51 -3 -45 -33 4 -98 51 -107 76 -15 46 -2 100 43 167 48 72 83 105 121 114 30 8 173 -5 173 -16 0 -4 26 -34 58 -67 32 -33 64 -74 71 -90 10 -24 35 -42 114 -84 56 -30 112 -57 125 -61 13 -4 40 -19 60 -35 20 -15 46 -35 58 -43 12 -8 54 -41 92 -73 53 -42 79 -57 102 -57 36 0 37 19 2 35 -12 5 -22 13 -22 16 0 3 27 12 61 19 33 7 63 19 66 26 2 6 -3 36 -11 65 -9 30 -16 89 -16 138 0 74 4 94 29 145 28 56 28 61 19 133 -6 41 -7 104 -3 140 7 63 7 64 26 47 24 -21 24 -21 -1 46 -107 288 -63 510 102 510 50 0 108 -29 150 -77 17 -18 15 -19 -44 -21 -78 -3 -127 -38 -144 -103 -34 -127 -36 -151 -26 -207 6 -32 14 -78 17 -104 4 -31 19 -66 47 -108 l41 -61 -22 -15 c-35 -25 -14 -34 33 -13 41 18 132 34 258 46 52 4 57 7 68 36 6 18 25 60 41 95 16 34 29 70 29 79 0 9 14 45 30 80 17 34 30 67 30 72 0 5 11 22 24 38 13 15 31 44 41 63 10 19 49 66 86 103 78 77 207 146 275 148 22 0 47 3 56 7 9 4 68 4 130 1 84 -4 125 -11 159 -26z m-863 -60 c19 -14 49 -49 68 -79 l34 -53 -20 -47 -21 -47 -30 29 c-24 23 -33 26 -47 18 -26 -16 -26 -68 -1 -118 14 -28 19 -51 14 -63 -6 -14 -12 -8 -31 35 -13 29 -35 70 -49 90 -14 20 -25 42 -25 49 0 7 -13 35 -30 61 -39 64 -38 87 6 129 31 29 41 33 68 27 17 -3 46 -17 64 -31z m-240 -123 c71 -32 139 -124 191 -258 19 -48 20 -57 8 -93 -14 -40 -27 -42 -27 -4 0 29 -45 117 -73 142 -85 78 -129 -11 -66 -135 31 -64 72 -102 108 -102 14 0 19 -5 15 -15 -5 -12 -24 -15 -84 -15 -55 0 -90 -6 -121 -19 -56 -25 -71 -17 -110 61 -40 80 -58 224 -38 308 14 57 16 67 18 86 0 6 14 17 30 24 16 6 32 18 35 26 8 20 63 17 114 -6z m260 -102 c14 -14 16 -58 2 -58 -12 0 -30 33 -30 54 0 19 11 21 28 4z m-980 -165 c58 -47 81 -97 89 -191 7 -101 7 -109 -7 -163 -11 -44 -10 -48 14 -73 14 -14 26 -31 26 -38 0 -8 18 -40 40 -73 25 -39 40 -72 40 -93 0 -26 11 -44 54 -87 30 -30 59 -55 65 -55 20 0 12 -17 -14 -28 -37 -17 -72 -15 -103 6 -15 10 -36 23 -47 28 -13 7 -21 23 -22 44 -2 51 -12 80 -27 80 -8 0 -13 8 -12 17 0 9 -15 27 -34 40 -28 20 -38 36 -52 85 -10 34 -26 71 -38 83 -11 12 -20 31 -20 42 0 11 -7 26 -15 33 -22 18 -18 49 11 91 33 48 41 104 21 149 l-15 35 -1 -46 c-1 -31 -8 -55 -22 -74 -19 -23 -26 -26 -58 -20 -20 4 -42 11 -48 17 -33 27 -23 142 18 199 14 20 30 29 57 31 45 4 46 3 100 -39z m803 16 c27 -36 35 -79 16 -79 -23 0 -57 49 -57 82 0 34 15 33 41 -3z m-1033 -116 c6 -43 14 -88 18 -100 5 -18 2 -23 -12 -23 -28 1 -52 23 -69 63 -20 49 -19 79 6 111 34 43 44 33 57 -51z m-104 -116 c-22 -12 -54 11 -54 39 0 13 8 37 17 51 l18 27 16 -55 c14 -45 14 -55 3 -62z m710 76 c-14 -32 -16 -115 -4 -137 7 -15 9 -34 3 -55 l-8 -32 -43 41 c-33 32 -42 48 -42 75 0 47 15 76 53 102 39 27 52 28 41 6z m-495 -125 c22 -39 9 -43 -43 -13 -50 29 -52 48 -3 43 22 -2 36 -11 46 -30z m-21 -98 c80 -81 91 -95 103 -147 8 -32 13 -74 11 -95 -3 -36 -4 -36 -35 -27 -17 5 -35 15 -39 23 -9 17 -94 66 -114 66 -7 0 -18 9 -24 20 -6 11 -8 20 -5 20 3 0 -4 18 -15 39 -20 41 -63 81 -86 81 -8 0 -23 9 -33 19 -25 25 -91 44 -106 31 -6 -5 -21 -7 -33 -4 -20 6 -20 8 -6 29 20 31 28 32 171 34 l122 1 89 -90z m-493 8 c-3 -7 -19 -21 -35 -30 -23 -13 -30 -24 -30 -47 0 -23 -9 -37 -36 -58 -36 -27 -36 -27 -31 -90 2 -34 1 -61 -3 -58 -4 3 -11 39 -15 80 -8 87 3 120 57 172 39 37 103 59 93 31z m958 -232 c-4 -55 -1 -86 6 -90 14 -9 14 -46 0 -46 -18 0 -68 56 -75 84 -9 38 1 67 37 104 17 17 32 32 34 32 1 0 0 -38 -2 -84z m3887 -19 c172 -83 230 -144 230 -243 0 -96 -17 -149 -63 -195 -94 -94 -232 -124 -527 -114 -171 5 -535 45 -560 60 -5 3 -64 10 -132 15 -68 5 -177 15 -243 21 -118 11 -425 14 -476 3 -18 -3 -28 0 -33 11 -5 14 -32 15 -228 11 -378 -7 -648 -35 -791 -81 -49 -16 -70 -19 -77 -10 -11 14 -29 91 -30 128 l0 27 213 1 c116 0 264 4 327 10 63 5 275 12 470 15 209 3 366 9 382 15 28 11 84 4 105 -13 9 -7 38 -7 90 1 44 6 235 13 433 14 l355 3 70 -27 c77 -29 215 -49 215 -30 0 6 -9 11 -20 11 -31 0 -150 50 -207 87 -65 42 -107 112 -98 160 7 38 64 98 114 120 91 39 114 43 261 40 143 -4 146 -4 220 -40z m-4150 -48 c14 -25 13 -26 -17 -25 -16 1 -28 7 -27 14 3 38 5 41 19 36 9 -4 20 -15 25 -25z m-756 -98 c4 -5 28 -12 55 -16 47 -6 49 -8 57 -47 7 -32 17 -45 44 -60 37 -20 68 -20 167 2 37 7 59 8 72 0 11 -5 41 -10 68 -10 48 0 74 -11 121 -53 25 -23 15 -37 -29 -37 -14 0 -29 -4 -35 -9 -5 -6 -50 -6 -118 0 -81 7 -120 15 -155 33 -25 13 -63 31 -85 40 -57 25 -186 134 -186 158 0 11 17 10 24 -1z m447 -61 l24 -19 -36 -1 c-40 0 -50 6 -42 26 7 19 27 17 54 -6z m1615 -45 c67 -17 61 -13 66 -45 3 -25 2 -25 -64 -24 -38 0 -71 3 -74 7 -7 6 4 77 11 77 2 0 30 -7 61 -15z m178 -52 c4 -9 -5 -13 -29 -13 -23 0 -35 5 -35 13 0 8 12 14 30 14 16 0 31 -6 34 -14z m-90 -285 c-13 -83 -36 -98 -79 -52 -40 43 -31 66 35 87 43 15 51 9 44 -35z m-1428 -455 c18 -24 17 -46 -3 -88 -11 -23 -26 -38 -43 -41 -14 -3 -45 -12 -70 -20 -27 -9 -46 -11 -48 -5 -2 6 -10 7 -18 4 -9 -3 -14 1 -14 12 0 9 -11 26 -24 36 -14 11 -27 28 -31 38 -3 11 -17 22 -31 25 -36 9 -19 27 19 20 18 -3 49 -5 70 -4 22 0 36 -3 33 -9 -4 -5 -2 -12 3 -15 12 -8 34 20 27 33 -4 6 10 10 33 9 21 0 47 5 57 11 25 14 25 14 40 -6z m-813 -64 c3 -12 10 -18 16 -14 6 3 11 -1 11 -9 0 -9 -5 -16 -12 -16 -26 0 18 -28 82 -53 120 -46 261 -42 363 10 29 15 36 33 12 33 -12 0 -13 3 -3 19 17 27 55 8 74 -37 19 -46 18 -59 -6 -92 -23 -33 -150 -100 -189 -100 -14 -1 -39 -7 -56 -15 -30 -15 -30 -15 21 -12 l52 2 -20 -27 c-23 -33 -9 -37 30 -9 15 10 54 32 87 49 70 36 200 55 280 42 78 -13 155 -56 155 -88 0 -8 11 -27 24 -43 28 -33 42 -114 31 -184 -5 -39 -13 -50 -48 -75 -23 -16 -55 -39 -70 -50 -31 -25 -52 -28 -227 -38 -69 -4 -131 -11 -138 -16 -9 -5 -21 -1 -35 12 -30 27 -119 51 -159 43 -31 -7 -116 18 -143 41 -5 4 -22 8 -37 8 -34 0 -108 29 -108 41 0 6 -23 24 -50 41 -56 35 -64 52 -64 143 -1 64 33 151 61 162 9 3 38 -1 66 -10 55 -18 74 -14 42 9 -11 7 -33 24 -49 36 -16 13 -32 25 -36 28 -12 9 -30 72 -30 106 0 33 34 83 56 84 7 0 14 -9 17 -21z m987 -132 c20 -9 60 -43 89 -77 l53 -61 5 -83 c7 -98 -9 -140 -62 -162 -19 -8 -36 -14 -39 -14 -2 0 -7 25 -11 55 -3 30 -13 61 -21 69 -8 8 -14 30 -14 50 0 36 -40 96 -64 96 -7 0 -26 13 -43 28 -37 36 -158 67 -233 60 -35 -4 -49 -2 -45 6 3 6 8 19 11 28 5 14 22 18 83 21 130 7 254 0 291 -16z m118 -424 c-4 -21 -64 -63 -89 -63 -35 0 -19 29 29 54 57 30 64 31 60 9z m-1125 -71 c16 -7 32 -10 36 -7 5 2 37 -7 72 -21 35 -14 80 -27 99 -28 19 -1 55 -12 80 -23 96 -44 181 -57 355 -54 111 2 145 8 145 27 0 17 12 18 27 3 14 -14 103 24 103 44 0 8 7 17 15 21 22 8 19 -26 -5 -56 -23 -30 -111 -70 -160 -74 -19 -1 -74 -6 -121 -9 -56 -5 -98 -4 -120 4 -19 6 -69 15 -112 21 -43 5 -90 16 -105 23 -53 27 -98 40 -152 42 -59 2 -148 32 -202 68 -23 16 -34 32 -36 52 l-4 30 29 -26 c15 -14 41 -31 56 -37z"/>
<path d="M3017 3128 c-5 -16 16 -60 39 -79 16 -13 17 -12 9 6 -4 11 -13 35 -19 53 -11 34 -21 40 -29 20z"/>
<path d="M2836 3008 c-15 -21 -22 -68 -11 -68 3 0 17 12 31 27 21 23 32 27 67 24 23 -1 48 -8 55 -13 7 -6 15 -8 18 -5 14 13 -84 57 -128 57 -9 0 -24 -10 -32 -22z"/>
</g>
</svg>