<?xml version="1.0" encoding="UTF-8" standalone="no"?><!-- Created with Inkscape (http://www.inkscape.org/) --><svg xmlns:inkscape="http://www.inkscape.org/namespaces/inkscape" xmlns:sodipodi="http://sodipodi.sourceforge.net/DTD/sodipodi-0.dtd" xmlns="http://www.w3.org/2000/svg" xmlns:svg="http://www.w3.org/2000/svg" version="1.1" id="svg1" width="16mm" height="16mm" viewBox="0 0 596 596" sodipodi:docname="zelda ocarina original.svg" inkscape:version="1.4.2 (f4327f4, 2025-05-13)">
  <defs id="defs1"/>
  <sodipodi:namedview id="namedview1" pagecolor="#ffffff" bordercolor="#000000" borderopacity="0.25" inkscape:showpageshadow="2" inkscape:pageopacity="0.0" inkscape:pagecheckerboard="0" inkscape:deskcolor="#d1d1d1" inkscape:zoom="1.3540268" inkscape:cx="298" inkscape:cy="298" inkscape:window-width="1920" inkscape:window-height="1009" inkscape:window-x="-8" inkscape:window-y="-8" inkscape:window-maximized="1" inkscape:current-layer="g1"/>
  <g inkscape:groupmode="layer" inkscape:label="Image" id="g1">
    <path style="fill:#000000" d="m 354.59556,539.66667 c 2.58871,-11.43042 8.95512,-17.70322 17.73377,-17.47304 7.50413,0.19677 8.1682,1.6177 4.34324,9.29339 C 372.84929,539.15934 365.73883,544 358.29221,544 c -4.59022,0 -4.65962,-0.0814 -3.69665,-4.33333 z m -24.20511,-12.84718 c -1.70364,-2.43228 -32.56787,-35.13616 -60.81971,-64.44484 -15.30741,-15.88002 -14.85233,-14.40512 -8.54939,-27.70798 4.88049,-10.30066 16.65303,-21.65628 28.17672,-27.17886 11.30548,-5.41801 26.4336,-9.74949 28.05842,-8.03369 1.26931,1.34039 51.38896,95.81987 52.80728,99.54588 0.73838,1.93975 0.12112,2.33333 -3.65933,2.33333 -10.35909,0 -23.45427,9.85632 -29.42606,22.14806 -3.17288,6.53075 -4.04293,6.9716 -6.58793,3.3381 z M 174.81443,514.5949 C 141.50967,510.44924 110.67316,493.6723 82.612571,464.43147 62.104049,443.06035 53.53067,427.28451 50.401984,405.16091 42.146995,346.78812 94.620876,269.36685 192.20805,195.93669 c 22.87836,-17.21499 49.65559,-35.20169 76.45862,-51.3585 23.11997,-13.93667 79.11908,-42.03409 104.21143,-52.287833 53.09693,-21.697544 101.70889,-33.62369 137.05293,-33.62369 18.44737,0 17.58621,-0.891006 19.7138,20.397061 8.5309,85.357562 -64.25791,241.175362 -157.87432,337.958972 -6.57343,6.79582 -12.45487,12.04505 -13.06987,11.66496 -0.615,-0.38009 -6.94848,-11.80893 -14.0744,-25.39742 -7.36743,-14.04903 -14.13741,-25.33851 -15.69452,-26.17184 -4.23595,-2.26701 -18.77237,-0.47082 -32.94257,4.07055 -26.08201,8.35896 -44.98266,23.9775 -55.75678,46.0746 -5.31286,10.89636 -8.39228,22.80893 -6.90641,26.71707 0.63196,1.66217 8.99215,11.33963 18.5782,21.50545 9.58604,10.16583 17.42917,18.94778 17.42917,19.51544 0,2.69303 -31.38902,14.13631 -48,17.49902 -13.19234,2.67065 -34.26684,3.61946 -46.5189,2.09437 z m -19.45658,-65.28798 c 11.0564,-5.32229 19.11541,-21.50475 17.29634,-34.73098 -1.20533,-8.76378 -6.87625,-19.56873 -12.65419,-24.11034 -22.31921,-17.54349 -51.73518,6.14544 -45.40158,36.56227 2.12278,10.19455 8.04782,17.92775 17.41074,22.72404 8.26135,4.23199 13.85427,4.1254 23.34869,-0.44499 z m 20.61165,-83.29146 c 11.33385,-5.7433 18.54992,-16.26955 19.67743,-28.70393 1.63789,-18.06289 -9.68201,-30.5863 -27.64693,-30.5863 -23.21152,0 -41.98102,25.229 -34.10749,45.84555 2.57496,6.74243 10.91438,14.96569 16.40721,16.17868 2.03515,0.44942 4.30028,1.0468 5.03361,1.32752 3.10425,1.18827 14.83072,-1.11968 20.63617,-4.06152 z m 72.69717,-49.15493 c 14.83043,-6.92599 21.3235,-16.75723 20.42164,-30.92067 -0.44731,-7.02481 -1.24908,-9.38732 -4.60087,-13.55694 -2.23253,-2.77727 -6.70552,-6.54934 -9.93996,-8.38238 -8.05313,-4.56389 -21.46417,-4.60557 -31.59771,-0.0982 -7.99838,3.55766 -16.67259,12.53108 -19.03617,19.6928 -2.44201,7.39935 -0.97534,18.06277 3.34109,24.29138 8.05406,11.62201 26.96632,15.72031 41.41198,8.97401 z M 376.90881,216.19046 c 13.30247,-6.85465 19.53276,-19.64555 14.40195,-29.56744 -2.70464,-5.23019 -8.39954,-7.95635 -16.6207,-7.95635 -8.29921,0 -15.26561,2.76878 -21.13715,8.40091 -5.90405,5.6633 -8.21958,10.364 -8.21958,16.6864 0,13.73461 16.4685,20.22098 31.57548,12.43648 z m 57.21167,-1.69322 c 7.973,-2.00762 18.62669,-11.56476 20.73465,-18.60049 2.02499,-6.7588 -0.24406,-14.99807 -4.98606,-18.10515 -4.44114,-2.90994 -14.5059,-3.77429 -21.62555,-1.85717 -7.45709,2.00798 -18.13219,12.18285 -20.0029,19.06557 -3.99145,14.68526 8.27868,23.92927 25.87986,19.49724 z m -45.33306,-52.46177 c 19.2547,-8.04512 24.88224,-29.03311 9.90005,-36.9224 -5.9852,-3.15167 -11.5269,-3.09263 -20.37276,0.21703 -11.99563,4.48814 -20.86119,16.58576 -18.91303,25.80802 0.9831,4.65382 5.17563,9.89837 9.26499,11.58984 4.33132,1.79156 15.05927,1.42234 20.12075,-0.69249 z m 61.87925,-3.48084 c 15.12135,-6.85537 21.90163,-22.25424 13.95636,-31.69666 -11.99639,-14.2569 -42.07504,-3.20718 -44.2696,16.26292 -1.68496,14.94888 13.8906,22.87905 30.31324,15.43374 z" id="path1"/>
  </g>
<path d="M 368.487 530.678 L 368.05 531.256 L 367.616 531.784 L 367.157 532.298 L 366.682 532.785 L 366.185 533.252 L 365.681 533.685 L 365.139 534.11 L 364.619 534.481 L 364.264 534.709 L 364.548 534.218 L 364.919 533.639 L 365.29 533.116 L 365.675 532.628 L 366.068 532.179 L 366.461 531.78 L 366.864 531.418 L 367.291 531.078 L 367.697 530.798 L 368.136 530.537 L 368.563 530.32 L 368.804 530.219 Z M 313.037 407.07 L 313.518 407.945 L 313.519 407.945 L 313.988 408.804 L 313.993 408.813 L 314.46 409.665 L 314.937 410.543 L 314.942 410.552 L 315.415 411.42 L 315.884 412.284 L 316.359 413.163 L 316.364 413.172 L 316.835 414.041 L 317.78 415.79 L 318.254 416.67 L 318.256 416.673 L 318.727 417.546 L 319.197 418.419 L 319.196 418.419 L 319.669 419.3 L 319.671 419.303 L 320.141 420.177 L 320.613 421.057 L 320.616 421.063 L 321.084 421.934 L 321.556 422.815 L 321.558 422.818 L 322.03 423.698 L 322.033 423.704 L 322.503 424.578 L 322.973 425.455 L 323.442 426.33 L 326.735 432.489 L 326.734 432.489 L 327.204 433.371 L 327.209 433.379 L 327.677 434.255 L 328.145 435.133 L 328.612 436.009 L 329.081 436.891 L 329.084 436.897 L 329.554 437.779 L 329.556 437.782 L 330.021 438.654 L 330.49 439.536 L 330.493 439.542 L 330.963 440.424 L 330.965 440.427 L 331.433 441.305 L 331.9 442.181 L 332.833 443.936 L 333.301 444.819 L 333.306 444.828 L 334.241 446.586 L 334.709 447.468 L 334.71 447.471 L 335.179 448.354 L 335.181 448.357 L 335.647 449.233 L 336.115 450.115 L 336.118 450.121 L 336.585 451 L 337.048 451.871 L 337.515 452.754 L 337.52 452.763 L 337.986 453.642 L 338.451 454.519 L 338.918 455.402 L 338.921 455.408 L 339.857 457.174 L 340.323 458.053 L 340.324 458.056 L 341.257 459.816 L 342.658 462.465 L 342.659 462.465 L 343.12 463.34 L 343.124 463.349 L 344.058 465.115 L 344.059 465.115 L 344.52 465.99 L 344.524 465.999 L 345.458 467.765 L 345.459 467.765 L 345.92 468.64 L 345.924 468.649 L 346.391 469.532 L 346.392 469.532 L 346.85 470.401 L 347.78 472.169 L 347.783 472.175 L 348.246 473.053 L 348.711 473.937 L 348.714 473.943 L 349.177 474.821 L 349.642 475.705 L 349.645 475.711 L 350.108 476.589 L 351.036 478.354 L 351.499 479.236 L 351.963 480.12 L 352.426 481.002 L 352.431 481.011 L 352.888 481.881 L 353.351 482.766 L 353.354 482.771 L 353.815 483.651 L 354.278 484.536 L 354.281 484.541 L 354.738 485.412 L 354.737 485.412 L 355.199 486.298 L 355.204 486.307 L 355.662 487.183 L 356.124 488.069 L 356.129 488.078 L 356.584 488.948 L 357.045 489.834 L 357.505 490.718 L 357.506 490.721 L 358.42 492.478 L 358.879 493.365 L 358.881 493.368 L 359.336 494.247 L 359.618 494.793 L 359.523 494.816 L 359.226 494.895 L 358.266 495.173 L 357.98 495.262 L 357.033 495.578 L 356.782 495.667 L 355.846 496.017 L 355.612 496.109 L 354.689 496.49 L 354.459 496.589 L 353.549 497.001 L 353.341 497.099 L 352.444 497.539 L 352.251 497.638 L 351.367 498.104 L 351.179 498.206 L 350.309 498.697 L 350.145 498.793 L 349.288 499.306 L 349.117 499.411 L 348.274 499.947 L 348.111 500.054 L 347.282 500.612 L 347.137 500.712 L 346.322 501.289 L 346.183 501.389 L 345.381 501.985 L 345.233 502.098 L 344.446 502.714 L 344.318 502.817 L 343.545 503.45 L 343.415 503.559 L 342.657 504.209 L 342.538 504.313 L 341.794 504.979 L 341.669 505.093 L 340.94 505.776 L 340.822 505.889 L 340.108 506.588 L 339.996 506.7 L 339.297 507.414 L 339.184 507.532 L 338.501 508.261 L 338.391 508.382 L 337.724 509.126 L 337.616 509.249 L 336.966 510.007 L 336.864 510.129 L 336.23 510.901 L 336.127 511.029 L 335.51 511.815 L 335.403 511.955 L 334.805 512.755 L 334.711 512.883 L 334.13 513.696 L 334.032 513.837 L 333.47 514.663 L 333.371 514.811 L 332.829 515.65 L 332.734 515.801 L 332.212 516.653 L 332.115 516.817 L 331.87 517.242 L 331.239 516.554 L 331.232 516.547 L 330.556 515.812 L 330.549 515.804 L 329.872 515.07 L 329.861 515.058 L 328.503 513.592 L 328.5 513.589 L 327.821 512.857 L 327.814 512.848 L 327.133 512.116 L 327.129 512.113 L 326.448 511.382 L 326.441 511.374 L 323.031 507.724 L 323.016 507.709 L 322.335 506.985 L 322.336 506.984 L 321.652 506.255 L 320.969 505.527 L 320.965 505.524 L 320.284 504.8 L 320.285 504.799 L 319.601 504.07 L 319.594 504.063 L 318.91 503.336 L 318.903 503.328 L 318.217 502.601 L 317.535 501.878 L 316.854 501.154 L 316.85 501.15 L 315.48 499.696 L 315.473 499.688 L 313.415 497.51 L 313.411 497.506 L 312.724 496.78 L 311.356 495.332 L 311.352 495.328 L 310.665 494.602 L 310.662 494.599 L 309.288 493.149 L 309.284 493.145 L 308.596 492.42 L 307.226 490.974 L 307.222 490.97 L 306.534 490.245 L 305.851 489.524 L 305.84 489.512 L 305.151 488.788 L 303.091 486.62 L 303.087 486.616 L 302.398 485.892 L 301.717 485.175 L 301.71 485.167 L 301.022 484.444 L 300.333 483.72 L 300.326 483.712 L 299.636 482.989 L 298.261 481.547 L 297.576 480.827 L 297.572 480.823 L 296.194 479.377 L 296.191 479.373 L 295.501 478.65 L 295.497 478.647 L 294.81 477.929 L 294.811 477.928 L 294.121 477.205 L 294.117 477.202 L 292.737 475.758 L 292.046 475.035 L 290.666 473.591 L 290.662 473.587 L 289.28 472.143 L 289.277 472.139 L 288.586 471.418 L 287.898 470.7 L 287.895 470.696 L 287.204 469.975 L 286.521 469.261 L 286.517 469.257 L 285.826 468.535 L 285.815 468.524 L 285.126 467.808 L 285.127 467.807 L 283.743 466.365 L 283.056 465.648 L 283.048 465.641 L 282.359 464.925 L 282.36 464.924 L 280.976 463.482 L 280.972 463.479 L 280.28 462.759 L 280.277 462.755 L 278.891 461.315 L 278.202 460.599 L 278.195 460.591 L 277.502 459.872 L 275.427 457.716 L 275.423 457.712 L 274.73 456.993 L 274.726 456.989 L 274.032 456.27 L 274.029 456.266 L 272.641 454.83 L 271.256 453.396 L 270.571 452.684 L 269.907 451.995 L 269.908 451.994 L 269.219 451.27 L 268.551 450.563 L 267.938 449.905 L 267.271 449.178 L 266.706 448.547 L 266.137 447.892 L 265.61 447.259 L 265.169 446.695 L 264.782 446.157 L 264.522 445.748 L 264.39 445.501 L 264.402 445.439 L 264.514 445.038 L 264.718 444.458 L 264.978 443.804 L 265.314 443.029 L 265.665 442.257 L 266.067 441.397 L 266.49 440.507 L 266.492 440.504 L 266.496 440.495 L 266.921 439.605 L 266.923 439.602 L 267.353 438.701 L 267.357 438.692 L 267.786 437.79 L 268.126 437.103 L 268.513 436.372 L 268.92 435.648 L 269.33 434.959 L 269.769 434.255 L 270.245 433.529 L 270.736 432.811 L 271.205 432.153 L 271.731 431.442 L 272.222 430.803 L 272.844 430.021 L 273.356 429.398 L 273.936 428.716 L 274.521 428.048 L 275.148 427.354 L 275.722 426.738 L 276.299 426.135 L 277 425.424 L 277.561 424.87 L 278.282 424.179 L 278.891 423.61 L 279.528 423.033 L 280.246 422.399 L 280.959 421.787 L 281.581 421.269 L 282.312 420.676 L 282.987 420.143 L 283.751 419.559 L 284.427 419.058 L 285.131 418.55 L 285.858 418.042 L 286.636 417.517 L 287.324 417.068 L 288.083 416.591 L 288.863 416.118 L 289.6 415.688 L 290.318 415.285 L 291.102 414.866 L 291.821 414.498 L 292.646 414.098 L 293.477 413.707 L 294.315 413.325 L 295.12 412.967 L 296.015 412.578 L 296.86 412.221 L 297.701 411.873 L 298.627 411.499 L 299.445 411.177 L 300.317 410.841 L 301.252 410.49 L 302.084 410.185 L 303.025 409.848 L 303.85 409.56 L 304.774 409.247 L 305.685 408.946 L 306.558 408.666 L 307.396 408.406 L 308.321 408.128 L 309.179 407.881 L 310.077 407.634 L 310.927 407.41 L 311.839 407.186 L 312.626 407.005 L 312.963 406.934 Z M 514.992 66.114 L 516.04 66.121 L 516.98 66.135 L 517.915 66.161 L 518.8 66.202 L 519.594 66.259 L 520.288 66.337 L 520.52 66.376 L 520.597 66.64 L 520.762 67.345 L 520.911 68.119 L 521.05 68.967 L 521.174 69.829 L 521.298 70.791 L 521.421 71.832 L 521.526 72.782 L 521.633 73.795 L 521.738 74.831 L 521.842 75.86 L 522.048 77.946 L 522.151 78.99 L 522.254 80.033 L 522.344 80.985 L 522.428 81.965 L 522.505 82.953 L 522.574 83.942 L 522.639 84.988 L 522.69 85.921 L 522.737 86.919 L 522.777 87.916 L 522.81 88.907 L 522.836 89.905 L 522.856 90.953 L 522.857 90.953 L 522.868 91.902 L 522.874 92.908 L 522.874 93.906 L 522.867 94.954 L 522.855 95.91 L 522.854 95.91 L 522.835 96.915 L 522.81 97.921 L 522.78 98.919 L 522.741 99.967 L 522.701 100.936 L 522.7 100.936 L 522.65 101.983 L 522.651 101.983 L 522.599 102.945 L 522.539 103.956 L 522.472 105.002 L 522.473 105.002 L 522.406 105.969 L 522.331 106.972 L 522.249 107.988 L 522.165 108.99 L 522.074 110.006 L 521.98 111.007 L 521.879 112.022 L 521.775 113.029 L 521.774 113.029 L 521.661 114.071 L 521.551 115.042 L 521.428 116.083 L 521.308 117.066 L 521.177 118.106 L 521.051 119.075 L 520.913 120.092 L 520.775 121.087 L 520.628 122.104 L 520.479 123.113 L 520.326 124.121 L 520.17 125.128 L 520.011 126.127 L 519.844 127.141 L 519.677 128.139 L 519.499 129.172 L 519.5 129.172 L 519.328 130.155 L 519.147 131.166 L 518.965 132.162 L 518.775 133.178 L 518.587 134.173 L 518.39 135.187 L 518.193 136.187 L 517.993 137.187 L 517.789 138.185 L 517.575 139.211 L 517.368 140.195 L 517.151 141.205 L 516.929 142.229 L 516.715 143.197 L 516.714 143.197 L 516.489 144.198 L 516.256 145.22 L 516.257 145.22 L 516.031 146.199 L 515.797 147.198 L 515.562 148.19 L 515.319 149.195 L 515.075 150.199 L 514.825 151.217 L 514.583 152.184 L 514.332 153.178 L 514.077 154.173 L 513.814 155.188 L 513.815 155.188 L 513.559 156.167 L 513.296 157.16 L 513.031 158.151 L 512.761 159.148 L 512.491 160.137 L 512.217 161.128 L 511.935 162.138 L 511.936 162.138 L 511.662 163.11 L 511.381 164.098 L 511.38 164.098 L 511.095 165.089 L 510.807 166.082 L 510.519 167.069 L 510.229 168.051 L 509.933 169.042 L 509.637 170.025 L 509.336 171.015 L 509.034 172.001 L 508.731 172.982 L 508.419 173.983 L 508.114 174.955 L 507.798 175.955 L 507.799 175.955 L 507.491 176.917 L 507.175 177.9 L 506.858 178.878 L 506.538 179.858 L 506.214 180.84 L 505.888 181.822 L 505.556 182.817 L 505.233 183.774 L 504.899 184.758 L 504.561 185.75 L 504.562 185.75 L 504.231 186.707 L 503.894 187.681 L 503.553 188.658 L 503.213 189.628 L 502.867 190.606 L 502.521 191.58 L 502.52 191.58 L 502.175 192.546 L 501.824 193.519 L 501.823 193.519 L 501.468 194.497 L 501.118 195.458 L 500.76 196.431 L 500.4 197.404 L 500.042 198.368 L 499.68 199.335 L 499.679 199.335 L 499.309 200.316 L 499.31 200.316 L 498.946 201.275 L 498.582 202.232 L 498.208 203.206 L 497.837 204.168 L 497.458 205.145 L 497.088 206.094 L 496.708 207.063 L 496.707 207.063 L 496.332 208.016 L 495.945 208.99 L 495.946 208.99 L 495.566 209.943 L 495.182 210.902 L 494.796 211.859 L 494.407 212.818 L 494.015 213.78 L 494.014 213.78 L 493.626 214.729 L 492.834 216.647 L 492.437 217.6 L 492.036 218.558 L 491.632 219.518 L 491.225 220.484 L 490.828 221.42 L 490.422 222.372 L 490.016 223.319 L 489.605 224.272 L 489.193 225.223 L 488.775 226.184 L 488.776 226.184 L 488.365 227.124 L 488.364 227.124 L 487.95 228.069 L 487.532 229.017 L 487.112 229.964 L 486.691 230.909 L 486.263 231.866 L 486.264 231.866 L 485.843 232.802 L 485.842 232.802 L 485.411 233.758 L 485.412 233.758 L 484.992 234.684 L 484.991 234.684 L 484.56 235.63 L 484.127 236.577 L 483.701 237.507 L 483.264 238.452 L 483.263 238.452 L 482.825 239.397 L 482.391 240.331 L 481.953 241.268 L 481.952 241.268 L 481.506 242.217 L 481.507 242.217 L 481.07 243.145 L 481.069 243.145 L 480.625 244.082 L 480.178 245.022 L 479.737 245.948 L 478.838 247.818 L 478.381 248.762 L 478.382 248.762 L 477.932 249.688 L 477.479 250.618 L 477.478 250.618 L 477.017 251.56 L 477.018 251.56 L 476.563 252.483 L 476.561 252.486 L 476.098 253.427 L 475.648 254.335 L 475.184 255.267 L 474.723 256.191 L 474.256 257.122 L 473.793 258.042 L 473.326 258.966 L 472.852 259.898 L 472.377 260.832 L 472.378 260.832 L 471.439 262.664 L 470.966 263.582 L 470.489 264.504 L 470.488 264.504 L 470.008 265.429 L 469.524 266.359 L 469.525 266.359 L 469.053 267.26 L 468.089 269.093 L 467.114 270.931 L 466.621 271.856 L 465.65 273.67 L 465.649 273.67 L 465.151 274.593 L 465.152 274.593 L 464.659 275.504 L 464.169 276.409 L 463.673 277.318 L 463.171 278.235 L 462.676 279.138 L 462.175 280.047 L 461.674 280.953 L 461.165 281.87 L 460.665 282.769 L 460.161 283.671 L 459.651 284.579 L 459.141 285.486 L 458.635 286.384 L 458.123 287.288 L 457.608 288.193 L 457.101 289.082 L 456.062 290.892 L 455.539 291.8 L 455.54 291.8 L 455.027 292.685 L 455.026 292.685 L 454.506 293.581 L 453.983 294.478 L 453.459 295.375 L 452.937 296.265 L 452.408 297.163 L 451.883 298.052 L 451.353 298.946 L 450.822 299.839 L 450.29 300.73 L 449.752 301.629 L 449.753 301.629 L 449.224 302.51 L 448.693 303.391 L 448.151 304.285 L 447.614 305.17 L 447.077 306.052 L 446.533 306.941 L 445.994 307.821 L 445.446 308.711 L 444.904 309.589 L 444.36 310.467 L 443.263 312.23 L 442.713 313.108 L 442.16 313.988 L 441.606 314.867 L 441.052 315.744 L 440.497 316.619 L 439.941 317.493 L 439.377 318.376 L 438.82 319.245 L 438.254 320.127 L 437.703 320.982 L 437.138 321.854 L 436.567 322.733 L 436.568 322.733 L 436.007 323.595 L 436.006 323.595 L 435.44 324.462 L 434.87 325.331 L 434.294 326.207 L 434.295 326.207 L 433.735 327.056 L 433.734 327.056 L 433.157 327.926 L 432.582 328.791 L 432.01 329.65 L 431.43 330.516 L 430.857 331.371 L 430.274 332.235 L 429.687 333.104 L 429.113 333.952 L 428.531 334.808 L 428.53 334.808 L 427.939 335.674 L 427.362 336.518 L 426.773 337.374 L 426.178 338.237 L 425.597 339.079 L 425.005 339.932 L 424.411 340.784 L 423.818 341.633 L 423.222 342.484 L 422.627 343.331 L 422.03 344.177 L 421.432 345.022 L 420.832 345.867 L 420.831 345.866 L 420.222 346.72 L 420.223 346.72 L 419.627 347.554 L 419.016 348.405 L 418.416 349.239 L 417.81 350.077 L 417.202 350.916 L 416.591 351.756 L 415.979 352.595 L 415.369 353.428 L 414.756 354.262 L 414.138 355.1 L 413.524 355.931 L 412.908 356.761 L 412.907 356.761 L 412.288 357.592 L 411.666 358.424 L 411.037 359.263 L 410.423 360.08 L 409.8 360.906 L 409.799 360.905 L 409.173 361.731 L 408.543 362.559 L 407.908 363.392 L 406.657 365.024 L 406.027 365.841 L 405.385 366.67 L 404.754 367.483 L 404.12 368.297 L 403.474 369.123 L 402.842 369.929 L 402.203 370.74 L 401.56 371.553 L 400.908 372.375 L 400.27 373.176 L 399.616 373.995 L 398.981 374.789 L 398.323 375.606 L 397.681 376.403 L 397.68 376.403 L 397.026 377.209 L 396.372 378.014 L 395.719 378.815 L 395.067 379.611 L 394.401 380.42 L 393.751 381.209 L 393.088 382.009 L 392.422 382.811 L 392.421 382.81 L 391.75 383.616 L 390.435 385.184 L 389.765 385.977 L 389.088 386.777 L 388.432 387.549 L 387.751 388.346 L 387.752 388.346 L 387.082 389.127 L 386.409 389.91 L 385.724 390.704 L 385.048 391.485 L 384.377 392.257 L 384.376 392.257 L 383.687 393.047 L 383.013 393.816 L 382.321 394.604 L 380.964 396.137 L 380.274 396.912 L 379.589 397.679 L 378.889 398.459 L 378.89 398.46 L 378.208 399.216 L 377.515 399.981 L 376.81 400.757 L 376.124 401.51 L 375.416 402.283 L 374.725 403.037 L 374.724 403.036 L 374.013 403.807 L 373.325 404.551 L 372.621 405.307 L 371.912 406.065 L 371.195 406.83 L 370.5 407.568 L 369.78 408.329 L 369.079 409.067 L 368.355 409.826 L 367.654 410.558 L 366.938 411.302 L 366.226 412.038 L 365.509 412.775 L 364.806 413.489 L 364.1 414.202 L 363.358 414.942 L 362.666 415.625 L 361.945 416.33 L 361.227 417.024 L 360.72 417.508 L 360.691 417.455 L 360.184 416.538 L 359.683 415.629 L 358.689 413.811 L 358.195 412.904 L 357.702 411.997 L 357.703 411.997 L 357.204 411.075 L 356.218 409.243 L 355.243 407.423 L 354.75 406.498 L 354.258 405.575 L 353.776 404.669 L 353.286 403.742 L 353.285 403.74 L 352.795 402.814 L 352.306 401.889 L 351.826 400.976 L 351.342 400.053 L 351.336 400.042 L 350.847 399.114 L 350.845 399.111 L 350.356 398.184 L 350.349 398.17 L 349.858 397.244 L 349.851 397.23 L 349.358 396.305 L 349.347 396.285 L 348.851 395.361 L 348.847 395.353 L 348.35 394.43 L 348.34 394.413 L 347.841 393.492 L 347.832 393.476 L 347.33 392.555 L 347.321 392.538 L 346.817 391.619 L 346.81 391.605 L 346.304 390.687 L 346.296 390.673 L 345.788 389.756 L 345.775 389.733 L 345.264 388.818 L 345.254 388.799 L 344.74 387.885 L 344.73 387.868 L 344.214 386.956 L 344.203 386.937 L 343.684 386.026 L 343.672 386.004 L 343.15 385.095 L 343.134 385.068 L 342.608 384.161 L 342.598 384.144 L 342.07 383.239 L 342.051 383.206 L 341.518 382.303 L 341.5 382.273 L 340.963 381.373 L 340.943 381.34 L 340.401 380.442 L 340.375 380.399 L 339.827 379.505 L 339.8 379.461 L 339.246 378.571 L 339.213 378.519 L 338.652 377.634 L 338.604 377.56 L 338.032 376.681 L 337.977 376.597 L 337.394 375.727 L 337.306 375.598 L 336.704 374.739 L 336.552 374.53 L 335.921 373.693 L 335.564 373.255 L 334.872 372.469 L 333.029 370.954 L 332.131 370.431 L 330.558 369.744 L 329.556 369.438 L 328.781 369.246 L 327.752 369.049 L 327.232 368.968 L 326.191 368.844 L 325.815 368.809 L 324.769 368.738 L 324.477 368.724 L 323.429 368.694 L 323.188 368.691 L 322.14 368.695 L 321.948 368.698 L 320.9 368.729 L 320.729 368.736 L 319.683 368.791 L 319.534 368.801 L 318.488 368.877 L 318.36 368.887 L 317.316 368.981 L 317.203 368.992 L 316.16 369.102 L 316.045 369.115 L 315.005 369.241 L 314.913 369.253 L 313.874 369.392 L 313.783 369.405 L 312.745 369.557 L 312.665 369.569 L 311.63 369.732 L 311.538 369.747 L 310.505 369.923 L 310.435 369.935 L 309.403 370.121 L 309.331 370.134 L 308.301 370.33 L 308.223 370.346 L 307.195 370.553 L 307.137 370.565 L 306.112 370.78 L 306.042 370.795 L 305.018 371.02 L 304.948 371.035 L 303.926 371.27 L 303.868 371.284 L 302.848 371.527 L 302.783 371.543 L 301.766 371.795 L 301.711 371.809 L 300.695 372.069 L 300.63 372.086 L 299.617 372.355 L 299.554 372.372 L 298.543 372.65 L 298.484 372.666 L 297.476 372.952 L 297.42 372.968 L 296.414 373.262 L 296.352 373.281 L 295.348 373.584 L 295.29 373.601 L 294.289 373.912 L 294.224 373.933 L 293.226 374.253 L 293.171 374.271 L 292.175 374.599 L 292.111 374.62 L 291.118 374.957 L 291.052 374.98 L 290.063 375.326 L 290.008 375.345 L 289.021 375.699 L 288.955 375.723 L 287.972 376.086 L 287.909 376.11 L 286.929 376.482 L 286.86 376.509 L 285.883 376.891 L 285.824 376.914 L 284.851 377.304 L 284.786 377.33 L 283.817 377.729 L 283.753 377.756 L 282.788 378.164 L 282.72 378.193 L 281.758 378.611 L 281.691 378.641 L 280.734 379.068 L 280.671 379.096 L 279.718 379.532 L 279.648 379.564 L 278.699 380.01 L 278.633 380.042 L 277.689 380.497 L 277.621 380.53 L 276.681 380.995 L 276.61 381.031 L 275.675 381.506 L 275.607 381.541 L 274.678 382.025 L 274.61 382.06 L 273.685 382.554 L 273.613 382.594 L 272.694 383.098 L 272.63 383.133 L 271.716 383.646 L 271.638 383.69 L 270.73 384.214 L 270.667 384.251 L 269.764 384.784 L 269.693 384.827 L 268.796 385.37 L 268.722 385.415 L 267.832 385.968 L 267.762 386.012 L 266.878 386.575 L 266.808 386.62 L 265.93 387.193 L 265.861 387.239 L 264.989 387.822 L 264.919 387.869 L 264.055 388.461 L 263.982 388.512 L 263.124 389.115 L 263.05 389.167 L 262.2 389.78 L 262.13 389.832 L 261.287 390.455 L 261.218 390.507 L 260.382 391.14 L 260.317 391.189 L 259.488 391.831 L 259.409 391.893 L 258.589 392.546 L 258.526 392.597 L 257.713 393.259 L 257.639 393.32 L 256.835 393.992 L 256.766 394.051 L 255.97 394.733 L 255.901 394.792 L 255.113 395.484 L 255.046 395.544 L 254.267 396.245 L 254.203 396.303 L 253.432 397.013 L 253.362 397.078 L 252.6 397.798 L 252.528 397.867 L 251.776 398.597 L 251.715 398.657 L 250.971 399.396 L 250.9 399.468 L 250.166 400.217 L 250.107 400.278 L 249.382 401.035 L 249.313 401.108 L 248.598 401.875 L 248.536 401.942 L 247.831 402.717 L 247.771 402.784 L 247.075 403.568 L 247.012 403.64 L 246.326 404.433 L 246.26 404.51 L 245.585 405.312 L 245.527 405.382 L 244.862 406.192 L 244.805 406.262 L 244.15 407.08 L 244.09 407.155 L 243.445 407.982 L 243.389 408.055 L 242.755 408.889 L 242.698 408.966 L 242.074 409.809 L 242.019 409.883 L 241.406 410.733 L 241.354 410.807 L 240.751 411.665 L 240.695 411.746 L 240.104 412.611 L 240.053 412.686 L 239.472 413.559 L 239.421 413.637 L 238.851 414.517 L 238.801 414.595 L 238.242 415.482 L 238.195 415.557 L 237.647 416.45 L 237.597 416.533 L 237.06 417.434 L 237.017 417.507 L 236.491 418.413 L 236.443 418.497 L 235.928 419.411 L 235.884 419.491 L 235.381 420.41 L 235.341 420.483 L 234.848 421.408 L 234.807 421.487 L 234.325 422.418 L 234.285 422.497 L 233.814 423.434 L 233.773 423.517 L 233.314 424.459 L 233.279 424.53 L 232.83 425.477 L 232.793 425.558 L 232.355 426.511 L 232.321 426.586 L 231.894 427.543 L 231.859 427.622 L 231.443 428.584 L 231.412 428.657 L 231.006 429.624 L 230.974 429.701 L 230.579 430.672 L 230.551 430.743 L 230.166 431.718 L 230.132 431.804 L 229.759 432.784 L 229.728 432.868 L 229.367 433.852 L 229.339 433.93 L 228.989 434.918 L 228.961 434.997 L 228.622 435.989 L 228.59 436.087 L 228.265 437.083 L 228.237 437.171 L 227.924 438.172 L 227.894 438.269 L 227.595 439.273 L 227.561 439.389 L 227.278 440.399 L 227.25 440.504 L 226.982 441.517 L 226.949 441.645 L 226.699 442.663 L 226.667 442.799 L 226.436 443.822 L 226.403 443.977 L 226.194 445.004 L 226.16 445.182 L 225.976 446.214 L 225.94 446.435 L 225.787 447.472 L 225.754 447.721 L 225.636 448.763 L 225.606 449.096 L 225.535 450.141 L 225.518 450.568 L 225.507 451.616 L 225.527 452.241 L 225.604 453.286 L 225.746 454.282 L 225.963 455.307 L 226.625 457.17 L 227.102 458.098 L 227.641 458.987 L 228.245 459.843 L 228.405 460.061 L 229.04 460.895 L 229.127 461.007 L 229.778 461.829 L 229.835 461.9 L 230.496 462.714 L 230.537 462.765 L 231.205 463.573 L 231.241 463.616 L 231.915 464.419 L 231.941 464.449 L 232.619 465.248 L 232.642 465.275 L 233.324 466.071 L 233.347 466.098 L 234.033 466.891 L 234.049 466.91 L 234.737 467.7 L 234.754 467.719 L 235.446 468.508 L 235.459 468.523 L 236.152 469.309 L 236.169 469.328 L 236.865 470.112 L 236.878 470.127 L 237.576 470.909 L 237.589 470.924 L 238.289 471.704 L 238.3 471.715 L 239.002 472.494 L 239.015 472.509 L 239.719 473.286 L 239.729 473.297 L 240.434 474.072 L 240.444 474.083 L 241.151 474.857 L 241.162 474.869 L 241.871 475.642 L 241.881 475.653 L 242.591 476.424 L 242.604 476.438 L 243.316 477.207 L 243.32 477.211 L 244.033 477.98 L 244.05 477.999 L 244.765 478.765 L 244.768 478.768 L 245.484 479.534 L 245.498 479.549 L 246.216 480.313 L 246.219 480.317 L 246.937 481.08 L 248.356 482.589 L 249.072 483.355 L 249.076 483.359 L 249.775 484.106 L 251.199 485.638 L 251.912 486.406 L 253.304 487.913 L 254.013 488.686 L 254.016 488.689 L 254.705 489.439 L 255.411 490.214 L 255.417 490.221 L 256.124 490.995 L 256.801 491.742 L 256.8 491.743 L 257.503 492.521 L 257.945 493.012 L 257.741 493.099 L 256.88 493.459 L 255.91 493.856 L 254.981 494.231 L 254.083 494.585 L 253.106 494.965 L 252.162 495.327 L 251.246 495.673 L 250.288 496.03 L 249.337 496.381 L 248.373 496.731 L 247.387 497.086 L 247.387 497.087 L 246.457 497.417 L 245.491 497.756 L 244.525 498.091 L 243.534 498.431 L 242.586 498.752 L 241.592 499.086 L 240.646 499.399 L 239.65 499.726 L 238.711 500.03 L 237.733 500.342 L 236.733 500.658 L 235.759 500.962 L 234.809 501.254 L 233.842 501.548 L 232.837 501.848 L 232.837 501.849 L 231.888 502.128 L 230.909 502.412 L 229.936 502.69 L 228.97 502.961 L 227.971 503.235 L 226.983 503.5 L 226.052 503.745 L 225.039 504.005 L 224.093 504.241 L 223.152 504.468 L 222.141 504.705 L 221.249 504.904 L 220.224 505.123 L 219.334 505.303 L 218.408 505.477 L 217.46 505.647 L 216.427 505.82 L 215.505 505.967 L 214.484 506.12 L 213.541 506.254 L 212.571 506.384 L 211.53 506.516 L 210.582 506.63 L 209.541 506.749 L 208.598 506.851 L 208.598 506.85 L 207.555 506.955 L 206.569 507.05 L 205.589 507.138 L 204.579 507.223 L 203.534 507.306 L 202.558 507.378 L 201.557 507.446 L 200.511 507.513 L 200.511 507.514 L 199.534 507.57 L 198.538 507.624 L 198.538 507.623 L 197.491 507.673 L 197.491 507.674 L 196.515 507.715 L 195.467 507.755 L 194.463 507.788 L 193.485 507.815 L 192.48 507.838 L 191.475 507.855 L 190.426 507.867 L 189.42 507.873 L 188.465 507.873 L 187.417 507.866 L 186.453 507.855 L 186.453 507.854 L 185.405 507.835 L 184.464 507.81 L 183.48 507.778 L 182.432 507.735 L 181.463 507.688 L 180.493 507.631 L 179.564 507.569 L 178.56 507.491 L 177.585 507.404 L 176.645 507.308 L 175.76 507.205 L 174.728 507.072 L 173.794 506.945 L 172.824 506.804 L 171.85 506.655 L 170.816 506.488 L 169.83 506.322 L 168.924 506.161 L 167.895 505.969 L 166.961 505.789 L 166.006 505.594 L 165.041 505.391 L 164.081 505.181 L 163.059 504.948 L 163.059 504.949 L 162.15 504.734 L 161.198 504.501 L 160.182 504.243 L 159.231 503.994 L 158.324 503.75 L 157.315 503.468 L 156.36 503.194 L 155.453 502.926 L 154.473 502.627 L 153.577 502.347 L 152.599 502.032 L 151.697 501.734 L 150.704 501.397 L 149.823 501.091 L 148.836 500.739 L 147.956 500.418 L 147.956 500.417 L 146.974 500.05 L 146.1 499.715 L 145.177 499.353 L 144.204 498.964 L 143.34 498.61 L 142.429 498.229 L 141.465 497.817 L 140.554 497.42 L 139.697 497.039 L 138.79 496.627 L 137.838 496.187 L 137.838 496.188 L 136.951 495.768 L 136.095 495.356 L 135.153 494.895 L 134.317 494.478 L 133.383 494.003 L 132.521 493.558 L 131.659 493.105 L 130.735 492.611 L 129.906 492.16 L 129.035 491.678 L 128.122 491.165 L 128.122 491.166 L 127.297 490.694 L 126.435 490.194 L 125.532 489.662 L 124.72 489.176 L 123.825 488.632 L 123.011 488.131 L 122.173 487.606 L 121.288 487.043 L 120.48 486.522 L 119.602 485.949 L 118.808 485.423 L 117.986 484.871 L 117.12 484.28 L 116.286 483.705 L 115.469 483.134 L 114.651 482.554 L 113.837 481.969 L 113.026 481.379 L 112.22 480.785 L 111.452 480.213 L 110.616 479.581 L 109.816 478.969 L 109.018 478.352 L 108.225 477.732 L 107.474 477.137 L 106.656 476.481 L 105.873 475.846 L 105.098 475.21 L 104.319 474.564 L 103.551 473.919 L 102.778 473.264 L 102.047 472.638 L 102.047 472.637 L 101.255 471.95 L 100.497 471.286 L 99.738 470.614 L 99.013 469.966 L 99.014 469.965 L 98.236 469.262 L 97.491 468.582 L 96.751 467.899 L 96.035 467.232 L 96.036 467.231 L 95.273 466.513 L 95.272 466.514 L 94.564 465.84 L 94.565 465.839 L 93.808 465.113 L 93.11 464.435 L 92.361 463.702 L 92.36 463.703 L 91.644 462.994 L 90.949 462.299 L 90.21 461.555 L 89.528 460.862 L 88.797 460.111 L 88.085 459.375 L 87.41 458.668 L 86.688 457.907 L 86.007 457.185 L 85.291 456.419 L 84.603 455.676 L 83.941 454.955 L 83.236 454.179 L 82.559 453.427 L 81.9 452.688 L 81.218 451.914 L 80.562 451.16 L 79.898 450.39 L 79.255 449.634 L 78.603 448.859 L 77.986 448.117 L 77.365 447.358 L 76.706 446.542 L 76.085 445.762 L 75.51 445.029 L 74.87 444.199 L 74.262 443.401 L 73.712 442.663 L 73.095 441.822 L 72.534 441.043 L 71.954 440.222 L 71.395 439.416 L 70.877 438.654 L 70.31 437.801 L 69.786 436.996 L 69.254 436.159 L 68.743 435.336 L 68.275 434.564 L 67.791 433.745 L 67.267 432.837 L 66.835 432.066 L 66.363 431.2 L 65.891 430.31 L 65.493 429.536 L 65.03 428.606 L 64.651 427.822 L 64.242 426.948 L 63.823 426.018 L 63.468 425.205 L 63.072 424.263 L 62.736 423.434 L 62.371 422.498 L 62.054 421.654 L 61.716 420.714 L 61.403 419.81 L 61.128 418.983 L 60.817 418.002 L 60.557 417.146 L 60.273 416.167 L 60.018 415.245 L 59.773 414.317 L 59.553 413.441 L 59.335 412.528 L 59.102 411.506 L 58.902 410.574 L 58.707 409.618 L 58.523 408.666 L 58.363 407.784 L 58.185 406.751 L 58.038 405.853 L 57.881 404.823 L 57.744 403.866 L 57.628 402.986 L 57.504 401.946 L 57.406 401.035 L 57.32 400.124 L 57.239 399.132 L 57.172 398.17 L 57.115 397.178 L 57.074 396.285 L 57.039 395.254 L 57.019 394.377 L 57.007 393.328 L 57.007 392.45 L 57.019 391.402 L 57.038 390.518 L 57.07 389.548 L 57.116 388.501 L 57.169 387.532 L 57.226 386.65 L 57.301 385.675 L 57.391 384.63 L 57.484 383.659 L 57.587 382.695 L 57.691 381.802 L 57.823 380.762 L 57.955 379.789 L 58.086 378.892 L 58.247 377.856 L 58.406 376.894 L 58.564 375.988 L 58.753 374.957 L 58.927 374.056 L 59.121 373.093 L 59.337 372.068 L 59.534 371.171 L 59.755 370.206 L 59.983 369.243 L 59.984 369.241 L 59.997 369.186 L 60.233 368.225 L 60.461 367.329 L 60.714 366.367 L 60.715 366.367 L 60.972 365.417 L 61.24 364.459 L 61.514 363.508 L 61.797 362.552 L 62.087 361.599 L 62.399 360.598 L 62.684 359.707 L 62.995 358.76 L 63.312 357.817 L 63.653 356.826 L 63.968 355.928 L 64.322 354.941 L 64.649 354.05 L 65.016 353.068 L 65.354 352.182 L 65.72 351.24 L 66.083 350.322 L 66.476 349.35 L 66.475 349.35 L 66.843 348.453 L 66.844 348.453 L 67.227 347.533 L 67.622 346.603 L 68.018 345.684 L 68.439 344.724 L 68.832 343.843 L 69.246 342.927 L 69.664 342.016 L 70.091 341.1 L 70.522 340.187 L 70.96 339.272 L 71.393 338.378 L 71.843 337.466 L 72.297 336.556 L 72.747 335.663 L 73.211 334.758 L 73.693 333.827 L 74.145 332.963 L 74.616 332.074 L 74.63 332.049 L 74.636 332.037 L 75.099 331.176 L 75.578 330.293 L 76.069 329.4 L 76.561 328.513 L 77.058 327.627 L 77.559 326.743 L 78.063 325.863 L 78.569 324.989 L 79.084 324.109 L 79.598 323.24 L 80.136 322.34 L 80.135 322.339 L 80.645 321.494 L 81.179 320.617 L 81.705 319.759 L 82.242 318.893 L 82.787 318.023 L 83.327 317.166 L 83.873 316.309 L 84.44 315.427 L 84.98 314.593 L 85.538 313.739 L 86.115 312.863 L 86.661 312.041 L 87.232 311.19 L 87.818 310.322 L 87.817 310.322 L 88.375 309.502 L 88.956 308.656 L 89.532 307.822 L 90.121 306.978 L 90.723 306.12 L 90.722 306.12 L 91.294 305.311 L 91.295 305.312 L 91.904 304.458 L 92.486 303.646 L 93.1 302.797 L 93.687 301.99 L 94.307 301.145 L 94.903 300.338 L 95.528 299.497 L 95.527 299.497 L 96.127 298.695 L 96.743 297.876 L 96.744 297.877 L 97.377 297.042 L 97.982 296.249 L 98.605 295.439 L 99.247 294.61 L 99.862 293.817 L 100.497 293.008 L 101.134 292.201 L 101.785 291.38 L 101.784 291.379 L 102.41 290.595 L 103.053 289.795 L 103.697 288.998 L 104.348 288.197 L 104.995 287.405 L 105.661 286.595 L 106.316 285.802 L 106.957 285.031 L 107.617 284.242 L 108.285 283.448 L 108.938 282.674 L 109.612 281.884 L 110.28 281.102 L 110.95 280.322 L 111.621 279.545 L 112.293 278.771 L 112.976 277.99 L 113.651 277.221 L 114.345 276.435 L 115.018 275.677 L 115.715 274.895 L 116.401 274.129 L 117.079 273.376 L 117.765 272.618 L 118.465 271.85 L 119.158 271.091 L 119.853 270.334 L 120.554 269.575 L 121.25 268.825 L 121.958 268.066 L 122.661 267.314 L 122.662 267.315 L 123.38 266.552 L 124.089 265.801 L 124.79 265.062 L 125.495 264.321 L 125.496 264.322 L 126.212 263.575 L 126.925 262.835 L 127.647 262.089 L 128.363 261.352 L 129.095 260.602 L 129.094 260.601 L 129.807 259.874 L 130.532 259.138 L 131.251 258.41 L 131.987 257.67 L 132.709 256.945 L 133.444 256.212 L 134.176 255.484 L 134.907 254.76 L 135.647 254.031 L 136.395 253.296 L 137.122 252.585 L 137.859 251.867 L 138.601 251.148 L 139.355 250.42 L 140.088 249.713 L 140.834 248.999 L 141.586 248.282 L 142.327 247.577 L 143.836 246.151 L 144.585 245.447 L 145.348 244.734 L 146.114 244.019 L 146.86 243.327 L 147.615 242.628 L 148.378 241.925 L 149.139 241.226 L 149.898 240.532 L 150.67 239.83 L 151.446 239.125 L 152.2 238.442 L 152.967 237.75 L 152.968 237.751 L 153.748 237.051 L 153.747 237.05 L 154.51 236.368 L 155.282 235.68 L 156.058 234.991 L 156.832 234.306 L 157.607 233.623 L 158.387 232.938 L 159.164 232.258 L 159.954 231.569 L 159.954 231.568 L 160.726 230.897 L 161.511 230.217 L 162.289 229.545 L 163.084 228.862 L 163.865 228.192 L 164.65 227.521 L 165.448 226.842 L 166.228 226.18 L 167.025 225.506 L 167.815 224.84 L 168.618 224.165 L 168.618 224.164 L 169.401 223.509 L 170.194 222.847 L 170.997 222.18 L 171.788 221.523 L 172.585 220.865 L 172.585 220.866 L 174.205 219.534 L 174.988 218.892 L 175.797 218.234 L 176.599 217.582 L 177.414 216.922 L 177.413 216.921 L 178.212 216.276 L 179.017 215.628 L 179.835 214.972 L 180.642 214.327 L 181.461 213.673 L 182.262 213.036 L 182.262 213.037 L 183.083 212.386 L 183.89 211.748 L 184.713 211.099 L 185.518 210.467 L 185.518 210.468 L 186.332 209.831 L 187.159 209.186 L 187.159 209.185 L 187.97 208.554 L 188.79 207.918 L 189.611 207.283 L 190.429 206.652 L 191.256 206.017 L 192.073 205.391 L 192.907 204.755 L 192.907 204.754 L 194.55 203.504 L 195.386 202.872 L 195.386 202.871 L 196.21 202.249 L 197.036 201.628 L 197.875 200.999 L 198.698 200.383 L 199.53 199.763 L 200.371 199.138 L 200.371 199.137 L 201.197 198.524 L 202.032 197.907 L 202.871 197.289 L 203.704 196.676 L 204.541 196.063 L 205.387 195.445 L 205.387 195.444 L 206.217 194.839 L 207.065 194.223 L 207.065 194.222 L 208.735 193.013 L 210.429 191.795 L 211.273 191.19 L 212.126 190.58 L 212.961 189.983 L 213.812 189.378 L 213.812 189.379 L 214.667 188.772 L 215.505 188.178 L 216.35 187.582 L 217.208 186.979 L 217.211 186.977 L 218.057 186.382 L 218.906 185.787 L 219.765 185.187 L 220.614 184.595 L 220.614 184.596 L 221.475 183.997 L 221.475 183.996 L 222.315 183.414 L 223.178 182.818 L 223.181 182.816 L 224.027 182.231 L 224.891 181.637 L 225.746 181.05 L 226.599 180.465 L 226.599 180.466 L 228.331 179.284 L 228.33 179.283 L 229.179 178.706 L 229.18 178.707 L 230.047 178.119 L 230.903 177.539 L 231.772 176.952 L 231.772 176.951 L 233.486 175.799 L 235.22 174.639 L 236.092 174.057 L 237.816 172.911 L 238.682 172.337 L 239.552 171.762 L 240.419 171.19 L 240.419 171.191 L 241.287 170.62 L 242.159 170.048 L 242.159 170.049 L 243.031 169.478 L 243.908 168.905 L 243.908 168.904 L 244.77 168.343 L 244.77 168.344 L 246.528 167.202 L 247.391 166.644 L 248.264 166.08 L 248.265 166.081 L 249.147 165.513 L 250.019 164.953 L 250.888 164.396 L 251.768 163.834 L 252.647 163.273 L 253.518 162.718 L 254.403 162.157 L 255.28 161.601 L 255.28 161.602 L 256.158 161.047 L 257.037 160.493 L 257.92 159.938 L 258.794 159.39 L 260.569 158.282 L 261.449 157.733 L 262.331 157.185 L 263.222 156.633 L 264.1 156.09 L 264.98 155.547 L 264.981 155.548 L 265.873 155 L 266.766 154.452 L 267.643 153.915 L 269.433 152.823 L 270.307 152.292 L 271.199 151.752 L 272.096 151.21 L 272.958 150.69 L 272.958 150.691 L 273.833 150.169 L 274.712 149.649 L 275.599 149.129 L 276.481 148.615 L 277.371 148.101 L 278.28 147.579 L 278.28 147.578 L 279.163 147.074 L 280.058 146.565 L 280.058 146.566 L 280.971 146.05 L 281.86 145.551 L 282.774 145.039 L 282.774 145.038 L 283.659 144.545 L 285.474 143.54 L 286.392 143.035 L 286.392 143.034 L 287.299 142.537 L 288.219 142.033 L 289.115 141.545 L 290.034 141.046 L 290.034 141.047 L 290.945 140.553 L 291.858 140.06 L 292.781 139.563 L 294.61 138.583 L 295.534 138.089 L 296.448 137.602 L 297.359 137.117 L 297.359 137.118 L 298.286 136.627 L 299.198 136.144 L 300.126 135.655 L 301.042 135.172 L 301.042 135.173 L 301.97 134.686 L 302.89 134.203 L 303.814 133.72 L 304.734 133.24 L 305.659 132.759 L 306.589 132.276 L 306.589 132.275 L 308.437 131.319 L 309.368 130.838 L 310.285 130.364 L 311.215 129.886 L 311.215 129.887 L 312.148 129.408 L 312.148 129.407 L 313.994 128.461 L 313.994 128.462 L 314.928 127.986 L 314.936 127.981 L 315.852 127.513 L 316.785 127.039 L 317.713 126.568 L 318.649 126.094 L 318.652 126.093 L 319.587 125.619 L 321.439 124.685 L 322.375 124.214 L 323.298 123.75 L 324.235 123.281 L 324.24 123.278 L 325.163 122.815 L 327.031 121.883 L 327.031 121.884 L 327.97 121.417 L 327.97 121.416 L 329.836 120.49 L 330.767 120.029 L 332.638 119.106 L 333.579 118.643 L 333.579 118.642 L 334.509 118.186 L 335.447 117.727 L 336.389 117.266 L 336.389 117.265 L 338.253 116.355 L 340.133 115.442 L 341.076 114.985 L 342.006 114.536 L 342.95 114.081 L 343.88 113.633 L 345.762 112.731 L 346.708 112.279 L 347.646 111.832 L 347.649 111.831 L 348.581 111.387 L 349.528 110.938 L 350.467 110.494 L 350.467 110.493 L 352.34 109.61 L 352.34 109.611 L 353.29 109.166 L 353.293 109.164 L 354.222 108.728 L 354.222 108.729 L 355.172 108.287 L 356.114 107.849 L 357.065 107.408 L 357.065 107.407 L 357.996 106.977 L 358.939 106.543 L 359.884 106.11 L 360.838 105.674 L 361.771 105.249 L 362.715 104.821 L 363.652 104.398 L 364.604 103.971 L 364.604 103.972 L 365.561 103.544 L 366.489 103.131 L 367.448 102.707 L 368.393 102.291 L 369.318 101.886 L 370.259 101.478 L 371.208 101.07 L 371.208 101.071 L 372.172 100.659 L 372.172 100.658 L 373.087 100.27 L 373.087 100.271 L 374.054 99.866 L 374.054 99.865 L 374.972 99.484 L 375.921 99.095 L 376.892 98.7 L 377.856 98.309 L 378.809 97.925 L 379.781 97.534 L 380.726 97.155 L 380.726 97.156 L 381.7 96.769 L 382.668 96.385 L 383.619 96.009 L 384.587 95.629 L 385.545 95.255 L 387.476 94.506 L 388.455 94.13 L 389.428 93.757 L 390.38 93.393 L 391.357 93.023 L 392.32 92.659 L 393.292 92.294 L 393.292 92.295 L 394.274 91.928 L 394.274 91.927 L 395.242 91.568 L 396.198 91.214 L 397.182 90.853 L 398.152 90.498 L 398.152 90.499 L 399.137 90.14 L 399.137 90.139 L 400.096 89.793 L 400.096 89.794 L 401.082 89.439 L 402.054 89.091 L 403.014 88.749 L 403.994 88.403 L 404.983 88.055 L 405.951 87.716 L 406.941 87.371 L 406.941 87.37 L 407.902 87.039 L 408.881 86.703 L 409.873 86.364 L 410.835 86.037 L 411.829 85.702 L 412.795 85.378 L 413.79 85.047 L 414.757 84.726 L 415.753 84.399 L 416.728 84.08 L 417.71 83.761 L 418.686 83.446 L 419.679 83.129 L 420.665 82.815 L 421.642 82.506 L 422.634 82.196 L 423.635 81.884 L 423.635 81.883 L 424.609 81.582 L 425.589 81.281 L 426.579 80.98 L 427.582 80.677 L 428.556 80.384 L 429.548 80.089 L 430.553 79.792 L 431.544 79.501 L 432.517 79.218 L 433.524 78.928 L 434.504 78.648 L 435.512 78.362 L 436.484 78.088 L 437.479 77.811 L 437.479 77.812 L 438.49 77.533 L 438.49 77.532 L 439.473 77.263 L 440.465 76.993 L 440.465 76.994 L 441.477 76.722 L 441.477 76.721 L 442.46 76.46 L 442.46 76.461 L 443.474 76.193 L 444.453 75.938 L 445.441 75.682 L 446.456 75.423 L 447.456 75.17 L 448.44 74.923 L 449.442 74.675 L 450.431 74.432 L 451.442 74.188 L 452.462 73.943 L 453.442 73.711 L 453.442 73.712 L 454.462 73.473 L 454.462 73.472 L 455.44 73.247 L 456.462 73.014 L 457.447 72.792 L 458.471 72.564 L 459.448 72.349 L 460.457 72.131 L 460.457 72.132 L 461.482 71.913 L 461.482 71.912 L 462.486 71.701 L 463.47 71.498 L 464.469 71.294 L 465.483 71.091 L 466.511 70.887 L 466.511 70.886 L 467.49 70.696 L 468.492 70.504 L 468.492 70.505 L 469.522 70.312 L 470.531 70.126 L 470.531 70.125 L 471.512 69.947 L 471.512 69.948 L 472.545 69.765 L 473.534 69.592 L 474.533 69.421 L 475.567 69.249 L 476.559 69.087 L 477.558 68.927 L 478.594 68.766 L 479.609 68.611 L 480.617 68.461 L 481.599 68.319 L 482.637 68.173 L 483.619 68.039 L 484.622 67.906 L 485.662 67.773 L 485.662 67.772 L 486.645 67.65 L 487.686 67.525 L 488.692 67.409 L 489.705 67.296 L 490.676 67.192 L 491.691 67.089 L 492.734 66.987 L 493.714 66.896 L 494.758 66.803 L 494.758 66.802 L 495.725 66.722 L 496.734 66.643 L 497.753 66.568 L 498.783 66.498 L 499.752 66.437 L 500.775 66.378 L 501.809 66.324 L 502.77 66.279 L 503.818 66.236 L 504.773 66.202 L 505.786 66.173 L 506.824 66.148 L 507.782 66.133 L 508.83 66.122 L 509.837 66.117 L 510.856 66.116 L 510.863 66.116 L 512.959 66.112 L 513.98 66.112 Z M 142.994 377.037 L 142.682 377.044 L 141.68 377.088 L 141.39 377.107 L 140.392 377.19 L 140.088 377.221 L 139.093 377.345 L 138.802 377.387 L 137.813 377.55 L 137.522 377.604 L 136.541 377.806 L 136.262 377.869 L 135.288 378.109 L 135.011 378.183 L 134.048 378.46 L 133.78 378.543 L 132.828 378.856 L 132.566 378.947 L 131.627 379.295 L 131.371 379.396 L 130.444 379.779 L 130.197 379.886 L 129.285 380.302 L 129.045 380.417 L 128.149 380.865 L 127.919 380.985 L 127.039 381.464 L 126.819 381.588 L 125.955 382.097 L 125.736 382.232 L 124.891 382.77 L 124.684 382.906 L 123.857 383.472 L 123.657 383.614 L 122.849 384.207 L 122.658 384.352 L 121.869 384.971 L 121.685 385.12 L 120.917 385.763 L 120.734 385.922 L 119.987 386.59 L 119.824 386.739 L 119.097 387.429 L 118.925 387.599 L 118.221 388.312 L 118.068 388.471 L 117.385 389.205 L 117.233 389.373 L 116.573 390.127 L 116.43 390.295 L 115.792 391.069 L 115.653 391.243 L 115.039 392.035 L 114.911 392.205 L 114.32 393.014 L 114.188 393.201 L 113.622 394.028 L 113.509 394.198 L 112.966 395.04 L 112.852 395.222 L 112.333 396.08 L 112.223 396.269 L 111.73 397.141 L 111.631 397.323 L 111.162 398.209 L 111.068 398.392 L 110.624 399.29 L 110.531 399.485 L 110.113 400.396 L 110.031 400.582 L 109.638 401.504 L 109.561 401.691 L 109.193 402.624 L 109.118 402.822 L 108.777 403.764 L 108.71 403.957 L 108.395 404.908 L 108.333 405.103 L 108.044 406.063 L 107.989 406.256 L 107.726 407.223 L 107.676 407.417 L 107.439 408.391 L 107.395 408.584 L 107.184 409.564 L 107.144 409.764 L 106.96 410.749 L 106.926 410.943 L 106.768 411.933 L 106.739 412.133 L 106.608 413.126 L 106.585 413.32 L 106.48 414.317 L 106.463 414.502 L 106.383 415.501 L 106.369 415.702 L 106.316 416.703 L 106.309 416.896 L 106.282 417.898 L 106.279 418.084 L 106.277 419.086 L 106.279 419.279 L 106.303 420.281 L 106.31 420.46 L 106.358 421.461 L 106.369 421.654 L 106.443 422.654 L 106.459 422.84 L 106.558 423.837 L 106.577 424.008 L 106.699 425.003 L 106.725 425.189 L 106.872 426.18 L 106.899 426.35 L 107.069 427.338 L 107.102 427.517 L 107.296 428.5 L 107.333 428.677 L 107.551 429.656 L 107.597 429.851 L 107.841 430.823 L 107.894 431.023 L 108.165 431.988 L 108.225 432.189 L 108.523 433.146 L 108.589 433.347 L 108.914 434.295 L 108.989 434.505 L 109.342 435.442 L 109.423 435.648 L 109.804 436.575 L 109.896 436.789 L 110.306 437.704 L 110.405 437.915 L 110.843 438.816 L 110.946 439.021 L 111.412 439.909 L 111.532 440.128 L 112.027 440.999 L 112.143 441.197 L 112.665 442.053 L 112.798 442.262 L 113.348 443.1 L 113.486 443.303 L 114.063 444.122 L 114.207 444.32 L 114.811 445.12 L 114.958 445.308 L 115.587 446.088 L 115.746 446.278 L 116.401 447.037 L 116.562 447.218 L 117.241 447.955 L 117.404 448.126 L 118.106 448.841 L 118.278 449.011 L 119.003 449.703 L 119.169 449.857 L 119.915 450.527 L 120.094 450.683 L 120.86 451.328 L 121.036 451.471 L 121.822 452.093 L 121.994 452.225 L 122.798 452.824 L 122.975 452.952 L 123.796 453.527 L 123.974 453.648 L 124.811 454.199 L 124.988 454.312 L 125.84 454.839 L 126.015 454.944 L 126.882 455.448 L 127.044 455.539 L 127.923 456.021 L 128.093 456.112 L 128.984 456.571 L 129.139 456.648 L 130.04 457.086 L 130.205 457.164 L 131.117 457.58 L 131.316 457.667 L 132.239 458.056 L 132.464 458.147 L 133.4 458.506 L 133.668 458.603 L 134.617 458.926 L 134.906 459.018 L 135.867 459.302 L 136.194 459.39 L 137.167 459.63 L 137.539 459.712 L 138.523 459.902 L 138.91 459.966 L 139.903 460.104 L 140.311 460.149 L 141.309 460.232 L 141.74 460.256 L 142.742 460.281 L 143.151 460.28 L 144.153 460.25 L 144.562 460.226 L 145.56 460.141 L 145.946 460.098 L 146.939 459.961 L 147.289 459.904 L 148.274 459.72 L 148.594 459.653 L 149.57 459.426 L 149.851 459.355 L 150.818 459.09 L 151.073 459.015 L 152.029 458.716 L 152.25 458.643 L 153.197 458.314 L 153.391 458.244 L 154.328 457.889 L 154.49 457.825 L 155.419 457.448 L 155.567 457.386 L 156.488 456.989 L 156.61 456.936 L 157.523 456.523 L 157.634 456.471 L 158.54 456.043 L 158.755 455.937 L 159.647 455.48 L 159.945 455.319 L 160.815 454.822 L 161.104 454.648 L 161.951 454.112 L 162.214 453.938 L 163.037 453.367 L 163.279 453.192 L 164.079 452.588 L 164.3 452.414 L 165.077 451.78 L 165.285 451.604 L 166.037 450.943 L 166.229 450.769 L 166.959 450.081 L 167.139 449.905 L 167.844 449.194 L 168.008 449.023 L 168.691 448.289 L 168.846 448.117 L 169.506 447.362 L 169.653 447.189 L 170.289 446.415 L 170.421 446.25 L 171.035 445.458 L 171.159 445.293 L 171.751 444.484 L 171.872 444.314 L 172.441 443.489 L 172.545 443.333 L 173.093 442.494 L 173.203 442.322 L 173.728 441.468 L 173.825 441.305 L 174.328 440.438 L 174.423 440.27 L 174.903 439.391 L 174.988 439.229 L 175.447 438.337 L 175.531 438.17 L 175.967 437.268 L 176.044 437.103 L 176.458 436.19 L 176.533 436.019 L 176.924 435.096 L 176.993 434.926 L 177.361 433.994 L 177.427 433.822 L 177.772 432.881 L 177.834 432.704 L 178.155 431.755 L 178.211 431.583 L 178.509 430.626 L 178.567 430.432 L 178.839 429.467 L 178.886 429.29 L 179.134 428.319 L 179.181 428.126 L 179.403 427.149 L 179.444 426.955 L 179.64 425.972 L 179.677 425.771 L 179.846 424.783 L 179.879 424.575 L 180.02 423.583 L 180.047 423.368 L 180.159 422.372 L 180.18 422.156 L 180.263 421.157 L 180.279 420.926 L 180.331 419.925 L 180.34 419.688 L 180.36 418.686 L 180.36 418.44 L 180.347 417.438 L 180.34 417.186 L 180.293 416.185 L 180.275 415.917 L 180.192 414.918 L 180.165 414.65 L 180.046 413.655 L 180.009 413.388 L 179.854 412.398 L 179.815 412.168 L 179.629 411.183 L 179.583 410.96 L 179.367 409.981 L 179.32 409.779 L 179.077 408.807 L 179.028 408.622 L 178.76 407.656 L 178.71 407.485 L 178.419 406.526 L 178.367 406.362 L 178.054 405.41 L 177.999 405.248 L 177.664 404.303 L 177.609 404.153 L 177.254 403.216 L 177.195 403.066 L 176.82 402.137 L 176.763 401.998 L 176.369 401.076 L 176.306 400.933 L 175.893 400.02 L 175.831 399.888 L 175.4 398.983 L 175.335 398.848 L 174.886 397.952 L 174.812 397.81 L 174.344 396.924 L 174.273 396.793 L 173.787 395.916 L 173.707 395.774 L 173.202 394.908 L 173.116 394.765 L 172.592 393.911 L 172.503 393.769 L 171.96 392.927 L 171.859 392.774 L 171.295 391.945 L 171.185 391.788 L 170.6 390.974 L 170.477 390.808 L 169.87 390.011 L 169.726 389.828 L 169.094 389.05 L 168.944 388.872 L 168.288 388.114 L 168.098 387.903 L 167.414 387.171 L 167.202 386.952 L 166.488 386.248 L 166.231 386.007 L 165.485 385.338 L 165.179 385.078 L 164.398 384.45 L 164.185 384.284 L 163.382 383.685 L 163.179 383.539 L 162.356 382.967 L 162.161 382.836 L 161.32 382.29 L 161.108 382.158 L 160.25 381.641 L 160.016 381.506 L 159.139 381.02 L 158.91 380.898 L 158.017 380.443 L 157.775 380.325 L 156.867 379.903 L 156.611 379.79 L 155.687 379.402 L 155.425 379.297 L 154.486 378.944 L 154.213 378.848 L 153.262 378.532 L 152.988 378.447 L 152.026 378.168 L 151.726 378.088 L 150.752 377.849 L 150.472 377.786 L 149.491 377.585 L 149.185 377.528 L 148.195 377.368 L 147.905 377.327 L 146.91 377.206 L 146.598 377.175 L 145.599 377.096 L 145.295 377.078 L 144.294 377.04 L 143.996 377.035 Z M 167.389 299.281 L 166.39 299.309 L 166.159 299.319 L 165.161 299.378 L 164.93 299.395 L 163.935 299.485 L 163.704 299.51 L 162.712 299.631 L 162.488 299.662 L 161.5 299.813 L 161.27 299.851 L 160.287 300.033 L 160.07 300.077 L 159.093 300.288 L 158.878 300.338 L 157.907 300.578 L 157.689 300.635 L 156.727 300.904 L 156.514 300.967 L 155.559 301.265 L 155.355 301.332 L 154.41 301.657 L 154.208 301.73 L 153.273 302.082 L 153.073 302.16 L 152.148 302.539 L 151.955 302.622 L 151.041 303.027 L 150.853 303.113 L 149.951 303.543 L 149.766 303.635 L 148.876 304.09 L 148.699 304.183 L 147.821 304.662 L 147.641 304.764 L 146.777 305.267 L 146.61 305.367 L 145.76 305.892 L 145.591 305.999 L 144.755 306.547 L 144.59 306.658 L 143.769 307.228 L 143.613 307.34 L 142.807 307.931 L 142.653 308.047 L 141.862 308.659 L 141.717 308.774 L 140.942 309.405 L 140.788 309.534 L 140.03 310.186 L 139.891 310.308 L 139.15 310.978 L 139.015 311.104 L 138.29 311.793 L 138.15 311.929 L 137.444 312.636 L 137.319 312.764 L 136.63 313.488 L 136.498 313.631 L 135.828 314.373 L 135.709 314.508 L 135.057 315.266 L 134.934 315.412 L 134.302 316.186 L 134.184 316.336 L 133.572 317.126 L 133.459 317.274 L 132.867 318.079 L 132.759 318.231 L 132.187 319.051 L 132.079 319.21 L 131.528 320.045 L 131.422 320.21 L 130.894 321.058 L 130.798 321.216 L 130.291 322.077 L 130.192 322.251 L 129.708 323.126 L 129.617 323.296 L 129.156 324.183 L 129.066 324.362 L 128.629 325.261 L 128.545 325.439 L 128.132 326.349 L 128.049 326.538 L 127.661 327.46 L 127.582 327.657 L 127.221 328.588 L 127.15 328.778 L 126.814 329.72 L 126.746 329.921 L 126.437 330.872 L 126.373 331.079 L 126.092 332.038 L 126.032 332.254 L 125.78 333.221 L 125.729 333.43 L 125.505 334.404 L 125.455 334.636 L 125.262 335.617 L 125.223 335.833 L 125.059 336.819 L 125.023 337.057 L 124.891 338.048 L 124.863 338.286 L 124.763 339.28 L 124.743 339.52 L 124.675 340.518 L 124.663 340.763 L 124.628 341.762 L 124.623 342.016 L 124.622 343.015 L 124.626 343.268 L 124.659 344.267 L 124.672 344.521 L 124.739 345.518 L 124.762 345.785 L 124.865 346.78 L 124.895 347.034 L 125.032 348.024 L 125.075 348.293 L 125.248 349.277 L 125.296 349.53 L 125.503 350.508 L 125.565 350.775 L 125.808 351.745 L 125.881 352.014 L 126.16 352.974 L 126.239 353.229 L 126.552 354.178 L 126.643 354.438 L 126.991 355.375 L 127.132 355.726 L 127.527 356.644 L 127.689 356.995 L 128.131 357.891 L 128.277 358.172 L 128.757 359.049 L 128.906 359.309 L 129.421 360.166 L 129.562 360.391 L 130.107 361.229 L 130.238 361.424 L 130.809 362.244 L 130.941 362.427 L 131.537 363.23 L 131.665 363.398 L 132.283 364.183 L 132.407 364.336 L 133.046 365.105 L 133.18 365.262 L 133.84 366.013 L 133.963 366.15 L 134.641 366.884 L 134.779 367.029 L 135.477 367.745 L 135.615 367.883 L 136.331 368.58 L 136.473 368.715 L 137.207 369.393 L 137.368 369.537 L 138.122 370.194 L 138.291 370.337 L 139.064 370.971 L 139.256 371.123 L 140.049 371.731 L 140.259 371.886 L 141.073 372.466 L 141.312 372.63 L 142.148 373.178 L 142.446 373.363 L 143.307 373.871 L 143.663 374.069 L 144.55 374.529 L 145.005 374.745 L 145.921 375.144 L 146.511 375.372 L 147.458 375.692 L 148.12 375.882 L 149.092 376.113 L 149.108 376.117 L 150.081 376.346 L 150.865 376.541 L 151.798 376.786 L 152.49 376.983 L 153.311 377.253 L 154.382 377.519 L 155.366 377.687 L 156.24 377.783 L 157.238 377.834 L 157.73 377.843 L 158.729 377.828 L 159.072 377.815 L 160.07 377.754 L 160.316 377.735 L 161.311 377.641 L 161.519 377.618 L 162.511 377.496 L 162.675 377.474 L 163.664 377.33 L 163.821 377.306 L 164.807 377.141 L 164.941 377.117 L 165.924 376.934 L 166.051 376.909 L 167.03 376.709 L 167.149 376.684 L 168.125 376.468 L 168.252 376.439 L 169.224 376.206 L 169.334 376.178 L 170.303 375.93 L 170.431 375.897 L 171.395 375.632 L 171.515 375.597 L 172.474 375.316 L 172.616 375.273 L 173.569 374.973 L 173.708 374.928 L 174.656 374.609 L 174.823 374.551 L 175.762 374.21 L 175.947 374.139 L 176.877 373.773 L 177.091 373.686 L 178.01 373.291 L 178.283 373.167 L 179.184 372.736 L 179.419 372.618 L 180.305 372.155 L 180.47 372.066 L 181.344 371.581 L 181.515 371.483 L 182.376 370.975 L 182.547 370.871 L 183.394 370.34 L 183.552 370.238 L 184.385 369.686 L 184.554 369.571 L 185.372 368.996 L 185.532 368.881 L 186.334 368.285 L 186.495 368.162 L 187.281 367.544 L 187.437 367.417 L 188.206 366.778 L 188.367 366.641 L 189.117 365.981 L 189.27 365.843 L 190.002 365.162 L 190.15 365.019 L 190.863 364.318 L 191.008 364.172 L 191.701 363.452 L 191.848 363.294 L 192.52 362.554 L 192.66 362.396 L 193.311 361.637 L 193.444 361.478 L 194.073 360.702 L 194.21 360.527 L 194.816 359.732 L 194.937 359.569 L 195.521 358.758 L 195.646 358.579 L 196.206 357.751 L 196.324 357.571 L 196.86 356.727 L 196.974 356.542 L 197.485 355.683 L 197.588 355.503 L 198.075 354.63 L 198.179 354.437 L 198.64 353.55 L 198.738 353.356 L 199.173 352.456 L 199.26 352.269 L 199.67 351.357 L 199.756 351.157 L 200.139 350.234 L 200.219 350.032 L 200.575 349.098 L 200.646 348.906 L 200.976 347.963 L 201.044 347.759 L 201.347 346.806 L 201.408 346.606 L 201.684 345.645 L 201.74 345.437 L 201.988 344.469 L 202.035 344.276 L 202.257 343.302 L 202.3 343.098 L 202.495 342.117 L 202.533 341.91 L 202.7 340.925 L 202.731 340.73 L 202.872 339.74 L 202.897 339.54 L 203.011 338.547 L 203.032 338.345 L 203.119 337.349 L 203.133 337.163 L 203.195 336.166 L 203.204 335.972 L 203.24 334.973 L 203.245 334.765 L 203.253 333.765 L 203.252 333.556 L 203.232 332.557 L 203.224 332.348 L 203.176 331.349 L 203.162 331.125 L 203.084 330.129 L 203.063 329.899 L 202.954 328.905 L 202.924 328.673 L 202.784 327.684 L 202.747 327.446 L 202.575 326.461 L 202.528 326.215 L 202.323 325.237 L 202.267 324.991 L 202.029 324.02 L 201.96 323.76 L 201.687 322.798 L 201.612 322.55 L 201.306 321.599 L 201.214 321.331 L 200.872 320.392 L 200.772 320.133 L 200.395 319.207 L 200.283 318.946 L 199.871 318.035 L 199.742 317.764 L 199.294 316.871 L 199.157 316.612 L 198.674 315.737 L 198.524 315.477 L 198.006 314.622 L 197.841 314.362 L 197.288 313.529 L 197.114 313.279 L 196.528 312.47 L 196.339 312.219 L 195.719 311.435 L 195.519 311.194 L 194.866 310.436 L 194.659 310.204 L 193.976 309.475 L 193.755 309.249 L 193.041 308.549 L 192.814 308.336 L 192.072 307.667 L 191.836 307.463 L 191.066 306.825 L 190.829 306.637 L 190.034 306.031 L 189.784 305.848 L 188.965 305.276 L 188.707 305.104 L 187.864 304.566 L 187.622 304.418 L 186.76 303.913 L 186.498 303.766 L 185.616 303.296 L 185.36 303.166 L 184.46 302.73 L 184.209 302.614 L 183.294 302.212 L 183.032 302.103 L 182.102 301.736 L 181.857 301.644 L 180.915 301.31 L 180.662 301.226 L 179.709 300.926 L 179.461 300.852 L 178.497 300.585 L 178.26 300.524 L 177.289 300.289 L 177.057 300.237 L 176.078 300.033 L 175.841 299.987 L 174.857 299.815 L 174.632 299.779 L 173.642 299.637 L 173.426 299.61 L 172.433 299.497 L 172.217 299.475 L 171.221 299.391 L 171.012 299.377 L 170.014 299.321 L 169.813 299.312 L 168.814 299.283 L 168.613 299.28 L 167.613 299.278 Z M 238.521 253.108 L 238.35 253.112 L 237.35 253.143 L 237.179 253.15 L 236.18 253.204 L 236.001 253.216 L 235.004 253.294 L 234.833 253.309 L 233.837 253.41 L 233.673 253.429 L 232.68 253.552 L 232.502 253.576 L 231.512 253.723 L 231.347 253.749 L 230.361 253.918 L 230.182 253.951 L 229.201 254.144 L 229.031 254.18 L 228.054 254.396 L 227.876 254.437 L 226.904 254.677 L 226.724 254.724 L 225.759 254.988 L 225.573 255.041 L 224.615 255.33 L 224.436 255.387 L 223.486 255.7 L 223.294 255.766 L 222.352 256.105 L 222.162 256.176 L 221.231 256.54 L 221.033 256.621 L 220.112 257.012 L 219.883 257.114 L 218.975 257.536 L 218.727 257.657 L 217.836 258.112 L 217.612 258.231 L 216.737 258.716 L 216.529 258.836 L 215.67 259.349 L 215.491 259.459 L 214.647 259.996 L 214.476 260.109 L 213.647 260.669 L 213.492 260.776 L 212.677 261.357 L 212.527 261.467 L 211.727 262.068 L 211.584 262.178 L 210.799 262.798 L 210.667 262.904 L 209.896 263.542 L 209.771 263.648 L 209.014 264.303 L 208.888 264.415 L 208.147 265.086 L 208.027 265.197 L 207.3 265.885 L 207.187 265.995 L 206.475 266.698 L 206.363 266.81 L 205.666 267.528 L 205.547 267.654 L 204.867 268.388 L 204.754 268.513 L 204.091 269.262 L 203.98 269.39 L 203.334 270.154 L 203.216 270.296 L 202.589 271.076 L 202.475 271.223 L 201.868 272.018 L 201.75 272.176 L 201.164 272.987 L 201.039 273.166 L 200.477 273.994 L 200.355 274.179 L 199.818 275.023 L 199.686 275.239 L 199.178 276.101 L 199.042 276.343 L 198.566 277.224 L 198.426 277.496 L 197.987 278.395 L 197.84 278.713 L 197.444 279.631 L 197.297 280 L 196.95 280.939 L 196.815 281.338 L 196.522 282.294 L 196.425 282.639 L 196.178 283.609 L 196.105 283.927 L 195.901 284.906 L 195.844 285.212 L 195.681 286.199 L 195.64 286.475 L 195.514 287.468 L 195.485 287.736 L 195.395 288.732 L 195.377 288.985 L 195.321 289.984 L 195.311 290.23 L 195.288 291.231 L 195.286 291.462 L 195.294 292.462 L 195.3 292.692 L 195.339 293.692 L 195.351 293.923 L 195.421 294.921 L 195.439 295.13 L 195.537 296.126 L 195.562 296.349 L 195.69 297.341 L 195.721 297.557 L 195.878 298.545 L 195.916 298.761 L 196.102 299.744 L 196.148 299.967 L 196.364 300.944 L 196.417 301.167 L 196.663 302.137 L 196.725 302.367 L 197.002 303.329 L 197.073 303.563 L 197.381 304.514 L 197.465 304.757 L 197.806 305.698 L 197.906 305.96 L 198.282 306.887 L 198.394 307.148 L 198.805 308.06 L 198.942 308.349 L 199.392 309.243 L 199.55 309.539 L 200.04 310.412 L 200.228 310.729 L 200.76 311.576 L 200.974 311.897 L 201.549 312.715 L 201.743 312.978 L 202.354 313.771 L 202.556 314.022 L 203.2 314.787 L 203.405 315.021 L 204.081 315.759 L 204.281 315.969 L 204.985 316.68 L 205.208 316.896 L 205.941 317.577 L 206.142 317.756 L 206.899 318.41 L 207.122 318.596 L 207.904 319.22 L 208.114 319.382 L 208.918 319.978 L 209.132 320.13 L 209.956 320.697 L 210.174 320.842 L 211.018 321.38 L 211.226 321.508 L 212.087 322.018 L 212.301 322.14 L 213.178 322.621 L 213.388 322.732 L 214.28 323.185 L 214.483 323.284 L 215.389 323.71 L 215.602 323.806 L 216.52 324.203 L 216.72 324.286 L 217.649 324.656 L 217.852 324.734 L 218.792 325.077 L 219.001 325.149 L 219.951 325.464 L 220.144 325.526 L 221.102 325.815 L 221.304 325.872 L 222.27 326.134 L 222.469 326.185 L 223.441 326.42 L 223.637 326.465 L 224.616 326.674 L 224.816 326.714 L 225.8 326.896 L 225.993 326.929 L 226.981 327.085 L 227.175 327.113 L 228.167 327.243 L 228.361 327.266 L 229.356 327.37 L 229.557 327.388 L 230.555 327.465 L 230.748 327.477 L 231.747 327.528 L 231.941 327.536 L 232.941 327.561 L 233.134 327.563 L 234.135 327.562 L 234.337 327.559 L 235.337 327.531 L 235.53 327.523 L 236.529 327.469 L 236.73 327.456 L 237.727 327.375 L 237.921 327.356 L 238.916 327.249 L 239.116 327.225 L 240.108 327.091 L 240.318 327.06 L 241.305 326.898 L 241.497 326.863 L 242.48 326.675 L 242.689 326.632 L 243.666 326.416 L 243.861 326.37 L 244.831 326.128 L 245.044 326.072 L 246.008 325.801 L 246.211 325.741 L 247.166 325.443 L 247.374 325.375 L 248.32 325.049 L 248.528 324.973 L 249.464 324.619 L 249.666 324.54 L 250.591 324.159 L 250.8 324.069 L 251.713 323.66 L 251.876 323.584 L 252.779 323.153 L 252.884 323.102 L 253.78 322.657 L 253.89 322.602 L 254.779 322.142 L 254.899 322.078 L 255.779 321.602 L 255.905 321.532 L 256.776 321.039 L 256.897 320.969 L 257.758 320.46 L 257.893 320.379 L 258.743 319.852 L 258.881 319.764 L 259.72 319.218 L 259.871 319.117 L 260.696 318.551 L 260.836 318.453 L 261.648 317.868 L 261.801 317.754 L 262.597 317.149 L 262.757 317.025 L 263.537 316.398 L 263.695 316.266 L 264.457 315.618 L 264.624 315.472 L 265.367 314.801 L 265.537 314.643 L 266.258 313.95 L 266.426 313.783 L 267.125 313.067 L 267.295 312.887 L 267.97 312.148 L 268.144 311.95 L 268.792 311.188 L 268.96 310.984 L 269.581 310.199 L 269.749 309.979 L 270.34 309.172 L 270.499 308.945 L 271.06 308.116 L 271.213 307.881 L 271.742 307.032 L 271.894 306.776 L 272.389 305.906 L 272.529 305.649 L 272.989 304.761 L 273.119 304.498 L 273.544 303.592 L 273.662 303.327 L 274.051 302.406 L 274.16 302.133 L 274.513 301.196 L 274.609 300.924 L 274.925 299.975 L 275.007 299.714 L 275.288 298.754 L 275.361 298.485 L 275.606 297.515 L 275.669 297.246 L 275.878 296.267 L 275.926 296.022 L 276.102 295.037 L 276.143 294.785 L 276.285 293.795 L 276.315 293.556 L 276.425 292.561 L 276.447 292.33 L 276.526 291.333 L 276.54 291.11 L 276.589 290.111 L 276.596 289.902 L 276.617 288.901 L 276.619 288.7 L 276.613 287.7 L 276.609 287.514 L 276.578 286.514 L 276.57 286.328 L 276.514 285.329 L 276.507 285.217 L 276.436 284.219 L 276.429 284.13 L 276.346 283.133 L 276.334 282.999 L 276.233 282.003 L 276.214 281.839 L 276.091 280.846 L 276.058 280.607 L 275.903 279.619 L 275.852 279.33 L 275.658 278.348 L 275.572 277.968 L 275.327 276.998 L 275.202 276.558 L 274.898 275.605 L 274.719 275.106 L 274.348 274.177 L 274.131 273.686 L 273.694 272.786 L 273.462 272.347 L 272.966 271.478 L 272.741 271.109 L 272.196 270.271 L 272.011 270 L 271.429 269.186 L 271.28 268.985 L 270.671 268.191 L 270.537 268.02 L 269.905 267.244 L 269.685 266.987 L 269.019 266.241 L 268.837 266.044 L 268.144 265.322 L 267.996 265.172 L 267.283 264.47 L 267.146 264.339 L 266.415 263.655 L 266.294 263.545 L 265.549 262.878 L 265.431 262.774 L 264.671 262.122 L 264.553 262.022 L 263.781 261.387 L 263.657 261.288 L 262.871 260.669 L 262.742 260.569 L 261.942 259.967 L 261.803 259.866 L 260.99 259.283 L 260.811 259.158 L 259.981 258.599 L 259.773 258.464 L 258.925 257.933 L 258.635 257.76 L 257.764 257.268 L 257.45 257.1 L 256.556 256.65 L 256.246 256.503 L 255.333 256.095 L 255.047 255.975 L 254.117 255.605 L 253.837 255.5 L 252.894 255.168 L 252.637 255.083 L 251.681 254.785 L 251.43 254.711 L 250.465 254.447 L 250.227 254.386 L 249.254 254.154 L 249.03 254.104 L 248.05 253.902 L 247.828 253.86 L 246.843 253.688 L 246.64 253.655 L 245.649 253.51 L 245.449 253.484 L 244.456 253.366 L 244.254 253.345 L 243.257 253.254 L 243.072 253.239 L 242.074 253.173 L 241.887 253.163 L 240.887 253.122 L 240.701 253.117 L 239.701 253.101 L 239.522 253.1 Z M 449.192 112.942 L 448.191 112.961 L 447.915 112.972 L 446.915 113.028 L 446.654 113.047 L 445.658 113.138 L 445.406 113.165 L 444.412 113.29 L 444.166 113.325 L 443.178 113.483 L 442.94 113.525 L 441.957 113.715 L 441.726 113.764 L 440.75 113.985 L 440.527 114.039 L 439.558 114.29 L 439.328 114.353 L 438.367 114.635 L 438.165 114.698 L 437.213 115.007 L 436.99 115.083 L 436.048 115.422 L 435.848 115.498 L 434.916 115.864 L 434.706 115.95 L 433.786 116.344 L 433.585 116.433 L 432.677 116.854 L 432.485 116.947 L 431.589 117.394 L 431.379 117.502 L 430.498 117.977 L 430.315 118.079 L 429.447 118.579 L 429.249 118.698 L 428.398 119.224 L 428.201 119.35 L 427.366 119.903 L 427.177 120.032 L 426.36 120.61 L 426.167 120.752 L 425.369 121.356 L 425.177 121.506 L 424.399 122.136 L 424.212 122.292 L 423.455 122.947 L 423.271 123.112 L 422.536 123.792 L 422.342 123.978 L 421.632 124.684 L 421.449 124.873 L 420.765 125.603 L 420.578 125.81 L 419.921 126.566 L 419.744 126.777 L 419.116 127.556 L 418.931 127.795 L 418.335 128.599 L 418.165 128.838 L 417.601 129.665 L 417.431 129.927 L 416.902 130.777 L 416.739 131.052 L 416.247 131.924 L 416.092 132.212 L 415.639 133.104 L 415.491 133.413 L 415.079 134.326 L 414.948 134.636 L 414.578 135.566 L 414.488 135.809 L 414.425 135.31 L 414.349 134.832 L 414.161 133.853 L 414.051 133.369 L 413.798 132.404 L 413.651 131.91 L 413.332 130.965 L 413.151 130.485 L 412.768 129.565 L 412.55 129.09 L 412.103 128.198 L 411.854 127.74 L 411.346 126.882 L 411.063 126.441 L 410.496 125.621 L 410.196 125.218 L 409.575 124.438 L 409.252 124.058 L 408.58 123.321 L 408.241 122.973 L 407.522 122.281 L 407.177 121.969 L 406.417 121.324 L 406.077 121.052 L 405.28 120.452 L 404.933 120.206 L 404.104 119.653 L 403.762 119.438 L 402.903 118.93 L 402.585 118.753 L 401.703 118.288 L 401.426 118.149 L 400.525 117.721 L 400.219 117.584 L 399.3 117.197 L 398.957 117.062 L 398.02 116.721 L 397.646 116.596 L 396.692 116.305 L 396.297 116.196 L 395.329 115.958 L 394.918 115.87 L 393.938 115.687 L 393.503 115.619 L 392.513 115.494 L 392.103 115.453 L 391.109 115.383 L 390.713 115.366 L 389.715 115.349 L 389.326 115.353 L 388.33 115.388 L 387.979 115.408 L 386.985 115.49 L 386.672 115.523 L 385.682 115.647 L 385.39 115.689 L 384.406 115.852 L 384.151 115.899 L 383.174 116.096 L 382.944 116.146 L 381.973 116.374 L 381.78 116.422 L 380.815 116.676 L 380.635 116.726 L 379.677 117.004 L 379.519 117.052 L 378.568 117.351 L 378.435 117.394 L 377.489 117.711 L 377.362 117.755 L 376.422 118.089 L 376.315 118.128 L 375.381 118.476 L 375.174 118.556 L 374.25 118.932 L 374.032 119.025 L 373.121 119.43 L 372.899 119.533 L 372.001 119.968 L 371.795 120.072 L 370.912 120.534 L 370.707 120.646 L 369.838 121.136 L 369.644 121.249 L 368.79 121.765 L 368.594 121.888 L 367.757 122.43 L 367.577 122.549 L 366.756 123.115 L 366.573 123.246 L 365.769 123.837 L 365.591 123.972 L 364.806 124.586 L 364.632 124.726 L 363.865 125.364 L 363.7 125.506 L 362.952 126.166 L 362.788 126.315 L 362.06 126.997 L 361.893 127.159 L 361.187 127.863 L 361.032 128.022 L 360.347 128.747 L 360.19 128.918 L 359.528 129.664 L 359.376 129.841 L 358.738 130.607 L 358.585 130.797 L 357.972 131.584 L 357.817 131.789 L 357.232 132.596 L 357.088 132.802 L 356.53 133.629 L 356.384 133.855 L 355.856 134.702 L 355.715 134.937 L 355.219 135.802 L 355.076 136.063 L 354.615 136.947 L 354.482 137.217 L 354.057 138.119 L 353.924 138.418 L 353.539 139.338 L 353.413 139.66 L 353.071 140.597 L 352.954 140.941 L 352.658 141.894 L 352.552 142.272 L 352.307 143.238 L 352.214 143.651 L 352.024 144.63 L 351.953 145.071 L 351.822 146.06 L 351.774 146.537 L 351.707 147.532 L 351.69 148.055 L 351.693 149.052 L 351.715 149.605 L 351.792 150.599 L 351.861 151.182 L 352.016 152.167 L 352.138 152.779 L 352.375 153.748 L 352.532 154.296 L 352.842 155.243 L 353.019 155.727 L 353.394 156.651 L 353.575 157.061 L 354.005 157.961 L 354.194 158.33 L 354.673 159.204 L 354.87 159.541 L 355.395 160.39 L 355.597 160.701 L 356.163 161.522 L 356.377 161.815 L 356.982 162.607 L 357.212 162.894 L 357.856 163.656 L 358.105 163.936 L 358.786 164.664 L 359.065 164.946 L 359.784 165.637 L 360.093 165.918 L 360.85 166.568 L 361.222 166.868 L 362.019 167.468 L 362.456 167.773 L 363.293 168.314 L 363.824 168.627 L 364.703 169.097 L 365.384 169.418 L 366.306 169.797 L 367.03 170.052 L 367.986 170.334 L 368.504 170.466 L 369.479 170.679 L 369.851 170.751 L 370.835 170.914 L 371.148 170.959 L 372.137 171.08 L 372.385 171.106 L 373.379 171.194 L 373.595 171.21 L 373.884 171.227 L 373.337 171.238 L 373.137 171.245 L 372.135 171.292 L 371.911 171.306 L 370.912 171.383 L 370.697 171.403 L 369.7 171.509 L 369.463 171.538 L 368.47 171.676 L 368.232 171.713 L 367.244 171.883 L 366.999 171.929 L 366.017 172.132 L 365.778 172.186 L 364.804 172.421 L 364.552 172.486 L 363.586 172.755 L 363.332 172.831 L 362.377 173.134 L 362.125 173.219 L 361.181 173.556 L 360.937 173.648 L 360.005 174.018 L 359.759 174.12 L 358.841 174.523 L 358.597 174.636 L 357.694 175.072 L 357.459 175.19 L 356.573 175.657 L 356.34 175.786 L 355.47 176.285 L 355.253 176.414 L 354.401 176.942 L 354.179 177.085 L 353.346 177.643 L 353.149 177.78 L 352.335 178.364 L 352.134 178.514 L 351.339 179.126 L 351.161 179.266 L 350.386 179.901 L 350.205 180.055 L 349.45 180.715 L 349.29 180.859 L 348.555 181.54 L 348.417 181.671 L 347.699 182.371 L 347.599 182.471 L 346.895 183.184 L 346.774 183.308 L 346.086 184.038 L 345.962 184.174 L 345.293 184.92 L 345.154 185.079 L 344.506 185.844 L 344.349 186.036 L 343.727 186.822 L 343.569 187.029 L 342.975 187.836 L 342.804 188.078 L 342.242 188.909 L 342.066 189.181 L 341.541 190.035 L 341.361 190.346 L 340.878 191.224 L 340.7 191.567 L 340.263 192.469 L 340.099 192.833 L 339.711 193.757 L 339.561 194.145 L 339.225 195.09 L 339.095 195.49 L 338.813 196.452 L 338.706 196.86 L 338.479 197.836 L 338.397 198.238 L 338.224 199.225 L 338.168 199.597 L 338.045 200.592 L 338.009 200.956 L 337.935 201.956 L 337.918 202.283 L 337.888 203.285 L 337.886 203.62 L 337.901 204.622 L 337.921 205.075 L 337.997 206.074 L 338.048 206.542 L 338.187 207.535 L 338.27 208.012 L 338.473 208.993 L 338.593 209.488 L 338.863 210.454 L 339.019 210.947 L 339.355 211.891 L 339.547 212.375 L 339.948 213.293 L 340.175 213.767 L 340.64 214.655 L 340.905 215.12 L 341.433 215.973 L 341.721 216.403 L 342.306 217.216 L 342.624 217.628 L 343.265 218.399 L 343.598 218.772 L 344.289 219.498 L 344.637 219.841 L 345.374 220.52 L 345.733 220.83 L 346.512 221.461 L 346.875 221.737 L 347.691 222.319 L 348.061 222.567 L 348.91 223.099 L 349.278 223.315 L 350.157 223.798 L 350.524 223.987 L 351.427 224.42 L 351.782 224.578 L 352.708 224.964 L 353.069 225.104 L 354.013 225.441 L 354.355 225.554 L 355.314 225.845 L 355.656 225.94 L 356.628 226.185 L 356.962 226.261 L 357.944 226.461 L 358.271 226.52 L 359.261 226.676 L 359.574 226.719 L 360.57 226.833 L 360.889 226.862 L 361.889 226.933 L 362.187 226.948 L 363.189 226.979 L 363.486 226.983 L 364.488 226.974 L 364.785 226.965 L 365.787 226.916 L 366.063 226.897 L 367.061 226.811 L 367.335 226.783 L 368.33 226.66 L 368.597 226.622 L 369.587 226.463 L 369.856 226.415 L 370.839 226.22 L 371.091 226.165 L 372.067 225.936 L 372.318 225.872 L 373.286 225.609 L 373.526 225.54 L 374.484 225.245 L 374.723 225.167 L 375.67 224.84 L 375.89 224.76 L 376.827 224.403 L 377.059 224.31 L 377.983 223.922 L 378.197 223.828 L 379.109 223.411 L 379.325 223.308 L 380.223 222.862 L 380.403 222.77 L 381.288 222.3 L 381.463 222.204 L 382.336 221.71 L 382.498 221.616 L 383.357 221.101 L 383.532 220.992 L 384.377 220.453 L 384.545 220.343 L 385.376 219.781 L 385.55 219.66 L 386.364 219.075 L 386.53 218.952 L 387.327 218.345 L 387.499 218.21 L 388.279 217.579 L 388.448 217.438 L 389.208 216.785 L 389.382 216.631 L 390.122 215.954 L 390.29 215.795 L 391.008 215.096 L 391.171 214.932 L 391.867 214.211 L 392.043 214.023 L 392.714 213.278 L 392.876 213.091 L 393.522 212.324 L 393.683 212.127 L 394.302 211.339 L 394.471 211.115 L 395.06 210.304 L 395.216 210.081 L 395.775 209.249 L 395.934 209.001 L 396.46 208.147 L 396.61 207.892 L 397.101 207.019 L 397.248 206.746 L 397.703 205.852 L 397.844 205.559 L 398.259 204.647 L 398.39 204.341 L 398.764 203.411 L 398.887 203.083 L 399.217 202.136 L 399.327 201.795 L 399.611 200.834 L 399.71 200.462 L 399.944 199.487 L 400.025 199.109 L 400.093 198.745 L 400.069 199.087 L 400.052 199.489 L 400.037 200.488 L 400.043 200.92 L 400.086 201.919 L 400.119 202.374 L 400.223 203.368 L 400.289 203.846 L 400.457 204.831 L 400.556 205.315 L 400.789 206.287 L 400.93 206.794 L 401.231 207.747 L 401.409 208.247 L 401.777 209.176 L 401.995 209.674 L 402.43 210.574 L 402.688 211.06 L 403.188 211.925 L 403.485 212.398 L 404.049 213.224 L 404.371 213.661 L 404.993 214.443 L 405.351 214.86 L 406.029 215.594 L 406.397 215.965 L 407.125 216.65 L 407.514 216.991 L 408.288 217.624 L 408.677 217.922 L 409.49 218.502 L 409.883 218.763 L 410.732 219.291 L 411.127 219.521 L 412.007 219.996 L 412.391 220.189 L 413.296 220.612 L 413.67 220.774 L 414.597 221.147 L 414.957 221.282 L 415.903 221.607 L 416.259 221.719 L 417.219 221.996 L 417.563 222.087 L 418.536 222.318 L 418.856 222.386 L 419.838 222.574 L 420.15 222.627 L 421.138 222.773 L 421.43 222.81 L 422.424 222.917 L 422.715 222.943 L 423.713 223.011 L 423.98 223.024 L 424.979 223.056 L 425.248 223.06 L 426.247 223.056 L 426.485 223.051 L 427.484 223.015 L 427.73 223.002 L 428.728 222.933 L 428.945 222.915 L 429.939 222.817 L 430.161 222.792 L 431.153 222.664 L 431.363 222.634 L 432.35 222.478 L 432.543 222.445 L 433.526 222.263 L 433.72 222.224 L 434.698 222.016 L 434.878 221.975 L 435.85 221.743 L 436.161 221.662 L 437.123 221.388 L 437.521 221.263 L 438.465 220.936 L 438.804 220.809 L 439.732 220.436 L 440.018 220.314 L 440.929 219.903 L 441.188 219.78 L 442.083 219.334 L 442.302 219.22 L 443.181 218.745 L 443.387 218.629 L 444.251 218.126 L 444.437 218.014 L 445.286 217.486 L 445.45 217.382 L 446.285 216.832 L 446.444 216.724 L 447.264 216.153 L 447.417 216.043 L 448.223 215.451 L 448.363 215.346 L 449.154 214.736 L 449.288 214.63 L 450.066 214.001 L 450.2 213.891 L 450.962 213.245 L 451.09 213.133 L 451.838 212.469 L 451.967 212.353 L 452.699 211.672 L 452.824 211.552 L 453.54 210.854 L 453.667 210.727 L 454.365 210.013 L 454.493 209.88 L 455.174 209.148 L 455.304 209.003 L 455.966 208.253 L 456.104 208.092 L 456.744 207.324 L 456.888 207.147 L 457.504 206.36 L 457.645 206.173 L 458.236 205.367 L 458.393 205.144 L 458.954 204.317 L 459.117 204.066 L 459.645 203.216 L 459.821 202.918 L 460.308 202.046 L 460.497 201.685 L 460.936 200.787 L 461.134 200.346 L 461.514 199.421 L 461.713 198.879 L 462.02 197.928 L 462.156 197.451 L 462.399 196.482 L 462.493 196.056 L 462.679 195.074 L 462.744 194.672 L 462.876 193.681 L 462.918 193.285 L 462.997 192.288 L 463.017 191.901 L 463.044 190.902 L 463.045 190.522 L 463.021 189.523 L 463.003 189.151 L 462.929 188.154 L 462.891 187.774 L 462.766 186.782 L 462.71 186.416 L 462.536 185.432 L 462.457 185.045 L 462.231 184.071 L 462.134 183.697 L 461.858 182.737 L 461.733 182.343 L 461.404 181.399 L 461.251 180.998 L 460.868 180.074 L 460.678 179.652 L 460.239 178.755 L 460.007 178.319 L 459.509 177.452 L 459.22 176.989 L 458.66 176.161 L 458.309 175.685 L 457.685 174.904 L 457.251 174.407 L 456.561 173.685 L 456.029 173.18 L 455.271 172.529 L 454.621 172.031 L 453.796 171.467 L 453.148 171.071 L 452.27 170.594 L 451.741 170.333 L 450.828 169.927 L 450.401 169.753 L 449.464 169.404 L 449.092 169.276 L 448.138 168.977 L 447.818 168.885 L 446.852 168.629 L 446.575 168.561 L 445.599 168.342 L 445.347 168.29 L 444.85 168.196 L 445.468 168.075 L 445.713 168.023 L 446.688 167.797 L 446.927 167.737 L 447.894 167.479 L 448.116 167.416 L 449.075 167.128 L 449.299 167.057 L 450.248 166.739 L 450.457 166.666 L 451.396 166.32 L 451.602 166.24 L 452.531 165.866 L 452.725 165.785 L 453.643 165.385 L 453.837 165.297 L 454.743 164.871 L 454.929 164.781 L 455.823 164.33 L 456.003 164.236 L 456.884 163.761 L 457.064 163.66 L 457.931 163.161 L 458.12 163.049 L 458.973 162.524 L 459.149 162.412 L 459.986 161.864 L 460.169 161.74 L 460.99 161.167 L 461.167 161.039 L 461.971 160.442 L 462.152 160.304 L 462.937 159.683 L 463.109 159.542 L 463.875 158.898 L 464.055 158.742 L 464.801 158.073 L 464.974 157.913 L 465.697 157.222 L 465.87 157.052 L 466.571 156.337 L 466.741 156.157 L 467.418 155.419 L 467.586 155.23 L 468.237 154.47 L 468.405 154.266 L 469.029 153.483 L 469.188 153.277 L 469.784 152.473 L 469.948 152.242 L 470.513 151.416 L 470.669 151.178 L 471.202 150.331 L 471.353 150.082 L 471.853 149.214 L 472.006 148.933 L 472.468 148.045 L 472.604 147.771 L 473.029 146.865 L 473.165 146.557 L 473.549 145.632 L 473.675 145.308 L 474.015 144.367 L 474.13 144.023 L 474.424 143.066 L 474.526 142.701 L 474.771 141.73 L 474.859 141.337 L 475.051 140.355 L 475.118 139.953 L 475.256 138.962 L 475.304 138.522 L 475.383 137.524 L 475.405 137.077 L 475.424 136.076 L 475.417 135.593 L 475.371 134.593 L 475.333 134.108 L 475.222 133.114 L 475.148 132.609 L 474.969 131.624 L 474.857 131.111 L 474.609 130.141 L 474.46 129.635 L 474.144 128.685 L 473.957 128.183 L 473.574 127.259 L 473.351 126.771 L 472.902 125.876 L 472.644 125.406 L 472.132 124.546 L 471.85 124.107 L 471.279 123.285 L 470.977 122.88 L 470.352 122.099 L 470.053 121.749 L 469.38 121.007 L 469.074 120.689 L 468.359 119.989 L 468.042 119.696 L 467.287 119.038 L 466.943 118.755 L 466.151 118.144 L 465.806 117.894 L 464.98 117.329 L 464.614 117.094 L 463.756 116.578 L 463.39 116.371 L 462.504 115.904 L 462.143 115.726 L 461.234 115.308 L 460.866 115.151 L 459.935 114.782 L 459.579 114.652 L 458.631 114.331 L 458.274 114.219 L 457.311 113.946 L 456.977 113.86 L 456.003 113.632 L 455.666 113.561 L 454.681 113.378 L 454.355 113.325 L 453.364 113.186 L 453.059 113.15 L 452.063 113.052 L 451.757 113.028 L 450.758 112.971 L 450.468 112.96 L 449.467 112.942 Z M 412.944 148.179 L 413.079 149.171 L 413.155 149.624 L 413.351 150.606 L 413.461 151.075 L 413.72 152.042 L 413.86 152.504 L 414.181 153.452 L 414.357 153.922 L 414.741 154.846 L 414.955 155.313 L 415.402 156.209 L 415.644 156.657 L 416.151 157.52 L 416.426 157.952 L 416.991 158.778 L 417.294 159.19 L 417.914 159.975 L 418.238 160.358 L 418.91 161.1 L 419.258 161.459 L 419.978 162.154 L 420.337 162.479 L 421.101 163.126 L 421.466 163.416 L 422.269 164.014 L 422.647 164.278 L 423.485 164.825 L 423.858 165.053 L 424.727 165.55 L 425.112 165.755 L 426.008 166.2 L 426.377 166.371 L 427.297 166.767 L 427.673 166.917 L 428.612 167.262 L 428.971 167.384 L 429.927 167.681 L 430.278 167.78 L 430.646 167.875 L 429.982 167.97 L 429.752 168.006 L 428.767 168.179 L 428.506 168.23 L 427.528 168.438 L 427.243 168.505 L 426.275 168.751 L 425.837 168.876 L 424.885 169.181 L 424.454 169.334 L 423.522 169.697 L 423.162 169.848 L 422.251 170.259 L 421.948 170.404 L 421.056 170.856 L 420.808 170.988 L 419.934 171.473 L 419.708 171.603 L 418.852 172.118 L 418.654 172.242 L 417.814 172.784 L 417.643 172.897 L 416.818 173.462 L 416.653 173.579 L 415.844 174.166 L 415.698 174.275 L 414.903 174.882 L 414.762 174.992 L 413.983 175.617 L 413.855 175.722 L 413.089 176.365 L 412.961 176.475 L 412.21 177.135 L 412.084 177.248 L 411.348 177.925 L 411.233 178.033 L 410.512 178.725 L 410.396 178.84 L 409.69 179.548 L 409.568 179.672 L 408.879 180.396 L 408.768 180.516 L 408.095 181.255 L 407.969 181.397 L 407.315 182.153 L 407.195 182.294 L 406.56 183.066 L 406.435 183.224 L 405.821 184.013 L 405.686 184.191 L 405.096 184.998 L 404.954 185.199 L 404.391 186.025 L 404.244 186.25 L 403.711 187.096 L 403.547 187.368 L 403.051 188.235 L 402.877 188.558 L 402.424 189.449 L 402.238 189.844 L 401.838 190.76 L 401.64 191.26 L 401.307 192.203 L 401.135 192.76 L 400.877 193.725 L 400.797 194.055 L 400.583 195.032 L 400.517 195.366 L 400.507 195.427 L 400.515 195.311 L 400.534 194.873 L 400.548 193.871 L 400.541 193.433 L 400.496 192.431 L 400.461 191.969 L 400.354 190.973 L 400.292 190.52 L 400.124 189.532 L 400.03 189.072 L 399.8 188.096 L 399.676 187.635 L 399.384 186.676 L 399.234 186.235 L 398.883 185.297 L 398.705 184.862 L 398.295 183.947 L 398.088 183.522 L 397.621 182.635 L 397.344 182.154 L 396.812 181.304 L 396.491 180.831 L 395.896 180.025 L 395.528 179.567 L 394.871 178.81 L 394.472 178.384 L 393.758 177.681 L 393.338 177.299 L 392.572 176.652 L 392.138 176.311 L 391.327 175.723 L 390.884 175.426 L 390.032 174.897 L 389.596 174.646 L 388.711 174.176 L 388.303 173.975 L 387.391 173.56 L 386.979 173.388 L 386.043 173.028 L 385.674 172.896 L 384.721 172.586 L 384.355 172.478 L 383.387 172.217 L 383.062 172.137 L 382.084 171.92 L 381.771 171.857 L 380.784 171.682 L 380.501 171.638 L 379.508 171.501 L 379.24 171.469 L 378.242 171.368 L 377.997 171.347 L 377.544 171.316 L 378.128 171.308 L 378.292 171.304 L 379.289 171.268 L 379.446 171.261 L 380.441 171.204 L 380.605 171.193 L 381.6 171.114 L 381.765 171.099 L 382.757 170.998 L 382.936 170.977 L 383.925 170.852 L 384.111 170.826 L 385.097 170.676 L 385.306 170.642 L 386.288 170.464 L 386.521 170.418 L 387.496 170.209 L 387.78 170.142 L 388.746 169.895 L 389.08 169.801 L 390.034 169.509 L 390.471 169.36 L 391.404 169.01 L 391.746 168.872 L 392.661 168.476 L 392.844 168.394 L 393.749 167.973 L 393.933 167.884 L 394.825 167.439 L 395.009 167.344 L 395.889 166.874 L 396.067 166.776 L 396.934 166.282 L 397.116 166.175 L 397.968 165.657 L 398.147 165.544 L 398.984 165.002 L 399.172 164.877 L 399.992 164.31 L 400.167 164.185 L 400.971 163.594 L 401.154 163.456 L 401.939 162.841 L 402.112 162.7 L 402.878 162.062 L 403.059 161.907 L 403.805 161.244 L 403.976 161.087 L 404.7 160.402 L 404.874 160.232 L 405.576 159.523 L 405.751 159.339 L 406.428 158.607 L 406.594 158.422 L 407.246 157.668 L 407.412 157.469 L 408.038 156.692 L 408.199 156.486 L 408.797 155.688 L 408.959 155.462 L 409.527 154.642 L 409.68 154.413 L 410.217 153.573 L 410.369 153.324 L 410.873 152.463 L 411.019 152.203 L 411.488 151.323 L 411.625 151.052 L 412.058 150.153 L 412.19 149.864 L 412.584 148.948 L 412.707 148.643 L 412.931 148.053 Z" fill="#000000" fill-rule="nonzero" stroke="none" data-offset="0.2mm"/></svg>