999
DXF data, created by potrace 1.16, written by Peter Selinger 2001-2019
  0
SECTION
  2
HEADER
  9
$ACADVER
  1
AC1006
  9
$EXTMIN
 10
0.000000
 20
0.000000
 30
0.000000
  9
$EXTMAX
 10
591.000000
 20
591.000000
 30
0.000000
  0
ENDSEC
  0
SECTION
  2
ENTITIES
  0
POLYLINE
  8
0
 66
1
 70
1
  0
VERTEX
  8
0
 10
306.000000
 20
510.858355
 42
-0.007785
  0
VERTEX
  8
0
 10
300.359754
 20
510.135566
 42
-0.006745
  0
VERTEX
  8
0
 10
294.423550
 20
509.549579
 42
-0.005510
  0
VERTEX
  8
0
 10
287.440647
 20
509.032701
 42
-0.002670
  0
VERTEX
  8
0
 10
278.500000
 20
508.517813
 42
0.000579
  0
VERTEX
  8
0
 10
274.402943
 20
508.299046
 42
0.000340
  0
VERTEX
  8
0
 10
269.500000
 20
508.028208
 42
0.000340
  0
VERTEX
  8
0
 10
264.597078
 20
507.750687
 42
0.000579
  0
VERTEX
  8
0
 10
260.500000
 20
507.511226
 42
-0.001679
  0
VERTEX
  8
0
 10
249.167813
 20
506.873903
 42
-0.008157
  0
VERTEX
  8
0
 10
242.735877
 20
506.638968
 42
-0.005744
  0
VERTEX
  8
0
 10
238.453808
 20
506.601673
 42
-0.413400
  0
VERTEX
  8
0
 10
238.000000
 20
507.056743
 42
0.370865
  0
VERTEX
  8
0
 10
237.805338
 20
507.283090
 42
0.038167
  0
VERTEX
  8
0
 10
237.045312
 20
507.339387
 42
0.033162
  0
VERTEX
  8
0
 10
235.996251
 20
507.267245
 42
0.019175
  0
VERTEX
  8
0
 10
234.750000
 20
507.049074
 42
-0.038661
  0
VERTEX
  8
0
 10
233.294332
 20
506.852294
 42
-0.025464
  0
VERTEX
  8
0
 10
231.603792
 20
506.841870
 42
-0.025634
  0
VERTEX
  8
0
 10
229.947891
 20
507.001338
 42
-0.044273
  0
VERTEX
  8
0
 10
228.603335
 20
507.324327
 42
0.033610
  0
VERTEX
  8
0
 10
227.201092
 20
507.692924
 42
0.054960
  0
VERTEX
  8
0
 10
225.977428
 20
507.791080
 42
0.063565
  0
VERTEX
  8
0
 10
224.896926
 20
507.620336
 42
0.068748
  0
VERTEX
  8
0
 10
223.924648
 20
507.185015
 42
-0.037916
  0
VERTEX
  8
0
 10
223.218570
 20
506.815220
 42
-0.062311
  0
VERTEX
  8
0
 10
222.571709
 20
506.627676
 42
-0.089436
  0
VERTEX
  8
0
 10
222.079363
 20
506.637852
 42
-0.250084
  0
VERTEX
  8
0
 10
221.821313
 20
506.850475
 42
0.299467
  0
VERTEX
  8
0
 10
221.397165
 20
507.139008
 42
0.005336
  0
VERTEX
  8
0
 10
218.510011
 20
507.152727
 42
0.011410
  0
VERTEX
  8
0
 10
215.048289
 20
507.053212
 42
0.007125
  0
VERTEX
  8
0
 10
211.000000
 20
506.786414
 42
-0.005960
  0
VERTEX
  8
0
 10
206.787239
 20
506.498915
 42
-0.007125
  0
VERTEX
  8
0
 10
202.812635
 20
506.332003
 42
-0.006227
  0
VERTEX
  8
0
 10
199.465052
 20
506.280897
 42
-0.045769
  0
VERTEX
  8
0
 10
197.872800
 20
506.422441
 42
0.043929
  0
VERTEX
  8
0
 10
196.378511
 20
506.560807
 42
0.196090
  0
VERTEX
  8
0
 10
195.578297
 20
506.238651
 42
0.141316
  0
VERTEX
  8
0
 10
195.080432
 20
505.369158
 42
0.019596
  0
VERTEX
  8
0
 10
194.662856
 20
503.309853
 42
0.034979
  0
VERTEX
  8
0
 10
194.522248
 20
501.768070
 42
0.030556
  0
VERTEX
  8
0
 10
194.587147
 20
500.149533
 42
0.031852
  0
VERTEX
  8
0
 10
194.831852
 20
498.678618
 42
0.068799
  0
VERTEX
  8
0
 10
195.241543
 20
497.609413
 42
-0.055106
  0
VERTEX
  8
0
 10
195.678474
 20
496.556056
 42
-0.025049
  0
VERTEX
  8
0
 10
196.023373
 20
495.102736
 42
-0.024439
  0
VERTEX
  8
0
 10
196.237056
 20
493.518260
 42
-0.030749
  0
VERTEX
  8
0
 10
196.272147
 20
492.038199
 42
-0.035872
  0
VERTEX
  8
0
 10
195.863704
 20
488.322594
 42
-0.025615
  0
VERTEX
  8
0
 10
194.899651
 20
484.249637
 42
-0.017770
  0
VERTEX
  8
0
 10
193.713990
 20
480.661864
 42
-0.313748
  0
VERTEX
  8
0
 10
192.763050
 20
480.000000
 42
0.153999
  0
VERTEX
  8
0
 10
192.431966
 20
479.895550
 42
0.152298
  0
VERTEX
  8
0
 10
192.218991
 20
479.619616
 42
0.114273
  0
VERTEX
  8
0
 10
192.165255
 20
479.200436
 42
0.066685
  0
VERTEX
  8
0
 10
192.282931
 20
478.705077
 42
-0.374463
  0
VERTEX
  8
0
 10
191.954750
 20
477.806558
 42
-0.135347
  0
VERTEX
  8
0
 10
190.522898
 20
477.463824
 42
-0.078379
  0
VERTEX
  8
0
 10
188.418913
 20
477.869669
 42
-0.086684
  0
VERTEX
  8
0
 10
186.622106
 20
478.898274
 42
0.158992
  0
VERTEX
  8
0
 10
183.945534
 20
479.959631
 42
0.006635
  0
VERTEX
  8
0
 10
173.555535
 20
480.468142
 42
0.011884
  0
VERTEX
  8
0
 10
163.332752
 20
480.589462
 42
0.042054
  0
VERTEX
  8
0
 10
156.805565
 20
479.961201
 42
-0.025569
  0
VERTEX
  8
0
 10
155.325670
 20
479.769399
 42
-0.031484
  0
VERTEX
  8
0
 10
153.933956
 20
479.748782
 42
-0.032916
  0
VERTEX
  8
0
 10
152.796687
 20
479.878927
 42
-0.152580
  0
VERTEX
  8
0
 10
152.217804
 20
480.182196
 42
0.212713
  0
VERTEX
  8
0
 10
150.593159
 20
480.805281
 42
0.033621
  0
VERTEX
  8
0
 10
147.116929
 20
480.385501
 42
0.032338
  0
VERTEX
  8
0
 10
143.793699
 20
479.529696
 42
0.324218
  0
VERTEX
  8
0
 10
143.000000
 20
478.434341
 42
-0.155787
  0
VERTEX
  8
0
 10
142.844346
 20
477.946890
 42
-0.107224
  0
VERTEX
  8
0
 10
142.412500
 20
477.553378
 42
-0.086591
  0
VERTEX
  8
0
 10
141.764727
 20
477.315010
 42
-0.063846
  0
VERTEX
  8
0
 10
141.000000
 20
477.274953
 42
-0.043087
  0
VERTEX
  8
0
 10
140.234465
 20
477.399522
 42
-0.060084
  0
VERTEX
  8
0
 10
139.587500
 20
477.648560
 42
-0.076266
  0
VERTEX
  8
0
 10
139.147420
 20
477.976023
 42
-0.197210
  0
VERTEX
  8
0
 10
139.000000
 20
478.335249
 42
0.264695
  0
VERTEX
  8
0
 10
138.867653
 20
478.567732
 42
0.189060
  0
VERTEX
  8
0
 10
138.565548
 20
478.617119
 42
0.085536
  0
VERTEX
  8
0
 10
138.089366
 20
478.425643
 42
0.034951
  0
VERTEX
  8
0
 10
137.521013
 20
478.017440
 42
0.070793
  0
VERTEX
  8
0
 10
136.954347
 20
477.392735
 42
0.088930
  0
VERTEX
  8
0
 10
136.637618
 20
476.679622
 42
0.091343
  0
VERTEX
  8
0
 10
136.592982
 20
475.916224
 42
0.079201
  0
VERTEX
  8
0
 10
136.816296
 20
475.144995
 42
-0.075707
  0
VERTEX
  8
0
 10
137.107129
 20
474.166086
 42
-0.014049
  0
VERTEX
  8
0
 10
137.313068
 20
472.294155
 42
-0.014774
  0
VERTEX
  8
0
 10
137.428572
 20
470.072005
 42
-0.013003
  0
VERTEX
  8
0
 10
137.420165
 20
467.750000
 42
0.015262
  0
VERTEX
  8
0
 10
137.422140
 20
465.545598
 42
0.025163
  0
VERTEX
  8
0
 10
137.574222
 20
463.689062
 42
0.022700
  0
VERTEX
  8
0
 10
137.825828
 20
462.286011
 42
0.350355
  0
VERTEX
  8
0
 10
138.183899
 20
462.000000
 42
-0.129451
  0
VERTEX
  8
0
 10
138.489191
 20
461.919612
 42
-0.189649
  0
VERTEX
  8
0
 10
138.662084
 20
461.706250
 42
-0.145567
  0
VERTEX
  8
0
 10
138.667605
 20
461.382681
 42
-0.070499
  0
VERTEX
  8
0
 10
138.500000
 20
461.000000
 42
0.139169
  0
VERTEX
  8
0
 10
138.392057
 20
460.620352
 42
0.191142
  0
VERTEX
  8
0
 10
138.521475
 20
460.293750
 42
0.138808
  0
VERTEX
  8
0
 10
138.889346
 20
460.073267
 42
0.066118
  0
VERTEX
  8
0
 10
139.440983
 20
460.000000
 42
-0.066688
  0
VERTEX
  8
0
 10
140.036936
 20
459.920160
 42
-0.083694
  0
VERTEX
  8
0
 10
140.542039
 20
459.686455
 42
-0.099417
  0
VERTEX
  8
0
 10
140.879845
 20
459.339654
 42
-0.144513
  0
VERTEX
  8
0
 10
141.000000
 20
458.932612
 42
-0.206760
  0
VERTEX
  8
0
 10
140.841894
 20
458.566615
 42
-0.136392
  0
VERTEX
  8
0
 10
140.430242
 20
458.350135
 42
-0.086344
  0
VERTEX
  8
0
 10
139.789261
 20
458.323992
 42
-0.043987
  0
VERTEX
  8
0
 10
139.000000
 20
458.500000
 42
0.043916
  0
VERTEX
  8
0
 10
138.014217
 20
458.719981
 42
0.179400
  0
VERTEX
  8
0
 10
137.425917
 20
458.586422
 42
0.196713
  0
VERTEX
  8
0
 10
137.099422
 20
458.113324
 42
0.053952
  0
VERTEX
  8
0
 10
137.000000
 20
457.194617
 42
-0.133773
  0
VERTEX
  8
0
 10
136.726007
 20
456.188844
 42
-0.144841
  0
VERTEX
  8
0
 10
135.985386
 20
455.497245
 42
-0.070221
  0
VERTEX
  8
0
 10
134.524643
 20
455.007831
 42
-0.013386
  0
VERTEX
  8
0
 10
131.750000
 20
454.570571
 42
-0.009057
  0
VERTEX
  8
0
 10
129.483693
 20
454.317006
 42
-0.007069
  0
VERTEX
  8
0
 10
127.014063
 20
454.121074
 42
-0.007154
  0
VERTEX
  8
0
 10
124.708140
 20
454.004004
 42
-0.017248
  0
VERTEX
  8
0
 10
123.000000
 20
454.000719
 42
0.007358
  0
VERTEX
  8
0
 10
117.225541
 20
454.103822
 42
0.024103
  0
VERTEX
  8
0
 10
113.412742
 20
453.931903
 42
0.033583
  0
VERTEX
  8
0
 10
110.898560
 20
453.525140
 42
0.194689
  0
VERTEX
  8
0
 10
109.820169
 20
452.768045
 42
-0.050682
  0
VERTEX
  8
0
 10
109.363547
 20
452.198037
 42
-0.231133
  0
VERTEX
  8
0
 10
108.974331
 20
452.060431
 42
-0.189595
  0
VERTEX
  8
0
 10
108.571841
 20
452.274700
 42
-0.033898
  0
VERTEX
  8
0
 10
108.054373
 20
452.971040
 42
0.052060
  0
VERTEX
  8
0
 10
107.642921
 20
453.484720
 42
0.083614
  0
VERTEX
  8
0
 10
107.188707
 20
453.812144
 42
0.117743
  0
VERTEX
  8
0
 10
106.766582
 20
453.908022
 42
0.196038
  0
VERTEX
  8
0
 10
106.435325
 20
453.768659
 42
0.220265
  0
VERTEX
  8
0
 10
106.296927
 20
453.391612
 42
0.077508
  0
VERTEX
  8
0
 10
106.435317
 20
452.817460
 42
0.058934
  0
VERTEX
  8
0
 10
106.810306
 20
452.145432
 42
0.039697
  0
VERTEX
  8
0
 10
107.380952
 20
451.476190
 42
-0.008949
  0
VERTEX
  8
0
 10
108.754558
 20
450.052517
 42
-0.245265
  0
VERTEX
  8
0
 10
108.888398
 20
449.566210
 42
-0.408941
  0
VERTEX
  8
0
 10
108.563267
 20
449.352287
 42
-0.015338
  0
VERTEX
  8
0
 10
107.000000
 20
449.710251
 42
0.048039
  0
VERTEX
  8
0
 10
106.084085
 20
449.857848
 42
0.145044
  0
VERTEX
  8
0
 10
105.474055
 20
449.718669
 42
0.182222
  0
VERTEX
  8
0
 10
105.121451
 20
449.298267
 42
0.084557
  0
VERTEX
  8
0
 10
105.000000
 20
448.585247
 42
-0.095494
  0
VERTEX
  8
0
 10
104.869266
 20
447.906975
 42
-0.067835
  0
VERTEX
  8
0
 10
104.485938
 20
447.231669
 42
-0.065572
  0
VERTEX
  8
0
 10
103.918965
 20
446.661631
 42
-0.076065
  0
VERTEX
  8
0
 10
103.250000
 20
446.291557
 42
0.030437
  0
VERTEX
  8
0
 10
102.534836
 20
445.977047
 42
0.027020
  0
VERTEX
  8
0
 10
101.833039
 20
445.566607
 42
0.027993
  0
VERTEX
  8
0
 10
101.241659
 20
445.127039
 42
0.070916
  0
VERTEX
  8
0
 10
100.883749
 20
444.730334
 42
0.151055
  0
VERTEX
  8
0
 10
100.368614
 20
443.020306
 42
0.004429
  0
VERTEX
  8
0
 10
100.491350
 20
435.399597
 42
0.003803
  0
VERTEX
  8
0
 10
100.742348
 20
427.695602
 42
0.188492
  0
VERTEX
  8
0
 10
101.343328
 20
426.323338
 42
0.350322
  0
VERTEX
  8
0
 10
101.596557
 20
426.294992
 42
0.155395
  0
VERTEX
  8
0
 10
101.827749
 20
426.569460
 42
0.064285
  0
VERTEX
  8
0
 10
101.997682
 20
427.199856
 42
0.026466
  0
VERTEX
  8
0
 10
102.070285
 20
428.083333
 42
-0.003478
  0
VERTEX
  8
0
 10
102.125688
 20
429.620274
 42
-0.276744
  0
VERTEX
  8
0
 10
102.253444
 20
429.814017
 42
-0.428572
  0
VERTEX
  8
0
 10
102.425455
 20
429.748893
 42
-0.004968
  0
VERTEX
  8
0
 10
102.937584
 20
428.500000
 42
-0.049040
  0
VERTEX
  8
0
 10
103.198840
 20
427.595596
 42
-0.087848
  0
VERTEX
  8
0
 10
103.204983
 20
426.824627
 42
-0.108651
  0
VERTEX
  8
0
 10
102.956891
 20
426.210153
 42
-0.110391
  0
VERTEX
  8
0
 10
102.475015
 20
425.760591
 42
0.199151
  0
VERTEX
  8
0
 10
101.899668
 20
424.998731
 42
0.040682
  0
VERTEX
  8
0
 10
101.603969
 20
423.299921
 42
0.027616
  0
VERTEX
  8
0
 10
101.510877
 20
420.700651
 42
0.008394
  0
VERTEX
  8
0
 10
101.653590
 20
416.760591
 42
-0.006469
  0
VERTEX
  8
0
 10
102.011121
 20
407.839012
 42
-0.007585
  0
VERTEX
  8
0
 10
102.112250
 20
399.372669
 42
-0.006361
  0
VERTEX
  8
0
 10
101.998072
 20
392.213555
 42
-0.052842
  0
VERTEX
  8
0
 10
101.564026
 20
389.000000
 42
0.140020
  0
VERTEX
  8
0
 10
101.673593
 20
386.147316
 42
0.243655
  0
VERTEX
  8
0
 10
103.323111
 20
384.527931
 42
0.065712
  0
VERTEX
  8
0
 10
107.621082
 20
383.803644
 42
0.004952
  0
VERTEX
  8
0
 10
119.466006
 20
383.497852
 42
-0.004761
  0
VERTEX
  8
0
 10
126.622301
 20
383.315840
 42
-0.010548
  0
VERTEX
  8
0
 10
132.072354
 20
383.010069
 42
-0.007446
  0
VERTEX
  8
0
 10
136.220739
 20
382.627204
 42
-0.171264
  0
VERTEX
  8
0
 10
137.278986
 20
382.121014
 42
-0.139521
  0
VERTEX
  8
0
 10
137.717555
 20
381.333535
 42
-0.018421
  0
VERTEX
  8
0
 10
138.089669
 20
379.440123
 42
-0.020205
  0
VERTEX
  8
0
 10
138.363346
 20
377.107990
 42
-0.015685
  0
VERTEX
  8
0
 10
138.478428
 20
374.554905
 42
0.008892
  0
VERTEX
  8
0
 10
138.557691
 20
372.036417
 42
0.012799
  0
VERTEX
  8
0
 10
138.724454
 20
369.812421
 42
0.008564
  0
VERTEX
  8
0
 10
138.940666
 20
367.981862
 42
0.164126
  0
VERTEX
  8
0
 10
139.191969
 20
367.474697
 42
-0.169912
  0
VERTEX
  8
0
 10
139.389369
 20
367.064781
 42
-0.034586
  0
VERTEX
  8
0
 10
139.424565
 20
366.247418
 42
-0.032821
  0
VERTEX
  8
0
 10
139.332318
 20
365.244616
 42
-0.025659
  0
VERTEX
  8
0
 10
139.105782
 20
364.174727
 42
0.018870
  0
VERTEX
  8
0
 10
138.722669
 20
362.479240
 42
0.036779
  0
VERTEX
  8
0
 10
138.569196
 20
361.101888
 42
0.030846
  0
VERTEX
  8
0
 10
138.606364
 20
359.568119
 42
0.009707
  0
VERTEX
  8
0
 10
138.847686
 20
357.285184
 42
0.175999
  0
VERTEX
  8
0
 10
139.576832
 20
355.860924
 42
0.105887
  0
VERTEX
  8
0
 10
141.225726
 20
354.876518
 42
0.094795
  0
VERTEX
  8
0
 10
143.306269
 20
354.587131
 42
0.110592
  0
VERTEX
  8
0
 10
145.225113
 20
355.120477
 42
-0.091374
  0
VERTEX
  8
0
 10
146.840009
 20
355.636268
 42
-0.011299
  0
VERTEX
  8
0
 10
150.530542
 20
356.022654
 42
-0.011822
  0
VERTEX
  8
0
 10
155.310344
 20
356.300556
 42
-0.006522
  0
VERTEX
  8
0
 10
161.161844
 20
356.425725
 42
0.004315
  0
VERTEX
  8
0
 10
166.463436
 20
356.515722
 42
0.006704
  0
VERTEX
  8
0
 10
171.033246
 20
356.694094
 42
0.002523
  0
VERTEX
  8
0
 10
174.935798
 20
356.918614
 42
0.182714
  0
VERTEX
  8
0
 10
175.512004
 20
357.178671
 42
-0.182288
  0
VERTEX
  8
0
 10
175.943342
 20
357.373773
 42
-0.031723
  0
VERTEX
  8
0
 10
176.852782
 20
357.374447
 42
-0.030852
  0
VERTEX
  8
0
 10
177.973042
 20
357.234402
 42
-0.023317
  0
VERTEX
  8
0
 10
179.179679
 20
356.948469
 42
0.050326
  0
VERTEX
  8
0
 10
181.102353
 20
356.601116
 42
0.005410
  0
VERTEX
  8
0
 10
185.622635
 20
356.296228
 42
0.006609
  0
VERTEX
  8
0
 10
191.027697
 20
356.061988
 42
0.005276
  0
VERTEX
  8
0
 10
196.859471
 20
355.948013
 42
-0.006943
  0
VERTEX
  8
0
 10
211.812393
 20
355.605883
 42
-0.126547
  0
VERTEX
  8
0
 10
216.345172
 20
354.260552
 42
-0.217755
  0
VERTEX
  8
0
 10
218.553968
 20
351.043754
 42
-0.026342
  0
VERTEX
  8
0
 10
219.609960
 20
342.302208
 42
0.009648
  0
VERTEX
  8
0
 10
219.967421
 20
338.196422
 42
0.025900
  0
VERTEX
  8
0
 10
220.428557
 20
335.300834
 42
0.035218
  0
VERTEX
  8
0
 10
221.001084
 20
333.310745
 42
0.138974
  0
VERTEX
  8
0
 10
221.741375
 20
332.288369
 42
-0.042206
  0
VERTEX
  8
0
 10
222.411244
 20
331.661476
 42
-0.020604
  0
VERTEX
  8
0
 10
223.159396
 20
330.760446
 42
-0.020275
  0
VERTEX
  8
0
 10
223.865171
 20
329.753246
 42
-0.027609
  0
VERTEX
  8
0
 10
224.411829
 20
328.788369
 42
0.069793
  0
VERTEX
  8
0
 10
225.090646
 20
327.795335
 42
0.067510
  0
VERTEX
  8
0
 10
226.023420
 20
327.014441
 42
0.063698
  0
VERTEX
  8
0
 10
227.181591
 20
326.476310
 42
0.051723
  0
VERTEX
  8
0
 10
228.523171
 20
326.198234
 42
-0.028910
  0
VERTEX
  8
0
 10
229.889788
 20
325.979329
 42
-0.015386
  0
VERTEX
  8
0
 10
231.551201
 20
325.559693
 42
-0.015266
  0
VERTEX
  8
0
 10
233.227742
 20
325.025050
 42
-0.022897
  0
VERTEX
  8
0
 10
234.651129
 20
324.448234
 42
0.016278
  0
VERTEX
  8
0
 10
235.968737
 20
323.893877
 42
0.016197
  0
VERTEX
  8
0
 10
237.321803
 20
323.425419
 42
0.016267
  0
VERTEX
  8
0
 10
238.528789
 20
323.093478
 42
0.059031
  0
VERTEX
  8
0
 10
239.317796
 20
323.000000
 42
-0.045851
  0
VERTEX
  8
0
 10
239.922267
 20
322.944452
 42
-0.050566
  0
VERTEX
  8
0
 10
240.486061
 20
322.779688
 42
-0.056892
  0
VERTEX
  8
0
 10
240.930158
 20
322.537635
 42
-0.135796
  0
VERTEX
  8
0
 10
241.166667
 20
322.250000
 42
0.170570
  0
VERTEX
  8
0
 10
241.976631
 20
321.391150
 42
0.009863
  0
VERTEX
  8
0
 10
245.269799
 20
319.771561
 42
0.013123
  0
VERTEX
  8
0
 10
248.579906
 20
318.328561
 42
0.093884
  0
VERTEX
  8
0
 10
250.283927
 20
317.987333
 42
-0.089838
  0
VERTEX
  8
0
 10
251.038171
 20
317.842581
 42
-0.007656
  0
VERTEX
  8
0
 10
252.873237
 20
317.100857
 42
-0.009938
  0
VERTEX
  8
0
 10
255.045979
 20
316.132383
 42
-0.007535
  0
VERTEX
  8
0
 10
257.390921
 20
314.987333
 42
0.009834
  0
VERTEX
  8
0
 10
259.764381
 20
313.841843
 42
0.012095
  0
VERTEX
  8
0
 10
262.024051
 20
312.870997
 42
0.010572
  0
VERTEX
  8
0
 10
263.946965
 20
312.146191
 42
0.081555
  0
VERTEX
  8
0
 10
264.890921
 20
311.977764
 42
-0.081453
  0
VERTEX
  8
0
 10
265.679481
 20
311.837230
 42
-0.027426
  0
VERTEX
  8
0
 10
266.761708
 20
311.387624
 42
-0.026444
  0
VERTEX
  8
0
 10
267.924679
 20
310.750076
 42
-0.027371
  0
VERTEX
  8
0
 10
269.000000
 20
310.000000
 42
0.015400
  0
VERTEX
  8
0
 10
270.022645
 20
309.249662
 42
0.018624
  0
VERTEX
  8
0
 10
271.028015
 20
308.612376
 42
0.017497
  0
VERTEX
  8
0
 10
271.902018
 20
308.143130
 42
0.108636
  0
VERTEX
  8
0
 10
272.393243
 20
308.022236
 42
-0.092404
  0
VERTEX
  8
0
 10
272.995625
 20
307.894363
 42
-0.003535
  0
VERTEX
  8
0
 10
275.111705
 20
306.998381
 42
-0.006232
  0
VERTEX
  8
0
 10
277.605533
 20
305.884518
 42
-0.004341
  0
VERTEX
  8
0
 10
280.393243
 20
304.567999
 42
0.003986
  0
VERTEX
  8
0
 10
283.472791
 20
303.110978
 42
0.003080
  0
VERTEX
  8
0
 10
286.851620
 20
301.570407
 42
0.003114
  0
VERTEX
  8
0
 10
290.024934
 20
300.170754
 42
0.007460
  0
VERTEX
  8
0
 10
292.399508
 20
299.182838
 42
-0.012016
  0
VERTEX
  8
0
 10
295.718076
 20
297.766581
 42
-0.459499
  0
VERTEX
  8
0
 10
295.917602
 20
297.077766
 42
-0.200951
  0
VERTEX
  8
0
 10
295.026713
 20
296.475213
 42
-0.004791
  0
VERTEX
  8
0
 10
290.000000
 20
295.516418
 42
0.011613
  0
VERTEX
  8
0
 10
288.513401
 20
295.211789
 42
0.009531
  0
VERTEX
  8
0
 10
286.940625
 20
294.819553
 42
0.009655
  0
VERTEX
  8
0
 10
285.508680
 20
294.403482
 42
0.025021
  0
VERTEX
  8
0
 10
284.500000
 20
294.032861
 42
-0.022616
  0
VERTEX
  8
0
 10
283.196507
 20
293.546791
 42
-0.002010
  0
VERTEX
  8
0
 10
279.856250
 20
292.485344
 42
-0.002621
  0
VERTEX
  8
0
 10
275.858745
 20
291.255686
 42
-0.002040
  0
VERTEX
  8
0
 10
271.500000
 20
289.959263
 42
0.003376
  0
VERTEX
  8
0
 10
267.057546
 20
288.625013
 42
0.003800
  0
VERTEX
  8
0
 10
262.805606
 20
287.281166
 42
0.003485
  0
VERTEX
  8
0
 10
259.205422
 20
286.085348
 42
0.020494
  0
VERTEX
  8
0
 10
257.348871
 20
285.368163
 42
-0.010841
  0
VERTEX
  8
0
 10
256.067107
 20
284.844370
 42
-0.012460
  0
VERTEX
  8
0
 10
254.821575
 20
284.401898
 42
-0.011608
  0
VERTEX
  8
0
 10
253.752141
 20
284.079027
 42
-0.067601
  0
VERTEX
  8
0
 10
253.170299
 20
284.000000
 42
0.088293
  0
VERTEX
  8
0
 10
252.683706
 20
283.913399
 42
0.034211
  0
VERTEX
  8
0
 10
252.056499
 20
283.632813
 42
0.032551
  0
VERTEX
  8
0
 10
251.402893
 20
283.228360
 42
0.034618
  0
VERTEX
  8
0
 10
250.821429
 20
282.750000
 42
-0.049666
  0
VERTEX
  8
0
 10
248.884228
 20
281.251561
 42
-0.038639
  0
VERTEX
  8
0
 10
246.522861
 20
280.016540
 42
-0.037180
  0
VERTEX
  8
0
 10
244.312448
 20
279.258628
 42
-0.205202
  0
VERTEX
  8
0
 10
243.095353
 20
279.441069
 42
0.073577
  0
VERTEX
  8
0
 10
242.676341
 20
279.621535
 42
0.149958
  0
VERTEX
  8
0
 10
242.321760
 20
279.608089
 42
0.188141
  0
VERTEX
  8
0
 10
242.087417
 20
279.407668
 42
0.123454
  0
VERTEX
  8
0
 10
242.000000
 20
279.059017
 42
-0.217355
  0
VERTEX
  8
0
 10
241.815127
 20
278.653831
 42
-0.078662
  0
VERTEX
  8
0
 10
241.265625
 20
278.311086
 42
-0.059813
  0
VERTEX
  8
0
 10
240.457223
 20
278.077571
 42
-0.040452
  0
VERTEX
  8
0
 10
239.500000
 20
278.000000
 42
0.049514
  0
VERTEX
  8
0
 10
238.543317
 20
277.905028
 42
0.069507
  0
VERTEX
  8
0
 10
237.734375
 20
277.621886
 42
0.089676
  0
VERTEX
  8
0
 10
237.189924
 20
277.204241
 42
0.186512
  0
VERTEX
  8
0
 10
237.000000
 20
276.712804
 42
-0.163642
  0
VERTEX
  8
0
 10
236.830392
 20
276.208453
 42
-0.086641
  0
VERTEX
  8
0
 10
236.341875
 20
275.754147
 42
-0.070653
  0
VERTEX
  8
0
 10
235.616541
 20
275.416913
 42
-0.054792
  0
VERTEX
  8
0
 10
234.759573
 20
275.256842
 42
0.055157
  0
VERTEX
  8
0
 10
231.910506
 20
274.722525
 42
0.021947
  0
VERTEX
  8
0
 10
228.155420
 20
273.396421
 42
0.013592
  0
VERTEX
  8
0
 10
224.589665
 20
271.844310
 42
0.291094
  0
VERTEX
  8
0
 10
224.000000
 20
270.917292
 42
0.102562
  0
VERTEX
  8
0
 10
224.072563
 20
270.567264
 42
0.098707
  0
VERTEX
  8
0
 10
224.278761
 20
270.269455
 42
0.097077
  0
VERTEX
  8
0
 10
224.586760
 20
270.069911
 42
0.095623
  0
VERTEX
  8
0
 10
224.948973
 20
270.000000
 42
-0.380126
  0
VERTEX
  8
0
 10
225.214670
 20
269.763886
 42
-0.062804
  0
VERTEX
  8
0
 10
225.208947
 20
269.018160
 42
-0.042776
  0
VERTEX
  8
0
 10
224.969373
 20
267.939818
 42
-0.022919
  0
VERTEX
  8
0
 10
224.501389
 20
266.657566
 42
0.031361
  0
VERTEX
  8
0
 10
224.006448
 20
265.226969
 42
0.028144
  0
VERTEX
  8
0
 10
223.672955
 20
263.693218
 42
0.029232
  0
VERTEX
  8
0
 10
223.532164
 20
262.281245
 42
0.074315
  0
VERTEX
  8
0
 10
223.642312
 20
261.259798
 42
-0.061666
  0
VERTEX
  8
0
 10
223.767486
 20
260.321348
 42
-0.036948
  0
VERTEX
  8
0
 10
223.694954
 20
259.197299
 42
-0.036494
  0
VERTEX
  8
0
 10
223.453544
 20
258.071608
 42
-0.051843
  0
VERTEX
  8
0
 10
223.066758
 20
257.124738
 42
0.011811
  0
VERTEX
  8
0
 10
222.465115
 20
255.933772
 42
0.222547
  0
VERTEX
  8
0
 10
222.462586
 20
255.525773
 42
0.363904
  0
VERTEX
  8
0
 10
222.754977
 20
255.387755
 42
0.023233
  0
VERTEX
  8
0
 10
223.726861
 20
255.692071
 42
-0.011157
  0
VERTEX
  8
0
 10
224.813532
 20
256.061365
 42
-0.516038
  0
VERTEX
  8
0
 10
224.973476
 20
255.940402
 42
-0.170708
  0
VERTEX
  8
0
 10
224.847820
 20
255.614171
 42
-0.003502
  0
VERTEX
  8
0
 10
223.684857
 20
254.268843
 42
0.083051
  0
VERTEX
  8
0
 10
222.778098
 20
252.803411
 42
0.230251
  0
VERTEX
  8
0
 10
222.853834
 20
251.625894
 42
0.283017
  0
VERTEX
  8
0
 10
223.769614
 20
251.122809
 42
0.105287
  0
VERTEX
  8
0
 10
225.250000
 20
251.515140
 42
-0.058470
  0
VERTEX
  8
0
 10
225.578103
 20
251.635673
 42
-0.658300
  0
VERTEX
  8
0
 10
225.638224
 20
251.555205
 42
-0.079446
  0
VERTEX
  8
0
 10
225.406832
 20
251.269802
 42
-0.010570
  0
VERTEX
  8
0
 10
224.816296
 20
250.762392
 42
0.059055
  0
VERTEX
  8
0
 10
224.121990
 20
250.037907
 42
0.030534
  0
VERTEX
  8
0
 10
223.428152
 20
248.990594
 42
0.029867
  0
VERTEX
  8
0
 10
222.837874
 20
247.812085
 42
0.039701
  0
VERTEX
  8
0
 10
222.455051
 20
246.676930
 42
0.016212
  0
VERTEX
  8
0
 10
222.128136
 20
245.168938
 42
0.175004
  0
VERTEX
  8
0
 10
222.229262
 20
244.563257
 42
0.306023
  0
VERTEX
  8
0
 10
222.652301
 20
244.351067
 42
0.044874
  0
VERTEX
  8
0
 10
223.638755
 20
244.570331
 42
-0.005115
  0
VERTEX
  8
0
 10
224.769439
 20
244.917835
 42
-0.386085
  0
VERTEX
  8
0
 10
224.927770
 20
244.841555
 42
-0.318179
  0
VERTEX
  8
0
 10
224.883100
 20
244.651777
 42
-0.004390
  0
VERTEX
  8
0
 10
223.938029
 20
243.831635
 42
0.034673
  0
VERTEX
  8
0
 10
223.294547
 20
243.201042
 42
0.023796
  0
VERTEX
  8
0
 10
222.652755
 20
242.405139
 42
0.024058
  0
VERTEX
  8
0
 10
222.105651
 20
241.575379
 42
0.044098
  0
VERTEX
  8
0
 10
221.756035
 20
240.845434
 42
-0.183263
  0
VERTEX
  8
0
 10
221.007644
 20
239.993936
 42
-0.058933
  0
VERTEX
  8
0
 10
219.412519
 20
239.376122
 42
-0.033123
  0
VERTEX
  8
0
 10
216.763982
 20
238.878910
 42
-0.007967
  0
VERTEX
  8
0
 10
212.318006
 20
238.417482
 42
-0.015021
  0
VERTEX
  8
0
 10
203.443272
 20
237.907134
 42
-0.009072
  0
VERTEX
  8
0
 10
192.910083
 20
237.809588
 42
-0.008875
  0
VERTEX
  8
0
 10
182.891285
 20
238.076473
 42
-0.025815
  0
VERTEX
  8
0
 10
176.000000
 20
238.740084
 42
0.015393
  0
VERTEX
  8
0
 10
173.427888
 20
239.041977
 42
0.008019
  0
VERTEX
  8
0
 10
170.206250
 20
239.267916
 42
0.007966
  0
VERTEX
  8
0
 10
166.889294
 20
239.394181
 42
0.012046
  0
VERTEX
  8
0
 10
164.000000
 20
239.388474
 42
-0.001472
  0
VERTEX
  8
0
 10
161.000256
 20
239.319099
 42
-0.000807
  0
VERTEX
  8
0
 10
157.324753
 20
239.250854
 42
-0.000804
  0
VERTEX
  8
0
 10
153.592610
 20
239.193583
 42
-0.001284
  0
VERTEX
  8
0
 10
150.403413
 20
239.157962
 42
0.015038
  0
VERTEX
  8
0
 10
147.490876
 20
239.045264
 42
0.015311
  0
VERTEX
  8
0
 10
144.607895
 20
238.757842
 42
0.015256
  0
VERTEX
  8
0
 10
142.122732
 20
238.355517
 42
0.059198
  0
VERTEX
  8
0
 10
140.639410
 20
237.881566
 42
0.038221
  0
VERTEX
  8
0
 10
139.167282
 20
237.069809
 42
0.152063
  0
VERTEX
  8
0
 10
138.519455
 20
236.282719
 42
0.124387
  0
VERTEX
  8
0
 10
138.363921
 20
235.173667
 42
0.022048
  0
VERTEX
  8
0
 10
138.684713
 20
233.083105
 42
-0.029334
  0
VERTEX
  8
0
 10
138.964415
 20
231.064662
 42
-0.006118
  0
VERTEX
  8
0
 10
139.203135
 20
227.496823
 42
-0.006401
  0
VERTEX
  8
0
 10
139.376753
 20
223.342892
 42
-0.006010
  0
VERTEX
  8
0
 10
139.448716
 20
219.097569
 42
-0.012093
  0
VERTEX
  8
0
 10
139.295461
 20
211.139217
 42
-0.227638
  0
VERTEX
  8
0
 10
138.148530
 20
208.994562
 42
-0.144674
  0
VERTEX
  8
0
 10
135.536899
 20
208.056878
 42
-0.004130
  0
VERTEX
  8
0
 10
123.568457
 20
207.468844
 42
0.006262
  0
VERTEX
  8
0
 10
117.734501
 20
207.157276
 42
0.020618
  0
VERTEX
  8
0
 10
113.903008
 20
206.745309
 42
0.029843
  0
VERTEX
  8
0
 10
111.331825
 20
206.202630
 42
0.117508
  0
VERTEX
  8
0
 10
109.922167
 20
205.429562
 42
-0.023319
  0
VERTEX
  8
0
 10
109.011467
 20
204.679559
 42
-0.135198
  0
VERTEX
  8
0
 10
108.437188
 20
204.454477
 42
-0.237336
  0
VERTEX
  8
0
 10
108.006154
 20
204.617349
 42
-0.082865
  0
VERTEX
  8
0
 10
107.633249
 20
205.188869
 42
0.578252
  0
VERTEX
  8
0
 10
107.441249
 20
205.209974
 42
0.128372
  0
VERTEX
  8
0
 10
107.285150
 20
204.815009
 42
0.030582
  0
VERTEX
  8
0
 10
107.217809
 20
203.691903
 42
0.010721
  0
VERTEX
  8
0
 10
107.254515
 20
202.074992
 42
-0.021273
  0
VERTEX
  8
0
 10
107.257517
 20
200.196324
 42
-0.042258
  0
VERTEX
  8
0
 10
107.071443
 20
198.720342
 42
-0.056349
  0
VERTEX
  8
0
 10
106.727186
 20
197.689974
 42
-0.206361
  0
VERTEX
  8
0
 10
106.224976
 20
197.241659
 42
0.069780
  0
VERTEX
  8
0
 10
105.756704
 20
197.009021
 42
0.065778
  0
VERTEX
  8
0
 10
105.359837
 20
196.652580
 42
0.070236
  0
VERTEX
  8
0
 10
105.091494
 20
196.231525
 42
0.107198
  0
VERTEX
  8
0
 10
105.000000
 20
195.809678
 42
0.173231
  0
VERTEX
  8
0
 10
105.122064
 20
195.467935
 42
0.149708
  0
VERTEX
  8
0
 10
105.440625
 20
195.255805
 42
0.105118
  0
VERTEX
  8
0
 10
105.925812
 20
195.216517
 42
0.059505
  0
VERTEX
  8
0
 10
106.500000
 20
195.361626
 42
-0.055937
  0
VERTEX
  8
0
 10
107.074366
 20
195.511135
 42
-0.100118
  0
VERTEX
  8
0
 10
107.559375
 20
195.483616
 42
-0.147206
  0
VERTEX
  8
0
 10
107.877514
 20
195.289193
 42
-0.184534
  0
VERTEX
  8
0
 10
108.000000
 20
194.968615
 42
-0.196096
  0
VERTEX
  8
0
 10
107.849083
 20
194.598609
 42
-0.086521
  0
VERTEX
  8
0
 10
107.412500
 20
194.284531
 42
-0.066420
  0
VERTEX
  8
0
 10
106.765494
 20
194.071290
 42
-0.046464
  0
VERTEX
  8
0
 10
106.000000
 20
194.000000
 42
0.081356
  0
VERTEX
  8
0
 10
105.050194
 20
193.844425
 42
0.148889
  0
VERTEX
  8
0
 10
104.417277
 20
193.392277
 42
0.115384
  0
VERTEX
  8
0
 10
104.044591
 20
192.569076
 42
0.038705
  0
VERTEX
  8
0
 10
103.888217
 20
191.250000
 42
-0.006697
  0
VERTEX
  8
0
 10
103.818712
 20
189.964587
 42
-0.003430
  0
VERTEX
  8
0
 10
103.698896
 20
188.354346
 42
-0.003407
  0
VERTEX
  8
0
 10
103.552779
 20
186.697220
 42
-0.005122
  0
VERTEX
  8
0
 10
103.400691
 20
185.254158
 42
0.024651
  0
VERTEX
  8
0
 10
103.311340
 20
183.901408
 42
0.064462
  0
VERTEX
  8
0
 10
103.420075
 20
182.935337
 42
0.123101
  0
VERTEX
  8
0
 10
103.706533
 20
182.392806
 42
0.270714
  0
VERTEX
  8
0
 10
104.137474
 20
182.254158
 42
-0.122013
  0
VERTEX
  8
0
 10
104.600571
 20
182.242418
 42
-0.087023
  0
VERTEX
  8
0
 10
105.071461
 20
182.019708
 42
-0.078753
  0
VERTEX
  8
0
 10
105.478283
 20
181.623191
 42
-0.073267
  0
VERTEX
  8
0
 10
105.754732
 20
181.110804
 42
-0.047157
  0
VERTEX
  8
0
 10
105.885466
 20
180.607743
 42
-0.193065
  0
VERTEX
  8
0
 10
105.817530
 20
180.305964
 42
-0.298628
  0
VERTEX
  8
0
 10
105.593468
 20
180.214507
 42
-0.090424
  0
VERTEX
  8
0
 10
105.234517
 20
180.355061
 42
0.129571
  0
VERTEX
  8
0
 10
104.802166
 20
180.486848
 42
0.123995
  0
VERTEX
  8
0
 10
104.353071
 20
180.391798
 42
0.107819
  0
VERTEX
  8
0
 10
103.955450
 20
180.076711
 42
0.080039
  0
VERTEX
  8
0
 10
103.673139
 20
179.590596
 42
0.107923
  0
VERTEX
  8
0
 10
103.225379
 20
176.655644
 42
0.005092
  0
VERTEX
  8
0
 10
103.966672
 20
166.629863
 42
0.008249
  0
VERTEX
  8
0
 10
104.950123
 20
156.875960
 42
0.041362
  0
VERTEX
  8
0
 10
106.037989
 20
151.500000
 42
-0.085948
  0
VERTEX
  8
0
 10
106.100917
 20
150.934708
 42
-0.018029
  0
VERTEX
  8
0
 10
106.004485
 20
149.940233
 42
-0.018405
  0
VERTEX
  8
0
 10
105.805916
 20
148.780140
 42
-0.016506
  0
VERTEX
  8
0
 10
105.516579
 20
147.594409
 42
0.146619
  0
VERTEX
  8
0
 10
105.570458
 20
144.731054
 42
0.229313
  0
VERTEX
  8
0
 10
107.237744
 20
142.979690
 42
0.081861
  0
VERTEX
  8
0
 10
111.345153
 20
142.165031
 42
0.010857
  0
VERTEX
  8
0
 10
120.231882
 20
142.069704
 42
0.006424
  0
VERTEX
  8
0
 10
124.744145
 20
142.177269
 42
0.010667
  0
VERTEX
  8
0
 10
128.543115
 20
142.397906
 42
0.004495
  0
VERTEX
  8
0
 10
131.702757
 20
142.677740
 42
0.385987
  0
VERTEX
  8
0
 10
132.000000
 20
143.005417
 42
-0.363667
  0
VERTEX
  8
0
 10
132.185108
 20
143.226260
 42
-0.079442
  0
VERTEX
  8
0
 10
132.720732
 20
143.235396
 42
-0.049166
  0
VERTEX
  8
0
 10
133.512173
 20
143.041928
 42
-0.025574
  0
VERTEX
  8
0
 10
134.453554
 20
142.655915
 42
-0.158214
  0
VERTEX
  8
0
 10
136.537205
 20
140.698759
 42
-0.083756
  0
VERTEX
  8
0
 10
137.717201
 20
137.317246
 42
-0.050072
  0
VERTEX
  8
0
 10
138.074720
 20
132.110879
 42
-0.015538
  0
VERTEX
  8
0
 10
137.583483
 20
124.270371
 42
-0.022783
  0
VERTEX
  8
0
 10
137.457488
 20
123.371109
 42
-0.024806
  0
VERTEX
  8
0
 10
137.252526
 20
122.512632
 42
-0.025317
  0
VERTEX
  8
0
 10
137.005225
 20
121.801303
 42
-0.100382
  0
VERTEX
  8
0
 10
136.750882
 20
121.417548
 42
0.165899
  0
VERTEX
  8
0
 10
136.562165
 20
121.033365
 42
0.044957
  0
VERTEX
  8
0
 10
136.536101
 20
120.346684
 42
0.040350
  0
VERTEX
  8
0
 10
136.647026
 20
119.514884
 42
0.032491
  0
VERTEX
  8
0
 10
136.894838
 20
118.647177
 42
-0.038728
  0
VERTEX
  8
0
 10
137.181184
 20
117.595087
 42
-0.017296
  0
VERTEX
  8
0
 10
137.401097
 20
116.175830
 42
-0.017001
  0
VERTEX
  8
0
 10
137.531227
 20
114.651116
 42
-0.022090
  0
VERTEX
  8
0
 10
137.540999
 20
113.249265
 42
0.020302
  0
VERTEX
  8
0
 10
137.546478
 20
111.636037
 42
0.107983
  0
VERTEX
  8
0
 10
137.771134
 20
110.788550
 42
0.230846
  0
VERTEX
  8
0
 10
138.233292
 20
110.442441
 42
0.124386
  0
VERTEX
  8
0
 10
138.960005
 20
110.484965
 42
-0.030044
  0
VERTEX
  8
0
 10
141.673798
 20
111.166011
 42
-0.010562
  0
VERTEX
  8
0
 10
145.637128
 20
111.824679
 42
-0.010081
  0
VERTEX
  8
0
 10
149.564409
 20
112.311784
 42
-0.039695
  0
VERTEX
  8
0
 10
152.000000
 20
112.369983
 42
0.000252
  0
VERTEX
  8
0
 10
153.555066
 20
112.284439
 42
0.000028
  0
VERTEX
  8
0
 10
157.120073
 20
112.090330
 42
0.000034
  0
VERTEX
  8
0
 10
161.363733
 20
111.859793
 42
0.000027
  0
VERTEX
  8
0
 10
165.919398
 20
111.612866
 42
-0.003838
  0
VERTEX
  8
0
 10
170.332261
 20
111.339935
 42
-0.005975
  0
VERTEX
  8
0
 10
174.130421
 20
111.030098
 42
-0.002111
  0
VERTEX
  8
0
 10
177.385147
 20
110.711535
 42
-0.172586
  0
VERTEX
  8
0
 10
177.836065
 20
110.497268
 42
-0.390956
  0
VERTEX
  8
0
 10
177.843557
 20
110.310195
 42
-0.137324
  0
VERTEX
  8
0
 10
177.599761
 20
110.146073
 42
-0.056482
  0
VERTEX
  8
0
 10
177.067744
 20
110.034498
 42
-0.023474
  0
VERTEX
  8
0
 10
176.333333
 20
110.000000
 42
0.033666
  0
VERTEX
  8
0
 10
175.512649
 20
109.944679
 42
0.032922
  0
VERTEX
  8
0
 10
174.700521
 20
109.779687
 42
0.034745
  0
VERTEX
  8
0
 10
174.009370
 20
109.538529
 42
0.095343
  0
VERTEX
  8
0
 10
173.583333
 20
109.250000
 42
-0.062420
  0
VERTEX
  8
0
 10
172.971025
 20
108.774078
 42
-0.069429
  0
VERTEX
  8
0
 10
172.281235
 20
108.484547
 42
-0.038874
  0
VERTEX
  8
0
 10
171.255112
 20
108.296698
 42
-0.007123
  0
VERTEX
  8
0
 10
169.333333
 20
108.125000
 42
0.036326
  0
VERTEX
  8
0
 10
168.733769
 20
108.035929
 42
0.091584
  0
VERTEX
  8
0
 10
168.329344
 20
107.863624
 42
0.203021
  0
VERTEX
  8
0
 10
168.183721
 20
107.643656
 42
0.247257
  0
VERTEX
  8
0
 10
168.255924
 20
107.410742
 42
0.181224
  0
VERTEX
  8
0
 10
169.957153
 20
106.637019
 42
0.011659
  0
VERTEX
  8
0
 10
175.493994
 20
106.387884
 42
0.018025
  0
VERTEX
  8
0
 10
181.205072
 20
106.470118
 42
0.040460
  0
VERTEX
  8
0
 10
185.500000
 20
107.037389
 42
-0.000455
  0
VERTEX
  8
0
 10
187.571240
 20
107.481640
 42
-0.000445
  0
VERTEX
  8
0
 10
189.659963
 20
107.925710
 42
-0.000438
  0
VERTEX
  8
0
 10
191.494934
 20
108.312449
 42
-0.001670
  0
VERTEX
  8
0
 10
192.640300
 20
108.548809
 42
-0.079212
  0
VERTEX
  8
0
 10
193.780406
 20
108.596804
 42
-0.186207
  0
VERTEX
  8
0
 10
194.522267
 20
108.206598
 42
-0.110654
  0
VERTEX
  8
0
 10
195.046597
 20
107.242172
 42
-0.019872
  0
VERTEX
  8
0
 10
195.531568
 20
105.241519
 42
-0.022007
  0
VERTEX
  8
0
 10
196.490788
 20
99.065098
 42
-0.017324
  0
VERTEX
  8
0
 10
197.000994
 20
92.313126
 42
-0.012940
  0
VERTEX
  8
0
 10
197.091841
 20
86.215460
 42
-0.136487
  0
VERTEX
  8
0
 10
196.404490
 20
83.845462
 42
-0.178617
  0
VERTEX
  8
0
 10
195.982094
 20
83.515116
 42
-0.045095
  0
VERTEX
  8
0
 10
195.116589
 20
83.321497
 42
-0.040269
  0
VERTEX
  8
0
 10
194.021595
 20
83.267295
 42
-0.031330
  0
VERTEX
  8
0
 10
192.834162
 20
83.378856
 42
0.018324
  0
VERTEX
  8
0
 10
191.347595
 20
83.557611
 42
0.114275
  0
VERTEX
  8
0
 10
190.593902
 20
83.447911
 42
0.278970
  0
VERTEX
  8
0
 10
190.306888
 20
83.073939
 42
0.119791
  0
VERTEX
  8
0
 10
190.390371
 20
82.425094
 42
-0.067812
  0
VERTEX
  8
0
 10
190.518571
 20
81.879998
 42
-0.115600
  0
VERTEX
  8
0
 10
190.456091
 20
81.418621
 42
-0.152462
  0
VERTEX
  8
0
 10
190.216666
 20
81.114776
 42
-0.151348
  0
VERTEX
  8
0
 10
189.846170
 20
81.000000
 42
0.113011
  0
VERTEX
  8
0
 10
189.440781
 20
80.907187
 42
0.301133
  0
VERTEX
  8
0
 10
189.296381
 20
80.663910
 42
0.135731
  0
VERTEX
  8
0
 10
189.434045
 20
80.247288
 42
0.025950
  0
VERTEX
  8
0
 10
189.915167
 20
79.602218
 42
0.107096
  0
VERTEX
  8
0
 10
190.601095
 20
79.064689
 42
0.052490
  0
VERTEX
  8
0
 10
191.650299
 20
78.685940
 42
0.046437
  0
VERTEX
  8
0
 10
192.922439
 20
78.495318
 42
0.038871
  0
VERTEX
  8
0
 10
194.287611
 20
78.525046
 42
-0.020012
  0
VERTEX
  8
0
 10
198.451571
 20
78.772915
 42
-0.002111
  0
VERTEX
  8
0
 10
208.192604
 20
78.921158
 42
-0.001078
  0
VERTEX
  8
0
 10
225.726026
 20
79.076157
 42
-0.000088
  0
VERTEX
  8
0
 10
271.500000
 20
79.374052
 42
-0.002514
  0
VERTEX
  8
0
 10
276.884403
 20
79.381068
 42
-0.000641
  0
VERTEX
  8
0
 10
285.612500
 20
79.337375
 42
-0.000653
  0
VERTEX
  8
0
 10
295.578125
 20
79.261707
 42
-0.000661
  0
VERTEX
  8
0
 10
305.500000
 20
79.160288
 42
0.004668
  0
VERTEX
  8
0
 10
323.807867
 20
79.119868
 42
0.007722
  0
VERTEX
  8
0
 10
339.260423
 20
79.468714
 42
0.003430
  0
VERTEX
  8
0
 10
352.158972
 20
80.047909
 42
0.181360
  0
VERTEX
  8
0
 10
354.391637
 20
81.019764
 42
0.198985
  0
VERTEX
  8
0
 10
354.640782
 20
81.595225
 42
0.048730
  0
VERTEX
  8
0
 10
354.554836
 20
82.645656
 42
0.040546
  0
VERTEX
  8
0
 10
354.202207
 20
83.970866
 42
0.025493
  0
VERTEX
  8
0
 10
353.589464
 20
85.452711
 42
-0.020288
  0
VERTEX
  8
0
 10
352.980317
 20
86.883514
 42
-0.026985
  0
VERTEX
  8
0
 10
352.551894
 20
88.230381
 42
-0.026408
  0
VERTEX
  8
0
 10
352.323594
 20
89.349684
 42
-0.177318
  0
VERTEX
  8
0
 10
352.435852
 20
89.896206
 42
0.139279
  0
VERTEX
  8
0
 10
352.582986
 20
90.414120
 42
0.029928
  0
VERTEX
  8
0
 10
352.526635
 20
91.355063
 42
0.029077
  0
VERTEX
  8
0
 10
352.325533
 20
92.474235
 42
0.024181
  0
VERTEX
  8
0
 10
351.986327
 20
93.635131
 42
-0.045567
  0
VERTEX
  8
0
 10
351.587364
 20
95.254484
 42
-0.010021
  0
VERTEX
  8
0
 10
351.214397
 20
98.097348
 42
-0.010347
  0
VERTEX
  8
0
 10
350.916048
 20
101.413907
 42
-0.009782
  0
VERTEX
  8
0
 10
350.748303
 20
104.802648
 42
-0.003979
  0
VERTEX
  8
0
 10
350.633893
 20
110.016565
 42
-0.059280
  0
VERTEX
  8
0
 10
350.823705
 20
111.827381
 42
-0.256514
  0
VERTEX
  8
0
 10
351.417240
 20
112.497238
 42
-0.156928
  0
VERTEX
  8
0
 10
352.500000
 20
112.532133
 42
0.041536
  0
VERTEX
  8
0
 10
358.235351
 20
111.392921
 42
0.012599
  0
VERTEX
  8
0
 10
367.075798
 20
110.614226
 42
0.011544
  0
VERTEX
  8
0
 10
377.812041
 20
110.189150
 42
0.008204
  0
VERTEX
  8
0
 10
389.858592
 20
110.188217
 42
0.006286
  0
VERTEX
  8
0
 10
404.793573
 20
110.619986
 42
0.094592
  0
VERTEX
  8
0
 10
409.835066
 20
111.800927
 42
0.213434
  0
VERTEX
  8
0
 10
412.330522
 20
114.580885
 42
0.051751
  0
VERTEX
  8
0
 10
413.633640
 20
120.768962
 42
0.010425
  0
VERTEX
  8
0
 10
413.871602
 20
123.619235
 42
0.034377
  0
VERTEX
  8
0
 10
413.859762
 20
125.504002
 42
0.057682
  0
VERTEX
  8
0
 10
413.638469
 20
126.653132
 42
0.327319
  0
VERTEX
  8
0
 10
413.165375
 20
127.000000
 42
-0.269172
  0
VERTEX
  8
0
 10
412.727738
 20
127.254003
 42
-0.065590
  0
VERTEX
  8
0
 10
412.399283
 20
128.057523
 42
-0.047479
  0
VERTEX
  8
0
 10
412.203250
 20
129.255756
 42
-0.025741
  0
VERTEX
  8
0
 10
412.179626
 20
130.750000
 42
0.018333
  0
VERTEX
  8
0
 10
412.177765
 20
132.608938
 42
0.007045
  0
VERTEX
  8
0
 10
412.044138
 20
135.188654
 42
0.006964
  0
VERTEX
  8
0
 10
411.820499
 20
137.986264
 42
0.008516
  0
VERTEX
  8
0
 10
411.530519
 20
140.594354
 42
0.000000
  0
VERTEX
  8
0
 10
410.747624
 20
146.688709
 42
0.000000
  0
VERTEX
  8
0
 10
417.020503
 20
147.344354
 42
-0.008312
  0
VERTEX
  8
0
 10
419.886351
 20
147.595814
 42
-0.004821
  0
VERTEX
  8
0
 10
423.336320
 20
147.807404
 42
-0.004817
  0
VERTEX
  8
0
 10
426.800379
 20
147.952903
 42
-0.008086
  0
VERTEX
  8
0
 10
429.712433
 20
148.000000
 42
0.021030
  0
VERTEX
  8
0
 10
435.631830
 20
148.249074
 42
0.144107
  0
VERTEX
  8
0
 10
438.321649
 20
149.293435
 42
0.189367
  0
VERTEX
  8
0
 10
439.630653
 20
151.477670
 42
0.041424
  0
VERTEX
  8
0
 10
440.000000
 20
155.928195
 42
0.014499
  0
VERTEX
  8
0
 10
439.923365
 20
158.570369
 42
0.037076
  0
VERTEX
  8
0
 10
439.671312
 20
160.467145
 42
0.053240
  0
VERTEX
  8
0
 10
439.262099
 20
161.733252
 42
0.198913
  0
VERTEX
  8
0
 10
438.667553
 20
162.297330
 42
-0.201430
  0
VERTEX
  8
0
 10
438.070694
 20
162.869118
 42
-0.044924
  0
VERTEX
  8
0
 10
437.617699
 20
164.238275
 42
-0.033839
  0
VERTEX
  8
0
 10
437.290248
 20
166.240859
 42
-0.014590
  0
VERTEX
  8
0
 10
437.113803
 20
168.941213
 42
0.000000
  0
VERTEX
  8
0
 10
436.892501
 20
175.073787
 42
0.000000
  0
VERTEX
  8
0
 10
451.696250
 20
175.000586
 42
0.005439
  0
VERTEX
  8
0
 10
457.584564
 20
175.035519
 42
0.006854
  0
VERTEX
  8
0
 10
463.032649
 20
175.201835
 42
0.005565
  0
VERTEX
  8
0
 10
467.587159
 20
175.454214
 42
0.053308
  0
VERTEX
  8
0
 10
469.500000
 20
175.788482
 42
0.000000
  0
VERTEX
  8
0
 10
472.500000
 20
176.649581
 42
0.000000
  0
VERTEX
  8
0
 10
472.176677
 20
195.574790
 42
0.000163
  0
VERTEX
  8
0
 10
472.043513
 20
203.223714
 42
0.000184
  0
VERTEX
  8
0
 10
471.910766
 20
210.556345
 42
0.000167
  0
VERTEX
  8
0
 10
471.793589
 20
216.786625
 42
0.001026
  0
VERTEX
  8
0
 10
471.725477
 20
220.000000
 42
-0.010989
  0
VERTEX
  8
0
 10
471.722572
 20
222.289067
 42
-0.010397
  0
VERTEX
  8
0
 10
471.819314
 20
224.618750
 42
-0.010409
  0
VERTEX
  8
0
 10
471.990728
 20
226.676414
 42
-0.035455
  0
VERTEX
  8
0
 10
472.224491
 20
228.000000
 42
0.004790
  0
VERTEX
  8
0
 10
472.469934
 20
229.020141
 42
0.005188
  0
VERTEX
  8
0
 10
472.689060
 20
230.018044
 42
0.004900
  0
VERTEX
  8
0
 10
472.859571
 20
230.876925
 42
0.024984
  0
VERTEX
  8
0
 10
472.925690
 20
231.359300
 42
-0.369417
  0
VERTEX
  8
0
 10
473.247221
 20
231.675349
 42
-0.011287
  0
VERTEX
  8
0
 10
475.254734
 20
231.768752
 42
-0.017204
  0
VERTEX
  8
0
 10
477.773248
 20
231.742349
 42
-0.010405
  0
VERTEX
  8
0
 10
480.750000
 20
231.546505
 42
0.006970
  0
VERTEX
  8
0
 10
488.681725
 20
230.969918
 42
0.012573
  0
VERTEX
  8
0
 10
495.194446
 20
230.751782
 42
0.008472
  0
VERTEX
  8
0
 10
500.364387
 20
230.796281
 42
0.192280
  0
VERTEX
  8
0
 10
501.705154
 20
231.371821
 42
0.166013
  0
VERTEX
  8
0
 10
502.040125
 20
232.054127
 42
0.004243
  0
VERTEX
  8
0
 10
502.452040
 20
235.503290
 42
0.008589
  0
VERTEX
  8
0
 10
502.835791
 20
239.609019
 42
0.005703
  0
VERTEX
  8
0
 10
503.141239
 20
244.329893
 42
-0.006186
  0
VERTEX
  8
0
 10
503.466480
 20
249.282534
 42
-0.006680
  0
VERTEX
  8
0
 10
503.907578
 20
254.100031
 42
-0.006340
  0
VERTEX
  8
0
 10
504.393221
 20
258.219523
 42
-0.031714
  0
VERTEX
  8
0
 10
504.839929
 20
260.500000
 42
0.047802
  0
VERTEX
  8
0
 10
505.620327
 20
265.295812
 42
0.005439
  0
VERTEX
  8
0
 10
506.223393
 20
276.269253
 42
0.001969
  0
VERTEX
  8
0
 10
506.697011
 20
288.078419
 42
0.208323
  0
VERTEX
  8
0
 10
506.119510
 20
289.547156
 42
-0.141829
  0
VERTEX
  8
0
 10
505.551465
 20
290.578068
 42
-0.028819
  0
VERTEX
  8
0
 10
505.206811
 20
292.657889
 42
-0.019749
  0
VERTEX
  8
0
 10
504.993262
 20
295.835309
 42
-0.005387
  0
VERTEX
  8
0
 10
504.908559
 20
300.863937
 42
0.011076
  0
VERTEX
  8
0
 10
504.823970
 20
303.860413
 42
0.011956
  0
VERTEX
  8
0
 10
504.607093
 20
306.774603
 42
0.011533
  0
VERTEX
  8
0
 10
504.304233
 20
309.259968
 42
0.054804
  0
VERTEX
  8
0
 10
503.945059
 20
310.644506
 42
-0.078019
  0
VERTEX
  8
0
 10
503.576723
 20
312.393211
 42
-0.003077
  0
VERTEX
  8
0
 10
503.276646
 20
318.951648
 42
-0.005382
  0
VERTEX
  8
0
 10
503.052062
 20
326.746434
 42
-0.003771
  0
VERTEX
  8
0
 10
502.959844
 20
335.530570
 42
0.000000
  0
VERTEX
  8
0
 10
502.893431
 20
358.000000
 42
0.000000
  0
VERTEX
  8
0
 10
491.107231
 20
358.000000
 42
-0.003116
  0
VERTEX
  8
0
 10
483.397017
 20
358.048058
 42
-0.045478
  0
VERTEX
  8
0
 10
480.692045
 20
358.328642
 42
-0.138128
  0
VERTEX
  8
0
 10
479.234005
 20
359.067025
 42
-0.100330
  0
VERTEX
  8
0
 10
478.160515
 20
360.547053
 42
-0.056539
  0
VERTEX
  8
0
 10
477.712504
 20
361.923966
 42
-0.016725
  0
VERTEX
  8
0
 10
477.340901
 20
364.112830
 42
-0.016555
  0
VERTEX
  8
0
 10
477.085314
 20
366.619461
 42
-0.017128
  0
VERTEX
  8
0
 10
477.000000
 20
369.109156
 42
0.036819
  0
VERTEX
  8
0
 10
476.611731
 20
374.374623
 42
0.031697
  0
VERTEX
  8
0
 10
475.451314
 20
379.803429
 42
0.032725
  0
VERTEX
  8
0
 10
473.780442
 20
384.536224
 42
0.088637
  0
VERTEX
  8
0
 10
471.831796
 20
387.500000
 42
0.112363
  0
VERTEX
  8
0
 10
470.171059
 20
388.608534
 42
0.062788
  0
VERTEX
  8
0
 10
467.798838
 20
389.187492
 42
0.025599
  0
VERTEX
  8
0
 10
463.687840
 20
389.445922
 42
0.002898
  0
VERTEX
  8
0
 10
454.358972
 20
389.500000
 42
0.000000
  0
VERTEX
  8
0
 10
438.781096
 20
389.500000
 42
0.000000
  0
VERTEX
  8
0
 10
438.441926
 20
394.500000
 42
0.011232
  0
VERTEX
  8
0
 10
438.224123
 20
396.908306
 42
0.004929
  0
VERTEX
  8
0
 10
437.832670
 20
400.087500
 42
0.004875
  0
VERTEX
  8
0
 10
437.350949
 20
403.454209
 42
0.006508
  0
VERTEX
  8
0
 10
436.844144
 20
406.500000
 42
-0.028447
  0
VERTEX
  8
0
 10
436.019690
 20
413.279081
 42
-0.010669
  0
VERTEX
  8
0
 10
435.609912
 20
422.845902
 42
-0.010152
  0
VERTEX
  8
0
 10
435.598951
 20
432.243471
 42
-0.039283
  0
VERTEX
  8
0
 10
436.166900
 20
438.040487
 42
0.043269
  0
VERTEX
  8
0
 10
436.320458
 20
439.747784
 42
0.019488
  0
VERTEX
  8
0
 10
436.239973
 20
441.997813
 42
0.019124
  0
VERTEX
  8
0
 10
435.969443
 20
444.382319
 42
0.024717
  0
VERTEX
  8
0
 10
435.530531
 20
446.540487
 42
0.000000
  0
VERTEX
  8
0
 10
434.263844
 20
451.500000
 42
0.000000
  0
VERTEX
  8
0
 10
423.216561
 20
451.500000
 42
-0.005811
  0
VERTEX
  8
0
 10
418.933000
 20
451.549783
 42
-0.008821
  0
VERTEX
  8
0
 10
415.212039
 20
451.701995
 42
-0.004249
  0
VERTEX
  8
0
 10
412.081028
 20
451.912160
 42
-0.179111
  0
VERTEX
  8
0
 10
411.480331
 20
452.187642
 42
-0.169081
  0
VERTEX
  8
0
 10
411.199246
 20
452.767525
 42
-0.006052
  0
VERTEX
  8
0
 10
410.938239
 20
455.261919
 42
-0.010549
  0
VERTEX
  8
0
 10
410.724765
 20
458.261051
 42
-0.007129
  0
VERTEX
  8
0
 10
410.602370
 20
461.687642
 42
0.024225
  0
VERTEX
  8
0
 10
410.149599
 20
468.155782
 42
0.071972
  0
VERTEX
  8
0
 10
409.000967
 20
472.438713
 42
0.109584
  0
VERTEX
  8
0
 10
407.035684
 20
475.168321
 42
0.114130
  0
VERTEX
  8
0
 10
404.127294
 20
476.761745
 42
0.059568
  0
VERTEX
  8
0
 10
402.320631
 20
477.043923
 42
0.003414
  0
VERTEX
  8
0
 10
396.690518
 20
477.207882
 42
0.005170
  0
VERTEX
  8
0
 10
389.969409
 20
477.288171
 42
0.003772
  0
VERTEX
  8
0
 10
382.500000
 20
477.243809
 42
-0.006703
  0
VERTEX
  8
0
 10
369.056087
 20
477.242778
 42
-0.034845
  0
VERTEX
  8
0
 10
361.666823
 20
477.857431
 42
-0.072431
  0
VERTEX
  8
0
 10
357.463686
 20
479.145013
 42
-0.220133
  0
VERTEX
  8
0
 10
355.595493
 20
481.383051
 42
-0.051883
  0
VERTEX
  8
0
 10
355.370765
 20
482.788599
 42
-0.003955
  0
VERTEX
  8
0
 10
355.190202
 20
486.630729
 42
-0.005405
  0
VERTEX
  8
0
 10
355.060346
 20
491.227533
 42
-0.004091
  0
VERTEX
  8
0
 10
355.013655
 20
496.274751
 42
0.000000
  0
VERTEX
  8
0
 10
355.000000
 20
509.049502
 42
0.000000
  0
VERTEX
  8
0
 10
352.340190
 20
510.060760
 42
0.066197
  0
VERTEX
  8
0
 10
350.733842
 20
510.438775
 42
0.010485
  0
VERTEX
  8
0
 10
347.497706
 20
510.691545
 42
0.011471
  0
VERTEX
  8
0
 10
343.648336
 20
510.822623
 42
0.009808
  0
VERTEX
  8
0
 10
339.590190
 20
510.788050
 42
-0.007143
  0
VERTEX
  8
0
 10
335.107744
 20
510.725961
 42
-0.004748
  0
VERTEX
  8
0
 10
329.967118
 20
510.777012
 42
-0.004780
  0
VERTEX
  8
0
 10
324.977377
 20
510.921684
 42
-0.009303
  0
VERTEX
  8
0
 10
321.000000
 20
511.149239
 42
0.013894
  0
VERTEX
  8
0
 10
317.270772
 20
511.328263
 42
0.009893
  0
VERTEX
  8
0
 10
313.087500
 20
511.329919
 42
0.009999
  0
VERTEX
  8
0
 10
309.093918
 20
511.172544
 42
0.020913
  0
SEQEND
  0
POLYLINE
  8
0
 66
1
 70
1
  0
VERTEX
  8
0
 10
336.250000
 20
505.430359
 42
-0.002942
  0
VERTEX
  8
0
 10
343.860840
 20
504.930538
 42
-0.045984
  0
VERTEX
  8
0
 10
346.433176
 20
504.506528
 42
-0.175702
  0
VERTEX
  8
0
 10
347.563135
 20
503.728292
 42
-0.156207
  0
VERTEX
  8
0
 10
348.000000
 20
502.364064
 42
0.050805
  0
VERTEX
  8
0
 10
348.092378
 20
501.457268
 42
0.069631
  0
VERTEX
  8
0
 10
348.367188
 20
500.685511
 42
0.088500
  0
VERTEX
  8
0
 10
348.772697
 20
500.160486
 42
0.179975
  0
VERTEX
  8
0
 10
349.250000
 20
499.969591
 42
-0.130551
  0
VERTEX
  8
0
 10
349.583624
 20
499.872226
 42
-0.379442
  0
VERTEX
  8
0
 10
349.649350
 20
499.661163
 42
-0.127877
  0
VERTEX
  8
0
 10
349.389192
 20
499.338001
 42
-0.027719
  0
VERTEX
  8
0
 10
348.785986
 20
498.940040
 42
0.069451
  0
VERTEX
  8
0
 10
348.032735
 20
498.347614
 42
0.121091
  0
VERTEX
  8
0
 10
347.636932
 20
497.663736
 42
0.107737
  0
VERTEX
  8
0
 10
347.578353
 20
496.816158
 42
0.047625
  0
VERTEX
  8
0
 10
347.847443
 20
495.720449
 42
-0.025117
  0
VERTEX
  8
0
 10
348.140088
 20
494.724437
 42
-0.016991
  0
VERTEX
  8
0
 10
348.377066
 20
493.564757
 42
-0.017146
  0
VERTEX
  8
0
 10
348.529839
 20
492.425505
 42
-0.032445
  0
VERTEX
  8
0
 10
348.561457
 20
491.500000
 42
0.043406
  0
VERTEX
  8
0
 10
348.607178
 20
490.684969
 42
0.043330
  0
VERTEX
  8
0
 10
348.792914
 20
489.889576
 42
0.046916
  0
VERTEX
  8
0
 10
349.080888
 20
489.226597
 42
0.111250
  0
VERTEX
  8
0
 10
349.435698
 20
488.826215
 42
-0.173261
  0
VERTEX
  8
0
 10
349.705562
 20
488.434788
 42
-0.111873
  0
VERTEX
  8
0
 10
349.726510
 20
487.878877
 42
-0.080630
  0
VERTEX
  8
0
 10
349.485045
 20
487.209213
 42
-0.046470
  0
VERTEX
  8
0
 10
349.000000
 20
486.500000
 42
0.026703
  0
VERTEX
  8
0
 10
348.305976
 20
485.566549
 42
0.153960
  0
VERTEX
  8
0
 10
348.137771
 20
484.982513
 42
0.198841
  0
VERTEX
  8
0
 10
348.355491
 20
484.491904
 42
0.049139
  0
VERTEX
  8
0
 10
349.064302
 20
483.939097
 42
-0.014385
  0
VERTEX
  8
0
 10
349.813799
 20
483.434072
 42
-0.330568
  0
VERTEX
  8
0
 10
349.888239
 20
483.202142
 42
-0.304309
  0
VERTEX
  8
0
 10
349.686450
 20
483.048091
 42
-0.013120
  0
VERTEX
  8
0
 10
348.750000
 20
483.015313
 42
0.127599
  0
VERTEX
  8
0
 10
347.904082
 20
482.787945
 42
0.160507
  0
VERTEX
  8
0
 10
347.362390
 20
482.190018
 42
0.085351
  0
VERTEX
  8
0
 10
347.076722
 20
481.059488
 42
0.019306
  0
VERTEX
  8
0
 10
347.000000
 20
479.073242
 42
0.143160
  0
VERTEX
  8
0
 10
348.100731
 20
475.307637
 42
0.178222
  0
VERTEX
  8
0
 10
350.985721
 20
473.117733
 42
0.066443
  0
VERTEX
  8
0
 10
357.013586
 20
472.121136
 42
0.008151
  0
VERTEX
  8
0
 10
370.404015
 20
471.922166
 42
0.005783
  0
VERTEX
  8
0
 10
377.175657
 20
472.010260
 42
0.007611
  0
VERTEX
  8
0
 10
383.348930
 20
472.256057
 42
0.006256
  0
VERTEX
  8
0
 10
388.464057
 20
472.601992
 42
0.059755
  0
VERTEX
  8
0
 10
390.605046
 20
473.034668
 42
-0.027718
  0
VERTEX
  8
0
 10
392.230632
 20
473.472951
 42
-0.050761
  0
VERTEX
  8
0
 10
393.593960
 20
473.618692
 42
-0.060423
  0
VERTEX
  8
0
 10
394.785230
 20
473.480319
 42
-0.063852
  0
VERTEX
  8
0
 10
395.885290
 20
473.061391
 42
0.035894
  0
VERTEX
  8
0
 10
396.796874
 20
472.654697
 42
0.023255
  0
VERTEX
  8
0
 10
397.900026
 20
472.311784
 42
0.023379
  0
VERTEX
  8
0
 10
399.014806
 20
472.076354
 42
0.040367
  0
VERTEX
  8
0
 10
399.959009
 20
472.000000
 42
-0.181643
  0
VERTEX
  8
0
 10
401.550626
 20
471.402058
 42
-0.092827
  0
VERTEX
  8
0
 10
402.889634
 20
469.701250
 42
-0.086491
  0
VERTEX
  8
0
 10
403.591707
 20
467.503908
 42
-0.126446
  0
VERTEX
  8
0
 10
403.360072
 20
465.495949
 42
0.080726
  0
VERTEX
  8
0
 10
403.218376
 20
464.815495
 42
0.056163
  0
VERTEX
  8
0
 10
403.271812
 20
464.030973
 42
0.055478
  0
VERTEX
  8
0
 10
403.500792
 20
463.266601
 42
0.072834
  0
VERTEX
  8
0
 10
403.879448
 20
462.645256
 42
-0.031085
  0
VERTEX
  8
0
 10
404.272833
 20
462.106368
 42
-0.045940
  0
VERTEX
  8
0
 10
404.541188
 20
461.586609
 42
-0.056188
  0
VERTEX
  8
0
 10
404.661630
 20
461.155668
 42
-0.238192
  0
VERTEX
  8
0
 10
404.583004
 20
460.907991
 42
0.146660
  0
VERTEX
  8
0
 10
404.403991
 20
460.567324
 42
0.005167
  0
VERTEX
  8
0
 10
404.131507
 20
459.088742
 42
0.009194
  0
VERTEX
  8
0
 10
403.856961
 20
457.314504
 42
0.006261
  0
VERTEX
  8
0
 10
403.607196
 20
455.287725
 42
0.017093
  0
VERTEX
  8
0
 10
403.381871
 20
452.325096
 42
0.066496
  0
VERTEX
  8
0
 10
403.548766
 20
450.497562
 42
0.084011
  0
VERTEX
  8
0
 10
404.165895
 20
449.002589
 42
0.037814
  0
VERTEX
  8
0
 10
405.428655
 20
447.287725
 42
0.039450
  0
VERTEX
  8
0
 10
406.947542
 20
445.780247
 42
0.094102
  0
VERTEX
  8
0
 10
408.325160
 20
445.000380
 42
0.072648
  0
VERTEX
  8
0
 10
410.107558
 20
444.671568
 42
0.016856
  0
VERTEX
  8
0
 10
413.163139
 20
444.660337
 42
0.008655
  0
VERTEX
  8
0
 10
415.508171
 20
444.771444
 42
0.006056
  0
VERTEX
  8
0
 10
418.146356
 20
444.974364
 42
0.006111
  0
VERTEX
  8
0
 10
420.670319
 20
445.230408
 42
0.012646
  0
VERTEX
  8
0
 10
422.632965
 20
445.504211
 42
-0.020790
  0
VERTEX
  8
0
 10
424.425947
 20
445.724645
 42
-0.041246
  0
VERTEX
  8
0
 10
425.857138
 20
445.722224
 42
-0.054484
  0
VERTEX
  8
0
 10
426.897090
 20
445.518987
 42
-0.180772
  0
VERTEX
  8
0
 10
427.438873
 20
445.098906
 42
-0.121846
  0
VERTEX
  8
0
 10
427.711444
 20
444.251139
 42
-0.003500
  0
VERTEX
  8
0
 10
427.946668
 20
440.436245
 42
-0.006891
  0
VERTEX
  8
0
 10
428.131315
 20
435.913080
 42
-0.004666
  0
VERTEX
  8
0
 10
428.222554
 20
430.755031
 42
0.005572
  0
VERTEX
  8
0
 10
428.326924
 20
425.403146
 42
0.006351
  0
VERTEX
  8
0
 10
428.548977
 20
420.283484
 42
0.005800
  0
VERTEX
  8
0
 10
428.842839
 20
415.946062
 42
0.035193
  0
VERTEX
  8
0
 10
429.178276
 20
413.720658
 42
-0.013257
  0
VERTEX
  8
0
 10
430.018711
 20
409.430538
 42
-0.018176
  0
VERTEX
  8
0
 10
430.530909
 20
405.530701
 42
-0.015117
  0
VERTEX
  8
0
 10
430.815133
 20
401.096626
 42
-0.006010
  0
VERTEX
  8
0
 10
430.947824
 20
395.000000
 42
0.009803
  0
VERTEX
  8
0
 10
431.046488
 20
391.638906
 42
0.012793
  0
VERTEX
  8
0
 10
431.275563
 20
388.571261
 42
0.010416
  0
VERTEX
  8
0
 10
431.583337
 20
386.039072
 42
0.105967
  0
VERTEX
  8
0
 10
431.947256
 20
385.051101
 42
0.198634
  0
VERTEX
  8
0
 10
433.350696
 20
384.060658
 42
0.047318
  0
VERTEX
  8
0
 10
436.245160
 20
383.688638
 42
0.022599
  0
VERTEX
  8
0
 10
441.297214
 20
383.748906
 42
0.003329
  0
VERTEX
  8
0
 10
451.500000
 20
384.400505
 42
-0.013001
  0
VERTEX
  8
0
 10
459.719050
 20
384.765974
 42
-0.059030
  0
VERTEX
  8
0
 10
464.480292
 20
384.290721
 42
-0.134125
  0
VERTEX
  8
0
 10
466.993337
 20
382.969374
 42
-0.217589
  0
VERTEX
  8
0
 10
467.898078
 20
380.778125
 42
0.032054
  0
VERTEX
  8
0
 10
467.932086
 20
379.526040
 42
0.007226
  0
VERTEX
  8
0
 10
468.156922
 20
377.406699
 42
0.007461
  0
VERTEX
  8
0
 10
468.488840
 20
374.964174
 42
0.007170
  0
VERTEX
  8
0
 10
468.897450
 20
372.500000
 42
-0.005815
  0
VERTEX
  8
0
 10
469.353593
 20
369.794643
 42
-0.003615
  0
VERTEX
  8
0
 10
469.828789
 20
366.611204
 42
-0.003626
  0
VERTEX
  8
0
 10
470.252165
 20
363.463352
 42
-0.006550
  0
VERTEX
  8
0
 10
470.546391
 20
360.878567
 42
0.043742
  0
VERTEX
  8
0
 10
471.588437
 20
355.391371
 42
0.169694
  0
VERTEX
  8
0
 10
473.545515
 20
352.598863
 42
0.137712
  0
VERTEX
  8
0
 10
477.087796
 20
351.307334
 42
0.025397
  0
VERTEX
  8
0
 10
484.104709
 20
351.130887
 42
-0.009921
  0
VERTEX
  8
0
 10
487.591542
 20
351.151108
 42
-0.014322
  0
VERTEX
  8
0
 10
490.671975
 20
351.019539
 42
-0.009948
  0
VERTEX
  8
0
 10
493.197187
 20
350.788540
 42
-0.178174
  0
VERTEX
  8
0
 10
493.914002
 20
350.430026
 42
-0.158370
  0
VERTEX
  8
0
 10
494.280438
 20
349.652176
 42
-0.005084
  0
VERTEX
  8
0
 10
494.687452
 20
346.157752
 42
-0.009351
  0
VERTEX
  8
0
 10
495.052557
 20
341.975765
 42
-0.006305
  0
VERTEX
  8
0
 10
495.319627
 20
337.192110
 42
0.006433
  0
VERTEX
  8
0
 10
495.588968
 20
332.389964
 42
0.009263
  0
VERTEX
  8
0
 10
495.960618
 20
328.149481
 42
0.005601
  0
VERTEX
  8
0
 10
496.376239
 20
324.617881
 42
0.130861
  0
VERTEX
  8
0
 10
496.755260
 20
323.692110
 42
-0.120925
  0
VERTEX
  8
0
 10
497.122489
 20
322.842909
 42
-0.010641
  0
VERTEX
  8
0
 10
497.466065
 20
320.509528
 42
-0.013445
  0
VERTEX
  8
0
 10
497.745240
 20
317.670638
 42
-0.010063
  0
VERTEX
  8
0
 10
497.905489
 20
314.531816
 42
0.004816
  0
VERTEX
  8
0
 10
498.031320
 20
311.427727
 42
0.007040
  0
VERTEX
  8
0
 10
498.206883
 20
308.697924
 42
0.003766
  0
VERTEX
  8
0
 10
498.404423
 20
306.402240
 42
0.115562
  0
VERTEX
  8
0
 10
498.585831
 20
305.861123
 42
-0.133962
  0
VERTEX
  8
0
 10
498.763147
 20
305.260873
 42
-0.000537
  0
VERTEX
  8
0
 10
498.903341
 20
298.188968
 42
-0.002649
  0
VERTEX
  8
0
 10
499.011523
 20
290.145106
 42
-0.001659
  0
VERTEX
  8
0
 10
499.057024
 20
280.729651
 42
-0.003321
  0
VERTEX
  8
0
 10
498.993139
 20
268.268392
 42
-0.009291
  0
VERTEX
  8
0
 10
498.728075
 20
259.537647
 42
-0.013000
  0
VERTEX
  8
0
 10
498.225619
 20
252.844640
 42
-0.020008
  0
VERTEX
  8
0
 10
497.409897
 20
247.095317
 42
0.000000
  0
VERTEX
  8
0
 10
495.725753
 20
237.889945
 42
0.000000
  0
VERTEX
  8
0
 10
483.112876
 20
238.457482
 42
-0.007202
  0
VERTEX
  8
0
 10
478.253976
 20
238.746299
 42
-0.011442
  0
VERTEX
  8
0
 10
474.107116
 20
239.148381
 42
-0.005463
  0
VERTEX
  8
0
 10
470.662705
 20
239.600333
 42
-0.283190
  0
VERTEX
  8
0
 10
470.166667
 20
240.012510
 42
0.124402
  0
VERTEX
  8
0
 10
469.566513
 20
240.942519
 42
0.387399
  0
VERTEX
  8
0
 10
468.883645
 20
240.950026
 42
0.197656
  0
VERTEX
  8
0
 10
468.434864
 20
240.026444
 42
0.077137
  0
VERTEX
  8
0
 10
468.567606
 20
238.586658
 42
-0.063610
  0
VERTEX
  8
0
 10
468.714263
 20
237.358563
 42
-0.080198
  0
VERTEX
  8
0
 10
468.522833
 20
236.231533
 42
-0.072520
  0
VERTEX
  8
0
 10
467.963331
 20
235.138453
 42
-0.041905
  0
VERTEX
  8
0
 10
467.007978
 20
234.007978
 42
0.120413
  0
VERTEX
  8
0
 10
465.744725
 20
231.927655
 42
0.054616
  0
VERTEX
  8
0
 10
465.117306
 20
228.782921
 42
0.018742
  0
VERTEX
  8
0
 10
464.825593
 20
222.991136
 42
0.001454
  0
VERTEX
  8
0
 10
464.671320
 20
207.464352
 42
-0.003662
  0
VERTEX
  8
0
 10
464.395587
 20
188.252815
 42
-0.084805
  0
VERTEX
  8
0
 10
463.360567
 20
182.896479
 42
-0.268855
  0
VERTEX
  8
0
 10
460.661793
 20
180.689775
 42
-0.060602
  0
VERTEX
  8
0
 10
454.500000
 20
180.448873
 42
0.002939
  0
VERTEX
  8
0
 10
443.618380
 20
181.278590
 42
0.010262
  0
VERTEX
  8
0
 10
436.585558
 20
181.628418
 42
0.010344
  0
VERTEX
  8
0
 10
431.763442
 20
181.669366
 42
0.146375
  0
VERTEX
  8
0
 10
430.133606
 20
181.160049
 42
0.204989
  0
VERTEX
  8
0
 10
428.952746
 20
179.329258
 42
0.030009
  0
VERTEX
  8
0
 10
428.463509
 20
174.836857
 42
0.031429
  0
VERTEX
  8
0
 10
428.528885
 20
170.284991
 42
0.162853
  0
VERTEX
  8
0
 10
429.495155
 20
168.000000
 42
-0.106385
  0
VERTEX
  8
0
 10
430.029305
 20
167.047238
 42
-0.021013
  0
VERTEX
  8
0
 10
430.529911
 20
165.142248
 42
-0.021397
  0
VERTEX
  8
0
 10
430.931698
 20
162.831668
 42
-0.018449
  0
VERTEX
  8
0
 10
431.159293
 20
160.377865
 42
0.000000
  0
VERTEX
  8
0
 10
431.500000
 20
154.255730
 42
0.000000
  0
VERTEX
  8
0
 10
422.363580
 20
153.615665
 42
-0.006893
  0
VERTEX
  8
0
 10
418.754211
 20
153.412762
 42
-0.009158
  0
VERTEX
  8
0
 10
415.467784
 20
153.333691
 42
-0.006884
  0
VERTEX
  8
0
 10
412.730209
 20
153.355669
 42
-0.086367
  0
VERTEX
  8
0
 10
411.718395
 20
153.554568
 42
0.091621
  0
VERTEX
  8
0
 10
410.880959
 20
153.710138
 42
0.022706
  0
VERTEX
  8
0
 10
409.480710
 20
153.647845
 42
0.022459
  0
VERTEX
  8
0
 10
407.857722
 20
153.427777
 42
0.020841
  0
VERTEX
  8
0
 10
406.219438
 20
153.059088
 42
0.059014
  0
VERTEX
  8
0
 10
403.556803
 20
151.992741
 42
0.132757
  0
VERTEX
  8
0
 10
401.996621
 20
150.501567
 42
0.162943
  0
VERTEX
  8
0
 10
401.579818
 20
148.646333
 42
0.102394
  0
VERTEX
  8
0
 10
402.255938
 20
146.507148
 42
-0.060547
  0
VERTEX
  8
0
 10
402.660014
 20
145.522051
 42
-0.016851
  0
VERTEX
  8
0
 10
403.048546
 20
143.896509
 42
-0.016748
  0
VERTEX
  8
0
 10
403.366985
 20
142.012323
 42
-0.016857
  0
VERTEX
  8
0
 10
403.557767
 20
140.115114
 42
0.011160
  0
VERTEX
  8
0
 10
403.744168
 20
138.022244
 42
0.006599
  0
VERTEX
  8
0
 10
404.055202
 20
135.533815
 42
0.006601
  0
VERTEX
  8
0
 10
404.431451
 20
133.056846
 42
0.011256
  0
VERTEX
  8
0
 10
404.819476
 20
131.000000
 42
-0.014244
  0
VERTEX
  8
0
 10
405.193437
 20
128.950548
 42
-0.008539
  0
VERTEX
  8
0
 10
405.526339
 20
126.498122
 42
-0.008547
  0
VERTEX
  8
0
 10
405.774375
 20
124.044538
 42
-0.014704
  0
VERTEX
  8
0
 10
405.885747
 20
121.993608
 42
-0.018289
  0
VERTEX
  8
0
 10
405.855067
 20
119.378364
 42
-0.099872
  0
VERTEX
  8
0
 10
405.510408
 20
118.013712
 42
-0.134188
  0
VERTEX
  8
0
 10
404.712229
 20
117.091176
 42
-0.043538
  0
VERTEX
  8
0
 10
403.118354
 20
116.212682
 42
-0.048555
  0
VERTEX
  8
0
 10
401.644588
 20
115.724807
 42
-0.033688
  0
VERTEX
  8
0
 10
399.909882
 20
115.453219
 42
-0.031725
  0
VERTEX
  8
0
 10
398.031559
 20
115.407149
 42
-0.029923
  0
VERTEX
  8
0
 10
396.124911
 20
115.596017
 42
0.024731
  0
VERTEX
  8
0
 10
394.457841
 20
115.778638
 42
0.028083
  0
VERTEX
  8
0
 10
392.850567
 20
115.784277
 42
0.028984
  0
VERTEX
  8
0
 10
391.504018
 20
115.634746
 42
0.119201
  0
VERTEX
  8
0
 10
390.755419
 20
115.313089
 42
-0.116789
  0
VERTEX
  8
0
 10
388.968792
 20
114.535324
 42
-0.033181
  0
VERTEX
  8
0
 10
385.937803
 20
114.195279
 42
-0.032913
  0
VERTEX
  8
0
 10
382.899895
 20
114.257314
 42
-0.124276
  0
VERTEX
  8
0
 10
381.116077
 20
114.875308
 42
0.099473
  0
VERTEX
  8
0
 10
380.380716
 20
115.171151
 42
0.040754
  0
VERTEX
  8
0
 10
379.305465
 20
115.282012
 42
0.037868
  0
VERTEX
  8
0
 10
378.083628
 20
115.215448
 42
0.037311
  0
VERTEX
  8
0
 10
376.879562
 20
114.965459
 42
-0.030869
  0
VERTEX
  8
0
 10
375.711439
 20
114.707210
 42
-0.046896
  0
VERTEX
  8
0
 10
374.674411
 20
114.642688
 42
-0.057811
  0
VERTEX
  8
0
 10
373.874191
 20
114.761238
 42
-0.190934
  0
VERTEX
  8
0
 10
373.454468
 20
115.073673
 42
0.163831
  0
VERTEX
  8
0
 10
373.022169
 20
115.432245
 42
0.033980
  0
VERTEX
  8
0
 10
372.065521
 20
115.727891
 42
0.032348
  0
VERTEX
  8
0
 10
370.855332
 20
115.932052
 42
0.025619
  0
VERTEX
  8
0
 10
369.530077
 20
116.000000
 42
-0.038343
  0
VERTEX
  8
0
 10
367.817545
 20
116.131519
 42
-0.012238
  0
VERTEX
  8
0
 10
365.300697
 20
116.583710
 42
-0.012132
  0
VERTEX
  8
0
 10
362.511933
 20
117.226412
 42
-0.013250
  0
VERTEX
  8
0
 10
359.839094
 20
117.987099
 42
0.023697
  0
VERTEX
  8
0
 10
354.348002
 20
119.426593
 42
0.050292
  0
VERTEX
  8
0
 10
349.983462
 20
119.901999
 42
0.067403
  0
VERTEX
  8
0
 10
346.543909
 20
119.464190
 42
0.105249
  0
VERTEX
  8
0
 10
343.893217
 20
118.114616
 42
0.023831
  0
VERTEX
  8
0
 10
342.690548
 20
117.041979
 42
0.125602
  0
VERTEX
  8
0
 10
342.235853
 20
116.291855
 42
0.184511
  0
VERTEX
  8
0
 10
342.286206
 20
115.572433
 42
0.064572
  0
VERTEX
  8
0
 10
342.849726
 20
114.681069
 42
-0.134502
  0
VERTEX
  8
0
 10
343.576743
 20
113.076089
 42
-0.023889
  0
VERTEX
  8
0
 10
343.942773
 20
109.766805
 42
-0.020093
  0
VERTEX
  8
0
 10
344.044791
 20
105.174236
 42
-0.008454
  0
VERTEX
  8
0
 10
343.829358
 20
99.000000
 42
0.019166
  0
VERTEX
  8
0
 10
343.811457
 20
97.670090
 42
0.005198
  0
VERTEX
  8
0
 10
343.885674
 20
95.566330
 42
0.005252
  0
VERTEX
  8
0
 10
344.019898
 20
93.178926
 42
0.005432
  0
VERTEX
  8
0
 10
344.203034
 20
90.821550
 42
-0.008433
  0
VERTEX
  8
0
 10
344.458792
 20
87.252065
 42
-0.093560
  0
VERTEX
  8
0
 10
344.271583
 20
85.841128
 42
-0.192409
  0
VERTEX
  8
0
 10
343.601684
 20
85.043633
 42
-0.058247
  0
VERTEX
  8
0
 10
342.103145
 20
84.452731
 42
-0.034331
  0
VERTEX
  8
0
 10
337.694231
 20
83.602053
 42
-0.017547
  0
VERTEX
  8
0
 10
332.076512
 20
83.112765
 42
-0.010469
  0
VERTEX
  8
0
 10
323.851723
 20
82.858937
 42
-0.002422
  0
VERTEX
  8
0
 10
310.000000
 20
82.788691
 42
-0.002904
  0
VERTEX
  8
0
 10
296.027043
 20
82.866660
 42
-0.010614
  0
VERTEX
  8
0
 10
287.172530
 20
83.155541
 42
-0.015366
  0
VERTEX
  8
0
 10
281.219335
 20
83.660211
 42
-0.064818
  0
VERTEX
  8
0
 10
277.750000
 20
84.526725
 42
0.041131
  0
VERTEX
  8
0
 10
277.079153
 20
84.728373
 42
0.076769
  0
VERTEX
  8
0
 10
276.514088
 20
84.760357
 42
0.125592
  0
VERTEX
  8
0
 10
276.142708
 20
84.626234
 42
0.248550
  0
VERTEX
  8
0
 10
276.000088
 20
84.356989
 42
-0.396996
  0
VERTEX
  8
0
 10
275.454487
 20
83.778007
 42
-0.003373
  0
VERTEX
  8
0
 10
268.768854
 20
83.426704
 42
-0.009456
  0
VERTEX
  8
0
 10
260.969059
 20
83.217316
 42
-0.006242
  0
VERTEX
  8
0
 10
252.000000
 20
83.258196
 42
0.002040
  0
VERTEX
  8
0
 10
247.102173
 20
83.321692
 42
0.003256
  0
VERTEX
  8
0
 10
242.916111
 20
83.331626
 42
0.003046
  0
VERTEX
  8
0
 10
238.537424
 20
83.286833
 42
0.001523
  0
VERTEX
  8
0
 10
233.000000
 20
83.179573
 42
-0.004737
  0
VERTEX
  8
0
 10
229.771936
 20
83.137801
 42
-0.001810
  0
VERTEX
  8
0
 10
225.277339
 20
83.138499
 42
-0.001792
  0
VERTEX
  8
0
 10
220.396179
 20
83.174424
 42
-0.002199
  0
VERTEX
  8
0
 10
215.837750
 20
83.244368
 42
0.000000
  0
VERTEX
  8
0
 10
205.175500
 20
83.454880
 42
0.000000
  0
VERTEX
  8
0
 10
205.509308
 20
87.101691
 42
0.036770
  0
VERTEX
  8
0
 10
205.537544
 20
88.690187
 42
0.026701
  0
VERTEX
  8
0
 10
205.344898
 20
90.448565
 42
0.027165
  0
VERTEX
  8
0
 10
204.979651
 20
92.106574
 42
0.051905
  0
VERTEX
  8
0
 10
204.480861
 20
93.374251
 42
-0.024746
  0
VERTEX
  8
0
 10
203.987860
 20
94.451784
 42
-0.063389
  0
VERTEX
  8
0
 10
203.773544
 20
95.280715
 42
-0.129327
  0
VERTEX
  8
0
 10
203.841145
 20
95.794471
 42
-0.304614
  0
VERTEX
  8
0
 10
204.147201
 20
96.000000
 42
0.299029
  0
VERTEX
  8
0
 10
204.530519
 20
96.251758
 42
0.073341
  0
VERTEX
  8
0
 10
204.735920
 20
97.017360
 42
0.047104
  0
VERTEX
  8
0
 10
204.761438
 20
98.200898
 42
0.021053
  0
VERTEX
  8
0
 10
204.583004
 20
99.750000
 42
-0.013605
  0
VERTEX
  8
0
 10
204.339506
 20
101.618732
 42
-0.005192
  0
VERTEX
  8
0
 10
204.098388
 20
104.232780
 42
-0.005137
  0
VERTEX
  8
0
 10
203.895047
 20
107.078969
 42
-0.006277
  0
VERTEX
  8
0
 10
203.765678
 20
109.744570
 42
0.008030
  0
VERTEX
  8
0
 10
203.587350
 20
113.170751
 42
0.061641
  0
VERTEX
  8
0
 10
203.282051
 20
114.748095
 42
0.195086
  0
VERTEX
  8
0
 10
202.737429
 20
115.395154
 42
0.200927
  0
VERTEX
  8
0
 10
201.904486
 20
115.469685
 42
-0.070544
  0
VERTEX
  8
0
 10
201.113915
 20
115.336844
 42
-0.275213
  0
VERTEX
  8
0
 10
200.699079
 20
115.569707
 42
-0.156051
  0
VERTEX
  8
0
 10
200.565385
 20
116.189186
 42
-0.022963
  0
VERTEX
  8
0
 10
200.750492
 20
117.475115
 42
0.033277
  0
VERTEX
  8
0
 10
200.919165
 20
118.846791
 42
0.183393
  0
VERTEX
  8
0
 10
200.698101
 20
119.544273
 42
0.191038
  0
VERTEX
  8
0
 10
200.076667
 20
119.903047
 42
0.036531
  0
VERTEX
  8
0
 10
198.751436
 20
120.000000
 42
0.062738
  0
VERTEX
  8
0
 10
197.617815
 20
119.857196
 42
0.032064
  0
VERTEX
  8
0
 10
196.251837
 20
119.412500
 42
0.031265
  0
VERTEX
  8
0
 10
194.882653
 20
118.765659
 42
0.040687
  0
VERTEX
  8
0
 10
193.727129
 20
118.000000
 42
-0.028169
  0
VERTEX
  8
0
 10
192.632392
 20
117.234552
 42
-0.027228
  0
VERTEX
  8
0
 10
191.446361
 20
116.587500
 42
-0.028298
  0
VERTEX
  8
0
 10
190.341258
 20
116.135301
 42
-0.083147
  0
VERTEX
  8
0
 10
189.533254
 20
116.000000
 42
0.061705
  0
VERTEX
  8
0
 10
188.945674
 20
115.927210
 42
0.131383
  0
VERTEX
  8
0
 10
188.548579
 20
115.706250
 42
0.191600
  0
VERTEX
  8
0
 10
188.401327
 20
115.379272
 42
0.150650
  0
VERTEX
  8
0
 10
188.500000
 20
115.000000
 42
-0.146489
  0
VERTEX
  8
0
 10
188.602013
 20
114.620597
 42
-0.191582
  0
VERTEX
  8
0
 10
188.461189
 20
114.293750
 42
-0.134005
  0
VERTEX
  8
0
 10
188.074636
 20
114.072951
 42
-0.063222
  0
VERTEX
  8
0
 10
187.500000
 20
114.000000
 42
-0.058710
  0
VERTEX
  8
0
 10
186.922059
 20
114.068097
 42
-0.125993
  0
VERTEX
  8
0
 10
186.527824
 20
114.275972
 42
-0.191125
  0
VERTEX
  8
0
 10
186.376577
 20
114.583407
 42
-0.159604
  0
VERTEX
  8
0
 10
186.462596
 20
114.939479
 42
0.180495
  0
VERTEX
  8
0
 10
186.533671
 20
115.296649
 42
0.185302
  0
VERTEX
  8
0
 10
186.352255
 20
115.608300
 42
0.114073
  0
VERTEX
  8
0
 10
185.908984
 20
115.822435
 42
0.053211
  0
VERTEX
  8
0
 10
185.271613
 20
115.897048
 42
-0.028464
  0
VERTEX
  8
0
 10
183.780314
 20
115.997299
 42
-0.011409
  0
VERTEX
  8
0
 10
181.756415
 20
116.296667
 42
-0.010551
  0
VERTEX
  8
0
 10
179.438593
 20
116.744278
 42
-0.008840
  0
VERTEX
  8
0
 10
177.000000
 20
117.314099
 42
-0.018010
  0
VERTEX
  8
0
 10
176.231267
 20
117.537856
 42
-0.005580
  0
VERTEX
  8
0
 10
175.091730
 20
117.928712
 42
-0.005571
  0
VERTEX
  8
0
 10
173.826561
 20
118.394444
 42
-0.006103
  0
VERTEX
  8
0
 10
172.610146
 20
118.874765
 42
0.026039
  0
VERTEX
  8
0
 10
171.047482
 20
119.420886
 42
0.086544
  0
VERTEX
  8
0
 10
169.969988
 20
119.541513
 42
0.110645
  0
VERTEX
  8
0
 10
169.065692
 20
119.279946
 42
0.058468
  0
VERTEX
  8
0
 10
168.109519
 20
118.599113
 42
-0.051069
  0
VERTEX
  8
0
 10
167.237112
 20
117.958321
 42
-0.104982
  0
VERTEX
  8
0
 10
166.436956
 20
117.691144
 42
-0.105056
  0
VERTEX
  8
0
 10
165.597647
 20
117.772200
 42
-0.051191
  0
VERTEX
  8
0
 10
164.605019
 20
118.201167
 42
0.097260
  0
VERTEX
  8
0
 10
163.343410
 20
118.614069
 42
0.017199
  0
VERTEX
  8
0
 10
160.851581
 20
118.833892
 42
0.016848
  0
VERTEX
  8
0
 10
157.705282
 20
118.896516
 42
0.010792
  0
VERTEX
  8
0
 10
154.052628
 20
118.767255
 42
0.000000
  0
VERTEX
  8
0
 10
145.393965
 20
118.273560
 42
0.000000
  0
VERTEX
  8
0
 10
145.534214
 20
132.629096
 42
0.003562
  0
VERTEX
  8
0
 10
145.555560
 20
140.695648
 42
0.023483
  0
VERTEX
  8
0
 10
145.348103
 20
144.725540
 42
0.049487
  0
VERTEX
  8
0
 10
144.873360
 20
147.100625
 42
0.135585
  0
VERTEX
  8
0
 10
143.964412
 20
148.532207
 42
0.138810
  0
VERTEX
  8
0
 10
142.043021
 20
149.483454
 42
0.039131
  0
VERTEX
  8
0
 10
138.686239
 20
149.839339
 42
0.037146
  0
VERTEX
  8
0
 10
135.397432
 20
149.685127
 42
0.214003
  0
VERTEX
  8
0
 10
133.941493
 20
148.806924
 42
-0.207666
  0
VERTEX
  8
0
 10
133.408027
 20
148.476252
 42
-0.007400
  0
VERTEX
  8
0
 10
130.962325
 20
148.155062
 42
-0.012563
  0
VERTEX
  8
0
 10
127.996283
 20
147.885432
 42
-0.008345
  0
VERTEX
  8
0
 10
124.583933
 20
147.718630
 42
-0.004586
  0
VERTEX
  8
0
 10
118.914776
 20
147.588324
 42
-0.060062
  0
VERTEX
  8
0
 10
116.827400
 20
147.810782
 42
-0.161244
  0
VERTEX
  8
0
 10
115.675388
 20
148.510586
 42
-0.084504
  0
VERTEX
  8
0
 10
114.808679
 20
149.967805
 42
-0.038850
  0
VERTEX
  8
0
 10
113.839427
 20
153.212326
 42
-0.010245
  0
VERTEX
  8
0
 10
112.804265
 20
158.533257
 42
-0.010884
  0
VERTEX
  8
0
 10
111.962550
 20
164.106724
 42
-0.022432
  0
VERTEX
  8
0
 10
111.595892
 20
168.500000
 42
0.013737
  0
VERTEX
  8
0
 10
111.489880
 20
170.106780
 42
0.015943
  0
VERTEX
  8
0
 10
111.298494
 20
171.626952
 42
0.015072
  0
VERTEX
  8
0
 10
111.058301
 20
172.894552
 42
0.085576
  0
VERTEX
  8
0
 10
110.799325
 20
173.527921
 42
-0.145156
  0
VERTEX
  8
0
 10
110.381439
 20
175.034434
 42
-0.003597
  0
VERTEX
  8
0
 10
110.561458
 20
182.260152
 42
-0.008194
  0
VERTEX
  8
0
 10
110.899145
 20
189.218877
 42
-0.028635
  0
VERTEX
  8
0
 10
111.446392
 20
193.677406
 42
-0.073128
  0
VERTEX
  8
0
 10
112.270192
 20
196.119223
 42
-0.075579
  0
VERTEX
  8
0
 10
113.755527
 20
198.189933
 42
-0.085748
  0
VERTEX
  8
0
 10
115.594067
 20
199.520890
 42
-0.147006
  0
VERTEX
  8
0
 10
117.446455
 20
199.826675
 42
0.037113
  0
VERTEX
  8
0
 10
118.319354
 20
199.779381
 42
0.031106
  0
VERTEX
  8
0
 10
119.243661
 20
199.855583
 42
0.032239
  0
VERTEX
  8
0
 10
120.082629
 20
200.033442
 42
0.071032
  0
VERTEX
  8
0
 10
120.680902
 20
200.297166
 42
-0.084608
  0
VERTEX
  8
0
 10
121.179441
 20
200.501043
 42
-0.093623
  0
VERTEX
  8
0
 10
121.699422
 20
200.518041
 42
-0.100835
  0
VERTEX
  8
0
 10
122.159585
 20
200.347450
 42
-0.115818
  0
VERTEX
  8
0
 10
122.489919
 20
200.016312
 42
0.198829
  0
VERTEX
  8
0
 10
123.632524
 20
199.192489
 42
0.079809
  0
VERTEX
  8
0
 10
125.590857
 20
199.049543
 42
0.074679
  0
VERTEX
  8
0
 10
127.643217
 20
199.542008
 42
0.124003
  0
VERTEX
  8
0
 10
129.071798
 20
200.586511
 42
-0.127695
  0
VERTEX
  8
0
 10
130.276703
 20
201.454106
 42
-0.089514
  0
VERTEX
  8
0
 10
131.926275
 20
201.773901
 42
-0.038909
  0
VERTEX
  8
0
 10
134.655078
 20
201.596716
 42
-0.005436
  0
VERTEX
  8
0
 10
140.250000
 20
200.731140
 42
0.030338
  0
VERTEX
  8
0
 10
141.488482
 20
200.602239
 42
0.090603
  0
VERTEX
  8
0
 10
142.329099
 20
200.718699
 42
0.156180
  0
VERTEX
  8
0
 10
142.814701
 20
201.071448
 42
0.159509
  0
VERTEX
  8
0
 10
143.000000
 20
201.637513
 42
-0.109302
  0
VERTEX
  8
0
 10
143.115003
 20
202.157310
 42
-0.099810
  0
VERTEX
  8
0
 10
143.440625
 20
202.599770
 42
-0.095231
  0
VERTEX
  8
0
 10
143.927316
 20
202.896494
 42
-0.089643
  0
VERTEX
  8
0
 10
144.500000
 20
203.000000
 42
0.068870
  0
VERTEX
  8
0
 10
145.073318
 20
203.079345
 42
0.085131
  0
VERTEX
  8
0
 10
145.559375
 20
203.311086
 42
0.099915
  0
VERTEX
  8
0
 10
145.884374
 20
203.655173
 42
0.140337
  0
VERTEX
  8
0
 10
146.000000
 20
204.059017
 42
-0.108972
  0
VERTEX
  8
0
 10
146.078288
 20
204.413961
 42
-0.182303
  0
VERTEX
  8
0
 10
146.293750
 20
204.625400
 42
-0.161196
  0
VERTEX
  8
0
 10
146.617900
 20
204.656512
 42
-0.082592
  0
VERTEX
  8
0
 10
147.000000
 20
204.500000
 42
0.139169
  0
VERTEX
  8
0
 10
147.379648
 20
204.392057
 42
0.191142
  0
VERTEX
  8
0
 10
147.706250
 20
204.521475
 42
0.138808
  0
VERTEX
  8
0
 10
147.926733
 20
204.889346
 42
0.066118
  0
VERTEX
  8
0
 10
148.000000
 20
205.440983
 42
-0.095165
  0
VERTEX
  8
0
 10
148.114295
 20
206.036055
 42
-0.096950
  0
VERTEX
  8
0
 10
148.440625
 20
206.542039
 42
-0.098802
  0
VERTEX
  8
0
 10
148.927627
 20
206.880765
 42
-0.103052
  0
VERTEX
  8
0
 10
149.500000
 20
207.000000
 42
0.122978
  0
VERTEX
  8
0
 10
150.585815
 20
207.271163
 42
0.319087
  0
VERTEX
  8
0
 10
150.927357
 20
207.954340
 42
0.160164
  0
VERTEX
  8
0
 10
150.409536
 20
208.969247
 42
0.044243
  0
VERTEX
  8
0
 10
149.013940
 20
210.128028
 42
-0.109811
  0
VERTEX
  8
0
 10
147.970388
 20
211.253779
 42
-0.074849
  0
VERTEX
  8
0
 10
147.321646
 20
212.881054
 42
-0.038721
  0
VERTEX
  8
0
 10
146.917649
 20
215.509037
 42
-0.007437
  0
VERTEX
  8
0
 10
146.627114
 20
220.324774
 42
-0.031521
  0
VERTEX
  8
0
 10
146.778804
 20
228.924112
 42
-0.292000
  0
VERTEX
  8
0
 10
148.924527
 20
231.753352
 42
-0.085429
  0
VERTEX
  8
0
 10
154.038257
 20
232.701270
 42
-0.001668
  0
VERTEX
  8
0
 10
180.833717
 20
232.956004
 42
-0.000135
  0
VERTEX
  8
0
 10
194.116198
 20
233.034383
 42
-0.000180
  0
VERTEX
  8
0
 10
206.171983
 20
233.097934
 42
-0.000125
  0
VERTEX
  8
0
 10
216.285120
 20
233.145077
 42
-0.001869
  0
VERTEX
  8
0
 10
219.815588
 20
233.147457
 42
0.019142
  0
VERTEX
  8
0
 10
222.550204
 20
233.243801
 42
0.051212
  0
VERTEX
  8
0
 10
224.467529
 20
233.584443
 42
0.067462
  0
VERTEX
  8
0
 10
225.950819
 20
234.234219
 42
0.059519
  0
VERTEX
  8
0
 10
227.278681
 20
235.278681
 42
0.085859
  0
VERTEX
  8
0
 10
228.458601
 20
236.952233
 42
0.072128
  0
VERTEX
  8
0
 10
229.098251
 20
239.028904
 42
0.032584
  0
VERTEX
  8
0
 10
229.401812
 20
242.406125
 42
0.004260
  0
VERTEX
  8
0
 10
229.517164
 20
249.624549
 42
-0.006248
  0
VERTEX
  8
0
 10
229.631331
 20
255.345088
 42
-0.017671
  0
VERTEX
  8
0
 10
229.901897
 20
259.330158
 42
-0.022211
  0
VERTEX
  8
0
 10
230.313387
 20
262.098791
 42
-0.125849
  0
VERTEX
  8
0
 10
230.946571
 20
263.435622
 42
0.041730
  0
VERTEX
  8
0
 10
231.410900
 20
264.100947
 42
0.058107
  0
VERTEX
  8
0
 10
231.699999
 20
264.766437
 42
0.073319
  0
VERTEX
  8
0
 10
231.784155
 20
265.333393
 42
0.199168
  0
VERTEX
  8
0
 10
231.631934
 20
265.701399
 42
-0.505882
  0
VERTEX
  8
0
 10
231.752014
 20
266.489057
 42
-0.006825
  0
VERTEX
  8
0
 10
236.827894
 20
269.062173
 42
-0.013401
  0
VERTEX
  8
0
 10
242.989015
 20
271.878308
 42
-0.009665
  0
VERTEX
  8
0
 10
250.000000
 20
274.699729
 42
0.006073
  0
VERTEX
  8
0
 10
252.569005
 20
275.712189
 42
0.007740
  0
VERTEX
  8
0
 10
254.911403
 20
276.710946
 42
0.006208
  0
VERTEX
  8
0
 10
256.844719
 20
277.599797
 42
0.062385
  0
VERTEX
  8
0
 10
257.592009
 20
278.076641
 42
-0.056422
  0
VERTEX
  8
0
 10
258.053749
 20
278.379058
 42
-0.071038
  0
VERTEX
  8
0
 10
258.537529
 20
278.542220
 42
-0.085960
  0
VERTEX
  8
0
 10
258.968115
 20
278.547365
 42
-0.157752
  0
VERTEX
  8
0
 10
259.277342
 20
278.389325
 42
0.237711
  0
VERTEX
  8
0
 10
259.655480
 20
278.264585
 42
0.047213
  0
VERTEX
  8
0
 10
260.368233
 20
278.440878
 42
0.040708
  0
VERTEX
  8
0
 10
261.238533
 20
278.827654
 42
0.027867
  0
VERTEX
  8
0
 10
262.157839
 20
279.398001
 42
-0.031304
  0
VERTEX
  8
0
 10
263.161529
 20
280.011196
 42
-0.026891
  0
VERTEX
  8
0
 10
264.285328
 20
280.529413
 42
-0.027795
  0
VERTEX
  8
0
 10
265.359291
 20
280.888565
 42
-0.066887
  0
VERTEX
  8
0
 10
266.188579
 20
281.000000
 42
0.051884
  0
VERTEX
  8
0
 10
267.078078
 20
281.092551
 42
0.016144
  0
VERTEX
  8
0
 10
268.384627
 20
281.411784
 42
0.015948
  0
VERTEX
  8
0
 10
269.830878
 20
281.865216
 42
0.016938
  0
VERTEX
  8
0
 10
271.216073
 20
282.401817
 42
-0.014495
  0
VERTEX
  8
0
 10
272.885694
 20
283.057995
 42
-0.005210
  0
VERTEX
  8
0
 10
275.297846
 20
283.897871
 42
-0.005163
  0
VERTEX
  8
0
 10
277.962099
 20
284.763984
 42
-0.006100
  0
VERTEX
  8
0
 10
280.500000
 20
285.526260
 42
0.005118
  0
VERTEX
  8
0
 10
282.922234
 20
286.248609
 42
0.005734
  0
VERTEX
  8
0
 10
285.238733
 20
286.994537
 42
0.005299
  0
VERTEX
  8
0
 10
287.195978
 20
287.672796
 42
0.030296
  0
VERTEX
  8
0
 10
288.206325
 20
288.105642
 42
-0.042802
  0
VERTEX
  8
0
 10
289.141902
 20
288.479084
 42
-0.011739
  0
VERTEX
  8
0
 10
290.672684
 20
288.903977
 42
-0.011776
  0
VERTEX
  8
0
 10
292.437346
 20
289.305491
 42
-0.012034
  0
VERTEX
  8
0
 10
294.206325
 20
289.620276
 42
0.018254
  0
VERTEX
  8
0
 10
296.047962
 20
289.971674
 42
0.013992
  0
VERTEX
  8
0
 10
298.031958
 20
290.484674
 42
0.014206
  0
VERTEX
  8
0
 10
299.863502
 20
291.070196
 42
0.032260
  0
VERTEX
  8
0
 10
301.200340
 20
291.639077
 42
-0.046732
  0
VERTEX
  8
0
 10
302.534506
 20
292.161827
 42
-0.021527
  0
VERTEX
  8
0
 10
304.349625
 20
292.600229
 42
-0.021102
  0
VERTEX
  8
0
 10
306.312491
 20
292.900387
 42
-0.027393
  0
VERTEX
  8
0
 10
308.129342
 20
293.000000
 42
0.039568
  0
VERTEX
  8
0
 10
311.803889
 20
293.291245
 42
0.038625
  0
VERTEX
  8
0
 10
315.417393
 20
294.157933
 42
0.038006
  0
VERTEX
  8
0
 10
318.265604
 20
295.324004
 42
0.283832
  0
VERTEX
  8
0
 10
319.000000
 20
296.513500
 42
0.227711
  0
VERTEX
  8
0
 10
318.735708
 20
297.063732
 42
0.023143
  0
VERTEX
  8
0
 10
317.531250
 20
297.939977
 42
0.025300
  0
VERTEX
  8
0
 10
315.915485
 20
298.891201
 42
0.017451
  0
VERTEX
  8
0
 10
314.000000
 20
299.808447
 42
-0.011815
  0
VERTEX
  8
0
 10
312.083598
 20
300.699725
 42
-0.017956
  0
VERTEX
  8
0
 10
310.467433
 20
301.571885
 42
-0.012870
  0
VERTEX
  8
0
 10
309.207143
 20
302.355907
 42
-0.250714
  0
VERTEX
  8
0
 10
308.995516
 20
302.745835
 42
0.292230
  0
VERTEX
  8
0
 10
308.799334
 20
303.048848
 42
0.037656
  0
VERTEX
  8
0
 10
308.038979
 20
303.328403
 42
0.034372
  0
VERTEX
  8
0
 10
306.989600
 20
303.550238
 42
0.021823
  0
VERTEX
  8
0
 10
305.745516
 20
303.670004
 42
-0.026372
  0
VERTEX
  8
0
 10
304.285219
 20
303.823997
 42
-0.015821
  0
VERTEX
  8
0
 10
302.572120
 20
304.152455
 42
-0.015822
  0
VERTEX
  8
0
 10
300.883807
 20
304.588438
 42
-0.026452
  0
VERTEX
  8
0
 10
299.500000
 20
305.073661
 42
0.003037
  0
VERTEX
  8
0
 10
298.278114
 20
305.567465
 42
0.003333
  0
VERTEX
  8
0
 10
297.087500
 20
306.031075
 42
0.003113
  0
VERTEX
  8
0
 10
296.064591
 20
306.414272
 42
0.016736
  0
VERTEX
  8
0
 10
295.500000
 20
306.600581
 42
-0.018750
  0
VERTEX
  8
0
 10
293.573353
 20
307.244968
 42
-0.000567
  0
VERTEX
  8
0
 10
285.675402
 20
310.230349
 42
-0.001155
  0
VERTEX
  8
0
 10
278.108222
 20
313.120523
 42
-0.005329
  0
VERTEX
  8
0
 10
273.750000
 20
314.850170
 42
-0.015552
  0
VERTEX
  8
0
 10
272.313188
 20
315.491062
 42
-0.023070
  0
VERTEX
  8
0
 10
271.101563
 20
316.147949
 42
-0.019781
  0
VERTEX
  8
0
 10
270.185773
 20
316.751205
 42
-0.241739
  0
VERTEX
  8
0
 10
270.000000
 20
317.112993
 42
0.255489
  0
VERTEX
  8
0
 10
269.824171
 20
317.434634
 42
0.034116
  0
VERTEX
  8
0
 10
269.122119
 20
317.820026
 42
0.032599
  0
VERTEX
  8
0
 10
268.156433
 20
318.193088
 42
0.021823
  0
VERTEX
  8
0
 10
267.011468
 20
318.497481
 42
-0.023326
  0
VERTEX
  8
0
 10
265.825558
 20
318.816578
 42
-0.027053
  0
VERTEX
  8
0
 10
264.733237
 20
319.232208
 42
-0.027635
  0
VERTEX
  8
0
 10
263.861282
 20
319.678354
 42
-0.122871
  0
VERTEX
  8
0
 10
263.452451
 20
320.076937
 42
0.118038
  0
VERTEX
  8
0
 10
263.095888
 20
320.431250
 42
0.048796
  0
VERTEX
  8
0
 10
262.479382
 20
320.728850
 42
0.044671
  0
VERTEX
  8
0
 10
261.725789
 20
320.931689
 42
0.043439
  0
VERTEX
  8
0
 10
260.940983
 20
321.000000
 42
-0.039363
  0
VERTEX
  8
0
 10
260.197753
 20
321.058602
 42
-0.058542
  0
VERTEX
  8
0
 10
259.570164
 20
321.235216
 42
-0.076985
  0
VERTEX
  8
0
 10
259.142827
 20
321.494251
 42
-0.221570
  0
VERTEX
  8
0
 10
259.000000
 20
321.800734
 42
0.278036
  0
VERTEX
  8
0
 10
258.384443
 20
322.822135
 42
0.011363
  0
VERTEX
  8
0
 10
254.381171
 20
324.822158
 42
0.017624
  0
VERTEX
  8
0
 10
250.337374
 20
326.557439
 42
0.092793
  0
VERTEX
  8
0
 10
247.973249
 20
327.000000
 42
-0.043096
  0
VERTEX
  8
0
 10
247.217835
 20
327.065232
 42
-0.062805
  0
VERTEX
  8
0
 10
246.579642
 20
327.261058
 42
-0.082401
  0
VERTEX
  8
0
 10
246.147418
 20
327.548957
 42
-0.207599
  0
VERTEX
  8
0
 10
246.000000
 20
327.888709
 42
0.264307
  0
VERTEX
  8
0
 10
245.780288
 20
328.275311
 42
0.034087
  0
VERTEX
  8
0
 10
244.898438
 20
328.722213
 42
0.032541
  0
VERTEX
  8
0
 10
243.686796
 20
329.145163
 42
0.021515
  0
VERTEX
  8
0
 10
242.250000
 20
329.478195
 42
-0.017517
  0
VERTEX
  8
0
 10
240.727645
 20
329.818260
 42
-0.018265
  0
VERTEX
  8
0
 10
239.254218
 20
330.260082
 42
-0.018276
  0
VERTEX
  8
0
 10
238.013163
 20
330.733468
 42
-0.072512
  0
VERTEX
  8
0
 10
237.317552
 20
331.155867
 42
0.088320
  0
VERTEX
  8
0
 10
236.628741
 20
331.545067
 42
0.024576
  0
VERTEX
  8
0
 10
235.435797
 20
331.899738
 42
0.023995
  0
VERTEX
  8
0
 10
234.022820
 20
332.174210
 42
0.023102
  0
VERTEX
  8
0
 10
232.572036
 20
332.316381
 42
-0.029993
  0
VERTEX
  8
0
 10
231.147248
 20
332.475844
 42
-0.052718
  0
VERTEX
  8
0
 10
230.008128
 20
332.799413
 42
-0.072155
  0
VERTEX
  8
0
 10
229.253193
 20
333.237858
 42
-0.228083
  0
VERTEX
  8
0
 10
229.004484
 20
333.750000
 42
0.100476
  0
VERTEX
  8
0
 10
228.905864
 20
334.227028
 42
0.097925
  0
VERTEX
  8
0
 10
228.628625
 20
334.632813
 42
0.097217
  0
VERTEX
  8
0
 10
228.215837
 20
334.904658
 42
0.097443
  0
VERTEX
  8
0
 10
227.731259
 20
335.000000
 42
-0.252582
  0
VERTEX
  8
0
 10
227.175552
 20
335.299853
 42
-0.075320
  0
VERTEX
  8
0
 10
226.759282
 20
336.205570
 42
-0.046862
  0
VERTEX
  8
0
 10
226.481519
 20
337.675191
 42
-0.018053
  0
VERTEX
  8
0
 10
226.363038
 20
339.750000
 42
0.012124
  0
VERTEX
  8
0
 10
226.113329
 20
345.272260
 42
0.006538
  0
VERTEX
  8
0
 10
225.551974
 20
352.060219
 42
0.002626
  0
VERTEX
  8
0
 10
224.870311
 20
358.797211
 42
0.112340
  0
VERTEX
  8
0
 10
224.407082
 20
360.150344
 42
0.262629
  0
VERTEX
  8
0
 10
223.402827
 20
360.703628
 42
0.010873
  0
VERTEX
  8
0
 10
219.148318
 20
360.568121
 42
0.015892
  0
VERTEX
  8
0
 10
214.991208
 20
360.212376
 42
0.109541
  0
VERTEX
  8
0
 10
213.068224
 20
359.542164
 42
-0.068112
  0
VERTEX
  8
0
 10
212.659483
 20
359.360827
 42
-0.199799
  0
VERTEX
  8
0
 10
212.359509
 20
359.394826
 42
-0.237169
  0
VERTEX
  8
0
 10
212.205590
 20
359.620876
 42
-0.091450
  0
VERTEX
  8
0
 10
212.225223
 20
360.010681
 42
0.471398
  0
VERTEX
  8
0
 10
211.459664
 20
361.021300
 42
0.010004
  0
VERTEX
  8
0
 10
204.357020
 20
361.173921
 42
0.015536
  0
VERTEX
  8
0
 10
197.349703
 20
360.966495
 42
0.108102
  0
VERTEX
  8
0
 10
194.070079
 20
360.037505
 42
-0.048313
  0
VERTEX
  8
0
 10
193.033925
 20
359.605707
 42
-0.068066
  0
VERTEX
  8
0
 10
192.047526
 20
359.444119
 42
-0.071032
  0
VERTEX
  8
0
 10
191.086222
 20
359.555524
 42
-0.058616
  0
VERTEX
  8
0
 10
190.124961
 20
359.933123
 42
0.095948
  0
VERTEX
  8
0
 10
188.380336
 20
360.472964
 42
0.037472
  0
VERTEX
  8
0
 10
185.848473
 20
360.558745
 42
0.034599
  0
VERTEX
  8
0
 10
182.959014
 20
360.238998
 42
0.031998
  0
VERTEX
  8
0
 10
180.062810
 20
359.519935
 42
-0.065959
  0
VERTEX
  8
0
 10
179.058978
 20
359.341823
 42
-0.025546
  0
VERTEX
  8
0
 10
177.643732
 20
359.352019
 42
-0.024757
  0
VERTEX
  8
0
 10
176.091590
 20
359.519974
 42
-0.028034
  0
VERTEX
  8
0
 10
174.627904
 20
359.837073
 42
0.025235
  0
VERTEX
  8
0
 10
173.159924
 20
360.163711
 42
0.040076
  0
VERTEX
  8
0
 10
171.878189
 20
360.277277
 42
0.048471
  0
VERTEX
  8
0
 10
170.869422
 20
360.187662
 42
0.151117
  0
VERTEX
  8
0
 10
170.273057
 20
359.873057
 42
-0.184759
  0
VERTEX
  8
0
 10
168.092346
 20
358.899212
 42
-0.023815
  0
VERTEX
  8
0
 10
162.886183
 20
358.862867
 42
-0.027101
  0
VERTEX
  8
0
 10
157.630964
 20
359.362715
 42
-0.108174
  0
VERTEX
  8
0
 10
154.626155
 20
360.509297
 42
0.026403
  0
VERTEX
  8
0
 10
153.617881
 20
361.096338
 42
0.055414
  0
VERTEX
  8
0
 10
152.771433
 20
361.418562
 42
0.105299
  0
VERTEX
  8
0
 10
152.215084
 20
361.442612
 42
0.366211
  0
VERTEX
  8
0
 10
152.000000
 20
361.188334
 42
0.146111
  0
VERTEX
  8
0
 10
152.129104
 20
360.755967
 42
0.070657
  0
VERTEX
  8
0
 10
152.514062
 20
360.318305
 42
0.060843
  0
VERTEX
  8
0
 10
153.080654
 20
359.941590
 42
0.052452
  0
VERTEX
  8
0
 10
153.750000
 20
359.689326
 42
-0.011590
  0
VERTEX
  8
0
 10
154.588300
 20
359.449367
 42
-0.541772
  0
VERTEX
  8
0
 10
154.628780
 20
359.306344
 42
-0.197309
  0
VERTEX
  8
0
 10
154.392295
 20
359.187999
 42
-0.005718
  0
VERTEX
  8
0
 10
153.250000
 20
359.116001
 42
-0.045126
  0
VERTEX
  8
0
 10
152.388646
 20
359.149335
 42
-0.067103
  0
VERTEX
  8
0
 10
151.660937
 20
359.345162
 42
-0.089832
  0
VERTEX
  8
0
 10
151.170862
 20
359.663492
 42
-0.206761
  0
VERTEX
  8
0
 10
151.000000
 20
360.059017
 42
0.108972
  0
VERTEX
  8
0
 10
150.921712
 20
360.413961
 42
0.182303
  0
VERTEX
  8
0
 10
150.706250
 20
360.625400
 42
0.161196
  0
VERTEX
  8
0
 10
150.382100
 20
360.656512
 42
0.082592
  0
VERTEX
  8
0
 10
150.000000
 20
360.500000
 42
-0.064496
  0
VERTEX
  8
0
 10
149.608979
 20
360.323143
 42
-0.117002
  0
VERTEX
  8
0
 10
149.260561
 20
360.301162
 42
-0.161209
  0
VERTEX
  8
0
 10
149.011170
 20
360.434059
 42
-0.156961
  0
VERTEX
  8
0
 10
148.887018
 20
360.690983
 42
-0.003838
  0
VERTEX
  8
0
 10
148.375610
 20
364.570099
 42
-0.006927
  0
VERTEX
  8
0
 10
148.025138
 20
367.756509
 42
-0.007386
  0
VERTEX
  8
0
 10
147.777601
 20
370.808725
 42
-0.005166
  0
VERTEX
  8
0
 10
147.585019
 20
374.255147
 42
0.009276
  0
VERTEX
  8
0
 10
147.440821
 20
376.503758
 42
0.013145
  0
VERTEX
  8
0
 10
147.222963
 20
378.496752
 42
0.009211
  0
VERTEX
  8
0
 10
146.969746
 20
380.132441
 42
0.154561
  0
VERTEX
  8
0
 10
146.720375
 20
380.612958
 42
-0.200497
  0
VERTEX
  8
0
 10
146.570733
 20
380.977363
 42
-0.055770
  0
VERTEX
  8
0
 10
146.644642
 20
381.603383
 42
-0.046944
  0
VERTEX
  8
0
 10
146.897035
 20
382.358016
 42
-0.034530
  0
VERTEX
  8
0
 10
147.308855
 20
383.138324
 42
0.031247
  0
VERTEX
  8
0
 10
147.854358
 20
384.155709
 42
0.124853
  0
VERTEX
  8
0
 10
147.980848
 20
384.845825
 42
0.168416
  0
VERTEX
  8
0
 10
147.748109
 20
385.395010
 42
0.070002
  0
VERTEX
  8
0
 10
147.121885
 20
385.918709
 42
-0.075246
  0
VERTEX
  8
0
 10
146.644717
 20
386.326289
 42
-0.088662
  0
VERTEX
  8
0
 10
146.341263
 20
386.836199
 42
-0.100355
  0
VERTEX
  8
0
 10
146.255667
 20
387.366881
 42
-0.129073
  0
VERTEX
  8
0
 10
146.399675
 20
387.837670
 42
0.472651
  0
VERTEX
  8
0
 10
146.045203
 20
388.874288
 42
0.054133
  0
VERTEX
  8
0
 10
143.301253
 20
389.575197
 42
0.044776
  0
VERTEX
  8
0
 10
139.728434
 20
389.762724
 42
0.068620
  0
VERTEX
  8
0
 10
136.679659
 20
389.226575
 42
0.003165
  0
VERTEX
  8
0
 10
134.753133
 20
388.593629
 42
0.164168
  0
VERTEX
  8
0
 10
134.444672
 20
388.359526
 42
0.575948
  0
VERTEX
  8
0
 10
134.528863
 20
388.184758
 42
0.008640
  0
VERTEX
  8
0
 10
135.916667
 20
388.102088
 42
-0.025979
  0
VERTEX
  8
0
 10
136.801278
 20
388.018542
 42
-0.061944
  0
VERTEX
  8
0
 10
137.436341
 20
387.842892
 42
-0.146034
  0
VERTEX
  8
0
 10
137.719895
 20
387.611905
 42
-0.360103
  0
VERTEX
  8
0
 10
137.696410
 20
387.363077
 42
-0.164282
  0
VERTEX
  8
0
 10
136.376765
 20
386.709682
 42
-0.025059
  0
VERTEX
  8
0
 10
133.409530
 20
386.459906
 42
-0.022442
  0
VERTEX
  8
0
 10
130.442078
 20
386.492563
 42
-0.245072
  0
VERTEX
  8
0
 10
129.448337
 20
387.083592
 42
-0.191652
  0
VERTEX
  8
0
 10
129.386621
 20
387.432925
 42
-0.180898
  0
VERTEX
  8
0
 10
129.579736
 20
387.739738
 42
-0.108307
  0
VERTEX
  8
0
 10
130.038033
 20
387.952882
 42
-0.050729
  0
VERTEX
  8
0
 10
130.690983
 20
388.030409
 42
0.009977
  0
VERTEX
  8
0
 10
131.786550
 20
388.070702
 42
0.432337
  0
VERTEX
  8
0
 10
131.920492
 20
388.230388
 42
0.230581
  0
VERTEX
  8
0
 10
131.766705
 20
388.469561
 42
0.005109
  0
VERTEX
  8
0
 10
130.553263
 20
389.190198
 42
0.026189
  0
VERTEX
  8
0
 10
129.584894
 20
389.686152
 42
0.109597
  0
VERTEX
  8
0
 10
128.947607
 20
389.817086
 42
0.194553
  0
VERTEX
  8
0
 10
128.515356
 20
389.634337
 42
0.116713
  0
VERTEX
  8
0
 10
128.217853
 20
389.153559
 42
-0.108365
  0
VERTEX
  8
0
 10
127.984309
 20
388.761855
 42
-0.126416
  0
VERTEX
  8
0
 10
127.619512
 20
388.530202
 42
-0.121769
  0
VERTEX
  8
0
 10
127.177129
 20
388.498328
 42
-0.096083
  0
VERTEX
  8
0
 10
126.726743
 20
388.668882
 42
0.101396
  0
VERTEX
  8
0
 10
125.962045
 20
388.949296
 42
0.008592
  0
VERTEX
  8
0
 10
123.873640
 20
389.226974
 42
0.011116
  0
VERTEX
  8
0
 10
121.347403
 20
389.462013
 42
0.008373
  0
VERTEX
  8
0
 10
118.562154
 20
389.611991
 42
-0.000284
  0
VERTEX
  8
0
 10
115.775849
 20
389.716856
 42
-0.000380
  0
VERTEX
  8
0
 10
113.246763
 20
389.815405
 42
-0.000264
  0
VERTEX
  8
0
 10
111.125380
 20
389.900804
 42
-0.003938
  0
VERTEX
  8
0
 10
110.384274
 20
389.936879
 42
-0.266688
  0
VERTEX
  8
0
 10
109.942085
 20
390.225172
 42
-0.095157
  0
VERTEX
  8
0
 10
109.724471
 20
390.976144
 42
-0.051399
  0
VERTEX
  8
0
 10
109.737398
 20
392.219351
 42
-0.016941
  0
VERTEX
  8
0
 10
110.005405
 20
394.029559
 42
0.042426
  0
VERTEX
  8
0
 10
110.399473
 20
398.119089
 42
0.007317
  0
VERTEX
  8
0
 10
110.373211
 20
405.910374
 42
0.008449
  0
VERTEX
  8
0
 10
110.075761
 20
414.429611
 42
0.011939
  0
VERTEX
  8
0
 10
109.501772
 20
422.000000
 42
-0.008420
  0
VERTEX
  8
0
 10
109.305446
 20
424.368156
 42
-0.002427
  0
VERTEX
  8
0
 10
109.081425
 20
428.034986
 42
-0.002441
  0
VERTEX
  8
0
 10
108.869087
 20
432.171991
 42
-0.002599
  0
VERTEX
  8
0
 10
108.701980
 20
436.225485
 42
-0.009245
  0
VERTEX
  8
0
 10
108.593249
 20
442.432353
 42
-0.039525
  0
VERTEX
  8
0
 10
108.888935
 20
446.121413
 42
-0.194008
  0
VERTEX
  8
0
 10
109.571655
 20
447.254588
 42
-0.441341
  0
VERTEX
  8
0
 10
110.444098
 20
447.090451
 42
0.097794
  0
VERTEX
  8
0
 10
110.793649
 20
446.714135
 42
0.097643
  0
VERTEX
  8
0
 10
111.260192
 20
446.498688
 42
0.098232
  0
VERTEX
  8
0
 10
111.771207
 20
446.477155
 42
0.100297
  0
VERTEX
  8
0
 10
112.247597
 20
446.653023
 42
-0.109265
  0
VERTEX
  8
0
 10
113.552370
 20
447.108572
 42
-0.005237
  0
VERTEX
  8
0
 10
118.171373
 20
447.608287
 42
-0.009438
  0
VERTEX
  8
0
 10
123.051020
 20
447.991721
 42
-0.014652
  0
VERTEX
  8
0
 10
127.271613
 20
448.119384
 42
0.041698
  0
VERTEX
  8
0
 10
127.918077
 20
448.173999
 42
0.090388
  0
VERTEX
  8
0
 10
128.385105
 20
448.343374
 42
0.167685
  0
VERTEX
  8
0
 10
128.599657
 20
448.592831
 42
0.237208
  0
VERTEX
  8
0
 10
128.574426
 20
448.879577
 42
-0.437385
  0
VERTEX
  8
0
 10
128.644355
 20
449.131219
 42
-0.089250
  0
VERTEX
  8
0
 10
129.141615
 20
449.283453
 42
-0.045359
  0
VERTEX
  8
0
 10
130.021856
 20
449.308458
 42
-0.020871
  0
VERTEX
  8
0
 10
131.163600
 20
449.189296
 42
0.036152
  0
VERTEX
  8
0
 10
132.508011
 20
449.090363
 42
0.058484
  0
VERTEX
  8
0
 10
133.645797
 20
449.222539
 42
0.072983
  0
VERTEX
  8
0
 10
134.523838
 20
449.571404
 42
0.121162
  0
VERTEX
  8
0
 10
135.095474
 20
450.120241
 42
-0.029909
  0
VERTEX
  8
0
 10
135.450881
 20
450.613472
 42
-0.155304
  0
VERTEX
  8
0
 10
135.728411
 20
450.794687
 42
-0.373356
  0
VERTEX
  8
0
 10
135.911038
 20
450.707738
 42
-0.099900
  0
VERTEX
  8
0
 10
135.984687
 20
450.366631
 42
0.263642
  0
VERTEX
  8
0
 10
136.690065
 20
449.160154
 42
0.128134
  0
VERTEX
  8
0
 10
138.467050
 20
448.665869
 42
0.088433
  0
VERTEX
  8
0
 10
140.859473
 20
449.051925
 42
0.075202
  0
VERTEX
  8
0
 10
143.123454
 20
450.249394
 42
0.054354
  0
VERTEX
  8
0
 10
144.957085
 20
451.941366
 42
0.117131
  0
VERTEX
  8
0
 10
145.845360
 20
453.632041
 42
0.149338
  0
VERTEX
  8
0
 10
145.770279
 20
455.265724
 42
0.111202
  0
VERTEX
  8
0
 10
144.800000
 20
456.800000
 42
-0.026314
  0
VERTEX
  8
0
 10
144.244537
 20
457.417222
 42
-0.258148
  0
VERTEX
  8
0
 10
144.185733
 20
457.750000
 42
-0.286863
  0
VERTEX
  8
0
 10
144.434878
 20
457.952180
 42
-0.030757
  0
VERTEX
  8
0
 10
145.211516
 20
458.000000
 42
0.198072
  0
VERTEX
  8
0
 10
146.085549
 20
458.360381
 42
0.156167
  0
VERTEX
  8
0
 10
146.561380
 20
459.277046
 42
0.125086
  0
VERTEX
  8
0
 10
146.465685
 20
460.472052
 42
0.114651
  0
VERTEX
  8
0
 10
145.812213
 20
461.521120
 42
-0.191747
  0
VERTEX
  8
0
 10
145.630202
 20
461.943929
 42
-0.021568
  0
VERTEX
  8
0
 10
145.646741
 20
463.009482
 42
-0.023693
  0
VERTEX
  8
0
 10
145.786756
 20
464.325099
 42
-0.017107
  0
VERTEX
  8
0
 10
146.061979
 20
465.774806
 42
0.023103
  0
VERTEX
  8
0
 10
146.318539
 20
467.220581
 42
0.032722
  0
VERTEX
  8
0
 10
146.402104
 20
468.524342
 42
0.034220
  0
VERTEX
  8
0
 10
146.330353
 20
469.550231
 42
0.221230
  0
VERTEX
  8
0
 10
146.056041
 20
469.974742
 42
-0.366553
  0
VERTEX
  8
0
 10
145.813582
 20
470.741020
 42
-0.167252
  0
VERTEX
  8
0
 10
146.564196
 20
471.583700
 42
-0.076242
  0
VERTEX
  8
0
 10
148.359299
 20
472.258340
 42
-0.054351
  0
VERTEX
  8
0
 10
150.500000
 20
472.470328
 42
0.025621
  0
VERTEX
  8
0
 10
151.785961
 20
472.523521
 42
0.020110
  0
VERTEX
  8
0
 10
153.169384
 20
472.708309
 42
0.020525
  0
VERTEX
  8
0
 10
154.444574
 20
472.985505
 42
0.046152
  0
VERTEX
  8
0
 10
155.374498
 20
473.322141
 42
-0.107219
  0
VERTEX
  8
0
 10
158.198899
 20
473.971387
 42
-0.002221
  0
VERTEX
  8
0
 10
172.737503
 20
474.085962
 42
-0.003478
  0
VERTEX
  8
0
 10
186.776905
 20
474.036565
 42
-0.058925
  0
VERTEX
  8
0
 10
191.359692
 20
473.445859
 42
0.093262
  0
VERTEX
  8
0
 10
194.430771
 20
473.261623
 42
0.145350
  0
VERTEX
  8
0
 10
196.839524
 20
474.322163
 42
0.106733
  0
VERTEX
  8
0
 10
198.770897
 20
476.838073
 42
0.036740
  0
VERTEX
  8
0
 10
200.433170
 20
481.141624
 42
-0.007418
  0
VERTEX
  8
0
 10
201.242466
 20
483.668179
 42
-0.009110
  0
VERTEX
  8
0
 10
202.075643
 20
486.000932
 42
-0.007797
  0
VERTEX
  8
0
 10
202.839245
 20
487.930340
 42
-0.063126
  0
VERTEX
  8
0
 10
203.309903
 20
488.755167
 42
0.120510
  0
VERTEX
  8
0
 10
203.647322
 20
489.542781
 42
0.022715
  0
VERTEX
  8
0
 10
203.835312
 20
491.108861
 42
0.023099
  0
VERTEX
  8
0
 10
203.888025
 20
493.000862
 42
0.019367
  0
VERTEX
  8
0
 10
203.773525
 20
495.005167
 42
0.000000
  0
VERTEX
  8
0
 10
203.293585
 20
500.000000
 42
0.000000
  0
VERTEX
  8
0
 10
208.205810
 20
500.000000
 42
0.014741
  0
VERTEX
  8
0
 10
210.282215
 20
500.061231
 42
0.045030
  0
VERTEX
  8
0
 10
211.674808
 20
500.270219
 42
0.099054
  0
VERTEX
  8
0
 10
212.390624
 20
500.604087
 42
0.390882
  0
VERTEX
  8
0
 10
212.475228
 20
501.040082
 42
-0.183196
  0
VERTEX
  8
0
 10
212.401732
 20
501.419782
 42
-0.294701
  0
VERTEX
  8
0
 10
212.617399
 20
501.653924
 42
-0.101417
  0
VERTEX
  8
0
 10
213.213332
 20
501.684419
 42
-0.023727
  0
VERTEX
  8
0
 10
214.198895
 20
501.486216
 42
0.053695
  0
VERTEX
  8
0
 10
215.388446
 20
501.320259
 42
0.020332
  0
VERTEX
  8
0
 10
217.068291
 20
501.335931
 42
0.019862
  0
VERTEX
  8
0
 10
218.908803
 20
501.501482
 42
0.022901
  0
VERTEX
  8
0
 10
220.643918
 20
501.808659
 42
-0.031588
  0
VERTEX
  8
0
 10
222.538014
 20
502.110167
 42
-0.017440
  0
VERTEX
  8
0
 10
224.878507
 20
502.250356
 42
-0.017331
  0
VERTEX
  8
0
 10
227.270164
 20
502.227133
 42
-0.026567
  0
VERTEX
  8
0
 10
229.332214
 20
502.025464
 42
0.017039
  0
VERTEX
  8
0
 10
231.301801
 20
501.794887
 42
0.037515
  0
VERTEX
  8
0
 10
232.816391
 20
501.783574
 42
0.050399
  0
VERTEX
  8
0
 10
233.866642
 20
501.961951
 42
0.250048
  0
VERTEX
  8
0
 10
234.286844
 20
502.360531
 42
-0.214141
  0
VERTEX
  8
0
 10
234.631982
 20
502.735754
 42
-0.110419
  0
VERTEX
  8
0
 10
235.271662
 20
502.855648
 42
-0.062572
  0
VERTEX
  8
0
 10
236.237282
 20
502.700164
 42
-0.022110
  0
VERTEX
  8
0
 10
237.565864
 20
502.246806
 42
0.055000
  0
VERTEX
  8
0
 10
239.126780
 20
501.826268
 42
0.016995
  0
VERTEX
  8
0
 10
241.547473
 20
501.536121
 42
0.016772
  0
VERTEX
  8
0
 10
244.296222
 20
501.393708
 42
0.017685
  0
VERTEX
  8
0
 10
247.000000
 20
501.440068
 42
0.000127
  0
VERTEX
  8
0
 10
250.362992
 20
501.617683
 42
0.000040
  0
VERTEX
  8
0
 10
255.409375
 20
501.885893
 42
0.000040
  0
VERTEX
  8
0
 10
261.046168
 20
502.186379
 42
0.000044
  0
VERTEX
  8
0
 10
266.500000
 20
502.478022
 42
-0.000490
  0
VERTEX
  8
0
 10
276.011083
 20
502.978120
 42
-0.005398
  0
VERTEX
  8
0
 10
279.823947
 20
503.133604
 42
-0.007488
  0
VERTEX
  8
0
 10
283.233048
 20
503.184689
 42
-0.001391
  0
VERTEX
  8
0
 10
289.500000
 20
503.167304
 42
0.000051
  0
VERTEX
  8
0
 10
292.429931
 20
503.151325
 42
0.000047
  0
VERTEX
  8
0
 10
295.444828
 20
503.135471
 42
0.000047
  0
VERTEX
  8
0
 10
298.134605
 20
503.121828
 42
0.000154
  0
VERTEX
  8
0
 10
299.907926
 20
503.113544
 42
0.026651
  0
VERTEX
  8
0
 10
301.355711
 20
503.184434
 42
0.021878
  0
VERTEX
  8
0
 10
302.887675
 20
503.409647
 42
0.022418
  0
VERTEX
  8
0
 10
304.279631
 20
503.742240
 42
0.053056
  0
VERTEX
  8
0
 10
305.266153
 20
504.142441
 42
-0.079316
  0
VERTEX
  8
0
 10
307.839320
 20
505.032725
 42
-0.010379
  0
VERTEX
  8
0
 10
313.581413
 20
505.924286
 42
-0.011389
  0
VERTEX
  8
0
 10
319.355889
 20
506.565000
 42
-0.061734
  0
VERTEX
  8
0
 10
322.500000
 20
506.453077
 42
0.019660
  0
VERTEX
  8
0
 10
323.812772
 20
506.295346
 42
0.001505
  0
VERTEX
  8
0
 10
327.364063
 20
506.020452
 42
0.002065
  0
VERTEX
  8
0
 10
331.603837
 20
505.722700
 42
0.001573
  0
SEQEND
  0
POLYLINE
  8
0
 66
1
 70
1
  0
VERTEX
  8
0
 10
287.000000
 20
505.000000
 42
-0.042167
  0
VERTEX
  8
0
 10
286.967655
 20
504.617151
 42
-0.061769
  0
VERTEX
  8
0
 10
286.870461
 20
504.293750
 42
-0.081139
  0
VERTEX
  8
0
 10
286.727648
 20
504.074460
 42
-0.210953
  0
VERTEX
  8
0
 10
286.559017
 20
504.000000
 42
-0.151918
  0
VERTEX
  8
0
 10
286.348290
 20
504.065539
 42
-0.038439
  0
VERTEX
  8
0
 10
286.066025
 20
504.293750
 42
-0.035638
  0
VERTEX
  8
0
 10
285.768994
 20
504.617226
 42
-0.029505
  0
VERTEX
  8
0
 10
285.500000
 20
505.000000
 42
-0.082592
  0
VERTEX
  8
0
 10
285.343488
 20
505.382100
 42
-0.161196
  0
VERTEX
  8
0
 10
285.374600
 20
505.706250
 42
-0.182303
  0
VERTEX
  8
0
 10
285.586039
 20
505.921712
 42
-0.108972
  0
VERTEX
  8
0
 10
285.940983
 20
506.000000
 42
-0.093332
  0
VERTEX
  8
0
 10
286.345238
 20
505.923877
 42
-0.096420
  0
VERTEX
  8
0
 10
286.688914
 20
505.706250
 42
-0.099167
  0
VERTEX
  8
0
 10
286.918938
 20
505.381556
 42
-0.105053
  0
SEQEND
  0
POLYLINE
  8
0
 66
1
 70
1
  0
VERTEX
  8
0
 10
208.000000
 20
502.606989
 42
-0.222225
  0
VERTEX
  8
0
 10
207.912889
 20
502.420671
 42
-0.030693
  0
VERTEX
  8
0
 10
207.559375
 20
502.160341
 42
-0.030395
  0
VERTEX
  8
0
 10
207.074558
 20
501.887494
 42
-0.021360
  0
VERTEX
  8
0
 10
206.500000
 20
501.638374
 42
-0.055937
  0
VERTEX
  8
0
 10
205.925634
 20
501.488865
 42
-0.100118
  0
VERTEX
  8
0
 10
205.440625
 20
501.516384
 42
-0.147206
  0
VERTEX
  8
0
 10
205.122486
 20
501.710807
 42
-0.184534
  0
VERTEX
  8
0
 10
205.000000
 20
502.031385
 42
-0.152681
  0
VERTEX
  8
0
 10
205.115494
 20
502.400789
 42
-0.098158
  0
VERTEX
  8
0
 10
205.440625
 20
502.715469
 42
-0.080880
  0
VERTEX
  8
0
 10
205.926468
 20
502.927770
 42
-0.062722
  0
VERTEX
  8
0
 10
206.500000
 20
503.000000
 42
-0.024748
  0
VERTEX
  8
0
 10
207.074824
 20
502.971531
 42
-0.039339
  0
VERTEX
  8
0
 10
207.559375
 20
502.884553
 42
-0.046727
  0
VERTEX
  8
0
 10
207.903916
 20
502.758929
 42
-0.289661
  0
SEQEND
  0
POLYLINE
  8
0
 66
1
 70
1
  0
VERTEX
  8
0
 10
163.000000
 20
478.559017
 42
-0.211827
  0
VERTEX
  8
0
 10
162.716404
 20
477.919648
 42
-0.127879
  0
VERTEX
  8
0
 10
161.969093
 20
477.529206
 42
-0.122608
  0
VERTEX
  8
0
 10
161.101938
 20
477.543880
 42
-0.191362
  0
VERTEX
  8
0
 10
160.510081
 20
477.983688
 42
-0.136093
  0
VERTEX
  8
0
 10
160.397824
 20
478.369640
 42
-0.190788
  0
VERTEX
  8
0
 10
160.524436
 20
478.701458
 42
-0.140899
  0
VERTEX
  8
0
 10
160.890269
 20
478.925389
 42
-0.067432
  0
VERTEX
  8
0
 10
161.440983
 20
479.000000
 42
-0.026751
  0
VERTEX
  8
0
 10
162.038367
 20
478.968016
 42
-0.042195
  0
VERTEX
  8
0
 10
162.542039
 20
478.870461
 42
-0.051652
  0
VERTEX
  8
0
 10
162.897010
 20
478.729146
 42
-0.279105
  0
SEQEND
  0
POLYLINE
  8
0
 66
1
 70
1
  0
VERTEX
  8
0
 10
185.500000
 20
476.825882
 42
-0.200299
  0
VERTEX
  8
0
 10
185.656300
 20
476.472108
 42
-0.339762
  0
VERTEX
  8
0
 10
185.474148
 20
476.224575
 42
-0.085504
  0
VERTEX
  8
0
 10
184.780774
 20
476.147465
 42
-0.017826
  0
VERTEX
  8
0
 10
183.557896
 20
476.264588
 42
-0.037864
  0
VERTEX
  8
0
 10
182.400588
 20
476.507421
 42
-0.044270
  0
VERTEX
  8
0
 10
181.354837
 20
476.914234
 42
-0.049700
  0
VERTEX
  8
0
 10
180.557563
 20
477.412756
 42
-0.148815
  0
VERTEX
  8
0
 10
180.189583
 20
477.931250
 42
-0.453856
  0
VERTEX
  8
0
 10
180.559522
 20
478.562111
 42
-0.098705
  0
VERTEX
  8
0
 10
181.995653
 20
478.549978
 42
-0.060014
  0
VERTEX
  8
0
 10
183.950190
 20
477.891174
 42
-0.078768
  0
SEQEND
  0
POLYLINE
  8
0
 66
1
 70
1
  0
VERTEX
  8
0
 10
141.000000
 20
470.000000
 42
-0.099038
  0
VERTEX
  8
0
 10
140.923658
 20
469.618362
 42
-0.097945
  0
VERTEX
  8
0
 10
140.706250
 20
469.293750
 42
-0.097945
  0
VERTEX
  8
0
 10
140.381638
 20
469.076342
 42
-0.099038
  0
VERTEX
  8
0
 10
140.000000
 20
469.000000
 42
-0.099038
  0
VERTEX
  8
0
 10
139.618362
 20
469.076342
 42
-0.097945
  0
VERTEX
  8
0
 10
139.293750
 20
469.293750
 42
-0.097945
  0
VERTEX
  8
0
 10
139.076342
 20
469.618362
 42
-0.099038
  0
VERTEX
  8
0
 10
139.000000
 20
470.000000
 42
-0.099038
  0
VERTEX
  8
0
 10
139.076342
 20
470.381638
 42
-0.097945
  0
VERTEX
  8
0
 10
139.293750
 20
470.706250
 42
-0.097945
  0
VERTEX
  8
0
 10
139.618362
 20
470.923658
 42
-0.099038
  0
VERTEX
  8
0
 10
140.000000
 20
471.000000
 42
-0.099038
  0
VERTEX
  8
0
 10
140.381638
 20
470.923658
 42
-0.097945
  0
VERTEX
  8
0
 10
140.706250
 20
470.706250
 42
-0.097945
  0
VERTEX
  8
0
 10
140.923658
 20
470.381638
 42
-0.099038
  0
SEQEND
  0
POLYLINE
  8
0
 66
1
 70
1
  0
VERTEX
  8
0
 10
105.926114
 20
432.589028
 42
-0.041723
  0
VERTEX
  8
0
 10
106.403104
 20
431.905579
 42
-0.120295
  0
VERTEX
  8
0
 10
106.565232
 20
431.355232
 42
-0.166224
  0
VERTEX
  8
0
 10
106.433508
 20
430.901227
 42
-0.101699
  0
VERTEX
  8
0
 10
106.023782
 20
430.514698
 42
-0.090016
  0
VERTEX
  8
0
 10
105.634872
 20
430.362050
 42
-0.225165
  0
VERTEX
  8
0
 10
105.346455
 20
430.435224
 42
-0.200483
  0
VERTEX
  8
0
 10
105.198445
 20
430.716997
 42
-0.073263
  0
VERTEX
  8
0
 10
105.225223
 20
431.175670
 42
0.099915
  0
VERTEX
  8
0
 10
105.227842
 20
431.659462
 42
0.148999
  0
VERTEX
  8
0
 10
105.030263
 20
432.030263
 42
0.148999
  0
VERTEX
  8
0
 10
104.659462
 20
432.227842
 42
0.099915
  0
VERTEX
  8
0
 10
104.175670
 20
432.225223
 42
-0.068666
  0
VERTEX
  8
0
 10
103.713906
 20
432.194024
 42
-0.191458
  0
VERTEX
  8
0
 10
103.426408
 20
432.332191
 42
-0.232089
  0
VERTEX
  8
0
 10
103.345296
 20
432.605637
 42
-0.096758
  0
VERTEX
  8
0
 10
103.484687
 20
432.975223
 42
-0.039206
  0
VERTEX
  8
0
 10
104.054451
 20
433.753483
 42
-0.259971
  0
VERTEX
  8
0
 10
104.490149
 20
433.913413
 42
-0.166354
  0
VERTEX
  8
0
 10
104.989292
 20
433.649369
 42
-0.015454
  0
SEQEND
  0
POLYLINE
  8
0
 66
1
 70
1
  0
VERTEX
  8
0
 10
108.500000
 20
417.000000
 42
-0.075854
  0
VERTEX
  8
0
 10
108.175433
 20
416.618541
 42
-0.054031
  0
VERTEX
  8
0
 10
107.713662
 20
416.298248
 42
-0.053889
  0
VERTEX
  8
0
 10
107.192374
 20
416.083483
 42
-0.074131
  0
VERTEX
  8
0
 10
106.690983
 20
416.015313
 42
-0.102799
  0
VERTEX
  8
0
 10
106.327599
 20
416.095709
 42
-0.379910
  0
VERTEX
  8
0
 10
106.239151
 20
416.292684
 42
-0.147021
  0
VERTEX
  8
0
 10
106.445888
 20
416.597454
 42
-0.027275
  0
VERTEX
  8
0
 10
107.000000
 20
417.000000
 42
-0.008108
  0
VERTEX
  8
0
 10
108.281145
 20
417.798791
 42
-0.136158
  0
VERTEX
  8
0
 10
108.758161
 20
417.931144
 42
-0.541951
  0
VERTEX
  8
0
 10
108.886554
 20
417.734105
 42
-0.034464
  0
SEQEND
  0
POLYLINE
  8
0
 66
1
 70
1
  0
VERTEX
  8
0
 10
114.729167
 20
387.395833
 42
-0.126455
  0
VERTEX
  8
0
 10
114.402231
 20
387.202593
 42
-0.060344
  0
VERTEX
  8
0
 10
113.916927
 20
387.123424
 42
-0.054150
  0
VERTEX
  8
0
 10
113.359369
 20
387.160852
 42
-0.051402
  0
VERTEX
  8
0
 10
112.812500
 20
387.316886
 42
-0.054073
  0
VERTEX
  8
0
 10
112.395823
 20
387.538436
 42
-0.470617
  0
VERTEX
  8
0
 10
112.378580
 20
387.720685
 42
-0.168741
  0
VERTEX
  8
0
 10
112.670344
 20
387.862007
 42
-0.018894
  0
VERTEX
  8
0
 10
113.416667
 20
387.921053
 42
-0.028489
  0
VERTEX
  8
0
 10
114.112848
 20
387.910055
 42
-0.077125
  0
VERTEX
  8
0
 10
114.592839
 20
387.799335
 42
-0.208169
  0
VERTEX
  8
0
 10
114.775380
 20
387.614691
 42
-0.296942
  0
SEQEND
  0
POLYLINE
  8
0
 66
1
 70
1
  0
VERTEX
  8
0
 10
118.500000
 20
387.000000
 42
-0.082592
  0
VERTEX
  8
0
 10
118.656512
 20
386.617900
 42
-0.161196
  0
VERTEX
  8
0
 10
118.625400
 20
386.293750
 42
-0.182303
  0
VERTEX
  8
0
 10
118.413961
 20
386.078288
 42
-0.108972
  0
VERTEX
  8
0
 10
118.059017
 20
386.000000
 42
-0.093332
  0
VERTEX
  8
0
 10
117.654762
 20
386.076123
 42
-0.096420
  0
VERTEX
  8
0
 10
117.311086
 20
386.293750
 42
-0.099167
  0
VERTEX
  8
0
 10
117.081062
 20
386.618444
 42
-0.105053
  0
VERTEX
  8
0
 10
117.000000
 20
387.000000
 42
-0.042167
  0
VERTEX
  8
0
 10
117.032345
 20
387.382849
 42
-0.061769
  0
VERTEX
  8
0
 10
117.129539
 20
387.706250
 42
-0.081139
  0
VERTEX
  8
0
 10
117.272352
 20
387.925540
 42
-0.210953
  0
VERTEX
  8
0
 10
117.440983
 20
388.000000
 42
-0.151918
  0
VERTEX
  8
0
 10
117.651710
 20
387.934461
 42
-0.038439
  0
VERTEX
  8
0
 10
117.933975
 20
387.706250
 42
-0.035638
  0
VERTEX
  8
0
 10
118.231006
 20
387.382774
 42
-0.029505
  0
SEQEND
  0
POLYLINE
  8
0
 66
1
 70
1
  0
VERTEX
  8
0
 10
125.500000
 20
387.000000
 42
-0.202618
  0
VERTEX
  8
0
 10
125.558599
 20
386.621877
 42
-0.181468
  0
VERTEX
  8
0
 10
125.331650
 20
386.293750
 42
-0.104212
  0
VERTEX
  8
0
 10
124.804599
 20
386.071541
 42
-0.047867
  0
VERTEX
  8
0
 10
124.059017
 20
386.000000
 42
-0.046600
  0
VERTEX
  8
0
 10
123.270941
 20
386.073608
 42
-0.066561
  0
VERTEX
  8
0
 10
122.604836
 20
386.293750
 42
-0.086673
  0
VERTEX
  8
0
 10
122.155423
 20
386.618015
 42
-0.195654
  0
VERTEX
  8
0
 10
122.000000
 20
387.000000
 42
-0.142666
  0
VERTEX
  8
0
 10
122.111069
 20
387.381340
 42
-0.099650
  0
VERTEX
  8
0
 10
122.423289
 20
387.706250
 42
-0.084330
  0
VERTEX
  8
0
 10
122.890182
 20
387.925146
 42
-0.067639
  0
VERTEX
  8
0
 10
123.440983
 20
388.000000
 42
-0.061875
  0
VERTEX
  8
0
 10
124.038022
 20
387.925833
 42
-0.051278
  0
VERTEX
  8
0
 10
124.640225
 20
387.706250
 42
-0.053305
  0
VERTEX
  8
0
 10
125.157656
 20
387.382836
 42
-0.088250
  0
SEQEND
  0
POLYLINE
  8
0
 66
1
 70
1
  0
VERTEX
  8
0
 10
89.000000
 20
317.031385
 42
-0.203976
  0
VERTEX
  8
0
 10
88.865539
 20
316.715499
 42
-0.141566
  0
VERTEX
  8
0
 10
88.517739
 20
316.532361
 42
-0.092129
  0
VERTEX
  8
0
 10
87.987174
 20
316.521926
 42
-0.050627
  0
VERTEX
  8
0
 10
87.358261
 20
316.692764
 42
0.342532
  0
VERTEX
  8
0
 10
86.525376
 20
316.440946
 42
0.135001
  0
VERTEX
  8
0
 10
86.089059
 20
315.241175
 42
0.031291
  0
VERTEX
  8
0
 10
86.036776
 20
312.313690
 42
0.002753
  0
VERTEX
  8
0
 10
86.408766
 20
304.911379
 42
-0.000952
  0
VERTEX
  8
0
 10
86.688419
 20
299.719563
 42
-0.000878
  0
VERTEX
  8
0
 10
86.956264
 20
294.383343
 42
-0.000876
  0
VERTEX
  8
0
 10
87.178295
 20
289.626742
 42
-0.002914
  0
VERTEX
  8
0
 10
87.300504
 20
286.500000
 42
0.000000
  0
VERTEX
  8
0
 10
87.500000
 20
280.500000
 42
0.000000
  0
VERTEX
  8
0
 10
95.937926
 20
280.206521
 42
0.012670
  0
VERTEX
  8
0
 10
99.475880
 20
280.173162
 42
0.015442
  0
VERTEX
  8
0
 10
102.784067
 20
280.328069
 42
0.015895
  0
VERTEX
  8
0
 10
105.552423
 20
280.632311
 42
0.062946
  0
VERTEX
  8
0
 10
107.200597
 20
281.083090
 42
-0.043356
  0
VERTEX
  8
0
 10
108.603875
 20
281.526482
 42
-0.018629
  0
VERTEX
  8
0
 10
110.537015
 20
281.882510
 42
-0.018268
  0
VERTEX
  8
0
 10
112.636546
 20
282.110876
 42
-0.022974
  0
VERTEX
  8
0
 10
114.591952
 20
282.161476
 42
0.056882
  0
VERTEX
  8
0
 10
119.100392
 20
282.584576
 42
0.191238
  0
VERTEX
  8
0
 10
121.525461
 20
284.191236
 42
0.141766
  0
VERTEX
  8
0
 10
122.608455
 20
287.393725
 42
0.027101
  0
VERTEX
  8
0
 10
122.547973
 20
293.599386
 42
-0.000162
  0
VERTEX
  8
0
 10
122.350549
 20
296.698742
 42
-0.000225
  0
VERTEX
  8
0
 10
122.175991
 20
299.472945
 42
-0.000136
  0
VERTEX
  8
0
 10
122.030637
 20
301.809920
 42
-0.002921
  0
VERTEX
  8
0
 10
121.991950
 20
302.500000
 42
-0.032251
  0
VERTEX
  8
0
 10
122.000030
 20
303.064282
 42
-0.006336
  0
VERTEX
  8
0
 10
122.092693
 20
304.074509
 42
-0.006696
  0
VERTEX
  8
0
 10
122.231591
 20
305.250825
 42
-0.006168
  0
VERTEX
  8
0
 10
122.405405
 20
306.455776
 42
0.037139
  0
VERTEX
  8
0
 10
122.644922
 20
309.393457
 42
0.194779
  0
VERTEX
  8
0
 10
122.059184
 20
310.870095
 42
0.323354
  0
VERTEX
  8
0
 10
120.876200
 20
311.088956
 42
0.077022
  0
VERTEX
  8
0
 10
119.119444
 20
309.896652
 42
-0.032660
  0
VERTEX
  8
0
 10
118.103312
 20
309.066969
 42
-0.066322
  0
VERTEX
  8
0
 10
117.193339
 20
308.585123
 42
-0.098009
  0
VERTEX
  8
0
 10
116.444314
 20
308.464908
 42
-0.189507
  0
VERTEX
  8
0
 10
115.896422
 20
308.703578
 42
-0.193534
  0
VERTEX
  8
0
 10
115.691522
 20
309.184110
 42
-0.151915
  0
VERTEX
  8
0
 10
115.849860
 20
309.733076
 42
-0.088512
  0
VERTEX
  8
0
 10
116.413284
 20
310.327186
 42
-0.036001
  0
VERTEX
  8
0
 10
117.358904
 20
310.924488
 42
0.047944
  0
VERTEX
  8
0
 10
118.347597
 20
311.582488
 42
0.079405
  0
VERTEX
  8
0
 10
119.013939
 20
312.328133
 42
0.096826
  0
VERTEX
  8
0
 10
119.331715
 20
313.128934
 42
0.110571
  0
VERTEX
  8
0
 10
119.302483
 20
313.951306
 42
0.206368
  0
VERTEX
  8
0
 10
118.583222
 20
314.872724
 42
0.092360
  0
VERTEX
  8
0
 10
117.092960
 20
315.361253
 42
0.034348
  0
VERTEX
  8
0
 10
114.248278
 20
315.543300
 42
0.004165
  0
VERTEX
  8
0
 10
107.980163
 20
315.461243
 42
-0.007643
  0
VERTEX
  8
0
 10
102.812911
 20
315.429541
 42
-0.018955
  0
VERTEX
  8
0
 10
99.033107
 20
315.607538
 42
-0.025298
  0
VERTEX
  8
0
 10
96.265445
 20
315.985005
 42
-0.073242
  0
VERTEX
  8
0
 10
94.442483
 20
316.614218
 42
0.031106
  0
VERTEX
  8
0
 10
92.294068
 20
317.564346
 42
0.069535
  0
VERTEX
  8
0
 10
90.553340
 20
317.945112
 42
0.132094
  0
VERTEX
  8
0
 10
89.442671
 20
317.735919
 42
0.288085
  0
SEQEND
  0
POLYLINE
  8
0
 66
1
 70
1
  0
VERTEX
  8
0
 10
107.489933
 20
309.438833
 42
-0.008289
  0
VERTEX
  8
0
 10
111.195506
 20
309.527998
 42
-0.065952
  0
VERTEX
  8
0
 10
112.891194
 20
309.316247
 42
-0.155110
  0
VERTEX
  8
0
 10
113.818279
 20
308.730206
 42
-0.111342
  0
VERTEX
  8
0
 10
114.385354
 20
307.634407
 42
-0.052798
  0
VERTEX
  8
0
 10
114.512255
 20
306.796343
 42
-0.059288
  0
VERTEX
  8
0
 10
114.452272
 20
305.983416
 42
-0.067872
  0
VERTEX
  8
0
 10
114.225223
 20
305.315386
 42
-0.139407
  0
VERTEX
  8
0
 10
113.855638
 20
304.910779
 42
0.060125
  0
VERTEX
  8
0
 10
113.439691
 20
304.578746
 42
0.188870
  0
VERTEX
  8
0
 10
113.301825
 20
304.255972
 42
0.198046
  0
VERTEX
  8
0
 10
113.422465
 20
303.936145
 42
0.066470
  0
VERTEX
  8
0
 10
113.816281
 20
303.613545
 42
-0.213221
  0
VERTEX
  8
0
 10
114.220187
 20
303.019431
 42
-0.015295
  0
VERTEX
  8
0
 10
114.517807
 20
301.000107
 42
-0.019231
  0
VERTEX
  8
0
 10
114.713715
 20
298.470344
 42
-0.012899
  0
VERTEX
  8
0
 10
114.751524
 20
295.569413
 42
0.000000
  0
VERTEX
  8
0
 10
114.656962
 20
288.161735
 42
0.000000
  0
VERTEX
  8
0
 10
108.578481
 20
287.134078
 42
-0.003240
  0
VERTEX
  8
0
 10
101.101083
 20
285.919694
 42
-0.023572
  0
VERTEX
  8
0
 10
97.486642
 20
285.530055
 42
-0.056071
  0
VERTEX
  8
0
 10
95.561946
 20
285.629794
 42
-0.358659
  0
VERTEX
  8
0
 10
94.964939
 20
286.312871
 42
0.003778
  0
VERTEX
  8
0
 10
94.933536
 20
287.159318
 42
0.000121
  0
VERTEX
  8
0
 10
94.780031
 20
290.577224
 42
0.000234
  0
VERTEX
  8
0
 10
94.596125
 20
294.608093
 42
0.000163
  0
VERTEX
  8
0
 10
94.384699
 20
299.162786
 42
0.000000
  0
VERTEX
  8
0
 10
93.839519
 20
310.825572
 42
0.000000
  0
VERTEX
  8
0
 10
97.486739
 20
310.002991
 42
0.030151
  0
VERTEX
  8
0
 10
99.322686
 20
309.703803
 42
0.011230
  0
VERTEX
  8
0
 10
101.929655
 20
309.497954
 42
0.011080
  0
VERTEX
  8
0
 10
104.789093
 20
309.400185
 42
0.013164
  0
SEQEND
  0
POLYLINE
  8
0
 66
1
 70
1
  0
VERTEX
  8
0
 10
152.396047
 20
314.253190
 42
-0.078553
  0
VERTEX
  8
0
 10
151.701717
 20
313.748417
 42
-0.063363
  0
VERTEX
  8
0
 10
150.832809
 20
313.435888
 42
-0.062178
  0
VERTEX
  8
0
 10
149.896177
 20
313.347093
 42
-0.069525
  0
VERTEX
  8
0
 10
149.003067
 20
313.499026
 42
0.075843
  0
VERTEX
  8
0
 10
147.780720
 20
313.691194
 42
0.254022
  0
VERTEX
  8
0
 10
147.090181
 20
313.320221
 42
0.267042
  0
VERTEX
  8
0
 10
147.045738
 20
312.559915
 42
0.080644
  0
VERTEX
  8
0
 10
147.748286
 20
311.585048
 42
-0.182591
  0
VERTEX
  8
0
 10
148.049196
 20
310.918749
 42
-0.003189
  0
VERTEX
  8
0
 10
148.277266
 20
306.894609
 42
-0.007596
  0
VERTEX
  8
0
 10
148.443513
 20
302.152730
 42
-0.004933
  0
VERTEX
  8
0
 10
148.498286
 20
296.668381
 42
0.000000
  0
VERTEX
  8
0
 10
148.500000
 20
282.500000
 42
0.000000
  0
VERTEX
  8
0
 10
156.500000
 20
282.429700
 42
0.010927
  0
VERTEX
  8
0
 10
159.654401
 20
282.470915
 42
0.014565
  0
VERTEX
  8
0
 10
162.513968
 20
282.654310
 42
0.011777
  0
VERTEX
  8
0
 10
164.862690
 20
282.929725
 42
0.127045
  0
VERTEX
  8
0
 10
165.739038
 20
283.293048
 42
-0.167672
  0
VERTEX
  8
0
 10
167.397317
 20
283.830647
 42
-0.036519
  0
VERTEX
  8
0
 10
170.434222
 20
283.551204
 42
-0.034209
  0
VERTEX
  8
0
 10
173.299675
 20
282.870741
 42
-0.328410
  0
VERTEX
  8
0
 10
174.000000
 20
281.919503
 42
0.225729
  0
VERTEX
  8
0
 10
174.154704
 20
281.594288
 42
0.182742
  0
VERTEX
  8
0
 10
174.525447
 20
281.470905
 42
0.085049
  0
VERTEX
  8
0
 10
175.147905
 20
281.603523
 42
0.027955
  0
VERTEX
  8
0
 10
176.000000
 20
282.000000
 42
-0.022351
  0
VERTEX
  8
0
 10
176.767520
 20
282.367638
 42
-0.043567
  0
VERTEX
  8
0
 10
177.412500
 20
282.577755
 42
-0.069031
  0
VERTEX
  8
0
 10
177.853395
 20
282.617546
 42
-0.400272
  0
VERTEX
  8
0
 10
178.000000
 20
282.463755
 42
0.475186
  0
VERTEX
  8
0
 10
178.126799
 20
282.360461
 42
0.085733
  0
VERTEX
  8
0
 10
178.453654
 20
282.488989
 42
0.041442
  0
VERTEX
  8
0
 10
178.950922
 20
282.850442
 42
0.018508
  0
VERTEX
  8
0
 10
179.544353
 20
283.401496
 42
0.096448
  0
VERTEX
  8
0
 10
180.255263
 20
284.456179
 42
0.063909
  0
VERTEX
  8
0
 10
180.650325
 20
285.866342
 42
0.042495
  0
VERTEX
  8
0
 10
180.769949
 20
287.839001
 42
0.014265
  0
VERTEX
  8
0
 10
180.617246
 20
290.722924
 42
-0.007418
  0
VERTEX
  8
0
 10
180.430939
 20
293.516499
 42
-0.003242
  0
VERTEX
  8
0
 10
180.262866
 20
297.226421
 42
-0.003208
  0
VERTEX
  8
0
 10
180.135199
 20
301.168770
 42
-0.004280
  0
VERTEX
  8
0
 10
180.072894
 20
304.750000
 42
0.000000
  0
VERTEX
  8
0
 10
180.000000
 20
313.000000
 42
0.000000
  0
VERTEX
  8
0
 10
174.200000
 20
313.000000
 42
-0.014213
  0
VERTEX
  8
0
 10
171.909415
 20
313.065127
 42
-0.018609
  0
VERTEX
  8
0
 10
169.824687
 20
313.261806
 42
-0.016361
  0
VERTEX
  8
0
 10
168.127719
 20
313.542627
 42
-0.140102
  0
VERTEX
  8
0
 10
167.450000
 20
313.891253
 42
0.163521
  0
VERTEX
  8
0
 10
165.230517
 20
314.907357
 42
0.020283
  0
VERTEX
  8
0
 10
159.853665
 20
315.255177
 42
0.019437
  0
VERTEX
  8
0
 10
154.463251
 20
315.175228
 42
0.184993
  0
SEQEND
  0
POLYLINE
  8
0
 66
1
 70
1
  0
VERTEX
  8
0
 10
167.667848
 20
307.408182
 42
-0.011223
  0
VERTEX
  8
0
 10
170.547756
 20
306.500393
 42
-0.068864
  0
VERTEX
  8
0
 10
171.935765
 20
305.803497
 42
-0.176657
  0
VERTEX
  8
0
 10
172.461484
 20
305.064398
 42
-0.175581
  0
VERTEX
  8
0
 10
172.389691
 20
304.158182
 42
0.069572
  0
VERTEX
  8
0
 10
172.090010
 20
303.145654
 42
0.010961
  0
VERTEX
  8
0
 10
171.826451
 20
301.080193
 42
0.011990
  0
VERTEX
  8
0
 10
171.626317
 20
298.615376
 42
0.010216
  0
VERTEX
  8
0
 10
171.530835
 20
296.008434
 42
0.000000
  0
VERTEX
  8
0
 10
171.425798
 20
289.516867
 42
0.000000
  0
VERTEX
  8
0
 10
165.962899
 20
288.726154
 42
-0.013160
  0
VERTEX
  8
0
 10
160.015959
 20
288.024600
 42
-0.159145
  0
VERTEX
  8
0
 10
157.801251
 20
288.530409
 42
-0.225350
  0
VERTEX
  8
0
 10
156.706557
 20
290.174865
 42
-0.029124
  0
VERTEX
  8
0
 10
156.334553
 20
294.500000
 42
0.001227
  0
VERTEX
  8
0
 10
156.257863
 20
297.053693
 42
0.001025
  0
VERTEX
  8
0
 10
156.164194
 20
299.765625
 42
0.001034
  0
VERTEX
  8
0
 10
156.068286
 20
302.246328
 42
0.002823
  0
VERTEX
  8
0
 10
155.986936
 20
304.000000
 42
-0.003574
  0
VERTEX
  8
0
 10
155.924318
 20
305.395115
 42
-0.004453
  0
VERTEX
  8
0
 10
155.886953
 20
306.692187
 42
-0.003636
  0
VERTEX
  8
0
 10
155.873217
 20
307.780496
 42
-0.033707
  0
VERTEX
  8
0
 10
155.902383
 20
308.250000
 42
-0.363525
  0
VERTEX
  8
0
 10
156.682464
 20
308.968060
 42
-0.029535
  0
VERTEX
  8
0
 10
159.676648
 20
308.931004
 42
-0.030605
  0
VERTEX
  8
0
 10
163.499303
 20
308.421053
 42
-0.022279
  0
SEQEND
  0
POLYLINE
  8
0
 66
1
 70
1
  0
VERTEX
  8
0
 10
154.000000
 20
305.000000
 42
-0.042167
  0
VERTEX
  8
0
 10
153.967655
 20
304.617151
 42
-0.061769
  0
VERTEX
  8
0
 10
153.870461
 20
304.293750
 42
-0.081139
  0
VERTEX
  8
0
 10
153.727648
 20
304.074460
 42
-0.210953
  0
VERTEX
  8
0
 10
153.559017
 20
304.000000
 42
-0.151918
  0
VERTEX
  8
0
 10
153.348290
 20
304.065539
 42
-0.038439
  0
VERTEX
  8
0
 10
153.066025
 20
304.293750
 42
-0.035638
  0
VERTEX
  8
0
 10
152.768994
 20
304.617226
 42
-0.029505
  0
VERTEX
  8
0
 10
152.500000
 20
305.000000
 42
-0.082592
  0
VERTEX
  8
0
 10
152.343488
 20
305.382100
 42
-0.161196
  0
VERTEX
  8
0
 10
152.374600
 20
305.706250
 42
-0.182303
  0
VERTEX
  8
0
 10
152.586039
 20
305.921712
 42
-0.108972
  0
VERTEX
  8
0
 10
152.940983
 20
306.000000
 42
-0.093332
  0
VERTEX
  8
0
 10
153.345238
 20
305.923877
 42
-0.096420
  0
VERTEX
  8
0
 10
153.688914
 20
305.706250
 42
-0.099167
  0
VERTEX
  8
0
 10
153.918938
 20
305.381556
 42
-0.105053
  0
SEQEND
  0
POLYLINE
  8
0
 66
1
 70
1
  0
VERTEX
  8
0
 10
375.750000
 20
150.213832
 42
0.031569
  0
VERTEX
  8
0
 10
374.696795
 20
150.012896
 42
0.046050
  0
VERTEX
  8
0
 10
373.807813
 20
149.694753
 42
0.056012
  0
VERTEX
  8
0
 10
373.187683
 20
149.316581
 42
0.231844
  0
VERTEX
  8
0
 10
373.000000
 20
148.933578
 42
0.362982
  0
VERTEX
  8
0
 10
373.578357
 20
148.241868
 42
0.042431
  0
VERTEX
  8
0
 10
375.739133
 20
148.039867
 42
0.043613
  0
VERTEX
  8
0
 10
378.144466
 20
148.229719
 42
0.100091
  0
VERTEX
  8
0
 10
379.833846
 20
148.876149
 42
0.231244
  0
VERTEX
  8
0
 10
380.266783
 20
149.580192
 42
0.351230
  0
VERTEX
  8
0
 10
379.893224
 20
150.151966
 42
0.084502
  0
VERTEX
  8
0
 10
378.250466
 20
150.396779
 42
0.026190
  0
SEQEND
  0
POLYLINE
  8
0
 66
1
 70
1
  0
VERTEX
  8
0
 10
368.812500
 20
148.316886
 42
0.051402
  0
VERTEX
  8
0
 10
369.359369
 20
148.160852
 42
0.054150
  0
VERTEX
  8
0
 10
369.916927
 20
148.123424
 42
0.060344
  0
VERTEX
  8
0
 10
370.402231
 20
148.202593
 42
0.126455
  0
VERTEX
  8
0
 10
370.729167
 20
148.395833
 42
0.296942
  0
VERTEX
  8
0
 10
370.775380
 20
148.614691
 42
0.208169
  0
VERTEX
  8
0
 10
370.592839
 20
148.799335
 42
0.077125
  0
VERTEX
  8
0
 10
370.112848
 20
148.910055
 42
0.028489
  0
VERTEX
  8
0
 10
369.416667
 20
148.921053
 42
0.018894
  0
VERTEX
  8
0
 10
368.670344
 20
148.862007
 42
0.168741
  0
VERTEX
  8
0
 10
368.378580
 20
148.720685
 42
0.470617
  0
VERTEX
  8
0
 10
368.395823
 20
148.538436
 42
0.054073
  0
SEQEND
  0
POLYLINE
  8
0
 66
1
 70
1
  0
VERTEX
  8
0
 10
325.000000
 20
116.000000
 42
0.092995
  0
VERTEX
  8
0
 10
325.071618
 20
115.618268
 42
0.096318
  0
VERTEX
  8
0
 10
325.276414
 20
115.293750
 42
0.099231
  0
VERTEX
  8
0
 10
325.581949
 20
115.076556
 42
0.105429
  0
VERTEX
  8
0
 10
325.940983
 20
115.000000
 42
0.089642
  0
VERTEX
  8
0
 10
326.346558
 20
115.073302
 42
0.053229
  0
VERTEX
  8
0
 10
326.787100
 20
115.293750
 42
0.051032
  0
VERTEX
  8
0
 10
327.193797
 20
115.617485
 42
0.060810
  0
VERTEX
  8
0
 10
327.500000
 20
116.000000
 42
0.139169
  0
VERTEX
  8
0
 10
327.607943
 20
116.379648
 42
0.191142
  0
VERTEX
  8
0
 10
327.478525
 20
116.706250
 42
0.138808
  0
VERTEX
  8
0
 10
327.110654
 20
116.926733
 42
0.066118
  0
VERTEX
  8
0
 10
326.559017
 20
117.000000
 42
0.062283
  0
VERTEX
  8
0
 10
325.962904
 20
116.925455
 42
0.080552
  0
VERTEX
  8
0
 10
325.457961
 20
116.706250
 42
0.097988
  0
VERTEX
  8
0
 10
325.120018
 20
116.381379
 42
0.153634
  0
SEQEND
  0
ENDSEC
  0
EOF
