999
DXF data, created by potrace 1.16, written by Peter Selinger 2001-2019
  0
SECTION
  2
HEADER
  9
$ACADVER
  1
AC1006
  9
$EXTMIN
 10
0.000000
 20
0.000000
 30
0.000000
  9
$EXTMAX
 10
1181.000000
 20
1181.000000
 30
0.000000
  0
ENDSEC
  0
SECTION
  2
ENTITIES
  0
POLYLINE
  8
0
 66
1
 70
1
  0
VERTEX
  8
0
 10
527.596845
 20
1100.233302
 42
0.003664
  0
VERTEX
  8
0
 10
527.770524
 20
1095.903999
 42
0.004204
  0
VERTEX
  8
0
 10
528.001478
 20
1091.771657
 42
0.003796
  0
VERTEX
  8
0
 10
528.253297
 20
1088.271905
 42
0.023994
  0
VERTEX
  8
0
 10
528.480267
 20
1086.500000
 42
-0.007813
  0
VERTEX
  8
0
 10
529.151222
 20
1082.335821
 42
-0.002049
  0
VERTEX
  8
0
 10
530.094896
 20
1075.640715
 42
-0.002146
  0
VERTEX
  8
0
 10
530.996913
 20
1068.828000
 42
-0.005860
  0
VERTEX
  8
0
 10
531.557646
 20
1064.000000
 42
0.006229
  0
VERTEX
  8
0
 10
532.565163
 20
1055.380605
 42
0.001837
  0
VERTEX
  8
0
 10
534.322290
 20
1042.196213
 42
0.001796
  0
VERTEX
  8
0
 10
536.165619
 20
1029.092707
 42
0.006979
  0
VERTEX
  8
0
 10
537.449255
 20
1021.000000
 42
-0.004821
  0
VERTEX
  8
0
 10
538.756292
 20
1012.983486
 42
-0.005043
  0
VERTEX
  8
0
 10
539.887833
 20
1005.062453
 42
-0.005192
  0
VERTEX
  8
0
 10
540.827718
 20
997.359917
 42
-0.005995
  0
VERTEX
  8
0
 10
541.559095
 20
990.000000
 42
0.014107
  0
VERTEX
  8
0
 10
541.904309
 20
987.018458
 42
0.017363
  0
VERTEX
  8
0
 10
542.400701
 20
984.262500
 42
0.015915
  0
VERTEX
  8
0
 10
542.964888
 20
982.003599
 42
0.108970
  0
VERTEX
  8
0
 10
543.504931
 20
981.000000
 42
-0.130761
  0
VERTEX
  8
0
 10
544.100710
 20
979.768856
 42
-0.016466
  0
VERTEX
  8
0
 10
544.569448
 20
976.821745
 42
-0.015751
  0
VERTEX
  8
0
 10
544.945713
 20
972.800659
 42
-0.007072
  0
VERTEX
  8
0
 10
545.198531
 20
967.500000
 42
0.006613
  0
VERTEX
  8
0
 10
545.474043
 20
961.610097
 42
0.019922
  0
VERTEX
  8
0
 10
545.874709
 20
957.609057
 42
0.028767
  0
VERTEX
  8
0
 10
546.433085
 20
954.813823
 42
0.081358
  0
VERTEX
  8
0
 10
547.236662
 20
953.000000
 42
-0.066986
  0
VERTEX
  8
0
 10
547.927881
 20
951.552955
 42
-0.026308
  0
VERTEX
  8
0
 10
548.495739
 20
949.411882
 42
-0.023687
  0
VERTEX
  8
0
 10
548.909657
 20
946.835254
 42
-0.018333
  0
VERTEX
  8
0
 10
549.123428
 20
944.000000
 42
0.014186
  0
VERTEX
  8
0
 10
549.297414
 20
941.405649
 42
0.017153
  0
VERTEX
  8
0
 10
549.612881
 20
938.985800
 42
0.015911
  0
VERTEX
  8
0
 10
550.008937
 20
936.988498
 42
0.102251
  0
VERTEX
  8
0
 10
550.437205
 20
936.058042
 42
-0.008661
  0
VERTEX
  8
0
 10
550.954662
 20
935.329898
 42
-0.219709
  0
VERTEX
  8
0
 10
550.994414
 20
935.095467
 42
-0.476935
  0
VERTEX
  8
0
 10
550.851825
 20
935.032444
 42
-0.016779
  0
VERTEX
  8
0
 10
550.250000
 20
935.367059
 42
0.129204
  0
VERTEX
  8
0
 10
549.696404
 20
935.528653
 42
0.253457
  0
VERTEX
  8
0
 10
549.298752
 20
935.326942
 42
0.123802
  0
VERTEX
  8
0
 10
549.064125
 20
934.700851
 42
0.028058
  0
VERTEX
  8
0
 10
549.000000
 20
933.559017
 42
0.027727
  0
VERTEX
  8
0
 10
549.054447
 20
932.577948
 42
0.043373
  0
VERTEX
  8
0
 10
549.220312
 20
931.749385
 42
0.053489
  0
VERTEX
  8
0
 10
549.460875
 20
931.166048
 42
0.271979
  0
VERTEX
  8
0
 10
549.750000
 20
930.992082
 42
-0.355190
  0
VERTEX
  8
0
 10
550.058306
 20
930.735995
 42
-0.011106
  0
VERTEX
  8
0
 10
550.360377
 20
929.006004
 42
-0.017072
  0
VERTEX
  8
0
 10
550.615362
 20
926.827476
 42
-0.010414
  0
VERTEX
  8
0
 10
550.774686
 20
924.242082
 42
0.014864
  0
VERTEX
  8
0
 10
550.986823
 20
921.235713
 42
0.009556
  0
VERTEX
  8
0
 10
551.402840
 20
917.764641
 42
0.009605
  0
VERTEX
  8
0
 10
551.940678
 20
914.380347
 42
0.017755
  0
VERTEX
  8
0
 10
552.527353
 20
911.658823
 42
-0.013817
  0
VERTEX
  8
0
 10
553.045451
 20
909.344070
 42
-0.018562
  0
VERTEX
  8
0
 10
553.378132
 20
907.221139
 42
-0.015867
  0
VERTEX
  8
0
 10
553.530216
 20
905.469231
 42
-0.153293
  0
VERTEX
  8
0
 10
553.348158
 20
904.754315
 42
0.039586
  0
VERTEX
  8
0
 10
553.146322
 20
904.361307
 42
0.351805
  0
VERTEX
  8
0
 10
553.196690
 20
904.186969
 42
0.267892
  0
VERTEX
  8
0
 10
553.406385
 20
904.168153
 42
0.029902
  0
VERTEX
  8
0
 10
553.845492
 20
904.404508
 42
-0.092907
  0
VERTEX
  8
0
 10
554.623284
 20
904.704658
 42
-0.454252
  0
VERTEX
  8
0
 10
554.948087
 20
904.447458
 42
-0.119402
  0
VERTEX
  8
0
 10
554.783776
 20
903.590372
 42
-0.016078
  0
VERTEX
  8
0
 10
553.964816
 20
901.934259
 42
0.029181
  0
VERTEX
  8
0
 10
553.587330
 20
901.117754
 42
0.085763
  0
VERTEX
  8
0
 10
553.462575
 20
900.513499
 42
0.180723
  0
VERTEX
  8
0
 10
553.584795
 20
900.150884
 42
0.225751
  0
VERTEX
  8
0
 10
553.901946
 20
900.000000
 42
-0.316120
  0
VERTEX
  8
0
 10
554.248760
 20
899.756385
 42
-0.060659
  0
VERTEX
  8
0
 10
554.430082
 20
898.963822
 42
-0.043485
  0
VERTEX
  8
0
 10
554.449725
 20
897.796360
 42
-0.022700
  0
VERTEX
  8
0
 10
554.281954
 20
896.350051
 42
0.025444
  0
VERTEX
  8
0
 10
554.081110
 20
894.531556
 42
0.068410
  0
VERTEX
  8
0
 10
554.181616
 20
893.237048
 42
0.094323
  0
VERTEX
  8
0
 10
554.592237
 20
892.271714
 42
0.087511
  0
VERTEX
  8
0
 10
555.337526
 20
891.495146
 42
-0.160976
  0
VERTEX
  8
0
 10
556.213948
 20
890.268057
 42
-0.041812
  0
VERTEX
  8
0
 10
556.744343
 20
887.867156
 42
-0.022430
  0
VERTEX
  8
0
 10
557.102763
 20
883.850342
 42
-0.004103
  0
VERTEX
  8
0
 10
557.370779
 20
876.395094
 42
0.006031
  0
VERTEX
  8
0
 10
557.762902
 20
866.545198
 42
0.023814
  0
VERTEX
  8
0
 10
558.365203
 20
860.510026
 42
0.042127
  0
VERTEX
  8
0
 10
559.170492
 20
857.090643
 42
0.485794
  0
VERTEX
  8
0
 10
560.291693
 20
856.680276
 42
-0.108171
  0
VERTEX
  8
0
 10
560.677643
 20
856.815963
 42
-0.394294
  0
VERTEX
  8
0
 10
560.869149
 20
856.676747
 42
-0.127301
  0
VERTEX
  8
0
 10
560.841524
 20
856.233113
 42
-0.020484
  0
VERTEX
  8
0
 10
560.536594
 20
855.414045
 42
0.074654
  0
VERTEX
  8
0
 10
560.018947
 20
853.372509
 42
0.033587
  0
VERTEX
  8
0
 10
559.929859
 20
850.602051
 42
0.018788
  0
VERTEX
  8
0
 10
560.235899
 20
846.392487
 42
0.003866
  0
VERTEX
  8
0
 10
561.111361
 20
839.000000
 42
-0.006700
  0
VERTEX
  8
0
 10
561.516922
 20
835.400880
 42
-0.005803
  0
VERTEX
  8
0
 10
561.847875
 20
831.615438
 42
-0.005848
  0
VERTEX
  8
0
 10
562.067784
 20
828.178995
 42
-0.016950
  0
VERTEX
  8
0
 10
562.111411
 20
825.797235
 42
0.017488
  0
VERTEX
  8
0
 10
562.147109
 20
823.956529
 42
0.024331
  0
VERTEX
  8
0
 10
562.316598
 20
822.317107
 42
0.022341
  0
VERTEX
  8
0
 10
562.574980
 20
821.018102
 42
0.196524
  0
VERTEX
  8
0
 10
562.912830
 20
820.553874
 42
0.167132
  0
VERTEX
  8
0
 10
563.460283
 20
820.430088
 42
0.025542
  0
VERTEX
  8
0
 10
564.580485
 20
820.610753
 42
0.026193
  0
VERTEX
  8
0
 10
565.929033
 20
820.974337
 42
0.020016
  0
VERTEX
  8
0
 10
567.361647
 20
821.506639
 42
-0.047074
  0
VERTEX
  8
0
 10
569.293404
 20
822.107804
 42
-0.018493
  0
VERTEX
  8
0
 10
572.044148
 20
822.581804
 42
-0.017391
  0
VERTEX
  8
0
 10
575.205186
 20
822.895392
 42
-0.016027
  0
VERTEX
  8
0
 10
578.467881
 20
823.000000
 42
0.010197
  0
VERTEX
  8
0
 10
581.355760
 20
823.058902
 42
0.016866
  0
VERTEX
  8
0
 10
583.787440
 20
823.240434
 42
0.010871
  0
VERTEX
  8
0
 10
585.720609
 20
823.493142
 42
0.370441
  0
VERTEX
  8
0
 10
586.000000
 20
823.818499
 42
0.058501
  0
VERTEX
  8
0
 10
585.937192
 20
824.353478
 42
0.003939
  0
VERTEX
  8
0
 10
585.568563
 20
825.849368
 42
0.005618
  0
VERTEX
  8
0
 10
585.093838
 20
827.628701
 42
0.004178
  0
VERTEX
  8
0
 10
584.531280
 20
829.582714
 42
-0.018090
  0
VERTEX
  8
0
 10
582.907964
 20
835.874561
 42
-0.001502
  0
VERTEX
  8
0
 10
579.335590
 20
852.366600
 42
-0.002226
  0
VERTEX
  8
0
 10
575.735130
 20
869.608685
 42
-0.004249
  0
VERTEX
  8
0
 10
573.021616
 20
883.500000
 42
0.002808
  0
VERTEX
  8
0
 10
570.825801
 20
894.915872
 42
0.000556
  0
VERTEX
  8
0
 10
566.755306
 20
915.336533
 42
0.000403
  0
VERTEX
  8
0
 10
562.590231
 20
936.024718
 42
0.005557
  0
VERTEX
  8
0
 10
560.992327
 20
943.500000
 42
-0.005529
  0
VERTEX
  8
0
 10
560.097538
 20
947.684866
 42
-0.000422
  0
VERTEX
  8
0
 10
557.817653
 20
959.004996
 42
-0.000594
  0
VERTEX
  8
0
 10
555.579694
 20
970.234804
 42
-0.002487
  0
VERTEX
  8
0
 10
554.274779
 20
977.000000
 42
0.002180
  0
VERTEX
  8
0
 10
552.191465
 20
987.836581
 42
0.001907
  0
VERTEX
  8
0
 10
549.920636
 20
999.149013
 42
0.001066
  0
VERTEX
  8
0
 10
547.787416
 20
1009.457904
 42
0.022377
  0
VERTEX
  8
0
 10
547.007632
 20
1012.500000
 42
-0.016500
  0
VERTEX
  8
0
 10
546.613602
 20
1013.965383
 42
-0.007123
  0
VERTEX
  8
0
 10
546.181353
 20
1015.940625
 42
-0.007039
  0
VERTEX
  8
0
 10
545.780556
 20
1018.057549
 42
-0.009258
  0
VERTEX
  8
0
 10
545.477994
 20
1020.000000
 42
0.006879
  0
VERTEX
  8
0
 10
545.168908
 20
1022.048375
 42
0.003993
  0
VERTEX
  8
0
 10
544.744263
 20
1024.500000
 42
0.003991
  0
VERTEX
  8
0
 10
544.279254
 20
1026.951223
 42
0.006713
  0
VERTEX
  8
0
 10
543.844962
 20
1029.000000
 42
-0.002279
  0
VERTEX
  8
0
 10
543.085299
 20
1032.433347
 42
-0.005244
  0
VERTEX
  8
0
 10
542.552720
 20
1035.024603
 42
-0.002971
  0
VERTEX
  8
0
 10
541.923434
 20
1038.363662
 42
-0.000330
  0
VERTEX
  8
0
 10
540.536402
 20
1046.000000
 42
0.001433
  0
VERTEX
  8
0
 10
539.837551
 20
1049.799845
 42
0.000919
  0
VERTEX
  8
0
 10
539.005699
 20
1054.206250
 42
0.000924
  0
VERTEX
  8
0
 10
538.175321
 20
1058.517621
 42
0.001732
  0
VERTEX
  8
0
 10
537.485410
 20
1062.000000
 42
-0.000776
  0
VERTEX
  8
0
 10
536.866813
 20
1065.091406
 42
-0.000781
  0
VERTEX
  8
0
 10
536.259143
 20
1068.178125
 42
-0.000761
  0
VERTEX
  8
0
 10
535.737771
 20
1070.870268
 42
-0.003147
  0
VERTEX
  8
0
 10
535.435347
 20
1072.500000
 42
0.004729
  0
VERTEX
  8
0
 10
535.079647
 20
1074.383593
 42
0.000482
  0
VERTEX
  8
0
 10
534.189666
 20
1078.841139
 42
0.000602
  0
VERTEX
  8
0
 10
533.117679
 20
1084.150318
 42
0.000480
  0
VERTEX
  8
0
 10
531.949079
 20
1089.874092
 42
-0.003553
  0
VERTEX
  8
0
 10
530.819685
 20
1095.584669
 42
-0.004563
  0
VERTEX
  8
0
 10
529.866292
 20
1100.853256
 42
-0.003531
  0
VERTEX
  8
0
 10
529.139570
 20
1105.276722
 42
-0.038963
  0
VERTEX
  8
0
 10
529.000000
 20
1107.065075
 42
0.028817
  0
VERTEX
  8
0
 10
528.935503
 20
1108.183204
 42
0.035082
  0
VERTEX
  8
0
 10
528.742237
 20
1109.213810
 42
0.037705
  0
VERTEX
  8
0
 10
528.461376
 20
1110.031425
 42
0.153939
  0
VERTEX
  8
0
 10
528.122510
 20
1110.424285
 42
0.558017
  0
VERTEX
  8
0
 10
527.781478
 20
1110.253456
 42
0.009231
  0
VERTEX
  8
0
 10
527.601944
 20
1107.692801
 42
0.013766
  0
VERTEX
  8
0
 10
527.521942
 20
1104.360893
 42
0.007311
  0
SEQEND
  0
POLYLINE
  8
0
 66
1
 70
1
  0
VERTEX
  8
0
 10
542.366201
 20
1028.190288
 42
-0.019626
  0
VERTEX
  8
0
 10
542.456526
 20
1027.014391
 42
-0.041301
  0
VERTEX
  8
0
 10
542.415228
 20
1026.100130
 42
-0.074359
  0
VERTEX
  8
0
 10
542.262866
 20
1025.562476
 42
-0.452518
  0
VERTEX
  8
0
 10
542.019255
 20
1025.488100
 42
-0.173987
  0
VERTEX
  8
0
 10
541.736810
 20
1025.842638
 42
-0.026932
  0
VERTEX
  8
0
 10
541.489581
 20
1026.721152
 42
-0.027318
  0
VERTEX
  8
0
 10
541.303464
 20
1027.833034
 42
-0.020704
  0
VERTEX
  8
0
 10
541.217157
 20
1029.067042
 42
-0.013219
  0
VERTEX
  8
0
 10
541.212299
 20
1031.509701
 42
-0.612464
  0
VERTEX
  8
0
 10
541.565940
 20
1031.679344
 42
-0.193694
  0
VERTEX
  8
0
 10
541.989638
 20
1030.966639
 42
-0.009450
  0
SEQEND
  0
POLYLINE
  8
0
 66
1
 70
1
  0
VERTEX
  8
0
 10
557.683114
 20
949.812500
 42
-0.054073
  0
VERTEX
  8
0
 10
557.461564
 20
949.395823
 42
-0.470617
  0
VERTEX
  8
0
 10
557.279315
 20
949.378580
 42
-0.168741
  0
VERTEX
  8
0
 10
557.137993
 20
949.670344
 42
-0.018894
  0
VERTEX
  8
0
 10
557.078947
 20
950.416667
 42
-0.028489
  0
VERTEX
  8
0
 10
557.089945
 20
951.112848
 42
-0.077125
  0
VERTEX
  8
0
 10
557.200665
 20
951.592839
 42
-0.208169
  0
VERTEX
  8
0
 10
557.385309
 20
951.775380
 42
-0.296942
  0
VERTEX
  8
0
 10
557.604167
 20
951.729167
 42
-0.126455
  0
VERTEX
  8
0
 10
557.797407
 20
951.402231
 42
-0.060344
  0
VERTEX
  8
0
 10
557.876576
 20
950.916927
 42
-0.054150
  0
VERTEX
  8
0
 10
557.839148
 20
950.359369
 42
-0.051402
  0
SEQEND
  0
POLYLINE
  8
0
 66
1
 70
1
  0
VERTEX
  8
0
 10
555.683114
 20
893.812500
 42
-0.054073
  0
VERTEX
  8
0
 10
555.461564
 20
893.395823
 42
-0.470617
  0
VERTEX
  8
0
 10
555.279315
 20
893.378580
 42
-0.168741
  0
VERTEX
  8
0
 10
555.137993
 20
893.670344
 42
-0.018894
  0
VERTEX
  8
0
 10
555.078947
 20
894.416667
 42
-0.028489
  0
VERTEX
  8
0
 10
555.089945
 20
895.112848
 42
-0.077125
  0
VERTEX
  8
0
 10
555.200665
 20
895.592839
 42
-0.208169
  0
VERTEX
  8
0
 10
555.385309
 20
895.775380
 42
-0.296942
  0
VERTEX
  8
0
 10
555.604167
 20
895.729167
 42
-0.126455
  0
VERTEX
  8
0
 10
555.797407
 20
895.402231
 42
-0.060344
  0
VERTEX
  8
0
 10
555.876576
 20
894.916927
 42
-0.054150
  0
VERTEX
  8
0
 10
555.839148
 20
894.359369
 42
-0.051402
  0
SEQEND
  0
POLYLINE
  8
0
 66
1
 70
1
  0
VERTEX
  8
0
 10
471.583333
 20
1006.250000
 42
-0.065235
  0
VERTEX
  8
0
 10
470.949860
 20
1005.763301
 42
-0.070276
  0
VERTEX
  8
0
 10
470.227764
 20
1005.471107
 42
-0.038223
  0
VERTEX
  8
0
 10
469.140418
 20
1005.286947
 42
-0.006688
  0
VERTEX
  8
0
 10
467.068094
 20
1005.125000
 42
0.166649
  0
VERTEX
  8
0
 10
464.966528
 20
1004.249137
 42
0.066601
  0
VERTEX
  8
0
 10
462.900328
 20
1001.858112
 42
0.065742
  0
VERTEX
  8
0
 10
461.501306
 20
998.949668
 42
0.141676
  0
VERTEX
  8
0
 10
461.413691
 20
996.487859
 42
0.095752
  0
VERTEX
  8
0
 10
462.485234
 20
994.192888
 42
0.042460
  0
VERTEX
  8
0
 10
464.679490
 20
991.653502
 42
0.041540
  0
VERTEX
  8
0
 10
467.163968
 20
989.601813
 42
0.152988
  0
VERTEX
  8
0
 10
469.084794
 20
989.000000
 42
0.134638
  0
VERTEX
  8
0
 10
470.364400
 20
989.350928
 42
0.063736
  0
VERTEX
  8
0
 10
471.723972
 20
990.411844
 42
0.046429
  0
VERTEX
  8
0
 10
473.169700
 20
992.170427
 42
0.021709
  0
VERTEX
  8
0
 10
474.716884
 20
994.683403
 42
0.064389
  0
VERTEX
  8
0
 10
475.250429
 20
996.019792
 42
0.062434
  0
VERTEX
  8
0
 10
475.433943
 20
997.462196
 42
0.044077
  0
VERTEX
  8
0
 10
475.275445
 20
999.295146
 42
0.014718
  0
VERTEX
  8
0
 10
474.730233
 20
1001.933403
 42
0.009942
  0
VERTEX
  8
0
 10
473.886441
 20
1005.195676
 42
0.089475
  0
VERTEX
  8
0
 10
473.245050
 20
1006.518506
 42
0.306523
  0
VERTEX
  8
0
 10
472.516929
 20
1006.780992
 42
0.134943
  0
SEQEND
  0
POLYLINE
  8
0
 66
1
 70
1
  0
VERTEX
  8
0
 10
265.750000
 20
991.250740
 42
0.308957
  0
VERTEX
  8
0
 10
264.410985
 20
989.808198
 42
0.175605
  0
VERTEX
  8
0
 10
264.901586
 20
987.372672
 42
0.045907
  0
VERTEX
  8
0
 10
268.175144
 20
982.959281
 42
0.006281
  0
VERTEX
  8
0
 10
275.938098
 20
974.500000
 42
-0.012013
  0
VERTEX
  8
0
 10
277.720464
 20
972.512498
 42
-0.005086
  0
VERTEX
  8
0
 10
280.019327
 20
969.765625
 42
-0.005029
  0
VERTEX
  8
0
 10
282.415831
 20
966.781458
 42
-0.006553
  0
VERTEX
  8
0
 10
284.545483
 20
964.000000
 42
0.012578
  0
VERTEX
  8
0
 10
286.869864
 20
961.038823
 42
0.006657
  0
VERTEX
  8
0
 10
289.891604
 20
957.480022
 42
0.006620
  0
VERTEX
  8
0
 10
293.081368
 20
953.919420
 42
0.010177
  0
VERTEX
  8
0
 10
295.944240
 20
950.931989
 42
-0.004217
  0
VERTEX
  8
0
 10
302.419320
 20
944.334437
 42
-0.003831
  0
VERTEX
  8
0
 10
308.994849
 20
937.415191
 42
-0.003455
  0
VERTEX
  8
0
 10
314.705772
 20
931.227637
 42
-0.018841
  0
VERTEX
  8
0
 10
317.643920
 20
927.744820
 42
0.034332
  0
VERTEX
  8
0
 10
318.587197
 20
926.694453
 42
0.036516
  0
VERTEX
  8
0
 10
319.647186
 20
925.806291
 42
0.039237
  0
VERTEX
  8
0
 10
320.665621
 20
925.187486
 42
0.117425
  0
VERTEX
  8
0
 10
321.452937
 20
925.000000
 42
-0.061097
  0
VERTEX
  8
0
 10
322.045888
 20
924.927274
 42
-0.130312
  0
VERTEX
  8
0
 10
322.447364
 20
924.706250
 42
-0.191561
  0
VERTEX
  8
0
 10
322.597288
 20
924.379219
 42
-0.152385
  0
VERTEX
  8
0
 10
322.500000
 20
924.000000
 42
0.109967
  0
VERTEX
  8
0
 10
322.367222
 20
923.617996
 42
0.180193
  0
VERTEX
  8
0
 10
322.448037
 20
923.289312
 42
0.159121
  0
VERTEX
  8
0
 10
322.737343
 20
923.065915
 42
0.082790
  0
VERTEX
  8
0
 10
323.190983
 20
922.984891
 42
-0.209974
  0
VERTEX
  8
0
 10
325.884391
 20
921.764352
 42
-0.006962
  0
VERTEX
  8
0
 10
333.796240
 20
912.697231
 42
-0.011944
  0
VERTEX
  8
0
 10
341.110616
 20
903.645734
 42
-0.073241
  0
VERTEX
  8
0
 10
344.030154
 20
898.420689
 42
0.047831
  0
VERTEX
  8
0
 10
344.520158
 20
897.428963
 42
0.041039
  0
VERTEX
  8
0
 10
345.212380
 20
896.492472
 42
0.043017
  0
VERTEX
  8
0
 10
345.990674
 20
895.743424
 42
0.085703
  0
VERTEX
  8
0
 10
346.734992
 20
895.327782
 42
-0.078336
  0
VERTEX
  8
0
 10
348.946184
 20
894.135124
 42
-0.035788
  0
VERTEX
  8
0
 10
351.413565
 20
891.959926
 42
-0.033414
  0
VERTEX
  8
0
 10
353.447962
 20
889.592579
 42
-0.162174
  0
VERTEX
  8
0
 10
354.000000
 20
887.935354
 42
0.117205
  0
VERTEX
  8
0
 10
354.342208
 20
886.495544
 42
0.089325
  0
VERTEX
  8
0
 10
355.319535
 20
885.196146
 42
0.114270
  0
VERTEX
  8
0
 10
356.492696
 20
884.524129
 42
0.276232
  0
VERTEX
  8
0
 10
357.425343
 20
884.758676
 42
-0.053541
  0
VERTEX
  8
0
 10
357.688955
 20
884.971161
 42
-0.335108
  0
VERTEX
  8
0
 10
357.850986
 20
884.958944
 42
-0.251980
  0
VERTEX
  8
0
 10
357.917107
 20
884.780669
 42
-0.038913
  0
VERTEX
  8
0
 10
357.833333
 20
884.399432
 42
0.242640
  0
VERTEX
  8
0
 10
357.960223
 20
883.709908
 42
0.009826
  0
VERTEX
  8
0
 10
359.600225
 20
881.672379
 42
0.015299
  0
VERTEX
  8
0
 10
361.728267
 20
879.284716
 42
0.010032
  0
VERTEX
  8
0
 10
364.316368
 20
876.661326
 42
-0.012091
  0
VERTEX
  8
0
 10
366.881296
 20
874.039918
 42
-0.019104
  0
VERTEX
  8
0
 10
368.936247
 20
871.659373
 42
-0.013809
  0
VERTEX
  8
0
 10
370.448893
 20
869.654241
 42
-0.301754
  0
VERTEX
  8
0
 10
370.471692
 20
868.954197
 42
0.256873
  0
VERTEX
  8
0
 10
370.438643
 20
868.302917
 42
0.029059
  0
VERTEX
  8
0
 10
371.186208
 20
866.967309
 42
0.029422
  0
VERTEX
  8
0
 10
372.339489
 20
865.376224
 42
0.019653
  0
VERTEX
  8
0
 10
373.832359
 20
863.692303
 42
-0.001560
  0
VERTEX
  8
0
 10
381.098692
 20
856.070293
 42
-0.004560
  0
VERTEX
  8
0
 10
386.045424
 20
850.752590
 42
-0.006375
  0
VERTEX
  8
0
 10
389.523751
 20
846.845461
 42
-0.017977
  0
VERTEX
  8
0
 10
391.818674
 20
844.000000
 42
0.018539
  0
VERTEX
  8
0
 10
400.815181
 20
832.870920
 42
0.004016
  0
VERTEX
  8
0
 10
417.211625
 20
814.361392
 42
0.000702
  0
VERTEX
  8
0
 10
435.512451
 20
794.090740
 42
0.237470
  0
VERTEX
  8
0
 10
437.411403
 20
793.357010
 42
-0.210011
  0
VERTEX
  8
0
 10
438.269131
 20
793.076173
 42
-0.010856
  0
VERTEX
  8
0
 10
440.444574
 20
791.040848
 42
-0.015708
  0
VERTEX
  8
0
 10
442.969130
 20
788.413962
 42
-0.010622
  0
VERTEX
  8
0
 10
445.686010
 20
785.271409
 42
-0.001967
  0
VERTEX
  8
0
 10
452.086749
 20
777.479651
 42
-0.014230
  0
VERTEX
  8
0
 10
455.043702
 20
773.632523
 42
-0.028082
  0
VERTEX
  8
0
 10
456.583474
 20
771.233966
 42
-0.129352
  0
VERTEX
  8
0
 10
457.000000
 20
769.650856
 42
0.056431
  0
VERTEX
  8
0
 10
457.071381
 20
769.020416
 42
0.049861
  0
VERTEX
  8
0
 10
457.282673
 20
768.393599
 42
0.052722
  0
VERTEX
  8
0
 10
457.593713
 20
767.862875
 42
0.095732
  0
VERTEX
  8
0
 10
457.962290
 20
767.523306
 42
-0.180132
  0
VERTEX
  8
0
 10
458.286604
 20
767.106105
 42
-0.089568
  0
VERTEX
  8
0
 10
458.371745
 20
766.432226
 42
-0.062398
  0
VERTEX
  8
0
 10
458.210880
 20
765.536076
 42
-0.031329
  0
VERTEX
  8
0
 10
457.799850
 20
764.460063
 42
0.069351
  0
VERTEX
  8
0
 10
457.093784
 20
762.085725
 42
0.554158
  0
VERTEX
  8
0
 10
457.798737
 20
761.480654
 42
0.114626
  0
VERTEX
  8
0
 10
459.813487
 20
762.663880
 42
0.015440
  0
VERTEX
  8
0
 10
463.292012
 20
766.175610
 42
-0.016647
  0
VERTEX
  8
0
 10
467.983965
 20
770.889541
 42
-0.025918
  0
VERTEX
  8
0
 10
472.357742
 20
774.593141
 42
-0.029676
  0
VERTEX
  8
0
 10
476.174477
 20
777.156731
 42
-0.098328
  0
VERTEX
  8
0
 10
479.017644
 20
778.150000
 42
0.055586
  0
VERTEX
  8
0
 10
479.974181
 20
778.395396
 42
0.065110
  0
VERTEX
  8
0
 10
480.799200
 20
778.837813
 42
0.076058
  0
VERTEX
  8
0
 10
481.374626
 20
779.400365
 42
0.146163
  0
VERTEX
  8
0
 10
481.596653
 20
780.000000
 42
-0.032012
  0
VERTEX
  8
0
 10
481.686641
 20
780.697272
 42
-0.016071
  0
VERTEX
  8
0
 10
481.884413
 20
781.563406
 42
-0.015888
  0
VERTEX
  8
0
 10
482.147256
 20
782.449373
 42
-0.022640
  0
VERTEX
  8
0
 10
482.440537
 20
783.215851
 42
0.196144
  0
VERTEX
  8
0
 10
482.467006
 20
784.349252
 42
0.068377
  0
VERTEX
  8
0
 10
481.668416
 20
785.809102
 42
0.038024
  0
VERTEX
  8
0
 10
479.957938
 20
787.786612
 42
0.009686
  0
VERTEX
  8
0
 10
476.890115
 20
790.715851
 42
-0.000459
  0
VERTEX
  8
0
 10
474.363858
 20
793.040400
 42
-0.000544
  0
VERTEX
  8
0
 10
471.981341
 20
795.241531
 42
-0.000473
  0
VERTEX
  8
0
 10
469.974367
 20
797.103290
 42
-0.003480
  0
VERTEX
  8
0
 10
469.022909
 20
798.000000
 42
-0.000681
  0
VERTEX
  8
0
 10
463.174069
 20
803.604924
 42
-0.000069
  0
VERTEX
  8
0
 10
449.335143
 20
816.906633
 42
-0.000090
  0
VERTEX
  8
0
 10
433.323967
 20
832.306079
 42
-0.000084
  0
VERTEX
  8
0
 10
416.982439
 20
848.034211
 42
0.000304
  0
VERTEX
  8
0
 10
405.449710
 20
859.124298
 42
0.000184
  0
VERTEX
  8
0
 10
391.788592
 20
872.235443
 42
0.000184
  0
VERTEX
  8
0
 10
378.220223
 20
885.238365
 42
0.000325
  0
VERTEX
  8
0
 10
367.000000
 20
895.969084
 42
-0.000779
  0
VERTEX
  8
0
 10
356.520975
 20
906.009182
 42
-0.000628
  0
VERTEX
  8
0
 10
345.290625
 20
916.829929
 42
-0.000635
  0
VERTEX
  8
0
 10
334.945613
 20
926.848136
 42
-0.001632
  0
VERTEX
  8
0
 10
327.500000
 20
934.124224
 42
0.001029
  0
VERTEX
  8
0
 10
321.572362
 20
939.930889
 42
0.001378
  0
VERTEX
  8
0
 10
316.171875
 20
945.170453
 42
0.000951
  0
VERTEX
  8
0
 10
311.621334
 20
949.544434
 42
0.014479
  0
VERTEX
  8
0
 10
310.000000
 20
951.009355
 42
-0.015438
  0
VERTEX
  8
0
 10
308.314100
 20
952.538495
 42
-0.000687
  0
VERTEX
  8
0
 10
302.653125
 20
958.015964
 42
-0.001157
  0
VERTEX
  8
0
 10
295.960591
 20
964.539508
 42
-0.000827
  0
VERTEX
  8
0
 10
288.500000
 20
971.869661
 42
0.001151
  0
VERTEX
  8
0
 10
281.144896
 20
979.086797
 42
0.001808
  0
VERTEX
  8
0
 10
274.787500
 20
985.251522
 42
0.000449
  0
VERTEX
  8
0
 10
269.204141
 20
990.616986
 42
0.070521
  0
VERTEX
  8
0
 10
268.500000
 20
991.123721
 42
0.076605
  0
VERTEX
  8
0
 10
267.993219
 20
991.297346
 42
0.032763
  0
VERTEX
  8
0
 10
267.279687
 20
991.377351
 42
0.031451
  0
VERTEX
  8
0
 10
266.493425
 20
991.364200
 42
0.035937
  0
SEQEND
  0
POLYLINE
  8
0
 66
1
 70
1
  0
VERTEX
  8
0
 10
425.500000
 20
808.000000
 42
-0.012939
  0
VERTEX
  8
0
 10
426.159597
 20
807.232121
 42
-0.025990
  0
VERTEX
  8
0
 10
426.631420
 20
806.587500
 42
-0.034935
  0
VERTEX
  8
0
 10
426.889734
 20
806.125730
 42
-0.549874
  0
VERTEX
  8
0
 10
426.809975
 20
806.000000
 42
-0.165568
  0
VERTEX
  8
0
 10
426.525997
 20
806.096686
 42
-0.014322
  0
VERTEX
  8
0
 10
425.925170
 20
806.587500
 42
-0.017642
  0
VERTEX
  8
0
 10
425.229731
 20
807.233916
 42
-0.012769
  0
VERTEX
  8
0
 10
424.500000
 20
808.000000
 42
-0.012939
  0
VERTEX
  8
0
 10
423.840403
 20
808.767879
 42
-0.025990
  0
VERTEX
  8
0
 10
423.368580
 20
809.412500
 42
-0.034935
  0
VERTEX
  8
0
 10
423.110266
 20
809.874270
 42
-0.549874
  0
VERTEX
  8
0
 10
423.190025
 20
810.000000
 42
-0.165568
  0
VERTEX
  8
0
 10
423.474003
 20
809.903314
 42
-0.014322
  0
VERTEX
  8
0
 10
424.074830
 20
809.412500
 42
-0.017642
  0
VERTEX
  8
0
 10
424.770269
 20
808.766084
 42
-0.012769
  0
SEQEND
  0
POLYLINE
  8
0
 66
1
 70
1
  0
VERTEX
  8
0
 10
435.000000
 20
797.500000
 42
-0.009992
  0
VERTEX
  8
0
 10
435.866074
 20
796.540383
 42
-0.019379
  0
VERTEX
  8
0
 10
436.511844
 20
795.734375
 42
-0.020261
  0
VERTEX
  8
0
 10
436.921391
 20
795.130831
 42
-0.588095
  0
VERTEX
  8
0
 10
436.848628
 20
795.000000
 42
-0.171788
  0
VERTEX
  8
0
 10
436.552307
 20
795.104905
 42
-0.009950
  0
VERTEX
  8
0
 10
435.805594
 20
795.734375
 42
-0.014186
  0
VERTEX
  8
0
 10
434.936139
 20
796.542213
 42
-0.009890
  0
VERTEX
  8
0
 10
434.000000
 20
797.500000
 42
-0.009992
  0
VERTEX
  8
0
 10
433.133926
 20
798.459617
 42
-0.019379
  0
VERTEX
  8
0
 10
432.488156
 20
799.265625
 42
-0.020261
  0
VERTEX
  8
0
 10
432.078609
 20
799.869169
 42
-0.588095
  0
VERTEX
  8
0
 10
432.151372
 20
800.000000
 42
-0.171788
  0
VERTEX
  8
0
 10
432.447693
 20
799.895095
 42
-0.009950
  0
VERTEX
  8
0
 10
433.194406
 20
799.265625
 42
-0.014186
  0
VERTEX
  8
0
 10
434.063861
 20
798.457787
 42
-0.009890
  0
SEQEND
  0
POLYLINE
  8
0
 66
1
 70
1
  0
VERTEX
  8
0
 10
474.725533
 20
977.649182
 42
0.098101
  0
VERTEX
  8
0
 10
471.047687
 20
973.061531
 42
0.095395
  0
VERTEX
  8
0
 10
469.350202
 20
967.372650
 42
0.101871
  0
VERTEX
  8
0
 10
469.930777
 20
961.771305
 42
0.129991
  0
VERTEX
  8
0
 10
472.699043
 20
957.403114
 42
0.050174
  0
VERTEX
  8
0
 10
474.561724
 20
955.995468
 42
0.120944
  0
VERTEX
  8
0
 10
476.197895
 20
955.478272
 42
0.092200
  0
VERTEX
  8
0
 10
478.163972
 20
955.712223
 42
0.021640
  0
VERTEX
  8
0
 10
481.295567
 20
956.839723
 42
0.122895
  0
VERTEX
  8
0
 10
483.474377
 20
958.439798
 42
0.043292
  0
VERTEX
  8
0
 10
485.699820
 20
961.649330
 42
0.043379
  0
VERTEX
  8
0
 10
487.403230
 20
965.333931
 42
0.084060
  0
VERTEX
  8
0
 10
487.978038
 20
968.517865
 42
0.122014
  0
VERTEX
  8
0
 10
487.361187
 20
971.129489
 42
0.043699
  0
VERTEX
  8
0
 10
485.307631
 20
974.389632
 42
0.043861
  0
VERTEX
  8
0
 10
482.675406
 20
977.289111
 42
0.103007
  0
VERTEX
  8
0
 10
480.179849
 20
978.787460
 42
0.037744
  0
VERTEX
  8
0
 10
478.552566
 20
979.220312
 42
0.097877
  0
VERTEX
  8
0
 10
477.344556
 20
979.207498
 42
0.092416
  0
VERTEX
  8
0
 10
476.191012
 20
978.733263
 42
0.031284
  0
SEQEND
  0
POLYLINE
  8
0
 66
1
 70
1
  0
VERTEX
  8
0
 10
483.832153
 20
944.478599
 42
0.020008
  0
VERTEX
  8
0
 10
480.957751
 20
942.425931
 42
0.092788
  0
VERTEX
  8
0
 10
479.609545
 20
940.906009
 42
0.082286
  0
VERTEX
  8
0
 10
478.823365
 20
938.916621
 42
0.013843
  0
VERTEX
  8
0
 10
478.069704
 20
934.877411
 42
0.041337
  0
VERTEX
  8
0
 10
477.754359
 20
930.632674
 42
0.058957
  0
VERTEX
  8
0
 10
478.229759
 20
926.887177
 42
0.062404
  0
VERTEX
  8
0
 10
479.531711
 20
923.517207
 42
0.054186
  0
VERTEX
  8
0
 10
481.676094
 20
920.393420
 42
0.042088
  0
VERTEX
  8
0
 10
483.193888
 20
918.901457
 42
0.087813
  0
VERTEX
  8
0
 10
484.629834
 20
918.084026
 42
0.066747
  0
VERTEX
  8
0
 10
486.505993
 20
917.686022
 42
0.016596
  0
VERTEX
  8
0
 10
489.648809
 20
917.552209
 42
0.018370
  0
VERTEX
  8
0
 10
493.105115
 20
917.646844
 42
0.091026
  0
VERTEX
  8
0
 10
494.984096
 20
918.117951
 42
0.088029
  0
VERTEX
  8
0
 10
496.603136
 20
919.232306
 42
0.016580
  0
VERTEX
  8
0
 10
499.085638
 20
921.848335
 42
0.026509
  0
VERTEX
  8
0
 10
500.609834
 20
923.760193
 42
0.023183
  0
VERTEX
  8
0
 10
501.997668
 20
925.907928
 42
0.023855
  0
VERTEX
  8
0
 10
503.069484
 20
927.968557
 42
0.061699
  0
VERTEX
  8
0
 10
503.577619
 20
929.562053
 42
0.085216
  0
VERTEX
  8
0
 10
503.638602
 20
933.515562
 42
0.039927
  0
VERTEX
  8
0
 10
502.446340
 20
938.508285
 42
0.039228
  0
VERTEX
  8
0
 10
500.556109
 20
943.072497
 42
0.130662
  0
VERTEX
  8
0
 10
498.408323
 20
945.468112
 42
0.101491
  0
VERTEX
  8
0
 10
495.345659
 20
946.683399
 42
0.060886
  0
VERTEX
  8
0
 10
491.423712
 20
946.894762
 42
0.058214
  0
VERTEX
  8
0
 10
487.351685
 20
946.136608
 42
0.070053
  0
SEQEND
  0
POLYLINE
  8
0
 66
1
 70
1
  0
VERTEX
  8
0
 10
754.565563
 20
924.126784
 42
0.024466
  0
VERTEX
  8
0
 10
754.042215
 20
922.980592
 42
0.034696
  0
VERTEX
  8
0
 10
753.700336
 20
921.913458
 42
0.037261
  0
VERTEX
  8
0
 10
753.554892
 20
921.046350
 42
0.222858
  0
VERTEX
  8
0
 10
753.706549
 20
920.626784
 42
-0.122756
  0
VERTEX
  8
0
 10
753.849529
 20
920.388857
 42
-0.257438
  0
VERTEX
  8
0
 10
753.806507
 20
920.184118
 42
-0.162428
  0
VERTEX
  8
0
 10
753.571179
 20
920.043789
 42
-0.053967
  0
VERTEX
  8
0
 10
753.166667
 20
920.000000
 42
0.248568
  0
VERTEX
  8
0
 10
752.707240
 20
919.756561
 42
0.068739
  0
VERTEX
  8
0
 10
752.333333
 20
919.000000
 42
0.050778
  0
VERTEX
  8
0
 10
752.081907
 20
917.877139
 42
0.029712
  0
VERTEX
  8
0
 10
752.000000
 20
916.500000
 42
0.000000
  0
VERTEX
  8
0
 10
752.000000
 20
913.000000
 42
0.000000
  0
VERTEX
  8
0
 10
756.943296
 20
913.000000
 42
0.018923
  0
VERTEX
  8
0
 10
759.546509
 20
913.098557
 42
0.063530
  0
VERTEX
  8
0
 10
761.214414
 20
913.441128
 42
0.090032
  0
VERTEX
  8
0
 10
762.415069
 20
914.111215
 42
0.067895
  0
VERTEX
  8
0
 10
763.443296
 20
915.222506
 42
0.080626
  0
VERTEX
  8
0
 10
764.631138
 20
917.680847
 42
0.092247
  0
VERTEX
  8
0
 10
764.905009
 20
920.273823
 42
0.094738
  0
VERTEX
  8
0
 10
764.229461
 20
922.737211
 42
0.090254
  0
VERTEX
  8
0
 10
762.685549
 20
924.825686
 42
0.070629
  0
VERTEX
  8
0
 10
760.316609
 20
926.492569
 42
0.140413
  0
VERTEX
  8
0
 10
758.083216
 20
926.929374
 42
0.157499
  0
VERTEX
  8
0
 10
756.130715
 20
926.107797
 42
0.095999
  0
SEQEND
  0
POLYLINE
  8
0
 66
1
 70
1
  0
VERTEX
  8
0
 10
674.396606
 20
909.110220
 42
0.035472
  0
VERTEX
  8
0
 10
665.614281
 20
905.907023
 42
0.041023
  0
VERTEX
  8
0
 10
657.812049
 20
901.617736
 42
0.043940
  0
VERTEX
  8
0
 10
651.301007
 20
896.433054
 42
0.056001
  0
VERTEX
  8
0
 10
646.367881
 20
890.559737
 42
-0.001194
  0
VERTEX
  8
0
 10
642.923854
 20
885.406139
 42
-0.004580
  0
VERTEX
  8
0
 10
640.743804
 20
882.224098
 42
-0.006441
  0
VERTEX
  8
0
 10
638.907562
 20
879.666661
 42
-0.004628
  0
VERTEX
  8
0
 10
636.793744
 20
876.856096
 42
0.016553
  0
VERTEX
  8
0
 10
634.602374
 20
873.793006
 42
0.156522
  0
VERTEX
  8
0
 10
634.165861
 20
872.259799
 42
0.341211
  0
VERTEX
  8
0
 10
634.855818
 20
871.425196
 42
0.062775
  0
VERTEX
  8
0
 10
636.980739
 20
871.218515
 42
0.042407
  0
VERTEX
  8
0
 10
638.316642
 20
871.370372
 42
0.074800
  0
VERTEX
  8
0
 10
639.358491
 20
871.747458
 42
0.091632
  0
VERTEX
  8
0
 10
640.099542
 20
872.345917
 42
0.100679
  0
VERTEX
  8
0
 10
640.548126
 20
873.151632
 42
-0.166796
  0
VERTEX
  8
0
 10
641.367039
 20
874.256400
 42
-0.093049
  0
VERTEX
  8
0
 10
642.915235
 20
874.941854
 42
-0.059932
  0
VERTEX
  8
0
 10
645.257319
 20
875.204126
 42
-0.023663
  0
VERTEX
  8
0
 10
648.500000
 20
875.023906
 42
-0.058976
  0
VERTEX
  8
0
 10
649.571998
 20
874.783450
 42
-0.013153
  0
VERTEX
  8
0
 10
651.327958
 20
874.112913
 42
-0.013479
  0
VERTEX
  8
0
 10
653.327091
 20
873.224861
 42
-0.012655
  0
VERTEX
  8
0
 10
655.318581
 20
872.212496
 42
-0.060349
  0
VERTEX
  8
0
 10
658.946932
 20
869.643144
 42
-0.085440
  0
VERTEX
  8
0
 10
661.379575
 20
866.532011
 42
-0.086777
  0
VERTEX
  8
0
 10
662.608168
 20
862.824989
 42
-0.064286
  0
VERTEX
  8
0
 10
662.688252
 20
858.500000
 42
-0.020082
  0
VERTEX
  8
0
 10
662.147591
 20
854.923609
 42
-0.073497
  0
VERTEX
  8
0
 10
661.391838
 20
852.766065
 42
-0.093472
  0
VERTEX
  8
0
 10
660.149511
 20
851.198166
 42
-0.045223
  0
VERTEX
  8
0
 10
658.064347
 20
849.697082
 42
-0.086936
  0
VERTEX
  8
0
 10
653.995977
 20
848.165140
 42
-0.109869
  0
VERTEX
  8
0
 10
649.988132
 20
848.294110
 42
-0.106891
  0
VERTEX
  8
0
 10
646.331919
 20
850.123835
 42
-0.078729
  0
VERTEX
  8
0
 10
643.280254
 20
853.488283
 42
0.085597
  0
VERTEX
  8
0
 10
640.349867
 20
856.631752
 42
0.057790
  0
VERTEX
  8
0
 10
636.121150
 20
859.133548
 42
0.053001
  0
VERTEX
  8
0
 10
631.019776
 20
860.783877
 42
0.047719
  0
VERTEX
  8
0
 10
625.500000
 20
861.402520
 42
0.046998
  0
VERTEX
  8
0
 10
619.767882
 20
860.956336
 42
0.083585
  0
VERTEX
  8
0
 10
615.313684
 20
859.388771
 42
0.081124
  0
VERTEX
  8
0
 10
611.531486
 20
856.410306
 42
0.042035
  0
VERTEX
  8
0
 10
607.844669
 20
851.638378
 42
0.019008
  0
VERTEX
  8
0
 10
605.142910
 20
847.087730
 42
0.191032
  0
VERTEX
  8
0
 10
604.882963
 20
844.936488
 42
0.412709
  0
VERTEX
  8
0
 10
606.124637
 20
844.207795
 42
0.047772
  0
VERTEX
  8
0
 10
609.479792
 20
845.423386
 42
-0.088495
  0
VERTEX
  8
0
 10
615.874712
 20
847.169402
 42
-0.175086
  0
VERTEX
  8
0
 10
620.896392
 20
845.851505
 42
-0.201362
  0
VERTEX
  8
0
 10
623.469504
 20
841.837753
 42
-0.116463
  0
VERTEX
  8
0
 10
623.124710
 20
836.021908
 42
-0.074530
  0
VERTEX
  8
0
 10
621.615503
 20
832.815171
 42
-0.056729
  0
VERTEX
  8
0
 10
619.104997
 20
829.846679
 42
-0.059681
  0
VERTEX
  8
0
 10
616.202383
 20
827.702487
 42
-0.129979
  0
VERTEX
  8
0
 10
613.545719
 20
827.000000
 42
0.104654
  0
VERTEX
  8
0
 10
611.916286
 20
826.655171
 42
0.060634
  0
VERTEX
  8
0
 10
610.190475
 20
825.624850
 42
0.073259
  0
VERTEX
  8
0
 10
609.035057
 20
824.421799
 42
0.366633
  0
VERTEX
  8
0
 10
609.107499
 20
823.560197
 42
0.172075
  0
VERTEX
  8
0
 10
609.463127
 20
823.391350
 42
0.002106
  0
VERTEX
  8
0
 10
612.028453
 20
823.138494
 42
0.005961
  0
VERTEX
  8
0
 10
615.022039
 20
822.892119
 42
0.003829
  0
VERTEX
  8
0
 10
618.500000
 20
822.674339
 42
-0.030104
  0
VERTEX
  8
0
 10
626.752275
 20
821.720562
 42
-0.004927
  0
VERTEX
  8
0
 10
642.567487
 20
818.759075
 42
-0.005333
  0
VERTEX
  8
0
 10
658.374079
 20
815.462116
 42
-0.023453
  0
VERTEX
  8
0
 10
667.570998
 20
812.984038
 42
0.009812
  0
VERTEX
  8
0
 10
668.831190
 20
812.607338
 42
0.010474
  0
VERTEX
  8
0
 10
670.078192
 20
812.289061
 42
0.010106
  0
VERTEX
  8
0
 10
671.159970
 20
812.059913
 42
0.047167
  0
VERTEX
  8
0
 10
671.793663
 20
812.000000
 42
-0.110057
  0
VERTEX
  8
0
 10
674.216078
 20
811.460256
 42
-0.000799
  0
VERTEX
  8
0
 10
693.060132
 20
802.587441
 42
-0.000896
  0
VERTEX
  8
0
 10
711.761683
 20
793.704110
 42
-0.096693
  0
VERTEX
  8
0
 10
714.000000
 20
792.044426
 42
0.068619
  0
VERTEX
  8
0
 10
714.349059
 20
791.754101
 42
0.007724
  0
VERTEX
  8
0
 10
715.234375
 20
791.221823
 42
0.009253
  0
VERTEX
  8
0
 10
716.314639
 20
790.621293
 42
0.007391
  0
VERTEX
  8
0
 10
717.500000
 20
790.013067
 42
-0.014325
  0
VERTEX
  8
0
 10
721.613125
 20
787.829984
 42
-0.008785
  0
VERTEX
  8
0
 10
726.337435
 20
785.035399
 42
-0.008810
  0
VERTEX
  8
0
 10
730.900920
 20
782.114469
 42
-0.016101
  0
VERTEX
  8
0
 10
734.500000
 20
779.549517
 42
-0.034897
  0
VERTEX
  8
0
 10
742.133367
 20
772.839099
 42
-0.009728
  0
VERTEX
  8
0
 10
753.108990
 20
761.301339
 42
-0.010169
  0
VERTEX
  8
0
 10
763.858604
 20
749.060907
 42
-0.024696
  0
VERTEX
  8
0
 10
771.140782
 20
739.500000
 42
0.000787
  0
VERTEX
  8
0
 10
773.477435
 20
736.107245
 42
0.000666
  0
VERTEX
  8
0
 10
775.957813
 20
732.528125
 42
0.000672
  0
VERTEX
  8
0
 10
778.227115
 20
729.272228
 42
0.001884
  0
VERTEX
  8
0
 10
779.828134
 20
727.000000
 42
-0.015767
  0
VERTEX
  8
0
 10
781.083939
 20
725.108280
 42
-0.015884
  0
VERTEX
  8
0
 10
782.214780
 20
723.145761
 42
-0.015895
  0
VERTEX
  8
0
 10
783.089547
 20
721.376585
 42
-0.059660
  0
VERTEX
  8
0
 10
783.464674
 20
720.198335
 42
0.030576
  0
VERTEX
  8
0
 10
783.747269
 20
719.092451
 42
0.012623
  0
VERTEX
  8
0
 10
784.257795
 20
717.633273
 42
0.012434
  0
VERTEX
  8
0
 10
784.885577
 20
716.091460
 42
0.015641
  0
VERTEX
  8
0
 10
785.546238
 20
714.698335
 42
-0.038370
  0
VERTEX
  8
0
 10
788.324624
 20
708.078847
 42
-0.006684
  0
VERTEX
  8
0
 10
792.425304
 20
695.158491
 42
-0.007728
  0
VERTEX
  8
0
 10
796.477576
 20
680.986419
 42
-0.011421
  0
VERTEX
  8
0
 10
799.553713
 20
668.427427
 42
-0.013496
  0
VERTEX
  8
0
 10
800.110579
 20
665.537740
 42
-0.006508
  0
VERTEX
  8
0
 10
800.675377
 20
661.809991
 42
-0.006448
  0
VERTEX
  8
0
 10
801.163783
 20
657.905958
 42
-0.009194
  0
VERTEX
  8
0
 10
801.488829
 20
654.427427
 42
0.000136
  0
VERTEX
  8
0
 10
801.777178
 20
650.592933
 42
0.000059
  0
VERTEX
  8
0
 10
802.162428
 20
645.496399
 42
0.000058
  0
VERTEX
  8
0
 10
802.573199
 20
640.079166
 42
0.000078
  0
VERTEX
  8
0
 10
802.947850
 20
635.156058
 42
-0.019497
  0
VERTEX
  8
0
 10
803.280884
 20
626.188489
 42
-0.008495
  0
VERTEX
  8
0
 10
803.056142
 20
614.271880
 42
-0.007811
  0
VERTEX
  8
0
 10
802.463037
 20
602.758391
 42
-0.034070
  0
VERTEX
  8
0
 10
801.543661
 20
596.000000
 42
0.002957
  0
VERTEX
  8
0
 10
800.554475
 20
591.054284
 42
0.003883
  0
VERTEX
  8
0
 10
799.713215
 20
586.526952
 42
0.004321
  0
VERTEX
  8
0
 10
799.048792
 20
582.592978
 42
0.008881
  0
VERTEX
  8
0
 10
798.610047
 20
579.500000
 42
-0.032878
  0
VERTEX
  8
0
 10
796.990830
 20
571.029609
 42
-0.028144
  0
VERTEX
  8
0
 10
794.211887
 20
562.380788
 42
-0.029151
  0
VERTEX
  8
0
 10
790.768781
 20
554.782196
 42
-0.067466
  0
VERTEX
  8
0
 10
787.144731
 20
549.689294
 42
0.000000
  0
VERTEX
  8
0
 10
784.509498
 20
546.878589
 42
0.000000
  0
VERTEX
  8
0
 10
786.938616
 20
545.046302
 42
0.161293
  0
VERTEX
  8
0
 10
795.692721
 20
542.082808
 42
0.059577
  0
VERTEX
  8
0
 10
808.802022
 20
543.562901
 42
0.056458
  0
VERTEX
  8
0
 10
822.437081
 20
548.451241
 42
0.077592
  0
VERTEX
  8
0
 10
833.080225
 20
555.920217
 42
0.028939
  0
VERTEX
  8
0
 10
837.431809
 20
560.627505
 42
0.060650
  0
VERTEX
  8
0
 10
840.105872
 20
564.825799
 42
0.067417
  0
VERTEX
  8
0
 10
841.527517
 20
569.243232
 42
0.044211
  0
VERTEX
  8
0
 10
842.000000
 20
574.576289
 42
0.006176
  0
VERTEX
  8
0
 10
841.954289
 20
578.277092
 42
0.114461
  0
VERTEX
  8
0
 10
841.663675
 20
579.402858
 42
0.292696
  0
VERTEX
  8
0
 10
840.974866
 20
579.797928
 42
0.049332
  0
VERTEX
  8
0
 10
839.399683
 20
579.564178
 42
0.036667
  0
VERTEX
  8
0
 10
838.207198
 20
579.170053
 42
0.018151
  0
VERTEX
  8
0
 10
836.756520
 20
578.506841
 42
0.017909
  0
VERTEX
  8
0
 10
835.294617
 20
577.706460
 42
0.024982
  0
VERTEX
  8
0
 10
834.053189
 20
576.881203
 42
-0.044772
  0
VERTEX
  8
0
 10
832.711075
 20
576.063591
 42
-0.023857
  0
VERTEX
  8
0
 10
830.926532
 20
575.288045
 42
-0.023555
  0
VERTEX
  8
0
 10
829.013767
 20
574.664435
 42
-0.033694
  0
VERTEX
  8
0
 10
827.265586
 20
574.308797
 42
-0.033389
  0
VERTEX
  8
0
 10
824.828848
 20
574.146322
 42
-0.104813
  0
VERTEX
  8
0
 10
823.232877
 20
574.484887
 42
-0.080887
  0
VERTEX
  8
0
 10
821.688604
 20
575.495157
 42
-0.014910
  0
VERTEX
  8
0
 10
819.239152
 20
577.873008
 42
-0.075731
  0
VERTEX
  8
0
 10
815.936433
 20
582.506711
 42
-0.075165
  0
VERTEX
  8
0
 10
814.152639
 20
587.925438
 42
-0.073502
  0
VERTEX
  8
0
 10
814.029249
 20
593.736779
 42
-0.067670
  0
VERTEX
  8
0
 10
815.569767
 20
599.512734
 42
-0.050248
  0
VERTEX
  8
0
 10
818.812798
 20
605.503184
 42
-0.104643
  0
VERTEX
  8
0
 10
822.622524
 20
609.165451
 42
-0.135641
  0
VERTEX
  8
0
 10
826.893295
 20
610.428290
 42
-0.115745
  0
VERTEX
  8
0
 10
831.496529
 20
609.434623
 42
-0.027597
  0
VERTEX
  8
0
 10
832.971811
 20
608.632030
 42
-0.022806
  0
VERTEX
  8
0
 10
834.450196
 20
607.622716
 42
-0.023401
  0
VERTEX
  8
0
 10
835.722959
 20
606.569198
 42
-0.055447
  0
VERTEX
  8
0
 10
836.534606
 20
605.647131
 42
-0.103386
  0
VERTEX
  8
0
 10
837.623459
 20
603.107041
 42
-0.053529
  0
VERTEX
  8
0
 10
837.942036
 20
599.653144
 42
-0.052970
  0
VERTEX
  8
0
 10
837.515745
 20
596.142007
 42
-0.088575
  0
VERTEX
  8
0
 10
836.351347
 20
593.413470
 42
0.277374
  0
VERTEX
  8
0
 10
836.240260
 20
590.558893
 42
0.315749
  0
VERTEX
  8
0
 10
838.654780
 20
589.372041
 42
0.094379
  0
VERTEX
  8
0
 10
844.155361
 20
591.336526
 42
0.058857
  0
VERTEX
  8
0
 10
849.626409
 20
595.485316
 42
0.018297
  0
VERTEX
  8
0
 10
852.126818
 20
598.075187
 42
0.085584
  0
VERTEX
  8
0
 10
853.224567
 20
599.824243
 42
0.079755
  0
VERTEX
  8
0
 10
853.711165
 20
601.897224
 42
0.014699
  0
VERTEX
  8
0
 10
853.876514
 20
605.832697
 42
0.069171
  0
VERTEX
  8
0
 10
852.982658
 20
612.916028
 42
0.086183
  0
VERTEX
  8
0
 10
850.187619
 20
618.921630
 42
0.056489
  0
VERTEX
  8
0
 10
844.550325
 20
625.344013
 42
0.014581
  0
VERTEX
  8
0
 10
834.066784
 20
634.325587
 42
-0.008603
  0
VERTEX
  8
0
 10
827.843742
 20
639.529352
 42
-0.037327
  0
VERTEX
  8
0
 10
824.453336
 20
642.939197
 42
-0.042028
  0
VERTEX
  8
0
 10
821.800866
 20
646.624026
 42
-0.012892
  0
VERTEX
  8
0
 10
818.426407
 20
652.598773
 42
-0.000047
  0
VERTEX
  8
0
 10
816.880087
 20
655.510102
 42
-0.000041
  0
VERTEX
  8
0
 10
815.265667
 20
658.550940
 42
-0.000041
  0
VERTEX
  8
0
 10
813.808821
 20
661.296075
 42
-0.000125
  0
VERTEX
  8
0
 10
812.814921
 20
663.170383
 42
-0.067950
  0
VERTEX
  8
0
 10
811.631676
 20
666.395530
 42
-0.050395
  0
VERTEX
  8
0
 10
811.194634
 20
670.171224
 42
-0.052939
  0
VERTEX
  8
0
 10
811.491786
 20
673.418835
 42
-0.270514
  0
VERTEX
  8
0
 10
812.647012
 20
674.721704
 42
-0.295820
  0
VERTEX
  8
0
 10
814.163689
 20
674.321116
 42
-0.047212
  0
VERTEX
  8
0
 10
816.095079
 20
671.743144
 42
-0.044557
  0
VERTEX
  8
0
 10
817.840674
 20
668.216097
 42
-0.046490
  0
VERTEX
  8
0
 10
818.903909
 20
664.484957
 42
0.022058
  0
VERTEX
  8
0
 10
819.823482
 20
660.536238
 42
0.151903
  0
VERTEX
  8
0
 10
820.892818
 20
658.884012
 42
0.238111
  0
VERTEX
  8
0
 10
822.433408
 20
658.527565
 42
0.059345
  0
VERTEX
  8
0
 10
824.928453
 20
659.463001
 42
0.049816
  0
VERTEX
  8
0
 10
826.927346
 20
660.763486
 42
0.085127
  0
VERTEX
  8
0
 10
828.243521
 20
662.250275
 42
0.053128
  0
VERTEX
  8
0
 10
829.349667
 20
664.548367
 42
0.009871
  0
VERTEX
  8
0
 10
830.838266
 20
669.000000
 42
0.095261
  0
VERTEX
  8
0
 10
831.505979
 20
674.883036
 42
0.077067
  0
VERTEX
  8
0
 10
830.049871
 20
681.080546
 42
0.061530
  0
VERTEX
  8
0
 10
826.365810
 20
687.705574
 42
0.033194
  0
VERTEX
  8
0
 10
820.364175
 20
694.877864
 42
-0.007867
  0
VERTEX
  8
0
 10
817.936354
 20
697.497581
 42
-0.011454
  0
VERTEX
  8
0
 10
815.886570
 20
699.888357
 42
-0.007134
  0
VERTEX
  8
0
 10
814.259255
 20
701.935723
 42
-0.162370
  0
VERTEX
  8
0
 10
814.015279
 20
702.635693
 42
0.069533
  0
VERTEX
  8
0
 10
813.921860
 20
703.244355
 42
0.015802
  0
VERTEX
  8
0
 10
813.589965
 20
704.236770
 42
0.016063
  0
VERTEX
  8
0
 10
813.130159
 20
705.366720
 42
0.014999
  0
VERTEX
  8
0
 10
812.588857
 20
706.491366
 42
-0.101104
  0
VERTEX
  8
0
 10
811.839596
 20
709.126179
 42
-0.088813
  0
VERTEX
  8
0
 10
812.130165
 20
711.975507
 42
-0.086976
  0
VERTEX
  8
0
 10
813.404008
 20
714.597142
 42
-0.091489
  0
VERTEX
  8
0
 10
815.475464
 20
716.575880
 42
-0.096654
  0
VERTEX
  8
0
 10
817.509667
 20
717.405709
 42
-0.123733
  0
VERTEX
  8
0
 10
819.523020
 20
717.301743
 42
-0.085805
  0
VERTEX
  8
0
 10
821.781056
 20
716.157586
 42
-0.028303
  0
VERTEX
  8
0
 10
824.644267
 20
713.761663
 42
0.047485
  0
VERTEX
  8
0
 10
827.741398
 20
711.365546
 42
0.245183
  0
VERTEX
  8
0
 10
829.831981
 20
711.192275
 42
0.237974
  0
VERTEX
  8
0
 10
831.213283
 20
712.814515
 42
0.045166
  0
VERTEX
  8
0
 10
831.802730
 20
716.772929
 42
0.022892
  0
VERTEX
  8
0
 10
831.841971
 20
720.105038
 42
0.102082
  0
VERTEX
  8
0
 10
831.384427
 20
721.995512
 42
0.079030
  0
VERTEX
  8
0
 10
830.166208
 20
723.781345
 42
0.010543
  0
VERTEX
  8
0
 10
826.956582
 20
727.042291
 42
0.025904
  0
VERTEX
  8
0
 10
822.505496
 20
730.949711
 42
0.041413
  0
VERTEX
  8
0
 10
818.292617
 20
733.745339
 42
0.049429
  0
VERTEX
  8
0
 10
814.340849
 20
735.436254
 42
0.076533
  0
VERTEX
  8
0
 10
810.679409
 20
736.000000
 42
-0.019765
  0
VERTEX
  8
0
 10
805.637566
 20
736.199384
 42
-0.036480
  0
VERTEX
  8
0
 10
801.584767
 20
736.820105
 42
-0.044677
  0
VERTEX
  8
0
 10
798.769977
 20
737.734808
 42
-0.300402
  0
VERTEX
  8
0
 10
798.000000
 20
738.900733
 42
0.070969
  0
VERTEX
  8
0
 10
797.877482
 20
739.759569
 42
0.017613
  0
VERTEX
  8
0
 10
797.431297
 20
741.112209
 42
0.017656
  0
VERTEX
  8
0
 10
796.805060
 20
742.639372
 42
0.016888
  0
VERTEX
  8
0
 10
796.063991
 20
744.141791
 42
0.000000
  0
VERTEX
  8
0
 10
794.127983
 20
747.753963
 42
0.000000
  0
VERTEX
  8
0
 10
798.221920
 20
749.600072
 42
0.073255
  0
VERTEX
  8
0
 10
806.733896
 20
755.054560
 42
0.093081
  0
VERTEX
  8
0
 10
812.511315
 20
762.361346
 42
0.077317
  0
VERTEX
  8
0
 10
815.921963
 20
772.348462
 42
0.035995
  0
VERTEX
  8
0
 10
817.330318
 20
786.000000
 42
0.030105
  0
VERTEX
  8
0
 10
817.199790
 20
790.445955
 42
0.357516
  0
VERTEX
  8
0
 10
816.075650
 20
791.590851
 42
0.313546
  0
VERTEX
  8
0
 10
814.558778
 20
790.762499
 42
0.027191
  0
VERTEX
  8
0
 10
812.711654
 20
786.500000
 42
-0.031911
  0
VERTEX
  8
0
 10
810.710700
 20
781.999353
 42
-0.080242
  0
VERTEX
  8
0
 10
808.566921
 20
779.133753
 42
-0.105719
  0
VERTEX
  8
0
 10
806.030949
 20
777.551908
 42
-0.086981
  0
VERTEX
  8
0
 10
802.882390
 20
777.000000
 42
-0.166640
  0
VERTEX
  8
0
 10
798.691911
 20
778.436491
 42
-0.166349
  0
VERTEX
  8
0
 10
796.260370
 20
782.142748
 42
-0.119308
  0
VERTEX
  8
0
 10
796.186143
 20
787.659887
 42
-0.068706
  0
VERTEX
  8
0
 10
798.547516
 20
793.909969
 42
-0.110333
  0
VERTEX
  8
0
 10
803.685314
 20
799.789109
 42
-0.075598
  0
VERTEX
  8
0
 10
811.567117
 20
803.911542
 42
-0.082710
  0
VERTEX
  8
0
 10
819.560284
 20
805.250319
 42
-0.199148
  0
VERTEX
  8
0
 10
825.000000
 20
803.000000
 42
-0.022886
  0
VERTEX
  8
0
 10
825.765585
 20
802.160928
 42
-0.026473
  0
VERTEX
  8
0
 10
826.412500
 20
801.293750
 42
-0.026952
  0
VERTEX
  8
0
 10
826.874488
 20
800.512642
 42
-0.120635
  0
VERTEX
  8
0
 10
827.000000
 20
800.000000
 42
0.252034
  0
VERTEX
  8
0
 10
827.206748
 20
799.615896
 42
0.064014
  0
VERTEX
  8
0
 10
827.864593
 20
799.293750
 42
0.049682
  0
VERTEX
  8
0
 10
828.815805
 20
799.072798
 42
0.032250
  0
VERTEX
  8
0
 10
829.943296
 20
799.000000
 42
0.120491
  0
VERTEX
  8
0
 10
832.662465
 20
799.664927
 42
0.143057
  0
VERTEX
  8
0
 10
834.564911
 20
801.487064
 42
0.096736
  0
VERTEX
  8
0
 10
835.657885
 20
804.679063
 42
0.035182
  0
VERTEX
  8
0
 10
835.978038
 20
809.472506
 42
0.043766
  0
VERTEX
  8
0
 10
835.466592
 20
815.069894
 42
0.065092
  0
VERTEX
  8
0
 10
833.974117
 20
819.751725
 42
0.071102
  0
VERTEX
  8
0
 10
831.456117
 20
823.590300
 42
0.065925
  0
VERTEX
  8
0
 10
827.904741
 20
826.683860
 42
0.032828
  0
VERTEX
  8
0
 10
825.205815
 20
828.226721
 42
0.056872
  0
VERTEX
  8
0
 10
822.773373
 20
829.087343
 42
0.038964
  0
VERTEX
  8
0
 10
819.637545
 20
829.556643
 42
0.008396
  0
VERTEX
  8
0
 10
814.151757
 20
829.852476
 42
0.011709
  0
VERTEX
  8
0
 10
810.107200
 20
829.907756
 42
0.012872
  0
VERTEX
  8
0
 10
806.190595
 20
829.768689
 42
0.013399
  0
VERTEX
  8
0
 10
802.809024
 20
829.470235
 42
0.042050
  0
VERTEX
  8
0
 10
800.575519
 20
829.020092
 42
0.028230
  0
VERTEX
  8
0
 10
795.644986
 20
827.279460
 42
0.017714
  0
VERTEX
  8
0
 10
790.088365
 20
824.722708
 42
0.015682
  0
VERTEX
  8
0
 10
785.113947
 20
822.017884
 42
0.084278
  0
VERTEX
  8
0
 10
782.759787
 20
820.044845
 42
-0.037013
  0
VERTEX
  8
0
 10
781.209979
 20
818.475329
 42
-0.204937
  0
VERTEX
  8
0
 10
780.106274
 20
818.117582
 42
-0.258153
  0
VERTEX
  8
0
 10
779.254258
 20
818.695617
 42
-0.055937
  0
VERTEX
  8
0
 10
778.608700
 20
820.422928
 42
0.079943
  0
VERTEX
  8
0
 10
777.493783
 20
823.020392
 42
0.036122
  0
VERTEX
  8
0
 10
775.283072
 20
826.006982
 42
0.035907
  0
VERTEX
  8
0
 10
772.583368
 20
828.729436
 42
0.060213
  0
VERTEX
  8
0
 10
769.923272
 20
830.539678
 42
0.080539
  0
VERTEX
  8
0
 10
765.937424
 20
831.845166
 42
0.051046
  0
VERTEX
  8
0
 10
761.045538
 20
832.108529
 42
0.048185
  0
VERTEX
  8
0
 10
755.863144
 20
831.354338
 42
0.050328
  0
VERTEX
  8
0
 10
751.000000
 20
829.626502
 42
0.011552
  0
VERTEX
  8
0
 10
746.740225
 20
827.489114
 42
0.042717
  0
VERTEX
  8
0
 10
744.215448
 20
825.858172
 42
0.050019
  0
VERTEX
  8
0
 10
742.210061
 20
823.956430
 42
0.020186
  0
VERTEX
  8
0
 10
739.860119
 20
821.000000
 42
0.033065
  0
VERTEX
  8
0
 10
737.422146
 20
817.155287
 42
0.039398
  0
VERTEX
  8
0
 10
735.670655
 20
813.235976
 42
0.042983
  0
VERTEX
  8
0
 10
734.777468
 20
809.817873
 42
0.171628
  0
VERTEX
  8
0
 10
735.138734
 20
807.716579
 42
0.067650
  0
VERTEX
  8
0
 10
735.810719
 20
806.823949
 42
0.190307
  0
VERTEX
  8
0
 10
736.513463
 20
806.514928
 42
0.097533
  0
VERTEX
  8
0
 10
737.548992
 20
806.678093
 42
0.011262
  0
VERTEX
  8
0
 10
739.751049
 20
807.540448
 42
-0.059296
  0
VERTEX
  8
0
 10
742.805867
 20
808.410034
 42
-0.070906
  0
VERTEX
  8
0
 10
745.795073
 20
808.461740
 42
-0.087037
  0
VERTEX
  8
0
 10
748.163791
 20
807.734416
 42
-0.185287
  0
VERTEX
  8
0
 10
749.426169
 20
806.331806
 42
-0.131698
  0
VERTEX
  8
0
 10
749.673477
 20
803.974284
 42
-0.043758
  0
VERTEX
  8
0
 10
748.824152
 20
800.574813
 42
-0.043891
  0
VERTEX
  8
0
 10
747.386604
 20
797.355859
 42
-0.122871
  0
VERTEX
  8
0
 10
745.710736
 20
795.565049
 42
-0.053159
  0
VERTEX
  8
0
 10
742.436748
 20
793.910993
 42
-0.094641
  0
VERTEX
  8
0
 10
739.472421
 20
793.393387
 42
-0.078262
  0
VERTEX
  8
0
 10
736.150403
 20
793.970669
 42
-0.027363
  0
VERTEX
  8
0
 10
731.639064
 20
795.788128
 42
-0.008718
  0
VERTEX
  8
0
 10
727.527948
 20
797.800052
 42
-0.091773
  0
VERTEX
  8
0
 10
726.050695
 20
798.936150
 42
-0.147306
  0
VERTEX
  8
0
 10
725.393911
 20
800.332456
 42
-0.033352
  0
VERTEX
  8
0
 10
725.180935
 20
802.973096
 42
0.024041
  0
VERTEX
  8
0
 10
724.876483
 20
807.887486
 42
0.070850
  0
VERTEX
  8
0
 10
724.036230
 20
811.158967
 42
0.087312
  0
VERTEX
  8
0
 10
722.435575
 20
813.672479
 42
0.050705
  0
VERTEX
  8
0
 10
719.757111
 20
816.060988
 42
0.028897
  0
VERTEX
  8
0
 10
717.998802
 20
817.185865
 42
0.026496
  0
VERTEX
  8
0
 10
716.071882
 20
818.136665
 42
0.027464
  0
VERTEX
  8
0
 10
714.260799
 20
818.798754
 42
0.074027
  0
VERTEX
  8
0
 10
712.908978
 20
819.000000
 42
-0.045562
  0
VERTEX
  8
0
 10
710.657425
 20
819.205598
 42
-0.232414
  0
VERTEX
  8
0
 10
709.676913
 20
819.933870
 42
-0.275496
  0
VERTEX
  8
0
 10
709.746437
 20
821.046224
 42
-0.058857
  0
VERTEX
  8
0
 10
711.073681
 20
822.566680
 42
-0.038954
  0
VERTEX
  8
0
 10
712.310478
 20
823.522005
 42
-0.120780
  0
VERTEX
  8
0
 10
713.297730
 20
823.870601
 42
-0.100299
  0
VERTEX
  8
0
 10
714.440656
 20
823.754893
 42
-0.022253
  0
VERTEX
  8
0
 10
716.300100
 20
823.085979
 42
0.041518
  0
VERTEX
  8
0
 10
721.628543
 20
821.397702
 42
0.119876
  0
VERTEX
  8
0
 10
725.473999
 20
821.454485
 42
0.150251
  0
VERTEX
  8
0
 10
728.342029
 20
823.219408
 42
0.079490
  0
VERTEX
  8
0
 10
730.589230
 20
826.786067
 42
0.077481
  0
VERTEX
  8
0
 10
731.836128
 20
831.691214
 42
0.058812
  0
VERTEX
  8
0
 10
731.707141
 20
837.247372
 42
0.053499
  0
VERTEX
  8
0
 10
730.220022
 20
843.130407
 42
0.043742
  0
VERTEX
  8
0
 10
727.442961
 20
849.000000
 42
0.006935
  0
VERTEX
  8
0
 10
725.840744
 20
851.653511
 42
0.007013
  0
VERTEX
  8
0
 10
724.171399
 20
854.251563
 42
0.006862
  0
VERTEX
  8
0
 10
722.655965
 20
856.472091
 42
0.028175
  0
VERTEX
  8
0
 10
721.645783
 20
857.750000
 42
0.083608
  0
VERTEX
  8
0
 10
719.666346
 20
859.346492
 42
0.119528
  0
VERTEX
  8
0
 10
717.503354
 20
859.954347
 42
0.159810
  0
VERTEX
  8
0
 10
715.727433
 20
859.441926
 42
0.181239
  0
VERTEX
  8
0
 10
714.710251
 20
858.000000
 42
0.047284
  0
VERTEX
  8
0
 10
714.585628
 20
857.234000
 42
0.079778
  0
VERTEX
  8
0
 10
714.645558
 20
856.587500
 42
0.117874
  0
VERTEX
  8
0
 10
714.871791
 20
856.159572
 42
0.215708
  0
VERTEX
  8
0
 10
715.224462
 20
856.000000
 42
-0.420450
  0
VERTEX
  8
0
 10
715.929285
 20
855.280041
 42
-0.035103
  0
VERTEX
  8
0
 10
715.665209
 20
852.399578
 42
-0.037621
  0
VERTEX
  8
0
 10
714.913874
 20
849.286336
 42
-0.095088
  0
VERTEX
  8
0
 10
713.798391
 20
847.252292
 42
-0.094137
  0
VERTEX
  8
0
 10
711.416203
 20
845.278762
 42
-0.041178
  0
VERTEX
  8
0
 10
707.658708
 20
843.592558
 42
-0.039200
  0
VERTEX
  8
0
 10
703.296038
 20
842.426615
 42
-0.044900
  0
VERTEX
  8
0
 10
699.000000
 20
842.025700
 42
-0.108226
  0
VERTEX
  8
0
 10
690.535168
 20
843.850280
 42
-0.134071
  0
VERTEX
  8
0
 10
684.362976
 20
848.990925
 42
-0.110298
  0
VERTEX
  8
0
 10
680.887277
 20
857.444810
 42
-0.058039
  0
VERTEX
  8
0
 10
680.266519
 20
868.841872
 42
-0.038606
  0
VERTEX
  8
0
 10
681.509655
 20
877.746470
 42
-0.067533
  0
VERTEX
  8
0
 10
684.063818
 20
884.727466
 42
-0.078994
  0
VERTEX
  8
0
 10
688.032741
 20
890.021939
 42
-0.076821
  0
VERTEX
  8
0
 10
693.482913
 20
893.884365
 42
-0.027009
  0
VERTEX
  8
0
 10
695.782074
 20
894.881419
 42
-0.034335
  0
VERTEX
  8
0
 10
698.000191
 20
895.534974
 42
-0.035778
  0
VERTEX
  8
0
 10
700.208388
 20
895.860512
 42
-0.034078
  0
VERTEX
  8
0
 10
702.477051
 20
895.875741
 42
0.017302
  0
VERTEX
  8
0
 10
705.730238
 20
895.788479
 42
0.123743
  0
VERTEX
  8
0
 10
707.241242
 20
896.180775
 42
0.261515
  0
VERTEX
  8
0
 10
707.807378
 20
897.085843
 42
0.089659
  0
VERTEX
  8
0
 10
707.597332
 20
898.674639
 42
0.089526
  0
VERTEX
  8
0
 10
705.943706
 20
901.783419
 42
0.052198
  0
VERTEX
  8
0
 10
702.989997
 20
904.818970
 42
0.051070
  0
VERTEX
  8
0
 10
699.364165
 20
907.260920
 42
0.070678
  0
VERTEX
  8
0
 10
695.685103
 20
908.601950
 42
0.004421
  0
VERTEX
  8
0
 10
686.877739
 20
910.383383
 42
0.041740
  0
VERTEX
  8
0
 10
683.048338
 20
910.795868
 42
0.061005
  0
VERTEX
  8
0
 10
679.738828
 20
910.470534
 42
0.014746
  0
SEQEND
  0
POLYLINE
  8
0
 66
1
 70
1
  0
VERTEX
  8
0
 10
499.000000
 20
902.241462
 42
0.030461
  0
VERTEX
  8
0
 10
499.091491
 20
900.741090
 42
0.006357
  0
VERTEX
  8
0
 10
499.445175
 20
898.127740
 42
0.006649
  0
VERTEX
  8
0
 10
499.935333
 20
895.100662
 42
0.006241
  0
VERTEX
  8
0
 10
500.515488
 20
892.022847
 42
-0.001589
  0
VERTEX
  8
0
 10
501.267682
 20
888.226691
 42
-0.000563
  0
VERTEX
  8
0
 10
502.320962
 20
882.788369
 42
-0.000559
  0
VERTEX
  8
0
 10
503.464382
 20
876.812863
 42
-0.000657
  0
VERTEX
  8
0
 10
504.533649
 20
871.150325
 42
0.003591
  0
VERTEX
  8
0
 10
505.553832
 20
865.916326
 42
0.004967
  0
VERTEX
  8
0
 10
506.549251
 20
861.237334
 42
0.003176
  0
VERTEX
  8
0
 10
507.448112
 20
857.326291
 42
0.060261
  0
VERTEX
  8
0
 10
507.880882
 20
856.150325
 42
-0.076159
  0
VERTEX
  8
0
 10
508.243872
 20
855.058560
 42
-0.007670
  0
VERTEX
  8
0
 10
508.664651
 20
852.341033
 42
-0.009479
  0
VERTEX
  8
0
 10
509.057151
 20
849.067203
 42
-0.007409
  0
VERTEX
  8
0
 10
509.363054
 20
845.500000
 42
0.015177
  0
VERTEX
  8
0
 10
510.064357
 20
838.585524
 42
0.030407
  0
VERTEX
  8
0
 10
511.113003
 20
833.197621
 42
0.038926
  0
VERTEX
  8
0
 10
512.493970
 20
829.176824
 42
0.095014
  0
VERTEX
  8
0
 10
514.250000
 20
826.599576
 42
-0.019998
  0
VERTEX
  8
0
 10
515.402500
 20
825.356419
 42
-0.081770
  0
VERTEX
  8
0
 10
515.933748
 20
824.478954
 42
-0.550138
  0
VERTEX
  8
0
 10
515.751006
 20
824.225491
 42
-0.124082
  0
VERTEX
  8
0
 10
515.121754
 20
824.424752
 42
0.494703
  0
VERTEX
  8
0
 10
514.154273
 20
824.054804
 42
0.057766
  0
VERTEX
  8
0
 10
513.694023
 20
821.395337
 42
0.035446
  0
VERTEX
  8
0
 10
513.757816
 20
817.114559
 42
0.017968
  0
VERTEX
  8
0
 10
514.412407
 20
811.762186
 42
0.006090
  0
VERTEX
  8
0
 10
514.928416
 20
808.752619
 42
0.008889
  0
VERTEX
  8
0
 10
515.462197
 20
806.116173
 42
0.005060
  0
VERTEX
  8
0
 10
515.970720
 20
803.921191
 42
0.137767
  0
VERTEX
  8
0
 10
516.259084
 20
803.407583
 42
0.285215
  0
VERTEX
  8
0
 10
516.795880
 20
803.282052
 42
0.003788
  0
VERTEX
  8
0
 10
520.164485
 20
804.449179
 42
0.009447
  0
VERTEX
  8
0
 10
524.115335
 20
805.936284
 42
0.005900
  0
VERTEX
  8
0
 10
528.687937
 20
807.819574
 42
-0.003198
  0
VERTEX
  8
0
 10
533.412249
 20
809.795272
 42
-0.003957
  0
VERTEX
  8
0
 10
537.838019
 20
811.572144
 42
-0.003260
  0
VERTEX
  8
0
 10
541.574246
 20
813.009907
 42
-0.029251
  0
VERTEX
  8
0
 10
543.250000
 20
813.532586
 42
0.069712
  0
VERTEX
  8
0
 10
545.113175
 20
814.283377
 42
0.218045
  0
VERTEX
  8
0
 10
545.878360
 20
815.357087
 42
0.199941
  0
VERTEX
  8
0
 10
545.596886
 20
816.711668
 42
0.058987
  0
VERTEX
  8
0
 10
544.174040
 20
818.342496
 42
-0.078601
  0
VERTEX
  8
0
 10
543.111763
 20
819.660556
 42
-0.003286
  0
VERTEX
  8
0
 10
540.132216
 20
824.926551
 42
-0.005610
  0
VERTEX
  8
0
 10
536.700998
 20
831.250768
 42
-0.003950
  0
VERTEX
  8
0
 10
532.978755
 20
838.435808
 42
0.003951
  0
VERTEX
  8
0
 10
529.332551
 20
845.474047
 42
0.006617
  0
VERTEX
  8
0
 10
526.143062
 20
851.324545
 42
0.001760
  0
VERTEX
  8
0
 10
523.320981
 20
856.300868
 42
0.424259
  0
VERTEX
  8
0
 10
522.865236
 20
856.416711
 42
-0.247609
  0
VERTEX
  8
0
 10
522.595582
 20
856.398314
 42
-0.180114
  0
VERTEX
  8
0
 10
522.376555
 20
856.612292
 42
-0.089453
  0
VERTEX
  8
0
 10
522.250889
 20
857.080495
 42
-0.038667
  0
VERTEX
  8
0
 10
522.246681
 20
857.728387
 42
0.108697
  0
VERTEX
  8
0
 10
522.076212
 20
858.889731
 42
0.005893
  0
VERTEX
  8
0
 10
520.714826
 20
862.357714
 42
0.008958
  0
VERTEX
  8
0
 10
518.959712
 20
866.465629
 42
0.006402
  0
VERTEX
  8
0
 10
516.855427
 20
871.000000
 42
-0.002025
  0
VERTEX
  8
0
 10
514.396811
 20
876.178680
 42
-0.001267
  0
VERTEX
  8
0
 10
511.558940
 20
882.259228
 42
-0.001272
  0
VERTEX
  8
0
 10
508.794044
 20
888.262786
 42
-0.002319
  0
VERTEX
  8
0
 10
506.571959
 20
893.180352
 42
0.010755
  0
VERTEX
  8
0
 10
503.259445
 20
900.193307
 42
0.058396
  0
VERTEX
  8
0
 10
500.960815
 20
903.706000
 42
0.419332
  0
VERTEX
  8
0
 10
499.715189
 20
903.806578
 42
0.217654
  0
SEQEND
  0
POLYLINE
  8
0
 66
1
 70
1
  0
VERTEX
  8
0
 10
742.165274
 20
903.283164
 42
0.088434
  0
VERTEX
  8
0
 10
741.078149
 20
902.868332
 42
0.064737
  0
VERTEX
  8
0
 10
740.063910
 20
902.064411
 42
0.055656
  0
VERTEX
  8
0
 10
739.158511
 20
900.897992
 42
0.038293
  0
VERTEX
  8
0
 10
738.396375
 20
899.406233
 42
0.022348
  0
VERTEX
  8
0
 10
737.667728
 20
897.416834
 42
0.078543
  0
VERTEX
  8
0
 10
737.465061
 20
896.072571
 42
0.086743
  0
VERTEX
  8
0
 10
737.696235
 20
894.803453
 42
0.031015
  0
VERTEX
  8
0
 10
738.441218
 20
893.113671
 42
-0.021397
  0
VERTEX
  8
0
 10
738.968060
 20
891.978316
 42
-0.031066
  0
VERTEX
  8
0
 10
739.325456
 20
890.933405
 42
-0.031654
  0
VERTEX
  8
0
 10
739.500848
 20
890.086288
 42
-0.235798
  0
VERTEX
  8
0
 10
739.374471
 20
889.707804
 42
0.457297
  0
VERTEX
  8
0
 10
739.433386
 20
888.895629
 42
0.076333
  0
VERTEX
  8
0
 10
741.006356
 20
888.060255
 42
0.053708
  0
VERTEX
  8
0
 10
743.336903
 20
887.518211
 42
0.075290
  0
VERTEX
  8
0
 10
745.469615
 20
887.580268
 42
0.059307
  0
VERTEX
  8
0
 10
747.670286
 20
888.255862
 42
0.078603
  0
VERTEX
  8
0
 10
749.427923
 20
889.390454
 42
0.073829
  0
VERTEX
  8
0
 10
750.826089
 20
891.073158
 42
0.045680
  0
VERTEX
  8
0
 10
751.957141
 20
893.387273
 42
0.123703
  0
VERTEX
  8
0
 10
752.372715
 20
896.917938
 42
0.100643
  0
VERTEX
  8
0
 10
751.136351
 20
900.532182
 42
0.110564
  0
VERTEX
  8
0
 10
748.716005
 20
903.127919
 42
0.177647
  0
VERTEX
  8
0
 10
745.815741
 20
903.863818
 42
0.010119
  0
VERTEX
  8
0
 10
745.152071
 20
903.781522
 42
0.003533
  0
VERTEX
  8
0
 10
744.200673
 20
903.637076
 42
0.003507
  0
VERTEX
  8
0
 10
743.155609
 20
903.463320
 42
0.004088
  0
SEQEND
  0
POLYLINE
  8
0
 66
1
 70
1
  0
VERTEX
  8
0
 10
725.651743
 20
883.714077
 42
0.025403
  0
VERTEX
  8
0
 10
723.815010
 20
881.992505
 42
0.052324
  0
VERTEX
  8
0
 10
722.604981
 20
880.441106
 42
0.062865
  0
VERTEX
  8
0
 10
721.882430
 20
878.875064
 42
0.057115
  0
VERTEX
  8
0
 10
721.541423
 20
877.126564
 42
0.089973
  0
VERTEX
  8
0
 10
721.885552
 20
873.729541
 42
0.034642
  0
VERTEX
  8
0
 10
723.515781
 20
869.259059
 42
0.034375
  0
VERTEX
  8
0
 10
725.723909
 20
865.095804
 42
0.101194
  0
VERTEX
  8
0
 10
727.941786
 20
862.753328
 42
0.116808
  0
VERTEX
  8
0
 10
730.303210
 20
861.814388
 42
0.088207
  0
VERTEX
  8
0
 10
733.102706
 20
861.898597
 42
0.076115
  0
VERTEX
  8
0
 10
736.064333
 20
863.006493
 42
0.057624
  0
VERTEX
  8
0
 10
738.882528
 20
865.039887
 42
0.033174
  0
VERTEX
  8
0
 10
740.644431
 20
866.877654
 42
0.093489
  0
VERTEX
  8
0
 10
741.512097
 20
868.423145
 42
0.069709
  0
VERTEX
  8
0
 10
741.889723
 20
870.430612
 42
0.012948
  0
VERTEX
  8
0
 10
741.968197
 20
874.193629
 42
0.025326
  0
VERTEX
  8
0
 10
741.716628
 20
878.706694
 42
0.091230
  0
VERTEX
  8
0
 10
740.900651
 20
881.458322
 42
0.110163
  0
VERTEX
  8
0
 10
739.252541
 20
883.456520
 42
0.046218
  0
VERTEX
  8
0
 10
736.299660
 20
885.346325
 42
0.042235
  0
VERTEX
  8
0
 10
733.238907
 20
886.613464
 42
0.115561
  0
VERTEX
  8
0
 10
730.919789
 20
886.794705
 42
0.105787
  0
VERTEX
  8
0
 10
728.638588
 20
885.928498
 42
0.032152
  0
SEQEND
  0
POLYLINE
  8
0
 66
1
 70
1
  0
VERTEX
  8
0
 10
597.222506
 20
781.443296
 42
0.033515
  0
VERTEX
  8
0
 10
596.371972
 20
780.758287
 42
0.037303
  0
VERTEX
  8
0
 10
595.652861
 20
779.988234
 42
0.040380
  0
VERTEX
  8
0
 10
595.150627
 20
779.247646
 42
0.129517
  0
VERTEX
  8
0
 10
595.000000
 20
778.675905
 42
-0.120121
  0
VERTEX
  8
0
 10
594.799969
 20
777.855293
 42
-0.003368
  0
VERTEX
  8
0
 10
593.090625
 20
774.611075
 42
-0.006706
  0
VERTEX
  8
0
 10
590.990693
 20
770.813115
 42
-0.004536
  0
VERTEX
  8
0
 10
588.500000
 20
766.538301
 42
0.001084
  0
VERTEX
  8
0
 10
586.008028
 20
762.328385
 42
0.001756
  0
VERTEX
  8
0
 10
583.909375
 20
758.736543
 42
0.000243
  0
VERTEX
  8
0
 10
582.057583
 20
755.537906
 42
0.131830
  0
VERTEX
  8
0
 10
582.000000
 20
755.323306
 42
-0.132674
  0
VERTEX
  8
0
 10
581.943348
 20
755.113565
 42
-0.000654
  0
VERTEX
  8
0
 10
580.825000
 20
753.200127
 42
-0.002918
  0
VERTEX
  8
0
 10
579.533348
 20
751.025976
 42
-0.001836
  0
VERTEX
  8
0
 10
578.000000
 20
748.500000
 42
0.003675
  0
VERTEX
  8
0
 10
576.467063
 20
745.953633
 42
0.005571
  0
VERTEX
  8
0
 10
575.175000
 20
743.714704
 42
0.002321
  0
VERTEX
  8
0
 10
574.102917
 20
741.787323
 42
0.126412
  0
VERTEX
  8
0
 10
574.000000
 20
741.386757
 42
-0.125398
  0
VERTEX
  8
0
 10
573.909513
 20
741.031631
 42
-0.008946
  0
VERTEX
  8
0
 10
573.401805
 20
740.138446
 42
-0.012146
  0
VERTEX
  8
0
 10
572.743628
 20
739.086445
 42
-0.008856
  0
VERTEX
  8
0
 10
571.963593
 20
737.948871
 42
0.013512
  0
VERTEX
  8
0
 10
570.994592
 20
736.507117
 42
0.005238
  0
VERTEX
  8
0
 10
569.728262
 20
734.461271
 42
0.005181
  0
VERTEX
  8
0
 10
568.401696
 20
732.214830
 42
0.006389
  0
VERTEX
  8
0
 10
567.213593
 20
730.092180
 42
-0.004829
  0
VERTEX
  8
0
 10
564.248049
 20
724.754976
 42
-0.000656
  0
VERTEX
  8
0
 10
557.915827
 20
713.647386
 42
-0.000811
  0
VERTEX
  8
0
 10
550.927025
 20
701.471188
 42
-0.001100
  0
VERTEX
  8
0
 10
544.574021
 20
690.500000
 42
0.003237
  0
VERTEX
  8
0
 10
542.957516
 20
687.680683
 42
0.003850
  0
VERTEX
  8
0
 10
541.469699
 20
684.998399
 42
0.003346
  0
VERTEX
  8
0
 10
540.247849
 20
682.718879
 42
0.024711
  0
VERTEX
  8
0
 10
539.727081
 20
681.600933
 42
-0.031464
  0
VERTEX
  8
0
 10
538.838857
 20
679.759502
 42
-0.001604
  0
VERTEX
  8
0
 10
535.565061
 20
673.982186
 42
-0.002720
  0
VERTEX
  8
0
 10
531.817148
 20
667.499524
 42
-0.002648
  0
VERTEX
  8
0
 10
527.965806
 20
661.000000
 42
0.005391
  0
VERTEX
  8
0
 10
527.434130
 20
660.091417
 42
0.000734
  0
VERTEX
  8
0
 10
526.345772
 20
658.178125
 42
0.000845
  0
VERTEX
  8
0
 10
525.063452
 20
655.907193
 42
0.000713
  0
VERTEX
  8
0
 10
523.714068
 20
653.500000
 42
-0.002043
  0
VERTEX
  8
0
 10
521.851357
 20
650.197680
 42
-0.000458
  0
VERTEX
  8
0
 10
518.649715
 20
644.587392
 42
-0.000475
  0
VERTEX
  8
0
 10
514.941731
 20
638.117927
 42
-0.000460
  0
VERTEX
  8
0
 10
511.180967
 20
631.584737
 42
0.000642
  0
VERTEX
  8
0
 10
507.660917
 20
625.464566
 42
0.001052
  0
VERTEX
  8
0
 10
504.696909
 20
620.270526
 42
0.000089
  0
VERTEX
  8
0
 10
502.050327
 20
615.608044
 42
0.129746
  0
VERTEX
  8
0
 10
502.000000
 20
615.417366
 42
-0.131191
  0
VERTEX
  8
0
 10
501.950193
 20
615.230806
 42
-0.000357
  0
VERTEX
  8
0
 10
500.630080
 20
612.938479
 42
-0.002131
  0
VERTEX
  8
0
 10
499.124289
 20
610.353556
 42
-0.001324
  0
VERTEX
  8
0
 10
497.336442
 20
607.332628
 42
0.002285
  0
VERTEX
  8
0
 10
491.436448
 20
597.319533
 42
0.011292
  0
VERTEX
  8
0
 10
488.267716
 20
591.591685
 42
0.015154
  0
VERTEX
  8
0
 10
486.457499
 20
587.867288
 42
0.147591
  0
VERTEX
  8
0
 10
486.234515
 20
586.148980
 42
-0.092993
  0
VERTEX
  8
0
 10
486.221318
 20
585.533370
 42
-0.109371
  0
VERTEX
  8
0
 10
485.981389
 20
585.002902
 42
-0.114802
  0
VERTEX
  8
0
 10
485.551389
 20
584.641046
 42
-0.110708
  0
VERTEX
  8
0
 10
485.000000
 20
584.500000
 42
0.114360
  0
VERTEX
  8
0
 10
484.421858
 20
584.347659
 42
0.131243
  0
VERTEX
  8
0
 10
484.003633
 20
583.960867
 42
0.113286
  0
VERTEX
  8
0
 10
483.794899
 20
583.366670
 42
0.071085
  0
VERTEX
  8
0
 10
483.816882
 20
582.627206
 42
-0.044591
  0
VERTEX
  8
0
 10
483.871558
 20
581.966204
 42
-0.119416
  0
VERTEX
  8
0
 10
483.758063
 20
581.510911
 42
-0.234231
  0
VERTEX
  8
0
 10
483.507151
 20
581.328494
 42
-0.182495
  0
VERTEX
  8
0
 10
483.171666
 20
581.393904
 42
0.327995
  0
VERTEX
  8
0
 10
482.486578
 20
581.338772
 42
0.066559
  0
VERTEX
  8
0
 10
481.628960
 20
580.368209
 42
0.061067
  0
VERTEX
  8
0
 10
480.992394
 20
579.111288
 42
0.180390
  0
VERTEX
  8
0
 10
481.002040
 20
578.158934
 42
-0.273809
  0
VERTEX
  8
0
 10
480.968943
 20
577.963131
 42
-0.020279
  0
VERTEX
  8
0
 10
480.586742
 20
577.546660
 42
-0.023664
  0
VERTEX
  8
0
 10
480.057215
 20
577.062758
 42
-0.015430
  0
VERTEX
  8
0
 10
479.404109
 20
576.553541
 42
0.065048
  0
VERTEX
  8
0
 10
478.734199
 20
575.915183
 42
0.082793
  0
VERTEX
  8
0
 10
478.314789
 20
575.173038
 42
0.089134
  0
VERTEX
  8
0
 10
478.177552
 20
574.380111
 42
0.090241
  0
VERTEX
  8
0
 10
478.326066
 20
573.592670
 42
-0.032031
  0
VERTEX
  8
0
 10
478.518920
 20
572.974412
 42
-0.107908
  0
VERTEX
  8
0
 10
478.528751
 20
572.553382
 42
-0.299901
  0
VERTEX
  8
0
 10
478.369956
 20
572.391046
 42
-0.194204
  0
VERTEX
  8
0
 10
478.101852
 20
572.437052
 42
0.280397
  0
VERTEX
  8
0
 10
477.027273
 20
572.444382
 42
0.124118
  0
VERTEX
  8
0
 10
475.985702
 20
571.399668
 42
0.093675
  0
VERTEX
  8
0
 10
475.366520
 20
569.704016
 42
0.118207
  0
VERTEX
  8
0
 10
475.486333
 20
568.043062
 42
-0.055435
  0
VERTEX
  8
0
 10
475.682013
 20
567.060467
 42
-0.123257
  0
VERTEX
  8
0
 10
475.561673
 20
566.312205
 42
-0.133478
  0
VERTEX
  8
0
 10
475.113342
 20
565.746459
 42
-0.070448
  0
VERTEX
  8
0
 10
474.318951
 20
565.318016
 42
0.056169
  0
VERTEX
  8
0
 10
472.756085
 20
564.531640
 42
0.119282
  0
VERTEX
  8
0
 10
471.833780
 20
563.551409
 42
0.198544
  0
VERTEX
  8
0
 10
471.711854
 20
562.585213
 42
0.184295
  0
VERTEX
  8
0
 10
472.302786
 20
561.776368
 42
-0.113734
  0
VERTEX
  8
0
 10
472.670548
 20
561.396317
 42
-0.306502
  0
VERTEX
  8
0
 10
472.651839
 20
561.039270
 42
-0.137873
  0
VERTEX
  8
0
 10
472.208717
 20
560.702684
 42
-0.027033
  0
VERTEX
  8
0
 10
471.250000
 20
560.383343
 42
0.036609
  0
VERTEX
  8
0
 10
470.388741
 20
560.078040
 42
0.048058
  0
VERTEX
  8
0
 10
469.660937
 20
559.671039
 42
0.056712
  0
VERTEX
  8
0
 10
469.156736
 20
559.229501
 42
0.186689
  0
VERTEX
  8
0
 10
469.000000
 20
558.824352
 42
0.125874
  0
VERTEX
  8
0
 10
469.079128
 20
558.515016
 42
0.188807
  0
VERTEX
  8
0
 10
469.290385
 20
558.338260
 42
0.148166
  0
VERTEX
  8
0
 10
469.610332
 20
558.328882
 42
0.072296
  0
VERTEX
  8
0
 10
469.988546
 20
558.492921
 42
-0.113925
  0
VERTEX
  8
0
 10
470.325832
 20
558.607208
 42
-0.328840
  0
VERTEX
  8
0
 10
470.525839
 20
558.488519
 42
-0.156144
  0
VERTEX
  8
0
 10
470.557806
 20
558.134428
 42
-0.036680
  0
VERTEX
  8
0
 10
470.383761
 20
557.557681
 42
-0.061745
  0
VERTEX
  8
0
 10
470.090383
 20
557.007311
 42
-0.092628
  0
VERTEX
  8
0
 10
469.701752
 20
556.628206
 42
-0.121099
  0
VERTEX
  8
0
 10
469.282806
 20
556.476589
 42
-0.166459
  0
VERTEX
  8
0
 10
468.895215
 20
556.564761
 42
0.206117
  0
VERTEX
  8
0
 10
468.556755
 20
556.614887
 42
0.180278
  0
VERTEX
  8
0
 10
468.262969
 20
556.406818
 42
0.102690
  0
VERTEX
  8
0
 10
468.064000
 20
555.927113
 42
0.047164
  0
VERTEX
  8
0
 10
468.000000
 20
555.250147
 42
-0.064567
  0
VERTEX
  8
0
 10
467.889120
 20
554.395082
 42
-0.032441
  0
VERTEX
  8
0
 10
467.543170
 20
553.360744
 42
-0.031564
  0
VERTEX
  8
0
 10
467.040166
 20
552.321399
 42
-0.040424
  0
VERTEX
  8
0
 10
466.444834
 20
551.441130
 42
-0.000877
  0
VERTEX
  8
0
 10
465.361067
 20
550.093242
 42
-0.349364
  0
VERTEX
  8
0
 10
465.249246
 20
550.068281
 42
-0.412352
  0
VERTEX
  8
0
 10
465.215043
 20
550.166221
 42
-0.000946
  0
VERTEX
  8
0
 10
465.944834
 20
551.684259
 42
0.011233
  0
VERTEX
  8
0
 10
466.965683
 20
553.924617
 42
0.236206
  0
VERTEX
  8
0
 10
466.923776
 20
554.636254
 42
0.568780
  0
VERTEX
  8
0
 10
466.524561
 20
554.641753
 42
0.013413
  0
VERTEX
  8
0
 10
465.381704
 20
552.661592
 42
0.021373
  0
VERTEX
  8
0
 10
464.831952
 20
551.534726
 42
0.031244
  0
VERTEX
  8
0
 10
464.454863
 20
550.497438
 42
0.031923
  0
VERTEX
  8
0
 10
464.264648
 20
549.656258
 42
0.240472
  0
VERTEX
  8
0
 10
464.386557
 20
549.280109
 42
-0.200338
  0
VERTEX
  8
0
 10
464.526180
 20
548.940398
 42
-0.048335
  0
VERTEX
  8
0
 10
464.462890
 20
548.322527
 42
-0.042111
  0
VERTEX
  8
0
 10
464.244433
 20
547.570872
 42
-0.031106
  0
VERTEX
  8
0
 10
463.883796
 20
546.782871
 42
-0.033339
  0
VERTEX
  8
0
 10
463.441774
 20
546.074770
 42
-0.059529
  0
VERTEX
  8
0
 10
462.977706
 20
545.570210
 42
-0.091918
  0
VERTEX
  8
0
 10
462.565715
 20
545.331611
 42
-0.289454
  0
VERTEX
  8
0
 10
462.267857
 20
545.398810
 42
0.394822
  0
VERTEX
  8
0
 10
461.493929
 20
545.424613
 42
0.059796
  0
VERTEX
  8
0
 10
460.358981
 20
544.163027
 42
0.052279
  0
VERTEX
  8
0
 10
459.375037
 20
542.398550
 42
0.096681
  0
VERTEX
  8
0
 10
459.031803
 20
540.799690
 42
-0.067865
  0
VERTEX
  8
0
 10
458.921474
 20
540.089993
 42
-0.051951
  0
VERTEX
  8
0
 10
458.620003
 20
539.363937
 42
-0.052898
  0
VERTEX
  8
0
 10
458.184174
 20
538.731055
 42
-0.079959
  0
VERTEX
  8
0
 10
457.674589
 20
538.299690
 42
0.098499
  0
VERTEX
  8
0
 10
456.561779
 20
537.285131
 42
0.069552
  0
VERTEX
  8
0
 10
455.753890
 20
535.793220
 42
0.080884
  0
VERTEX
  8
0
 10
455.471045
 20
534.368715
 42
0.269186
  0
VERTEX
  8
0
 10
455.904194
 20
533.559212
 42
0.089704
  0
VERTEX
  8
0
 10
456.266623
 20
533.416699
 42
0.076501
  0
VERTEX
  8
0
 10
456.677441
 20
533.399019
 42
0.076909
  0
VERTEX
  8
0
 10
457.072542
 20
533.505485
 42
0.092430
  0
VERTEX
  8
0
 10
457.389464
 20
533.722798
 42
-0.060543
  0
VERTEX
  8
0
 10
457.733257
 20
533.992082
 42
-0.030607
  0
VERTEX
  8
0
 10
458.221478
 20
534.247700
 42
-0.029873
  0
VERTEX
  8
0
 10
458.765071
 20
534.453180
 42
-0.039006
  0
VERTEX
  8
0
 10
459.283213
 20
534.571062
 42
-0.030388
  0
VERTEX
  8
0
 10
463.226710
 20
534.906953
 42
-0.000339
  0
VERTEX
  8
0
 10
489.956843
 20
535.536191
 42
-0.001165
  0
VERTEX
  8
0
 10
518.239784
 20
536.116864
 42
-0.001233
  0
VERTEX
  8
0
 10
546.000000
 20
536.553624
 42
0.000397
  0
VERTEX
  8
0
 10
561.736601
 20
536.774908
 42
0.000496
  0
VERTEX
  8
0
 10
576.349763
 20
537.006487
 42
0.000400
  0
VERTEX
  8
0
 10
588.617012
 20
537.222862
 42
0.003821
  0
VERTEX
  8
0
 10
593.850258
 20
537.359364
 42
-0.007902
  0
VERTEX
  8
0
 10
597.917577
 20
537.432243
 42
-0.029726
  0
VERTEX
  8
0
 10
600.463221
 20
537.286162
 42
-0.048293
  0
VERTEX
  8
0
 10
602.048677
 20
536.942813
 42
-0.227458
  0
VERTEX
  8
0
 10
602.707247
 20
536.320519
 42
0.217953
  0
VERTEX
  8
0
 10
603.698486
 20
535.349306
 42
0.091650
  0
VERTEX
  8
0
 10
605.582586
 20
535.039045
 42
0.087349
  0
VERTEX
  8
0
 10
607.533730
 20
535.422058
 42
0.174875
  0
VERTEX
  8
0
 10
608.705357
 20
536.437985
 42
-0.246401
  0
VERTEX
  8
0
 10
609.961993
 20
537.256659
 42
-0.010829
  0
VERTEX
  8
0
 10
615.336941
 20
537.647465
 42
-0.009486
  0
VERTEX
  8
0
 10
624.077710
 20
537.926847
 42
-0.001491
  0
VERTEX
  8
0
 10
641.295553
 20
538.099017
 42
0.002603
  0
VERTEX
  8
0
 10
653.521131
 20
538.248450
 42
0.004226
  0
VERTEX
  8
0
 10
663.905162
 20
538.517255
 42
0.000847
  0
VERTEX
  8
0
 10
673.004003
 20
538.845203
 42
0.249890
  0
VERTEX
  8
0
 10
673.629534
 20
539.209590
 42
-0.151637
  0
VERTEX
  8
0
 10
673.935176
 20
539.475633
 42
-0.120641
  0
VERTEX
  8
0
 10
674.367986
 20
539.552220
 42
-0.094783
  0
VERTEX
  8
0
 10
674.875445
 20
539.420488
 42
-0.062516
  0
VERTEX
  8
0
 10
675.385114
 20
539.095347
 42
0.124847
  0
VERTEX
  8
0
 10
676.705178
 20
538.466912
 42
0.051143
  0
VERTEX
  8
0
 10
678.695654
 20
538.279836
 42
0.053675
  0
VERTEX
  8
0
 10
680.475938
 20
538.486801
 42
0.350313
  0
VERTEX
  8
0
 10
681.000000
 20
539.142999
 42
-0.380792
  0
VERTEX
  8
0
 10
681.197053
 20
539.364222
 42
-0.043496
  0
VERTEX
  8
0
 10
681.923072
 20
539.384922
 42
-0.035298
  0
VERTEX
  8
0
 10
682.937223
 20
539.253365
 42
-0.019936
  0
VERTEX
  8
0
 10
684.142372
 20
538.959168
 42
0.020616
  0
VERTEX
  8
0
 10
685.407117
 20
538.652246
 42
0.025349
  0
VERTEX
  8
0
 10
686.608714
 20
538.475361
 42
0.025119
  0
VERTEX
  8
0
 10
687.610657
 20
538.429998
 42
0.138014
  0
VERTEX
  8
0
 10
688.125736
 20
538.577709
 42
-0.134173
  0
VERTEX
  8
0
 10
688.848901
 20
538.791010
 42
-0.000413
  0
VERTEX
  8
0
 10
698.565198
 20
538.978003
 42
-0.002318
  0
VERTEX
  8
0
 10
709.573788
 20
539.129725
 42
-0.001443
  0
VERTEX
  8
0
 10
722.483364
 20
539.210535
 42
0.001784
  0
VERTEX
  8
0
 10
735.335296
 20
539.299752
 42
0.002975
  0
VERTEX
  8
0
 10
746.154488
 20
539.477858
 42
0.000357
  0
VERTEX
  8
0
 10
755.744025
 20
539.699649
 42
0.407249
  0
VERTEX
  8
0
 10
756.000000
 20
539.961800
 42
0.109658
  0
VERTEX
  8
0
 10
755.929724
 20
540.278377
 42
0.030660
  0
VERTEX
  8
0
 10
755.685893
 20
540.726636
 42
0.029365
  0
VERTEX
  8
0
 10
755.339956
 20
541.213051
 42
0.027128
  0
VERTEX
  8
0
 10
754.930699
 20
541.669301
 42
-0.048560
  0
VERTEX
  8
0
 10
754.505244
 20
542.186527
 42
-0.030992
  0
VERTEX
  8
0
 10
754.111703
 20
542.859202
 42
-0.031025
  0
VERTEX
  8
0
 10
753.805050
 20
543.573817
 42
-0.049439
  0
VERTEX
  8
0
 10
753.644201
 20
544.218454
 42
0.094832
  0
VERTEX
  8
0
 10
753.300199
 20
545.207171
 42
0.002986
  0
VERTEX
  8
0
 10
751.133295
 20
548.906348
 42
0.005712
  0
VERTEX
  8
0
 10
748.492265
 20
553.240251
 42
0.003918
  0
VERTEX
  8
0
 10
745.401433
 20
558.099153
 42
-0.000077
  0
VERTEX
  8
0
 10
741.754028
 20
563.736896
 42
-0.000045
  0
VERTEX
  8
0
 10
737.401605
 20
570.467975
 42
-0.000045
  0
VERTEX
  8
0
 10
733.057576
 20
577.188744
 42
-0.000078
  0
VERTEX
  8
0
 10
729.437930
 20
582.791826
 42
0.000426
  0
VERTEX
  8
0
 10
725.669455
 20
588.616388
 42
0.000204
  0
VERTEX
  8
0
 10
720.822489
 20
596.087204
 42
0.000202
  0
VERTEX
  8
0
 10
715.757322
 20
603.880453
 42
0.000289
  0
VERTEX
  8
0
 10
711.255651
 20
610.791826
 42
-0.001452
  0
VERTEX
  8
0
 10
707.191715
 20
617.062984
 42
-0.001810
  0
VERTEX
  8
0
 10
703.454111
 20
622.913849
 42
-0.001465
  0
VERTEX
  8
0
 10
700.348841
 20
627.845760
 42
-0.013851
  0
VERTEX
  8
0
 10
699.082901
 20
630.000000
 42
0.009294
  0
VERTEX
  8
0
 10
698.227460
 20
631.486544
 42
0.007395
  0
VERTEX
  8
0
 10
697.251087
 20
633.059375
 42
0.007485
  0
VERTEX
  8
0
 10
696.302730
 20
634.490229
 42
0.018585
  0
VERTEX
  8
0
 10
695.554903
 20
635.500000
 42
-0.024197
  0
VERTEX
  8
0
 10
693.320628
 20
638.588739
 42
-0.002438
  0
VERTEX
  8
0
 10
688.395071
 20
646.223241
 42
-0.003185
  0
VERTEX
  8
0
 10
682.838058
 20
655.052882
 42
-0.003134
  0
VERTEX
  8
0
 10
677.363720
 20
664.000000
 42
0.003480
  0
VERTEX
  8
0
 10
675.044849
 20
667.784009
 42
0.004225
  0
VERTEX
  8
0
 10
672.816950
 20
671.296875
 42
0.003582
  0
VERTEX
  8
0
 10
670.897501
 20
674.221411
 42
0.029090
  0
VERTEX
  8
0
 10
669.933283
 20
675.500000
 42
-0.019392
  0
VERTEX
  8
0
 10
669.164868
 20
676.478883
 42
-0.009223
  0
VERTEX
  8
0
 10
668.249207
 20
677.793750
 42
-0.009126
  0
VERTEX
  8
0
 10
667.341315
 20
679.205206
 42
-0.012795
  0
VERTEX
  8
0
 10
666.586562
 20
680.500000
 42
0.005838
  0
VERTEX
  8
0
 10
665.831014
 20
681.838622
 42
0.003665
  0
VERTEX
  8
0
 10
664.917967
 20
683.386798
 42
0.003678
  0
VERTEX
  8
0
 10
663.996786
 20
684.897612
 42
0.006715
  0
VERTEX
  8
0
 10
663.219589
 20
686.114630
 42
-0.004399
  0
VERTEX
  8
0
 10
662.358618
 20
687.449160
 42
-0.001510
  0
VERTEX
  8
0
 10
661.134770
 20
689.396290
 42
-0.001500
  0
VERTEX
  8
0
 10
659.797534
 20
691.552520
 42
-0.001736
  0
VERTEX
  8
0
 10
658.537074
 20
693.614630
 42
0.008128
  0
VERTEX
  8
0
 10
657.344761
 20
695.510357
 42
0.011348
  0
VERTEX
  8
0
 10
656.213304
 20
697.162839
 42
0.007896
  0
VERTEX
  8
0
 10
655.222843
 20
698.496267
 42
0.129599
  0
VERTEX
  8
0
 10
654.787074
 20
698.833333
 42
-0.085896
  0
VERTEX
  8
0
 10
654.486132
 20
699.027069
 42
-0.063918
  0
VERTEX
  8
0
 10
654.231203
 20
699.329864
 42
-0.063283
  0
VERTEX
  8
0
 10
654.058734
 20
699.690836
 42
-0.080002
  0
VERTEX
  8
0
 10
654.000000
 20
700.055566
 42
0.132847
  0
VERTEX
  8
0
 10
653.833555
 20
700.670964
 42
0.002202
  0
VERTEX
  8
0
 10
652.017187
 20
703.751924
 42
0.005523
  0
VERTEX
  8
0
 10
649.836915
 20
707.322873
 42
0.003621
  0
VERTEX
  8
0
 10
647.250000
 20
711.390671
 42
-0.001085
  0
VERTEX
  8
0
 10
641.004433
 20
721.102400
 42
-0.001278
  0
VERTEX
  8
0
 10
635.133788
 20
730.326670
 42
-0.001094
  0
VERTEX
  8
0
 10
630.208255
 20
738.147592
 42
-0.008395
  0
VERTEX
  8
0
 10
627.966920
 20
741.860914
 42
0.010242
  0
VERTEX
  8
0
 10
624.001465
 20
748.376151
 42
0.002290
  0
VERTEX
  8
0
 10
616.958810
 20
759.319929
 42
0.001117
  0
VERTEX
  8
0
 10
609.544984
 20
770.669813
 42
0.037072
  0
VERTEX
  8
0
 10
607.563205
 20
773.250000
 42
-0.016452
  0
VERTEX
  8
0
 10
606.969909
 20
773.959876
 42
-0.021779
  0
VERTEX
  8
0
 10
606.480714
 20
774.645511
 42
-0.019859
  0
VERTEX
  8
0
 10
606.129605
 20
775.235981
 42
-0.159025
  0
VERTEX
  8
0
 10
606.073270
 20
775.543230
 42
0.171130
  0
VERTEX
  8
0
 10
605.777653
 20
776.965660
 42
0.018889
  0
VERTEX
  8
0
 10
603.922015
 20
779.787756
 42
0.017109
  0
VERTEX
  8
0
 10
601.861683
 20
782.477590
 42
0.224391
  0
VERTEX
  8
0
 10
600.756232
 20
783.000000
 42
0.078900
  0
VERTEX
  8
0
 10
600.102496
 20
782.896194
 42
0.025005
  0
VERTEX
  8
0
 10
599.177322
 20
782.542718
 42
0.024268
  0
VERTEX
  8
0
 10
598.169674
 20
782.039112
 42
0.024758
  0
SEQEND
  0
POLYLINE
  8
0
 66
1
 70
1
  0
VERTEX
  8
0
 10
532.675670
 20
657.750000
 42
-0.030404
  0
VERTEX
  8
0
 10
532.980742
 20
657.198071
 42
-0.024627
  0
VERTEX
  8
0
 10
533.241092
 20
656.573437
 42
-0.025283
  0
VERTEX
  8
0
 10
533.424006
 20
655.971718
 42
-0.057058
  0
VERTEX
  8
0
 10
533.485946
 20
655.500000
 42
0.392026
  0
VERTEX
  8
0
 10
533.924714
 20
655.041856
 42
0.003888
  0
VERTEX
  8
0
 10
538.853567
 20
654.785343
 42
0.008698
  0
VERTEX
  8
0
 10
545.246697
 20
654.613799
 42
0.003482
  0
VERTEX
  8
0
 10
554.001259
 20
654.592204
 42
-0.000558
  0
VERTEX
  8
0
 10
564.796615
 20
654.628723
 42
-0.000159
  0
VERTEX
  8
0
 10
581.550370
 20
654.661387
 42
-0.000160
  0
VERTEX
  8
0
 10
600.459521
 20
654.686178
 42
-0.000170
  0
VERTEX
  8
0
 10
619.000000
 20
654.698244
 42
0.000160
  0
VERTEX
  8
0
 10
636.501127
 20
654.709277
 42
0.000218
  0
VERTEX
  8
0
 10
652.264063
 20
654.731134
 42
0.000141
  0
VERTEX
  8
0
 10
665.510651
 20
654.759028
 42
0.002551
  0
VERTEX
  8
0
 10
669.750000
 20
654.790780
 42
-0.013373
  0
VERTEX
  8
0
 10
672.330552
 20
654.754256
 42
-0.028980
  0
VERTEX
  8
0
 10
674.303653
 20
654.558598
 42
-0.033606
  0
VERTEX
  8
0
 10
675.668933
 20
654.247598
 42
-0.331289
  0
VERTEX
  8
0
 10
676.000000
 20
653.802773
 42
-0.123978
  0
VERTEX
  8
0
 10
675.612406
 20
652.263645
 42
-0.012954
  0
VERTEX
  8
0
 10
673.750600
 20
649.006657
 42
-0.017197
  0
VERTEX
  8
0
 10
671.549230
 20
645.643691
 42
-0.028822
  0
VERTEX
  8
0
 10
669.447800
 20
643.000000
 42
0.029489
  0
VERTEX
  8
0
 10
668.392297
 20
641.668489
 42
0.010040
  0
VERTEX
  8
0
 10
667.016202
 20
639.618750
 42
0.009943
  0
VERTEX
  8
0
 10
665.583761
 20
637.289044
 42
0.011294
  0
VERTEX
  8
0
 10
664.306960
 20
635.000000
 42
-0.007130
  0
VERTEX
  8
0
 10
662.927990
 20
632.478660
 42
-0.003883
  0
VERTEX
  8
0
 10
661.167046
 20
629.420859
 42
-0.003868
  0
VERTEX
  8
0
 10
659.328092
 20
626.339062
 42
-0.006127
  0
VERTEX
  8
0
 10
657.700002
 20
623.730583
 42
0.003930
  0
VERTEX
  8
0
 10
656.282051
 20
621.480856
 42
0.005945
  0
VERTEX
  8
0
 10
655.086875
 20
619.498866
 42
0.002550
  0
VERTEX
  8
0
 10
654.097850
 20
617.793894
 42
0.130876
  0
VERTEX
  8
0
 10
654.000000
 20
617.426473
 42
-0.133507
  0
VERTEX
  8
0
 10
653.895340
 20
617.041495
 42
-0.000908
  0
VERTEX
  8
0
 10
652.133927
 20
614.053804
 42
-0.003469
  0
VERTEX
  8
0
 10
650.082471
 20
610.642755
 42
-0.002201
  0
VERTEX
  8
0
 10
647.647411
 20
606.695891
 42
0.001040
  0
VERTEX
  8
0
 10
644.864290
 20
602.208226
 42
0.000730
  0
VERTEX
  8
0
 10
641.749007
 20
597.145043
 42
0.000736
  0
VERTEX
  8
0
 10
638.780583
 20
592.288699
 42
0.001541
  0
VERTEX
  8
0
 10
636.488395
 20
588.500000
 42
-0.001622
  0
VERTEX
  8
0
 10
634.413001
 20
585.070881
 42
-0.001289
  0
VERTEX
  8
0
 10
632.150489
 20
581.381250
 42
-0.001302
  0
VERTEX
  8
0
 10
630.035518
 20
577.972000
 42
-0.003269
  0
VERTEX
  8
0
 10
628.470505
 20
575.500000
 42
0.001523
  0
VERTEX
  8
0
 10
626.669864
 20
572.677670
 42
0.000305
  0
VERTEX
  8
0
 10
623.478490
 20
567.634927
 42
0.000323
  0
VERTEX
  8
0
 10
619.771773
 20
561.761577
 42
0.000301
  0
VERTEX
  8
0
 10
615.986128
 20
555.746561
 42
-0.004340
  0
VERTEX
  8
0
 10
611.420040
 20
548.619853
 42
-0.018402
  0
VERTEX
  8
0
 10
608.496249
 20
544.483319
 42
-0.024239
  0
VERTEX
  8
0
 10
606.458814
 20
542.067128
 42
-0.397818
  0
VERTEX
  8
0
 10
605.494214
 20
542.004802
 42
-0.067481
  0
VERTEX
  8
0
 10
604.726806
 20
542.839679
 42
-0.001803
  0
VERTEX
  8
0
 10
601.875685
 20
546.963193
 42
-0.003735
  0
VERTEX
  8
0
 10
598.573113
 20
551.854574
 42
-0.002545
  0
VERTEX
  8
0
 10
594.887606
 20
557.463771
 42
0.006550
  0
VERTEX
  8
0
 10
591.176007
 20
563.015289
 42
0.010892
  0
VERTEX
  8
0
 10
587.887112
 20
567.581453
 42
0.004877
  0
VERTEX
  8
0
 10
585.036392
 20
571.287037
 42
0.317775
  0
VERTEX
  8
0
 10
584.300928
 20
571.506457
 42
-0.100530
  0
VERTEX
  8
0
 10
583.869778
 20
571.452261
 42
-0.230638
  0
VERTEX
  8
0
 10
583.594284
 20
571.613193
 42
-0.178618
  0
VERTEX
  8
0
 10
583.508016
 20
571.973113
 42
-0.062117
  0
VERTEX
  8
0
 10
583.638048
 20
572.499152
 42
0.182631
  0
VERTEX
  8
0
 10
583.645906
 20
574.031590
 42
0.029620
  0
VERTEX
  8
0
 10
582.422761
 20
576.804931
 42
0.027712
  0
VERTEX
  8
0
 10
580.902346
 20
579.399827
 42
0.251453
  0
VERTEX
  8
0
 10
579.784392
 20
580.000000
 42
-0.129331
  0
VERTEX
  8
0
 10
579.485259
 20
580.078691
 42
-0.100701
  0
VERTEX
  8
0
 10
579.230415
 20
580.300048
 42
-0.088879
  0
VERTEX
  8
0
 10
579.059041
 20
580.631177
 42
-0.075215
  0
VERTEX
  8
0
 10
579.000000
 20
581.021440
 42
0.138947
  0
VERTEX
  8
0
 10
578.503695
 20
582.772908
 42
0.017396
  0
VERTEX
  8
0
 10
576.295625
 20
586.091916
 42
0.012554
  0
VERTEX
  8
0
 10
573.867073
 20
589.306907
 42
0.379925
  0
VERTEX
  8
0
 10
572.947067
 20
589.467285
 42
-0.143279
  0
VERTEX
  8
0
 10
572.582838
 20
589.366892
 42
-0.099575
  0
VERTEX
  8
0
 10
572.163243
 20
589.458153
 42
-0.084119
  0
VERTEX
  8
0
 10
571.751719
 20
589.728065
 42
-0.067321
  0
VERTEX
  8
0
 10
571.414590
 20
590.138197
 42
-0.027620
  0
VERTEX
  8
0
 10
571.158708
 20
590.608429
 42
-0.309012
  0
VERTEX
  8
0
 10
571.190180
 20
590.808164
 42
-0.323892
  0
VERTEX
  8
0
 10
571.383813
 20
590.845132
 42
-0.028948
  0
VERTEX
  8
0
 10
571.845492
 20
590.595492
 42
0.172684
  0
VERTEX
  8
0
 10
572.620105
 20
590.429110
 42
0.450647
  0
VERTEX
  8
0
 10
572.900557
 20
590.844733
 42
0.083765
  0
VERTEX
  8
0
 10
572.322990
 20
592.136924
 42
0.021267
  0
VERTEX
  8
0
 10
570.964606
 20
594.000000
 42
0.004863
  0
VERTEX
  8
0
 10
569.887304
 20
595.326092
 42
0.127426
  0
VERTEX
  8
0
 10
569.517998
 20
595.592728
 42
0.616823
  0
VERTEX
  8
0
 10
569.378696
 20
595.467170
 42
0.018117
  0
VERTEX
  8
0
 10
569.682521
 20
594.500000
 42
-0.038399
  0
VERTEX
  8
0
 10
569.919602
 20
593.622390
 42
-0.591976
  0
VERTEX
  8
0
 10
569.728163
 20
593.464747
 42
-0.104445
  0
VERTEX
  8
0
 10
569.194919
 20
593.820431
 42
-0.006175
  0
VERTEX
  8
0
 10
567.846082
 20
595.233736
 42
0.027671
  0
VERTEX
  8
0
 10
566.812070
 20
596.227902
 42
0.043242
  0
VERTEX
  8
0
 10
565.810621
 20
596.948902
 42
0.053223
  0
VERTEX
  8
0
 10
564.973024
 20
597.334277
 42
0.271671
  0
VERTEX
  8
0
 10
564.491073
 20
597.233736
 42
-0.156294
  0
VERTEX
  8
0
 10
564.246538
 20
597.122732
 42
-0.396109
  0
VERTEX
  8
0
 10
564.103398
 20
597.228918
 42
-0.106524
  0
VERTEX
  8
0
 10
564.116609
 20
597.617351
 42
-0.024565
  0
VERTEX
  8
0
 10
564.308398
 20
598.247687
 42
0.199858
  0
VERTEX
  8
0
 10
564.208637
 20
600.239965
 42
0.024376
  0
VERTEX
  8
0
 10
562.093431
 20
604.174311
 42
0.028408
  0
VERTEX
  8
0
 10
559.524200
 20
607.939140
 42
0.101586
  0
VERTEX
  8
0
 10
557.330585
 20
609.834871
 42
-0.016462
  0
VERTEX
  8
0
 10
556.452814
 20
610.364771
 42
-0.264712
  0
VERTEX
  8
0
 10
556.299620
 20
610.661055
 42
-0.280027
  0
VERTEX
  8
0
 10
556.479604
 20
610.931954
 42
-0.017975
  0
VERTEX
  8
0
 10
557.390542
 20
611.319623
 42
-0.054214
  0
VERTEX
  8
0
 10
558.006910
 20
611.482328
 42
-0.097596
  0
VERTEX
  8
0
 10
558.527222
 20
611.458995
 42
-0.145647
  0
VERTEX
  8
0
 10
558.868405
 20
611.259708
 42
-0.190476
  0
VERTEX
  8
0
 10
559.000000
 20
610.926802
 42
0.121681
  0
VERTEX
  8
0
 10
559.130222
 20
610.399629
 42
0.024715
  0
VERTEX
  8
0
 10
559.623752
 20
609.564532
 42
0.024710
  0
VERTEX
  8
0
 10
560.310531
 20
608.627710
 42
0.020959
  0
VERTEX
  8
0
 10
561.123409
 20
607.708187
 42
0.000000
  0
VERTEX
  8
0
 10
563.246819
 20
605.500000
 42
0.000000
  0
VERTEX
  8
0
 10
561.967520
 20
608.000000
 42
0.013150
  0
VERTEX
  8
0
 10
561.328998
 20
609.170820
 42
0.006233
  0
VERTEX
  8
0
 10
560.448133
 20
610.646875
 42
0.006173
  0
VERTEX
  8
0
 10
559.487861
 20
612.168865
 42
0.008693
  0
VERTEX
  8
0
 10
558.591600
 20
613.500000
 42
-0.005114
  0
VERTEX
  8
0
 10
557.706074
 20
614.795085
 42
-0.004104
  0
VERTEX
  8
0
 10
556.778885
 20
616.206250
 42
-0.004149
  0
VERTEX
  8
0
 10
555.943150
 20
617.525150
 42
-0.010543
  0
VERTEX
  8
0
 10
555.364848
 20
618.500000
 42
0.069054
  0
VERTEX
  8
0
 10
554.789245
 20
619.253681
 42
0.065764
  0
VERTEX
  8
0
 10
554.021324
 20
619.836660
 42
0.069610
  0
VERTEX
  8
0
 10
553.174391
 20
620.173960
 42
0.099064
  0
VERTEX
  8
0
 10
552.367359
 20
620.208302
 42
-0.008584
  0
VERTEX
  8
0
 10
551.369484
 20
620.069929
 42
-0.287064
  0
VERTEX
  8
0
 10
551.160545
 20
620.167903
 42
-0.395464
  0
VERTEX
  8
0
 10
551.195400
 20
620.359498
 42
-0.011397
  0
VERTEX
  8
0
 10
551.933346
 20
620.880633
 42
0.287673
  0
VERTEX
  8
0
 10
552.360140
 20
621.840215
 42
0.071456
  0
VERTEX
  8
0
 10
551.855371
 20
623.567004
 42
0.031300
  0
VERTEX
  8
0
 10
550.332672
 20
626.424237
 42
0.005256
  0
VERTEX
  8
0
 10
547.022364
 20
631.672331
 42
-0.000502
  0
VERTEX
  8
0
 10
539.815953
 20
642.860045
 42
-0.003548
  0
VERTEX
  8
0
 10
536.357778
 20
648.325480
 42
-0.002789
  0
VERTEX
  8
0
 10
534.216669
 20
651.806237
 42
-0.137326
  0
VERTEX
  8
0
 10
534.000000
 20
652.580245
 42
0.124125
  0
VERTEX
  8
0
 10
533.905996
 20
652.953078
 42
0.009449
  0
VERTEX
  8
0
 10
533.392497
 20
653.864933
 42
0.012539
  0
VERTEX
  8
0
 10
532.724053
 20
654.938623
 42
0.009213
  0
VERTEX
  8
0
 10
531.931906
 20
656.095630
 42
-0.021833
  0
VERTEX
  8
0
 10
531.209019
 20
657.210831
 42
-0.045484
  0
VERTEX
  8
0
 10
530.767731
 20
658.146841
 42
-0.082337
  0
VERTEX
  8
0
 10
530.650375
 20
658.772754
 42
-0.420390
  0
VERTEX
  8
0
 10
530.872889
 20
659.000000
 42
-0.100813
  0
VERTEX
  8
0
 10
531.317056
 20
658.909525
 42
-0.051137
  0
VERTEX
  8
0
 10
531.818700
 20
658.632813
 42
-0.047864
  0
VERTEX
  8
0
 10
532.297248
 20
658.228165
 42
-0.051919
  0
SEQEND
  0
POLYLINE
  8
0
 66
1
 70
1
  0
VERTEX
  8
0
 10
557.000000
 20
613.881966
 42
-0.117858
  0
VERTEX
  8
0
 10
556.920761
 20
613.550471
 42
-0.186277
  0
VERTEX
  8
0
 10
556.706250
 20
613.357263
 42
-0.154201
  0
VERTEX
  8
0
 10
556.382383
 20
613.338175
 42
-0.076764
  0
VERTEX
  8
0
 10
556.000000
 20
613.500000
 42
-0.064269
  0
VERTEX
  8
0
 10
555.617474
 20
613.810561
 42
-0.051777
  0
VERTEX
  8
0
 10
555.293750
 20
614.230237
 42
-0.053414
  0
VERTEX
  8
0
 10
555.073533
 20
614.689814
 42
-0.085235
  0
VERTEX
  8
0
 10
555.000000
 20
615.118034
 42
-0.117858
  0
VERTEX
  8
0
 10
555.079239
 20
615.449529
 42
-0.186277
  0
VERTEX
  8
0
 10
555.293750
 20
615.642737
 42
-0.154201
  0
VERTEX
  8
0
 10
555.617617
 20
615.661825
 42
-0.076764
  0
VERTEX
  8
0
 10
556.000000
 20
615.500000
 42
-0.064269
  0
VERTEX
  8
0
 10
556.382526
 20
615.189439
 42
-0.051777
  0
VERTEX
  8
0
 10
556.706250
 20
614.769763
 42
-0.053414
  0
VERTEX
  8
0
 10
556.926467
 20
614.310186
 42
-0.085235
  0
SEQEND
  0
POLYLINE
  8
0
 66
1
 70
1
  0
VERTEX
  8
0
 10
576.408043
 20
584.500000
 42
-0.019913
  0
VERTEX
  8
0
 10
576.982370
 20
583.542353
 42
-0.040862
  0
VERTEX
  8
0
 10
577.337841
 20
582.743606
 42
-0.069607
  0
VERTEX
  8
0
 10
577.445509
 20
582.207089
 42
-0.443722
  0
VERTEX
  8
0
 10
577.273053
 20
582.031425
 42
-0.209135
  0
VERTEX
  8
0
 10
576.263145
 20
582.522952
 42
-0.025169
  0
VERTEX
  8
0
 10
574.718606
 20
584.532969
 42
-0.030408
  0
VERTEX
  8
0
 10
573.532324
 20
586.493877
 42
-0.563984
  0
VERTEX
  8
0
 10
573.838305
 20
587.000000
 42
-0.162678
  0
VERTEX
  8
0
 10
574.300572
 20
586.845511
 42
-0.031656
  0
VERTEX
  8
0
 10
574.977482
 20
586.265625
 42
-0.030634
  0
VERTEX
  8
0
 10
575.712585
 20
585.457156
 42
-0.024159
  0
SEQEND
  0
POLYLINE
  8
0
 66
1
 70
1
  0
VERTEX
  8
0
 10
586.767927
 20
568.000000
 42
-0.011969
  0
VERTEX
  8
0
 10
587.222040
 20
567.232556
 42
-0.022348
  0
VERTEX
  8
0
 10
587.546211
 20
566.587500
 42
-0.022521
  0
VERTEX
  8
0
 10
587.737291
 20
566.103430
 42
-0.514817
  0
VERTEX
  8
0
 10
587.663461
 20
566.000000
 42
-0.179787
  0
VERTEX
  8
0
 10
587.452220
 20
566.078494
 42
-0.008653
  0
VERTEX
  8
0
 10
586.882132
 20
566.587500
 42
-0.013215
  0
VERTEX
  8
0
 10
586.219155
 20
567.233703
 42
-0.009055
  0
VERTEX
  8
0
 10
585.500000
 20
568.000000
 42
-0.023783
  0
VERTEX
  8
0
 10
584.868220
 20
568.768598
 42
-0.054918
  0
VERTEX
  8
0
 10
584.490322
 20
569.412500
 42
-0.123621
  0
VERTEX
  8
0
 10
584.417273
 20
569.825646
 42
-0.393570
  0
VERTEX
  8
0
 10
584.604466
 20
570.000000
 42
-0.148421
  0
VERTEX
  8
0
 10
585.039765
 20
569.867874
 42
-0.039214
  0
VERTEX
  8
0
 10
585.617189
 20
569.412500
 42
-0.036238
  0
VERTEX
  8
0
 10
586.222576
 20
568.765514
 42
-0.030385
  0
SEQEND
  0
POLYLINE
  8
0
 66
1
 70
1
  0
VERTEX
  8
0
 10
526.447026
 20
746.941464
 42
0.180637
  0
VERTEX
  8
0
 10
525.398078
 20
744.301030
 42
0.236988
  0
VERTEX
  8
0
 10
526.497756
 20
741.993163
 42
0.200483
  0
VERTEX
  8
0
 10
529.229423
 20
741.251771
 42
0.152380
  0
VERTEX
  8
0
 10
532.074404
 20
742.567335
 42
0.042931
  0
VERTEX
  8
0
 10
533.464262
 20
744.060970
 42
0.158506
  0
VERTEX
  8
0
 10
533.899560
 20
745.256374
 42
0.181473
  0
VERTEX
  8
0
 10
533.522693
 20
746.377751
 42
0.059630
  0
VERTEX
  8
0
 10
532.250000
 20
747.607954
 42
0.049801
  0
VERTEX
  8
0
 10
530.575501
 20
748.634103
 42
0.142099
  0
VERTEX
  8
0
 10
529.241250
 20
748.860331
 42
0.136538
  0
VERTEX
  8
0
 10
527.959628
 20
748.339871
 42
0.044551
  0
SEQEND
  0
POLYLINE
  8
0
 66
1
 70
1
  0
VERTEX
  8
0
 10
682.000000
 20
744.000000
 42
-0.182536
  0
VERTEX
  8
0
 10
681.855843
 20
743.618285
 42
-0.090900
  0
VERTEX
  8
0
 10
681.443928
 20
743.293750
 42
-0.070807
  0
VERTEX
  8
0
 10
680.831332
 20
743.073863
 42
-0.050854
  0
VERTEX
  8
0
 10
680.106989
 20
743.000000
 42
0.132691
  0
VERTEX
  8
0
 10
678.807308
 20
742.648905
 42
0.122710
  0
VERTEX
  8
0
 10
677.815617
 20
741.683667
 42
0.091789
  0
VERTEX
  8
0
 10
677.200484
 20
740.105452
 42
0.047182
  0
VERTEX
  8
0
 10
677.000000
 20
737.985600
 42
0.184877
  0
VERTEX
  8
0
 10
677.556056
 20
736.533148
 42
0.126222
  0
VERTEX
  8
0
 10
679.042229
 20
735.541449
 42
0.115917
  0
VERTEX
  8
0
 10
680.930292
 20
735.339589
 42
0.143072
  0
VERTEX
  8
0
 10
682.547988
 20
736.039826
 42
0.110987
  0
VERTEX
  8
0
 10
683.506677
 20
737.282758
 42
0.086452
  0
VERTEX
  8
0
 10
683.952271
 20
738.934778
 42
0.095734
  0
VERTEX
  8
0
 10
683.796255
 20
740.491224
 42
0.183631
  0
VERTEX
  8
0
 10
683.043674
 20
741.473008
 42
-0.126981
  0
VERTEX
  8
0
 10
682.720854
 20
741.809536
 42
-0.081026
  0
VERTEX
  8
0
 10
682.533742
 20
742.321649
 42
-0.072258
  0
VERTEX
  8
0
 10
682.506898
 20
742.926665
 42
-0.066719
  0
VERTEX
  8
0
 10
682.650663
 20
743.532025
 42
0.034613
  0
VERTEX
  8
0
 10
682.823072
 20
744.094938
 42
0.064528
  0
VERTEX
  8
0
 10
682.870201
 20
744.568782
 42
0.105699
  0
VERTEX
  8
0
 10
682.793104
 20
744.883338
 42
0.287506
  0
VERTEX
  8
0
 10
682.606989
 20
745.000000
 42
0.161605
  0
VERTEX
  8
0
 10
682.375461
 20
744.923161
 42
0.096390
  0
VERTEX
  8
0
 10
682.178303
 20
744.706250
 42
0.077822
  0
VERTEX
  8
0
 10
682.045123
 20
744.382448
 42
0.058788
  0
SEQEND
  0
POLYLINE
  8
0
 66
1
 70
1
  0
VERTEX
  8
0
 10
436.500000
 20
740.691193
 42
0.006768
  0
VERTEX
  8
0
 10
435.697634
 20
740.198472
 42
0.007629
  0
VERTEX
  8
0
 10
434.940625
 20
739.703038
 42
0.007058
  0
VERTEX
  8
0
 10
434.309950
 20
739.263299
 42
0.040623
  0
VERTEX
  8
0
 10
434.000000
 20
739.000000
 42
-0.030544
  0
VERTEX
  8
0
 10
433.619020
 20
738.662925
 42
-0.000852
  0
VERTEX
  8
0
 10
431.884375
 20
737.312329
 42
-0.001744
  0
VERTEX
  8
0
 10
429.835251
 20
735.733902
 42
-0.001197
  0
VERTEX
  8
0
 10
427.500000
 20
733.956863
 42
-0.044855
  0
VERTEX
  8
0
 10
421.321218
 20
730.096516
 42
-0.029379
  0
VERTEX
  8
0
 10
413.615474
 20
726.746935
 42
-0.028054
  0
VERTEX
  8
0
 10
405.091914
 20
724.154946
 42
-0.029074
  0
VERTEX
  8
0
 10
396.432480
 20
722.570376
 42
0.058015
  0
VERTEX
  8
0
 10
395.216126
 20
722.274320
 42
0.007541
  0
VERTEX
  8
0
 10
392.721665
 20
721.307571
 42
0.008702
  0
VERTEX
  8
0
 10
389.788295
 20
720.059675
 42
0.007173
  0
VERTEX
  8
0
 10
386.703245
 20
718.629952
 42
0.051656
  0
VERTEX
  8
0
 10
378.140034
 20
713.361679
 42
0.039542
  0
VERTEX
  8
0
 10
369.970998
 20
705.994971
 42
0.039665
  0
VERTEX
  8
0
 10
363.792744
 20
698.333975
 42
0.150976
  0
VERTEX
  8
0
 10
362.000000
 20
692.532119
 42
0.331175
  0
VERTEX
  8
0
 10
362.963471
 20
691.237030
 42
0.109459
  0
VERTEX
  8
0
 10
365.475214
 20
691.052032
 42
0.067522
  0
VERTEX
  8
0
 10
368.996941
 20
692.062315
 42
0.047142
  0
VERTEX
  8
0
 10
372.611226
 20
694.076526
 42
-0.084641
  0
VERTEX
  8
0
 10
379.044903
 20
697.056468
 42
-0.075918
  0
VERTEX
  8
0
 10
386.355723
 20
697.888603
 42
-0.086315
  0
VERTEX
  8
0
 10
392.716312
 20
696.530140
 42
-0.179868
  0
VERTEX
  8
0
 10
396.410652
 20
693.166708
 42
-0.048147
  0
VERTEX
  8
0
 10
398.282097
 20
688.482583
 42
-0.023675
  0
VERTEX
  8
0
 10
399.787514
 20
682.237392
 42
-0.023603
  0
VERTEX
  8
0
 10
400.716156
 20
675.741728
 42
-0.039619
  0
VERTEX
  8
0
 10
400.802130
 20
670.233446
 42
-0.015682
  0
VERTEX
  8
0
 10
400.405905
 20
666.073050
 42
-0.084217
  0
VERTEX
  8
0
 10
399.747965
 20
663.902758
 42
-0.078672
  0
VERTEX
  8
0
 10
398.394095
 20
662.003971
 42
-0.012721
  0
VERTEX
  8
0
 10
395.122572
 20
658.838490
 42
-0.031384
  0
VERTEX
  8
0
 10
390.866797
 20
655.391801
 42
-0.120447
  0
VERTEX
  8
0
 10
387.723157
 20
654.142553
 42
-0.165798
  0
VERTEX
  8
0
 10
384.938772
 20
654.678312
 42
-0.075326
  0
VERTEX
  8
0
 10
381.992463
 20
657.008069
 42
-0.072365
  0
VERTEX
  8
0
 10
379.182131
 20
661.055866
 42
-0.039972
  0
VERTEX
  8
0
 10
376.930329
 20
666.652973
 42
-0.041188
  0
VERTEX
  8
0
 10
375.814134
 20
671.638135
 42
-0.455218
  0
VERTEX
  8
0
 10
377.000000
 20
673.000000
 42
0.277684
  0
VERTEX
  8
0
 10
377.385692
 20
673.232098
 42
0.052312
  0
VERTEX
  8
0
 10
377.706250
 20
674.028125
 42
0.042582
  0
VERTEX
  8
0
 10
377.927458
 20
675.158889
 42
0.027026
  0
VERTEX
  8
0
 10
378.000000
 20
676.500000
 42
0.030829
  0
VERTEX
  8
0
 10
377.849684
 20
678.935618
 42
0.265779
  0
VERTEX
  8
0
 10
377.221315
 20
679.774630
 42
0.206012
  0
VERTEX
  8
0
 10
376.046582
 20
679.777086
 42
0.019122
  0
VERTEX
  8
0
 10
373.364307
 20
678.506161
 42
-0.027534
  0
VERTEX
  8
0
 10
372.101765
 20
677.933732
 42
-0.021519
  0
VERTEX
  8
0
 10
370.676333
 20
677.449327
 42
-0.021980
  0
VERTEX
  8
0
 10
369.306495
 20
677.113230
 42
-0.048520
  0
VERTEX
  8
0
 10
368.235976
 20
677.006161
 42
0.108028
  0
VERTEX
  8
0
 10
365.569108
 20
676.415554
 42
0.046687
  0
VERTEX
  8
0
 10
362.407283
 20
674.577946
 42
0.042467
  0
VERTEX
  8
0
 10
359.222297
 20
671.869800
 42
0.039304
  0
VERTEX
  8
0
 10
356.449423
 20
668.595613
 42
0.027489
  0
VERTEX
  8
0
 10
354.872275
 20
666.130445
 42
0.060898
  0
VERTEX
  8
0
 10
354.019948
 20
664.071826
 42
0.052072
  0
VERTEX
  8
0
 10
353.616163
 20
661.674194
 42
0.015700
  0
VERTEX
  8
0
 10
353.500000
 20
657.975553
 42
0.014578
  0
VERTEX
  8
0
 10
353.601112
 20
654.508239
 42
0.044279
  0
VERTEX
  8
0
 10
353.945818
 20
652.177102
 42
0.059636
  0
VERTEX
  8
0
 10
354.621594
 20
650.351001
 42
0.048275
  0
VERTEX
  8
0
 10
355.750000
 20
648.590694
 42
-0.022724
  0
VERTEX
  8
0
 10
356.611205
 20
647.387111
 42
-0.024304
  0
VERTEX
  8
0
 10
357.339063
 20
646.136376
 42
-0.024821
  0
VERTEX
  8
0
 10
357.855032
 20
645.007779
 42
-0.095079
  0
VERTEX
  8
0
 10
358.000000
 20
644.252318
 42
0.182311
  0
VERTEX
  8
0
 10
358.360745
 20
643.295838
 42
0.003135
  0
VERTEX
  8
0
 10
362.136983
 20
639.055709
 42
0.007523
  0
VERTEX
  8
0
 10
366.685686
 20
634.162349
 42
0.004883
  0
VERTEX
  8
0
 10
372.083346
 20
628.637176
 42
-0.005809
  0
VERTEX
  8
0
 10
377.616601
 20
622.952176
 42
-0.007345
  0
VERTEX
  8
0
 10
382.592726
 20
617.562935
 42
-0.005952
  0
VERTEX
  8
0
 10
386.633231
 20
612.946514
 42
-0.057621
  0
VERTEX
  8
0
 10
388.083346
 20
610.789838
 42
-0.055588
  0
VERTEX
  8
0
 10
389.293606
 20
607.629970
 42
-0.041344
  0
VERTEX
  8
0
 10
389.933769
 20
603.946459
 42
-0.041849
  0
VERTEX
  8
0
 10
389.951775
 20
600.833332
 42
-0.391587
  0
VERTEX
  8
0
 10
389.050891
 20
600.000000
 42
-0.222312
  0
VERTEX
  8
0
 10
387.429694
 20
600.758301
 42
-0.033273
  0
VERTEX
  8
0
 10
385.256085
 20
603.744133
 42
-0.034706
  0
VERTEX
  8
0
 10
383.488308
 20
607.031815
 42
-0.171590
  0
VERTEX
  8
0
 10
383.314446
 20
609.094443
 42
0.057390
  0
VERTEX
  8
0
 10
383.620150
 20
611.246242
 42
0.145028
  0
VERTEX
  8
0
 10
383.215330
 20
612.758397
 42
0.208381
  0
VERTEX
  8
0
 10
382.184600
 20
613.479237
 42
0.127366
  0
VERTEX
  8
0
 10
380.678215
 20
613.397869
 42
0.070155
  0
VERTEX
  8
0
 10
378.457962
 20
612.332446
 42
0.102745
  0
VERTEX
  8
0
 10
376.941000
 20
610.794517
 42
0.082278
  0
VERTEX
  8
0
 10
375.951415
 20
608.515051
 42
0.031888
  0
VERTEX
  8
0
 10
375.327697
 20
605.119073
 42
0.039016
  0
VERTEX
  8
0
 10
375.084443
 20
599.024849
 42
0.093900
  0
VERTEX
  8
0
 10
376.089362
 20
594.641213
 42
0.073319
  0
VERTEX
  8
0
 10
378.804521
 20
590.300610
 42
0.017303
  0
VERTEX
  8
0
 10
384.585947
 20
583.968333
 42
-0.017185
  0
VERTEX
  8
0
 10
390.452485
 20
577.545878
 42
-0.093238
  0
VERTEX
  8
0
 10
392.785707
 20
573.469758
 42
-0.169150
  0
VERTEX
  8
0
 10
392.781685
 20
570.058347
 42
-0.093788
  0
VERTEX
  8
0
 10
390.677288
 20
566.411213
 42
-0.119787
  0
VERTEX
  8
0
 10
388.016295
 20
564.503489
 42
-0.141976
  0
VERTEX
  8
0
 10
384.948929
 20
564.191117
 42
-0.124184
  0
VERTEX
  8
0
 10
381.880087
 20
565.589957
 42
-0.080508
  0
VERTEX
  8
0
 10
379.250000
 20
568.497476
 42
-0.010868
  0
VERTEX
  8
0
 10
378.388362
 20
569.893624
 42
-0.013976
  0
VERTEX
  8
0
 10
377.660937
 20
571.214933
 42
-0.011794
  0
VERTEX
  8
0
 10
377.115071
 20
572.340029
 42
-0.107443
  0
VERTEX
  8
0
 10
377.000000
 20
572.869344
 42
0.186178
  0
VERTEX
  8
0
 10
376.852102
 20
573.252773
 42
0.058258
  0
VERTEX
  8
0
 10
376.380028
 20
573.665254
 42
0.049121
  0
VERTEX
  8
0
 10
375.697314
 20
574.041405
 42
0.037428
  0
VERTEX
  8
0
 10
374.889458
 20
574.318656
 42
0.054712
  0
VERTEX
  8
0
 10
373.878431
 20
574.467802
 42
0.131622
  0
VERTEX
  8
0
 10
373.146587
 20
574.300616
 42
0.141228
  0
VERTEX
  8
0
 10
372.628218
 20
573.801048
 42
0.066972
  0
VERTEX
  8
0
 10
372.272826
 20
572.935288
 42
-0.036519
  0
VERTEX
  8
0
 10
372.020086
 20
572.194478
 42
-0.048273
  0
VERTEX
  8
0
 10
371.679519
 20
571.568491
 42
-0.057169
  0
VERTEX
  8
0
 10
371.307623
 20
571.134894
 42
-0.189116
  0
VERTEX
  8
0
 10
370.963735
 20
571.000000
 42
0.267265
  0
VERTEX
  8
0
 10
370.572525
 20
570.774800
 42
0.016628
  0
VERTEX
  8
0
 10
369.915560
 20
569.551677
 42
0.021013
  0
VERTEX
  8
0
 10
369.208833
 20
567.958991
 42
0.013733
  0
VERTEX
  8
0
 10
368.523097
 20
566.069540
 42
0.062320
  0
VERTEX
  8
0
 10
367.569876
 20
561.273713
 42
0.085491
  0
VERTEX
  8
0
 10
368.003134
 20
556.904716
 42
0.077834
  0
VERTEX
  8
0
 10
369.933260
 20
552.637360
 42
0.043002
  0
VERTEX
  8
0
 10
373.477253
 20
548.127772
 42
0.022526
  0
VERTEX
  8
0
 10
375.789812
 20
545.868567
 42
0.038962
  0
VERTEX
  8
0
 10
377.927143
 20
544.241058
 42
0.042900
  0
VERTEX
  8
0
 10
380.136734
 20
543.070513
 42
0.035506
  0
VERTEX
  8
0
 10
382.656929
 20
542.206048
 42
-0.002674
  0
VERTEX
  8
0
 10
384.750667
 20
541.638282
 42
-0.002035
  0
VERTEX
  8
0
 10
387.038734
 20
540.994623
 42
-0.002057
  0
VERTEX
  8
0
 10
389.179263
 20
540.373521
 42
-0.004819
  0
VERTEX
  8
0
 10
390.772805
 20
539.887278
 42
0.030017
  0
VERTEX
  8
0
 10
392.260560
 20
539.514069
 42
0.018933
  0
VERTEX
  8
0
 10
394.032212
 20
539.250105
 42
0.018999
  0
VERTEX
  8
0
 10
395.800215
 20
539.122500
 42
0.032854
  0
VERTEX
  8
0
 10
397.272805
 20
539.169091
 42
-0.023200
  0
VERTEX
  8
0
 10
399.320036
 20
539.273427
 42
-0.237115
  0
VERTEX
  8
0
 10
400.058119
 20
538.906730
 42
-0.167614
  0
VERTEX
  8
0
 10
400.346689
 20
538.011795
 42
-0.010762
  0
VERTEX
  8
0
 10
400.230510
 20
535.230096
 42
0.058331
  0
VERTEX
  8
0
 10
400.410562
 20
531.852931
 42
0.051060
  0
VERTEX
  8
0
 10
401.360235
 20
528.445700
 42
0.055211
  0
VERTEX
  8
0
 10
402.756193
 20
525.791367
 42
0.231529
  0
VERTEX
  8
0
 10
404.275680
 20
524.918781
 42
-0.357771
  0
VERTEX
  8
0
 10
404.442826
 20
524.762003
 42
-0.251875
  0
VERTEX
  8
0
 10
404.346723
 20
524.509179
 42
-0.056480
  0
VERTEX
  8
0
 10
403.759499
 20
524.106386
 42
-0.017668
  0
VERTEX
  8
0
 10
402.798270
 20
523.638443
 42
0.069111
  0
VERTEX
  8
0
 10
398.426869
 20
520.923812
 42
0.063745
  0
VERTEX
  8
0
 10
394.823050
 20
517.053515
 42
0.073186
  0
VERTEX
  8
0
 10
392.757727
 20
513.050607
 42
0.208343
  0
VERTEX
  8
0
 10
393.004833
 20
509.990969
 42
0.034387
  0
VERTEX
  8
0
 10
393.687100
 20
508.903083
 42
0.196829
  0
VERTEX
  8
0
 10
394.255049
 20
508.552352
 42
0.164658
  0
VERTEX
  8
0
 10
394.968405
 20
508.668835
 42
0.022567
  0
VERTEX
  8
0
 10
396.285184
 20
509.446339
 42
-0.065191
  0
VERTEX
  8
0
 10
397.530342
 20
510.045217
 42
-0.044757
  0
VERTEX
  8
0
 10
399.058708
 20
510.400903
 42
-0.038401
  0
VERTEX
  8
0
 10
400.863055
 20
510.513705
 42
-0.025211
  0
VERTEX
  8
0
 10
402.941661
 20
510.378949
 42
-0.047648
  0
VERTEX
  8
0
 10
408.162867
 20
509.264048
 42
-0.134036
  0
VERTEX
  8
0
 10
411.275836
 20
507.259584
 42
-0.175782
  0
VERTEX
  8
0
 10
412.457947
 20
504.335884
 42
-0.096092
  0
VERTEX
  8
0
 10
411.851927
 20
500.467056
 42
-0.019075
  0
VERTEX
  8
0
 10
411.313515
 20
499.138833
 42
-0.027837
  0
VERTEX
  8
0
 10
410.731760
 20
498.018448
 42
-0.026747
  0
VERTEX
  8
0
 10
410.179989
 20
497.190905
 42
-0.236584
  0
VERTEX
  8
0
 10
409.799112
 20
497.000000
 42
0.133893
  0
VERTEX
  8
0
 10
409.371776
 20
496.883477
 42
0.022002
  0
VERTEX
  8
0
 10
408.647239
 20
496.412500
 42
0.022849
  0
VERTEX
  8
0
 10
407.824311
 20
495.765755
 42
0.018407
  0
VERTEX
  8
0
 10
407.000000
 20
495.000000
 42
-0.069739
  0
VERTEX
  8
0
 10
405.706255
 20
494.024336
 42
-0.065551
  0
VERTEX
  8
0
 10
404.167107
 20
493.416747
 42
-0.045910
  0
VERTEX
  8
0
 10
402.083892
 20
493.094849
 42
-0.015389
  0
VERTEX
  8
0
 10
399.002881
 20
493.000000
 42
-0.016921
  0
VERTEX
  8
0
 10
395.454061
 20
493.120136
 42
-0.068568
  0
VERTEX
  8
0
 10
393.340717
 20
493.558665
 42
-0.075359
  0
VERTEX
  8
0
 10
391.525323
 20
494.531544
 42
-0.023084
  0
VERTEX
  8
0
 10
389.115748
 20
496.514393
 42
-0.030386
  0
VERTEX
  8
0
 10
386.159047
 20
499.531233
 42
-0.114012
  0
VERTEX
  8
0
 10
384.925074
 20
501.858489
 42
-0.132170
  0
VERTEX
  8
0
 10
384.930736
 20
504.294754
 42
-0.046928
  0
VERTEX
  8
0
 10
386.165009
 20
507.584583
 42
0.009449
  0
VERTEX
  8
0
 10
387.302133
 20
510.039258
 42
0.098517
  0
VERTEX
  8
0
 10
387.541783
 20
511.118458
 42
0.187711
  0
VERTEX
  8
0
 10
387.255699
 20
511.904659
 42
0.053150
  0
VERTEX
  8
0
 10
386.280445
 20
512.803247
 42
0.191253
  0
VERTEX
  8
0
 10
383.097065
 20
513.651340
 42
0.055446
  0
VERTEX
  8
0
 10
378.052880
 20
512.479030
 42
0.050738
  0
VERTEX
  8
0
 10
372.562818
 20
509.890913
 42
0.053748
  0
VERTEX
  8
0
 10
367.821229
 20
506.291547
 42
0.132303
  0
VERTEX
  8
0
 10
364.528534
 20
500.933341
 42
0.061164
  0
VERTEX
  8
0
 10
363.168653
 20
492.805217
 42
0.060515
  0
VERTEX
  8
0
 10
363.817273
 20
484.429799
 42
0.113846
  0
VERTEX
  8
0
 10
366.599346
 20
478.280863
 42
0.031444
  0
VERTEX
  8
0
 10
367.788373
 20
476.909959
 42
0.026129
  0
VERTEX
  8
0
 10
369.212556
 20
475.606379
 42
0.026918
  0
VERTEX
  8
0
 10
370.647822
 20
474.548555
 42
0.062097
  0
VERTEX
  8
0
 10
371.848266
 20
473.957848
 42
-0.015543
  0
VERTEX
  8
0
 10
373.078330
 20
473.488751
 42
-0.007811
  0
VERTEX
  8
0
 10
374.602303
 20
472.824501
 42
-0.007748
  0
VERTEX
  8
0
 10
376.158078
 20
472.087970
 42
-0.011379
  0
VERTEX
  8
0
 10
377.500000
 20
471.388652
 42
0.045731
  0
VERTEX
  8
0
 10
379.167720
 20
470.660299
 42
0.012040
  0
VERTEX
  8
0
 10
381.956539
 20
469.808937
 42
0.012121
  0
VERTEX
  8
0
 10
385.191541
 20
468.989891
 42
0.012166
  0
VERTEX
  8
0
 10
388.458430
 20
468.329700
 42
0.010534
  0
VERTEX
  8
0
 10
392.757641
 20
467.662328
 42
0.029626
  0
VERTEX
  8
0
 10
395.791977
 20
467.438289
 42
0.037688
  0
VERTEX
  8
0
 10
398.390583
 20
467.596669
 42
0.028678
  0
VERTEX
  8
0
 10
401.190613
 20
468.145491
 42
-0.016106
  0
VERTEX
  8
0
 10
404.751367
 20
468.936821
 42
-0.157076
  0
VERTEX
  8
0
 10
406.262472
 20
468.746740
 42
-0.358843
  0
VERTEX
  8
0
 10
406.696021
 20
467.837639
 42
-0.061912
  0
VERTEX
  8
0
 10
405.957378
 20
465.920359
 42
0.115173
  0
VERTEX
  8
0
 10
405.002859
 20
462.361765
 42
0.037887
  0
VERTEX
  8
0
 10
405.237442
 20
456.911404
 42
0.037716
  0
VERTEX
  8
0
 10
406.285502
 20
451.581105
 42
0.121758
  0
VERTEX
  8
0
 10
408.041047
 20
448.456308
 42
0.073841
  0
VERTEX
  8
0
 10
411.037227
 20
446.086508
 42
0.049703
  0
VERTEX
  8
0
 10
415.022590
 20
444.295019
 42
0.048192
  0
VERTEX
  8
0
 10
419.441539
 20
443.275166
 42
0.056636
  0
VERTEX
  8
0
 10
423.736018
 20
443.200613
 42
0.072498
  0
VERTEX
  8
0
 10
427.935649
 20
444.230717
 42
0.030341
  0
VERTEX
  8
0
 10
433.203934
 20
446.749273
 42
0.024323
  0
VERTEX
  8
0
 10
437.919539
 20
449.674556
 42
0.242450
  0
VERTEX
  8
0
 10
438.982033
 20
451.660794
 42
0.211182
  0
VERTEX
  8
0
 10
438.739166
 20
452.233996
 42
0.027524
  0
VERTEX
  8
0
 10
437.699095
 20
453.107806
 42
0.028174
  0
VERTEX
  8
0
 10
436.277445
 20
454.054292
 42
0.020054
  0
VERTEX
  8
0
 10
434.589356
 20
454.956743
 42
-0.034257
  0
VERTEX
  8
0
 10
431.365551
 20
456.799694
 42
-0.125510
  0
VERTEX
  8
0
 10
429.803594
 20
458.533622
 42
-0.179962
  0
VERTEX
  8
0
 10
429.561519
 20
460.422823
 42
-0.088069
  0
VERTEX
  8
0
 10
430.530205
 20
462.686442
 42
-0.069242
  0
VERTEX
  8
0
 10
432.739388
 20
465.213911
 42
-0.126869
  0
VERTEX
  8
0
 10
435.173145
 20
466.425301
 42
-0.108683
  0
VERTEX
  8
0
 10
438.157805
 20
466.404220
 42
-0.042598
  0
VERTEX
  8
0
 10
442.102144
 20
465.146295
 42
0.007351
  0
VERTEX
  8
0
 10
444.164974
 20
464.324373
 42
0.009369
  0
VERTEX
  8
0
 10
446.091452
 20
463.630474
 42
0.007620
  0
VERTEX
  8
0
 10
447.717526
 20
463.106467
 42
0.074262
  0
VERTEX
  8
0
 10
448.430405
 20
463.000000
 42
-0.193412
  0
VERTEX
  8
0
 10
450.211543
 20
462.284238
 42
-0.020963
  0
VERTEX
  8
0
 10
453.339276
 20
459.024038
 42
-0.024688
  0
VERTEX
  8
0
 10
456.182213
 20
455.460420
 42
-0.107735
  0
VERTEX
  8
0
 10
457.249744
 20
453.000000
 42
0.012888
  0
VERTEX
  8
0
 10
457.494080
 20
451.909923
 42
0.009136
  0
VERTEX
  8
0
 10
457.821851
 20
450.699979
 42
0.009230
  0
VERTEX
  8
0
 10
458.177569
 20
449.555235
 42
0.019249
  0
VERTEX
  8
0
 10
458.504955
 20
448.680779
 42
-0.037190
  0
VERTEX
  8
0
 10
458.847276
 20
447.655976
 42
-0.435660
  0
VERTEX
  8
0
 10
458.642791
 20
447.339530
 42
-0.133939
  0
VERTEX
  8
0
 10
457.998738
 20
447.398248
 42
-0.005907
  0
VERTEX
  8
0
 10
455.883552
 20
448.216280
 42
0.100928
  0
VERTEX
  8
0
 10
450.339676
 20
449.223167
 42
0.152330
  0
VERTEX
  8
0
 10
445.721764
 20
447.673094
 42
0.142959
  0
VERTEX
  8
0
 10
442.608866
 20
443.667287
 42
0.085148
  0
VERTEX
  8
0
 10
441.359710
 20
437.711386
 42
0.027080
  0
VERTEX
  8
0
 10
441.456159
 20
432.135446
 42
0.078354
  0
VERTEX
  8
0
 10
442.325649
 20
428.385307
 42
0.073084
  0
VERTEX
  8
0
 10
444.344920
 20
424.939971
 42
0.021451
  0
VERTEX
  8
0
 10
448.393859
 20
420.313563
 42
0.011741
  0
VERTEX
  8
0
 10
451.630358
 20
417.076477
 42
0.036331
  0
VERTEX
  8
0
 10
454.014079
 20
415.111593
 42
0.052873
  0
VERTEX
  8
0
 10
456.089875
 20
413.947478
 42
0.062618
  0
VERTEX
  8
0
 10
458.250000
 20
413.325439
 42
0.013656
  0
VERTEX
  8
0
 10
460.550603
 20
413.029352
 42
0.151053
  0
VERTEX
  8
0
 10
461.449443
 20
413.210762
 42
0.234947
  0
VERTEX
  8
0
 10
461.885641
 20
413.834491
 42
0.037207
  0
VERTEX
  8
0
 10
462.000000
 20
415.369158
 42
0.029216
  0
VERTEX
  8
0
 10
461.941052
 20
416.377119
 42
0.045618
  0
VERTEX
  8
0
 10
461.761640
 20
417.227190
 42
0.057425
  0
VERTEX
  8
0
 10
461.500924
 20
417.820703
 42
0.266603
  0
VERTEX
  8
0
 10
461.188561
 20
418.000000
 42
-0.132211
  0
VERTEX
  8
0
 10
460.743785
 20
418.119701
 42
-0.019157
  0
VERTEX
  8
0
 10
459.943571
 20
418.625982
 42
-0.020590
  0
VERTEX
  8
0
 10
459.025008
 20
419.315029
 42
-0.016317
  0
VERTEX
  8
0
 10
458.089762
 20
420.131001
 42
-0.113961
  0
VERTEX
  8
0
 10
456.628384
 20
422.295634
 42
-0.123629
  0
VERTEX
  8
0
 10
456.322292
 20
424.815544
 42
-0.100394
  0
VERTEX
  8
0
 10
457.258012
 20
427.590307
 42
-0.055568
  0
VERTEX
  8
0
 10
459.391181
 20
430.477084
 42
-0.127769
  0
VERTEX
  8
0
 10
463.645627
 20
433.199408
 42
-0.126752
  0
VERTEX
  8
0
 10
468.700720
 20
433.517825
 42
-0.120329
  0
VERTEX
  8
0
 10
473.480605
 20
431.332837
 42
-0.108114
  0
VERTEX
  8
0
 10
476.941086
 20
427.115480
 42
-0.077872
  0
VERTEX
  8
0
 10
478.830800
 20
421.341882
 42
-0.102222
  0
VERTEX
  8
0
 10
478.593750
 20
415.813845
 42
-0.092528
  0
VERTEX
  8
0
 10
476.117415
 20
410.430276
 42
-0.053721
  0
VERTEX
  8
0
 10
471.393601
 20
405.076752
 42
-0.009396
  0
VERTEX
  8
0
 10
469.180583
 20
403.129221
 42
-0.013156
  0
VERTEX
  8
0
 10
467.127026
 20
401.480202
 42
-0.009469
  0
VERTEX
  8
0
 10
465.371635
 20
400.196762
 42
-0.146050
  0
VERTEX
  8
0
 10
464.669413
 20
399.962232
 42
0.018002
  0
VERTEX
  8
0
 10
464.000973
 20
399.916516
 42
0.003276
  0
VERTEX
  8
0
 10
462.766673
 20
399.779144
 42
0.003523
  0
VERTEX
  8
0
 10
461.323382
 20
399.598612
 42
0.003190
  0
VERTEX
  8
0
 10
459.834154
 20
399.391992
 42
-0.031989
  0
VERTEX
  8
0
 10
458.173576
 20
399.258380
 42
-0.019496
  0
VERTEX
  8
0
 10
456.205580
 20
399.302973
 42
-0.019507
  0
VERTEX
  8
0
 10
454.250264
 20
399.500445
 42
-0.032446
  0
VERTEX
  8
0
 10
452.629345
 20
399.836675
 42
0.043286
  0
VERTEX
  8
0
 10
450.148475
 20
400.295510
 42
0.160103
  0
VERTEX
  8
0
 10
448.615079
 20
399.950766
 42
0.157775
  0
VERTEX
  8
0
 10
447.571873
 20
398.759346
 42
0.041695
  0
VERTEX
  8
0
 10
446.758510
 20
396.328233
 42
0.169973
  0
VERTEX
  8
0
 10
446.904481
 20
394.831398
 42
0.054499
  0
VERTEX
  8
0
 10
448.075162
 20
392.890888
 42
0.029716
  0
VERTEX
  8
0
 10
450.437670
 20
390.148589
 42
0.006395
  0
VERTEX
  8
0
 10
454.864078
 20
385.703917
 42
0.014500
  0
VERTEX
  8
0
 10
462.886964
 20
378.294461
 42
0.070713
  0
VERTEX
  8
0
 10
468.061752
 20
374.937427
 42
0.083778
  0
VERTEX
  8
0
 10
473.550539
 20
373.435337
 42
0.024995
  0
VERTEX
  8
0
 10
482.253574
 20
373.000000
 42
0.023702
  0
VERTEX
  8
0
 10
490.841064
 20
373.407309
 42
0.028173
  0
VERTEX
  8
0
 10
498.862912
 20
374.628899
 42
0.029933
  0
VERTEX
  8
0
 10
506.241966
 20
376.649697
 42
0.035483
  0
VERTEX
  8
0
 10
512.904004
 20
379.451355
 42
0.020798
  0
VERTEX
  8
0
 10
516.691104
 20
381.572752
 42
0.081131
  0
VERTEX
  8
0
 10
518.712730
 20
383.324895
 42
0.133035
  0
VERTEX
  8
0
 10
519.544504
 20
385.137282
 42
0.103277
  0
VERTEX
  8
0
 10
519.457194
 20
387.314532
 42
0.074268
  0
VERTEX
  8
0
 10
518.871565
 20
388.722506
 42
0.171862
  0
VERTEX
  8
0
 10
517.999063
 20
389.439632
 42
0.080184
  0
VERTEX
  8
0
 10
516.415196
 20
389.740204
 42
0.008533
  0
VERTEX
  8
0
 10
512.652944
 20
389.779524
 42
-0.067989
  0
VERTEX
  8
0
 10
504.792818
 20
390.800377
 42
-0.094048
  0
VERTEX
  8
0
 10
498.412936
 20
393.901657
 42
-0.109694
  0
VERTEX
  8
0
 10
494.280245
 20
398.687748
 42
-0.124069
  0
VERTEX
  8
0
 10
492.800000
 20
404.561333
 42
-0.151223
  0
VERTEX
  8
0
 10
494.056644
 20
408.621240
 42
-0.105903
  0
VERTEX
  8
0
 10
497.552897
 20
411.940474
 42
-0.080195
  0
VERTEX
  8
0
 10
503.065415
 20
414.195882
 42
-0.047663
  0
VERTEX
  8
0
 10
510.115130
 20
415.139501
 42
-0.061039
  0
VERTEX
  8
0
 10
513.886588
 20
414.821498
 42
-0.081609
  0
VERTEX
  8
0
 10
517.084811
 20
413.585061
 42
-0.072052
  0
VERTEX
  8
0
 10
519.998931
 20
411.249584
 42
-0.037099
  0
VERTEX
  8
0
 10
522.934799
 20
407.597900
 42
0.034582
  0
VERTEX
  8
0
 10
528.851939
 20
400.161787
 42
0.056458
  0
VERTEX
  8
0
 10
534.921416
 20
394.873429
 42
0.069774
  0
VERTEX
  8
0
 10
540.914478
 20
391.869655
 42
0.109821
  0
VERTEX
  8
0
 10
546.615119
 20
391.260086
 42
0.063417
  0
VERTEX
  8
0
 10
552.763977
 20
392.757674
 42
0.096746
  0
VERTEX
  8
0
 10
557.407996
 20
395.659280
 42
0.266127
  0
VERTEX
  8
0
 10
558.251150
 20
398.392238
 42
0.294589
  0
VERTEX
  8
0
 10
556.301813
 20
400.308637
 42
-0.122530
  0
VERTEX
  8
0
 10
553.563076
 20
401.624011
 42
-0.008978
  0
VERTEX
  8
0
 10
547.181460
 20
407.104221
 42
-0.006610
  0
VERTEX
  8
0
 10
540.825934
 20
412.915882
 42
-0.207099
  0
VERTEX
  8
0
 10
540.000000
 20
414.824417
 42
-0.379657
  0
VERTEX
  8
0
 10
540.259657
 20
415.117088
 42
-0.010976
  0
VERTEX
  8
0
 10
542.050024
 20
415.292123
 42
-0.016931
  0
VERTEX
  8
0
 10
544.302979
 20
415.386000
 42
-0.010181
  0
VERTEX
  8
0
 10
546.978804
 20
415.352346
 42
0.012799
  0
VERTEX
  8
0
 10
549.694842
 20
415.332406
 42
0.018814
  0
VERTEX
  8
0
 10
552.078022
 20
415.465715
 42
0.014469
  0
VERTEX
  8
0
 10
553.993872
 20
415.701467
 42
0.219907
  0
VERTEX
  8
0
 10
554.537821
 20
416.061196
 42
-0.143868
  0
VERTEX
  8
0
 10
554.941673
 20
416.423664
 42
-0.040909
  0
VERTEX
  8
0
 10
555.738073
 20
416.726983
 42
-0.037572
  0
VERTEX
  8
0
 10
556.736371
 20
416.936655
 42
-0.032117
  0
VERTEX
  8
0
 10
557.809017
 20
417.009384
 42
0.101838
  0
VERTEX
  8
0
 10
560.740396
 20
417.623353
 42
0.020743
  0
VERTEX
  8
0
 10
565.539188
 20
419.946868
 42
0.014941
  0
VERTEX
  8
0
 10
570.180334
 20
422.618260
 42
0.260312
  0
VERTEX
  8
0
 10
571.000000
 20
424.085970
 42
0.096179
  0
VERTEX
  8
0
 10
570.605949
 20
426.115553
 42
0.118509
  0
VERTEX
  8
0
 10
569.489482
 20
427.681240
 42
0.113459
  0
VERTEX
  8
0
 10
567.739959
 20
428.613232
 42
0.082881
  0
VERTEX
  8
0
 10
565.541182
 20
428.829712
 42
-0.032925
  0
VERTEX
  8
0
 10
564.153979
 20
428.827743
 42
-0.031878
  0
VERTEX
  8
0
 10
562.763190
 20
429.006941
 42
-0.033531
  0
VERTEX
  8
0
 10
561.562870
 20
429.324852
 42
-0.091952
  0
VERTEX
  8
0
 10
560.800429
 20
429.750666
 42
0.072246
  0
VERTEX
  8
0
 10
559.961230
 20
430.263434
 42
0.015503
  0
VERTEX
  8
0
 10
558.368905
 20
430.886980
 42
0.015888
  0
VERTEX
  8
0
 10
556.461958
 20
431.498803
 42
0.014558
  0
VERTEX
  8
0
 10
554.463889
 20
432.008093
 42
-0.025454
  0
VERTEX
  8
0
 10
551.890682
 20
432.724014
 42
-0.007225
  0
VERTEX
  8
0
 10
547.969040
 20
434.096721
 42
-0.007258
  0
VERTEX
  8
0
 10
543.578909
 20
435.777656
 42
-0.007622
  0
VERTEX
  8
0
 10
539.310896
 20
437.559190
 42
0.002205
  0
VERTEX
  8
0
 10
535.354500
 20
439.261204
 42
0.003394
  0
VERTEX
  8
0
 10
531.914791
 20
440.695512
 42
0.001141
  0
VERTEX
  8
0
 10
528.934159
 20
441.906772
 42
0.096223
  0
VERTEX
  8
0
 10
528.454208
 20
442.000000
 42
-0.097509
  0
VERTEX
  8
0
 10
527.962990
 20
442.096716
 42
-0.000625
  0
VERTEX
  8
0
 10
523.833481
 20
443.794447
 42
-0.002489
  0
VERTEX
  8
0
 10
519.118768
 20
445.767184
 42
-0.001582
  0
VERTEX
  8
0
 10
513.648096
 20
448.108757
 42
-0.006204
  0
VERTEX
  8
0
 10
504.201811
 20
452.327216
 42
-0.015333
  0
VERTEX
  8
0
 10
497.414995
 20
455.715743
 42
-0.016842
  0
VERTEX
  8
0
 10
491.230056
 20
459.318172
 42
-0.009054
  0
VERTEX
  8
0
 10
483.841052
 20
464.150809
 42
0.005670
  0
VERTEX
  8
0
 10
480.000750
 20
466.699753
 42
0.041851
  0
VERTEX
  8
0
 10
478.063147
 20
467.735683
 42
0.407022
  0
VERTEX
  8
0
 10
477.553180
 20
467.540366
 42
0.251489
  0
VERTEX
  8
0
 10
477.595492
 20
466.845492
 42
-0.028948
  0
VERTEX
  8
0
 10
477.845132
 20
466.383813
 42
-0.323892
  0
VERTEX
  8
0
 10
477.808164
 20
466.190180
 42
-0.309012
  0
VERTEX
  8
0
 10
477.608429
 20
466.158708
 42
-0.027620
  0
VERTEX
  8
0
 10
477.138197
 20
466.414590
 42
-0.070003
  0
VERTEX
  8
0
 10
476.729635
 20
466.754099
 42
-0.085846
  0
VERTEX
  8
0
 10
476.463727
 20
467.172262
 42
-0.100125
  0
VERTEX
  8
0
 10
476.378643
 20
467.601831
 42
-0.138253
  0
VERTEX
  8
0
 10
476.486262
 20
467.977771
 42
0.315817
  0
VERTEX
  8
0
 10
476.455579
 20
468.504077
 42
0.017022
  0
VERTEX
  8
0
 10
475.315912
 20
469.845986
 42
0.021520
  0
VERTEX
  8
0
 10
473.741339
 20
471.433976
 42
0.013489
  0
VERTEX
  8
0
 10
471.773443
 20
473.158673
 42
-0.012146
  0
VERTEX
  8
0
 10
464.386772
 20
479.597498
 42
-0.011601
  0
VERTEX
  8
0
 10
457.205044
 20
486.484340
 42
-0.012047
  0
VERTEX
  8
0
 10
450.683428
 20
493.358843
 42
-0.017532
  0
VERTEX
  8
0
 10
445.301216
 20
499.750000
 42
0.004795
  0
VERTEX
  8
0
 10
442.772977
 20
502.912254
 42
0.007520
  0
VERTEX
  8
0
 10
440.533103
 20
505.576563
 42
0.002831
  0
VERTEX
  8
0
 10
438.576277
 20
507.808700
 42
0.214545
  0
VERTEX
  8
0
 10
438.150972
 20
508.000000
 42
-0.238965
  0
VERTEX
  8
0
 10
437.404318
 20
508.378461
 42
-0.003763
  0
VERTEX
  8
0
 10
434.528205
 20
512.364810
 42
-0.009206
  0
VERTEX
  8
0
 10
431.298900
 20
517.094541
 42
-0.006319
  0
VERTEX
  8
0
 10
427.803945
 20
522.571045
 42
-0.016229
  0
VERTEX
  8
0
 10
426.665079
 20
524.546704
 42
-0.010504
  0
VERTEX
  8
0
 10
425.471110
 20
526.900343
 42
-0.010562
  0
VERTEX
  8
0
 10
424.400369
 20
529.251585
 42
-0.019607
  0
VERTEX
  8
0
 10
423.648330
 20
531.207909
 42
0.004708
  0
VERTEX
  8
0
 10
422.148991
 20
535.484430
 42
0.003909
  0
VERTEX
  8
0
 10
420.475387
 20
540.006818
 42
0.004012
  0
VERTEX
  8
0
 10
418.839600
 20
544.220713
 42
0.008160
  0
VERTEX
  8
0
 10
417.473866
 20
547.500000
 42
-0.015277
  0
VERTEX
  8
0
 10
415.792713
 20
551.704244
 42
-0.004312
  0
VERTEX
  8
0
 10
413.431074
 20
558.354696
 42
-0.004262
  0
VERTEX
  8
0
 10
411.189581
 20
565.027489
 42
-0.016184
  0
VERTEX
  8
0
 10
409.960808
 20
569.250000
 42
-0.001759
  0
VERTEX
  8
0
 10
408.462743
 20
575.183622
 42
-0.006608
  0
VERTEX
  8
0
 10
407.585319
 20
578.921400
 42
-0.009660
  0
VERTEX
  8
0
 10
406.990064
 20
581.887812
 42
-0.008590
  0
VERTEX
  8
0
 10
406.484015
 20
584.993256
 42
0.021258
  0
VERTEX
  8
0
 10
406.148482
 20
586.767894
 42
0.026254
  0
VERTEX
  8
0
 10
405.680369
 20
588.384413
 42
0.026196
  0
VERTEX
  8
0
 10
405.157136
 20
589.669180
 42
0.142212
  0
VERTEX
  8
0
 10
404.665421
 20
590.227943
 42
-0.017742
  0
VERTEX
  8
0
 10
404.118924
 20
590.603499
 42
-0.256249
  0
VERTEX
  8
0
 10
404.023930
 20
590.809798
 42
-0.360145
  0
VERTEX
  8
0
 10
404.155608
 20
590.947913
 42
-0.026336
  0
VERTEX
  8
0
 10
404.718615
 20
590.984687
 42
0.112548
  0
VERTEX
  8
0
 10
405.147145
 20
591.088066
 42
0.143069
  0
VERTEX
  8
0
 10
405.444855
 20
591.362689
 42
0.132917
  0
VERTEX
  8
0
 10
405.561262
 20
591.771784
 42
0.091210
  0
VERTEX
  8
0
 10
405.479675
 20
592.250000
 42
-0.061798
  0
VERTEX
  8
0
 10
404.847872
 20
594.979619
 42
-0.001350
  0
VERTEX
  8
0
 10
403.467555
 20
608.556672
 42
-0.002767
  0
VERTEX
  8
0
 10
402.264649
 20
621.442175
 42
-0.021297
  0
VERTEX
  8
0
 10
401.992088
 20
627.500000
 42
-0.042883
  0
VERTEX
  8
0
 10
402.638346
 20
635.236832
 42
-0.009911
  0
VERTEX
  8
0
 10
405.095215
 20
648.089932
 42
-0.010580
  0
VERTEX
  8
0
 10
408.392032
 20
662.179564
 42
-0.013518
  0
VERTEX
  8
0
 10
412.051508
 20
675.000000
 42
-0.010270
  0
VERTEX
  8
0
 10
413.044229
 20
677.940185
 42
-0.002619
  0
VERTEX
  8
0
 10
414.775288
 20
682.661930
 42
-0.002668
  0
VERTEX
  8
0
 10
416.809068
 20
688.032977
 42
-0.002701
  0
VERTEX
  8
0
 10
418.891761
 20
693.359760
 42
0.002892
  0
VERTEX
  8
0
 10
420.849225
 20
698.371906
 42
0.004302
  0
VERTEX
  8
0
 10
422.499455
 20
702.783670
 42
0.001941
  0
VERTEX
  8
0
 10
423.857735
 20
706.557879
 42
0.085601
  0
VERTEX
  8
0
 10
424.000000
 20
707.382768
 42
-0.119282
  0
VERTEX
  8
0
 10
424.301579
 20
708.628925
 42
-0.003609
  0
VERTEX
  8
0
 10
426.789697
 20
713.383730
 42
-0.004255
  0
VERTEX
  8
0
 10
430.746917
 20
720.664911
 42
-0.000753
  0
VERTEX
  8
0
 10
438.300616
 20
734.237713
 42
0.021163
  0
VERTEX
  8
0
 10
439.271153
 20
736.162480
 42
0.026381
  0
VERTEX
  8
0
 10
439.998916
 20
738.027957
 42
0.026270
  0
VERTEX
  8
0
 10
440.432814
 20
739.616211
 42
0.146169
  0
VERTEX
  8
0
 10
440.366341
 20
740.487713
 42
0.063976
  0
VERTEX
  8
0
 10
439.816896
 20
741.507516
 42
0.227890
  0
VERTEX
  8
0
 10
439.183682
 20
741.854024
 42
0.130869
  0
VERTEX
  8
0
 10
438.262520
 20
741.659920
 42
0.017311
  0
SEQEND
  0
POLYLINE
  8
0
 66
1
 70
1
  0
VERTEX
  8
0
 10
505.333992
 20
722.764258
 42
0.059132
  0
VERTEX
  8
0
 10
503.350203
 20
721.267224
 42
0.029583
  0
VERTEX
  8
0
 10
501.211493
 20
718.957906
 42
0.026552
  0
VERTEX
  8
0
 10
499.453002
 20
716.570350
 42
0.146466
  0
VERTEX
  8
0
 10
499.000000
 20
715.057087
 42
0.159607
  0
VERTEX
  8
0
 10
499.931585
 20
712.213067
 42
0.061469
  0
VERTEX
  8
0
 10
502.816352
 20
709.152721
 42
0.062084
  0
VERTEX
  8
0
 10
506.283334
 20
706.939626
 42
0.192796
  0
VERTEX
  8
0
 10
509.000000
 20
706.767693
 42
0.074589
  0
VERTEX
  8
0
 10
510.899055
 20
707.724280
 42
0.051687
  0
VERTEX
  8
0
 10
512.711503
 20
709.310079
 42
0.047339
  0
VERTEX
  8
0
 10
514.312613
 20
711.398376
 42
0.040953
  0
VERTEX
  8
0
 10
515.582554
 20
713.851822
 42
0.027393
  0
VERTEX
  8
0
 10
516.612671
 20
716.754621
 42
0.071473
  0
VERTEX
  8
0
 10
516.928725
 20
718.941469
 42
0.104061
  0
VERTEX
  8
0
 10
516.578249
 20
720.614091
 42
0.116561
  0
VERTEX
  8
0
 10
515.589230
 20
721.925946
 42
0.104359
  0
VERTEX
  8
0
 10
513.534503
 20
723.008120
 42
0.048847
  0
VERTEX
  8
0
 10
510.562142
 20
723.546479
 42
0.048843
  0
VERTEX
  8
0
 10
507.540782
 20
723.497998
 42
0.104043
  0
SEQEND
  0
POLYLINE
  8
0
 66
1
 70
1
  0
VERTEX
  8
0
 10
693.038955
 20
717.811439
 42
0.096100
  0
VERTEX
  8
0
 10
691.431675
 20
715.238721
 42
0.116592
  0
VERTEX
  8
0
 10
691.050799
 20
712.427515
 42
0.107850
  0
VERTEX
  8
0
 10
691.971193
 20
709.577187
 42
0.073187
  0
VERTEX
  8
0
 10
694.105755
 20
706.901210
 42
0.034888
  0
VERTEX
  8
0
 10
695.474201
 20
705.790945
 42
0.032475
  0
VERTEX
  8
0
 10
697.015857
 20
704.852230
 42
0.034095
  0
VERTEX
  8
0
 10
698.497714
 20
704.201381
 42
0.086636
  0
VERTEX
  8
0
 10
699.651210
 20
704.000000
 42
0.128140
  0
VERTEX
  8
0
 10
702.193647
 20
704.662453
 42
0.079673
  0
VERTEX
  8
0
 10
704.625818
 20
706.584569
 42
0.077632
  0
VERTEX
  8
0
 10
706.391124
 20
709.232301
 42
0.108697
  0
VERTEX
  8
0
 10
707.000000
 20
712.000000
 42
0.160389
  0
VERTEX
  8
0
 10
705.569795
 20
716.343857
 42
0.135880
  0
VERTEX
  8
0
 10
701.748600
 20
719.337475
 42
0.138385
  0
VERTEX
  8
0
 10
696.988128
 20
719.908695
 42
0.167842
  0
SEQEND
  0
POLYLINE
  8
0
 66
1
 70
1
  0
VERTEX
  8
0
 10
283.654988
 20
713.171259
 42
0.078039
  0
VERTEX
  8
0
 10
282.982326
 20
712.144116
 42
0.039286
  0
VERTEX
  8
0
 10
282.456270
 20
710.682632
 42
0.035671
  0
VERTEX
  8
0
 10
282.114398
 20
708.957753
 42
0.031098
  0
VERTEX
  8
0
 10
282.000000
 20
707.120233
 42
0.022362
  0
VERTEX
  8
0
 10
282.111373
 20
704.631311
 42
0.115354
  0
VERTEX
  8
0
 10
282.541125
 20
703.330692
 42
0.127454
  0
VERTEX
  8
0
 10
283.481661
 20
702.421535
 42
0.029788
  0
VERTEX
  8
0
 10
285.467881
 20
701.448973
 42
0.015986
  0
VERTEX
  8
0
 10
288.439054
 20
700.317673
 42
0.115100
  0
VERTEX
  8
0
 10
289.953448
 20
700.161673
 42
0.132320
  0
VERTEX
  8
0
 10
291.283162
 20
700.707719
 42
0.023665
  0
VERTEX
  8
0
 10
293.353977
 20
702.452251
 42
0.087395
  0
VERTEX
  8
0
 10
295.046461
 20
704.683046
 42
0.081195
  0
VERTEX
  8
0
 10
295.929677
 20
707.415252
 42
0.079953
  0
VERTEX
  8
0
 10
295.903656
 20
710.324395
 42
0.080897
  0
VERTEX
  8
0
 10
294.964816
 20
713.065741
 42
0.200345
  0
VERTEX
  8
0
 10
293.120411
 20
714.569316
 42
0.069904
  0
VERTEX
  8
0
 10
289.664514
 20
715.087774
 42
0.067760
  0
VERTEX
  8
0
 10
286.041826
 20
714.628947
 42
0.144477
  0
SEQEND
  0
POLYLINE
  8
0
 66
1
 70
1
  0
VERTEX
  8
0
 10
308.988062
 20
709.860958
 42
0.077390
  0
VERTEX
  8
0
 10
306.927735
 20
708.768604
 42
0.090750
  0
VERTEX
  8
0
 10
305.425857
 20
707.149381
 42
0.070654
  0
VERTEX
  8
0
 10
304.347336
 20
704.771045
 42
0.029333
  0
VERTEX
  8
0
 10
303.554855
 20
701.324681
 42
0.028769
  0
VERTEX
  8
0
 10
303.288678
 20
698.911282
 42
0.091118
  0
VERTEX
  8
0
 10
303.497581
 20
697.306023
 42
0.082013
  0
VERTEX
  8
0
 10
304.277881
 20
695.788002
 42
0.020520
  0
VERTEX
  8
0
 10
306.034809
 20
693.613136
 42
0.024223
  0
VERTEX
  8
0
 10
307.964158
 20
691.619329
 42
0.081220
  0
VERTEX
  8
0
 10
309.468496
 20
690.609243
 42
0.082251
  0
VERTEX
  8
0
 10
311.205826
 20
690.137594
 42
0.025245
  0
VERTEX
  8
0
 10
313.929278
 20
690.000000
 42
0.072652
  0
VERTEX
  8
0
 10
317.985629
 20
690.592531
 42
0.116749
  0
VERTEX
  8
0
 10
321.000227
 20
692.328771
 42
0.123683
  0
VERTEX
  8
0
 10
322.805641
 20
695.147386
 42
0.087671
  0
VERTEX
  8
0
 10
323.364449
 20
698.878117
 42
0.045303
  0
VERTEX
  8
0
 10
322.972876
 20
702.216534
 42
0.077256
  0
VERTEX
  8
0
 10
321.981785
 20
704.837581
 42
0.083314
  0
VERTEX
  8
0
 10
320.306390
 20
706.901109
 42
0.061413
  0
VERTEX
  8
0
 10
317.872563
 20
708.565900
 42
0.022945
  0
VERTEX
  8
0
 10
315.140024
 20
709.823624
 42
0.060257
  0
VERTEX
  8
0
 10
313.060994
 20
710.388094
 42
0.072683
  0
VERTEX
  8
0
 10
311.146266
 20
710.387397
 42
0.046924
  0
SEQEND
  0
POLYLINE
  8
0
 66
1
 70
1
  0
VERTEX
  8
0
 10
336.981664
 20
704.969220
 42
0.101237
  0
VERTEX
  8
0
 10
333.982515
 20
703.470008
 42
0.040572
  0
VERTEX
  8
0
 10
330.598238
 20
700.339674
 42
0.040508
  0
VERTEX
  8
0
 10
327.776318
 20
696.720793
 42
0.106325
  0
VERTEX
  8
0
 10
326.593605
 20
693.666611
 42
0.103468
  0
VERTEX
  8
0
 10
326.770166
 20
690.036132
 42
0.043522
  0
VERTEX
  8
0
 10
328.416463
 20
685.408434
 42
0.043465
  0
VERTEX
  8
0
 10
330.881718
 20
681.059030
 42
0.087596
  0
VERTEX
  8
0
 10
333.637440
 20
678.258166
 42
0.063179
  0
VERTEX
  8
0
 10
337.110135
 20
676.394317
 42
0.049707
  0
VERTEX
  8
0
 10
341.232263
 20
675.266495
 42
0.051897
  0
VERTEX
  8
0
 10
345.220332
 20
675.010773
 42
0.105480
  0
VERTEX
  8
0
 10
348.250000
 20
675.783889
 42
0.013251
  0
VERTEX
  8
0
 10
349.303704
 20
676.341238
 42
0.019689
  0
VERTEX
  8
0
 10
350.192187
 20
676.888918
 42
0.015345
  0
VERTEX
  8
0
 10
350.874784
 20
677.378775
 42
0.233522
  0
VERTEX
  8
0
 10
351.000000
 20
677.632259
 42
0.325414
  0
VERTEX
  8
0
 10
350.907647
 20
677.759132
 42
0.122720
  0
VERTEX
  8
0
 10
350.675780
 20
677.774959
 42
0.064023
  0
VERTEX
  8
0
 10
350.319968
 20
677.663355
 42
0.030450
  0
VERTEX
  8
0
 10
349.896273
 20
677.435893
 42
-0.720600
  0
VERTEX
  8
0
 10
349.633200
 20
677.655355
 42
-0.032607
  0
VERTEX
  8
0
 10
350.376822
 20
679.241098
 42
-0.020559
  0
VERTEX
  8
0
 10
351.790638
 20
681.574245
 42
-0.015861
  0
VERTEX
  8
0
 10
353.513736
 20
684.000000
 42
0.119658
  0
VERTEX
  8
0
 10
354.449776
 20
686.146808
 42
0.038219
  0
VERTEX
  8
0
 10
354.788052
 20
689.638517
 42
0.038596
  0
VERTEX
  8
0
 10
354.585675
 20
693.186624
 42
0.102281
  0
VERTEX
  8
0
 10
353.747254
 20
695.572098
 42
0.061213
  0
VERTEX
  8
0
 10
351.615286
 20
698.295929
 42
0.025006
  0
VERTEX
  8
0
 10
348.120427
 20
701.451423
 42
0.023324
  0
VERTEX
  8
0
 10
344.457599
 20
704.165895
 42
0.102835
  0
VERTEX
  8
0
 10
341.981664
 20
705.172612
 42
0.034540
  0
VERTEX
  8
0
 10
340.837245
 20
705.301537
 42
0.020950
  0
VERTEX
  8
0
 10
339.474100
 20
705.303224
 42
0.020945
  0
VERTEX
  8
0
 10
338.114716
 20
705.190765
 42
0.034349
  0
SEQEND
  0
POLYLINE
  8
0
 66
1
 70
1
  0
VERTEX
  8
0
 10
481.767313
 20
696.042267
 42
0.090428
  0
VERTEX
  8
0
 10
478.521485
 20
694.949921
 42
0.047019
  0
VERTEX
  8
0
 10
474.980450
 20
692.532730
 42
0.045086
  0
VERTEX
  8
0
 10
471.738868
 20
689.306352
 42
0.055153
  0
VERTEX
  8
0
 10
469.370317
 20
685.749220
 42
0.046427
  0
VERTEX
  8
0
 10
468.665185
 20
684.006417
 42
0.047373
  0
VERTEX
  8
0
 10
468.299690
 20
682.175178
 42
0.038657
  0
VERTEX
  8
0
 10
468.245403
 20
680.008523
 42
0.018020
  0
VERTEX
  8
0
 10
468.493244
 20
677.207774
 42
0.019957
  0
VERTEX
  8
0
 10
469.264044
 20
672.555921
 42
0.059663
  0
VERTEX
  8
0
 10
470.286940
 20
669.502994
 42
0.085037
  0
VERTEX
  8
0
 10
471.753637
 20
667.414049
 42
0.080010
  0
VERTEX
  8
0
 10
473.860457
 20
665.880189
 42
-0.014231
  0
VERTEX
  8
0
 10
475.085517
 20
665.213985
 42
-0.007011
  0
VERTEX
  8
0
 10
476.605884
 20
664.301467
 42
-0.006951
  0
VERTEX
  8
0
 10
478.158880
 20
663.309357
 42
-0.010067
  0
VERTEX
  8
0
 10
479.500000
 20
662.386872
 42
0.027097
  0
VERTEX
  8
0
 10
481.480551
 20
661.121661
 42
0.118238
  0
VERTEX
  8
0
 10
482.808224
 20
660.741449
 42
0.081994
  0
VERTEX
  8
0
 10
484.397467
 20
660.933231
 42
0.009159
  0
VERTEX
  8
0
 10
487.890188
 20
662.021442
 42
0.030846
  0
VERTEX
  8
0
 10
490.448748
 20
663.049368
 42
0.028029
  0
VERTEX
  8
0
 10
492.947629
 20
664.413667
 42
0.027875
  0
VERTEX
  8
0
 10
495.292336
 20
666.057730
 42
0.029612
  0
VERTEX
  8
0
 10
497.390188
 20
667.921801
 42
0.017810
  0
VERTEX
  8
0
 10
499.868367
 20
670.584540
 42
0.086498
  0
VERTEX
  8
0
 10
500.927412
 20
672.345977
 42
0.080325
  0
VERTEX
  8
0
 10
501.366440
 20
674.421454
 42
0.014170
  0
VERTEX
  8
0
 10
501.445604
 20
678.416066
 42
0.015961
  0
VERTEX
  8
0
 10
501.302544
 20
681.951628
 42
0.050347
  0
VERTEX
  8
0
 10
500.894742
 20
684.285727
 42
0.061387
  0
VERTEX
  8
0
 10
500.080445
 20
686.232319
 42
0.033208
  0
VERTEX
  8
0
 10
498.643911
 20
688.400210
 42
0.060136
  0
VERTEX
  8
0
 10
495.118815
 20
692.023014
 42
0.063521
  0
VERTEX
  8
0
 10
490.893814
 20
694.625423
 42
0.066236
  0
VERTEX
  8
0
 10
486.319538
 20
696.004996
 42
0.076375
  0
SEQEND
  0
POLYLINE
  8
0
 66
1
 70
1
  0
VERTEX
  8
0
 10
721.000000
 20
694.078312
 42
0.052294
  0
VERTEX
  8
0
 10
718.232148
 20
693.124627
 42
0.032457
  0
VERTEX
  8
0
 10
715.215460
 20
691.471895
 42
0.030867
  0
VERTEX
  8
0
 10
712.644976
 20
689.606343
 42
0.131933
  0
VERTEX
  8
0
 10
711.555275
 20
688.076484
 42
-0.020261
  0
VERTEX
  8
0
 10
711.229731
 20
687.300216
 42
-0.007404
  0
VERTEX
  8
0
 10
710.708938
 20
686.228717
 42
-0.007327
  0
VERTEX
  8
0
 10
710.104344
 20
685.072713
 42
-0.008700
  0
VERTEX
  8
0
 10
709.498760
 20
684.000000
 42
0.066537
  0
VERTEX
  8
0
 10
708.353594
 20
681.279720
 42
0.094310
  0
VERTEX
  8
0
 10
708.150748
 20
678.668042
 42
0.086377
  0
VERTEX
  8
0
 10
708.926831
 20
675.998080
 42
0.047711
  0
VERTEX
  8
0
 10
710.709312
 20
673.094391
 42
0.019390
  0
VERTEX
  8
0
 10
713.280131
 20
669.945539
 42
0.064659
  0
VERTEX
  8
0
 10
715.285792
 20
668.192804
 42
0.075552
  0
VERTEX
  8
0
 10
717.497998
 20
667.156070
 42
0.033322
  0
VERTEX
  8
0
 10
720.657768
 20
666.446793
 42
0.041413
  0
VERTEX
  8
0
 10
725.234454
 20
666.119405
 42
0.087911
  0
VERTEX
  8
0
 10
728.713344
 20
666.776701
 42
0.094791
  0
VERTEX
  8
0
 10
731.588779
 20
668.544101
 42
0.054220
  0
VERTEX
  8
0
 10
734.291683
 20
671.611476
 42
0.035414
  0
VERTEX
  8
0
 10
736.569579
 20
675.384273
 42
0.078234
  0
VERTEX
  8
0
 10
737.613005
 20
678.573032
 42
0.084496
  0
VERTEX
  8
0
 10
737.585830
 20
681.769388
 42
0.046964
  0
VERTEX
  8
0
 10
736.539884
 20
685.534736
 42
0.077066
  0
VERTEX
  8
0
 10
733.999467
 20
689.985729
 42
0.099238
  0
VERTEX
  8
0
 10
730.406753
 20
693.014932
 42
0.100889
  0
VERTEX
  8
0
 10
725.972992
 20
694.394133
 42
0.082136
  0
SEQEND
  0
POLYLINE
  8
0
 66
1
 70
1
  0
VERTEX
  8
0
 10
739.356116
 20
649.311531
 42
0.035984
  0
VERTEX
  8
0
 10
738.503951
 20
648.427742
 42
0.021072
  0
VERTEX
  8
0
 10
737.610182
 20
647.259596
 42
0.021003
  0
VERTEX
  8
0
 10
736.810460
 20
646.009080
 42
0.033267
  0
VERTEX
  8
0
 10
736.245492
 20
644.870073
 42
0.051412
  0
VERTEX
  8
0
 10
735.784132
 20
643.330846
 42
0.101286
  0
VERTEX
  8
0
 10
735.801173
 20
642.059323
 42
0.075890
  0
VERTEX
  8
0
 10
736.336367
 20
640.666155
 42
0.019648
  0
VERTEX
  8
0
 10
737.612199
 20
638.620073
 42
0.081380
  0
VERTEX
  8
0
 10
740.057478
 20
636.043442
 42
0.136576
  0
VERTEX
  8
0
 10
742.812353
 20
634.950531
 42
0.138773
  0
VERTEX
  8
0
 10
745.703825
 20
635.445627
 42
0.085213
  0
VERTEX
  8
0
 10
748.545455
 20
637.454545
 42
0.079645
  0
VERTEX
  8
0
 10
750.270080
 20
639.837677
 42
0.113479
  0
VERTEX
  8
0
 10
750.892640
 20
642.365291
 42
0.112961
  0
VERTEX
  8
0
 10
750.349659
 20
644.919520
 42
0.078404
  0
VERTEX
  8
0
 10
748.699358
 20
647.379391
 42
0.059281
  0
VERTEX
  8
0
 10
746.270772
 20
649.445652
 42
0.095947
  0
VERTEX
  8
0
 10
743.775699
 20
650.486552
 42
0.115986
  0
VERTEX
  8
0
 10
741.415515
 20
650.422767
 42
0.118986
  0
SEQEND
  0
POLYLINE
  8
0
 66
1
 70
1
  0
VERTEX
  8
0
 10
457.750000
 20
646.468443
 42
0.046920
  0
VERTEX
  8
0
 10
456.302415
 20
645.473562
 42
0.108684
  0
VERTEX
  8
0
 10
455.500079
 20
644.436292
 42
0.087393
  0
VERTEX
  8
0
 10
455.109915
 20
643.012789
 42
0.023298
  0
VERTEX
  8
0
 10
455.000000
 20
640.655154
 42
0.115857
  0
VERTEX
  8
0
 10
456.139511
 20
635.803404
 42
0.137280
  0
VERTEX
  8
0
 10
459.284975
 20
632.318333
 42
0.150015
  0
VERTEX
  8
0
 10
463.553179
 20
631.155848
 42
0.145799
  0
VERTEX
  8
0
 10
467.793459
 20
632.567886
 42
0.064513
  0
VERTEX
  8
0
 10
468.931045
 20
633.606313
 42
0.098832
  0
VERTEX
  8
0
 10
469.574900
 20
634.770827
 42
0.068180
  0
VERTEX
  8
0
 10
469.857303
 20
636.397541
 42
0.017782
  0
VERTEX
  8
0
 10
469.857783
 20
639.056052
 42
0.023612
  0
VERTEX
  8
0
 10
469.677064
 20
641.239129
 42
0.037040
  0
VERTEX
  8
0
 10
469.295997
 20
643.082472
 42
0.044439
  0
VERTEX
  8
0
 10
468.741367
 20
644.526468
 42
0.095210
  0
VERTEX
  8
0
 10
468.026201
 20
645.476289
 42
0.091132
  0
VERTEX
  8
0
 10
465.848808
 20
646.822679
 42
0.069057
  0
VERTEX
  8
0
 10
463.111238
 20
647.475646
 42
0.068117
  0
VERTEX
  8
0
 10
460.259960
 20
647.362182
 42
0.083333
  0
SEQEND
  0
POLYLINE
  8
0
 66
1
 70
1
  0
VERTEX
  8
0
 10
757.175304
 20
615.327559
 42
-0.000130
  0
VERTEX
  8
0
 10
756.775281
 20
614.580577
 42
-0.000138
  0
VERTEX
  8
0
 10
756.382131
 20
613.847373
 42
-0.000131
  0
VERTEX
  8
0
 10
756.042932
 20
613.215603
 42
-0.000626
  0
VERTEX
  8
0
 10
755.848612
 20
612.854988
 42
0.221085
  0
VERTEX
  8
0
 10
755.825966
 20
612.480063
 42
0.034295
  0
VERTEX
  8
0
 10
756.153441
 20
611.790560
 42
0.032771
  0
VERTEX
  8
0
 10
756.682802
 20
610.978129
 42
0.023144
  0
VERTEX
  8
0
 10
757.375867
 20
610.137166
 42
0.121820
  0
VERTEX
  8
0
 10
759.274939
 20
608.857951
 42
0.209523
  0
VERTEX
  8
0
 10
761.145901
 20
608.975467
 42
0.181838
  0
VERTEX
  8
0
 10
762.516644
 20
610.491074
 42
0.094153
  0
VERTEX
  8
0
 10
763.000000
 20
613.035184
 42
0.029339
  0
VERTEX
  8
0
 10
762.933290
 20
614.171094
 42
0.045785
  0
VERTEX
  8
0
 10
762.730275
 20
615.129085
 42
0.057703
  0
VERTEX
  8
0
 10
762.435218
 20
615.797662
 42
0.265996
  0
VERTEX
  8
0
 10
762.081787
 20
616.000000
 42
-0.042886
  0
VERTEX
  8
0
 10
761.626159
 20
616.039152
 42
-0.015634
  0
VERTEX
  8
0
 10
760.991178
 20
616.169658
 42
-0.015368
  0
VERTEX
  8
0
 10
760.302066
 20
616.356452
 42
-0.017745
  0
VERTEX
  8
0
 10
759.658480
 20
616.577559
 42
0.113139
  0
VERTEX
  8
0
 10
758.989979
 20
616.672507
 42
0.095822
  0
VERTEX
  8
0
 10
758.301734
 20
616.478102
 42
0.085423
  0
VERTEX
  8
0
 10
757.671962
 20
616.012347
 42
0.068150
  0
SEQEND
  0
POLYLINE
  8
0
 66
1
 70
1
  0
VERTEX
  8
0
 10
444.666667
 20
613.333333
 42
0.245259
  0
VERTEX
  8
0
 10
443.994590
 20
611.193888
 42
0.094087
  0
VERTEX
  8
0
 10
445.139399
 20
608.191390
 42
0.090571
  0
VERTEX
  8
0
 10
447.349479
 20
605.734384
 42
0.214430
  0
VERTEX
  8
0
 10
449.690780
 20
605.173461
 42
0.240065
  0
VERTEX
  8
0
 10
451.074858
 20
606.244394
 42
0.075029
  0
VERTEX
  8
0
 10
451.851449
 20
608.834721
 42
0.073721
  0
VERTEX
  8
0
 10
451.835849
 20
611.583318
 42
0.216513
  0
VERTEX
  8
0
 10
450.824183
 20
613.129823
 42
0.087080
  0
VERTEX
  8
0
 10
449.398102
 20
613.718246
 42
0.046176
  0
VERTEX
  8
0
 10
447.495529
 20
613.957943
 42
0.045889
  0
VERTEX
  8
0
 10
445.693225
 20
613.852072
 42
0.160100
  0
SEQEND
  0
POLYLINE
  8
0
 66
1
 70
1
  0
VERTEX
  8
0
 10
780.434220
 20
533.689175
 42
0.013263
  0
VERTEX
  8
0
 10
780.144887
 20
532.870936
 42
0.001517
  0
VERTEX
  8
0
 10
779.547481
 20
531.008021
 42
0.001831
  0
VERTEX
  8
0
 10
778.851518
 20
528.786724
 42
0.001491
  0
VERTEX
  8
0
 10
778.121889
 20
526.402572
 42
-0.060071
  0
VERTEX
  8
0
 10
775.352169
 20
520.099085
 42
-0.025344
  0
VERTEX
  8
0
 10
770.239114
 20
512.373924
 42
-0.022831
  0
VERTEX
  8
0
 10
764.632397
 20
505.454830
 42
-0.120004
  0
VERTEX
  8
0
 10
760.638785
 20
502.691630
 42
0.177242
  0
VERTEX
  8
0
 10
759.570879
 20
501.760192
 42
0.097060
  0
VERTEX
  8
0
 10
759.035662
 20
500.084706
 42
0.122919
  0
VERTEX
  8
0
 10
759.229524
 20
498.589421
 42
0.308585
  0
VERTEX
  8
0
 10
760.093620
 20
498.000000
 42
0.153727
  0
VERTEX
  8
0
 10
760.549927
 20
498.143690
 42
0.068711
  0
VERTEX
  8
0
 10
761.016665
 20
498.576187
 42
0.058600
  0
VERTEX
  8
0
 10
761.422917
 20
499.211135
 42
0.049125
  0
VERTEX
  8
0
 10
761.700180
 20
499.961489
 42
-0.069458
  0
VERTEX
  8
0
 10
762.123051
 20
500.977297
 42
-0.322586
  0
VERTEX
  8
0
 10
762.671758
 20
501.218094
 42
-0.106861
  0
VERTEX
  8
0
 10
763.565126
 20
500.815417
 42
-0.006849
  0
VERTEX
  8
0
 10
765.856560
 20
499.073171
 42
0.049582
  0
VERTEX
  8
0
 10
768.047629
 20
497.685112
 42
0.009790
  0
VERTEX
  8
0
 10
772.248490
 20
495.676390
 42
0.010287
  0
VERTEX
  8
0
 10
777.255837
 20
493.524533
 42
0.009396
  0
VERTEX
  8
0
 10
782.500000
 20
491.511516
 42
-0.002826
  0
VERTEX
  8
0
 10
787.843750
 20
489.540432
 42
-0.002850
  0
VERTEX
  8
0
 10
793.150000
 20
487.514458
 42
-0.002778
  0
VERTEX
  8
0
 10
797.752775
 20
485.697460
 42
-0.011513
  0
VERTEX
  8
0
 10
800.500000
 20
484.521150
 42
0.001400
  0
VERTEX
  8
0
 10
802.706195
 20
483.523228
 42
0.000970
  0
VERTEX
  8
0
 10
805.206250
 20
482.406625
 42
0.000978
  0
VERTEX
  8
0
 10
807.612036
 20
481.343345
 42
0.002012
  0
VERTEX
  8
0
 10
809.500000
 20
480.522384
 42
-0.002683
  0
VERTEX
  8
0
 10
811.340334
 20
479.719199
 42
-0.001475
  0
VERTEX
  8
0
 10
813.584242
 20
478.717585
 42
-0.001470
  0
VERTEX
  8
0
 10
815.855034
 20
477.687888
 42
-0.002354
  0
VERTEX
  8
0
 10
817.786783
 20
476.794055
 42
0.024367
  0
VERTEX
  8
0
 10
819.569512
 20
476.062599
 42
0.025828
  0
VERTEX
  8
0
 10
821.380976
 20
475.524032
 42
0.026590
  0
VERTEX
  8
0
 10
822.978396
 20
475.226451
 42
0.097000
  0
VERTEX
  8
0
 10
824.002596
 20
475.290428
 42
-0.047356
  0
VERTEX
  8
0
 10
824.734195
 20
475.409346
 42
-0.097143
  0
VERTEX
  8
0
 10
825.307986
 20
475.335973
 42
-0.161082
  0
VERTEX
  8
0
 10
825.638644
 20
475.089638
 42
-0.205164
  0
VERTEX
  8
0
 10
825.715813
 20
474.721043
 42
0.332452
  0
VERTEX
  8
0
 10
825.993539
 20
474.136560
 42
0.004660
  0
VERTEX
  8
0
 10
829.675895
 20
472.238265
 42
0.010780
  0
VERTEX
  8
0
 10
834.148199
 20
470.104862
 42
0.006626
  0
VERTEX
  8
0
 10
839.500000
 20
467.776974
 42
-0.001546
  0
VERTEX
  8
0
 10
845.246958
 20
465.346347
 42
-0.001579
  0
VERTEX
  8
0
 10
850.937827
 20
462.897406
 42
-0.001530
  0
VERTEX
  8
0
 10
855.867183
 20
460.739737
 42
-0.006595
  0
VERTEX
  8
0
 10
858.777710
 20
459.408980
 42
0.028371
  0
VERTEX
  8
0
 10
863.434114
 20
457.520439
 42
0.056263
  0
VERTEX
  8
0
 10
867.320560
 20
456.666954
 42
0.087177
  0
VERTEX
  8
0
 10
870.058221
 20
456.859307
 42
0.274326
  0
VERTEX
  8
0
 10
871.316723
 20
458.103149
 42
0.118173
  0
VERTEX
  8
0
 10
871.344873
 20
459.474564
 42
0.108051
  0
VERTEX
  8
0
 10
870.754943
 20
460.760882
 42
0.109242
  0
VERTEX
  8
0
 10
869.688793
 20
461.673404
 42
0.123190
  0
VERTEX
  8
0
 10
868.383333
 20
462.000000
 42
-0.066857
  0
VERTEX
  8
0
 10
867.893292
 20
462.065820
 42
-0.062619
  0
VERTEX
  8
0
 10
867.426146
 20
462.258993
 42
-0.066954
  0
VERTEX
  8
0
 10
867.051286
 20
462.544489
 42
-0.106586
  0
VERTEX
  8
0
 10
866.833333
 20
462.881677
 42
0.121714
  0
VERTEX
  8
0
 10
866.438271
 20
463.454586
 42
0.001278
  0
VERTEX
  8
0
 10
862.779167
 20
466.678862
 42
0.003986
  0
VERTEX
  8
0
 10
858.506776
 20
470.364372
 42
0.002569
  0
VERTEX
  8
0
 10
853.500000
 20
474.570165
 42
-0.000584
  0
VERTEX
  8
0
 10
848.438213
 20
478.788001
 42
-0.000854
  0
VERTEX
  8
0
 10
843.992383
 20
482.514294
 42
-0.000406
  0
VERTEX
  8
0
 10
840.216129
 20
485.695620
 42
-0.015425
  0
VERTEX
  8
0
 10
839.388964
 20
486.438488
 42
0.015086
  0
VERTEX
  8
0
 10
838.743659
 20
487.018822
 42
0.002969
  0
VERTEX
  8
0
 10
837.548174
 20
488.018288
 42
0.003146
  0
VERTEX
  8
0
 10
836.140552
 20
489.166152
 42
0.002916
  0
VERTEX
  8
0
 10
834.682621
 20
490.325898
 42
-0.004502
  0
VERTEX
  8
0
 10
833.032893
 20
491.646781
 42
-0.002448
  0
VERTEX
  8
0
 10
831.029049
 20
493.297422
 42
-0.002439
  0
VERTEX
  8
0
 10
829.007311
 20
494.996243
 42
-0.003864
  0
VERTEX
  8
0
 10
827.293657
 20
496.473441
 42
0.002543
  0
VERTEX
  8
0
 10
825.507897
 20
498.021043
 42
0.001291
  0
VERTEX
  8
0
 10
823.246124
 20
499.951012
 42
0.001282
  0
VERTEX
  8
0
 10
820.901922
 20
501.930567
 42
0.001916
  0
VERTEX
  8
0
 10
818.842086
 20
503.647543
 42
-0.000731
  0
VERTEX
  8
0
 10
805.351771
 20
514.838316
 42
-0.002879
  0
VERTEX
  8
0
 10
797.092719
 20
521.790806
 42
-0.004563
  0
VERTEX
  8
0
 10
791.521039
 20
526.624568
 42
-0.011715
  0
VERTEX
  8
0
 10
787.607143
 20
530.250000
 42
0.009208
  0
VERTEX
  8
0
 10
784.198759
 20
533.439074
 42
0.071790
  0
VERTEX
  8
0
 10
782.396279
 20
534.647031
 42
0.237196
  0
VERTEX
  8
0
 10
781.266392
 20
534.625901
 42
0.181945
  0
SEQEND
  0
POLYLINE
  8
0
 66
1
 70
1
  0
VERTEX
  8
0
 10
599.223705
 20
509.150320
 42
0.072554
  0
VERTEX
  8
0
 10
598.072229
 20
508.631769
 42
0.017796
  0
VERTEX
  8
0
 10
596.357163
 20
507.449401
 42
0.017853
  0
VERTEX
  8
0
 10
594.469569
 20
505.938935
 42
0.016982
  0
VERTEX
  8
0
 10
592.661766
 20
504.273174
 42
0.018461
  0
VERTEX
  8
0
 10
590.388099
 20
501.858782
 42
0.058275
  0
VERTEX
  8
0
 10
589.131233
 20
500.029699
 42
0.070951
  0
VERTEX
  8
0
 10
588.463852
 20
498.166615
 42
0.037666
  0
VERTEX
  8
0
 10
588.152688
 20
495.729957
 42
0.054226
  0
VERTEX
  8
0
 10
588.377305
 20
491.767720
 42
0.055185
  0
VERTEX
  8
0
 10
589.449513
 20
487.970964
 42
0.059438
  0
VERTEX
  8
0
 10
591.211691
 20
484.777499
 42
0.092207
  0
VERTEX
  8
0
 10
593.478246
 20
482.606210
 42
0.063038
  0
VERTEX
  8
0
 10
594.884255
 20
481.919853
 42
0.020027
  0
VERTEX
  8
0
 10
597.124189
 20
481.255879
 42
0.019637
  0
VERTEX
  8
0
 10
599.704281
 20
480.709032
 42
0.020662
  0
VERTEX
  8
0
 10
602.275937
 20
480.377342
 42
0.013231
  0
VERTEX
  8
0
 10
606.122273
 20
480.144388
 42
0.074311
  0
VERTEX
  8
0
 10
608.163637
 20
480.378778
 42
0.087374
  0
VERTEX
  8
0
 10
609.895540
 20
481.187735
 42
0.021979
  0
VERTEX
  8
0
 10
612.374233
 20
483.092597
 42
0.065793
  0
VERTEX
  8
0
 10
616.296068
 20
487.385864
 42
0.090156
  0
VERTEX
  8
0
 10
618.468206
 20
492.134717
 42
0.090623
  0
VERTEX
  8
0
 10
618.823863
 20
497.325170
 42
0.067169
  0
VERTEX
  8
0
 10
617.417830
 20
502.913760
 42
0.034666
  0
VERTEX
  8
0
 10
616.387369
 20
505.047438
 42
0.080764
  0
VERTEX
  8
0
 10
615.274101
 20
506.422995
 42
0.074341
  0
VERTEX
  8
0
 10
613.723154
 20
507.440922
 42
0.026007
  0
VERTEX
  8
0
 10
611.239691
 20
508.433996
 42
0.025807
  0
VERTEX
  8
0
 10
607.861901
 20
509.393578
 42
0.041435
  0
VERTEX
  8
0
 10
604.899011
 20
509.818269
 42
0.045170
  0
VERTEX
  8
0
 10
602.099398
 20
509.732195
 42
0.039336
  0
SEQEND
  0
POLYLINE
  8
0
 66
1
 70
1
  0
VERTEX
  8
0
 10
643.723528
 20
499.923639
 42
0.023741
  0
VERTEX
  8
0
 10
641.782346
 20
498.162354
 42
0.071088
  0
VERTEX
  8
0
 10
640.708390
 20
496.733501
 42
0.083701
  0
VERTEX
  8
0
 10
640.173127
 20
495.198832
 42
0.042169
  0
VERTEX
  8
0
 10
640.000000
 20
493.149702
 42
0.062147
  0
VERTEX
  8
0
 10
640.384343
 20
490.069440
 42
0.077701
  0
VERTEX
  8
0
 10
641.513793
 20
487.422867
 42
0.094414
  0
VERTEX
  8
0
 10
643.171192
 20
485.632032
 42
0.160304
  0
VERTEX
  8
0
 10
645.091887
 20
485.000000
 42
0.104251
  0
VERTEX
  8
0
 10
647.468580
 20
485.500992
 42
0.061947
  0
VERTEX
  8
0
 10
649.961818
 20
486.992937
 42
0.058892
  0
VERTEX
  8
0
 10
652.151421
 20
489.161730
 42
0.069297
  0
VERTEX
  8
0
 10
653.636432
 20
491.672285
 42
0.024480
  0
VERTEX
  8
0
 10
654.662706
 20
494.511698
 42
0.086559
  0
VERTEX
  8
0
 10
654.903887
 20
496.428127
 42
0.111332
  0
VERTEX
  8
0
 10
654.457961
 20
498.044108
 42
0.055545
  0
VERTEX
  8
0
 10
653.250000
 20
499.802320
 42
0.067151
  0
VERTEX
  8
0
 10
651.041635
 20
501.753887
 42
0.145236
  0
VERTEX
  8
0
 10
648.897259
 20
502.420016
 42
0.128691
  0
VERTEX
  8
0
 10
646.558840
 20
501.839726
 42
0.047575
  0
SEQEND
  0
POLYLINE
  8
0
 66
1
 70
1
  0
VERTEX
  8
0
 10
556.000000
 20
496.143668
 42
0.024971
  0
VERTEX
  8
0
 10
554.068820
 20
493.734230
 42
0.111042
  0
VERTEX
  8
0
 10
553.359332
 20
492.077196
 42
0.128000
  0
VERTEX
  8
0
 10
553.478919
 20
490.401463
 42
0.037866
  0
VERTEX
  8
0
 10
554.492424
 20
488.014650
 42
0.119106
  0
VERTEX
  8
0
 10
556.346416
 20
485.876530
 42
0.084736
  0
VERTEX
  8
0
 10
559.213342
 20
484.490635
 42
0.081477
  0
VERTEX
  8
0
 10
562.490696
 20
484.100030
 42
0.096184
  0
VERTEX
  8
0
 10
565.522580
 20
484.828334
 42
0.144028
  0
VERTEX
  8
0
 10
567.627039
 20
486.650445
 42
0.112181
  0
VERTEX
  8
0
 10
568.662931
 20
489.508973
 42
0.099689
  0
VERTEX
  8
0
 10
568.415246
 20
492.828279
 42
0.091110
  0
VERTEX
  8
0
 10
566.906767
 20
495.912234
 42
0.092426
  0
VERTEX
  8
0
 10
564.443036
 20
498.206654
 42
0.136918
  0
VERTEX
  8
0
 10
561.634489
 20
499.055045
 42
0.132903
  0
VERTEX
  8
0
 10
558.730824
 20
498.335104
 42
0.084679
  0
SEQEND
  0
POLYLINE
  8
0
 66
1
 70
1
  0
VERTEX
  8
0
 10
676.517138
 20
497.374280
 42
0.073545
  0
VERTEX
  8
0
 10
675.916897
 20
496.565687
 42
0.046220
  0
VERTEX
  8
0
 10
675.458359
 20
495.479237
 42
0.045437
  0
VERTEX
  8
0
 10
675.199132
 20
494.298888
 42
0.061198
  0
VERTEX
  8
0
 10
675.195709
 20
493.205995
 42
0.051504
  0
VERTEX
  8
0
 10
675.480520
 20
491.944373
 42
0.130847
  0
VERTEX
  8
0
 10
675.995027
 20
491.167840
 42
0.125778
  0
VERTEX
  8
0
 10
676.842107
 20
490.732018
 42
0.045853
  0
VERTEX
  8
0
 10
678.189553
 20
490.551339
 42
0.124670
  0
VERTEX
  8
0
 10
680.247623
 20
490.982279
 42
0.145342
  0
VERTEX
  8
0
 10
681.713911
 20
492.329572
 42
0.131142
  0
VERTEX
  8
0
 10
682.299764
 20
494.380762
 42
0.093205
  0
VERTEX
  8
0
 10
681.896826
 20
496.750000
 42
0.098699
  0
VERTEX
  8
0
 10
680.968683
 20
498.260137
 42
0.178722
  0
VERTEX
  8
0
 10
679.691444
 20
498.907704
 42
0.155577
  0
VERTEX
  8
0
 10
678.162612
 20
498.608679
 42
0.071011
  0
SEQEND
  0
POLYLINE
  8
0
 66
1
 70
1
  0
VERTEX
  8
0
 10
525.500000
 20
494.036354
 42
0.035039
  0
VERTEX
  8
0
 10
523.838041
 20
493.580482
 42
0.152903
  0
VERTEX
  8
0
 10
523.030521
 20
492.977718
 42
0.141126
  0
VERTEX
  8
0
 10
522.675799
 20
491.992897
 42
0.028302
  0
VERTEX
  8
0
 10
522.659340
 20
490.108418
 42
0.042569
  0
VERTEX
  8
0
 10
523.048024
 20
487.201923
 42
0.174043
  0
VERTEX
  8
0
 10
523.982955
 20
485.719465
 42
0.205526
  0
VERTEX
  8
0
 10
525.534300
 20
485.309937
 42
0.061424
  0
VERTEX
  8
0
 10
527.944365
 20
485.976955
 42
0.037768
  0
VERTEX
  8
0
 10
529.447737
 20
486.737213
 42
0.094628
  0
VERTEX
  8
0
 10
530.358041
 20
487.555790
 42
0.106574
  0
VERTEX
  8
0
 10
530.840570
 20
488.587801
 42
0.056313
  0
VERTEX
  8
0
 10
531.000000
 20
489.998876
 42
0.075287
  0
VERTEX
  8
0
 10
530.663105
 20
492.223614
 42
0.160604
  0
VERTEX
  8
0
 10
529.665519
 20
493.623727
 42
0.148016
  0
VERTEX
  8
0
 10
527.964230
 20
494.224273
 42
0.060851
  0
SEQEND
  0
POLYLINE
  8
0
 66
1
 70
1
  0
VERTEX
  8
0
 10
744.000000
 20
483.236218
 42
-0.228739
  0
VERTEX
  8
0
 10
742.558373
 20
480.249841
 42
-0.006570
  0
VERTEX
  8
0
 10
731.073974
 20
471.370271
 42
-0.012315
  0
VERTEX
  8
0
 10
719.684730
 20
463.232387
 42
-0.065180
  0
VERTEX
  8
0
 10
712.847228
 20
459.796899
 42
0.017125
  0
VERTEX
  8
0
 10
711.756328
 20
459.374186
 42
0.025462
  0
VERTEX
  8
0
 10
710.836373
 20
458.924299
 42
0.023124
  0
VERTEX
  8
0
 10
710.148205
 20
458.500496
 42
0.248050
  0
VERTEX
  8
0
 10
710.000000
 20
458.220137
 42
0.195581
  0
VERTEX
  8
0
 10
710.164496
 20
457.815691
 42
0.000163
  0
VERTEX
  8
0
 10
717.784086
 20
450.003198
 42
0.001689
  0
VERTEX
  8
0
 10
726.339025
 20
441.296427
 42
0.001030
  0
VERTEX
  8
0
 10
736.499015
 20
431.067962
 42
-0.000554
  0
VERTEX
  8
0
 10
748.393197
 20
419.116369
 42
-0.000347
  0
VERTEX
  8
0
 10
762.284628
 20
405.107464
 42
-0.000348
  0
VERTEX
  8
0
 10
775.944441
 20
391.293743
 42
-0.000636
  0
VERTEX
  8
0
 10
787.068441
 20
380.000000
 42
0.000255
  0
VERTEX
  8
0
 10
798.237968
 20
368.642731
 42
0.000136
  0
VERTEX
  8
0
 10
812.052462
 20
354.618032
 42
0.000136
  0
VERTEX
  8
0
 10
826.162429
 20
340.308956
 42
0.000212
  0
VERTEX
  8
0
 10
838.319425
 20
327.997557
 42
-0.000370
  0
VERTEX
  8
0
 10
850.281136
 20
315.876246
 42
-0.000258
  0
VERTEX
  8
0
 10
863.775478
 20
302.167459
 42
-0.000260
  0
VERTEX
  8
0
 10
876.714264
 20
288.995831
 42
-0.000537
  0
VERTEX
  8
0
 10
886.809861
 20
278.685761
 42
0.003234
  0
VERTEX
  8
0
 10
899.950449
 20
265.410063
 42
0.026084
  0
VERTEX
  8
0
 10
906.331824
 20
259.677532
 42
0.083567
  0
VERTEX
  8
0
 10
909.863318
 20
257.688298
 42
0.421519
  0
VERTEX
  8
0
 10
911.692264
 20
258.575390
 42
0.184023
  0
VERTEX
  8
0
 10
911.666610
 20
259.177009
 42
0.029636
  0
VERTEX
  8
0
 10
911.129904
 20
260.244552
 42
0.029386
  0
VERTEX
  8
0
 10
910.311658
 20
261.483022
 42
0.022021
  0
VERTEX
  8
0
 10
909.275130
 20
262.747523
 42
-0.014322
  0
VERTEX
  8
0
 10
905.649846
 20
267.033847
 42
-0.006127
  0
VERTEX
  8
0
 10
901.041868
 20
272.957167
 42
-0.003060
  0
VERTEX
  8
0
 10
893.852872
 20
282.557107
 42
-0.000459
  0
VERTEX
  8
0
 10
879.558252
 20
301.928341
 42
0.000148
  0
VERTEX
  8
0
 10
873.556607
 20
310.072015
 42
0.000079
  0
VERTEX
  8
0
 10
866.141657
 20
320.123817
 42
0.000079
  0
VERTEX
  8
0
 10
858.573169
 20
330.376946
 42
0.000124
  0
VERTEX
  8
0
 10
852.058252
 20
339.195292
 42
-0.000391
  0
VERTEX
  8
0
 10
845.861508
 20
347.592368
 42
-0.000325
  0
VERTEX
  8
0
 10
839.279612
 20
356.538144
 42
-0.000328
  0
VERTEX
  8
0
 10
833.259272
 20
364.743089
 42
-0.000886
  0
VERTEX
  8
0
 10
829.000000
 20
370.577567
 42
0.001281
  0
VERTEX
  8
0
 10
825.400118
 20
375.500610
 42
0.001122
  0
VERTEX
  8
0
 10
821.612424
 20
380.628579
 42
0.001128
  0
VERTEX
  8
0
 10
818.170112
 20
385.245342
 42
0.003370
  0
VERTEX
  8
0
 10
815.786976
 20
388.382274
 42
-0.004302
  0
VERTEX
  8
0
 10
813.063370
 20
391.981273
 42
-0.000700
  0
VERTEX
  8
0
 10
807.847682
 20
399.018543
 42
-0.000772
  0
VERTEX
  8
0
 10
801.732807
 20
407.320006
 42
-0.000679
  0
VERTEX
  8
0
 10
795.377881
 20
416.000000
 42
-0.000531
  0
VERTEX
  8
0
 10
769.956956
 20
450.898500
 42
-0.003369
  0
VERTEX
  8
0
 10
757.173635
 20
468.738448
 42
-0.001890
  0
VERTEX
  8
0
 10
748.917100
 20
480.520728
 42
-0.178210
  0
VERTEX
  8
0
 10
748.401706
 20
482.500000
 42
0.205047
  0
VERTEX
  8
0
 10
748.273137
 20
482.906244
 42
0.077577
  0
VERTEX
  8
0
 10
747.810189
 20
483.300118
 42
0.060216
  0
VERTEX
  8
0
 10
747.104113
 20
483.623789
 42
0.042139
  0
VERTEX
  8
0
 10
746.250000
 20
483.819551
 42
0.037692
  0
VERTEX
  8
0
 10
745.388041
 20
483.876289
 42
0.061090
  0
VERTEX
  8
0
 10
744.660938
 20
483.780012
 42
0.086365
  0
VERTEX
  8
0
 10
744.169594
 20
483.557059
 42
0.248036
  0
SEQEND
  0
POLYLINE
  8
0
 66
1
 70
1
  0
VERTEX
  8
0
 10
675.045484
 20
438.554804
 42
-0.100498
  0
VERTEX
  8
0
 10
673.767701
 20
437.526260
 42
-0.030449
  0
VERTEX
  8
0
 10
671.480513
 20
436.514325
 42
-0.013935
  0
VERTEX
  8
0
 10
667.431363
 20
435.137333
 42
-0.001716
  0
VERTEX
  8
0
 10
658.500000
 20
432.408737
 42
-0.001866
  0
VERTEX
  8
0
 10
653.097422
 20
430.800438
 42
-0.013950
  0
VERTEX
  8
0
 10
650.510845
 20
430.118701
 42
-0.019173
  0
VERTEX
  8
0
 10
648.210901
 20
429.672876
 42
-0.005345
  0
VERTEX
  8
0
 10
644.579148
 20
429.152065
 42
0.032197
  0
VERTEX
  8
0
 10
641.275090
 20
428.495650
 42
0.132000
  0
VERTEX
  8
0
 10
639.520775
 20
427.484265
 42
0.402745
  0
VERTEX
  8
0
 10
639.500212
 20
426.435361
 42
0.130057
  0
VERTEX
  8
0
 10
640.944953
 20
425.517471
 42
-0.029170
  0
VERTEX
  8
0
 10
641.731853
 20
425.216189
 42
-0.039865
  0
VERTEX
  8
0
 10
642.396330
 20
424.850015
 42
-0.045014
  0
VERTEX
  8
0
 10
642.865661
 20
424.475642
 42
-0.204666
  0
VERTEX
  8
0
 10
643.000000
 20
424.161199
 42
0.144017
  0
VERTEX
  8
0
 10
643.139306
 20
423.687584
 42
0.003082
  0
VERTEX
  8
0
 10
644.478276
 20
421.636273
 42
0.006842
  0
VERTEX
  8
0
 10
646.103874
 20
419.250664
 42
0.004530
  0
VERTEX
  8
0
 10
648.032427
 20
416.554340
 42
-0.007821
  0
VERTEX
  8
0
 10
650.353260
 20
413.264014
 42
-0.003855
  0
VERTEX
  8
0
 10
653.205300
 20
409.013211
 42
-0.003824
  0
VERTEX
  8
0
 10
656.098709
 20
404.554238
 42
-0.005569
  0
VERTEX
  8
0
 10
658.575392
 20
400.575753
 42
0.001992
  0
VERTEX
  8
0
 10
668.252191
 20
384.780472
 42
0.019730
  0
VERTEX
  8
0
 10
672.601297
 20
378.328318
 42
0.055307
  0
VERTEX
  8
0
 10
675.221779
 20
375.475967
 42
0.395992
  0
VERTEX
  8
0
 10
676.928279
 20
375.538889
 42
0.186129
  0
VERTEX
  8
0
 10
677.335429
 20
376.471063
 42
0.001305
  0
VERTEX
  8
0
 10
677.696898
 20
385.251617
 42
0.004615
  0
VERTEX
  8
0
 10
678.000813
 20
395.619732
 42
0.002573
  0
VERTEX
  8
0
 10
678.189390
 20
408.250718
 42
0.001787
  0
VERTEX
  8
0
 10
678.321052
 20
429.455831
 42
0.026509
  0
VERTEX
  8
0
 10
677.947049
 20
436.874637
 42
0.223561
  0
VERTEX
  8
0
 10
676.779321
 20
438.808366
 42
0.383761
  0
SEQEND
  0
POLYLINE
  8
0
 66
1
 70
1
  0
VERTEX
  8
0
 10
579.965194
 20
424.434964
 42
0.026276
  0
VERTEX
  8
0
 10
579.396256
 20
423.222875
 42
0.074476
  0
VERTEX
  8
0
 10
579.176944
 20
422.317442
 42
0.121388
  0
VERTEX
  8
0
 10
579.278815
 20
421.655202
 42
0.154350
  0
VERTEX
  8
0
 10
579.675300
 20
421.184964
 42
-0.233073
  0
VERTEX
  8
0
 10
580.179852
 20
420.359836
 42
-0.006158
  0
VERTEX
  8
0
 10
580.525978
 20
415.961493
 42
-0.010066
  0
VERTEX
  8
0
 10
580.794897
 20
410.130344
 42
-0.004046
  0
VERTEX
  8
0
 10
580.937407
 20
402.152399
 42
0.001266
  0
VERTEX
  8
0
 10
581.032525
 20
394.420072
 42
0.001117
  0
VERTEX
  8
0
 10
581.170118
 20
386.359013
 42
0.001122
  0
VERTEX
  8
0
 10
581.326691
 20
379.092998
 42
0.003406
  0
VERTEX
  8
0
 10
581.477922
 20
374.152399
 42
-0.001440
  0
VERTEX
  8
0
 10
581.659729
 20
368.889414
 42
-0.000344
  0
VERTEX
  8
0
 10
581.930759
 20
360.138517
 42
-0.000354
  0
VERTEX
  8
0
 10
582.228015
 20
350.087754
 42
-0.000350
  0
VERTEX
  8
0
 10
582.512165
 20
340.000000
 42
0.000490
  0
VERTEX
  8
0
 10
583.124688
 20
318.469264
 42
0.003144
  0
VERTEX
  8
0
 10
583.513907
 20
307.573909
 42
0.006118
  0
VERTEX
  8
0
 10
583.882039
 20
300.792478
 42
0.016577
  0
VERTEX
  8
0
 10
584.361047
 20
296.000000
 42
-0.027097
  0
VERTEX
  8
0
 10
584.616635
 20
292.754460
 42
-0.000794
  0
VERTEX
  8
0
 10
584.930204
 20
279.015625
 42
-0.001592
  0
VERTEX
  8
0
 10
585.222277
 20
262.834887
 42
-0.001096
  0
VERTEX
  8
0
 10
585.454649
 20
244.500000
 42
0.000900
  0
VERTEX
  8
0
 10
585.679822
 20
226.165107
 42
0.001307
  0
VERTEX
  8
0
 10
585.949965
 20
209.984375
 42
0.000650
  0
VERTEX
  8
0
 10
586.233190
 20
196.242563
 42
0.022291
  0
VERTEX
  8
0
 10
586.449086
 20
193.000000
 42
-0.010627
  0
VERTEX
  8
0
 10
586.674690
 20
190.494648
 42
-0.002292
  0
VERTEX
  8
0
 10
586.952992
 20
186.150000
 42
-0.002391
  0
VERTEX
  8
0
 10
587.228151
 20
181.115631
 42
-0.002282
  0
VERTEX
  8
0
 10
587.459811
 20
176.000000
 42
0.002503
  0
VERTEX
  8
0
 10
587.697095
 20
170.810941
 42
0.002407
  0
VERTEX
  8
0
 10
587.989119
 20
165.556250
 42
0.002381
  0
VERTEX
  8
0
 10
588.290897
 20
160.926687
 42
0.008731
  0
VERTEX
  8
0
 10
588.547093
 20
158.000000
 42
-0.021634
  0
VERTEX
  8
0
 10
588.786451
 20
154.113826
 42
-0.000802
  0
VERTEX
  8
0
 10
589.030975
 20
139.428125
 42
-0.001456
  0
VERTEX
  8
0
 10
589.241777
 20
122.055691
 42
-0.001022
  0
VERTEX
  8
0
 10
589.382148
 20
102.500000
 42
0.001143
  0
VERTEX
  8
0
 10
589.525547
 20
83.172655
 42
0.001783
  0
VERTEX
  8
0
 10
589.746477
 20
66.526562
 42
0.000484
  0
VERTEX
  8
0
 10
590.004850
 20
52.017321
 42
0.062938
  0
VERTEX
  8
0
 10
590.261990
 20
50.250000
 42
-0.033549
  0
VERTEX
  8
0
 10
590.439634
 20
49.387490
 42
-0.059084
  0
VERTEX
  8
0
 10
590.452725
 20
48.660937
 42
-0.089768
  0
VERTEX
  8
0
 10
590.312582
 20
48.171868
 42
-0.285571
  0
VERTEX
  8
0
 10
590.036202
 20
48.000000
 42
0.413443
  0
VERTEX
  8
0
 10
589.550456
 20
47.515530
 42
0.060845
  0
VERTEX
  8
0
 10
589.732809
 20
45.989228
 42
0.052421
  0
VERTEX
  8
0
 10
590.332614
 20
44.321231
 42
0.142778
  0
VERTEX
  8
0
 10
591.164511
 20
43.398326
 42
0.234348
  0
VERTEX
  8
0
 10
592.341555
 20
43.288324
 42
0.115794
  0
VERTEX
  8
0
 10
593.613981
 20
44.154669
 42
0.102692
  0
VERTEX
  8
0
 10
594.473731
 20
45.596118
 42
0.161500
  0
VERTEX
  8
0
 10
594.492165
 20
47.024687
 42
-0.080345
  0
VERTEX
  8
0
 10
594.304742
 20
48.290598
 42
-0.002708
  0
VERTEX
  8
0
 10
594.399871
 20
53.356610
 42
-0.005056
  0
VERTEX
  8
0
 10
594.605648
 20
59.353106
 42
-0.003496
  0
VERTEX
  8
0
 10
594.954514
 20
66.133504
 42
0.001876
  0
VERTEX
  8
0
 10
595.379879
 20
73.909590
 42
0.001198
  0
VERTEX
  8
0
 10
595.818758
 20
82.951717
 42
0.001204
  0
VERTEX
  8
0
 10
596.206374
 20
91.816877
 42
0.002245
  0
VERTEX
  8
0
 10
596.470826
 20
99.000000
 42
-0.001617
  0
VERTEX
  8
0
 10
596.698789
 20
105.410937
 42
-0.001590
  0
VERTEX
  8
0
 10
596.969377
 20
111.856250
 42
-0.001562
  0
VERTEX
  8
0
 10
597.242191
 20
117.504597
 42
-0.006069
  0
VERTEX
  8
0
 10
597.464531
 20
121.000000
 42
0.008034
  0
VERTEX
  8
0
 10
597.708902
 20
125.095829
 42
0.000813
  0
VERTEX
  8
0
 10
598.117569
 20
134.843750
 42
0.001018
  0
VERTEX
  8
0
 10
598.562022
 20
146.462092
 42
0.000811
  0
VERTEX
  8
0
 10
598.995717
 20
159.000000
 42
-0.000184
  0
VERTEX
  8
0
 10
599.427075
 20
171.939847
 42
-0.000189
  0
VERTEX
  8
0
 10
599.864425
 20
184.771875
 42
-0.000183
  0
VERTEX
  8
0
 10
600.252234
 20
195.907251
 42
-0.000797
  0
VERTEX
  8
0
 10
600.494767
 20
202.500000
 42
0.001753
  0
VERTEX
  8
0
 10
600.715059
 20
208.817084
 42
0.000502
  0
VERTEX
  8
0
 10
601.012434
 20
218.612500
 42
0.000505
  0
VERTEX
  8
0
 10
601.325725
 20
229.665658
 42
0.000536
  0
VERTEX
  8
0
 10
601.610241
 20
240.500000
 42
-0.002455
  0
VERTEX
  8
0
 10
601.913451
 20
250.573123
 42
-0.003755
  0
VERTEX
  8
0
 10
602.284806
 20
259.303125
 42
-0.001353
  0
VERTEX
  8
0
 10
602.681092
 20
266.811776
 42
-0.098596
  0
VERTEX
  8
0
 10
602.987017
 20
268.000000
 42
0.089245
  0
VERTEX
  8
0
 10
603.281615
 20
269.062267
 42
0.005169
  0
VERTEX
  8
0
 10
603.559597
 20
272.437500
 42
0.007723
  0
VERTEX
  8
0
 10
603.788114
 20
276.485549
 42
0.005594
  0
VERTEX
  8
0
 10
603.922496
 20
281.000000
 42
-0.002155
  0
VERTEX
  8
0
 10
604.029123
 20
285.659458
 42
-0.002406
  0
VERTEX
  8
0
 10
604.172874
 20
290.150000
 42
-0.002216
  0
VERTEX
  8
0
 10
604.330739
 20
293.975330
 42
-0.012710
  0
VERTEX
  8
0
 10
604.474928
 20
296.000000
 42
0.015664
  0
VERTEX
  8
0
 10
604.634043
 20
298.437328
 42
0.000679
  0
VERTEX
  8
0
 10
604.912188
 20
306.990625
 42
0.001156
  0
VERTEX
  8
0
 10
605.204838
 20
317.135671
 42
0.000824
  0
VERTEX
  8
0
 10
605.487635
 20
328.500000
 42
-0.001494
  0
VERTEX
  8
0
 10
605.781987
 20
339.723392
 42
-0.002307
  0
VERTEX
  8
0
 10
606.110148
 20
349.421875
 42
-0.000720
  0
VERTEX
  8
0
 10
606.445469
 20
357.826330
 42
-0.070084
  0
VERTEX
  8
0
 10
606.660564
 20
359.000000
 42
0.049998
  0
VERTEX
  8
0
 10
606.876712
 20
359.960805
 42
0.005205
  0
VERTEX
  8
0
 10
607.133158
 20
362.262500
 42
0.006421
  0
VERTEX
  8
0
 10
607.375477
 20
365.018268
 42
0.005099
  0
VERTEX
  8
0
 10
607.568565
 20
368.000000
 42
0.000014
  0
VERTEX
  8
0
 10
607.760153
 20
371.515616
 42
0.000007
  0
VERTEX
  8
0
 10
608.001116
 20
375.940625
 42
0.000007
  0
VERTEX
  8
0
 10
608.249686
 20
380.507675
 42
0.000010
  0
VERTEX
  8
0
 10
608.466839
 20
384.500000
 42
0.001358
  0
VERTEX
  8
0
 10
608.699962
 20
389.013597
 42
0.000494
  0
VERTEX
  8
0
 10
609.006549
 20
395.409375
 42
0.000490
  0
VERTEX
  8
0
 10
609.328128
 20
402.405997
 42
0.000586
  0
VERTEX
  8
0
 10
609.616982
 20
409.000000
 42
0.000000
  0
VERTEX
  8
0
 10
610.277779
 20
424.500000
 42
0.000000
  0
VERTEX
  8
0
 10
597.138889
 20
424.170531
 42
-0.003236
  0
VERTEX
  8
0
 10
589.669118
 20
424.031589
 42
-0.026751
  0
VERTEX
  8
0
 10
586.277488
 20
424.171956
 42
-0.072050
  0
VERTEX
  8
0
 10
584.561351
 20
424.589566
 42
-0.306118
  0
VERTEX
  8
0
 10
584.000000
 20
425.420531
 42
0.181213
  0
VERTEX
  8
0
 10
583.558382
 20
426.599021
 42
0.280341
  0
VERTEX
  8
0
 10
582.552423
 20
426.918016
 42
0.144279
  0
VERTEX
  8
0
 10
581.181580
 20
426.121879
 42
0.066765
  0
SEQEND
  0
POLYLINE
  8
0
 66
1
 70
1
  0
VERTEX
  8
0
 10
597.683114
 20
198.812500
 42
-0.054073
  0
VERTEX
  8
0
 10
597.461564
 20
198.395823
 42
-0.470617
  0
VERTEX
  8
0
 10
597.279315
 20
198.378580
 42
-0.168741
  0
VERTEX
  8
0
 10
597.137993
 20
198.670344
 42
-0.018894
  0
VERTEX
  8
0
 10
597.078947
 20
199.416667
 42
-0.028489
  0
VERTEX
  8
0
 10
597.089945
 20
200.112848
 42
-0.077125
  0
VERTEX
  8
0
 10
597.200665
 20
200.592839
 42
-0.208169
  0
VERTEX
  8
0
 10
597.385309
 20
200.775380
 42
-0.296942
  0
VERTEX
  8
0
 10
597.604167
 20
200.729167
 42
-0.126455
  0
VERTEX
  8
0
 10
597.797407
 20
200.402231
 42
-0.060344
  0
VERTEX
  8
0
 10
597.876576
 20
199.916927
 42
-0.054150
  0
VERTEX
  8
0
 10
597.839148
 20
199.359369
 42
-0.051402
  0
SEQEND
  0
POLYLINE
  8
0
 66
1
 70
1
  0
VERTEX
  8
0
 10
423.774237
 20
398.198241
 42
0.044871
  0
VERTEX
  8
0
 10
421.803222
 20
397.851138
 42
0.067430
  0
VERTEX
  8
0
 10
420.196560
 20
397.174400
 42
0.059638
  0
VERTEX
  8
0
 10
418.694347
 20
396.026606
 42
0.027468
  0
VERTEX
  8
0
 10
417.024237
 20
394.213236
 42
0.041279
  0
VERTEX
  8
0
 10
415.026876
 20
391.336268
 42
0.096353
  0
VERTEX
  8
0
 10
414.175401
 20
388.868420
 42
0.095377
  0
VERTEX
  8
0
 10
414.306803
 20
386.245412
 42
0.039892
  0
VERTEX
  8
0
 10
415.424578
 20
382.872124
 42
0.066446
  0
VERTEX
  8
0
 10
417.386007
 20
379.542939
 42
0.033402
  0
VERTEX
  8
0
 10
420.652139
 20
375.907128
 42
0.032836
  0
VERTEX
  8
0
 10
424.233414
 20
372.850760
 42
0.100360
  0
VERTEX
  8
0
 10
427.107975
 20
371.494719
 42
0.104792
  0
VERTEX
  8
0
 10
429.930957
 20
371.404601
 42
0.056075
  0
VERTEX
  8
0
 10
433.290174
 20
372.403167
 42
0.055527
  0
VERTEX
  8
0
 10
436.396299
 20
374.148425
 42
0.092236
  0
VERTEX
  8
0
 10
438.467925
 20
376.310704
 42
0.063231
  0
VERTEX
  8
0
 10
440.061678
 20
379.578709
 42
0.069733
  0
VERTEX
  8
0
 10
440.719798
 20
383.034040
 42
0.068280
  0
VERTEX
  8
0
 10
440.407572
 20
386.598200
 42
0.057042
  0
VERTEX
  8
0
 10
439.147915
 20
390.185585
 42
0.066289
  0
VERTEX
  8
0
 10
436.524870
 20
394.154218
 42
0.093754
  0
VERTEX
  8
0
 10
433.206163
 20
396.769569
 42
0.088465
  0
VERTEX
  8
0
 10
429.009983
 20
398.085958
 42
0.053088
  0
SEQEND
  0
POLYLINE
  8
0
 66
1
 70
1
  0
VERTEX
  8
0
 10
396.025436
 20
372.025436
 42
0.067462
  0
VERTEX
  8
0
 10
394.340297
 20
369.811859
 42
0.089955
  0
VERTEX
  8
0
 10
393.507563
 20
367.431517
 42
0.084884
  0
VERTEX
  8
0
 10
393.539768
 20
364.804457
 42
0.053591
  0
VERTEX
  8
0
 10
394.414839
 20
361.858063
 42
0.063288
  0
VERTEX
  8
0
 10
396.174867
 20
358.799639
 42
0.044872
  0
VERTEX
  8
0
 10
398.842468
 20
355.868000
 42
0.045849
  0
VERTEX
  8
0
 10
401.725098
 20
353.671138
 42
0.140812
  0
VERTEX
  8
0
 10
404.060949
 20
353.000000
 42
0.097717
  0
VERTEX
  8
0
 10
405.005066
 20
353.186291
 42
0.029415
  0
VERTEX
  8
0
 10
406.330152
 20
353.823836
 42
0.028244
  0
VERTEX
  8
0
 10
407.765476
 20
354.731181
 42
0.027260
  0
VERTEX
  8
0
 10
409.107283
 20
355.804550
 42
0.032348
  0
VERTEX
  8
0
 10
410.692289
 20
357.416693
 42
0.069056
  0
VERTEX
  8
0
 10
411.639359
 20
358.880223
 42
0.069519
  0
VERTEX
  8
0
 10
412.148478
 20
360.539950
 42
0.033164
  0
VERTEX
  8
0
 10
412.355156
 20
362.767480
 42
0.034436
  0
VERTEX
  8
0
 10
412.256289
 20
365.085219
 42
0.074069
  0
VERTEX
  8
0
 10
411.798931
 20
366.809010
 42
0.066855
  0
VERTEX
  8
0
 10
410.824556
 20
368.431844
 42
0.023890
  0
VERTEX
  8
0
 10
409.035930
 20
370.462930
 42
0.024486
  0
VERTEX
  8
0
 10
407.122580
 20
372.252762
 42
0.062135
  0
VERTEX
  8
0
 10
405.532513
 20
373.292216
 42
0.071745
  0
VERTEX
  8
0
 10
403.878910
 20
373.824881
 42
0.042121
  0
VERTEX
  8
0
 10
401.803833
 20
374.000000
 42
0.036365
  0
VERTEX
  8
0
 10
400.050769
 20
373.872332
 42
0.046002
  0
VERTEX
  8
0
 10
398.472055
 20
373.490451
 42
0.050420
  0
VERTEX
  8
0
 10
397.115966
 20
372.868471
 42
0.063740
  0
SEQEND
  0
POLYLINE
  8
0
 66
1
 70
1
  0
VERTEX
  8
0
 10
376.078969
 20
353.775854
 42
0.104050
  0
VERTEX
  8
0
 10
374.241123
 20
352.251712
 42
0.071602
  0
VERTEX
  8
0
 10
372.873068
 20
349.906739
 42
0.069865
  0
VERTEX
  8
0
 10
372.195849
 20
347.205699
 42
0.088244
  0
VERTEX
  8
0
 10
372.375379
 20
344.640508
 42
0.171465
  0
VERTEX
  8
0
 10
374.026408
 20
342.150661
 42
0.074334
  0
VERTEX
  8
0
 10
377.567349
 20
340.228901
 42
0.074388
  0
VERTEX
  8
0
 10
381.512185
 20
339.427828
 42
0.172484
  0
VERTEX
  8
0
 10
384.366818
 20
340.278956
 42
0.182591
  0
VERTEX
  8
0
 10
385.619687
 20
342.198684
 42
0.032546
  0
VERTEX
  8
0
 10
386.279769
 20
346.509340
 42
0.032379
  0
VERTEX
  8
0
 10
386.376224
 20
350.864659
 42
0.187798
  0
VERTEX
  8
0
 10
385.468750
 20
352.930706
 42
0.121202
  0
VERTEX
  8
0
 10
383.732846
 20
353.981748
 42
0.053411
  0
VERTEX
  8
0
 10
381.083104
 20
354.509189
 42
0.052649
  0
VERTEX
  8
0
 10
378.288082
 20
354.466044
 42
0.091345
  0
SEQEND
  0
POLYLINE
  8
0
 66
1
 70
1
  0
VERTEX
  8
0
 10
678.364082
 20
348.830410
 42
0.149497
  0
VERTEX
  8
0
 10
675.642894
 20
346.306875
 42
0.096738
  0
VERTEX
  8
0
 10
674.226763
 20
342.217838
 42
0.078763
  0
VERTEX
  8
0
 10
674.312129
 20
337.100792
 42
0.057833
  0
VERTEX
  8
0
 10
675.934312
 20
331.653244
 42
0.068230
  0
VERTEX
  8
0
 10
678.389915
 20
327.567869
 42
0.140450
  0
VERTEX
  8
0
 10
681.412516
 20
325.436062
 42
0.122982
  0
VERTEX
  8
0
 10
685.395459
 20
325.074788
 42
0.046260
  0
VERTEX
  8
0
 10
690.864938
 20
326.452347
 42
0.040581
  0
VERTEX
  8
0
 10
694.855704
 20
328.235959
 42
0.090269
  0
VERTEX
  8
0
 10
697.431550
 20
330.325207
 42
0.098548
  0
VERTEX
  8
0
 10
698.971854
 20
333.060781
 42
0.055197
  0
VERTEX
  8
0
 10
699.755905
 20
336.811451
 42
0.042553
  0
VERTEX
  8
0
 10
699.799205
 20
340.843417
 42
0.100458
  0
VERTEX
  8
0
 10
698.987943
 20
343.723569
 42
0.105865
  0
VERTEX
  8
0
 10
697.151861
 20
345.967589
 42
0.050634
  0
VERTEX
  8
0
 10
694.006402
 20
347.996734
 42
0.064475
  0
VERTEX
  8
0
 10
690.399157
 20
349.284826
 42
0.040260
  0
VERTEX
  8
0
 10
685.945925
 20
349.883901
 42
0.040708
  0
VERTEX
  8
0
 10
681.599871
 20
349.761633
 42
0.085567
  0
SEQEND
  0
POLYLINE
  8
0
 66
1
 70
1
  0
VERTEX
  8
0
 10
689.926598
 20
311.862847
 42
0.110125
  0
VERTEX
  8
0
 10
689.218010
 20
309.322614
 42
0.060400
  0
VERTEX
  8
0
 10
689.438500
 20
306.084521
 42
0.058696
  0
VERTEX
  8
0
 10
690.454715
 20
302.866718
 42
0.082948
  0
VERTEX
  8
0
 10
692.120331
 20
300.371914
 42
0.083819
  0
VERTEX
  8
0
 10
694.646561
 20
298.454009
 42
0.078041
  0
VERTEX
  8
0
 10
697.724964
 20
297.412125
 42
0.081584
  0
VERTEX
  8
0
 10
700.847273
 20
297.387850
 42
0.106653
  0
VERTEX
  8
0
 10
703.504413
 20
298.410934
 42
0.056490
  0
VERTEX
  8
0
 10
704.805872
 20
299.491437
 42
0.101565
  0
VERTEX
  8
0
 10
705.543116
 20
300.660598
 42
0.072226
  0
VERTEX
  8
0
 10
705.901520
 20
302.294284
 42
0.017942
  0
VERTEX
  8
0
 10
706.000000
 20
305.037751
 42
0.017746
  0
VERTEX
  8
0
 10
705.895443
 20
307.982785
 42
0.091545
  0
VERTEX
  8
0
 10
705.487984
 20
309.555178
 42
0.113311
  0
VERTEX
  8
0
 10
704.586415
 20
310.712541
 42
0.033966
  0
VERTEX
  8
0
 10
702.750000
 20
312.010960
 42
0.071956
  0
VERTEX
  8
0
 10
699.156541
 20
313.546655
 42
0.068043
  0
VERTEX
  8
0
 10
695.204678
 20
314.040524
 42
0.078400
  0
VERTEX
  8
0
 10
691.823568
 20
313.466990
 42
0.190996
  0
SEQEND
  0
POLYLINE
  8
0
 66
1
 70
1
  0
VERTEX
  8
0
 10
703.551368
 20
284.053617
 42
0.026489
  0
VERTEX
  8
0
 10
702.108717
 20
282.378644
 42
0.079535
  0
VERTEX
  8
0
 10
701.388077
 20
281.057371
 42
0.091705
  0
VERTEX
  8
0
 10
701.170292
 20
279.687660
 42
0.043071
  0
VERTEX
  8
0
 10
701.370215
 20
277.898924
 42
0.041563
  0
VERTEX
  8
0
 10
702.199021
 20
275.021804
 42
0.112057
  0
VERTEX
  8
0
 10
703.369838
 20
273.260745
 42
0.128162
  0
VERTEX
  8
0
 10
705.079100
 20
272.313735
 42
0.062835
  0
VERTEX
  8
0
 10
707.565741
 20
272.000000
 42
0.101081
  0
VERTEX
  8
0
 10
710.272171
 20
272.552785
 42
0.124283
  0
VERTEX
  8
0
 10
712.318052
 20
274.108890
 42
0.107220
  0
VERTEX
  8
0
 10
713.578069
 20
276.654487
 42
0.061577
  0
VERTEX
  8
0
 10
714.000000
 20
280.067519
 42
0.108823
  0
VERTEX
  8
0
 10
713.089194
 20
284.202764
 42
0.195629
  0
VERTEX
  8
0
 10
710.588440
 20
286.536344
 42
0.191192
  0
VERTEX
  8
0
 10
707.120176
 20
286.489963
 42
0.104280
  0
SEQEND
  0
POLYLINE
  8
0
 66
1
 70
1
  0
VERTEX
  8
0
 10
709.738095
 20
278.309524
 42
-0.035106
  0
VERTEX
  8
0
 10
709.045110
 20
277.707572
 42
-0.053354
  0
VERTEX
  8
0
 10
708.360913
 20
277.298909
 42
-0.069648
  0
VERTEX
  8
0
 10
707.784336
 20
277.125127
 42
-0.239178
  0
VERTEX
  8
0
 10
707.423674
 20
277.242993
 42
-0.229105
  0
VERTEX
  8
0
 10
707.139901
 20
278.058249
 42
-0.148660
  0
VERTEX
  8
0
 10
707.545816
 20
278.990565
 42
-0.111168
  0
VERTEX
  8
0
 10
708.538919
 20
279.735512
 42
-0.105932
  0
VERTEX
  8
0
 10
709.773303
 20
280.000000
 42
-0.023635
  0
VERTEX
  8
0
 10
710.720454
 20
279.955204
 42
-0.392789
  0
VERTEX
  8
0
 10
710.912730
 20
279.739365
 42
-0.185397
  0
VERTEX
  8
0
 10
710.759177
 20
279.363088
 42
-0.007828
  0
SEQEND
  0
POLYLINE
  8
0
 66
1
 70
1
  0
VERTEX
  8
0
 10
564.514903
 20
602.718792
 42
0.022181
  0
VERTEX
  8
0
 10
565.228414
 20
601.692531
 42
0.038508
  0
VERTEX
  8
0
 10
565.919290
 20
600.918766
 42
0.048756
  0
VERTEX
  8
0
 10
566.500135
 20
600.460930
 42
0.352467
  0
VERTEX
  8
0
 10
566.829903
 20
600.496569
 42
0.302271
  0
VERTEX
  8
0
 10
566.901363
 20
600.852161
 42
0.043633
  0
VERTEX
  8
0
 10
566.544656
 20
601.544131
 42
0.037435
  0
VERTEX
  8
0
 10
565.920696
 20
602.385659
 42
0.023253
  0
VERTEX
  8
0
 10
565.073889
 20
603.277778
 42
0.000000
  0
VERTEX
  8
0
 10
562.758890
 20
605.500000
 42
0.000000
  0
SEQEND
  0
ENDSEC
  0
EOF
