<?xml version="1.0" standalone="no"?>
<!DOCTYPE svg PUBLIC "-//W3C//DTD SVG 20010904//EN"
 "http://www.w3.org/TR/2001/REC-SVG-20010904/DTD/svg10.dtd">
<svg version="1.0" xmlns="http://www.w3.org/2000/svg"
 width="211.675907pt" height="291.801643pt" viewBox="0 0 211.675907 291.801643"
 preserveAspectRatio="xMidYMid meet">
<metadata>
Created by potrace 1.16, written by Peter Selinger 2001-2019
</metadata>
<g transform="translate(-92.620251,339.876912) scale(0.100000,-0.100000)"
fill="#000000" stroke="none">
<path d="M1560 3393 c0 -4 7 -48 15 -98 18 -110 18 -105 1 -105 -9 0 -17 17
-21 53 -10 72 -23 103 -37 89 -7 -7 -8 -33 -3 -76 3 -36 6 -69 6 -72 0 -4 -23
-15 -51 -25 -62 -22 -140 -66 -140 -79 0 -21 215 -4 335 26 73 18 191 71 181
82 -4 4 -56 9 -114 12 l-107 5 -15 95 c-12 75 -19 95 -33 98 -9 2 -17 0 -17
-5z"/>
<path d="M1977 3099 c-10 -6 -68 -32 -130 -59 -159 -68 -247 -85 -438 -84
l-156 0 -21 -30 -22 -31 22 -7 c47 -13 315 -8 399 7 184 34 332 84 412 138 35
24 34 31 -7 56 -38 24 -35 24 -59 10z"/>
<path d="M2005 2999 c-38 -21 -114 -53 -168 -70 l-98 -32 24 -21 c79 -68 73
-185 -13 -243 -61 -42 -154 -22 -195 41 -22 34 -23 128 -1 160 9 14 16 27 16
30 0 2 -51 2 -112 -1 -63 -3 -144 -1 -183 5 -79 13 -75 15 -102 -68 -24 -74
-26 -282 -3 -304 24 -25 166 -56 280 -63 254 -14 515 54 694 181 78 56 126
109 126 138 0 33 -84 197 -126 246 -20 23 -44 41 -53 41 -9 -1 -47 -19 -86
-40z m39 -220 c19 -15 26 -30 26 -55 0 -36 -28 -74 -56 -74 -28 0 -73 33 -85
62 -10 24 -9 32 7 49 37 41 71 47 108 18z"/>
<path d="M2140 2551 c-14 -4 -47 -17 -75 -30 -99 -45 -281 -110 -344 -121 -35
-6 -125 -10 -201 -9 l-136 3 -50 -36 c-67 -49 -196 -185 -238 -251 -125 -195
-171 -358 -170 -592 1 -175 24 -280 92 -426 56 -122 111 -199 221 -309 148
-147 320 -238 531 -282 133 -28 353 -21 491 15 380 99 678 410 766 801 20 87
22 280 4 391 -13 81 -58 219 -93 290 -68 134 -194 283 -318 374 -151 113 -396
205 -480 182z m192 -77 c256 -91 467 -286 584 -539 53 -114 51 -124 -22 -161
-33 -17 -71 -33 -83 -37 -23 -6 -23 -6 -16 -144 4 -76 12 -144 17 -150 6 -7
27 -13 48 -13 20 0 58 -3 84 -6 45 -7 46 -7 46 -44 0 -48 -41 -191 -79 -274
-58 -128 -187 -286 -314 -384 -58 -44 -239 -142 -263 -142 -7 0 -27 35 -46 78
-32 75 -33 80 -33 219 l0 142 -60 34 c-33 20 -118 69 -189 111 -72 42 -132 76
-135 76 -3 0 -19 -23 -36 -51 -35 -59 -116 -142 -171 -176 -169 -103 -377 -72
-524 79 -113 116 -165 255 -164 443 0 129 14 196 61 289 87 171 224 271 388
283 89 7 155 -11 248 -67 l68 -41 122 78 c67 42 149 96 182 118 l60 41 -3 74
c-2 72 11 168 29 201 8 15 14 15 69 3 33 -8 92 -26 132 -40z"/>
<path d="M2248 2433 c-42 -49 -51 -133 -22 -217 l16 -48 83 7 c79 7 83 6 99
-16 9 -13 16 -26 16 -29 0 -4 -27 -19 -60 -35 -33 -16 -60 -32 -60 -36 0 -3
29 -36 65 -72 81 -82 183 -136 273 -144 l60 -6 -5 62 -6 61 31 0 c27 0 32 -5
47 -45 23 -59 36 -69 69 -54 14 7 26 16 26 21 0 15 -61 131 -106 201 -98 151
-243 267 -426 341 -79 31 -81 31 -100 9z"/>
<path d="M1941 2107 c-96 -62 -176 -117 -178 -123 -2 -5 15 -34 37 -64 88
-118 124 -232 124 -390 0 -81 -5 -122 -23 -179 -12 -40 -20 -79 -17 -86 2 -7
71 -52 153 -100 81 -48 165 -98 186 -112 21 -13 41 -22 46 -19 4 3 13 22 20
43 7 21 31 66 54 99 87 127 228 221 373 248 l69 12 -3 105 c-1 57 -5 123 -8
145 l-5 42 -57 7 c-245 30 -437 177 -566 433 -14 28 -27 52 -29 52 -1 0 -80
-51 -176 -113z"/>
<path d="M1326 1995 c-60 -17 -132 -61 -160 -98 -20 -27 -20 -29 -3 -76 20
-58 21 -80 3 -104 -14 -18 -16 -18 -55 3 l-41 21 -12 -28 c-8 -18 -12 -79 -12
-168 1 -156 16 -218 73 -285 l28 -34 27 52 c14 28 31 52 36 52 5 0 17 -11 25
-24 15 -23 15 -76 -1 -153 -11 -56 177 -89 292 -50 52 18 126 73 145 109 9 17
2 28 -62 87 l-72 66 17 33 c19 37 15 37 121 -7 39 -17 74 -26 79 -21 27 27 34
234 11 325 -17 64 -58 145 -86 171 -16 15 -22 13 -78 -25 -68 -46 -81 -49
-105 -22 -17 18 -16 22 19 74 46 70 43 88 -15 104 -59 15 -114 14 -174 -2z"/>
<path d="M2736 1322 c-2 -4 2 -37 9 -72 21 -96 19 -115 -10 -128 -14 -7 -30
-12 -35 -12 -5 0 -28 34 -51 75 -22 41 -45 75 -50 75 -5 0 -40 -30 -77 -67
-95 -96 -152 -223 -152 -338 0 -39 8 -43 100 -47 54 -3 55 -4 58 -35 3 -30 0
-32 -53 -52 -31 -12 -60 -21 -65 -21 -16 0 -11 -26 9 -44 17 -16 22 -14 95 35
198 132 323 297 396 519 29 89 30 95 14 107 -20 14 -179 18 -188 5z"/>
</g>
</svg>
