<?xml version="1.0" standalone="no"?>
<!DOCTYPE svg PUBLIC "-//W3C//DTD SVG 20010904//EN"
 "http://www.w3.org/TR/2001/REC-SVG-20010904/DTD/svg10.dtd">
<svg version="1.0" xmlns="http://www.w3.org/2000/svg"
 width="440.017157pt" height="438.114739pt" viewBox="0 0 440.017157 438.114739"
 preserveAspectRatio="xMidYMid meet">
<metadata>
Created by potrace 1.16, written by Peter Selinger 2001-2019
</metadata>
<g transform="translate(-2.027433,443.000000) scale(0.100000,-0.100000)"
fill="#000000" stroke="none">
<path d="M2504 4366 c-282 -184 -321 -218 -386 -339 -23 -44 -52 -89 -63 -100
-25 -24 -133 -87 -150 -87 -13 0 -36 57 -65 160 -14 50 -18 55 -46 58 -46 4
-139 -84 -188 -178 -21 -38 -40 -70 -44 -70 -3 0 -44 16 -91 36 -60 26 -105
38 -153 42 l-68 5 -54 76 c-72 103 -191 213 -274 253 -60 29 -78 33 -175 36
l-108 4 -50 -33 c-95 -64 -147 -181 -154 -344 l-5 -99 -52 -42 c-101 -80 -157
-182 -158 -284 0 -55 6 -78 35 -139 l36 -74 -11 -79 c-33 -237 82 -359 363
-384 43 -4 80 -10 82 -15 13 -19 -11 -39 -60 -49 -29 -6 -61 -20 -70 -30 -17
-18 -17 -23 -1 -85 9 -35 34 -107 57 -160 l41 -95 -17 -50 c-22 -68 -38 -82
-124 -115 -144 -55 -209 -104 -197 -150 8 -30 153 -185 201 -215 32 -20 33
-23 42 -118 l10 -97 -35 -37 c-20 -21 -41 -38 -47 -38 -6 0 -25 29 -43 65 -39
79 -69 103 -112 85 -28 -12 -97 -85 -135 -143 -12 -19 -47 -42 -99 -66 -45
-21 -89 -45 -99 -55 -41 -42 -7 -118 101 -223 78 -76 192 -159 249 -182 23 -9
34 -21 39 -44 3 -18 21 -65 40 -106 19 -41 34 -80 34 -87 0 -7 -15 -25 -32
-40 -54 -45 -110 -125 -155 -220 -44 -91 -92 -255 -93 -310 0 -37 26 -64 72
-73 27 -5 34 -12 36 -34 5 -44 35 -49 268 -48 l212 1 151 49 c188 62 295 117
376 196 82 80 105 130 105 227 0 45 -6 90 -15 111 -8 20 -15 40 -15 44 0 4
100 6 222 5 194 -3 345 6 391 24 9 3 11 -28 9 -115 l-4 -120 46 -49 c26 -27
68 -60 94 -73 26 -13 49 -27 52 -31 5 -7 210 -84 247 -94 190 -48 361 -68 519
-62 95 3 107 6 122 26 14 18 24 21 47 16 42 -8 83 10 91 41 4 18 13 25 30 25
40 0 64 33 64 88 0 126 -96 310 -231 446 -48 47 -58 69 -40 81 5 3 24 42 42
88 27 70 32 95 32 174 1 83 -2 97 -31 155 -30 61 -104 143 -175 193 l-28 20
13 65 13 65 40 -5 c22 -3 117 -5 210 -5 170 0 170 0 278 38 60 20 121 37 135
37 15 0 41 4 58 9 21 6 41 4 63 -5 19 -8 57 -14 86 -14 47 0 60 5 111 43 70
52 88 71 106 114 7 19 39 52 77 80 47 35 73 64 98 108 18 33 33 69 33 80 0 11
12 43 27 70 32 61 44 188 22 251 -9 26 -12 76 -10 147 2 93 0 113 -18 150 -25
50 -51 80 -110 126 -42 33 -43 36 -38 79 3 24 14 56 26 71 100 126 117 200 61
269 -26 33 -33 51 -35 96 -1 32 -10 66 -20 82 -17 26 -17 27 1 19 11 -5 35
-10 56 -13 51 -6 67 22 75 132 l6 87 41 31 c102 79 122 110 96 157 -5 10 -47
35 -94 56 -92 41 -90 39 -150 177 -18 42 -31 59 -50 64 -42 10 -65 -5 -117
-79 -28 -40 -56 -75 -63 -79 -7 -4 -48 -11 -92 -17 -104 -13 -112 -17 -123
-58 -9 -32 -7 -39 35 -96 25 -34 47 -72 50 -84 4 -13 -1 -54 -11 -92 -23 -93
-18 -132 18 -149 26 -12 38 -11 109 12 l81 26 43 -20 c24 -10 44 -22 44 -25 0
-3 -9 -1 -19 5 -29 15 -108 12 -141 -5 -42 -21 -81 -78 -87 -125 -5 -34 -13
-45 -56 -76 l-50 -36 6 -64 c3 -46 13 -78 37 -120 27 -49 31 -63 25 -100 -3
-24 -12 -44 -18 -44 -7 0 -43 -16 -82 -36 -40 -20 -92 -38 -120 -41 l-50 -5
-1 108 c0 91 -5 121 -27 182 l-26 74 40 55 c117 157 149 332 90 482 -28 70
-97 168 -123 174 -21 6 -23 4 -92 -88 -50 -69 -154 -170 -163 -161 -4 3 3 19
15 36 23 31 21 51 -8 85 -12 13 -19 46 -24 100 -4 55 -14 96 -31 131 -14 28
-25 56 -25 62 0 14 92 88 120 97 34 11 36 46 4 72 -35 28 -120 61 -194 75 -90
17 -253 4 -339 -26 -41 -14 -75 -25 -76 -23 -1 1 -10 25 -20 52 -19 52 -32 75
-45 75 -4 0 -52 -29 -106 -64z m76 -156 c0 -44 2 -80 4 -80 3 0 25 14 50 30
127 86 273 122 420 102 44 -6 82 -16 87 -23 5 -8 -16 -36 -61 -81 -91 -92
-167 -235 -112 -213 9 4 45 18 79 31 71 27 71 28 80 -71 l5 -60 -88 3 c-49 2
-114 -2 -144 -8 -46 -10 -66 -9 -118 4 -132 35 -319 31 -437 -9 -41 -15 -47
-14 -82 3 -21 11 -53 23 -70 27 -18 3 -33 12 -33 19 0 7 14 42 32 77 37 73
150 192 213 224 22 11 64 39 95 62 30 23 61 42 68 43 8 0 12 -22 12 -80z
m-1761 -70 c40 -11 92 -30 115 -42 57 -29 177 -155 226 -237 44 -73 55 -81
130 -81 110 -1 201 -42 282 -127 104 -109 68 -298 -74 -386 -28 -17 -28 -17
-70 22 -50 45 -109 78 -156 87 -33 6 -34 8 -29 45 7 53 -9 49 -35 -8 -18 -39
-22 -67 -23 -154 0 -93 3 -110 20 -129 18 -20 27 -22 80 -17 33 3 69 9 80 13
16 6 14 0 -10 -25 -114 -124 -343 -242 -466 -240 -52 0 -53 1 -31 16 31 22 28
49 -20 144 -38 77 -40 84 -24 93 45 27 66 49 66 69 0 21 -22 128 -35 172 -6
19 -2 20 73 17 l78 -4 16 39 c33 78 61 199 59 258 -2 50 -22 135 -32 135 -5 0
-9 -22 -9 -49 0 -77 1 -76 -98 -73 -106 3 -133 -10 -188 -93 -36 -54 -38 -55
-57 -38 -37 33 -100 126 -121 177 -16 40 -20 74 -21 156 0 93 3 111 26 161 25
54 61 88 110 108 36 14 57 13 138 -9z m3294 -18 c9 -9 30 -51 46 -92 17 -40
36 -79 43 -85 7 -7 45 -25 83 -40 39 -16 78 -36 88 -45 17 -16 16 -18 -27 -56
-25 -21 -61 -50 -81 -64 -39 -28 -41 -34 -50 -142 -5 -56 -11 -78 -20 -78 -27
0 -68 21 -108 55 -48 42 -74 43 -144 11 -29 -14 -67 -26 -85 -28 l-33 -3 4 50
c2 27 12 71 22 98 22 55 18 66 -47 157 -19 26 -34 54 -34 63 0 17 41 32 115
42 75 9 80 12 111 58 33 51 87 117 95 117 3 0 13 -8 22 -18z m-2342 -245 c14
-57 54 -122 106 -178 42 -45 42 -46 36 -99 -5 -43 -3 -55 11 -66 16 -11 16
-15 -8 -62 -22 -44 -33 -54 -92 -81 -36 -17 -70 -31 -75 -31 -19 0 -40 51 -49
123 -6 46 -20 97 -36 128 -25 50 -25 55 -14 113 18 97 78 215 101 200 5 -3 13
-24 20 -47z m466 -77 c61 -27 110 -66 145 -118 27 -39 30 -50 25 -94 -4 -28
-8 -52 -10 -54 -2 -2 -39 13 -83 33 -72 34 -88 38 -180 41 -56 2 -118 -1 -138
-6 -31 -9 -36 -8 -36 6 0 9 11 37 25 60 25 45 25 62 -1 62 -8 0 -14 4 -14 8 0
13 63 70 90 81 34 14 124 5 177 -19z m871 -10 c23 -10 42 -23 42 -29 0 -5 -12
-18 -27 -29 l-27 -19 47 -63 c26 -34 47 -73 47 -86 0 -13 -2 -24 -4 -24 -2 0
-36 14 -77 31 -59 24 -90 31 -154 32 -75 2 -85 -1 -167 -40 -97 -47 -98 -47
-98 44 0 41 3 45 76 103 41 33 76 60 78 60 1 0 26 9 56 20 71 25 153 25 208 0z
m400 -26 c7 -21 16 -75 19 -120 7 -99 -17 -182 -79 -275 -55 -83 -75 -90 -135
-53 -47 29 -54 39 -87 117 -16 38 -16 39 9 59 21 16 25 25 19 52 -5 31 -2 36
59 84 36 28 86 81 112 117 26 36 52 64 58 62 6 -2 17 -21 25 -43z m-2928 -174
c25 -35 78 -92 118 -129 l73 -65 -58 -26 c-67 -31 -108 -74 -123 -130 -6 -22
-15 -42 -20 -45 -13 -8 -98 38 -141 77 -62 56 -89 104 -89 161 0 104 35 172
117 226 55 37 42 44 123 -69z m423 31 c14 -14 -3 -104 -30 -160 -17 -34 -21
-36 -58 -33 -43 4 -145 46 -156 64 -16 25 43 98 106 132 34 18 118 17 138 -3z
m1249 -77 c26 -8 68 -26 95 -39 47 -23 47 -23 23 -33 -19 -7 -31 -5 -52 9 -14
11 -35 19 -46 19 -27 0 -72 -55 -72 -87 0 -24 -2 -25 -37 -20 -20 4 -40 12
-45 19 -11 19 -10 116 3 140 12 22 42 20 131 -8z m786 -37 c5 -19 7 -51 3 -73
-6 -37 -9 -39 -56 -51 -91 -21 -98 -19 -115 34 -21 65 -39 74 -94 43 -37 -20
-47 -22 -60 -11 -9 8 -16 17 -16 21 0 5 35 22 78 39 64 25 91 30 164 31 l87 0
9 -33z m1027 -62 c27 -26 33 -72 15 -106 -11 -20 -65 -26 -129 -13 -28 6 -31
10 -31 46 0 40 14 77 34 90 25 17 87 8 111 -17z m-1441 -11 c48 -17 100 -60
147 -123 l25 -34 64 22 c98 34 229 39 316 13 112 -34 179 -87 230 -182 23 -44
26 -210 5 -285 -19 -67 -138 -187 -228 -230 l-62 -30 -36 -90 c-19 -49 -58
-123 -85 -164 -49 -73 -50 -75 -50 -153 0 -58 -5 -89 -19 -117 -32 -63 -41
-66 -171 -66 -116 0 -117 0 -199 41 l-82 41 -52 -24 c-113 -53 -205 -64 -295
-38 -90 27 -125 102 -97 204 l17 58 -41 86 c-23 46 -52 127 -65 178 -23 93
-24 94 -72 127 -82 54 -162 141 -197 212 -28 57 -31 75 -32 150 0 75 4 91 29
136 37 68 107 136 180 173 52 28 67 31 148 31 74 0 106 -6 181 -30 l91 -31 55
55 c31 30 70 62 86 70 40 21 148 21 209 0z m-1818 -139 c6 -22 14 -56 17 -77
5 -36 5 -36 -38 -47 -48 -12 -98 -14 -132 -5 -42 11 -24 82 34 135 33 31 50
39 83 36 19 -2 27 -10 36 -42z m517 24 c28 -14 76 -59 88 -81 8 -14 2 -21 -30
-38 -22 -11 -61 -21 -87 -23 l-47 -2 -13 55 c-22 93 -20 100 27 100 22 0 50
-5 62 -11z m306 -49 c-13 -16 -25 -28 -27 -25 -5 5 37 55 45 55 2 0 -6 -13
-18 -30z m2441 -45 c0 -36 -20 -59 -47 -53 -13 3 -18 12 -17 36 3 50 10 60 38
55 22 -4 26 -11 26 -38z m-3625 -41 c57 -30 150 -62 205 -69 97 -13 100 -19
36 -79 -53 -49 -56 -54 -56 -100 l0 -48 -41 7 c-57 10 -123 41 -164 77 -41 36
-60 93 -50 156 12 79 18 84 70 56z m3559 -106 c31 -43 12 -51 -43 -17 -27 16
-31 23 -20 30 24 15 47 10 63 -13z m-39 -45 c45 -28 48 -35 36 -85 l-6 -27
-47 31 c-41 27 -48 37 -48 63 0 28 6 45 16 45 2 0 24 -12 49 -27z m-3181 -22
c27 -29 39 -83 22 -99 -19 -19 -102 -28 -120 -13 -19 16 -4 65 32 104 30 32
43 34 66 8z m710 3 c19 -18 20 -25 5 -58 -29 -62 -114 -16 -89 48 7 20 17 26
39 26 16 0 37 -7 45 -16z m2451 -85 l40 -31 -48 5 c-57 6 -58 6 -50 35 7 28
10 28 58 -9z m-2307 -96 l32 -56 -31 -48 c-43 -67 -128 -142 -202 -179 -76
-37 -212 -65 -249 -51 -26 10 -78 69 -78 88 0 5 37 20 82 32 141 37 268 115
360 220 23 28 45 50 48 50 3 0 20 -25 38 -56z m2357 2 c33 -9 74 -27 91 -40
46 -35 84 -117 84 -182 0 -29 -2 -53 -5 -53 -3 0 -30 14 -60 31 -110 62 -271
59 -378 -7 -56 -34 -61 -36 -73 -20 -20 28 -26 90 -14 137 31 116 192 176 355
134z m-2805 -66 c0 -55 -52 -79 -92 -42 -24 22 -23 39 7 69 24 24 26 24 55 9
18 -10 30 -23 30 -36z m2396 -21 c-25 -88 -19 -167 18 -221 14 -20 22 -38 18
-41 -3 -3 -33 -6 -67 -6 -46 0 -74 -6 -111 -25 -27 -14 -52 -25 -55 -25 -10 0
-29 83 -29 123 0 19 14 62 31 96 38 76 99 121 162 121 36 0 39 -2 33 -22z
m-2742 -14 c24 -35 15 -53 -12 -26 -22 22 -30 52 -13 52 5 0 16 -12 25 -26z
m63 -102 c8 -5 -4 -27 -40 -72 -29 -36 -61 -84 -71 -108 -18 -39 -20 -41 -36
-27 -24 22 -71 129 -77 176 l-6 39 109 0 c60 0 114 -4 121 -8z m3090 -56 c115
-25 215 -146 200 -241 -3 -19 -22 -66 -41 -106 -20 -40 -36 -80 -36 -90 0 -29
-30 -90 -57 -115 -33 -30 -54 -30 -106 0 -55 33 -147 56 -218 56 -62 0 -69 6
-69 64 0 81 106 160 215 161 33 0 75 -3 93 -7 44 -10 32 8 -22 33 -55 25 -127
24 -203 -3 -35 -12 -66 -19 -69 -15 -4 4 -9 29 -12 57 -15 158 127 248 325
206z m-2279 -8 c18 -18 14 -56 -7 -68 -57 -30 -97 17 -58 68 12 15 49 16 65 0z
m172 -30 c6 -24 25 -81 42 -127 l32 -84 -40 -31 c-76 -60 -156 -141 -211 -215
-86 -113 -223 -391 -223 -450 0 -15 19 -70 42 -122 41 -94 42 -95 42 -219 l1
-125 -46 -90 c-62 -119 -128 -206 -206 -268 -34 -28 -63 -55 -63 -61 0 -6 10
-27 21 -46 49 -79 66 -194 40 -272 -27 -81 -176 -177 -379 -244 -102 -34 -107
-33 -121 21 -14 56 -67 112 -116 121 -37 7 -42 13 -23 32 20 20 1 25 -27 6
-25 -16 -28 -16 -61 -1 -19 10 -43 17 -54 17 -30 0 -50 11 -50 27 0 11 -3 13
-13 5 -15 -13 -94 6 -101 24 -16 42 173 274 224 274 9 0 33 -9 55 -20 45 -23
54 -20 31 12 -9 13 -43 59 -76 103 -36 49 -67 104 -80 145 -40 119 -37 295 7
387 73 154 268 303 458 349 95 23 124 39 131 72 18 84 81 261 125 353 l51 107
58 6 c87 10 220 50 275 82 99 58 235 206 235 256 0 31 9 20 20 -24z m1388 -18
c2 -14 -4 -34 -12 -45 -14 -19 -15 -19 -35 -1 -26 23 -27 51 -3 65 26 16 47 8
50 -19z m319 -94 c0 0 4 -17 8 -37 6 -32 3 -39 -25 -62 -17 -15 -42 -27 -55
-27 -27 0 -85 51 -85 74 0 38 123 79 157 52z m-2192 -20 c28 -28 23 -64 -11
-76 -52 -19 -82 30 -48 78 19 28 29 28 59 -2z m-275 -46 c12 -23 12 -24 -3
-11 -10 7 -17 20 -17 29 0 18 3 16 20 -18z m1994 -66 c19 -18 21 -55 4 -72 -7
-7 -24 -12 -38 -12 -33 0 -50 17 -50 50 0 14 5 31 12 38 17 17 54 15 72 -4z
m-2009 -4 c3 -5 17 -10 31 -10 28 0 75 -22 92 -43 10 -11 6 -27 -19 -78 -38
-77 -99 -240 -124 -330 l-17 -67 -42 -5 c-22 -3 -51 -9 -63 -13 -22 -6 -23 -4
-23 44 0 94 56 325 109 449 25 59 42 76 56 53z m866 -51 c-23 -66 -1 -190 41
-237 66 -72 167 -80 342 -26 l117 36 90 -37 c68 -28 109 -37 175 -42 l86 -6
-7 -61 c-4 -34 -8 -62 -9 -62 -12 -11 -236 -44 -294 -44 -107 0 -292 33 -432
76 -125 39 -370 150 -370 168 0 32 252 287 268 272 2 -3 -1 -19 -7 -37z m1666
24 c-3 -10 -13 -38 -22 -63 -16 -43 -16 -76 0 -140 6 -24 6 -24 -19 5 -32 36
-86 141 -86 166 0 12 6 16 19 12 10 -2 36 4 57 16 48 25 58 26 51 4z m-255
-20 c37 -33 11 -81 -37 -69 -33 8 -41 30 -25 62 16 28 36 31 62 7z m-2736
-155 c-3 -24 -9 -82 -13 -130 -3 -49 -9 -88 -13 -88 -16 0 -126 89 -148 120
l-24 32 31 30 c29 28 129 77 160 78 10 0 12 -10 7 -42z m2616 -79 c32 -61 62
-100 121 -155 l79 -74 -38 -16 c-74 -31 -193 -47 -303 -41 -57 3 -108 10 -114
16 -6 6 14 37 55 85 44 50 79 107 109 171 24 52 45 95 46 95 1 0 21 -37 45
-81z m593 7 c30 -13 35 -20 35 -47 0 -31 -1 -31 -37 -24 -48 9 -53 12 -53 35
0 20 10 50 16 50 3 0 20 -7 39 -14z m-861 -22 c17 -43 -5 -74 -53 -74 -34 0
-34 20 0 56 37 38 44 41 53 18z m521 -7 c43 -37 4 -90 -49 -66 -34 16 -38 33
-15 63 25 32 31 32 64 3z m-1691 -82 c230 -113 382 -152 631 -162 136 -5 214
5 339 43 18 6 19 2 13 -92 -6 -101 -38 -244 -77 -347 -28 -75 -106 -191 -178
-266 l-57 -59 -90 -8 c-248 -23 -509 8 -712 84 -82 30 -80 26 -62 130 13 73 0
182 -31 265 -10 26 -16 47 -14 47 3 0 26 -11 52 -24 69 -35 314 -115 417 -138
134 -29 414 -36 524 -14 84 17 166 45 157 53 -2 3 -37 -2 -78 -11 -167 -36
-384 -38 -568 -5 -151 27 -502 160 -543 206 -17 20 -17 23 7 86 27 71 127 277
134 277 3 0 64 -29 136 -65z m1997 -35 c8 0 24 -6 34 -14 19 -14 19 -15 1 -35
-36 -40 -166 -21 -166 24 0 8 12 17 28 21 15 3 32 7 37 9 6 2 19 2 30 0 11 -3
27 -5 36 -5z m-3391 -377 c11 -30 20 -62 20 -72 0 -38 -93 -50 -152 -19 -37
19 -14 101 45 166 l21 22 23 -22 c12 -12 32 -45 43 -75z m2467 -125 c40 -39
77 -86 95 -122 28 -56 30 -66 25 -140 -5 -87 -24 -139 -83 -232 l-34 -53 47
-36 c59 -45 181 -163 195 -188 7 -14 5 -23 -8 -38 -17 -18 -17 -18 -49 1 -38
24 -46 25 -39 6 4 -10 -6 -21 -28 -32 -18 -9 -43 -25 -56 -35 -17 -13 -30 -15
-52 -9 -23 7 -32 5 -39 -7 -5 -9 -24 -21 -42 -27 -43 -14 -86 -77 -95 -139 -5
-37 -10 -47 -23 -43 -9 3 -68 17 -131 32 -199 46 -346 111 -412 181 -55 58
-57 170 -5 272 19 39 29 47 82 65 130 46 289 157 381 264 93 109 144 197 189
330 7 19 13 16 82 -50z m-2631 1 c53 -27 66 -30 127 -27 l68 4 -6 -26 c-18
-67 -35 -158 -35 -182 0 -16 -3 -28 -7 -28 -3 0 -31 14 -62 31 -134 76 -237
180 -214 217 9 16 49 42 64 42 4 0 33 -14 65 -31z m1449 -311 c151 -56 250
-72 450 -73 99 0 207 4 240 8 l60 8 -80 -50 c-93 -60 -149 -82 -302 -122 -143
-37 -231 -45 -308 -29 -92 19 -276 81 -281 95 -3 7 7 30 21 51 15 22 40 65 57
97 23 46 33 57 46 52 9 -4 53 -21 97 -37z m-169 -219 c32 -12 88 -30 124 -40
l65 -19 -125 5 c-69 3 -144 8 -168 11 l-43 6 27 29 c33 35 43 35 120 8z m1665
-354 c12 -27 19 -61 17 -83 l-3 -37 -37 75 c-20 41 -34 78 -32 82 13 20 37 4
55 -37z m-98 -3 c20 -22 44 -88 49 -133 3 -34 3 -34 -44 -37 -45 -3 -48 -2
-67 35 -11 21 -31 53 -45 72 -21 28 -23 37 -14 49 29 34 96 42 121 14z m-156
-80 c37 -55 58 -121 44 -135 -16 -16 -169 -14 -199 2 -46 24 -19 99 52 145 51
33 74 30 103 -12z m-2547 -27 c5 -3 -7 -35 -26 -72 -19 -38 -35 -72 -37 -78
-2 -6 -11 -4 -21 5 -21 16 -17 74 8 135 14 32 17 34 42 25 15 -6 30 -13 34
-15z m164 -55 c5 -5 -7 -44 -30 -95 l-39 -86 -50 3 -50 3 -2 40 c-3 56 26 137
55 151 24 12 98 2 116 -16z m163 -82 c13 -13 26 -38 29 -56 l7 -32 -92 0 c-71
0 -93 3 -97 15 -8 19 12 78 37 109 l20 26 37 -19 c20 -11 47 -30 59 -43z"/>
<path d="M2341 3288 c-10 -27 0 -33 29 -18 19 10 26 7 56 -25 24 -26 34 -32
34 -20 0 24 -64 85 -89 85 -13 0 -25 -9 -30 -22z"/>
<path d="M2633 3288 c-20 -23 -37 -58 -27 -58 3 0 18 9 33 21 27 20 30 20 55
4 24 -16 26 -16 26 -1 0 19 -35 56 -53 56 -8 0 -23 -10 -34 -22z"/>
<path d="M1920 2984 c0 -4 13 -30 29 -58 78 -138 173 -403 207 -578 9 -47 20
-91 24 -98 5 -8 46 -8 161 1 169 12 300 7 427 -17 46 -9 85 -14 88 -11 3 3 12
48 19 100 32 208 120 437 189 490 41 32 61 60 70 100 9 37 -8 34 -46 -9 -17
-19 -54 -47 -82 -62 -102 -54 -307 -29 -419 51 l-47 33 -67 -33 c-83 -41 -164
-56 -263 -51 -87 5 -145 31 -228 104 -49 43 -62 51 -62 38z m359 -210 c8 -7
-29 -53 -49 -59 -23 -7 -41 4 -72 48 l-21 30 69 -8 c38 -4 71 -9 73 -11z m536
-11 c25 -3 45 -8 45 -10 0 -12 -54 -73 -64 -73 -12 0 -76 81 -76 95 0 4 11 4
25 1 14 -4 45 -9 70 -13z m-210 -218 c69 -18 169 -63 204 -92 21 -17 24 -27
22 -83 -2 -79 -14 -95 -38 -50 -30 54 -93 130 -108 130 -8 0 -18 -6 -22 -14
-4 -8 -30 -37 -57 -66 -38 -41 -57 -53 -87 -57 -36 -5 -44 -1 -111 56 -39 33
-79 61 -87 61 -9 0 -34 -25 -55 -55 -22 -30 -43 -55 -47 -55 -7 0 -29 110 -29
147 0 21 55 51 145 77 66 19 197 20 270 1z m92 -172 c7 -10 23 -31 35 -47 l21
-29 -61 5 c-34 2 -65 7 -68 11 -6 5 44 74 55 76 2 1 10 -7 18 -16z m-319 -37
l24 -21 -24 -6 c-29 -9 -98 -11 -98 -4 0 4 7 19 16 36 17 34 41 33 82 -5z"/>
</g>
</svg>
