<?xml version="1.0" standalone="no"?>
<!DOCTYPE svg PUBLIC "-//W3C//DTD SVG 20010904//EN"
 "http://www.w3.org/TR/2001/REC-SVG-20010904/DTD/svg10.dtd">
<svg version="1.0" xmlns="http://www.w3.org/2000/svg"
 width="139.257115pt" height="227.242044pt" viewBox="0 0 139.257115 227.242044"
 preserveAspectRatio="xMidYMid meet">
<metadata>
Created by potrace 1.16, written by Peter Selinger 2001-2019
</metadata>
<g transform="translate(-37.463228,278.877847) scale(0.100000,-0.100000)"
fill="#000000" stroke="none">
<path d="M1317 2783 c-2 -5 -7 -19 -10 -33 -3 -14 -27 -49 -52 -79 -52 -61
-75 -109 -75 -156 l0 -33 -62 20 c-84 26 -146 19 -252 -29 l-84 -38 5 -70 c9
-133 22 -161 121 -256 101 -98 161 -128 275 -137 75 -5 173 16 222 48 28 18
29 18 66 -1 68 -34 106 -108 144 -279 16 -72 33 -463 19 -432 -3 7 -23 22 -45
32 -25 13 -39 27 -39 40 0 11 -7 38 -16 60 -14 34 -21 40 -45 40 -23 0 -30 5
-34 28 -3 15 -18 52 -34 82 -38 76 -98 113 -192 118 -64 4 -68 6 -80 34 -30
72 -164 173 -293 220 -106 39 -108 39 -118 0 -8 -31 -12 -33 -36 -27 -55 14
-133 24 -147 19 -21 -8 -24 -27 -14 -75 16 -71 67 -149 158 -241 l86 -86 -23
-34 c-41 -58 -101 -185 -118 -250 -10 -35 -20 -66 -24 -71 -3 -4 -32 -14 -64
-22 -57 -15 -148 -66 -175 -98 -26 -32 28 -155 113 -260 32 -40 41 -57 35 -72
-4 -11 -8 -39 -8 -61 -1 -47 17 -69 49 -59 11 4 20 2 20 -4 0 -23 41 -10 57
18 l17 28 60 -28 c74 -35 204 -69 261 -69 24 0 62 -7 86 -16 45 -16 244 -37
354 -38 99 0 193 44 274 128 38 39 45 51 43 83 -1 21 6 55 15 75 19 44 11 73
-17 65 -11 -3 -20 -1 -20 4 0 15 -36 10 -50 -6 -21 -25 -28 -17 -29 38 0 28
-1 66 -2 82 -2 44 27 135 48 150 10 7 15 17 11 20 -4 4 -3 16 2 26 7 12 6 20
-1 24 -6 4 -7 14 -4 24 4 9 9 93 12 186 7 261 -33 468 -113 587 -56 82 -59
100 -18 139 61 59 88 129 92 239 4 109 -12 192 -59 305 -40 96 -54 108 -83 72
-26 -32 -37 -34 -60 -8 -24 26 -139 52 -149 34z m88 -24 c56 -15 70 -35 44
-63 -31 -31 -46 -65 -58 -126 -18 -91 -40 -159 -40 -129 -2 50 -14 89 -27 89
-18 0 -17 -20 1 -44 8 -11 15 -39 15 -63 0 -57 31 -150 81 -241 23 -41 38 -76
36 -78 -4 -5 -51 55 -52 66 -1 3 -10 23 -21 45 -12 22 -29 72 -38 110 -36 144
-44 163 -61 134 -4 -6 0 -16 8 -22 9 -7 19 -34 23 -62 l7 -50 -37 54 c-20 29
-36 59 -36 67 0 8 -7 14 -15 14 -23 0 -18 -16 20 -66 46 -60 62 -89 43 -79 -7
5 -20 14 -30 22 -10 9 -18 10 -22 5 -3 -6 10 -20 29 -32 20 -13 50 -47 71 -83
20 -34 44 -72 55 -86 11 -13 17 -26 14 -29 -10 -10 -55 30 -86 75 -17 27 -47
64 -65 83 -45 48 -65 109 -65 202 0 92 19 141 82 208 23 25 40 38 37 30 -3 -8
-2 -24 3 -35 5 -14 8 -1 8 38 1 64 4 66 76 46z m156 -11 c1 -7 1 -35 1 -63 -1
-49 -1 -49 9 -16 6 18 12 32 14 30 2 -2 13 -29 24 -59 33 -87 54 -215 46 -286
-7 -72 -50 -168 -90 -204 l-27 -25 19 40 c24 49 38 99 24 91 -5 -4 -12 -19
-16 -35 -7 -33 -60 -121 -73 -121 -10 0 -83 133 -99 180 -14 43 -17 181 -3
212 5 13 14 49 20 80 13 66 44 117 83 136 15 7 32 22 37 33 12 21 29 25 31 7z
m-436 -266 c46 -16 50 -20 56 -55 4 -27 3 -35 -4 -28 -15 15 -40 14 -34 -1 2
-7 9 -13 16 -13 6 0 24 -23 40 -51 l29 -50 -29 4 c-19 3 -46 21 -74 51 -34 36
-46 43 -56 34 -10 -10 -8 -14 7 -19 23 -8 64 -44 64 -56 0 -14 -78 -9 -114 9
-34 16 -73 13 -163 -13 -13 -3 -9 -55 8 -108 9 -29 9 -29 -11 -11 -28 26 -48
90 -53 175 l-5 75 47 23 c108 53 190 63 276 34z m-90 -196 c27 -12 53 -17 83
-13 94 10 156 -22 207 -108 21 -37 56 -62 110 -80 31 -11 -35 -31 -149 -45
-53 -7 -96 -15 -96 -18 0 -6 150 4 190 13 14 3 6 -4 -20 -17 -38 -20 -61 -23
-150 -23 -92 0 -112 3 -160 26 -31 14 -72 40 -92 58 -40 35 -82 111 -76 138 3
14 11 8 33 -24 17 -23 34 -42 38 -43 13 0 -14 43 -51 82 -20 21 -34 40 -31 42
5 5 112 34 119 32 3 -1 23 -10 45 -20z m549 -301 c69 -114 106 -287 106 -500
0 -144 -7 -202 -24 -208 -8 -3 -11 44 -11 167 0 309 -60 523 -163 583 l-43 26
38 22 38 23 11 -26 c6 -15 28 -54 48 -87z m-620 -89 c57 -33 140 -109 167
-152 12 -19 20 -36 18 -38 -2 -1 -15 -7 -29 -14 -21 -10 -18 -11 25 -4 152 22
248 -32 285 -160 13 -45 20 -54 47 -62 49 -15 74 -99 53 -176 l-12 -43 -79 6
c-43 3 -79 1 -79 -3 0 -10 105 -23 167 -20 80 4 80 4 87 -44 11 -70 -9 -124
-64 -177 -58 -57 -133 -87 -236 -96 -41 -3 -77 -10 -81 -16 -4 -6 17 -8 60 -5
78 7 81 2 36 -65 -40 -60 -115 -128 -209 -189 -67 -43 -81 -48 -131 -48 -222
0 -475 166 -569 373 -35 77 -37 98 -12 120 34 31 134 77 180 83 l47 6 23 81
c24 85 88 225 123 266 17 21 23 23 46 12 46 -21 36 -4 -22 34 -114 76 -236
239 -252 339 l-6 39 56 -6 c159 -19 363 -144 434 -265 15 -25 29 -40 31 -34
15 46 -172 217 -293 268 -31 13 -33 15 -23 42 l11 28 80 -27 c43 -16 98 -39
121 -53z m645 -590 c13 -13 21 -32 19 -43 -3 -14 -11 -17 -43 -15 -22 2 -40 5
-41 5 -1 1 1 19 4 40 5 44 27 49 61 13z m65 -73 c-18 -14 -18 -15 -1 -28 18
-13 18 -14 -4 -26 -23 -12 -23 -12 -4 -20 17 -7 17 -8 -6 -8 -24 -1 -27 3 -31
40 -3 38 -1 44 27 60 34 21 51 5 19 -18z m-24 -112 c0 -5 -10 -40 -21 -77 -37
-119 -96 -222 -142 -245 -18 -9 -16 -5 9 22 17 19 38 47 48 62 22 36 86 206
86 230 0 9 5 17 10 17 6 0 10 -4 10 -9z m-98 -182 c-36 -79 -76 -127 -120
-146 -45 -19 -34 -27 22 -19 53 8 92 44 133 122 15 30 32 54 37 54 19 0 -3
-93 -35 -147 -49 -83 -162 -194 -232 -228 -54 -26 -63 -27 -155 -22 -53 2
-108 9 -121 14 -22 9 -18 13 60 65 100 67 202 169 228 230 16 38 24 45 75 62
31 11 73 34 94 52 20 17 38 31 40 29 2 -2 -10 -31 -26 -66z m146 -94 c-6 -28
3 -32 22 -10 20 24 33 18 26 -11 -16 -63 -64 -100 -93 -71 -13 13 -12 21 11
66 29 55 41 65 34 26z m-57 -26 c-2 -8 -6 -29 -9 -46 -3 -27 0 -34 21 -44 18
-8 30 -8 45 0 29 15 32 14 32 -11 0 -29 -95 -121 -152 -146 -84 -39 -167 -51
-226 -36 -20 6 -18 8 20 27 55 27 196 168 228 230 14 26 29 45 35 43 5 -2 8
-10 6 -17z m-1027 -112 c24 -19 28 -29 22 -50 -8 -35 -36 -36 -36 -2 0 14 -4
25 -10 25 -5 0 -10 -9 -10 -21 0 -15 -5 -20 -22 -17 -20 3 -23 8 -21 43 5 74
11 76 77 22z"/>
<path d="M1309 1554 c-37 -44 17 -184 71 -184 60 0 50 141 -14 185 -26 19 -40
19 -57 -1z m51 -15 c11 -8 12 -12 3 -16 -16 -6 -17 -55 -1 -71 7 -7 20 -12 30
-12 19 0 22 -8 12 -34 -23 -59 -107 52 -90 119 7 27 22 31 46 14z"/>
<path d="M945 1390 c42 -11 106 -19 160 -19 143 -1 135 16 -11 23 -71 3 -149
8 -174 10 -37 4 -33 2 25 -14z"/>
<path d="M1155 1293 c-34 -9 -73 -12 -122 -8 -48 4 -73 2 -73 -5 0 -6 37 -10
99 -10 95 0 161 13 161 31 0 11 -1 11 -65 -8z"/>
</g>
</svg>
