<?xml version="1.0" standalone="no"?>
<!DOCTYPE svg PUBLIC "-//W3C//DTD SVG 20010904//EN"
 "http://www.w3.org/TR/2001/REC-SVG-20010904/DTD/svg10.dtd">
<svg version="1.0" xmlns="http://www.w3.org/2000/svg"
 width="210.012472pt" height="349.902962pt" viewBox="0 0 210.012472 349.902962"
 preserveAspectRatio="xMidYMid meet">
<metadata>
Created by potrace 1.16, written by Peter Selinger 2001-2019
</metadata>
<g transform="translate(0.012472,349.902962) scale(0.100000,-0.100000)"
fill="#000000" stroke="none">
<path d="M1530 3482 c-19 -9 -45 -33 -58 -52 -21 -30 -23 -44 -19 -98 4 -47
12 -73 30 -99 44 -62 177 -170 267 -218 113 -60 175 -121 175 -173 0 -42 -25
-81 -68 -106 -39 -22 -54 -20 -53 5 1 30 -17 34 -29 7 -15 -34 -46 -33 -90 2
-34 27 -44 30 -78 25 -36 -7 -41 -4 -79 37 -37 40 -39 46 -34 86 5 41 4 45
-40 87 -25 25 -48 45 -50 45 -2 0 -4 -14 -4 -31 0 -28 -2 -30 -16 -18 -9 7
-34 50 -55 95 -31 66 -45 85 -73 98 -33 16 -56 20 -56 12 0 -3 14 -18 30 -34
17 -17 30 -40 30 -51 0 -28 -14 -26 -34 4 -19 30 -59 51 -146 79 -68 22 -73
28 -115 126 l-15 35 3 -58 c2 -56 -6 -74 -18 -38 -7 22 -43 57 -51 48 -3 -3 3
-25 13 -49 24 -54 84 -108 121 -108 33 0 102 -31 121 -53 12 -16 11 -16 -24
-1 -21 8 -72 22 -114 30 -42 8 -88 19 -102 25 -32 12 -66 71 -75 127 -3 23
-10 39 -15 36 -14 -9 -10 -87 6 -118 9 -16 13 -31 10 -34 -6 -6 -56 27 -72 47
-11 15 -12 15 -13 0 0 -8 16 -34 35 -57 41 -47 106 -75 217 -94 47 -8 79 -19
97 -34 32 -28 14 -31 -37 -5 -20 10 -61 24 -90 30 -29 6 -68 18 -88 26 -69 29
-271 -22 -361 -91 -47 -36 -41 -44 20 -28 78 21 90 16 21 -10 -109 -40 -169
-84 -215 -155 -36 -56 -39 -84 -7 -54 23 21 61 43 73 43 4 0 -13 -23 -38 -50
-49 -54 -77 -121 -77 -182 0 -43 12 -49 28 -15 8 16 11 18 11 5 2 -46 -62 -60
-153 -33 -66 20 -92 19 -117 -6 -27 -27 -21 -81 21 -163 37 -73 38 -93 3 -109
-16 -6 -30 -14 -33 -17 -3 -3 -14 -10 -25 -16 -11 -6 -22 -22 -24 -35 -3 -23
-2 -23 16 -6 11 9 34 17 51 17 22 0 39 8 54 25 24 28 53 33 61 11 3 -8 19 -17
36 -21 17 -4 33 -11 36 -16 8 -12 95 -12 95 0 0 5 -12 19 -27 32 -25 19 -26
21 -5 15 23 -8 31 7 11 20 -8 5 -6 10 5 16 14 8 12 13 -15 35 -33 28 -28 29
-141 -4 -12 -4 -24 9 -43 47 -60 118 15 142 154 49 71 -47 96 -79 105 -134 9
-49 44 -102 96 -144 39 -31 55 -29 44 6 -3 11 3 8 16 -10 22 -28 107 -77 134
-77 22 0 186 -48 238 -70 56 -24 62 -24 54 -5 -9 24 11 18 106 -32 104 -55
203 -140 229 -198 19 -41 26 -135 11 -135 -5 0 -14 17 -20 38 -17 56 -82 152
-133 196 -24 21 -69 50 -99 65 -50 24 -66 26 -181 26 -107 0 -123 2 -108 13
22 15 25 32 6 32 -8 0 -41 -14 -74 -30 -55 -28 -128 -95 -175 -161 -16 -23
-16 -23 -8 21 5 25 12 53 15 63 4 9 3 17 -2 17 -20 0 -62 -57 -74 -100 -15
-54 -38 -92 -50 -84 -20 12 -31 -55 -27 -178 3 -101 1 -129 -10 -133 -13 -5
-11 -18 5 -63 4 -8 -5 -12 -24 -12 -17 0 -38 -9 -47 -19 -15 -16 -16 -25 -6
-62 7 -24 21 -56 31 -70 39 -55 13 -109 -53 -109 -23 0 -44 -8 -62 -25 -32
-29 -36 -51 -6 -35 13 7 20 7 20 1 0 -6 -9 -15 -20 -21 -23 -12 -27 -35 -5
-26 54 22 52 21 33 2 -10 -9 -18 -21 -18 -26 0 -17 18 -20 30 -5 7 8 22 15 34
15 11 0 38 13 59 29 34 26 44 29 106 26 38 -1 73 -5 79 -9 6 -3 17 0 24 8 10
10 19 11 32 4 23 -13 29 -6 13 16 -8 12 -31 18 -72 21 -71 6 -105 33 -128 103
-8 26 -18 55 -22 64 -14 35 34 19 97 -33 124 -99 229 -136 413 -146 104 -5
130 -3 194 15 41 12 77 19 80 17 3 -3 -16 -27 -40 -53 -25 -26 -71 -77 -102
-113 -45 -52 -75 -76 -148 -115 -180 -96 -252 -192 -253 -333 0 -99 27 -162
98 -229 57 -54 142 -92 205 -92 51 0 98 -17 142 -52 20 -15 42 -28 49 -28 29
0 -18 170 -62 225 -12 15 -45 43 -74 61 -115 74 -152 179 -100 289 32 70 82
109 223 176 159 75 201 104 261 185 49 66 66 103 77 177 8 53 29 36 22 -19 -6
-55 6 -56 27 -3 22 56 32 159 17 187 -9 17 -7 27 8 54 42 73 73 198 73 293 0
169 -60 290 -203 414 -115 100 -152 124 -271 177 -57 25 -128 57 -158 71 l-55
25 45 14 c56 17 162 18 178 2 7 -7 12 -20 12 -29 0 -25 26 -42 55 -35 27 7 35
26 10 26 -8 0 -15 7 -15 15 0 8 -14 30 -31 50 -31 35 -31 37 -19 75 7 22 9 46
5 57 -5 10 -7 22 -6 27 1 4 -3 14 -10 22 -6 7 -8 18 -4 24 10 16 -11 12 -25
-5 -7 -8 -10 -25 -6 -39 8 -34 -8 -41 -22 -11 -7 14 -16 25 -22 25 -7 0 -9 9
-4 22 6 20 5 21 -9 10 -11 -10 -14 -23 -10 -43 3 -17 1 -29 -5 -29 -6 0 -12
10 -15 23 -3 20 -4 20 -12 4 -11 -26 19 -85 50 -97 39 -15 31 -35 -15 -35 -26
0 -44 6 -52 17 -8 11 -38 22 -73 29 -33 6 -75 19 -93 30 -42 24 -50 24 -54 -3
-3 -15 -9 -2 -17 35 -18 81 -1 130 63 178 52 40 102 58 180 66 37 4 55 1 63
-8 9 -12 3 -13 -37 -11 -42 3 -53 0 -75 -22 -34 -34 -25 -46 32 -46 34 0 60
-9 105 -36 60 -37 100 -42 152 -19 16 7 17 6 7 -13 -7 -12 -18 -22 -26 -22 -8
0 -15 -4 -15 -10 0 -15 53 -12 94 5 32 13 40 14 64 1 15 -8 36 -23 46 -35 18
-20 18 -22 3 -39 -21 -23 -21 -41 -1 -70 20 -29 27 -28 41 8 14 36 33 39 33 6
0 -19 8 -27 34 -36 19 -6 42 -23 51 -37 l17 -25 20 20 c11 11 21 33 22 50 1
17 5 34 9 38 17 17 6 55 -18 66 -14 6 -25 20 -25 30 0 16 -3 17 -20 8 -26 -14
-40 -5 -40 25 0 13 -11 32 -25 44 l-26 20 58 -6 c82 -7 86 -9 73 -34 -16 -29
-7 -33 28 -15 28 15 30 14 41 -10 14 -32 28 -23 37 21 l6 35 30 -25 c76 -64
215 -55 296 19 41 36 62 90 62 154 0 103 -46 183 -134 233 -73 40 -91 63 -90
110 2 43 -9 44 -24 0 -16 -45 14 -100 77 -140 91 -59 132 -127 132 -218 0 -83
-33 -130 -110 -158 -87 -30 -191 -12 -191 34 0 9 -4 21 -10 27 -6 6 17 18 68
33 42 13 87 33 99 44 46 41 55 137 19 192 -9 13 -88 72 -175 130 -226 149
-280 219 -252 323 15 58 49 94 104 109 l42 11 -45 1 c-25 1 -61 -7 -80 -17z
m-1223 -1238 c-3 -3 -12 -4 -19 -1 -8 3 -5 6 6 6 11 1 17 -2 13 -5z m622 -596
c63 -20 223 -213 208 -252 -3 -8 -23 -18 -44 -22 l-38 -7 39 -17 38 -18 -52
-12 c-33 -8 -80 -10 -129 -6 -83 7 -83 5 -10 -46 24 -18 24 -18 -21 -12 -71 9
-163 58 -213 114 -49 55 -57 59 -57 33 -1 -16 -2 -16 -12 2 -6 10 -11 45 -11
76 0 145 133 219 302 167z"/>
</g>
</svg>
