<?xml version="1.0" standalone="no"?>
<!DOCTYPE svg PUBLIC "-//W3C//DTD SVG 20010904//EN"
 "http://www.w3.org/TR/2001/REC-SVG-20010904/DTD/svg10.dtd">
<svg version="1.0" xmlns="http://www.w3.org/2000/svg"
 width="246.578411pt" height="255.980469pt" viewBox="0 0 246.578411 255.980469"
 preserveAspectRatio="xMidYMid meet">
<metadata>
Created by potrace 1.16, written by Peter Selinger 2001-2019
</metadata>
<g transform="translate(-47.000000,262.928067) scale(0.100000,-0.100000)"
fill="#000000" stroke="none">
<path d="M2311 2601 c-24 -16 -81 -43 -126 -60 -170 -65 -228 -131 -261 -301
-15 -75 -15 -102 -4 -228 6 -79 10 -146 7 -148 -2 -3 -31 4 -63 16 -32 11 -68
20 -80 20 -26 0 -54 35 -85 106 -38 88 -41 106 -19 128 23 25 28 106 11 180
-6 28 -9 57 -6 65 3 9 -6 29 -18 45 -21 26 -28 28 -86 27 -170 -2 -203 -26
-231 -168 l-13 -63 -71 -21 c-70 -21 -74 -24 -226 -173 l-155 -151 -100 -33
c-55 -18 -105 -32 -110 -32 -6 0 -32 -16 -59 -35 -27 -19 -55 -35 -62 -35 -21
0 -84 -60 -84 -81 0 -16 162 -213 204 -248 10 -8 28 -35 41 -60 14 -28 59 -79
116 -131 108 -98 130 -113 187 -131 23 -7 42 -18 42 -26 0 -18 121 -75 163
-77 31 -1 32 1 37 43 4 38 9 46 31 52 23 6 25 4 21 -18 -4 -21 -1 -24 19 -23
49 4 50 6 -74 -130 -50 -55 -50 -55 -26 -13 13 23 21 45 17 49 -4 3 -28 -14
-53 -40 -26 -25 -50 -46 -55 -46 -4 0 -34 12 -66 28 -53 24 -70 27 -169 27
-106 0 -114 -2 -180 -34 -257 -127 -322 -465 -128 -672 59 -63 103 -92 182
-119 237 -79 496 78 543 329 l11 58 125 12 c159 16 183 26 219 90 33 60 63 75
128 65 34 -5 49 -3 55 6 7 11 19 9 60 -9 52 -23 89 -22 117 1 22 18 15 35 -38
90 -57 59 -99 120 -99 142 0 8 46 52 103 97 56 45 123 100 148 121 25 21 49
38 53 38 4 0 6 -15 5 -34 -2 -23 3 -42 15 -55 19 -21 18 -21 -28 -71 -26 -28
-62 -81 -79 -118 -30 -63 -32 -74 -32 -177 0 -103 2 -114 31 -176 54 -113 134
-186 251 -229 53 -19 77 -22 161 -18 86 3 107 8 164 36 169 83 268 271 239
453 -33 200 -211 359 -402 359 -53 0 -59 2 -64 23 -12 55 -44 261 -41 265 2 2
69 23 147 48 79 25 148 49 152 53 5 5 13 42 19 84 9 70 8 81 -21 172 l-30 98
25 48 c13 27 24 58 24 69 0 11 7 31 15 44 14 21 14 31 1 87 -8 35 -22 69 -32
76 -23 17 -130 17 -140 1 -5 -8 -13 7 -21 37 -17 67 -18 64 22 81 34 14 65 57
65 90 0 41 -36 123 -57 133 -15 7 -23 19 -23 35 0 33 -26 46 -89 46 -40 0 -52
4 -61 20 -15 29 -57 25 -109 -9z m393 -517 c5 -14 4 -15 -9 -4 -17 14 -19 20
-6 20 5 0 12 -7 15 -16z m-44 -98 c7 -25 10 -50 8 -57 -2 -6 -11 14 -20 45 -8
31 -12 56 -8 56 4 0 13 -20 20 -44z m-864 -223 c34 -3 69 -1 79 4 26 15 65 3
75 -22 5 -13 24 -29 43 -35 28 -11 33 -17 29 -39 -6 -42 -65 -63 -193 -68 -59
-3 -109 -1 -112 4 -3 4 -9 46 -13 92 -7 80 -6 84 12 77 10 -5 47 -10 80 -13z
m328 -253 c9 -22 16 -53 16 -69 0 -24 -3 -28 -20 -24 -16 4 -20 0 -20 -20 0
-14 5 -29 10 -32 24 -15 -3 -96 -37 -110 -28 -11 -237 -75 -245 -75 -5 0 -8
27 -8 60 0 100 -15 122 -115 170 -47 22 -83 45 -80 50 7 11 35 2 35 -11 0 -15
57 -10 74 6 9 10 34 15 71 15 31 0 79 7 106 16 37 12 56 14 72 6 12 -5 38 -9
57 -8 30 1 35 5 44 34 5 17 12 32 16 32 4 0 15 -18 24 -40z m246 -267 c12 -65
23 -125 26 -134 6 -23 -84 -58 -97 -38 -5 8 -9 18 -9 24 0 5 -18 45 -39 90
-22 44 -43 92 -46 106 -6 25 -3 28 52 47 93 33 88 37 113 -95z m-230 37 c0 -5
-4 -10 -10 -10 -5 0 -10 5 -10 10 0 6 5 10 10 10 6 0 10 -4 10 -10z m0 -95 c0
-8 -7 -15 -15 -15 -16 0 -20 12 -8 23 11 12 23 8 23 -8z m-81 -14 c11 -7 11
-15 -1 -52 -12 -35 -34 -61 -109 -126 -52 -45 -99 -82 -105 -83 -22 0 -23 28
-2 33 17 5 19 11 13 39 -4 18 -13 42 -20 53 -7 11 -10 36 -8 56 5 35 6 36 86
61 88 28 124 33 146 19z m-570 -78 c22 -6 22 -6 -9 -19 -44 -19 -57 -18 -70 6
-10 18 -8 20 22 20 18 0 44 -3 57 -7z m1042 -150 c1 -27 2 -60 3 -76 1 -44
-18 -33 -26 15 -4 23 -10 58 -13 76 -5 27 -3 32 15 32 17 0 20 -7 21 -47z m52
0 c-11 -72 -22 -81 -22 -20 -1 43 2 57 13 57 11 0 13 -9 9 -37z m-1183 24 c0
-2 -18 -18 -40 -36 -48 -39 -53 -34 -7 8 28 27 47 38 47 28z m245 -16 c-3 -12
0 -21 9 -24 13 -5 14 -21 9 -89 -3 -46 -7 -84 -8 -86 -2 -2 -18 6 -36 17 -19
12 -49 21 -66 21 -31 0 -33 2 -33 33 0 41 6 50 71 102 63 51 62 50 54 26z
m775 -10 c0 -15 5 -42 11 -60 18 -51 3 -47 -35 11 -41 60 -42 65 -18 71 36 10
42 7 42 -22z m210 15 c0 -7 -7 -19 -15 -26 -12 -10 -15 -9 -15 7 0 11 3 23 7
26 11 12 23 8 23 -7z m48 -14 c12 -8 6 -15 -76 -86 -23 -20 -23 -20 -16 0 9
23 63 94 72 94 4 0 13 -4 20 -8z m38 -37 c7 -18 -98 -140 -126 -148 -39 -10
-21 34 42 99 64 67 75 73 84 49z m-391 -56 c20 -28 34 -53 32 -55 -6 -7 -66
45 -78 67 -8 17 -5 39 6 39 2 0 20 -23 40 -51z m430 14 c0 -12 -97 -95 -103
-88 -2 2 15 27 39 55 39 46 64 59 64 33z m-479 -24 c19 -22 19 -22 -6 -14 -32
9 -33 11 -25 24 8 15 9 14 31 -10z m281 -21 c-3 -8 -6 -5 -6 6 -1 11 2 17 5
13 3 -3 4 -12 1 -19z m231 0 c2 -10 -7 -17 -25 -21 -15 -3 -37 -9 -48 -13 -13
-4 -7 5 15 24 37 33 53 35 58 10z m-496 -17 c31 -12 67 -51 46 -51 -14 0 -120
29 -126 35 -1 1 0 10 4 19 7 18 24 17 76 -3z m-1412 -37 c0 -27 -4 -43 -10
-39 -5 3 -10 24 -10 46 0 21 5 39 10 39 6 0 10 -21 10 -46z m57 -36 c-6 -92
-14 -121 -31 -115 -16 5 -19 40 -11 124 6 65 9 73 27 73 20 0 21 -4 15 -82z
m56 24 c-5 -41 -29 -100 -38 -90 -1 1 -1 35 2 74 5 62 8 71 23 67 14 -4 17
-13 13 -51z m-149 -13 c4 -34 5 -63 3 -65 -2 -2 -23 19 -46 47 -24 27 -42 51
-40 53 12 7 56 25 65 25 7 1 14 -25 18 -60z m189 15 c-19 -29 -28 -25 -19 10
4 17 11 23 21 20 12 -5 12 -9 -2 -30z m1775 18 c2 -8 -13 -12 -50 -11 l-53 1
40 13 c45 14 57 14 63 -3z m-2032 -51 c19 -21 52 -61 73 -89 37 -46 38 -50 20
-55 -30 -8 -121 37 -150 75 -43 57 -44 58 -13 84 16 13 31 23 33 24 2 0 19
-18 37 -39z m259 -9 l-38 -37 33 43 c18 24 35 40 38 37 3 -3 -11 -22 -33 -43z
m580 27 c14 -14 -7 -43 -34 -47 -15 -3 -24 4 -31 23 -6 15 -7 31 -4 37 7 11
53 2 69 -13z m686 1 c39 -11 77 -27 84 -37 18 -25 14 -26 -36 -13 -121 32
-149 42 -149 56 0 19 17 18 101 -6z m517 -22 c-3 -20 -13 -25 -86 -37 -65 -11
-88 -12 -108 -2 l-27 12 23 24 c22 23 31 25 112 25 87 0 89 -1 86 -22z m-1314
-10 c10 -39 7 -46 -24 -57 -29 -10 -30 -9 -30 24 0 22 6 38 18 44 25 15 29 14
36 -11z m1091 12 c-3 -5 -10 -10 -16 -10 -5 0 -9 5 -9 10 0 6 7 10 16 10 8 0
12 -4 9 -10z m-1441 -29 c17 -19 17 -20 -21 -30 -55 -16 -57 -14 -33 19 25 35
31 36 54 11z m1151 -5 c101 -29 79 -45 -30 -22 -43 9 -79 16 -81 16 -2 0 -4 7
-4 15 0 20 19 18 115 -9z m-1611 -31 c31 -40 31 -40 -18 -20 -39 17 -39 16
-30 39 9 24 19 20 48 -19z m1039 28 c-7 -2 -21 -2 -30 0 -10 3 -4 5 12 5 17 0
24 -2 18 -5z m1087 -23 c0 -18 -7 -20 -63 -20 -112 0 -90 15 56 39 4 0 7 -8 7
-19z m-552 -11 l64 -11 -59 -33 c-40 -24 -60 -30 -64 -22 -12 21 -21 77 -13
77 4 0 36 -5 72 -11z m-1080 -26 c2 -14 -4 -23 -17 -27 -12 -3 -30 -9 -41 -12
-15 -4 -18 -2 -14 10 7 19 0 20 -28 5 -15 -8 -19 -8 -13 1 9 14 86 50 100 46
6 -1 11 -12 13 -23z m-477 -21 c25 -11 58 -35 73 -53 l28 -33 -22 -8 c-17 -6
-46 0 -106 23 -46 17 -84 35 -84 39 0 4 5 21 11 38 12 34 7 34 100 -6z m1689
21 c-1 -19 -20 -33 -85 -62 -65 -30 -95 -34 -95 -12 0 13 131 80 158 81 12 0
22 -3 22 -7z m315 -40 c62 -45 76 -65 55 -78 -14 -9 -148 62 -160 84 -30 58
21 55 105 -6z m98 22 c-4 -11 -10 -11 -31 -3 -43 19 -44 24 -2 20 27 -3 37 -8
33 -17z m-1153 6 c0 -5 -9 -19 -20 -32 -17 -21 -21 -22 -30 -9 -15 22 -12 30
13 40 29 12 37 12 37 1z m915 -1 c3 -5 1 -10 -4 -10 -6 0 -11 5 -11 10 0 6 2
10 4 10 3 0 8 -4 11 -10z m183 -14 c23 -11 42 -26 42 -33 0 -19 -7 -17 -56 19
-40 28 -57 45 -36 36 4 -1 26 -12 50 -22z m-1708 9 c0 -2 -10 -9 -22 -15 -22
-11 -22 -10 -4 4 21 17 26 19 26 11z m1410 -10 c-7 -9 -15 -13 -19 -10 -3 3 1
10 9 15 21 14 24 12 10 -5z m-893 -49 c-7 -20 -55 -18 -76 3 -26 26 -27 38 -3
43 22 5 84 -31 79 -46z m853 30 c0 -2 -7 -9 -15 -16 -13 -11 -14 -10 -9 4 5
14 24 23 24 12z m60 -5 c0 -9 -64 -164 -75 -182 -3 -4 -12 -6 -19 -3 -19 7 28
152 58 176 23 20 36 23 36 9z m-1460 -5 c0 -3 -4 -8 -10 -11 -5 -3 -10 -1 -10
4 0 6 5 11 10 11 6 0 10 -2 10 -4z m47 -2 c-3 -3 -12 -4 -19 -1 -8 3 -5 6 6 6
11 1 17 -2 13 -5z m1306 -11 c-2 -10 -26 -32 -53 -50 -47 -31 -48 -31 -65 -13
-17 19 -17 20 6 29 19 7 54 23 116 50 0 1 -1 -7 -4 -16z m187 -25 c10 -24 28
-67 39 -95 20 -52 20 -53 2 -53 -15 0 -25 17 -45 78 -25 75 -32 112 -20 112 3
0 14 -19 24 -42z m-1730 22 c0 -5 -4 -10 -9 -10 -6 0 -13 5 -16 10 -3 6 1 10
9 10 9 0 16 -4 16 -10z m1815 -95 c15 -39 16 -48 5 -55 -11 -7 -22 10 -47 72
-18 45 -33 84 -33 87 1 18 60 -64 75 -104z m-1268 78 l26 -17 -28 -8 c-34 -9
-45 -3 -45 23 0 23 13 24 47 2z m1372 -50 c3 -2 -2 -10 -10 -18 -12 -13 -20
-9 -62 26 -26 22 -47 45 -47 50 0 7 96 -40 119 -58z m-2073 32 l69 -25 -63 5
c-76 7 -92 13 -92 31 0 19 5 18 86 -11z m534 -2 c0 -16 -11 -18 -88 -19 l-87
-1 75 17 c98 23 100 23 100 3z m1167 -48 c-13 -40 -25 -61 -30 -56 -13 13 31
121 48 121 2 0 -6 -29 -18 -65z m98 -39 c-15 -50 -31 -67 -47 -50 -4 3 8 38
25 77 36 82 49 66 22 -27z m-1645 70 c0 -3 -4 -8 -10 -11 -5 -3 -10 -1 -10 4
0 6 5 11 10 11 6 0 10 -2 10 -4z m1508 -26 c-13 -38 -19 -41 -41 -25 -16 12
-15 14 15 34 18 11 34 21 35 21 1 0 -3 -14 -9 -30z m206 -34 c20 -60 20 -66 2
-66 -17 0 -22 15 -32 85 -8 61 6 52 30 -19z m-1875 43 c17 -1 -45 -27 -66 -28
-7 -1 -13 9 -13 20 0 19 4 21 31 15 17 -3 39 -6 48 -7z m2029 -50 c-15 -9 -20
-5 -37 36 l-13 30 31 -29 c22 -22 28 -32 19 -37z m-1890 25 c2 -1 -1 -11 -7
-22 -13 -24 -153 -77 -177 -68 -22 9 -13 17 67 65 45 27 71 37 89 33 14 -2 26
-6 28 -8z m-108 1 c0 -2 -22 -16 -50 -30 -38 -19 -50 -22 -50 -11 0 8 19 21
43 29 47 17 57 19 57 12z m515 -17 c-12 -38 -20 -40 -59 -18 -45 27 -38 40 20
40 42 0 45 -1 39 -22z m-365 2 c0 -5 -4 -10 -10 -10 -5 0 -10 5 -10 10 0 6 5
10 10 10 6 0 10 -4 10 -10z m288 -68 c29 -24 31 -29 19 -46 -13 -18 -18 -16
-95 34 -45 28 -82 56 -82 60 0 5 12 10 28 12 30 4 79 -19 130 -60z m14 32 c23
-15 37 -29 31 -31 -12 -4 -103 52 -103 64 0 8 24 -3 72 -33z m-248 11 c-4 -8
-7 -15 -9 -15 -2 0 -5 7 -9 15 -3 9 0 15 9 15 9 0 12 -6 9 -15z m1601 -53
c-12 -12 -23 15 -17 43 l6 30 8 -34 c5 -18 7 -36 3 -39z m-1523 -59 c16 -94
14 -112 -12 -113 -3 0 -20 42 -37 94 -28 85 -29 97 -16 115 27 40 46 12 65
-96z m-150 -13 c-43 -80 -49 -87 -63 -73 -17 17 26 142 59 172 l27 24 6 -29
c4 -22 -3 -45 -29 -94z m-77 81 c-6 -4 -31 -20 -56 -35 -36 -20 -48 -23 -57
-14 -10 10 0 17 45 35 63 24 83 28 68 14z m9 -67 c-19 -56 -28 -69 -43 -60 -6
4 3 27 22 60 18 30 33 53 34 52 2 -2 -4 -25 -13 -52z m358 -3 c4 -3 4 -12 0
-19 -6 -8 -20 1 -48 30 l-39 41 40 -23 c22 -13 43 -26 47 -29z m-402 -1 c-21
-30 -45 -36 -45 -12 0 13 56 54 63 47 2 -2 -6 -18 -18 -35z m214 -82 c5 -21 3
-28 -7 -28 -9 0 -17 16 -20 43 -4 23 -9 58 -12 77 -4 29 -2 27 13 -15 10 -27
22 -62 26 -77z m138 70 c13 -19 17 -33 11 -39 -6 -6 -20 10 -38 43 -30 55 -14
53 27 -4z m-32 -68 c-19 -12 -26 2 -34 65 l-6 50 27 -53 c23 -45 25 -54 13
-62z m-154 30 l10 -60 -30 0 c-57 0 -62 12 -30 69 16 28 32 51 35 51 3 0 10
-27 15 -60z"/>
</g>
</svg>
