<?xml version="1.0" standalone="no"?>
<!DOCTYPE svg PUBLIC "-//W3C//DTD SVG 20010904//EN"
 "http://www.w3.org/TR/2001/REC-SVG-20010904/DTD/svg10.dtd">
<svg version="1.0" xmlns="http://www.w3.org/2000/svg"
 width="341.566284pt" height="561.713066pt" viewBox="0 0 341.566284 561.713066"
 preserveAspectRatio="xMidYMid meet">
<metadata>
Created by potrace 1.16, written by Peter Selinger 2001-2019
</metadata>
<g transform="translate(-56.234521,618.000000) scale(0.100000,-0.100000)"
fill="#000000" stroke="none">
<path d="M745 6171 c-95 -6 -134 -22 -158 -65 -18 -33 -28 -1599 -24 -3621 3
-1208 8 -1767 15 -1805 14 -68 44 -95 116 -104 101 -12 2234 -19 2446 -8 266
14 354 40 505 147 143 101 275 292 305 440 25 123 32 965 26 2895 -4 1075 -10
1977 -15 2004 -7 40 -17 58 -49 88 l-41 38 -1518 -2 c-835 -1 -1558 -4 -1608
-7z m69 -82 c24 -19 26 -27 26 -90 0 -92 -16 -109 -100 -109 -51 0 -65 4 -85
25 -28 27 -32 71 -14 124 23 65 119 93 173 50z m3031 7 c26 -11 36 -23 44 -53
14 -51 14 -126 -1 -141 -15 -15 -142 -16 -169 -2 -16 9 -19 22 -19 88 0 78 9
104 40 115 28 10 70 7 105 -7z m-265 -5 l65 -6 3 -75 c2 -41 0 -85 -3 -97 l-5
-23 -1298 1 c-713 1 -1331 4 -1372 8 l-74 6 -9 38 c-5 21 -6 62 -2 92 l6 54
42 4 c73 6 2579 5 2647 -2z m283 -255 l37 -18 0 -2302 -1 -2301 -33 -87 c-47
-123 -90 -192 -176 -279 -83 -84 -169 -137 -288 -178 l-77 -26 -1323 0 -1324
0 -18 22 c-16 21 -18 65 -24 575 -4 304 -6 1456 -4 2560 3 1911 4 2008 21
2025 16 17 52 18 425 24 224 3 934 5 1577 5 1114 -2 1172 -2 1208 -20z"/>
<path d="M1039 6073 c-39 -6 -61 -35 -57 -74 5 -58 28 -63 308 -63 288 0 303
4 308 71 5 66 -3 68 -288 69 -135 1 -257 0 -271 -3z"/>
<path d="M912 5587 l-33 -34 3 -986 c3 -985 3 -986 24 -1014 l21 -28 1192 -3
1191 -2 81 41 c97 48 161 109 211 200 l37 66 1 868 1 867 -27 29 -28 29 -1321
0 -1321 0 -32 -33z m2224 -244 c5 -10 10 -358 12 -774 3 -719 2 -757 -15 -765
-22 -11 -1291 -18 -1541 -9 l-182 7 2 772 3 771 85 6 c47 3 432 6 856 7 726 2
772 1 780 -15z m-2003 -495 c19 -26 19 -28 3 -53 -14 -21 -24 -26 -49 -23 -42
4 -58 44 -33 83 21 33 51 30 79 -7z"/>
<path d="M1702 3423 c-53 -5 -81 -39 -64 -77 10 -23 17 -24 146 -31 74 -4 316
-6 539 -3 431 4 437 4 437 52 0 12 -6 31 -14 42 -14 18 -31 19 -508 20 -271 1
-512 -1 -536 -3z"/>
<path d="M890 3361 c-49 -5 -65 -10 -65 -21 0 -12 21 -16 100 -22 100 -7 580
-1 623 8 42 9 24 31 -30 38 -63 7 -536 5 -628 -3z"/>
<path d="M1156 2778 c-3 -7 -7 -60 -10 -117 -3 -57 -10 -109 -15 -114 -6 -6
-59 -13 -119 -15 l-109 -4 -7 -118 c-6 -117 0 -160 26 -176 7 -4 58 -10 113
-14 l100 -5 8 -110 c6 -86 11 -113 25 -123 22 -17 245 -13 263 5 6 6 14 58 17
121 l5 109 105 5 c140 6 142 9 142 162 0 74 -4 118 -12 129 -10 13 -37 18
-124 23 l-111 7 -5 108 c-4 65 -11 115 -18 124 -17 20 -268 22 -274 3z"/>
<path d="M3380 2739 c-85 -38 -120 -93 -120 -187 0 -111 66 -196 168 -217 82
-17 195 46 233 129 79 175 -105 355 -281 275z m140 -8 c22 -6 19 -8 -20 -13
-24 -4 -58 -4 -75 0 -30 6 -30 6 -5 13 32 9 68 9 100 0z"/>
<path d="M2885 2511 c-102 -25 -175 -113 -175 -210 0 -72 36 -131 113 -183 32
-23 51 -28 97 -28 143 0 238 121 208 264 -22 105 -142 182 -243 157z m105 -31
c11 -7 -5 -10 -52 -10 -39 0 -68 4 -68 10 0 13 100 13 120 0z"/>
<path d="M1920 1713 c-42 -15 -237 -117 -276 -144 -42 -29 -45 -34 -40 -63 3
-17 15 -39 26 -48 18 -15 25 -15 58 -4 34 12 158 73 222 110 14 7 37 19 51 26
57 26 62 88 9 115 -16 8 -30 15 -32 14 -2 0 -10 -3 -18 -6z"/>
<path d="M2420 1681 c-93 -41 -219 -112 -244 -137 -23 -23 -20 -42 13 -75 29
-28 30 -28 70 -14 66 23 264 127 289 152 27 27 28 67 2 93 -26 26 -30 25 -130
-19z"/>
<path d="M3477 1683 c-26 -25 0 -85 144 -333 105 -182 101 -177 133 -162 14 6
26 19 26 27 0 15 -151 299 -208 390 -44 72 -76 98 -95 78z"/>
<path d="M3304 1585 c-10 -25 2 -54 92 -215 146 -263 174 -299 209 -270 19 16
9 40 -92 225 -110 202 -158 275 -183 275 -11 0 -23 -7 -26 -15z"/>
<path d="M3152 1498 c-17 -17 -15 -33 14 -91 57 -114 198 -363 217 -384 24
-27 55 -30 64 -7 13 35 -240 494 -272 494 -6 0 -16 -5 -23 -12z"/>
<path d="M2993 1413 c-7 -2 -13 -16 -13 -30 0 -43 205 -417 251 -459 27 -24
55 -7 52 30 -2 34 -246 460 -264 463 -8 1 -20 -1 -26 -4z"/>
<path d="M2826 1311 c-12 -14 -14 -24 -7 -43 10 -27 228 -416 244 -436 14 -17
47 -11 61 10 12 20 -4 56 -96 218 -94 165 -162 270 -174 270 -6 0 -18 -8 -28
-19z"/>
<path d="M2654 1226 c-8 -21 21 -82 131 -276 113 -200 136 -230 162 -214 10 6
19 18 21 27 3 15 -159 322 -224 425 -26 40 -39 52 -59 52 -14 0 -28 -6 -31
-14z"/>
<path d="M1813 829 c-7 -7 -13 -28 -13 -46 0 -27 5 -35 26 -43 14 -6 130 -10
259 -10 l233 0 7 36 c12 67 6 69 -263 72 -181 2 -240 0 -249 -9z"/>
</g>
</svg>
