<?xml version="1.0" standalone="no"?>
<!DOCTYPE svg PUBLIC "-//W3C//DTD SVG 20010904//EN"
 "http://www.w3.org/TR/2001/REC-SVG-20010904/DTD/svg10.dtd">
<svg version="1.0" xmlns="http://www.w3.org/2000/svg"
 width="112.567903pt" height="110.047265pt" viewBox="0 0 112.567903 110.047265"
 preserveAspectRatio="xMidYMid meet">
<metadata>
Created by potrace 1.16, written by Peter Selinger 2001-2019
</metadata>
<g transform="translate(-28.432097,137.047265) scale(0.100000,-0.100000)"
fill="#000000" stroke="none">
<path d="M960 1359 c0 -6 5 -20 11 -31 8 -14 8 -23 0 -31 -7 -7 -1 -21 20 -46
31 -38 39 -94 19 -131 -10 -18 -19 -19 -123 -13 -88 4 -130 2 -196 -12 l-84
-19 -23 28 c-35 40 -33 96 6 140 30 34 31 35 10 46 -16 9 -18 15 -10 30 25 46
-2 54 -50 14 -40 -34 -70 -93 -77 -153 -7 -58 16 -115 73 -180 21 -25 39 -56
40 -70 1 -23 -5 -28 -53 -44 -59 -19 -70 -17 -83 17 l-9 21 -7 -22 c-5 -20
-11 -22 -49 -16 -24 3 -51 1 -61 -6 -17 -9 -17 -10 7 -11 14 0 34 -7 45 -15
22 -17 12 -20 -17 -5 -15 8 -19 7 -19 -5 0 -18 -26 -20 -33 -2 -2 6 -7 9 -11
5 -4 -3 1 -23 11 -45 15 -32 24 -39 52 -41 19 -2 44 -8 55 -12 19 -8 19 -9 -6
-9 -45 -1 -41 -18 7 -30 25 -6 45 -14 45 -17 0 -3 -9 -2 -20 1 -11 3 -20 2
-20 -4 0 -11 79 -81 93 -81 5 0 7 -7 4 -15 -8 -19 8 -28 30 -17 12 6 36 3 69
-7 49 -16 50 -17 42 -46 -29 -103 6 -255 59 -255 9 0 13 15 13 54 0 45 5 60
27 87 30 36 78 59 121 59 39 0 45 -9 26 -38 -23 -36 -5 -48 40 -27 49 24 78
62 74 99 -3 30 -8 34 -78 66 -8 4 -16 14 -18 22 -2 11 10 17 46 22 28 3 61 16
76 27 14 11 31 19 38 18 7 -2 51 9 98 24 47 14 120 36 163 49 42 13 77 26 77
31 0 4 -61 7 -135 5 -74 -2 -135 0 -135 3 0 15 31 30 50 24 14 -4 20 -2 20 8
0 16 -31 47 -48 47 -6 0 -9 6 -6 14 7 19 -31 57 -50 50 -8 -3 -12 -14 -9 -27
3 -18 1 -17 -12 6 -16 28 -39 38 -29 13 3 -8 1 -17 -5 -21 -6 -3 -11 -3 -12 2
0 4 -2 27 -5 50 -5 36 -2 48 21 74 45 54 65 104 65 163 0 66 -12 102 -48 139
-43 46 -112 74 -112 46z m90 -46 c28 -28 40 -52 49 -92 14 -66 3 -111 -44
-181 -33 -50 -35 -56 -35 -140 0 -122 -20 -165 -95 -203 -47 -23 -105 -29
-175 -18 -53 8 -70 16 -91 41 -30 35 -55 110 -67 198 -7 53 -14 67 -47 100
-21 20 -44 51 -51 69 -34 80 2 209 68 244 15 8 17 6 12 -21 -5 -24 -3 -30 11
-30 14 0 12 -5 -9 -31 -47 -56 -46 -106 3 -161 l28 -31 64 16 c108 26 156 30
240 17 73 -11 81 -11 99 5 22 20 35 73 26 109 -3 14 -17 38 -31 54 -17 21 -21
32 -13 34 10 4 10 10 1 31 -19 41 11 35 57 -10z m90 -439 c0 -16 -38 -53 -54
-54 -6 0 -23 -12 -39 -27 l-29 -28 7 25 c4 14 10 26 14 28 31 13 74 47 78 62
6 22 23 17 23 -6z m-690 -9 c11 -13 10 -14 -4 -9 -9 3 -16 10 -16 15 0 13 6
11 20 -6z m130 6 c0 -4 -19 -8 -42 -8 -31 0 -38 2 -23 8 27 11 65 11 65 0z
m487 -16 c-4 -8 -14 -15 -23 -15 -16 0 -16 2 2 19 21 21 29 19 21 -4z m-653 0
c16 -12 17 -15 4 -15 -8 0 -21 7 -28 15 -16 19 -1 19 24 0z m170 -21 c9 -8 16
-18 16 -22 0 -10 -168 -15 -182 -6 -15 10 76 42 119 43 17 1 39 -6 47 -15z
m602 -16 c5 -7 3 -8 -5 -3 -16 9 -57 -29 -81 -75 -10 -19 -27 -44 -39 -54 -24
-22 -110 -33 -137 -18 -17 9 -16 11 11 18 17 4 32 10 35 13 3 3 27 26 54 51
42 39 46 41 31 15 -10 -16 -30 -40 -44 -53 l-26 -23 28 12 c15 7 37 29 49 48
35 59 59 81 89 81 15 0 31 -5 35 -12z m-846 -18 c13 -8 13 -10 -2 -10 -9 0
-20 5 -23 10 -8 13 5 13 25 0z m265 -21 c15 -14 -7 -10 -35 7 l-25 15 25 -7
c14 -3 29 -10 35 -15z m-142 -4 c22 -7 66 -30 100 -51 33 -21 84 -42 111 -47
28 -5 69 -12 91 -16 l40 -7 -52 -7 c-73 -11 -135 6 -234 63 -48 28 -101 53
-118 56 -17 4 -34 11 -37 15 -8 14 56 10 99 -6z m104 -11 c12 -8 29 -14 37
-14 8 0 24 -14 36 -30 l21 -30 -24 9 c-13 5 -52 28 -88 51 -49 32 -57 40 -34
35 17 -4 40 -14 52 -21z m698 -35 c-38 -10 -83 -16 -100 -13 -21 3 -25 2 -11
-4 15 -7 11 -11 -25 -25 -23 -9 -44 -15 -46 -13 -2 2 7 20 19 39 l23 36 105
-1 104 -1 -69 -18z m-746 -37 c37 -21 82 -44 100 -50 43 -15 151 -15 188 -1
15 6 41 15 56 20 42 12 18 -14 -37 -40 -82 -40 -215 -21 -299 43 -19 15 -52
35 -73 46 -25 12 -32 19 -20 20 10 0 49 -17 85 -38z m24 -58 c21 -14 61 -31
88 -37 62 -15 64 -27 2 -16 -49 10 -139 47 -176 75 -22 16 -22 16 13 10 19 -4
52 -18 73 -32z m426 10 c10 -8 -31 -16 -54 -10 -37 9 -20 27 18 19 18 -3 34
-7 36 -9z"/>
<path d="M909 876 c-31 -15 -47 -75 -31 -110 6 -14 23 -28 38 -32 22 -6 32 -2
51 20 54 64 11 156 -58 122z"/>
<path d="M662 858 c-7 -7 -12 -29 -12 -50 0 -77 88 -119 117 -57 16 32 0 94
-27 109 -25 14 -63 13 -78 -2z"/>
</g>
</svg>
