<?xml version="1.0" standalone="no"?>
<!DOCTYPE svg PUBLIC "-//W3C//DTD SVG 20010904//EN"
 "http://www.w3.org/TR/2001/REC-SVG-20010904/DTD/svg10.dtd">
<svg version="1.0" xmlns="http://www.w3.org/2000/svg"
 width="517.185878pt" height="374.255058pt" viewBox="0 0 517.185878 374.255058"
 preserveAspectRatio="xMidYMid meet">
<metadata>
Created by potrace 1.16, written by Peter Selinger 2001-2019
</metadata>
<g transform="translate(-2.162538,379.413759) scale(0.100000,-0.100000)"
fill="#000000" stroke="none">
<path d="M2347 3770 c-11 -18 -14 -31 -7 -35 5 -3 10 -3 10 2 0 4 5 1 11 -7 8
-12 12 -12 16 -2 4 10 9 10 23 -3 15 -14 20 -14 32 -2 11 11 16 11 25 2 17
-19 61 -6 66 19 4 20 4 20 6 -1 0 -13 5 -23 10 -23 5 0 12 10 14 23 l4 22 2
-22 c0 -13 6 -23 12 -23 6 0 9 12 7 28 -3 26 -4 27 -63 24 -32 -1 -62 -8 -66
-14 -4 -7 -9 -1 -11 13 -4 31 -29 31 -45 -1 -12 -24 -13 -24 -13 -3 0 34 -15
35 -33 3z m83 -9 c0 -11 -4 -23 -10 -26 -6 -4 -10 5 -10 19 0 14 5 26 10 26 6
0 10 -9 10 -19z m70 -17 c0 -10 -11 -11 -38 -5 -2 1 -1 5 2 9 8 13 36 10 36
-4z"/>
<path d="M443 3718 c-30 -14 -29 -26 4 -41 21 -9 27 -9 31 1 6 18 4628 18
4635 0 3 -10 12 -9 38 3 l34 16 -32 17 c-39 20 -43 20 -43 1 0 -13 -266 -15
-2315 -15 -2045 0 -2315 2 -2315 15 0 17 -6 18 -37 3z"/>
<path d="M273 3583 c-9 -17 -9 -30 -3 -38 6 -8 11 -621 12 -1718 3 -1416 1
-1707 -10 -1714 -11 -7 -11 -13 -1 -36 15 -34 23 -34 38 0 9 19 9 29 2 31 -16
5 -16 3439 0 3444 7 2 7 12 -2 31 -15 34 -21 34 -36 0z"/>
<path d="M400 1840 l0 -1770 2395 0 2395 0 2 893 c2 490 2 1287 0 1770 l-2
877 -2395 0 -2395 0 0 -1770z m787 1723 c1 -16 4 -45 6 -65 2 -25 -1 -39 -10
-42 -11 -4 -11 -10 -3 -26 6 -11 9 -20 7 -20 -59 0 -194 -51 -204 -77 -3 -7
-10 -13 -15 -13 -6 0 -33 -24 -60 -52 -70 -76 -138 -219 -152 -321 -10 -74
-12 -78 -33 -72 -13 3 -23 1 -23 -5 0 -16 -217 -13 -223 3 -3 10 -9 10 -26 0
-11 -7 -23 -13 -26 -13 -3 0 -5 164 -5 365 l0 365 383 0 382 0 2 -27z m839 11
c-4 -9 -1 -23 5 -30 15 -18 12 -286 -2 -295 -8 -4 -8 -13 0 -28 l12 -21 -251
0 c-137 0 -250 4 -250 8 0 16 -121 132 -163 156 -23 13 -60 27 -82 30 -71 12
-76 15 -69 42 4 14 2 24 -5 24 -14 0 -15 77 -1 85 6 4 8 15 5 26 -6 19 4 19
400 19 372 0 407 -1 401 -16z m3142 -851 l-3 -868 -107 -3 -108 -3 0 744 c0
587 3 746 13 750 9 3 8 12 -4 38 l-16 34 -17 -33 c-15 -29 -15 -33 -1 -38 13
-5 15 -91 15 -753 -1 -736 -1 -746 -20 -723 -18 22 -19 22 -29 4 -8 -14 -18
-18 -43 -14 -51 7 -54 26 -5 33 23 3 -36 7 -130 7 l-173 2 0 208 0 209 49 31
c147 96 223 225 251 428 12 93 1 193 -31 284 -23 64 -51 120 -60 120 -4 0 -12
13 -19 29 -13 33 -98 117 -151 149 -55 34 -154 55 -219 48 -71 -8 -146 -35
-177 -63 -13 -13 -27 -23 -31 -23 -4 0 -30 -27 -57 -59 l-50 -60 -993 0 -993
-1 12 22 c9 16 9 23 0 26 -15 5 -16 292 0 292 7 0 9 10 5 25 l-6 25 1550 0
1550 0 -2 -867z m-3955 660 c-7 -2 -21 -2 -30 0 -10 3 -4 5 12 5 17 0 24 -2
18 -5z m3200 0 c-7 -2 -21 -2 -30 0 -10 3 -4 5 12 5 17 0 24 -2 18 -5z m-3253
-7 c0 -2 -15 -6 -34 -8 -19 -2 -32 0 -30 4 5 8 64 12 64 4z m133 -3 c-7 -2
-21 -2 -30 0 -10 3 -4 5 12 5 17 0 24 -2 18 -5z m3050 0 c-7 -2 -21 -2 -30 0
-10 3 -4 5 12 5 17 0 24 -2 18 -5z m135 0 c-10 -2 -26 -2 -35 0 -10 3 -2 5 17
5 19 0 27 -2 18 -5z m-3214 -24 c21 -6 48 -12 59 -15 11 -2 30 -12 41 -22 12
-10 33 -26 48 -35 30 -19 114 -139 141 -202 9 -22 23 -79 31 -127 13 -87 13
-87 -7 -76 -16 8 -22 8 -25 -1 -5 -16 -692 -16 -692 0 0 6 -9 9 -20 6 -17 -4
-20 0 -20 28 0 39 25 153 42 193 7 15 23 41 35 58 13 17 23 35 23 40 0 17 112
116 149 132 76 32 133 38 195 21z m3100 -14 c-4 -15 -2 -25 5 -25 8 0 11 -131
11 -465 0 -334 -3 -465 -11 -465 -7 0 -9 -10 -5 -25 5 -21 3 -25 -18 -25 -35
0 -89 25 -145 68 -128 96 -201 257 -201 438 0 102 35 248 69 295 12 15 21 33
21 39 0 16 122 135 158 154 19 10 52 21 75 26 23 4 43 8 45 9 1 1 0 -10 -4
-24z m105 10 c53 -9 91 -33 156 -99 41 -41 72 -86 98 -140 21 -43 36 -80 33
-83 -2 -3 1 -21 8 -41 18 -52 18 -227 1 -280 -8 -23 -14 -46 -13 -50 3 -13
-59 -138 -83 -167 -34 -41 -71 -77 -103 -100 -34 -25 -113 -55 -144 -55 -20 0
-21 2 -11 22 9 16 9 23 0 26 -8 3 -11 128 -11 467 0 339 3 464 11 467 9 3 9
10 0 27 -11 20 -11 22 6 17 10 -3 33 -8 52 -11z m76 5 c3 -6 -1 -7 -9 -4 -18
7 -21 14 -7 14 6 0 13 -4 16 -10z m-3515 -14 c0 -2 -8 -10 -17 -17 -16 -13
-17 -12 -4 4 13 16 21 21 21 13z m-50 -40 c0 -2 -8 -10 -17 -17 -16 -13 -17
-12 -4 4 13 16 21 21 21 13z m3661 -23 c13 -16 12 -17 -3 -4 -17 13 -22 21
-14 21 2 0 10 -8 17 -17z m83 -94 c20 -40 3 -27 -24 18 -14 24 -16 32 -6 24 9
-7 22 -26 30 -42z m-3839 4 c-35 -55 -45 -67 -45 -58 0 10 50 85 58 85 2 0 -4
-12 -13 -27z m639 11 c3 -8 2 -12 -4 -9 -6 3 -10 10 -10 16 0 14 7 11 14 -7z
m93 -62 l-20 -34 -12 28 c-15 36 -13 40 23 39 l28 0 -19 -33z m133 31 c0 -11
-25 -53 -32 -53 -5 0 -7 4 -3 9 3 5 1 12 -5 16 -20 12 -10 33 15 31 14 0 25
-2 25 -3z m50 -28 c0 -5 -5 -3 -10 5 -5 8 -10 20 -10 25 0 6 5 3 10 -5 5 -8
10 -19 10 -25z m53 15 c-6 -22 -23 -38 -23 -21 0 5 -3 16 -6 25 -4 11 0 16 14
16 15 0 19 -5 15 -20z m127 10 c-1 -3 -7 -16 -14 -29 -13 -24 -14 -24 -25 -3
-17 32 -13 42 14 40 14 -1 25 -5 25 -8z m94 4 c12 -5 13 -10 5 -26 -9 -17 -13
-18 -20 -7 -9 15 -12 39 -5 39 2 0 11 -3 20 -6z m127 -25 c-14 -24 -18 -26
-30 -14 -19 19 -7 43 22 43 24 0 24 -1 8 -29z m119 23 c0 -2 -5 -13 -11 -24
-9 -17 -13 -18 -20 -7 -15 23 -10 38 11 36 11 -1 20 -3 20 -5z m70 -14 c0 -10
-4 -18 -10 -18 -5 0 -10 2 -10 4 0 2 -2 11 -5 19 -4 8 0 14 10 14 8 0 15 -9
15 -19z m120 2 c0 -8 -4 -21 -9 -29 -7 -10 -12 -8 -25 10 -22 32 -20 39 9 37
15 -2 25 -9 25 -18z m108 -2 c-4 -28 -19 -27 -30 1 -6 17 -3 21 13 21 15 0 20
-5 17 -22z m33 -5 c-12 -20 -14 -14 -5 12 4 9 9 14 11 11 3 -2 0 -13 -6 -23z
m89 8 c0 -28 -21 -37 -36 -16 -16 22 -10 35 17 35 12 0 19 -7 19 -19z m120 8
c0 -5 -4 -9 -10 -9 -5 0 -9 -3 -7 -7 5 -18 -18 -13 -24 5 -6 16 -3 20 17 20
13 0 24 -4 24 -9z m120 5 c0 -1 -6 -14 -14 -28 -14 -27 -25 -23 -38 15 -5 12
1 15 23 15 16 0 29 -1 29 -2z m101 -4 c6 0 5 -8 -1 -20 -13 -24 -25 -19 -33
11 -4 15 -2 19 10 15 8 -3 19 -6 24 -6z m125 -3 c-3 -7 -9 -20 -12 -29 -9 -25
-19 -22 -32 7 -7 14 -12 27 -12 28 0 1 14 3 31 4 21 2 29 -1 25 -10z m106 -8
c-6 -27 -19 -29 -29 -6 -10 21 -9 23 11 22 12 -2 20 -8 18 -16z m120 5 c-12
-42 -14 -45 -27 -34 -7 6 -15 19 -18 30 -4 15 0 18 22 16 14 -2 25 -7 23 -12z
m110 3 c-1 -4 -5 -14 -9 -23 -5 -13 -7 -13 -14 -2 -14 21 -10 36 9 34 9 -2 16
-6 14 -9z m124 0 c-3 -7 -9 -20 -12 -29 -4 -10 -10 -18 -14 -18 -4 0 -10 8
-14 18 -3 9 -8 22 -11 28 -4 7 7 11 25 12 21 0 29 -3 26 -11z m106 -3 c-12
-44 -14 -47 -23 -33 -15 24 -10 47 9 45 9 -2 16 -7 14 -12z m115 0 c2 -5 0
-18 -3 -28 -6 -18 -8 -18 -25 5 -10 13 -19 26 -19 29 0 10 45 4 47 -6z m128
-1 c-4 -10 -10 -26 -12 -36 -5 -16 -8 -15 -24 10 -25 38 -24 43 12 43 26 0 30
-3 24 -17z m-1987 -18 c-3 -3 -9 2 -12 12 -6 14 -5 15 5 6 7 -7 10 -15 7 -18z
m232 10 c7 -8 9 -15 6 -15 -4 0 -14 7 -22 15 -9 8 -11 15 -6 15 5 0 15 -7 22
-15z m170 7 c0 -5 -7 -17 -16 -28 -8 -10 -14 -14 -11 -9 2 6 7 18 10 28 7 17
17 23 17 9z m453 -7 c-3 -9 -8 -14 -10 -11 -3 3 -2 9 2 15 9 16 15 13 8 -4z
m235 1 c-7 -8 -15 -12 -17 -11 -5 6 10 25 20 25 5 0 4 -6 -3 -14z m230 0 c-7
-8 -15 -12 -17 -11 -5 6 10 25 20 25 5 0 4 -6 -3 -14z m242 10 c0 -3 -4 -8
-10 -11 -5 -3 -10 -1 -10 4 0 6 5 11 10 11 6 0 10 -2 10 -4z m220 -11 c-7 -9
-15 -13 -17 -11 -7 7 7 26 19 26 6 0 6 -6 -2 -15z m960 -49 c0 -6 -7 -2 -15 8
-8 11 -15 25 -15 30 0 6 7 2 15 -8 8 -11 15 -25 15 -30z m-3091 -18 c1 -5 -8
-8 -19 -8 -23 0 -24 3 -8 30 12 18 13 19 20 2 3 -9 7 -20 7 -24z m139 17 c-3
-3 -9 2 -12 12 -6 14 -5 15 5 6 7 -7 10 -15 7 -18z m91 -17 c1 -5 -6 -8 -14
-8 -16 0 -19 9 -8 36 6 16 7 16 14 -2 4 -10 8 -22 8 -26z m139 17 c-3 -3 -9 2
-12 12 -6 14 -5 15 5 6 7 -7 10 -15 7 -18z m745 -5 c4 -15 0 -20 -15 -20 -14
0 -18 5 -14 16 3 9 6 20 6 25 0 17 17 1 23 -21z m697 -12 c0 -4 -9 -8 -20 -8
-21 0 -24 8 -13 36 6 16 7 16 20 -2 7 -10 13 -21 13 -26z m61 19 c-10 -9 -11
-8 -5 6 3 10 9 15 12 12 3 -3 0 -11 -7 -18z m169 -19 c0 -4 -9 -8 -21 -8 -15
0 -19 4 -15 16 3 9 6 21 6 27 1 13 30 -22 30 -35z m230 0 c0 -4 -9 -8 -21 -8
-15 0 -19 4 -15 16 3 9 6 21 6 27 1 13 30 -22 30 -35z m-3136 -63 c-36 -137
-32 -266 13 -389 8 -21 12 -41 9 -44 -3 -3 -8 4 -11 14 -4 10 -11 27 -16 37
-33 61 -49 253 -28 331 13 46 51 147 55 143 1 -1 -9 -42 -22 -92z m1326 63 c0
-5 -7 -8 -15 -8 -15 0 -20 21 -8 33 7 7 23 -11 23 -25z m423 12 c4 -15 0 -20
-14 -20 -21 0 -22 1 -13 24 8 22 21 20 27 -4z m117 -12 c0 -5 -7 -8 -15 -8
-15 0 -20 21 -8 33 7 7 23 -11 23 -25z m343 12 c4 -15 0 -20 -14 -20 -21 0
-22 1 -13 24 8 22 21 20 27 -4z m117 -12 c0 -5 -7 -8 -15 -8 -17 0 -18 2 -9
25 5 13 8 14 15 3 5 -7 9 -16 9 -20z m114 16 c9 -23 8 -24 -14 -24 -11 0 -20
2 -20 4 0 12 13 36 20 36 4 0 11 -7 14 -16z m116 -16 c0 -5 -7 -8 -15 -8 -17
0 -18 2 -9 25 5 13 8 14 15 3 5 -7 9 -16 9 -20z m-1572 4 c2 -7 -6 -12 -17
-12 -21 0 -27 11 -14 24 9 9 26 2 31 -12z m227 7 c10 -15 -1 -23 -20 -15 -9 3
-13 10 -10 16 8 13 22 13 30 -1z m230 0 c10 -15 -1 -23 -20 -15 -9 3 -13 10
-10 16 8 13 22 13 30 -1z m193 -7 c2 -7 -3 -12 -12 -12 -9 0 -16 7 -16 16 0
17 22 14 28 -4z m460 0 c2 -7 -3 -12 -12 -12 -9 0 -16 7 -16 16 0 17 22 14 28
-4z m175 3 c-3 -9 -8 -14 -10 -11 -3 3 -2 9 2 15 9 16 15 13 8 -4z m230 0 c-3
-9 -8 -14 -10 -11 -3 3 -2 9 2 15 9 16 15 13 8 -4z m287 -6 c0 -5 -7 -9 -15
-9 -15 0 -20 12 -9 23 8 8 24 -1 24 -14z m230 0 c0 -5 -7 -9 -15 -9 -15 0 -20
12 -9 23 8 8 24 -1 24 -14z m976 -94 c19 -68 18 -209 -2 -287 -17 -66 -41
-118 -29 -63 4 17 13 70 21 119 15 89 12 134 -21 301 -5 29 -5 29 6 5 6 -14
17 -47 25 -75z m-803 36 c-4 -21 -8 -28 -13 -20 -5 6 -3 23 3 36 13 30 16 26
10 -16z m-2398 3 c2 -11 6 -35 9 -54 l6 -35 -14 35 c-8 19 -15 46 -15 59 -1
27 7 24 14 -5z m2360 -5 c-11 -18 -35 -142 -35 -182 0 -34 -2 -37 -19 -27 -26
13 -31 13 -31 -5 0 -12 -77 -14 -558 -15 l-557 0 -11 27 c-9 25 -15 28 -60 28
-27 0 -54 -4 -60 -8 -7 -4 -14 0 -18 8 -3 8 -15 15 -26 15 -25 0 -27 -34 -2
-50 16 -11 16 -11 0 -6 -10 3 -18 1 -18 -5 0 -6 -4 -7 -10 -4 -5 3 -10 19 -10
36 0 29 -22 41 -35 19 -3 -5 -1 -10 5 -10 6 0 10 -10 8 -22 l-3 -23 -397 -2
c-344 -2 -398 0 -398 12 0 19 -4 19 -40 0 l-30 -16 0 65 c0 35 -7 80 -15 99
-8 20 -15 46 -15 57 0 20 0 20 1171 20 829 0 1168 -3 1164 -11z m13 -114 c-12
-78 -6 -171 15 -225 3 -8 13 -40 23 -70 22 -72 91 -168 159 -224 71 -58 147
-86 231 -86 l64 0 -16 -25 c-15 -23 -15 -25 0 -25 14 0 16 -19 16 -150 0 -103
-3 -150 -11 -150 -7 0 -9 -10 -5 -25 6 -22 3 -25 -19 -25 l-25 0 0 139 c0 128
-2 140 -19 146 -10 3 -23 5 -27 3 -5 -1 -26 1 -48 6 -77 15 -154 70 -224 160
-46 58 -103 176 -117 241 -24 108 -25 299 -3 358 16 43 18 28 6 -48z m-2336
-110 c1 -87 -29 -246 -53 -280 -4 -5 -10 -25 -14 -42 -3 -18 -10 -33 -14 -33
-5 0 -16 -18 -26 -40 -10 -22 -45 -66 -79 -98 -75 -72 -159 -115 -221 -114
l-44 1 -3 -102 -3 -102 -52 -3 -53 -3 0 160 0 161 79 0 c118 0 193 26 269 96
52 46 124 133 128 154 0 3 8 22 17 42 10 21 17 47 17 58 0 12 6 31 12 43 7 12
13 58 14 102 1 44 3 91 4 105 4 50 21 -31 22 -105z m958 45 c0 -5 -4 -10 -10
-10 -5 0 -10 5 -10 10 0 6 5 10 10 10 6 0 10 -4 10 -10z m-2135 -16 c8 -3 15
-1 15 5 0 7 36 11 110 11 68 0 110 -4 110 -10 0 -6 11 -8 25 -4 23 6 25 3 25
-25 0 -62 33 -177 71 -251 38 -73 105 -160 125 -160 5 0 25 -14 44 -30 19 -17
43 -33 53 -36 15 -5 17 -19 17 -101 0 -87 -2 -95 -17 -88 -37 15 -53 17 -53 6
0 -17 -507 -16 -512 1 -4 10 -10 10 -31 1 l-27 -13 0 356 c0 313 2 355 15 350
8 -3 22 -9 30 -12z m393 5 c3 8 98 11 347 11 249 0 344 -3 347 -11 3 -9 10 -9
26 0 20 11 22 9 22 -14 0 -35 -29 -164 -45 -195 -6 -14 -22 -46 -34 -72 -31
-63 -124 -158 -189 -191 -41 -21 -68 -27 -114 -27 -66 0 -134 16 -159 37 -8 7
-20 13 -25 13 -19 0 -134 132 -157 182 -30 62 -53 152 -60 225 -4 50 -3 52 17
41 15 -8 21 -8 24 1z m1810 -16 c-14 -17 -28 -16 -28 1 0 8 9 14 19 13 15 -1
17 -4 9 -14z m34 -15 c-9 -9 -12 -7 -12 12 0 19 3 21 12 12 9 -9 9 -15 0 -24z
m38 11 c0 -11 -4 -17 -10 -14 -5 3 -10 13 -10 21 0 8 5 14 10 14 6 0 10 -9 10
-21z m-1027 -46 c9 -3 17 0 17 6 0 17 2147 16 2153 -1 3 -10 9 -10 26 0 20 12
21 10 21 -25 0 -36 18 -137 38 -213 19 -71 86 -181 149 -243 63 -62 150 -116
189 -117 12 0 36 -3 53 -6 l31 -6 0 -129 0 -129 -76 0 -76 0 6 68 c4 37 9 90
12 119 6 49 4 52 -20 59 -15 3 -38 0 -55 -9 -17 -9 -44 -18 -61 -22 -38 -8
-44 -32 -37 -136 l5 -79 -48 0 c-44 0 -48 2 -53 27 -6 34 1 93 13 108 16 19
-1 55 -28 62 -14 3 -43 2 -64 -4 -21 -6 -41 -6 -44 -2 -9 15 -43 10 -52 -8 -5
-10 -8 -55 -7 -100 l1 -83 -39 0 -39 0 3 88 4 87 -60 8 c-33 5 -67 12 -76 17
-28 15 -39 -10 -39 -87 0 -40 -4 -73 -8 -73 -17 0 -48 36 -62 70 -23 61 -37
70 -102 70 -54 0 -59 -2 -68 -26 -6 -14 -10 -54 -10 -90 l0 -64 -60 0 -61 0
-25 53 c-13 28 -27 69 -30 90 l-7 37 -82 0 c-76 0 -84 -2 -109 -26 -14 -15
-26 -34 -26 -44 0 -9 -3 -20 -7 -24 -5 -4 -13 -24 -18 -44 -10 -36 -12 -37
-62 -40 l-51 -3 -8 91 -7 90 -67 0 -67 0 -18 -39 c-10 -22 -28 -50 -40 -61
l-23 -22 -12 21 c-6 12 -10 29 -9 39 1 9 1 22 0 29 -2 17 -58 33 -122 33 -58
0 -58 0 -64 -33 -4 -18 -5 -44 -4 -57 1 -14 1 -40 1 -57 -2 -28 -6 -33 -27
-33 -22 0 -25 4 -26 38 -1 86 -5 122 -14 130 -15 12 -105 33 -116 27 -5 -4 -9
-49 -9 -101 l0 -94 -55 0 -55 0 0 84 0 84 -31 6 c-52 10 -99 7 -100 -6 -1 -7
-1 -48 1 -91 l2 -78 -39 3 -38 3 -3 92 c-2 79 -6 94 -22 103 -10 5 -26 7 -34
4 -9 -4 -29 -2 -44 4 -15 6 -49 13 -75 17 l-48 6 6 -43 c4 -24 15 -63 25 -88
10 -25 21 -57 24 -72 l6 -28 -154 0 c-112 0 -158 3 -165 13 -6 6 -22 27 -37
45 -21 26 -33 32 -65 32 l-39 0 0 84 0 83 43 8 c23 4 51 8 62 9 28 2 109 51
155 92 38 34 130 162 130 180 0 5 9 27 20 49 11 22 20 50 20 62 0 13 7 40 15
60 8 19 15 65 15 100 0 58 2 64 18 58 9 -4 25 -10 35 -12z m3047 -197 c0 -3
-4 -8 -10 -11 -5 -3 -10 -1 -10 4 0 6 5 11 10 11 6 0 10 -2 10 -4z m-240 -466
c0 -171 -2 -200 -15 -200 -18 0 -18 5 -5 31 8 15 7 19 -5 19 -13 0 -15 22 -15
150 0 128 2 150 15 150 12 0 13 4 5 19 -13 26 -13 31 5 31 13 0 15 -29 15
-200z m-292 21 c10 -6 12 -19 7 -42 -4 -19 -9 -76 -12 -126 -3 -51 -8 -93 -12
-94 -3 0 -26 -1 -51 -2 l-45 -2 -5 68 c-3 37 -3 89 -2 116 4 47 5 49 43 61 22
8 42 17 45 22 6 10 15 10 32 -1z m-3233 -21 c6 -5 17 -5 25 0 34 22 41 12 38
-57 l-3 -67 -240 2 c-132 2 -245 -1 -251 -5 -20 -15 -38 -57 -25 -61 6 -2 11
-17 11 -33 0 -29 0 -29 -52 -25 -29 3 -59 5 -65 6 -10 0 -13 32 -13 126 0 136
-4 128 48 107 6 -3 12 0 12 6 0 6 31 11 78 13 137 5 426 -3 437 -12z m675 0
c10 -6 40 -12 66 -15 26 -3 51 -8 55 -12 4 -5 9 -55 11 -113 l3 -105 -40 1
c-22 1 -45 2 -52 3 -7 0 -17 20 -24 44 -6 23 -21 69 -34 102 -37 94 -39 105
-20 105 9 0 25 -5 35 -10z m560 -40 c18 -10 21 -25 34 -157 5 -47 -2 -53 -65
-53 l-39 0 0 110 0 110 26 0 c14 0 34 -4 44 -10z m205 -6 c22 -4 45 -8 50 -8
6 -1 10 -15 11 -32 1 -39 31 -84 55 -84 11 0 19 6 19 13 0 6 14 25 30 40 17
16 30 36 30 44 0 39 91 60 108 26 4 -10 8 -58 7 -108 l0 -90 -190 0 -190 0 -3
108 c-2 100 -1 108 15 104 10 -3 36 -9 58 -13z m669 4 c7 -28 45 -135 59 -168
l15 -35 -55 2 c-31 0 -66 7 -79 14 -19 10 -26 9 -40 -1 -14 -12 -102 -16 -113
-5 -1 2 5 28 15 57 10 29 19 58 20 64 3 20 36 64 48 65 32 2 80 10 84 14 10
10 43 5 46 -7z m346 -28 c10 -19 24 -47 31 -62 12 -28 70 -63 92 -55 8 2 11
28 9 81 l-3 77 62 -3 62 -3 1 -103 c1 -96 0 -103 -20 -108 -11 -3 -94 -4 -185
-2 l-164 3 -3 75 c-4 96 1 113 35 127 44 17 64 11 83 -27z m522 -42 c-5 -146
2 -133 -67 -134 -33 0 -63 4 -67 10 -3 5 -7 54 -7 108 l-1 98 72 0 73 0 -3
-82z m-1987 60 c18 -2 20 -9 21 -100 l1 -98 -34 4 c-18 2 -37 7 -41 10 -8 8
-21 176 -14 189 2 4 13 5 25 2 12 -3 31 -7 42 -7z m-1033 -88 c-58 -9 -179
-65 -200 -92 -10 -14 -28 -18 -75 -18 -86 0 -107 7 -107 35 0 13 5 25 11 27 7
2 7 12 0 31 l-11 27 218 -1 c146 -1 200 -4 164 -9z m323 -2 c13 -15 55 -83 55
-90 0 -4 -11 -6 -25 -2 -15 4 -25 2 -25 -5 0 -7 -28 -11 -79 -11 -79 0 -80 0
-83 28 -3 26 -6 27 -58 29 -30 0 -59 -2 -65 -7 -5 -4 -19 -4 -30 1 -17 6 -17
8 -2 8 23 1 22 21 -2 21 -10 0 -21 -9 -24 -20 -4 -15 0 -20 15 -20 11 0 18 -5
15 -12 -2 -7 -12 -12 -22 -10 -10 2 -14 -1 -10 -7 4 -7 -14 -11 -55 -11 -44 0
-59 3 -54 12 5 8 0 9 -14 6 -39 -11 -23 1 54 37 57 27 92 37 147 41 40 3 95 8
122 13 45 7 133 6 140 -1z m-235 -78 c0 -12 -29 -20 -35 -10 -9 15 4 30 20 23
8 -3 15 -9 15 -13z m27 -17 c-3 -10 -5 -4 -5 12 0 17 2 24 5 18 2 -7 2 -21 0
-30z m30 0 c-3 -10 -5 -4 -5 12 0 17 2 24 5 18 2 -7 2 -21 0 -30z m273 7 c0
-5 -7 -10 -16 -10 -8 0 -12 5 -9 10 3 6 10 10 16 10 5 0 9 -4 9 -10z m300 -4
c0 -19 -231 -17 -237 2 -4 9 24 12 116 12 96 0 121 -3 121 -14z m230 -1 c0
-10 -9 -14 -32 -12 -45 4 -49 27 -4 27 25 0 36 -4 36 -15z m230 5 c0 -5 -6
-11 -12 -11 -47 -5 -72 -2 -76 9 -2 8 11 12 42 12 25 0 46 -4 46 -10z m200 1
c0 -18 -17 -20 -36 -6 -18 14 -18 14 9 15 15 0 27 -4 27 -9z m530 -6 c-8 -9
-24 -13 -44 -10 -17 2 -35 4 -39 4 -5 1 -5 6 -2 11 3 6 27 10 52 10 39 0 44
-2 33 -15z m448 3 c-4 -12 -68 -18 -95 -10 -32 10 -8 22 43 22 40 0 54 -4 52
-12z m509 0 c-5 -17 -75 -17 -81 -1 -4 9 7 13 40 13 32 0 44 -4 41 -12z m273
-4 c0 -12 -10 -14 -47 -12 -66 4 -70 28 -4 28 39 0 51 -4 51 -16z m688 7 c27
-16 -17 -20 -277 -21 -228 0 -261 1 -261 15 0 13 34 15 263 15 144 0 268 -4
275 -9z m-3500 -48 c9 -14 12 -15 26 -4 9 8 19 11 23 7 7 -7 -14 -53 -34 -74
-7 -7 -13 -17 -13 -22 0 -18 -38 -19 -188 -3 -145 15 -163 19 -240 55 -46 22
-81 42 -79 45 3 2 15 0 26 -7 16 -8 22 -8 26 2 4 10 56 14 225 16 198 2 220 1
228 -15z m-722 -20 c-1 -16 -7 -33 -15 -39 -11 -9 -11 -15 3 -36 16 -24 16
-26 -4 -31 -20 -5 -28 -27 -10 -27 6 0 10 5 10 11 0 5 5 7 11 4 7 -5 3 -15
-10 -29 -27 -29 -26 -36 4 -36 14 0 25 5 25 10 0 6 -5 10 -11 10 -8 0 -7 6 2
16 12 15 14 14 19 -7 5 -19 13 -24 38 -26 26 -1 32 2 33 20 0 21 1 20 11 -3
l11 -25 6 25 7 25 8 -25 c7 -21 9 -22 13 -7 10 39 -3 48 -69 45 -38 -2 -63 1
-65 8 -3 8 57 11 207 12 117 0 214 3 217 6 4 3 19 6 35 6 l28 0 0 -179 0 -179
-27 -11 c-81 -33 -176 -133 -220 -231 -43 -95 -54 -142 -60 -258 l-6 -114 -78
-131 c-74 -123 -86 -147 -75 -147 3 0 40 59 82 131 l77 131 14 -52 c54 -213
241 -400 400 -400 30 0 64 -5 75 -11 16 -9 22 -8 29 2 7 12 262 14 1531 14
892 0 1531 -4 1543 -9 11 -5 25 -8 30 -6 36 12 158 20 335 22 l205 2 -195 6
c-107 3 -189 7 -182 8 23 4 95 57 140 104 193 199 222 525 68 769 -41 65 -115
135 -175 165 l-31 15 0 215 0 214 120 0 c66 0 119 -3 119 -7 -1 -5 -1 -23 0
-40 2 -47 21 -41 21 7 l0 40 41 0 c23 0 38 4 34 9 -3 6 -19 8 -35 6 -24 -3
-30 0 -30 16 0 28 54 26 74 -3 l15 -21 20 24 20 24 1 -37 c0 -37 -1 -38 -37
-39 -21 -1 -48 0 -59 0 -25 2 -39 -26 -23 -45 13 -16 39 -19 39 -4 0 6 -7 10
-15 10 -15 0 -20 12 -9 23 12 11 34 -5 34 -26 0 -25 16 -12 23 18 4 15 5 13 6
-7 1 -33 21 -38 22 -5 1 21 1 21 9 -3 4 -14 8 -100 9 -192 1 -128 -2 -168 -11
-169 -7 -1 -31 -1 -53 -1 -22 0 -45 -4 -52 -10 -8 -6 -18 -6 -30 2 -17 11 -17
11 0 6 12 -4 17 -2 15 6 -3 7 -13 13 -24 13 -15 0 -19 -7 -19 -35 0 -32 3 -35
30 -36 17 -1 35 -2 40 -4 25 -6 43 2 50 23 l7 22 8 -25 8 -25 8 25 8 25 7 -25
c11 -41 11 -970 -1 -970 -14 0 -12 -33 3 -53 11 -15 14 -14 29 13 15 27 16 32
3 36 -13 5 -15 103 -15 745 l0 739 110 0 110 0 0 -875 0 -875 -2375 0 -2375 0
0 875 0 875 68 0 c68 0 68 0 68 -27z m204 2 c13 -14 30 -25 38 -25 9 0 23 -6
31 -14 9 -8 43 -24 76 -35 l60 -20 -198 -1 -198 0 12 21 c8 15 8 24 0 32 -6 6
-11 24 -11 39 l0 28 83 0 c76 0 86 -2 107 -25z m610 10 c0 -8 -7 -15 -15 -15
-8 0 -15 7 -15 15 0 8 7 15 15 15 8 0 15 -7 15 -15z m27 -7 c-3 -8 -6 -5 -6 6
-1 11 2 17 5 13 3 -3 4 -12 1 -19z m291 10 c-3 -9 -41 -14 -131 -16 -109 -2
-127 0 -127 13 0 13 20 15 131 15 100 0 130 -3 127 -12z m124 -88 c7 -139 -3
-192 -44 -236 -45 -47 -81 -64 -156 -71 l-63 -6 -44 43 c-24 23 -46 54 -50 67
-10 42 12 96 46 116 18 10 34 16 36 13 3 -3 0 -21 -7 -41 -13 -40 -2 -76 30
-102 39 -32 129 1 147 54 11 29 9 208 -2 243 -6 18 -2 20 48 20 l54 0 5 -100z
m88 85 c0 -10 -11 -15 -35 -15 -24 0 -35 5 -35 15 0 10 11 15 35 15 24 0 35
-5 35 -15z m118 -30 c-2 -53 14 -75 55 -75 37 0 65 31 73 82 l7 38 58 0 57 0
-3 -34 c-1 -19 -10 -57 -20 -85 -14 -43 -24 -55 -58 -73 -76 -40 -196 -20
-234 39 -10 15 -20 55 -23 90 l-5 63 47 0 48 0 -2 -45z m112 30 c0 -11 -12
-15 -45 -15 -33 0 -45 4 -45 15 0 11 12 15 45 15 33 0 45 -4 45 -15z m200 0
c0 -9 -9 -15 -25 -15 -24 0 -32 10 -18 23 12 13 43 7 43 -8z m430 -85 c0 -98
-1 -101 -25 -110 -14 -5 -38 -7 -55 -4 l-30 7 0 78 c0 89 -12 106 -47 65 -29
-34 -52 -30 -78 12 -13 21 -27 31 -40 29 -18 -2 -20 -9 -20 -84 1 -92 0 -93
-84 -93 l-44 0 8 58 c4 31 9 69 10 85 1 15 3 34 4 42 1 13 30 15 201 15 l200
0 0 -100z m83 84 c-7 -18 -64 -16 -71 4 -2 8 9 12 37 12 32 0 39 -3 34 -16z
m147 -4 c0 -33 28 -35 55 -6 23 24 31 27 87 24 l62 -3 16 -43 c8 -23 23 -51
33 -63 10 -11 15 -24 13 -28 -3 -4 1 -17 9 -27 32 -42 9 -58 -71 -48 -55 6
-74 27 -74 79 0 33 -39 58 -76 49 -52 -13 -89 -40 -100 -72 -16 -51 -32 -61
-87 -55 -48 6 -48 6 -42 37 6 30 15 59 31 101 4 11 6 23 6 28 -1 4 2 7 7 7 5
0 11 9 14 20 4 17 14 20 61 20 50 0 56 -2 56 -20z m50 16 c0 -3 -4 -8 -10 -11
-5 -3 -10 -1 -10 4 0 6 5 11 10 11 6 0 10 -2 10 -4z m270 -12 c0 -12 -9 -14
-42 -12 -59 4 -63 28 -4 28 35 0 46 -4 46 -16z m413 -75 c9 -138 -5 -158 -90
-133 -43 12 -52 20 -67 54 -10 22 -27 53 -40 68 -12 15 -28 39 -35 55 -8 15
-22 27 -31 27 -21 0 -30 -38 -30 -126 l0 -64 -56 0 -57 0 7 53 c3 28 6 76 6
105 l0 52 194 0 193 0 6 -91z m97 76 c0 -11 -11 -15 -40 -15 -29 0 -40 4 -40
15 0 11 11 15 40 15 29 0 40 -4 40 -15z m150 -93 c0 -122 -25 -222 -63 -256
-12 -11 -32 -28 -43 -38 -25 -22 -124 -39 -184 -31 -46 6 -49 24 -4 33 39 9
114 57 114 74 0 7 9 25 20 39 22 28 39 126 40 225 l0 62 60 0 60 0 0 -108z
m130 93 c0 -12 -13 -15 -55 -15 -42 0 -55 3 -55 15 0 12 13 15 55 15 42 0 55
-3 55 -15z m129 -86 c7 -56 10 -104 6 -107 -3 -4 -38 -8 -77 -10 -71 -4 -71
-4 -63 19 4 13 12 63 18 112 l10 87 47 0 47 0 12 -101z m551 86 c-10 -13 -54
-15 -276 -15 -228 0 -264 2 -264 15 0 13 37 15 276 15 245 0 275 -2 264 -15z
m-2280 -44 c0 -22 15 -36 53 -50 23 -9 31 -7 47 9 11 11 21 20 23 20 1 0 1
-28 -1 -63 -4 -74 6 -87 72 -94 72 -9 81 2 82 99 l0 83 29 3 c24 3 27 1 20
-15 -19 -43 -38 -130 -32 -145 6 -18 104 -35 133 -24 9 3 25 28 36 55 17 39
29 52 59 64 47 18 60 10 80 -50 10 -31 24 -52 40 -60 25 -13 131 -18 143 -6 3
4 41 7 84 7 l77 1 3 70 c4 100 7 103 47 51 19 -26 35 -50 35 -55 0 -5 7 -14
15 -21 8 -7 15 -21 15 -31 0 -25 38 -39 106 -41 80 -2 88 8 82 114 l-5 88 38
0 39 0 0 -72 c0 -111 -40 -204 -98 -229 -20 -9 -54 -24 -75 -33 -30 -13 -38
-21 -35 -39 2 -18 12 -23 48 -29 75 -11 171 1 212 28 86 55 117 133 118 302
l0 72 56 0 c48 0 55 -2 50 -17 -12 -45 -29 -164 -23 -169 9 -9 162 -8 177 1 9
6 11 30 6 96 l-7 89 71 0 70 0 0 -135 0 -135 -32 0 c-18 0 -62 -10 -97 -22
-102 -36 -235 -179 -276 -298 -1 -3 -5 -12 -8 -20 -51 -120 -61 -418 -16 -503
9 -16 -32 -17 -797 -17 l-806 0 88 98 c48 53 91 100 94 104 3 5 18 9 33 10 15
1 28 6 28 10 1 4 2 12 3 17 3 25 16 21 17 -5 1 -23 3 -25 6 -6 5 27 23 29 23
2 0 -11 5 -20 11 -20 6 0 8 7 5 16 -3 9 -6 22 -6 29 0 9 -15 13 -52 11 -64 -2
-81 -11 -73 -39 2 -12 2 -17 -1 -10 -3 7 -13 9 -22 6 -15 -6 -15 -4 2 15 10
12 16 28 12 37 -7 20 -37 16 -44 -5 -5 -13 -3 -13 11 -1 14 11 17 11 17 1 0
-19 -30 -50 -49 -51 -9 -1 2 -5 24 -8 l40 -6 -90 -102 -90 -102 -177 0 -176
-1 -66 110 c-36 60 -66 114 -66 119 0 14 28 21 34 8 2 -7 5 0 5 16 1 32 21 37
21 5 0 -20 13 -18 16 3 3 23 7 22 14 -6 6 -25 8 -27 14 -12 13 29 -1 47 -38
47 -25 0 -35 -5 -39 -20 -6 -23 -37 -27 -37 -5 0 8 8 15 18 15 14 0 15 2 2 10
-22 14 -43 -9 -35 -39 4 -14 35 -74 71 -133 35 -59 64 -110 64 -113 0 -3 -76
-5 -170 -5 -190 0 -186 -2 -156 71 18 43 22 282 6 325 -6 16 -13 44 -16 62 -2
18 -23 72 -46 120 -32 65 -60 105 -113 158 -78 80 -142 115 -221 122 -51 4
-52 5 -52 38 0 19 4 34 9 34 5 0 9 -12 9 -26 0 -14 4 -23 8 -20 4 3 6 20 4 40
-3 25 -8 33 -19 29 -11 -5 -14 4 -11 43 l3 49 42 5 c33 4 49 13 74 43 l32 37
168 0 169 0 1 -67 c3 -142 -10 -174 -77 -188 -26 -5 -34 -2 -49 21 -14 21 -16
39 -11 80 l6 54 -30 0 c-16 0 -30 -4 -30 -10 0 -5 -6 -10 -13 -10 -32 0 -51
-39 -51 -104 0 -61 2 -65 42 -107 l42 -44 87 2 c100 2 128 13 181 69 43 46 55
106 45 227 l-6 77 37 0 c29 0 36 -4 36 -19 0 -36 31 -105 55 -125 81 -65 225
-58 290 14 19 21 22 30 30 83 6 39 13 47 36 47 19 0 20 -6 17 -82 l-3 -83 50
-3 c27 -2 65 -1 82 3 l33 6 -4 84 c-3 50 -1 85 5 85 5 0 9 -8 9 -19z m-380 -1
c0 -16 -46 -41 -64 -34 -9 3 -16 15 -16 25 0 15 7 19 40 19 22 0 40 -4 40 -10z
m1184 -37 c-3 -27 -5 -59 -6 -72 0 -35 -18 -4 -18 32 0 15 -3 27 -7 27 -5 0
-16 14 -25 30 l-17 30 39 0 39 0 -5 -47z m1216 -153 l0 -200 -71 0 c-110 0
-187 -26 -274 -91 -71 -54 -133 -141 -161 -229 -9 -25 -18 -52 -21 -60 -22
-54 -22 -233 0 -310 27 -93 29 -109 10 -70 -9 19 -16 38 -15 42 1 4 -3 20 -9
35 -35 87 -25 355 16 448 97 219 202 321 355 342 l55 8 3 143 3 142 54 0 55 0
0 -200z m-3342 114 c7 -2 12 -22 12 -54 0 -56 1 -55 -35 -38 -18 8 -31 8 -49
0 -24 -10 -24 -10 -28 39 -1 27 -2 53 0 58 3 8 68 5 100 -5z m-548 -45 c0 -5
-9 -9 -20 -9 -19 0 -26 11 -14 23 8 8 34 -3 34 -14z m551 -178 c-8 -14 -8 -21
2 -24 9 -4 9 -8 -2 -15 -10 -7 -11 -14 -2 -31 11 -20 10 -21 -44 -21 l-55 0 0
95 c0 52 2 95 5 95 2 0 15 -5 29 -11 19 -9 29 -8 48 5 l23 17 3 -45 c2 -25 -2
-54 -7 -65z m120 2 c64 -20 145 -77 185 -130 45 -58 84 -118 84 -129 0 -5 7
-22 15 -38 17 -31 51 -182 58 -254 5 -46 -27 -254 -43 -281 -14 -24 -13 20 1
56 17 44 20 239 4 282 -7 20 -16 50 -20 66 -12 54 -77 159 -135 215 -64 63
-93 80 -185 104 -36 10 -40 14 -37 39 2 16 -2 27 -10 27 -6 0 -4 6 7 13 12 10
14 16 7 21 -16 10 -15 26 2 26 7 0 38 -8 67 -17z m33 -159 c48 -22 156 -116
156 -135 0 -4 6 -14 13 -21 6 -7 18 -26 26 -43 7 -16 19 -41 26 -55 13 -25 34
-113 42 -181 12 -89 -56 -359 -89 -359 -4 0 -8 -7 -8 -15 0 -22 -98 -117 -155
-151 -46 -27 -57 -29 -145 -28 -68 0 -104 5 -127 17 -37 20 -153 125 -153 139
0 5 -11 21 -25 36 -14 15 -25 34 -25 44 0 9 -4 19 -9 22 -18 11 -44 162 -44
251 0 129 44 285 95 340 7 7 24 28 38 46 13 17 47 47 76 66 100 66 206 76 308
27z m3114 25 c82 -19 111 -37 196 -124 50 -51 106 -155 111 -207 1 -9 8 -30
14 -46 8 -19 11 -66 8 -138 -6 -124 -14 -180 -32 -209 -7 -11 -16 -31 -20 -45
-7 -25 -75 -122 -104 -150 -25 -23 -83 -64 -115 -80 -37 -19 -201 -19 -236 -1
-167 89 -270 281 -270 501 0 129 48 277 117 357 51 60 77 83 93 83 5 0 10 4
10 9 0 5 21 18 48 29 80 34 109 38 180 21z m342 -15 c0 -8 -5 -12 -10 -9 -6 4
-8 11 -5 16 9 14 15 11 15 -7z m74 7 c3 -5 -1 -12 -10 -15 -22 -9 -24 -8 -24
9 0 16 25 21 34 6z m-183 -108 c13 -16 12 -17 -3 -4 -10 7 -18 15 -18 17 0 8
8 3 21 -13z m-3799 -55 c-7 -7 -12 -8 -12 -2 0 14 12 26 19 19 2 -3 -1 -11 -7
-17z m-12 -22 c0 -3 -4 -8 -10 -11 -5 -3 -10 -1 -10 4 0 6 5 11 10 11 6 0 10
-2 10 -4z m3900 -70 c0 -18 -17 8 -24 34 l-7 25 15 -25 c9 -14 15 -29 16 -34z
m-3941 -17 c-32 -105 -40 -151 -38 -224 1 -77 18 -175 39 -231 6 -15 9 -29 6
-31 -6 -7 -46 86 -46 108 0 10 -5 29 -11 43 -9 20 -9 29 1 41 8 10 9 15 1 15
-27 0 -6 169 34 275 20 52 30 55 14 4z m3977 -85 c8 -30 14 -97 14 -148 0 -77
-5 -110 -31 -187 -17 -52 -35 -98 -41 -104 -13 -12 -8 8 21 84 33 87 44 196
30 298 -6 48 -16 92 -20 98 -5 5 -9 18 -9 30 1 18 1 19 11 2 6 -9 17 -42 25
-73z m-2216 -83 c0 -5 -7 -12 -16 -15 -22 -9 -24 -8 -24 9 0 8 9 15 20 15 11
0 20 -4 20 -9z m79 -312 c-9 -5 -15 -4 -18 2 -2 6 3 15 10 20 9 5 15 4 18 -2
2 -6 -3 -15 -10 -20z m588 7 c-6 -17 -31 -13 -35 6 -2 12 2 15 18 11 11 -3 19
-11 17 -17z m-1577 7 c0 -5 -4 -13 -8 -20 -6 -9 -11 -7 -20 7 -11 17 -10 20 8
20 11 0 20 -3 20 -7z m114 -7 c-3 -8 -12 -12 -20 -9 -21 8 -17 23 6 23 13 0
18 -5 14 -14z m115 7 c-1 -16 -18 -48 -18 -36 -1 6 -4 18 -7 27 -4 11 -1 16
10 16 9 0 16 -3 15 -7z m116 -3 c-3 -5 -13 -10 -21 -10 -8 0 -14 5 -14 10 0 6
9 10 21 10 11 0 17 -4 14 -10z m113 -1 c-2 -6 -8 -10 -13 -10 -5 0 -11 4 -13
10 -2 6 4 11 13 11 9 0 15 -5 13 -11z m114 -1 c-9 -9 -15 -9 -24 0 -9 9 -7 12
12 12 19 0 21 -3 12 -12z m198 3 c0 -17 -18 -21 -24 -6 -3 9 0 15 9 15 8 0 15
-4 15 -9z m110 -5 c0 -8 -4 -18 -10 -21 -5 -3 -10 -4 -10 -1 0 2 -3 11 -6 20
-4 11 -1 16 10 16 9 0 16 -6 16 -14z m230 2 c0 -17 -20 -47 -20 -31 0 6 -3 18
-6 27 -4 11 -1 16 10 16 9 0 16 -6 16 -12z m120 2 c0 -5 -7 -10 -15 -10 -8 0
-15 5 -15 10 0 6 7 10 15 10 8 0 15 -4 15 -10z m110 -4 c0 -8 -4 -18 -10 -21
-5 -3 -10 -4 -10 -1 0 2 -3 11 -6 20 -4 11 -1 16 10 16 9 0 16 -6 16 -14z
m118 3 c-2 -6 -8 -10 -13 -10 -5 0 -11 4 -13 10 -2 6 4 11 13 11 9 0 15 -5 13
-11z m230 0 c-2 -6 -8 -10 -13 -10 -5 0 -11 4 -13 10 -2 6 4 11 13 11 9 0 15
-5 13 -11z m122 2 c0 -5 -7 -14 -15 -21 -8 -7 -15 -10 -15 -7 0 3 -3 12 -6 21
-4 12 0 16 15 16 12 0 21 -4 21 -9z m108 -2 c-2 -6 -8 -10 -13 -10 -5 0 -11 4
-13 10 -2 6 4 11 13 11 9 0 15 -5 13 -11z m122 2 c0 -5 -6 -14 -14 -20 -11 -9
-15 -7 -19 9 -4 15 0 20 14 20 10 0 19 -4 19 -9z m105 -1 c-3 -5 -10 -10 -16
-10 -5 0 -9 5 -9 10 0 6 7 10 16 10 8 0 12 -4 9 -10z m125 1 c0 -5 -6 -14 -14
-20 -11 -9 -15 -7 -19 9 -4 15 0 20 14 20 10 0 19 -4 19 -9z m-395 -11 c3 -5
1 -10 -4 -10 -6 0 -11 5 -11 10 0 6 2 10 4 10 3 0 8 -4 11 -10z m-1987 -25
c-6 -14 -13 -23 -15 -21 -5 5 15 46 22 46 3 0 -1 -11 -7 -25z m50 -10 c16 -35
16 -35 -13 -35 -27 0 -28 3 -19 38 8 29 18 28 32 -3z m117 -5 c15 -29 15 -30
-7 -26 -13 1 -23 8 -22 14 3 35 4 42 9 42 2 0 11 -13 20 -30z m774 -15 c1 -6
-10 -11 -24 -11 -30 0 -30 0 -8 33 16 23 17 24 24 7 4 -11 8 -24 8 -29z m460
-2 c1 -7 -8 -13 -19 -13 -23 0 -25 12 -8 43 11 21 11 21 19 2 4 -11 8 -26 8
-32z m1051 -4 c0 -3 -14 -6 -30 -7 l-30 -1 17 30 17 29 13 -23 c7 -12 12 -25
13 -28z m-3166 25 c3 -8 2 -12 -4 -9 -6 3 -10 10 -10 16 0 14 7 11 14 -7z
m991 -24 c-11 -17 -23 -1 -18 21 5 19 7 19 15 5 5 -9 6 -21 3 -26z m126 13 c6
-18 4 -21 -17 -19 -25 1 -28 5 -18 31 8 20 25 15 35 -12z m119 -15 c0 -5 -9
-8 -21 -8 -15 0 -19 4 -15 16 3 9 6 21 6 27 0 12 29 -23 30 -35z m108 15 c2
-16 -2 -21 -15 -19 -17 3 -19 7 -14 37 2 18 26 4 29 -18z m112 -9 c0 -6 -7
-11 -15 -11 -10 0 -14 6 -10 14 3 8 5 20 5 26 0 15 20 -14 20 -29z m430 -1 c0
-6 -7 -10 -15 -9 -23 3 -29 14 -15 31 11 13 15 13 21 3 5 -7 9 -18 9 -25z
m110 5 c0 -5 -7 -8 -15 -8 -17 0 -18 2 -9 25 5 13 8 14 15 3 5 -7 9 -16 9 -20z
m228 7 c9 -17 7 -21 -9 -22 -20 -2 -23 5 -13 32 7 18 7 18 22 -10z m120 1 c10
-22 9 -24 -10 -21 -27 6 -30 9 -22 29 9 23 19 20 32 -8z m226 8 c9 -25 7 -34
-8 -34 -19 0 -28 14 -20 34 8 20 20 20 28 0z m115 -25 c1 -3 -6 -6 -14 -6 -10
0 -14 6 -10 14 3 8 5 20 6 26 0 11 17 -19 18 -34z m119 15 c2 -14 -3 -20 -18
-20 -13 0 -19 5 -15 14 3 7 5 18 5 24 0 18 25 2 28 -18z m103 -17 c-15 -15
-21 -5 -14 22 5 21 7 21 16 6 6 -11 5 -21 -2 -28z m127 14 c2 -14 -1 -21 -10
-19 -18 4 -27 19 -21 35 8 20 27 10 31 -16z m-1506 -13 c-9 -9 -12 -7 -12 12
0 19 3 21 12 12 9 -9 9 -15 0 -24z m238 6 c0 -8 -7 -14 -15 -14 -15 0 -21 21
-9 33 10 9 24 -2 24 -19z m690 -6 c0 -5 -7 -8 -15 -8 -17 0 -18 2 -9 25 5 13
8 14 15 3 5 -7 9 -16 9 -20z m500 11 c0 -5 -4 -9 -10 -9 -5 0 -10 7 -10 16 0
8 5 12 10 9 6 -3 10 -10 10 -16z m-1780 1 c0 -5 -5 -10 -11 -10 -5 0 -7 5 -4
10 3 6 8 10 11 10 2 0 4 -4 4 -10z m222 -12 c-7 -7 -12 -8 -12 -2 0 14 12 26
19 19 2 -3 -1 -11 -7 -17z m-1350 -52 c7 -13 7 -16 -1 -12 -6 4 -18 22 -27 39
-14 30 -14 31 1 12 9 -11 21 -28 27 -39z m3819 31 c-10 -9 -11 -8 -5 6 3 10 9
15 12 12 3 -3 0 -11 -7 -18z m-11 -21 c0 -2 -8 -10 -17 -17 -16 -13 -17 -12
-4 4 13 16 21 21 21 13z m-602 -76 c39 -39 90 -79 114 -90 43 -20 39 -20
-1422 -20 -1385 0 -1463 1 -1430 17 39 19 44 23 118 96 28 28 52 55 52 59 0 5
562 8 1249 8 l1248 0 71 -70z m512 -25 c-7 -9 -15 -13 -19 -10 -3 3 1 10 9 15
21 14 24 12 10 -5z m-3419 -88 c-6 -6 -20 -5 -38 1 -28 10 -28 10 10 9 24 0
34 -4 28 -10z m3242 6 c-7 -2 -19 -2 -25 0 -7 3 -2 5 12 5 14 0 19 -2 13 -5z"/>
<path d="M465 2969 c-4 -6 0 -9 10 -7 13 2 18 -5 21 -24 3 -28 -10 -38 -19
-15 -4 7 -6 6 -6 -5 -1 -14 9 -16 59 -15 57 2 60 3 61 27 1 21 2 21 6 5 8 -32
23 -42 23 -15 l1 25 14 -25 14 -25 1 33 0 33 -57 -2 c-32 -1 -64 -6 -70 -12
-10 -7 -13 -4 -13 12 0 22 -33 30 -45 10z m105 -39 c0 -4 -7 -10 -15 -13 -16
-7 -29 8 -20 23 6 10 35 2 35 -10z"/>
<path d="M1254 3519 c-4 -8 0 -9 15 -4 27 8 27 -6 1 -30 -27 -24 -25 -35 5
-35 14 0 25 5 25 10 0 6 -5 10 -10 10 -6 0 -4 10 5 23 8 13 12 27 8 30 -10 11
-41 8 -49 -4z"/>
<path d="M1315 3502 c-8 -8 -6 -42 3 -43 48 -9 62 -4 63 21 1 20 2 21 6 5 8
-34 23 -41 23 -11 0 17 4 25 11 21 6 -4 8 -13 5 -21 -3 -7 -1 -16 4 -19 6 -4
10 8 10 24 l0 31 -60 -1 c-32 -1 -62 -4 -65 -7z m45 -23 c0 -11 -27 -12 -34 0
-3 4 -3 11 0 14 8 8 34 -3 34 -14z"/>
<path d="M2074 3409 c-5 -9 -2 -10 10 -6 14 5 17 3 13 -8 -4 -8 -2 -17 4 -20
14 -9 1 -25 -16 -18 -8 3 -15 0 -15 -6 0 -6 11 -11 25 -11 23 0 25 3 22 37 -2
39 -27 57 -43 32z"/>
<path d="M2160 3395 c0 -18 4 -23 15 -19 10 4 15 0 15 -11 0 -12 -5 -15 -21
-10 -14 5 -19 3 -15 -3 3 -6 33 -10 66 -9 51 1 60 4 60 20 0 10 5 15 10 12 6
-4 8 -10 5 -15 -3 -5 -1 -11 5 -15 5 -3 10 3 10 14 0 28 18 27 23 -1 3 -17 5
-14 6 10 l1 32 -57 -2 c-32 -1 -63 -5 -68 -9 -6 -4 -17 -4 -25 1 -10 7 -11 10
-2 10 6 0 12 5 12 10 0 6 -9 10 -20 10 -15 0 -20 -7 -20 -25z m104 -24 c3 -5
-3 -11 -14 -14 -13 -3 -20 0 -20 9 0 15 26 19 34 5z"/>
<path d="M4603 3403 c59 -2 155 -2 215 0 59 1 10 3 -108 3 -118 0 -167 -2
-107 -3z"/>
<path d="M4560 2140 c0 -11 5 -19 11 -17 6 1 14 -4 17 -12 3 -10 0 -12 -12 -8
-18 7 -22 -8 -5 -19 16 -9 41 20 33 39 -3 9 -14 17 -23 18 -12 0 -12 2 4 9 19
8 19 9 -2 9 -17 1 -23 -5 -23 -19z"/>
<path d="M4640 2140 c0 -14 7 -20 21 -20 11 0 18 -4 14 -10 -3 -5 -12 -7 -20
-3 -8 3 -15 1 -15 -5 0 -13 28 -23 35 -13 2 5 25 6 49 4 40 -5 45 -3 49 18 4
24 4 24 6 2 0 -13 5 -23 10 -23 5 0 12 10 14 23 l4 22 2 -22 c1 -31 21 -29 21
1 0 19 -6 25 -29 28 -17 2 -37 1 -45 -4 -8 -5 -17 -4 -21 2 -4 7 -12 7 -25 0
-10 -5 -26 -7 -36 -3 -16 6 -16 7 2 14 16 6 15 8 -8 8 -22 1 -28 -4 -28 -19z
m110 -30 c0 -7 -13 -7 -38 -1 -2 1 -1 5 3 11 6 10 35 2 35 -10z"/>
<path d="M1063 2943 c20 -5 20 -8 6 -34 -6 -11 -8 -25 -6 -32 4 -10 37 51 37
68 0 3 -12 4 -27 4 -17 -1 -21 -3 -10 -6z"/>
<path d="M1171 2930 c-7 -4 -23 -5 -35 -3 -29 6 -40 -10 -26 -36 12 -23 64
-23 66 0 3 31 6 33 14 9 l7 -25 11 25 11 25 0 -29 c1 -22 4 -27 12 -19 27 27
-26 75 -60 53z m-27 -16 c22 -8 20 -19 -4 -21 -11 -1 -20 4 -20 13 0 16 2 16
24 8z"/>
<path d="M4412 2825 c1 -37 22 -47 46 -23 9 9 12 9 12 0 0 -7 9 -12 20 -12 11
0 20 4 20 10 0 5 -7 7 -15 4 -9 -4 -15 0 -15 10 0 9 8 16 17 16 13 0 14 3 5
12 -8 8 -15 8 -27 -2 -12 -10 -15 -10 -15 4 0 10 -9 16 -25 16 -22 0 -24 -4
-23 -35z m33 15 c3 -5 1 -10 -4 -10 -6 0 -11 5 -11 10 0 6 2 10 4 10 3 0 8 -4
11 -10z"/>
<path d="M4526 2842 c-11 -10 -6 -53 4 -47 6 4 8 10 5 15 -3 5 -1 11 5 15 5 3
10 -3 10 -14 0 -28 18 -27 23 2 l4 22 2 -22 c0 -13 6 -23 11 -23 12 0 13 30 2
45 -8 11 -57 16 -66 7z"/>
<path d="M526 2204 c-8 -22 1 -34 21 -27 11 4 14 2 11 -8 -3 -8 -13 -13 -23
-11 -10 2 -14 -1 -10 -7 9 -15 42 -14 48 2 6 17 -3 32 -23 40 -12 4 -11 6 3 6
23 1 22 21 -2 21 -10 0 -22 -7 -25 -16z"/>
<path d="M610 2201 c0 -11 9 -21 21 -24 12 -3 18 -10 14 -17 -5 -8 -11 -8 -21
1 -11 9 -14 8 -14 -4 0 -12 12 -15 60 -14 55 1 65 6 61 30 0 4 3 7 9 7 6 0 10
-10 11 -22 0 -22 1 -22 11 2 11 25 11 25 15 3 6 -33 25 -28 21 5 -3 26 -5 27
-63 29 -33 1 -63 -3 -66 -9 -5 -7 -12 -7 -25 1 -17 9 -17 10 -1 11 9 0 17 5
17 10 0 6 -11 10 -25 10 -18 0 -25 -5 -25 -19z m110 -30 c0 -5 -7 -12 -16 -15
-22 -9 -24 -8 -24 9 0 8 9 15 20 15 11 0 20 -4 20 -9z"/>
<path d="M4707 1373 c-15 -14 -6 -24 16 -17 l22 6 -22 -24 c-30 -32 -29 -38 5
-37 15 0 22 3 15 6 -9 3 -10 9 -1 22 19 31 -11 69 -35 44z"/>
<path d="M465 420 c-9 -29 3 -60 25 -60 20 0 34 38 24 64 -9 23 -41 20 -49 -4z
m35 -19 c0 -11 -4 -23 -10 -26 -6 -4 -10 5 -10 19 0 14 5 26 10 26 6 0 10 -9
10 -19z"/>
<path d="M557 433 c-13 -13 -7 -25 7 -14 23 19 28 -4 6 -24 -27 -24 -25 -35 6
-35 21 0 24 3 15 13 -8 10 -7 17 1 25 6 6 8 18 5 26 -7 16 -28 21 -40 9z"/>
<path d="M610 420 c0 -11 7 -20 15 -20 8 0 15 -7 15 -16 0 -14 -3 -14 -15 -4
-12 10 -15 10 -15 -3 0 -12 12 -15 60 -14 50 2 60 5 60 20 0 25 18 21 23 -5
l4 -23 2 23 c0 12 6 22 11 22 6 0 10 -10 11 -22 1 -22 1 -22 8 2 5 14 6 28 4
32 -4 8 -119 5 -128 -4 -4 -4 -13 -4 -21 -1 -12 4 -11 8 3 19 17 12 16 13 -9
14 -21 0 -28 -5 -28 -20z m110 -34 c0 -2 -9 -6 -20 -9 -15 -4 -20 0 -20 14 0
17 3 18 20 9 11 -6 20 -12 20 -14z"/>
<path d="M525 370 c-3 -5 -1 -10 4 -10 6 0 11 5 11 10 0 6 -2 10 -4 10 -3 0
-8 -4 -11 -10z"/>
<path d="M1262 1582 c-18 -6 -14 -40 4 -50 24 -14 54 -3 54 20 0 10 4 17 10
13 5 -3 7 -12 3 -20 -3 -8 0 -15 6 -15 6 0 11 9 11 20 0 11 4 20 9 20 6 0 8
-9 6 -20 -2 -11 1 -20 6 -20 6 0 9 12 7 26 -3 25 -7 27 -54 28 -28 1 -56 0
-62 -2z m36 -29 c-14 -17 -28 -16 -28 1 0 8 9 14 19 13 15 -1 17 -4 9 -14z"/>
<path d="M1696 955 c-11 -30 -6 -54 14 -65 24 -13 33 2 28 47 -3 31 -32 43
-42 18z m34 -24 c0 -11 -4 -23 -10 -26 -6 -4 -10 5 -10 19 0 14 5 26 10 26 6
0 10 -9 10 -19z"/>
<path d="M1787 963 c-12 -12 -7 -22 8 -17 8 4 15 2 15 -4 0 -5 -7 -15 -15 -22
-23 -19 -19 -39 7 -32 13 3 17 7 10 10 -10 3 -9 9 4 23 25 28 -3 69 -29 42z"/>
<path d="M2396 925 c-11 -28 -7 -55 9 -61 25 -10 44 13 36 44 -8 31 -35 41
-45 17z m34 -25 c0 -10 -4 -22 -10 -25 -6 -4 -10 7 -10 25 0 18 4 29 10 25 6
-3 10 -15 10 -25z"/>
<path d="M2457 383 c-13 -13 -7 -21 13 -16 15 4 19 2 14 -10 -3 -9 -12 -18
-20 -21 -24 -9 -15 -26 14 -25 15 0 21 3 15 6 -10 3 -10 10 -2 25 17 32 -10
66 -34 41z"/>
<path d="M2510 380 c0 -5 7 -10 15 -10 18 0 18 -5 4 -32 -6 -11 -8 -22 -5 -25
5 -5 36 57 36 72 0 3 -11 5 -25 5 -14 0 -25 -4 -25 -10z"/>
<path d="M2571 356 c-16 -19 3 -58 24 -50 8 4 15 10 15 15 0 4 -7 6 -15 3 -10
-4 -15 0 -15 11 0 12 5 15 16 11 10 -4 14 -1 12 6 -6 18 -24 20 -37 4z"/>
<path d="M2620 338 c0 -34 7 -36 20 -5 9 22 9 22 10 -3 l1 -25 11 25 c11 25
11 25 15 3 5 -27 23 -31 23 -5 0 28 -13 38 -47 38 -29 0 -33 -3 -33 -28z"/>
<path d="M26 1774 c-4 -11 -1 -14 12 -10 15 5 18 1 17 -16 -1 -16 -7 -22 -20
-20 -16 3 -17 1 -6 -12 9 -11 18 -13 30 -6 10 5 28 6 40 3 14 -4 26 -1 32 8 6
10 9 10 9 2 0 -8 14 -13 34 -13 28 0 35 4 39 23 l4 22 2 -22 c1 -29 21 -30 21
-2 0 11 5 17 10 14 6 -4 8 -10 5 -15 -3 -5 0 -12 6 -15 7 -5 9 3 7 21 -3 29
-4 29 -68 29 -43 -1 -68 4 -73 12 -13 22 -35 15 -45 -14 l-10 -28 -1 28 c-1
20 -6 27 -20 27 -10 0 -22 -7 -25 -16z m94 -23 c0 -11 -4 -23 -10 -26 -6 -4
-10 5 -10 19 0 14 5 26 10 26 6 0 10 -9 10 -19z m70 -10 c0 -5 -7 -11 -15 -15
-9 -3 -15 0 -15 9 0 8 7 15 15 15 8 0 15 -4 15 -9z"/>
</g>
</svg>
