<?xml version="1.0" standalone="no"?>
<!DOCTYPE svg PUBLIC "-//W3C//DTD SVG 20010904//EN"
 "http://www.w3.org/TR/2001/REC-SVG-20010904/DTD/svg10.dtd">
<svg version="1.0" xmlns="http://www.w3.org/2000/svg"
 width="490.178827pt" height="251.719826pt" viewBox="0 0 490.178827 251.719826"
 preserveAspectRatio="xMidYMid meet">
<metadata>
Created by potrace 1.16, written by Peter Selinger 2001-2019
</metadata>
<g transform="translate(-4.275719,375.870970) scale(0.100000,-0.100000)"
fill="#000000" stroke="none">
<path d="M3127 3721 c-20 -22 -43 -54 -52 -72 l-17 -31 -30 50 c-36 57 -72 82
-120 82 -27 0 -44 -10 -80 -45 -46 -45 -47 -45 -117 -45 -81 0 -113 -10 -146
-46 -41 -44 -34 -85 23 -146 44 -48 45 -50 15 -34 -48 24 -49 2 -1 -38 39 -34
40 -36 17 -36 -13 0 -34 -6 -45 -14 -32 -23 -79 -97 -76 -120 5 -30 9 -31 32
-11 31 28 36 10 7 -25 -27 -32 -44 -90 -32 -110 4 -7 18 -9 31 -6 19 5 24 2
24 -14 0 -11 6 -20 13 -20 6 0 1 -9 -12 -19 -26 -20 -21 -41 10 -41 11 0 22
-6 25 -14 3 -7 34 -21 70 -31 35 -9 67 -21 70 -26 3 -5 31 -9 62 -10 l57 -1
-44 -9 c-24 -5 -53 -15 -65 -22 -11 -8 -49 -17 -84 -20 -34 -4 -75 -13 -90
-21 -15 -8 -73 -57 -129 -110 -55 -53 -103 -96 -106 -96 -3 0 -41 21 -84 47
-134 79 -418 213 -453 213 -48 0 -135 -46 -192 -102 -56 -55 -99 -140 -106
-210 -2 -26 -7 -48 -9 -48 -3 0 -64 22 -136 49 -278 104 -660 221 -674 208 -3
-4 2 -14 13 -22 10 -8 15 -15 10 -15 -5 0 -3 -6 3 -14 9 -11 8 -15 -5 -20 -16
-6 -15 -8 2 -21 18 -14 17 -14 -13 -9 -43 8 -43 -10 -2 -31 17 -9 29 -18 27
-20 -1 -1 -43 3 -93 11 -163 25 -242 12 -128 -21 147 -42 195 -57 191 -60 -2
-2 -21 0 -43 5 -60 14 -85 12 -85 -6 0 -13 -6 -15 -27 -10 -16 3 -72 9 -125
12 -86 6 -98 5 -98 -9 0 -19 33 -29 217 -66 72 -14 135 -30 140 -35 4 -4 -5
-5 -22 -2 -44 9 -442 12 -451 3 -18 -18 23 -31 118 -37 57 -4 94 -8 83 -9 -11
-1 -27 -6 -35 -11 -13 -9 -13 -12 3 -24 15 -12 16 -14 2 -20 -8 -3 -15 -12
-15 -20 0 -10 22 -18 73 -27 39 -7 62 -15 49 -17 -30 -5 -28 -18 4 -29 21 -7
13 -9 -35 -8 -43 0 -65 -5 -76 -16 -15 -15 -13 -17 27 -23 70 -11 75 -23 10
-25 -69 -2 -311 -37 -320 -46 -13 -12 21 -22 96 -28 42 -3 142 -14 222 -23
174 -21 155 -31 -70 -37 -80 -2 -147 -8 -150 -13 -3 -5 15 -15 39 -23 35 -11
40 -16 27 -23 -9 -5 -14 -13 -11 -19 4 -5 -26 -9 -72 -10 -43 -1 -89 -4 -103
-9 -25 -7 -25 -8 12 -23 53 -24 107 -34 295 -57 92 -11 173 -22 178 -25 6 -2
-35 -5 -90 -6 -55 -2 -131 -4 -170 -5 -38 -1 -85 -3 -102 -3 -38 -1 -44 -16
-11 -27 13 -4 97 -15 188 -24 91 -10 147 -18 125 -19 -41 -2 -96 -8 -151 -17
-18 -2 -37 -11 -43 -18 -9 -11 -1 -14 41 -20 29 -3 76 -6 103 -7 50 -2 49 -2
-23 -14 -39 -6 -75 -15 -79 -19 -11 -11 18 -26 50 -26 23 0 27 -3 22 -19 -5
-18 0 -20 42 -23 l48 -3 -75 -19 c-95 -23 -172 -55 -163 -69 4 -6 54 -8 142
-5 75 3 128 3 118 -1 -17 -6 -17 -8 -4 -20 11 -9 37 -11 89 -6 50 4 66 2 52
-4 -42 -19 -37 -31 13 -32 l48 -1 -43 -11 c-64 -15 -46 -32 39 -35 69 -3 436
12 580 24 133 11 285 25 326 31 l43 6 0 -40 c0 -51 25 -76 72 -71 30 3 35 8
51 54 21 57 34 64 126 64 25 0 72 4 104 10 l59 9 63 -52 c35 -29 114 -82 175
-116 107 -62 112 -64 197 -68 98 -6 188 12 256 50 58 32 78 64 84 136 5 52 9
61 22 56 35 -14 127 -35 151 -35 14 0 44 9 65 20 30 15 52 19 85 15 45 -5
1083 -105 1300 -126 63 -5 126 -12 140 -14 14 -2 87 -9 163 -16 160 -14 172
-10 172 61 0 51 -18 68 -80 75 -65 7 -703 65 -1210 109 -572 51 -523 45 -530
67 -9 28 -39 40 -87 34 -41 -5 -41 -5 20 18 197 77 218 158 91 366 -12 21 -12
24 0 29 8 3 26 16 39 29 22 22 24 31 19 89 -2 35 -12 75 -21 89 -30 46 -16
138 33 212 17 26 40 75 51 109 19 62 19 62 -2 126 l-21 65 27 39 c21 31 26 51
26 99 1 38 9 80 23 115 18 46 26 55 47 55 18 0 26 6 28 23 2 15 10 22 24 22
18 0 20 4 15 38 -13 77 -13 77 7 75 26 -2 66 14 66 27 0 5 -7 10 -15 10 -16 0
-137 38 -144 46 -2 2 4 13 13 23 10 11 16 29 14 42 -3 26 -28 39 -28 15 0 -16
-47 -53 -56 -43 -3 2 12 31 32 63 38 59 64 129 64 171 0 31 -36 66 -60 58 -23
-7 -67 14 -99 49 -34 37 -62 33 -104 -13z m-184 -12 c42 -23 50 -37 132 -233
l16 -39 -48 28 c-26 16 -65 43 -86 62 -24 22 -47 33 -67 33 -44 0 -37 -16 20
-45 56 -28 70 -54 15 -28 -19 9 -38 13 -42 9 -14 -14 45 -54 89 -61 46 -7 128
-43 128 -56 0 -20 -49 -30 -149 -30 -85 0 -121 5 -163 21 -73 27 -156 86 -191
136 -24 34 -27 44 -18 68 15 38 67 57 157 57 67 0 75 2 96 27 25 30 67 62 81
62 5 0 18 -5 30 -11z m289 -26 c18 -17 44 -29 70 -32 43 -6 43 -7 42 -46 0
-26 -12 -61 -33 -98 l-33 -57 -39 40 c-29 29 -47 40 -70 40 -29 0 -30 -1 -15
-22 20 -28 21 -92 2 -107 -11 -9 -15 -7 -20 11 -3 13 -6 36 -6 51 0 48 -21
117 -36 117 -20 0 -19 2 27 70 48 68 68 75 111 33z m-84 -563 c-7 -11 -19 -20
-27 -20 -8 0 -4 8 10 20 30 25 32 25 17 0z m106 5 c-4 -10 0 -15 12 -15 9 0
14 -3 11 -7 -4 -3 -2 -12 4 -20 9 -10 7 -13 -9 -13 -11 0 -25 -7 -32 -15 -11
-14 -32 -145 -24 -154 9 -10 34 24 34 47 0 14 3 22 7 18 4 -4 6 -23 5 -43 -6
-79 -66 -143 -137 -143 -35 0 -54 8 -102 43 -32 24 -70 58 -85 75 -26 31 -45
88 -34 99 3 4 6 -1 6 -9 0 -9 6 -21 14 -27 12 -10 15 -6 21 21 9 44 40 92 69
112 l25 16 -15 -28 c-25 -49 -16 -65 20 -37 32 24 47 17 21 -10 -26 -25 -32
-50 -15 -60 6 -3 13 2 17 12 6 15 8 13 13 -11 3 -16 10 -31 17 -33 15 -5 45
51 37 71 -3 9 -1 16 6 16 17 0 1 20 -24 30 -21 9 -21 9 0 9 12 1 31 10 44 21
13 11 30 20 39 20 9 0 25 7 35 15 25 19 27 19 20 0z m-383 -156 c3 -19 9 -41
13 -49 5 -8 -1 -6 -12 5 -26 25 -43 90 -21 83 8 -3 16 -20 20 -39z m76 -122
c6 -13 27 -34 47 -47 20 -14 36 -28 36 -32 0 -3 -12 -20 -26 -37 -14 -17 -24
-39 -22 -48 3 -16 7 -14 30 10 31 33 42 18 27 -37 -20 -72 -76 -71 -109 2 -61
131 -72 150 -85 156 -8 3 -15 11 -15 17 0 8 4 8 14 0 16 -14 43 -4 66 23 17
22 25 20 37 -7z m-156 -1 c-13 -15 1 -56 18 -56 21 0 58 -54 75 -109 19 -64
60 -111 96 -111 66 0 107 59 95 136 l-6 43 35 -6 c25 -4 47 1 76 16 l40 21 15
-36 c25 -60 18 -95 -35 -203 -62 -123 -70 -172 -41 -255 24 -67 27 -124 8
-149 -14 -21 -184 -41 -204 -24 -7 5 -24 33 -38 62 -31 65 -34 143 -7 151 122
40 124 41 252 219 68 93 80 140 19 71 -56 -65 -129 -158 -129 -167 0 -21 -67
-65 -127 -84 -22 -6 -23 -4 -23 67 0 131 -38 240 -92 266 -15 7 -62 15 -105
18 -72 6 -79 4 -91 -15 -7 -12 -9 -21 -5 -22 159 -11 196 -24 228 -79 18 -32
20 -52 20 -215 l0 -180 33 -62 c55 -107 44 -131 -91 -187 -97 -39 -177 -47
-247 -23 -32 11 -35 16 -42 62 -15 103 -25 285 -24 430 1 172 8 194 74 238 49
33 58 63 15 53 -73 -18 -118 -86 -128 -199 -7 -71 4 -268 26 -484 14 -129 9
-124 137 -146 l73 -12 23 -55 c12 -31 37 -77 54 -103 18 -26 31 -47 28 -47 -2
0 -46 42 -98 93 -74 74 -104 98 -148 114 -85 32 -303 61 -329 44 -25 -16 -2
-29 66 -36 111 -11 224 -35 264 -55 51 -27 139 -110 182 -172 72 -105 99 -247
57 -301 -31 -39 -101 -59 -229 -64 l-114 -6 -102 52 c-148 77 -232 143 -262
207 -37 82 -92 137 -185 183 -45 23 -92 41 -104 41 -27 0 -66 -48 -84 -102
-10 -34 -14 -37 -38 -32 -57 13 -123 58 -152 102 -59 90 -55 213 13 359 68
145 71 166 34 255 -68 165 -21 339 121 443 77 57 106 62 182 30 100 -41 190
-88 190 -97 0 -5 -15 -6 -33 -3 -34 7 -87 -8 -87 -23 0 -5 24 -10 54 -10 51 0
230 -53 292 -85 l26 -14 -93 -81 c-109 -95 -167 -165 -233 -277 -51 -87 -53
-95 -31 -95 8 0 15 4 15 9 0 5 34 53 75 107 109 143 251 285 480 481 53 45
137 83 184 83 16 0 39 9 52 20 28 23 47 26 30 6z m309 -775 c0 -28 -35 -113
-75 -181 -26 -45 -53 -100 -60 -123 -16 -52 -22 -38 -29 69 -3 44 -9 92 -15
106 -8 22 -6 29 15 48 13 13 26 37 30 54 5 31 6 31 70 33 35 0 64 -2 64 -6z
m66 -108 c32 -54 37 -117 11 -156 -16 -26 -66 -56 -114 -71 -20 -7 -23 -4 -23
23 0 21 5 31 15 31 16 0 20 16 6 24 -11 7 10 88 29 111 8 10 15 23 15 29 2 28
18 65 26 60 5 -3 21 -26 35 -51z m-265 -149 c5 -66 11 -129 14 -142 7 -31 41
-41 112 -35 39 4 63 2 67 -6 4 -6 2 -11 -5 -11 -11 0 -9 -38 4 -70 4 -8 -2
-26 -13 -40 -16 -21 -27 -25 -67 -24 -27 1 -65 9 -85 17 -33 14 -37 20 -44 64
-10 70 -19 89 -75 156 -50 59 -79 114 -79 146 0 19 139 83 153 70 5 -4 13 -60
18 -125z m-935 -179 l39 -34 -32 -1 c-46 0 -82 -16 -135 -61 l-47 -39 9 31
c13 44 87 139 109 139 10 0 35 -16 57 -35z m1424 -75 c124 -11 245 -22 270
-25 25 -3 131 -12 235 -20 105 -9 206 -17 225 -20 19 -2 64 -6 100 -9 36 -3
191 -17 344 -31 153 -14 285 -25 292 -25 10 0 14 -13 14 -40 0 -37 -2 -40 -22
-36 -13 3 -50 7 -83 10 -33 4 -220 22 -415 41 -195 19 -429 41 -519 50 -90 8
-185 18 -210 20 -102 11 -460 45 -474 45 -12 0 -37 46 -37 66 0 2 12 1 28 -1
15 -3 128 -14 252 -25z m-2813 -46 c-3 -3 -12 -4 -19 -1 -8 3 -5 6 6 6 11 1
17 -2 13 -5z"/>
<path d="M3090 2865 c0 -9 67 -35 89 -35 11 0 24 8 30 18 8 15 2 17 -55 20
-35 1 -64 0 -64 -3z"/>
</g>
</svg>
