<?xml version="1.0" standalone="no"?>
<!DOCTYPE svg PUBLIC "-//W3C//DTD SVG 20010904//EN"
 "http://www.w3.org/TR/2001/REC-SVG-20010904/DTD/svg10.dtd">
<svg version="1.0" xmlns="http://www.w3.org/2000/svg"
 width="38.992545pt" height="68.337749pt" viewBox="0 0 38.992545 68.337749"
 preserveAspectRatio="xMidYMid meet">
<metadata>
Created by potrace 1.16, written by Peter Selinger 2001-2019
</metadata>
<g transform="translate(-284.003734,334.710987) scale(0.100000,-0.100000)"
fill="#000000" stroke="none">
<path d="M2970 3339 c-14 -5 -35 -20 -47 -31 -26 -24 -83 -155 -83 -190 0 -27
33 -84 62 -107 20 -17 20 -17 -5 -55 -30 -43 -39 -94 -34 -189 5 -76 4 -75 36
-80 12 -2 26 -9 30 -15 4 -7 34 -10 86 -7 44 2 92 4 108 4 l27 1 0 113 c0 94
-3 118 -21 151 -11 21 -19 39 -17 40 2 1 15 7 30 14 15 6 41 30 58 53 26 36
30 51 30 103 0 73 -18 106 -85 161 -38 32 -55 39 -98 42 -29 1 -63 -2 -77 -8z
m111 -11 c52 -15 126 -89 135 -134 28 -152 -84 -245 -241 -199 -119 34 -144
106 -83 238 28 60 38 73 73 88 47 22 65 23 116 7z m-48 -355 c67 -7 91 -29
102 -94 10 -56 -3 -189 -18 -189 -8 0 -13 29 -14 88 -1 48 -6 98 -12 112 -9
20 -10 16 -5 -22 6 -46 5 -48 -19 -48 -14 0 -29 -5 -32 -11 -5 -7 -14 -3 -26
10 -22 24 -32 25 -59 11 -18 -10 -19 -8 -14 20 4 20 3 30 -5 30 -9 0 -12 -25
-9 -89 2 -74 1 -88 -12 -86 -8 2 -18 4 -22 4 -3 1 -9 34 -13 74 -9 106 33 216
78 202 12 -3 48 -9 80 -12z m-26 -231 c1 -62 -1 -71 -13 -61 -8 6 -14 7 -14 2
0 -5 -9 -9 -19 -9 -16 0 -20 10 -26 53 -8 66 6 95 43 91 26 -3 27 -5 29 -76z
m81 3 l3 -60 -29 -1 c-27 -1 -30 2 -35 39 -8 55 7 89 36 85 20 -3 22 -9 25
-63z"/>
<path d="M2946 3284 c-20 -19 -20 -38 -2 -53 30 -25 71 24 46 54 -16 19 -25
19 -44 -1z"/>
<path d="M3036 3216 c3 -9 11 -16 16 -16 13 0 5 23 -10 28 -7 2 -10 -2 -6 -12z"/>
<path d="M3116 3154 c-9 -8 -16 -24 -16 -34 0 -21 25 -50 44 -50 17 0 46 33
46 53 0 19 -26 47 -45 47 -7 0 -21 -7 -29 -16z"/>
<path d="M2930 3084 c-11 -12 -10 -18 3 -32 16 -15 18 -15 34 0 13 14 14 20 3
32 -7 9 -16 16 -20 16 -4 0 -13 -7 -20 -16z"/>
</g>
</svg>
