<?xml version="1.0" standalone="no"?>
<!DOCTYPE svg PUBLIC "-//W3C//DTD SVG 20010904//EN"
 "http://www.w3.org/TR/2001/REC-SVG-20010904/DTD/svg10.dtd">
<svg version="1.0" xmlns="http://www.w3.org/2000/svg"
 width="50.235831pt" height="124.821360pt" viewBox="0 0 50.235831 124.821360"
 preserveAspectRatio="xMidYMid meet">
<metadata>
Created by potrace 1.16, written by Peter Selinger 2001-2019
</metadata>
<g transform="translate(-277.835283,369.964834) scale(0.100000,-0.100000)"
fill="#000000" stroke="none">
<path d="M2974 3661 c-118 -66 -199 -176 -196 -265 3 -58 55 -140 108 -168 32
-17 40 -25 32 -35 -5 -7 -20 -44 -32 -83 -17 -53 -22 -88 -19 -143 4 -77 26
-162 47 -174 21 -13 27 -42 33 -157 5 -97 4 -111 -12 -122 -32 -23 -11 -44 45
-44 28 0 50 -5 50 -11 0 -6 21 -9 53 -7 l52 3 3 143 c2 104 7 150 17 165 69
107 77 302 17 428 l-28 58 37 28 c81 61 120 183 89 278 -26 78 -113 144 -190
145 -22 0 -61 -15 -106 -39z m173 2 c47 -22 100 -97 109 -152 14 -94 -51 -208
-146 -256 -94 -48 -176 -45 -236 7 -129 114 -80 272 121 389 57 33 101 36 152
12z m2 -478 c45 -101 52 -240 16 -330 -12 -33 -14 -35 -10 -10 25 149 13 293
-24 271 -8 -5 -8 -13 0 -27 14 -27 14 -164 -1 -217 -10 -37 -9 -47 5 -61 14
-16 14 -20 -5 -44 -19 -24 -21 -39 -19 -159 l1 -133 -33 -3 c-27 -3 -32 -1
-21 9 8 9 12 52 12 141 l0 128 -32 0 -33 0 2 -130 1 -130 -36 1 c-29 0 -33 2
-17 8 19 8 20 15 15 139 -5 118 -8 133 -28 155 -12 13 -19 27 -15 30 9 10 10
307 1 307 -21 0 -28 -145 -13 -249 6 -38 4 -44 -7 -33 -9 9 -13 46 -13 130 0
102 3 124 24 170 23 50 25 52 65 53 22 0 57 6 76 13 59 23 67 20 89 -29z
m-106 -571 c-1 -64 -4 -119 -7 -122 -4 -3 -6 49 -6 116 0 67 3 122 8 122 4 0
6 -52 5 -116z"/>
<path d="M2982 3582 c-18 -12 -26 -75 -13 -101 15 -27 57 -28 71 -2 22 42 5
111 -28 111 -9 0 -23 -4 -30 -8z"/>
<path d="M2836 3484 c-20 -19 -20 -54 -2 -80 21 -28 50 -7 54 39 4 44 -26 68
-52 41z"/>
<path d="M2910 3326 c-9 -12 -9 -21 2 -43 18 -38 52 -38 56 0 6 47 -31 74 -58
43z"/>
</g>
</svg>
