<?xml version="1.0" standalone="no"?>
<!DOCTYPE svg PUBLIC "-//W3C//DTD SVG 20010904//EN"
 "http://www.w3.org/TR/2001/REC-SVG-20010904/DTD/svg10.dtd">
<svg version="1.0" xmlns="http://www.w3.org/2000/svg"
 width="83.946493pt" height="152.917712pt" viewBox="0 0 83.946493 152.917712"
 preserveAspectRatio="xMidYMid meet">
<metadata>
Created by potrace 1.16, written by Peter Selinger 2001-2019
</metadata>
<g transform="translate(-172.688819,266.917712) scale(0.100000,-0.100000)"
fill="#000000" stroke="none">
<path d="M2294 2654 c-51 -25 -90 -73 -149 -186 -64 -123 -75 -176 -48 -227
14 -28 40 -51 60 -57 1 0 -5 -21 -15 -47 l-18 -46 -29 23 c-113 87 -259 48
-341 -92 -36 -61 -36 -115 -1 -175 20 -34 91 -103 114 -111 1 -1 -15 -35 -35
-76 -34 -72 -36 -80 -36 -180 0 -98 2 -111 37 -197 30 -73 36 -97 27 -112 -15
-30 -14 -31 39 -31 53 0 60 8 62 75 0 17 4 39 8 50 6 15 11 1 20 -52 l13 -73
74 0 c43 0 74 4 74 10 0 6 -13 10 -29 10 -45 0 -45 24 -4 141 35 95 38 113 38
210 0 101 -1 108 -31 155 l-31 50 22 33 23 32 25 -45 26 -46 -25 0 c-13 0 -24
-4 -24 -10 0 -6 30 -10 69 -10 39 0 73 -4 76 -10 3 -5 31 -10 61 -10 49 0 55
2 49 19 -3 10 -1 30 5 45 5 15 12 42 14 59 3 18 8 52 11 77 4 25 2 72 -3 105
-8 47 -7 64 4 80 33 47 5 133 -56 169 l-32 18 66 37 c104 57 148 106 161 179
7 40 -7 75 -56 139 -63 84 -143 113 -215 77z m145 -34 c18 -12 47 -45 66 -73
39 -58 45 -108 20 -156 -33 -64 -157 -142 -280 -176 -95 -26 -135 1 -135 92 0
42 93 237 99 207 4 -26 31 -54 50 -54 48 0 81 66 49 98 -16 16 -70 15 -88 0
-8 -7 -1 2 15 21 67 75 137 90 204 41z m-101 -424 c47 -25 74 -61 74 -101 0
-72 -67 -123 -118 -91 -33 22 -23 35 24 29 29 -4 41 0 55 15 19 21 20 57 2 54
-5 0 -12 -11 -15 -24 -4 -14 -15 -24 -29 -26 -14 -2 -21 0 -17 7 10 15 -37 24
-88 17 -48 -7 -56 1 -56 52 0 39 9 48 65 65 65 19 71 20 103 3z m-274 -87 c20
-13 48 -40 62 -61 49 -70 27 -233 -41 -300 -28 -28 -34 -29 -92 -26 -49 3 -73
11 -120 40 -103 63 -145 154 -108 232 20 41 97 123 129 137 39 16 131 5 170
-22z m165 -54 l46 6 -49 -31 c-26 -17 -49 -30 -50 -28 -8 12 -26 61 -26 69 0
6 7 3 16 -6 12 -12 27 -14 63 -10z m48 -67 c37 -20 46 -21 75 -10 25 9 34 9
40 -1 11 -17 9 -153 -2 -207 -18 -78 -30 -100 -56 -100 -13 0 -24 6 -25 13 -1
6 -2 21 -3 32 -1 11 -3 37 -4 58 -1 24 -7 37 -16 37 -10 0 -16 -19 -21 -60 -6
-54 -9 -60 -30 -60 -33 0 -80 95 -71 142 4 18 9 58 12 88 5 39 12 60 28 72 27
22 23 22 73 -4z m-277 -285 c82 -6 103 -24 125 -108 15 -55 16 -75 6 -140 -6
-43 -16 -85 -22 -94 -9 -13 -9 -13 -4 4 14 40 18 201 5 224 -18 35 -23 19 -21
-76 0 -48 -3 -106 -9 -128 -7 -32 -6 -42 5 -51 13 -10 11 -20 -11 -74 -14 -35
-23 -72 -21 -82 4 -12 0 -18 -13 -18 -14 0 -19 13 -26 68 -9 66 -9 67 -39 67
-30 0 -30 -1 -39 -67 -7 -61 -11 -68 -31 -68 -18 0 -21 4 -18 24 3 13 -4 45
-15 70 -12 25 -17 46 -12 46 4 0 6 55 3 123 -5 99 -2 129 11 161 19 47 19 46
2 46 -25 0 -41 -70 -41 -177 0 -56 -3 -95 -7 -85 -4 9 -7 56 -7 103 -1 91 15
162 49 218 17 27 25 32 43 26 12 -4 51 -9 87 -12z"/>
<path d="M2357 2419 c-16 -22 -12 -52 8 -69 23 -19 68 -7 84 22 14 24 14 28
-3 47 -25 27 -70 27 -89 0z"/>
<path d="M2146 2307 c-12 -9 -17 -23 -14 -42 2 -24 8 -31 31 -33 54 -6 77 43
35 72 -27 19 -30 19 -52 3z"/>
<path d="M2016 2027 c-13 -9 -17 -23 -14 -52 2 -32 8 -41 29 -49 59 -20 113
28 88 77 -7 12 -17 25 -23 29 -17 12 -61 9 -80 -5z"/>
<path d="M1838 1899 c-21 -12 -24 -49 -6 -67 19 -19 55 -14 72 10 13 19 14 25
2 43 -15 23 -43 29 -68 14z"/>
<path d="M2028 1809 c-22 -12 -23 -42 -3 -59 12 -10 21 -10 40 -2 30 14 33 47
6 62 -23 12 -22 12 -43 -1z"/>
</g>
</svg>
