<?xml version="1.0" standalone="no"?>
<!DOCTYPE svg PUBLIC "-//W3C//DTD SVG 20010904//EN"
 "http://www.w3.org/TR/2001/REC-SVG-20010904/DTD/svg10.dtd">
<svg version="1.0" xmlns="http://www.w3.org/2000/svg"
 width="48.246986pt" height="83.965207pt" viewBox="0 0 48.246986 83.965207"
 preserveAspectRatio="xMidYMid meet">
<metadata>
Created by potrace 1.16, written by Peter Selinger 2001-2019
</metadata>
<g transform="translate(-277.526316,344.571759) scale(0.100000,-0.100000)"
fill="#000000" stroke="none">
<path d="M2974 3436 c-68 -17 -133 -59 -169 -109 -27 -38 -30 -49 -30 -119 0
-70 3 -80 30 -114 17 -20 45 -44 62 -54 29 -16 30 -17 12 -28 -28 -18 -59 -72
-59 -104 0 -15 5 -39 11 -55 13 -33 18 -133 7 -133 -5 0 -8 -4 -8 -9 0 -10
106 -53 219 -88 71 -21 76 -22 94 -5 61 55 62 142 1 142 l-22 0 19 37 c27 53
24 98 -10 159 l-30 52 45 17 c86 33 127 125 107 241 -13 76 -49 136 -94 160
-42 21 -123 26 -185 10z m178 -30 c45 -30 71 -93 75 -181 3 -69 1 -85 -19
-119 -33 -56 -77 -76 -169 -76 -135 0 -210 38 -238 119 -39 118 41 234 186
271 51 12 136 5 165 -14z m-137 -397 c47 -2 53 -5 80 -43 26 -35 30 -50 30
-104 0 -60 -2 -66 -33 -94 -33 -29 -56 -32 -33 -4 7 8 15 40 18 72 5 46 3 56
-8 52 -9 -3 -15 -22 -17 -49 -1 -24 -7 -53 -12 -64 -4 -11 -11 -27 -13 -35 -3
-8 -6 -2 -6 13 -1 16 -12 39 -26 53 -28 28 -65 91 -65 111 0 7 -4 13 -10 13
-16 0 -12 -39 7 -71 20 -33 18 -36 -21 -41 -27 -3 -32 1 -50 45 -19 45 -19 49
-3 82 18 38 73 78 97 70 8 -2 38 -5 65 -6z m-41 -212 c14 -10 19 -29 21 -75
l1 -60 -55 20 c-66 24 -66 25 -75 60 -5 24 -2 30 31 47 46 24 54 25 77 8z
m186 -90 c0 -38 -24 -77 -47 -77 -9 0 -33 5 -54 11 -38 12 -38 12 -24 40 20
38 53 59 92 59 31 0 33 -2 33 -33z"/>
<path d="M2851 3266 c-7 -8 -11 -27 -9 -43 6 -51 88 -41 88 11 0 42 -53 63
-79 32z"/>
<path d="M3140 3220 c-26 -26 -26 -62 0 -85 42 -38 97 24 71 81 -13 29 -44 31
-71 4z"/>
<path d="M3001 3123 c-22 -18 -23 -20 -6 -37 22 -21 74 -18 89 6 22 36 -46 61
-83 31z"/>
</g>
</svg>
