<?xml version="1.0" standalone="no"?>
<!DOCTYPE svg PUBLIC "-//W3C//DTD SVG 20010904//EN"
 "http://www.w3.org/TR/2001/REC-SVG-20010904/DTD/svg10.dtd">
<svg version="1.0" xmlns="http://www.w3.org/2000/svg"
 width="130.232695pt" height="258.693791pt" viewBox="0 0 130.232695 258.693791"
 preserveAspectRatio="xMidYMid meet">
<metadata>
Created by potrace 1.16, written by Peter Selinger 2001-2019
</metadata>
<g transform="translate(-32.041388,258.894829) scale(0.100000,-0.100000)"
fill="#000000" stroke="none">
<path d="M862 2572 c-112 -40 -213 -134 -266 -247 -33 -70 -45 -125 -46 -210
0 -117 30 -204 105 -303 26 -35 46 -64 44 -65 -143 -95 -208 -172 -310 -373
-65 -129 -69 -141 -69 -203 1 -123 43 -193 163 -275 104 -70 154 -88 244 -90
40 0 73 -2 73 -3 0 -1 -31 -57 -70 -124 -98 -172 -96 -206 18 -321 l67 -67 5
-67 c7 -99 51 -115 92 -34 l17 33 12 -29 c7 -16 14 -60 17 -99 2 -38 9 -76 15
-84 24 -29 163 15 186 58 12 22 -9 47 -33 38 -24 -10 -25 4 -3 46 12 23 25 71
29 107 4 36 10 84 14 106 3 25 1 51 -6 64 -10 18 -8 27 14 58 61 88 91 211 76
307 -4 28 -6 52 -3 55 2 3 36 10 74 16 93 16 141 42 228 124 l74 69 -8 43 c-4
24 -8 95 -9 158 -1 109 -3 119 -34 182 -49 99 -140 165 -275 199 l-48 12 20
21 c11 12 31 46 44 76 14 30 45 76 70 101 191 199 131 505 -126 635 -39 20
-98 50 -130 67 -77 40 -184 47 -265 19z m212 -16 c27 -8 67 -27 89 -42 23 -15
72 -43 109 -61 74 -38 125 -88 163 -163 73 -145 48 -300 -70 -429 -28 -31 -59
-77 -68 -102 -20 -53 -94 -129 -107 -110 -5 9 -9 5 -14 -11 -7 -22 -7 -22 -16
-3 -8 19 -9 19 -9 -2 -1 -13 -5 -23 -11 -23 -5 0 -10 10 -11 23 0 13 -2 16 -6
7 -14 -42 -17 -44 -23 -10 l-7 35 -2 -33 c-1 -42 -21 -32 -22 11 -1 24 -3 26
-6 9 -5 -27 -23 -19 -23 11 0 16 -3 18 -9 8 -6 -10 -10 -10 -16 -1 -14 23
-129 69 -187 76 -32 4 -55 10 -52 15 8 13 -10 11 -24 -3 -17 -17 -27 -1 -11
18 13 16 12 16 -8 6 -28 -15 -44 5 -20 23 27 19 20 27 -8 9 -23 -15 -25 -15
-31 0 -4 11 1 23 12 32 18 14 18 15 -3 5 -28 -14 -30 -14 -37 4 -3 9 5 21 22
31 15 8 18 12 7 9 -35 -12 -49 -10 -53 6 -2 10 8 21 28 29 17 7 29 15 26 17
-2 2 -18 -3 -35 -12 -30 -15 -32 -15 -40 7 -8 20 -4 25 30 40 49 22 52 34 3
13 -40 -16 -54 -13 -54 14 0 11 15 23 43 34 38 16 27 16 -30 1 -19 -5 -23 -2
-23 19 0 21 7 28 38 37 44 15 69 34 26 21 -16 -5 -37 -12 -47 -16 -16 -7 -18
-4 -15 16 2 20 12 26 53 36 28 6 41 12 30 12 -11 1 -35 -3 -53 -8 -30 -9 -32
-8 -32 14 0 28 7 33 62 45 l43 9 -49 -4 c-41 -4 -47 -3 -42 11 3 9 6 19 6 24
0 5 24 13 53 19 l52 10 -47 -3 c-52 -4 -53 -4 -38 25 8 14 23 19 58 21 l47 1
-42 4 c-24 2 -43 8 -43 13 0 17 42 32 74 26 25 -5 28 -4 13 5 -11 6 -29 9 -42
7 -20 -4 -22 -3 -12 14 8 12 25 18 52 19 l40 2 -34 6 c-30 5 -32 8 -18 19 10
9 29 12 49 8 l33 -6 -29 14 c-34 16 -19 31 22 22 26 -6 26 -6 7 10 -20 16 -20
16 2 11 15 -3 20 -1 17 8 -3 7 3 15 13 19 77 28 105 35 154 35 31 1 77 -5 103
-13z m-342 -821 c3 -4 37 -7 75 -9 87 -4 164 -37 223 -96 38 -38 90 -128 90
-157 0 -23 77 -90 122 -108 53 -19 73 -51 58 -90 -5 -14 -15 -26 -22 -27 -34
-5 -186 -2 -182 3 7 13 -28 19 -44 9 -14 -9 -12 -10 8 -4 19 5 22 3 14 -5 -7
-8 -22 -9 -39 -5 l-28 7 24 19 24 19 -32 -16 c-34 -16 -47 -4 -15 14 10 6 12
11 4 11 -7 0 -10 4 -7 10 3 6 -1 7 -10 3 -12 -4 -13 -8 -5 -13 8 -5 7 -9 -5
-13 -9 -4 -13 -3 -10 3 3 6 -1 10 -9 10 -8 0 -21 10 -27 23 -7 12 -16 25 -21
28 -5 3 -2 9 7 12 9 4 13 3 10 -3 -7 -11 8 -14 18 -3 4 3 -3 13 -14 21 -18 13
-23 13 -36 -1 -15 -14 -15 -18 -1 -39 9 -14 32 -40 51 -60 19 -20 33 -39 29
-42 -3 -3 6 -7 19 -7 18 -1 19 -3 6 -6 -17 -4 -16 -6 4 -24 21 -18 21 -19 3
-20 -15 -1 -13 -3 6 -9 l25 -8 -25 -2 c-23 -1 -23 -2 -5 -10 17 -7 16 -9 -10
-10 -22 -2 -24 -4 -10 -7 45 -11 33 -20 -16 -12 -31 5 -59 4 -68 -1 -18 -11
-18 -11 32 -15 78 -8 136 -62 144 -137 l5 -45 -51 -7 c-28 -4 -80 -22 -116
-40 -35 -19 -81 -37 -102 -40 -80 -14 -103 -15 -103 -4 0 6 -7 5 -17 -3 -15
-12 -16 -12 -10 5 6 16 5 17 -8 6 -12 -10 -15 -10 -15 0 0 9 -3 10 -13 1 -17
-13 -27 -5 -20 17 4 15 3 15 -10 0 -16 -20 -28 -14 -19 10 5 15 3 15 -10 4
-13 -10 -22 -11 -38 -2 -18 10 -19 14 -8 28 12 15 11 16 -5 3 -16 -13 -21 -12
-39 7 -22 21 -22 21 -2 44 l19 23 -23 -19 c-17 -15 -25 -17 -34 -8 -9 9 -7 17
7 32 10 11 16 22 13 25 -3 3 -13 -4 -22 -14 -14 -16 -21 -17 -31 -8 -11 10 -8
18 13 42 l27 30 -32 -29 c-27 -24 -31 -32 -22 -50 7 -14 2 -11 -16 9 l-27 30
42 38 c51 44 44 50 -10 7 -20 -16 -40 -27 -44 -23 -15 15 -3 36 39 65 25 17
43 34 40 36 -3 3 -23 -10 -46 -28 -33 -26 -43 -30 -50 -19 -16 25 -10 34 41
64 27 17 50 33 50 38 0 4 -17 -3 -37 -16 -21 -13 -44 -27 -50 -31 -9 -5 -13 0
-13 13 0 15 15 28 50 46 28 14 50 28 50 30 0 3 -22 -6 -50 -20 -46 -23 -50
-24 -50 -7 0 12 17 26 50 42 27 13 48 25 46 27 -2 3 -22 -5 -45 -17 -32 -16
-41 -17 -41 -6 0 8 20 22 45 33 25 10 45 21 45 25 0 4 -16 0 -35 -8 -19 -8
-35 -10 -35 -5 0 6 18 16 40 22 22 7 40 16 40 20 0 5 -12 4 -26 -2 -40 -14
-42 -2 -3 16 21 9 25 14 11 11 -12 -2 -20 0 -16 5 3 5 13 9 22 10 14 0 13 2
-3 9 -12 5 -14 9 -6 9 8 1 11 4 8 7 -12 12 55 122 112 185 51 57 157 149 172
149 3 0 8 -2 11 -5z m634 -136 c106 -40 181 -117 210 -215 10 -34 14 -85 13
-146 -2 -51 1 -111 5 -133 12 -60 -4 -69 -120 -70 -60 0 -97 -4 -105 -12 -19
-19 -6 -25 25 -13 34 12 133 13 140 1 7 -11 -52 -64 -97 -87 -17 -10 -54 -23
-80 -30 -44 -11 -47 -11 -35 3 11 14 9 14 -19 0 -17 -9 -39 -14 -48 -11 -13 5
-10 10 14 25 17 10 31 21 31 24 0 3 -20 -6 -43 -20 -41 -23 -47 -24 -82 -12
-43 15 -41 18 28 37 26 7 50 17 54 23 4 7 -1 8 -13 3 -22 -10 -116 -36 -126
-36 -5 0 -8 8 -8 18 0 14 15 23 60 37 33 10 58 20 56 22 -2 3 -28 -3 -56 -11
-29 -9 -56 -13 -61 -10 -22 13 -5 34 42 49 64 22 59 30 -6 10 -36 -10 -52 -11
-62 -3 -23 19 -15 25 47 37 33 7 60 14 60 17 0 6 -79 -7 -107 -17 -14 -5 -25
-3 -33 6 -14 17 -8 20 63 35 31 6 57 14 57 17 0 5 -47 -2 -97 -14 -18 -4 -23
-1 -23 16 0 14 8 22 28 26 15 3 41 10 57 15 27 9 26 9 -10 4 -22 -3 -48 -7
-57 -10 -11 -3 -18 0 -18 9 0 10 17 17 53 22 42 6 48 9 32 16 -13 6 8 7 56 3
70 -5 78 -4 104 19 20 17 28 33 28 55 0 40 -17 60 -70 83 -52 22 -110 75 -91
82 8 4 7 6 -4 6 -26 1 -22 19 5 24 19 4 18 4 -5 6 -39 2 -35 21 5 23 l32 1
-31 4 c-18 2 -40 13 -50 24 -16 18 -16 19 2 19 10 0 36 -4 57 -9 21 -5 36 -6
32 -3 -4 4 -28 12 -53 18 l-47 12 70 2 c55 2 62 4 35 9 -28 5 -31 8 -17 14 10
4 31 4 45 1 22 -5 24 -3 12 6 -22 17 49 4 116 -21z m-273 -386 c-7 -2 -21 -2
-30 0 -10 3 -4 5 12 5 17 0 24 -2 18 -5z m87 -331 c50 -19 49 -15 50 -142 2
-116 -40 -218 -119 -294 l-29 -28 24 -46 c42 -79 30 -185 -28 -248 -23 -26
-12 -37 33 -36 16 0 31 -3 34 -8 8 -13 -64 -42 -91 -37 -14 2 -27 0 -31 -6 -4
-6 -1 -7 8 -2 8 5 10 4 6 0 -13 -14 -39 -15 -34 -1 3 7 1 19 -5 27 -8 11 -9
11 -4 -3 3 -10 2 -20 -3 -22 -11 -7 -10 27 2 41 6 9 6 17 -1 25 -5 7 -13 29
-17 48 -12 58 -33 89 -81 118 -24 16 -41 32 -37 37 5 4 1 6 -9 2 -21 -7 -52
27 -44 49 5 14 4 15 -9 4 -12 -10 -15 -10 -15 2 0 8 6 20 13 28 10 12 9 12 -6
1 -25 -20 -34 -5 -11 20 19 22 19 22 -3 10 -27 -14 -41 2 -21 26 8 10 8 14 1
10 -21 -13 -26 14 -6 36 14 17 11 16 -18 -5 l-37 -27 -7 27 c-6 23 -1 32 32
60 21 19 28 29 16 23 -12 -6 -25 -16 -28 -21 -3 -6 -11 -10 -16 -10 -6 0 -7 6
-2 13 4 6 8 19 10 27 1 8 10 20 20 28 10 7 18 17 18 23 0 5 6 14 14 18 7 5 11
13 7 19 -3 6 4 28 16 49 19 31 23 34 26 18 7 -38 24 -48 69 -41 34 4 43 2 43
-9 0 -8 10 -21 23 -30 46 -30 158 11 143 52 -3 7 1 13 9 13 8 0 15 5 15 10 0
15 -83 12 -182 -7 -75 -14 -91 -15 -98 -3 -11 18 -2 39 34 78 85 90 217 124
326 84z m-125 -172 c10 -16 -14 -39 -35 -35 -11 2 -22 -1 -26 -6 -3 -6 -12 -5
-22 3 -13 11 -15 11 -8 -2 4 -9 2 -8 -7 2 -8 10 -17 14 -21 10 -4 -4 -6 0 -4
8 5 25 110 41 123 20z m-331 -285 c7 -30 7 -30 -9 -7 -9 12 -13 27 -10 33 9
13 11 11 19 -26z m410 -16 c-3 -5 -10 -7 -15 -3 -5 3 -7 10 -3 15 3 5 10 7 15
3 5 -3 7 -10 3 -15z m-275 -176 c-13 -15 -12 -15 12 1 24 15 27 15 33 1 6 -17
-48 -84 -59 -73 -4 4 8 21 27 38 l33 32 -32 -21 -32 -22 1 23 c2 25 18 52 26
43 3 -2 -1 -12 -9 -22z"/>
<path d="M893 2449 c-41 -12 -83 -63 -83 -99 0 -42 9 -59 41 -75 81 -42 189
12 189 95 0 65 -69 103 -147 79z"/>
<path d="M1176 2345 c-7 -19 0 -35 16 -35 5 0 7 7 4 16 -5 12 -1 14 15 9 15
-5 20 -3 17 6 -7 21 -44 23 -52 4z"/>
<path d="M1312 2247 c-33 -35 -31 -125 3 -166 36 -42 61 -48 90 -21 45 43 45
125 -1 180 -31 36 -63 38 -92 7z"/>
<path d="M759 2014 c-10 -13 -10 -22 1 -52 31 -88 102 -159 191 -193 121 -46
311 3 259 66 -9 10 -28 12 -79 8 -123 -10 -230 43 -297 149 -26 40 -53 49 -75
22z"/>
<path d="M950 1340 c-8 -5 -10 -10 -5 -10 6 0 17 5 25 10 8 5 11 10 5 10 -5 0
-17 -5 -25 -10z"/>
<path d="M970 1325 c-14 -8 -20 -14 -14 -15 5 0 19 7 30 15 24 18 16 19 -16 0z"/>
<path d="M516 924 c-5 -14 -4 -15 9 -4 17 14 19 20 6 20 -5 0 -12 -7 -15 -16z"/>
<path d="M1450 1350 c-24 -24 -25 -38 -4 -68 36 -51 122 -5 93 50 -23 43 -57
50 -89 18z"/>
<path d="M719 589 c-23 -19 -23 -20 -2 -10 12 6 25 16 28 21 10 16 -1 12 -26
-11z"/>
<path d="M713 514 c-20 -18 -22 -22 -7 -15 21 10 52 41 41 41 -3 0 -19 -12
-34 -26z"/>
<path d="M817 353 c-4 -3 -7 -11 -7 -17 0 -6 5 -5 12 2 6 6 9 14 7 17 -3 3 -9
2 -12 -2z"/>
</g>
</svg>
