<?xml version="1.0" standalone="no"?>
<!DOCTYPE svg PUBLIC "-//W3C//DTD SVG 20010904//EN"
 "http://www.w3.org/TR/2001/REC-SVG-20010904/DTD/svg10.dtd">
<svg version="1.0" xmlns="http://www.w3.org/2000/svg"
 width="73.574935pt" height="91.500000pt" viewBox="0 0 73.574935 91.500000"
 preserveAspectRatio="xMidYMid meet">
<metadata>
Created by potrace 1.16, written by Peter Selinger 2001-2019
</metadata>
<g transform="translate(-265.425065,356.000000) scale(0.100000,-0.100000)"
fill="#000000" stroke="none">
<path d="M3315 3540 c-12 -14 -25 -18 -42 -14 -22 6 -23 4 -17 -20 5 -20 1
-31 -17 -46 -51 -44 -74 -50 -141 -41 -36 5 -64 5 -66 0 -7 -17 -37 -9 -102
26 -35 19 -67 35 -72 35 -4 0 8 -32 27 -72 l35 -72 -27 -35 c-14 -20 -44 -55
-66 -78 l-40 -41 49 -25 c77 -40 106 -76 108 -136 0 -28 -3 -51 -7 -52 -4 0
-30 7 -57 17 -43 15 -52 23 -60 54 -5 19 -10 47 -10 61 0 14 -14 57 -31 94
l-30 67 21 20 c26 25 16 42 -21 34 -28 -5 -29 -4 -18 16 10 18 7 24 -20 45
-33 26 -46 29 -46 10 0 -6 -4 -18 -9 -26 -6 -9 3 -23 27 -45 32 -27 57 -70 57
-95 0 -5 -14 -11 -31 -15 -38 -7 -30 -24 9 -18 32 4 62 -20 41 -34 -8 -4 -9
-3 -5 4 4 7 3 12 -3 12 -16 0 -25 -22 -11 -30 8 -5 7 -9 -4 -13 -9 -4 -16 -11
-16 -16 0 -7 9 -6 26 1 29 13 44 0 44 -39 0 -24 -14 -31 -25 -13 -8 14 -62 13
-71 -1 -5 -8 3 -10 25 -7 17 2 29 2 26 -1 -3 -2 8 -10 23 -17 21 -9 35 -27 52
-68 19 -44 28 -55 41 -51 31 10 69 -53 70 -116 1 -108 41 -179 74 -131 14 18
25 22 74 22 49 0 61 -4 75 -22 l15 -23 20 22 c17 20 41 119 41 169 0 11 13 33
30 49 39 37 85 104 77 112 -4 3 -29 -4 -56 -16 -27 -11 -52 -21 -55 -21 -3 0
-6 28 -6 61 0 57 3 65 41 113 23 28 56 63 73 79 16 15 25 27 19 27 -6 0 -16
-7 -23 -15 -9 -11 -16 -12 -26 -4 -7 6 -25 9 -41 7 -24 -3 -28 -8 -31 -40 -2
-21 1 -38 6 -38 6 0 9 15 8 33 -1 27 3 33 24 35 l25 4 -22 -22 c-27 -25 -31
-40 -5 -17 49 44 25 3 -49 -87 -4 -5 -5 10 -2 32 3 23 3 52 -1 66 -9 35 -51
35 -88 -1 -15 -15 -28 -22 -28 -15 0 6 4 13 10 17 5 3 7 12 3 20 -4 12 3 15
31 15 20 0 36 5 36 10 0 7 6 7 19 0 25 -13 31 -13 31 0 0 6 -8 10 -18 10 -12
0 -25 14 -37 40 -10 23 -29 52 -42 67 -17 18 -19 24 -8 19 9 -3 21 -6 25 -6
17 0 80 -62 80 -79 0 -20 29 -63 30 -43 0 8 5 10 13 5 6 -4 20 -9 31 -10 16
-3 17 -1 6 12 -16 19 -3 19 30 0 28 -16 50 -19 50 -7 0 5 -18 14 -39 21 -21 6
-48 19 -59 29 -20 17 -20 18 17 140 21 67 35 122 31 122 -4 0 -15 -9 -25 -20z
m-18 -102 c-17 -57 -32 -105 -34 -107 -1 -2 -9 2 -18 9 -9 7 -18 10 -21 8 -3
-3 14 -22 37 -42 24 -20 37 -36 30 -36 -7 0 -9 -5 -5 -12 4 -7 3 -8 -5 -4 -6
4 -9 11 -6 16 3 5 1 11 -5 15 -5 3 -10 -1 -10 -10 0 -9 -4 -13 -10 -10 -5 3
-10 14 -10 24 0 10 -9 30 -21 45 -11 14 -17 26 -14 26 4 0 2 7 -5 15 -14 17
-35 21 -25 5 4 -6 -4 -6 -21 0 -15 6 -39 10 -53 9 -14 -1 -39 -1 -56 0 l-30 3
34 10 c23 6 48 6 74 -1 32 -8 45 -6 66 7 45 27 81 65 81 84 0 11 5 16 11 13 6
-4 17 2 25 14 8 12 17 21 18 21 2 0 -11 -46 -27 -102z m-364 -8 c26 -13 47
-26 47 -29 -1 -8 -51 -44 -54 -39 -13 16 -54 99 -48 96 4 -2 28 -14 55 -28z
m53 -61 c-21 -17 -24 -24 -15 -35 9 -11 7 -14 -11 -14 -25 0 -49 -25 -50 -52
0 -10 -7 -18 -16 -18 -10 0 -14 -6 -11 -14 4 -11 1 -13 -11 -9 -14 5 -15 4 -4
-8 7 -8 18 -14 25 -15 7 0 21 -2 31 -2 41 -4 4 -14 -53 -16 -65 -1 -72 2 -43
20 10 6 37 38 61 70 46 62 99 114 114 114 6 0 -2 -9 -17 -21z m102 -5 c12 -8
22 -12 22 -8 0 3 7 1 16 -7 14 -11 13 -15 -8 -30 -17 -14 -20 -21 -12 -29 9
-9 17 -9 34 0 15 8 20 8 16 1 -4 -6 -2 -19 4 -28 10 -16 11 -16 5 2 -5 15 -3
17 6 8 17 -16 2 -33 -30 -33 -18 0 -38 12 -61 35 -18 19 -49 42 -68 51 l-36
17 23 18 c28 23 59 24 89 3z m-368 -35 c0 -5 -7 -9 -15 -9 -15 0 -20 12 -9 23
8 8 24 -1 24 -14z m45 -38 c-3 -6 -11 -8 -17 -5 -6 4 -5 9 3 15 16 10 23 4 14
-10z m218 -2 c4 -16 12 -20 34 -17 22 2 28 -1 28 -17 0 -27 -29 -31 -79 -9
-22 10 -42 19 -44 20 -2 1 1 12 8 23 14 27 46 27 53 0z m14 -64 c37 -9 48 -28
26 -47 -15 -11 -16 -11 -10 5 5 14 1 17 -22 17 -35 0 -91 19 -91 31 0 8 42 6
97 -6z m58 -15 c3 -5 1 -10 -4 -10 -6 0 -11 5 -11 10 0 6 2 10 4 10 3 0 8 -4
11 -10z m45 0 c0 -5 -5 -10 -11 -10 -5 0 -7 5 -4 10 3 6 8 10 11 10 2 0 4 -4
4 -10z m105 -19 c9 -28 2 -110 -10 -108 -5 1 -9 -4 -10 -12 0 -22 -62 -54
-104 -54 -20 0 -49 7 -63 14 -38 21 -151 129 -134 129 8 0 16 -3 19 -7 2 -5 2
-3 1 4 -2 7 1 15 6 18 6 4 10 1 10 -6 0 -8 6 -6 18 4 10 10 28 17 41 17 21 0
21 -1 4 -27 l-17 -28 24 20 25 20 -18 -21 c-13 -15 -27 -20 -52 -18 -20 1 -33
-2 -29 -7 3 -5 12 -9 20 -9 8 0 14 -6 14 -14 0 -21 28 -39 61 -38 16 0 27 -3
24 -8 -8 -12 28 -30 60 -30 26 0 90 28 82 36 -2 2 -17 -2 -33 -11 -32 -16 -80
-20 -88 -6 -3 4 6 19 19 31 14 13 25 30 25 37 0 8 8 13 18 11 13 -2 17 4 17
30 0 48 56 75 70 33z m-125 -11 c-8 -5 -11 -12 -8 -16 4 -3 -2 -25 -14 -48
-15 -29 -17 -37 -5 -28 8 7 18 24 21 37 5 21 26 36 26 20 0 -16 -32 -65 -43
-66 -30 -3 -73 4 -84 13 -16 13 71 98 100 98 18 0 19 -2 7 -10z m-190 -4 c0
-2 -9 -6 -20 -9 -11 -3 -18 -1 -14 4 5 9 34 13 34 5z m335 -236 c8 0 17 5 20
10 3 6 10 10 15 10 12 0 7 -40 -8 -68 -11 -19 -16 -21 -28 -11 -12 9 -26 9
-68 0 -31 -7 -75 -9 -104 -5 -82 11 -120 -27 -86 -86 10 -16 15 -33 11 -37
-14 -13 -30 16 -35 65 -3 41 -12 57 -53 103 -27 30 -49 57 -49 61 0 12 51 -14
91 -44 29 -24 48 -29 115 -34 108 -9 154 9 154 60 0 25 -6 38 -20 46 -11 6
-20 7 -20 1 0 -5 7 -11 15 -15 9 -3 15 -18 15 -35 0 -27 -4 -30 -47 -39 -50
-10 -169 -3 -191 12 -9 6 -10 11 -2 21 8 10 18 9 47 -6 21 -11 48 -19 62 -19
31 0 61 27 61 54 0 14 15 30 43 46 l42 26 3 -58 c2 -41 7 -58 17 -58z m-148
60 c21 0 24 -4 21 -27 -4 -36 -33 -41 -93 -14 -41 18 -45 23 -45 54 l0 34 47
-23 c25 -13 57 -24 70 -24z m227 -45 c-10 -16 -20 -23 -22 -16 -4 12 28 55 35
47 3 -2 -3 -17 -13 -31z m-86 -103 c2 -15 -2 -22 -13 -22 -30 0 -129 -40 -152
-62 -13 -12 -23 -31 -23 -42 0 -18 -6 -21 -38 -21 -30 0 -38 4 -40 22 -3 18 1
20 19 16 23 -7 23 -10 2 76 -9 38 17 51 96 44 36 -3 77 0 91 6 36 14 55 9 58
-17z m-8 -64 c0 -42 -18 -105 -31 -114 -6 -3 -16 2 -24 12 -10 14 -26 19 -61
19 -87 0 -67 48 39 92 70 30 77 29 77 -9z m-212 -108 c-15 -24 -24 -25 -31 -6
-5 13 5 20 36 25 4 0 2 -8 -5 -19z"/>
<path d="M2845 3210 c-3 -5 1 -10 10 -10 9 0 13 5 10 10 -3 6 -8 10 -10 10 -2
0 -7 -4 -10 -10z"/>
<path d="M2960 3220 c0 -5 5 -10 11 -10 5 0 7 5 4 10 -3 6 -8 10 -11 10 -2 0
-4 -4 -4 -10z"/>
</g>
</svg>
