<?xml version="1.0" encoding="UTF-8" standalone="no"?>
<!-- Created with Inkscape (http://www.inkscape.org/) -->

<svg
   version="1.1"
   id="svg1"
   width="396"
   height="505"
   viewBox="0 0 396 505"
   sodipodi:docname="luigi.svg"
   inkscape:version="1.4.2 (f4327f4, 2025-05-13)"
   xmlns:inkscape="http://www.inkscape.org/namespaces/inkscape"
   xmlns:sodipodi="http://sodipodi.sourceforge.net/DTD/sodipodi-0.dtd"
   xmlns="http://www.w3.org/2000/svg"
   xmlns:svg="http://www.w3.org/2000/svg">
  <defs
     id="defs1" />
  <sodipodi:namedview
     id="namedview1"
     pagecolor="#ffffff"
     bordercolor="#000000"
     borderopacity="0.25"
     inkscape:showpageshadow="2"
     inkscape:pageopacity="0.0"
     inkscape:pagecheckerboard="0"
     inkscape:deskcolor="#d1d1d1"
     inkscape:zoom="1.170297"
     inkscape:cx="197.81303"
     inkscape:cy="252.5"
     inkscape:window-width="1536"
     inkscape:window-height="793"
     inkscape:window-x="-8"
     inkscape:window-y="1072"
     inkscape:window-maximized="1"
     inkscape:current-layer="g1" />
  <g
     inkscape:groupmode="layer"
     inkscape:label="Image"
     id="g1">
    <path
       style="fill:#000000"
       d="m 183,483.64064 c -21.37483,-6.38005 -45.42827,-28.1448 -52.09776,-47.14064 -4.19527,-11.94887 -2.02269,-24.43218 5.57433,-32.02921 11.0508,-11.05079 28.64848,-10.98407 42.24858,0.16019 2.41145,1.97601 4.52385,3.4299 4.6942,3.23088 0.17036,-0.19902 0.88462,-1.46422 1.58725,-2.81156 1.14783,-2.20101 1.03469,-2.60677 -1.11454,-3.99703 -4.31506,-2.79126 -11.86344,-10.26907 -14.0784,-13.94679 -1.19463,-1.98357 -3.93152,-5.55243 -6.08197,-7.93081 -7.67018,-8.48315 -10.6817,-21.06067 -7.22516,-30.17567 0.93855,-2.475 1.77104,-5.625 1.84996,-7 0.13645,-2.37697 -0.12715,-2.5018 -5.35649,-2.53648 -3.025,-0.0201 -6.68903,-0.39418 -8.1423,-0.83138 -1.81827,-0.547 -3.64505,-0.27635 -5.8577,0.86786 -1.76847,0.91451 -4.20358,1.41474 -5.41135,1.11161 -1.41593,-0.35538 -2.75229,0.0986 -3.76223,1.27815 -1.16752,1.36356 -3.69811,2.01526 -9.93959,2.55971 -8.36798,0.72995 -8.37488,0.72858 -10.88006,-2.15959 -2.37581,-2.73902 -2.68962,-2.82503 -6.00677,-1.64638 -8.074504,2.86902 -11,0.97187 -11,-7.13337 0,-4.96875 -0.233081,-5.49106 -3.294813,-7.38332 C 82.818555,322.48867 78,317.15513 78,314.27749 78,312.09386 81.873257,309 84.606989,309 c 1.669463,0 2.438053,-0.44952 2.137227,-1.25 -2.339464,-6.22514 -0.955603,-8.75 4.795828,-8.75 5.160891,0 3.396052,-2.55564 -4.117448,-5.96243 -11.583864,-5.25237 -19.022364,-14.32708 -22.633687,-27.61231 -1.890883,-6.95612 -1.983547,-8.48574 -0.928466,-15.3263 2.787216,-18.07074 12.672334,-28.17766 29.225826,-29.88158 3.833094,-0.39456 6.950101,-1.16738 6.926681,-1.71738 -0.02342,-0.55 -4.198411,-2.67468 -9.277763,-4.7215 -21.034194,-8.47615 -35.93701,-17.90194 -49.364383,-31.22216 -13.634283,-13.52547 -19.375238,-23.89588 -19.367066,-34.98448 0.0043,-5.88369 2.20168,-10.12744 7.161123,-13.83033 C 35.003245,129.3824 42.256388,127.70636 58,127.07838 L 72.5,126.5 l 0.643404,-13 c 0.778141,-15.722388 2.071546,-23.905662 5.495316,-34.768461 6.816158,-21.626026 22.45862,-41.96259 40.87844,-53.145529 24.75383,-15.028414 58.59067,-16.6501003 84.24138,-4.037408 8.33216,4.097 19.75103,12.840996 26.14,20.016709 5.87762,6.601385 17.96034,25.037791 22.89525,34.934689 9.87366,19.801527 20.39252,56.05602 23.21116,80 1.79789,15.27292 1.72651,15.05299 5.76832,17.77296 5.41431,3.6436 12.14262,10.66141 14.33875,14.95572 4.81116,9.4077 6.03472,24.8741 2.81736,35.61269 -1.46933,4.90418 -0.84776,5.98 2.28941,3.96254 3.82891,-2.46232 12.43522,-5.15065 14.25433,-4.4526 0.94422,0.36233 1.92673,1.46173 2.18337,2.44312 0.374,1.43016 1.49647,1.77651 5.65506,1.74495 5.12224,-0.0389 5.18756,-0.001 5.11855,2.96062 -0.0384,1.65 -0.26344,3.85374 -0.5,4.89719 -0.33553,1.48003 0.22955,1.9847 2.5699,2.29516 1.65,0.21889 3.5,1.05319 4.1111,1.85399 1.19293,1.56324 0.71798,6.13224 -0.7305,7.02745 -1.52624,0.94327 -0.96559,2.06646 1.6194,3.24426 5.67023,2.58353 1.55016,9.58915 -8.69173,14.77911 -5.25637,2.6636 -5.43755,2.98676 -3.27647,5.84397 2.06415,2.72904 1.82486,6.92612 -0.51563,9.04424 -1.61972,1.46582 -3.09883,1.69424 -8.05878,1.24448 -5.87145,-0.5324 -6.10881,-0.46179 -7.08577,2.10782 -2.21037,5.8137 -3.42898,6.32871 -14.34209,6.06123 -6.23256,-0.15276 -10.85644,0.19842 -12.21379,0.92764 -1.20134,0.6454 -3.09801,1.17346 -4.21481,1.17346 -1.11681,0 -2.50974,0.89534 -3.09539,1.98965 -1.35489,2.53163 -5.35867,4.58337 -10.66331,5.46442 -2.28677,0.37981 -4.92341,1.25041 -5.8592,1.93468 -1.46857,1.07384 -0.89953,1.42246 4.15777,2.54723 13.37154,2.9739 22.97944,11.37477 28.1952,24.65306 2.54552,6.48038 4.51298,6.4104 5.17716,-0.18413 0.69605,-6.91109 4.56965,-11.9712 10.26389,-13.40779 2.32262,-0.58598 5.25662,-1.50004 6.52,-2.03126 4.48482,-1.88576 12.19589,-1.12032 17.97334,1.78414 13.21212,6.64203 28.13472,29.1184 30.07977,45.30603 2.31463,19.26354 -5.2653,33.10171 -20.56846,37.55046 -10.00537,2.90863 -19.73135,0.0259 -27.59301,-8.17847 -5.10087,-5.32322 -9.89719,-13.64083 -11.6356,-20.17802 -0.98491,-3.70372 -1.4787,-4.24222 -3.84163,-4.18945 -2.38106,0.0532 -3.17126,1.01974 -6.48487,7.93231 -4.55543,9.50314 -10.093,15.43647 -19.11646,20.48268 C 261.41669,398.6168 253.25593,401 244.84418,401 c -5.87949,0 -7.48727,0.38873 -10.21596,2.47 -1.78108,1.3585 -5.26653,3.36716 -7.74544,4.4637 -2.47892,1.09655 -5.21421,2.79755 -6.07844,3.78001 -4.43806,5.04524 -8.73637,18.62441 -8.79537,27.78629 -0.0142,2.2 0.74772,7.01822 1.69308,10.70716 3.22529,12.58546 -1.26404,25.95019 -10.55838,31.43228 -5.26618,3.10615 -13.651,3.93916 -20.14367,2.0012 z m 13.92103,-4.90538 c 1.33157,-0.67939 2.60333,-1.91026 2.82613,-2.73526 0.3224,-1.19378 0.21374,-1.22756 -0.53229,-0.16547 -0.72619,1.03385 -1.06487,0.84707 -1.50317,-0.82899 -0.41798,-1.59835 -0.19299,-2.02047 0.86126,-1.61591 2.60278,0.99877 1.54044,-2.90657 -2.444,-8.98459 -2.12908,-3.24777 -4.75256,-6.81659 -5.82996,-7.93071 -1.07741,-1.11412 -2.81033,-3.36412 -3.85093,-5 -13.55986,-21.31676 -33.44227,-34.2457 -47.03509,-30.58553 -2.63592,0.70978 -4.5423,1.98433 -5.41944,3.62328 -2.01542,3.76584 -0.33642,4.85486 5.29772,3.43616 6.78422,-1.70828 8.0816,-0.56206 1.70874,1.50965 -3.025,0.98337 -5.85904,2.11418 -6.29787,2.5129 -0.8163,0.74169 1.14254,6.058 2.20839,5.99359 0.32421,-0.0196 3.28948,-0.68756 6.58948,-1.48438 5.95329,-1.43748 11.29613,-1.94279 10.33035,-0.97702 -0.27663,0.27664 -3.60066,1.58622 -7.38672,2.91018 -3.78606,1.32396 -7.02452,2.8295 -7.19656,3.34564 -0.17205,0.51614 0.54804,2.00155 1.6002,3.30092 l 1.91302,2.36248 7.36986,-1.72392 c 12.31287,-2.88016 13.35829,-1.71104 2.08913,2.33634 -3.45439,1.24067 -6.45669,2.54051 -6.67178,2.88853 -0.21509,0.34802 0.41073,1.69574 1.39071,2.99493 l 1.78178,2.36216 7.26267,-1.64012 c 7.03589,-1.58891 13.8963,-2.18575 12.82643,-1.11588 -0.28833,0.28833 -3.85083,1.4425 -7.91666,2.56481 -4.06584,1.12232 -7.75708,2.39856 -8.20277,2.8361 -0.44568,0.43754 0.5328,1.9257 2.17442,3.30702 l 2.98475,2.5115 8.18888,-2.37183 c 8.09496,-2.34464 16.27646,-3.20158 14.41229,-1.50958 -0.5225,0.47425 -3.94014,1.59238 -7.59476,2.48474 -3.65462,0.89236 -7.85002,2.08071 -9.32311,2.64078 l -2.67834,1.01831 3.09043,2.60043 3.09043,2.60043 6.73268,-1.57296 c 9.09343,-2.1245 10.88891,-2.30726 11.14085,-1.13399 0.1181,0.55 -2.85042,1.63501 -6.59672,2.41114 -3.7463,0.77612 -6.99896,1.56362 -7.22813,1.75 -0.75841,0.61679 0.66869,1.46105 6.57395,3.88908 6.49104,2.66888 15.29414,3.21041 19.26375,1.18504 z M 180,477 c 0,-0.55 0.6382,-1 1.41821,-1 0.78002,0 2.03043,-0.23493 2.7787,-0.52207 0.74826,-0.28713 2.24757,0.14856 3.33178,0.9682 1.83696,1.3887 1.64759,1.49243 -2.77869,1.52207 C 182.1375,477.98569 180,477.55 180,477 Z m 27,-6.3908 C 207,468.33328 196.1109,450 194.75912,450 c -0.61703,0 -0.37692,3.91149 0.29157,4.75 0.10962,0.1375 0.27589,0.5875 0.3695,1 0.61205,2.69726 4.83227,9.21201 5.64293,8.71099 0.54254,-0.33531 0.90147,-0.2387 0.79762,0.21468 C 201.32668,467.00729 203.37701,471 205.10841,471 206.14878,471 207,470.82414 207,470.6092 Z m 2.09267,-9.3592 c -0.37205,-2.75876 -0.6042,-3.13603 -0.87828,-1.42727 -0.34336,2.1407 0.2745,5.17727 1.05342,5.17727 0.18183,0 0.10301,-1.6875 -0.17514,-3.75 z m -3.96858,-5.51667 c -0.98762,-0.98026 -1.10248,-0.8654 -0.5598,0.5598 0.37553,0.98622 0.93469,1.54122 1.24258,1.23333 0.30789,-0.30789 6.4e-4,-1.11479 -0.68278,-1.79313 z m -22.14415,-15.2575 c -1.71753,-2.0695 -0.44553,-3.09877 1.69103,-1.36833 3.13243,2.53702 -4.54391,-7.82241 -9.40085,-12.68671 -5.71935,-5.72801 -15.19201,-12.02683 -20.16382,-13.40789 -7.93552,-2.20431 -17.98037,-0.85982 -20.743,2.77641 -1.99939,2.63165 -1.75515,5.59038 0.3867,4.6846 4.49506,-1.90094 10.43405,-2.68136 15.54529,-2.04275 7.09177,0.88605 14.83629,5.75903 25.44611,16.01109 7.46868,7.21683 9.90803,9.25011 7.23854,6.03358 z m -3.19452,-18.04744 c -0.8748,-1.91996 -0.88274,-2.75021 -0.0313,-3.2764 0.66912,-0.41354 0.79959,-1.25616 0.31571,-2.03908 -0.45355,-0.73387 -0.6354,-2.07199 -0.40409,-2.97361 0.48261,-1.88122 -5.61231,-8.54321 -9.79474,-10.70603 -5.19094,-2.68435 -12.53622,-3.71386 -17.65809,-2.47497 -4.39353,1.06271 -14.20997,7.14062 -14.21519,8.80142 -0.001,0.40715 3.39184,0.59159 7.54025,0.40987 9.86972,-0.43236 17.04957,1.84145 25.13222,7.95919 5.42958,4.10964 9.29629,6.73941 10.05842,6.84081 0.12571,0.0167 -0.29871,-1.12682 -0.94314,-2.5412 z M 207,423.33333 c 0,-0.91666 0.27857,-1.38809 0.61905,-1.04762 C 208.37781,423.04448 211,420.55155 211,419.07143 211,418.48214 210.325,418 209.5,418 c -0.825,0 -1.5,0.39976 -1.5,0.88837 0,0.4886 -2.5875,-0.17572 -5.75,-1.47627 -5.86928,-2.41368 -12.25,-3.17372 -12.25,-1.45915 0,3.05038 2.50655,5.68679 6.79843,7.15062 6.56362,2.23867 10.20157,2.3206 10.20157,0.22976 z m 6.43845,-9.87974 c 1.59896,-2.44032 1.5725,-2.62636 -0.63499,-4.46513 -6.39094,-5.32343 -18.79012,-7.85894 -22.12477,-4.5243 -2.7033,2.7033 -1.98267,3.53521 3.07131,3.54561 5.26709,0.0108 14.90528,3.92834 15.87369,6.45196 0.8411,2.19186 1.90169,1.91158 3.81476,-1.00814 z M 223,402.55902 c 0,-0.24254 -0.45,-0.7191 -1,-1.05902 -0.55,-0.33992 -1,-0.14148 -1,0.44098 0,0.58246 0.45,1.05902 1,1.05902 0.55,0 1,-0.19844 1,-0.44098 z M 336.74912,390 c 0.26121,-0.97191 0.11229,-1.10979 -0.42299,-0.39164 -0.45437,0.6096 -1.55332,0.99577 -2.44211,0.85815 -0.88879,-0.13761 -2.23879,0.16558 -3,0.67375 -0.95311,0.63628 -0.31828,0.83612 2.03897,0.64184 2.01497,-0.16606 3.58882,-0.89911 3.82613,-1.7821 z m 4.10764,-1.10969 c -0.99833,-0.63257 -1.02653,-0.86373 -0.10676,-0.875 0.6875,-0.008 1.25,-0.47388 1.25,-1.03436 0,-0.57525 -1.04126,-0.75771 -2.39091,-0.41897 -1.31499,0.33004 -2.6314,0.21095 -2.92533,-0.26466 -0.29394,-0.4756 1.11946,-0.84956 3.1409,-0.83102 2.95975,0.0271 3.64484,0.39519 3.51867,1.89037 -0.11075,1.31254 0.15524,1.54476 0.90762,0.79238 0.75238,-0.75238 0.66008,-1.55133 -0.31496,-2.72618 -0.75859,-0.91404 -1.43217,-3.18577 -1.49685,-5.04828 -0.15004,-4.32062 -1.08783,-5.2373 -2.86771,-2.80316 -0.77435,1.05898 -1.73771,1.59563 -2.14079,1.19254 -0.40309,-0.40309 -1.22738,-0.0843 -1.83176,0.70849 -0.60439,0.79276 -3.34888,1.82869 -6.09888,2.30208 -2.97099,0.51143 -4.89855,1.34052 -4.75,2.04309 0.1375,0.6503 -0.5748,1.18237 -1.58288,1.18237 -2.16068,0 -2.31339,4.11791 -0.1791,4.82934 0.8624,0.28747 1.12289,-0.0979 0.74023,-1.09512 -0.93309,-2.43159 0.25946,-2.74651 2.378,-0.62797 1.54741,1.54741 2.3466,1.72176 3.95255,0.86228 2.24224,-1.20001 7.65178,-0.65795 9.23514,0.92541 0.56442,0.56442 1.45223,0.76294 1.9729,0.44114 0.53409,-0.33008 0.35536,-0.95976 -0.41008,-1.44477 z M 327,386.05902 c 0,-0.51754 0.44485,-1.21592 0.98855,-1.55194 0.56686,-0.35034 0.7345,0.0511 0.39301,0.94098 C 327.71677,387.18048 327,387.49745 327,386.05902 Z m -7.96483,-1.51664 c -0.70403,-0.84831 -2.01246,-1.50685 -2.90761,-1.46343 -1.04596,0.0507 -1.17865,0.25993 -0.37133,0.58541 0.69093,0.27855 0.95461,0.9945 0.58596,1.59099 -0.43482,0.70355 -0.0466,0.84521 1.10511,0.40325 1.39872,-0.53674 1.63311,-0.3076 1.10479,1.08006 -0.52533,1.37984 -0.40701,1.49977 0.54628,0.55372 0.95571,-0.94844 0.94214,-1.53864 -0.0632,-2.75 z m 25.64794,-2.72988 c -0.31922,-0.79773 -0.55618,-0.56078 -0.60416,0.60417 -0.0434,1.05416 0.19293,1.64479 0.52522,1.3125 0.33229,-0.33229 0.36781,-1.1948 0.0789,-1.91667 z M 318.75047,380.75 c -0.22891,-0.6875 -1.26459,-1.4144 -2.3015,-1.61534 -1.6311,-0.31608 -1.70455,-0.14754 -0.54469,1.25 1.5862,1.91126 3.44015,2.14923 2.84619,0.36534 z m -7.45778,-1.73875 c -0.28604,-1.09382 -0.94076,-1.72875 -1.45494,-1.41097 -0.55165,0.34094 -0.45486,1.15615 0.23614,1.98875 1.57743,1.90069 1.835,1.77858 1.2188,-0.57778 z m -137.87448,-0.61824 c 1.24754,-0.47873 1.58179,-2.1895 1.58179,-8.09609 0,-15.76672 -6.98765,-27.82292 -13.63868,-23.53161 -1.36273,0.87925 -3.34794,7.65123 -3.35574,11.44718 -0.009,4.1421 3.59341,12.85057 7.04692,17.03751 2.99555,3.63173 5.06551,4.40942 8.36571,3.14301 z m 139.2649,-1.58051 c -0.31922,-0.79773 -0.55618,-0.56078 -0.60416,0.60417 -0.0434,1.05416 0.19293,1.64479 0.52522,1.3125 0.33229,-0.33229 0.36781,-1.1948 0.0789,-1.91667 z M 312,374 c 0,-0.55 -0.19844,-1 -0.44098,-1 -0.24254,0 -0.7191,0.45 -1.05902,1 -0.33992,0.55 -0.14148,1 0.44098,1 0.58246,0 1.05902,-0.45 1.05902,-1 z m -123.67619,-4.40146 c 0.31212,-0.81337 -0.21691,-1.59883 -1.26069,-1.87178 -2.08474,-0.54517 -3.44336,-6.82271 -1.71461,-7.92239 0.60146,-0.38259 0.8816,-0.83739 0.62253,-1.01065 -0.25907,-0.17327 -1.39928,-1.09123 -2.5338,-2.03992 -2.05331,-1.71697 -2.06081,-1.69628 -1.63558,4.51066 0.41991,6.1294 2.178,9.73554 4.74634,9.73554 0.68091,0 1.48003,-0.63066 1.77581,-1.40146 z M 183.15789,365 c 0,-1.375 0.22698,-1.9375 0.50439,-1.25 0.27741,0.6875 0.27741,1.8125 0,2.5 -0.27741,0.6875 -0.50439,0.125 -0.50439,-1.25 z m 127.85105,0.37975 c 4.55678,-1.82326 6.54203,-4.42878 4.74426,-6.22655 -0.71627,-0.71627 -0.76168,-1.1532 -0.11987,-1.1532 0.56834,0 1.03334,-0.62545 1.03334,-1.38988 0,-1.10835 -0.62456,-1.18157 -3.08334,-0.36148 -5.36915,1.79081 -9.74555,7.06184 -8.08886,9.74241 0.79917,1.29309 0.73798,1.29987 5.51447,-0.6113 z M 180.68311,360.8125 c -0.31922,-0.79773 -0.55618,-0.56078 -0.60416,0.60417 -0.0434,1.05416 0.19292,1.64479 0.52522,1.3125 0.33229,-0.33229 0.36781,-1.1948 0.0789,-1.91667 z m 50.74474,0.86391 c 2.92699,-2.14026 2.77728,-16.63818 -0.23723,-22.97232 C 228.09277,332.19481 225.68828,330 221.65499,330 c -4.83251,0 -6.94238,2.82503 -7.46061,9.98947 -0.36371,5.02831 0.0204,6.8582 2.56371,12.21253 1.64535,3.4639 3.9654,7.3105 5.15568,8.548 2.42692,2.5232 6.75411,2.94455 9.51408,0.92641 z M 291,358.5 c 0,-1.375 -0.17254,-2.5 -0.38342,-2.5 -0.21089,0 -0.59848,1.125 -0.86133,2.5 -0.26285,1.375 -0.0903,2.5 0.38342,2.5 C 290.6124,361 291,359.875 291,358.5 Z m 29,-3.5 c 0,-0.55 -0.47656,-1 -1.05902,-1 -0.58246,0 -0.7809,0.45 -0.44098,1 0.33992,0.55 0.81648,1 1.05902,1 0.24254,0 0.44098,-0.45 0.44098,-1 z m 14.56231,-2.33772 c 0.87537,0.33592 1.43769,-0.0646 1.43769,-1.02391 0,-0.98969 -0.5578,-1.36155 -1.5,-1 -1.68079,0.64498 -2.13859,-2.56649 -0.59706,-4.18837 0.49661,-0.5225 1.11352,-1.625 1.37091,-2.45 0.25739,-0.825 0.32017,-0.30175 0.13951,1.16278 -0.18066,1.46453 0.26449,3.1549 0.98923,3.75638 1.0569,0.87714 1.26216,0.35012 1.03705,-2.66278 -0.15436,-2.06601 -0.58957,-4.54388 -0.96713,-5.50638 -0.40255,-1.02618 -0.22862,-1.75 0.4205,-1.75 2.14103,0 1.06653,-2.83119 -2.89301,-7.62279 -5.58509,-6.75872 -4.99076,-7.76954 1.08164,-1.83962 5.33472,5.20954 10.6488,12.56624 13.33627,18.46241 l 1.59529,3.5 -0.51797,-4.24719 c -0.91976,-7.54176 -4.89497,-14.72222 -12.17391,-21.98988 -3.75173,-3.74591 -8.46433,-7.58748 -10.47245,-8.53684 C 323.01158,314.91199 317,314.38843 317,315.86833 c 0,0.47758 -1.80337,1.11021 -4.00749,1.40585 -5.99384,0.80394 -11.23922,3.91707 -13.4686,7.9936 -1.08685,1.98735 -1.73729,3.85217 -1.44543,4.14403 0.29186,0.29186 2.46925,-0.42848 4.83864,-1.60077 3.83566,-1.89773 4.70679,-1.99161 7.94543,-0.85624 6.9881,2.44981 10.3261,7.15799 18.11103,25.5452 1.16848,2.75983 1.33484,2.83989 2.07801,1 0.74185,-1.83664 0.8247,-1.7958 1.01431,0.5 0.19027,2.3039 0.23989,2.32784 0.63259,0.30529 0.27432,-1.41289 0.93826,-1.99818 1.86382,-1.64301 z m -43.43706,-1.01137 c -0.63787,-0.76858 -0.85052,-2.20327 -0.47256,-3.18821 0.47181,-1.22953 0.32051,-1.56417 -0.48275,-1.06773 -1.52934,0.94519 -1.49134,3.34055 0.0801,5.04638 1.61624,1.7545 2.39996,1.04672 0.87525,-0.79044 z m 8.4973,-2.10967 c 1.12618,-2.93478 -3.40686,-12.09027 -5.13197,-10.36515 -0.2536,0.2536 0.0752,3.01772 0.7306,6.1425 1.15864,5.52384 3.16383,7.44762 4.40137,4.22265 z m 11.58827,-5.96118 c -0.2964,-0.50597 0.21522,-0.63055 1.13693,-0.27686 1.53605,0.58944 1.55099,0.40167 0.17913,-2.25122 C 310.7171,337.55226 305.96634,334 303.09563,334 c -2.84881,0 -2.63523,1.10884 0.85823,4.4558 1.62463,1.55649 3.7199,4.44428 4.65616,6.4173 1.50133,3.1638 1.78715,3.35354 2.42101,1.60711 0.39529,-1.08911 0.4762,-2.39418 0.17979,-2.90015 z M 286,340.44098 c 0,-0.85746 -0.45,-1.2809 -1,-0.94098 -0.55,0.33992 -1,1.04148 -1,1.55902 0,0.51754 0.45,0.94098 1,0.94098 0.55,0 1,-0.70156 1,-1.55902 z m 3,-0.36955 c 0,-1.06072 -0.675,-2.60357 -1.5,-3.42857 -0.825,-0.825 -1.54486,-2.54465 -1.59968,-3.82143 -0.0985,-2.29293 -0.10868,-2.29073 -0.83227,0.17857 -0.90044,3.07277 -0.30726,5 1.53894,5 0.76615,0 1.39301,0.9 1.39301,2 0,1.1 0.225,2 0.5,2 0.275,0 0.5,-0.86786 0.5,-1.92857 z m -167.96924,-0.0578 c 2.37379,-0.0212 4.2554,-5.89402 3.99607,-12.47244 -0.20923,-5.30757 -0.0638,-5.81681 1.33041,-4.65969 0.86092,0.7145 1.83075,2.13543 2.15519,3.15763 0.32443,1.0222 1.43625,2.12717 2.47071,2.4555 1.27868,0.40584 1.82258,1.42776 1.69885,3.19194 -0.2234,3.18548 2.23477,4.34773 3.00071,1.41877 0.30281,-1.15795 0.9784,-2.10536 1.50132,-2.10536 0.52292,0 0.66511,-0.9 0.31598,-2 -0.45047,-1.41932 -0.1797,-2 0.93261,-2 0.86207,0 1.56739,0.43588 1.56739,0.96862 0,0.53273 0.68073,0.70739 1.51273,0.38812 0.83201,-0.31927 2.16041,-0.043 2.95202,0.614 2.14399,1.77936 5.15428,0.36321 6.58859,-3.09952 l 1.26843,-3.06226 1.19997,2.84552 c 0.65999,1.56504 1.00854,3.18705 0.77457,3.60447 -0.80817,1.44183 0.77588,4.52666 2.56463,4.99443 1.472,0.38494 2.09537,-0.65906 3.46688,-5.80616 0.9197,-3.45152 1.67218,-6.75156 1.67218,-7.33342 0,-0.58186 -2.53978,-1.79626 -5.64396,-2.69867 -5.13709,-1.4934 -13.77332,-5.65015 -18.85604,-9.07572 -1.1,-0.74136 -4.79279,-4.11069 -8.20619,-7.48739 -6.15767,-6.09144 -6.22598,-6.12648 -8.73714,-4.48111 -1.39202,0.91209 -3.49718,3.56426 -4.67814,5.89371 -1.18096,2.32946 -2.48665,4.46038 -2.90154,4.73538 -1.38375,0.91719 -2.96606,8.43419 -2.94697,14 0.0379,11.04387 3.45355,19.64271 7.38341,18.58755 1.14761,-0.30813 2.77541,-0.56639 3.61733,-0.5739 z m 159.31432,-0.55678 c -0.32569,-0.84872 -0.80663,-1.32866 -1.06875,-1.06653 -0.26213,0.26213 -0.17998,0.95654 0.18255,1.54313 0.98605,1.59546 1.56238,1.28551 0.8862,-0.4766 z M 193.5,337.88218 c 3.3,-0.5673 6.95221,-1.80868 8.11601,-2.75861 1.89339,-1.54545 2.0512,-2.40556 1.5,-8.17537 L 202.5,320.5 l -5.1383,0.33368 c -2.82607,0.18352 -8.90107,1.33118 -13.5,2.55036 l -8.3617,2.21669 0.12507,5.03194 c 0.0688,2.76757 0.6596,6.03073 1.31292,7.25147 1.28922,2.40892 2.53878,2.40878 16.56201,-0.002 z M 169.5,338 c -0.33992,-0.55 -1.15398,-0.99311 -1.80902,-0.98469 -0.71561,0.009 -0.59227,0.40223 0.30902,0.98469 1.92112,1.24153 2.2673,1.24153 1.5,0 z m -67.39788,-3.28533 c 3.33821,-2.2452 3.40892,-2.44278 4.0266,-11.25 0.68881,-9.8213 1.91448,-15.93048 4.37997,-21.83122 0.88466,-2.11729 1.46961,-3.96644 1.29989,-4.10921 -0.16972,-0.14278 -3.45443,-0.50102 -7.29935,-0.79609 l -6.990773,-0.5365 2.34866,1.90183 C 103.74311,301.23207 102.00069,303 95.031385,303 91.714123,303 89,303.23394 89,303.51987 c 0,0.28593 1.141212,2.32767 2.536027,4.5372 1.394815,2.20953 2.301925,4.39611 2.0158,4.85907 -0.286125,0.46296 -2.493695,0.61931 -4.905711,0.34744 -8.113893,-0.91455 -6.858931,2.95268 3.013385,9.2859 l 5.159501,3.30989 -0.952189,4.23788 c -1.630947,7.25882 0.243825,8.64714 6.235307,4.61742 z M 283.96456,331.25 283.92913,328.5 282.5,331 c -1.38069,2.41527 -1.43033,2.42574 -1.46456,0.30902 -0.0195,-1.20504 -0.56191,-2.51636 -1.20538,-2.91405 -0.79765,-0.49297 -0.95675,-0.16751 -0.5,1.02277 0.36847,0.96021 0.66994,2.38403 0.66994,3.16405 0,0.78001 0.9,1.41821 2,1.41821 1.52374,0 1.99156,-0.65485 1.96456,-2.75 z m -0.45038,-5.06915 C 282.61951,325.28617 280,325.09309 280,325.92182 c 0,1.33902 1.16695,1.95135 2.64089,1.38574 0.79495,-0.30505 1.18793,-0.81207 0.87329,-1.12671 z M 278.9682,321.25 C 278.98569,320.0125 278.55,319 278,319 c -0.55,0 -1,0.45 -1,1 0,0.55 -0.46583,1 -1.03518,1 -0.70619,0 -0.71287,-0.60226 -0.021,-1.89499 0.77006,-1.43886 0.6131,-2.22116 -0.65204,-3.25 -1.44837,-1.17785 -1.58208,-1.13039 -1.02266,0.36296 0.35395,0.94489 0.23286,1.9718 -0.2691,2.28203 -0.50196,0.31023 -0.72066,1.11214 -0.486,1.78203 2.54172,7.25584 2.45259,7.14144 3.98572,5.11599 0.79017,-1.04391 1.45098,-2.91052 1.46848,-4.14802 z m -6.17436,-5 c -0.30301,-1.80459 -4.65402,-6.24661 -6.12076,-6.24878 -0.45481,-6.7e-4 0.55769,1.3834 2.25,3.0757 1.6923,1.69231 3.07692,3.49231 3.07692,4 0,0.5077 0.24473,0.92308 0.54384,0.92308 0.29911,0 0.41161,-0.7875 0.25,-1.75 z m -84.83325,-4.46101 c 12.19188,-5.8022 19.70383,-11.39775 33.70278,-25.10471 5.03985,-4.93473 8.96036,-9.50124 8.71226,-10.1478 -0.27887,-0.72671 1.4978,-1.62542 4.65319,-2.35377 6.21295,-1.43412 13.10152,-6.009 16.43531,-10.91511 3.41298,-5.02266 5.14092,-13.0932 3.69274,-17.24745 -3.0435,-8.73058 -11.76833,-19.19602 -15.24532,-18.28677 -2.27451,0.5948 -9.74529,8.64949 -11.91155,12.84256 -5.49049,10.62753 -9.32647,16.06833 -13.12968,18.62259 -9.26231,6.22065 -15.5854,1.70765 -9.93799,-7.09308 4.91789,-7.66386 6.26427,-11.91717 6.23378,-19.69288 -0.0448,-11.42794 -4.5651,-25.09373 -8.54497,-25.83333 -1.16663,-0.2168 -4.51797,-0.88582 -7.44743,-1.48671 -7.25426,-1.48799 -7.20588,-1.50337 -6.49261,2.06296 0.76999,3.84994 -0.87319,3.20919 -2.62675,-1.02428 -0.91647,-2.21256 -2.56851,-3.43253 -6.88021,-5.08079 -3.12078,-1.193 -9.25461,-4.2331 -13.63073,-6.75579 -7.27781,-4.19541 -8.04561,-4.43616 -9,-2.8221 -0.57388,0.97053 -1.86331,2.72375 -2.86542,3.89603 -1.81441,2.12256 -1.82001,2.11686 -1.34378,-1.36856 0.26302,-1.925 0.63292,-4.175 0.822,-5 0.40476,-1.76602 -11.68399,-8.11844 -13.86027,-7.28332 -0.79486,0.30501 -1.25466,-0.0217 -1.08683,-0.77225 0.18694,-0.83605 -1.31718,-1.58484 -4.20911,-2.09541 -2.475,-0.43696 -5.59108,-1.06005 -6.92463,-1.38463 -2.1032,-0.51192 -2.25389,-0.38442 -1.1367,0.96172 0.70837,0.85353 1.68696,1.30527 2.17464,1.00386 0.48768,-0.3014 0.88692,0.26605 0.88719,1.26101 2.8e-4,0.99496 0.9196,4.2272 2.04294,7.18275 2.30309,6.05953 1.99517,7.71626 -0.64363,3.46303 -2.9309,-4.72402 -7.68259,-9.33676 -9.618,-9.33676 -2.22869,0 -7.03608,7.30669 -9.47109,14.395 -2.70763,7.8819 -2.93669,2.14483 -0.25378,-6.35603 1.20797,-3.82748 2.02683,-7.3038 1.81969,-7.72517 C 112.39127,181.3265 106,181.08598 106,182.05502 c 0,0.40319 -0.48605,5.39325 -1.08012,11.08903 -0.59406,5.69577 -0.78095,14.04107 -0.4153,18.5451 l 0.66482,8.18915 3.1653,0.68679 c 1.74092,0.37774 6.3153,1.75198 10.1653,3.05388 3.85,1.3019 7.07171,2.37022 7.15936,2.37406 0.0876,0.004 0.14105,-2.94969 0.11867,-6.56338 C 125.73393,212.3083 127.34333,208 130.04766,208 c 2.99737,0 4.3035,5.27006 3.59395,14.50109 l -0.64524,8.39436 3.62162,2.76234 c 5.00202,3.81523 2.5267,4.13524 -4.38908,0.56743 -7.84139,-4.04534 -22.60114,-8.91362 -29.08873,-9.59449 -10.198555,-1.07034 -20.353222,2.43107 -26.129204,9.00955 -5.494438,6.25782 -7.439455,11.74675 -7.391702,20.85972 0.0751,14.33167 4.644774,24.17456 14.144661,30.46703 7.526552,4.98538 13.835243,6.3507 26.652875,5.76817 16.92069,-0.76899 32.19482,-6.70177 42.40462,-16.47082 1.56252,-1.49507 3.17857,-1.6537 3.17857,-0.312 0,1.47397 -9.69103,10.81478 -11.97104,11.53843 C 142.91303,285.84499 142,286.55445 142,287.06739 142,287.58032 141.56834,288 141.04076,288 139.56759,288 131,293.3776 131,294.30226 c 0,1.85252 7.84462,10.04064 12.5,13.04734 13.86451,8.95447 31.31253,10.69666 44.46059,4.43939 z m 40.35726,-51.82491 c 0.77403,-6.53551 5.13394,-14.46215 9.40734,-17.10326 1.85901,-1.14892 3.68185,-1.78711 4.05077,-1.41819 0.69145,0.69145 0.23986,1.51018 -5.88238,10.66472 -1.98353,2.96596 -4.21143,7.08015 -4.95089,9.14265 -1.92467,5.36829 -3.33132,4.67917 -2.62484,-1.28592 z m -69.91286,-27.06907 c -2.66388,-2.94355 -2.75258,-17.18938 -0.13194,-21.18899 0.97518,-1.48831 2.38309,-2.70602 3.12868,-2.70602 3.9208,0 5.5803,16.56003 2.27981,22.75 -2.0349,3.81639 -2.72372,3.96586 -5.27655,1.14501 z M 264.66667,310.5 c 0,-0.825 -0.6551,-1.5 -1.45578,-1.5 -1.18064,0 -1.2205,0.28349 -0.21089,1.5 0.68469,0.825 1.33979,1.5 1.45578,1.5 0.11599,0 0.21089,-0.675 0.21089,-1.5 z M 260,308.60699 c 0,-0.21616 -0.69837,-0.661 -1.55194,-0.98855 -0.88992,-0.34149 -1.29132,-0.17385 -0.94098,0.39301 0.58726,0.95021 2.49292,1.40545 2.49292,0.59554 z M 229,293.5 c 0,-1.62947 1.55251,-2.03307 2.42017,-0.62916 2.07872,3.36343 12.83841,1.04054 14.13735,-3.05208 0.47581,-1.49913 1.20821,-1.84339 2.97719,-1.3994 1.69618,0.42571 2.75936,-0.001 3.83775,-1.54073 1.08109,-1.54348 2.14016,-1.96679 3.84817,-1.5381 1.29611,0.3253 3.55367,-0.0296 5.01678,-0.78868 2.26903,-1.17718 2.83145,-1.1738 3.82471,0.023 2.02357,2.43825 3.20752,0.40907 2.55196,-4.37379 -0.64043,-4.67243 1.06238,-8.20106 3.95757,-8.20106 0.69393,0 1.451,-0.5625 1.6824,-1.25 0.33346,-0.99077 0.74534,-0.98211 1.98608,0.0417 1.17526,0.96981 1.66383,0.99638 1.96042,0.1066 0.29648,-0.88942 1.00692,-0.85021 2.84725,0.15717 2.99426,1.63903 9.517,2.10929 7.98327,0.57556 -1.74704,-1.74704 -1.16853,-2.51466 2.39966,-3.18405 1.8869,-0.35399 3.71111,-1.37427 4.0538,-2.26729 0.53902,-1.40468 0.74862,-1.42514 1.55395,-0.1517 0.7849,1.24112 0.9333,1.20244 0.94621,-0.24665 0.009,-0.99987 0.56144,-1.50904 1.3212,-1.21749 1.92415,0.73836 1.42751,-7.26031 -0.7065,-11.37853 C 295.61757,249.36083 286.88349,240 285.29685,240 c -1.80218,0 -10.53517,6.33937 -12.58436,9.13512 -1.92915,2.63198 -1.92834,2.64041 0.67803,7.08786 1.43521,2.449 2.60948,5.29203 2.60948,6.31783 0,1.48822 -0.7874,1.09621 -3.89675,-1.93999 -3.38201,-3.30244 -4.30805,-3.71475 -7.01029,-3.12124 C 261.13297,258.34934 259,260.48193 259,263.57143 259,265.19916 258.43425,266 257.28435,266 c -0.94361,0 -3.75611,1.98371 -6.25,4.40825 -2.84866,2.76944 -6.39315,5.00923 -9.53435,6.02482 -3.87922,1.25419 -6.40097,3.11851 -11.25,8.31707 -3.4375,3.68528 -6.21447,7.38661 -6.17105,8.22518 0.0532,1.02782 0.24331,1.11733 0.58333,0.27468 0.70258,-1.74117 2.33772,-1.56631 2.33772,0.25 0,0.825 0.45,1.5 1,1.5 0.55,0 1,-0.675 1,-1.5 z m 73.36163,-11 c 0.31658,-0.825 0.13972,-1.5 -0.39301,-1.5 -0.53274,0 -0.96862,0.42413 -0.96862,0.9425 0,0.51838 -1.9125,1.11476 -4.25,1.32529 l -4.25,0.3828 4.64301,0.1747 c 3.32368,0.12507 4.80657,-0.25152 5.21862,-1.32529 z M 300,281 c 0,-0.55 -0.45,-1 -1,-1 -0.55,0 -1,0.45 -1,1 0,0.55 0.45,1 1,1 0.55,0 1,-0.45 1,-1 z m 2.98469,-2.75 c -0.0241,-2.75116 -1.48984,-4.37712 -3.31464,-3.67688 -0.91853,0.35247 -1.67005,1.29427 -1.67005,2.09289 0,0.79861 0.40285,1.20305 0.89522,0.89875 0.49236,-0.3043 1.15324,0.11914 1.46861,0.94098 0.79117,2.06176 2.63956,1.88139 2.62086,-0.25574 z m 17.50254,-1.22933 c 0.80051,-1.29525 -1.20979,-5.11376 -3.76036,-7.14271 -2.93157,-2.33203 -1.61627,-4.42101 3.95182,-6.2764 6.27265,-2.09015 10.90776,-4.96032 12.34378,-7.64355 1.12921,-2.10994 1.03169,-2.14292 -5.36338,-1.81405 -7.58699,0.39017 -9.27908,-0.45421 -4.24173,-2.11669 C 327.29634,250.7471 331,246.78274 331,243.9109 c 0,-1.47421 -0.62139,-1.73982 -3.27541,-1.40002 -1.80147,0.23065 -5.23305,1.11005 -7.62572,1.95424 -2.39268,0.84418 -4.74375,1.53488 -5.2246,1.53488 -1.95254,0 -0.66851,-1.96405 2.60784,-3.98894 4.23842,-2.61949 7.91058,-7.54535 7.13387,-9.56942 -0.50383,-1.31296 -0.9838,-1.3148 -4.09298,-0.0157 -1.93722,0.80942 -5.09739,2.67312 -7.02261,4.14156 -4.06956,3.10401 -4.2638,2.64095 -1.38592,-3.30397 1.16296,-2.40235 1.8202,-4.6622 1.46053,-5.02187 -0.84968,-0.84967 -5.89629,1.8949 -12.12049,6.59168 -5.64248,4.25781 -6.58955,7.14016 -3.65172,11.11379 3.22916,4.36768 7.83192,14.12992 9.69039,20.55287 2.68849,9.29154 3.22914,10.31462 5.70032,10.78686 4.24193,0.81064 6.68328,0.72154 7.29373,-0.26619 z M 272,241.89301 c 0,-1.43762 -1.73512,-1.02567 -2.34208,0.55606 -0.37166,0.96852 -0.0755,1.26467 0.89301,0.89301 C 271.34792,243.03625 272,242.38417 272,241.89301 Z m -3.50879,-0.47921 c 1.33146,-0.8724 2.83711,-1.32892 3.34589,-1.01448 0.50878,0.31445 2.44107,-0.76458 4.29398,-2.39783 2.38748,-2.10445 2.88338,-2.9742 1.70225,-2.98552 -0.91666,-0.009 -1.86756,0.54653 -2.11309,1.23403 -0.24554,0.6875 -0.79716,0.92337 -1.22584,0.52417 -0.42867,-0.39921 -0.21018,-1.41171 0.48554,-2.25 1.59898,-1.92665 0.35856,-2.00553 -1.5485,-0.0985 -0.78413,0.78413 -1.15384,2.13413 -0.82158,3 0.46693,1.2168 -0.0771,1.5743 -2.39588,1.5743 -1.79823,0 -3.24033,0.62627 -3.59993,1.56338 -0.3358,0.8751 -1.11131,1.24733 -1.7615,0.84549 -0.72219,-0.44634 -0.89167,-0.28118 -0.44804,0.43662 0.92182,1.49154 1.19562,1.46262 4.0867,-0.43169 z m 16.66749,-7.62348 c 2.10871,-0.37917 2.54365,-0.14835 2.10251,1.1158 -0.407,1.16634 -0.0337,1.0574 1.39179,-0.40612 2.35341,-2.41626 3.65173,-5.5 2.31562,-5.5 C 290.43588,229 290,228.56412 290,228.03138 c 0,-0.53273 0.675,-0.70959 1.5,-0.39301 0.97378,0.37368 1.5,-0.0257 1.5,-1.13837 0,-1.11269 -0.52622,-1.51205 -1.5,-1.13837 -0.825,0.31658 -1.5,0.13972 -1.5,-0.39301 0,-0.53274 0.9,-0.96862 2,-0.96862 1.55937,0 2.03262,-0.71602 2.14806,-3.25 0.26028,-5.71338 0.33775,-6.22813 1.11825,-7.4309 0.42147,-0.6495 0.27251,-1.48609 -0.33103,-1.8591 -0.60353,-0.373 -0.83422,-1.72652 -0.51264,-3.00781 0.32159,-1.28129 0.13305,-2.60876 -0.41897,-2.94992 C 293.45165,205.1611 293,203.3547 293,201.48804 293,197.82779 291.20238,193 289.83948,193 289.37777,193 289,192.35953 289,191.57673 c 0,-1.69695 -4.50274,-7.24024 -6.94119,-8.54526 -1.23809,-0.6626 -1.72548,-0.54193 -1.72548,0.4272 0,0.81472 0.62826,1.11579 1.58334,0.75876 1.37754,-0.51496 1.40235,-0.36946 0.19083,1.11951 -0.76588,0.94126 -1.07891,2.02499 -0.69563,2.40827 0.38328,0.38328 1.11552,0.0349 1.62719,-0.77417 0.51167,-0.80907 0.93721,-0.99455 0.94563,-0.41217 0.008,0.58238 -0.57184,1.86184 -1.28946,2.84325 -1.07493,1.47006 -1.05716,3.73945 0.10085,12.88282 1.55354,12.26624 0.95146,16.46217 -2.96543,20.66646 -1.28843,1.38297 -2.37248,4.04253 -2.58732,6.3476 -0.32766,3.51565 -0.14929,3.90967 1.56669,3.46093 1.56973,-0.41049 1.83292,-0.1043 1.38979,1.61684 -0.44421,1.72536 -0.27991,1.91414 0.87678,1.00743 0.78287,-0.6137 2.61983,-1.33094 4.08211,-1.59388 z m -1.3462,-1.47343 c 0.72187,-0.28887 1.58438,-0.25335 1.91667,0.0789 0.33229,0.33229 -0.25834,0.56864 -1.3125,0.52522 -1.16495,-0.048 -1.4019,-0.28494 -0.60417,-0.60416 z m 7.90648,-15.00661 c -0.28279,-1.47934 -0.13878,-3.61684 0.32004,-4.75 0.62486,-1.54324 0.85011,-0.86824 0.89759,2.68972 0.0706,5.28772 -0.43661,6.14589 -1.21763,2.06028 z m -3.34469,-1.77729 c -0.30962,-0.80686 -0.36997,-2.04436 -0.1341,-2.75 0.23587,-0.70564 0.66592,-0.0455 0.95566,1.46701 0.56574,2.95322 0.099,3.68204 -0.82156,1.28299 z M 288.19495,205.5 c 0.0204,-1.65 0.2445,-2.20394 0.49804,-1.23097 0.25354,0.97297 0.23687,2.32297 -0.0371,3 -0.27393,0.67703 -0.48137,-0.11903 -0.46099,-1.76903 z m 2.08297,-3.16781 c 0.0569,-2.29229 -0.4875,-4.87979 -1.20971,-5.75 C 288.23748,195.58122 288.15452,195 288.84237,195 c 1.98566,0 2.95771,3.41283 2.13617,7.5 l -0.80402,4 z m -6.59719,-11.94257 c 0.66361,-1.72935 2.94097,-1.81805 3.58471,-0.13962 0.29042,0.75721 -0.42679,1.30504 -1.81927,1.38962 -1.58375,0.0962 -2.13284,-0.29258 -1.76544,-1.25 z m -105.8484,1.14174 c -0.61863,-1.35776 -1.50898,-2.2312 -1.97856,-1.94099 -0.46957,0.29022 -0.86066,-0.28639 -0.86908,-1.28135 C 174.9717,186.77521 174.8219,186.7282 174,188 c -0.84782,1.31191 -0.97129,1.3 -0.98469,-0.095 -0.0325,-3.3893 -6.98842,-6.78399 -10.02362,-4.89185 -2.4011,1.49685 -0.0927,3.98864 7.07962,7.64192 7.99629,4.07299 9.28377,4.21836 7.76102,0.8763 z m 8.54961,-1.37164 C 186.03437,188.42187 185.23358,187 184.6024,187 c -0.63117,0 -1.99579,-1.575 -3.03247,-3.5 -1.03668,-1.925 -2.26401,-3.5 -2.7274,-3.5 C 178.37914,180 178,179.325 178,178.5 c 0,-0.825 -0.36601,-1.5 -0.81335,-1.5 -0.44735,0 -1.43134,-1.575 -2.18665,-3.5 -0.75531,-1.925 -1.9268,-3.5 -2.60331,-3.5 -0.67651,0 -1.38002,-0.3375 -1.56336,-0.75 C 170.16015,167.73533 164.15174,164.22658 149.5,156.79189 114.40541,138.98395 92.711748,132.85026 64,132.61753 47.636468,132.48489 38.041341,134.12591 37.238921,137.19437 36.97922,138.18747 36.358084,139 35.858618,139 c -0.981121,0 -3.307367,4.95271 -2.985013,6.35526 0.108113,0.47039 -0.291072,1.44283 -0.887077,2.16097 -0.751211,0.90516 -0.761975,1.50452 -0.03509,1.95376 C 32.528149,149.82641 33,149.41648 33,148.55902 c 0,-2.28936 2.904315,-1.89875 4.984683,0.67039 1.745897,2.15609 1.741534,2.27405 -0.132666,3.58679 -1.540656,1.07912 -2.24158,1.10538 -3.419141,0.12809 -1.986858,-1.64894 -3.061076,-0.40615 -1.389679,1.60776 1.109859,1.3373 1.092188,1.74756 -0.107499,2.4957 -1.060417,0.66129 -1.164813,1.33008 -0.399384,2.55857 1.235306,1.98264 3.086779,1.86343 2.669849,-0.1719 -0.359394,-1.75445 0.236672,-1.79932 2.782446,-0.20946 1.547793,0.96661 2.219819,0.96661 3.186432,0 C 43.129115,157.27088 46,157.73204 46,160 c 0,2.36851 0.633554,2.5093 2.571429,0.57143 C 50.194583,158.94827 50.530997,152 48.986431,152 c -0.557463,0 -1.847853,0.52102 -2.867534,1.15782 -1.088365,0.6797 -2.631336,0.82825 -3.736431,0.35975 -1.58915,-0.67373 -1.368161,-0.91398 1.41828,-1.5419 1.81541,-0.40911 3.602378,-1.04546 3.97104,-1.41412 1.138226,-1.13823 -2.086683,-2.53014 -5.899341,-2.54624 -4.002759,-0.0169 -6.245366,-1.87992 -5.282709,-4.38856 0.627054,-1.63408 2.404373,-2.27878 2.41704,-0.87675 0.0062,0.69095 6.88982,1.46971 14.743224,1.66796 2.709773,0.0684 3.25,0.46792 3.25,2.40347 0,1.27678 0.675,2.99643 1.5,3.82143 1.333333,1.33333 1.674603,1.32539 3.071429,-0.0714 C 63.354445,148.78841 65,148.51415 65,150 c 0,0.55 0.458573,1 1.019052,1 0.560479,0 0.765412,-1.0125 0.455408,-2.25 -0.310004,-1.2375 0.0585,-3.09988 0.818892,-4.13862 1.262343,-1.72443 1.82718,-1.78195 6.497124,-0.66164 2.813024,0.67483 5.547515,0.9594 6.076646,0.63238 0.529132,-0.32702 1.112992,-0.15457 1.297468,0.38321 0.184475,0.53779 3.26041,1.40423 6.83541,1.92543 7.145269,1.0417 17.83345,5.17477 27.94984,10.80807 3.60259,2.0061 7.90016,4.40202 9.55016,5.32427 7.45573,4.16731 17.54987,10.61827 23.63821,15.10668 l 6.63822,4.89379 3.51178,-3.51178 c 2.80199,-2.80199 4.28995,-3.51103 7.36179,-3.50805 6.33283,0.006 13.79039,5.64412 16.48641,12.46385 1.33014,3.36467 2.95379,5.77554 3.51304,5.2163 0.20044,-0.20045 0.0801,-1.78632 -0.26751,-3.52417 z M 38.446149,156.91287 c -0.369536,-0.59793 -0.171094,-1.58793 0.440983,-2.2 C 39.704289,153.89571 40,154.18458 40,155.8 c 0,2.41451 -0.519459,2.78655 -1.553851,1.11287 z M 59,146.05902 C 59,144.92656 59.45,144 60,144 c 0.55,0 1,0.64844 1,1.44098 0,0.79254 -0.45,1.7191 -1,2.05902 -0.55,0.33992 -1,-0.30852 -1,-1.44098 z m 53,32.88196 c 0,-0.58246 0.40844,-0.80658 0.90765,-0.49806 0.4992,0.30853 1.9617,0.13861 3.25,-0.37759 2.2089,-0.88509 2.16185,-0.94217 -0.82586,-1.00194 -3.69603,-0.0739 -6.33179,0.77675 -6.33179,2.0436 0,0.49115 0.675,0.89301 1.5,0.89301 0.825,0 1.5,-0.47656 1.5,-1.05902 z m -65,-5.1313 c 0,-1.31439 -2.272781,-0.49134 -2.77106,1.0035 -0.243583,0.73075 0.213586,0.95424 1.1875,0.58051 C 46.287398,175.05947 47,174.34667 47,173.80968 Z m -3.159882,-1.98101 c 1.107552,-1.45275 1.005159,-1.60097 -0.782967,-1.13336 C 41.88796,171.00106 41,170.75127 41,170.11663 c 0,-0.61415 1.2375,-1.16883 2.75,-1.23263 2.10779,-0.0889 2.282938,-0.23269 0.75,-0.61568 -1.1,-0.27483 -2.225,-0.79429 -2.5,-1.15436 -0.93029,-1.21807 -6,-3.07752 -6,-2.20066 0,0.6803 6.399378,9.2128 6.532968,8.71063 0.01813,-0.0682 0.60635,-0.87603 1.30715,-1.79526 z M 188,169.60699 c 0,-0.21616 -0.69837,-0.661 -1.55194,-0.98855 -0.88992,-0.34149 -1.29132,-0.17385 -0.94098,0.39301 0.58726,0.95021 2.49292,1.40545 2.49292,0.59554 z m -4.49668,-2.60161 c -0.33809,-0.54704 -1.60214,-1.51252 -2.80901,-2.14551 -2.17907,-1.1429 -2.18108,-1.13599 -0.28932,0.99462 1.90851,2.14948 4.25394,3.0207 3.09833,1.15089 z M 39,162 c 0,-0.55 -0.45,-1 -1,-1 -0.55,0 -1,0.45 -1,1 0,0.55 0.45,1 1,1 0.55,0 1,-0.45 1,-1 z m 136.05341,-1.10275 c -1.98413,-1.65132 -2.17863,-2.20183 -1.02896,-2.91236 0.7797,-0.48188 1.11459,-1.17918 0.74421,-1.54956 -0.37038,-0.37039 -1.4512,0.10435 -2.40181,1.05497 -1.63786,1.63785 -1.60106,1.82626 0.70238,3.59681 3.29601,2.53348 5.05424,2.36525 1.98418,-0.18986 z M 168.76561,149.75 c 7.76384,-12.30049 11.81203,-28.73774 10.99389,-44.63964 -0.92954,-18.067334 -7.87907,-29.290801 -22.92543,-37.024485 -8.26618,-4.248741 -8.39644,-4.278262 -15.99064,-3.62418 -26.02506,2.241513 -41.896656,21.57768 -41.819573,50.948265 0.02093,7.97691 1.040823,15.98806 2.180513,17.12775 0.45813,0.45812 11.69866,3.5598 13.75401,3.79524 1.0557,0.12092 1.52622,-1.07548 1.70405,-4.33295 0.13512,-2.475 0.76211,-14.625 1.39331,-27 0.6312,-12.375 1.32721,-22.795061 1.54668,-23.155691 0.54059,-0.888282 17.56485,-7.010375 18.0752,-6.500022 0.22279,0.222792 -0.48057,7.54897 -1.56303,16.280395 -1.08247,8.731428 -2.26647,19.812818 -2.63112,24.625318 -0.65891,8.69594 -0.64855,8.74999 1.67676,8.74918 3.2605,-0.001 16.75899,-2.88558 18.92257,-4.04349 1.72094,-0.92102 7.9172,-1.36381 7.9172,-0.56577 0,1.15323 -3.96387,19.37643 -4.53744,20.86008 -0.54116,1.39982 -2.00581,1.78018 -7.31955,1.9008 -3.65365,0.0829 -7.88051,0.0541 -9.39301,-0.064 -4.80447,-0.37522 -2.97522,1.31004 5.20052,4.79117 4.36343,1.8579 9.64711,4.43136 11.7415,5.71879 2.09439,1.28744 4.55514,2.35484 5.46834,2.372 0.96737,0.0182 3.30685,-2.57737 5.60525,-6.21879 z M 36.5,151 c -0.339919,-0.55 -1.041476,-1 -1.559017,-1 C 34.423442,150 34,150.45 34,151 c 0,0.55 0.701558,1 1.559017,1 0.857459,0 1.280902,-0.45 0.940983,-1 z m 160.49086,-1.48899 c 0.67967,-0.81894 1.63477,-1.24239 2.12245,-0.94098 0.48768,0.3014 0.88669,-0.60355 0.88669,-2.01101 0,-1.40746 0.39752,-2.55902 0.88337,-2.55902 0.48585,0 1.14611,-1.00474 1.46725,-2.23275 0.46274,-1.76955 0.83962,-1.97701 1.81663,-1 1.74961,1.74961 2.60158,1.53645 3.3557,-0.83957 0.39544,-1.24592 1.21988,-1.85661 2.06739,-1.53139 C 210.40887,138.71039 211,138.32138 211,137.46862 211,136.66088 210.55,136 210,136 c -2.1602,0 -0.84452,-3.10429 1.75,-4.12904 1.5125,-0.59739 3.51664,-1.47853 4.45364,-1.95808 1.03622,-0.53034 1.94892,-0.47506 2.32972,0.1411 0.35535,0.57497 1.4911,-0.0866 2.62644,-1.53 1.10019,-1.39867 2.41516,-2.28667 2.92215,-1.97333 1.26199,0.77995 3.52,-4.46492 3.8027,-8.83287 0.0634,-0.98023 1.12046,-2.15404 2.34893,-2.60848 l 2.23357,-0.82626 -2.13086,-0.6763 c -1.53184,-0.48619 -1.98223,-1.24467 -1.60215,-2.69808 0.31468,-1.20334 1.08772,-1.80726 1.90965,-1.49186 1.04492,0.40098 1.23659,-0.13275 0.78769,-2.19344 -0.45769,-2.10106 -0.34976,-2.3806 0.47232,-1.22336 0.91993,1.29498 1.06767,1.26081 1.08089,-0.25 0.008,-0.9625 -0.65969,-1.75 -1.48469,-1.75 -1.96526,0 -2.07741,-9.658423 -0.15517,-13.363542 0.92382,-1.78068 1.12138,-4.064477 0.63106,-7.295305 -0.58423,-3.849692 -0.4907,-4.398107 0.51542,-3.022151 2.63311,3.601 3.29205,1.02767 1.37516,-5.370356 -0.64525,-2.15364 -1.6356,-3.590732 -2.29907,-3.336138 C 229.90767,72.249406 226,64.830424 226,61.042417 c 0,-1.751901 -0.5625,-3.765469 -1.25,-4.474595 -0.6875,-0.709127 -2.59748,-2.926984 -4.2444,-4.928571 C 218.85868,49.637663 216.72118,48 215.7556,48 214.79002,48 214,47.413847 214,46.697438 c 0,-0.716409 -2.30843,-3.659995 -5.12985,-6.541301 -9.89376,-10.103758 -19.29303,-15.091474 -33.35285,-17.698662 -13.99249,-2.594705 -23.27542,-2.192417 -34.35574,1.48885 -11.25875,3.740546 -14.5436,5.383336 -23.74731,11.876278 -8.96749,6.3263 -19.705543,18.181466 -25.064578,27.672119 C 87.918436,71.342275 83.399571,81.905445 82.721166,86.00204 82.493649,87.375918 82.059481,89.175 81.756349,90 c -1.323315,3.601513 -2.732696,16.35567 -2.925015,26.46985 l -0.20859,10.96984 8.438628,1.73442 c 4.641245,0.95393 8.663628,1.75403 8.938628,1.77801 0.275,0.024 0.5,-6.36794 0.5,-14.20426 0,-12.40851 0.308796,-15.15153 2.391982,-21.24786 3.009378,-8.806768 7.758558,-16.065984 14.603728,-22.322082 9.33614,-8.53271 19.36726,-11.75834 32.90417,-10.580742 17.53187,1.525125 30.56703,12.889549 36.59302,31.902824 0.69726,2.2 1.67686,4.517506 2.17689,5.150013 0.50002,0.632507 1.36395,3.974147 1.91983,7.425867 1.34433,8.34748 -0.44615,22.82931 -4.16722,33.70561 -1.55832,4.55482 -2.3756,7.9986 -1.81617,7.65286 0.55942,-0.34575 1.44012,-1.74117 1.95711,-3.10094 l 0.93997,-2.47231 3.45016,3.65824 c 1.8976,2.01204 3.89076,3.38595 4.42925,3.05314 0.5385,-0.33281 1.26174,-0.14776 1.6072,0.41121 0.88056,1.42478 2.05814,1.26579 3.50094,-0.47268 z m 28.64862,-33.20486 C 224.5133,115.17996 224.95359,114 226.5,114 c 0.825,0 1.5,0.42344 1.5,0.94098 0,1.26098 -1.56159,2.1641 -2.36052,1.36517 z M 56,148.13867 c 0,-0.47373 -1.125,-0.64627 -2.5,-0.38342 -1.375,0.26285 -2.5,0.65044 -2.5,0.86133 0,0.21088 1.125,0.38342 2.5,0.38342 1.375,0 2.5,-0.3876 2.5,-0.86133 z"
       id="path1" />
  </g>
</svg>
