<?xml version="1.0" encoding="UTF-8" standalone="no"?>
<!-- Created with Inkscape (http://www.inkscape.org/) -->

<svg
   version="1.1"
   id="svg1"
   width="446"
   height="448"
   viewBox="0 0 446 448"
   sodipodi:docname="mario.svg"
   inkscape:version="1.4.2 (f4327f4, 2025-05-13)"
   xmlns:inkscape="http://www.inkscape.org/namespaces/inkscape"
   xmlns:sodipodi="http://sodipodi.sourceforge.net/DTD/sodipodi-0.dtd"
   xmlns="http://www.w3.org/2000/svg"
   xmlns:svg="http://www.w3.org/2000/svg">
  <defs
     id="defs1" />
  <sodipodi:namedview
     id="namedview1"
     pagecolor="#ffffff"
     bordercolor="#000000"
     borderopacity="0.25"
     inkscape:showpageshadow="2"
     inkscape:pageopacity="0.0"
     inkscape:pagecheckerboard="0"
     inkscape:deskcolor="#d1d1d1"
     inkscape:zoom="1.3191964"
     inkscape:cx="223.24196"
     inkscape:cy="224"
     inkscape:window-width="1536"
     inkscape:window-height="793"
     inkscape:window-x="-8"
     inkscape:window-y="1072"
     inkscape:window-maximized="1"
     inkscape:current-layer="g1" />
  <g
     inkscape:groupmode="layer"
     inkscape:label="Image"
     id="g1">
    <path
       style="fill:#000000"
       d="m 298.5,438.07123 c -16.22601,-4.62918 -22.80939,-12.03947 -25.52625,-28.73253 -0.6215,-3.81862 -1.80172,-6.51768 -3.89004,-8.89614 -3.25857,-3.71131 -5.52692,-10.13796 -6.59467,-18.68396 -1.01166,-8.09711 -0.97955,-8.07499 -9.91582,-6.83207 -29.96408,4.16762 -59.94701,-3.14993 -78.14069,-19.0708 C 171.38063,353.18508 168.27155,351 167.52346,351 c -0.74808,0 -3.7368,2.02867 -6.6416,4.50816 -6.34884,5.41927 -9.74072,6.47494 -20.88186,6.49916 -5.65372,0.0123 -10.63108,0.68649 -14.86416,2.01338 -12.68576,3.97646 -18.79311,-1.16029 -26.181499,-22.0207 -1.266203,-3.575 -4.297724,-9.19701 -6.736713,-12.49335 -5.993597,-8.10047 -9.710062,-15.72493 -12.708507,-26.07193 -4.937234,-17.03736 -2.381621,-28.34266 7.892706,-34.91507 3.046991,-1.94914 7.240576,-5.38405 9.319078,-7.63315 8.032315,-8.69158 20.604405,-12.83142 32.968725,-10.85621 10.12782,1.61793 15.68706,4.44799 21.29409,10.84024 l 4.90284,5.58946 2.89062,-2.13713 c 1.58984,-1.17542 4.60393,-2.6102 6.69798,-3.18839 4.30072,-1.18749 8.52484,-4.69167 8.52484,-7.07192 0,-0.87385 -3.18433,-5.18291 -7.07629,-9.57569 -6.96789,-7.86451 -19.72496,-26.16225 -23.69543,-33.98686 -1.11635,-2.2 -5.42031,-8.63009 -9.56436,-14.28909 -8.5647,-11.69575 -9.54774,-14.06337 -10.59084,-25.50771 -0.86151,-9.45204 -1.80854,-11.71484 -5.74565,-13.72841 -7.99223,-4.0875 -11.2369,-8.07776 -13.21385,-16.25025 -0.65165,-2.69385 -3.08285,-7.39398 -5.577472,-10.78269 C 85.632963,112.41417 81.781915,92.148682 88.674841,78.04861 93.560142,68.055308 106.4142,58.2039 116.77366,56.513544 c 2.3512,-0.383646 6.85701,-2.422427 10.01648,-4.53224 11.90243,-7.948138 22.37966,-7.63644 31.63761,0.941221 4.74749,4.39864 14.6334,11.396238 17.83673,12.625469 1.00467,0.38553 2.07216,-1.155829 3.63675,-5.251141 5.86392,-15.34876 14.04009,-25.034688 25.76338,-30.520678 11.46372,-5.364522 30.32831,-4.934903 45.40441,1.034032 20.82119,8.243528 39.42026,23.239951 52.76593,42.54514 7.1225,10.303053 15.39369,27.216353 19.1431,39.144653 4.80758,15.29473 5.27546,16.0897 11.24002,19.09763 7.65649,3.86116 12.61599,8.09161 16.22822,13.84263 7.57988,12.06791 7.44531,26.43378 -0.3565,38.05974 -3.68638,5.49332 -4.09157,6.78329 -5.18279,16.5 -1.7739,15.79572 -8.5005,24.73261 -24.64995,32.74961 -5.09138,2.52749 -9.25172,4.8553 -9.2452,5.17291 0.007,0.31762 3.92158,2.60248 8.70014,5.07748 4.77856,2.475 11.41073,6.25497 14.73815,8.39994 3.32742,2.14496 9.63833,5.00549 14.02424,6.35673 9.41754,2.90141 14.67663,7.37669 16.46251,14.00898 0.79372,2.94764 2.3398,5.16461 5.2051,7.46374 2.24181,1.79884 5.59492,5.55658 7.45137,8.35055 5.67491,8.54078 6.77411,12.62348 6.84391,25.42006 0.0593,10.87288 -0.10688,11.85446 -3.04763,18 -5.59728,11.69716 -13.70565,18.91392 -27.63964,24.60032 -6.4543,2.63397 -6.75,2.90237 -6.75,6.12682 0,1.8547 0.69175,4.70988 1.53722,6.34484 4.70566,9.09974 7.72489,32.62252 5.53413,43.11634 -1.8161,8.69917 -4.34146,11.67514 -14.26608,16.81168 -4.78211,2.475 -9.82143,5.32407 -11.19851,6.33127 -2.91843,2.13455 -16.44178,5.718 -20.98339,5.56023 -1.71785,-0.0597 -5.82337,-0.8788 -9.12337,-1.82027 z m 43.81785,-25.13078 c 2.78647,-5.27363 1.89681,-24.82999 -1.56676,-34.44045 -5.07716,-14.08773 -5.73237,-16.05156 -6.25578,-18.75 -0.29521,-1.52193 -1.19476,-2.75 -2.01436,-2.75 -2.04491,0 -1.90414,4.12132 0.51113,14.96445 3.05728,13.7254 5.00792,28.18103 5.00792,37.1123 0,8.96205 1.10266,9.94874 4.31785,3.8637 z M 123.39096,350.17644 c 0.27994,-0.45296 -0.99663,-2.94124 -2.83682,-5.52951 -1.8402,-2.58828 -4.36864,-7.28017 -5.61877,-10.42644 -1.25014,-3.14627 -4.45375,-10.11325 -7.11916,-15.48219 -6.45258,-12.99746 -10.400835,-23.10686 -11.945821,-30.58694 -1.227597,-5.94344 -3.005116,-7.84861 -4.2634,-4.56957 -2.804387,7.30811 4.89719,29.60733 13.857301,40.12255 1.77887,2.08761 3.81617,5.59566 4.52732,7.79566 4.43668,13.72517 10.89552,22.72771 13.39935,18.67644 z m 221.42112,-2.22867 3.31208,-1.1867 -1.96135,-2.13054 c -3.69153,-4.00994 -6.65214,-16.59204 -4.25305,-18.07476 0.50036,-0.30924 1.51286,-0.32628 2.25,-0.0379 2.09148,0.81832 8.79374,10.99962 9.47138,14.38781 l 0.6092,3.04597 4.37533,-3.14213 c 2.40644,-1.72817 5.10669,-3.95027 6.00057,-4.938 1.51063,-1.66922 1.4521,-2.00162 -0.8301,-4.71386 -2.64846,-3.14751 -6.28123,-14.42513 -5.3926,-16.74086 1.38968,-3.62143 5.75928,0.10006 10.37458,8.83581 2.35279,4.45332 3.45795,3.70655 5.29162,-3.57562 4.29211,-17.04548 -7.23298,-35.17467 -25.23958,-39.70238 C 343.31227,278.58969 343.13493,276 348.54797,276 c 5.63465,0 5.71499,-3.80098 0.13017,-6.15844 -4.46105,-1.8831 -19.85124,-1.48006 -26.17814,0.68556 -10.40851,3.56269 -20.5,12.49539 -20.5,18.146 0,2.95001 1.31472,3.59624 4.42929,2.17714 4.28378,-1.95182 4.1299,-0.14214 -0.44974,5.28904 C 299.58333,303.72484 298,307.41636 298,314.74356 c 0,7.4325 1.70207,12.09033 5.51368,15.08854 2.87173,2.2589 7.90607,2.82591 10.48632,1.18105 1.23022,-0.78424 1.27404,-1.27608 0.24364,-2.73468 -2.21621,-3.13718 -2.53428,-4.38783 -1.40355,-5.51856 3.08507,-3.08507 10.80154,6.14936 11.88433,14.22218 0.62306,4.64522 -1.56339,6.3786 -4.59041,3.63919 C 318.25439,338.92024 314,338.38806 314,339.85398 c 0,1.73735 5.12103,6.30087 9.24583,8.23927 3.41241,1.60361 5.63925,1.90442 11.25417,1.5202 3.85,-0.26344 8.49044,-1.013 10.31208,-1.66568 z M 223.68486,310.47083 C 226.78255,308.44115 230,301.86334 230,297.56007 c 0,-14.80254 -15.66467,-21.82594 -25.58505,-11.47129 -2.62929,2.74438 -2.91495,3.70152 -2.91495,9.76685 0,5.67506 0.39009,7.21048 2.5,9.84005 5.38809,6.71517 13.66114,8.72205 19.68486,4.77515 z m -55.32268,-18.35762 c 2.26285,-6.29278 3.26851,-15.60539 1.78427,-16.5227 -0.60781,-0.37565 -2.05674,-0.1737 -3.21985,0.44877 -4.35921,2.33298 -8.9873,18.04068 -6.91861,23.48174 l 1.06,2.78802 2.76727,-2.65121 c 1.522,-1.45817 3.55911,-4.85325 4.52692,-7.54462 z M 240,248.3974 c 11.0691,-3.48135 23.07699,-10.72955 32.2755,-19.48213 l 7.99421,-7.60667 4.55329,0.85065 c 2.50431,0.46785 6.15613,1.29591 8.11515,1.84012 C 299.79036,225.9029 316,224.41415 316,221.88129 316,221.39658 315.53178,221 314.95951,221 c -1.85506,0 -7.11682,-4.42755 -8.55698,-7.20034 -2.94275,-5.66577 -0.76486,-12.62175 5.67868,-18.13718 C 315.65304,192.60513 322.53935,190 327.04922,190 c 2.23366,0 0.65581,1.82927 -2.99971,3.47768 -5.59322,2.52219 -8.44085,5.34586 -7.06414,7.00469 0.8346,1.00564 0.2655,1.8175 -2.45086,3.4963 -6.62384,4.09376 -5.58025,10.69273 2.15836,13.64814 3.82015,1.45892 4.71642,1.49377 7.01896,0.27284 3.75644,-1.99186 10.05666,-12.173 10.8639,-17.55606 1.58133,-10.54508 -2.638,-21.20925 -10.43488,-26.37369 -11.97206,-7.92996 -23.06304,-5.75436 -31.94864,6.26702 C 284.59105,190.52057 276.76801,196 269.68711,196 c -3.86775,0 -6.11492,-2.02646 -7.83442,-7.06493 -0.64476,-1.88929 -2.22539,-4.7071 -3.51249,-6.2618 -2.65895,-3.21174 -3.14976,-9.18387 -0.99675,-12.12829 0.7389,-1.0105 3.7764,-3.26294 6.75,-5.00542 4.25538,-2.49357 6.205,-4.53749 9.15655,-9.59939 2.0625,-3.53719 3.75,-7.41338 3.75,-8.61376 0,-1.92041 -0.69049,-2.25487 -5.75,-2.78517 -11.86971,-1.24409 -16.95319,-2.70145 -28.07104,-8.04753 C 236.89529,133.47217 231.58442,131 231.37705,131 c -0.20738,0 -0.38239,3.2625 -0.38892,7.25 -0.0197,12.01292 -4.35761,24.23042 -9.42265,26.53821 -2.23615,1.01886 -2.88557,0.8917 -4.69695,-0.91968 -1.89779,-1.89779 -2.05588,-2.94074 -1.62726,-10.73527 0.56646,-10.30096 2.86263,-17.49222 6.95614,-21.78558 l 3.00558,-3.15232 -18.06333,-9.09768 C 197.20483,114.09396 188.31448,110 187.38333,110 183.2923,110 174,124.25959 174,130.53751 c 0,3.35156 2.04017,1.05767 4.11129,-4.62257 2.3573,-6.46513 5.48364,-9.49567 8.7322,-8.46461 2.88353,0.91519 4.5169,5.80127 3.7829,11.31624 -2.0334,15.27813 -2.05215,14.83121 0.82859,19.74682 1.49674,2.55399 2.46167,4.9033 2.14429,5.22068 -0.31738,0.31738 -2.96462,-1.681 -5.88275,-4.44085 -8.21316,-7.76766 -13.2032,-9.69697 -25.21652,-9.7495 -8.46401,-0.037 -10.63629,0.29658 -14.14255,2.17179 -12.50005,6.68524 -17.9357,24.39005 -11.4133,37.17501 8.51721,16.69511 37.48406,21.5432 55.33522,9.26128 2.90882,-2.00133 5.80735,-3.1518 7.94071,-3.1518 5.40891,0 14.5649,-2.77344 25.11789,-7.60845 5.82932,-2.67079 10.92266,-4.38194 12.5,-4.19948 3.65598,0.42291 6.15847,5.66664 6.16048,12.90871 0.003,9.74803 -3.38393,16.26452 -10.68121,20.55257 -4.67881,2.74937 -4.88341,3.32295 -5.83117,16.34665 -1.54177,21.18642 -6.90424,27.88702 -18.37034,22.95444 -5.17152,-2.22473 -13.15885,-9.76022 -15.27999,-14.4156 C 192.85582,229.38814 192.01555,229 188.33948,229 185.95277,229 184,229.38812 184,229.8625 c 0,1.74027 6.26849,8.68113 10.81936,11.97986 13.91151,10.08383 27.63154,12.07441 45.18064,6.55504 z M 133.05383,141.43587 c 6.19223,-6.40417 13.00497,-9.56048 21.96084,-10.17433 8.88554,-0.60903 10.70758,-1.77509 11.62703,-7.44101 0.5216,-3.21428 0.31674,-3.53035 -3.29274,-5.08 -2.11693,-0.90886 -7.00376,-2.71473 -10.85962,-4.01305 -3.85586,-1.29833 -9.93086,-4.26951 -13.5,-6.60263 -5.13504,-3.35675 -7.11543,-4.1295 -9.48934,-3.70278 -1.65,0.2966 -6.17003,0.83092 -10.0445,1.18739 -6.53275,0.60105 -7.25339,0.46846 -9.91988,-1.82516 l -2.87538,-2.4733 6.57169,-0.67329 c 3.61443,-0.37031 8.00513,-1.17299 9.75711,-1.783735 2.90703,-1.013394 3.13244,-1.39287 2.5792,-4.341917 -0.4344,-2.315558 0.10498,-4.759273 1.903,-8.621765 1.38007,-2.964661 2.51362,-6.837135 2.51899,-8.605497 0.015,-4.935306 4.57984,-9.410126 12.42459,-12.179555 C 146.03667,63.826619 149,62.455908 149,62.059217 c 0,-0.396692 -1.09991,-1.309914 -2.44426,-2.029383 -3.73318,-1.997941 -9.89112,-0.724281 -14.62483,3.024888 -2.6089,2.066286 -5.96504,3.588022 -9.21672,4.179035 C 107.92224,69.922278 98,80.147994 98,92.703827 c 0,14.059813 8.12106,29.687573 18.11218,34.854183 3.50582,1.81293 10.61465,2.31805 16.13782,1.14668 4.7084,-0.99858 4.99073,0.60235 0.51444,2.91712 -2.26141,1.16943 -5.44222,1.63124 -10.56479,1.53387 -7.15157,-0.13594 -7.31302,-0.085 -6.66032,2.1025 1.19459,4.00356 3.54571,6.87317 6.78615,8.28269 4.93725,2.14759 7.00968,1.74097 10.72835,-2.105 z M 237.86914,91.439237 c 1.10786,-1.40842 2.54005,-5.09332 3.18264,-8.188666 5.29645,-25.512857 -22.05779,-41.672708 -39.7249,-23.467965 -4.08215,4.206384 -7.33997,11.691759 -7.33183,16.846074 0.004,2.538697 0.57671,3.365511 3.03701,4.384602 3.57952,1.482682 4.53245,0.910034 3.06098,-1.839437 -0.89805,-1.678014 -0.17493,-3.330902 4.52173,-10.335647 3.07491,-4.586009 6.39442,-9.175625 7.37671,-10.199146 1.72886,-1.801436 1.84984,-1.689506 3.78315,3.5 1.09844,2.948521 2.64029,5.490416 3.42632,5.648654 0.78603,0.158238 3.14925,-1.079262 5.2516,-2.75 C 226.5549,63.366968 228.63281,62 229.07012,62 c 1.50458,0 1.95073,3.673821 2.07298,17.070042 0.0674,7.386477 0.31434,13.767458 0.54875,14.179958 0.91353,1.607617 4.26001,0.626653 6.17729,-1.810763 z M 224.25591,85.421924 C 224.82587,80.365236 224.26125,77 222.84288,77 c -0.50813,0 -2.25011,0.980534 -3.87107,2.178966 -3.27098,2.41834 -3.98242,2.104992 -5.5407,-2.440367 -0.5879,-1.714824 -1.55468,-3.279787 -2.1484,-3.477697 -1.2084,-0.402798 -4.71707,7.936026 -4.108,9.763216 0.35795,1.073863 12.84694,6.630405 15.44524,6.871823 0.61597,0.05723 1.35215,-1.956075 1.63596,-4.474017 z M 144.0399,77.593726 c 3.00306,-0.773451 8.9476,-1.726321 13.2101,-2.117488 C 162.98178,74.950235 165,74.391709 165,73.331486 165,71.40442 158.98149,69 154.15785,69 146.80831,69 137,73.958687 137,77.674314 c 0,1.651007 0.33142,1.647213 7.0399,-0.08059 z"
       id="path1" />
  </g>
</svg>
