<?xml version="1.0" standalone="no"?>
<!DOCTYPE svg PUBLIC "-//W3C//DTD SVG 20010904//EN"
 "http://www.w3.org/TR/2001/REC-SVG-20010904/DTD/svg10.dtd">
<svg version="1.0" xmlns="http://www.w3.org/2000/svg"
 width="355.047429pt" height="627.815234pt" viewBox="0 0 355.047429 627.815234"
 preserveAspectRatio="xMidYMid meet">
<metadata>
Created by potrace 1.16, written by Peter Selinger 2001-2019
</metadata>
<g transform="translate(-54.230614,644.000000) scale(0.100000,-0.100000)"
fill="#000000" stroke="none">
<path d="M2365 6430 c-3 -5 1 -10 9 -10 8 0 18 5 21 10 3 6 -1 10 -9 10 -8 0
-18 -4 -21 -10z"/>
<path d="M2401 6419 c-14 -5 -30 -8 -37 -5 -6 2 -17 -1 -24 -7 -10 -9 -11 -9
-6 1 4 7 1 12 -9 12 -8 0 -18 -7 -21 -15 -4 -8 -13 -15 -21 -15 -8 0 -27 -7
-43 -15 -40 -21 -38 -10 3 16 18 12 23 19 12 16 -44 -12 -95 -34 -112 -49 -10
-8 -36 -22 -59 -31 -22 -8 -65 -30 -95 -48 -30 -18 -62 -32 -71 -31 -9 0 -27
-15 -38 -34 -23 -36 -33 -44 -23 -18 4 12 2 15 -8 12 -23 -8 -36 -57 -19 -68
23 -15 29 -12 22 12 -3 14 -2 19 6 14 7 -4 15 -1 18 7 3 8 24 28 47 44 34 25
45 28 59 19 22 -14 89 19 81 40 -2 7 -2 18 2 23 9 15 44 -9 38 -26 -3 -8 3
-13 18 -14 17 -1 19 -3 7 -6 -10 -2 -18 -9 -18 -14 0 -6 -17 -17 -37 -26 -21
-8 -50 -24 -65 -34 -31 -23 -38 -24 -38 -5 0 8 -5 18 -11 21 -12 8 -61 -34
-53 -46 3 -5 0 -9 -5 -9 -17 0 -13 -56 5 -71 11 -9 20 -10 32 -3 11 8 26 5 54
-8 20 -10 71 -21 112 -25 46 -3 73 -10 69 -16 -3 -5 5 -18 17 -27 23 -18 22
-18 -46 -13 -38 3 -71 10 -72 15 -2 5 -10 4 -18 -3 -11 -9 -14 -9 -14 1 0 10
-3 10 -15 0 -10 -8 -15 -9 -15 -2 0 6 -7 9 -15 6 -8 -4 -15 -1 -15 6 0 6 -5 8
-12 3 -21 -13 -51 -3 -77 25 -15 16 -26 22 -28 15 -3 -7 -11 -9 -19 -6 -31 11
-11 -13 30 -38 86 -52 144 -59 476 -59 166 1 304 -1 307 -4 10 -10 -49 -78
-187 -216 -96 -95 -162 -153 -229 -195 -72 -46 -194 -132 -260 -182 -2 -2 -2
-6 2 -9 3 -4 37 16 74 44 37 27 100 69 138 92 105 63 190 136 369 312 l161
160 204 -1 c314 -1 553 -40 702 -116 59 -30 68 -42 62 -87 -8 -75 -53 -114
-193 -166 -97 -36 -225 -67 -320 -79 -75 -9 -89 -9 -84 -2 2 4 0 10 -5 13 -5
4 -12 2 -16 -4 -3 -5 -18 -10 -32 -10 -27 0 -83 -29 -83 -43 0 -4 -4 -6 -8 -3
-8 5 -198 -21 -211 -28 -4 -3 -60 -16 -126 -31 -66 -15 -167 -42 -224 -61 -87
-30 -108 -33 -134 -25 -38 14 -117 14 -117 1 0 -5 19 -10 43 -10 39 0 77 -13
67 -23 -3 -3 -28 -16 -55 -30 l-50 -25 -80 25 c-117 36 -128 41 -121 59 3 9 6
24 6 33 0 10 25 56 55 102 30 46 50 86 44 88 -32 10 -120 -134 -123 -200 -1
-35 -4 -39 -21 -34 -110 32 -301 31 -433 -4 -83 -22 -102 -21 -102 3 0 50 240
149 320 131 40 -9 39 10 -1 24 -44 15 -103 14 -144 -3 -18 -8 -67 -37 -109
-65 l-75 -51 -10 37 c-13 52 -17 106 -7 121 4 6 18 12 31 12 59 0 322 137 345
179 5 11 16 25 23 33 93 98 60 232 -66 266 -75 21 -265 -29 -339 -88 -34 -28
-51 -36 -80 -39 -9 -1 -88 -105 -88 -116 0 -4 9 0 20 10 11 10 20 16 20 14 0
-2 30 24 66 58 109 103 233 151 359 140 52 -5 64 -10 92 -41 28 -31 33 -43 33
-87 0 -55 -32 -120 -82 -166 -29 -27 -173 -99 -214 -108 l-31 -6 32 66 c34 69
48 126 38 151 -11 29 -25 8 -28 -42 -4 -50 -29 -130 -48 -149 -7 -7 -7 -3 -2
10 29 74 34 95 35 132 0 23 -5 45 -10 48 -8 5 -7 11 1 21 9 11 8 14 -3 14 -18
0 -91 -76 -114 -120 -16 -29 -19 -58 -19 -170 0 -86 5 -149 14 -173 10 -30 10
-41 0 -53 -16 -20 -3 -30 17 -13 14 11 16 11 13 1 -3 -8 -28 -26 -56 -42 -49
-28 -51 -28 -78 -10 -42 27 -78 77 -123 169 -46 93 -56 167 -27 208 10 14 12
24 5 28 -5 3 -10 19 -10 36 0 16 -5 29 -11 29 -8 0 -10 -15 -7 -45 4 -29 1
-51 -9 -64 -23 -33 -28 -113 -10 -164 20 -60 87 -149 142 -189 24 -18 44 -36
45 -40 0 -4 -20 -13 -45 -19 -30 -8 -57 -24 -84 -53 -112 -118 -163 -176 -165
-188 -1 -7 -11 -31 -23 -53 -55 -108 -47 -262 22 -407 23 -49 173 -213 230
-252 72 -49 361 -146 387 -130 4 3 8 1 8 -5 0 -18 74 -88 123 -116 42 -24 55
-27 99 -22 42 5 59 14 91 44 21 21 45 54 53 74 14 33 19 37 64 42 27 3 80 17
117 31 276 101 265 98 355 100 70 1 84 3 75 14 -17 21 -80 44 -109 39 -25 -3
-24 0 23 48 65 66 109 160 116 245 6 70 -8 157 -32 204 -9 16 -14 30 -13 31 2
2 22 6 45 10 l43 7 -1 -64 c-2 -111 7 -166 34 -201 62 -81 158 -115 254 -91
60 15 67 10 17 -12 -22 -9 -34 -18 -27 -21 6 -2 30 5 53 17 23 12 44 19 46 17
3 -3 -19 -16 -47 -31 -41 -20 -47 -26 -28 -26 13 0 41 11 61 25 l36 24 5 -22
c6 -22 3 -71 -8 -186 l-7 -63 -176 7 c-98 4 -220 11 -272 15 -52 4 -99 4 -103
0 -11 -10 122 -32 233 -39 l95 -6 -31 -17 c-49 -27 -58 -43 -44 -78 24 -57 32
-57 125 5 82 55 85 58 69 76 -17 18 -15 19 39 19 l57 0 0 -51 c0 -31 4 -48 10
-44 6 3 10 19 10 35 0 28 2 29 26 20 38 -15 90 -12 104 5 7 9 10 18 7 22 -4 3
-2 12 3 18 16 19 2 42 -28 48 -15 4 -40 17 -55 29 -28 23 -28 24 -20 90 7 45
6 78 -2 105 -11 36 -10 42 11 67 21 24 28 26 56 18 21 -6 57 -5 96 2 53 8 65
8 73 -4 16 -26 10 -66 -16 -101 -46 -63 -50 -75 -31 -104 19 -28 38 -32 56
-10 22 26 31 16 15 -15 -12 -23 -13 -30 -3 -30 17 0 58 106 58 148 0 37 -26
45 -33 10 -2 -13 -5 -4 -6 19 0 23 -5 53 -11 67 -9 25 -8 26 25 26 18 0 36 4
39 9 9 14 -24 22 -63 15 l-36 -7 25 20 c19 15 36 18 68 15 23 -2 42 -8 42 -12
0 -4 11 -10 25 -12 14 -3 25 -1 25 4 0 5 10 4 21 -3 12 -6 37 -8 55 -5 19 3
49 9 67 12 23 4 39 15 51 34 9 16 26 32 37 35 15 5 17 10 9 19 -7 10 3 22 42
50 68 47 124 122 141 188 12 45 12 59 0 95 -22 64 -62 88 -143 87 -82 -1 -145
-29 -207 -92 -50 -52 -113 -140 -113 -159 0 -7 -7 -10 -16 -6 -12 4 -15 14
-10 42 10 61 -33 194 -81 247 -30 34 -60 45 -118 43 -47 -2 -59 1 -83 23 -42
40 -87 58 -142 58 -41 0 -56 -5 -75 -24 -19 -20 -32 -24 -57 -20 -77 13 -208
-70 -208 -130 0 -19 -7 -25 -36 -31 -20 -3 -61 -18 -90 -33 l-54 -26 -54 53
c-51 51 -54 55 -49 95 3 22 11 46 17 52 50 52 420 149 684 179 112 13 210 34
397 85 69 19 205 69 245 91 54 30 108 76 115 100 3 10 15 21 26 24 24 8 25 25
2 26 -15 0 -15 2 2 9 29 11 49 37 35 45 -5 3 -10 2 -10 -4 0 -6 -17 -19 -37
-30 -21 -11 -31 -20 -24 -21 19 0 -47 -70 -66 -70 -7 0 -13 -7 -13 -16 0 -8
-4 -13 -9 -9 -5 3 -12 -3 -16 -14 -3 -10 -13 -21 -23 -24 -9 -3 -55 -21 -102
-40 -47 -19 -96 -38 -108 -42 -22 -6 -23 -5 -13 14 10 18 8 21 -21 29 -31 8
-29 9 55 39 82 28 87 29 67 8 -11 -11 -20 -25 -20 -29 0 -11 68 2 102 20 28
15 63 68 54 83 -3 5 3 16 14 26 11 10 23 36 26 57 4 21 10 38 15 38 12 0 11
-13 -1 -44 -6 -17 -6 -27 1 -32 15 -9 49 26 49 51 0 27 -24 50 -41 39 -8 -5
-10 -2 -6 8 6 16 -36 61 -47 51 -3 -4 -6 2 -6 11 0 13 -6 17 -20 13 -11 -3
-20 -1 -20 5 0 5 -3 7 -7 5 -5 -3 -19 0 -33 5 l-25 10 24 9 24 9 -24 26 -24
26 25 -7 c20 -6 81 -37 99 -51 2 -2 -2 -10 -8 -18 -10 -12 -6 -19 22 -40 19
-14 39 -26 45 -26 7 0 12 -7 12 -16 0 -23 17 -8 28 25 12 34 -2 66 -18 41 -8
-13 -10 -13 -10 2 0 26 -116 85 -221 114 -181 50 -300 65 -545 71 l-232 6 10
35 c11 39 2 54 -29 46 -14 -4 -23 -17 -28 -40 -3 -19 -12 -37 -18 -40 -7 -2
-152 -1 -322 4 -286 8 -314 10 -358 30 -65 29 -60 47 33 100 118 67 255 101
450 111 134 7 165 17 180 57 14 36 -3 61 -48 74 -46 12 -209 12 -241 -1z m233
-45 c25 -9 19 -24 -9 -24 -24 0 -32 10 -18 23 8 8 8 8 27 1z m-199 -364 c-18
-20 -18 -21 1 -34 16 -12 13 -13 -31 -8 -32 3 -63 15 -89 34 l-39 28 88 0 c88
0 88 0 70 -20z m260 -12 c-4 -18 -9 -34 -10 -36 -1 -2 -34 -2 -71 0 l-69 3 45
25 c39 22 73 35 103 39 5 0 5 -14 2 -31z m229 21 c85 -1 95 -2 66 -11 -44 -12
-46 -14 -31 -32 10 -12 -1 -13 -79 -10 -54 2 -90 -1 -90 -6 0 -6 -13 -10 -30
-10 -35 0 -36 7 -12 50 14 26 21 30 46 26 16 -4 74 -6 130 -7z m311 -8 c29 -7
29 -7 8 -15 -31 -10 -29 -32 5 -44 19 -6 2 -7 -58 -4 -93 5 -105 10 -113 47
-4 25 -3 25 62 24 36 -1 80 -4 96 -8z m270 -50 l70 -19 -50 -7 c-27 -4 -55
-12 -61 -17 -7 -5 -29 -5 -55 1 -24 6 -59 11 -76 11 -37 0 -46 20 -10 21 12 0
38 6 57 13 47 18 45 18 125 -3z m-2225 -135 c0 -2 -7 -7 -16 -10 -8 -3 -12 -2
-9 4 6 10 25 14 25 6z m1982 -367 c14 -11 36 -19 49 -19 12 0 19 -3 16 -7 -8
-7 -132 -32 -162 -32 -18 0 -19 0 -2 10 25 15 22 49 -5 50 -21 0 -22 1 -3 8
33 13 79 9 107 -10z m-252 -4 c-10 -12 -10 -15 3 -15 8 0 20 7 27 15 16 19 30
19 30 1 0 -7 -12 -21 -26 -31 -24 -15 -25 -17 -8 -30 17 -12 17 -13 -2 -18
-10 -3 -40 -8 -65 -12 -42 -5 -46 -4 -57 20 -6 14 -15 25 -19 25 -5 0 -42 -11
-83 -23 -56 -18 -75 -28 -74 -40 2 -17 -5 -19 -81 -20 -16 0 -32 -3 -35 -7 -3
-4 -38 -18 -77 -32 -67 -24 -72 -24 -62 -7 13 24 4 39 -24 40 -18 1 -16 3 8
10 66 20 162 37 187 32 17 -3 40 2 60 15 18 11 78 27 133 37 55 9 116 25 135
35 43 23 46 24 30 5z m-1325 -176 c86 -22 123 -88 70 -123 -34 -22 -65 -74
-65 -108 0 -41 17 -34 24 10 9 59 37 86 116 116 59 22 88 26 172 26 94 0 104
-2 154 -31 30 -17 61 -40 69 -52 31 -44 9 -133 -48 -198 -53 -60 -202 -117
-274 -106 -37 6 -46 -9 -9 -19 74 -18 238 49 312 128 54 57 74 102 66 143 -5
28 -4 29 12 16 12 -11 16 -23 12 -43 -6 -30 8 -39 18 -11 5 13 17 5 60 -40 55
-59 66 -66 66 -44 0 20 110 59 180 64 l65 4 18 -36 c9 -20 17 -42 17 -50 0 -8
7 -15 16 -15 10 0 14 6 11 14 -3 8 -11 34 -17 58 -14 53 -36 88 -54 88 -8 0
-16 -8 -18 -17 -2 -12 -6 -14 -10 -7 -4 6 6 32 23 57 36 54 93 82 149 72 67
-13 200 -184 200 -258 l0 -24 -52 13 c-95 25 -210 11 -258 -30 -8 -7 -45 -16
-83 -20 -37 -4 -79 -11 -94 -17 -18 -7 -30 -6 -37 1 -28 28 -31 6 -10 -59 12
-38 26 -91 29 -117 l7 -49 -32 38 c-17 20 -39 37 -49 37 -9 0 -32 -15 -49 -33
l-32 -33 24 -23 c21 -20 44 -63 60 -115 5 -14 12 -17 31 -12 29 7 28 8 14 -32
-9 -27 -14 -30 -42 -25 -39 6 -87 -27 -87 -60 0 -45 -22 -93 -56 -121 -41 -34
-243 -114 -326 -130 -56 -10 -40 14 39 60 35 21 59 40 53 42 -7 3 -25 -5 -41
-17 -38 -29 -51 -27 -15 2 18 15 25 26 19 30 -16 10 -100 -87 -133 -153 -34
-66 -78 -101 -136 -108 -74 -8 -146 36 -197 118 -12 19 -27 41 -34 48 -7 7
-13 18 -13 23 0 5 -7 9 -16 9 -13 0 -12 -5 5 -29 12 -16 21 -31 21 -34 0 -14
-262 73 -343 115 -47 23 -197 164 -197 184 0 8 10 32 21 54 l22 41 -34 29
c-33 29 -34 29 -50 10 -16 -19 -17 -18 -33 19 -20 50 -30 131 -22 173 5 27 16
40 61 66 58 35 63 45 43 87 -8 18 -18 25 -30 22 -10 -3 -18 -2 -18 2 0 13 60
65 67 58 3 -4 8 -27 10 -52 6 -96 114 -242 223 -300 19 -11 58 -33 85 -51 28
-17 72 -38 99 -47 89 -30 219 -18 295 27 43 25 24 34 -21 10 -44 -23 -232 -27
-301 -6 -27 8 -46 16 -43 19 2 3 22 -1 43 -8 90 -30 316 -2 412 51 42 24 81
83 81 122 0 39 -54 115 -98 137 -37 19 -82 19 -82 0 0 -5 -9 -9 -21 -9 -11 0
-18 -4 -15 -9 7 -10 -66 -42 -74 -32 -3 3 -21 8 -40 9 -19 2 -42 9 -50 16 -8
7 -36 23 -62 37 -27 13 -48 27 -48 31 0 5 -7 8 -16 8 -8 0 -12 5 -9 10 3 6 1
10 -5 10 -7 0 -10 5 -8 12 4 11 30 18 70 19 10 0 21 5 24 11 5 7 2 8 -7 3 -8
-5 -11 -5 -7 0 4 4 2 15 -4 24 -7 9 0 5 15 -8 15 -14 30 -21 34 -17 5 4 -2 16
-14 26 -12 9 -19 20 -16 24 3 3 17 -7 29 -22 16 -18 24 -22 24 -12 0 25 -26
55 -80 95 -59 43 -64 69 -24 127 28 40 58 53 159 68 28 4 54 8 58 9 5 0 28 -4
52 -10z m123 5 c16 -5 20 -10 12 -19 -6 -8 -6 -17 3 -28 10 -14 22 -15 92 -6
63 8 90 7 125 -4 l45 -14 -75 5 c-50 3 -96 -1 -139 -12 -76 -19 -71 -19 -71 0
0 9 -15 31 -34 50 l-34 34 27 0 c14 0 36 -3 49 -6z m540 -6 c-2 -7 17 -18 42
-24 25 -7 37 -13 27 -13 -10 -1 -31 -8 -47 -16 -28 -14 -29 -14 -50 14 -19 28
-20 30 -3 40 24 14 34 14 31 -1z m-57 -56 c7 -19 4 -26 -23 -41 -29 -18 -33
-18 -64 -3 -19 8 -34 18 -34 22 0 10 83 49 99 47 8 -1 18 -12 22 -25z m-895
-7 c-9 -9 -19 -28 -22 -43 -3 -15 -6 -29 -7 -32 -1 -3 -18 0 -37 7 l-35 12 32
0 c27 1 34 6 39 29 4 15 13 33 22 39 22 18 28 8 8 -12z m1637 -24 c56 -24 123
-83 147 -131 36 -71 52 -145 40 -189 -9 -36 -67 -101 -89 -101 -19 0 -61 93
-61 135 0 78 -113 255 -163 255 -21 0 -21 9 0 32 21 24 69 23 126 -1z m-1743
-21 c0 -5 -8 -10 -17 -10 -15 0 -16 2 -3 10 19 12 20 12 20 0z m1007 -42 c-3
-8 -6 -5 -6 6 -1 11 2 17 5 13 3 -3 4 -12 1 -19z m969 -23 c16 -19 43 -60 60
-92 25 -51 29 -69 29 -144 0 -85 -1 -86 -38 -132 -32 -40 -44 -47 -73 -47 -35
0 -94 24 -94 38 0 4 14 16 30 26 34 19 72 67 76 94 6 34 -29 158 -61 224 -23
45 -30 68 -22 71 25 10 63 -6 93 -38z m501 -66 c53 -20 74 -48 71 -96 -2 -24
-7 -43 -12 -43 -4 0 -6 -9 -3 -20 3 -13 0 -20 -9 -20 -8 0 -11 -6 -7 -16 3 -9
2 -19 -3 -23 -5 -3 -14 -15 -20 -26 -16 -30 -155 -145 -184 -152 -14 -3 -28
-10 -31 -15 -3 -4 -24 -9 -47 -11 -50 -2 -53 -12 -9 -31 26 -12 28 -15 10 -15
-12 -1 -35 10 -51 24 -37 31 -45 31 -37 3 6 -23 6 -23 -10 -3 -10 13 -29 21
-55 22 -22 1 -53 11 -70 23 l-30 22 32 31 c20 20 34 27 36 20 2 -7 8 -13 14
-13 5 0 8 -7 4 -15 -3 -8 -1 -15 5 -15 5 0 12 6 14 13 30 87 51 132 84 183 90
139 214 209 308 173z m-793 -160 c82 -30 101 -49 101 -100 0 -25 -6 -44 -13
-47 -7 -2 -10 -8 -7 -13 4 -5 -2 -6 -11 -2 -13 5 -16 2 -12 -8 4 -11 -1 -15
-21 -14 -14 0 -32 -5 -39 -12 -20 -20 -123 -16 -174 6 -24 10 -52 30 -61 45
-10 14 -22 26 -27 26 -17 0 -11 -23 12 -47 21 -23 13 -34 -9 -12 -6 6 -17 9
-25 7 -8 -3 -2 -11 17 -21 l30 -17 -30 6 c-25 6 -28 4 -17 -7 8 -8 37 -15 73
-16 32 -1 91 -7 129 -13 48 -8 84 -9 115 -2 50 11 60 4 51 -33 -6 -23 -70 -68
-134 -94 -47 -19 -160 -18 -197 1 -50 27 -76 62 -80 108 -3 49 15 126 40 163
9 15 14 27 9 27 -18 0 63 71 91 79 53 16 132 12 189 -10z m-314 -64 c0 -2 -9
-19 -21 -37 -12 -18 -18 -25 -15 -15 3 10 6 27 6 38 0 10 7 19 15 19 8 0 15
-2 15 -5z m511 -148 c9 -11 28 -19 44 -19 16 0 35 -8 42 -17 27 -37 -62 -78
-143 -66 -37 5 -41 9 -37 28 3 12 17 34 31 50 14 15 21 27 14 27 -6 0 -14 -4
-17 -10 -3 -5 -14 -10 -22 -10 -13 0 -11 6 10 28 15 15 27 35 28 43 0 9 6 5
17 -10 9 -14 24 -34 33 -44z m462 -44 c-7 -2 -21 -2 -30 0 -10 3 -4 5 12 5 17
0 24 -2 18 -5z m-2105 -110 c-10 -2 -26 -2 -35 0 -10 3 -2 5 17 5 19 0 27 -2
18 -5z m922 -247 c0 -3 -25 -12 -55 -20 -30 -9 -62 -19 -72 -22 -14 -5 -14 -3
3 9 29 22 124 47 124 33z"/>
<path d="M1624 4990 c-30 -12 -38 -28 -24 -45 16 -19 71 -19 96 0 18 14 18 14
-6 15 l-25 1 25 10 c20 8 22 12 10 19 -18 12 -48 12 -76 0z"/>
<path d="M1802 4950 c-48 -20 -35 -70 18 -70 39 0 60 9 60 26 0 11 -7 13 -26
8 -19 -5 -25 -4 -20 5 4 6 19 11 34 11 l27 1 -25 14 c-29 17 -37 17 -68 5z"/>
<path d="M2323 4901 c-33 -28 -28 -49 19 -93 61 -56 98 -48 98 24 0 28 -7 44
-27 63 -33 30 -60 31 -90 6z"/>
<path d="M2142 4845 c-50 -22 -35 -39 33 -43 82 -4 105 3 105 33 0 24 -3 25
-52 25 -29 -1 -68 -7 -86 -15z"/>
<path d="M2101 4774 c-67 -21 -62 -25 22 -18 62 6 77 4 77 -7 -1 -26 -37 -94
-75 -139 -157 -188 -543 -248 -799 -126 -112 54 -209 114 -266 164 l-61 54 26
34 26 34 -24 0 c-40 0 -87 -64 -87 -119 0 -46 18 -47 36 -1 l17 42 23 -25 c41
-45 108 -93 202 -147 126 -72 181 -131 374 -403 20 -29 53 -68 72 -86 41 -40
80 -44 139 -16 41 19 57 52 113 227 51 160 101 246 175 304 61 48 110 112 131
171 14 39 17 39 51 13 29 -23 44 -12 27 20 -22 41 -111 52 -199 24z m-235
-606 c-44 -126 -49 -134 -91 -141 -38 -6 -94 11 -74 23 6 4 -4 10 -21 14 -23
4 -31 10 -26 21 3 9 0 15 -9 15 -44 0 9 94 67 120 55 24 67 15 31 -24 -53 -59
-66 -96 -33 -96 11 0 17 5 15 13 -10 24 120 147 156 147 16 0 15 -9 -15 -92z"/>
<path d="M2295 4486 c-14 -21 -15 -32 -6 -57 6 -17 8 -35 6 -39 -3 -5 -1 -11
4 -14 5 -3 23 10 40 30 l32 36 -18 31 c-24 40 -38 44 -58 13z"/>
<path d="M2873 4828 c-17 -6 -34 -16 -37 -23 -7 -18 22 -55 43 -55 9 0 22 -5
27 -10 7 -7 25 3 56 34 l45 46 -36 6 c-20 3 -43 7 -51 9 -8 1 -29 -2 -47 -7z
m70 -17 c16 -6 16 -9 -7 -30 -19 -18 -31 -22 -51 -17 -31 8 -28 26 6 43 27 14
27 14 52 4z"/>
<path d="M1800 6130 c0 -5 7 -13 16 -18 12 -7 13 -11 5 -17 -17 -10 6 -35 32
-35 21 0 21 0 -1 16 -12 8 -20 20 -16 25 6 11 -13 39 -27 39 -5 0 -9 -4 -9
-10z"/>
<path d="M1193 5818 c-40 -45 -67 -118 -43 -118 6 0 10 8 10 18 0 11 14 38 31
61 34 47 36 75 2 39z"/>
<path d="M3820 5828 c0 -7 -7 -25 -14 -40 -15 -29 -9 -37 12 -16 8 8 12 8 12
1 0 -6 -10 -18 -22 -26 -16 -11 -18 -16 -8 -16 8 0 24 6 34 14 15 11 17 17 7
29 -7 8 -9 25 -5 40 4 16 2 26 -5 26 -6 0 -11 -6 -11 -12z"/>
<path d="M1125 5769 c-17 -33 -17 -80 1 -86 6 -2 9 8 6 25 -2 16 3 43 12 61 9
17 12 31 7 31 -6 0 -18 -14 -26 -31z"/>
<path d="M1086 5704 c-9 -25 -7 -72 4 -79 6 -4 10 13 10 44 0 53 -4 62 -14 35z"/>
<path d="M2245 5414 c-74 -12 -217 -67 -236 -90 -17 -21 4 -18 44 6 83 49 252
85 283 59 16 -13 41 1 30 19 -10 17 -49 19 -121 6z"/>
<path d="M804 4423 c-64 -72 -82 -98 -120 -171 -7 -15 -17 -27 -21 -27 -9 0
-53 -61 -53 -73 0 -4 -9 -25 -21 -46 -20 -39 -23 -87 -3 -93 6 -2 8 10 6 32
-3 21 0 35 7 35 6 0 11 -6 11 -14 0 -22 19 -29 37 -14 17 14 52 84 53 105 0 6
-11 15 -24 20 -18 6 -22 12 -15 28 7 20 8 20 8 0 1 -11 19 16 42 60 22 44 47
87 56 95 13 13 13 11 -1 -17 -21 -41 -20 -53 2 -53 15 0 7 -23 -48 -134 -36
-74 -69 -133 -73 -133 -16 3 -77 -95 -77 -124 0 -28 30 -56 49 -45 4 3 8 -25
9 -62 1 -37 8 -94 16 -127 8 -34 11 -64 6 -70 -5 -6 -7 -20 -5 -30 2 -11 4
-30 4 -42 1 -18 56 -63 79 -63 18 -1 201 -190 220 -227 28 -53 77 -90 97 -73
12 10 13 16 3 28 -11 13 -11 14 2 7 36 -21 230 -180 230 -189 0 -5 7 -18 17
-28 9 -10 21 -28 27 -41 12 -24 54 -36 65 -18 4 6 32 -13 66 -45 33 -30 45
-45 27 -32 -26 18 -36 20 -51 11 -15 -9 -28 -2 -87 49 -38 33 -81 67 -96 76
-16 9 -28 25 -28 35 0 49 -91 117 -135 101 -13 -5 -151 84 -213 137 -37 33
-47 36 -38 13 5 -12 -2 -10 -26 8 -43 33 -48 51 -13 42 25 -6 26 -4 23 22 -2
23 -12 33 -48 51 -29 13 -47 17 -51 11 -8 -13 -29 -1 -29 16 0 7 -9 25 -20 39
-20 25 -72 149 -84 199 -5 21 -3 26 8 22 23 -9 29 42 9 74 -10 15 -23 31 -30
35 -15 10 -18 135 -4 185 5 17 6 32 1 32 -22 0 -36 -173 -22 -281 10 -81 67
-225 105 -269 14 -15 15 -19 4 -11 -33 25 -30 2 4 -31 18 -18 34 -37 34 -41 0
-5 12 -19 26 -30 15 -12 32 -32 38 -44 13 -25 66 -57 81 -48 5 3 37 -16 73
-42 35 -27 83 -61 106 -78 23 -16 61 -44 84 -62 23 -18 71 -52 107 -77 36 -25
83 -62 106 -83 22 -21 58 -51 80 -68 49 -38 103 -91 130 -130 12 -17 25 -27
29 -23 4 4 -4 21 -18 37 -17 20 -23 37 -20 55 6 32 18 26 67 -33 l36 -43 -46
-30 c-25 -16 -47 -28 -49 -26 -1 2 -9 17 -18 33 -54 106 -173 178 -258 155
-20 -6 -48 -19 -62 -30 -25 -20 -28 -20 -75 -5 -63 21 -119 8 -161 -37 -26
-28 -28 -36 -27 -99 1 -47 -3 -69 -11 -69 -21 0 -63 -61 -79 -116 -35 -123 26
-380 116 -483 17 -18 30 -41 30 -51 0 -35 76 -105 152 -141 64 -30 83 -34 154
-34 72 0 86 3 130 30 29 18 55 44 64 62 12 26 21 33 45 33 41 0 83 28 137 91
55 65 81 148 76 245 -3 67 7 95 17 48 4 -16 8 -35 11 -42 6 -21 -25 -168 -48
-219 -20 -45 -74 -124 -90 -131 -5 -2 -8 -9 -8 -16 0 -7 -37 -46 -82 -88 -100
-93 -127 -114 -199 -161 -78 -51 -211 -190 -263 -273 -136 -218 -150 -386 -51
-590 42 -86 88 -146 180 -239 104 -103 147 -134 249 -178 50 -21 94 -43 97
-48 8 -14 138 -49 180 -49 20 0 90 -11 155 -24 201 -40 476 -52 712 -32 45 4
76 22 66 38 -4 6 -10 6 -17 -1 -18 -18 -54 -13 -60 9 -3 12 -14 20 -29 21 -12
1 38 11 112 23 105 16 137 18 145 9 6 -7 35 -13 65 -15 l55 -3 -95 -19 c-52
-10 -106 -26 -120 -35 -14 -9 -21 -11 -17 -3 5 6 4 12 -2 12 -6 0 -11 -4 -11
-8 0 -5 -16 -16 -36 -26 -20 -9 -34 -20 -30 -23 8 -8 116 27 116 38 0 5 8 9
17 9 9 0 44 6 77 14 34 8 88 20 121 26 175 36 578 197 705 282 158 106 191
139 279 269 62 91 110 202 123 284 13 76 16 195 7 201 -5 3 -9 12 -9 20 0 8 5
12 10 9 13 -8 12 -5 -1 34 -6 17 -15 31 -20 31 -4 0 -14 10 -20 23 -11 20 -11
21 5 8 9 -8 19 -11 22 -9 3 3 -5 14 -18 24 -13 11 -36 36 -51 57 -15 20 -34
37 -41 37 -8 0 -26 16 -40 35 -32 41 -104 97 -198 150 l-67 38 29 42 c33 48
90 163 90 182 0 7 7 13 15 13 16 0 20 36 9 77 -9 34 -23 17 -18 -22 3 -28 1
-33 -12 -28 -11 4 -15 0 -14 -13 4 -36 0 -43 -36 -56 -29 -10 -41 -23 -55 -56
-24 -55 -24 -61 2 -70 18 -7 12 -16 -58 -84 -106 -104 -173 -154 -183 -138 -6
10 -23 5 -71 -22 -50 -27 -65 -40 -67 -60 -3 -21 -15 -32 -60 -53 -95 -45
-216 -87 -239 -82 -13 2 -20 0 -16 -6 3 -5 -7 -6 -27 -2 -24 5 -31 4 -25 -5 5
-9 2 -10 -14 -5 -17 5 -20 3 -14 -11 4 -12 3 -15 -5 -10 -7 4 -22 -2 -34 -14
-13 -11 -34 -23 -48 -26 -14 -3 -39 -11 -57 -19 -24 -11 -33 -11 -37 -2 -3 8
-7 9 -13 2 -4 -5 -19 -11 -33 -12 -14 -2 -49 -6 -77 -9 -52 -7 -53 -6 -53 20
0 15 -6 29 -14 32 -23 9 -170 -26 -183 -44 -10 -12 -26 -14 -88 -8 -90 8 -258
49 -291 71 -13 8 -31 15 -41 16 -11 0 -13 3 -5 6 22 9 13 23 -15 23 -14 0 -23
3 -20 7 4 3 20 6 37 5 16 0 32 4 36 9 3 6 19 2 37 -10 18 -10 51 -25 75 -32
28 -8 41 -17 38 -26 -10 -24 33 -36 88 -25 49 11 312 25 501 27 92 0 115 6
115 29 0 6 34 22 75 34 60 18 79 20 94 10 23 -14 110 8 209 54 57 27 63 32 58
54 -5 19 -1 27 19 36 14 6 25 15 25 19 0 4 28 25 62 45 35 20 79 49 100 65 22
18 38 25 40 18 3 -9 16 -8 49 3 39 13 44 18 44 44 0 20 -4 28 -15 26 -15 -4
-3 12 47 63 42 44 93 168 93 229 0 16 -7 55 -16 87 -12 43 -22 59 -38 63 -11
3 -33 16 -47 30 -14 13 -34 26 -45 29 -16 4 -17 5 -1 6 20 1 23 21 5 39 -21
21 4 13 56 -19 28 -18 57 -40 64 -51 7 -10 30 -27 50 -37 20 -10 46 -28 56
-40 11 -12 24 -21 30 -21 5 0 -5 16 -24 35 -19 19 -39 35 -45 35 -6 0 -33 21
-61 48 -56 54 -179 118 -261 135 -42 9 -57 17 -64 34 -5 13 -13 23 -18 23 -5
0 -16 3 -25 6 -9 3 -16 1 -16 -5 0 -6 6 -11 14 -11 8 0 16 -7 19 -14 4 -10 1
-13 -9 -9 -12 4 -14 0 -8 -21 4 -19 2 -26 -8 -26 -9 0 -13 -10 -12 -29 1 -15
-3 -35 -8 -42 -7 -10 -8 -5 -4 16 6 38 -5 58 -27 49 -21 -8 -21 -3 -3 41 9 21
11 35 5 35 -6 0 -9 5 -7 12 5 13 -30 52 -47 54 -9 1 -46 9 -86 20 -9 3 -19 14
-22 24 -4 15 -14 20 -42 20 -20 0 -34 -3 -32 -7 9 -14 -307 -11 -318 3 -5 6
-31 15 -57 18 -41 6 -48 4 -58 -13 -8 -16 -8 -21 2 -22 20 -1 -24 -17 -49 -18
-20 -1 -21 0 -7 28 13 26 22 31 68 36 30 4 80 4 112 0 109 -12 209 -11 207 2
-2 8 9 10 30 8 17 -2 64 -6 103 -9 56 -4 87 -12 143 -40 39 -20 77 -46 83 -57
14 -21 77 -53 87 -44 7 8 -20 25 -40 25 -9 0 -20 7 -23 16 -5 13 -2 15 14 11
14 -3 20 -1 17 6 -2 7 -12 11 -23 10 -10 -1 -31 9 -46 22 -80 67 -273 95 -521
76 -89 -7 -183 -15 -209 -18 -27 -3 -48 -2 -48 2 0 14 221 240 275 280 158
121 455 204 631 176 39 -6 75 -18 88 -29 27 -24 44 -30 137 -48 84 -16 199 -7
264 21 89 37 145 107 145 181 0 23 7 46 19 58 28 30 63 151 52 179 -5 12 -15
41 -21 64 -18 58 -55 91 -129 111 -62 17 -62 17 -85 74 -28 69 -45 96 -115
185 -78 100 -112 123 -178 123 -30 0 -64 -5 -76 -12 -12 -6 -41 -10 -64 -9
-54 3 -86 -18 -115 -77 -12 -26 -39 -62 -59 -82 -22 -21 -42 -53 -50 -80 -7
-25 -18 -48 -24 -52 -16 -11 -9 -107 12 -170 24 -70 20 -75 -10 -10 -14 32
-22 41 -25 29 -2 -9 6 -37 17 -60 12 -24 21 -48 21 -53 0 -6 -27 -11 -60 -11
-49 -1 -72 -7 -127 -38 -38 -20 -77 -46 -89 -56 l-21 -19 -1 41 c-1 22 -4 44
-7 49 -3 4 2 27 10 50 22 62 20 135 -5 160 -11 11 -28 20 -37 20 -15 0 -18 11
-20 61 -2 69 -20 105 -61 120 -26 10 -110 7 -142 -5 -18 -7 -87 33 -74 42 13
10 16 56 4 86 -9 24 -8 25 18 14 15 -7 31 -15 36 -20 6 -4 16 -8 23 -8 14 0
-15 56 -54 103 -27 33 -29 47 -8 47 11 0 15 11 15 41 0 52 -15 79 -44 79 -26
0 -39 -20 -30 -47 4 -10 -3 -3 -15 15 -34 52 -129 98 -153 74 -6 -6 7 -13 36
-21 25 -6 61 -25 79 -41 l32 -30 -45 25 c-46 26 -85 32 -95 16 -3 -5 5 -13 17
-17 27 -8 83 -70 116 -127 33 -58 27 -59 -12 -2 -39 58 -61 79 -75 71 -5 -4
-12 -2 -16 4 -11 18 -51 10 -75 -15 l-23 -24 39 -45 c21 -24 51 -59 66 -76 22
-26 33 -31 52 -26 29 7 46 -15 46 -59 0 -17 5 -25 13 -22 6 2 11 13 9 23 -2
15 1 13 12 -6 14 -24 13 -25 -38 -41 -29 -9 -59 -20 -66 -24 -9 -5 -11 -4 -6
4 9 14 -14 52 -56 93 -22 22 -37 28 -53 24 -19 -5 -34 6 -87 64 -87 98 -143
140 -185 140 -18 0 -33 -3 -33 -7 0 -5 22 -20 48 -36 84 -49 154 -105 202
-162 14 -16 -3 -4 -37 27 -55 49 -115 80 -129 65 -3 -3 26 -25 63 -50 98 -65
127 -100 152 -182 l21 -71 -22 -44 c-41 -83 -27 -276 25 -355 18 -27 15 -25
-21 9 -48 46 -69 41 -26 -6 l29 -32 -28 18 c-16 10 -31 15 -34 13 -6 -7 68
-57 85 -57 34 0 -4 -19 -60 -29 -35 -7 -71 -14 -81 -17 -10 -3 -17 -2 -16 3 3
19 -3 21 -33 12 -31 -8 -55 -1 -140 42 -10 5 -42 9 -71 9 -55 0 -97 -20 -97
-46 0 -11 7 -10 37 6 23 12 55 20 83 19 l45 -1 -40 -8 c-63 -13 -101 -30 -87
-39 9 -6 7 -12 -8 -26 -39 -36 -14 -77 56 -91 27 -5 34 -1 66 41 l36 46 106 3
c58 1 101 -1 94 -5 -17 -11 4 -33 59 -64 55 -30 63 -31 97 -4 33 26 33 56 -1
91 -21 22 -23 28 -10 28 22 0 127 52 127 63 0 5 -8 6 -17 2 -39 -16 -52 -16
-77 0 -34 22 -83 126 -94 195 -11 81 3 167 35 214 42 60 115 108 173 114 44 4
50 2 66 -23 54 -83 -37 -238 -167 -280 -93 -30 -79 -45 19 -19 9 2 0 -4 -20
-14 -21 -9 -38 -23 -38 -29 0 -28 41 -12 180 72 48 29 59 42 79 90 14 33 20
62 16 73 -4 9 -8 38 -9 64 l-1 47 45 10 c70 15 105 -12 114 -89 14 -111 12
-125 -11 -125 -33 0 -37 -12 -14 -41 12 -16 21 -41 21 -62 0 -60 22 -21 32 54
4 37 10 69 13 72 14 15 39 -32 43 -80 4 -57 -11 -108 -48 -156 -48 -62 -90
-132 -79 -132 7 0 18 8 25 18 12 15 13 13 3 -13 -27 -76 -67 -114 -141 -136
-26 -7 -28 -6 -23 12 9 29 -2 24 -64 -29 -31 -27 -76 -62 -101 -78 -25 -15
-61 -40 -80 -55 l-35 -27 0 44 c0 57 -21 79 -68 70 -42 -8 -62 -30 -72 -76 -4
-19 -14 -48 -22 -64 -16 -30 -11 -41 22 -49 11 -3 -9 -2 -45 0 -45 4 -62 2
-55 -5 6 -6 26 -12 45 -15 l35 -4 -40 -1 c-47 -2 -50 0 -94 56 -34 44 -53 50
-96 30 -28 -13 -32 -34 -10 -65 14 -20 13 -22 -2 -26 -31 -7 51 -37 101 -37
l45 0 -24 -36 c-35 -51 -32 -72 11 -90 20 -9 40 -12 44 -7 3 4 23 31 43 59
l37 51 -19 25 -19 24 46 13 c67 18 113 41 107 51 -3 5 3 11 12 13 10 3 39 10
66 17 43 12 65 30 35 30 -7 0 6 9 30 21 23 12 42 27 42 34 0 19 44 45 60 35 8
-5 9 -13 4 -21 -4 -8 -9 -41 -10 -74 -1 -33 -7 -71 -13 -85 -10 -22 -11 -21
-6 13 4 23 2 37 -5 37 -5 0 -10 -6 -10 -12 -1 -7 -7 -26 -15 -43 -10 -19 -13
-22 -9 -7 3 13 1 22 -6 22 -7 0 -14 -9 -17 -20 -3 -11 -11 -20 -18 -20 -7 0
-20 -19 -28 -42 -9 -24 -16 -35 -16 -25 -1 26 -17 13 -26 -20 -9 -40 -68 -139
-73 -125 -5 16 -22 15 -22 -1 0 -17 -83 -52 -88 -37 -7 21 -34 40 -55 40 -29
0 -43 -10 -51 -36 -5 -15 -18 -23 -45 -28 -22 -3 -60 -15 -85 -26 l-46 -19 0
39 c0 43 -18 56 -64 44 -22 -5 -29 -17 -47 -78 -13 -44 -32 -82 -50 -101 l-29
-30 -45 52 c-29 32 -69 64 -108 84 -55 28 -69 31 -122 26 -34 -2 -75 -12 -93
-21 -36 -18 -82 -84 -82 -116 0 -32 25 -74 66 -109 42 -37 65 -47 152 -66 42
-8 73 -22 91 -39 15 -14 38 -26 52 -26 22 1 22 2 -7 14 -49 21 -49 35 -1 18
48 -17 98 -10 64 9 -9 6 -26 8 -36 4 -11 -3 -22 -1 -26 5 -4 6 4 10 17 10 14
0 32 6 43 13 27 20 1 32 -36 17 -20 -9 -60 -11 -119 -8 -79 5 -95 9 -139 37
-87 56 -104 142 -40 202 90 84 255 24 323 -116 49 -100 48 -247 -1 -305 -34
-41 -101 -86 -140 -94 -31 -7 -33 -6 -33 19 0 30 -40 113 -66 137 -23 21 -74
41 -74 29 0 -5 12 -14 28 -20 31 -13 68 -63 81 -109 11 -38 -20 -109 -64 -145
-82 -67 -261 -56 -346 20 -42 38 -83 109 -69 118 5 3 -1 16 -14 30 -27 29 -90
173 -111 251 -28 108 -16 195 32 247 43 44 58 49 98 33 84 -36 124 -117 132
-274 6 -114 21 -132 22 -27 2 169 -56 295 -159 342 -34 16 -40 23 -40 51 0 81
51 132 132 132 47 -1 74 -27 88 -88 11 -50 60 -126 120 -190 44 -47 30 -12
-22 52 -82 104 -93 161 -40 218 55 59 140 40 224 -50 45 -48 97 -143 112 -204
3 -16 13 -28 20 -28 13 0 2 38 -40 136 -5 10 36 44 53 44 5 0 32 -21 61 -46
l53 -46 25 23 c17 16 24 33 24 61 0 21 5 38 10 38 18 0 137 -57 144 -69 4 -6
15 -11 24 -11 11 0 6 10 -18 35 -19 19 -29 35 -24 35 6 0 15 -5 22 -12 6 -6
15 -8 19 -4 14 14 -30 36 -71 36 -32 1 -37 3 -24 11 9 5 15 16 12 23 -4 9 2
13 20 11 14 -2 29 -6 35 -9 5 -4 28 -3 51 0 l41 7 -39 17 c-22 10 -43 23 -46
29 -4 6 -27 11 -51 11 -30 0 -45 5 -49 16 -4 9 -13 14 -21 10 -9 -3 -15 0 -15
9 0 8 -4 15 -10 15 -5 0 -10 -7 -10 -15 0 -8 -4 -15 -8 -15 -10 0 -102 109
-115 138 -6 12 -16 22 -24 22 -11 0 -11 -4 -2 -22 16 -31 6 -20 -26 26 l-26
39 35 53 c20 30 36 58 36 64 0 15 -80 100 -94 100 -7 0 -27 -17 -45 -37 -26
-29 -34 -34 -42 -22 -6 11 -9 11 -9 1 0 -26 -18 -1 -30 43 -7 25 -18 45 -25
45 -24 0 28 -163 60 -190 8 -7 18 -10 21 -7 4 3 16 -13 28 -36 12 -25 27 -41
36 -40 9 2 26 -17 42 -46 17 -31 38 -54 60 -64 19 -9 40 -28 48 -42 8 -15 33
-38 57 -52 32 -18 42 -30 39 -46 -1 -11 -9 -21 -17 -22 -8 -1 -39 -5 -69 -9
l-55 -6 -67 75 c-82 91 -200 194 -324 281 -24 17 -69 52 -101 77 -32 26 -92
70 -134 98 -108 71 -247 209 -292 291 -79 143 -97 328 -45 473 38 106 91 213
142 284 24 36 42 69 40 73 -3 5 0 16 8 25 11 13 9 18 -10 31 l-23 15 32 34
c18 18 28 33 22 33 -6 0 -42 -35 -79 -77z m1796 -486 c0 -6 -47 0 -57 7 -1 1
-14 29 -28 61 l-25 60 55 -60 c30 -33 55 -63 55 -68z m1023 -5 c50 -31 167
-183 206 -268 35 -74 41 -81 68 -81 49 0 117 -54 143 -115 19 -44 21 -63 16
-117 -3 -35 -13 -75 -22 -90 l-17 -25 -17 40 c-39 90 -138 150 -236 142 -64
-5 -49 -23 19 -23 52 0 71 -5 105 -28 54 -35 86 -96 85 -162 -1 -113 -82 -190
-218 -206 -102 -11 -160 0 -226 44 -49 33 -159 158 -165 189 -2 7 -8 31 -13
53 -32 123 -3 250 63 281 102 49 176 -63 176 -267 0 -88 -3 -102 -29 -153 -27
-50 -28 -56 -12 -56 17 0 51 52 51 78 0 6 5 14 11 18 12 7 8 -57 -5 -88 -5
-11 -4 -18 2 -18 16 0 34 57 30 96 -4 32 -3 34 9 18 7 -10 13 -29 13 -43 0
-16 3 -22 10 -15 14 14 -5 77 -30 99 -17 15 -20 31 -20 99 0 95 -19 193 -44
231 -10 14 -34 34 -54 42 -43 18 -52 28 -52 66 0 64 -81 157 -137 157 -12 0
-20 6 -19 13 7 45 63 87 115 87 55 0 181 -166 237 -312 14 -37 30 -68 35 -68
5 0 0 -18 -12 -39 -11 -21 -22 -56 -25 -77 -4 -34 -2 -31 20 24 32 80 62 122
87 122 10 0 19 5 19 10 0 16 -26 11 -54 -11 -28 -22 -29 -21 -39 31 -9 44 -36
110 -64 153 -15 23 -34 54 -43 69 -8 15 -30 44 -49 64 -28 29 -32 38 -20 45
23 14 72 10 102 -9z m-1103 -42 c6 -11 8 -20 6 -20 -3 0 -10 9 -16 20 -6 11
-8 20 -6 20 3 0 10 -9 16 -20z m853 -106 c34 -8 60 -44 80 -109 l15 -51 -45
-18 c-29 -12 -53 -32 -69 -56 -30 -45 -45 -138 -34 -201 5 -24 7 -45 6 -47 -7
-7 -71 127 -91 191 -45 144 -24 275 48 296 18 5 39 7 47 5 8 -1 27 -6 43 -10z
m-186 -191 c-3 -10 -5 -4 -5 12 0 17 2 24 5 18 2 -7 2 -21 0 -30z m-601 -56
c-7 -23 -113 -84 -125 -71 -3 4 1 9 9 12 8 3 37 27 65 53 49 47 63 49 51 6z
m611 1 c-3 -8 -6 -5 -6 6 -1 11 2 17 5 13 3 -3 4 -12 1 -19z m10 -40 c-3 -8
-6 -5 -6 6 -1 11 2 17 5 13 3 -3 4 -12 1 -19z m-2466 -145 c13 -16 12 -17 -3
-4 -10 7 -18 15 -18 17 0 8 8 3 21 -13z m2469 8 c17 -1 32 -11 42 -28 10 -16
33 -45 53 -65 20 -21 48 -64 63 -95 14 -32 28 -61 30 -65 2 -5 -6 -8 -18 -8
-16 0 -20 4 -15 19 6 19 -11 43 -44 61 -14 7 -27 -1 -66 -40 -36 -37 -58 -50
-89 -56 -23 -3 -69 -15 -103 -26 l-62 -19 -38 24 c-21 14 -44 32 -52 41 -19
22 -30 20 -55 -11 -24 -31 -23 -49 6 -79 l20 -22 -70 -45 c-38 -25 -100 -72
-137 -106 -37 -34 -70 -60 -72 -57 -2 2 3 19 12 37 9 21 14 25 11 12 -2 -13
-1 -23 3 -23 12 0 38 63 53 125 11 48 19 62 48 81 19 12 47 33 61 46 26 22 84
103 89 123 1 6 4 15 6 20 2 6 4 21 6 34 2 17 22 38 66 68 78 53 98 55 48 6
-70 -69 -69 -123 2 -123 42 1 51 7 109 74 40 45 42 50 28 69 -21 29 -19 33 13
31 15 -1 38 -3 52 -3z m-350 -126 c-16 -52 -69 -134 -109 -168 -44 -37 -96
-51 -146 -39 l-40 10 40 1 c83 2 175 44 175 79 0 12 -7 9 -29 -12 -26 -25
-118 -62 -129 -52 -2 3 14 9 35 15 57 16 104 50 130 96 23 41 30 85 13 85 -5
0 7 25 28 55 l37 54 3 -42 c2 -23 -2 -60 -8 -82z m-833 -41 c-3 -3 -12 -4 -19
-1 -8 3 -5 6 6 6 11 1 17 -2 13 -5z m48 -24 c-11 -5 -27 -9 -35 -9 -13 -1 -13
0 0 9 8 5 24 9 35 9 l20 0 -20 -9z m575 -250 l-11 -25 6 25 c2 14 5 34 6 45 2
19 2 19 6 0 2 -12 -1 -32 -7 -45z m-13 -52 c-3 -8 -6 -5 -6 6 -1 11 2 17 5 13
3 -3 4 -12 1 -19z m-77 -48 l-11 -25 6 25 c2 14 5 34 6 45 2 19 2 19 6 0 2
-12 -1 -32 -7 -45z m20 -31 c-11 -24 -18 -35 -15 -24 23 77 30 95 33 83 1 -8
-7 -34 -18 -59z m-145 -70 c-8 -19 -13 -25 -9 -14 3 11 8 34 12 50 3 17 8 23
10 14 1 -9 -4 -32 -13 -50z m42 39 c-3 -8 -6 -5 -6 6 -1 11 2 17 5 13 3 -3 4
-12 1 -19z m-537 -8 c8 -5 11 -10 5 -10 -5 0 -17 5 -25 10 -8 5 -10 10 -5 10
6 0 17 -5 25 -10z m521 -57 c-6 -22 -20 -48 -32 -59 -19 -17 -18 -14 5 30 14
27 26 56 26 64 0 9 3 13 6 10 3 -3 1 -24 -5 -45z m-50 -36 c-10 -9 -11 -8 -5
6 3 10 9 15 12 12 3 -3 0 -11 -7 -18z m-22 -133 c35 -17 73 -17 316 6 224 21
412 -3 474 -61 44 -41 30 -49 -91 -49 -135 0 -313 -15 -423 -35 -202 -37 -283
-62 -428 -132 -40 -20 -81 -39 -93 -43 -17 -7 -124 -79 -221 -149 -12 -9 -23
-22 -23 -28 0 -7 -7 -13 -15 -13 -9 0 -20 -11 -25 -24 -5 -13 -13 -27 -19 -30
-6 -4 -8 -13 -4 -21 3 -8 0 -15 -6 -15 -17 0 -13 -21 7 -36 21 -17 40 -18 24
-2 -17 17 -15 28 5 21 12 -5 15 -2 10 9 -3 9 -3 19 1 22 3 4 7 14 8 22 5 32
14 44 34 44 12 0 28 12 38 30 33 54 210 180 223 159 5 -9 15 -9 39 1 21 9 27
16 19 21 -29 18 260 127 302 114 25 -8 72 2 64 14 -3 5 24 14 58 20 88 15 93
15 73 -8 -9 -10 -16 -24 -14 -31 2 -9 -32 -20 -107 -36 -60 -13 -115 -26 -122
-28 -8 -3 -15 5 -19 19 -4 15 -13 25 -23 25 -23 0 -156 -86 -156 -100 0 -6
-31 -28 -70 -49 -51 -28 -75 -36 -90 -30 -36 14 -54 10 -90 -22 -41 -36 -43
-47 -13 -58 22 -8 22 -8 -7 -24 -42 -21 -66 -50 -71 -85 -6 -36 11 -48 91 -67
27 -7 40 -13 27 -14 -12 -1 -41 -10 -64 -22 l-41 -21 -63 31 c-66 33 -74 35
-74 24 0 -18 120 -62 193 -72 105 -15 161 -14 302 5 140 18 285 52 405 96 126
46 290 126 337 164 23 19 45 34 51 34 5 0 28 18 52 40 24 22 45 40 48 40 7 0
29 28 62 81 l30 46 53 -9 c77 -14 230 -84 262 -120 74 -82 42 -258 -65 -363
-33 -32 -40 -35 -59 -25 -86 46 -298 80 -496 80 -230 0 -546 -43 -710 -96 -80
-27 -207 -85 -235 -109 -8 -7 -33 -22 -55 -34 -22 -11 -66 -42 -97 -68 -45
-38 -57 -54 -55 -73 1 -14 6 -23 12 -20 5 3 9 9 7 13 -1 4 2 13 8 20 6 7 20
25 31 40 12 16 27 26 34 23 15 -5 80 32 71 41 -17 17 252 150 339 167 28 6 28
6 8 -5 -27 -14 -30 -29 -5 -29 22 1 91 39 72 40 -9 1 -5 5 8 11 35 14 202 36
202 27 0 -4 -5 -8 -10 -8 -6 0 -14 -10 -19 -22 -7 -19 -22 -25 -75 -36 -37 -7
-108 -26 -159 -42 -91 -29 -92 -29 -112 -10 -28 27 -38 25 -93 -11 -55 -37
-81 -67 -82 -91 0 -10 -4 -18 -9 -18 -4 0 -38 -22 -74 -49 -46 -35 -68 -46
-76 -38 -21 21 -48 -19 -45 -64 2 -24 -1 -39 -7 -37 -6 2 -9 6 -7 10 3 6 -64
57 -70 53 -8 -6 12 -35 24 -35 8 0 14 -10 14 -22 1 -52 57 -87 195 -124 50
-13 133 -29 185 -35 115 -13 370 -17 425 -6 22 4 50 9 63 11 12 2 31 11 42 21
10 9 25 15 32 12 8 -4 7 -6 -4 -6 -10 -1 -18 -5 -18 -11 0 -17 25 -11 48 10
12 11 27 20 35 20 23 0 150 46 244 88 48 21 100 42 114 45 51 13 289 178 380
265 l47 44 48 -28 c94 -53 179 -113 207 -144 31 -37 32 -40 12 -40 -21 0 -20
-4 21 -67 19 -30 34 -57 32 -59 -2 -1 -25 26 -52 62 -26 35 -58 72 -71 80 -21
13 -22 19 -12 35 10 18 8 24 -23 49 -47 39 -71 46 -85 26 -15 -20 -21 -20 -53
3 -32 22 -72 36 -72 24 0 -4 33 -25 73 -45 98 -51 161 -101 229 -182 69 -82
92 -146 92 -261 1 -139 -64 -301 -160 -402 -37 -38 -166 -143 -177 -143 -2 0
-47 -25 -98 -57 -129 -77 -189 -103 -400 -172 -343 -112 -528 -141 -894 -137
-229 2 -246 4 -370 33 -133 32 -285 82 -387 127 -73 33 -233 184 -298 283 -55
83 -90 196 -90 289 0 85 31 201 73 276 46 82 162 211 236 262 96 66 220 175
274 241 56 68 139 205 141 233 0 9 12 34 25 55 13 21 25 50 26 65 1 15 6 36
11 46 5 13 3 21 -4 24 -8 2 -8 12 3 33 16 30 9 38 -14 17 -11 -11 -12 -10 -6
1 10 18 8 98 -4 119 -6 11 2 23 33 47 38 29 51 32 137 38 67 5 127 17 200 41
125 41 118 40 158 20z m786 -124 c29 0 33 -3 30 -21 -3 -12 -6 -23 -7 -24 -2
-2 -67 -5 -146 -7 -102 -2 -142 0 -142 8 0 15 -23 24 -63 24 -24 0 -28 3 -17
10 20 13 193 13 185 0 -11 -17 25 -23 66 -11 25 8 37 16 33 23 -5 8 -1 9 10 5
10 -4 33 -7 51 -7z m270 -40 l50 -19 -43 -1 c-25 0 -45 -5 -48 -13 -3 -8 -18
-11 -44 -9 -42 4 -47 11 -30 43 14 25 51 25 115 -1z m-1615 -2 c0 -17 -45 -59
-54 -51 -10 10 -7 18 14 41 23 24 40 29 40 10z m1339 -59 c-84 -119 -251 -217
-524 -307 -99 -33 -214 -65 -255 -72 -41 -6 -97 -16 -124 -22 -103 -22 -286
-6 -286 25 1 55 106 144 271 232 187 98 526 171 812 174 l128 1 -22 -31z m91
-24 c0 -8 -7 -15 -15 -15 -8 0 -15 -9 -15 -20 0 -11 -6 -20 -14 -20 -7 0 -19
-14 -27 -32 -11 -27 -14 -29 -20 -12 -6 15 -8 16 -8 3 -1 -22 -27 -43 -36 -29
-18 29 -101 -19 -111 -65 -9 -42 -18 -51 -69 -65 -25 -7 -45 -16 -45 -21 0 -5
-7 -6 -15 -3 -8 4 -15 1 -15 -5 0 -6 -9 -11 -21 -11 -11 0 -18 -4 -15 -8 3 -5
-15 -16 -40 -25 -36 -13 -44 -14 -44 -2 0 23 -13 25 -86 8 -79 -18 -94 -27
-94 -57 0 -16 -10 -24 -40 -34 -42 -13 -179 -37 -270 -47 l-55 -6 0 30 c0 29
3 31 55 41 30 6 63 14 73 16 11 4 17 0 17 -10 0 -24 15 -28 81 -20 60 7 87 27
59 44 -7 4 16 16 61 29 41 12 103 34 139 48 43 17 87 27 130 28 88 2 172 43
125 61 -10 4 5 19 48 46 34 22 85 60 113 83 27 24 69 48 92 54 22 7 44 16 47
21 9 14 15 12 15 -5z m-1426 -80 c-7 -18 7 -20 26 -2 7 6 3 -4 -8 -24 -26 -43
-27 -53 -7 -45 12 4 13 2 6 -13 -15 -26 -41 -47 -41 -31 0 8 -9 11 -24 8 -22
-4 -23 -3 -15 31 5 20 9 40 9 44 0 5 4 6 9 2 6 -3 15 4 21 15 12 22 1 27 -20
8 -12 -11 -12 -10 -1 5 17 21 53 23 45 2z m-81 -261 c-3 -8 -9 -14 -14 -14 -5
0 -9 -6 -9 -13 0 -7 -9 -23 -20 -35 -11 -12 -20 -26 -20 -31 0 -15 -159 -178
-160 -163 0 15 -34 16 -63 1 -12 -7 11 19 52 57 41 38 82 68 91 66 22 -4 64
43 56 63 -10 26 34 82 65 83 20 0 26 -3 22 -14z m1321 -99 c4 -11 23 -15 80
-15 41 0 76 4 78 9 7 20 268 -44 268 -66 0 -8 -29 -33 -38 -33 -5 0 -13 11
-16 24 -7 28 -43 43 -123 53 -42 5 -53 3 -53 -9 0 -11 -11 -13 -57 -7 -32 4
-128 8 -214 8 -159 1 -169 3 -169 40 0 4 53 8 119 9 98 2 120 0 125 -13z m122
-64 c38 -5 110 -21 159 -36 l89 -28 -33 -27 c-18 -15 -49 -36 -69 -46 -20 -11
-63 -36 -96 -58 -140 -92 -362 -176 -576 -217 -197 -39 -504 -35 -623 7 -53
19 -97 52 -97 73 0 34 156 152 245 184 22 8 77 29 123 46 256 96 590 135 878
102z m-1818 -168 c-2 -12 5 -19 21 -21 l23 -4 -21 -14 c-12 -9 -25 -13 -30 -9
-12 7 -41 -22 -41 -40 0 -18 -97 -115 -115 -115 -24 0 -52 -48 -83 -143 -36
-111 -56 -212 -50 -267 l3 -39 -23 22 c-20 19 -25 20 -32 7 -5 -8 -15 -24 -23
-35 -14 -18 -15 -16 -22 37 -4 31 -4 74 0 95 5 33 11 41 38 49 22 6 39 22 54
49 31 55 30 66 -8 58 l-31 -6 17 34 c40 78 89 149 103 149 44 0 124 83 102
106 -9 9 93 104 111 104 6 0 9 -8 7 -17z m2663 -294 c3 -19 8 -40 12 -46 4 -6
3 -14 -3 -18 -6 -4 -7 -11 -3 -18 6 -10 6 -60 -1 -117 -2 -14 -4 -36 -4 -50
-2 -19 -5 -21 -14 -12 -9 9 -18 6 -39 -14 l-27 -26 15 53 c9 30 19 56 23 59
14 9 23 80 12 80 -6 0 -13 15 -16 33 -13 84 -14 107 -6 102 5 -3 12 -1 15 5
12 20 30 4 36 -31z m-123 -511 c-49 -69 -117 -139 -173 -178 -42 -29 -43 -29
-60 -10 -18 20 -18 20 -54 -7 -108 -80 -124 -96 -108 -108 18 -13 13 -15 -138
-78 -94 -39 -103 -40 -132 -21 l-27 17 25 9 c13 5 42 11 63 12 22 2 44 10 50
18 6 8 31 25 56 38 76 39 252 151 304 193 39 33 47 36 42 19 -10 -31 8 -28 55
10 36 29 38 33 23 49 -9 10 -11 19 -6 23 6 3 27 31 47 61 l36 55 19 -22 c18
-22 17 -23 -22 -80z m-2776 -43 c26 -48 47 -76 101 -134 30 -32 40 -51 39 -72
-3 -32 45 -73 73 -63 9 4 25 -2 38 -14 55 -50 311 -146 512 -191 124 -27 337
-45 469 -38 107 5 112 4 128 -18 l17 -22 -92 -6 c-150 -10 -437 14 -682 58
-16 3 -47 8 -68 12 -21 3 -40 10 -43 14 -3 5 -14 9 -24 9 -10 0 -31 7 -47 15
-15 8 -68 32 -116 54 -54 25 -86 45 -82 51 10 17 -12 37 -50 44 -23 5 -53 26
-94 66 -58 57 -61 62 -61 108 0 26 -4 52 -9 58 -5 5 -14 26 -21 47 -6 20 -18
37 -26 37 -16 0 -17 -10 -4 -65 5 -22 7 -41 6 -43 -7 -6 -86 136 -92 166 -8
40 1 41 21 2 9 -16 19 -30 24 -30 5 0 14 21 22 48 l13 47 14 -50 c7 -27 23
-68 34 -90z m2008 -385 c-19 -16 -39 -30 -44 -30 -4 0 -6 -7 -2 -15 4 -11 -8
-19 -46 -30 -54 -16 -100 -20 -63 -6 11 4 22 19 25 32 5 19 20 29 80 50 41 15
77 27 80 27 3 1 -11 -12 -30 -28z"/>
<path d="M3727 3527 c-17 -26 -47 -110 -47 -132 0 -9 -6 -12 -15 -9 -8 4 -15
1 -15 -5 0 -6 7 -11 15 -11 9 0 12 -6 9 -15 -4 -8 -2 -15 4 -15 5 0 12 19 16
41 11 70 45 136 72 143 14 4 22 11 19 16 -11 18 -42 10 -58 -13z"/>
<path d="M3837 3493 c-11 -10 -8 -63 3 -63 6 0 10 16 10 35 0 36 -2 40 -13 28z"/>
<path d="M3360 3432 c0 -24 74 -72 101 -65 25 7 14 23 -15 23 -13 0 -29 7 -36
16 -17 20 -50 37 -50 26z"/>
<path d="M3364 3340 c8 -52 32 -99 53 -107 27 -11 53 33 52 86 -1 25 -3 37 -6
26 -12 -52 -26 -85 -36 -85 -17 0 -34 31 -42 74 -10 53 -30 59 -21 6z"/>
<path d="M3182 3267 c-28 -30 -28 -58 1 -85 27 -26 59 -28 77 -7 11 13 9 24
-10 65 -13 28 -29 50 -35 50 -6 0 -21 -10 -33 -23z"/>
<path d="M3055 3160 c-17 -33 -19 -56 -6 -64 18 -12 40 6 55 45 20 50 21 49
-9 49 -17 0 -29 -9 -40 -30z"/>
<path d="M1827 1492 c-11 -17 0 -49 20 -56 23 -9 31 3 12 18 -9 6 -18 20 -21
31 -2 14 -6 16 -11 7z"/>
<path d="M3068 4483 c-10 -2 -18 -10 -18 -17 0 -18 39 -96 48 -96 6 0 36 18
60 36 2 1 -9 21 -24 43 -26 40 -32 43 -66 34z"/>
<path d="M886 4400 c-16 -17 -26 -33 -24 -36 7 -6 68 45 68 57 0 17 -15 9 -44
-21z"/>
<path d="M3352 4358 c-7 -7 -12 -27 -12 -45 0 -19 -6 -49 -14 -68 -14 -32 -8
-54 8 -37 13 12 39 76 43 104 5 37 -8 63 -25 46z"/>
<path d="M3385 4273 c-13 -55 -37 -93 -57 -93 -44 0 -128 -69 -128 -106 0 -57
30 -69 87 -34 49 30 109 94 117 125 11 42 -3 44 -35 5 -16 -19 -29 -29 -29
-24 0 6 9 19 20 29 27 24 56 103 43 116 -7 7 -13 2 -18 -18z"/>
<path d="M981 4259 c-51 -10 -63 -19 -53 -37 6 -9 17 -7 47 8 22 11 53 20 70
20 23 0 26 3 15 10 -17 11 -19 11 -79 -1z"/>
<path d="M995 4198 c-72 -36 -69 -34 -60 -47 4 -7 16 -4 33 9 15 11 54 31 87
45 50 20 55 24 30 24 -16 0 -57 -14 -90 -31z"/>
<path d="M1035 4177 c-75 -30 -178 -97 -199 -130 -19 -30 -29 -67 -18 -67 5 0
20 15 33 34 33 47 110 109 175 140 70 34 75 49 9 23z"/>
<path d="M1060 4144 c-17 -15 -40 -45 -51 -68 -11 -23 -33 -57 -49 -76 l-30
-35 20 50 c12 27 37 69 56 92 19 24 29 40 21 37 -23 -8 -76 -79 -98 -131 -26
-61 -63 -247 -55 -279 9 -34 26 -30 26 7 0 36 27 151 45 194 23 54 76 118 87
107 8 -8 3 -22 -16 -47 -39 -50 -97 -195 -78 -195 5 0 23 39 41 86 32 84 55
115 28 38 -22 -60 -29 -128 -17 -158 5 -15 13 -25 17 -23 5 3 9 -9 10 -25 2
-31 18 -58 35 -58 8 0 5 18 -9 58 -3 6 -1 12 5 12 5 0 13 -15 16 -34 6 -32 31
-65 41 -54 3 3 0 19 -6 37 -11 31 -8 170 6 251 6 34 6 35 -8 10 -12 -22 -29
-91 -41 -170 -2 -14 -4 -4 -5 21 -1 58 14 143 34 182 8 17 13 33 10 35 -11 11
-29 -19 -51 -85 -26 -76 -32 -58 -10 28 8 31 34 83 57 116 35 52 39 63 30 82
-15 27 -23 27 -61 -5z"/>
<path d="M3377 4090 c-15 -16 -45 -42 -68 -57 -23 -15 -36 -29 -30 -31 6 -2
23 4 37 13 14 9 28 15 30 12 8 -7 -60 -44 -95 -52 -17 -3 -33 -11 -36 -16 -4
-5 -15 -9 -26 -9 -10 0 -19 -4 -19 -10 0 -5 -13 -10 -30 -10 -16 0 -30 -4 -30
-9 0 -5 -10 -7 -22 -3 -17 4 -20 2 -15 -11 5 -14 1 -14 -44 1 -35 13 -56 27
-74 54 -14 20 -25 42 -25 49 0 6 -6 9 -14 6 -8 -3 -33 -11 -56 -18 -48 -15
-55 -25 -41 -62 7 -18 7 -27 -2 -30 -7 -3 -1 -10 13 -16 l25 -12 -25 7 c-63
15 -157 33 -175 33 -18 0 -19 0 -2 -10 17 -10 108 -35 137 -38 8 -1 44 -3 80
-5 36 -2 78 -7 94 -11 23 -6 27 -5 21 5 -6 10 -2 12 16 7 29 -9 213 14 202 24
-5 4 -19 10 -33 12 -18 4 -16 5 10 5 57 -1 72 1 65 12 -3 6 2 10 12 10 11 0
28 7 39 15 18 15 17 16 -16 10 -26 -4 -30 -3 -15 4 11 5 30 10 43 10 27 1 83
52 64 59 -7 2 3 17 24 37 20 19 33 39 29 45 -10 16 -20 12 -48 -20z"/>
<path d="M2147 4092 c-16 -17 -15 -20 17 -51 36 -35 61 -36 73 -6 6 17 -42 75
-62 75 -7 0 -19 -8 -28 -18z"/>
<path d="M1203 4057 c-28 -30 -73 -111 -73 -129 0 -9 6 -21 14 -27 8 -7 20
-34 26 -61 12 -50 61 -130 80 -130 6 0 -5 23 -25 51 -19 28 -35 57 -35 64 0 7
-3 20 -6 29 -3 9 -1 16 5 16 6 0 14 -12 17 -27 11 -43 42 -100 58 -106 21 -8
29 8 11 23 -16 13 -58 120 -51 128 5 5 26 -41 26 -57 0 -5 23 -44 51 -87 60
-92 66 -104 47 -104 -8 0 -15 -6 -16 -12 0 -7 -3 -25 -6 -40 -7 -30 4 -35 123
-59 49 -9 66 -10 69 -1 3 9 7 9 17 -1 86 -81 125 -121 125 -127 0 -4 -25 -10
-55 -13 -68 -7 -75 -11 -75 -45 1 -61 35 -72 145 -50 57 11 59 11 80 -14 17
-19 29 -25 49 -21 39 8 46 27 7 21 -17 -2 -31 -1 -31 4 0 4 5 8 12 8 6 0 1 11
-12 25 -27 29 -21 32 15 9 13 -9 30 -14 37 -12 7 3 -2 13 -22 23 -152 79 -490
444 -490 531 0 25 -15 33 -23 12 -3 -7 -6 0 -6 15 -1 16 -5 26 -10 23 -15 -10
7 -110 32 -146 10 -13 9 -13 -5 0 -8 8 -27 47 -42 85 l-27 70 19 43 c23 50 20
70 -12 94 -22 16 -24 16 -43 -5z m221 -406 l21 -24 -30 7 c-16 4 -30 8 -31 9
0 1 -13 27 -27 57 -42 91 -41 109 4 40 23 -36 51 -76 63 -89z"/>
<path d="M3037 4053 c-15 -15 -6 -63 13 -73 21 -11 64 -4 58 8 -29 59 -54 82
-71 65z"/>
<path d="M1376 4024 c-17 -12 -18 -19 -7 -70 13 -69 23 -82 57 -78 51 5 58 24
32 89 -25 63 -51 82 -82 59z"/>
<path d="M1918 3959 c-14 -8 -15 -14 -6 -34 12 -28 37 -40 51 -26 6 6 3 20 -9
40 -15 23 -23 28 -36 20z"/>
<path d="M2160 3895 c0 -3 18 -31 39 -63 22 -31 47 -76 56 -99 18 -44 42 -61
30 -20 -12 36 -67 140 -89 165 -18 20 -36 29 -36 17z"/>
<path d="M1625 3846 c-20 -67 -28 -162 -15 -185 5 -11 28 -25 50 -31 48 -13
99 6 120 45 16 30 8 111 -15 155 -15 30 -18 31 -76 29 -34 -1 -62 -7 -64 -13z"/>
<path d="M2104 3835 c-16 -24 -15 -27 0 -44 11 -12 13 -20 6 -23 -8 -2 -8 -11
1 -33 7 -17 14 -95 16 -182 2 -84 7 -153 11 -153 4 0 10 39 13 87 5 80 5 83 7
26 2 -49 5 -63 17 -63 8 0 15 -6 15 -14 0 -22 16 -27 44 -15 23 11 26 18 26
67 0 49 -2 54 -20 49 -18 -5 -20 0 -20 45 0 77 -18 47 -26 -45 l-8 -82 -8 100
c-3 55 -9 115 -12 133 -4 28 -1 34 20 42 31 12 30 26 -3 75 -42 63 -54 68 -79
30z"/>
<path d="M1110 3833 c0 -67 34 -184 89 -304 34 -73 68 -140 77 -150 9 -10 17
-35 19 -55 1 -20 9 -42 18 -48 8 -7 22 -28 30 -49 15 -36 46 -55 33 -20 -4 9
-9 35 -12 58 -6 39 10 69 62 119 22 21 -25 116 -58 116 -4 0 -27 -17 -50 -37
-26 -24 -43 -33 -45 -26 -3 7 -24 53 -48 103 -24 49 -58 138 -76 197 -34 116
-39 128 -39 96z m207 -510 c-3 -10 -5 -4 -5 12 0 17 2 24 5 18 2 -7 2 -21 0
-30z"/>
<path d="M1483 3800 c-29 -50 -29 -64 2 -84 32 -21 38 -17 60 39 16 44 16 47
-1 66 -25 28 -36 24 -61 -21z"/>
<path d="M1391 3779 c-1 -9 12 -34 29 -55 16 -22 44 -58 62 -82 83 -110 264
-264 378 -322 78 -40 62 -14 -21 34 -116 68 -336 280 -431 417 -13 18 -17 20
-17 8z"/>
<path d="M1973 3768 c-31 -10 -32 -12 -27 -57 15 -116 44 -166 95 -159 25 4
26 3 22 -41 -7 -71 -10 -75 -35 -47 -30 32 -58 22 -93 -33 -43 -70 -27 -108
42 -96 21 3 43 9 48 13 16 11 48 84 52 117 2 17 7 53 12 80 8 46 9 43 10 -42
1 -55 5 -93 11 -93 17 0 12 197 -7 256 -28 91 -67 121 -130 102z"/>
<path d="M2460 3743 c-18 -8 -46 -39 -66 -76 -12 -22 -13 -32 -3 -43 17 -21
72 -17 98 7 19 18 22 28 17 62 -10 58 -14 62 -46 50z m26 -59 c5 -26 1 -33
-21 -48 -25 -16 -29 -16 -43 -2 -14 14 -13 19 12 57 30 44 42 43 52 -7z"/>
<path d="M1206 3674 c-13 -35 -7 -54 19 -54 18 0 28 7 35 26 6 14 8 30 4 35
-9 15 -51 10 -58 -7z"/>
<path d="M1767 3588 c-12 -6 -17 -22 -17 -53 0 -37 4 -47 26 -62 31 -20 54
-10 69 31 17 50 -36 108 -78 84z"/>
<path d="M2544 3433 c-32 -6 -102 -70 -124 -113 -29 -56 -11 -57 21 -1 16 27
43 59 61 72 l33 23 -21 -25 c-26 -29 -40 -69 -25 -69 6 0 11 4 11 9 0 19 88
40 183 43 l98 4 -43 -17 c-24 -10 -35 -18 -25 -18 10 -1 33 6 52 13 40 17 44
10 14 -23 -12 -12 -18 -25 -14 -29 9 -9 62 57 70 87 8 32 -2 39 -21 13 -13
-20 -42 -33 -31 -14 3 4 -50 4 -116 1 -67 -3 -123 -5 -124 -4 -1 0 16 13 39
28 42 27 42 27 13 26 -17 -1 -40 -4 -51 -6z"/>
<path d="M2098 3394 c-5 -4 -8 -16 -8 -28 0 -14 3 -17 11 -9 6 6 9 19 7 28 -1
9 -6 13 -10 9z"/>
<path d="M2085 3326 l-40 -34 40 -41 c21 -23 47 -41 58 -41 31 0 57 20 57 43
-1 23 -48 98 -65 104 -5 1 -28 -13 -50 -31z"/>
<path d="M2552 3327 c-23 -24 -20 -37 8 -37 20 0 63 43 53 53 -13 14 -40 7
-61 -16z"/>
<path d="M2675 3312 c-10 -7 -55 -115 -55 -132 0 -14 84 2 98 18 6 9 12 40 12
69 0 48 -2 53 -22 53 -13 0 -28 -4 -33 -8z"/>
<path d="M1818 3241 c-42 -37 -30 -53 12 -17 20 16 44 26 63 26 24 0 28 3 17
10 -27 17 -59 11 -92 -19z"/>
<path d="M2494 3172 c-10 -7 -34 -65 -34 -83 0 -16 57 -9 73 9 30 33 -4 99
-39 74z"/>
<path d="M1711 3161 c-10 -7 -12 -21 -7 -55 7 -44 8 -46 39 -42 38 4 43 19 22
69 -15 37 -28 44 -54 28z"/>
<path d="M2044 3015 c-28 -32 -30 -37 -17 -55 19 -27 51 -22 76 12 19 25 19
28 3 52 -9 14 -20 26 -24 25 -4 0 -21 -16 -38 -34z"/>
<path d="M1772 3000 c-18 -11 -30 -25 -27 -31 5 -7 13 -5 24 5 25 23 48 20 47
-6 -1 -14 8 -27 24 -35 24 -13 23 -14 -20 -11 -25 1 -45 -2 -45 -8 0 -5 22 -9
49 -9 35 1 52 6 62 20 19 26 18 28 -15 64 -34 36 -54 38 -99 11z m112 -59 c-2
-3 -12 3 -22 13 -16 17 -16 18 5 5 12 -7 20 -15 17 -18z"/>
<path d="M2165 2959 c-4 -6 -5 -13 -2 -16 7 -7 27 6 27 18 0 12 -17 12 -25 -2z"/>
<path d="M2294 2802 c-12 -8 -84 -152 -84 -168 0 -15 40 -31 66 -26 15 2 32
23 53 66 33 64 33 83 3 119 -17 19 -22 20 -38 9z"/>
<path d="M1623 2529 c-14 -14 -18 -50 -5 -47 17 5 51 -15 66 -37 20 -30 61
-33 76 -6 16 30 13 36 -30 65 -49 32 -91 42 -107 25z"/>
<path d="M1482 2402 c-2 -46 -1 -48 31 -60 35 -12 99 -16 109 -6 3 3 3 17 -1
31 -5 18 -24 36 -57 54 -71 40 -79 38 -82 -19z m111 -20 c30 -26 20 -35 -33
-30 -28 3 -53 7 -55 10 -3 2 1 18 7 35 11 30 12 31 37 15 14 -9 34 -22 44 -30z"/>
<path d="M1225 2239 c-29 -26 -38 -29 -50 -19 -10 8 -15 9 -15 2 0 -6 4 -13 9
-16 14 -9 -66 -123 -107 -153 -55 -40 -58 -43 -39 -43 22 0 94 65 112 101 10
19 20 26 33 22 13 -3 28 6 48 30 16 18 44 42 62 53 47 27 39 38 -10 13 -24
-11 -58 -37 -76 -57 -19 -20 -29 -28 -23 -16 10 21 72 79 107 101 17 10 17 12
2 12 -10 1 -33 -13 -53 -30z"/>
<path d="M3720 2182 c0 -4 13 -18 30 -30 16 -13 29 -26 29 -30 -3 -16 14 -73
23 -78 19 -12 -4 81 -26 104 -24 28 -56 47 -56 34z"/>
<path d="M1418 2150 c-3 -20 0 -30 9 -30 8 0 13 12 13 30 0 17 -4 30 -9 30 -5
0 -11 -13 -13 -30z"/>
<path d="M3690 2129 c0 -32 34 -74 51 -63 6 3 8 19 5 35 -4 23 -2 27 12 22 16
-5 16 -5 0 12 -9 10 -28 19 -42 20 -23 3 -26 0 -26 -26z"/>
</g>
</svg>
