<?xml version="1.0" standalone="no"?>
<!DOCTYPE svg PUBLIC "-//W3C//DTD SVG 20010904//EN"
 "http://www.w3.org/TR/2001/REC-SVG-20010904/DTD/svg10.dtd">
<svg version="1.0" xmlns="http://www.w3.org/2000/svg"
 width="495.970802pt" height="580.697360pt" viewBox="0 0 495.970802 580.697360"
 preserveAspectRatio="xMidYMid meet">
<metadata>
Created by potrace 1.16, written by Peter Selinger 2001-2019
</metadata>
<g transform="translate(-6.862501,590.865435) scale(0.100000,-0.100000)"
fill="#000000" stroke="none">
<path d="M2421 5899 c-13 -5 -40 -22 -60 -38 -36 -28 -39 -29 -156 -29 -99 1
-137 -4 -215 -25 -91 -25 -229 -75 -267 -96 -10 -6 -40 -20 -68 -32 -27 -12
-90 -41 -140 -64 -49 -23 -119 -56 -155 -73 -103 -48 -112 -63 -123 -190 -5
-59 -12 -114 -16 -122 -4 -8 -34 -21 -67 -28 -152 -33 -219 -63 -289 -129 -90
-84 -156 -181 -255 -370 -14 -26 -28 -50 -31 -53 -4 -3 -12 -31 -18 -62 -9
-44 -9 -66 0 -97 15 -50 8 -67 -28 -74 -41 -8 -116 -78 -132 -123 -8 -22 -17
-41 -21 -44 -9 -7 -42 -79 -85 -185 -20 -49 -40 -99 -45 -110 -22 -50 -70
-206 -81 -265 -6 -36 -15 -74 -20 -85 -12 -29 -30 -193 -36 -332 -5 -110 -3
-130 21 -213 14 -50 26 -95 26 -100 0 -4 -15 -18 -34 -29 -79 -49 -77 -160 9
-356 67 -154 78 -225 50 -321 -27 -91 -24 -149 7 -181 15 -14 43 -29 64 -32
l37 -6 24 -95 c23 -92 24 -118 7 -214 l-7 -39 34 6 c19 4 46 10 60 13 23 5 27
2 33 -26 3 -18 6 -49 6 -69 0 -20 7 -58 15 -84 27 -90 251 -404 374 -525 43
-42 87 -95 98 -117 11 -22 28 -85 37 -140 19 -109 82 -355 94 -367 20 -19 61
-19 81 1 18 18 21 33 21 104 -1 45 -7 136 -14 202 -8 66 -13 122 -11 124 10 9
26 -15 39 -59 15 -52 59 -122 104 -168 36 -37 136 -112 149 -112 6 0 16 -6 22
-14 16 -19 256 -178 306 -203 62 -31 131 -50 243 -69 105 -17 136 -16 327 6
l111 14 70 -42 c39 -24 93 -46 124 -52 99 -19 611 -2 634 21 6 5 24 9 42 9 48
0 200 48 294 93 32 16 48 31 55 52 19 55 96 184 113 189 9 3 43 9 74 15 80 14
128 49 201 142 34 45 99 127 145 182 45 56 88 115 96 132 48 104 66 150 90
230 15 50 34 115 43 145 14 44 30 68 82 120 47 46 79 90 111 152 24 48 57 97
72 108 23 17 28 28 28 64 0 26 13 72 33 119 35 81 61 117 84 117 7 0 13 4 13
8 0 5 19 15 43 23 57 19 105 64 113 107 4 19 0 75 -10 126 -9 52 -16 144 -16
212 0 103 4 127 25 179 31 75 31 90 0 131 l-25 33 12 153 c13 175 12 474 -3
597 -9 80 -32 140 -89 241 -16 28 -20 53 -20 129 0 77 -8 126 -45 280 -74 301
-103 376 -186 482 -54 67 -75 86 -176 156 l-83 57 0 52 c0 56 -28 135 -60 169
-10 11 -23 32 -28 46 -12 31 -140 186 -179 216 -15 12 -59 47 -98 78 -109 87
-306 175 -393 175 -37 0 -58 16 -75 59 -18 44 -50 67 -158 111 -102 42 -174
57 -335 69 -176 14 -295 14 -366 1 -44 -8 -72 -7 -130 5 -83 17 -113 18 -147
4z m564 -178 c178 -25 276 -53 322 -94 50 -44 66 -88 66 -187 2 -143 -53 -231
-159 -256 -52 -12 -167 -3 -359 26 -38 6 -122 15 -185 20 -142 11 -171 21
-204 69 -20 29 -26 49 -26 94 0 133 76 298 153 333 37 17 258 14 392 -5z
m-815 -67 c49 -20 85 -75 124 -194 27 -81 27 -87 13 -121 -17 -39 -51 -60
-172 -104 -76 -28 -150 -73 -229 -140 -38 -33 -79 -54 -141 -75 -119 -40 -163
-27 -269 77 -90 90 -105 110 -116 157 -11 48 10 78 105 154 132 107 272 187
420 240 73 26 206 29 265 6z m1566 -189 c10 -8 26 -15 34 -15 31 -1 132 -94
209 -193 44 -56 97 -120 118 -143 86 -92 99 -115 108 -190 9 -72 -3 -140 -31
-173 -32 -39 -126 -71 -204 -71 l-64 0 -166 166 c-150 148 -176 170 -251 207
-99 49 -103 59 -69 168 51 170 134 257 246 258 29 1 58 -5 70 -14z m-886 -356
c255 -36 344 -57 388 -89 38 -28 46 -49 43 -113 -2 -57 -22 -117 -106 -327
-35 -85 -75 -192 -90 -237 -27 -84 -73 -156 -123 -192 -26 -18 -39 -20 -113
-14 -57 3 -151 -2 -294 -18 -115 -13 -250 -24 -300 -24 -110 0 -138 14 -184
92 -30 50 -71 180 -71 228 0 20 -71 311 -90 370 -57 176 -55 188 35 236 52 28
242 76 430 109 71 13 317 2 475 -21z m-1510 -44 c60 -30 84 -55 117 -119 22
-43 24 -58 19 -105 -8 -63 -14 -75 -105 -186 -118 -145 -200 -224 -240 -232
-32 -6 -338 21 -383 33 -37 11 -12 118 47 199 12 17 25 37 28 45 4 8 15 27 25
41 9 14 30 45 45 69 36 53 187 205 246 248 59 42 128 44 201 7z m2330 -292
c157 -144 176 -169 261 -333 24 -47 61 -111 82 -143 42 -64 86 -157 111 -232
13 -43 58 -236 73 -315 3 -14 14 -72 25 -130 11 -58 24 -127 29 -155 4 -27 13
-77 18 -110 24 -135 9 -165 -81 -165 -64 0 -280 60 -433 120 -36 14 -102 30
-126 30 -60 2 -145 80 -212 196 -37 65 -116 205 -157 279 -18 33 -53 89 -77
124 -64 93 -77 153 -58 266 19 108 55 183 167 342 45 65 98 148 116 183 40 80
79 110 143 110 42 0 51 -5 119 -67z m-1927 -7 c26 -28 85 -207 122 -376 15
-63 30 -124 35 -135 5 -11 11 -36 14 -55 3 -19 12 -64 22 -100 36 -142 38
-132 -73 -420 -45 -117 -93 -210 -129 -250 -35 -38 -126 -90 -159 -90 -36 0
-157 -46 -275 -105 -140 -69 -221 -95 -248 -79 -47 30 -39 167 28 464 23 102
46 208 50 235 10 54 32 170 48 250 18 88 35 139 54 167 10 14 18 29 18 33 0
23 211 291 312 396 89 93 139 111 181 65z m2637 -97 c62 -13 107 -50 161 -132
21 -32 39 -61 39 -63 0 -3 11 -29 24 -57 37 -80 94 -230 106 -279 5 -24 10
-66 10 -94 l0 -51 -74 5 c-73 4 -76 4 -105 -26 -23 -22 -31 -40 -31 -65 0 -45
-18 -94 -36 -101 -21 -8 -83 26 -120 66 -23 24 -45 73 -84 188 -29 85 -58 169
-65 185 -8 17 -26 62 -40 100 -15 39 -33 84 -41 102 -25 55 -18 101 20 137 46
43 55 49 101 68 76 32 71 31 135 17z m-3442 -355 c18 -9 53 -36 78 -61 45 -45
46 -46 41 -102 -6 -61 -16 -114 -41 -206 -28 -101 -45 -166 -65 -255 -11 -47
-27 -114 -36 -150 -40 -158 -45 -184 -54 -271 -3 -36 -13 -74 -21 -85 -43 -56
-95 -72 -105 -31 -3 12 -12 67 -20 122 -7 55 -24 161 -35 235 -13 76 -22 179
-22 235 1 119 -14 194 -42 217 -13 10 -38 18 -63 18 -23 0 -44 4 -48 9 -16 27
64 178 132 248 94 97 199 124 301 77z m2039 -314 c26 -12 44 -38 96 -140 35
-69 76 -147 92 -175 36 -64 181 -296 195 -312 5 -7 10 -15 10 -19 0 -4 8 -16
17 -26 14 -15 17 -38 16 -119 0 -55 -5 -110 -11 -122 -6 -12 -22 -47 -36 -77
-14 -30 -42 -76 -63 -102 -113 -141 -133 -168 -145 -194 -7 -16 -27 -44 -45
-61 l-32 -33 -451 0 c-434 0 -452 1 -491 20 -32 17 -46 33 -69 83 -15 34 -44
96 -63 137 -67 144 -157 378 -157 408 0 37 13 69 106 260 74 150 134 294 134
319 0 34 81 126 129 146 37 15 231 24 501 23 186 -1 242 -4 267 -16z m1759
-101 c13 -12 24 -32 24 -44 0 -35 -21 -86 -34 -81 -12 5 -105 34 -146 46 -32
9 -36 30 -14 76 l17 36 64 -5 c49 -4 70 -10 89 -28z m-4181 -3 c38 -16 48 -40
43 -102 -2 -29 -7 -38 -18 -35 -8 2 -46 4 -84 5 -67 1 -70 2 -79 29 -5 15 -6
43 -3 60 5 26 13 35 39 44 46 15 63 15 102 -1z m4102 -182 c26 -35 -20 -65
-74 -47 -58 20 -29 80 32 68 17 -3 35 -12 42 -21z m-4237 -31 c0 -9 4 -30 9
-47 6 -17 24 -125 41 -241 17 -115 35 -228 40 -250 5 -22 6 -43 2 -47 -4 -4
-40 -10 -79 -12 -66 -5 -73 -3 -97 21 -28 28 -31 45 -27 183 3 74 60 343 83
388 13 26 28 29 28 5z m154 -2 c7 -11 -17 -21 -50 -21 -25 0 -33 15 -11 23 20
9 55 8 61 -2z m3911 -18 c-3 -16 -10 -44 -15 -63 -5 -19 -16 -71 -25 -115 -9
-44 -18 -90 -21 -102 -2 -13 -9 -23 -15 -23 -7 0 -10 44 -7 139 3 131 4 141
27 165 14 14 33 26 43 26 15 0 17 -5 13 -27z m308 -40 c13 -21 27 -51 30 -68
3 -16 11 -52 16 -80 53 -264 44 -472 -25 -544 -20 -22 -33 -25 -126 -29 -80
-3 -106 -1 -115 9 -14 17 -3 80 39 234 17 61 34 126 38 145 5 19 20 78 34 130
15 52 31 118 37 145 10 46 33 95 44 95 3 0 15 -17 28 -37z m-4187 -24 c10 -17
-21 -41 -57 -42 -28 -2 -34 2 -34 18 0 27 76 48 91 24z m4002 2 c29 -1 32 -4
32 -30 0 -34 -14 -41 -68 -34 -29 4 -42 11 -45 25 -8 30 3 48 26 44 12 -3 37
-5 55 -5z m-3988 -107 c0 -34 -20 -54 -55 -54 -48 0 -49 35 -2 55 42 19 57 18
57 -1z m3980 -29 c6 -8 10 -22 8 -32 -3 -14 -12 -18 -48 -16 -46 2 -60 14 -53
44 7 24 74 27 93 4z m-3963 -91 c9 -23 -25 -46 -62 -42 -22 2 -30 8 -30 23 0
14 9 22 30 26 49 11 55 10 62 -7z m3931 -29 c6 -3 12 -14 12 -25 0 -16 -7 -20
-31 -20 -41 0 -69 16 -69 41 0 17 5 19 38 14 20 -4 43 -8 50 -10z m-3912 -97
c-8 -39 -4 -36 -54 -44 -42 -7 -42 -6 -42 24 0 36 20 51 69 52 32 0 33 -1 27
-32z m3892 -30 c3 -26 1 -28 -35 -28 -45 0 -63 13 -56 41 5 17 13 19 47 17 36
-3 41 -6 44 -30z m-3878 -78 c0 -21 -32 -46 -65 -52 -16 -2 -20 3 -20 22 0 20
8 28 35 37 48 16 50 16 50 -7z m3189 -20 c151 -65 319 -180 309 -213 -2 -7
-24 -22 -48 -34 -126 -64 -185 -101 -229 -146 -55 -55 -73 -60 -291 -76 -259
-20 -320 -21 -320 -6 0 7 4 15 8 17 9 4 67 98 110 178 94 178 140 253 174 279
62 49 173 49 287 1z m-2199 10 c21 -11 47 -32 57 -47 17 -25 81 -161 120 -253
8 -19 28 -63 44 -98 16 -34 29 -69 29 -77 0 -13 -30 -14 -222 -9 -123 3 -245
10 -271 15 -26 5 -90 9 -141 9 l-93 0 -79 61 c-44 33 -81 63 -83 65 -4 4 43
66 89 117 49 55 171 135 260 172 165 67 227 77 290 45z m2858 -8 c25 -17 2
-42 -38 -42 -41 0 -55 11 -46 35 6 16 62 20 84 7z m-3823 -99 c-6 -27 -12 -33
-48 -54 -26 -15 -57 -2 -57 25 0 17 10 27 38 39 60 24 75 22 67 -10z m3789 -9
c22 -8 20 -41 -3 -49 -29 -9 -71 12 -71 35 0 15 7 20 29 20 16 0 36 -3 45 -6z
m-3956 -66 c7 -7 12 -35 12 -64 0 -42 -5 -56 -26 -77 -33 -34 -86 -51 -130
-42 -43 8 -74 53 -74 108 0 43 9 48 115 71 80 18 89 18 103 4z m184 -75 c-4
-22 -9 -24 -51 -21 -38 2 -47 7 -49 24 -2 17 6 24 45 36 43 14 49 14 54 0 3
-9 3 -26 1 -39z m3728 32 c22 -12 23 -14 7 -20 -17 -7 -47 10 -47 26 0 12 11
11 40 -6z m-58 -76 c126 -27 286 -138 356 -248 31 -49 35 -61 35 -130 1 -92
-8 -121 -87 -281 -60 -123 -61 -127 -61 -207 0 -46 -3 -83 -7 -83 -18 0 -40
68 -41 124 -1 56 4 71 66 191 69 135 92 211 81 274 -20 123 -122 217 -290 267
-92 28 -280 25 -359 -6 -65 -25 -155 -107 -155 -141 0 -10 -4 -19 -9 -19 -10
0 -37 -210 -45 -348 -6 -98 -18 -132 -60 -171 -37 -34 -42 -20 -12 32 34 62
46 126 56 297 6 107 14 160 29 201 45 118 179 208 366 245 79 16 76 16 137 3z
m-3539 -55 c109 -25 173 -60 252 -139 113 -111 110 -103 111 -295 0 -134 4
-182 22 -257 26 -109 27 -125 6 -98 -32 40 -57 114 -70 200 -1 11 2 64 8 118
9 76 8 109 -2 152 -20 83 -85 171 -173 235 -42 30 -58 35 -118 38 -109 7 -248
-14 -321 -47 -118 -53 -206 -157 -227 -267 -11 -55 4 -135 37 -206 35 -75 82
-248 82 -305 0 -76 -14 -61 -35 38 -20 95 -50 198 -75 257 -66 151 -71 186
-44 278 20 69 77 141 156 197 86 60 142 87 213 102 80 18 94 18 178 -1z m3995
-152 c2 -24 -1 -32 -13 -32 -17 0 -39 46 -29 61 13 21 39 3 42 -29z m-294 -25
c37 -21 86 -70 86 -88 0 -23 -16 -33 -80 -54 -63 -20 -93 -41 -69 -49 8 -3 48
-7 89 -8 l75 -3 -3 -35 c-3 -35 -9 -50 -71 -165 -51 -96 -77 -112 -206 -135
-33 -5 -91 -17 -130 -25 -76 -17 -336 -55 -373 -55 -23 0 -23 1 7 25 49 42 74
158 87 410 6 115 7 120 36 146 35 33 58 37 278 48 176 9 240 6 274 -12z
m-3754 -12 c80 -4 169 -11 198 -17 98 -21 116 -82 106 -341 l-7 -169 -41 6
c-23 2 -84 12 -136 20 -52 9 -157 20 -232 25 -75 5 -149 15 -163 23 -42 20
-67 94 -68 203 l-2 90 40 -2 c234 -13 442 -18 450 -11 5 5 5 12 -2 19 -15 15
-232 67 -340 81 -51 7 -93 15 -93 18 0 32 75 72 120 65 14 -2 90 -7 170 -10z
m3004 -33 c3 -5 1 -53 -4 -108 -24 -270 -22 -259 -80 -377 -58 -117 -49 -113
-251 -119 -240 -8 -1323 8 -1494 21 -77 6 -183 16 -235 21 -52 5 -140 13 -195
16 -137 8 -198 20 -213 44 -27 44 -35 111 -36 304 l-1 198 95 -7 c166 -13 406
-24 700 -34 157 -5 353 -12 435 -15 678 -26 893 -17 1185 50 67 15 87 16 94 6z
m1071 -274 c4 -35 5 -79 3 -98 -3 -35 -3 -35 -57 -38 -41 -2 -52 0 -48 10 2 7
18 45 35 83 17 39 33 78 36 88 11 35 25 15 31 -45z m-4179 -299 c42 -11 44
-13 44 -49 0 -31 -4 -39 -22 -44 -83 -22 -178 19 -178 76 0 27 1 28 56 28 30
0 75 -5 100 -11z m193 -42 c5 -13 25 -122 45 -243 20 -120 41 -241 46 -269 6
-27 15 -81 20 -120 6 -38 15 -90 19 -115 10 -54 39 -224 51 -300 20 -132 31
-198 40 -238 12 -51 13 -160 2 -147 -18 22 -67 203 -77 288 -4 31 -11 60 -16
63 -5 3 -9 21 -9 40 0 19 -6 65 -14 102 -8 37 -22 108 -31 157 -9 50 -20 108
-25 130 -5 22 -16 81 -25 130 -9 50 -20 110 -25 135 -5 25 -23 121 -40 214
-18 93 -34 175 -37 182 -4 10 4 14 31 14 29 0 38 -5 45 -23z m3637 -42 c12
-33 28 -74 35 -91 11 -27 9 -36 -12 -79 -35 -70 -87 -122 -131 -130 -39 -7
-171 25 -183 45 -9 15 58 272 77 295 10 12 89 23 148 21 l44 -1 22 -60z m-300
32 c2 -7 -7 -53 -21 -102 -14 -50 -29 -106 -35 -125 -5 -19 -21 -73 -34 -120
-14 -47 -34 -119 -45 -160 -11 -41 -28 -104 -39 -140 -11 -36 -23 -76 -26 -90
-4 -14 -18 -68 -32 -120 -14 -52 -32 -117 -39 -145 -35 -129 -91 -303 -105
-325 -38 -61 -10 102 85 485 40 160 58 240 112 475 64 283 80 333 110 357 31
25 61 30 69 10z m-271 -26 c15 -25 -118 -254 -201 -348 -115 -131 -197 -120
-298 41 -34 53 -81 167 -92 222 -7 38 -15 36 231 59 99 9 207 20 240 24 87 12
113 12 120 2z m-2222 -28 c152 -4 210 -10 214 -19 2 -6 -1 -38 -7 -71 -7 -32
-16 -78 -21 -103 -40 -217 -52 -245 -111 -261 -76 -20 -182 29 -288 134 -62
61 -80 83 -171 207 l-40 55 63 5 c66 5 70 10 52 54 -7 18 -4 19 47 12 30 -3
148 -9 262 -13z m1449 -41 c9 -9 24 -62 74 -267 24 -98 34 -175 34 -266 0 -81
-1 -87 -27 -109 -16 -13 -47 -40 -70 -61 -71 -65 -224 -101 -506 -120 -173
-11 -224 -9 -385 17 -132 22 -200 55 -293 146 -41 40 -50 54 -44 71 4 12 10
74 15 137 7 104 12 126 54 233 26 65 50 133 53 150 9 47 31 75 61 80 55 10
1024 -1 1034 -11z m-2122 -43 c68 -21 142 -63 177 -101 12 -13 40 -56 63 -97
23 -41 67 -107 97 -148 43 -59 56 -85 65 -133 12 -72 -2 -142 -35 -176 -100
-99 -271 -124 -311 -45 -19 36 -67 278 -110 561 -8 47 -17 102 -21 123 -4 20
-3 37 1 37 5 0 38 -9 74 -21z m-267 -71 c8 -57 48 -262 57 -293 5 -16 12 -56
16 -88 l6 -58 -49 53 c-142 152 -192 236 -165 278 7 11 12 29 12 40 0 11 5 20
10 20 6 0 10 6 10 14 0 19 57 66 80 66 13 0 19 -10 23 -32z m3197 -159 c-12
-52 -26 -104 -31 -117 -5 -13 -9 -36 -9 -53 0 -16 -4 -37 -9 -47 -8 -15 -23
-73 -65 -252 -45 -188 -96 -364 -112 -381 -25 -28 -67 -18 -102 23 -73 87
-168 241 -173 283 -4 30 11 85 33 126 15 27 36 44 80 64 96 44 152 107 263
290 28 45 59 93 70 106 22 27 67 61 72 55 2 -2 -6 -46 -17 -97z m261 -95 c25
-34 31 -52 36 -125 6 -93 -2 -118 -67 -204 -48 -65 -113 -165 -153 -237 -35
-62 -53 -85 -62 -76 -3 3 11 58 40 158 10 30 19 69 22 85 2 17 8 39 13 50 5
11 20 63 34 115 14 52 27 102 29 110 3 8 15 50 28 93 26 89 36 93 80 31z
m-2259 -447 c106 -52 214 -105 241 -117 66 -30 102 -78 117 -153 6 -34 16 -84
21 -110 18 -93 4 -248 -26 -298 -14 -21 -59 -28 -198 -31 -165 -3 -155 -7
-288 117 -72 68 -136 107 -224 138 -87 31 -182 83 -224 121 l-43 41 4 70 c9
137 60 225 160 276 75 39 120 49 195 45 68 -3 83 -8 265 -99z m1369 -118 c51
-18 77 -46 115 -128 69 -149 77 -208 43 -316 -20 -65 -22 -67 -73 -90 -154
-68 -494 -115 -691 -95 -147 15 -178 24 -220 67 -34 36 -35 37 -35 122 0 144
21 297 44 326 33 40 219 95 401 118 74 10 384 6 416 -4z"/>
</g>
</svg>
