<?xml version="1.0" standalone="no"?>
<!DOCTYPE svg PUBLIC "-//W3C//DTD SVG 20010904//EN"
 "http://www.w3.org/TR/2001/REC-SVG-20010904/DTD/svg10.dtd">
<svg version="1.0" xmlns="http://www.w3.org/2000/svg"
 width="174.571766pt" height="159.035743pt" viewBox="0 0 174.571766 159.035743"
 preserveAspectRatio="xMidYMid meet">
<metadata>
Created by potrace 1.16, written by Peter Selinger 2001-2019
</metadata>
<g transform="translate(-28.159550,193.035743) scale(0.100000,-0.100000)"
fill="#000000" stroke="none">
<path d="M1119 1888 l-1 -43 -16 37 c-20 45 -29 47 -43 11 -6 -16 -15 -39 -20
-51 l-9 -24 -55 31 c-30 17 -58 31 -61 31 -3 0 -4 -11 -2 -25 5 -22 3 -23 -16
-13 -12 6 -33 19 -48 29 -33 24 -52 25 -43 2 4 -10 11 -30 15 -46 l9 -27 -30
21 c-36 25 -43 21 -29 -15 16 -43 12 -47 -22 -26 -49 30 -62 26 -43 -10 18
-34 11 -37 -42 -15 -20 8 -38 13 -41 11 -2 -3 6 -21 18 -41 12 -20 21 -38 18
-40 -2 -2 -23 1 -47 6 -51 11 -61 6 -38 -19 26 -28 21 -32 -40 -32 l-57 0 32
-33 c18 -18 32 -36 32 -39 0 -3 -34 -9 -75 -13 -41 -4 -75 -11 -75 -15 0 -5
13 -17 30 -27 39 -22 38 -33 -2 -33 -18 0 -40 -5 -48 -10 -12 -7 -8 -12 19
-23 l34 -14 -44 -15 -44 -15 28 -13 c15 -7 27 -16 27 -19 0 -4 -16 -15 -35
-25 -40 -22 -43 -29 -15 -42 19 -8 18 -12 -20 -54 -47 -54 -50 -70 -11 -70 45
0 46 -15 6 -70 -37 -51 -37 -54 3 -50 29 2 28 -3 -8 -55 -37 -53 -37 -65 -5
-65 31 0 31 -5 -1 -47 -30 -39 -25 -57 12 -42 25 9 26 8 21 -23 -2 -18 -10
-47 -18 -65 -17 -42 -9 -49 32 -24 19 12 37 21 41 21 3 0 0 -24 -8 -52 -7 -29
-14 -54 -14 -55 0 -1 12 -1 26 0 21 2 28 -4 37 -32 14 -42 32 -50 41 -19 8 24
10 21 20 -25 4 -17 13 -27 25 -27 19 0 30 -25 31 -65 0 -11 5 -27 10 -35 9
-13 13 -12 30 9 l20 23 0 -23 c0 -13 5 -31 10 -39 9 -13 13 -12 29 8 24 27 31
28 31 2 0 -28 25 -25 48 7 l20 28 12 -63 c7 -34 16 -62 21 -62 5 0 16 15 25
33 9 17 17 33 19 35 1 1 16 -5 33 -14 18 -9 41 -13 53 -9 14 5 28 0 43 -14
l23 -21 25 36 26 35 23 -37 c21 -35 23 -36 35 -18 41 61 39 60 77 42 53 -25
108 -33 117 -17 7 11 12 10 28 -4 24 -22 38 -21 69 3 31 25 47 25 98 0 39 -18
40 -18 43 1 2 11 11 19 22 19 10 0 20 7 23 14 4 10 24 16 59 18 50 3 54 5 64
36 l11 34 17 -26 c9 -14 21 -26 26 -26 5 0 12 27 16 60 6 55 9 60 30 60 18 0
24 6 24 22 0 20 1 20 18 5 30 -28 41 -21 35 23 -6 40 0 47 27 31 25 -16 29 -3
14 52 -20 77 -20 79 26 76 21 -2 42 -1 45 3 3 3 -2 23 -12 43 -14 29 -15 39
-5 42 18 7 15 24 -9 49 l-21 22 48 -1 c26 0 49 4 51 9 2 6 -10 26 -27 45 -31
36 -37 49 -20 49 5 0 8 23 5 54 -3 50 -2 55 17 58 36 5 31 23 -13 53 l-43 28
30 15 c16 8 31 16 33 18 3 2 -15 20 -38 40 -32 28 -39 39 -29 46 13 8 0 24
-42 48 -12 7 -12 11 -1 24 11 13 5 19 -46 43 -32 15 -60 29 -62 30 -1 1 9 17
23 36 30 38 23 47 -35 47 -26 0 -29 3 -23 24 5 21 0 24 -41 36 -36 10 -43 15
-31 22 24 13 19 28 -8 28 -13 0 -37 3 -54 6 -28 6 -30 9 -21 31 9 24 8 24 -22
18 -28 -6 -30 -5 -24 14 8 25 -5 27 -46 5 l-31 -15 2 28 c3 44 2 46 -26 28
l-27 -17 6 31 c7 34 1 34 -35 3 -17 -14 -18 -13 -18 10 0 14 -3 40 -6 57 l-7
31 -33 -37 -33 -38 -1 34 c0 29 -2 32 -16 20 -8 -7 -22 -25 -30 -41 -19 -36
-30 -30 -38 23 -7 44 -27 49 -36 8 l-6 -24 -18 28 c-26 38 -36 34 -37 -15z
m281 -485 c42 -26 81 -66 103 -108 18 -32 22 -57 22 -130 0 -78 -3 -97 -26
-140 -49 -93 -134 -137 -223 -114 -96 24 -154 108 -163 235 -13 170 91 296
227 277 19 -3 46 -12 60 -20z m-434 -69 c111 -57 148 -235 72 -349 -93 -140
-296 -116 -364 43 -23 53 -20 160 5 210 22 43 69 87 116 109 40 18 122 12 171
-13z"/>
<path d="M1223 1210 c-25 -10 -43 -39 -43 -69 0 -55 93 -84 124 -39 42 60 -14
135 -81 108z"/>
<path d="M949 1208 c-58 -19 -58 -106 -1 -126 29 -10 71 1 84 21 10 15 10 68
0 84 -13 20 -55 31 -83 21z"/>
</g>
</svg>
