<?xml version="1.0" standalone="no"?>
<!DOCTYPE svg PUBLIC "-//W3C//DTD SVG 20010904//EN"
 "http://www.w3.org/TR/2001/REC-SVG-20010904/DTD/svg10.dtd">
<svg version="1.0" xmlns="http://www.w3.org/2000/svg"
 width="468.982860pt" height="425.803659pt" viewBox="0 0 468.982860 425.803659"
 preserveAspectRatio="xMidYMid meet">
<metadata>
Created by potrace 1.16, written by Peter Selinger 2001-2019
</metadata>
<g transform="translate(-0.017140,426.000000) scale(0.100000,-0.100000)"
fill="#000000" stroke="none">
<path d="M2459 4209 c-121 -131 -268 -495 -345 -854 -25 -116 -28 -152 -30
-340 -2 -210 -2 -210 -32 -275 -16 -36 -41 -108 -56 -160 -25 -87 -88 -255
-101 -268 -3 -3 -34 15 -70 39 -52 35 -68 52 -77 82 -19 63 -63 81 -135 55
-59 -21 -61 -3 -14 122 23 62 41 119 39 127 -2 9 -15 24 -29 35 -24 18 -29 19
-124 3 -361 -58 -900 -238 -1280 -427 -186 -93 -205 -107 -205 -157 1 -117
109 -453 223 -691 50 -105 85 -150 117 -150 13 0 53 29 98 71 43 39 115 101
161 137 97 76 313 224 319 218 2 -3 -3 -40 -12 -83 -37 -182 -76 -438 -76
-493 0 -47 4 -64 20 -80 11 -11 24 -20 28 -20 4 0 81 41 171 91 90 50 165 88
168 86 2 -3 -8 -82 -23 -176 -22 -135 -25 -176 -16 -196 19 -42 54 -42 149 1
48 22 90 41 95 42 5 2 -12 -31 -38 -73 -70 -116 -98 -202 -98 -305 0 -70 5
-97 27 -149 15 -35 26 -65 24 -66 -134 -94 -179 -134 -218 -194 -41 -64 -38
-92 12 -125 53 -35 91 -41 176 -27 85 15 354 94 448 132 50 21 100 32 173 39
57 5 143 17 192 25 130 23 161 21 311 -18 76 -19 162 -38 193 -42 37 -5 72
-18 107 -41 29 -18 71 -36 93 -38 23 -3 140 -20 261 -37 233 -33 325 -34 370
-5 32 21 41 72 21 119 -14 35 -49 62 -182 142 -16 10 -15 15 6 70 19 48 24 80
24 160 1 95 -1 104 -35 175 -20 41 -60 104 -89 138 -79 97 -90 120 -90 182 0
72 15 92 92 120 186 68 334 162 541 342 42 38 83 68 91 68 7 0 25 9 38 20 21
16 28 34 37 95 20 138 10 218 -30 230 -11 4 -35 19 -52 35 -43 37 -67 43 -108
26 -19 -7 -89 -16 -156 -20 l-123 -6 -6 27 c-5 17 7 96 29 208 25 119 37 207
37 261 l0 81 31 7 c17 3 51 6 75 6 74 0 389 39 492 61 228 48 361 89 467 141
101 50 125 72 125 114 0 48 -41 76 -172 118 -164 52 -237 59 -540 53 -299 -5
-430 -24 -641 -93 l-78 -26 -78 41 c-98 51 -265 107 -357 121 -38 5 -110 10
-160 10 -50 0 -105 3 -121 6 l-30 6 13 71 c82 422 114 680 114 908 l0 167 -31
26 c-20 18 -42 26 -67 26 -30 0 -43 -8 -83 -51z m61 -571 c0 -48 -74 -463
-106 -594 -19 -78 -34 -149 -34 -158 0 -27 20 -18 42 20 11 19 32 40 45 45 33
12 224 11 318 -2 184 -25 316 -76 456 -175 82 -58 104 -63 75 -20 -9 14 -16
29 -16 34 0 19 256 81 437 106 136 19 403 30 403 17 0 -18 -88 -126 -131 -161
-71 -57 -114 -87 -158 -110 -50 -25 -164 -40 -312 -40 -100 0 -107 1 -129 25
-44 47 -51 32 -24 -62 32 -118 31 -201 -5 -366 -16 -72 -32 -151 -36 -175 -6
-36 -13 -47 -48 -69 -53 -32 -71 -54 -108 -128 -32 -66 -37 -121 -15 -163 l14
-28 -135 -89 c-138 -90 -158 -114 -61 -74 145 62 294 174 368 279 43 60 50 66
99 77 30 6 106 13 171 15 l117 3 14 -40 c15 -44 32 -52 37 -17 5 31 22 28 24
-5 2 -37 1 -41 -14 -93 -11 -39 -30 -62 -118 -143 -154 -143 -294 -232 -516
-328 -60 -25 -64 -24 -51 11 8 21 8 33 0 41 -28 28 -93 -132 -101 -251 -5 -94
4 -119 93 -230 95 -120 119 -175 120 -275 0 -97 -17 -143 -87 -238 -42 -56
-48 -70 -38 -83 12 -13 17 -11 41 12 25 24 32 26 54 16 15 -7 22 -17 19 -26
-3 -8 -1 -17 5 -20 6 -4 8 -13 5 -20 -3 -9 10 -25 33 -41 38 -27 38 -27 8 -21
-16 3 -77 13 -135 21 -191 26 -314 46 -319 51 -2 2 16 4 41 4 28 0 50 6 58 15
15 18 5 20 -145 34 -60 6 -150 19 -200 28 -76 15 -85 18 -56 23 41 6 50 24 22
40 -35 18 -253 14 -416 -8 -232 -32 -313 -36 -420 -22 -71 9 -99 10 -107 2 -8
-8 0 -17 33 -31 24 -12 53 -21 64 -21 17 0 17 -2 5 -10 -31 -20 -389 -124
-398 -115 -2 2 13 13 35 24 57 31 76 48 70 65 -5 12 -13 13 -37 6 -26 -8 -30
-7 -20 5 8 10 7 15 -4 22 -13 7 -2 17 48 46 57 34 67 36 90 26 21 -10 29 -10
39 0 9 9 -2 24 -49 66 -81 72 -108 133 -102 225 6 82 39 155 152 340 47 76
115 198 151 269 40 80 71 131 80 131 24 0 18 19 -38 109 -122 196 -213 439
-257 684 -11 60 -24 115 -30 122 -13 15 12 80 35 88 8 4 15 13 15 22 0 8 8 15
18 15 10 0 23 5 30 12 19 19 27 0 9 -20 -10 -10 -17 -26 -17 -36 0 -14 3 -15
23 -5 12 7 42 27 67 46 l44 34 16 -33 c10 -21 48 -56 109 -100 52 -37 98 -73
102 -80 4 -6 13 -50 19 -96 10 -68 22 -103 67 -190 69 -135 152 -272 164 -272
20 0 6 40 -50 140 -32 58 -56 108 -54 113 2 4 19 7 37 7 18 0 50 12 73 27 64
41 90 121 73 215 -8 41 -19 62 -50 93 -39 39 -42 40 -110 40 -73 0 -80 6 -56
40 7 11 46 115 86 230 40 116 74 212 76 214 2 2 10 -2 19 -9 26 -21 29 14 11
114 -24 139 -19 246 25 515 12 73 13 73 90 151 51 51 100 89 140 109 74 37 79
37 79 9z m-990 -956 c0 -10 -84 -228 -115 -298 -14 -31 -25 -61 -25 -66 0 -5
-12 -20 -27 -33 -28 -23 -28 -23 -9 -44 20 -21 19 -23 -7 -124 -95 -354 -131
-524 -117 -540 4 -4 69 21 145 57 76 37 142 66 147 66 11 0 48 -85 48 -110 0
-9 -16 -57 -35 -104 -70 -173 -95 -216 -95 -162 0 31 -15 34 -30 5 -11 -19
-12 -20 -24 -3 -13 16 -14 16 -26 -6 -13 -24 -13 -24 -21 -5 -4 11 -8 44 -8
73 -1 35 -5 52 -14 52 -7 0 -97 -48 -201 -106 -103 -58 -189 -104 -191 -102
-2 2 17 118 41 258 70 405 74 431 56 437 -19 8 -98 -32 -218 -107 -116 -73
-215 -148 -354 -268 -91 -78 -107 -89 -117 -75 -55 72 -242 611 -243 699 0 13
102 68 270 144 220 101 464 190 715 264 101 29 171 46 400 99 33 8 55 7 55 -1z
m-102 -823 c12 -45 21 -83 20 -84 -7 -6 -88 -45 -93 -45 -3 0 -5 8 -5 17 0 26
42 193 49 193 3 0 16 -37 29 -81z m212 -484 c0 -12 -49 -39 -56 -32 -3 2 3 21
12 43 15 36 17 37 30 19 8 -10 14 -24 14 -30z"/>
<path d="M2312 2510 c-106 -25 -138 -183 -50 -244 14 -10 44 -16 77 -16 50 0
57 3 91 39 20 21 40 53 43 71 12 59 -15 120 -64 146 -30 15 -47 16 -97 4z m78
-55 c26 -32 -13 -81 -47 -59 -24 15 -27 38 -8 58 20 20 39 20 55 1z"/>
<path d="M3123 2299 c-106 -31 -113 -190 -10 -234 40 -17 103 -3 136 29 22 22
26 35 26 80 0 44 -5 60 -25 81 -20 23 -81 58 -92 54 -2 0 -17 -5 -35 -10z m56
-53 c16 -19 -3 -56 -28 -56 -29 0 -45 25 -31 49 12 24 42 27 59 7z"/>
<path d="M2736 2254 c-33 -33 -7 -94 41 -94 25 0 53 30 53 57 0 44 -63 69 -94
37z"/>
<path d="M2440 2128 c0 -7 11 -24 25 -38 25 -26 25 -30 29 -201 4 -195 18
-263 66 -311 79 -78 212 21 357 267 52 86 64 100 89 103 59 7 53 41 -7 42 -45
0 -109 28 -162 71 l-52 41 -116 -7 c-112 -7 -117 -6 -167 19 -59 30 -62 30
-62 14z m294 -235 c26 -10 64 -31 83 -48 l35 -30 -45 -60 c-63 -85 -152 -165
-184 -165 -36 0 -65 75 -84 217 -9 70 -9 87 2 94 24 15 142 10 193 -8z"/>
</g>
</svg>
