<?xml version="1.0" standalone="no"?>
<!DOCTYPE svg PUBLIC "-//W3C//DTD SVG 20010904//EN"
 "http://www.w3.org/TR/2001/REC-SVG-20010904/DTD/svg10.dtd">
<svg version="1.0" xmlns="http://www.w3.org/2000/svg"
 width="107.528068pt" height="249.267162pt" viewBox="0 0 107.528068 249.267162"
 preserveAspectRatio="xMidYMid meet">
<metadata>
Created by potrace 1.16, written by Peter Selinger 2001-2019
</metadata>
<g transform="translate(-253.471932,426.783708) scale(0.100000,-0.100000)"
fill="#000000" stroke="none">
<path d="M3313 4259 c-53 -10 -106 -35 -129 -60 -9 -10 -24 -19 -32 -19 -23 0
-141 -79 -146 -98 -2 -10 -9 -38 -16 -64 -13 -51 -9 -181 9 -264 l11 -52 -54
-78 c-111 -163 -146 -261 -171 -489 -8 -77 -17 -149 -20 -160 -3 -11 -28 -45
-56 -75 -47 -50 -89 -116 -89 -138 0 -5 19 -7 43 -5 47 6 63 -5 71 -49 8 -45
-26 -78 -80 -78 -24 0 -44 -4 -44 -9 0 -22 32 -95 58 -134 58 -85 58 -116 -1
-205 -35 -53 -67 -129 -87 -208 -5 -22 -19 -52 -31 -65 -18 -20 -18 -24 -5
-27 9 -2 16 -10 16 -19 0 -9 6 -13 14 -10 8 3 17 1 20 -6 2 -7 5 11 5 38 1 36
11 71 36 122 19 39 38 74 42 76 5 3 9 -75 11 -174 3 -167 2 -179 -16 -190 -17
-11 -18 -14 -5 -29 9 -10 24 -15 38 -12 20 3 22 8 18 42 -5 34 -1 43 26 71 27
26 37 30 63 25 17 -3 39 -6 48 -6 21 0 58 -92 40 -98 -34 -12 32 -45 69 -35
26 7 26 11 0 32 -20 16 -20 21 -11 161 5 80 7 163 5 185 -6 50 4 41 51 -46 32
-59 35 -70 25 -93 -13 -28 -4 -50 10 -27 7 10 13 7 25 -15 l15 -29 1 30 c0 21
3 26 9 16 5 -7 11 -9 14 -4 3 5 -10 33 -28 62 -19 30 -39 77 -45 105 -11 53
-33 94 -88 167 -39 51 -37 66 13 145 42 66 65 119 65 150 0 21 -4 23 -24 18
-32 -8 -76 34 -76 71 0 45 17 65 55 65 56 0 45 30 -39 119 -54 57 -76 88 -81
114 -4 20 -6 108 -4 195 l4 159 48 96 c26 53 58 108 71 124 13 15 32 44 43 63
12 22 37 44 67 60 26 14 52 33 57 43 6 9 18 17 27 17 9 0 62 43 117 96 55 52
118 105 140 116 71 36 105 67 105 95 0 16 12 37 35 57 19 18 35 38 35 45 0 15
-91 56 -147 65 -22 4 -49 14 -60 21 -20 16 -30 16 -90 4z"/>
<path d="M2970 2735 c-15 -18 -5 -64 15 -72 8 -3 26 -2 40 1 19 5 25 13 25 34
0 15 -5 33 -12 40 -17 17 -53 15 -68 -3z"/>
<path d="M2625 2720 c-31 -34 0 -69 50 -56 18 5 25 13 25 29 0 46 -43 62 -75
27z"/>
</g>
</svg>
