<?xml version="1.0" standalone="no"?>
<!DOCTYPE svg PUBLIC "-//W3C//DTD SVG 20010904//EN"
 "http://www.w3.org/TR/2001/REC-SVG-20010904/DTD/svg10.dtd">
<svg version="1.0" xmlns="http://www.w3.org/2000/svg"
 width="550.328888pt" height="300.226115pt" viewBox="0 0 550.328888 300.226115"
 preserveAspectRatio="xMidYMid meet">
<metadata>
Created by potrace 1.16, written by Peter Selinger 2001-2019
</metadata>
<g transform="translate(-15.516905,315.676067) scale(0.100000,-0.100000)"
fill="#000000" stroke="none">
<path d="M4459 3156 c-2 -2 -42 -9 -89 -15 -200 -26 -313 -52 -516 -119 -99
-33 -203 -67 -231 -76 -81 -25 -255 -112 -288 -144 -37 -35 -70 -81 -79 -109
-4 -12 -19 -24 -34 -28 -40 -10 -52 -24 -52 -60 0 -31 20 -58 49 -67 8 -2 19
-25 26 -50 l12 -47 -46 -16 c-25 -10 -76 -31 -114 -48 -75 -34 -84 -48 -72
-119 3 -24 6 -64 6 -89 -1 -38 3 -48 24 -59 13 -7 29 -25 35 -40 6 -15 24 -40
40 -55 25 -24 35 -27 77 -23 33 3 67 16 106 41 32 20 60 37 63 37 12 0 -50
-146 -78 -183 -13 -18 -15 -18 -38 1 -47 36 -89 52 -139 52 -33 0 -62 7 -86
21 -42 25 -97 21 -128 -10 -19 -19 -20 -19 -69 4 -27 13 -57 34 -66 47 -45 66
-105 63 -164 -7 -27 -31 -22 -45 16 -45 41 0 51 -12 36 -40 -9 -18 -21 -20
-97 -20 -85 0 -208 -11 -332 -31 -35 -5 -65 -8 -67 -7 -5 6 71 125 140 218 48
66 76 93 123 120 85 50 143 107 143 142 0 24 -4 28 -28 28 -50 0 -340 -121
-442 -185 -19 -12 -44 -25 -55 -28 -11 -4 -44 -23 -73 -42 -30 -19 -57 -35
-61 -35 -4 0 -15 27 -25 61 -21 78 -139 375 -181 460 -18 36 -41 71 -50 79 -9
7 -22 28 -30 46 -17 41 -57 68 -85 59 -12 -4 -28 -22 -36 -41 -29 -69 -10
-326 37 -496 11 -40 29 -109 40 -153 11 -44 27 -100 35 -124 16 -49 10 -61
-33 -61 -40 0 -150 -30 -219 -59 -38 -16 -127 -53 -199 -83 -71 -30 -153 -67
-182 -81 -29 -15 -57 -27 -63 -27 -25 0 -238 -110 -244 -126 -13 -35 14 -45
94 -34 157 21 196 29 244 49 27 12 107 40 178 61 71 22 137 44 147 49 9 6 95
10 190 10 160 1 175 -1 200 -20 36 -28 224 -137 310 -179 39 -19 71 -38 71
-41 0 -4 -30 -14 -67 -24 -38 -9 -97 -27 -133 -40 -36 -12 -87 -29 -115 -36
-27 -7 -74 -23 -103 -36 -30 -13 -129 -48 -220 -78 -92 -30 -176 -59 -187 -65
-24 -11 -88 -34 -300 -105 -407 -136 -673 -236 -770 -288 -98 -53 -75 -90 68
-108 38 -5 104 -16 145 -24 167 -35 394 -33 615 5 31 6 81 14 110 19 57 10
125 30 287 85 58 19 134 45 170 56 36 12 102 35 148 52 45 17 84 29 86 27 4
-5 46 -125 46 -131 0 -2 -30 0 -67 5 -138 18 -213 -4 -213 -62 0 -34 27 -68
121 -150 148 -128 152 -131 331 -237 105 -63 255 -118 350 -128 175 -19 235
134 115 292 -33 44 -107 96 -194 137 l-73 34 34 58 c18 32 47 82 64 111 18 29
32 56 32 60 0 4 20 39 45 77 25 39 62 102 82 141 33 64 41 72 77 82 36 9 41 8
59 -14 12 -16 29 -24 48 -24 17 0 49 -4 72 -9 23 -6 87 -19 142 -31 55 -12
145 -32 200 -45 55 -13 120 -28 145 -33 25 -6 98 -24 164 -41 65 -17 142 -35
170 -40 28 -5 96 -21 151 -36 55 -15 120 -31 145 -35 25 -4 110 -25 190 -45
168 -43 159 -40 230 -50 30 -4 70 -13 89 -21 18 -8 61 -14 95 -14 34 0 77 -5
96 -10 107 -31 395 -41 534 -19 132 21 343 113 454 197 50 38 85 121 80 187
-12 143 -170 323 -363 414 -83 39 -178 68 -252 77 -12 1 -73 11 -135 22 -172
31 -379 62 -414 62 -59 0 -92 11 -98 33 -6 24 19 159 37 197 7 13 33 37 60 54
l47 29 83 -41 c45 -22 105 -45 132 -51 162 -35 215 -44 255 -47 25 -1 87 -5
138 -9 104 -7 190 7 221 36 32 30 36 92 11 137 -28 50 -111 105 -193 127 -72
19 -68 14 -122 164 l-24 64 76 71 c42 39 91 80 108 91 18 11 55 44 81 74 27
30 84 90 127 135 117 122 115 138 -23 209 -91 48 -126 61 -232 91 -114 32
-145 21 -306 -113 -57 -47 -125 -100 -151 -118 l-46 -32 -7 37 c-3 20 -4 71
-1 112 8 109 -9 187 -50 226 -26 26 -42 33 -93 38 -34 3 -63 4 -65 2z m-2864
-450 c17 -30 17 -36 2 -82 -9 -27 -18 -67 -19 -89 -2 -22 -7 -33 -10 -25 -11
27 -31 209 -25 224 9 22 32 10 52 -28z m3151 -82 c91 -42 161 -105 149 -136
-5 -13 -104 -67 -160 -87 -16 -6 -61 -17 -98 -25 -90 -18 -96 -13 -111 96 -7
53 11 108 46 145 44 46 87 48 174 7z m-3102 -56 c4 -25 17 -94 30 -152 21 -96
21 -105 6 -91 -10 9 -26 15 -36 13 -15 -2 -20 6 -26 42 -10 69 -9 161 3 203 6
22 12 37 14 35 1 -1 6 -24 9 -50z m1631 -219 c27 -28 58 -70 68 -93 22 -48 35
-146 20 -146 -6 0 -13 25 -17 56 -9 78 -27 116 -87 179 -29 30 -48 55 -42 55
5 0 31 -23 58 -51z m-38 -22 c33 -34 55 -70 66 -102 22 -70 30 -142 17 -150
-6 -4 -10 8 -10 32 0 74 -38 163 -93 221 -28 28 -46 52 -41 52 6 0 34 -24 61
-53z m111 2 c21 -25 56 -119 48 -126 -2 -3 -7 6 -11 19 -14 49 -39 94 -69 127
-21 23 -24 29 -9 19 12 -8 31 -25 41 -39z m-161 -13 c38 -34 53 -58 71 -109
12 -36 21 -86 21 -113 l-2 -49 -8 62 c-11 87 -42 150 -101 206 -63 59 -47 62
19 3z m1318 -15 c3 -5 1 -12 -5 -16 -5 -3 -10 1 -10 9 0 18 6 21 15 7z m-1304
-73 c27 -41 33 -62 37 -124 3 -44 1 -74 -5 -74 -5 0 -10 27 -10 60 0 64 -20
121 -63 180 -14 19 -17 29 -8 22 9 -8 31 -36 49 -64z m1816 -5 c13 -32 26 -63
29 -68 3 -7 -33 -11 -101 -13 -96 -1 -105 0 -105 17 0 10 12 26 26 36 14 9 35
25 47 35 49 41 72 58 76 54 2 -2 15 -30 28 -61z m-463 49 c2 -4 -4 -9 -15 -9
-10 -1 -19 2 -19 8 0 11 27 12 34 1z m-2805 -179 c8 -27 22 -73 32 -103 10
-30 16 -57 14 -60 -2 -4 -18 -5 -34 -2 -32 4 -31 4 -66 102 -13 36 -26 73 -30
83 -6 15 -4 17 18 12 14 -4 28 -2 31 4 13 20 22 11 35 -36z m2021 37 c0 -5
-23 -20 -52 -33 l-52 -25 -18 23 c-10 13 -18 27 -18 32 0 4 32 9 70 9 39 1 70
-2 70 -6z m-193 -51 l22 -40 -25 -11 c-13 -6 -24 -14 -24 -18 0 -6 -73 -50
-84 -50 -7 0 39 105 60 138 20 30 26 28 51 -19z m-1379 -51 c-45 -79 -124
-188 -136 -188 -9 0 -4 12 16 38 16 20 42 62 58 92 28 52 50 79 67 80 4 0 2
-10 -5 -22z m547 -39 c14 -17 24 -33 22 -35 -2 -3 -20 3 -40 11 -20 8 -49 15
-64 15 l-28 1 24 19 c33 28 55 25 86 -11z m-707 -65 c-18 -25 -37 -48 -41 -51
-9 -5 -27 14 -27 30 0 6 88 67 98 67 2 0 -12 -21 -30 -46z m717 -4 l30 -20
-32 6 c-44 9 -43 -10 2 -32 45 -21 44 -31 -1 -36 -25 -3 -43 2 -60 14 -23 18
-23 20 -7 53 19 40 27 42 68 15z m466 -47 l41 -27 -33 -12 c-44 -16 -49 -16
-49 -1 0 7 -11 29 -25 50 l-26 37 25 -10 c14 -5 44 -22 67 -37z m-351 22 c0
-8 -4 -15 -10 -15 -5 0 -7 7 -4 15 4 8 8 15 10 15 2 0 4 -7 4 -15z m150 -65
c0 -5 -8 -10 -17 -10 -15 0 -16 2 -3 10 19 12 20 12 20 0z m1240 -34 c0 -8 -5
-27 -10 -42 l-11 -27 -24 23 c-31 29 -31 32 -2 46 32 16 47 16 47 0z m-2580
-26 c-14 -11 -28 -20 -32 -20 -5 0 -8 -7 -8 -15 0 -12 -14 -15 -67 -15 -36 0
-63 3 -60 6 7 7 166 62 182 63 6 0 -1 -8 -15 -19z m1286 -15 c16 -8 22 -15 14
-15 -8 1 -24 7 -34 15 -25 19 -16 19 20 0z m1152 -41 l23 -35 -48 6 c-99 13
-100 13 -51 40 24 13 45 24 48 24 3 0 15 -15 28 -35z m-1625 -631 c-10 -21
-35 -65 -57 -98 -39 -61 -104 -172 -161 -279 -17 -33 -36 -61 -42 -63 -9 -3
-19 33 -58 221 -14 66 -14 69 7 100 30 42 44 56 58 56 10 0 61 19 205 78 67
27 67 27 48 -15z m-403 -172 c0 -22 -107 -200 -120 -201 -12 0 -62 172 -52
182 5 5 42 22 83 37 78 29 89 27 89 -18z m60 -228 c0 -17 -23 -16 -88 5 l-52
17 47 73 47 72 23 -77 c13 -42 23 -83 23 -90z"/>
</g>
</svg>
