<?xml version="1.0" standalone="no"?>
<!DOCTYPE svg PUBLIC "-//W3C//DTD SVG 20010904//EN"
 "http://www.w3.org/TR/2001/REC-SVG-20010904/DTD/svg10.dtd">
<svg version="1.0" xmlns="http://www.w3.org/2000/svg"
 width="397.021409pt" height="407.732050pt" viewBox="0 0 397.021409 407.732050"
 preserveAspectRatio="xMidYMid meet">
<metadata>
Created by potrace 1.16, written by Peter Selinger 2001-2019
</metadata>
<g transform="translate(-23.345889,442.843183) scale(0.100000,-0.100000)"
fill="#000000" stroke="none">
<path d="M2460 4419 c-431 -56 -906 -287 -1105 -539 -22 -27 -43 -50 -47 -50
-5 0 -48 30 -96 67 -164 125 -241 165 -281 144 -63 -34 -19 -343 78 -556 l32
-70 -22 -38 c-16 -29 -20 -48 -15 -77 8 -48 56 -157 95 -214 17 -24 54 -92 83
-152 28 -60 54 -112 55 -115 4 -7 -36 -22 -50 -20 -5 1 -6 -3 -3 -8 4 -5 2
-12 -4 -16 -17 -10 -11 -51 11 -79 21 -27 87 -66 111 -66 7 0 58 -22 113 -50
55 -27 124 -56 153 -62 28 -7 52 -16 52 -19 0 -9 -140 -29 -205 -29 -41 0 -55
4 -55 14 0 42 -101 116 -159 116 -31 0 -47 23 -35 53 9 23 -13 82 -59 161 -48
84 -78 113 -123 122 -21 4 -57 27 -95 61 -34 30 -72 59 -86 64 -13 5 -71 9
-128 9 -97 0 -106 -2 -134 -26 -36 -30 -56 -91 -47 -145 5 -33 3 -38 -18 -43
-13 -3 -43 -27 -67 -53 -24 -27 -66 -58 -92 -70 -39 -18 -52 -31 -68 -69 -24
-52 -22 -72 17 -204 46 -152 89 -200 171 -187 35 6 40 3 92 -53 45 -47 67 -61
110 -74 30 -9 66 -16 79 -16 14 0 32 -11 44 -25 27 -35 48 -44 136 -60 42 -7
101 -20 130 -29 40 -12 59 -12 85 -4 48 17 131 74 172 120 37 40 38 40 170 63
147 25 300 74 447 143 l98 45 68 -62 c37 -33 115 -98 174 -143 l107 -83 -97
-48 c-184 -93 -306 -188 -491 -384 l-113 -120 -65 -6 c-160 -15 -243 -62 -243
-138 l0 -40 -68 37 c-37 21 -74 43 -83 51 -8 7 -32 13 -51 13 -33 0 -42 7
-111 93 -95 117 -287 303 -350 340 -42 25 -56 28 -110 24 -87 -6 -165 -31
-199 -64 -74 -70 -112 -211 -112 -408 0 -131 2 -146 32 -237 64 -190 229 -475
357 -616 159 -175 320 -230 695 -239 306 -8 394 12 439 100 21 42 23 53 13 80
-9 24 -8 41 4 85 9 30 14 72 11 92 -5 36 -3 39 35 56 74 33 88 50 88 104 0 47
2 50 45 80 69 47 79 68 71 148 -6 67 -28 149 -61 229 l-17 43 77 117 c92 140
206 257 315 324 71 43 238 124 271 130 7 2 66 -31 129 -73 179 -119 276 -168
333 -168 50 0 106 23 164 67 29 22 35 23 74 13 24 -7 79 -10 122 -8 l79 3 37
-90 c21 -49 41 -110 44 -135 24 -171 103 -260 232 -260 154 0 270 141 336 412
18 75 23 121 23 238 0 128 -3 154 -26 225 -83 260 -226 480 -352 544 -43 21
-139 45 -227 56 -36 4 -49 11 -57 29 -10 22 -8 24 23 30 18 4 39 14 46 23 8 8
41 33 74 54 33 21 70 53 82 71 62 92 74 210 31 293 -35 68 -110 149 -150 165
-18 7 -61 26 -94 42 -60 29 -63 29 -117 16 -37 -10 -62 -11 -78 -5 l-24 9 30
11 c18 7 130 11 279 12 189 1 251 4 254 13 6 19 -68 109 -176 214 -106 103
-179 156 -288 211 -160 81 -481 166 -623 167 l-65 0 30 31 c16 18 80 74 142
126 61 52 112 96 112 98 0 13 -66 35 -134 44 -89 13 -340 13 -436 0z m351 -38
c59 -5 112 -12 119 -16 7 -4 -3 -19 -32 -43 -24 -20 -84 -76 -135 -124 -72
-69 -97 -88 -120 -88 -36 0 -134 -28 -148 -42 -7 -7 6 -8 40 -4 196 22 346 15
515 -25 300 -69 505 -181 690 -375 l85 -89 -195 -6 c-122 -4 -224 -13 -272
-23 -112 -24 -251 -79 -351 -138 l-51 -30 -91 30 c-161 55 -211 53 -71 -2 38
-15 94 -41 125 -58 273 -152 424 -294 553 -523 44 -78 95 -201 87 -210 -3 -2
-38 12 -78 31 -98 46 -198 73 -296 81 -74 6 -85 9 -141 49 -81 58 -191 109
-289 135 -68 18 -97 20 -197 15 l-116 -6 24 75 c22 70 44 197 31 185 -2 -3
-12 -33 -21 -67 -27 -106 -76 -221 -117 -273 -43 -55 -64 -65 -49 -24 6 14 10
45 10 69 0 49 -17 65 -65 65 -20 0 -26 4 -21 15 24 63 39 153 39 236 1 84 -2
103 -24 144 -48 93 -151 136 -243 101 -60 -23 -117 -70 -167 -136 -52 -70 -78
-121 -150 -299 -32 -80 -68 -154 -79 -165 -26 -27 -91 -28 -119 -2 -12 11 -26
43 -33 77 -14 70 -33 80 -23 13 3 -26 9 -53 12 -60 9 -25 -15 -15 -50 19 -18
19 -64 91 -103 162 -67 125 -152 235 -180 235 -18 0 -18 -16 0 -23 18 -7 28
-58 24 -117 l-3 -45 -38 75 c-41 82 -52 127 -43 165 8 33 64 95 85 95 9 0 35
-29 59 -67 30 -47 42 -59 38 -40 -4 15 -20 50 -37 78 -36 57 -37 51 33 194
127 260 313 438 603 580 210 103 367 148 695 198 45 7 173 6 281 -2z m-1809
-395 c65 -28 264 -178 273 -208 4 -10 -23 -77 -66 -163 -55 -113 -78 -149
-100 -160 -28 -15 -29 -15 -48 24 -35 68 -71 173 -92 263 -24 109 -26 258 -4
258 2 0 18 -6 37 -14z m2345 -551 c2 -7 -11 -34 -31 -59 -22 -29 -39 -66 -46
-101 -11 -51 -14 -55 -39 -55 -35 0 -46 13 -55 63 -13 68 16 117 97 163 23 13
67 6 74 -11z m217 -23 c3 -5 -32 -28 -78 -50 -74 -37 -86 -46 -100 -82 -9 -22
-16 -50 -16 -63 -1 -69 -43 -92 -76 -42 -18 28 -13 94 11 150 19 44 84 101
135 118 41 14 48 13 82 -4 20 -10 39 -23 42 -27z m-391 16 c-31 -35 -43 -63
-43 -102 0 -23 -5 -36 -13 -36 -22 0 -110 61 -101 70 9 8 165 89 173 90 3 0
-5 -10 -16 -22z m-1024 -13 c106 -54 136 -205 79 -398 -21 -72 -27 -82 -70
-114 l-48 -35 0 42 c0 96 -49 237 -92 264 -73 45 -60 -202 15 -306 34 -48 34
-47 -58 -96 -42 -22 -62 -27 -125 -26 -43 1 -110 10 -157 22 -47 13 -112 22
-152 22 -41 0 -71 4 -71 10 0 6 28 10 63 10 56 0 66 3 90 28 14 15 53 93 86
174 81 198 101 236 163 303 76 84 129 115 195 115 30 0 67 -7 82 -15z m1520
-51 c40 -34 40 -59 -1 -73 -17 -6 -32 -10 -33 -9 -42 77 -70 78 -142 3 -50
-51 -53 -57 -53 -106 0 -43 -3 -50 -16 -45 -9 3 -20 6 -25 6 -5 0 -9 27 -9 60
0 52 4 64 30 94 31 35 154 95 197 96 12 0 35 -12 52 -26z m-47 -139 c26 -120
24 -189 -11 -275 -16 -40 -32 -74 -35 -78 -3 -3 -25 -6 -48 -6 -42 -1 -44 0
-103 80 -33 44 -77 100 -97 123 -21 24 -35 48 -31 54 7 12 119 3 137 -12 10
-8 11 -23 6 -54 -5 -23 -4 -49 1 -57 6 -11 9 -5 9 20 0 32 19 83 20 53 0 -7 4
-13 9 -13 5 0 3 21 -5 47 -8 25 -14 59 -14 75 0 64 61 131 114 126 29 -3 31
-6 48 -83z m114 47 c21 -14 44 -71 44 -110 0 -70 -29 -143 -75 -189 -23 -24
-50 -43 -59 -43 -19 0 -19 -2 11 92 13 42 13 55 -2 134 l-18 88 23 18 c23 19
57 23 76 10z m-508 -72 c20 0 52 -29 52 -47 0 -23 -17 -14 -72 38 -29 28 -40
41 -24 30 16 -12 36 -21 44 -21z m-2010 -47 c57 -98 117 -219 142 -285 11 -31
27 -62 35 -68 27 -23 16 -32 -27 -25 -54 9 -62 15 -101 84 -61 105 -107 247
-107 332 0 45 16 35 58 -38z m832 -52 c38 -76 53 -238 23 -248 -41 -14 -113
232 -83 286 9 18 14 20 26 10 9 -7 24 -29 34 -48z m-1282 -81 c37 -8 59 -21
89 -53 48 -49 123 -158 160 -231 14 -28 28 -46 30 -39 4 12 -33 92 -73 155
l-24 38 24 0 c46 0 146 -154 146 -224 0 -40 -5 -42 -63 -25 -59 16 -94 -2
-184 -94 -103 -105 -116 -130 -120 -237 -6 -136 -5 -134 -64 -127 -66 8 -105
32 -152 93 -45 57 -114 193 -123 241 -3 18 -11 30 -16 27 -6 -4 -8 -19 -5 -33
5 -26 4 -27 -25 -23 -40 6 -29 -14 12 -23 24 -5 36 -18 55 -56 30 -59 31 -75
4 -89 -54 -30 -90 14 -135 163 -32 108 -31 148 4 187 29 34 61 40 142 27 l45
-6 -37 16 c-46 19 -48 40 -7 79 28 27 36 29 106 29 48 0 78 4 80 11 3 8 -10
10 -42 7 -36 -5 -45 -3 -45 10 0 17 45 57 64 57 25 0 86 22 86 31 0 13 -69 -5
-142 -36 -16 -6 -18 -1 -18 39 0 36 6 52 25 71 21 21 33 25 89 25 36 0 87 -5
114 -10z m1517 -107 c22 -21 13 -89 -20 -153 -31 -61 -62 -86 -113 -94 -24 -3
-91 -28 -150 -55 -162 -72 -205 -85 -277 -78 -88 8 -179 33 -260 71 l-70 33
45 12 c25 6 55 16 68 21 44 19 40 62 -8 87 l-24 12 28 7 c25 6 113 -8 266 -41
36 -8 81 -15 101 -15 50 0 157 56 249 130 63 51 105 74 142 79 4 1 14 -6 23
-16z m465 -25 c71 -13 219 -84 290 -137 54 -40 174 -170 165 -179 -2 -2 -49 1
-104 8 -112 15 -248 9 -355 -14 l-69 -16 -66 70 c-76 81 -116 96 -45 18 75
-83 101 -132 145 -272 47 -150 66 -191 120 -261 60 -80 199 -185 243 -185 9 0
67 47 128 105 62 58 120 105 128 105 28 0 103 -44 124 -72 l20 -28 -25 -26
c-13 -15 -71 -69 -128 -121 -104 -94 -180 -143 -224 -143 -39 0 -175 73 -342
184 -88 58 -186 116 -217 129 -62 23 -70 32 -38 40 28 7 27 57 -2 84 -40 36
-119 80 -249 136 -112 49 -209 100 -209 111 0 2 19 16 42 31 23 15 64 48 90
73 42 39 48 50 48 86 0 38 6 47 66 106 36 36 81 86 100 112 38 52 51 58 139
69 66 8 141 4 225 -13z m-1362 -33 c-3 -3 -9 2 -12 12 -6 14 -5 15 5 6 7 -7
10 -15 7 -18z m52 -50 c1 18 1 19 11 2 5 -9 7 -22 4 -28 -8 -12 -41 15 -57 46
-5 11 2 7 16 -10 22 -26 25 -28 26 -10z m-164 -86 c14 -5 46 -9 71 -9 36 0 46
4 50 19 4 16 11 18 46 14 123 -16 95 -61 -44 -70 -102 -7 -179 22 -179 68 0
24 24 30 28 7 2 -11 15 -23 28 -29z m97 22 c8 -8 0 -11 -30 -11 -48 0 -73 8
-73 22 0 14 88 4 103 -11z m2387 -54 c146 -47 290 -255 376 -543 45 -151 36
-333 -27 -530 -32 -100 -90 -199 -137 -232 -45 -33 -47 -27 -9 21 84 102 147
252 173 410 16 100 16 112 0 192 -19 99 -59 206 -122 325 -54 100 -148 235
-184 260 -28 20 -124 46 -203 56 -39 4 -50 10 -58 30 -5 14 -9 30 -9 36 0 15
122 0 200 -25z m-431 -29 c29 -6 55 -18 58 -25 3 -8 -10 -37 -30 -66 -41 -63
-77 -131 -77 -148 0 -7 -21 -34 -46 -61 -37 -40 -45 -54 -42 -81 2 -26 -2 -35
-25 -50 -45 -28 -71 -98 -64 -172 6 -67 -2 -85 -38 -85 -21 0 -156 97 -162
117 -2 6 30 29 71 52 75 41 216 164 216 189 0 26 -33 23 -130 -12 -87 -33
-256 -73 -265 -64 -6 6 -55 170 -55 184 0 18 47 12 180 -23 233 -62 236 -62
200 12 -13 27 -36 63 -53 81 l-29 34 27 0 c15 0 68 -9 117 -21 127 -30 133
-18 47 98 -22 29 -39 55 -39 59 0 7 55 0 139 -18z m-1131 -50 c8 -66 -205
-195 -518 -313 -68 -25 -245 -63 -335 -70 -80 -7 -205 5 -277 27 -62 18 -46
69 41 132 l46 33 185 6 c133 5 207 12 265 26 117 29 313 96 408 140 141 66
179 70 185 19z m1330 -13 c47 -27 62 -25 62 6 0 24 43 25 140 3 57 -13 76 -22
105 -52 40 -43 125 -162 125 -175 0 -5 -16 -35 -36 -68 -33 -53 -36 -63 -30
-108 6 -46 4 -53 -24 -85 -32 -36 -120 -86 -152 -86 -14 0 -18 8 -19 38 -1 85
-71 187 -190 276 -58 44 -64 46 -125 46 -47 0 -64 4 -64 14 0 41 121 216 149
216 9 0 36 -11 59 -25z m-2432 -10 l27 -17 -33 -14 c-18 -8 -39 -14 -48 -14
-13 0 -12 3 3 20 23 25 0 28 -27 3 -44 -39 -7 -55 67 -28 63 22 146 19 185 -7
31 -21 59 -72 47 -85 -3 -3 -30 1 -59 8 -29 7 -60 12 -68 10 -23 -5 -136 -88
-159 -117 -27 -35 -29 -129 -3 -159 50 -59 81 -61 150 -9 23 19 42 24 69 22
l36 -3 -29 -34 c-40 -47 -141 -111 -176 -111 -39 0 -94 24 -106 47 -5 10 -13
46 -17 81 -4 34 -11 64 -16 67 -4 3 -15 -8 -24 -24 -19 -37 -19 -47 -1 -32 17
15 26 -5 26 -60 0 -36 -2 -39 -27 -39 -56 0 -104 20 -124 53 -18 28 -20 45
-17 137 3 78 9 114 22 140 23 42 119 145 161 172 36 23 101 20 141 -7z m1898
-60 c23 -24 50 -59 60 -76 17 -28 17 -32 3 -26 -57 22 -214 58 -282 64 -63 6
-80 12 -83 25 -5 26 98 53 212 57 46 1 52 -2 90 -44z m487 -183 c53 -34 151
-140 175 -190 10 -21 19 -62 22 -92 l3 -55 -40 -23 c-46 -26 -45 -27 -60 58
-10 61 -8 69 14 50 23 -19 31 -3 10 20 -21 23 -43 26 -51 6 -3 -8 2 -48 11
-88 18 -83 14 -104 -32 -166 -40 -53 -41 -54 -122 -48 -90 6 -105 17 -69 52
24 24 28 25 61 14 19 -7 42 -10 50 -7 20 7 37 67 37 128 0 58 -23 89 -92 123
-84 42 -168 31 -168 -23 0 -9 -15 -31 -33 -49 -26 -25 -36 -29 -45 -20 -17 17
-14 67 7 114 16 36 25 42 67 53 100 26 119 35 119 61 0 13 -6 25 -14 28 -9 3
-11 -2 -6 -17 5 -18 1 -24 -27 -35 -38 -16 -53 -9 -61 30 -6 36 26 71 81 88
73 23 112 20 163 -12z m-1078 -121 c64 -37 110 -77 105 -93 -7 -21 -34 -31
-69 -24 -40 8 -195 116 -282 197 l-62 58 127 -54 c70 -29 152 -67 181 -84z
m1622 35 c47 -103 85 -213 85 -245 0 -27 -39 -81 -58 -81 -24 0 -57 62 -113
214 -24 65 -28 85 -20 108 15 42 51 89 63 82 6 -4 25 -39 43 -78z m-970 -12
c-41 -34 -132 -88 -175 -103 -33 -11 -36 -10 -58 15 -13 14 -21 31 -19 37 2 6
41 19 88 28 46 9 102 24 124 32 61 22 74 19 40 -9z m-1936 -28 l54 -12 -30
-22 c-41 -29 -67 -28 -92 4 -38 48 -26 53 68 30z m2156 -96 c-3 -5 -11 -10
-16 -10 -6 0 -7 5 -4 10 3 6 11 10 16 10 6 0 7 -4 4 -10z m705 -137 l18 -41
-33 -40 c-71 -83 -283 -131 -374 -84 -19 9 -36 22 -38 27 -6 19 57 93 104 125
26 18 70 40 100 51 29 11 77 40 106 64 l52 43 23 -52 c13 -28 32 -70 42 -93z
m-1473 57 c83 -32 110 -46 103 -53 -3 -3 -58 -29 -122 -60 -218 -103 -344
-212 -473 -408 -38 -57 -71 -107 -75 -111 -3 -4 -31 10 -63 32 -49 33 -105 58
-165 76 -23 7 5 41 137 174 132 133 243 221 357 285 74 41 191 94 211 95 6 0
47 -14 90 -30z m963 -79 c0 -57 -32 -85 -70 -61 -12 8 -9 15 20 45 39 40 50
43 50 16z m647 -98 c-9 -117 -28 -188 -87 -309 -35 -72 -64 -116 -104 -157
-53 -54 -59 -57 -105 -57 -39 0 -56 6 -81 26 -42 36 -58 70 -80 172 -10 48
-32 122 -49 165 -17 43 -31 79 -31 80 0 1 46 2 103 3 130 0 211 26 277 89 38
36 50 42 75 38 22 -3 38 2 55 16 14 11 27 20 29 21 2 0 1 -39 -2 -87z m-3444
-19 c59 -39 209 -186 298 -292 177 -213 235 -334 227 -475 -4 -70 -38 -167
-59 -167 -14 0 -287 417 -409 625 -105 179 -141 234 -185 283 -38 43 -43 51
-28 56 39 11 117 -4 156 -30z m-184 -8 c41 -22 96 -99 227 -321 118 -202 364
-578 480 -735 84 -114 223 -223 354 -277 68 -28 115 -29 158 -3 39 24 42 24
42 4 0 -28 -33 -73 -62 -85 -41 -17 -164 -6 -220 20 -86 41 -226 198 -409 462
-148 213 -221 327 -303 473 -124 222 -161 279 -221 342 -64 67 -101 84 -147
66 -25 -9 -27 -9 -18 8 13 24 59 60 77 60 8 0 27 -6 42 -14z m-29 -81 c47 -24
176 -188 163 -208 -7 -12 -123 -1 -228 21 l-80 18 3 44 c3 52 33 104 70 125
34 18 37 18 72 0z m-40 -211 c41 -8 111 -19 154 -22 l79 -7 63 -115 c39 -70
59 -117 53 -121 -21 -13 -353 11 -430 32 -30 7 -38 15 -43 40 -8 40 -8 123 0
172 8 44 13 45 124 21z m1375 -82 c33 -16 75 -46 94 -67 57 -65 103 -193 114
-313 4 -53 4 -53 -41 -88 -25 -19 -51 -34 -59 -34 -20 0 -51 76 -59 145 -6 52
-5 58 9 52 48 -20 50 -18 21 13 -20 20 -37 30 -44 25 -20 -12 -6 -121 26 -200
15 -38 28 -89 29 -113 0 -42 -2 -45 -48 -69 -61 -32 -66 -28 -101 85 -32 103
-85 219 -122 267 -37 49 -42 37 -8 -21 l28 -48 -54 41 c-30 22 -79 55 -107 73
-29 17 -53 35 -53 38 0 4 -12 20 -26 35 -14 16 -23 31 -20 34 5 6 130 -9 199
-24 34 -7 37 19 5 41 -28 20 -42 20 -35 1 5 -11 0 -13 -21 -10 -15 2 -49 7
-75 10 -38 5 -50 12 -59 30 -19 41 -3 70 49 93 67 28 76 30 193 31 96 1 110
-1 165 -27z m-627 -60 c9 -9 27 -31 39 -47 21 -29 22 -29 23 -7 l0 23 41 -23
c65 -36 115 -84 132 -125 57 -143 77 -420 39 -527 -12 -33 -26 -64 -32 -70
-21 -21 -130 74 -207 181 l-45 63 26 63 c14 34 30 83 35 108 19 83 -13 213
-77 318 -17 27 -28 52 -25 55 11 11 33 6 51 -12z m-713 -127 c65 -8 170 -15
231 -15 84 0 113 -3 117 -13 3 -8 39 -66 81 -130 42 -64 76 -121 76 -127 0
-13 -273 -13 -360 0 -173 27 -187 30 -200 58 -23 49 -60 146 -75 195 -10 35
-11 47 -2 47 7 0 66 -7 132 -15z m1061 -116 c78 -54 132 -106 154 -149 19 -37
74 -219 87 -285 8 -46 8 -52 -14 -122 -31 -103 -92 -122 -213 -66 -105 49
-103 46 -68 133 29 74 30 77 24 215 -5 121 -20 228 -41 296 -9 28 5 23 71 -22z
m-926 -185 c58 -7 171 -14 251 -14 l146 0 98 -136 c67 -94 94 -139 85 -144 -6
-4 -62 -10 -123 -14 -109 -6 -247 3 -375 25 l-63 11 -58 87 c-61 91 -121 193
-121 206 0 4 12 4 28 0 15 -4 74 -13 132 -21z m170 -314 c48 -7 165 -10 267
-8 l181 3 43 -50 c62 -73 138 -143 189 -175 l44 -29 -28 -7 c-35 -8 -329 11
-406 26 -122 25 -188 51 -256 98 -102 73 -190 174 -136 158 9 -3 55 -10 102
-16z"/>
<path d="M2315 4196 c-180 -58 -435 -239 -492 -349 -11 -23 14 -3 89 69 59 56
137 120 179 145 100 60 214 111 252 113 30 1 32 -1 35 -36 2 -20 -6 -88 -17
-150 -21 -114 -27 -276 -11 -313 6 -13 9 17 9 85 1 69 10 151 26 235 29 152
30 178 9 199 -18 19 -26 19 -79 2z"/>
<path d="M2172 4025 c-81 -50 -175 -120 -211 -158 -23 -25 -22 -47 3 -47 32 0
147 -45 209 -82 41 -24 73 -36 78 -31 15 15 30 163 27 263 -2 75 -6 95 -18 97
-8 1 -48 -18 -88 -42z m85 -131 c-3 -80 -10 -151 -15 -156 -7 -7 -29 0 -68 22
-31 18 -89 43 -127 55 -39 13 -73 27 -75 33 -6 19 241 192 276 192 13 0 14
-22 9 -146z"/>
<path d="M1995 3618 c-54 -20 -129 -74 -182 -132 -51 -56 -130 -182 -120 -192
2 -3 30 33 60 79 108 162 211 231 347 232 89 0 109 -11 171 -91 46 -60 60 -65
34 -12 -22 42 -72 95 -107 114 -32 17 -158 18 -203 2z"/>
<path d="M2014 3045 c-6 -15 5 -63 27 -124 7 -17 13 -21 20 -14 7 7 7 29 -2
72 -12 65 -34 96 -45 66z"/>
<path d="M2170 2828 c-22 -9 -23 -11 -7 -17 16 -6 7 -18 -57 -78 -41 -40 -92
-81 -113 -92 -21 -11 -31 -20 -23 -21 31 0 97 44 165 111 39 38 76 69 83 69 6
0 12 9 12 20 0 22 -20 25 -60 8z"/>
<path d="M3986 2194 c-11 -29 50 -174 74 -174 17 0 11 77 -11 135 -14 39 -26
55 -39 55 -10 0 -21 -7 -24 -16z m53 -66 c20 -59 21 -83 2 -62 -9 9 -41 101
-41 116 0 4 4 8 9 8 5 0 19 -28 30 -62z"/>
</g>
</svg>
