<?xml version="1.0" standalone="no"?>
<!DOCTYPE svg PUBLIC "-//W3C//DTD SVG 20010904//EN"
 "http://www.w3.org/TR/2001/REC-SVG-20010904/DTD/svg10.dtd">
<svg version="1.0" xmlns="http://www.w3.org/2000/svg"
 width="330.407679pt" height="457.655065pt" viewBox="0 0 330.407679 457.655065"
 preserveAspectRatio="xMidYMid meet">
<metadata>
Created by potrace 1.16, written by Peter Selinger 2001-2019
</metadata>
<g transform="translate(-96.005544,532.806628) scale(0.100000,-0.100000)"
fill="#000000" stroke="none">
<path d="M2671 5240 c-30 -49 -61 -90 -69 -90 -28 0 -79 -31 -90 -55 -8 -16
-20 -25 -35 -25 -32 0 -76 -42 -83 -80 -5 -23 -12 -30 -29 -30 -24 0 -85 -55
-85 -77 0 -7 -6 -13 -13 -13 -19 0 -67 -53 -67 -73 0 -24 -18 -13 -111 63 -41
33 -81 60 -90 60 -12 0 -23 -22 -39 -82 -18 -68 -21 -99 -17 -169 5 -84 30
-192 49 -216 27 -33 -31 -78 -115 -89 -37 -5 -54 -14 -77 -41 -33 -37 -33 -38
-31 -213 1 -69 -3 -113 -11 -127 -45 -75 -78 -122 -114 -158 -23 -23 -45 -57
-51 -80 -14 -50 -8 -137 13 -176 23 -46 86 -102 150 -134 55 -28 68 -30 174
-31 63 -1 125 -2 137 -3 l22 -1 -26 -62 c-32 -79 -55 -158 -81 -273 -28 -122
-34 -176 -37 -339 -3 -116 -7 -142 -22 -160 -29 -34 -41 -60 -57 -124 -32
-120 -12 -287 48 -415 35 -73 47 -236 22 -285 -9 -18 -20 -32 -24 -32 -18 0
-162 -101 -172 -120 -12 -23 -4 -44 14 -37 7 3 26 -1 42 -9 16 -7 41 -18 56
-23 16 -6 28 -19 30 -33 2 -16 10 -23 25 -23 12 0 28 -7 35 -17 17 -21 101
-38 194 -38 56 0 89 -6 132 -24 31 -13 78 -27 105 -31 26 -4 47 -11 47 -15 0
-15 -52 -86 -83 -113 -44 -37 -105 -64 -216 -93 -206 -53 -403 -17 -646 119
-105 59 -129 76 -127 92 2 11 8 45 13 75 8 44 7 63 -6 93 -8 20 -22 37 -30 37
-11 0 -15 11 -15 39 0 33 -5 43 -30 61 -17 12 -30 27 -29 33 3 28 -2 47 -18
62 -16 17 -29 37 -73 121 -14 25 -40 51 -67 68 -27 16 -49 39 -56 57 -12 31
-34 35 -47 9 -26 -52 -41 -280 -20 -305 6 -7 6 -24 0 -46 -12 -40 -13 -93 -2
-103 4 -4 7 -18 8 -29 2 -71 5 -87 19 -101 8 -8 15 -28 15 -43 0 -16 6 -37 13
-46 19 -26 127 -77 163 -77 26 0 36 -7 59 -43 70 -106 285 -287 426 -358 91
-45 243 -87 346 -96 168 -13 411 45 617 149 90 45 118 63 211 138 72 58 192
192 251 282 58 89 67 98 101 103 134 21 278 71 289 100 10 24 -34 99 -86 151
-47 47 -48 48 -31 70 23 29 64 132 89 224 68 244 62 389 -19 552 -56 112 -115
158 -203 158 -41 0 -48 4 -70 37 -14 20 -53 65 -88 100 -69 71 -68 83 8 83
133 0 234 -47 381 -177 132 -118 157 -133 179 -112 13 14 13 24 -6 95 -12 43
-25 90 -30 104 -5 14 -11 38 -15 53 -5 25 -3 28 13 23 13 -4 25 3 41 25 13 17
48 42 78 56 49 23 65 25 132 20 91 -6 176 -37 230 -84 22 -18 63 -72 92 -119
56 -91 66 -101 80 -87 10 10 -3 66 -56 257 -21 75 -63 183 -85 216 -8 14 -22
39 -30 55 -24 49 -209 228 -275 265 -111 63 -201 98 -296 115 -62 10 -101 22
-114 35 -12 11 -33 20 -46 20 -33 0 -133 -60 -189 -114 -35 -35 -55 -45 -92
-50 -63 -9 -123 20 -133 63 -3 16 -20 48 -36 70 l-29 41 54 0 c60 0 122 -19
166 -50 23 -17 34 -19 49 -10 17 9 19 17 15 53 -15 126 -61 286 -101 355 -24
42 -24 44 -6 57 31 24 192 85 222 85 58 0 75 18 47 49 -8 9 -18 32 -24 52 -8
29 -6 40 8 60 10 13 16 27 14 31 -3 4 5 12 16 18 29 15 60 69 60 103 0 15 9
40 21 56 11 15 23 47 26 71 3 24 16 53 29 67 16 17 26 46 33 96 6 40 15 95 20
122 8 48 1 75 -19 75 -10 0 -58 -41 -126 -106 -30 -28 -78 -63 -108 -77 -30
-14 -60 -34 -68 -44 -7 -10 -33 -27 -58 -37 -25 -10 -61 -25 -81 -33 -20 -8
-48 -26 -63 -40 -29 -27 -28 -27 -135 2 -35 9 -74 15 -87 12 -30 -5 -31 10 -5
86 20 58 83 158 120 191 43 39 12 66 -78 66 l-48 0 2 87 c1 47 -1 125 -4 172
-5 76 -8 86 -26 89 -16 2 -32 -16 -74 -88z m53 -57 c-1 -15 -3 -31 -3 -35 -1
-4 -8 -5 -16 -2 -16 6 -21 -11 -6 -20 28 -18 8 -166 -23 -166 -7 0 -27 -3 -44
-6 -28 -6 -33 -3 -44 22 -6 16 -19 37 -27 47 -13 16 -12 20 5 44 33 44 61 48
96 13 38 -38 50 -31 19 11 l-23 30 28 54 c29 55 41 58 38 8z m-164 -195 c11
-18 20 -36 20 -39 0 -5 -74 -27 -110 -32 -11 -1 -15 7 -14 35 2 47 18 68 55
68 22 0 34 -8 49 -32z m247 -64 c21 -6 20 -9 -27 -80 -56 -82 -85 -154 -95
-231 -7 -58 -8 -58 49 -42 24 7 66 8 104 4 l65 -7 -43 -24 c-23 -13 -53 -24
-67 -24 -42 0 -134 -31 -184 -61 -25 -16 -50 -29 -54 -29 -4 0 -21 -6 -38 -14
-40 -17 -240 -64 -289 -68 -79 -5 -174 100 -214 238 -18 64 -16 215 4 250 6
10 12 13 12 7 0 -7 40 -42 89 -78 49 -37 92 -73 95 -81 10 -25 35 -15 60 24
86 134 256 217 456 221 30 0 65 -2 77 -5z m-382 -21 c0 -6 -24 -27 -52 -47
-29 -20 -53 -33 -53 -28 0 11 47 74 62 84 17 11 43 6 43 -9z m1049 -65 c-3
-18 -13 -57 -21 -86 -12 -40 -20 -51 -32 -47 -14 4 -16 -5 -17 -59 0 -69 -14
-97 -43 -89 -16 4 -18 -1 -13 -46 5 -58 -15 -101 -48 -101 -14 0 -20 -7 -20
-23 0 -30 -45 -77 -75 -77 -13 0 -35 4 -50 10 -22 9 -27 7 -35 -15 -14 -37
-67 -67 -113 -63 -33 3 -42 -1 -59 -24 -28 -40 -73 -61 -113 -54 -37 7 -57 -9
-25 -19 27 -8 21 -29 -10 -33 -55 -8 -159 59 -193 124 -9 17 -21 57 -28 91
-11 51 -10 64 1 78 26 32 191 102 210 90 5 -3 2 -21 -6 -40 -16 -40 -18 -65
-4 -65 6 0 10 5 10 12 0 6 9 30 20 53 23 47 80 85 129 85 30 0 31 -1 17 -22
-18 -28 -33 -128 -19 -128 5 0 15 23 21 50 15 64 52 120 91 136 l30 13 6 -47
c16 -123 30 -138 31 -34 0 48 6 77 19 100 27 45 42 40 50 -18 4 -32 12 -50 21
-50 8 0 11 6 8 15 -13 34 7 108 38 137 36 34 48 35 42 6 -5 -29 5 -78 17 -78
5 0 9 21 9 48 0 31 7 55 20 72 17 21 20 22 20 7 0 -12 6 -17 18 -15 12 2 16
11 14 29 -2 18 8 36 40 67 23 23 43 42 45 42 1 0 0 -15 -3 -32z m-1173 -46
c-5 -9 -18 -25 -29 -36 -20 -17 -20 -17 -15 6 9 44 12 48 33 48 17 0 19 -3 11
-18z m-182 -432 c50 -44 87 -47 220 -16 125 28 156 32 146 16 -14 -22 34 -79
68 -80 9 0 17 -7 17 -15 0 -24 35 -87 62 -111 35 -32 85 -55 137 -63 42 -6 46
-9 53 -41 9 -39 -7 -225 -23 -280 -25 -81 -94 -220 -133 -267 -18 -21 -47 -60
-66 -88 -18 -27 -41 -59 -51 -70 -22 -25 -79 -187 -79 -225 0 -16 -6 -34 -12
-39 -76 -61 -79 -64 -68 -103 6 -20 19 -47 29 -60 19 -22 19 -23 -10 -59 -29
-37 -37 -59 -21 -59 5 0 23 17 40 38 17 22 44 45 61 51 28 12 31 11 63 -24 18
-21 39 -57 48 -81 8 -23 31 -61 50 -84 19 -23 44 -69 56 -103 11 -34 32 -79
47 -100 37 -55 53 -135 39 -196 -13 -55 -5 -92 29 -149 22 -37 46 -133 56
-227 3 -27 11 -58 19 -69 11 -16 10 -24 -12 -55 -26 -38 -30 -76 -14 -130 7
-27 6 -42 -8 -70 -9 -20 -17 -58 -17 -86 0 -38 -9 -67 -37 -120 -36 -70 -68
-105 -143 -160 -41 -31 -85 -75 -85 -87 0 -3 -3 -13 -6 -22 -5 -12 0 -16 19
-16 29 0 79 27 149 80 26 19 58 43 72 53 15 10 30 35 37 60 7 23 20 51 30 62
18 21 38 73 59 160 20 84 53 154 74 157 10 2 25 13 33 25 14 21 14 23 -2 29
-10 4 -27 2 -38 -5 -18 -12 -19 -11 -13 16 4 15 12 67 18 114 9 81 8 89 -13
130 -12 24 -24 64 -26 88 -2 25 -9 54 -17 65 -11 17 -11 27 0 56 19 54 16 94
-12 148 -14 27 -26 70 -28 96 -2 29 -10 57 -24 74 -12 15 -42 60 -67 100 l-47
72 23 19 22 18 -23 39 c-13 21 -33 49 -44 62 -19 21 -19 25 -5 50 21 39 47 38
132 -6 134 -70 207 -144 295 -300 81 -144 112 -255 112 -403 0 -265 -99 -584
-259 -839 -75 -119 -187 -226 -332 -317 -184 -115 -307 -160 -501 -184 -134
-16 -257 -2 -406 47 -141 46 -154 55 -66 48 81 -7 124 0 124 20 0 18 -22 26
-68 26 -59 0 -158 35 -252 89 -48 28 -92 51 -98 51 -26 0 -87 67 -196 220 -6
8 7 1 29 -16 64 -49 213 -136 305 -177 165 -75 239 -91 405 -92 117 0 139 3
218 29 234 76 346 239 350 507 2 106 -15 142 -23 50 l-5 -54 -76 104 c-91 125
-103 146 -140 261 -38 119 -51 194 -52 310 -2 110 -20 135 -30 42 -11 -108 26
-313 80 -443 20 -47 95 -165 142 -221 59 -71 74 -106 67 -159 -3 -25 -12 -48
-19 -53 -24 -15 -116 -8 -184 15 -57 19 -84 23 -163 20 -83 -4 -99 -1 -128 16
-38 25 -47 41 -38 77 12 48 49 70 128 79 128 13 118 15 160 -45 38 -54 68 -75
68 -48 0 8 -11 27 -24 43 -116 141 -254 341 -306 445 -37 73 -70 215 -70 307
0 161 37 234 133 262 60 17 62 35 3 29 -42 -5 -44 -4 -50 25 -10 51 -7 70 18
96 14 15 27 41 29 62 2 19 11 46 20 59 19 28 21 53 7 81 -8 14 -7 27 5 48 8
17 15 41 15 54 0 13 8 35 19 48 10 13 22 35 26 48 4 13 22 37 41 53 18 16 36
39 40 51 3 12 23 47 43 78 l36 56 78 7 c47 4 99 16 131 30 72 32 165 116 128
116 -5 0 -29 -15 -53 -34 -52 -41 -180 -86 -241 -86 -24 0 -83 10 -133 21 -60
14 -140 23 -239 26 -162 6 -193 14 -275 73 -63 46 -79 98 -62 199 1 2 17 0 36
-3 19 -4 35 -3 35 1 0 13 -14 30 -29 34 -7 3 15 20 50 39 140 74 195 142 193
236 -1 70 -28 88 -83 59 -27 -13 -29 -13 -34 7 -3 11 1 39 9 62 28 76 28 84
-1 51 l-27 -30 7 35 c9 48 31 79 63 91 26 10 46 9 120 -7 39 -8 43 8 5 22
l-28 9 45 27 c57 34 68 34 109 -2z m421 6 c0 -14 5 -37 10 -53 l10 -28 -20 24
c-21 24 -28 81 -10 81 6 0 10 -11 10 -24z m669 -105 c12 -16 21 -33 21 -39 0
-5 -25 -12 -56 -15 -31 -3 -80 -17 -108 -31 -62 -30 -136 -92 -136 -113 0 -8
20 -38 44 -66 57 -68 91 -138 109 -223 8 -38 13 -71 11 -72 -1 -2 -23 8 -49
23 -39 24 -54 27 -109 23 -45 -3 -70 -10 -91 -26 -15 -12 -30 -21 -32 -19 -2
2 6 26 18 53 18 41 22 73 25 204 2 85 4 158 4 161 0 3 23 16 51 28 27 13 55
32 62 42 7 12 23 19 42 19 40 1 111 33 127 59 18 29 43 26 67 -8z m-1341 -228
c-5 -25 -28 -28 -28 -4 0 12 6 21 16 21 9 0 14 -7 12 -17z m-31 -145 c-31 -24
-37 -22 -37 11 0 55 9 63 35 33 l24 -27 -22 -17z m-58 -20 c11 -15 8 -19 -19
-33 -18 -9 -34 -15 -36 -13 -2 2 6 19 17 37 11 18 21 32 22 30 2 -2 8 -12 16
-21z m1086 -278 c30 -61 28 -76 -20 -126 l-45 -48 -39 22 c-21 12 -46 22 -55
22 -21 0 -21 2 17 62 18 29 41 70 52 90 l19 37 29 -17 c16 -9 35 -28 42 -42z
m550 -40 c67 0 163 -20 230 -47 102 -42 292 -185 353 -267 38 -50 107 -175
100 -181 -2 -2 -33 45 -70 103 -37 59 -86 126 -110 149 -61 59 -204 151 -262
168 -73 22 -176 31 -185 16 -5 -7 15 -67 45 -137 29 -68 60 -148 67 -176 28
-105 37 -149 36 -176 -1 -33 -3 -27 -25 73 -18 87 -89 280 -111 306 -7 8 -13
20 -13 26 0 6 -16 25 -35 42 -27 24 -45 31 -76 31 -40 0 -89 -19 -121 -47 -13
-11 -21 -12 -37 -3 -12 6 -21 14 -21 18 0 16 58 73 110 107 52 35 55 36 58 16
3 -19 10 -21 67 -21z m-1 -122 c43 -42 129 -237 155 -352 l19 -85 -29 14 c-15
8 -42 15 -59 15 -20 0 -30 5 -30 15 0 8 -4 23 -9 33 -5 9 -24 48 -41 85 -31
67 -155 237 -173 237 -19 0 19 34 58 51 56 26 70 24 109 -13z m284 -10 c70
-29 199 -126 245 -185 62 -79 145 -209 163 -257 7 -17 0 -16 -47 11 -124 70
-267 92 -346 53 -23 -11 -45 -24 -48 -30 -14 -23 -23 -7 -30 53 -11 98 -31
174 -74 281 -23 55 -41 103 -41 109 0 16 102 -4 178 -35z m-722 17 c12 -11 31
-13 88 -8 70 5 76 4 112 -23 56 -40 103 -85 126 -119 11 -16 1 -8 -23 19 -23
27 -58 55 -76 62 -45 19 -112 17 -152 -4 l-33 -18 -3 -100 c-2 -96 -19 -197
-51 -303 -26 -89 -25 -50 2 73 20 92 25 139 22 211 -1 52 -7 97 -11 101 -14
14 -70 -27 -194 -144 -67 -63 -136 -123 -153 -134 -43 -26 -131 -58 -142 -52
-4 3 -8 -2 -8 -10 0 -8 10 -16 22 -18 33 -5 32 -24 -3 -38 -30 -13 -33 -12
-55 16 -13 16 -24 39 -24 51 0 28 36 53 75 52 23 -1 25 -3 8 -6 -29 -6 -30
-23 -1 -23 36 0 126 52 181 105 29 27 79 91 112 140 60 91 140 185 157 185 5
0 16 -7 24 -15z m-289 -112 l6 -62 -35 5 c-67 11 -114 -31 -138 -123 -9 -36
-9 -35 -5 16 5 64 28 113 96 206 50 67 52 68 61 45 5 -14 12 -53 15 -87z
m-434 71 c20 -4 37 -9 37 -13 0 -3 -9 -20 -19 -37 -24 -39 -64 -51 -97 -29
-27 17 -29 32 -12 70 9 20 17 25 32 21 12 -3 38 -9 59 -12z m934 -55 c81 -30
183 -199 289 -479 14 -36 29 -69 34 -74 6 -6 10 -14 10 -18 0 -5 -33 17 -72
47 -88 67 -231 143 -290 153 -42 8 -89 3 -137 -12 -22 -8 -23 -6 -16 20 16 65
45 259 45 303 0 26 5 52 12 59 15 15 87 16 125 1z m-984 -59 c9 0 17 -2 17 -5
0 -18 -27 -54 -55 -73 -27 -19 -37 -21 -54 -12 -25 13 -24 9 -7 51 7 19 16 42
19 51 6 16 9 16 34 3 15 -8 36 -15 46 -15z m761 -120 c-6 -66 -20 -137 -42
-208 -12 -41 -19 -51 -31 -46 -9 4 -43 17 -76 29 -33 12 -73 30 -90 39 -18 9
-54 16 -90 16 l-60 1 38 19 c21 10 53 31 71 47 19 15 53 44 77 63 24 19 53 44
64 55 12 11 46 42 76 69 l54 49 7 -39 c4 -22 5 -64 2 -94z m-290 51 c3 -4 0
-15 -7 -23 -18 -23 -87 -71 -93 -66 -7 7 15 60 33 80 17 19 58 24 67 9z m-556
-49 c18 -12 0 -57 -33 -78 -34 -22 -40 -13 -25 41 13 45 29 55 58 37z m-38
-135 c0 -28 -26 -67 -46 -67 -14 0 -14 13 3 73 7 26 43 22 43 -6z m648 -80
c17 -13 15 -42 -3 -57 -23 -19 -18 -54 11 -81 22 -21 54 -69 54 -82 0 -3 -9
-7 -20 -10 -29 -7 -25 -29 14 -80 19 -25 42 -58 51 -74 8 -15 25 -43 36 -62
15 -25 19 -44 14 -69 -5 -27 -1 -40 20 -68 37 -48 41 -88 15 -153 l-21 -55 21
-28 c12 -16 24 -46 26 -66 3 -20 15 -54 26 -76 20 -36 20 -44 9 -154 -7 -65
-20 -135 -31 -161 -11 -25 -26 -80 -34 -122 -19 -91 -24 -106 -48 -141 -10
-14 -18 -32 -18 -39 0 -7 -9 -32 -21 -55 -14 -31 -45 -61 -107 -108 -95 -73
-144 -90 -72 -25 105 93 153 146 177 193 14 28 29 52 34 54 5 2 9 34 9 70 1
39 7 77 15 92 8 15 14 53 15 93 0 47 6 80 19 106 13 25 16 42 10 52 -5 8 -9
37 -9 65 0 28 -7 68 -15 87 -8 20 -15 47 -15 59 0 13 -16 57 -36 98 -34 72
-36 78 -30 150 8 88 -9 159 -55 232 -17 25 -32 59 -35 75 -2 15 -27 61 -56
102 -28 41 -50 84 -50 97 0 12 -16 37 -34 55 -39 37 -42 61 -15 88 17 17 29
19 78 14 32 -3 64 -10 71 -16z m-661 -33 c7 -20 -12 -63 -32 -71 -23 -8 -26 0
-19 46 5 31 11 41 26 41 10 0 21 -7 25 -16z m-27 -117 c0 -7 -7 -22 -15 -33
-14 -18 -14 -17 -15 14 0 22 5 32 15 32 8 0 15 -6 15 -13z m1242 -196 c54 -24
84 -52 104 -99 66 -151 66 -377 2 -567 -44 -128 -122 -254 -145 -231 -3 2 9
51 25 108 37 125 52 227 52 358 0 123 -17 197 -75 330 -34 79 -42 106 -33 112
18 11 21 10 70 -11z m-2239 -719 c-5 -12 -2 -14 12 -8 22 8 55 -19 55 -46 0
-11 -5 -28 -11 -40 -14 -27 -3 -35 19 -15 10 10 22 14 25 10 11 -11 8 -71 -4
-79 -8 -4 -8 -9 1 -18 8 -8 13 -7 19 3 15 23 41 5 41 -28 0 -16 -4 -33 -10
-36 -21 -13 -9 -26 19 -20 23 5 32 2 45 -17 17 -24 22 -78 8 -78 -5 0 -14 -12
-21 -26 -10 -24 -10 -26 6 -19 46 19 53 18 53 -7 0 -27 -18 -88 -30 -101 -4
-5 -21 -2 -38 7 -17 9 -36 16 -42 16 -16 0 -12 -31 6 -52 16 -16 16 -18 0 -24
-24 -9 -66 4 -66 22 0 8 7 26 16 39 21 32 0 34 -32 4 -47 -44 -71 5 -37 76 19
39 9 61 -13 30 -13 -17 -16 -18 -24 -5 -13 20 -12 77 1 85 13 9 28 47 22 58
-2 4 -13 -3 -23 -15 l-19 -23 0 35 c0 19 6 53 14 75 8 22 15 41 15 43 0 1 -9
2 -20 2 -24 0 -26 26 -5 77 8 19 15 38 15 40 0 3 -7 3 -15 -1 -12 -4 -15 4
-15 41 0 45 0 46 19 29 12 -11 17 -25 14 -34z m1052 -74 c27 -40 59 -86 72
-101 31 -38 29 -48 -6 -36 -41 14 -204 -49 -243 -94 -25 -30 -28 -31 -44 -15
-32 31 -11 66 62 100 35 16 69 38 74 48 6 10 15 53 21 94 6 42 13 76 14 76 1
0 24 -33 50 -72z m1226 -138 c39 -11 68 -39 87 -83 12 -27 11 -29 -25 -44 -46
-19 -210 -49 -219 -40 -7 7 49 139 69 165 11 15 40 15 88 2z m-1366 -111 c-9
-17 -19 -28 -22 -25 -8 8 17 56 29 56 5 0 1 -14 -7 -31z m-451 -513 c34 -24
88 -55 121 -70 33 -14 52 -25 42 -26 -29 0 -121 47 -183 95 -74 58 -60 58 20
1z m304 -103 c-16 -2 -40 -2 -55 0 -16 2 -3 4 27 4 30 0 43 -2 28 -4z"/>
<path d="M2299 4270 c-41 -12 -91 -52 -79 -64 6 -6 17 -3 32 12 30 28 105 44
148 32 64 -18 104 -72 114 -155 4 -28 9 -65 12 -84 l5 -33 -54 56 c-44 45 -62
56 -87 56 -18 0 -29 -4 -25 -10 3 -5 15 -10 25 -10 23 0 76 -44 94 -79 8 -14
17 -52 21 -84 4 -31 11 -57 15 -57 26 0 38 121 25 235 -17 137 -128 221 -246
185z"/>
<path d="M2177 4049 c-47 -25 -83 -80 -92 -141 -9 -68 16 -65 33 4 13 56 35
96 58 105 20 8 30 -5 16 -19 -18 -18 -15 -53 6 -72 11 -9 24 -41 31 -70 11
-49 16 -56 52 -73 l40 -19 -26 -24 c-23 -21 -36 -25 -86 -24 -67 1 -69 -9 -6
-24 123 -32 205 73 171 219 -16 69 -43 113 -82 133 -49 24 -76 25 -115 5z m93
-68 c5 -11 7 -27 4 -36 -9 -23 -68 -16 -72 8 -8 41 48 64 68 28z"/>
<path d="M1803 3693 c-22 -8 -14 -33 10 -33 13 0 28 -5 35 -12 9 -9 15 -9 24
0 9 9 6 16 -12 32 -23 20 -34 23 -57 13z"/>
<path d="M2595 2655 c-3 -8 -7 -22 -10 -30 -2 -8 0 -26 5 -40 18 -47 75 -19
67 33 -6 43 -52 70 -62 37z m35 -41 c0 -14 -4 -23 -10 -19 -5 3 -10 15 -10 26
0 10 5 19 10 19 6 0 10 -12 10 -26z"/>
<path d="M2913 2534 c-3 -8 2 -35 12 -59 26 -71 78 -85 78 -22 0 52 -75 119
-90 81z m51 -36 c18 -26 21 -51 5 -46 -14 5 -41 68 -29 68 5 0 16 -10 24 -22z"/>
<path d="M2977 2173 c-11 -10 -8 -41 4 -48 16 -11 59 4 59 20 0 23 -48 44 -63
28z m38 -23 c3 -5 -1 -10 -10 -10 -9 0 -13 5 -10 10 3 6 8 10 10 10 2 0 7 -4
10 -10z"/>
<path d="M3010 2076 c-27 -30 -21 -56 15 -56 20 0 29 8 40 32 7 18 11 36 9 40
-10 16 -41 7 -64 -16z m30 -17 c-7 -11 -14 -18 -17 -15 -3 3 0 12 7 21 18 21
23 19 10 -6z"/>
<path d="M2741 2059 c-6 -18 -11 -44 -11 -59 0 -33 25 -59 42 -42 13 13 27 88
21 113 -8 30 -40 23 -52 -12z"/>
<path d="M2438 1055 c-51 -48 -50 -73 2 -65 27 3 81 51 78 68 -3 18 -17 32
-33 32 -5 0 -27 -16 -47 -35z m36 -26 c-9 -10 -24 -19 -32 -19 -9 0 -4 10 14
28 32 30 47 23 18 -9z"/>
<path d="M2310 1015 c-14 -17 -6 -45 13 -45 19 0 50 36 42 49 -9 16 -41 13
-55 -4z m35 -15 c-3 -5 -11 -10 -16 -10 -6 0 -7 5 -4 10 3 6 11 10 16 10 6 0
7 -4 4 -10z"/>
<path d="M2008 973 c-61 -3 -90 -8 -99 -19 -24 -29 6 -38 138 -41 114 -2 131
0 165 19 21 12 37 27 35 32 -4 12 -92 15 -239 9z m192 -23 c-8 -5 -37 -9 -65
-9 -44 1 -46 2 -20 9 46 12 103 12 85 0z m-190 -10 c-36 -4 -69 -3 -74 2 -6 4
24 7 65 6 l74 -1 -65 -7z"/>
</g>
</svg>
