<?xml version="1.0" standalone="no"?>
<!DOCTYPE svg PUBLIC "-//W3C//DTD SVG 20010904//EN"
 "http://www.w3.org/TR/2001/REC-SVG-20010904/DTD/svg10.dtd">
<svg version="1.0" xmlns="http://www.w3.org/2000/svg"
 width="265.427361pt" height="487.018175pt" viewBox="0 0 265.427361 487.018175"
 preserveAspectRatio="xMidYMid meet">
<metadata>
Created by potrace 1.16, written by Peter Selinger 2001-2019
</metadata>
<g transform="translate(-19.000000,498.835813) scale(0.100000,-0.100000)"
fill="#000000" stroke="none">
<path d="M442 4977 c-6 -7 -13 -30 -15 -51 -2 -21 -10 -42 -18 -47 -11 -7 -11
-9 3 -9 13 0 17 -13 20 -72 2 -40 0 -79 -5 -85 -7 -9 -4 -13 7 -13 9 0 16 -6
16 -12 0 -35 76 -278 87 -278 7 0 10 -6 7 -14 -6 -16 25 -110 62 -193 15 -31
28 -64 29 -72 1 -9 7 -15 12 -14 5 1 9 -7 10 -17 2 -23 65 -173 115 -272 21
-42 38 -83 38 -92 0 -9 3 -16 8 -16 4 0 16 -27 26 -59 l19 -60 -32 -133 c-18
-73 -38 -171 -44 -218 l-13 -85 -39 -1 c-22 0 -46 -2 -52 -2 -22 -3 -45 -50
-50 -104 -4 -46 -1 -59 24 -96 24 -36 47 -53 148 -104 66 -34 131 -67 145 -74
14 -8 71 -58 126 -111 115 -111 117 -116 159 -322 14 -68 27 -126 29 -130 3
-3 7 -27 11 -51 3 -25 10 -69 15 -99 22 -122 6 -196 -51 -230 -16 -10 -41 -16
-57 -13 -39 5 -104 108 -231 364 -116 235 -143 268 -210 258 -21 -2 -29 -13
-117 -145 -160 -238 -255 -419 -333 -630 -41 -111 -101 -313 -101 -340 0 -34
29 -9 95 81 132 179 194 188 292 42 14 -21 27 -38 29 -38 2 0 12 17 23 37 39
76 131 143 197 143 43 0 82 -31 142 -110 l56 -74 11 41 c12 51 20 59 21 25 1
-15 7 -49 14 -77 14 -60 14 -55 12 -127 -2 -43 -6 -58 -16 -58 -8 0 -24 -12
-35 -26 -12 -15 -21 -24 -21 -20 0 15 -26 -20 -39 -52 -10 -24 -16 -30 -22
-20 -7 10 -9 9 -9 -4 0 -9 -4 -18 -10 -20 -5 -1 -16 -30 -25 -63 -9 -33 -22
-79 -29 -103 -6 -24 -15 -40 -19 -36 -4 4 -7 -1 -8 -12 -1 -20 -1 -23 -19 -99
-6 -27 -15 -84 -20 -125 -11 -96 -27 -130 -60 -130 -55 -1 -64 -9 -87 -78 -13
-37 -23 -71 -23 -76 0 -4 20 -6 44 -5 26 3 48 -1 55 -8 16 -17 74 -16 117 2
32 13 37 13 51 0 24 -24 77 -18 114 12 l32 27 -6 77 c-6 74 -5 77 21 103 16
14 31 26 34 26 4 0 14 -19 23 -43 27 -71 146 -137 248 -137 l40 0 -39 -28
c-65 -48 -83 -54 -158 -56 -84 -2 -96 -8 -96 -48 0 -33 -27 -98 -41 -98 -5 0
-9 -5 -9 -11 0 -7 12 -10 30 -7 18 3 35 -1 41 -9 15 -18 83 -16 120 3 29 14
32 14 45 -3 7 -10 14 -21 14 -25 1 -25 116 2 150 34 13 13 34 30 47 39 23 15
25 15 54 -12 40 -38 61 -43 103 -25 33 14 36 18 36 56 0 52 -13 76 -53 100
-27 17 -34 28 -42 77 l-11 58 36 24 c26 18 135 51 167 51 2 0 3 -45 3 -101 0
-86 -3 -105 -20 -126 -36 -46 -18 -127 31 -138 40 -9 88 3 102 26 15 25 47 24
91 -2 21 -12 62 -23 96 -26 l61 -6 -10 25 c-5 14 -16 48 -25 77 -13 45 -13 51
-1 41 8 -7 22 -36 32 -66 15 -48 33 -72 33 -43 0 6 18 10 43 9 23 -1 54 -1 70
-1 l27 1 -30 60 c-16 33 -30 62 -30 66 0 16 29 -20 45 -56 15 -32 23 -40 45
-40 15 0 29 3 33 6 7 7 -18 49 -45 76 -10 10 -18 27 -18 37 0 26 -23 32 -112
30 -104 -2 -123 2 -51 12 35 4 67 10 72 14 9 5 -11 50 -43 96 -6 8 1 2 17 -15
15 -17 27 -37 27 -45 0 -11 10 -13 48 -8 26 3 60 10 76 17 25 9 27 12 14 23
-8 7 -28 30 -43 52 l-28 40 30 -31 c17 -17 33 -38 36 -45 3 -11 7 -12 18 -2
10 11 8 18 -14 41 -15 15 -27 31 -27 35 0 4 -10 18 -22 32 -18 21 -28 25 -56
20 l-34 -5 31 37 c16 20 44 42 60 49 29 12 31 11 43 -13 8 -15 28 -32 48 -39
63 -23 122 -17 222 22 158 62 169 67 165 78 -6 18 -92 58 -131 60 -5 1 -10 -8
-12 -18 -1 -11 -13 -29 -25 -40 l-22 -21 19 32 c14 25 16 39 8 60 -13 37 -28
36 -32 -2 -2 -16 -8 -34 -14 -40 -7 -7 -9 -2 -4 16 4 18 0 33 -14 49 -10 12
-20 26 -22 31 -2 6 -12 7 -22 3 -13 -5 -14 -9 -6 -14 18 -11 3 -94 -20 -115
-20 -18 -20 -18 -4 13 8 18 14 46 12 64 -3 29 -7 33 -34 36 -18 2 -38 -3 -46
-12 -8 -8 -37 -17 -64 -21 -27 -4 -56 -9 -65 -11 -12 -3 -18 4 -23 30 -7 37
-66 158 -90 185 -12 14 -12 27 5 106 10 50 23 100 28 111 5 12 17 70 26 129
16 101 16 176 0 235 -7 24 -6 24 19 -5 14 -16 37 -54 52 -84 l26 -53 21 30
c29 41 106 91 148 98 29 5 41 1 69 -23 56 -46 100 -97 160 -185 61 -91 85
-105 84 -48 -1 38 -7 76 -17 100 -3 8 -22 70 -42 137 -19 68 -46 148 -60 179
-14 31 -25 61 -25 67 0 6 -8 29 -19 51 -10 23 -29 67 -41 98 -12 32 -26 55
-31 52 -5 -3 -9 3 -9 13 0 11 -14 38 -31 61 -17 23 -29 42 -26 42 3 0 -9 15
-25 32 -17 18 -60 77 -95 130 -76 115 -124 168 -153 168 -13 0 -18 -4 -14 -11
4 -7 -2 -7 -17 1 -13 7 -21 10 -18 6 3 -4 0 -32 -8 -64 -8 -31 -18 -73 -22
-92 -7 -38 -28 -44 -23 -7 1 12 4 38 6 57 3 19 9 55 15 80 13 56 14 100 2 100
-13 0 -44 -57 -59 -105 -6 -22 -23 -96 -37 -165 -14 -69 -30 -141 -35 -160 -5
-19 -16 -59 -25 -89 -10 -36 -12 -59 -5 -71 13 -24 16 -80 5 -104 -6 -14 -5
-17 4 -11 10 6 11 3 2 -13 -9 -18 -8 -23 8 -32 29 -15 32 -13 26 18 -5 26 -5
26 5 3 6 -13 9 -25 7 -27 -7 -8 -169 -114 -173 -114 -2 0 -4 7 -4 15 0 8 -5
15 -11 15 -5 0 -9 -10 -7 -21 2 -18 -11 -31 -66 -65 -58 -36 -71 -41 -87 -31
-13 8 -19 23 -19 47 0 61 -32 214 -49 234 -15 18 -15 18 5 12 14 -4 38 5 80
32 32 21 84 50 114 66 72 37 122 75 114 87 -3 6 -11 8 -17 6 -6 -2 -18 4 -27
12 -8 9 -12 12 -7 7 4 -6 7 -17 7 -26 0 -19 -135 -104 -154 -97 -8 3 -16 -2
-19 -11 -2 -9 -21 -26 -40 -36 -46 -24 -62 -13 -70 47 -3 23 -17 76 -31 117
-13 41 -26 82 -28 90 -1 8 -7 18 -11 21 -4 3 19 18 53 33 67 30 124 75 150
119 l17 28 18 -28 c10 -15 18 -33 18 -40 0 -7 4 -10 9 -6 6 3 8 -3 7 -13 -3
-25 19 -101 31 -109 13 -8 13 2 -2 28 -10 20 -10 21 5 9 9 -8 28 -37 41 -65
25 -52 37 -43 14 10 -19 43 -228 427 -239 437 -27 28 9 54 190 135 151 68 166
79 193 138 26 60 12 109 -47 164 l-45 42 0 72 c0 39 9 105 19 146 26 102 34
164 26 209 -6 35 -12 42 -63 68 -66 34 -177 69 -260 82 -53 8 -50 9 38 7 83
-2 104 -7 163 -34 37 -18 67 -36 67 -41 0 -6 7 -12 15 -16 29 -11 15 18 -30
60 l-45 43 30 90 c33 103 51 140 130 271 62 103 116 212 149 302 20 55 20 57
1 55 -10 -1 -18 -4 -18 -7 2 -22 -4 -31 -17 -26 -10 4 -21 -8 -35 -42 -11 -26
-25 -54 -30 -62 -21 -31 -22 -42 -9 -52 10 -7 9 -8 -6 -3 -11 4 -26 8 -32 8
-7 0 -22 25 -33 54 -11 30 -27 69 -36 86 l-15 32 19 -24 20 -25 -4 32 c-2 18
1 32 6 32 6 0 10 6 10 14 0 7 7 19 16 26 8 8 14 25 14 39 -5 64 11 63 53 -4
26 -40 42 -51 70 -46 4 1 17 -3 27 -9 17 -9 20 -7 20 7 0 15 -7 18 -39 15 -36
-4 -41 -1 -56 30 -10 18 -26 43 -37 55 -11 12 -17 26 -14 32 14 22 16 85 4 93
-10 6 -9 8 3 8 15 0 15 4 1 48 -8 26 -17 49 -19 52 -7 8 -23 -24 -23 -45 0
-11 -6 -32 -14 -47 -8 -15 -12 -37 -9 -48 4 -14 -3 -30 -18 -47 l-24 -26 23 6
c25 6 26 8 -29 -74 -21 -31 -48 -60 -61 -64 -18 -6 -20 -8 -6 -12 13 -3 7 -16
-33 -71 -90 -123 -86 -120 -114 -115 -27 6 -35 -11 -9 -21 14 -5 14 -7 0 -22
-9 -8 -30 -36 -48 -62 -33 -48 -43 -44 -36 14 2 19 0 34 -4 34 -4 0 -8 -17 -9
-37 -1 -79 -8 -123 -23 -145 -9 -12 -16 -30 -16 -40 0 -10 -5 -18 -11 -18 -14
0 -6 120 22 308 10 74 19 141 19 150 0 28 -10 6 -15 -34 -7 -48 -64 -203 -85
-229 -9 -11 -34 -46 -55 -78 -21 -32 -45 -63 -54 -70 -8 -7 7 19 32 56 43 63
61 107 37 92 -5 -3 -10 2 -10 12 0 11 -4 23 -9 29 -5 5 -12 20 -16 34 -3 14
-3 20 2 13 4 -6 8 11 8 40 0 29 3 99 7 156 7 100 -4 131 -15 46 -3 -22 -22
-89 -42 -150 -20 -60 -45 -141 -56 -180 -10 -38 -16 -53 -13 -32 4 28 1 37 -9
37 -22 0 -93 -82 -106 -123 -7 -21 -16 -37 -20 -37 -14 0 -120 102 -141 136
-12 19 -26 31 -33 27 -6 -4 -8 0 -4 9 3 10 -8 30 -28 53 -19 20 -37 45 -40 56
-4 10 -11 19 -16 19 -12 0 -1 -48 17 -74 8 -11 11 -29 8 -41 -3 -13 1 -27 12
-36 16 -13 17 -12 11 11 -6 24 -5 24 8 6 13 -18 11 -24 -29 -70 -24 -28 -53
-52 -65 -54 -12 -2 -20 0 -19 5 2 5 -8 20 -20 33 -13 14 -33 42 -44 64 l-20
38 -76 -5 c-72 -5 -74 -5 -22 4 30 5 75 13 100 17 43 7 46 9 77 72 37 74 42
93 28 100 -6 3 -11 -5 -13 -17 -4 -25 -18 -31 -25 -10 -2 6 -8 9 -12 5 -4 -4
-3 -13 3 -20 7 -9 6 -24 -3 -52 -18 -52 -37 -70 -65 -61 -12 4 -19 9 -16 12 4
5 -17 48 -84 166 -29 52 -34 56 -73 60 l-42 4 41 1 c25 1 47 9 56 20 25 27 88
152 78 152 -5 0 -28 -34 -51 -75 -23 -42 -47 -75 -56 -75 -9 0 -13 6 -10 14 3
8 3 16 -1 18 -14 6 -89 176 -85 190 2 5 -4 8 -12 8 -8 0 -15 5 -15 11 0 6 7 8
16 5 10 -4 27 7 48 30 l33 36 22 -23 c24 -26 28 -14 6 15 -10 14 -12 23 -4 32
6 8 6 14 0 18 -8 5 -20 -6 -76 -75 -8 -11 -22 -15 -40 -12 -16 4 -23 9 -17 15
9 9 -33 127 -51 145 -9 9 49 43 73 43 27 0 25 13 -4 26 -19 9 -23 8 -20 -1 3
-6 -7 -17 -21 -23 -32 -15 -58 -16 -50 -2 4 6 1 18 -7 27 -11 14 -11 16 1 8 8
-5 5 6 -8 23 -26 37 -25 36 -39 19z m1597 -717 c19 -51 28 -62 58 -75 20 -9
34 -18 30 -21 -3 -3 -14 -1 -25 5 -32 17 -50 13 -64 -13 -30 -53 -92 -136
-102 -136 -7 0 -20 13 -29 30 -14 23 -16 34 -7 50 6 12 13 31 15 42 3 11 12
29 21 39 23 26 64 109 64 131 0 33 16 11 39 -52z m-110 -264 c7 -5 3 -15 -12
-29 -25 -23 -42 -55 -38 -72 1 -5 -10 2 -24 16 -23 23 -25 30 -16 48 13 23 2
28 -17 9 -8 -8 -15 -8 -27 2 -19 16 -20 31 0 24 8 -4 15 -2 15 4 0 5 12 22 27
36 l27 28 -22 38 c-40 70 -23 56 27 -21 27 -42 54 -79 60 -83z m-29 124 c0 -5
-7 -7 -15 -4 -8 4 -15 8 -15 10 0 2 7 4 15 4 8 0 15 -4 15 -10z m-810 -56
c-13 -33 -13 -37 2 -28 7 5 9 2 5 -9 -7 -18 17 -42 32 -33 6 4 8 -2 6 -14 -2
-11 0 -20 4 -20 4 0 7 -8 6 -17 0 -10 -4 -18 -9 -18 -4 0 -14 -12 -22 -27 -19
-37 -52 -36 -87 0 -15 16 -25 31 -22 34 3 3 -8 12 -26 20 l-31 15 26 7 c13 3
46 31 73 61 26 30 49 55 50 55 1 0 -2 -12 -7 -26z m40 -48 c0 -3 -4 -8 -10
-11 -5 -3 -10 -1 -10 4 0 6 5 11 10 11 6 0 10 -2 10 -4z m681 -85 c71 -81 101
-123 61 -87 l-32 30 -12 -35 c-7 -19 -11 -37 -10 -41 3 -13 -4 -9 -44 23 -22
17 -38 38 -36 46 2 9 -2 20 -10 24 -10 7 -9 9 5 9 9 0 17 4 17 9 0 5 7 17 16
25 8 9 11 16 5 16 -6 0 -11 5 -11 10 0 19 17 10 51 -29z m-670 -51 c-18 -17
-36 -30 -40 -30 -9 1 58 60 67 60 4 0 -8 -14 -27 -30z m36 2 c-10 -10 -17 -20
-17 -23 0 -2 30 -3 67 -2 67 2 67 1 26 -9 -24 -6 -43 -16 -43 -23 0 -8 -22
-15 -57 -20 -32 -4 -82 -16 -113 -28 -54 -20 -72 -34 -117 -93 -15 -19 -13
-11 7 25 17 29 32 58 33 64 2 11 24 22 121 57 26 10 60 29 74 44 30 30 44 35
19 8z m591 -78 c23 -22 29 -31 15 -25 -13 7 -24 7 -28 2 -6 -11 49 -55 83 -66
12 -3 22 -11 22 -16 0 -5 -13 -3 -30 6 -16 8 -36 15 -45 15 -8 0 -15 4 -15 9
0 5 -24 21 -52 35 -47 24 -49 26 -20 21 24 -3 31 -1 25 7 -10 18 -11 48 -1 48
4 0 25 -16 46 -36z m-355 -10 c46 -9 87 -51 86 -87 l-1 -32 -13 30 c-21 47
-49 66 -127 86 -65 16 -67 17 -23 13 28 -3 62 -8 78 -10z m-327 -375 c-33 -26
-60 -84 -80 -174 -14 -61 -15 -63 -11 -20 8 79 35 153 68 185 17 17 35 30 40
30 5 0 -2 -9 -17 -21z m214 -8 c26 -19 54 -82 39 -91 -4 -3 -4 -12 1 -20 6 -8
9 -33 9 -55 l-2 -40 -6 40 c-4 22 -13 50 -21 61 -34 54 -129 74 -188 39 -93
-55 -86 -208 12 -251 17 -7 24 -13 16 -14 -21 0 -90 48 -90 63 0 8 -4 7 -11
-3 -8 -12 -9 -10 -4 9 4 13 3 21 -1 18 -15 -9 -7 76 10 117 19 46 20 49 4 40
-8 -5 -7 -1 2 10 8 10 15 25 16 33 3 16 27 42 59 61 27 17 123 6 155 -17z
m457 -27 c-3 -3 -12 -4 -19 -1 -8 3 -5 6 6 6 11 1 17 -2 13 -5z m53 -29 c14 9
58 -35 79 -78 39 -80 17 -227 -41 -280 -24 -22 -33 -26 -39 -15 -7 10 -9 10
-9 -1 0 -11 -6 -8 -20 7 -14 14 -34 22 -58 23 -37 1 -37 1 -7 8 101 25 150
113 112 203 -21 49 -64 71 -132 66 -42 -2 -51 0 -43 10 6 6 7 12 4 12 -14 0
19 26 53 42 24 11 42 13 64 7 16 -5 33 -6 37 -4z m-514 -46 c10 -17 -13 -36
-27 -22 -12 12 -4 33 11 33 5 0 12 -5 16 -11z m492 -66 c-5 -25 -28 -28 -28
-4 0 12 6 21 16 21 9 0 14 -7 12 -17z m232 -253 c0 -6 -12 -8 -27 -5 -16 3
-22 2 -14 -1 8 -4 -13 -18 -55 -36 -103 -45 -176 -68 -171 -54 2 6 16 12 32
14 22 3 25 6 14 14 -12 8 -12 9 1 5 8 -2 32 5 52 15 21 11 43 21 50 22 7 1 19
5 26 9 6 5 17 5 22 2 6 -4 10 -3 9 2 -3 19 3 23 31 23 17 0 30 -5 30 -10z
m-413 -16 c-3 -3 -12 -4 -19 -1 -8 3 -5 6 6 6 11 1 17 -2 13 -5z m102 -485 c7
-16 15 -28 18 -25 2 2 -1 14 -7 26 -7 12 -8 20 -2 16 5 -3 15 -20 23 -38 7
-18 21 -39 31 -46 10 -7 18 -19 18 -26 0 -34 -163 -166 -205 -166 -11 0 -27 5
-35 10 -13 9 -13 10 1 10 14 0 14 7 -2 68 -26 98 -25 106 19 126 20 9 53 30
72 46 44 37 52 37 69 -1z m-422 -141 c-3 -8 -6 -5 -6 6 -1 11 2 17 5 13 3 -3
4 -12 1 -19z m593 -98 c6 -11 8 -20 6 -20 -3 0 -10 9 -16 20 -6 11 -8 20 -6
20 3 0 10 -9 16 -20z m-573 -27 c-3 -10 -5 -4 -5 12 0 17 2 24 5 18 2 -7 2
-21 0 -30z m10 -135 c-2 -18 -4 -6 -4 27 0 33 2 48 4 33 2 -15 2 -42 0 -60z
m-58 -274 c-27 -29 -59 -49 -59 -37 0 7 69 62 79 63 3 0 -6 -12 -20 -26z m838
-96 c-3 -8 -6 -5 -6 6 -1 11 2 17 5 13 3 -3 4 -12 1 -19z m-21 -15 c-2 -24
-21 -43 -54 -53 -15 -4 -26 -13 -24 -19 1 -7 -2 -10 -8 -6 -5 3 -20 1 -32 -5
-23 -11 -23 -11 1 9 13 12 20 21 17 21 -7 0 -57 -30 -66 -40 -3 -3 -22 -13
-43 -23 -25 -11 -36 -21 -31 -30 4 -6 4 -9 -1 -5 -4 4 -17 1 -29 -7 -11 -8
-36 -15 -56 -14 l-35 1 31 7 c16 4 48 20 69 34 22 15 43 27 48 27 5 0 24 12
42 26 34 25 154 93 166 94 4 0 6 -8 5 -17z m-146 -315 c-14 -6 -38 -17 -55
-23 -16 -7 -43 -17 -58 -24 -15 -6 -33 -11 -40 -11 -7 1 24 16 68 35 44 19 87
34 95 34 8 0 4 -5 -10 -11z m800 -615 c0 -5 -10 -19 -21 -33 l-21 -25 18 33
c18 32 24 38 24 25z m-1041 -548 c0 -16 -4 -37 -9 -45 -7 -10 -10 5 -9 50 0
45 3 59 9 45 5 -11 9 -33 9 -50z m157 19 c18 -42 18 -64 0 -64 -16 0 -36 50
-36 87 0 32 18 20 36 -23z m-638 -35 c-3 -48 -6 -54 -27 -57 -22 -4 -23 -2
-17 35 18 102 50 118 44 22z m182 20 c16 -58 10 -94 -15 -94 -18 0 -20 6 -18
60 1 33 2 63 2 68 1 4 5 7 11 7 5 0 14 -18 20 -41z"/>
<path d="M618 4883 c7 -3 16 -2 19 1 4 3 -2 6 -13 5 -11 0 -14 -3 -6 -6z"/>
<path d="M2190 4649 c0 -7 -9 -9 -22 -6 -20 6 -19 3 7 -21 34 -31 65 -46 65
-31 0 5 -7 12 -15 15 -8 4 -13 10 -10 14 7 11 -5 40 -16 40 -5 0 -9 -5 -9 -11z"/>
<path d="M982 4280 c0 -14 2 -19 5 -12 2 6 2 18 0 25 -3 6 -5 1 -5 -13z"/>
<path d="M1987 1997 c-3 -8 1 -14 9 -14 16 0 19 13 5 21 -5 3 -11 0 -14 -7z"/>
<path d="M2014 1916 c0 -13 4 -22 9 -19 10 6 9 31 -2 37 -5 3 -8 -5 -7 -18z"/>
<path d="M2027 1883 c-4 -3 -7 -11 -7 -17 0 -6 5 -5 12 2 6 6 9 14 7 17 -3 3
-9 2 -12 -2z"/>
<path d="M642 443 c-19 -53 -21 -63 -12 -63 6 0 10 7 10 15 0 9 7 29 15 45 9
17 11 30 6 30 -5 0 -13 -12 -19 -27z"/>
<path d="M1061 233 c-13 -47 -14 -70 -2 -58 10 11 26 95 17 95 -3 0 -10 -17
-15 -37z"/>
</g>
</svg>
