<?xml version="1.0" standalone="no"?>
<!DOCTYPE svg PUBLIC "-//W3C//DTD SVG 20010904//EN"
 "http://www.w3.org/TR/2001/REC-SVG-20010904/DTD/svg10.dtd">
<svg version="1.0" xmlns="http://www.w3.org/2000/svg"
 width="446.708925pt" height="446.902571pt" viewBox="0 0 446.708925 446.902571"
 preserveAspectRatio="xMidYMid meet">
<metadata>
Created by potrace 1.16, written by Peter Selinger 2001-2019
</metadata>
<g transform="translate(-0.181768,447.000000) scale(0.100000,-0.100000)"
fill="#000000" stroke="none">
<path d="M2096 4443 c6 -27 6 -27 -9 -9 -14 19 -20 19 -129 8 -107 -11 -227
-36 -290 -61 -31 -12 -38 -41 -10 -41 9 0 -44 -21 -118 -46 -74 -25 -151 -54
-172 -65 -45 -23 -48 -23 -48 -4 0 9 -9 15 -24 15 -34 0 -215 -96 -301 -160
-64 -47 -74 -58 -70 -80 4 -24 4 -24 -7 3 -7 17 -17 26 -26 22 -27 -10 -209
-170 -203 -178 4 -4 -36 -51 -89 -105 -97 -97 -190 -222 -190 -254 0 -20 16
-32 25 -18 4 6 10 8 15 5 5 -3 12 0 15 5 5 7 12 5 21 -7 11 -15 13 -15 8 -2
-8 25 12 32 43 15 19 -10 22 -15 11 -16 -9 0 -20 5 -23 10 -3 6 -11 10 -17 10
-6 0 -1 -11 12 -25 13 -14 18 -25 12 -25 -6 0 -14 5 -17 10 -4 6 -10 8 -15 5
-5 -3 -20 -1 -34 4 -23 9 -28 5 -74 -67 -27 -42 -67 -111 -88 -152 -33 -62
-44 -75 -64 -75 -19 0 -30 -11 -52 -55 -41 -81 -67 -154 -93 -259 l-24 -94 22
-19 22 -19 -25 11 c-24 11 -24 10 -5 -5 11 -8 25 -13 32 -11 7 3 12 1 10 -4
-1 -6 22 -24 52 -41 29 -17 50 -25 46 -19 -5 8 -3 11 4 9 7 -3 11 -8 9 -12 -2
-4 14 -18 35 -32 23 -16 37 -34 38 -48 1 -19 2 -18 8 5 4 20 10 25 20 19 17
-11 5 -71 -15 -71 -8 0 -14 4 -14 10 0 5 -7 7 -15 4 -8 -4 -13 -9 -11 -13 2
-3 -15 -6 -37 -6 -71 -1 -200 -27 -185 -37 9 -7 5 -8 -12 -4 -14 3 -28 6 -32
6 -5 0 -8 6 -8 14 0 17 11 21 115 37 44 7 75 14 68 16 -6 2 -47 -2 -92 -10
l-81 -14 0 25 c0 37 -6 23 -14 -30 -7 -45 -6 -48 16 -48 16 0 19 -3 10 -9 -21
-13 -34 -152 -29 -291 6 -136 11 -160 36 -160 12 0 13 2 3 9 -21 13 -35 146
-28 261 10 154 16 174 51 178 19 3 34 -2 43 -15 13 -17 14 -16 7 7 -4 14 -4
22 -1 19 4 -4 32 0 63 8 30 8 61 12 69 9 7 -3 14 0 17 7 2 7 9 2 16 -11 15
-28 14 -29 -24 -36 -17 -3 -32 -1 -37 7 -5 8 -8 6 -8 -6 0 -10 -5 -15 -10 -12
-6 3 -10 1 -10 -6 0 -7 -3 -9 -7 -6 -3 4 -11 3 -17 -2 -21 -16 -64 -22 -69 -8
-13 36 -46 -221 -43 -333 2 -65 43 -320 62 -388 5 -17 2 -22 -11 -22 -15 0
-17 -7 -12 -53 8 -68 54 -202 103 -299 32 -65 43 -78 64 -79 23 -1 23 -2 -4
-8 -17 -3 -30 -10 -29 -14 0 -5 29 -60 64 -123 42 -75 69 -113 79 -111 9 1 28
-20 48 -53 48 -79 106 -151 180 -226 63 -63 99 -78 96 -41 -1 12 18 -1 55 -37
64 -62 202 -176 214 -176 4 0 7 3 8 8 0 4 2 18 5 31 4 21 2 22 -12 10 -15 -13
-15 -10 1 21 23 46 29 51 21 17 -6 -27 -5 -27 16 -16 22 11 22 11 -2 -16 -23
-25 -23 -27 -5 -23 11 1 25 12 32 23 9 14 12 16 12 5 0 -8 -6 -24 -14 -34 -8
-11 -15 -14 -15 -8 0 7 -7 5 -18 -6 -11 -9 -17 -21 -14 -26 3 -5 0 -6 -5 -3
-6 4 -14 -1 -18 -10 -4 -12 4 -26 27 -45 58 -49 180 -121 268 -159 l85 -37 24
21 24 22 -23 -32 c-13 -18 -22 -34 -19 -36 2 -2 58 -23 124 -47 66 -23 126
-45 133 -47 8 -4 12 7 13 33 2 29 3 32 6 12 3 -17 14 -30 31 -37 62 -25 225
-60 314 -67 83 -6 96 -4 101 10 5 11 0 19 -13 24 -10 4 70 7 180 7 109 0 193
-3 188 -6 -6 -4 -8 -15 -4 -24 5 -15 16 -16 89 -10 96 8 187 25 286 55 64 19
71 23 72 48 1 21 4 17 9 -13 4 -25 8 19 9 118 l1 157 26 12 c25 12 29 9 86
-52 33 -36 56 -59 52 -51 -5 9 -3 12 5 7 6 -4 9 -12 5 -17 -7 -13 15 -41 27
-33 5 3 8 0 7 -7 -2 -7 2 -13 9 -14 6 0 15 -4 20 -9 5 -5 3 -6 -4 -2 -18 10
-16 -9 2 -24 13 -11 13 -15 3 -21 -9 -6 -9 -9 -1 -9 16 0 26 17 13 25 -17 11
-11 23 9 18 27 -7 231 94 311 154 42 31 66 57 68 72 3 19 0 22 -13 18 -9 -4
-14 -3 -10 3 3 6 1 11 -4 11 -6 1 -15 2 -21 3 -13 2 -39 38 -39 56 0 8 8 0 18
-19 16 -31 18 -32 23 -13 4 12 0 26 -8 33 -8 7 -12 14 -9 17 3 3 15 -3 26 -14
22 -19 22 -19 15 6 -7 24 -6 24 8 6 18 -22 21 -40 6 -31 -5 3 -10 1 -10 -5 0
-6 -6 -8 -12 -5 -7 4 -5 0 4 -8 10 -8 15 -17 11 -20 -3 -4 -3 -7 2 -7 12 0
103 72 192 151 69 62 78 67 90 51 12 -15 21 -8 101 73 90 92 192 231 192 261
0 14 3 14 15 4 9 -7 17 -11 19 -9 10 14 136 237 136 242 0 4 -8 7 -17 7 -13 0
-14 3 -6 8 32 20 127 248 153 366 11 50 0 83 -23 69 -7 -4 -8 2 -3 18 4 13 19
92 33 176 15 83 30 150 33 148 16 -10 34 17 41 61 11 68 10 224 -1 314 -7 50
-7 76 0 78 5 2 9 13 9 25 -1 16 -3 17 -6 6 -2 -10 -11 -15 -21 -12 -9 2 -76
14 -149 27 -92 16 -134 19 -137 12 -7 -17 -37 26 -34 48 5 31 26 30 31 -1 l4
-28 2 27 c0 16 9 32 21 38 11 6 18 16 14 21 -3 6 0 10 7 8 28 -3 40 1 33 13
-4 6 -3 8 3 5 6 -4 47 14 92 39 45 26 84 44 88 41 13 -14 -9 -34 -78 -71 -94
-49 -103 -58 -95 -90 5 -19 13 -26 29 -25 l22 0 -22 9 c-47 19 -28 46 67 96
88 47 101 61 81 93 -6 9 -11 10 -15 2 -4 -6 -12 -11 -19 -11 -8 0 -8 3 0 11
12 12 -12 134 -46 232 -33 94 -92 198 -110 194 -9 -2 -14 -10 -13 -18 6 -23
-4 -8 -50 81 -25 47 -65 117 -91 157 -35 55 -42 73 -31 77 23 9 17 27 -33 101
-53 80 -219 255 -241 255 -11 0 -12 3 -3 14 10 11 -7 30 -87 100 -55 47 -104
86 -110 86 -5 0 -13 -7 -16 -16 -10 -25 -7 -29 6 -11 7 9 18 13 25 9 8 -5 0
-35 -27 -102 l-38 -95 21 -22 c21 -23 30 -22 72 11 17 14 14 14 -18 -1 -33
-15 -39 -15 -51 -2 -12 12 -9 27 21 102 20 48 39 86 44 85 14 -5 118 -93 119
-100 0 -3 -20 -18 -45 -32 -25 -15 -45 -29 -45 -32 0 -6 4 -3 64 34 34 21 40
22 53 9 13 -12 4 -20 -71 -62 -47 -27 -82 -53 -79 -58 4 -6 1 -7 -7 -2 -8 5
-18 1 -27 -11 -8 -10 -17 -18 -21 -17 -4 2 -15 0 -26 -3 -11 -4 -26 1 -38 13
-19 19 -18 21 20 129 53 152 52 163 -34 225 -139 102 -295 179 -319 159 -8 -7
-12 -16 -9 -21 8 -14 -3 -11 -44 10 -21 11 -98 40 -172 65 -74 25 -129 46
-122 46 26 0 10 32 -23 46 -53 22 -211 52 -312 60 -87 6 -89 6 -100 -17 -7
-15 -12 -18 -13 -9 -1 8 -10 -7 -21 -33 -10 -27 -16 -53 -13 -59 5 -7 2 -8 -6
-3 -10 6 -11 2 -6 -19 4 -16 3 -25 -2 -22 -5 3 -18 -18 -29 -47 -17 -42 -25
-53 -49 -58 l-29 -7 33 -1 c41 -1 39 -24 -3 -29 -31 -4 -48 13 -39 42 5 13 3
16 -7 11 -9 -6 -11 -3 -6 8 3 9 1 30 -5 48 -8 23 -13 28 -20 17 -7 -9 -8 -6
-4 11 5 23 -29 131 -42 131 -4 0 -7 11 -7 25 0 17 6 25 16 25 12 0 25 -25 47
-92 29 -89 32 -93 61 -96 26 -3 33 1 41 24 6 15 9 32 7 38 -2 6 -7 -4 -11 -21
-6 -27 -12 -33 -34 -33 -25 0 -29 7 -51 78 -13 42 -26 83 -29 90 -3 9 21 12
101 12 73 0 107 -4 109 -12 3 -7 7 -6 11 5 6 16 -6 17 -139 17 l-144 0 6 -27z
m-7 -34 c6 -18 11 -34 11 -35 0 -2 -56 -4 -125 -4 -69 0 -169 -5 -221 -11 -53
-6 -98 -8 -101 -5 -15 15 156 61 283 75 133 16 141 15 153 -20z m558 1 c94
-20 170 -46 160 -56 -3 -3 -45 -1 -94 5 -48 6 -145 11 -215 11 -73 0 -128 4
-128 9 0 5 5 22 10 36 10 26 10 26 93 20 45 -4 123 -15 174 -25z m-517 -55 c0
-5 -5 -3 -10 5 -5 8 -10 20 -10 25 0 6 5 3 10 -5 5 -8 10 -19 10 -25z m223 15
c-3 -12 -8 -19 -11 -16 -5 6 5 36 12 36 2 0 2 -9 -1 -20z m-483 -27 c0 -16 -2
-16 -11 -3 -11 15 -8 -5 6 -57 3 -10 -2 -3 -10 16 -16 34 -14 61 5 61 5 0 10
-8 10 -17z m70 2 c0 -8 -2 -15 -4 -15 -2 0 -6 7 -10 15 -3 8 -1 15 4 15 6 0
10 -7 10 -15z m17 -32 c-3 -10 -5 -2 -5 17 0 19 2 27 5 18 2 -10 2 -26 0 -35z
m32 -1 c1 -7 -3 -10 -9 -7 -5 3 -10 18 -9 33 0 24 1 25 9 7 5 -11 9 -26 9 -33z
m28 1 c-3 -10 -5 -2 -5 17 0 19 2 27 5 18 2 -10 2 -26 0 -35z m118 -34 c17
-45 35 -95 41 -112 10 -27 17 -32 49 -35 45 -4 55 5 76 66 13 39 20 48 43 50
16 2 27 0 25 -5 -2 -5 -22 -48 -44 -96 l-39 -87 -54 0 c-52 0 -53 1 -69 38 -8
20 -30 68 -49 105 -19 37 -34 70 -34 72 0 2 10 6 23 8 19 4 18 4 -5 6 -16 0
-32 9 -38 20 -15 28 -13 31 18 32 24 2 23 2 -8 9 l-35 7 35 2 c35 1 35 1 65
-80z m277 46 c-14 -28 -23 -35 -48 -35 l-32 0 16 35 c14 30 21 35 49 35 l33 0
-18 -35z m45 -12 c-3 -10 -5 -2 -5 17 0 19 2 27 5 18 2 -10 2 -26 0 -35z m39
0 c-10 -26 -18 -8 -9 23 5 21 8 24 11 11 2 -10 1 -25 -2 -34z m60 21 c4 -15 2
-30 -5 -37 -10 -9 -11 -5 -5 17 5 21 4 27 -5 22 -6 -4 -11 -1 -11 8 0 26 19
18 26 -10z m57 4 c-4 -19 -3 -20 6 -8 10 13 11 13 10 0 0 -8 -5 -25 -12 -37
-11 -20 -12 -18 -14 23 -1 24 2 44 7 44 4 0 6 -10 3 -22z m-803 -10 c0 -12 -1
-19 -3 -17 -1 2 -9 12 -16 22 -12 14 -11 17 3 17 10 0 16 -8 16 -22z m707 -15
c-3 -10 -5 -4 -5 12 0 17 2 24 5 18 2 -7 2 -21 0 -30z m73 1 c0 -21 -4 -33
-10 -29 -6 4 -10 -7 -10 -24 0 -17 -4 -31 -9 -31 -20 0 -21 21 -1 57 11 21 20
43 20 50 0 7 2 13 5 13 3 0 5 -16 5 -36z m89 19 c-7 -10 -15 -20 -16 -22 -2
-2 -3 5 -3 17 0 14 6 22 16 22 14 0 15 -3 3 -17z m-929 -14 c0 -18 -2 -19 -15
-9 -14 12 -14 10 -4 -16 17 -41 18 -94 2 -94 -7 0 -13 11 -13 26 0 14 4 23 10
19 14 -8 13 -2 -5 31 l-15 29 -1 -40 c-2 -32 -3 -34 -6 -11 -5 35 14 86 33 86
8 0 14 -10 14 -21z m103 -56 c21 -39 21 -43 2 -43 -10 0 -15 10 -15 31 0 17
-4 28 -10 24 -6 -4 -10 9 -9 32 1 33 2 35 8 13 5 -14 15 -40 24 -57z m71 -24
c-11 -19 -24 -8 -24 21 0 17 -4 30 -10 30 -5 0 -10 12 -10 28 0 24 3 22 25
-21 14 -27 23 -53 19 -58z m6 63 c0 -7 -4 -10 -10 -7 -5 3 -10 16 -10 28 0 18
2 19 10 7 5 -8 10 -21 10 -28z m720 1 c0 -24 -3 -33 -9 -25 -7 12 -4 62 5 62
2 0 4 -17 4 -37z m104 22 c6 -16 -11 -71 -20 -63 -2 3 0 18 6 33 9 25 9 26 -5
15 -13 -10 -15 -9 -15 9 0 24 25 29 34 6z m-1070 -20 c-4 -8 -10 -12 -15 -9
-13 8 -11 -3 7 -38 9 -16 11 -27 4 -23 -30 18 -33 85 -4 85 8 0 11 -6 8 -15z
m83 -37 c-2 -13 -4 -5 -4 17 -1 22 1 32 4 23 2 -10 2 -28 0 -40z m42 -3 c0 -5
-6 -1 -14 9 -8 11 -15 27 -15 35 1 17 29 -26 29 -44z m871 15 c-16 -31 -23
-18 -8 15 7 15 14 23 16 17 2 -6 -2 -21 -8 -32z m27 -12 c-2 -13 -4 -5 -4 17
-1 22 1 32 4 23 2 -10 2 -28 0 -40z m107 37 c6 -18 -8 -60 -24 -70 -7 -4 -5 7
4 23 18 35 20 46 7 38 -5 -3 -11 1 -15 9 -3 9 0 15 8 15 8 0 16 -7 20 -15z
m-1194 -16 c0 -11 -4 -17 -10 -14 -14 9 -12 -1 6 -37 10 -20 11 -28 3 -22 -12
7 -12 5 8 -43 3 -7 -2 -13 -11 -13 -12 0 -16 10 -16 43 0 23 -2 53 -3 67 -2
14 1 28 7 32 16 11 16 10 16 -13z m1253 -22 c-2 -18 -4 -49 -3 -69 1 -29 -3
-38 -16 -38 -9 0 -14 5 -11 13 20 48 20 50 8 43 -8 -6 -7 2 3 22 18 36 20 46
6 37 -5 -3 -10 3 -10 14 0 13 5 19 14 15 10 -4 13 -15 9 -37z m-1225 -27 l0
-25 -8 25 c-4 14 -8 34 -8 45 l-1 20 9 -20 c5 -11 8 -31 8 -45z m402 23 c0 -7
-7 -13 -16 -13 -11 0 -14 5 -10 16 3 9 6 21 6 27 0 16 20 -14 20 -30z m400 0
c0 -7 -7 -13 -15 -13 -16 0 -19 9 -9 35 5 13 8 14 15 3 5 -7 9 -19 9 -25z
m386 -9 c-4 -20 -10 -34 -13 -30 -3 3 -2 21 1 42 4 20 10 34 13 30 3 -3 2 -21
-1 -42z m-1276 15 c0 -13 -4 -18 -12 -13 -8 5 -9 2 -5 -9 19 -47 20 -52 8 -41
-16 15 -21 67 -7 76 16 11 16 10 16 -13z m424 5 c10 -25 7 -34 -9 -34 -9 0
-15 9 -15 25 0 28 15 34 24 9z m526 -9 c0 -16 -6 -25 -16 -25 -11 0 -14 5 -10
16 3 9 6 20 6 25 0 5 5 9 10 9 6 0 10 -11 10 -25z m257 -22 c-3 -10 -5 -2 -5
17 0 19 2 27 5 18 2 -10 2 -26 0 -35z m169 6 c-1 -16 -8 -35 -16 -42 -13 -12
-13 -9 7 40 4 11 3 14 -5 9 -8 -5 -12 0 -12 13 0 13 5 19 14 15 8 -3 13 -17
12 -35z m-552 17 c-3 -8 -15 -11 -30 -8 -34 6 -30 22 6 22 21 0 28 -4 24 -14z
m246 -16 c0 -20 -5 -30 -15 -30 -18 0 -18 2 -3 35 15 32 18 32 18 -5z m-1133
-12 c-2 -18 0 -42 5 -53 7 -16 5 -16 -11 4 -22 24 -28 47 -11 36 6 -3 10 -2
10 4 0 5 -5 13 -11 17 -8 4 -7 9 2 15 21 13 22 12 16 -23z m93 -18 c0 -20 -2
-22 -10 -10 -5 8 -10 26 -10 40 0 20 2 22 10 10 5 -8 10 -26 10 -40z m1301 -7
c-9 -16 -10 -16 -11 4 0 12 3 30 7 40 7 16 8 16 11 -4 2 -12 -1 -30 -7 -40z
m100 34 c-14 -14 -14 -30 -1 -22 17 11 11 -12 -11 -36 -16 -20 -18 -20 -11 -4
5 11 7 35 5 53 -5 27 -3 31 12 26 11 -5 13 -10 6 -17z m-1462 -47 c1 -13 0
-13 -9 0 -5 8 -9 26 -9 40 l1 25 8 -25 c4 -14 8 -32 9 -40z m281 18 c0 -4 -7
-8 -15 -8 -10 0 -15 10 -15 28 1 26 1 26 15 8 8 -11 15 -23 15 -28z m880 17
c0 -16 -6 -25 -15 -25 -18 0 -18 5 -5 31 14 26 20 24 20 -6z m260 -32 c-10
-16 -11 -15 -6 7 3 14 6 32 7 40 1 8 4 5 6 -7 2 -12 -1 -30 -7 -40z m-200 22
c0 -15 -6 -25 -15 -25 -12 0 -13 4 -3 25 6 14 13 25 15 25 1 0 3 -11 3 -25z
m-1313 -12 c-3 -15 -1 -37 4 -48 8 -16 6 -16 -10 4 -23 26 -28 46 -8 35 9 -6
9 -5 0 8 -13 15 -8 28 10 28 5 0 7 -12 4 -27z m653 8 c16 -32 12 -41 -20 -41
-17 0 -30 5 -30 13 0 9 -2 9 -8 0 -4 -6 -20 -15 -35 -18 -25 -7 -27 -5 -27 24
0 30 2 31 40 29 22 -1 43 2 47 5 11 12 22 8 33 -12z m201 -8 c-12 -20 -14 -14
-5 12 4 9 9 14 11 11 3 -2 0 -13 -6 -23z m109 13 c0 18 60 4 61 -15 1 -13 2
-13 6 2 7 28 55 18 64 -13 7 -24 7 -24 8 -2 1 23 10 26 47 16 16 -4 20 -11 16
-31 -5 -24 -6 -24 -66 -18 -33 4 -65 10 -71 13 -5 3 -24 5 -42 3 -26 -2 -33 1
-34 16 -1 17 -2 17 -6 0 -2 -9 -9 -15 -13 -12 -5 3 -4 17 2 31 8 18 14 21 20
12 4 -7 8 -8 8 -2z m665 -6 c15 -17 16 -25 7 -52 l-12 -33 6 40 5 40 -20 -32
c-12 -18 -23 -33 -27 -33 -3 0 5 17 17 38 17 27 18 33 6 23 -15 -12 -17 -11
-17 8 0 26 12 27 35 1z m-1755 6 c0 -2 -58 -45 -128 -95 -71 -50 -139 -102
-151 -115 -22 -23 -22 -25 -7 -82 8 -33 18 -72 21 -89 8 -39 8 -38 30 -119
l19 -69 -35 -28 c-19 -16 -38 -29 -44 -29 -5 0 -39 14 -75 31 -35 16 -102 46
-147 66 -46 19 -80 40 -77 45 12 19 -30 -10 -59 -40 -23 -24 -26 -30 -13 -35
9 -4 16 -2 16 4 0 15 18 1 31 -24 12 -22 12 -22 -10 -3 -11 11 -21 16 -21 12
0 -4 -10 -2 -21 5 -20 10 -31 2 -120 -87 -55 -54 -99 -95 -99 -91 0 16 34 74
79 132 52 68 178 195 194 195 20 0 97 -51 92 -60 -3 -6 1 -7 9 -4 8 3 30 -5
48 -18 18 -12 36 -23 40 -23 4 0 15 -7 25 -15 10 -9 20 -16 23 -16 3 -1 16 -4
28 -9 18 -5 30 -1 52 20 26 25 49 72 30 60 -12 -7 -52 105 -47 127 3 10 2 16
-3 13 -11 -7 -33 52 -24 66 4 7 3 10 -3 6 -5 -3 -15 9 -21 28 l-10 35 76 56
c114 83 302 177 302 150z m159 -46 c0 -23 -1 -23 -9 -5 -5 11 -9 29 -9 40 -1
17 1 17 9 5 5 -8 9 -26 9 -40z m221 8 c0 -4 -7 -8 -15 -8 -10 0 -15 10 -15 28
1 26 1 26 15 8 8 -11 15 -23 15 -28z m1120 17 c0 -16 -6 -25 -15 -25 -18 0
-18 5 -5 31 14 26 20 24 20 -6z m205 -22 c-9 -37 -18 -20 -9 19 4 18 9 27 11
20 3 -7 2 -24 -2 -39z m245 16 c79 -37 259 -156 267 -175 3 -8 -8 -52 -25 -97
-17 -45 -39 -105 -48 -134 -10 -28 -22 -49 -26 -47 -14 9 4 -30 25 -53 23 -25
47 -29 79 -12 15 8 17 13 9 19 -9 5 -8 9 4 13 9 4 14 3 11 -2 -3 -5 5 -8 18
-7 13 0 23 4 21 7 -2 3 26 22 63 42 74 40 121 73 89 63 -11 -3 -16 -2 -12 4
10 17 20 12 78 -35 84 -70 248 -277 232 -294 -3 -3 -48 37 -99 88 -84 84 -96
92 -115 82 -11 -7 -21 -9 -21 -5 0 4 -10 -1 -21 -12 -22 -19 -22 -19 -10 3 13
25 31 39 31 24 0 -6 7 -8 16 -4 13 5 9 13 -20 42 l-36 36 -34 -19 c-19 -10
-42 -16 -51 -12 -9 3 -14 2 -11 -2 3 -5 -46 -32 -109 -61 l-115 -52 -39 31
-39 32 19 71 c11 39 23 75 26 80 3 4 6 21 8 35 1 15 9 55 18 89 l15 63 -41 35
c-23 20 -81 64 -130 98 -49 34 -99 70 -111 79 -20 17 -21 17 -1 18 11 0 49
-14 85 -31z m-1880 0 c0 -18 -2 -20 -15 -9 -13 11 -13 15 -3 21 18 12 18 12
18 -12z m580 -4 c0 -14 -6 -26 -12 -26 -45 -5 -58 -7 -80 -12 -21 -6 -27 -3
-31 15 -8 31 1 41 34 36 16 -3 29 -1 29 4 0 4 14 8 30 8 25 0 30 -4 30 -25z
m1151 2 c-13 -13 -15 -30 -2 -23 5 4 7 -3 4 -13 -3 -11 -12 -22 -20 -25 -9 -4
-11 -2 -7 6 4 7 7 27 6 45 -2 26 1 31 13 26 12 -4 13 -9 6 -16z m-1702 -42 l0
-20 -9 20 c-5 11 -9 29 -9 40 l0 20 9 -20 c5 -11 9 -29 9 -40z m1261 26 c0
-13 2 -13 9 -2 6 9 18 11 34 8 20 -6 23 -12 19 -32 -5 -29 -32 -33 -56 -9 -9
8 -16 11 -16 6 0 -5 -11 -7 -25 -4 -18 3 -25 11 -25 26 0 30 6 34 35 28 14 -2
25 -11 25 -21z m-845 -2 c9 -26 4 -31 -53 -46 -61 -16 -57 -16 -70 10 -11 21
-11 21 -6 -4 5 -23 2 -27 -21 -32 -20 -3 -29 0 -32 12 -8 30 -4 35 39 48 58
17 76 16 81 -4 4 -14 5 -13 6 4 1 18 12 27 43 32 4 0 10 -8 13 -20z m-508 -16
c-3 -16 0 -36 8 -47 8 -10 12 -23 9 -28 -3 -5 -1 -15 5 -22 9 -10 8 -15 -4
-20 -10 -3 -16 1 -17 12 -1 9 -2 24 -3 32 -1 8 -6 25 -13 37 -15 28 -15 36 1
27 9 -6 9 -5 0 8 -13 15 -8 28 10 28 5 0 7 -12 4 -27z m253 -10 c0 -24 -25 -9
-28 17 -3 21 -2 22 12 11 9 -7 16 -20 16 -28z m1356 -10 c-2 -3 -9 -2 -15 2
-8 4 -7 13 1 28 l13 22 3 -23 c2 -13 1 -26 -2 -29z m247 40 c4 -3 1 -13 -6
-21 -9 -13 -9 -14 1 -8 16 10 15 -5 -3 -30 -8 -12 -12 -24 -8 -27 3 -3 3 -17
-1 -31 -4 -17 -11 -23 -21 -19 -12 4 -13 9 -4 19 6 7 8 17 5 22 -3 5 1 18 9
28 8 11 11 31 8 47 -5 25 5 36 20 20z m-1824 -48 l0 -20 -9 20 c-5 11 -9 27
-9 35 -1 13 0 13 9 0 5 -8 9 -24 9 -35z m31 15 c8 -16 7 -18 -4 -14 -8 3 -16
14 -19 25 -6 23 9 16 23 -11z m1482 -6 c3 -2 4 -14 2 -27 l-5 -22 10 22 c9 20
14 21 40 12 27 -10 29 -13 19 -35 -12 -26 -12 -26 -88 1 -28 10 -35 17 -33 36
l2 24 -11 -23 c-7 -13 -17 -21 -26 -17 -7 3 -18 5 -23 5 -10 0 -13 43 -3 53 5
5 98 -18 116 -29z m269 -5 c-6 -16 -10 -18 -10 -7 -1 22 12 55 16 42 2 -6 -1
-22 -6 -35z m-1621 -5 c0 -19 -16 -18 -24 2 -11 27 -7 37 9 24 8 -7 15 -19 15
-26z m560 29 c1 -5 7 -70 13 -145 l13 -137 -56 -6 c-30 -4 -86 -12 -125 -20
-38 -7 -70 -13 -71 -12 -11 18 -64 271 -58 277 5 4 56 16 114 25 58 9 112 18
120 19 29 7 50 6 50 -1z m75 -53 c25 -52 32 -60 57 -60 35 0 35 -3 0 -49 -42
-53 -45 -61 -28 -61 9 0 16 6 16 13 0 6 11 25 23 41 l23 29 22 -28 c12 -15 22
-34 22 -41 0 -8 7 -14 15 -14 21 0 19 7 -21 61 l-36 49 26 0 c21 0 31 10 56
60 22 44 36 60 51 60 17 0 20 -5 15 -27 -2 -16 -8 -68 -11 -118 -3 -49 -8
-101 -11 -115 l-5 -26 -124 0 c-105 0 -125 3 -126 16 0 8 -6 72 -13 143 -11
115 -10 127 4 127 10 0 28 -24 45 -60z m435 33 c52 -8 99 -19 105 -24 6 -6 -3
-59 -24 -144 -27 -112 -36 -135 -50 -131 -21 6 -124 24 -185 31 l-49 7 7 81
c3 45 9 110 13 145 l6 63 41 -6 c23 -3 84 -13 136 -22z m405 -2 c-7 -23 -25
-29 -25 -8 0 14 21 39 28 33 2 -3 1 -14 -3 -25z m-1725 2 c0 -14 2 -15 9 -4 7
11 11 10 20 -7 6 -11 11 -29 10 -39 0 -12 -5 -9 -14 12 -8 17 -14 26 -15 21 0
-11 -30 14 -30 25 0 5 5 9 10 9 6 0 10 -8 10 -17z m1974 8 c5 -8 -3 -15 -29
-21 -5 -1 -15 -14 -22 -29 -9 -22 -11 -23 -12 -6 -1 27 25 61 32 43 4 -8 6 -7
6 5 1 18 16 23 25 8z m-1784 -49 c-14 -5 -30 16 -30 38 1 10 7 7 21 -10 14
-17 17 -26 9 -28z m183 18 c4 -16 -1 -23 -20 -31 -20 -7 -29 -6 -35 3 -14 22
-9 38 15 47 27 10 33 7 40 -19z m1412 1 c-3 -12 -13 -21 -21 -21 -9 0 -12 5
-8 13 23 40 41 46 29 8z m-1835 -25 c0 -5 -7 -3 -15 4 -8 7 -12 17 -9 22 7 10
24 -9 24 -26z m29 -31 c0 -13 -5 -8 -14 15 -18 46 -18 61 0 30 8 -14 14 -34
14 -45z m31 23 c0 -18 -17 -7 -29 19 -13 28 -13 28 8 9 12 -11 21 -23 21 -28z
m1958 17 c-10 -23 -28 -34 -28 -18 0 7 31 43 36 43 2 0 -2 -11 -8 -25z m18
-21 c-8 -21 -15 -31 -15 -22 -1 18 20 70 26 65 2 -2 -3 -21 -11 -43z m38 37
c3 -5 -1 -14 -8 -20 -12 -10 -13 -8 -9 8 6 23 9 25 17 12z m-1890 -43 c-9 -14
-24 2 -24 25 1 21 1 21 15 3 8 -10 12 -23 9 -28z m171 21 c13 -39 -39 -54 -56
-16 -9 20 -9 19 -4 -6 4 -22 1 -29 -17 -36 -17 -7 -26 -5 -37 7 -12 15 -12 15
-7 -4 5 -16 0 -23 -19 -32 -21 -10 -26 -9 -35 8 -13 25 -13 40 3 40 6 0 26 7
42 16 36 19 95 42 112 43 6 1 15 -9 18 -20z m232 -122 c39 -155 38 -147 16
-147 -10 0 -63 -16 -118 -34 -55 -19 -103 -31 -107 -28 -10 11 -110 253 -105
258 8 8 272 92 277 88 2 -3 19 -64 37 -137z m1101 82 c48 -17 89 -33 91 -35 3
-3 -95 -249 -104 -262 -1 -1 -56 16 -121 38 -97 32 -118 43 -116 57 3 19 50
216 58 244 4 14 10 15 55 3 28 -7 90 -28 137 -45z m198 14 c-2 -3 -9 -2 -15 2
-8 4 -7 13 1 28 l13 22 3 -23 c2 -13 1 -26 -2 -29z m-98 22 c1 -1 -2 -14 -9
-28 -10 -22 -14 -24 -35 -15 -26 12 -28 17 -18 43 5 12 14 15 33 10 14 -4 27
-8 29 -10z m-1782 -52 c-3 -7 -1 -15 4 -18 15 -9 12 -37 -2 -32 -7 2 -13 15
-14 28 0 26 -23 74 -31 66 -2 -3 0 -15 7 -26 6 -13 7 -21 1 -21 -13 0 -24 37
-16 51 9 14 57 -31 51 -48z m2094 33 c0 -7 -7 -21 -16 -32 -15 -19 -15 -16 1
31 6 17 4 17 -12 -4 -12 -13 -18 -33 -15 -46 2 -12 -1 -26 -8 -30 -16 -10 -24
1 -15 22 5 10 7 22 6 27 -1 5 8 19 20 32 22 23 39 24 39 0z m-2160 -2 c0 -8
-4 -12 -10 -9 -5 3 -10 10 -10 16 0 5 5 9 10 9 6 0 10 -7 10 -16z m1908 -9 c6
-5 -18 -45 -26 -45 -5 0 -16 6 -26 13 -15 11 -17 17 -7 35 10 19 15 21 34 11
12 -7 23 -13 25 -14z m282 16 c0 -6 -4 -13 -10 -16 -5 -3 -10 1 -10 9 0 9 5
16 10 16 6 0 10 -4 10 -9z m-2050 -53 c0 -4 -7 -8 -15 -8 -8 0 -15 4 -15 9 0
5 -3 18 -7 28 -6 17 -5 17 15 -1 12 -11 22 -23 22 -28z m1925 13 c-3 -12 -13
-21 -21 -21 -18 0 -18 9 3 32 20 22 27 17 18 -11z m-2064 -7 c13 -14 17 -23 9
-19 -13 5 -46 45 -37 45 2 0 14 -11 28 -26z m1950 15 c15 -7 18 -16 13 -32 -6
-21 -5 -21 8 -3 14 18 16 18 66 -9 53 -29 59 -38 43 -64 -8 -12 -14 -13 -35
-3 -27 12 -33 26 -16 37 6 3 10 11 10 18 0 6 -7 1 -16 -11 l-15 -22 -52 26
c-65 33 -61 28 -47 53 12 24 14 25 41 10z m243 -4 c-4 -9 -16 -21 -28 -27 -19
-10 -19 -9 3 16 28 30 33 32 25 11z m36 0 c0 6 5 3 10 -7 12 -19 4 -44 -16
-52 -11 -4 -12 -1 -6 12 5 9 7 23 4 31 -3 9 -9 4 -18 -15 -8 -19 -13 -23 -13
-11 -1 26 22 59 31 44 4 -7 8 -7 8 -2z m-2283 -18 c-2 -7 0 -20 5 -29 6 -14 5
-16 -7 -12 -10 4 -15 0 -15 -12 -1 -16 -3 -15 -15 6 -19 34 -19 48 1 24 13
-16 15 -16 10 -1 -7 22 3 49 16 41 5 -3 7 -11 5 -17z m276 -34 c-24 -19 -41
-16 -48 8 -8 23 -8 22 20 37 17 9 22 7 32 -11 10 -18 9 -24 -4 -34z m-243 14
c0 -18 -2 -19 -10 -7 -13 20 -13 43 0 35 6 -3 10 -16 10 -28z m-186 -112 c24
-65 45 -112 48 -105 3 10 6 7 10 -8 4 -14 2 -20 -5 -15 -6 4 -8 0 -4 -9 3 -9
-2 -23 -11 -31 -19 -16 -65 -30 -57 -17 3 4 -2 11 -11 14 -10 4 -13 2 -9 -7 4
-6 -2 -2 -12 9 -24 28 -142 96 -154 89 -5 -4 -17 -1 -26 5 -15 9 -14 10 7 5
25 -5 25 -5 3 6 -13 7 -23 16 -23 21 0 25 36 14 110 -31 45 -28 85 -51 89 -51
4 0 16 8 25 19 16 17 16 21 0 60 -9 23 -18 40 -20 38 -3 -2 3 -21 11 -41 12
-29 13 -41 4 -52 -6 -8 -15 -14 -19 -14 -9 0 -149 85 -161 97 -5 5 20 32 55
60 l64 52 21 -47 c23 -49 22 -31 -1 26 -11 28 -11 34 2 42 8 5 16 8 17 6 2 -2
23 -56 47 -121z m386 74 c0 -3 -11 -11 -25 -17 -21 -10 -26 -9 -35 8 -15 27
-13 36 13 47 18 9 24 7 34 -11 7 -11 12 -24 13 -27z m2080 16 c-6 -15 -13 -25
-17 -21 -3 3 0 17 7 31 7 14 15 23 17 21 2 -2 -1 -16 -7 -31z m-2366 3 c1 -7
5 -19 10 -27 6 -9 5 -12 -5 -9 -8 3 -15 17 -16 32 -2 28 7 31 11 4z m129 -29
c-7 -7 -14 -1 -22 23 l-12 33 23 -22 c16 -17 19 -26 11 -34z m349 -76 l55
-128 -109 -57 c-60 -32 -111 -58 -114 -58 -4 0 -81 117 -132 202 l-23 36 88
49 c99 55 153 81 169 82 6 1 36 -56 66 -126z m1608 75 c54 -28 108 -59 120
-68 l22 -16 -77 -122 -77 -121 -37 23 c-20 13 -70 40 -110 60 -84 43 -82 25
-12 189 27 63 51 107 60 107 7 0 58 -23 111 -52z m187 16 c-9 -18 -16 -23 -22
-15 -4 7 1 21 11 32 23 26 29 17 11 -17z m114 13 c-10 -9 -11 -8 -5 6 3 10 9
15 12 12 3 -3 0 -11 -7 -18z m-2171 -28 c9 -17 8 -23 -7 -34 -22 -17 -33 -15
-47 9 -9 13 -7 20 8 32 26 19 33 18 46 -7z m-140 -4 c6 -8 8 -20 4 -26 -5 -9
-11 -7 -21 6 -23 33 -9 51 17 20z m2175 -15 c3 -5 0 -19 -8 -30 -12 -18 -15
-18 -35 -4 -18 12 -20 18 -10 39 9 19 14 22 29 15 10 -6 21 -15 24 -20z m85
22 c0 -5 -6 -16 -13 -27 -10 -13 -16 -15 -21 -6 -4 6 -2 18 4 26 13 16 30 20
30 7z m55 -2 c-3 -5 -11 -10 -16 -10 -6 0 -7 5 -4 10 3 6 11 10 16 10 6 0 7
-4 4 -10z m-2245 -72 c-22 -18 -23 -18 -38 3 -14 20 -14 24 8 41 22 18 23 18
38 -3 14 -20 14 -24 -8 -41z m2331 35 c-12 -20 -14 -14 -5 12 4 9 9 14 11 11
3 -2 0 -13 -6 -23z m-2441 -25 c0 -15 -28 -9 -34 8 -11 30 -6 37 14 19 11 -10
20 -22 20 -27z m2267 9 c9 -6 10 -15 2 -28 -12 -23 -19 -23 -43 -6 -16 11 -17
17 -7 36 12 21 20 20 48 -2z m76 3 c-3 -11 -12 -20 -19 -20 -17 0 -18 12 -2
28 18 18 27 15 21 -8z m-2276 -44 c-10 -26 -36 -31 -52 -10 -8 11 -15 14 -15
9 0 -6 6 -17 12 -23 10 -10 10 -15 -2 -22 -9 -6 -17 -5 -22 3 -15 23 -7 42 24
64 28 20 34 21 47 9 7 -8 11 -22 8 -30z m2244 14 c21 -12 25 -30 7 -48 -8 -8
-17 -8 -32 0 -29 15 -29 14 -14 37 15 24 14 24 39 11z m-2122 -139 c40 -62 69
-117 64 -121 -4 -3 -37 -28 -73 -53 -36 -26 -77 -57 -92 -69 -27 -21 -28 -21
-49 -2 -12 10 -35 36 -52 58 l-31 39 32 28 c18 16 32 36 32 44 0 8 6 15 14 15
31 0 49 -15 66 -54 10 -23 19 -33 19 -23 2 38 -28 76 -68 88 -35 10 -40 16
-46 50 -4 21 -7 42 -7 46 0 12 106 83 113 75 4 -4 39 -58 78 -121z m1201 114
c732 -104 1308 -691 1400 -1428 17 -134 7 -401 -19 -530 -70 -343 -263 -679
-518 -904 -237 -209 -491 -332 -808 -393 -154 -29 -425 -30 -576 0 -360 69
-639 217 -889 470 -407 412 -566 1023 -414 1588 75 277 204 499 413 716 255
262 578 429 933 480 126 19 350 19 478 1z m894 -40 c28 -23 28 -23 16 -76 -17
-73 -20 -77 -38 -38 -8 19 -16 29 -19 22 -2 -6 2 -24 11 -40 13 -26 13 -31 -6
-60 -11 -18 -15 -33 -9 -33 6 0 17 14 26 30 9 17 18 30 21 30 4 0 21 -13 40
-29 l33 -29 -53 -58 -52 -58 -101 76 -101 75 76 121 76 121 25 -15 c14 -9 39
-26 55 -39z m109 -35 c-3 -12 -8 -19 -11 -16 -5 6 5 36 12 36 2 0 2 -9 -1 -20z
m-2453 -56 c0 -21 -40 -53 -58 -47 -10 4 -6 13 14 34 31 33 44 36 44 13z
m2467 -6 c25 -23 30 -38 12 -38 -18 0 -56 35 -51 48 5 17 12 15 39 -10z
m-2747 -30 c0 -6 -7 -5 -15 2 -8 7 -15 17 -15 22 0 6 7 5 15 -2 8 -7 15 -17
15 -22z m3010 7 c-7 -9 -15 -13 -18 -10 -3 2 1 11 8 20 7 9 15 13 18 10 3 -2
-1 -11 -8 -20z m-3058 8 c-10 -4 -5 -11 15 -24 18 -12 22 -19 12 -19 -9 0 -23
8 -32 18 -17 19 -13 33 7 31 6 0 5 -3 -2 -6z m3101 0 c9 -8 -22 -43 -37 -43
-6 1 -1 9 12 19 15 13 18 21 10 24 -7 3 -8 6 -2 6 6 1 14 -2 17 -6z m-3004
-27 c9 -10 9 -16 1 -21 -6 -4 -12 -5 -13 -4 -2 2 -9 12 -16 22 -11 14 -11 17
2 17 8 0 20 -6 26 -14z m2920 -3 c-7 -10 -14 -20 -16 -22 -1 -1 -7 0 -13 4
-14 9 6 35 27 35 13 0 13 -3 2 -17z m-2839 -33 c0 -17 -15 -19 -32 -3 -26 23
-22 35 7 21 14 -6 25 -14 25 -18z m2812 -7 c43 -42 46 -53 19 -70 -16 -10 -22
-8 -37 8 -16 18 -16 20 2 42 l19 22 -23 -19 c-23 -20 -23 -20 -44 2 -22 21
-22 22 -3 37 27 19 24 20 67 -22z m-3006 -14 c4 -8 1 -8 -14 0 -12 6 -24 16
-28 22 -4 8 -1 8 14 0 12 -6 24 -16 28 -22z m74 1 c0 -14 -14 -12 -28 2 -19
19 -14 30 8 18 11 -6 20 -15 20 -20z m82 13 c17 -15 17 -17 2 -35 -21 -22 -37
-23 -54 -3 -10 13 -10 19 5 35 22 24 24 24 47 3z m2915 -10 c-9 -9 -20 -13
-24 -9 -4 4 1 14 11 22 25 18 35 8 13 -13z m88 17 c-3 -5 -16 -15 -28 -21 -21
-10 -21 -9 2 10 25 23 36 27 26 11z m-3183 -44 l11 -21 -23 20 c-12 11 -24 19
-26 18 -12 -8 -34 -1 -29 7 5 8 12 7 23 -2 14 -11 15 -10 9 6 -6 16 -5 17 8 6
9 -7 21 -23 27 -34z m359 -9 c8 -3 38 -31 66 -64 l51 -58 -89 -92 -89 -91 -97
80 c-54 44 -104 85 -112 93 -11 11 0 27 68 98 l82 85 52 -23 c29 -12 59 -25
68 -28z m2648 -32 c45 -47 79 -90 76 -95 -3 -5 -53 -47 -110 -94 l-105 -86
-47 52 c-27 29 -67 70 -90 91 l-42 39 52 60 c36 41 70 69 112 88 33 16 63 29
66 30 3 0 43 -38 88 -85z m194 68 c-6 -15 -4 -16 9 -5 11 9 18 10 23 2 5 -8
-17 -15 -29 -7 -2 1 -14 -7 -27 -18 -13 -12 -19 -14 -14 -5 9 17 36 50 41 50
2 0 0 -8 -3 -17z m-3233 -38 c18 -10 20 -14 8 -15 -9 0 -20 5 -23 10 -3 6 -11
10 -17 10 -7 0 -5 -7 4 -17 27 -32 33 -49 10 -29 -12 11 -22 16 -22 12 0 -4
-9 -2 -20 4 -11 6 -18 16 -14 21 3 6 12 3 21 -8 12 -15 14 -15 10 -1 -10 30 5
35 43 13z m74 9 c16 -6 23 -34 8 -34 -10 0 -32 22 -32 32 0 10 3 10 24 2z m90
-12 c15 -18 15 -20 -4 -37 -19 -17 -22 -17 -36 -3 -13 12 -14 20 -5 37 14 26
23 26 45 3z m3016 10 c0 -4 -5 -13 -12 -20 -7 -7 -16 -12 -20 -12 -13 0 -9 28
5 33 19 8 27 8 27 -1z m92 -18 c-2 -18 -2 -18 12 -1 8 11 17 14 20 8 4 -5 -3
-15 -14 -21 -11 -6 -20 -8 -20 -4 0 4 -10 -1 -22 -12 -23 -20 -17 -3 10 29 9
10 11 17 4 17 -6 0 -14 -4 -17 -10 -3 -5 -14 -10 -23 -10 -12 1 -10 5 8 15 31
18 46 14 42 -11z m-142 -58 c-19 -19 -19 -19 -38 4 -19 24 -19 24 1 41 20 15
22 15 38 -5 17 -20 17 -22 -1 -40z m-3170 19 c18 -10 20 -14 8 -15 -9 0 -20 5
-23 10 -3 6 -11 10 -17 10 -7 0 -5 -7 4 -17 28 -33 33 -50 10 -30 -12 9 -24
17 -27 17 -3 0 -12 0 -20 0 -8 0 -15 7 -15 15 0 20 10 19 27 -2 13 -16 14 -16
10 -1 -10 30 5 35 43 13z m74 9 c16 -6 23 -34 8 -34 -10 0 -32 22 -32 32 0 10
3 10 24 2z m94 -31 c-5 -29 -35 -40 -55 -21 -16 16 -16 19 1 37 15 16 23 18
38 10 11 -6 18 -17 16 -26z m3092 28 c0 -5 -6 -14 -14 -20 -11 -9 -16 -9 -21
0 -4 6 -1 15 6 20 18 11 29 11 29 0z m93 -17 c-1 -18 -1 -18 11 -1 16 21 26
22 26 2 0 -13 -21 -21 -34 -12 -2 1 -14 -7 -27 -18 -23 -21 -18 -4 9 28 9 10
11 17 4 17 -6 0 -14 -4 -17 -10 -3 -5 -14 -10 -23 -10 -12 1 -10 5 8 15 31 18
46 14 43 -11z m-132 -26 c10 -18 8 -24 -7 -35 -16 -11 -21 -11 -38 6 -16 17
-17 23 -6 35 18 22 37 20 51 -6z m-3187 -1 c11 -8 17 -19 15 -26 -3 -8 -13 -3
-28 13 -26 28 -17 35 13 13z m3259 -11 c-12 -16 -21 -21 -28 -15 -7 7 -3 15 9
25 30 22 39 17 19 -10z m-3177 -45 c-15 -16 -21 -18 -37 -8 -23 15 -24 25 -2
49 16 18 17 18 37 -1 19 -20 19 -21 2 -40z m3277 33 c-1 -18 -1 -18 11 -1 12
15 15 15 26 2 10 -12 9 -15 -6 -17 -11 0 -24 -2 -31 -2 -6 -1 -15 -5 -19 -9
-20 -20 -24 -3 -4 18 13 14 18 25 12 25 -6 0 -14 -4 -17 -10 -3 -5 -14 -10
-23 -10 -12 1 -10 5 8 15 31 18 46 14 43 -11z m-133 -25 c9 -15 8 -24 -1 -35
-16 -20 -32 -18 -47 7 -11 18 -11 23 5 35 24 18 30 17 43 -7z m-3240 -19 c0
-17 -15 -19 -32 -3 -26 23 -22 35 7 21 14 -6 25 -14 25 -18z m3305 0 c-14 -15
-20 -17 -26 -8 -5 8 0 17 14 25 29 15 34 8 12 -17z m-3395 0 c19 -11 28 -19
20 -20 -11 0 -9 -4 5 -12 28 -15 28 -15 20 -28 -5 -8 -13 -6 -26 6 -10 9 -19
14 -19 10 0 -3 -10 0 -23 9 -13 8 -26 12 -30 9 -10 -10 -39 5 -32 16 5 8 12 7
23 -2 12 -10 14 -10 8 0 -11 19 8 14 31 -8 18 -16 22 -17 27 -5 3 8 0 15 -7
15 -7 0 -21 7 -31 15 -28 21 -8 18 34 -5z m320 -66 c58 -47 105 -89 105 -93 0
-3 -31 -52 -69 -108 l-68 -101 -122 70 c-66 39 -122 72 -123 72 -8 6 156 246
167 246 3 0 52 -39 110 -86z m2941 64 c32 -38 152 -218 148 -222 -8 -8 -226
-135 -237 -138 -6 -2 -42 43 -81 100 l-71 103 27 23 c68 57 188 155 191 155 2
1 12 -9 23 -21z m223 7 c-10 -8 -24 -15 -31 -15 -7 0 -10 -7 -7 -15 5 -12 9
-11 27 5 23 22 42 27 31 8 -6 -10 -4 -10 8 0 11 9 18 10 23 2 7 -11 -22 -26
-32 -16 -4 3 -17 -1 -30 -9 -13 -9 -23 -12 -23 -9 0 4 -8 0 -18 -9 -10 -10
-22 -14 -25 -10 -12 12 -7 22 13 28 11 4 18 10 15 15 -3 5 7 16 22 24 36 20
52 20 27 1z m-3338 -9 c19 -15 19 -15 -3 -38 -21 -20 -24 -21 -39 -6 -13 12
-14 20 -5 37 14 25 21 26 47 7z m3234 -51 c0 -6 -9 -16 -20 -22 -16 -11 -21
-9 -35 10 -15 20 -14 23 6 40 21 17 22 17 35 0 7 -10 14 -23 14 -28z m-3410
-1 c20 -12 21 -14 5 -11 -11 3 -29 8 -40 12 -18 7 -18 6 3 -14 12 -12 22 -25
22 -28 0 -4 -11 4 -25 17 -39 37 -14 54 35 24z m134 -3 c15 -17 15 -19 -1 -39
-16 -19 -20 -20 -37 -7 -17 13 -18 18 -6 40 16 30 22 31 44 6z m3432 4 c5 -12
10 -13 20 -4 11 9 14 8 14 -5 0 -9 -8 -16 -17 -17 -13 0 -11 -3 6 -10 l24 -9
-23 -25 c-13 -14 -26 -22 -29 -19 -3 3 5 14 19 26 20 16 21 19 5 13 -11 -4
-29 -9 -40 -12 l-20 -4 20 13 c20 13 32 38 18 38 -3 0 -15 -7 -25 -17 -26 -23
-22 -8 5 18 20 20 20 21 2 14 -11 -4 -29 -9 -40 -12 -16 -3 -15 -1 5 11 32 20
49 20 56 1z m-3626 -20 c7 -8 9 -15 4 -15 -5 -1 2 -8 16 -16 20 -12 21 -14 5
-11 -11 3 -29 8 -40 12 -16 6 -15 3 5 -13 14 -12 22 -23 19 -26 -3 -3 -16 5
-29 19 l-23 25 24 9 c17 7 19 10 7 10 -10 1 -18 6 -18 11 0 15 16 12 30 -5z
m3498 -16 c10 -16 10 -24 1 -35 -16 -20 -32 -17 -47 7 -11 18 -11 23 5 35 24
18 26 17 41 -7z m-3389 -5 c3 -3 0 -9 -5 -14 -7 -7 -17 -3 -30 11 -19 22 -19
22 6 14 14 -4 27 -9 29 -11z m3446 -4 c-14 -16 -20 -17 -26 -8 -5 8 -2 16 9
20 30 12 35 8 17 -12z m-3401 -13 c15 -11 17 -17 7 -35 -13 -25 -15 -26 -41
-12 -17 9 -18 14 -8 35 13 29 17 30 42 12z m-188 -25 c-9 -9 -37 8 -31 18 5 8
11 7 21 -1 8 -6 12 -14 10 -17z m3723 7 c-22 -14 -33 -10 -19 6 7 8 17 12 22
9 6 -4 5 -10 -3 -15z m-3614 -20 c3 -4 1 -11 -5 -14 -11 -7 -40 11 -40 25 0
10 38 1 45 -11z m3464 -1 c12 -19 11 -23 -5 -35 -24 -18 -31 -17 -44 8 -9 15
-8 24 1 35 16 20 32 17 48 -8z m56 2 c-21 -23 -35 -26 -35 -6 0 13 15 21 44
25 5 0 1 -8 -9 -19z m-3610 -10 c13 -6 15 -9 5 -9 -8 0 -22 4 -30 9 -18 12 -2
12 25 0z m3685 0 c-8 -5 -22 -9 -30 -9 -10 0 -8 3 5 9 27 12 43 12 25 0z
m-3742 -22 c11 -14 10 -16 -7 -11 -12 3 -17 11 -14 19 3 8 6 14 7 12 1 -2 7
-11 14 -20z m52 -8 c0 -4 11 -5 24 -3 13 3 27 0 31 -7 11 -17 -2 -25 -19 -11
-8 7 -19 10 -25 7 -5 -4 -22 5 -38 19 l-28 25 28 -11 c15 -7 27 -15 27 -19z
m144 17 c17 -12 17 -14 -2 -37 -17 -21 -22 -22 -36 -11 -19 16 -20 33 -4 49
15 15 20 15 42 -1z m3560 -7 c-11 -11 -29 -22 -39 -24 -11 -2 -28 -8 -39 -12
-14 -5 -17 -3 -14 7 3 8 16 14 29 15 14 0 36 8 49 17 33 23 39 21 14 -3z m46
1 c0 -5 -9 -11 -19 -14 -17 -4 -18 -2 -8 13 10 18 27 18 27 1z m-166 -68 c-24
-18 -29 -17 -42 11 -9 21 -8 27 11 39 20 14 23 13 36 -11 12 -23 11 -27 -5
-39z m-3585 21 c3 -4 -10 -4 -29 0 l-34 6 22 -20 c25 -24 30 -39 6 -19 -9 7
-29 12 -45 11 -16 -1 -29 2 -29 6 0 17 14 22 28 9 13 -9 14 -9 8 1 -4 7 -2 12
4 12 6 0 9 4 5 9 -6 11 54 -4 64 -15z m3736 16 c-3 -5 -1 -10 5 -10 6 0 8 -5
4 -12 -6 -10 -5 -10 8 -1 14 13 28 8 28 -9 0 -4 -13 -7 -29 -6 -16 1 -36 -4
-45 -11 -24 -20 -19 -5 6 19 l22 20 -32 -6 c-42 -8 -41 3 1 15 17 5 33 10 35
10 2 1 0 -3 -3 -9z m-3626 -24 c18 -22 -3 -56 -29 -49 -28 7 -33 19 -20 43 13
23 33 26 49 6z m-90 -15 c7 -5 12 -14 9 -21 -2 -8 -11 -5 -28 9 -17 14 -20 20
-10 21 8 0 21 -4 29 -9z m229 -47 c53 -31 107 -63 119 -70 l22 -14 -50 -104
c-27 -58 -49 -110 -49 -116 0 -13 -2 -13 -150 44 -63 24 -116 49 -118 54 -5
16 111 262 124 262 3 0 49 -25 102 -56z m3311 3 c16 -28 45 -89 64 -133 l35
-82 -66 -25 c-37 -14 -97 -37 -134 -51 l-68 -25 -51 107 c-28 59 -51 111 -52
115 -2 6 228 147 240 147 1 0 15 -24 32 -53z m111 32 c-17 -14 -26 -17 -28 -9
-5 14 16 30 38 30 10 -1 7 -7 -10 -21z m-44 -11 c4 -15 1 -25 -12 -35 -16 -12
-21 -11 -36 9 -16 21 -16 24 -1 36 25 18 41 15 49 -10z m-3667 -4 c2 -2 2 -7
-1 -10 -4 -3 -19 2 -35 11 l-28 16 30 -6 c16 -4 32 -9 34 -11z m3791 2 c-14
-8 -29 -12 -34 -8 -10 6 20 20 44 21 8 0 4 -6 -10 -13z m133 -69 c38 -81 70
-174 88 -261 12 -57 12 -59 -12 -77 -13 -10 -27 -19 -32 -19 -4 0 -36 -18 -71
-40 -35 -22 -66 -40 -70 -40 -4 0 -5 10 -1 23 5 19 4 20 -5 4 -6 -9 -9 -21 -6
-25 3 -4 -4 -13 -15 -20 -15 -10 -19 -10 -19 0 0 7 -7 0 -16 -17 -20 -39 -15
-87 12 -100 12 -6 19 -16 16 -25 -4 -12 -3 -13 10 -2 16 13 68 13 68 -1 0 -4
5 -5 10 -2 6 4 35 1 65 -5 44 -9 53 -14 48 -28 -5 -16 -5 -16 8 0 10 11 24 15
46 11 30 -5 32 -8 40 -62 4 -31 8 -110 8 -176 0 -206 -28 -269 -38 -87 -4 59
-12 141 -18 184 l-12 76 -44 12 c-48 14 -47 13 -32 43 l10 22 -18 -22 c-13
-16 -25 -20 -45 -16 -16 3 -28 10 -28 15 0 5 -4 7 -9 4 -5 -4 -22 -1 -38 5
-15 6 -35 12 -43 13 -64 9 -90 20 -94 40 -3 11 -7 33 -10 48 -6 26 3 34 131
129 76 57 140 104 142 106 7 5 -18 127 -50 245 -16 59 -29 113 -29 118 0 24
20 -4 53 -73z m-4078 -73 c-38 -145 -52 -249 -35 -259 6 -4 7 1 3 10 -5 15 -3
15 15 4 11 -7 18 -17 15 -23 -3 -5 -2 -6 4 -3 15 9 76 -40 78 -63 1 -11 5 -23
10 -27 4 -5 4 2 0 15 -6 21 -5 22 13 11 11 -7 18 -19 15 -28 -4 -13 -3 -13 5
-3 7 11 20 6 60 -22 49 -36 50 -37 45 -79 -7 -53 -10 -57 -75 -73 -49 -13 -54
-13 -66 3 -11 16 -10 18 10 21 12 2 24 -2 26 -8 7 -19 32 47 32 81 0 17 -6 32
-15 35 -8 4 -12 11 -8 17 3 6 1 7 -6 3 -6 -4 -32 6 -57 23 -25 17 -49 31 -54
31 -5 0 -14 9 -20 20 -6 11 -16 17 -25 14 -8 -4 -15 -1 -15 7 0 7 -3 9 -6 6
-11 -10 -64 26 -64 43 1 88 123 410 147 387 2 -3 -12 -67 -32 -143z m133 112
c9 -9 11 -16 5 -16 -6 0 -16 7 -23 15 -14 17 -35 21 -25 5 3 -5 -3 -10 -14
-10 -13 0 -19 5 -15 14 7 18 51 13 72 -8z m150 9 c5 -4 -21 -55 -27 -55 -3 0
-14 7 -24 14 -27 20 -6 60 26 50 12 -3 23 -8 25 -9z m3716 -2 c3 -8 -2 -13
-15 -13 -11 0 -17 5 -14 10 10 16 -11 12 -25 -5 -7 -8 -18 -15 -24 -15 -6 1
-1 9 12 20 25 21 59 23 66 3z m-3799 -12 c10 -18 -17 -23 -33 -7 -15 15 -15
16 5 16 12 0 24 -4 28 -9z m3693 -7 c-9 -9 -21 -13 -27 -9 -16 10 -3 25 22 25
20 0 20 -1 5 -16z m-40 -18 c9 -20 7 -25 -14 -35 -32 -14 -31 -15 -38 16 -12
44 33 60 52 19z m-3738 4 c20 -6 21 -8 5 -8 -11 0 -29 3 -40 8 -25 11 1 11 35
0z m3865 0 c-11 -5 -29 -8 -40 -8 -16 0 -15 2 5 8 34 11 60 11 35 0z m-3912
-30 c4 0 5 5 2 10 -9 15 7 12 32 -5 12 -8 23 -11 25 -5 5 14 48 0 48 -16 0
-16 -16 -19 -25 -4 -4 6 -15 8 -25 5 -10 -3 -21 -1 -25 4 -3 6 -19 8 -35 4
-25 -4 -30 -2 -30 13 0 14 3 15 12 6 7 -7 16 -12 21 -12z m171 7 c15 -11 17
-17 7 -35 -13 -25 -21 -27 -43 -9 -12 9 -14 18 -7 35 10 25 18 27 43 9z m3751
3 c-9 -14 8 -13 23 2 9 9 12 8 12 -6 0 -15 -5 -17 -29 -13 -15 3 -33 1 -40 -6
-8 -8 -11 -8 -11 1 0 6 8 16 18 21 22 13 35 14 27 1z m-69 -26 c-25 -18 -36
-18 -36 0 0 8 10 16 23 18 31 5 35 -1 13 -18z m-45 -16 c10 -18 8 -24 -7 -35
-26 -19 -33 -16 -40 13 -4 17 -2 29 7 35 21 13 27 11 40 -13z m-3776 2 c18 -8
18 -9 -5 -9 -14 0 -32 4 -40 9 -12 8 -12 10 5 9 11 0 29 -4 40 -9z m3905 0
c-8 -5 -26 -9 -40 -9 -23 0 -23 1 -5 9 11 5 29 9 40 9 17 1 17 -1 5 -9z m50
-31 c0 -5 -10 -9 -21 -9 -19 0 -20 2 -8 17 11 14 6 13 -23 -4 -21 -12 -35 -16
-32 -9 12 31 84 35 84 5z m-3950 7 c14 -2 30 -4 37 -4 7 -1 10 -9 6 -17 -5
-14 -8 -14 -29 0 -14 9 -24 11 -24 5 0 -7 -9 -5 -22 4 -25 18 -42 21 -33 6 3
-5 -3 -10 -14 -10 -13 0 -19 5 -15 14 4 10 16 13 37 9 18 -2 43 -6 57 -7z
m104 1 c13 -10 16 -20 12 -35 -13 -41 -63 -20 -52 22 7 29 14 32 40 13z m3737
-18 c-19 -15 -26 -17 -32 -7 -8 13 11 26 41 27 10 0 7 -6 -9 -20z m-40 -25
c11 -30 11 -29 -18 -38 -16 -5 -25 -1 -34 15 -10 19 -9 25 7 36 26 19 33 16
45 -13z m-3836 6 l20 -9 -20 0 c-11 0 -29 4 -40 9 l-20 9 20 0 c11 0 29 -4 40
-9z m3960 0 c-11 -5 -29 -9 -40 -9 l-20 0 20 9 c11 5 29 9 40 9 l20 0 -20 -9z
m-3981 -23 c16 -12 14 -13 -18 -14 -35 -1 -48 10 -23 20 19 8 22 8 41 -6z
m147 -31 c-9 -23 -29 -31 -49 -18 -9 7 -10 15 -3 35 9 24 13 26 35 16 19 -9
23 -16 17 -33z m3853 38 c28 -11 17 -22 -20 -21 -32 1 -34 2 -18 14 21 15 18
15 38 7z m-3925 -13 c21 -13 -5 -24 -29 -11 -11 6 -20 13 -20 15 0 8 34 5 49
-4z m3847 -6 c-22 -17 -36 -19 -36 -7 0 14 12 22 34 22 21 -1 21 -1 2 -15z
m-3911 -25 c18 -8 18 -9 -5 -9 -14 0 -34 4 -45 9 -18 8 -18 9 5 9 14 0 34 -4
45 -9z m3870 -10 c8 -25 1 -36 -25 -43 -15 -4 -22 1 -26 18 -3 13 -3 29 1 34
11 18 43 12 50 -9z m120 10 c-11 -5 -29 -9 -40 -9 -17 -1 -17 1 -5 9 8 5 26 9
40 9 23 0 23 -1 5 -9z m-4014 -31 c22 -19 23 -19 2 -10 -12 6 -28 9 -35 8 -7
-2 -10 -2 -5 0 4 3 5 9 1 14 -10 17 13 9 37 -12z m352 -49 c48 -18 87 -34 87
-35 0 -1 -7 -18 -15 -37 -8 -20 -24 -74 -36 -122 -17 -70 -25 -86 -38 -82 -9
3 -46 12 -84 20 -46 11 -83 27 -117 53 -28 21 -50 40 -50 44 0 10 47 169 59
201 l10 28 48 -19 c27 -10 87 -33 136 -51z m3490 10 c16 -46 47 -154 47 -163
0 -3 -26 -26 -57 -50 -42 -31 -75 -47 -118 -56 -33 -7 -67 -14 -76 -17 -12 -3
-19 9 -28 52 -7 31 -23 86 -36 123 l-22 67 131 50 c72 28 134 48 137 45 3 -3
13 -26 22 -51z m182 51 c-3 -5 0 -11 7 -14 7 -2 4 -3 -6 -1 -11 2 -29 -2 -40
-7 -18 -9 -18 -8 3 10 24 21 47 29 36 12z m-3955 -16 c0 -19 -11 -19 -36 0
-18 14 -18 14 9 15 17 0 27 -5 27 -15z m59 6 c9 -6 11 -18 7 -34 -4 -19 -11
-24 -26 -20 -26 7 -33 18 -25 43 7 21 22 25 44 11z m3827 -6 c-25 -19 -36 -19
-36 0 0 10 10 15 28 15 26 -1 26 -1 8 -15z m-3961 -25 l20 -9 -20 0 c-11 0
-29 4 -40 9 l-20 9 20 0 c11 0 29 -4 40 -9z m3919 -6 c9 -25 7 -42 -6 -47 -7
-2 -5 -3 5 -1 11 1 19 -6 23 -21 7 -30 -2 -45 -26 -45 -14 0 -23 14 -34 54 -9
30 -16 56 -16 59 0 5 18 12 41 16 4 0 10 -6 13 -15z m121 6 c-11 -5 -29 -9
-40 -9 l-20 0 20 9 c11 5 29 9 40 9 l20 0 -20 -9z m-4043 -38 c11 -13 10 -14
-9 -4 -12 7 -28 10 -35 9 -7 -2 -10 -2 -5 0 4 3 5 8 2 13 -9 14 34 -2 47 -18z
m4054 19 c-4 -5 -3 -11 1 -14 5 -2 2 -2 -5 0 -7 1 -23 -2 -34 -8 -15 -8 -19
-8 -13 1 4 6 17 15 29 20 28 11 28 11 22 1z m-3996 -16 c0 -19 -11 -19 -36 0
-18 14 -18 14 9 15 17 0 27 -5 27 -15z m69 -1 c10 -9 -12 -54 -27 -54 -13 0
-14 -2 -3 -9 9 -6 11 -18 7 -35 -5 -21 -10 -24 -29 -17 -27 10 -33 34 -13 54
8 8 13 17 10 20 -3 2 -2 17 2 31 5 22 10 25 28 20 11 -4 23 -8 25 -10z m3857
1 c-25 -19 -36 -19 -36 0 0 10 10 15 28 15 26 -1 26 -1 8 -15z m-4005 -33
c-13 -2 -27 0 -32 5 -6 6 3 7 23 4 28 -4 29 -6 9 -9z m4062 1 c-7 -2 -19 -2
-25 0 -7 3 -2 5 12 5 14 0 19 -2 13 -5z m-3993 -22 c0 -18 -15 -19 -40 -5
l-25 13 33 1 c17 0 32 -4 32 -9z m3969 5 c-2 -2 -14 -8 -26 -14 -17 -9 -22 -9
-27 3 -4 11 2 15 26 15 17 0 29 -2 27 -4z m-59 -45 c0 -5 -11 -16 -25 -25 -24
-16 -25 -15 -25 3 0 17 12 25 43 30 4 0 7 -3 7 -8z m-4025 -39 c-3 -3 -11 0
-18 7 -9 10 -8 11 6 5 10 -3 15 -9 12 -12z m135 -78 c0 -2 -9 0 -20 6 -11 6
-20 13 -20 16 0 2 9 0 20 -6 11 -6 20 -13 20 -16z m3890 12 c0 -2 -7 -7 -16
-10 -8 -3 -12 -2 -9 4 6 10 25 14 25 6z m-3657 -61 c33 -7 61 -16 64 -19 3 -3
0 -42 -6 -87 -6 -45 -11 -99 -11 -121 l0 -38 -53 0 c-30 0 -95 3 -145 6 l-92
7 0 56 c0 68 5 76 50 86 68 14 100 33 100 57 0 36 11 68 24 68 6 -1 37 -7 69
-15z m3491 -7 c11 -50 10 -64 -9 -86 -11 -13 -31 -28 -44 -33 -23 -9 -23 -10
-6 -29 21 -23 26 -21 40 23 13 41 55 46 66 7 7 -25 7 -25 8 3 1 27 3 28 34 22
62 -14 67 -20 67 -89 l0 -63 -67 -6 c-38 -4 -102 -7 -144 -7 l-76 0 -6 83 c-4
45 -10 101 -13 123 l-6 42 63 15 c87 20 88 20 93 -5z m193 -44 c-3 -3 -12 -4
-19 -1 -8 3 -5 6 6 6 11 1 17 -2 13 -5z m-4074 -31 c-7 -2 -21 -2 -30 0 -10 3
-4 5 12 5 17 0 24 -2 18 -5z m4234 1 c-3 -3 -12 -4 -19 -1 -8 3 -5 6 6 6 11 1
17 -2 13 -5z m66 -11 c-7 -2 -19 -2 -25 0 -7 3 -2 5 12 5 14 0 19 -2 13 -5z
m-212 -43 c5 0 9 -4 9 -10 0 -5 -11 -10 -25 -10 -16 0 -25 6 -25 16 0 11 5 14
16 10 9 -3 20 -6 25 -6z m-3955 -42 c-2 -24 -5 -67 -5 -95 -1 -50 -3 -53 -26
-53 -21 0 -25 5 -25 30 0 24 4 30 23 31 l22 2 -22 4 c-18 3 -23 11 -23 34 0
23 5 29 23 30 22 1 22 1 1 7 -17 6 -20 11 -13 30 5 13 17 22 29 22 19 0 21 -5
16 -42z m4028 11 c-8 -14 -44 -10 -44 5 0 9 8 12 25 8 14 -2 22 -8 19 -13z
m-4094 1 c0 -5 -9 -10 -20 -10 -11 0 -20 5 -20 10 0 6 9 10 20 10 11 0 20 -4
20 -10z m4040 -65 c0 -63 -1 -65 -25 -65 -21 0 -25 5 -25 30 0 17 5 30 13 30
9 0 9 2 0 8 -6 4 -15 20 -18 35 -7 25 -5 27 24 27 l31 0 0 -65z m90 55 c-20
-13 -33 -13 -25 0 3 6 14 10 23 10 15 0 15 -2 2 -10z m31 -17 c-11 -5 -11 -7
0 -14 18 -11 -14 -12 -51 -2 -24 7 -23 8 10 14 45 8 59 9 41 2z m-4211 -13
c-8 -5 -28 -9 -45 -9 -26 0 -27 2 -10 9 11 5 31 9 45 9 20 1 22 -1 10 -9z m50
-19 c0 -14 -76 -22 -102 -11 -20 9 -18 10 15 6 20 -3 37 -1 37 5 0 5 11 9 25
9 14 0 25 -4 25 -9z m4100 -1 c-20 -13 -50 -13 -50 0 0 6 15 10 33 10 24 0 28
-3 17 -10z m55 -10 c-11 -5 -29 -9 -40 -9 -17 -1 -17 1 -5 9 8 5 26 9 40 9 23
0 23 -1 5 -9z m-4258 -16 c-3 -3 -12 -4 -19 -1 -8 3 -5 6 6 6 11 1 17 -2 13
-5z m4280 0 c-3 -3 -12 -4 -19 -1 -8 3 -5 6 6 6 11 1 17 -2 13 -5z m-4224 -20
c20 -4 37 -10 37 -14 0 -13 -88 -22 -107 -11 -14 8 -9 9 20 4 23 -3 37 -2 37
5 0 6 -15 13 -32 15 -18 2 -24 4 -13 5 11 1 37 -1 58 -4z m4210 -1 c-7 -2 -21
-2 -30 0 -10 3 -4 5 12 5 17 0 24 -2 18 -5z m-3817 -9 c15 -4 19 -12 17 -32
-2 -15 0 -71 4 -124 l9 -97 -31 -5 c-16 -3 -79 -10 -139 -17 -90 -9 -110 -9
-117 2 -5 8 -9 74 -9 147 l0 132 123 0 c67 0 131 -3 143 -6z m3629 -131 c-4
-76 -11 -142 -15 -147 -9 -9 -251 12 -270 24 -9 5 -10 38 -5 128 9 142 -9 129
173 131 l124 1 -7 -137z m135 127 c0 -7 14 -9 38 -5 29 5 33 4 19 -5 -10 -7
-35 -9 -62 -4 -48 7 -62 24 -20 24 14 0 25 -5 25 -10z m-4225 -30 c3 -5 -1
-10 -10 -10 -9 0 -13 5 -10 10 3 6 8 10 10 10 2 0 7 -4 10 -10z m4155 -45 c0
-52 -1 -55 -25 -55 -23 0 -24 3 -24 55 1 51 3 55 25 55 22 0 24 -4 24 -55z
m145 45 c3 -5 -1 -10 -10 -10 -9 0 -13 5 -10 10 3 6 8 10 10 10 2 0 7 -4 10
-10z m-4255 -20 c-8 -5 -26 -10 -40 -10 -20 0 -22 2 -10 10 8 5 26 10 40 10
20 0 22 -2 10 -10z m4240 0 c12 -8 10 -10 -10 -10 -14 0 -32 5 -40 10 -12 8
-10 10 10 10 14 0 32 -5 40 -10z m-4180 -14 c0 -9 -8 -12 -25 -8 -28 5 -24 22
6 22 10 0 19 -6 19 -14z m70 -21 c0 -31 -3 -35 -25 -35 -22 0 -25 4 -25 35 0
31 3 35 25 35 22 0 25 -4 25 -35z m4045 25 c4 -6 -5 -10 -19 -10 -14 0 -26 5
-26 10 0 6 9 10 19 10 11 0 23 -4 26 -10z m-4165 -20 c13 -9 13 -10 0 -9 -8 1
-26 5 -40 9 l-25 8 25 1 c14 0 32 -4 40 -9z m4229 6 c-2 -2 -20 -6 -39 -10
-25 -4 -31 -3 -20 4 14 9 69 15 59 6z m-4285 -28 c-14 -6 -9 -7 18 -5 22 2 34
-1 29 -6 -14 -14 -66 -4 -69 15 -2 13 2 15 19 11 22 -6 22 -7 3 -15z m4303 -3
c-7 -17 -62 -21 -72 -6 -3 6 10 8 32 6 21 -3 29 -2 18 2 l-20 6 20 7 c24 9 29
6 22 -15z m-4197 -20 c0 -16 -9 -19 -35 -9 -13 5 -14 8 -3 15 20 13 38 11 38
-6z m4105 9 c13 -5 14 -8 3 -15 -20 -13 -38 -11 -38 6 0 16 9 19 35 9z m-4160
-24 c7 -12 -22 -12 -50 0 -17 7 -15 9 12 9 17 1 35 -3 38 -9z m125 -20 c0 -25
-4 -30 -25 -30 -21 0 -25 5 -25 30 0 25 4 30 25 30 21 0 25 -5 25 -30z m4100
20 c-36 -11 -52 -11 -45 0 3 6 21 10 38 9 31 -1 31 -1 7 -9z m-120 -30 c0 -25
-4 -30 -25 -30 -21 0 -25 5 -25 30 0 25 4 30 25 30 21 0 25 -5 25 -30z m-4154
9 c3 -6 19 -9 35 -7 15 3 26 1 24 -3 -3 -4 -18 -9 -34 -11 -18 -3 -28 0 -24 6
4 5 -1 7 -10 3 -11 -4 -17 -1 -17 8 0 18 16 20 26 4z m4304 -4 c0 -9 -6 -12
-17 -8 -9 4 -14 2 -11 -3 4 -5 -8 -10 -25 -10 -18 -1 -44 -5 -59 -9 -23 -6
-28 -4 -28 10 0 13 6 15 31 10 19 -4 29 -3 26 2 -3 5 7 7 24 5 17 -3 29 0 29
7 0 6 7 11 15 11 8 0 15 -7 15 -15z m-4190 -20 c0 -8 -9 -15 -19 -15 -24 0
-36 16 -19 23 24 10 38 7 38 -8z m-90 -25 c-21 -4 -27 -8 -15 -9 l20 -2 -20
-9 c-16 -8 -13 -9 15 -8 59 3 90 -2 90 -12 0 -5 -11 -10 -25 -10 -14 0 -25 5
-25 10 0 6 -10 8 -24 4 -31 -7 -66 3 -66 21 0 17 16 24 55 23 29 -1 29 -1 -5
-8z m160 -15 c0 -14 -5 -25 -11 -25 -6 0 -3 -7 5 -16 9 -8 16 -24 16 -35 0
-14 -7 -19 -30 -19 -25 0 -30 4 -30 25 0 14 6 25 13 25 8 0 9 3 1 8 -6 4 -14
19 -18 35 -6 25 -4 27 24 27 25 0 30 -4 30 -25z m4104 19 c9 -3 16 -12 16 -19
0 -23 -62 -35 -75 -15 -4 6 7 8 27 5 26 -4 29 -3 13 4 l-20 10 20 2 c11 1 2 5
-20 9 -37 7 -38 7 -8 9 17 0 38 -2 47 -5z m-138 -20 c-3 -9 -6 -22 -6 -30 0
-8 -10 -15 -22 -15 l-23 -2 23 -4 c18 -4 23 -10 20 -31 -2 -22 -7 -26 -28 -24
-14 2 -26 5 -27 6 -1 1 1 27 4 59 6 55 7 57 35 57 23 0 29 -4 24 -16z m64 -25
c0 -5 -11 -9 -25 -9 -14 0 -25 6 -25 14 0 9 8 12 25 8 14 -2 25 -8 25 -13z
m-4172 -16 c-10 -2 -26 -2 -35 0 -10 3 -2 5 17 5 19 0 27 -2 18 -5z m491 -214
c8 -22 7 -31 -2 -34 -29 -10 -254 -75 -260 -75 -14 0 -74 276 -62 288 2 2 66
11 142 21 l138 16 17 -93 c9 -51 21 -107 27 -123z m3739 214 c-10 -2 -26 -2
-35 0 -10 3 -2 5 17 5 19 0 27 -2 18 -5z m-320 -17 c62 -8 115 -16 118 -19 10
-10 -41 -264 -56 -280 -4 -5 -56 6 -116 24 -60 17 -119 34 -131 36 -27 6 -28
19 -8 92 7 29 17 78 21 107 7 63 -4 61 172 40z m-3934 -7 c-4 -8 4 -9 27 -4
41 9 34 -2 -10 -15 -22 -6 -29 -6 -25 2 5 7 1 9 -9 5 -11 -4 -17 -1 -17 8 0 8
9 15 21 15 12 0 17 -4 13 -11z m4276 -4 c0 -9 -6 -12 -17 -8 -10 4 -14 2 -9
-5 4 -8 -3 -8 -26 -1 -41 11 -41 11 -33 -1 4 -6 -7 -10 -24 -10 -17 0 -31 5
-31 10 0 10 34 15 83 12 17 -1 26 2 22 8 -3 5 3 10 14 10 12 0 21 -7 21 -15z
m-4170 -15 c0 -5 -12 -10 -26 -10 -14 0 -23 4 -19 10 3 6 15 10 26 10 10 0 19
-4 19 -10z m-50 -26 c0 -2 -15 -4 -32 -3 -27 0 -29 2 -13 8 18 8 45 4 45 -5z
m4185 6 c4 -6 -7 -10 -27 -10 -25 0 -29 3 -18 10 19 13 37 13 45 0z m-4065 -7
c0 -5 3 -18 6 -30 5 -19 2 -23 -17 -24 -23 -2 -23 -2 -2 -6 25 -5 41 -42 23
-53 -8 -5 -7 -9 4 -13 22 -9 21 -54 -1 -60 -14 -4 -13 -5 4 -6 12 0 24 -10 28
-21 8 -25 1 -36 -25 -43 -16 -4 -21 1 -26 21 -3 15 -10 43 -15 62 -6 23 -5 36
2 39 6 2 4 8 -5 15 -8 6 -18 37 -21 69 -7 57 -7 57 19 57 14 0 26 -3 26 -7z
m-182 -12 c11 -7 11 -9 -1 -14 -9 -3 -18 1 -21 9 -6 16 2 18 22 5z m4120 -23
c3 -25 0 -28 -27 -28 -31 0 -38 11 -25 45 11 27 48 14 52 -17z m162 24 c0 -14
-23 -32 -40 -32 -9 0 -25 7 -36 15 -17 13 -16 14 14 4 18 -6 36 -9 39 -5 4 3
0 6 -8 6 -11 0 -11 2 1 10 18 12 30 13 30 2z m-4240 -22 c-8 -5 -22 -10 -30
-10 -13 0 -13 1 0 10 8 5 22 10 30 10 13 0 13 -1 0 -10z m80 0 c0 -5 -15 -10
-32 -10 -25 0 -29 3 -18 10 20 13 50 13 50 0z m4060 0 c11 -7 7 -10 -17 -10
-18 0 -33 5 -33 10 0 13 30 13 50 0z m-4110 -26 c0 -2 -17 -4 -37 -3 -33 1
-35 2 -13 8 23 7 50 4 50 -5z m4180 0 c0 -2 -17 -4 -37 -4 -24 0 -33 3 -25 9
12 7 62 4 62 -5z m-4221 -17 c-2 -1 -12 -9 -21 -16 -15 -12 -18 -11 -18 3 0
10 8 16 22 16 12 0 19 -1 17 -3z m4081 -22 c0 -17 -7 -29 -22 -35 -18 -7 -19
-9 -5 -9 14 -1 16 -6 11 -28 -9 -35 -6 -33 -32 -26 -23 6 -31 46 -12 58 6 4 8
11 5 16 -13 19 6 49 31 49 19 0 24 -5 24 -25z m123 5 c7 0 6 4 -3 10 -11 7 -8
10 15 10 28 -1 29 -2 12 -15 -22 -16 -141 -20 -131 -4 3 6 17 8 31 4 16 -4 22
-2 18 5 -4 7 2 7 20 0 15 -6 32 -10 38 -10z m-4168 0 c-3 -5 -16 -10 -28 -10
-18 0 -19 2 -7 10 20 13 43 13 35 0z m65 0 c0 -5 -12 -10 -26 -10 -14 0 -23 4
-19 10 3 6 15 10 26 10 10 0 19 -4 19 -10z m-57 -27 c-13 -2 -33 -2 -45 0 -13
2 -3 4 22 4 25 0 35 -2 23 -4z m4150 0 c-13 -2 -33 -2 -45 0 -13 2 -3 4 22 4
25 0 35 -2 23 -4z m-4193 -22 c0 -5 -7 -11 -15 -15 -9 -3 -15 0 -15 9 0 8 7
15 15 15 8 0 15 -4 15 -9z m4218 -8 c-3 -13 -12 -17 -33 -15 -17 2 -34 8 -40
14 -9 10 3 8 55 -10 9 -3 6 2 -5 11 -20 16 -20 16 3 17 17 0 22 -5 20 -17z
m-4173 -2 c-6 -5 -21 -12 -35 -15 l-25 -7 25 15 c28 17 50 21 35 7z m65 0 c0
-12 -29 -23 -42 -15 -6 4 -5 10 3 15 18 11 39 11 39 0z m4010 -1 c12 -8 9 -10
-12 -10 -16 0 -28 5 -28 10 0 13 20 13 40 0z m-4065 -30 c-3 -5 -21 -10 -38
-11 -29 0 -30 -1 -10 -9 12 -5 42 -7 67 -5 48 5 63 -8 24 -21 -13 -4 -24 -2
-26 4 -2 8 -11 8 -28 1 -32 -12 -37 -11 -28 2 4 8 0 9 -15 4 -30 -9 -28 23 2
35 30 12 60 12 52 0z m4129 0 c17 -6 26 -17 26 -32 0 -17 -3 -19 -12 -10 -15
15 -32 16 -23 2 8 -12 3 -13 -29 0 -14 5 -28 5 -31 1 -6 -11 -45 -2 -45 10 0
5 21 7 48 5 26 -2 56 0 67 5 16 6 14 8 -12 8 -17 1 -35 6 -38 11 -8 13 16 13
49 0z m-3659 -80 c13 -36 33 -87 45 -115 15 -34 18 -51 10 -53 -7 -3 -65 -31
-131 -63 -65 -32 -121 -54 -124 -49 -14 23 -95 246 -95 261 0 12 14 20 49 29
27 6 82 22 123 35 40 14 79 23 87 22 8 -1 24 -31 36 -67z m3298 35 c67 -20
127 -37 134 -40 12 -4 -24 -119 -76 -237 l-20 -47 -131 61 c-72 34 -129 64
-128 67 2 4 23 57 47 119 24 61 46 112 48 112 2 0 59 -16 126 -35z m222 14
c11 -17 -7 -57 -23 -54 -9 1 -11 0 -4 -2 13 -5 16 -32 4 -50 -7 -11 -52 -8
-52 3 0 3 7 31 16 63 14 49 20 58 35 54 11 -3 22 -9 24 -14z m-3980 -29 c4 -6
-7 -10 -27 -9 -31 1 -32 1 -8 9 14 4 26 8 27 9 1 1 5 -3 8 -9z m4115 -6 c0 -2
-14 -4 -31 -4 -16 0 -28 4 -25 9 5 8 56 3 56 -5z m-3970 -18 c0 -8 3 -21 6
-29 3 -10 -2 -17 -13 -20 -14 -4 -14 -5 5 -6 12 0 23 -8 24 -16 0 -8 1 -20 2
-26 1 -7 -9 -15 -21 -20 -20 -7 -24 -4 -29 19 -3 15 -12 42 -20 60 -13 31 -13
33 9 42 31 12 37 12 37 -4z m-171 1 c-2 -1 -12 -9 -21 -16 -15 -12 -18 -11
-18 3 0 10 8 16 22 16 12 0 19 -1 17 -3z m101 -7 c0 -13 -44 -20 -51 -9 -5 8
-13 8 -27 0 -11 -6 -24 -11 -29 -11 -4 1 2 6 15 13 25 14 92 19 92 7z m3950 0
c8 -5 12 -11 9 -14 -7 -8 -49 5 -49 15 0 12 21 11 40 -1z m103 -6 c-4 -11 -9
-12 -16 -5 -6 6 -16 11 -21 11 -6 0 -4 -5 4 -10 13 -9 13 -10 -1 -10 -8 0 -23
6 -32 13 -15 10 -11 12 28 15 37 2 43 -1 38 -14z m-4207 -29 c1 -13 34 -88 74
-169 67 -137 74 -146 100 -146 24 0 28 -4 25 -22 -4 -17 -2 -19 8 -9 6 6 12
17 12 24 0 8 34 14 105 19 58 4 121 9 141 12 31 5 37 3 47 -20 7 -14 16 -23
20 -20 5 3 8 -9 7 -27 -1 -22 -24 -66 -77 -144 -42 -61 -79 -110 -82 -107 -3
2 -4 1 -1 -3 3 -3 -2 -17 -10 -30 -15 -22 -14 -26 11 -68 22 -38 29 -43 44
-35 22 12 35 30 23 30 -5 0 -15 -6 -23 -12 -8 -7 -4 -1 9 14 14 16 27 26 29
23 3 -3 14 2 24 12 10 9 21 13 26 9 10 -10 -29 -38 -45 -32 -7 3 -13 1 -13 -4
0 -6 8 -10 17 -10 15 0 14 -2 -3 -15 -10 -8 -15 -15 -10 -15 5 0 3 -7 -4 -15
-10 -13 -15 -13 -21 -3 -4 7 -11 9 -14 6 -4 -4 26 -54 66 -112 40 -58 70 -109
66 -112 -10 -10 -147 132 -199 206 -89 128 -88 106 -12 199 39 47 71 78 78 74
6 -3 8 -3 4 2 -4 4 7 28 24 52 l32 44 -19 34 c-12 23 -25 35 -40 35 -11 0 -27
6 -34 13 -10 10 -12 9 -9 -3 2 -11 -20 -18 -92 -31 -52 -10 -111 -21 -131 -24
l-36 -7 -42 86 c-71 145 -120 323 -89 323 7 0 14 -10 14 -22z m4251 8 c-3 -10
-11 -43 -18 -73 -23 -102 -108 -296 -134 -307 -19 -7 -216 28 -210 37 2 3 -10
4 -27 2 -24 -4 -29 -2 -23 9 7 12 6 12 -7 1 -9 -7 -20 -12 -24 -11 -22 4 -32
-3 -49 -35 -14 -25 -16 -38 -8 -48 6 -7 9 -21 8 -31 -2 -9 1 -15 6 -11 5 3 7
11 3 17 -3 7 4 1 15 -13 12 -14 27 -32 33 -40 7 -8 24 -27 36 -42 13 -15 25
-36 26 -45 2 -10 9 -18 16 -18 7 0 22 -12 33 -27 l21 -28 -57 -83 c-84 -125
-206 -252 -223 -234 -2 2 20 37 49 78 65 92 147 220 147 231 0 4 -9 22 -19 40
-20 32 -19 54 1 42 7 -4 8 -2 4 5 -6 9 -11 9 -22 0 -11 -9 -16 -7 -23 12 -5
13 -6 28 -3 33 3 5 0 6 -6 3 -6 -4 -34 29 -66 76 l-56 84 22 42 23 43 70 -6
c266 -23 317 -19 286 18 -6 7 -8 16 -4 19 3 4 -3 7 -15 7 -11 0 -24 5 -27 10
-8 13 7 13 42 -1 20 -7 24 -12 14 -18 -10 -6 -10 -10 -2 -16 8 -4 36 45 84
144 39 83 76 151 80 151 5 0 6 -8 4 -17z m-4152 -3 c4 -6 -7 -10 -27 -9 -31 1
-32 1 -8 9 14 4 26 8 27 9 1 1 5 -3 8 -9z m4060 0 c17 -7 14 -9 -13 -9 -20 -1
-31 3 -27 9 7 12 13 12 40 0z m-4057 -37 c-6 -7 -18 -14 -27 -14 -9 -1 0 -5
19 -9 l35 -7 -31 -2 c-37 -1 -48 7 -33 26 8 9 8 13 1 13 -6 0 -14 -5 -17 -10
-7 -12 -25 -4 -25 11 0 5 20 8 44 7 34 -2 42 -6 34 -15z m72 8 c0 -10 -42 -23
-49 -15 -7 6 20 24 37 24 6 0 12 -4 12 -9z m3917 -7 c2 -7 -6 -10 -22 -7 -14
3 -25 10 -25 15 0 13 43 6 47 -8z m103 6 c0 -14 -18 -21 -25 -10 -3 5 -11 10
-16 10 -6 0 -7 -4 -4 -10 9 -14 -8 -12 -29 3 -15 11 -11 13 28 15 25 1 46 -3
46 -8z m-175 -10 c3 -5 3 -20 0 -33 -5 -18 -12 -23 -26 -20 -25 7 -32 19 -24
43 7 21 39 27 50 10z m123 -27 c-10 -2 -26 -2 -35 0 -10 3 -2 5 17 5 19 0 27
-2 18 -5z m-3948 -24 c0 -5 -12 -9 -27 -9 -27 1 -27 1 -9 15 19 14 36 12 36
-6z m3880 -4 c0 -3 -11 -5 -25 -5 -17 0 -23 4 -19 15 5 11 11 12 25 4 10 -5
19 -12 19 -14z m-3985 5 c-8 -13 1 -13 28 2 19 10 20 9 9 -4 -14 -18 -56 -32
-46 -16 3 5 -2 8 -11 6 -10 -2 -20 3 -22 10 -3 7 5 12 22 12 15 0 24 -4 20
-10z m175 -1 c0 -6 6 -25 14 -42 47 -105 54 -126 43 -131 -7 -2 -4 -5 6 -5 26
-1 20 -18 -9 -24 -18 -3 -24 -1 -20 9 3 8 -1 14 -8 14 -22 0 -28 42 -8 56 15
12 15 12 -6 7 -18 -4 -25 1 -36 29 -27 65 -29 86 -9 91 30 8 33 7 33 -4z
m3887 -19 c4 0 -1 7 -11 15 -19 14 -19 15 7 15 30 0 35 -11 13 -29 -11 -10
-21 -9 -45 4 -17 8 -31 18 -31 21 0 2 13 -2 30 -11 16 -8 33 -15 37 -15z
m-148 4 c2 -2 -1 -15 -7 -29 -8 -17 -17 -23 -29 -18 -17 5 -17 5 -1 -8 12 -10
14 -20 7 -36 -9 -24 -25 -29 -48 -14 -13 8 -13 14 -1 38 7 15 14 30 15 33 10
41 18 50 38 44 12 -3 24 -8 26 -10z m-3865 -13 c3 -5 -8 -11 -24 -13 -17 -3
-30 -3 -30 -1 0 3 28 16 47 22 1 1 4 -3 7 -8z m3976 -1 c12 -8 9 -10 -13 -10
-16 0 -26 4 -22 10 8 12 16 12 35 0z m-3901 -34 c-12 -10 -49 -16 -49 -7 0 16
34 31 44 21 5 -6 8 -11 5 -14z m3841 -5 c0 -5 -11 -6 -25 -3 -25 4 -31 13 -19
25 8 8 44 -10 44 -22z m-3920 -3 c-24 -21 -24 -21 -3 -15 13 3 26 1 29 -4 11
-18 -44 -8 -67 12 l-24 20 25 -5 c14 -3 32 -1 40 4 26 17 26 10 0 -12z m506
-30 c15 -29 42 -77 60 -106 19 -29 34 -54 34 -57 0 -3 -197 -141 -226 -158
-25 -15 -21 22 8 67 26 39 33 44 46 34 13 -11 14 -8 8 27 l-8 40 21 -19 c12
-11 23 -17 26 -14 3 3 -21 27 -53 55 -49 43 -61 49 -82 41 -39 -14 -114 -6
-118 14 -2 10 5 19 18 23 12 4 67 29 123 56 56 26 105 48 109 49 4 0 20 -24
34 -52z m3100 -8 c69 -33 124 -65 122 -71 -2 -6 -7 -10 -11 -10 -4 1 -29 1
-57 1 -43 0 -55 5 -90 37 -24 21 -44 32 -49 27 -10 -10 -51 -120 -51 -135 0
-6 5 -7 10 -4 6 3 10 12 10 20 0 7 9 35 20 61 l21 48 26 -27 27 -26 -27 -25
c-36 -34 -34 -65 9 -130 26 -39 33 -59 27 -70 -8 -14 -28 -4 -126 64 -64 45
-117 83 -117 86 0 3 13 24 29 47 15 23 43 70 60 105 17 34 34 62 37 62 3 0 61
-27 130 -60z m382 47 c13 3 22 1 22 -6 0 -6 -7 -8 -17 -4 -10 4 -14 2 -10 -4
11 -17 -30 -3 -45 15 -11 13 -10 14 8 4 11 -6 30 -8 42 -5z m-18 -33 c0 -2
-12 -4 -26 -4 -14 0 -23 4 -20 9 6 8 46 4 46 -5z m-3870 -19 c0 -10 -10 -15
-27 -15 -27 1 -27 1 -9 15 25 19 36 19 36 0z m3786 0 c18 -15 18 -15 -5 -13
-14 2 -26 9 -29 16 -5 17 10 15 34 -3z m-3846 -6 c0 -3 -12 -11 -27 -18 -24
-11 -25 -11 -12 5 13 15 12 16 -11 10 -17 -5 -21 -4 -11 2 14 10 61 11 61 1z
m3937 -2 c3 -4 1 -7 -6 -7 -7 0 -10 -4 -6 -10 3 -5 -7 -5 -25 1 -16 6 -30 14
-30 18 0 9 57 7 67 -2z m-159 -22 c1 -1 -3 -14 -9 -28 -10 -22 -15 -25 -32
-16 -14 8 -18 8 -13 0 4 -6 0 -11 -9 -11 -14 0 -14 4 0 36 8 20 15 38 15 41 0
3 38 -14 48 -22z m-3758 -4 c-8 -5 -28 -11 -45 -15 l-30 -6 25 15 c14 8 34 14
45 14 16 0 17 -1 5 -8z m54 -34 c-9 -5 -24 -7 -33 -4 -10 2 -26 0 -35 -5 -10
-6 -22 -5 -33 2 -17 11 -17 11 0 6 10 -3 28 0 39 8 11 8 26 12 33 10 7 -3 16
0 20 6 6 9 10 9 16 -1 5 -9 2 -17 -7 -22z m3753 16 c3 3 18 0 34 -9 31 -16 40
-31 12 -19 -10 4 -29 8 -43 10 -14 1 -30 3 -37 3 -7 1 -10 9 -7 17 5 12 9 13
20 4 8 -7 17 -9 21 -6z m-3784 -40 c-7 -2 -19 -2 -25 0 -7 3 -2 5 12 5 14 0
19 -2 13 -5z m3814 1 c-3 -3 -12 -4 -19 -1 -8 3 -5 6 6 6 11 1 17 -2 13 -5z
m-3567 -111 c0 -26 -19 -21 -39 10 -11 17 -21 28 -21 22 1 -5 7 -19 15 -29 13
-17 10 -24 -35 -78 -28 -33 -47 -65 -43 -70 3 -6 2 -8 -4 -5 -6 4 -30 -16 -53
-44 -36 -43 -44 -49 -52 -35 -7 13 6 33 58 92 62 68 66 77 56 99 -12 26 -26
29 -77 14 -23 -6 -20 -7 17 -3 40 4 47 2 53 -15 5 -16 -8 -37 -56 -91 -71 -79
-67 -79 -118 13 -35 62 -37 59 34 77 l40 10 -40 -5 c-22 -3 -49 -6 -60 -8 -11
-1 -21 5 -23 15 -3 14 7 18 47 24 28 4 56 13 62 20 6 8 17 14 23 14 6 0 4 -5
-4 -10 -12 -8 -11 -10 6 -10 12 0 24 7 28 15 3 8 13 15 23 14 16 0 16 -2 -2
-10 -13 -6 -4 -7 30 -3 28 4 61 12 75 20 22 11 27 10 42 -9 10 -12 18 -27 18
-34z m3350 49 c0 -6 -19 -38 -36 -61 -1 -1 -7 0 -13 4 -15 9 15 65 34 65 8 0
15 -3 15 -8z m-3447 -9 c-7 -2 -19 -2 -25 0 -7 3 -2 5 12 5 14 0 19 -2 13 -5z
m3517 -4 c-11 -8 -5 -9 25 -4 29 4 36 3 25 -4 -12 -9 -11 -11 8 -11 12 0 22 5
22 11 0 5 5 7 10 4 6 -4 7 -11 4 -17 -4 -7 6 -9 30 -6 20 2 36 0 36 -4 0 -4 9
-8 19 -8 31 0 50 -11 45 -25 -4 -9 -18 -12 -42 -9 l-37 4 32 -10 32 -10 -40
-68 c-21 -37 -43 -67 -47 -67 -5 0 -36 31 -69 69 -53 59 -60 71 -50 87 9 15
20 18 47 14 29 -4 31 -3 10 4 -39 14 -47 13 -63 -13 -16 -23 -14 -26 52 -102
64 -74 77 -104 45 -104 -8 0 -14 3 -14 8 -1 4 -20 27 -43 52 -23 25 -35 37
-27 25 15 -20 15 -20 -7 -1 -13 10 -20 23 -17 28 8 13 -36 59 -49 51 -6 -4 -7
-1 -3 6 5 7 1 20 -8 30 -25 27 -3 69 38 74 17 2 36 4 41 5 6 1 3 -3 -5 -9z
m-3108 -37 c14 -20 50 -64 78 -97 l53 -59 -103 -99 -103 -98 -25 23 c-36 34
-162 191 -162 203 1 9 217 164 230 164 3 0 17 -16 32 -37z m2814 -39 c62 -43
113 -82 114 -88 0 -11 -73 -107 -137 -179 l-42 -48 -38 30 c-21 17 -68 61
-105 99 l-67 68 75 89 c40 49 74 93 74 98 0 15 10 9 126 -69z m-3389 51 c-3
-3 -12 -4 -19 -1 -8 3 -5 6 6 6 11 1 17 -2 13 -5z m223 -65 c-7 -11 -14 -18
-17 -15 -3 3 0 12 7 21 18 21 23 19 10 -6z m60 -95 c-13 -15 -40 -19 -40 -6 0
4 7 18 16 31 15 21 18 22 26 7 6 -11 6 -22 -2 -32z m3280 25 c12 -21 7 -49 -7
-49 -4 0 -16 7 -26 14 -16 12 -16 17 -5 35 16 26 24 26 38 0z m-3230 -64 c0
-6 -9 -16 -20 -22 -16 -11 -21 -9 -35 10 -15 20 -14 23 6 40 21 17 22 17 35 0
7 -10 14 -23 14 -28z m3214 7 c2 -4 -4 -17 -14 -29 -16 -21 -19 -21 -41 -6
l-24 17 19 -22 c16 -19 17 -24 5 -39 -7 -10 -15 -20 -16 -22 -2 -2 -12 4 -22
13 -19 18 -19 19 16 67 29 41 38 47 53 39 11 -6 21 -13 24 -18z m53 -8 c-9 -9
-28 6 -21 18 4 6 10 6 17 -1 6 -6 8 -13 4 -17z m-3362 6 c-3 -5 -11 -10 -16
-10 -6 0 -7 5 -4 10 3 6 11 10 16 10 6 0 7 -4 4 -10z m570 -72 c59 -50 91 -86
86 -92 -4 -6 -42 -57 -85 -113 -42 -57 -79 -103 -81 -103 -6 0 -148 123 -187
161 -16 15 -28 31 -28 36 0 7 190 191 198 193 2 0 46 -37 97 -82z m2396 -10
c54 -51 99 -98 99 -104 0 -11 -173 -169 -205 -186 -11 -6 -35 19 -99 104 l-86
113 53 45 c28 25 70 62 92 82 22 21 41 38 43 38 2 0 48 -42 103 -92z m-2840
41 c9 -17 8 -25 -5 -37 -15 -15 -18 -14 -39 6 -22 23 -22 23 -3 38 26 19 33
18 47 -7z m3383 5 c3 -8 2 -12 -4 -9 -6 3 -10 10 -10 16 0 14 7 11 14 -7z
m-3672 -16 c-7 -7 -12 -8 -12 -2 0 14 12 26 19 19 2 -3 -1 -11 -7 -17z m202
13 c3 -4 -6 -13 -19 -19 -27 -12 -33 -4 -13 16 14 14 25 15 32 3z m3294 -3
c19 -19 14 -30 -8 -18 -11 6 -20 15 -20 20 0 14 14 12 28 -2z m-3354 -23 c-4
-10 0 -15 12 -15 18 -1 18 -1 2 -14 -10 -7 -15 -15 -13 -18 3 -3 -1 -11 -10
-18 -10 -8 -15 -9 -15 -1 0 6 6 11 13 12 9 0 9 2 -1 6 -10 4 -10 8 -1 19 14
17 -2 19 -21 2 -8 -7 -4 -1 9 15 28 31 33 33 25 12z m3401 5 c4 -6 10 -8 15
-5 15 9 20 -11 6 -30 -12 -16 -15 -16 -42 -2 -22 12 -24 16 -10 17 12 0 16 5
12 15 -6 17 9 21 19 5z m-3191 -56 c37 -44 37 -46 20 -65 -16 -18 -18 -18 -36
-3 -22 21 -23 40 -2 48 9 4 14 9 11 13 -4 3 -13 0 -22 -7 -13 -11 -19 -10 -35
5 -19 17 -19 19 -4 37 10 10 20 18 23 18 4 0 24 -21 45 -46z m3022 22 c19 -15
19 -15 -3 -38 -21 -20 -24 -21 -39 -6 -13 13 -14 19 -2 37 15 25 18 25 44 7z
m92 -6 c7 -11 10 -20 6 -20 -13 0 -44 21 -44 30 0 17 25 11 38 -10z m55 -16
c4 -1 12 -2 17 -3 6 0 10 -6 10 -12 0 -8 -5 -7 -15 1 -14 12 -15 10 -11 -13 6
-32 0 -33 -39 -7 -20 14 -25 20 -13 20 9 0 20 -4 23 -10 3 -5 11 -10 17 -10 6
0 4 8 -5 18 -20 22 -22 37 -4 25 6 -4 15 -8 20 -9z m-3257 -40 c-30 -22 -38
-17 -20 12 13 18 20 22 28 14 8 -8 6 -15 -8 -26z m3164 5 c12 -22 3 -24 -24
-4 -10 7 -15 19 -11 24 8 14 22 6 35 -20z m-96 3 c15 -18 15 -20 -4 -37 -17
-15 -22 -16 -37 -4 -10 7 -20 15 -22 16 -6 4 30 43 39 43 4 0 14 -8 24 -18z
m146 -18 c0 4 9 2 21 -4 11 -7 18 -14 15 -17 -3 -3 -12 0 -21 7 -18 15 -20 0
-2 -20 6 -8 1 -6 -11 5 -13 11 -29 29 -34 40 -11 20 -11 20 11 1 11 -11 21
-16 21 -12z m-3285 -22 l-28 -27 24 31 c13 17 26 30 28 27 3 -2 -8 -16 -24
-31z m823 -86 c17 -9 32 -21 32 -27 0 -8 -114 -233 -126 -248 -4 -5 -136 73
-199 117 -27 20 -51 37 -53 38 -2 1 35 54 83 118 l87 115 71 -48 c40 -27 87
-56 105 -65z m1897 -2 c48 -64 83 -119 79 -123 -75 -55 -243 -156 -248 -149
-12 15 -126 239 -126 246 0 5 35 30 78 54 42 25 88 55 102 66 14 12 26 21 26
22 1 0 41 -52 89 -116z m-2595 86 c0 -10 -31 -23 -38 -15 -8 7 19 35 29 29 5
-3 9 -9 9 -14z m104 1 c17 -18 17 -20 -2 -39 -20 -20 -20 -20 -41 2 -20 21
-20 23 -4 39 22 21 26 21 47 -2z m2967 -13 c9 -16 8 -19 -3 -13 -28 16 -38 28
-32 36 7 12 21 3 35 -23z m-3151 12 c-8 -5 -15 -13 -16 -17 -2 -21 -17 -42
-26 -37 -5 3 -1 13 9 21 17 14 17 14 -1 8 -19 -6 -19 -5 -1 15 10 11 25 20 34
20 14 0 14 -2 1 -10z m3045 -5 c19 -15 19 -16 -2 -37 -18 -18 -24 -19 -37 -8
-19 15 -20 32 -4 48 15 15 18 15 43 -3z m177 -2 c13 -16 14 -23 9 -50 0 -4 -8
2 -17 13 -15 18 -15 18 -10 0 6 -16 4 -17 -9 -6 -9 7 -21 23 -27 34 -11 21
-10 21 10 3 12 -11 22 -14 26 -8 4 5 -2 14 -11 20 -15 9 -16 10 -2 11 9 0 23
-8 31 -17z m-3201 -11 c-5 -10 -18 -25 -28 -33 -12 -10 -11 -5 6 19 24 35 38
43 22 14z m3085 -50 c-10 -10 -39 25 -31 38 5 8 12 5 22 -10 8 -12 12 -24 9
-28z m-2986 29 c0 -13 -29 -35 -37 -28 -7 8 15 37 28 37 5 0 9 -4 9 -9z m114
-9 c15 -18 15 -20 -4 -37 -19 -17 -21 -17 -40 0 -19 17 -19 19 -4 37 10 10 20
18 24 18 4 0 14 -8 24 -18z m-193 -1 c-8 -5 -16 -20 -18 -33 -3 -22 -2 -21 21
7 14 17 25 25 26 19 0 -15 -42 -50 -60 -50 -33 2 -5 66 29 66 13 0 14 -2 2 -9z
m2959 -6 c10 -13 10 -19 -5 -35 -23 -25 -32 -25 -45 1 -20 37 23 66 50 34z
m182 -2 c18 -23 17 -48 -2 -49 -19 0 -38 14 -52 40 -11 20 -10 20 9 3 22 -19
39 -12 22 10 -7 7 -7 13 -2 13 6 0 17 -8 25 -17z m-3017 -22 c3 -5 -5 -17 -17
-25 -14 -10 -24 -12 -26 -6 -2 6 -13 -1 -24 -15 -11 -14 -23 -23 -28 -20 -5 3
-10 0 -12 -7 -2 -6 -10 -8 -16 -4 -18 11 -15 26 6 27 11 0 12 2 4 6 -17 7 14
43 37 43 12 0 11 -4 -6 -18 -15 -11 -20 -22 -14 -30 6 -10 12 -7 25 13 9 14
21 23 27 20 5 -4 12 1 15 9 7 18 20 21 29 7z m2893 -12 c7 -12 12 -23 10 -25
-8 -7 -48 28 -43 37 9 14 19 11 33 -12z m-2779 -3 c9 -11 10 -20 1 -35 -13
-26 -22 -26 -45 -1 -15 16 -15 22 -5 35 16 19 34 19 49 1z m2666 -46 l-19 -21
-20 20 c-19 20 -19 21 -1 41 l19 21 20 -20 c19 -20 19 -21 1 -41z m191 39 c19
-22 19 -22 -3 -10 -24 12 -39 31 -25 31 5 0 17 -10 28 -21z m-25 -32 c12 -22
12 -22 -10 -3 -11 11 -21 23 -21 28 0 14 19 -1 31 -25z m-2915 -13 c-25 -18
-31 -12 -16 16 9 17 15 19 23 10 9 -9 7 -15 -7 -26z m2824 -6 c0 -5 -9 -4 -20
2 -21 11 -25 22 -13 34 8 7 33 -21 33 -36z m-2653 -16 c31 -26 32 -29 17 -50
-15 -21 -16 -21 -38 -5 -22 17 -22 19 -8 43 l16 25 -22 -19 c-21 -18 -23 -19
-42 -1 -19 17 -19 20 -4 36 19 21 29 17 81 -29z m579 2 c60 -26 110 -48 112
-49 4 -3 -39 -129 -47 -138 -4 -4 -15 -5 -25 -1 -12 5 -16 16 -14 38 l3 31
-75 -3 c-41 -2 -79 -7 -84 -12 -7 -7 31 -37 69 -54 6 -3 -7 -21 -29 -40 l-38
-35 -59 30 c-33 16 -59 32 -59 35 0 12 125 244 131 244 4 0 55 -21 115 -46z
m1483 -75 l64 -122 -24 -17 c-13 -10 -40 -24 -61 -31 -37 -12 -40 -11 -74 22
l-35 34 33 8 c33 9 78 43 78 59 0 4 -9 8 -20 8 -15 0 -20 7 -20 27 0 20 -3 24
-11 16 -12 -12 -3 -53 12 -53 19 0 8 -20 -20 -35 -29 -15 -30 -14 -33 12 -2
14 -9 28 -16 31 -11 3 -12 0 -3 -16 17 -32 14 -35 -30 -28 -27 4 -38 3 -34 -4
8 -12 -45 -34 -56 -23 -8 9 -51 135 -47 139 2 1 39 16 82 34 44 17 91 37 105
45 14 8 31 14 36 15 6 0 39 -55 74 -121z m731 100 c0 -18 -20 -18 -29 0 -9 16
-8 18 9 14 11 -3 20 -9 20 -14z m-3030 1 c-8 -6 -24 -16 -35 -22 -20 -11 -20
-11 -1 11 11 11 26 21 35 21 14 0 14 -2 1 -10z m2770 -5 c10 -13 10 -19 -5
-35 -23 -25 -32 -25 -46 2 -10 18 -8 24 7 35 23 17 29 16 44 -2z m195 -5 c18
-20 18 -21 0 -14 -13 5 -16 4 -11 -4 4 -7 14 -12 23 -12 13 0 13 -3 3 -15 -11
-13 -15 -13 -21 -3 -7 10 -9 10 -9 -1 0 -8 -11 0 -25 19 -32 44 -32 54 1 15
20 -24 24 -26 21 -10 -1 11 -6 26 -10 33 -13 20 8 14 28 -8z m-2951 -27 c-18
-28 -18 -28 2 -10 26 22 41 22 23 1 -8 -9 -14 -22 -15 -28 -4 -41 -4 -40 -16
-28 -10 10 -10 15 2 22 13 9 13 10 0 11 -8 1 -18 1 -22 0 -4 0 -5 7 -2 17 5
15 4 15 -9 -1 -11 -13 -17 -15 -22 -6 -8 13 14 31 31 25 6 -2 16 5 23 16 7 11
15 18 17 15 3 -3 -2 -18 -12 -34z m111 8 c7 -12 -31 -34 -44 -27 -4 3 -13 -6
-19 -19 l-12 -25 28 17 c26 17 26 17 13 -1 -8 -9 -15 -26 -16 -37 -2 -24 -11
-33 -25 -24 -8 5 -5 11 7 21 15 11 15 14 3 15 -8 1 -19 1 -24 0 -4 -1 0 13 11
31 10 18 23 31 27 28 4 -3 12 3 17 13 11 19 25 22 34 8z m2715 -11 c6 -11 7
-20 2 -20 -10 0 -32 21 -32 32 0 16 19 8 30 -12z m-110 -29 c0 -3 -9 -12 -21
-19 -18 -11 -24 -11 -41 5 -20 18 -21 18 -8 -4 11 -18 12 -24 1 -37 -18 -21
-38 -20 -51 3 -8 16 -3 24 38 54 43 33 48 34 65 20 9 -9 17 -19 17 -22z m185
19 c13 -14 14 -20 5 -20 -9 0 -8 -5 4 -13 17 -12 17 -14 2 -20 -9 -4 -16 -1
-16 6 0 7 -5 4 -11 -5 -5 -10 -17 -15 -27 -12 -16 5 -16 5 1 -9 15 -13 15 -16
2 -27 -12 -10 -15 -9 -17 6 0 11 -2 24 -2 30 -1 6 -8 20 -16 30 -13 16 -13 17
0 9 8 -4 23 -15 33 -23 9 -8 17 -10 17 -5 0 6 -7 16 -15 23 -8 7 -15 18 -15
24 0 6 9 0 19 -13 14 -18 20 -20 23 -10 3 8 -1 22 -10 32 -21 24 1 22 23 -3z
m-2755 -35 c-20 -24 -31 -18 -18 10 8 17 15 22 21 16 7 -7 6 -15 -3 -26z
m2634 -14 c-9 -10 -36 28 -29 39 6 9 12 6 21 -11 7 -13 10 -26 8 -28z m-2490
16 c16 -12 17 -16 5 -35 -17 -27 -21 -27 -44 -2 -15 16 -15 22 -5 35 15 18 21
19 44 2z m771 -28 c50 -12 96 -23 104 -25 10 -3 12 -14 7 -37 -4 -17 -14 -79
-22 -137 -9 -58 -18 -107 -20 -109 -4 -4 -135 23 -198 40 -33 9 -34 10 -41 83
-5 63 -3 86 16 146 20 62 26 70 44 66 11 -3 61 -15 110 -27z m938 -51 c22 -71
25 -91 18 -141 -4 -33 -14 -62 -20 -67 -17 -10 -220 -54 -225 -49 -5 5 -39
224 -40 258 -1 22 6 25 103 47 57 13 106 26 109 29 17 16 31 -4 55 -77z
m-1903 42 c-11 -21 -11 -21 17 -4 l28 18 -24 -27 c-14 -15 -20 -27 -14 -27 6
0 9 -9 6 -20 -5 -17 -8 -18 -20 -8 -9 7 -11 14 -5 16 6 2 8 10 5 18 -3 7 -9
11 -15 8 -5 -3 -2 8 7 26 9 17 19 30 22 27 2 -3 -1 -15 -7 -27z m97 -7 c-21
-22 -32 -11 -17 17 9 16 15 19 23 11 8 -8 7 -16 -6 -28z m2543 -5 c0 -13 -17
-9 -30 7 -6 8 -8 20 -4 26 5 9 11 7 21 -6 7 -11 13 -22 13 -27z m96 -13 c-2
-5 -12 -9 -22 -7 -18 2 -18 2 -1 -11 15 -13 15 -16 2 -27 -12 -10 -15 -9 -17
6 0 11 -2 24 -2 30 -1 6 -8 20 -16 30 -15 18 -14 18 13 1 15 -10 27 -13 27 -8
0 5 -4 13 -10 16 -5 3 -10 12 -10 18 0 7 9 1 20 -13 11 -14 18 -29 16 -35z
m-2461 8 c48 -29 53 -39 33 -66 -12 -15 -15 -15 -38 3 -20 15 -23 21 -12 31 6
7 12 18 12 23 0 6 -7 0 -15 -12 -15 -21 -17 -21 -40 -6 -20 13 -23 20 -14 35
13 25 20 24 74 -8z m2224 5 c12 -19 11 -23 -5 -35 -21 -16 -34 -13 -48 10 -8
13 -6 20 9 31 26 20 28 20 44 -6z m-2449 -28 c-11 -21 -11 -21 17 -4 l28 18
-23 -26 c-13 -14 -19 -27 -13 -29 7 -3 7 -9 1 -19 -7 -12 -12 -12 -22 -2 -9 9
-9 12 0 12 6 0 9 7 6 15 -4 8 -10 12 -16 9 -5 -3 -2 8 7 26 9 17 19 30 22 27
2 -3 -1 -15 -7 -27z m96 -6 c-25 -18 -31 -12 -16 16 9 17 15 19 23 10 9 -9 7
-15 -7 -26z m2444 -2 c0 -13 -3 -12 -20 3 -11 10 -17 22 -14 27 8 12 34 -11
34 -30z m-1339 11 l99 -6 0 -144 0 -143 -26 0 c-32 0 -268 21 -272 24 -1 2 8
67 20 145 l22 143 29 -6 c17 -3 74 -9 128 -13z m387 -125 c12 -78 21 -143 19
-144 -3 -3 -232 -24 -269 -24 l-28 0 0 145 0 145 58 1 c31 1 82 4 112 9 30 4
62 8 71 9 12 1 20 -27 37 -141z m1052 99 c0 -4 -4 -5 -10 -2 -5 3 -10 1 -10
-5 0 -6 -6 -8 -12 -5 -7 4 -5 0 5 -8 12 -10 15 -17 7 -22 -14 -9 -23 0 -25 24
-1 11 -8 28 -16 37 -14 18 -13 18 14 0 l29 -18 -7 24 c-6 22 -6 22 9 4 9 -11
16 -24 16 -29z m-250 12 c9 -17 8 -23 -7 -35 -24 -18 -26 -18 -42 8 -12 19
-11 23 5 35 24 18 31 17 44 -8z m-1720 -10 c0 -15 -4 -19 -19 -14 -11 3 -22 1
-25 -4 -4 -6 -18 -3 -36 7 -25 14 -27 18 -12 24 9 4 34 7 55 7 31 1 37 -2 37
-20z m-510 3 c0 -5 -9 -17 -20 -27 -22 -20 -26 -14 -10 16 11 19 30 26 30 11z
m2320 -1 c0 -5 3 -18 7 -28 6 -17 5 -17 -15 1 -26 22 -28 36 -7 36 8 0 15 -4
15 -9z m-2166 -14 c15 -11 17 -17 7 -35 -14 -25 -19 -26 -44 -8 -15 12 -16 18
-7 35 13 25 20 26 44 8z m2026 -28 c0 -4 -10 -15 -22 -23 -21 -15 -23 -14 -35
7 -10 19 -9 24 10 39 20 16 23 16 35 1 6 -9 12 -20 12 -24z m-2140 -14 c-7 -8
-9 -15 -6 -15 4 0 1 -10 -6 -22 -7 -13 -13 -27 -14 -33 0 -5 -2 -16 -2 -22 -1
-7 -7 -13 -12 -13 -6 0 -10 6 -9 13 3 25 -1 38 -11 32 -5 -3 -5 7 1 25 14 37
24 40 14 3 -6 -27 -6 -27 14 -8 12 10 17 21 12 24 -5 4 -5 16 1 30 6 18 12 21
20 13 8 -8 8 -15 -2 -27z m1929 -110 c57 -55 110 -99 118 -97 7 2 84 34 170
73 147 65 191 78 147 44 -85 -67 -205 -138 -297 -175 l-58 -23 -17 24 c-9 13
-32 40 -50 61 -36 39 -27 64 11 31 l22 -18 -19 23 c-12 13 -26 20 -36 17 -16
-5 -48 20 -49 40 -1 6 -5 10 -9 10 -5 0 -20 13 -34 30 -25 28 -26 29 -67 15
-29 -9 -41 -19 -41 -32 0 -12 -4 -17 -12 -12 -10 6 -10 4 0 -7 6 -7 12 -21 12
-32 0 -12 -4 -16 -12 -11 -10 6 -10 5 -1 -7 17 -21 16 -152 -1 -142 -6 3 -6 0
2 -8 6 -7 12 -30 12 -51 l0 -37 -67 -20 c-38 -11 -86 -25 -108 -31 -46 -12
-263 -26 -254 -16 4 4 56 20 116 36 158 41 249 74 245 90 -2 8 3 10 15 6 14
-6 16 -5 6 5 -17 17 -17 53 0 43 9 -6 9 -5 0 7 -6 8 -10 30 -8 49 21 182 26
224 28 226 1 0 20 8 42 16 47 18 32 28 194 -127z m304 115 c3 -11 0 -20 -6
-20 -6 0 -1 -10 10 -22 21 -25 28 -64 12 -73 -5 -4 -10 0 -10 7 -1 7 -3 23 -4
35 -1 13 -8 29 -15 38 -7 8 -9 15 -5 15 4 0 2 7 -5 15 -6 8 -9 19 -5 25 9 14
21 5 28 -20z m-2043 -10 c0 -3 -6 -14 -13 -24 -11 -15 -17 -16 -39 -5 -25 11
-26 13 -12 35 13 20 19 21 40 12 13 -6 24 -14 24 -18z m302 15 c31 -12 36 -19
42 -61 9 -72 7 -119 -6 -133 -11 -10 -9 -11 7 -5 18 7 19 6 5 -11 -9 -11 -10
-16 -2 -11 8 5 12 -3 13 -28 1 -20 3 -40 4 -46 1 -5 3 -23 4 -39 1 -27 6 -30
99 -59 53 -17 134 -41 180 -52 77 -21 107 -40 63 -40 -56 0 -256 33 -321 53
l-75 24 -3 52 c-2 33 2 59 10 69 8 9 8 13 1 9 -8 -5 -12 12 -15 59 -1 36 0 68
5 71 4 2 2 14 -5 26 -6 12 -11 23 -10 25 8 11 -3 22 -32 32 -29 9 -39 8 -61
-6 -20 -13 -23 -19 -14 -31 9 -11 9 -17 0 -26 -10 -9 -11 -8 -5 8 4 14 -6 8
-31 -18 -35 -36 -69 -43 -43 -9 10 14 10 15 -2 5 -15 -14 -23 -46 -9 -37 17
10 9 -8 -16 -38 -14 -16 -22 -35 -18 -41 3 -7 2 -9 -2 -4 -5 4 -19 -3 -31 -14
l-23 -22 -77 33 c-119 52 -284 157 -284 180 0 4 7 11 16 14 8 3 13 2 9 -3 -3
-5 21 -22 52 -36 60 -28 263 -115 268 -115 2 0 6 7 9 16 4 10 2 13 -6 8 -8 -5
-9 -2 -4 12 5 10 9 30 11 44 1 14 3 30 3 37 1 7 9 10 17 6 14 -5 14 -8 0 -29
-10 -16 -11 -24 -4 -24 8 0 7 -5 -2 -17 -11 -13 -11 -17 -1 -20 6 -3 9 -10 6
-16 -5 -8 -2 -8 7 0 20 19 33 16 18 -4 -13 -16 -12 -17 4 -4 9 8 15 16 12 19
-3 3 1 12 8 20 8 11 3 10 -18 -3 -25 -16 -23 -11 14 28 24 25 49 43 55 40 6
-3 8 -2 3 2 -10 11 103 125 124 125 9 0 32 -7 51 -15z m1582 -11 c10 -25 7
-30 -18 -42 -20 -9 -25 -7 -34 13 -9 20 -8 26 6 34 25 15 39 13 46 -5z m-2155
-21 c-16 -18 -19 -24 -8 -20 13 4 16 1 12 -14 -6 -23 -25 -21 -29 3 -2 20 23
58 38 58 6 0 1 -12 -13 -27z m128 -10 c-17 -18 -22 -8 -11 22 5 12 10 13 17 6
8 -8 6 -16 -6 -28z m2133 -3 c0 -12 -3 -12 -16 2 -9 9 -13 21 -9 28 9 14 25
-5 25 -30z m123 19 c8 -11 14 -28 13 -37 -4 -23 -26 -27 -27 -5 0 11 -3 13 -6
5 -6 -16 -32 15 -32 38 0 10 4 8 12 -6 7 -12 18 -19 25 -16 10 3 9 8 -4 23 -9
10 -12 19 -6 19 6 0 17 -9 25 -21z m-2053 -19 c0 -20 -27 -39 -47 -34 -25 7
-28 16 -13 44 9 17 14 18 35 8 14 -6 25 -14 25 -18z m1765 0 c8 -24 1 -36 -24
-43 -27 -7 -48 38 -23 52 26 16 40 13 47 -9z m-1895 -8 c0 -5 -9 -17 -20 -27
-20 -18 -25 -11 -14 19 6 17 34 23 34 8z m190 -22 c0 -4 -8 -14 -18 -23 -16
-14 -21 -15 -36 -4 -15 11 -16 17 -7 35 10 19 15 20 36 10 14 -6 25 -14 25
-18z m1815 11 c3 -10 5 -23 3 -27 -1 -5 4 -20 11 -34 l14 -25 -22 19 c-11 11
-20 24 -19 30 1 6 -3 21 -10 34 -11 18 -10 22 2 22 8 0 17 -9 21 -19z m-2120
-18 l-6 -28 21 23 c23 24 40 31 21 8 -6 -8 -11 -18 -10 -22 7 -41 -15 -60 -26
-24 -4 11 -10 18 -15 15 -5 -3 -4 8 1 25 14 38 24 40 14 3z m1949 11 c15 -38
-9 -48 -38 -15 -13 15 -14 20 -4 24 24 10 36 7 42 -9z m276 -37 c0 -5 -4 -6
-9 -2 -5 3 -12 -4 -16 -15 -8 -25 -25 -26 -26 -2 0 15 -1 15 -8 -1 -6 -17 -8
-16 -19 8 -15 33 -15 44 1 25 13 -16 37 -25 37 -13 0 3 -7 15 -17 25 -23 26
-8 22 17 -4 l21 -23 -6 30 -6 30 15 -25 c8 -14 15 -29 16 -33z m-2073 6 c-17
-18 -22 -8 -11 22 5 12 10 13 17 6 8 -8 6 -16 -6 -28z m298 25 c23 -10 36 -38
18 -38 -5 0 -7 -70 -5 -155 3 -136 1 -154 -13 -149 -12 5 -15 25 -15 110 0 92
-2 104 -19 114 -11 5 -24 10 -29 10 -5 0 -37 -36 -72 -80 -66 -83 -67 -85 -88
-72 -9 6 -3 19 23 49 36 42 45 60 23 47 -9 -5 -9 -3 1 9 7 9 17 15 21 12 5 -3
30 22 57 55 40 49 52 59 73 55 24 -4 24 -4 -2 8 -22 10 -25 16 -16 25 15 15
12 15 43 0z m1352 -4 c3 -8 -50 -34 -70 -34 -14 0 7 32 27 40 24 10 38 8 43
-6z m268 -24 l7 -25 -22 21 c-13 13 -19 27 -15 34 9 14 20 3 30 -30z m-2015
-10 c-16 -40 -23 -33 -9 9 6 18 14 30 17 27 2 -3 -1 -19 -8 -36z m1957 -29
c-2 -10 0 -27 6 -37 10 -17 9 -18 -7 -5 -9 8 -15 20 -12 26 2 7 -2 22 -10 33
-11 16 -11 21 -1 25 16 5 30 -20 24 -42z m-1925 26 c-6 -7 -9 -24 -5 -38 5
-22 4 -23 -12 -8 -14 14 -15 21 -6 38 7 11 17 21 23 21 7 0 7 -4 0 -13z m31
-25 c-5 -14 -3 -14 17 3 l23 20 -11 -21 c-6 -11 -18 -27 -27 -34 -13 -11 -14
-10 -9 5 6 14 4 16 -6 10 -10 -6 -12 -4 -7 9 4 10 7 22 7 27 0 6 4 8 10 4 5
-3 6 -13 3 -23z m1986 -17 c0 -5 -4 -3 -9 5 -5 8 -9 22 -9 30 0 16 17 -16 18
-35z m-21 -1 c15 -33 8 -30 -18 6 -14 20 -16 28 -7 24 8 -3 19 -16 25 -30z
m-1912 -10 c-4 -14 -9 -24 -12 -21 -3 2 -2 17 2 31 3 15 9 25 11 22 3 -3 2
-17 -1 -32z m1874 -9 c0 -17 -2 -17 -10 -5 -5 8 -10 24 -10 35 0 17 2 17 10 5
5 -8 10 -24 10 -35z m90 14 c0 -6 -4 -7 -10 -4 -5 3 -10 11 -10 16 0 6 5 7 10
4 6 -3 10 -11 10 -16z m-490 -43 c-17 -22 -62 -27 -67 -7 -7 29 -4 36 19 42
16 4 27 0 36 -15 11 -17 12 -17 8 -3 -3 11 -3 24 1 30 5 8 9 4 11 -11 2 -13
-1 -29 -8 -36z m87 32 c-3 -8 -6 -5 -6 6 -1 11 2 17 5 13 3 -3 4 -12 1 -19z
m153 2 c6 -11 8 -20 6 -20 -3 0 -10 9 -16 20 -6 11 -8 20 -6 20 3 0 10 -9 16
-20z m-1250 -7 c19 -3 41 -12 48 -21 7 -10 12 -11 12 -4 0 15 51 5 62 -12 6
-8 8 -8 8 0 0 7 11 9 25 6 18 -3 25 -11 25 -28 0 -20 -5 -24 -30 -24 -22 0
-30 5 -31 18 0 10 -3 12 -6 5 -7 -18 -53 -16 -60 3 -4 11 -8 12 -13 4 -11 -17
-58 -2 -55 18 1 9 0 11 -2 4 -3 -8 -16 -12 -31 -10 -21 2 -28 9 -30 32 -3 26
-1 28 20 22 13 -4 39 -9 58 -13z m929 -25 c9 -25 -2 -38 -31 -38 -22 0 -35 40
-17 51 23 15 39 10 48 -13z m-1155 6 c13 -5 16 -24 16 -105 0 -54 -2 -99 -4
-99 -7 0 -150 52 -155 56 -5 4 112 153 121 154 3 0 13 -3 22 -6z m1095 -43 c1
-9 -9 -12 -34 -9 -19 2 -36 1 -37 -2 -2 -4 -15 -10 -30 -14 -26 -6 -28 -4 -28
22 0 27 3 29 58 38 59 9 69 4 71 -35z m-619 -6 c0 -21 -5 -25 -30 -25 -25 0
-30 4 -30 25 0 21 5 25 30 25 25 0 30 -4 30 -25z m46 19 c31 -8 21 -54 -12
-54 -20 0 -24 5 -24 30 0 32 2 33 36 24z m434 -18 c0 -17 -7 -25 -25 -28 -14
-3 -25 0 -26 6 0 7 -3 6 -6 -1 -3 -9 -27 -13 -69 -13 -62 0 -64 1 -64 25 0 20
5 25 25 25 14 0 25 -6 25 -12 0 -9 2 -10 8 -2 8 14 32 19 90 22 38 2 42 0 42
-22z m-350 -11 c0 -21 -5 -25 -30 -25 -22 0 -30 5 -30 18 0 25 9 32 37 32 18
0 23 -5 23 -25z m80 -6 c0 -28 -2 -30 -32 -27 -28 2 -34 8 -36 31 -3 25 -1 27
32 27 33 0 36 -2 36 -31z m70 1 c0 -27 -3 -30 -30 -30 -27 0 -30 3 -30 30 0
27 3 30 30 30 27 0 30 -3 30 -30z m-544 -47 c0 -38 -2 -59 -4 -49 -3 15 -6 16
-13 5 -14 -22 -12 8 2 34 9 16 9 22 0 25 -19 6 -12 52 9 52 4 0 7 -30 6 -67z
m984 43 c0 -13 -5 -26 -11 -28 -9 -3 -9 -9 0 -25 6 -12 11 -28 10 -35 -1 -24
-21 36 -25 75 -3 27 0 37 11 37 9 0 15 -10 15 -24z m-920 -4 c0 -4 -6 -16 -14
-27 -7 -11 -18 -33 -25 -50 l-11 -30 6 30 c14 76 17 85 30 85 8 0 14 -3 14 -8z
m860 -19 c-1 -27 -1 -27 -15 -9 -19 25 -19 36 0 36 10 0 15 -10 15 -27z m-804
-9 c-5 -17 -3 -23 4 -19 7 4 7 -2 0 -20 -13 -34 -13 -55 0 -35 7 11 10 8 10
-15 -1 -27 -2 -28 -14 -12 -16 20 -19 127 -4 127 6 0 8 -11 4 -26z m737 13 c3
-8 1 -20 -4 -28 -4 -8 -5 -25 -2 -39 3 -14 2 -21 -3 -17 -10 10 -14 97 -4 97
5 0 10 -6 13 -13z m-673 -6 c0 -20 -13 -41 -21 -35 -15 9 -10 44 6 44 8 0 15
-4 15 -9z m620 -10 c0 -26 -16 -35 -24 -15 -10 25 -7 34 9 34 8 0 15 -9 15
-19z m197 -33 c-2 -13 -4 -5 -4 17 -1 22 1 32 4 23 2 -10 2 -28 0 -40z m-1036
1 c-9 -23 -10 -22 -10 11 -1 23 2 31 9 24 7 -7 7 -19 1 -35z m279 29 c0 -7 -5
-20 -10 -28 -8 -12 -10 -9 -10 13 0 15 5 27 10 27 6 0 10 -6 10 -12z m60 -12
c0 -14 -4 -28 -10 -31 -5 -3 -10 -20 -10 -37 0 -17 -3 -29 -6 -26 -9 9 7 118
17 118 5 0 9 -11 9 -24z m370 -8 c0 -25 -3 -29 -10 -18 -13 20 -13 50 0 50 6
0 10 -15 10 -32z m60 5 c0 -22 -2 -25 -10 -13 -13 20 -13 40 0 40 6 0 10 -12
10 -27z m-363 -30 c1 -25 7 -51 13 -57 15 -15 12 -36 -4 -36 -9 0 -12 7 -9 23
4 17 3 19 -6 7 -8 -11 -9 -6 -5 21 4 22 2 39 -5 43 -15 10 -14 46 2 46 7 0 13
-17 14 -47z m58 16 c-4 -19 -3 -29 2 -26 5 3 7 -8 4 -26 l-5 -32 -8 35 c-5 19
-12 45 -15 58 -4 16 -1 22 12 22 13 0 15 -6 10 -31z m65 19 c0 -7 -4 -19 -9
-26 -7 -11 -10 -10 -15 3 -10 26 -7 35 9 35 8 0 15 -6 15 -12z m65 -39 c4 -27
4 -53 1 -56 -3 -4 -6 8 -6 24 0 17 -4 33 -9 35 -4 2 -12 13 -15 26 -5 16 -3
22 7 22 11 0 17 -16 22 -51z m61 -11 c5 -35 10 -54 12 -44 3 15 6 16 14 5 7
-10 8 -4 4 19 -4 20 -2 31 4 27 12 -8 13 -45 1 -64 -16 -25 -41 -4 -41 33 0
19 -4 37 -9 40 -16 10 -20 46 -6 46 10 0 16 -20 21 -62z m-560 10 c0 -24 -1
-34 -4 -24 -3 15 -6 16 -13 5 -6 -9 -9 -10 -9 -2 0 13 18 63 22 63 2 0 4 -19
4 -42z m864 -6 c0 -7 -4 -11 -9 -7 -5 3 -11 -3 -13 -12 -3 -10 -4 1 -4 25 1
37 2 40 13 25 7 -9 13 -23 13 -31z m19 16 c-1 -31 -1 -31 -8 -8 -5 14 -6 28
-4 33 9 15 13 6 12 -25z m-849 -4 c0 -14 -4 -23 -9 -20 -5 3 -7 15 -4 26 7 28
13 25 13 -6z m120 -37 c-7 -18 -9 -14 -9 23 0 37 2 41 9 22 6 -13 6 -31 0 -45z
m670 25 c0 -21 -2 -24 -10 -12 -13 20 -13 53 0 45 6 -3 10 -18 10 -33z m-733
-19 c-3 -10 -5 -2 -5 17 0 19 2 27 5 18 2 -10 2 -26 0 -35z m98 16 c-5 -22 -4
-29 4 -25 7 5 11 -2 11 -19 0 -16 -5 -25 -11 -23 -13 4 -21 54 -13 81 9 29 16
19 9 -14z m474 -9 c0 -10 -3 -8 -9 5 -12 27 -12 43 0 25 5 -8 9 -22 9 -30z
m40 -25 c2 19 2 19 12 2 13 -22 6 -32 -16 -24 -11 5 -15 19 -13 49 l1 43 7
-45 c4 -25 8 -36 9 -25z m48 18 c-3 -10 -5 -2 -5 17 0 19 2 27 5 18 2 -10 2
-26 0 -35z m-632 5 c-4 -22 -3 -28 3 -20 7 11 10 9 15 -7 3 -14 0 -21 -9 -21
-16 0 -29 42 -20 65 10 27 18 16 11 -17z m295 -15 c0 -32 -10 -53 -26 -53 -16
0 -16 2 -8 25 6 13 9 14 16 3 6 -8 7 3 3 32 -4 33 -3 41 4 30 6 -8 11 -25 11
-37z m211 4 c-13 -13 -15 1 -4 30 7 17 8 17 11 -1 2 -10 -1 -23 -7 -29z m109
10 c0 -18 -2 -19 -10 -7 -13 20 -13 43 0 35 6 -3 10 -16 10 -28z m167 11 c-3
-8 -6 -5 -6 6 -1 11 2 17 5 13 3 -3 4 -12 1 -19z m-653 -20 c-4 -22 -3 -29 4
-20 7 11 10 9 15 -7 3 -14 0 -21 -9 -21 -16 0 -29 42 -20 65 10 26 16 16 10
-17z m33 -15 c-3 -10 -5 -2 -5 17 0 19 2 27 5 18 2 -10 2 -26 0 -35z m64 4
c-8 -8 -11 -3 -11 19 1 25 2 27 11 11 8 -14 8 -22 0 -30z m90 -8 c-9 -23 -10
-23 -10 -2 -1 12 2 30 6 40 6 15 8 15 11 2 1 -8 -2 -26 -7 -40z m109 6 c0 -17
-2 -17 -10 -5 -5 8 -10 24 -10 35 0 17 2 17 10 5 5 -8 10 -24 10 -35z m-73 -2
c-3 -10 -5 -4 -5 12 0 17 2 24 5 18 2 -7 2 -21 0 -30z m304 -6 c-8 -8 -11 -3
-11 19 1 25 2 27 11 11 8 -14 8 -22 0 -30z m-121 1 c0 -9 4 -8 10 2 5 8 10 10
10 5 0 -13 -20 -35 -32 -35 -4 0 -8 9 -8 20 0 11 5 20 10 20 6 0 10 -6 10 -12z
m-190 -30 c0 -5 -6 -8 -14 -8 -9 0 -12 7 -9 21 4 16 8 17 14 7 5 -7 9 -16 9
-20z m70 0 c0 -5 -7 -8 -15 -8 -17 0 -18 2 -9 25 5 13 8 14 15 3 5 -7 9 -16 9
-20z"/>
<path d="M2078 4313 c6 -2 18 -2 25 0 6 3 1 5 -13 5 -14 0 -19 -2 -12 -5z"/>
<path d="M2108 4253 c7 -3 16 -2 19 1 4 3 -2 6 -13 5 -11 0 -14 -3 -6 -6z"/>
<path d="M2328 4223 c7 -3 16 -2 19 1 4 3 -2 6 -13 5 -11 0 -14 -3 -6 -6z"/>
<path d="M2355 4310 c-3 -5 3 -10 14 -10 12 0 21 5 21 10 0 6 -6 10 -14 10 -8
0 -18 -4 -21 -10z"/>
<path d="M1940 4044 c-35 -20 -49 -23 -62 -15 -10 6 -18 7 -18 2 0 -15 29 -34
43 -28 9 3 20 -8 31 -30 9 -20 19 -33 22 -30 3 3 -2 19 -10 36 -21 40 -20 46
6 58 20 9 24 6 40 -30 10 -21 15 -43 12 -48 -3 -5 2 -9 10 -9 19 0 20 8 1 40
-8 14 -14 37 -15 53 0 33 -4 33 -60 1z"/>
<path d="M2475 4049 c-4 -13 -1 -27 9 -38 14 -16 14 -19 -1 -40 -19 -28 -6
-41 44 -41 24 0 33 5 39 22 3 12 15 29 26 38 16 13 18 20 9 43 -14 36 -22 35
-15 -3 6 -25 3 -30 -20 -36 -38 -9 -79 20 -73 52 5 29 -9 32 -18 3z m79 -77
c10 -16 -10 -30 -36 -25 -18 3 -25 10 -21 19 5 15 48 19 57 6z"/>
<path d="M1610 3979 c74 -33 95 -47 113 -76 24 -41 43 -44 22 -4 -21 42 -73
78 -120 85 -35 6 -37 5 -15 -5z"/>
<path d="M2760 3980 c0 -5 6 -10 14 -10 40 0 13 -55 -36 -73 -7 -2 -10 -8 -6
-12 4 -4 20 2 36 14 25 17 32 18 47 7 18 -13 18 -14 -1 -24 -30 -17 -12 -22
24 -7 24 11 32 20 32 39 0 14 5 28 10 31 6 3 10 10 10 16 0 5 -8 4 -18 -2 -14
-9 -27 -7 -60 10 -47 24 -52 25 -52 11z m74 -36 c23 -9 20 -24 -4 -24 -11 0
-20 7 -20 15 0 17 2 18 24 9z"/>
<path d="M1310 3850 c-24 -15 -7 -18 30 -4 31 11 32 13 10 13 -14 0 -32 -3
-40 -9z"/>
<path d="M1390 3841 c0 -10 30 -24 37 -17 3 2 -5 9 -16 16 -12 6 -21 7 -21 1z"/>
<path d="M1446 3802 c-2 -4 -1 -14 4 -22 7 -11 12 -12 21 -3 6 6 8 16 5 22 -8
13 -23 14 -30 3z"/>
<path d="M3119 3858 c11 -18 25 -34 31 -36 7 -3 1 12 -12 32 -13 20 -27 36
-31 36 -5 0 0 -15 12 -32z"/>
<path d="M3067 3834 c-13 -17 -26 -24 -42 -22 -28 4 -30 0 -21 -29 8 -26 24
-30 33 -8 7 19 60 48 73 40 14 -9 12 7 -4 28 -17 22 -17 21 -39 -9z m-37 -44
c0 -5 -2 -10 -4 -10 -3 0 -8 5 -11 10 -3 6 -1 10 4 10 6 0 11 -4 11 -10z"/>
<path d="M1233 3648 c2 -7 10 -13 17 -13 7 0 15 6 18 13 2 7 -5 12 -18 12 -13
0 -20 -5 -17 -12z"/>
<path d="M3230 3645 c0 -28 12 -32 30 -10 14 16 6 35 -16 35 -8 0 -14 -10 -14
-25z"/>
<path d="M3288 3653 c6 -2 18 -2 25 0 6 3 1 5 -13 5 -14 0 -19 -2 -12 -5z"/>
<path d="M873 3493 c-18 -9 -33 -20 -33 -25 0 -12 14 -10 36 7 27 20 58 18 79
-5 10 -11 25 -20 34 -20 21 1 57 28 48 37 -4 3 -16 -2 -27 -12 -19 -17 -20
-16 -50 9 -36 30 -43 31 -87 9z"/>
<path d="M3561 3552 c-1 -13 10 -33 24 -46 l24 -23 -34 -33 -35 -34 -28 27
c-29 27 -52 35 -52 17 0 -5 6 -10 13 -10 8 0 24 -11 37 -25 17 -18 34 -25 61
-25 42 0 54 11 63 61 6 33 4 37 -19 43 -15 4 -31 19 -39 39 -13 28 -14 29 -15
9z m59 -94 c0 -21 -13 -35 -40 -43 -25 -7 -25 -7 4 24 33 35 36 36 36 19z"/>
<path d="M702 3273 c-23 -5 -46 -35 -35 -47 3 -3 15 -6 25 -6 15 0 18 5 13 20
-5 16 -2 20 19 20 14 0 26 5 26 10 0 10 -8 11 -48 3z"/>
<path d="M835 3250 c-4 -7 -16 -10 -26 -7 -10 3 -22 1 -25 -4 -3 -5 -16 -9
-30 -9 -15 0 -24 -6 -24 -15 0 -17 16 -20 25 -5 4 6 11 8 16 4 5 -3 16 0 24 6
8 6 18 9 23 6 11 -6 38 21 29 30 -3 3 -8 0 -12 -6z"/>
<path d="M3777 3273 c-12 -13 -21 -14 -39 -6 -19 8 -30 5 -61 -15 -47 -31 -41
-42 7 -13 27 17 40 20 54 12 14 -7 26 -5 46 8 15 10 24 21 19 24 -5 4 -17 -1
-26 -10z"/>
<path d="M624 3058 c4 -14 -7 -24 -44 -43 -54 -27 -56 -31 -38 -70 14 -31 20
-31 88 3 l55 28 -20 31 c-42 64 -46 70 -41 51z m-11 -101 c-25 -16 -46 -27
-48 -25 -1 2 -7 12 -13 24 -10 19 -6 24 36 47 l47 26 12 -22 c10 -20 7 -24
-34 -50z"/>
<path d="M3871 3038 c17 -33 18 -33 34 -12 21 28 18 34 -15 34 -29 0 -30 -2
-19 -22z"/>
<path d="M3820 2954 c0 -3 5 -14 11 -25 8 -16 13 -18 25 -8 22 18 17 39 -11
39 -14 0 -25 -3 -25 -6z"/>
<path d="M4247 2711 c-4 -17 -3 -21 5 -13 5 5 8 16 6 23 -3 8 -7 3 -11 -10z"/>
<path d="M4216 2705 c-9 -26 -7 -32 5 -12 6 10 9 21 6 23 -2 3 -7 -2 -11 -11z"/>
<path d="M4275 2459 c-4 -6 -5 -12 -2 -15 2 -3 7 2 10 11 7 17 1 20 -8 4z"/>
<path d="M4325 2449 c-4 -6 -5 -12 -2 -15 2 -3 7 2 10 11 7 17 1 20 -8 4z"/>
<path d="M210 2711 c0 -6 4 -13 10 -16 6 -3 7 1 4 9 -7 18 -14 21 -14 7z"/>
<path d="M478 2798 c-17 -13 -15 -44 7 -115 6 -18 2 -23 -19 -29 -14 -3 -23
-10 -20 -15 6 -10 64 17 64 29 0 4 -5 14 -10 22 -7 11 -3 20 15 35 26 22 43
65 26 65 -6 0 -11 -6 -11 -13 0 -7 -7 -22 -15 -33 -14 -17 -14 -16 -9 24 7 44
0 51 -28 30z m9 -40 c-3 -7 -5 -2 -5 12 0 14 2 19 5 13 2 -7 2 -19 0 -25z"/>
<path d="M3903 2778 c-10 -17 -4 -51 11 -60 6 -4 23 -8 38 -8 15 0 34 -8 44
-17 16 -17 16 -18 1 -21 -9 -2 -17 -8 -17 -13 0 -13 52 0 70 18 13 13 13 14
-7 9 -16 -5 -25 -2 -32 13 -7 12 -27 23 -54 28 -32 7 -42 13 -42 28 0 14 6 19
19 17 11 -2 15 1 11 7 -9 15 -32 14 -42 -1z"/>
<path d="M463 2480 c-15 -37 -19 -40 -55 -40 -21 0 -38 -4 -38 -9 0 -15 41
-81 49 -81 5 0 15 18 24 40 14 37 18 40 56 40 22 0 43 5 46 10 7 11 -43 78
-58 79 -5 1 -16 -17 -24 -39z m39 -32 c-33 -9 -38 -4 -23 28 l11 26 19 -24
c19 -23 19 -23 -7 -30z m-62 -25 c-1 -5 -6 -18 -13 -31 l-13 -23 -12 25 c-9
21 -8 25 6 29 28 7 32 7 32 0z"/>
<path d="M4052 2398 c-19 -19 -14 -28 13 -28 27 0 28 1 19 24 -7 19 -16 20
-32 4z"/>
<path d="M464 2182 c-17 -20 -30 -26 -63 -26 -46 -1 -45 -1 -30 -45 l11 -32
22 20 c25 23 51 26 91 11 26 -10 27 -9 21 16 -4 14 -10 39 -13 55 -7 35 -12
35 -39 1z m35 -44 c1 -12 -27 -9 -34 2 -4 6 -1 18 6 26 12 14 14 14 20 -3 4
-10 8 -21 8 -25z m-84 -12 c-20 -14 -35 -12 -35 5 0 5 12 9 27 9 26 0 26 -1 8
-14z"/>
<path d="M4011 2177 c-11 -27 -21 -51 -21 -53 0 -2 16 -4 35 -4 29 0 36 -4 41
-25 3 -14 11 -25 16 -25 6 0 7 7 2 18 -4 9 -7 29 -6 45 1 16 -4 27 -12 27 -7
0 -18 15 -23 33 l-10 32 -22 -48z m29 -16 c0 -10 -7 -22 -16 -25 -12 -5 -15
-2 -10 10 3 8 6 20 6 25 0 5 5 9 10 9 6 0 10 -9 10 -19z"/>
<path d="M380 1907 c0 -19 33 -47 55 -47 10 0 29 -12 42 -26 18 -20 27 -24 36
-15 15 15 27 14 27 -4 0 -8 5 -15 10 -15 12 0 13 10 1 29 -6 9 -18 11 -33 8
-19 -5 -26 -1 -37 23 -9 22 -20 30 -37 30 -14 0 -27 7 -30 15 -8 19 -34 20
-34 2z"/>
<path d="M3991 1917 c-14 -6 -27 -19 -29 -27 -4 -12 -1 -11 15 3 11 9 29 17
41 17 19 0 21 -4 16 -27 -13 -53 -24 -73 -39 -73 -17 0 -19 -9 -6 -28 5 -9 17
-11 35 -6 34 8 40 18 24 43 -10 17 -9 23 6 40 11 12 14 21 8 21 -6 0 -12 10
-14 22 -4 27 -24 33 -57 15z m49 -117 c0 -5 -10 -10 -22 -10 -19 0 -20 2 -8
10 19 13 30 13 30 0z"/>
<path d="M520 1640 c0 -5 11 -10 25 -10 17 0 29 -9 40 -31 19 -35 11 -50 -35
-69 -17 -7 -30 -16 -30 -21 0 -13 6 -11 42 10 17 11 35 18 39 16 4 -3 12 2 19
10 10 13 10 19 -3 33 -9 9 -20 29 -26 45 -8 21 -17 27 -41 27 -16 0 -30 -4
-30 -10z"/>
<path d="M477 1583 c-14 -13 -6 -33 13 -33 22 0 23 1 14 24 -7 17 -16 20 -27
9z"/>
<path d="M3938 1632 c-27 -8 -48 -19 -48 -23 0 -4 16 -21 36 -37 l36 -30 -31
-18 c-17 -10 -31 -22 -31 -26 0 -13 10 -9 47 19 l35 27 -38 32 -38 32 42 11
c23 7 42 16 42 21 0 6 -1 10 -2 9 -2 0 -24 -8 -50 -17z"/>
<path d="M4126 1311 c-4 -5 -2 -12 3 -15 5 -4 12 -2 15 3 4 5 2 12 -3 15 -5 4
-12 2 -15 -3z"/>
<path d="M4165 1311 c-3 -5 -2 -12 3 -15 5 -3 9 1 9 9 0 17 -3 19 -12 6z"/>
<path d="M4113 1203 c9 -2 23 -2 30 0 6 3 -1 5 -18 5 -16 0 -22 -2 -12 -5z"/>
<path d="M772 1123 l-23 -26 25 -26 c15 -15 26 -34 26 -42 0 -18 28 -59 41
-59 5 0 2 11 -7 25 -22 34 -13 51 31 59 20 4 35 11 33 15 -5 12 -85 81 -94 81
-5 0 -19 -12 -32 -27z m102 -45 c5 -4 -8 -10 -28 -13 -28 -6 -41 -3 -56 10
-18 16 -18 19 -3 42 l16 24 31 -28 c17 -15 35 -31 40 -35z"/>
<path d="M3587 1112 c-15 -15 -27 -31 -27 -35 0 -13 45 -77 54 -77 5 0 7 3 3
6 -3 4 3 24 14 46 11 21 24 50 29 63 9 23 7 25 -18 25 -18 0 -38 -10 -55 -28z
m41 -27 c-25 -50 -33 -55 -44 -23 -5 16 0 27 20 45 41 35 48 28 24 -22z"/>
<path d="M992 907 c-11 -24 -25 -48 -31 -51 -18 -12 -13 -22 23 -39 33 -15 37
-15 77 6 51 27 69 51 51 69 -9 9 -12 8 -12 -9 0 -39 -59 -62 -85 -34 -14 16
-13 19 5 36 24 21 25 38 6 54 -12 10 -18 4 -34 -32z m14 -69 c10 -12 15 -19 9
-16 -5 3 -18 8 -28 11 -10 4 -15 11 -12 17 8 13 9 13 31 -12z"/>
<path d="M3405 913 c-43 -11 -47 -55 -7 -77 76 -42 92 -42 92 -1 0 22 -44 86
-58 84 -4 -1 -16 -4 -27 -6z m5 -17 c0 -2 -7 -9 -15 -16 -13 -11 -14 -10 -9 4
5 14 24 23 24 12z m65 -53 c10 -34 -22 -28 -74 14 -2 1 4 12 14 23 18 20 19
20 36 3 9 -10 20 -28 24 -40z"/>
<path d="M3935 960 c3 -5 11 -10 16 -10 6 0 7 5 4 10 -3 6 -11 10 -16 10 -6 0
-7 -4 -4 -10z"/>
<path d="M1295 704 c-27 -13 -65 -24 -82 -24 -18 0 -33 -4 -33 -10 0 -15 91 0
133 23 20 11 37 24 37 29 0 4 -1 8 -2 7 -2 0 -25 -11 -53 -25z"/>
<path d="M3181 731 c-36 -15 -66 -32 -68 -37 -3 -13 25 -49 33 -41 4 4 1 13
-6 22 -15 18 -18 16 47 43 65 27 67 27 59 -3 -4 -14 -2 -25 4 -25 5 0 10 6 10
13 0 6 3 22 6 35 8 29 -5 28 -85 -7z"/>
<path d="M3805 779 c-11 -16 -1 -19 13 -3 7 8 8 14 3 14 -5 0 -13 -5 -16 -11z"/>
<path d="M1780 515 c-6 -19 -9 -41 -7 -48 3 -7 6 -5 6 6 1 10 9 17 22 17 22 0
22 -3 2 -88 -5 -19 -2 -23 12 -20 13 2 22 19 31 58 12 54 12 56 -14 83 -14 15
-29 27 -33 27 -4 0 -13 -16 -19 -35z m46 -13 c-9 -9 -37 8 -31 18 5 8 11 7 21
-1 8 -6 12 -14 10 -17z"/>
<path d="M2650 530 c0 -8 -9 -26 -20 -40 -28 -36 -25 -47 10 -42 24 3 30 1 30
-14 0 -11 5 -26 11 -34 8 -11 9 -6 5 20 -3 23 0 42 9 54 17 22 20 66 5 66 -5
0 -7 -6 -4 -14 9 -24 -24 -65 -47 -59 l-20 6 20 21 c14 15 17 26 11 36 -9 13
-10 13 -10 0z"/>
<path d="M2612 399 c2 -6 8 -10 13 -10 5 0 11 4 13 10 2 6 -4 11 -13 11 -9 0
-15 -5 -13 -11z"/>
<path d="M2088 493 c-32 -2 -58 -6 -58 -9 0 -3 9 -17 20 -31 22 -29 26 -53 9
-70 -14 -14 -3 -33 17 -33 26 0 26 27 1 81 l-25 52 59 -6 c41 -4 59 -2 56 6
-4 13 -8 14 -79 10z m2 -117 c0 -3 -4 -8 -10 -11 -5 -3 -10 -1 -10 4 0 6 5 11
10 11 6 0 10 -2 10 -4z"/>
<path d="M2317 472 c-10 -10 -17 -23 -17 -28 0 -15 65 -62 110 -80 59 -24 59
-12 0 16 -49 23 -50 25 -50 67 0 47 -15 56 -43 25z m33 -27 c0 -14 -4 -25 -9
-25 -12 0 -23 29 -15 41 10 18 24 9 24 -16z"/>
<path d="M2960 436 c0 -2 8 -10 18 -17 15 -13 16 -12 3 4 -13 16 -21 21 -21
13z"/>
<path d="M3119 288 c14 -19 3 -24 -17 -8 -7 5 -5 2 3 -7 10 -12 18 -14 25 -7
8 8 5 15 -7 25 -16 13 -17 12 -4 -3z"/>
<path d="M2804 245 c1 -8 8 -21 16 -28 11 -9 11 -8 0 7 -14 18 -13 19 3 13 23
-9 22 0 -2 13 -15 8 -19 7 -17 -5z"/>
<path d="M2296 4404 c-9 -26 -14 -49 -12 -51 2 -2 11 17 20 43 9 26 14 49 12
51 -2 2 -11 -17 -20 -43z"/>
<path d="M36 2692 c-4 -24 -5 -46 -2 -49 3 -4 6 6 6 20 0 15 3 27 6 27 3 0 44
-21 90 -47 78 -43 85 -50 79 -73 -4 -21 -4 -22 6 -7 6 10 9 24 6 30 -2 7 -43
33 -90 60 -47 26 -87 55 -89 65 -3 9 -8 -2 -12 -26z"/>
<path d="M4432 2670 c0 -14 4 -38 8 -55 7 -27 8 -27 8 -5 0 14 -4 39 -8 55 -7
27 -8 27 -8 5z"/>
<path d="M22 2605 c0 -16 2 -22 5 -12 2 9 2 23 0 30 -3 6 -5 -1 -5 -18z"/>
<path d="M4451 2554 c-1 -20 -5 -21 -43 -13 -24 4 -52 8 -63 7 -11 0 9 -6 45
-13 36 -7 66 -12 68 -10 2 2 2 14 -1 27 -4 21 -4 21 -6 2z"/>
<path d="M136 2437 c3 -10 9 -15 12 -12 3 3 0 11 -7 18 -10 9 -11 8 -5 -6z"/>
<path d="M2927 303 c-17 -4 -18 -15 -16 -110 2 -82 0 -106 -12 -114 -22 -14
-8 -11 46 11 48 19 49 19 15 17 l-35 -2 -3 92 c-3 86 -1 92 18 98 12 4 23 5
25 3 43 -47 113 -142 110 -148 -3 -5 -21 -14 -41 -20 -19 -7 -33 -14 -31 -16
2 -3 25 3 50 13 l46 18 -65 83 c-36 45 -71 81 -77 81 -7 -1 -20 -3 -30 -6z"/>
</g>
</svg>
