<?xml version="1.0" standalone="no"?>
<!DOCTYPE svg PUBLIC "-//W3C//DTD SVG 20010904//EN"
 "http://www.w3.org/TR/2001/REC-SVG-20010904/DTD/svg10.dtd">
<svg version="1.0" xmlns="http://www.w3.org/2000/svg"
 width="342.744651pt" height="185.854965pt" viewBox="0 0 342.744651 185.854965"
 preserveAspectRatio="xMidYMid meet">
<metadata>
Created by potrace 1.16, written by Peter Selinger 2001-2019
</metadata>
<g transform="translate(-9.533556,248.559367) scale(0.100000,-0.100000)"
fill="#000000" stroke="none">
<path d="M945 2480 c-110 -12 -231 -38 -284 -61 -24 -10 -58 -19 -77 -19 -198
0 -373 -150 -456 -393 -30 -86 -32 -101 -33 -232 0 -128 2 -147 29 -229 16
-50 48 -117 71 -151 22 -34 47 -81 54 -106 30 -99 133 -265 216 -343 141 -135
414 -57 654 186 l74 75 33 -66 c66 -131 218 -299 347 -384 213 -141 502 -169
782 -75 203 68 405 206 491 335 39 58 42 76 16 95 -18 13 -18 22 -1 262 14
215 19 252 35 263 9 7 28 10 41 7 17 -5 23 -2 23 10 0 25 -39 122 -64 158
l-22 33 42 -21 c23 -12 107 -34 186 -48 216 -41 312 -76 342 -126 22 -39 10
-62 -44 -84 -74 -30 -224 -14 -392 41 -83 27 -108 31 -108 13 0 -4 39 -24 88
-43 275 -109 462 -112 521 -6 21 38 7 96 -34 134 -46 44 -129 71 -345 115
-102 21 -206 47 -232 58 -25 11 -48 19 -50 16 -3 -2 -26 22 -51 53 -71 89
-194 192 -305 256 -219 127 -547 223 -917 267 -118 15 -528 21 -630 10z m-140
-100 c-3 -5 -14 -10 -23 -9 -14 0 -13 2 3 9 27 11 27 11 20 0z m805 -20 c373
-36 518 -85 755 -254 10 -7 20 -3 35 15 l21 24 -14 -30 c-8 -17 -24 -39 -36
-49 -43 -39 -19 -139 52 -213 35 -37 49 -39 100 -18 62 26 72 21 121 -58 95
-152 157 -318 159 -426 1 -48 -3 -63 -33 -106 -43 -63 -200 -221 -262 -263
l-47 -32 -15 22 c-9 12 -16 28 -16 34 0 28 -84 33 -133 8 -51 -26 -86 -65 -98
-108 -9 -34 -8 -43 10 -66 l20 -28 -42 -16 c-146 -55 -355 -66 -501 -27 -241
64 -432 273 -515 562 -20 68 -32 94 -43 94 -9 0 -43 -41 -78 -95 -224 -340
-511 -445 -674 -247 -44 54 -99 161 -85 165 13 5 40 -18 33 -29 -8 -14 5 -47
22 -53 9 -3 23 -2 32 3 21 12 52 -4 52 -27 0 -38 46 -56 70 -27 18 22 59 18
79 -6 20 -25 56 -19 66 10 7 22 72 38 88 22 17 -17 45 -13 57 9 6 11 9 24 6
29 -10 15 47 46 84 46 33 0 35 2 36 32 0 35 39 97 54 88 5 -3 19 -1 31 5 17
10 20 18 15 45 -8 39 11 85 34 85 36 0 53 46 26 69 -19 16 0 78 26 87 22 7 25
62 3 70 -18 7 -9 85 11 97 20 12 17 55 -5 66 -26 15 -32 73 -9 101 20 25 11
55 -21 65 -23 7 -45 63 -32 79 5 6 11 20 13 31 2 13 17 -15 42 -77 21 -53 44
-102 52 -109 25 -21 59 -1 94 53 78 122 215 220 345 248 28 5 60 12 73 15 14
4 22 1 22 -8 0 -7 -26 -21 -59 -31 -111 -33 -177 -71 -254 -148 -61 -59 -83
-91 -120 -168 -62 -128 -81 -228 -74 -374 10 -187 62 -324 168 -439 32 -36 56
-67 52 -70 -3 -3 -3 -18 1 -32 5 -20 12 -25 39 -25 36 0 57 -15 57 -40 0 -9 9
-25 19 -34 15 -14 24 -15 39 -7 24 13 102 -14 102 -35 0 -7 9 -18 21 -24 16
-9 25 -8 40 6 25 23 93 23 118 0 23 -21 57 -14 66 13 8 25 89 48 109 32 26
-21 61 -9 64 21 4 37 79 91 105 76 10 -5 26 -6 37 -3 21 7 36 46 25 64 -3 6
10 31 30 55 26 32 41 43 55 39 11 -3 27 0 35 7 17 14 20 61 5 76 -16 16 24
108 49 112 12 2 29 14 37 28 15 22 15 26 0 49 -9 14 -21 25 -28 25 -19 0 0
122 23 138 28 19 24 57 -10 84 -23 18 -30 34 -36 74 -4 34 -3 54 4 59 19 11
12 53 -11 69 -12 8 -24 13 -28 11 -4 -2 -16 16 -28 41 -17 34 -20 50 -12 64 5
10 10 21 10 24 0 13 -34 36 -54 36 -31 0 -77 50 -70 76 8 29 -22 57 -52 50
-32 -8 -82 23 -86 54 -2 19 -10 26 -32 28 -16 2 -32 -1 -35 -6 -9 -14 -91 8
-91 25 0 11 -29 33 -44 33 -2 0 -12 -7 -21 -17 -21 -20 -75 -24 -96 -6 -24 20
-821 94 -837 78 -3 -3 13 -22 35 -42 34 -32 93 -113 93 -127 0 -3 -11 -3 -25
-2 -33 4 -57 38 -49 69 4 18 0 29 -16 40 -12 9 -28 13 -35 10 -23 -8 -55 16
-55 42 0 13 -8 29 -17 35 -30 19 509 5 757 -20z m-915 -14 c169 -77 295 -308
295 -541 0 -190 -70 -365 -190 -479 -104 -98 -211 -137 -320 -116 -152 29
-268 142 -337 330 -25 69 -27 87 -28 225 0 139 2 156 29 239 95 289 337 440
551 342z m1218 -169 c138 -68 248 -203 304 -372 23 -70 27 -97 27 -215 1 -144
-16 -226 -69 -330 -63 -124 -181 -236 -294 -280 -278 -107 -577 80 -661 414
-24 96 -27 258 -5 361 33 159 148 330 270 401 91 53 140 65 251 62 94 -3 106
-6 177 -41z m550 -34 c-7 -2 -19 -2 -25 0 -7 3 -2 5 12 5 14 0 19 -2 13 -5z
m28 -28 c40 -21 86 -88 105 -150 16 -56 12 -80 -17 -95 -73 -40 -205 159 -155
235 19 29 27 30 67 10z m54 -15 c10 -11 16 -20 13 -20 -3 0 -13 9 -23 20 -10
11 -16 20 -13 20 3 0 13 -9 23 -20z m85 -181 c0 -23 -6 -42 -17 -50 -16 -13
-17 -12 -4 4 13 17 12 74 -3 122 -3 11 0 7 8 -10 8 -16 15 -46 16 -66z m-195
-965 c21 -21 13 -57 -22 -103 -30 -39 -82 -63 -127 -59 -28 3 -31 7 -34 40 -7
81 131 173 183 122z"/>
<path d="M2539 1641 c-17 -18 -29 -40 -29 -56 0 -32 49 -85 79 -85 50 0 91 41
91 91 0 30 -53 79 -85 79 -16 0 -38 -12 -56 -29z m82 -38 c12 -16 12 -17 -1
-7 -8 6 -22 14 -30 17 -13 5 -12 6 1 6 9 1 23 -7 30 -16z"/>
<path d="M2675 1530 c-13 -40 -71 -56 -127 -35 -10 4 -13 -11 -13 -67 0 -40
-3 -85 -8 -100 -7 -26 -6 -27 28 -26 41 1 79 -28 90 -70 l8 -27 15 35 c38 89
50 183 36 273 -7 41 -19 48 -29 17z"/>
<path d="M2515 1278 c-52 -30 -61 -90 -19 -132 33 -33 74 -34 110 -2 73 63 -8
182 -91 134z m66 -55 c13 -16 12 -17 -3 -4 -10 7 -18 15 -18 17 0 8 8 3 21
-13z"/>
<path d="M477 2320 c-118 -30 -219 -119 -278 -245 -144 -309 -56 -667 196
-791 71 -35 77 -36 157 -32 127 7 219 66 292 187 84 138 119 358 82 523 -35
158 -123 286 -230 337 -55 25 -160 36 -219 21z m230 -148 c218 -447 215 -441
207 -485 -7 -42 -7 -41 -170 283 -89 179 -163 327 -163 330 -1 4 14 4 32 2 31
-3 36 -10 94 -130z m63 -802 c0 -4 -11 -15 -24 -24 l-25 -16 -200 401 c-111
220 -201 405 -201 411 0 7 10 22 22 35 l22 24 203 -412 c112 -227 203 -415
203 -419z m-361 236 l172 -339 -51 6 c-106 13 -198 88 -259 211 -47 95 -64
189 -58 321 4 93 13 155 22 143 1 -2 79 -156 174 -342z"/>
<path d="M1601 2155 c-164 -46 -295 -190 -347 -380 -25 -93 -30 -258 -10 -347
32 -144 112 -265 226 -344 88 -59 161 -84 252 -84 128 0 221 42 308 137 214
234 210 676 -6 903 -84 88 -157 122 -277 126 -62 3 -110 -1 -146 -11z m275
-77 c18 -32 91 -171 163 -310 125 -240 131 -255 125 -296 -4 -24 -10 -40 -14
-35 -12 13 -370 696 -370 705 0 3 15 3 32 -1 26 -5 39 -18 64 -63z m-356 -36
c0 -7 238 -465 426 -818 l54 -100 -31 -23 c-17 -13 -32 -21 -33 -19 -2 1 -36
66 -76 143 -40 77 -88 167 -105 200 -18 33 -94 174 -170 314 l-137 253 28 29
c27 28 44 37 44 21z m-115 -349 c28 -54 102 -192 165 -308 225 -409 204 -365
177 -365 -45 0 -143 32 -190 62 -141 90 -237 292 -237 496 0 83 18 212 29 212
3 0 29 -44 56 -97z"/>
<path d="M2447 2093 c-25 -24 10 -128 58 -175 34 -34 62 -36 76 -5 31 69 -87
228 -134 180z m77 -132 c-5 -6 -34 20 -34 30 0 5 8 1 18 -8 10 -10 17 -20 16
-22z"/>
<path d="M2321 901 c-41 -38 -42 -71 -2 -71 35 0 81 43 81 76 0 34 -40 32 -79
-5z"/>
<path d="M2920 1806 c0 -2 11 -28 25 -58 14 -29 25 -62 25 -73 0 -35 16 -46
91 -66 171 -45 320 -46 364 -3 20 21 19 31 -8 58 -36 36 -127 65 -301 97 -87
16 -167 34 -177 40 -11 5 -19 8 -19 5z"/>
<path d="M2896 1588 c-3 -7 -11 -114 -19 -238 -11 -160 -12 -229 -5 -238 21
-24 140 -85 214 -108 89 -29 188 -31 284 -6 72 19 87 36 94 111 2 23 10 47 19
54 24 18 37 62 37 126 0 63 -16 95 -46 90 -47 -9 -73 -154 -38 -209 l16 -25
-21 24 c-26 29 -28 112 -5 171 13 31 23 42 44 47 31 6 34 14 46 101 l7 54 -47
-34 c-47 -32 -49 -33 -154 -33 -102 1 -112 3 -227 46 -66 25 -137 54 -158 63
-29 13 -38 14 -41 4z m242 -197 c-52 -8 -80 -28 -98 -72 -24 -57 7 -123 70
-148 14 -5 18 -10 10 -10 -31 -2 -78 37 -90 74 -27 83 30 166 113 164 l42 -2
-47 -6z m108 -47 c9 -13 14 -27 10 -31 -3 -3 -6 -1 -6 6 0 7 -15 27 -32 44
-23 21 -26 27 -10 18 12 -6 29 -23 38 -37z m-48 -10 c25 -17 29 -60 9 -88 -19
-26 -67 -24 -89 4 -24 30 -23 46 7 75 28 29 42 31 73 9z m306 -30 c9 -23 -3
-81 -19 -94 -9 -8 -14 -3 -18 20 -4 16 -4 37 -2 45 3 8 7 22 10 30 6 20 21 19
29 -1z m-237 -26 c-3 -8 -6 -5 -6 6 -1 11 2 17 5 13 3 -3 4 -12 1 -19z m-15
-55 c-6 -10 -21 -27 -33 -38 -19 -16 -18 -14 4 13 15 19 27 38 27 44 0 6 3 9
6 6 3 -4 1 -15 -4 -25z m-65 -59 c-3 -3 -12 -4 -19 -1 -8 3 -5 6 6 6 11 1 17
-2 13 -5z"/>
</g>
</svg>
