<?xml version="1.0" standalone="no"?>
<!DOCTYPE svg PUBLIC "-//W3C//DTD SVG 20010904//EN"
 "http://www.w3.org/TR/2001/REC-SVG-20010904/DTD/svg10.dtd">
<svg version="1.0" xmlns="http://www.w3.org/2000/svg"
 width="374.000000pt" height="377.699725pt" viewBox="0 0 374.000000 377.699725"
 preserveAspectRatio="xMidYMid meet">
<metadata>
Created by potrace 1.16, written by Peter Selinger 2001-2019
</metadata>
<g transform="translate(-8.000000,440.876744) scale(0.100000,-0.100000)"
fill="#000000" stroke="none">
<path d="M1955 4391 c-225 -59 -365 -138 -543 -303 l-84 -78 -108 0 -108 0
-58 43 c-243 176 -435 257 -609 257 -71 0 -95 -21 -95 -85 l0 -44 -80 6 c-58
4 -88 2 -105 -7 -51 -27 -29 -47 120 -108 95 -40 117 -62 130 -132 6 -34 4
-36 -63 -85 -132 -94 -272 -228 -272 -259 0 -17 69 -2 137 30 195 90 283 115
283 81 0 -7 -27 -26 -60 -42 -32 -16 -73 -42 -90 -60 -45 -47 -164 -350 -158
-403 7 -62 54 -26 144 110 101 153 177 228 233 228 26 0 34 -17 55 -118 10
-46 36 -127 57 -180 21 -52 39 -104 39 -114 0 -18 -3 -17 -43 6 -57 33 -98 40
-122 22 -19 -13 -19 -16 -3 -49 9 -19 31 -51 49 -72 36 -41 32 -49 -31 -59
-21 -3 -48 -15 -61 -25 -35 -29 -16 -53 51 -66 58 -12 71 -26 43 -47 -29 -20
-53 -60 -53 -87 0 -22 3 -23 38 -18 20 4 49 9 63 13 l26 6 -10 -56 c-10 -56 0
-106 22 -106 6 0 35 22 66 49 31 27 75 58 98 69 40 19 43 19 77 2 55 -27 187
-68 275 -84 74 -14 175 -50 175 -63 0 -3 -11 -18 -25 -35 -14 -16 -25 -38 -25
-49 0 -16 7 -19 45 -19 47 0 49 -2 36 -35 -13 -30 6 -45 55 -45 35 0 44 -3 44
-18 0 -29 -38 -153 -56 -179 -15 -24 -19 -25 -90 -18 -73 7 -74 6 -101 -24
-16 -17 -47 -50 -70 -75 -34 -35 -43 -52 -43 -80 0 -32 -6 -39 -60 -76 -85
-58 -112 -101 -109 -177 2 -43 -3 -67 -14 -84 -52 -74 19 -189 117 -189 46 0
36 -18 -35 -60 -39 -23 -97 -68 -129 -100 -82 -82 -100 -134 -102 -296 -2
-187 -14 -182 410 -183 l252 -1 0 -24 c0 -60 81 -108 235 -141 96 -21 452 -31
572 -16 184 23 294 79 309 158 12 66 -43 359 -82 436 -9 16 -14 30 -12 32 2 2
24 -10 48 -27 146 -98 258 -131 450 -130 154 1 218 14 328 68 145 71 293 253
358 444 16 46 19 84 19 235 -1 191 -12 271 -73 500 -21 80 -27 123 -27 215 0
107 2 119 29 175 18 36 60 91 108 141 43 44 78 88 78 97 0 13 -17 17 -92 21
-146 9 -178 8 -251 -13 -116 -34 -219 -109 -288 -210 -19 -28 -37 -51 -40 -51
-3 0 -21 37 -40 83 -30 74 -33 94 -37 205 -3 105 -6 122 -21 122 -20 -1 -42
-17 -64 -50 l-17 -24 1 24 c2 82 90 219 176 276 30 20 52 41 50 47 -15 47
-249 48 -402 2 -86 -26 -174 -64 -241 -106 l-31 -19 -6 61 c-4 42 -1 72 10 96
9 22 12 49 8 69 -6 33 -48 86 -75 96 -12 4 -2 31 48 129 65 128 78 181 54 226
-13 23 -70 53 -101 53 -42 0 -90 -59 -157 -194 -36 -72 -69 -135 -74 -140 -7
-7 -10 54 -10 167 0 158 -2 182 -20 217 -16 31 -20 59 -20 137 0 114 -12 166
-43 188 -28 20 -95 18 -182 -4z m161 -66 c15 -36 21 -235 7 -221 -5 4 -11 46
-14 93 -5 74 -9 89 -28 104 -27 22 -41 20 -151 -22 -108 -41 -227 -118 -322
-208 -48 -45 -94 -81 -108 -83 -49 -6 -16 -23 88 -45 86 -18 110 -27 132 -50
15 -15 51 -50 80 -78 32 -30 64 -74 82 -112 16 -34 36 -64 44 -67 20 -8 18
-30 -7 -79 -20 -37 -21 -51 -15 -143 8 -119 0 -144 -51 -168 -20 -9 -54 -32
-77 -50 -33 -27 -52 -34 -102 -39 -49 -4 -82 -16 -159 -56 -53 -28 -101 -51
-106 -51 -5 0 -9 33 -9 74 0 144 -82 386 -156 457 -29 28 -43 33 -92 37 -55 4
-61 2 -95 -28 -22 -19 -45 -54 -59 -88 -20 -52 -22 -74 -23 -239 0 -157 -2
-182 -15 -179 -8 3 -30 7 -48 11 -22 5 -33 13 -36 28 -3 12 -7 109 -10 215 -6
203 -13 239 -45 222 -37 -19 -63 -95 -75 -217 l-11 -116 -23 65 c-56 157 -47
246 29 308 22 18 38 34 36 36 -7 7 -180 -34 -236 -55 -78 -29 -118 -68 -203
-194 -44 -65 -81 -117 -83 -115 -5 5 68 205 91 251 53 105 170 159 367 168 26
2 47 6 47 10 0 4 -36 21 -80 38 -137 53 -216 44 -413 -48 -49 -23 -93 -41 -98
-41 -27 0 196 174 260 203 84 37 179 14 321 -78 58 -37 70 -42 70 -24 0 17
-234 245 -271 265 -19 9 -87 37 -153 61 -65 24 -126 48 -135 54 -29 18 129 0
227 -26 171 -46 229 -89 328 -246 31 -49 61 -89 66 -89 6 0 8 6 5 13 -3 6 -12
29 -21 49 -15 36 -15 38 6 52 52 37 217 71 392 83 l101 6 105 102 c119 115
170 152 273 201 75 35 254 82 320 83 34 1 39 -2 53 -34z m-44 -101 c9 -27 17
-67 18 -89 0 -37 -8 -54 -52 -117 -13 -18 -19 -54 -24 -144 -4 -81 -12 -133
-25 -161 -10 -24 -21 -43 -24 -43 -3 0 -17 24 -30 53 -23 48 -25 64 -25 207
-1 173 -8 221 -40 255 l-22 24 52 26 c49 25 122 45 145 41 6 -1 18 -25 27 -52z
m-1427 5 c115 -35 307 -141 378 -207 35 -33 34 -38 -5 -51 -75 -23 -81 -21
-178 64 -160 140 -247 186 -354 189 -51 1 -51 1 -54 -31 -2 -18 -7 -33 -12
-33 -14 0 -19 27 -13 66 l6 37 81 -6 c45 -3 113 -16 151 -28z m-110 -40 c64
-18 135 -51 135 -63 0 -6 -4 -18 -10 -26 -8 -12 -16 -12 -62 4 -125 43 -138
49 -138 66 0 33 13 36 75 19z m1321 -50 c9 -17 18 -65 20 -108 2 -42 6 -106 9
-143 l4 -67 -72 54 c-65 50 -176 105 -212 105 -32 0 -21 22 43 85 109 109 177
133 208 74z m-1073 -85 c31 -25 68 -61 82 -80 26 -34 26 -36 9 -49 -11 -8 -24
-15 -29 -15 -13 0 -129 118 -144 147 -30 59 9 58 82 -3z m1383 -30 c15 -22 16
-40 9 -142 -14 -194 -12 -228 15 -257 17 -18 34 -25 62 -25 21 0 38 5 38 10 0
6 -7 10 -16 10 -21 0 -19 5 65 168 62 123 78 146 108 160 36 17 56 12 77 -20
15 -25 -6 -80 -82 -213 -50 -88 -79 -127 -108 -147 -46 -32 -70 -35 -79 -9 -7
23 -46 37 -126 46 -87 11 -84 4 -83 172 2 168 13 223 51 252 34 27 49 26 69
-5z m-1587 -78 c25 -19 57 -47 71 -62 28 -30 26 -30 -60 1 -54 20 -46 13 -65
58 -19 47 -7 48 54 3z m58 -222 c-3 -3 -12 -4 -19 -1 -8 3 -5 6 6 6 11 1 17
-2 13 -5z m1511 -154 c30 -5 60 -14 67 -20 20 -17 29 -68 15 -85 -16 -19 -111
-19 -165 0 -47 17 -55 18 -55 6 0 -6 12 -16 28 -23 19 -10 26 -20 24 -36 -3
-23 21 -32 33 -12 22 35 75 -14 75 -70 0 -22 4 -40 9 -40 11 0 21 35 21 77 0
17 4 34 9 38 15 8 23 -32 12 -54 -16 -29 4 -74 42 -96 18 -10 38 -25 45 -32
11 -11 9 -13 -10 -14 -71 -4 -159 23 -263 79 -80 44 -105 79 -105 154 0 55 13
94 43 127 24 25 43 25 175 1z m337 -40 c36 -69 -23 -119 -151 -128 -81 -5 -95
7 -69 58 29 55 102 97 172 99 26 1 35 -5 48 -29z m-1267 -6 c78 -51 162 -303
150 -450 -4 -48 -10 -61 -34 -80 -15 -13 -30 -22 -31 -20 -2 2 3 22 12 45 47
134 15 361 -54 378 -34 8 -68 -33 -77 -93 -13 -86 0 -247 24 -295 12 -23 20
-45 17 -47 -6 -6 -96 26 -139 51 -60 34 -77 64 -87 157 -11 98 2 221 30 284
37 84 120 115 189 70z m-388 -86 c0 -18 -9 -58 -21 -88 -22 -59 -29 -145 -16
-225 6 -42 6 -47 -5 -30 -21 32 -17 290 4 338 21 46 38 48 38 5z m2231 -83
c-48 -52 -103 -136 -121 -185 -7 -19 -15 -98 -17 -176 -6 -146 6 -222 42 -268
24 -31 28 -11 10 44 -27 80 -23 158 11 220 l28 52 18 -102 c24 -134 60 -221
151 -367 126 -201 164 -293 192 -463 29 -173 11 -312 -60 -475 -36 -80 -41
-64 -8 26 24 67 28 90 31 237 3 117 1 162 -8 162 -6 0 -16 -13 -21 -29 -6 -16
-26 -60 -45 -98 l-34 -68 5 45 c14 136 16 203 6 275 -19 133 -25 126 -72 -70
-27 -116 -69 -194 -137 -256 -30 -27 -57 -48 -59 -45 -2 2 11 39 29 83 32 75
33 83 33 208 0 108 -4 142 -23 202 -41 124 -44 123 -81 -26 -30 -126 -66 -221
-83 -221 -4 0 -7 57 -7 128 0 93 -6 147 -20 204 -20 78 -65 178 -80 178 -4 0
-11 -57 -15 -127 -8 -143 -18 -213 -28 -197 -4 5 -16 33 -27 62 -24 60 -67
132 -80 132 -4 0 -13 -44 -19 -97 -14 -120 -31 -183 -42 -162 -5 7 -16 43 -25
79 -9 36 -43 122 -75 191 -86 187 -104 251 -104 385 -1 108 0 113 37 186 46
94 104 160 199 225 157 109 280 148 477 152 l64 1 -42 -45z m-583 -1 c5 -48
-26 -68 -113 -72 -42 -3 -81 1 -94 7 -23 13 -28 45 -8 58 20 13 149 41 182 39
26 -1 30 -5 33 -32z m-512 -99 c5 0 28 -15 51 -33 23 -18 62 -41 87 -53 47
-21 179 -42 184 -29 1 4 9 16 17 26 14 18 14 18 15 -7 0 -15 -7 -32 -15 -39
-13 -11 -124 -28 -192 -29 -34 -1 -28 -20 12 -37 44 -18 65 -18 65 1 0 11 11
15 40 15 43 0 48 -6 26 -35 -29 -40 -207 -24 -277 26 -37 26 -59 69 -58 111
l1 33 10 -35 c5 -19 16 -41 23 -49 12 -12 15 -10 20 11 4 16 -3 47 -20 88 -15
37 -23 69 -19 79 5 12 9 9 13 -14 3 -16 11 -30 17 -30z m-706 -40 c0 -16 -4
-36 -9 -44 -12 -19 -26 48 -16 79 9 30 25 8 25 -35z m1174 -9 c-27 -30 -52
-54 -55 -55 -3 -1 -4 11 -1 25 3 17 20 35 51 55 25 16 48 29 50 29 2 0 -18
-24 -45 -54z m-569 -11 c-28 -23 -29 -24 -8 -25 26 0 29 -4 38 -50 6 -33 4
-37 -30 -53 -45 -22 -38 -37 14 -27 l39 7 -21 -59 c-20 -55 -23 -58 -54 -58
-39 0 -44 -15 -8 -24 25 -6 25 -8 3 -67 -5 -14 -28 -36 -51 -49 -23 -13 -64
-40 -90 -61 -64 -51 -148 -69 -312 -69 -158 0 -300 27 -402 76 -72 34 -175
118 -194 158 -6 13 3 7 23 -14 57 -61 165 -140 193 -140 19 0 -3 25 -52 59
-32 21 -71 53 -87 70 l-30 31 22 45 c24 49 28 80 12 90 -21 13 -9 25 24 25 46
0 91 -17 156 -58 84 -54 130 -72 185 -72 43 0 62 7 125 46 137 85 165 101 223
122 32 12 68 21 80 21 17 -1 18 -2 5 -6 -31 -8 -19 -23 17 -23 27 0 45 9 78
39 42 39 115 91 126 91 3 0 -7 -11 -24 -25z m-1185 -106 l58 -31 -5 -57 c-6
-68 4 -93 77 -180 l50 -60 -57 -30 c-31 -17 -57 -30 -58 -28 -17 19 -12 49 11
76 15 18 24 34 21 38 -4 3 -41 -4 -83 -15 -43 -12 -80 -19 -83 -17 -8 9 50 63
80 75 16 7 29 16 29 20 0 4 -34 16 -75 25 -41 9 -75 20 -75 24 0 11 52 21 107
21 52 0 54 -8 -29 96 -69 86 -63 94 32 43z m1650 -20 c-7 -11 -14 -18 -17 -15
-3 3 0 12 7 21 18 21 23 19 10 -6z m-319 -59 c46 -24 60 -48 36 -62 -20 -11
-67 -89 -67 -110 0 -9 -11 -40 -25 -70 -19 -40 -25 -70 -25 -120 0 -61 3 -71
31 -103 40 -45 68 -59 144 -75 33 -7 72 -19 87 -26 30 -16 61 -68 73 -124 4
-19 11 -37 15 -40 9 -6 -32 -314 -47 -350 -11 -27 -36 -237 -31 -261 2 -11 -9
-13 -57 -11 -33 1 -62 6 -66 10 -5 7 0 58 32 281 12 82 17 96 43 118 30 25 28
45 -3 26 -11 -7 -35 -18 -54 -27 l-35 -14 24 35 c45 66 29 202 -29 244 -12 9
-56 31 -97 49 -85 37 -130 66 -130 83 0 7 18 35 41 62 39 47 40 50 21 58 -20
9 -20 10 4 35 27 30 19 45 -24 48 -33 2 -33 4 12 78 42 69 43 76 16 76 -28 0
-26 22 15 120 19 46 35 86 35 87 0 8 25 1 61 -17z m275 -81 l-10 -62 -17 39
c-10 22 -18 45 -18 52 -1 10 28 29 50 31 3 1 0 -27 -5 -60z m1184 -32 c-61
-59 -77 -81 -87 -120 -25 -93 -7 -101 32 -13 36 83 112 141 232 180 87 29 94
19 34 -49 -29 -33 -67 -87 -84 -120 -27 -53 -31 -73 -35 -165 -5 -114 1 -159
48 -380 48 -226 64 -386 50 -495 -23 -171 -57 -223 -208 -314 -77 -46 -95 -51
-65 -18 61 67 163 250 163 292 0 14 -21 -3 -77 -62 -43 -45 -97 -91 -120 -102
-24 -12 -43 -19 -43 -17 0 3 13 40 29 83 98 266 109 451 40 656 -31 94 -115
264 -170 344 -38 54 -35 67 30 165 45 67 109 126 170 158 22 11 119 48 131 49
3 0 -29 -32 -70 -72z m-1268 11 c29 -31 29 -32 8 -43 -23 -12 -17 -25 12 -25
10 0 18 -4 18 -10 0 -12 -130 36 -149 55 -13 12 -12 17 4 35 28 31 71 26 107
-12z m-91 -68 c19 -11 49 -59 49 -80 0 -6 -10 -8 -27 -4 -28 7 -28 7 -9 -14
10 -12 27 -24 37 -27 11 -4 19 -11 19 -17 0 -6 -10 -3 -22 6 -13 8 -47 29 -75
46 -39 23 -53 37 -53 54 0 41 38 58 81 36z m131 -70 c30 -17 36 -29 51 -92 10
-40 49 -142 86 -228 88 -200 101 -238 101 -309 0 -45 -4 -62 -20 -76 -18 -16
-23 -17 -46 -4 -14 7 -39 28 -55 46 -28 32 -29 38 -29 131 -1 105 -13 151 -55
212 -33 47 -69 65 -182 89 -65 14 -92 25 -106 42 -28 35 -5 35 57 0 29 -17 66
-31 81 -31 25 0 27 2 23 38 -3 20 -9 46 -13 56 -8 19 -8 19 15 3 36 -25 70
-22 71 6 2 43 -3 91 -12 114 -10 28 -9 28 33 3z m-396 -18 c-8 -16 -36 -52
-62 -81 -25 -28 -44 -55 -40 -58 3 -4 30 1 60 10 68 22 78 21 41 -2 -38 -24
-75 -59 -75 -71 0 -12 -2 -12 38 -1 17 5 32 8 32 5 0 -2 -13 -26 -30 -52 -35
-58 -39 -86 -11 -77 11 3 22 1 26 -6 4 -6 54 -33 111 -61 57 -28 113 -61 124
-75 26 -34 34 -84 20 -128 -17 -52 -48 -68 -133 -68 -104 -1 -158 26 -252 124
-79 83 -100 82 -47 -2 34 -51 48 -65 122 -113 30 -20 50 -36 44 -36 -20 0 -99
57 -136 98 -61 68 -92 142 -109 257 -11 82 -29 110 -29 47 0 -24 -5 -42 -11
-42 -6 0 -9 7 -6 15 8 19 -39 55 -71 55 -25 0 -25 0 -6 21 12 13 25 18 40 15
36 -9 38 12 4 33 -42 25 -26 33 29 14 24 -8 54 -12 67 -9 14 4 47 37 79 80 45
60 67 79 118 104 76 39 81 39 63 4z m219 -52 c20 -39 20 -40 -17 -33 -30 6
-32 5 -19 -11 8 -9 30 -24 49 -32 19 -8 32 -17 29 -20 -6 -6 -133 62 -141 75
-11 17 26 51 54 51 23 0 33 -7 45 -30z m-1352 -20 c3 -11 1 -20 -4 -20 -5 0
-9 9 -9 20 0 11 2 20 4 20 2 0 6 -9 9 -20z m2091 -460 c0 -80 -3 -176 -7 -215
l-8 -70 36 40 c47 51 108 179 133 274 l19 74 17 -48 c38 -112 12 -303 -59
-445 -20 -40 -34 -74 -32 -77 3 -2 28 5 56 18 97 41 197 178 243 329 l13 45 3
-84 c2 -65 -3 -106 -22 -180 -14 -53 -28 -107 -32 -121 -13 -49 64 40 112 131
41 77 45 81 40 44 -3 -22 -10 -83 -15 -135 -11 -110 -22 -152 -62 -234 -34
-69 -50 -89 -104 -126 -61 -41 -130 -61 -235 -67 -148 -9 -243 25 -384 137
l-76 60 0 55 c0 65 -14 84 -84 110 -61 24 -76 52 -76 150 0 120 28 154 107
133 80 -22 126 -21 156 2 29 23 37 46 12 36 -8 -3 -22 -9 -30 -12 -11 -4 -6
12 15 57 35 76 60 168 60 222 0 26 4 37 13 35 14 -5 76 -162 77 -195 0 -13 4
-23 10 -23 15 0 31 69 41 190 14 149 17 157 41 90 16 -44 20 -83 22 -200z
m-1195 -98 c-15 -47 -27 -62 -45 -55 -22 8 -16 -11 12 -38 14 -13 33 -37 41
-53 13 -25 13 -30 0 -43 -13 -14 -18 -14 -38 1 -13 9 -27 16 -31 16 -16 0 -7
-27 17 -50 25 -24 34 -73 15 -85 -5 -3 -10 2 -10 13 0 27 -91 109 -148 134
-31 14 -69 22 -112 22 -62 1 -65 0 -63 -21 2 -17 -3 -23 -16 -23 -27 0 -44 26
-37 56 9 36 64 57 123 48 54 -8 52 8 -5 31 -34 15 -35 16 -18 33 33 33 121 19
229 -36 4 -2 7 1 7 7 0 6 -13 17 -30 26 l-30 15 19 48 c11 26 29 69 41 97 l21
49 35 -77 c33 -71 34 -80 23 -115z m157 -85 c24 -11 44 -28 44 -36 0 -8 -14
-45 -31 -83 l-32 -68 -53 0 c-58 0 -66 10 -39 46 21 28 18 70 -9 117 -23 39
-24 44 -10 76 l14 33 36 -32 c20 -17 56 -41 80 -53z m323 -54 c-1 -27 -5 -61
-9 -78 -7 -30 -7 -30 -13 -5 -15 65 -18 102 -6 116 21 25 29 15 28 -33z m-140
21 c19 -6 8 -83 -26 -183 -33 -101 -37 -104 -95 -97 -79 11 -78 9 -53 79 13
34 39 97 58 139 36 77 36 78 69 72 18 -3 39 -8 47 -10z m87 -163 c4 -31 3 -52
-2 -50 -72 34 -72 32 -48 117 28 102 29 101 50 -67z m-642 33 c102 -45 127
-71 134 -142 8 -90 -20 -107 -137 -80 -66 15 -66 33 0 97 31 30 50 56 47 67
-6 32 -24 25 -42 -16 -10 -22 -29 -48 -42 -57 -23 -15 -26 -14 -65 13 -22 15
-51 40 -64 56 -27 32 -35 35 -35 12 0 -8 -13 -20 -30 -25 -38 -14 -39 -29 -2
-29 38 -1 106 -33 126 -61 20 -29 21 -92 2 -108 -8 -7 -26 -9 -43 -5 -49 12
-147 60 -180 88 -28 24 -33 34 -33 73 0 40 5 50 38 80 102 94 177 103 326 37z
m342 -81 c-3 -4 -25 -9 -48 -12 -83 -12 -47 -47 77 -76 76 -17 85 -25 85 -73
0 -18 4 -42 10 -52 8 -14 4 -28 -17 -59 -25 -38 -29 -41 -62 -35 -134 21 -216
50 -227 79 -4 9 -2 27 4 41 14 30 54 32 82 4 21 -21 46 -25 68 -11 9 5 -6 15
-48 31 -54 20 -110 66 -110 90 0 25 22 62 42 70 27 10 155 13 144 3z m297 -78
c-1 -5 -16 -13 -33 -16 -42 -9 -46 -15 -25 -39 31 -34 79 -43 215 -38 100 3
133 7 154 22 27 17 27 18 10 37 -13 15 -28 19 -56 17 -21 -2 -39 2 -40 7 -5
17 53 17 98 0 53 -20 71 -59 50 -110 -18 -42 -48 -62 -112 -74 -97 -19 -108
-33 -38 -50 48 -12 89 -7 78 11 -8 13 14 28 43 28 48 0 55 -77 9 -98 -107 -48
-429 -35 -491 21 -28 25 -40 65 -26 87 9 12 19 11 79 -8 37 -12 84 -22 102
-22 31 0 33 2 19 15 -8 8 -45 24 -82 34 -84 23 -107 42 -107 91 0 39 24 70 70
89 30 12 86 10 83 -4z m-905 -111 c27 -18 27 -23 -1 -65 -30 -45 -57 -47 -101
-9 -41 37 -44 57 -15 94 20 25 21 25 57 10 20 -8 47 -22 60 -30z m281 -2 c12
-22 -2 -99 -21 -119 -9 -8 -35 -17 -58 -20 -40 -6 -43 -5 -35 13 4 10 14 42
21 69 8 28 16 56 19 63 7 19 63 15 74 -6z m81 -17 c9 -11 10 -27 4 -58 -8 -38
-12 -42 -41 -45 -31 -3 -32 -3 -23 30 4 18 11 45 14 61 7 30 27 35 46 12z
m-207 -35 c5 -4 -2 -28 -15 -54 -22 -45 -25 -48 -56 -42 -63 10 -72 35 -35 94
13 21 19 23 56 17 23 -4 46 -10 50 -15z m2144 -42 c-14 -24 -54 -74 -88 -112
l-64 -69 50 6 c30 5 75 22 116 47 37 22 70 40 74 40 12 0 -12 -31 -69 -90
-121 -124 -247 -173 -451 -173 -95 -1 -136 4 -199 22 -108 30 -221 91 -295
158 -57 51 -61 57 -55 88 3 19 1 50 -6 70 -7 20 -10 38 -8 40 2 2 30 -19 63
-46 68 -57 115 -84 200 -119 53 -22 74 -25 180 -24 141 2 215 22 309 86 46 31
60 37 67 26 7 -10 22 -6 73 21 36 19 78 44 93 57 15 12 30 21 32 19 2 -2 -8
-23 -22 -47z m-1877 -8 c0 -5 -4 -10 -10 -10 -5 0 -10 5 -10 10 0 6 5 10 10
10 6 0 10 -4 10 -10z m-48 -82 c49 -17 127 -70 172 -116 l39 -41 -57 -59 c-90
-93 -124 -148 -140 -224 -5 -19 -15 -30 -34 -35 -15 -4 -130 -7 -257 -7 -250
0 -299 7 -342 50 -23 23 -25 32 -21 87 9 142 115 256 300 323 113 41 257 51
340 22z m255 -7 c62 -9 115 -20 119 -24 4 -3 4 -17 0 -31 -4 -18 -22 -34 -56
-51 -27 -14 -54 -25 -61 -25 -6 0 -37 22 -68 49 -31 26 -73 60 -94 74 -40 27
-33 40 18 31 17 -3 81 -13 142 -23z m263 -82 c48 -7 131 -9 230 -5 l155 6 32
-43 c37 -50 60 -99 65 -142 5 -44 -15 -43 -28 1 -9 31 -12 35 -20 22 -8 -15
-17 -12 -77 27 -37 24 -103 58 -145 76 -69 29 -92 33 -212 40 -74 4 -137 8
-140 8 -3 1 4 8 14 16 11 8 27 13 35 10 9 -2 50 -10 91 -16z m155 -64 c91 -24
171 -73 262 -158 89 -85 111 -126 99 -190 -10 -52 -48 -84 -138 -112 -222 -70
-617 -52 -790 36 -21 11 -42 28 -48 38 -16 31 -12 92 10 157 33 95 153 202
259 230 67 18 274 17 346 -1z m-1225 -341 c62 -11 146 -14 313 -13 125 1 231
-1 234 -5 28 -28 -93 -45 -322 -45 -235 -1 -325 17 -325 66 0 16 -4 16 100 -3z
m1610 -88 c0 -40 -44 -82 -117 -111 -62 -25 -84 -28 -254 -35 -241 -9 -422 1
-514 30 -93 29 -145 63 -145 95 0 14 3 25 6 25 3 0 38 -15 77 -34 111 -52 197
-69 397 -74 250 -6 410 25 506 98 22 16 40 29 42 29 1 1 2 -10 2 -23z"/>
<path d="M2095 4006 c-25 -38 -35 -86 -35 -173 0 -120 17 -110 22 14 l5 106
36 34 c21 18 37 35 37 38 0 3 -11 5 -25 5 -15 0 -31 -9 -40 -24z"/>
<path d="M2437 3929 c-17 -10 -52 -68 -45 -75 2 -2 20 9 39 25 19 15 44 31 57
35 12 4 20 12 17 17 -8 12 -45 11 -68 -2z"/>
<path d="M1400 2905 l-84 -55 -83 0 c-46 0 -83 -4 -83 -9 0 -9 14 -13 94 -27
29 -5 56 -22 103 -65 34 -33 69 -59 77 -59 35 0 66 44 81 115 8 39 15 80 15
93 0 16 6 22 22 22 20 0 21 1 3 20 -28 31 -55 24 -145 -35z"/>
</g>
</svg>
