<?xml version="1.0" standalone="no"?>
<!DOCTYPE svg PUBLIC "-//W3C//DTD SVG 20010904//EN"
 "http://www.w3.org/TR/2001/REC-SVG-20010904/DTD/svg10.dtd">
<svg version="1.0" xmlns="http://www.w3.org/2000/svg"
 width="385.540722pt" height="447.223116pt" viewBox="0 0 385.540722 447.223116"
 preserveAspectRatio="xMidYMid meet">
<metadata>
Created by potrace 1.16, written by Peter Selinger 2001-2019
</metadata>
<g transform="translate(-0.801230,481.944168) scale(0.100000,-0.100000)"
fill="#000000" stroke="none">
<path d="M3666 4804 c-4 -9 -11 -57 -16 -106 -11 -106 -22 -129 -178 -358
-166 -243 -198 -293 -317 -490 -61 -102 -117 -195 -125 -207 -17 -27 -64 -45
-95 -37 -12 3 -29 17 -36 31 -17 32 -170 169 -244 218 -31 20 -77 45 -103 57
-56 24 -102 65 -102 90 0 53 -99 273 -171 379 -63 94 -194 201 -327 268 -55
28 -246 71 -314 71 -102 0 -247 -56 -320 -123 -69 -63 -66 -62 -81 -25 -8 18
-22 40 -32 48 -15 13 -19 12 -31 -5 -8 -11 -12 -25 -10 -32 3 -7 8 -35 12 -62
6 -48 6 -49 -20 -44 -28 6 -29 2 -26 -54 1 -24 -6 -39 -24 -56 -14 -14 -26
-34 -26 -46 0 -11 -15 -41 -34 -65 -18 -24 -64 -97 -102 -162 -265 -461 -357
-616 -439 -739 -52 -77 -121 -191 -155 -254 -89 -166 -120 -200 -306 -331 -64
-45 -39 -50 50 -10 37 16 71 30 76 30 4 0 5 -11 2 -25 -5 -30 12 -33 41 -7 20
17 20 16 14 -25 -4 -23 -9 -47 -12 -55 -3 -7 0 -20 6 -28 8 -13 12 -12 26 8
22 31 142 126 150 118 4 -4 -10 -20 -30 -37 -35 -28 -50 -69 -27 -69 6 0 27 8
48 19 54 27 150 54 202 56 33 1 82 20 185 70 161 79 200 102 272 162 98 82
269 307 319 421 15 33 28 52 33 46 5 -5 31 -58 58 -119 62 -139 100 -197 203
-314 95 -107 95 -106 56 -235 -34 -109 -34 -136 -2 -136 l24 0 -5 -112 c-3
-81 -11 -133 -28 -183 -12 -38 -26 -95 -30 -125 -4 -30 -14 -73 -22 -95 -9
-22 -19 -83 -24 -135 -4 -52 -12 -124 -17 -160 -6 -41 -5 -96 2 -150 13 -99 5
-285 -14 -320 -26 -50 -75 -103 -107 -116 -26 -11 -33 -20 -33 -42 0 -32 -9
-46 -32 -55 -21 -7 -33 -60 -19 -85 6 -11 30 -26 53 -35 24 -8 61 -22 83 -31
51 -19 89 -20 152 -1 29 9 97 20 152 25 74 7 114 16 151 35 59 30 67 50 15 41
-23 -5 -35 -3 -35 4 0 6 18 43 39 83 22 40 72 166 110 282 39 115 75 213 79
217 5 5 27 -14 50 -41 44 -52 66 -57 78 -18 6 19 9 17 38 -17 20 -24 43 -40
65 -44 l33 -7 40 -193 c29 -145 53 -230 95 -340 31 -81 62 -163 69 -182 20
-53 17 -99 -11 -159 -14 -30 -27 -75 -30 -100 -2 -25 -7 -57 -10 -71 -4 -14
-2 -37 4 -53 12 -31 44 -36 75 -12 40 30 76 16 114 -46 28 -46 65 -64 87 -43
8 9 22 28 30 44 21 40 72 80 103 80 15 0 41 -4 59 -9 51 -15 58 4 29 80 -13
35 -36 86 -51 112 -21 37 -27 60 -26 105 1 88 37 277 71 382 35 103 41 170 26
309 -6 55 -5 143 4 260 14 205 23 251 51 258 11 3 32 32 51 70 l32 65 -12 112
c-11 105 -11 117 7 157 10 24 24 87 30 140 9 81 8 104 -5 150 -9 30 -24 63
-35 75 -10 11 -19 26 -19 33 0 17 107 176 175 261 49 61 120 191 179 325 14
33 39 119 55 191 16 72 39 171 50 220 120 510 149 659 153 769 3 96 5 92 -44
78 -13 -4 -18 0 -18 15 0 11 -11 33 -24 49 -13 15 -35 52 -50 81 -27 53 -49
66 -60 36z m-1871 -140 c81 -18 207 -66 212 -81 5 -13 -103 -24 -126 -12 -28
14 -71 -14 -131 -84 -85 -100 -147 -229 -156 -324 -5 -58 -10 -73 -23 -73 -35
0 -247 280 -290 382 l-19 46 58 36 c219 136 291 152 475 110z m-605 -634 c14
-47 64 -186 110 -309 73 -194 82 -227 73 -251 -19 -50 -167 -249 -185 -250
-25 0 -78 77 -78 113 0 28 -1 29 -36 23 -34 -7 -38 -5 -122 85 -80 85 -88 97
-100 153 -33 160 -22 223 64 372 30 52 80 143 111 201 l56 106 40 -79 c22 -43
52 -117 67 -164z m2274 68 c35 -35 66 -130 71 -218 2 -33 15 -64 46 -115 42
-67 44 -73 43 -145 0 -82 -34 -196 -98 -333 -35 -76 -279 -449 -298 -456 -18
-6 -96 81 -118 132 -17 38 -21 64 -18 106 6 72 97 312 187 491 38 74 83 169
100 210 18 41 46 105 63 142 18 37 29 70 26 74 -18 17 -47 -25 -87 -123 -24
-59 -74 -167 -112 -240 -38 -73 -86 -176 -108 -230 -22 -54 -54 -129 -71 -168
-26 -56 -33 -84 -34 -140 -2 -105 17 -153 90 -237 35 -40 76 -95 91 -123 27
-48 28 -55 26 -172 -2 -85 -7 -131 -17 -151 -8 -15 -62 -72 -120 -126 -76 -71
-106 -105 -106 -121 0 -36 -17 -73 -38 -84 -25 -13 -170 -45 -204 -44 -14 0
-52 17 -83 37 -45 30 -86 45 -215 77 -88 22 -173 45 -188 51 -50 22 -114 81
-158 147 -24 36 -51 76 -60 88 -14 20 -13 27 15 98 17 42 31 85 31 95 0 30
-41 70 -198 198 -181 148 -322 304 -377 416 l-26 53 20 94 c11 52 23 111 26
132 5 32 14 42 54 68 49 29 81 76 81 117 0 22 53 72 75 72 8 0 112 -99 232
-221 179 -181 234 -244 309 -352 50 -73 101 -137 113 -143 38 -20 40 -25 45
-155 4 -95 11 -140 27 -183 34 -91 111 -197 189 -260 38 -31 70 -60 70 -63 0
-4 -5 -22 -12 -40 -19 -54 -4 -59 92 -34 77 21 84 22 122 6 22 -9 43 -13 46
-10 3 3 -9 23 -27 46 -36 44 -36 48 -5 159 24 85 25 259 3 310 -9 19 -51 82
-94 139 l-77 104 22 56 c85 208 304 621 440 831 121 184 137 195 194 138z
m-1074 -133 c17 -9 30 -17 30 -18 0 -1 -37 -2 -83 -2 -71 0 -88 -4 -127 -27
-70 -41 -152 -134 -180 -203 -34 -88 -52 -106 -65 -64 -4 12 -1 27 9 38 8 9
26 41 40 71 36 78 95 136 197 195 52 29 133 34 179 10z m160 -216 c84 -13 182
-60 242 -117 85 -79 59 -83 -82 -12 -108 54 -126 58 -190 35 -23 -8 -62 -15
-87 -15 -65 0 -100 -20 -183 -104 -41 -42 -82 -76 -92 -76 -10 0 -25 11 -34
25 -15 23 -14 28 17 95 35 76 127 174 171 183 31 6 158 -2 238 -14z m374 -244
c4 -19 3 -25 -3 -15 -4 8 -11 29 -15 45 -4 19 -3 25 3 15 4 -8 11 -28 15 -45z
m-344 -97 c45 2 123 -24 188 -61 24 -14 36 -17 44 -9 17 17 48 -5 48 -33 0
-14 -16 -65 -36 -114 l-36 -90 -66 -5 c-37 -3 -106 -11 -154 -17 -48 -6 -96
-8 -108 -4 -11 3 -47 45 -80 93 -33 48 -72 101 -86 119 l-26 32 41 25 c22 14
53 26 69 26 18 0 38 10 53 26 21 23 29 25 64 18 22 -4 60 -7 85 -6z m-652
-639 c73 -61 137 -120 141 -132 5 -14 -2 -51 -22 -111 l-29 -91 52 -78 c98
-145 181 -202 358 -243 65 -14 133 -30 152 -35 19 -5 66 -29 103 -53 l69 -45
82 3 c70 2 91 7 130 30 51 30 81 70 90 121 6 33 72 102 145 154 l28 20 7 -52
c10 -85 7 -120 -13 -153 -11 -18 -21 -42 -23 -55 -2 -16 -11 -25 -25 -27 -18
-3 -26 -15 -39 -60 -20 -70 -81 -137 -165 -182 -32 -17 -61 -35 -64 -40 -10
-16 -21 -12 -31 11 -9 20 -12 19 -47 -24 -42 -52 -164 -137 -196 -137 -16 0
-21 6 -21 25 0 23 -4 25 -45 25 -26 0 -57 -8 -76 -19 -17 -10 -39 -16 -50 -14
-11 3 -41 33 -66 66 l-46 60 -14 -27 c-7 -14 -15 -26 -17 -26 -13 0 -144 140
-191 204 l-58 80 -23 -29 c-17 -22 -24 -26 -28 -15 -36 96 -77 248 -81 300
-10 106 -15 130 -30 130 -8 0 -20 -18 -26 -40 -7 -22 -17 -39 -23 -37 -6 2
-21 28 -33 58 -21 49 -23 69 -22 207 1 84 -1 155 -5 159 -3 3 -17 1 -31 -5
-31 -14 -31 -5 0 54 14 26 25 64 25 84 0 35 6 50 19 50 4 0 66 -50 139 -111z
m-164 -452 c7 -37 72 -121 87 -111 5 3 9 14 9 25 0 12 5 19 11 17 13 -4 21
-86 9 -93 -4 -3 -30 10 -56 28 -55 36 -100 111 -89 146 9 31 22 26 29 -12z
m168 -565 c86 -3 97 -2 143 23 l49 27 27 -30 27 -30 -28 -89 c-15 -48 -33
-100 -39 -115 -6 -16 -20 -65 -31 -110 -21 -83 -110 -274 -156 -335 -23 -31
-29 -33 -84 -33 -33 0 -80 -5 -104 -12 -43 -11 -46 -11 -70 15 -20 22 -34 27
-73 27 -44 1 -50 4 -70 36 -13 20 -23 41 -23 48 0 7 22 32 49 54 27 23 57 60
67 81 l17 39 46 -20 c72 -31 127 -26 228 20 105 48 146 81 141 114 -3 21 -11
24 -113 36 -147 18 -218 51 -251 113 -16 32 -32 153 -26 202 l4 35 89 -46 c83
-43 94 -46 181 -50z m1180 -13 c-9 -38 -17 -41 -127 -58 -38 -6 -80 -14 -92
-17 -16 -4 -23 -2 -23 7 0 8 33 29 73 48 39 19 95 55 122 79 l50 45 3 -36 c2
-19 -1 -50 -6 -68z m-568 -188 c22 -62 68 -124 110 -151 19 -11 60 -23 94 -26
75 -8 277 13 316 33 15 8 32 11 37 6 4 -4 9 -44 10 -88 2 -105 -17 -154 -73
-185 -65 -36 -103 -41 -217 -25 -147 21 -181 20 -181 -5 0 -36 40 -126 70
-157 55 -56 226 -88 268 -49 10 9 21 16 24 16 3 0 5 -53 4 -117 -1 -106 1
-123 23 -165 30 -59 22 -82 -45 -128 l-47 -32 -24 31 c-30 38 -45 39 -72 5
-27 -34 -61 -26 -119 26 l-43 38 21 59 c45 123 46 130 27 181 -116 305 -183
537 -214 750 -8 48 11 39 31 -17z m-1044 -467 c0 -8 -10 -14 -25 -14 -27 0
-33 18 -13 38 14 14 38 -2 38 -24z m139 -50 c-12 -11 -26 -14 -54 -8 -46 8
-28 24 30 24 36 0 38 -1 24 -16z m1478 -542 c-9 -2 -25 2 -36 8 -18 9 -19 13
-8 31 12 19 13 19 36 -8 20 -23 22 -29 8 -31z m-417 29 c13 -26 3 -51 -21 -51
-14 0 -19 7 -19 28 0 45 21 57 40 23z m202 -87 c-3 -66 -36 -72 -48 -10 -3 20
-1 43 6 56 11 20 13 21 28 7 9 -10 15 -31 14 -53z"/>
<path d="M1700 3603 c0 -26 30 -62 244 -293 267 -288 282 -309 273 -402 -3
-34 -14 -72 -27 -93 -25 -40 -22 -52 8 -36 29 16 62 91 62 142 -1 89 -44 150
-303 428 -95 102 -192 206 -215 231 -35 38 -42 42 -42 23z"/>
<path d="M3130 2651 c-19 -4 -45 -14 -57 -21 -24 -15 -61 -86 -88 -169 l-17
-53 24 -25 c26 -26 77 -41 117 -35 36 6 108 84 121 131 12 47 3 162 -14 173
-13 9 -37 8 -86 -1z m75 -85 c7 -44 0 -102 -13 -110 -4 -2 -7 31 -7 75 0 87
10 104 20 35z"/>
<path d="M2330 2531 c0 -88 9 -117 51 -165 52 -59 108 -80 193 -74 64 6 64 5
63 -20 -1 -13 3 -27 10 -29 7 -3 16 18 23 53 15 70 4 111 -49 187 -52 74 -119
107 -217 107 l-74 0 0 -59z m90 -37 c0 -30 8 -59 21 -81 29 -46 17 -53 -21
-13 -30 32 -40 83 -24 124 12 31 24 15 24 -30z"/>
<path d="M2925 2249 c-4 -6 -5 -13 -2 -16 7 -7 27 6 27 18 0 12 -17 12 -25 -2z"/>
<path d="M2800 2235 c0 -18 24 -30 40 -20 8 5 8 11 -1 21 -15 19 -39 18 -39
-1z"/>
<path d="M1590 1215 c0 -10 10 -15 29 -15 34 0 49 15 25 24 -28 11 -54 6 -54
-9z"/>
<path d="M2782 727 c-6 -7 -9 -17 -5 -20 10 -11 111 -8 118 2 8 13 -3 18 -56
26 -33 5 -48 3 -57 -8z"/>
</g>
</svg>
