<?xml version="1.0" standalone="no"?>
<!DOCTYPE svg PUBLIC "-//W3C//DTD SVG 20010904//EN"
 "http://www.w3.org/TR/2001/REC-SVG-20010904/DTD/svg10.dtd">
<svg version="1.0" xmlns="http://www.w3.org/2000/svg"
 width="146.812249pt" height="194.511180pt" viewBox="0 0 146.812249 194.511180"
 preserveAspectRatio="xMidYMid meet">
<metadata>
Created by potrace 1.16, written by Peter Selinger 2001-2019
</metadata>
<g transform="translate(-40.280602,209.000000) scale(0.100000,-0.100000)"
fill="#000000" stroke="none">
<path d="M751 2064 c-27 -34 -35 -110 -28 -278 6 -160 16 -203 57 -250 l29
-33 -44 -43 c-47 -46 -90 -121 -121 -208 l-19 -54 -37 6 c-78 13 -193 19 -185
10 5 -5 55 -18 111 -29 98 -19 103 -21 96 -41 -7 -18 -20 -22 -89 -28 -63 -6
-81 -11 -81 -23 0 -12 13 -14 70 -11 39 2 70 0 70 -4 0 -3 -14 -41 -31 -83
-60 -152 -72 -215 -73 -390 0 -178 12 -230 73 -319 39 -56 138 -108 243 -127
93 -18 607 -19 688 -2 148 31 239 91 280 184 76 177 64 404 -34 663 -14 37
-26 70 -26 72 0 2 32 4 71 4 52 0 70 3 67 13 -5 14 -46 24 -110 26 -37 1 -50
6 -58 22 -7 11 -10 22 -8 24 2 1 46 10 98 20 126 23 149 38 45 30 -44 -3 -96
-8 -116 -12 -35 -5 -37 -4 -49 33 -27 83 -86 187 -128 225 l-43 40 29 34 c44
50 56 116 57 310 0 145 -3 175 -18 203 -26 48 -43 50 -83 11 -99 -95 -179
-328 -156 -452 9 -46 9 -47 -12 -41 -86 28 -188 31 -262 9 -27 -8 -49 -15 -49
-15 0 0 2 38 3 83 5 101 -14 182 -64 285 -35 71 -109 162 -132 162 -6 0 -20
-11 -31 -26z m164 -739 c38 -37 35 -95 -6 -129 -40 -34 -74 -33 -110 3 -44 45
-37 120 14 141 40 16 77 11 102 -15z m570 0 c39 -38 37 -88 -6 -127 -38 -36
-73 -36 -110 1 -58 59 -24 151 56 151 25 0 44 -8 60 -25z m-291 -44 c17 -7 17
-9 -9 -29 -36 -28 -56 -28 -84 2 -17 18 -19 25 -9 29 19 8 80 7 102 -2z m71
-316 c132 -35 235 -116 289 -230 38 -80 50 -147 43 -245 -9 -143 -62 -245
-150 -293 -40 -21 -52 -22 -307 -22 -254 0 -267 1 -306 22 -93 50 -143 149
-151 299 -9 146 26 251 113 344 108 116 304 168 469 125z"/>
<path d="M832 1304 c-47 -33 -9 -107 46 -88 37 13 43 65 10 88 -28 20 -28 20
-56 0z m50 -29 c0 -5 -5 -11 -11 -13 -6 -2 -11 4 -11 13 0 9 5 15 11 13 6 -2
11 -8 11 -13z"/>
<path d="M1402 1304 c-54 -37 -7 -113 53 -86 33 15 35 64 3 86 -12 9 -25 16
-28 16 -3 0 -16 -7 -28 -16z m48 -29 c0 -8 -4 -15 -9 -15 -13 0 -22 16 -14 24
11 11 23 6 23 -9z"/>
<path d="M1075 757 c-26 -26 -45 -53 -45 -65 0 -27 10 -28 52 -2 43 26 88 25
122 -1 24 -19 56 -20 56 -2 0 32 -88 113 -122 113 -10 0 -38 -19 -63 -43z"/>
<path d="M803 738 c-75 -80 -68 -148 9 -83 34 29 66 32 110 9 71 -37 53 33
-22 84 -44 30 -60 28 -97 -10z"/>
<path d="M1380 748 c-75 -51 -93 -121 -22 -84 45 23 85 20 112 -9 53 -57 83
-10 35 56 -48 65 -72 72 -125 37z"/>
</g>
</svg>
