<?xml version="1.0" standalone="no"?>
<!DOCTYPE svg PUBLIC "-//W3C//DTD SVG 20010904//EN"
 "http://www.w3.org/TR/2001/REC-SVG-20010904/DTD/svg10.dtd">
<svg version="1.0" xmlns="http://www.w3.org/2000/svg"
 width="473.847854pt" height="646.238263pt" viewBox="0 0 473.847854 646.238263"
 preserveAspectRatio="xMidYMid meet">
<metadata>
Created by potrace 1.16, written by Peter Selinger 2001-2019
</metadata>
<g transform="translate(-0.152146,646.348691) scale(0.100000,-0.100000)"
fill="#000000" stroke="none">
<path d="M3354 6439 c-163 -102 -314 -340 -379 -596 -35 -136 -39 -178 -25
-266 13 -91 1 -154 -29 -142 -138 57 -282 79 -459 72 -76 -3 -148 -8 -162 -12
-14 -3 -50 -10 -80 -15 -30 -5 -73 -14 -95 -19 -64 -17 -68 -15 -50 19 30 57
-20 498 -75 659 -49 147 -122 246 -212 290 -60 29 -103 21 -164 -29 -68 -56
-101 -100 -151 -202 -58 -118 -75 -209 -77 -403 -1 -153 1 -182 28 -319 17
-86 15 -93 -34 -140 -35 -34 -38 -56 -10 -63 30 -8 24 -23 -8 -23 -29 0 -52
-16 -52 -35 0 -15 44 -35 78 -35 25 0 24 -2 -30 -57 -62 -65 -223 -278 -280
-373 -29 -46 -42 -60 -55 -56 -109 34 -422 76 -574 76 -94 0 -113 -9 -107 -52
3 -25 28 -33 143 -43 219 -19 309 -33 415 -67 82 -26 86 -30 70 -67 -15 -36
-33 -40 -125 -25 -109 19 -313 33 -506 36 -162 3 -179 1 -198 -16 -12 -11 -21
-28 -21 -38 0 -41 18 -46 246 -58 211 -10 353 -22 459 -38 l50 -7 0 -65 0 -65
-135 -7 c-188 -9 -388 -38 -480 -69 -68 -23 -88 -60 -50 -94 16 -15 25 -16 67
-6 26 6 66 13 88 16 22 3 51 8 65 10 34 7 310 35 336 35 51 0 31 -31 -114
-177 -219 -221 -295 -320 -391 -511 -179 -356 -255 -673 -269 -1131 -10 -347
66 -619 223 -799 39 -44 39 -45 42 -136 3 -122 18 -173 57 -197 17 -11 37 -17
45 -14 20 8 68 -16 80 -40 5 -11 21 -58 36 -105 56 -176 133 -310 235 -410
125 -121 358 -341 408 -383 145 -122 314 -214 435 -237 94 -17 193 -9 248 21
75 42 140 123 164 205 l15 52 67 16 c178 42 401 60 582 46 196 -15 194 -14
219 -58 12 -21 52 -69 89 -108 195 -199 474 -238 702 -99 177 107 313 301 370
526 12 46 21 97 21 113 0 24 9 37 41 61 52 39 95 127 111 228 9 57 16 77 28
77 8 0 28 7 44 15 15 8 38 15 50 15 40 1 89 34 110 75 17 33 21 59 21 140 1
92 3 103 29 144 79 123 187 410 224 596 33 161 42 257 42 444 0 387 -61 635
-217 886 -23 36 -43 86 -51 123 -11 54 -21 72 -65 120 -75 82 -104 123 -113
157 -14 59 -56 128 -112 184 -82 81 -211 248 -212 274 0 14 107 7 201 -13 309
-68 359 -71 359 -26 0 43 -53 73 -185 104 -123 29 -189 40 -265 46 -123 10
-190 28 -190 53 0 13 36 14 273 6 374 -11 352 -12 383 19 32 31 27 51 -18 74
-29 16 -71 18 -356 19 -342 2 -346 2 -354 49 -3 15 20 25 162 68 224 67 250
77 277 106 28 30 29 53 5 75 -25 23 -56 21 -138 -7 -74 -26 -378 -116 -380
-113 -1 1 -21 46 -44 101 -53 122 -116 219 -203 313 -59 65 -66 75 -57 97 5
14 7 47 4 73 -6 47 -4 51 66 151 80 116 97 150 116 237 53 242 2 542 -116 683
-26 31 -61 65 -77 74 -30 17 -31 17 -79 -13z m-1628 -127 c22 -15 93 -120 127
-187 64 -129 79 -194 85 -362 3 -97 0 -163 -7 -183 -8 -25 -7 -36 5 -55 14
-21 14 -27 -2 -56 -15 -30 -15 -36 -1 -63 8 -17 18 -44 22 -60 6 -29 6 -29 63
-23 32 4 73 13 93 21 100 42 380 66 544 46 106 -12 219 -37 322 -72 88 -29 96
-23 88 57 -7 60 -5 69 18 104 l26 39 -25 47 c-22 40 -25 55 -19 99 21 169 67
307 141 423 47 74 138 195 163 217 21 19 21 19 42 0 23 -21 75 -118 84 -155
23 -106 27 -147 22 -269 -7 -196 -40 -282 -153 -400 -34 -36 -45 -55 -50 -91
-4 -30 -2 -49 5 -53 6 -4 11 -18 11 -31 0 -20 -7 -26 -41 -35 l-41 -11 74 -77
c40 -43 99 -117 132 -165 62 -93 171 -330 160 -348 -3 -6 -26 -19 -50 -29 -70
-30 -71 -86 -1 -104 19 -4 40 0 68 14 45 23 84 23 84 0 0 -10 -16 -18 -47 -25
-78 -17 -110 -62 -69 -100 16 -13 30 -16 68 -11 94 12 97 12 101 -6 2 -13 -3
-18 -18 -18 -50 0 -108 -22 -121 -46 -27 -52 54 -85 135 -54 30 11 36 6 84
-75 22 -38 66 -95 97 -125 113 -109 181 -203 210 -290 25 -75 32 -85 100 -146
48 -44 80 -83 93 -113 12 -25 41 -92 66 -147 163 -366 212 -596 209 -984 -1
-177 -5 -222 -27 -328 -42 -203 -99 -348 -190 -486 -56 -85 -100 -136 -116
-136 -12 0 -13 -13 7 148 18 146 25 687 11 827 -12 112 -27 226 -39 285 -6 30
-12 109 -13 175 -2 113 -4 124 -34 185 -31 64 -72 231 -72 294 0 17 -7 42 -16
54 -24 34 -55 25 -78 -22 -17 -36 -18 -45 -7 -100 7 -33 21 -73 32 -88 29 -41
66 -128 73 -173 5 -29 4 -36 -3 -25 -6 8 -11 20 -11 27 0 26 -57 104 -85 118
-40 18 -56 38 -89 104 -15 30 -49 81 -76 115 -92 115 -170 178 -325 261 -50
26 -103 64 -119 83 -44 52 -183 106 -251 99 -34 -4 -60 6 -91 35 -15 13 -40
20 -76 23 -30 1 -76 10 -103 20 -42 14 -103 17 -375 21 -179 2 -365 4 -415 5
-103 2 -161 -6 -225 -31 -25 -9 -74 -20 -110 -24 -49 -6 -81 -16 -130 -45 -36
-22 -92 -46 -125 -56 -98 -27 -181 -75 -273 -158 -47 -43 -113 -92 -146 -109
-67 -33 -94 -60 -128 -127 -13 -24 -40 -63 -60 -86 -56 -63 -144 -210 -175
-289 -14 -39 -30 -75 -35 -81 -4 -5 -8 -14 -8 -21 0 -6 -7 -29 -16 -49 -12
-29 -18 -35 -25 -24 -11 18 -12 98 0 135 5 16 14 61 21 99 14 72 47 178 81
253 22 47 18 77 -9 84 -38 10 -60 -9 -76 -69 -9 -32 -22 -80 -30 -108 -8 -27
-26 -95 -41 -150 -14 -55 -35 -130 -46 -167 -24 -84 -24 -113 2 -154 l21 -34
-21 -58 c-11 -31 -27 -77 -36 -102 -11 -30 -19 -102 -25 -220 -19 -367 -46
-848 -49 -857 -5 -14 -41 7 -91 54 -216 200 -304 527 -255 948 19 159 47 318
81 449 14 55 27 107 29 115 11 48 66 188 118 301 55 119 191 332 291 456 109
135 272 316 301 334 18 11 50 20 71 20 51 1 94 31 78 57 -6 10 -30 21 -53 26
l-41 8 0 54 c0 74 15 82 117 61 41 -9 90 -16 108 -16 75 0 69 70 -7 90 -55 14
-106 30 -136 41 l-24 9 19 33 c25 42 49 44 169 16 75 -17 100 -19 120 -11 52
24 13 69 -91 102 -120 39 -120 37 -16 176 83 111 227 261 331 345 44 35 45 37
33 68 -10 28 -9 36 13 68 13 20 24 42 24 49 0 23 -31 44 -66 44 -33 0 -34 1
-34 41 0 25 -8 52 -21 70 -30 43 -42 182 -28 344 17 209 66 354 147 443 41 43
49 47 68 34z m637 -2458 c120 -13 162 -14 269 -4 143 14 205 9 271 -20 26 -11
75 -23 109 -27 35 -3 76 -12 93 -21 16 -8 58 -21 93 -28 108 -23 346 -163 513
-302 59 -50 111 -106 169 -184 46 -62 109 -142 141 -178 104 -120 160 -263
174 -450 4 -47 8 -101 10 -120 2 -19 8 -179 15 -355 20 -528 -5 -792 -101
-1040 l-27 -70 -7 50 c-26 184 -78 305 -132 305 -19 0 -45 18 -90 61 l-64 62
-97 -7 c-95 -6 -227 -36 -307 -70 -124 -53 -267 -174 -338 -286 -53 -85 -93
-215 -122 -405 -14 -93 -36 -205 -47 -249 l-22 -78 -55 6 c-31 4 -142 9 -248
12 -199 7 -350 -3 -490 -32 -55 -12 -78 -13 -86 -5 -8 8 -10 51 -8 125 6 218
-73 471 -185 596 -56 62 -95 109 -139 165 -31 40 -100 108 -133 131 -78 54
-293 79 -428 49 -177 -39 -263 -117 -330 -300 -27 -74 -25 -283 4 -384 12 -41
20 -76 18 -78 -5 -5 -51 67 -86 137 -77 153 -150 458 -150 630 0 36 7 121 15
190 25 202 45 457 45 579 0 132 12 174 135 471 82 198 153 345 247 506 36 61
67 118 71 126 3 9 36 36 74 60 37 25 110 74 160 110 135 96 426 235 561 267
70 17 238 55 287 65 39 7 78 6 218 -10z m-1995 -2445 c3 -40 -13 -93 -27 -85
-16 10 -24 96 -10 112 18 22 34 11 37 -27z m3464 -16 c36 -32 78 -65 94 -74
25 -13 32 -26 47 -90 15 -67 23 -113 31 -192 5 -49 -14 -129 -50 -208 -19 -42
-34 -90 -34 -105 0 -46 -36 -165 -69 -227 -69 -131 -183 -252 -317 -338 -66
-43 -108 -52 -210 -47 -81 5 -103 10 -168 41 -85 42 -140 90 -184 164 -41 68
-47 94 -29 129 24 49 57 198 66 301 11 115 42 214 108 338 101 187 298 322
521 354 119 18 124 16 194 -46z m-2507 9 c76 -11 103 -23 169 -71 91 -68 246
-252 299 -357 43 -84 80 -259 98 -456 14 -155 7 -218 -31 -285 -54 -95 -196
-148 -318 -120 -58 13 -81 27 -322 186 -83 55 -260 236 -260 266 0 4 -9 20
-20 35 -22 31 -85 174 -104 235 -36 117 -5 325 62 424 46 68 92 105 168 137
63 26 120 27 259 6z m-865 -62 c0 -16 -5 -41 -11 -57 -8 -22 -12 -24 -19 -13
-14 21 -12 84 2 98 16 16 28 5 28 -28z m3926 15 c8 -31 -7 -97 -24 -103 -9 -3
-12 14 -12 62 0 52 3 66 15 66 8 0 17 -11 21 -25z m-102 -80 c-8 -64 -24 -67
-24 -4 0 31 3 59 7 62 13 13 22 -18 17 -58z"/>
<path d="M3150 4937 c-70 -20 -131 -58 -167 -105 -82 -108 -12 -265 137 -308
103 -30 222 -3 298 70 43 40 62 86 62 147 0 44 -5 54 -55 112 -30 36 -68 70
-85 75 -51 18 -142 22 -190 9z m161 -80 c57 -30 89 -78 89 -131 0 -58 -29 -99
-91 -130 -172 -86 -358 72 -256 218 45 64 176 86 258 43z"/>
<path d="M3135 4795 c-33 -32 -33 -78 0 -110 16 -17 32 -24 47 -21 13 3 26 5
29 5 19 3 49 46 49 72 0 37 -39 79 -75 79 -14 0 -37 -11 -50 -25z"/>
<path d="M1652 4915 c-172 -53 -222 -217 -103 -336 95 -96 268 -107 376 -25
58 45 86 89 91 148 5 47 2 59 -28 108 -27 44 -45 60 -96 87 -54 28 -74 33
-130 32 -37 0 -86 -6 -110 -14z m195 -70 c165 -76 95 -285 -96 -285 -100 0
-191 75 -191 157 0 32 31 87 63 114 52 44 148 50 224 14z"/>
<path d="M1750 4797 c-35 -18 -55 -63 -42 -93 28 -60 103 -68 135 -14 22 36
14 73 -20 100 -30 23 -39 24 -73 7z"/>
<path d="M2329 4812 c-81 -41 -119 -71 -119 -93 0 -32 27 -33 67 -1 37 29 42
30 183 37 l145 7 78 -31 c86 -35 109 -38 126 -17 10 11 7 18 -14 33 -15 10
-43 32 -63 48 -35 30 -37 30 -161 32 -69 1 -139 4 -156 8 -21 4 -46 -3 -86
-23z"/>
<path d="M2431 4700 c-37 -9 -78 -36 -95 -63 -8 -13 -6 -20 9 -31 94 -71 273
-73 358 -4 l29 23 -21 27 c-12 15 -36 31 -54 37 -45 14 -185 21 -226 11z"/>
<path d="M2498 4100 c-69 -46 -61 -100 11 -71 15 7 50 15 77 19 32 5 50 13 52
22 5 25 -21 50 -58 56 -28 4 -44 -1 -82 -26z"/>
<path d="M2312 3585 c-59 -23 -196 -123 -244 -177 -22 -25 -23 -69 -3 -107 27
-53 85 -55 170 -6 145 85 195 98 272 69 26 -9 59 -25 73 -35 30 -20 64 -25
103 -14 60 16 57 69 -9 155 -99 130 -222 169 -362 115z"/>
<path d="M3231 3508 c-40 -11 -137 -76 -165 -109 -75 -90 -86 -142 -35 -163
36 -15 90 -7 118 18 25 23 98 46 145 46 37 0 55 -10 150 -81 115 -87 146 -98
177 -60 25 31 9 79 -57 173 -113 159 -211 211 -333 176z"/>
<path d="M1449 3426 c-74 -38 -170 -106 -228 -161 -62 -57 -131 -158 -131
-190 0 -25 29 -55 52 -55 33 0 114 42 205 108 153 108 143 103 193 98 25 -3
73 -10 108 -17 73 -15 105 -7 136 34 20 27 20 28 1 63 -45 85 -126 135 -225
141 -54 3 -73 0 -111 -21z"/>
<path d="M2737 3109 c-62 -15 -112 -46 -181 -112 -72 -68 -83 -100 -46 -137
31 -31 63 -34 117 -10 153 69 225 77 294 30 63 -42 145 -40 163 5 9 25 -16 65
-83 128 -88 84 -178 117 -264 96z"/>
<path d="M1906 3035 c-31 -13 -88 -47 -127 -77 -103 -78 -132 -134 -89 -173
32 -29 79 -24 133 14 70 48 115 63 183 63 46 0 72 -5 103 -23 23 -12 41 -26
41 -30 0 -12 31 -19 55 -13 48 12 49 68 2 128 -44 55 -64 72 -122 100 -74 36
-112 38 -179 11z"/>
<path d="M3550 2973 c-32 -13 -106 -69 -137 -103 -38 -41 -43 -80 -13 -110 27
-27 53 -25 138 10 92 39 92 39 214 -78 l55 -54 32 17 c52 26 59 55 27 117 -72
141 -141 201 -240 205 -33 1 -68 0 -76 -4z"/>
<path d="M1099 2892 c-86 -55 -174 -188 -186 -283 -5 -38 -5 -39 24 -39 33 0
84 31 154 94 26 23 65 48 86 55 36 12 45 11 89 -8 55 -25 109 -22 145 8 29 23
20 46 -39 106 -93 94 -192 118 -273 67z"/>
<path d="M3241 905 c-16 -14 -42 -52 -57 -83 -32 -70 -49 -90 -91 -107 -43
-18 -51 -41 -25 -67 19 -20 21 -20 50 -3 27 17 31 17 53 1 36 -25 63 -19 101
19 43 44 66 39 75 -18 6 -41 33 -77 57 -77 7 0 29 11 49 25 44 29 51 22 52
-53 0 -57 8 -68 58 -79 35 -7 50 -41 39 -91 -10 -46 -6 -69 15 -76 22 -9 38 7
58 61 15 40 16 54 7 90 -17 62 -15 77 14 104 59 54 94 141 62 151 -22 8 -99
-11 -133 -32 -73 -45 -108 -11 -81 80 20 66 21 134 2 149 -20 17 -104 -23
-124 -61 -32 -57 -54 -79 -76 -76 -19 3 -21 9 -21 70 -1 98 -27 120 -84 73z"/>
<path d="M3125 433 c-37 -9 -75 -54 -75 -88 0 -69 105 -166 195 -179 131 -20
189 64 116 166 -52 73 -161 120 -236 101z"/>
<path d="M1602 973 c-18 -7 -62 -97 -62 -127 0 -29 -24 -56 -50 -56 -10 0 -33
19 -51 43 -46 60 -101 108 -118 105 -40 -8 -53 -103 -25 -183 12 -36 13 -50 3
-61 -18 -22 -27 -18 -75 32 -35 35 -50 45 -72 42 -26 -3 -27 -4 -26 -70 0 -55
5 -73 28 -109 29 -42 31 -78 11 -146 -6 -18 -2 -25 21 -33 32 -13 44 -4 60 43
7 21 18 33 33 35 32 5 55 46 48 88 -11 69 9 79 81 42 l43 -23 18 22 c10 12 21
40 25 62 7 48 23 52 57 15 41 -44 66 -48 112 -18 l39 26 47 -46 c26 -25 54
-46 63 -46 58 0 20 100 -53 140 -69 38 -76 46 -82 104 -8 82 -39 131 -75 119z"/>
<path d="M1640 433 c-55 -24 -115 -79 -130 -119 -15 -38 -12 -97 5 -121 47
-66 205 -17 276 86 30 44 33 119 6 149 -27 30 -96 32 -157 5z"/>
</g>
</svg>
