<?xml version="1.0" standalone="no"?>
<!DOCTYPE svg PUBLIC "-//W3C//DTD SVG 20010904//EN"
 "http://www.w3.org/TR/2001/REC-SVG-20010904/DTD/svg10.dtd">
<svg version="1.0" xmlns="http://www.w3.org/2000/svg"
 width="360.323602pt" height="366.001892pt" viewBox="0 0 360.323602 366.001892"
 preserveAspectRatio="xMidYMid meet">
<metadata>
Created by potrace 1.16, written by Peter Selinger 2001-2019
</metadata>
<g transform="translate(-37.600044,403.696838) scale(0.100000,-0.100000)"
fill="#000000" stroke="none">
<path d="M3725 4033 c-326 -31 -689 -140 -1125 -338 -113 -51 -304 -148 -465
-235 -148 -80 -444 -271 -620 -399 -334 -242 -700 -588 -848 -801 -145 -207
-217 -343 -264 -495 -22 -69 -26 -100 -27 -230 -1 -143 0 -154 28 -230 38
-101 59 -137 136 -236 105 -133 262 -267 404 -343 289 -156 622 -166 961 -29
75 30 125 56 125 64 0 3 -10 14 -21 25 -12 10 -75 76 -140 146 -134 143 -134
143 -98 250 35 102 77 168 163 253 117 115 250 180 426 206 69 10 83 9 104 -4
14 -10 57 -79 102 -164 42 -81 88 -167 102 -191 l25 -44 54 54 c77 75 268 295
354 408 248 325 459 681 608 1025 29 66 57 129 61 140 43 95 122 340 156 485
51 214 67 457 40 610 -10 61 -13 65 -41 71 -32 7 -136 8 -200 2z m-244 -511
c35 -39 38 -81 8 -136 -36 -67 -107 -114 -187 -122 -59 -6 -108 17 -136 65
-17 30 -18 39 -7 80 14 54 60 106 116 133 30 14 57 18 109 15 63 -3 71 -6 97
-35z m-521 18 c11 0 35 -14 55 -31 31 -27 35 -37 35 -78 0 -117 -144 -215
-268 -182 -60 17 -85 53 -80 116 5 58 34 105 87 138 40 24 119 48 139 41 8 -2
22 -4 32 -4z m405 -404 c41 -27 60 -81 45 -129 -28 -96 -167 -174 -260 -146
-142 43 -106 222 56 284 48 18 124 14 159 -9z m-485 -21 c42 -22 60 -53 60
-106 0 -56 -27 -101 -89 -144 -39 -27 -50 -30 -123 -30 -77 0 -80 1 -109 33
-64 72 -16 188 101 241 53 24 120 27 160 6z m-972 -629 c122 -62 147 -211 53
-317 -100 -114 -273 -131 -375 -36 -56 54 -73 108 -56 184 16 71 56 122 126
160 51 28 69 33 132 33 57 0 83 -5 120 -24z m-557 -337 c36 -16 59 -35 82 -68
29 -41 32 -53 32 -116 0 -96 -36 -164 -118 -220 -58 -39 -61 -40 -146 -40 -80
0 -91 2 -123 27 -60 45 -80 88 -80 167 0 122 68 213 191 257 53 19 106 17 162
-7z m-196 -584 c80 -33 135 -127 135 -231 0 -234 -246 -342 -383 -166 -37 48
-50 103 -45 189 4 58 11 81 33 115 63 95 167 132 260 93z"/>
<path d="M2295 1466 c-154 -41 -280 -134 -338 -249 -47 -94 -46 -103 25 -177
89 -94 393 -414 463 -488 l60 -64 22 48 c43 94 149 174 231 174 32 0 39 8 23
26 -5 5 -32 54 -61 109 -29 55 -67 127 -85 160 -17 33 -58 110 -90 170 -95
182 -148 279 -159 296 -10 15 -18 14 -91 -5z"/>
<path d="M2730 538 c-37 -25 -65 -72 -76 -127 l-7 -34 43 6 c62 8 120 53 144
110 11 26 17 49 14 53 -4 3 -24 8 -45 11 -29 4 -46 -1 -73 -19z"/>
</g>
</svg>
